<?xml version="1.0" encoding="utf-8" standalone="no"?>
<!DOCTYPE svg PUBLIC "-//W3C//DTD SVG 1.1//EN"
  "http://www.w3.org/Graphics/SVG/1.1/DTD/svg11.dtd">
<!-- Created with matplotlib (https://matplotlib.org/) -->
<svg height="310.86825pt" version="1.1" viewBox="0 0 430.373125 310.86825" width="430.373125pt" xmlns="http://www.w3.org/2000/svg" xmlns:xlink="http://www.w3.org/1999/xlink">
 <defs>
  <style type="text/css">
*{stroke-linecap:butt;stroke-linejoin:round;white-space:pre;}
  </style>
 </defs>
 <g id="figure_1">
  <g id="patch_1">
   <path d="M 0 310.86825 
L 430.373125 310.86825 
L 430.373125 0 
L 0 0 
z
" style="fill:#ffffff;"/>
  </g>
  <g id="axes_1">
   <g id="patch_2">
    <path d="M 66.053125 273.312 
L 423.173125 273.312 
L 423.173125 7.2 
L 66.053125 7.2 
z
" style="fill:#ffffff;"/>
   </g>
   <g id="matplotlib.axis_1">
    <g id="xtick_1">
     <g id="line2d_1">
      <path clip-path="url(#p1b2b2e2d33)" d="M 82.285852 273.312 
L 82.285852 7.2 
" style="fill:none;stroke:#cccccc;stroke-linecap:round;stroke-width:0.8;"/>
     </g>
     <g id="text_1">
      <!-- 0 -->
      <defs>
       <path d="M 31.78125 66.40625 
Q 24.171875 66.40625 20.328125 58.90625 
Q 16.5 51.421875 16.5 36.375 
Q 16.5 21.390625 20.328125 13.890625 
Q 24.171875 6.390625 31.78125 6.390625 
Q 39.453125 6.390625 43.28125 13.890625 
Q 47.125 21.390625 47.125 36.375 
Q 47.125 51.421875 43.28125 58.90625 
Q 39.453125 66.40625 31.78125 66.40625 
z
M 31.78125 74.21875 
Q 44.046875 74.21875 50.515625 64.515625 
Q 56.984375 54.828125 56.984375 36.375 
Q 56.984375 17.96875 50.515625 8.265625 
Q 44.046875 -1.421875 31.78125 -1.421875 
Q 19.53125 -1.421875 13.0625 8.265625 
Q 6.59375 17.96875 6.59375 36.375 
Q 6.59375 54.828125 13.0625 64.515625 
Q 19.53125 74.21875 31.78125 74.21875 
z
" id="DejaVuSans-48"/>
      </defs>
      <g style="fill:#262626;" transform="translate(79.104602 287.910437)scale(0.1 -0.1)">
       <use xlink:href="#DejaVuSans-48"/>
      </g>
     </g>
    </g>
    <g id="xtick_2">
     <g id="line2d_2">
      <path clip-path="url(#p1b2b2e2d33)" d="M 122.969379 273.312 
L 122.969379 7.2 
" style="fill:none;stroke:#cccccc;stroke-linecap:round;stroke-width:0.8;"/>
     </g>
     <g id="text_2">
      <!-- 5 -->
      <defs>
       <path d="M 10.796875 72.90625 
L 49.515625 72.90625 
L 49.515625 64.59375 
L 19.828125 64.59375 
L 19.828125 46.734375 
Q 21.96875 47.46875 24.109375 47.828125 
Q 26.265625 48.1875 28.421875 48.1875 
Q 40.625 48.1875 47.75 41.5 
Q 54.890625 34.8125 54.890625 23.390625 
Q 54.890625 11.625 47.5625 5.09375 
Q 40.234375 -1.421875 26.90625 -1.421875 
Q 22.3125 -1.421875 17.546875 -0.640625 
Q 12.796875 0.140625 7.71875 1.703125 
L 7.71875 11.625 
Q 12.109375 9.234375 16.796875 8.0625 
Q 21.484375 6.890625 26.703125 6.890625 
Q 35.15625 6.890625 40.078125 11.328125 
Q 45.015625 15.765625 45.015625 23.390625 
Q 45.015625 31 40.078125 35.4375 
Q 35.15625 39.890625 26.703125 39.890625 
Q 22.75 39.890625 18.8125 39.015625 
Q 14.890625 38.140625 10.796875 36.28125 
z
" id="DejaVuSans-53"/>
      </defs>
      <g style="fill:#262626;" transform="translate(119.788129 287.910437)scale(0.1 -0.1)">
       <use xlink:href="#DejaVuSans-53"/>
      </g>
     </g>
    </g>
    <g id="xtick_3">
     <g id="line2d_3">
      <path clip-path="url(#p1b2b2e2d33)" d="M 163.652906 273.312 
L 163.652906 7.2 
" style="fill:none;stroke:#cccccc;stroke-linecap:round;stroke-width:0.8;"/>
     </g>
     <g id="text_3">
      <!-- 10 -->
      <defs>
       <path d="M 12.40625 8.296875 
L 28.515625 8.296875 
L 28.515625 63.921875 
L 10.984375 60.40625 
L 10.984375 69.390625 
L 28.421875 72.90625 
L 38.28125 72.90625 
L 38.28125 8.296875 
L 54.390625 8.296875 
L 54.390625 0 
L 12.40625 0 
z
" id="DejaVuSans-49"/>
      </defs>
      <g style="fill:#262626;" transform="translate(157.290406 287.910437)scale(0.1 -0.1)">
       <use xlink:href="#DejaVuSans-49"/>
       <use x="63.623047" xlink:href="#DejaVuSans-48"/>
      </g>
     </g>
    </g>
    <g id="xtick_4">
     <g id="line2d_4">
      <path clip-path="url(#p1b2b2e2d33)" d="M 204.336433 273.312 
L 204.336433 7.2 
" style="fill:none;stroke:#cccccc;stroke-linecap:round;stroke-width:0.8;"/>
     </g>
     <g id="text_4">
      <!-- 15 -->
      <g style="fill:#262626;" transform="translate(197.973933 287.910437)scale(0.1 -0.1)">
       <use xlink:href="#DejaVuSans-49"/>
       <use x="63.623047" xlink:href="#DejaVuSans-53"/>
      </g>
     </g>
    </g>
    <g id="xtick_5">
     <g id="line2d_5">
      <path clip-path="url(#p1b2b2e2d33)" d="M 245.01996 273.312 
L 245.01996 7.2 
" style="fill:none;stroke:#cccccc;stroke-linecap:round;stroke-width:0.8;"/>
     </g>
     <g id="text_5">
      <!-- 20 -->
      <defs>
       <path d="M 19.1875 8.296875 
L 53.609375 8.296875 
L 53.609375 0 
L 7.328125 0 
L 7.328125 8.296875 
Q 12.9375 14.109375 22.625 23.890625 
Q 32.328125 33.6875 34.8125 36.53125 
Q 39.546875 41.84375 41.421875 45.53125 
Q 43.3125 49.21875 43.3125 52.78125 
Q 43.3125 58.59375 39.234375 62.25 
Q 35.15625 65.921875 28.609375 65.921875 
Q 23.96875 65.921875 18.8125 64.3125 
Q 13.671875 62.703125 7.8125 59.421875 
L 7.8125 69.390625 
Q 13.765625 71.78125 18.9375 73 
Q 24.125 74.21875 28.421875 74.21875 
Q 39.75 74.21875 46.484375 68.546875 
Q 53.21875 62.890625 53.21875 53.421875 
Q 53.21875 48.921875 51.53125 44.890625 
Q 49.859375 40.875 45.40625 35.40625 
Q 44.1875 33.984375 37.640625 27.21875 
Q 31.109375 20.453125 19.1875 8.296875 
z
" id="DejaVuSans-50"/>
      </defs>
      <g style="fill:#262626;" transform="translate(238.65746 287.910437)scale(0.1 -0.1)">
       <use xlink:href="#DejaVuSans-50"/>
       <use x="63.623047" xlink:href="#DejaVuSans-48"/>
      </g>
     </g>
    </g>
    <g id="xtick_6">
     <g id="line2d_6">
      <path clip-path="url(#p1b2b2e2d33)" d="M 285.703487 273.312 
L 285.703487 7.2 
" style="fill:none;stroke:#cccccc;stroke-linecap:round;stroke-width:0.8;"/>
     </g>
     <g id="text_6">
      <!-- 25 -->
      <g style="fill:#262626;" transform="translate(279.340987 287.910437)scale(0.1 -0.1)">
       <use xlink:href="#DejaVuSans-50"/>
       <use x="63.623047" xlink:href="#DejaVuSans-53"/>
      </g>
     </g>
    </g>
    <g id="xtick_7">
     <g id="line2d_7">
      <path clip-path="url(#p1b2b2e2d33)" d="M 326.387014 273.312 
L 326.387014 7.2 
" style="fill:none;stroke:#cccccc;stroke-linecap:round;stroke-width:0.8;"/>
     </g>
     <g id="text_7">
      <!-- 30 -->
      <defs>
       <path d="M 40.578125 39.3125 
Q 47.65625 37.796875 51.625 33 
Q 55.609375 28.21875 55.609375 21.1875 
Q 55.609375 10.40625 48.1875 4.484375 
Q 40.765625 -1.421875 27.09375 -1.421875 
Q 22.515625 -1.421875 17.65625 -0.515625 
Q 12.796875 0.390625 7.625 2.203125 
L 7.625 11.71875 
Q 11.71875 9.328125 16.59375 8.109375 
Q 21.484375 6.890625 26.8125 6.890625 
Q 36.078125 6.890625 40.9375 10.546875 
Q 45.796875 14.203125 45.796875 21.1875 
Q 45.796875 27.640625 41.28125 31.265625 
Q 36.765625 34.90625 28.71875 34.90625 
L 20.21875 34.90625 
L 20.21875 43.015625 
L 29.109375 43.015625 
Q 36.375 43.015625 40.234375 45.921875 
Q 44.09375 48.828125 44.09375 54.296875 
Q 44.09375 59.90625 40.109375 62.90625 
Q 36.140625 65.921875 28.71875 65.921875 
Q 24.65625 65.921875 20.015625 65.03125 
Q 15.375 64.15625 9.8125 62.3125 
L 9.8125 71.09375 
Q 15.4375 72.65625 20.34375 73.4375 
Q 25.25 74.21875 29.59375 74.21875 
Q 40.828125 74.21875 47.359375 69.109375 
Q 53.90625 64.015625 53.90625 55.328125 
Q 53.90625 49.265625 50.4375 45.09375 
Q 46.96875 40.921875 40.578125 39.3125 
z
" id="DejaVuSans-51"/>
      </defs>
      <g style="fill:#262626;" transform="translate(320.024514 287.910437)scale(0.1 -0.1)">
       <use xlink:href="#DejaVuSans-51"/>
       <use x="63.623047" xlink:href="#DejaVuSans-48"/>
      </g>
     </g>
    </g>
    <g id="xtick_8">
     <g id="line2d_8">
      <path clip-path="url(#p1b2b2e2d33)" d="M 367.070541 273.312 
L 367.070541 7.2 
" style="fill:none;stroke:#cccccc;stroke-linecap:round;stroke-width:0.8;"/>
     </g>
     <g id="text_8">
      <!-- 35 -->
      <g style="fill:#262626;" transform="translate(360.708041 287.910437)scale(0.1 -0.1)">
       <use xlink:href="#DejaVuSans-51"/>
       <use x="63.623047" xlink:href="#DejaVuSans-53"/>
      </g>
     </g>
    </g>
    <g id="xtick_9">
     <g id="line2d_9">
      <path clip-path="url(#p1b2b2e2d33)" d="M 407.754068 273.312 
L 407.754068 7.2 
" style="fill:none;stroke:#cccccc;stroke-linecap:round;stroke-width:0.8;"/>
     </g>
     <g id="text_9">
      <!-- 40 -->
      <defs>
       <path d="M 37.796875 64.3125 
L 12.890625 25.390625 
L 37.796875 25.390625 
z
M 35.203125 72.90625 
L 47.609375 72.90625 
L 47.609375 25.390625 
L 58.015625 25.390625 
L 58.015625 17.1875 
L 47.609375 17.1875 
L 47.609375 0 
L 37.796875 0 
L 37.796875 17.1875 
L 4.890625 17.1875 
L 4.890625 26.703125 
z
" id="DejaVuSans-52"/>
      </defs>
      <g style="fill:#262626;" transform="translate(401.391568 287.910437)scale(0.1 -0.1)">
       <use xlink:href="#DejaVuSans-52"/>
       <use x="63.623047" xlink:href="#DejaVuSans-48"/>
      </g>
     </g>
    </g>
    <g id="text_10">
     <!-- time (days) -->
     <defs>
      <path d="M 18.3125 70.21875 
L 18.3125 54.6875 
L 36.8125 54.6875 
L 36.8125 47.703125 
L 18.3125 47.703125 
L 18.3125 18.015625 
Q 18.3125 11.328125 20.140625 9.421875 
Q 21.96875 7.515625 27.59375 7.515625 
L 36.8125 7.515625 
L 36.8125 0 
L 27.59375 0 
Q 17.1875 0 13.234375 3.875 
Q 9.28125 7.765625 9.28125 18.015625 
L 9.28125 47.703125 
L 2.6875 47.703125 
L 2.6875 54.6875 
L 9.28125 54.6875 
L 9.28125 70.21875 
z
" id="DejaVuSans-116"/>
      <path d="M 9.421875 54.6875 
L 18.40625 54.6875 
L 18.40625 0 
L 9.421875 0 
z
M 9.421875 75.984375 
L 18.40625 75.984375 
L 18.40625 64.59375 
L 9.421875 64.59375 
z
" id="DejaVuSans-105"/>
      <path d="M 52 44.1875 
Q 55.375 50.25 60.0625 53.125 
Q 64.75 56 71.09375 56 
Q 79.640625 56 84.28125 50.015625 
Q 88.921875 44.046875 88.921875 33.015625 
L 88.921875 0 
L 79.890625 0 
L 79.890625 32.71875 
Q 79.890625 40.578125 77.09375 44.375 
Q 74.3125 48.1875 68.609375 48.1875 
Q 61.625 48.1875 57.5625 43.546875 
Q 53.515625 38.921875 53.515625 30.90625 
L 53.515625 0 
L 44.484375 0 
L 44.484375 32.71875 
Q 44.484375 40.625 41.703125 44.40625 
Q 38.921875 48.1875 33.109375 48.1875 
Q 26.21875 48.1875 22.15625 43.53125 
Q 18.109375 38.875 18.109375 30.90625 
L 18.109375 0 
L 9.078125 0 
L 9.078125 54.6875 
L 18.109375 54.6875 
L 18.109375 46.1875 
Q 21.1875 51.21875 25.484375 53.609375 
Q 29.78125 56 35.6875 56 
Q 41.65625 56 45.828125 52.96875 
Q 50 49.953125 52 44.1875 
z
" id="DejaVuSans-109"/>
      <path d="M 56.203125 29.59375 
L 56.203125 25.203125 
L 14.890625 25.203125 
Q 15.484375 15.921875 20.484375 11.0625 
Q 25.484375 6.203125 34.421875 6.203125 
Q 39.59375 6.203125 44.453125 7.46875 
Q 49.3125 8.734375 54.109375 11.28125 
L 54.109375 2.78125 
Q 49.265625 0.734375 44.1875 -0.34375 
Q 39.109375 -1.421875 33.890625 -1.421875 
Q 20.796875 -1.421875 13.15625 6.1875 
Q 5.515625 13.8125 5.515625 26.8125 
Q 5.515625 40.234375 12.765625 48.109375 
Q 20.015625 56 32.328125 56 
Q 43.359375 56 49.78125 48.890625 
Q 56.203125 41.796875 56.203125 29.59375 
z
M 47.21875 32.234375 
Q 47.125 39.59375 43.09375 43.984375 
Q 39.0625 48.390625 32.421875 48.390625 
Q 24.90625 48.390625 20.390625 44.140625 
Q 15.875 39.890625 15.1875 32.171875 
z
" id="DejaVuSans-101"/>
      <path id="DejaVuSans-32"/>
      <path d="M 31 75.875 
Q 24.46875 64.65625 21.28125 53.65625 
Q 18.109375 42.671875 18.109375 31.390625 
Q 18.109375 20.125 21.3125 9.0625 
Q 24.515625 -2 31 -13.1875 
L 23.1875 -13.1875 
Q 15.875 -1.703125 12.234375 9.375 
Q 8.59375 20.453125 8.59375 31.390625 
Q 8.59375 42.28125 12.203125 53.3125 
Q 15.828125 64.359375 23.1875 75.875 
z
" id="DejaVuSans-40"/>
      <path d="M 45.40625 46.390625 
L 45.40625 75.984375 
L 54.390625 75.984375 
L 54.390625 0 
L 45.40625 0 
L 45.40625 8.203125 
Q 42.578125 3.328125 38.25 0.953125 
Q 33.9375 -1.421875 27.875 -1.421875 
Q 17.96875 -1.421875 11.734375 6.484375 
Q 5.515625 14.40625 5.515625 27.296875 
Q 5.515625 40.1875 11.734375 48.09375 
Q 17.96875 56 27.875 56 
Q 33.9375 56 38.25 53.625 
Q 42.578125 51.265625 45.40625 46.390625 
z
M 14.796875 27.296875 
Q 14.796875 17.390625 18.875 11.75 
Q 22.953125 6.109375 30.078125 6.109375 
Q 37.203125 6.109375 41.296875 11.75 
Q 45.40625 17.390625 45.40625 27.296875 
Q 45.40625 37.203125 41.296875 42.84375 
Q 37.203125 48.484375 30.078125 48.484375 
Q 22.953125 48.484375 18.875 42.84375 
Q 14.796875 37.203125 14.796875 27.296875 
z
" id="DejaVuSans-100"/>
      <path d="M 34.28125 27.484375 
Q 23.390625 27.484375 19.1875 25 
Q 14.984375 22.515625 14.984375 16.5 
Q 14.984375 11.71875 18.140625 8.90625 
Q 21.296875 6.109375 26.703125 6.109375 
Q 34.1875 6.109375 38.703125 11.40625 
Q 43.21875 16.703125 43.21875 25.484375 
L 43.21875 27.484375 
z
M 52.203125 31.203125 
L 52.203125 0 
L 43.21875 0 
L 43.21875 8.296875 
Q 40.140625 3.328125 35.546875 0.953125 
Q 30.953125 -1.421875 24.3125 -1.421875 
Q 15.921875 -1.421875 10.953125 3.296875 
Q 6 8.015625 6 15.921875 
Q 6 25.140625 12.171875 29.828125 
Q 18.359375 34.515625 30.609375 34.515625 
L 43.21875 34.515625 
L 43.21875 35.40625 
Q 43.21875 41.609375 39.140625 45 
Q 35.0625 48.390625 27.6875 48.390625 
Q 23 48.390625 18.546875 47.265625 
Q 14.109375 46.140625 10.015625 43.890625 
L 10.015625 52.203125 
Q 14.9375 54.109375 19.578125 55.046875 
Q 24.21875 56 28.609375 56 
Q 40.484375 56 46.34375 49.84375 
Q 52.203125 43.703125 52.203125 31.203125 
z
" id="DejaVuSans-97"/>
      <path d="M 32.171875 -5.078125 
Q 28.375 -14.84375 24.75 -17.8125 
Q 21.140625 -20.796875 15.09375 -20.796875 
L 7.90625 -20.796875 
L 7.90625 -13.28125 
L 13.1875 -13.28125 
Q 16.890625 -13.28125 18.9375 -11.515625 
Q 21 -9.765625 23.484375 -3.21875 
L 25.09375 0.875 
L 2.984375 54.6875 
L 12.5 54.6875 
L 29.59375 11.921875 
L 46.6875 54.6875 
L 56.203125 54.6875 
z
" id="DejaVuSans-121"/>
      <path d="M 44.28125 53.078125 
L 44.28125 44.578125 
Q 40.484375 46.53125 36.375 47.5 
Q 32.28125 48.484375 27.875 48.484375 
Q 21.1875 48.484375 17.84375 46.4375 
Q 14.5 44.390625 14.5 40.28125 
Q 14.5 37.15625 16.890625 35.375 
Q 19.28125 33.59375 26.515625 31.984375 
L 29.59375 31.296875 
Q 39.15625 29.25 43.1875 25.515625 
Q 47.21875 21.78125 47.21875 15.09375 
Q 47.21875 7.46875 41.1875 3.015625 
Q 35.15625 -1.421875 24.609375 -1.421875 
Q 20.21875 -1.421875 15.453125 -0.5625 
Q 10.6875 0.296875 5.421875 2 
L 5.421875 11.28125 
Q 10.40625 8.6875 15.234375 7.390625 
Q 20.0625 6.109375 24.8125 6.109375 
Q 31.15625 6.109375 34.5625 8.28125 
Q 37.984375 10.453125 37.984375 14.40625 
Q 37.984375 18.0625 35.515625 20.015625 
Q 33.0625 21.96875 24.703125 23.78125 
L 21.578125 24.515625 
Q 13.234375 26.265625 9.515625 29.90625 
Q 5.8125 33.546875 5.8125 39.890625 
Q 5.8125 47.609375 11.28125 51.796875 
Q 16.75 56 26.8125 56 
Q 31.78125 56 36.171875 55.265625 
Q 40.578125 54.546875 44.28125 53.078125 
z
" id="DejaVuSans-115"/>
      <path d="M 8.015625 75.875 
L 15.828125 75.875 
Q 23.140625 64.359375 26.78125 53.3125 
Q 30.421875 42.28125 30.421875 31.390625 
Q 30.421875 20.453125 26.78125 9.375 
Q 23.140625 -1.703125 15.828125 -13.1875 
L 8.015625 -13.1875 
Q 14.5 -2 17.703125 9.0625 
Q 20.90625 20.125 20.90625 31.390625 
Q 20.90625 42.671875 17.703125 53.65625 
Q 14.5 64.65625 8.015625 75.875 
z
" id="DejaVuSans-41"/>
     </defs>
     <g style="fill:#262626;" transform="translate(216.024063 301.588562)scale(0.1 -0.1)">
      <use xlink:href="#DejaVuSans-116"/>
      <use x="39.208984" xlink:href="#DejaVuSans-105"/>
      <use x="66.992188" xlink:href="#DejaVuSans-109"/>
      <use x="164.404297" xlink:href="#DejaVuSans-101"/>
      <use x="225.927734" xlink:href="#DejaVuSans-32"/>
      <use x="257.714844" xlink:href="#DejaVuSans-40"/>
      <use x="296.728516" xlink:href="#DejaVuSans-100"/>
      <use x="360.205078" xlink:href="#DejaVuSans-97"/>
      <use x="421.484375" xlink:href="#DejaVuSans-121"/>
      <use x="480.664062" xlink:href="#DejaVuSans-115"/>
      <use x="532.763672" xlink:href="#DejaVuSans-41"/>
     </g>
    </g>
   </g>
   <g id="matplotlib.axis_2">
    <g id="ytick_1">
     <g id="line2d_10">
      <path clip-path="url(#p1b2b2e2d33)" d="M 66.053125 261.216 
L 423.173125 261.216 
" style="fill:none;stroke:#cccccc;stroke-linecap:round;stroke-width:0.8;"/>
     </g>
     <g id="text_11">
      <!-- 0 -->
      <g style="fill:#262626;" transform="translate(52.690625 265.015219)scale(0.1 -0.1)">
       <use xlink:href="#DejaVuSans-48"/>
      </g>
     </g>
    </g>
    <g id="ytick_2">
     <g id="line2d_11">
      <path clip-path="url(#p1b2b2e2d33)" d="M 66.053125 222.821911 
L 423.173125 222.821911 
" style="fill:none;stroke:#cccccc;stroke-linecap:round;stroke-width:0.8;"/>
     </g>
     <g id="text_12">
      <!-- 100000 -->
      <g style="fill:#262626;" transform="translate(20.878125 226.62113)scale(0.1 -0.1)">
       <use xlink:href="#DejaVuSans-49"/>
       <use x="63.623047" xlink:href="#DejaVuSans-48"/>
       <use x="127.246094" xlink:href="#DejaVuSans-48"/>
       <use x="190.869141" xlink:href="#DejaVuSans-48"/>
       <use x="254.492188" xlink:href="#DejaVuSans-48"/>
       <use x="318.115234" xlink:href="#DejaVuSans-48"/>
      </g>
     </g>
    </g>
    <g id="ytick_3">
     <g id="line2d_12">
      <path clip-path="url(#p1b2b2e2d33)" d="M 66.053125 184.427823 
L 423.173125 184.427823 
" style="fill:none;stroke:#cccccc;stroke-linecap:round;stroke-width:0.8;"/>
     </g>
     <g id="text_13">
      <!-- 200000 -->
      <g style="fill:#262626;" transform="translate(20.878125 188.227042)scale(0.1 -0.1)">
       <use xlink:href="#DejaVuSans-50"/>
       <use x="63.623047" xlink:href="#DejaVuSans-48"/>
       <use x="127.246094" xlink:href="#DejaVuSans-48"/>
       <use x="190.869141" xlink:href="#DejaVuSans-48"/>
       <use x="254.492188" xlink:href="#DejaVuSans-48"/>
       <use x="318.115234" xlink:href="#DejaVuSans-48"/>
      </g>
     </g>
    </g>
    <g id="ytick_4">
     <g id="line2d_13">
      <path clip-path="url(#p1b2b2e2d33)" d="M 66.053125 146.033734 
L 423.173125 146.033734 
" style="fill:none;stroke:#cccccc;stroke-linecap:round;stroke-width:0.8;"/>
     </g>
     <g id="text_14">
      <!-- 300000 -->
      <g style="fill:#262626;" transform="translate(20.878125 149.832953)scale(0.1 -0.1)">
       <use xlink:href="#DejaVuSans-51"/>
       <use x="63.623047" xlink:href="#DejaVuSans-48"/>
       <use x="127.246094" xlink:href="#DejaVuSans-48"/>
       <use x="190.869141" xlink:href="#DejaVuSans-48"/>
       <use x="254.492188" xlink:href="#DejaVuSans-48"/>
       <use x="318.115234" xlink:href="#DejaVuSans-48"/>
      </g>
     </g>
    </g>
    <g id="ytick_5">
     <g id="line2d_14">
      <path clip-path="url(#p1b2b2e2d33)" d="M 66.053125 107.639646 
L 423.173125 107.639646 
" style="fill:none;stroke:#cccccc;stroke-linecap:round;stroke-width:0.8;"/>
     </g>
     <g id="text_15">
      <!-- 400000 -->
      <g style="fill:#262626;" transform="translate(20.878125 111.438865)scale(0.1 -0.1)">
       <use xlink:href="#DejaVuSans-52"/>
       <use x="63.623047" xlink:href="#DejaVuSans-48"/>
       <use x="127.246094" xlink:href="#DejaVuSans-48"/>
       <use x="190.869141" xlink:href="#DejaVuSans-48"/>
       <use x="254.492188" xlink:href="#DejaVuSans-48"/>
       <use x="318.115234" xlink:href="#DejaVuSans-48"/>
      </g>
     </g>
    </g>
    <g id="ytick_6">
     <g id="line2d_15">
      <path clip-path="url(#p1b2b2e2d33)" d="M 66.053125 69.245557 
L 423.173125 69.245557 
" style="fill:none;stroke:#cccccc;stroke-linecap:round;stroke-width:0.8;"/>
     </g>
     <g id="text_16">
      <!-- 500000 -->
      <g style="fill:#262626;" transform="translate(20.878125 73.044776)scale(0.1 -0.1)">
       <use xlink:href="#DejaVuSans-53"/>
       <use x="63.623047" xlink:href="#DejaVuSans-48"/>
       <use x="127.246094" xlink:href="#DejaVuSans-48"/>
       <use x="190.869141" xlink:href="#DejaVuSans-48"/>
       <use x="254.492188" xlink:href="#DejaVuSans-48"/>
       <use x="318.115234" xlink:href="#DejaVuSans-48"/>
      </g>
     </g>
    </g>
    <g id="ytick_7">
     <g id="line2d_16">
      <path clip-path="url(#p1b2b2e2d33)" d="M 66.053125 30.851469 
L 423.173125 30.851469 
" style="fill:none;stroke:#cccccc;stroke-linecap:round;stroke-width:0.8;"/>
     </g>
     <g id="text_17">
      <!-- 600000 -->
      <defs>
       <path d="M 33.015625 40.375 
Q 26.375 40.375 22.484375 35.828125 
Q 18.609375 31.296875 18.609375 23.390625 
Q 18.609375 15.53125 22.484375 10.953125 
Q 26.375 6.390625 33.015625 6.390625 
Q 39.65625 6.390625 43.53125 10.953125 
Q 47.40625 15.53125 47.40625 23.390625 
Q 47.40625 31.296875 43.53125 35.828125 
Q 39.65625 40.375 33.015625 40.375 
z
M 52.59375 71.296875 
L 52.59375 62.3125 
Q 48.875 64.0625 45.09375 64.984375 
Q 41.3125 65.921875 37.59375 65.921875 
Q 27.828125 65.921875 22.671875 59.328125 
Q 17.53125 52.734375 16.796875 39.40625 
Q 19.671875 43.65625 24.015625 45.921875 
Q 28.375 48.1875 33.59375 48.1875 
Q 44.578125 48.1875 50.953125 41.515625 
Q 57.328125 34.859375 57.328125 23.390625 
Q 57.328125 12.15625 50.6875 5.359375 
Q 44.046875 -1.421875 33.015625 -1.421875 
Q 20.359375 -1.421875 13.671875 8.265625 
Q 6.984375 17.96875 6.984375 36.375 
Q 6.984375 53.65625 15.1875 63.9375 
Q 23.390625 74.21875 37.203125 74.21875 
Q 40.921875 74.21875 44.703125 73.484375 
Q 48.484375 72.75 52.59375 71.296875 
z
" id="DejaVuSans-54"/>
      </defs>
      <g style="fill:#262626;" transform="translate(20.878125 34.650688)scale(0.1 -0.1)">
       <use xlink:href="#DejaVuSans-54"/>
       <use x="63.623047" xlink:href="#DejaVuSans-48"/>
       <use x="127.246094" xlink:href="#DejaVuSans-48"/>
       <use x="190.869141" xlink:href="#DejaVuSans-48"/>
       <use x="254.492188" xlink:href="#DejaVuSans-48"/>
       <use x="318.115234" xlink:href="#DejaVuSans-48"/>
      </g>
     </g>
    </g>
    <g id="text_18">
     <!-- cells number -->
     <defs>
      <path d="M 48.78125 52.59375 
L 48.78125 44.1875 
Q 44.96875 46.296875 41.140625 47.34375 
Q 37.3125 48.390625 33.40625 48.390625 
Q 24.65625 48.390625 19.8125 42.84375 
Q 14.984375 37.3125 14.984375 27.296875 
Q 14.984375 17.28125 19.8125 11.734375 
Q 24.65625 6.203125 33.40625 6.203125 
Q 37.3125 6.203125 41.140625 7.25 
Q 44.96875 8.296875 48.78125 10.40625 
L 48.78125 2.09375 
Q 45.015625 0.34375 40.984375 -0.53125 
Q 36.96875 -1.421875 32.421875 -1.421875 
Q 20.0625 -1.421875 12.78125 6.34375 
Q 5.515625 14.109375 5.515625 27.296875 
Q 5.515625 40.671875 12.859375 48.328125 
Q 20.21875 56 33.015625 56 
Q 37.15625 56 41.109375 55.140625 
Q 45.0625 54.296875 48.78125 52.59375 
z
" id="DejaVuSans-99"/>
      <path d="M 9.421875 75.984375 
L 18.40625 75.984375 
L 18.40625 0 
L 9.421875 0 
z
" id="DejaVuSans-108"/>
      <path d="M 54.890625 33.015625 
L 54.890625 0 
L 45.90625 0 
L 45.90625 32.71875 
Q 45.90625 40.484375 42.875 44.328125 
Q 39.84375 48.1875 33.796875 48.1875 
Q 26.515625 48.1875 22.3125 43.546875 
Q 18.109375 38.921875 18.109375 30.90625 
L 18.109375 0 
L 9.078125 0 
L 9.078125 54.6875 
L 18.109375 54.6875 
L 18.109375 46.1875 
Q 21.34375 51.125 25.703125 53.5625 
Q 30.078125 56 35.796875 56 
Q 45.21875 56 50.046875 50.171875 
Q 54.890625 44.34375 54.890625 33.015625 
z
" id="DejaVuSans-110"/>
      <path d="M 8.5 21.578125 
L 8.5 54.6875 
L 17.484375 54.6875 
L 17.484375 21.921875 
Q 17.484375 14.15625 20.5 10.265625 
Q 23.53125 6.390625 29.59375 6.390625 
Q 36.859375 6.390625 41.078125 11.03125 
Q 45.3125 15.671875 45.3125 23.6875 
L 45.3125 54.6875 
L 54.296875 54.6875 
L 54.296875 0 
L 45.3125 0 
L 45.3125 8.40625 
Q 42.046875 3.421875 37.71875 1 
Q 33.40625 -1.421875 27.6875 -1.421875 
Q 18.265625 -1.421875 13.375 4.4375 
Q 8.5 10.296875 8.5 21.578125 
z
M 31.109375 56 
z
" id="DejaVuSans-117"/>
      <path d="M 48.6875 27.296875 
Q 48.6875 37.203125 44.609375 42.84375 
Q 40.53125 48.484375 33.40625 48.484375 
Q 26.265625 48.484375 22.1875 42.84375 
Q 18.109375 37.203125 18.109375 27.296875 
Q 18.109375 17.390625 22.1875 11.75 
Q 26.265625 6.109375 33.40625 6.109375 
Q 40.53125 6.109375 44.609375 11.75 
Q 48.6875 17.390625 48.6875 27.296875 
z
M 18.109375 46.390625 
Q 20.953125 51.265625 25.265625 53.625 
Q 29.59375 56 35.59375 56 
Q 45.5625 56 51.78125 48.09375 
Q 58.015625 40.1875 58.015625 27.296875 
Q 58.015625 14.40625 51.78125 6.484375 
Q 45.5625 -1.421875 35.59375 -1.421875 
Q 29.59375 -1.421875 25.265625 0.953125 
Q 20.953125 3.328125 18.109375 8.203125 
L 18.109375 0 
L 9.078125 0 
L 9.078125 75.984375 
L 18.109375 75.984375 
z
" id="DejaVuSans-98"/>
      <path d="M 41.109375 46.296875 
Q 39.59375 47.171875 37.8125 47.578125 
Q 36.03125 48 33.890625 48 
Q 26.265625 48 22.1875 43.046875 
Q 18.109375 38.09375 18.109375 28.8125 
L 18.109375 0 
L 9.078125 0 
L 9.078125 54.6875 
L 18.109375 54.6875 
L 18.109375 46.1875 
Q 20.953125 51.171875 25.484375 53.578125 
Q 30.03125 56 36.53125 56 
Q 37.453125 56 38.578125 55.875 
Q 39.703125 55.765625 41.0625 55.515625 
z
" id="DejaVuSans-114"/>
     </defs>
     <g style="fill:#262626;" transform="translate(14.798438 172.567719)rotate(-90)scale(0.1 -0.1)">
      <use xlink:href="#DejaVuSans-99"/>
      <use x="54.980469" xlink:href="#DejaVuSans-101"/>
      <use x="116.503906" xlink:href="#DejaVuSans-108"/>
      <use x="144.287109" xlink:href="#DejaVuSans-108"/>
      <use x="172.070312" xlink:href="#DejaVuSans-115"/>
      <use x="224.169922" xlink:href="#DejaVuSans-32"/>
      <use x="255.957031" xlink:href="#DejaVuSans-110"/>
      <use x="319.335938" xlink:href="#DejaVuSans-117"/>
      <use x="382.714844" xlink:href="#DejaVuSans-109"/>
      <use x="480.126953" xlink:href="#DejaVuSans-98"/>
      <use x="543.603516" xlink:href="#DejaVuSans-101"/>
      <use x="605.126953" xlink:href="#DejaVuSans-114"/>
     </g>
    </g>
   </g>
   <g id="line2d_17">
    <path clip-path="url(#p1b2b2e2d33)" d="M 82.285852 258.641676 
L 83.099523 246.603594 
L 84.726864 205.415951 
L 86.354205 164.560418 
L 87.981546 131.60754 
L 89.608887 106.471314 
L 90.422558 95.871474 
L 92.049899 79.170045 
L 93.67724 66.525336 
L 95.304581 56.653832 
L 96.118251 52.575996 
L 97.745593 46.054376 
L 98.559263 43.269653 
L 101.000275 36.910824 
L 102.627616 33.555181 
L 103.441286 32.055507 
L 105.068627 29.73996 
L 105.882298 28.848065 
L 106.695968 27.631741 
L 109.13698 25.235565 
L 109.950651 24.745273 
L 111.577992 23.411078 
L 112.391662 23.504376 
L 113.205333 23.338514 
L 114.832674 22.654715 
L 115.646344 21.934442 
L 116.460015 21.477936 
L 117.273685 21.160417 
L 118.087356 21.073262 
L 118.901027 20.843666 
L 120.528368 20.957696 
L 121.342038 20.797209 
L 122.155709 21.003001 
L 123.78305 20.685482 
L 124.59672 20.285032 
L 125.410391 20.249325 
L 126.224061 19.958298 
L 127.037732 20.329953 
L 127.851403 20.32381 
L 128.665073 20.205556 
L 130.292414 20.456653 
L 131.106085 20.10266 
L 131.919755 20.204788 
L 132.733426 20.072328 
L 134.360767 20.187127 
L 135.174437 19.944092 
L 135.988108 20.306532 
L 136.801778 20.520004 
L 137.615449 20.420947 
L 138.42912 20.542656 
L 140.056461 20.399446 
L 140.870131 20.721956 
L 141.683802 20.288487 
L 143.311143 20.361436 
L 144.938484 20.704295 
L 145.752154 20.911623 
L 146.565825 20.908936 
L 147.379495 21.379647 
L 148.193166 21.316681 
L 149.006837 20.957312 
L 149.820507 21.307082 
L 150.634178 21.404603 
L 151.447848 21.958246 
L 152.261519 21.906798 
L 153.075189 22.033499 
L 154.70253 21.71406 
L 156.329871 22.981832 
L 157.143542 23.410694 
L 157.957212 23.606504 
L 158.770883 24.399342 
L 159.584554 24.645448 
L 160.398224 25.440206 
L 161.211895 26.071021 
L 163.652906 28.942131 
L 165.280247 31.880046 
L 166.907588 35.527485 
L 168.53493 40.031495 
L 170.975941 47.375517 
L 172.603282 52.592889 
L 178.298976 74.064399 
L 182.367329 91.291443 
L 188.876693 121.272235 
L 190.504034 128.820513 
L 194.572387 147.150235 
L 198.640739 164.553123 
L 202.709092 180.265136 
L 206.777445 194.054373 
L 212.473139 210.718559 
L 214.91415 216.825139 
L 219.796174 226.927391 
L 222.237185 231.322363 
L 224.678197 235.401735 
L 226.305538 237.765275 
L 227.119208 238.724359 
L 227.932879 239.864279 
L 232.814902 245.285909 
L 236.883255 248.924516 
L 238.510596 250.182691 
L 240.137937 251.225474 
L 241.765278 252.215274 
L 243.392619 253.103713 
L 245.833631 254.345762 
L 250.715654 256.206723 
L 260.479701 258.584085 
L 264.548053 259.2675 
L 268.616406 259.639923 
L 282.448805 260.653143 
L 299.535886 261.045146 
L 312.554615 261.191044 
L 341.033084 261.216 
L 406.940398 261.216 
L 406.940398 261.216 
" style="fill:none;stroke:#000080;stroke-linecap:round;stroke-width:1.5;"/>
   </g>
   <g id="line2d_18">
    <path clip-path="url(#p1b2b2e2d33)" d="M 82.285852 258.687749 
L 83.099523 246.852004 
L 83.913193 227.335137 
L 85.540534 183.628074 
L 86.354205 163.749535 
L 87.981546 131.386774 
L 89.608887 106.179519 
L 90.422558 95.630743 
L 92.049899 78.691271 
L 92.863569 71.834855 
L 94.49091 60.775821 
L 96.118251 52.727653 
L 97.745593 46.37727 
L 99.372934 41.374521 
L 101.813945 35.271396 
L 103.441286 32.462101 
L 106.695968 28.016833 
L 111.577992 24.141334 
L 112.391662 23.975088 
L 113.205333 23.663712 
L 114.832674 23.198375 
L 116.460015 22.497683 
L 118.901027 21.925995 
L 119.714697 21.311306 
L 121.342038 21.432631 
L 122.155709 21.352387 
L 122.969379 20.978429 
L 124.59672 21.12855 
L 125.410391 21.033333 
L 126.224061 20.753824 
L 127.037732 20.266219 
L 131.106085 20.299238 
L 131.919755 20.361052 
L 135.174437 19.742139 
L 136.801778 19.76172 
L 137.615449 19.945628 
L 138.42912 19.845035 
L 140.056461 19.985174 
L 141.683802 20.637489 
L 143.311143 20.84213 
L 144.124813 20.853264 
L 144.938484 21.12471 
L 145.752154 21.019895 
L 146.565825 21.0652 
L 147.379495 20.926981 
L 148.193166 20.966143 
L 149.006837 21.215704 
L 149.820507 21.052913 
L 151.447848 21.493678 
L 152.261519 21.428024 
L 153.075189 21.666067 
L 153.88886 21.464114 
L 154.70253 21.451828 
L 156.329871 21.794303 
L 157.143542 22.423966 
L 158.770883 22.745325 
L 159.584554 22.993735 
L 161.211895 24.543704 
L 162.839236 26.105959 
L 163.652906 27.041623 
L 165.280247 29.576785 
L 166.093918 31.208534 
L 167.721259 33.835841 
L 168.53493 35.388882 
L 170.162271 39.242881 
L 172.603282 46.229453 
L 175.044294 54.609731 
L 175.857964 57.581433 
L 177.485305 64.287345 
L 179.112647 70.522929 
L 186.435681 102.549742 
L 196.199728 146.766678 
L 201.895422 170.763751 
L 205.150104 183.197292 
L 209.218457 196.908589 
L 210.845798 201.935527 
L 212.473139 206.840756 
L 218.168832 221.114526 
L 220.609844 226.316157 
L 222.237185 229.35505 
L 224.678197 233.442484 
L 226.305538 235.946931 
L 229.56022 240.155691 
L 232.814902 243.744386 
L 236.069584 246.970257 
L 237.696925 248.334015 
L 240.951608 250.783558 
L 244.20629 252.907903 
L 247.460972 254.434836 
L 255.597677 257.264864 
L 258.852359 257.990513 
L 266.175394 259.173051 
L 275.12577 259.948227 
L 281.635135 260.331016 
L 296.281204 260.789442 
L 349.169789 261.20333 
L 386.598634 261.216 
L 406.940398 261.216 
L 406.940398 261.216 
" style="fill:none;stroke:#0000f1;stroke-linecap:round;stroke-width:1.5;"/>
   </g>
   <g id="line2d_19">
    <path clip-path="url(#p1b2b2e2d33)" d="M 82.285852 258.595987 
L 83.099523 246.760626 
L 83.913193 227.178873 
L 85.540534 183.255651 
L 87.167876 146.284448 
L 88.795217 117.499248 
L 90.422558 95.49214 
L 91.236228 86.573193 
L 92.863569 72.193072 
L 93.67724 66.331062 
L 95.304581 56.57474 
L 96.931922 48.906289 
L 98.559263 43.247384 
L 101.813945 35.400784 
L 102.627616 33.77633 
L 105.068627 30.056711 
L 105.882298 28.613093 
L 107.509639 27.193664 
L 109.950651 25.401428 
L 110.764321 24.933404 
L 112.391662 23.639907 
L 114.019003 22.876249 
L 115.646344 22.390564 
L 116.460015 22.32491 
L 118.087356 21.741319 
L 119.714697 21.635352 
L 120.528368 21.135077 
L 121.342038 20.401366 
L 122.969379 20.176376 
L 124.59672 20.166778 
L 127.851403 20.198261 
L 128.665073 19.935646 
L 130.292414 20.048524 
L 131.106085 20.02472 
L 133.547096 20.446671 
L 134.360767 20.213619 
L 135.174437 20.415572 
L 135.988108 20.474315 
L 137.615449 20.809495 
L 138.42912 20.564925 
L 139.24279 20.886283 
L 140.056461 20.708135 
L 140.870131 20.836755 
L 141.683802 20.676651 
L 142.497472 20.758815 
L 143.311143 20.638641 
L 144.124813 20.652463 
L 144.938484 20.436304 
L 147.379495 21.091308 
L 149.006837 21.407675 
L 149.820507 21.428792 
L 150.634178 21.323208 
L 152.261519 21.507116 
L 153.075189 21.424952 
L 154.70253 21.761668 
L 156.329871 22.313391 
L 157.957212 22.814818 
L 158.770883 23.255582 
L 160.398224 24.566357 
L 162.025565 25.72317 
L 162.839236 26.468016 
L 165.280247 29.392493 
L 166.093918 30.502083 
L 167.721259 33.422337 
L 168.53493 35.352408 
L 170.162271 40.084095 
L 170.975941 42.133956 
L 171.789612 44.51938 
L 173.416953 50.206313 
L 175.044294 55.336531 
L 176.671635 61.544855 
L 182.367329 84.887693 
L 184.80834 95.873777 
L 188.063022 111.860692 
L 190.504034 122.52465 
L 198.640739 159.616795 
L 203.522763 179.607061 
L 205.963774 188.532151 
L 207.591115 194.03556 
L 210.032127 201.779647 
L 214.10048 213.12702 
L 216.541491 218.88383 
L 218.982503 224.237885 
L 223.864526 232.870028 
L 225.491867 235.433218 
L 228.746549 240.07967 
L 230.373891 242.084226 
L 232.814902 244.554501 
L 234.442243 246.164749 
L 236.883255 248.239182 
L 243.392619 252.851848 
L 248.274642 255.196191 
L 252.342995 256.675515 
L 257.225018 258.060774 
L 262.920712 259.139648 
L 266.175394 259.54125 
L 278.380452 260.458101 
L 286.517158 260.740681 
L 294.653863 260.937643 
L 300.349557 261.033628 
L 309.299933 261.127694 
L 338.592072 261.212928 
L 406.940398 261.216 
L 406.940398 261.216 
" style="fill:none;stroke:#004cff;stroke-linecap:round;stroke-width:1.5;"/>
   </g>
   <g id="line2d_20">
    <path clip-path="url(#p1b2b2e2d33)" d="M 82.285852 258.625935 
L 83.099523 246.941462 
L 84.726864 205.264295 
L 86.354205 163.886986 
L 87.981546 131.073862 
L 89.608887 105.81823 
L 91.236228 86.604293 
L 92.049899 78.85675 
L 93.67724 66.359474 
L 95.304581 56.308669 
L 96.118251 52.419732 
L 97.745593 46.063975 
L 98.559263 43.061173 
L 101.000275 36.754944 
L 101.813945 34.802221 
L 103.441286 32.36458 
L 104.254957 31.259214 
L 105.068627 29.916189 
L 106.695968 27.898196 
L 107.509639 26.931048 
L 108.32331 26.282188 
L 110.764321 24.875429 
L 111.577992 24.137111 
L 113.205333 23.417221 
L 114.019003 22.762986 
L 116.460015 21.534759 
L 118.087356 21.134693 
L 118.901027 20.943106 
L 119.714697 21.170783 
L 120.528368 21.004537 
L 121.342038 21.113192 
L 123.78305 20.683946 
L 125.410391 20.933892 
L 126.224061 20.717733 
L 127.037732 20.268138 
L 129.478744 20.149501 
L 130.292414 20.345694 
L 132.733426 20.226289 
L 133.547096 20.034318 
L 134.360767 20.301925 
L 135.174437 20.156412 
L 137.615449 20.261995 
L 139.24279 20.043149 
L 140.056461 20.200181 
L 141.683802 20.101892 
L 142.497472 20.569148 
L 143.311143 20.543808 
L 144.124813 20.634802 
L 144.938484 20.42325 
L 146.565825 20.513477 
L 147.379495 20.364891 
L 149.006837 20.964607 
L 149.820507 21.121255 
L 150.634178 21.504812 
L 151.447848 21.55626 
L 152.261519 21.374272 
L 155.516201 22.352937 
L 156.329871 22.686582 
L 157.957212 22.910419 
L 158.770883 23.615719 
L 159.584554 24.160147 
L 160.398224 24.451942 
L 162.839236 26.480302 
L 166.093918 31.423541 
L 167.721259 34.223622 
L 168.53493 35.791252 
L 170.162271 39.393002 
L 170.975941 41.849072 
L 171.789612 43.762633 
L 175.044294 54.640062 
L 178.298976 67.183411 
L 183.99467 91.091794 
L 187.249352 105.912296 
L 189.690364 116.928712 
L 196.199728 146.008778 
L 201.081751 166.582251 
L 204.336433 179.395126 
L 205.963774 185.558529 
L 211.659468 204.235333 
L 213.286809 208.538543 
L 215.727821 214.591371 
L 217.355162 218.427324 
L 220.609844 225.449603 
L 223.050856 229.855708 
L 224.678197 232.731426 
L 226.305538 235.305365 
L 229.56022 239.83318 
L 233.628573 244.612476 
L 236.069584 246.939926 
L 239.324266 249.605244 
L 244.20629 252.671396 
L 245.01996 253.198546 
L 249.088313 255.116715 
L 254.784007 257.053313 
L 258.852359 258.001647 
L 265.361724 259.206069 
L 270.243747 259.761248 
L 275.12577 260.120233 
L 288.958169 260.785986 
L 297.094875 260.926893 
L 316.622968 261.075094 
L 328.014355 261.131917 
L 340.219413 261.178758 
L 406.940398 261.216 
L 406.940398 261.216 
" style="fill:none;stroke:#00b0ff;stroke-linecap:round;stroke-width:1.5;"/>
   </g>
   <g id="line2d_21">
    <path clip-path="url(#p1b2b2e2d33)" d="M 82.285852 258.74726 
L 83.099523 246.996749 
L 84.726864 205.220526 
L 86.354205 164.2333 
L 87.981546 131.442061 
L 88.795217 117.9427 
L 90.422558 96.140232 
L 92.049899 79.652659 
L 93.67724 67.217582 
L 95.304581 57.123008 
L 96.931922 49.87382 
L 97.745593 46.433326 
L 99.372934 40.856968 
L 100.186604 38.437373 
L 101.000275 36.865903 
L 101.813945 35.020683 
L 103.441286 32.219066 
L 105.068627 29.759541 
L 105.882298 28.79009 
L 109.13698 25.808789 
L 109.950651 25.426384 
L 110.764321 25.18335 
L 112.391662 24.178192 
L 113.205333 23.874111 
L 114.019003 23.204134 
L 114.832674 22.875097 
L 115.646344 22.369831 
L 116.460015 22.165574 
L 117.273685 21.747846 
L 118.087356 21.839608 
L 118.901027 21.394237 
L 121.342038 20.817942 
L 122.155709 20.800664 
L 122.969379 20.542656 
L 124.59672 20.877453 
L 125.410391 20.769181 
L 126.224061 20.895882 
L 127.037732 20.668205 
L 127.851403 20.637106 
L 129.478744 19.994005 
L 131.919755 19.752506 
L 132.733426 19.575509 
L 134.360767 19.598545 
L 135.174437 19.413102 
L 138.42912 19.826606 
L 140.056461 20.132991 
L 140.870131 20.689705 
L 141.683802 20.91815 
L 142.497472 20.723492 
L 143.311143 20.695848 
L 144.938484 20.847121 
L 147.379495 21.06136 
L 148.193166 21.407291 
L 149.006837 21.37312 
L 149.820507 21.093227 
L 150.634178 21.2971 
L 152.261519 21.340485 
L 153.88886 21.710604 
L 155.516201 22.385188 
L 156.329871 22.905812 
L 157.143542 23.233698 
L 157.957212 23.372684 
L 158.770883 23.817672 
L 160.398224 24.331385 
L 161.211895 24.903073 
L 162.839236 26.626583 
L 163.652906 27.731949 
L 164.466577 28.607718 
L 166.093918 31.216597 
L 166.907588 32.495888 
L 171.789612 42.897614 
L 173.416953 46.943199 
L 175.044294 51.912162 
L 176.671635 57.327648 
L 178.298976 63.219605 
L 180.739988 72.988981 
L 183.99467 86.355883 
L 192.131375 123.139339 
L 194.572387 134.393031 
L 197.013398 145.39908 
L 203.522763 172.510682 
L 208.404786 189.86673 
L 210.845798 197.554378 
L 214.91415 209.370543 
L 219.796174 220.955959 
L 223.050856 227.697193 
L 224.678197 230.837061 
L 227.119208 234.716016 
L 231.187561 240.445566 
L 233.628573 243.290568 
L 236.883255 246.517591 
L 238.510596 247.977334 
L 240.951608 249.754213 
L 244.20629 251.75992 
L 245.01996 252.28208 
L 251.529325 255.2653 
L 256.411348 256.86403 
L 258.038689 257.22839 
L 262.107042 258.248905 
L 268.616406 259.576188 
L 280.007793 260.59056 
L 284.076146 260.765253 
L 295.467534 261.011743 
L 313.368286 261.13998 
L 330.455367 261.178758 
L 393.107999 261.216 
L 406.940398 261.216 
L 406.940398 261.216 
" style="fill:none;stroke:#29ffce;stroke-linecap:round;stroke-width:1.5;"/>
   </g>
   <g id="line2d_22">
    <path clip-path="url(#p1b2b2e2d33)" d="M 82.285852 258.637453 
L 83.099523 246.635077 
L 84.726864 205.038538 
L 86.354205 164.197594 
L 87.981546 131.414417 
L 89.608887 106.490511 
L 91.236228 87.240099 
L 92.863569 72.349719 
L 94.49091 60.873342 
L 96.118251 52.261932 
L 97.745593 45.753366 
L 99.372934 41.008241 
L 102.627616 32.95009 
L 103.441286 31.346369 
L 105.882298 28.068665 
L 106.695968 27.252023 
L 109.950651 25.01096 
L 110.764321 24.428906 
L 111.577992 24.207756 
L 113.205333 23.450624 
L 114.019003 23.195688 
L 114.832674 22.595588 
L 115.646344 22.3084 
L 116.460015 22.39901 
L 117.273685 22.340651 
L 118.087356 21.957094 
L 118.901027 21.402684 
L 119.714697 21.562403 
L 120.528368 21.338949 
L 121.342038 21.505964 
L 122.155709 21.375424 
L 122.969379 21.067503 
L 124.59672 20.888587 
L 125.410391 20.423634 
L 126.224061 20.496583 
L 127.037732 20.081927 
L 127.851403 20.312292 
L 129.478744 20.350686 
L 130.292414 20.207476 
L 131.919755 20.063498 
L 132.733426 19.966745 
L 133.547096 20.284264 
L 135.174437 20.240111 
L 135.988108 20.617908 
L 140.870131 20.664365 
L 141.683802 20.4651 
L 142.497472 20.881292 
L 143.311143 20.744225 
L 144.938484 20.897801 
L 145.752154 20.834835 
L 149.820507 21.494829 
L 150.634178 21.500973 
L 151.447848 21.692943 
L 152.261519 21.649942 
L 153.88886 22.015837 
L 155.516201 22.108751 
L 156.329871 22.590213 
L 158.770883 23.753554 
L 160.398224 24.695361 
L 161.211895 25.871756 
L 162.839236 27.622142 
L 164.466577 30.250601 
L 166.907588 35.7686 
L 169.3486 42.013782 
L 174.230623 58.046002 
L 176.671635 67.174964 
L 178.298976 73.503078 
L 180.739988 84.000406 
L 183.180999 94.294245 
L 186.435681 109.27485 
L 188.063022 116.626166 
L 192.131375 135.559059 
L 197.827069 160.820066 
L 200.268081 170.890067 
L 205.150104 188.739479 
L 207.591115 196.871347 
L 210.845798 206.669518 
L 213.286809 213.20688 
L 217.355162 222.299368 
L 218.982503 225.406602 
L 220.609844 228.605213 
L 222.237185 231.553495 
L 223.864526 234.049879 
L 226.305538 237.692326 
L 229.56022 241.889184 
L 234.442243 247.136504 
L 236.069584 248.478761 
L 237.696925 249.677425 
L 239.324266 250.904116 
L 242.578949 252.832267 
L 243.392619 253.273031 
L 251.529325 256.349165 
L 253.970336 256.872477 
L 257.225018 257.557427 
L 259.66603 258.023148 
L 270.243747 259.610359 
L 276.753111 260.159395 
L 280.821464 260.395134 
L 293.840193 260.94417 
L 311.740945 261.082005 
L 385.784964 261.216 
L 406.940398 261.216 
L 406.940398 261.216 
" style="fill:none;stroke:#7dff7a;stroke-linecap:round;stroke-width:1.5;"/>
   </g>
   <g id="line2d_23">
    <path clip-path="url(#p1b2b2e2d33)" d="M 82.285852 258.560665 
L 83.099523 246.812074 
L 83.913193 227.415764 
L 86.354205 163.813653 
L 87.981546 131.339933 
L 89.608887 106.339622 
L 90.422558 95.791614 
L 91.236228 86.782825 
L 92.863569 72.451848 
L 94.49091 61.507613 
L 96.118251 52.862416 
L 97.745593 45.735321 
L 98.559263 43.058869 
L 101.000275 36.386361 
L 103.441286 31.74298 
L 106.695968 27.363366 
L 107.509639 26.840438 
L 109.950651 24.665797 
L 110.764321 24.017705 
L 111.577992 23.585772 
L 113.205333 23.342353 
L 115.646344 21.845367 
L 116.460015 21.462578 
L 117.273685 21.383103 
L 118.901027 20.925445 
L 119.714697 20.900105 
L 120.528368 20.575675 
L 121.342038 20.591417 
L 122.155709 20.414804 
L 122.969379 20.111106 
L 123.78305 19.602769 
L 125.410391 19.81432 
L 126.224061 19.296 
L 127.037732 19.522909 
L 130.292414 19.925663 
L 131.106085 20.096901 
L 131.919755 20.151804 
L 132.733426 19.948316 
L 133.547096 20.118401 
L 134.360767 20.467788 
L 135.174437 20.347614 
L 137.615449 20.599479 
L 138.42912 20.590265 
L 139.24279 20.291175 
L 142.497472 20.058507 
L 143.311143 20.241262 
L 144.124813 20.572987 
L 144.938484 20.630962 
L 145.752154 20.82562 
L 147.379495 20.677419 
L 148.193166 20.994938 
L 149.006837 20.919686 
L 149.820507 21.024886 
L 151.447848 20.893194 
L 152.261519 21.208793 
L 153.075189 21.347012 
L 153.88886 21.620762 
L 154.70253 21.684496 
L 156.329871 22.100304 
L 157.957212 22.781799 
L 158.770883 23.214117 
L 159.584554 23.410694 
L 162.025565 24.929949 
L 162.839236 25.802262 
L 164.466577 27.937358 
L 166.093918 31.005429 
L 166.907588 32.28664 
L 168.53493 35.253735 
L 169.3486 36.592153 
L 172.603282 44.658751 
L 174.230623 49.4296 
L 178.298976 64.207869 
L 181.553658 76.835685 
L 184.80834 90.866036 
L 187.249352 101.842522 
L 188.876693 109.214571 
L 193.758716 132.293642 
L 198.640739 153.651889 
L 200.268081 160.704884 
L 205.963774 182.814887 
L 210.032127 196.764228 
L 214.91415 211.262987 
L 219.796174 222.776606 
L 221.423515 226.064676 
L 223.050856 229.216063 
L 224.678197 232.018831 
L 227.119208 235.78222 
L 230.373891 240.280471 
L 232.001232 242.210926 
L 234.442243 244.936906 
L 239.324266 249.170239 
L 241.765278 250.732494 
L 245.01996 252.675619 
L 246.647301 253.458474 
L 249.088313 254.651379 
L 251.529325 255.589346 
L 253.156666 256.128783 
L 257.225018 257.271391 
L 261.293371 258.223565 
L 267.802735 259.315109 
L 274.3121 260.043061 
L 278.380452 260.402813 
L 286.517158 260.752199 
L 302.790569 261.028253 
L 314.995627 261.121551 
L 387.412305 261.216 
L 406.940398 261.216 
L 406.940398 261.216 
" style="fill:none;stroke:#ceff29;stroke-linecap:round;stroke-width:1.5;"/>
   </g>
   <g id="line2d_24">
    <path clip-path="url(#p1b2b2e2d33)" d="M 82.285852 258.629006 
L 83.099523 246.790189 
L 83.913193 227.333217 
L 85.540534 183.482944 
L 87.167876 146.270626 
L 87.981546 130.765941 
L 89.608887 105.861232 
L 91.236228 86.64691 
L 92.049899 78.888617 
L 93.67724 66.126038 
L 94.49091 60.765455 
L 96.118251 52.497672 
L 96.931922 48.726989 
L 97.745593 45.536824 
L 100.186604 38.63779 
L 102.627616 33.443838 
L 105.882298 28.410757 
L 108.32331 26.244946 
L 109.13698 25.654829 
L 109.950651 24.840106 
L 112.391662 23.654113 
L 113.205333 23.50476 
L 114.019003 23.051326 
L 114.832674 22.791014 
L 115.646344 22.356393 
L 116.460015 22.468504 
L 118.901027 21.69755 
L 119.714697 21.194588 
L 122.155709 20.668973 
L 122.969379 20.318051 
L 123.78305 20.55571 
L 126.224061 20.372954 
L 127.037732 20.65899 
L 127.851403 20.50311 
L 128.665073 20.576443 
L 129.478744 20.421331 
L 131.919755 20.631346 
L 132.733426 20.389464 
L 133.547096 20.472011 
L 135.174437 20.275817 
L 138.42912 20.302693 
L 139.24279 20.027791 
L 140.870131 20.418643 
L 141.683802 21.107433 
L 142.497472 21.112424 
L 143.311143 20.94349 
L 144.124813 21.248723 
L 144.938484 21.192668 
L 145.752154 21.299404 
L 147.379495 21.201883 
L 148.193166 21.419961 
L 149.820507 21.262545 
L 151.447848 21.776258 
L 153.075189 21.730185 
L 153.88886 22.274613 
L 154.70253 22.432029 
L 155.516201 22.774888 
L 156.329871 23.283994 
L 157.143542 23.583084 
L 157.957212 23.648738 
L 158.770883 24.29683 
L 159.584554 24.705343 
L 160.398224 24.891171 
L 161.211895 25.434831 
L 162.025565 26.215383 
L 164.466577 29.541846 
L 166.093918 31.991773 
L 166.907588 33.406595 
L 168.53493 36.854001 
L 171.789612 46.271303 
L 172.603282 48.713935 
L 175.044294 57.424785 
L 179.112647 72.644586 
L 183.99467 94.000146 
L 196.199728 150.312372 
L 199.45441 164.348099 
L 203.522763 180.246323 
L 207.591115 194.965081 
L 210.845798 205.420175 
L 214.10048 214.598666 
L 216.541491 220.582 
L 220.609844 229.046745 
L 223.050856 233.356098 
L 224.678197 235.92351 
L 227.119208 239.454231 
L 229.56022 242.548794 
L 232.814902 246.204679 
L 236.069584 249.076557 
L 237.696925 250.373893 
L 241.765278 253.081828 
L 244.20629 254.23058 
L 248.274642 255.977511 
L 251.529325 257.136628 
L 256.411348 258.455465 
L 258.852359 258.929632 
L 264.548053 259.625333 
L 272.684759 260.211995 
L 283.262476 260.612061 
L 299.535886 260.947241 
L 304.41791 261.01136 
L 313.368286 261.084692 
L 406.940398 261.216 
L 406.940398 261.216 
" style="fill:none;stroke:#ffc400;stroke-linecap:round;stroke-width:1.5;"/>
   </g>
   <g id="line2d_25">
    <path clip-path="url(#p1b2b2e2d33)" d="M 82.285852 258.637069 
L 83.099523 246.674623 
L 83.913193 227.324386 
L 85.540534 183.573938 
L 87.167876 147.11184 
L 88.795217 118.48252 
L 89.608887 106.674418 
L 91.236228 87.41364 
L 92.863569 72.709856 
L 94.49091 61.189326 
L 96.118251 52.368668 
L 96.931922 48.866743 
L 98.559263 43.092272 
L 99.372934 40.422347 
L 101.000275 36.381753 
L 101.813945 34.721209 
L 103.441286 32.271666 
L 105.882298 29.718843 
L 106.695968 28.908344 
L 107.509639 27.765736 
L 108.32331 27.012828 
L 109.13698 25.948544 
L 110.764321 24.723772 
L 113.205333 23.029825 
L 114.019003 22.887383 
L 115.646344 22.052696 
L 117.273685 21.070959 
L 118.087356 20.98534 
L 119.714697 20.537665 
L 120.528368 20.612533 
L 122.155709 20.129536 
L 122.969379 20.130687 
L 123.78305 19.908386 
L 124.59672 19.919904 
L 126.224061 20.415188 
L 127.037732 20.118017 
L 127.851403 19.963289 
L 128.665073 20.134911 
L 129.478744 20.161787 
L 130.292414 20.043149 
L 131.919755 20.197493 
L 132.733426 19.947548 
L 133.547096 19.994005 
L 134.360767 20.370651 
L 137.615449 21.058289 
L 139.24279 20.789146 
L 140.056461 21.110121 
L 140.870131 21.245268 
L 142.497472 20.931972 
L 143.311143 21.093227 
L 144.938484 20.595256 
L 145.752154 20.968446 
L 148.193166 21.103594 
L 149.820507 21.125478 
L 150.634178 21.269072 
L 151.447848 21.104362 
L 152.261519 21.361986 
L 153.075189 21.22108 
L 153.88886 21.572002 
L 154.70253 21.492142 
L 155.516201 21.587359 
L 157.957212 22.706163 
L 159.584554 23.379979 
L 160.398224 24.006187 
L 162.025565 25.462091 
L 162.839236 25.917828 
L 165.280247 28.954033 
L 167.721259 33.28527 
L 169.3486 36.688522 
L 170.162271 38.731088 
L 174.230623 51.760505 
L 179.112647 69.635641 
L 184.80834 94.128766 
L 188.876693 112.895797 
L 190.504034 120.374197 
L 198.640739 157.096223 
L 203.522763 177.093784 
L 205.963774 186.340616 
L 207.591115 192.022558 
L 213.286809 209.388972 
L 215.727821 215.724764 
L 218.168832 221.092642 
L 221.423515 227.708327 
L 224.678197 233.510442 
L 227.119208 237.166711 
L 230.373891 241.426151 
L 232.814902 244.160194 
L 237.696925 248.627346 
L 240.137937 250.51096 
L 241.765278 251.506519 
L 245.833631 253.823218 
L 249.088313 255.413117 
L 250.715654 256.075415 
L 254.784007 257.335893 
L 258.038689 258.115293 
L 264.548053 259.209909 
L 266.989065 259.432979 
L 276.753111 260.254612 
L 280.007793 260.46578 
L 285.703487 260.656598 
L 298.722216 261.034012 
L 349.98346 261.215616 
L 406.940398 261.216 
L 406.940398 261.216 
" style="fill:none;stroke:#ff6800;stroke-linecap:round;stroke-width:1.5;"/>
   </g>
   <g id="line2d_26">
    <path clip-path="url(#p1b2b2e2d33)" d="M 82.285852 258.622479 
L 83.099523 246.848548 
L 83.913193 227.513285 
L 85.540534 183.605806 
L 87.167876 146.689889 
L 88.795217 118.110482 
L 89.608887 106.331559 
L 91.236228 87.084219 
L 92.049899 78.86366 
L 93.67724 66.183629 
L 94.49091 60.661407 
L 95.304581 56.002668 
L 96.118251 52.036559 
L 97.745593 45.723419 
L 98.559263 42.739814 
L 100.186604 38.465401 
L 101.813945 34.826409 
L 102.627616 33.271064 
L 105.068627 29.680065 
L 105.882298 28.712918 
L 106.695968 28.073657 
L 109.13698 25.73968 
L 111.577992 24.596304 
L 112.391662 24.08835 
L 113.205333 23.763536 
L 114.832674 22.829024 
L 116.460015 22.614785 
L 117.273685 22.073044 
L 120.528368 21.122791 
L 121.342038 21.091692 
L 123.78305 20.130687 
L 124.59672 20.293094 
L 125.410391 20.151804 
L 127.037732 20.188663 
L 127.851403 19.916065 
L 129.478744 19.844268 
L 130.292414 19.700674 
L 131.106085 19.855402 
L 131.919755 19.876519 
L 132.733426 20.147197 
L 134.360767 20.331105 
L 135.174437 20.122625 
L 136.801778 20.769181 
L 137.615449 20.604854 
L 138.42912 20.678187 
L 139.24279 20.991483 
L 140.056461 20.853264 
L 141.683802 20.18943 
L 142.497472 20.085766 
L 143.311143 20.349918 
L 144.124813 20.431313 
L 144.938484 20.3073 
L 145.752154 20.591033 
L 147.379495 20.926981 
L 148.193166 20.76227 
L 149.006837 20.880524 
L 150.634178 20.955776 
L 151.447848 21.079789 
L 153.075189 20.691625 
L 155.516201 21.437622 
L 156.329871 21.583136 
L 157.957212 22.276533 
L 159.584554 23.352335 
L 160.398224 24.082591 
L 161.211895 24.991379 
L 162.025565 25.729313 
L 162.839236 26.094825 
L 163.652906 27.084241 
L 164.466577 28.317843 
L 168.53493 37.04981 
L 170.975941 43.1944 
L 172.603282 47.268781 
L 175.044294 55.127283 
L 180.739988 77.281824 
L 182.367329 84.281066 
L 186.435681 102.275992 
L 191.317705 124.694684 
L 196.199728 146.808143 
L 197.827069 154.000892 
L 205.150104 181.848892 
L 208.404786 193.119477 
L 210.845798 200.549501 
L 214.10048 209.841254 
L 215.727821 214.20935 
L 217.355162 218.325964 
L 221.423515 227.213427 
L 224.678197 233.117286 
L 227.119208 237.008527 
L 228.746549 239.210428 
L 230.373891 241.106712 
L 232.001232 242.844045 
L 235.255914 245.804997 
L 240.137937 249.340324 
L 245.01996 252.422602 
L 248.274642 254.117701 
L 251.529325 255.504111 
L 257.225018 257.424968 
L 260.479701 258.310335 
L 265.361724 259.174586 
L 271.057418 259.912905 
L 274.3121 260.192798 
L 290.585511 260.872757 
L 300.349557 261.017119 
L 381.716611 261.216 
L 406.940398 261.216 
L 406.940398 261.216 
" style="fill:none;stroke:#f10800;stroke-linecap:round;stroke-width:1.5;"/>
   </g>
   <g id="patch_3">
    <path d="M 66.053125 273.312 
L 66.053125 7.2 
" style="fill:none;stroke:#cccccc;stroke-linecap:square;stroke-linejoin:miter;stroke-width:0.8;"/>
   </g>
   <g id="patch_4">
    <path d="M 423.173125 273.312 
L 423.173125 7.2 
" style="fill:none;stroke:#cccccc;stroke-linecap:square;stroke-linejoin:miter;stroke-width:0.8;"/>
   </g>
   <g id="patch_5">
    <path d="M 66.053125 273.312 
L 423.173125 273.312 
" style="fill:none;stroke:#cccccc;stroke-linecap:square;stroke-linejoin:miter;stroke-width:0.8;"/>
   </g>
   <g id="patch_6">
    <path d="M 66.053125 7.2 
L 423.173125 7.2 
" style="fill:none;stroke:#cccccc;stroke-linecap:square;stroke-linejoin:miter;stroke-width:0.8;"/>
   </g>
  </g>
 </g>
 <defs>
  <clipPath id="p1b2b2e2d33">
   <rect height="266.112" width="357.12" x="66.053125" y="7.2"/>
  </clipPath>
 </defs>
</svg>
