<?xml version="1.0" encoding="utf-8" standalone="no"?>
<!DOCTYPE svg PUBLIC "-//W3C//DTD SVG 1.1//EN"
  "http://www.w3.org/Graphics/SVG/1.1/DTD/svg11.dtd">
<!-- Created with matplotlib (https://matplotlib.org/) -->
<svg height="310.86825pt" version="1.1" viewBox="0 0 411.285625 310.86825" width="411.285625pt" xmlns="http://www.w3.org/2000/svg" xmlns:xlink="http://www.w3.org/1999/xlink">
 <defs>
  <style type="text/css">
*{stroke-linecap:butt;stroke-linejoin:round;white-space:pre;}
  </style>
 </defs>
 <g id="figure_1">
  <g id="patch_1">
   <path d="M 0 310.86825 
L 411.285625 310.86825 
L 411.285625 0 
L 0 0 
z
" style="fill:#ffffff;"/>
  </g>
  <g id="axes_1">
   <g id="patch_2">
    <path d="M 46.965625 273.312 
L 404.085625 273.312 
L 404.085625 7.2 
L 46.965625 7.2 
z
" style="fill:#ffffff;"/>
   </g>
   <g id="matplotlib.axis_1">
    <g id="xtick_1">
     <g id="line2d_1">
      <path clip-path="url(#p538103baac)" d="M 63.198352 273.312 
L 63.198352 7.2 
" style="fill:none;stroke:#cccccc;stroke-linecap:round;stroke-width:0.8;"/>
     </g>
     <g id="text_1">
      <!-- 0 -->
      <defs>
       <path d="M 31.78125 66.40625 
Q 24.171875 66.40625 20.328125 58.90625 
Q 16.5 51.421875 16.5 36.375 
Q 16.5 21.390625 20.328125 13.890625 
Q 24.171875 6.390625 31.78125 6.390625 
Q 39.453125 6.390625 43.28125 13.890625 
Q 47.125 21.390625 47.125 36.375 
Q 47.125 51.421875 43.28125 58.90625 
Q 39.453125 66.40625 31.78125 66.40625 
z
M 31.78125 74.21875 
Q 44.046875 74.21875 50.515625 64.515625 
Q 56.984375 54.828125 56.984375 36.375 
Q 56.984375 17.96875 50.515625 8.265625 
Q 44.046875 -1.421875 31.78125 -1.421875 
Q 19.53125 -1.421875 13.0625 8.265625 
Q 6.59375 17.96875 6.59375 36.375 
Q 6.59375 54.828125 13.0625 64.515625 
Q 19.53125 74.21875 31.78125 74.21875 
z
" id="DejaVuSans-48"/>
      </defs>
      <g style="fill:#262626;" transform="translate(60.017102 287.910437)scale(0.1 -0.1)">
       <use xlink:href="#DejaVuSans-48"/>
      </g>
     </g>
    </g>
    <g id="xtick_2">
     <g id="line2d_2">
      <path clip-path="url(#p538103baac)" d="M 103.881879 273.312 
L 103.881879 7.2 
" style="fill:none;stroke:#cccccc;stroke-linecap:round;stroke-width:0.8;"/>
     </g>
     <g id="text_2">
      <!-- 5 -->
      <defs>
       <path d="M 10.796875 72.90625 
L 49.515625 72.90625 
L 49.515625 64.59375 
L 19.828125 64.59375 
L 19.828125 46.734375 
Q 21.96875 47.46875 24.109375 47.828125 
Q 26.265625 48.1875 28.421875 48.1875 
Q 40.625 48.1875 47.75 41.5 
Q 54.890625 34.8125 54.890625 23.390625 
Q 54.890625 11.625 47.5625 5.09375 
Q 40.234375 -1.421875 26.90625 -1.421875 
Q 22.3125 -1.421875 17.546875 -0.640625 
Q 12.796875 0.140625 7.71875 1.703125 
L 7.71875 11.625 
Q 12.109375 9.234375 16.796875 8.0625 
Q 21.484375 6.890625 26.703125 6.890625 
Q 35.15625 6.890625 40.078125 11.328125 
Q 45.015625 15.765625 45.015625 23.390625 
Q 45.015625 31 40.078125 35.4375 
Q 35.15625 39.890625 26.703125 39.890625 
Q 22.75 39.890625 18.8125 39.015625 
Q 14.890625 38.140625 10.796875 36.28125 
z
" id="DejaVuSans-53"/>
      </defs>
      <g style="fill:#262626;" transform="translate(100.700629 287.910437)scale(0.1 -0.1)">
       <use xlink:href="#DejaVuSans-53"/>
      </g>
     </g>
    </g>
    <g id="xtick_3">
     <g id="line2d_3">
      <path clip-path="url(#p538103baac)" d="M 144.565406 273.312 
L 144.565406 7.2 
" style="fill:none;stroke:#cccccc;stroke-linecap:round;stroke-width:0.8;"/>
     </g>
     <g id="text_3">
      <!-- 10 -->
      <defs>
       <path d="M 12.40625 8.296875 
L 28.515625 8.296875 
L 28.515625 63.921875 
L 10.984375 60.40625 
L 10.984375 69.390625 
L 28.421875 72.90625 
L 38.28125 72.90625 
L 38.28125 8.296875 
L 54.390625 8.296875 
L 54.390625 0 
L 12.40625 0 
z
" id="DejaVuSans-49"/>
      </defs>
      <g style="fill:#262626;" transform="translate(138.202906 287.910437)scale(0.1 -0.1)">
       <use xlink:href="#DejaVuSans-49"/>
       <use x="63.623047" xlink:href="#DejaVuSans-48"/>
      </g>
     </g>
    </g>
    <g id="xtick_4">
     <g id="line2d_4">
      <path clip-path="url(#p538103baac)" d="M 185.248933 273.312 
L 185.248933 7.2 
" style="fill:none;stroke:#cccccc;stroke-linecap:round;stroke-width:0.8;"/>
     </g>
     <g id="text_4">
      <!-- 15 -->
      <g style="fill:#262626;" transform="translate(178.886433 287.910437)scale(0.1 -0.1)">
       <use xlink:href="#DejaVuSans-49"/>
       <use x="63.623047" xlink:href="#DejaVuSans-53"/>
      </g>
     </g>
    </g>
    <g id="xtick_5">
     <g id="line2d_5">
      <path clip-path="url(#p538103baac)" d="M 225.93246 273.312 
L 225.93246 7.2 
" style="fill:none;stroke:#cccccc;stroke-linecap:round;stroke-width:0.8;"/>
     </g>
     <g id="text_5">
      <!-- 20 -->
      <defs>
       <path d="M 19.1875 8.296875 
L 53.609375 8.296875 
L 53.609375 0 
L 7.328125 0 
L 7.328125 8.296875 
Q 12.9375 14.109375 22.625 23.890625 
Q 32.328125 33.6875 34.8125 36.53125 
Q 39.546875 41.84375 41.421875 45.53125 
Q 43.3125 49.21875 43.3125 52.78125 
Q 43.3125 58.59375 39.234375 62.25 
Q 35.15625 65.921875 28.609375 65.921875 
Q 23.96875 65.921875 18.8125 64.3125 
Q 13.671875 62.703125 7.8125 59.421875 
L 7.8125 69.390625 
Q 13.765625 71.78125 18.9375 73 
Q 24.125 74.21875 28.421875 74.21875 
Q 39.75 74.21875 46.484375 68.546875 
Q 53.21875 62.890625 53.21875 53.421875 
Q 53.21875 48.921875 51.53125 44.890625 
Q 49.859375 40.875 45.40625 35.40625 
Q 44.1875 33.984375 37.640625 27.21875 
Q 31.109375 20.453125 19.1875 8.296875 
z
" id="DejaVuSans-50"/>
      </defs>
      <g style="fill:#262626;" transform="translate(219.56996 287.910437)scale(0.1 -0.1)">
       <use xlink:href="#DejaVuSans-50"/>
       <use x="63.623047" xlink:href="#DejaVuSans-48"/>
      </g>
     </g>
    </g>
    <g id="xtick_6">
     <g id="line2d_6">
      <path clip-path="url(#p538103baac)" d="M 266.615987 273.312 
L 266.615987 7.2 
" style="fill:none;stroke:#cccccc;stroke-linecap:round;stroke-width:0.8;"/>
     </g>
     <g id="text_6">
      <!-- 25 -->
      <g style="fill:#262626;" transform="translate(260.253487 287.910437)scale(0.1 -0.1)">
       <use xlink:href="#DejaVuSans-50"/>
       <use x="63.623047" xlink:href="#DejaVuSans-53"/>
      </g>
     </g>
    </g>
    <g id="xtick_7">
     <g id="line2d_7">
      <path clip-path="url(#p538103baac)" d="M 307.299514 273.312 
L 307.299514 7.2 
" style="fill:none;stroke:#cccccc;stroke-linecap:round;stroke-width:0.8;"/>
     </g>
     <g id="text_7">
      <!-- 30 -->
      <defs>
       <path d="M 40.578125 39.3125 
Q 47.65625 37.796875 51.625 33 
Q 55.609375 28.21875 55.609375 21.1875 
Q 55.609375 10.40625 48.1875 4.484375 
Q 40.765625 -1.421875 27.09375 -1.421875 
Q 22.515625 -1.421875 17.65625 -0.515625 
Q 12.796875 0.390625 7.625 2.203125 
L 7.625 11.71875 
Q 11.71875 9.328125 16.59375 8.109375 
Q 21.484375 6.890625 26.8125 6.890625 
Q 36.078125 6.890625 40.9375 10.546875 
Q 45.796875 14.203125 45.796875 21.1875 
Q 45.796875 27.640625 41.28125 31.265625 
Q 36.765625 34.90625 28.71875 34.90625 
L 20.21875 34.90625 
L 20.21875 43.015625 
L 29.109375 43.015625 
Q 36.375 43.015625 40.234375 45.921875 
Q 44.09375 48.828125 44.09375 54.296875 
Q 44.09375 59.90625 40.109375 62.90625 
Q 36.140625 65.921875 28.71875 65.921875 
Q 24.65625 65.921875 20.015625 65.03125 
Q 15.375 64.15625 9.8125 62.3125 
L 9.8125 71.09375 
Q 15.4375 72.65625 20.34375 73.4375 
Q 25.25 74.21875 29.59375 74.21875 
Q 40.828125 74.21875 47.359375 69.109375 
Q 53.90625 64.015625 53.90625 55.328125 
Q 53.90625 49.265625 50.4375 45.09375 
Q 46.96875 40.921875 40.578125 39.3125 
z
" id="DejaVuSans-51"/>
      </defs>
      <g style="fill:#262626;" transform="translate(300.937014 287.910437)scale(0.1 -0.1)">
       <use xlink:href="#DejaVuSans-51"/>
       <use x="63.623047" xlink:href="#DejaVuSans-48"/>
      </g>
     </g>
    </g>
    <g id="xtick_8">
     <g id="line2d_8">
      <path clip-path="url(#p538103baac)" d="M 347.983041 273.312 
L 347.983041 7.2 
" style="fill:none;stroke:#cccccc;stroke-linecap:round;stroke-width:0.8;"/>
     </g>
     <g id="text_8">
      <!-- 35 -->
      <g style="fill:#262626;" transform="translate(341.620541 287.910437)scale(0.1 -0.1)">
       <use xlink:href="#DejaVuSans-51"/>
       <use x="63.623047" xlink:href="#DejaVuSans-53"/>
      </g>
     </g>
    </g>
    <g id="xtick_9">
     <g id="line2d_9">
      <path clip-path="url(#p538103baac)" d="M 388.666568 273.312 
L 388.666568 7.2 
" style="fill:none;stroke:#cccccc;stroke-linecap:round;stroke-width:0.8;"/>
     </g>
     <g id="text_9">
      <!-- 40 -->
      <defs>
       <path d="M 37.796875 64.3125 
L 12.890625 25.390625 
L 37.796875 25.390625 
z
M 35.203125 72.90625 
L 47.609375 72.90625 
L 47.609375 25.390625 
L 58.015625 25.390625 
L 58.015625 17.1875 
L 47.609375 17.1875 
L 47.609375 0 
L 37.796875 0 
L 37.796875 17.1875 
L 4.890625 17.1875 
L 4.890625 26.703125 
z
" id="DejaVuSans-52"/>
      </defs>
      <g style="fill:#262626;" transform="translate(382.304068 287.910437)scale(0.1 -0.1)">
       <use xlink:href="#DejaVuSans-52"/>
       <use x="63.623047" xlink:href="#DejaVuSans-48"/>
      </g>
     </g>
    </g>
    <g id="text_10">
     <!-- time (days) -->
     <defs>
      <path d="M 18.3125 70.21875 
L 18.3125 54.6875 
L 36.8125 54.6875 
L 36.8125 47.703125 
L 18.3125 47.703125 
L 18.3125 18.015625 
Q 18.3125 11.328125 20.140625 9.421875 
Q 21.96875 7.515625 27.59375 7.515625 
L 36.8125 7.515625 
L 36.8125 0 
L 27.59375 0 
Q 17.1875 0 13.234375 3.875 
Q 9.28125 7.765625 9.28125 18.015625 
L 9.28125 47.703125 
L 2.6875 47.703125 
L 2.6875 54.6875 
L 9.28125 54.6875 
L 9.28125 70.21875 
z
" id="DejaVuSans-116"/>
      <path d="M 9.421875 54.6875 
L 18.40625 54.6875 
L 18.40625 0 
L 9.421875 0 
z
M 9.421875 75.984375 
L 18.40625 75.984375 
L 18.40625 64.59375 
L 9.421875 64.59375 
z
" id="DejaVuSans-105"/>
      <path d="M 52 44.1875 
Q 55.375 50.25 60.0625 53.125 
Q 64.75 56 71.09375 56 
Q 79.640625 56 84.28125 50.015625 
Q 88.921875 44.046875 88.921875 33.015625 
L 88.921875 0 
L 79.890625 0 
L 79.890625 32.71875 
Q 79.890625 40.578125 77.09375 44.375 
Q 74.3125 48.1875 68.609375 48.1875 
Q 61.625 48.1875 57.5625 43.546875 
Q 53.515625 38.921875 53.515625 30.90625 
L 53.515625 0 
L 44.484375 0 
L 44.484375 32.71875 
Q 44.484375 40.625 41.703125 44.40625 
Q 38.921875 48.1875 33.109375 48.1875 
Q 26.21875 48.1875 22.15625 43.53125 
Q 18.109375 38.875 18.109375 30.90625 
L 18.109375 0 
L 9.078125 0 
L 9.078125 54.6875 
L 18.109375 54.6875 
L 18.109375 46.1875 
Q 21.1875 51.21875 25.484375 53.609375 
Q 29.78125 56 35.6875 56 
Q 41.65625 56 45.828125 52.96875 
Q 50 49.953125 52 44.1875 
z
" id="DejaVuSans-109"/>
      <path d="M 56.203125 29.59375 
L 56.203125 25.203125 
L 14.890625 25.203125 
Q 15.484375 15.921875 20.484375 11.0625 
Q 25.484375 6.203125 34.421875 6.203125 
Q 39.59375 6.203125 44.453125 7.46875 
Q 49.3125 8.734375 54.109375 11.28125 
L 54.109375 2.78125 
Q 49.265625 0.734375 44.1875 -0.34375 
Q 39.109375 -1.421875 33.890625 -1.421875 
Q 20.796875 -1.421875 13.15625 6.1875 
Q 5.515625 13.8125 5.515625 26.8125 
Q 5.515625 40.234375 12.765625 48.109375 
Q 20.015625 56 32.328125 56 
Q 43.359375 56 49.78125 48.890625 
Q 56.203125 41.796875 56.203125 29.59375 
z
M 47.21875 32.234375 
Q 47.125 39.59375 43.09375 43.984375 
Q 39.0625 48.390625 32.421875 48.390625 
Q 24.90625 48.390625 20.390625 44.140625 
Q 15.875 39.890625 15.1875 32.171875 
z
" id="DejaVuSans-101"/>
      <path id="DejaVuSans-32"/>
      <path d="M 31 75.875 
Q 24.46875 64.65625 21.28125 53.65625 
Q 18.109375 42.671875 18.109375 31.390625 
Q 18.109375 20.125 21.3125 9.0625 
Q 24.515625 -2 31 -13.1875 
L 23.1875 -13.1875 
Q 15.875 -1.703125 12.234375 9.375 
Q 8.59375 20.453125 8.59375 31.390625 
Q 8.59375 42.28125 12.203125 53.3125 
Q 15.828125 64.359375 23.1875 75.875 
z
" id="DejaVuSans-40"/>
      <path d="M 45.40625 46.390625 
L 45.40625 75.984375 
L 54.390625 75.984375 
L 54.390625 0 
L 45.40625 0 
L 45.40625 8.203125 
Q 42.578125 3.328125 38.25 0.953125 
Q 33.9375 -1.421875 27.875 -1.421875 
Q 17.96875 -1.421875 11.734375 6.484375 
Q 5.515625 14.40625 5.515625 27.296875 
Q 5.515625 40.1875 11.734375 48.09375 
Q 17.96875 56 27.875 56 
Q 33.9375 56 38.25 53.625 
Q 42.578125 51.265625 45.40625 46.390625 
z
M 14.796875 27.296875 
Q 14.796875 17.390625 18.875 11.75 
Q 22.953125 6.109375 30.078125 6.109375 
Q 37.203125 6.109375 41.296875 11.75 
Q 45.40625 17.390625 45.40625 27.296875 
Q 45.40625 37.203125 41.296875 42.84375 
Q 37.203125 48.484375 30.078125 48.484375 
Q 22.953125 48.484375 18.875 42.84375 
Q 14.796875 37.203125 14.796875 27.296875 
z
" id="DejaVuSans-100"/>
      <path d="M 34.28125 27.484375 
Q 23.390625 27.484375 19.1875 25 
Q 14.984375 22.515625 14.984375 16.5 
Q 14.984375 11.71875 18.140625 8.90625 
Q 21.296875 6.109375 26.703125 6.109375 
Q 34.1875 6.109375 38.703125 11.40625 
Q 43.21875 16.703125 43.21875 25.484375 
L 43.21875 27.484375 
z
M 52.203125 31.203125 
L 52.203125 0 
L 43.21875 0 
L 43.21875 8.296875 
Q 40.140625 3.328125 35.546875 0.953125 
Q 30.953125 -1.421875 24.3125 -1.421875 
Q 15.921875 -1.421875 10.953125 3.296875 
Q 6 8.015625 6 15.921875 
Q 6 25.140625 12.171875 29.828125 
Q 18.359375 34.515625 30.609375 34.515625 
L 43.21875 34.515625 
L 43.21875 35.40625 
Q 43.21875 41.609375 39.140625 45 
Q 35.0625 48.390625 27.6875 48.390625 
Q 23 48.390625 18.546875 47.265625 
Q 14.109375 46.140625 10.015625 43.890625 
L 10.015625 52.203125 
Q 14.9375 54.109375 19.578125 55.046875 
Q 24.21875 56 28.609375 56 
Q 40.484375 56 46.34375 49.84375 
Q 52.203125 43.703125 52.203125 31.203125 
z
" id="DejaVuSans-97"/>
      <path d="M 32.171875 -5.078125 
Q 28.375 -14.84375 24.75 -17.8125 
Q 21.140625 -20.796875 15.09375 -20.796875 
L 7.90625 -20.796875 
L 7.90625 -13.28125 
L 13.1875 -13.28125 
Q 16.890625 -13.28125 18.9375 -11.515625 
Q 21 -9.765625 23.484375 -3.21875 
L 25.09375 0.875 
L 2.984375 54.6875 
L 12.5 54.6875 
L 29.59375 11.921875 
L 46.6875 54.6875 
L 56.203125 54.6875 
z
" id="DejaVuSans-121"/>
      <path d="M 44.28125 53.078125 
L 44.28125 44.578125 
Q 40.484375 46.53125 36.375 47.5 
Q 32.28125 48.484375 27.875 48.484375 
Q 21.1875 48.484375 17.84375 46.4375 
Q 14.5 44.390625 14.5 40.28125 
Q 14.5 37.15625 16.890625 35.375 
Q 19.28125 33.59375 26.515625 31.984375 
L 29.59375 31.296875 
Q 39.15625 29.25 43.1875 25.515625 
Q 47.21875 21.78125 47.21875 15.09375 
Q 47.21875 7.46875 41.1875 3.015625 
Q 35.15625 -1.421875 24.609375 -1.421875 
Q 20.21875 -1.421875 15.453125 -0.5625 
Q 10.6875 0.296875 5.421875 2 
L 5.421875 11.28125 
Q 10.40625 8.6875 15.234375 7.390625 
Q 20.0625 6.109375 24.8125 6.109375 
Q 31.15625 6.109375 34.5625 8.28125 
Q 37.984375 10.453125 37.984375 14.40625 
Q 37.984375 18.0625 35.515625 20.015625 
Q 33.0625 21.96875 24.703125 23.78125 
L 21.578125 24.515625 
Q 13.234375 26.265625 9.515625 29.90625 
Q 5.8125 33.546875 5.8125 39.890625 
Q 5.8125 47.609375 11.28125 51.796875 
Q 16.75 56 26.8125 56 
Q 31.78125 56 36.171875 55.265625 
Q 40.578125 54.546875 44.28125 53.078125 
z
" id="DejaVuSans-115"/>
      <path d="M 8.015625 75.875 
L 15.828125 75.875 
Q 23.140625 64.359375 26.78125 53.3125 
Q 30.421875 42.28125 30.421875 31.390625 
Q 30.421875 20.453125 26.78125 9.375 
Q 23.140625 -1.703125 15.828125 -13.1875 
L 8.015625 -13.1875 
Q 14.5 -2 17.703125 9.0625 
Q 20.90625 20.125 20.90625 31.390625 
Q 20.90625 42.671875 17.703125 53.65625 
Q 14.5 64.65625 8.015625 75.875 
z
" id="DejaVuSans-41"/>
     </defs>
     <g style="fill:#262626;" transform="translate(196.936563 301.588562)scale(0.1 -0.1)">
      <use xlink:href="#DejaVuSans-116"/>
      <use x="39.208984" xlink:href="#DejaVuSans-105"/>
      <use x="66.992188" xlink:href="#DejaVuSans-109"/>
      <use x="164.404297" xlink:href="#DejaVuSans-101"/>
      <use x="225.927734" xlink:href="#DejaVuSans-32"/>
      <use x="257.714844" xlink:href="#DejaVuSans-40"/>
      <use x="296.728516" xlink:href="#DejaVuSans-100"/>
      <use x="360.205078" xlink:href="#DejaVuSans-97"/>
      <use x="421.484375" xlink:href="#DejaVuSans-121"/>
      <use x="480.664062" xlink:href="#DejaVuSans-115"/>
      <use x="532.763672" xlink:href="#DejaVuSans-41"/>
     </g>
    </g>
   </g>
   <g id="matplotlib.axis_2">
    <g id="ytick_1">
     <g id="line2d_10">
      <path clip-path="url(#p538103baac)" d="M 46.965625 261.216 
L 404.085625 261.216 
" style="fill:none;stroke:#cccccc;stroke-linecap:round;stroke-width:0.8;"/>
     </g>
     <g id="text_11">
      <!-- 0 -->
      <g style="fill:#262626;" transform="translate(33.603125 265.015219)scale(0.1 -0.1)">
       <use xlink:href="#DejaVuSans-48"/>
      </g>
     </g>
    </g>
    <g id="ytick_2">
     <g id="line2d_11">
      <path clip-path="url(#p538103baac)" d="M 46.965625 214.241243 
L 404.085625 214.241243 
" style="fill:none;stroke:#cccccc;stroke-linecap:round;stroke-width:0.8;"/>
     </g>
     <g id="text_12">
      <!-- 20 -->
      <g style="fill:#262626;" transform="translate(27.240625 218.040461)scale(0.1 -0.1)">
       <use xlink:href="#DejaVuSans-50"/>
       <use x="63.623047" xlink:href="#DejaVuSans-48"/>
      </g>
     </g>
    </g>
    <g id="ytick_3">
     <g id="line2d_12">
      <path clip-path="url(#p538103baac)" d="M 46.965625 167.266485 
L 404.085625 167.266485 
" style="fill:none;stroke:#cccccc;stroke-linecap:round;stroke-width:0.8;"/>
     </g>
     <g id="text_13">
      <!-- 40 -->
      <g style="fill:#262626;" transform="translate(27.240625 171.065704)scale(0.1 -0.1)">
       <use xlink:href="#DejaVuSans-52"/>
       <use x="63.623047" xlink:href="#DejaVuSans-48"/>
      </g>
     </g>
    </g>
    <g id="ytick_4">
     <g id="line2d_13">
      <path clip-path="url(#p538103baac)" d="M 46.965625 120.291728 
L 404.085625 120.291728 
" style="fill:none;stroke:#cccccc;stroke-linecap:round;stroke-width:0.8;"/>
     </g>
     <g id="text_14">
      <!-- 60 -->
      <defs>
       <path d="M 33.015625 40.375 
Q 26.375 40.375 22.484375 35.828125 
Q 18.609375 31.296875 18.609375 23.390625 
Q 18.609375 15.53125 22.484375 10.953125 
Q 26.375 6.390625 33.015625 6.390625 
Q 39.65625 6.390625 43.53125 10.953125 
Q 47.40625 15.53125 47.40625 23.390625 
Q 47.40625 31.296875 43.53125 35.828125 
Q 39.65625 40.375 33.015625 40.375 
z
M 52.59375 71.296875 
L 52.59375 62.3125 
Q 48.875 64.0625 45.09375 64.984375 
Q 41.3125 65.921875 37.59375 65.921875 
Q 27.828125 65.921875 22.671875 59.328125 
Q 17.53125 52.734375 16.796875 39.40625 
Q 19.671875 43.65625 24.015625 45.921875 
Q 28.375 48.1875 33.59375 48.1875 
Q 44.578125 48.1875 50.953125 41.515625 
Q 57.328125 34.859375 57.328125 23.390625 
Q 57.328125 12.15625 50.6875 5.359375 
Q 44.046875 -1.421875 33.015625 -1.421875 
Q 20.359375 -1.421875 13.671875 8.265625 
Q 6.984375 17.96875 6.984375 36.375 
Q 6.984375 53.65625 15.1875 63.9375 
Q 23.390625 74.21875 37.203125 74.21875 
Q 40.921875 74.21875 44.703125 73.484375 
Q 48.484375 72.75 52.59375 71.296875 
z
" id="DejaVuSans-54"/>
      </defs>
      <g style="fill:#262626;" transform="translate(27.240625 124.090947)scale(0.1 -0.1)">
       <use xlink:href="#DejaVuSans-54"/>
       <use x="63.623047" xlink:href="#DejaVuSans-48"/>
      </g>
     </g>
    </g>
    <g id="ytick_5">
     <g id="line2d_14">
      <path clip-path="url(#p538103baac)" d="M 46.965625 73.316971 
L 404.085625 73.316971 
" style="fill:none;stroke:#cccccc;stroke-linecap:round;stroke-width:0.8;"/>
     </g>
     <g id="text_15">
      <!-- 80 -->
      <defs>
       <path d="M 31.78125 34.625 
Q 24.75 34.625 20.71875 30.859375 
Q 16.703125 27.09375 16.703125 20.515625 
Q 16.703125 13.921875 20.71875 10.15625 
Q 24.75 6.390625 31.78125 6.390625 
Q 38.8125 6.390625 42.859375 10.171875 
Q 46.921875 13.96875 46.921875 20.515625 
Q 46.921875 27.09375 42.890625 30.859375 
Q 38.875 34.625 31.78125 34.625 
z
M 21.921875 38.8125 
Q 15.578125 40.375 12.03125 44.71875 
Q 8.5 49.078125 8.5 55.328125 
Q 8.5 64.0625 14.71875 69.140625 
Q 20.953125 74.21875 31.78125 74.21875 
Q 42.671875 74.21875 48.875 69.140625 
Q 55.078125 64.0625 55.078125 55.328125 
Q 55.078125 49.078125 51.53125 44.71875 
Q 48 40.375 41.703125 38.8125 
Q 48.828125 37.15625 52.796875 32.3125 
Q 56.78125 27.484375 56.78125 20.515625 
Q 56.78125 9.90625 50.3125 4.234375 
Q 43.84375 -1.421875 31.78125 -1.421875 
Q 19.734375 -1.421875 13.25 4.234375 
Q 6.78125 9.90625 6.78125 20.515625 
Q 6.78125 27.484375 10.78125 32.3125 
Q 14.796875 37.15625 21.921875 38.8125 
z
M 18.3125 54.390625 
Q 18.3125 48.734375 21.84375 45.5625 
Q 25.390625 42.390625 31.78125 42.390625 
Q 38.140625 42.390625 41.71875 45.5625 
Q 45.3125 48.734375 45.3125 54.390625 
Q 45.3125 60.0625 41.71875 63.234375 
Q 38.140625 66.40625 31.78125 66.40625 
Q 25.390625 66.40625 21.84375 63.234375 
Q 18.3125 60.0625 18.3125 54.390625 
z
" id="DejaVuSans-56"/>
      </defs>
      <g style="fill:#262626;" transform="translate(27.240625 77.11619)scale(0.1 -0.1)">
       <use xlink:href="#DejaVuSans-56"/>
       <use x="63.623047" xlink:href="#DejaVuSans-48"/>
      </g>
     </g>
    </g>
    <g id="ytick_6">
     <g id="line2d_15">
      <path clip-path="url(#p538103baac)" d="M 46.965625 26.342214 
L 404.085625 26.342214 
" style="fill:none;stroke:#cccccc;stroke-linecap:round;stroke-width:0.8;"/>
     </g>
     <g id="text_16">
      <!-- 100 -->
      <g style="fill:#262626;" transform="translate(20.878125 30.141432)scale(0.1 -0.1)">
       <use xlink:href="#DejaVuSans-49"/>
       <use x="63.623047" xlink:href="#DejaVuSans-48"/>
       <use x="127.246094" xlink:href="#DejaVuSans-48"/>
      </g>
     </g>
    </g>
    <g id="text_17">
     <!-- cells number -->
     <defs>
      <path d="M 48.78125 52.59375 
L 48.78125 44.1875 
Q 44.96875 46.296875 41.140625 47.34375 
Q 37.3125 48.390625 33.40625 48.390625 
Q 24.65625 48.390625 19.8125 42.84375 
Q 14.984375 37.3125 14.984375 27.296875 
Q 14.984375 17.28125 19.8125 11.734375 
Q 24.65625 6.203125 33.40625 6.203125 
Q 37.3125 6.203125 41.140625 7.25 
Q 44.96875 8.296875 48.78125 10.40625 
L 48.78125 2.09375 
Q 45.015625 0.34375 40.984375 -0.53125 
Q 36.96875 -1.421875 32.421875 -1.421875 
Q 20.0625 -1.421875 12.78125 6.34375 
Q 5.515625 14.109375 5.515625 27.296875 
Q 5.515625 40.671875 12.859375 48.328125 
Q 20.21875 56 33.015625 56 
Q 37.15625 56 41.109375 55.140625 
Q 45.0625 54.296875 48.78125 52.59375 
z
" id="DejaVuSans-99"/>
      <path d="M 9.421875 75.984375 
L 18.40625 75.984375 
L 18.40625 0 
L 9.421875 0 
z
" id="DejaVuSans-108"/>
      <path d="M 54.890625 33.015625 
L 54.890625 0 
L 45.90625 0 
L 45.90625 32.71875 
Q 45.90625 40.484375 42.875 44.328125 
Q 39.84375 48.1875 33.796875 48.1875 
Q 26.515625 48.1875 22.3125 43.546875 
Q 18.109375 38.921875 18.109375 30.90625 
L 18.109375 0 
L 9.078125 0 
L 9.078125 54.6875 
L 18.109375 54.6875 
L 18.109375 46.1875 
Q 21.34375 51.125 25.703125 53.5625 
Q 30.078125 56 35.796875 56 
Q 45.21875 56 50.046875 50.171875 
Q 54.890625 44.34375 54.890625 33.015625 
z
" id="DejaVuSans-110"/>
      <path d="M 8.5 21.578125 
L 8.5 54.6875 
L 17.484375 54.6875 
L 17.484375 21.921875 
Q 17.484375 14.15625 20.5 10.265625 
Q 23.53125 6.390625 29.59375 6.390625 
Q 36.859375 6.390625 41.078125 11.03125 
Q 45.3125 15.671875 45.3125 23.6875 
L 45.3125 54.6875 
L 54.296875 54.6875 
L 54.296875 0 
L 45.3125 0 
L 45.3125 8.40625 
Q 42.046875 3.421875 37.71875 1 
Q 33.40625 -1.421875 27.6875 -1.421875 
Q 18.265625 -1.421875 13.375 4.4375 
Q 8.5 10.296875 8.5 21.578125 
z
M 31.109375 56 
z
" id="DejaVuSans-117"/>
      <path d="M 48.6875 27.296875 
Q 48.6875 37.203125 44.609375 42.84375 
Q 40.53125 48.484375 33.40625 48.484375 
Q 26.265625 48.484375 22.1875 42.84375 
Q 18.109375 37.203125 18.109375 27.296875 
Q 18.109375 17.390625 22.1875 11.75 
Q 26.265625 6.109375 33.40625 6.109375 
Q 40.53125 6.109375 44.609375 11.75 
Q 48.6875 17.390625 48.6875 27.296875 
z
M 18.109375 46.390625 
Q 20.953125 51.265625 25.265625 53.625 
Q 29.59375 56 35.59375 56 
Q 45.5625 56 51.78125 48.09375 
Q 58.015625 40.1875 58.015625 27.296875 
Q 58.015625 14.40625 51.78125 6.484375 
Q 45.5625 -1.421875 35.59375 -1.421875 
Q 29.59375 -1.421875 25.265625 0.953125 
Q 20.953125 3.328125 18.109375 8.203125 
L 18.109375 0 
L 9.078125 0 
L 9.078125 75.984375 
L 18.109375 75.984375 
z
" id="DejaVuSans-98"/>
      <path d="M 41.109375 46.296875 
Q 39.59375 47.171875 37.8125 47.578125 
Q 36.03125 48 33.890625 48 
Q 26.265625 48 22.1875 43.046875 
Q 18.109375 38.09375 18.109375 28.8125 
L 18.109375 0 
L 9.078125 0 
L 9.078125 54.6875 
L 18.109375 54.6875 
L 18.109375 46.1875 
Q 20.953125 51.171875 25.484375 53.578125 
Q 30.03125 56 36.53125 56 
Q 37.453125 56 38.578125 55.875 
Q 39.703125 55.765625 41.0625 55.515625 
z
" id="DejaVuSans-114"/>
     </defs>
     <g style="fill:#262626;" transform="translate(14.798438 172.567719)rotate(-90)scale(0.1 -0.1)">
      <use xlink:href="#DejaVuSans-99"/>
      <use x="54.980469" xlink:href="#DejaVuSans-101"/>
      <use x="116.503906" xlink:href="#DejaVuSans-108"/>
      <use x="144.287109" xlink:href="#DejaVuSans-108"/>
      <use x="172.070312" xlink:href="#DejaVuSans-115"/>
      <use x="224.169922" xlink:href="#DejaVuSans-32"/>
      <use x="255.957031" xlink:href="#DejaVuSans-110"/>
      <use x="319.335938" xlink:href="#DejaVuSans-117"/>
      <use x="382.714844" xlink:href="#DejaVuSans-109"/>
      <use x="480.126953" xlink:href="#DejaVuSans-98"/>
      <use x="543.603516" xlink:href="#DejaVuSans-101"/>
      <use x="605.126953" xlink:href="#DejaVuSans-114"/>
     </g>
    </g>
   </g>
   <g id="line2d_16">
    <path clip-path="url(#p538103baac)" d="M 63.198352 261.216 
L 68.894046 261.216 
L 69.707717 258.867262 
L 72.148728 258.867262 
L 72.962399 256.518524 
L 74.58974 256.518524 
L 75.40341 254.169786 
L 78.658093 254.169786 
L 81.099104 233.031146 
L 81.912775 230.682408 
L 82.726445 230.682408 
L 83.540116 233.031146 
L 84.353786 228.33367 
L 85.167457 225.984932 
L 85.981127 228.33367 
L 87.608468 223.636194 
L 88.422139 216.589981 
L 90.04948 216.589981 
L 90.863151 211.892505 
L 91.676821 211.892505 
L 92.490492 204.846291 
L 93.304162 204.846291 
L 94.117833 200.148816 
L 94.931503 202.497553 
L 95.745174 197.800078 
L 96.558844 200.148816 
L 97.372515 195.45134 
L 98.186185 193.102602 
L 98.999856 195.45134 
L 99.813527 193.102602 
L 100.627197 181.358913 
L 101.440868 176.661437 
L 102.254538 179.010175 
L 103.068209 174.312699 
L 103.881879 171.963961 
L 105.50922 162.56901 
L 106.322891 160.220272 
L 107.136561 155.522796 
L 108.763903 160.220272 
L 109.577573 160.220272 
L 110.391244 164.917748 
L 111.204914 164.917748 
L 112.018585 162.56901 
L 112.832255 150.82532 
L 114.459596 155.522796 
L 115.273267 150.82532 
L 116.086937 139.081631 
L 116.900608 139.081631 
L 118.527949 143.779107 
L 119.34162 143.779107 
L 120.968961 124.989204 
L 121.782631 132.035417 
L 122.596302 124.989204 
L 124.223643 124.989204 
L 125.037313 127.337942 
L 125.850984 122.640466 
L 127.478325 108.548039 
L 129.105666 103.850563 
L 129.919337 99.153087 
L 130.733007 89.758136 
L 131.546678 87.409398 
L 132.360348 82.711922 
L 133.174019 85.06066 
L 133.987689 80.363184 
L 134.80136 87.409398 
L 135.61503 85.06066 
L 136.428701 94.455612 
L 137.242371 85.06066 
L 138.056042 78.014447 
L 138.869712 68.619495 
L 139.683383 66.270757 
L 140.497054 68.619495 
L 141.310724 66.270757 
L 142.124395 59.224544 
L 142.938065 54.527068 
L 143.751736 54.527068 
L 144.565406 59.224544 
L 145.379077 59.224544 
L 147.820088 52.17833 
L 148.633759 42.783379 
L 149.44743 35.737165 
L 150.2611 23.993476 
L 151.074771 35.737165 
L 151.888441 26.342214 
L 152.702112 28.690951 
L 153.515782 35.737165 
L 154.329453 28.690951 
L 155.143123 26.342214 
L 155.956794 31.039689 
L 156.770464 38.085903 
L 157.584135 49.829592 
L 158.397805 54.527068 
L 160.025147 73.316971 
L 160.838817 85.06066 
L 161.652488 87.409398 
L 162.466158 94.455612 
L 164.093499 99.153087 
L 164.90717 94.455612 
L 168.161852 103.850563 
L 168.975522 101.501825 
L 170.602864 106.199301 
L 172.230205 115.594252 
L 173.043875 115.594252 
L 173.857546 120.291728 
L 174.671216 120.291728 
L 175.484887 127.337942 
L 176.298557 127.337942 
L 177.112228 129.68668 
L 178.739569 139.081631 
L 180.36691 143.779107 
L 181.994251 143.779107 
L 182.807922 146.127845 
L 183.621592 146.127845 
L 185.248933 155.522796 
L 186.062604 162.56901 
L 187.689945 162.56901 
L 188.503615 164.917748 
L 189.317286 174.312699 
L 190.944627 174.312699 
L 192.571968 179.010175 
L 194.199309 179.010175 
L 195.01298 183.70765 
L 195.82665 183.70765 
L 196.640321 188.405126 
L 198.267662 188.405126 
L 199.081332 197.800078 
L 200.708674 197.800078 
L 201.522344 200.148816 
L 205.590697 200.148816 
L 206.404367 207.195029 
L 207.218038 211.892505 
L 208.031708 211.892505 
L 208.845379 207.195029 
L 212.913732 207.195029 
L 213.727402 211.892505 
L 214.541073 211.892505 
L 215.354743 214.241243 
L 219.423096 214.241243 
L 220.236766 221.287456 
L 221.050437 225.984932 
L 221.864108 225.984932 
L 222.677778 223.636194 
L 225.93246 223.636194 
L 226.746131 225.984932 
L 228.373472 225.984932 
L 229.187142 228.33367 
L 230.000813 228.33367 
L 230.814484 233.031146 
L 231.628154 235.379883 
L 237.323848 235.379883 
L 238.137518 237.728621 
L 240.57853 237.728621 
L 241.392201 240.077359 
L 247.087894 240.077359 
L 247.901565 242.426097 
L 249.528906 242.426097 
L 250.342576 244.774835 
L 253.597259 244.774835 
L 254.410929 249.472311 
L 264.174976 249.472311 
L 264.988646 251.821049 
L 269.870669 251.821049 
L 270.68434 254.169786 
L 282.889398 254.169786 
L 283.703069 256.518524 
L 287.771421 256.518524 
L 288.585092 258.867262 
L 295.094456 258.867262 
L 295.908127 261.216 
L 387.852898 261.216 
L 387.852898 261.216 
" style="fill:none;stroke:#000080;stroke-linecap:round;stroke-width:1.5;"/>
   </g>
   <g id="line2d_17">
    <path clip-path="url(#p538103baac)" d="M 63.198352 261.216 
L 72.962399 261.216 
L 73.776069 258.867262 
L 75.40341 258.867262 
L 77.844422 251.821049 
L 78.658093 254.169786 
L 79.471763 251.821049 
L 80.285434 251.821049 
L 81.912775 247.123573 
L 85.167457 247.123573 
L 85.981127 244.774835 
L 87.608468 244.774835 
L 88.422139 240.077359 
L 89.23581 233.031146 
L 90.863151 228.33367 
L 91.676821 230.682408 
L 92.490492 228.33367 
L 93.304162 228.33367 
L 94.931503 223.636194 
L 95.745174 216.589981 
L 97.372515 211.892505 
L 98.186185 207.195029 
L 98.999856 204.846291 
L 99.813527 204.846291 
L 100.627197 200.148816 
L 101.440868 193.102602 
L 102.254538 190.753864 
L 103.068209 183.70765 
L 103.881879 179.010175 
L 104.69555 181.358913 
L 105.50922 169.615223 
L 106.322891 164.917748 
L 107.136561 155.522796 
L 108.763903 155.522796 
L 109.577573 141.430369 
L 110.391244 146.127845 
L 111.204914 139.081631 
L 112.018585 127.337942 
L 112.832255 132.035417 
L 113.645926 132.035417 
L 114.459596 120.291728 
L 115.273267 115.594252 
L 116.086937 103.850563 
L 117.714278 103.850563 
L 119.34162 108.548039 
L 120.15529 101.501825 
L 120.968961 101.501825 
L 121.782631 94.455612 
L 122.596302 94.455612 
L 123.409972 96.80435 
L 124.223643 96.80435 
L 125.037313 99.153087 
L 125.850984 96.80435 
L 126.664654 99.153087 
L 127.478325 92.106874 
L 128.291995 89.758136 
L 129.105666 85.06066 
L 129.919337 92.106874 
L 130.733007 96.80435 
L 131.546678 94.455612 
L 132.360348 99.153087 
L 133.987689 103.850563 
L 134.80136 94.455612 
L 135.61503 89.758136 
L 136.428701 87.409398 
L 137.242371 92.106874 
L 138.056042 82.711922 
L 138.869712 85.06066 
L 139.683383 89.758136 
L 140.497054 85.06066 
L 141.310724 82.711922 
L 142.124395 82.711922 
L 143.751736 73.316971 
L 144.565406 63.922019 
L 145.379077 70.968233 
L 146.192747 66.270757 
L 147.006418 73.316971 
L 147.820088 78.014447 
L 148.633759 87.409398 
L 149.44743 87.409398 
L 150.2611 82.711922 
L 151.074771 87.409398 
L 151.888441 85.06066 
L 154.329453 85.06066 
L 155.143123 89.758136 
L 155.956794 87.409398 
L 156.770464 89.758136 
L 157.584135 94.455612 
L 158.397805 96.80435 
L 160.025147 87.409398 
L 161.652488 87.409398 
L 162.466158 89.758136 
L 163.279829 94.455612 
L 164.093499 106.199301 
L 164.90717 110.896777 
L 166.534511 115.594252 
L 167.348181 115.594252 
L 168.161852 108.548039 
L 168.975522 117.94299 
L 169.789193 115.594252 
L 170.602864 115.594252 
L 171.416534 108.548039 
L 172.230205 108.548039 
L 173.857546 113.245515 
L 174.671216 122.640466 
L 176.298557 122.640466 
L 177.112228 132.035417 
L 177.925898 132.035417 
L 178.739569 129.68668 
L 179.553239 132.035417 
L 181.180581 141.430369 
L 181.994251 143.779107 
L 184.435263 157.871534 
L 185.248933 157.871534 
L 186.062604 164.917748 
L 186.876274 164.917748 
L 188.503615 169.615223 
L 189.317286 174.312699 
L 190.130957 174.312699 
L 190.944627 188.405126 
L 191.758298 186.056388 
L 192.571968 190.753864 
L 194.199309 195.45134 
L 195.01298 195.45134 
L 195.82665 197.800078 
L 196.640321 202.497553 
L 197.453991 204.846291 
L 198.267662 204.846291 
L 199.081332 207.195029 
L 199.895003 211.892505 
L 201.522344 211.892505 
L 202.336015 214.241243 
L 203.149685 214.241243 
L 203.963356 216.589981 
L 208.031708 216.589981 
L 208.845379 218.938718 
L 209.659049 218.938718 
L 212.100061 225.984932 
L 214.541073 225.984932 
L 215.354743 223.636194 
L 216.982084 223.636194 
L 217.795755 221.287456 
L 218.609425 221.287456 
L 221.050437 228.33367 
L 221.864108 225.984932 
L 222.677778 228.33367 
L 226.746131 228.33367 
L 227.559801 230.682408 
L 229.187142 230.682408 
L 230.000813 235.379883 
L 231.628154 235.379883 
L 233.255495 240.077359 
L 234.069166 244.774835 
L 241.392201 244.774835 
L 242.205871 247.123573 
L 243.833212 247.123573 
L 244.646883 249.472311 
L 245.460553 247.123573 
L 253.597259 247.123573 
L 254.410929 249.472311 
L 264.174976 249.472311 
L 264.988646 251.821049 
L 275.566363 251.821049 
L 276.380034 254.169786 
L 296.721797 254.169786 
L 297.535468 256.518524 
L 332.523301 256.518524 
L 334.150642 261.216 
L 387.852898 261.216 
L 387.852898 261.216 
" style="fill:none;stroke:#0000f1;stroke-linecap:round;stroke-width:1.5;"/>
   </g>
   <g id="line2d_18">
    <path clip-path="url(#p538103baac)" d="M 63.198352 261.216 
L 68.080376 261.216 
L 68.894046 258.867262 
L 72.148728 258.867262 
L 73.776069 254.169786 
L 74.58974 254.169786 
L 75.40341 256.518524 
L 77.030751 256.518524 
L 77.844422 254.169786 
L 78.658093 254.169786 
L 79.471763 249.472311 
L 81.099104 249.472311 
L 82.726445 244.774835 
L 83.540116 247.123573 
L 84.353786 242.426097 
L 85.981127 242.426097 
L 86.794798 237.728621 
L 87.608468 235.379883 
L 89.23581 225.984932 
L 90.863151 221.287456 
L 91.676821 214.241243 
L 92.490492 211.892505 
L 93.304162 207.195029 
L 94.931503 202.497553 
L 95.745174 195.45134 
L 96.558844 193.102602 
L 97.372515 183.70765 
L 98.186185 183.70765 
L 98.999856 181.358913 
L 99.813527 183.70765 
L 100.627197 181.358913 
L 101.440868 171.963961 
L 102.254538 169.615223 
L 103.068209 169.615223 
L 103.881879 174.312699 
L 105.50922 164.917748 
L 109.577573 164.917748 
L 112.018585 157.871534 
L 112.832255 146.127845 
L 113.645926 139.081631 
L 114.459596 134.384155 
L 115.273267 136.732893 
L 116.086937 141.430369 
L 116.900608 132.035417 
L 117.714278 127.337942 
L 118.527949 124.989204 
L 119.34162 124.989204 
L 120.15529 120.291728 
L 120.968961 120.291728 
L 121.782631 110.896777 
L 122.596302 108.548039 
L 123.409972 101.501825 
L 124.223643 96.80435 
L 125.037313 96.80435 
L 125.850984 103.850563 
L 126.664654 94.455612 
L 127.478325 92.106874 
L 128.291995 94.455612 
L 129.105666 101.501825 
L 129.919337 103.850563 
L 130.733007 103.850563 
L 131.546678 94.455612 
L 132.360348 94.455612 
L 133.174019 87.409398 
L 133.987689 85.06066 
L 135.61503 66.270757 
L 136.428701 73.316971 
L 137.242371 66.270757 
L 138.056042 70.968233 
L 138.869712 66.270757 
L 139.683383 59.224544 
L 140.497054 56.875806 
L 141.310724 47.480854 
L 142.124395 47.480854 
L 142.938065 42.783379 
L 143.751736 47.480854 
L 145.379077 47.480854 
L 146.192747 40.434641 
L 147.006418 35.737165 
L 148.633759 45.132117 
L 149.44743 47.480854 
L 150.2611 31.039689 
L 151.074771 40.434641 
L 151.888441 40.434641 
L 152.702112 38.085903 
L 153.515782 47.480854 
L 154.329453 59.224544 
L 155.143123 59.224544 
L 155.956794 66.270757 
L 156.770464 54.527068 
L 157.584135 54.527068 
L 159.211476 63.922019 
L 160.025147 70.968233 
L 161.652488 66.270757 
L 162.466158 75.665709 
L 164.093499 75.665709 
L 164.90717 80.363184 
L 165.72084 78.014447 
L 166.534511 85.06066 
L 168.161852 94.455612 
L 170.602864 101.501825 
L 171.416534 101.501825 
L 172.230205 106.199301 
L 173.043875 108.548039 
L 173.857546 103.850563 
L 174.671216 110.896777 
L 175.484887 113.245515 
L 176.298557 120.291728 
L 177.112228 122.640466 
L 177.925898 120.291728 
L 180.36691 134.384155 
L 181.994251 148.476583 
L 182.807922 153.174058 
L 183.621592 150.82532 
L 185.248933 160.220272 
L 186.876274 164.917748 
L 187.689945 164.917748 
L 188.503615 167.266485 
L 189.317286 167.266485 
L 190.130957 169.615223 
L 191.758298 179.010175 
L 193.385639 183.70765 
L 194.199309 183.70765 
L 195.01298 186.056388 
L 196.640321 186.056388 
L 198.267662 190.753864 
L 199.081332 195.45134 
L 199.895003 193.102602 
L 200.708674 200.148816 
L 201.522344 202.497553 
L 202.336015 202.497553 
L 203.149685 204.846291 
L 204.777026 204.846291 
L 205.590697 202.497553 
L 207.218038 202.497553 
L 208.031708 204.846291 
L 208.845379 204.846291 
L 209.659049 207.195029 
L 210.47272 207.195029 
L 212.913732 221.287456 
L 214.541073 221.287456 
L 215.354743 223.636194 
L 217.795755 223.636194 
L 218.609425 225.984932 
L 220.236766 225.984932 
L 221.050437 230.682408 
L 221.864108 233.031146 
L 224.305119 233.031146 
L 225.11879 235.379883 
L 225.93246 235.379883 
L 227.559801 240.077359 
L 230.000813 240.077359 
L 230.814484 237.728621 
L 241.392201 237.728621 
L 242.205871 235.379883 
L 243.833212 235.379883 
L 244.646883 237.728621 
L 246.274224 237.728621 
L 247.087894 240.077359 
L 247.901565 240.077359 
L 248.715235 242.426097 
L 250.342576 242.426097 
L 251.156247 244.774835 
L 259.292952 244.774835 
L 260.106623 247.123573 
L 262.547635 247.123573 
L 263.361305 251.821049 
L 272.311681 251.821049 
L 273.125352 254.169786 
L 278.007375 254.169786 
L 280.448386 261.216 
L 387.852898 261.216 
L 387.852898 261.216 
" style="fill:none;stroke:#004cff;stroke-linecap:round;stroke-width:1.5;"/>
   </g>
   <g id="line2d_19">
    <path clip-path="url(#p538103baac)" d="M 63.198352 261.216 
L 68.894046 261.216 
L 69.707717 258.867262 
L 75.40341 258.867262 
L 76.217081 256.518524 
L 77.844422 256.518524 
L 78.658093 254.169786 
L 80.285434 254.169786 
L 81.099104 256.518524 
L 83.540116 249.472311 
L 84.353786 249.472311 
L 85.167457 247.123573 
L 85.981127 247.123573 
L 86.794798 242.426097 
L 88.422139 242.426097 
L 89.23581 235.379883 
L 90.04948 225.984932 
L 91.676821 225.984932 
L 92.490492 221.287456 
L 93.304162 211.892505 
L 94.117833 204.846291 
L 94.931503 202.497553 
L 95.745174 197.800078 
L 96.558844 190.753864 
L 97.372515 190.753864 
L 98.186185 193.102602 
L 98.999856 186.056388 
L 101.440868 179.010175 
L 102.254538 162.56901 
L 103.068209 167.266485 
L 103.881879 164.917748 
L 104.69555 167.266485 
L 105.50922 157.871534 
L 106.322891 153.174058 
L 107.136561 146.127845 
L 108.763903 122.640466 
L 109.577573 124.989204 
L 111.204914 134.384155 
L 112.018585 129.68668 
L 112.832255 134.384155 
L 113.645926 132.035417 
L 114.459596 127.337942 
L 115.273267 115.594252 
L 116.086937 113.245515 
L 117.714278 117.94299 
L 118.527949 110.896777 
L 119.34162 113.245515 
L 120.15529 106.199301 
L 120.968961 101.501825 
L 121.782631 94.455612 
L 122.596302 89.758136 
L 124.223643 89.758136 
L 125.037313 73.316971 
L 125.850984 87.409398 
L 126.664654 85.06066 
L 127.478325 80.363184 
L 128.291995 82.711922 
L 129.105666 80.363184 
L 129.919337 80.363184 
L 130.733007 66.270757 
L 131.546678 70.968233 
L 132.360348 68.619495 
L 133.174019 78.014447 
L 133.987689 82.711922 
L 134.80136 80.363184 
L 135.61503 75.665709 
L 136.428701 73.316971 
L 137.242371 73.316971 
L 138.056042 68.619495 
L 138.869712 56.875806 
L 139.683383 54.527068 
L 140.497054 61.573282 
L 141.310724 63.922019 
L 142.124395 59.224544 
L 142.938065 63.922019 
L 144.565406 82.711922 
L 145.379077 78.014447 
L 146.192747 85.06066 
L 147.006418 80.363184 
L 147.820088 82.711922 
L 148.633759 80.363184 
L 149.44743 75.665709 
L 151.074771 75.665709 
L 152.702112 66.270757 
L 154.329453 75.665709 
L 155.143123 75.665709 
L 155.956794 80.363184 
L 156.770464 73.316971 
L 157.584135 63.922019 
L 158.397805 73.316971 
L 160.025147 78.014447 
L 160.838817 75.665709 
L 161.652488 75.665709 
L 162.466158 70.968233 
L 163.279829 54.527068 
L 164.093499 56.875806 
L 164.90717 63.922019 
L 165.72084 61.573282 
L 166.534511 63.922019 
L 168.161852 82.711922 
L 168.975522 80.363184 
L 169.789193 80.363184 
L 170.602864 82.711922 
L 171.416534 92.106874 
L 173.043875 106.199301 
L 174.671216 110.896777 
L 177.112228 110.896777 
L 177.925898 122.640466 
L 178.739569 120.291728 
L 179.553239 122.640466 
L 180.36691 122.640466 
L 181.180581 127.337942 
L 182.807922 132.035417 
L 183.621592 127.337942 
L 184.435263 129.68668 
L 185.248933 134.384155 
L 186.062604 136.732893 
L 186.876274 136.732893 
L 188.503615 132.035417 
L 189.317286 143.779107 
L 190.130957 146.127845 
L 190.944627 155.522796 
L 191.758298 160.220272 
L 192.571968 160.220272 
L 193.385639 162.56901 
L 194.199309 169.615223 
L 195.82665 169.615223 
L 196.640321 167.266485 
L 197.453991 169.615223 
L 198.267662 169.615223 
L 199.081332 171.963961 
L 199.895003 176.661437 
L 200.708674 174.312699 
L 201.522344 174.312699 
L 203.149685 183.70765 
L 205.590697 183.70765 
L 208.031708 190.753864 
L 208.845379 190.753864 
L 209.659049 193.102602 
L 211.286391 193.102602 
L 212.100061 197.800078 
L 212.913732 197.800078 
L 213.727402 200.148816 
L 214.541073 200.148816 
L 215.354743 204.846291 
L 216.982084 209.543767 
L 217.795755 209.543767 
L 219.423096 214.241243 
L 220.236766 214.241243 
L 221.050437 218.938718 
L 221.864108 221.287456 
L 224.305119 221.287456 
L 225.11879 223.636194 
L 232.441825 223.636194 
L 234.069166 228.33367 
L 235.696507 228.33367 
L 236.510177 230.682408 
L 240.57853 230.682408 
L 242.205871 235.379883 
L 246.274224 235.379883 
L 247.087894 237.728621 
L 248.715235 237.728621 
L 249.528906 242.426097 
L 250.342576 244.774835 
L 251.156247 242.426097 
L 251.969918 244.774835 
L 252.783588 242.426097 
L 254.410929 242.426097 
L 255.2246 244.774835 
L 260.106623 244.774835 
L 260.920293 247.123573 
L 270.68434 247.123573 
L 271.498011 249.472311 
L 275.566363 249.472311 
L 276.380034 251.821049 
L 282.075728 251.821049 
L 282.889398 254.169786 
L 292.653445 254.169786 
L 294.280786 258.867262 
L 299.162809 258.867262 
L 299.976479 261.216 
L 387.852898 261.216 
L 387.852898 261.216 
" style="fill:none;stroke:#00b0ff;stroke-linecap:round;stroke-width:1.5;"/>
   </g>
   <g id="line2d_20">
    <path clip-path="url(#p538103baac)" d="M 63.198352 261.216 
L 68.894046 261.216 
L 69.707717 258.867262 
L 71.335058 258.867262 
L 72.962399 254.169786 
L 74.58974 254.169786 
L 76.217081 249.472311 
L 77.030751 249.472311 
L 77.844422 247.123573 
L 78.658093 247.123573 
L 79.471763 242.426097 
L 80.285434 240.077359 
L 81.099104 242.426097 
L 81.912775 240.077359 
L 82.726445 235.379883 
L 83.540116 235.379883 
L 84.353786 233.031146 
L 85.167457 233.031146 
L 85.981127 237.728621 
L 86.794798 235.379883 
L 87.608468 228.33367 
L 88.422139 225.984932 
L 90.04948 225.984932 
L 90.863151 221.287456 
L 92.490492 202.497553 
L 93.304162 204.846291 
L 94.117833 204.846291 
L 95.745174 200.148816 
L 96.558844 195.45134 
L 97.372515 183.70765 
L 98.186185 179.010175 
L 98.999856 176.661437 
L 99.813527 183.70765 
L 100.627197 186.056388 
L 103.068209 179.010175 
L 104.69555 160.220272 
L 105.50922 153.174058 
L 106.322891 157.871534 
L 107.136561 150.82532 
L 107.950232 155.522796 
L 108.763903 155.522796 
L 109.577573 146.127845 
L 111.204914 141.430369 
L 112.018585 132.035417 
L 112.832255 129.68668 
L 113.645926 129.68668 
L 114.459596 122.640466 
L 116.086937 117.94299 
L 116.900608 110.896777 
L 117.714278 108.548039 
L 119.34162 94.455612 
L 120.968961 89.758136 
L 121.782631 92.106874 
L 122.596302 99.153087 
L 123.409972 94.455612 
L 124.223643 92.106874 
L 125.850984 82.711922 
L 126.664654 87.409398 
L 127.478325 89.758136 
L 128.291995 85.06066 
L 129.105666 92.106874 
L 129.919337 92.106874 
L 131.546678 87.409398 
L 133.174019 63.922019 
L 133.987689 63.922019 
L 134.80136 59.224544 
L 135.61503 66.270757 
L 136.428701 70.968233 
L 137.242371 70.968233 
L 138.056042 78.014447 
L 138.869712 78.014447 
L 139.683383 70.968233 
L 141.310724 66.270757 
L 142.124395 70.968233 
L 142.938065 66.270757 
L 143.751736 68.619495 
L 144.565406 59.224544 
L 145.379077 63.922019 
L 146.192747 70.968233 
L 147.006418 73.316971 
L 147.820088 61.573282 
L 148.633759 54.527068 
L 149.44743 56.875806 
L 150.2611 56.875806 
L 151.074771 59.224544 
L 151.888441 56.875806 
L 152.702112 63.922019 
L 153.515782 66.270757 
L 154.329453 73.316971 
L 155.143123 78.014447 
L 155.956794 73.316971 
L 156.770464 78.014447 
L 157.584135 80.363184 
L 158.397805 80.363184 
L 159.211476 73.316971 
L 160.025147 73.316971 
L 160.838817 80.363184 
L 161.652488 82.711922 
L 162.466158 80.363184 
L 164.093499 85.06066 
L 164.90717 89.758136 
L 165.72084 87.409398 
L 166.534511 82.711922 
L 167.348181 87.409398 
L 168.161852 85.06066 
L 168.975522 89.758136 
L 169.789193 92.106874 
L 170.602864 96.80435 
L 171.416534 96.80435 
L 172.230205 99.153087 
L 173.043875 103.850563 
L 173.857546 110.896777 
L 176.298557 110.896777 
L 177.112228 115.594252 
L 177.925898 115.594252 
L 178.739569 129.68668 
L 179.553239 134.384155 
L 180.36691 136.732893 
L 181.180581 136.732893 
L 183.621592 143.779107 
L 184.435263 148.476583 
L 185.248933 148.476583 
L 186.062604 153.174058 
L 186.876274 155.522796 
L 187.689945 162.56901 
L 188.503615 167.266485 
L 189.317286 169.615223 
L 190.944627 169.615223 
L 191.758298 171.963961 
L 192.571968 176.661437 
L 194.199309 176.661437 
L 195.82665 181.358913 
L 197.453991 181.358913 
L 198.267662 183.70765 
L 199.081332 188.405126 
L 199.895003 188.405126 
L 200.708674 183.70765 
L 201.522344 183.70765 
L 202.336015 186.056388 
L 203.149685 186.056388 
L 207.218038 197.800078 
L 208.031708 197.800078 
L 208.845379 200.148816 
L 209.659049 200.148816 
L 210.47272 202.497553 
L 211.286391 207.195029 
L 212.913732 207.195029 
L 213.727402 214.241243 
L 214.541073 218.938718 
L 216.168414 218.938718 
L 216.982084 221.287456 
L 221.864108 221.287456 
L 222.677778 225.984932 
L 223.491449 228.33367 
L 224.305119 233.031146 
L 225.11879 233.031146 
L 225.93246 235.379883 
L 226.746131 235.379883 
L 227.559801 237.728621 
L 228.373472 237.728621 
L 229.187142 235.379883 
L 233.255495 235.379883 
L 234.069166 237.728621 
L 234.882836 242.426097 
L 235.696507 242.426097 
L 236.510177 244.774835 
L 239.764859 244.774835 
L 240.57853 247.123573 
L 241.392201 251.821049 
L 245.460553 251.821049 
L 246.274224 254.169786 
L 247.901565 254.169786 
L 248.715235 256.518524 
L 260.920293 256.518524 
L 261.733964 258.867262 
L 270.68434 258.867262 
L 271.498011 256.518524 
L 282.889398 256.518524 
L 283.703069 258.867262 
L 342.287347 258.867262 
L 343.101018 261.216 
L 387.852898 261.216 
L 387.852898 261.216 
" style="fill:none;stroke:#29ffce;stroke-linecap:round;stroke-width:1.5;"/>
   </g>
   <g id="line2d_21">
    <path clip-path="url(#p538103baac)" d="M 63.198352 261.216 
L 68.080376 261.216 
L 68.894046 256.518524 
L 73.776069 256.518524 
L 74.58974 249.472311 
L 75.40341 249.472311 
L 76.217081 251.821049 
L 77.030751 242.426097 
L 79.471763 235.379883 
L 80.285434 235.379883 
L 81.099104 230.682408 
L 81.912775 228.33367 
L 84.353786 228.33367 
L 85.981127 223.636194 
L 86.794798 225.984932 
L 87.608468 225.984932 
L 88.422139 230.682408 
L 89.23581 228.33367 
L 90.04948 228.33367 
L 90.863151 221.287456 
L 91.676821 221.287456 
L 92.490492 218.938718 
L 93.304162 221.287456 
L 94.117833 214.241243 
L 94.931503 216.589981 
L 95.745174 209.543767 
L 96.558844 214.241243 
L 97.372515 207.195029 
L 98.186185 204.846291 
L 98.999856 200.148816 
L 99.813527 197.800078 
L 100.627197 197.800078 
L 103.068209 183.70765 
L 103.881879 176.661437 
L 104.69555 167.266485 
L 105.50922 160.220272 
L 106.322891 167.266485 
L 107.136561 167.266485 
L 107.950232 160.220272 
L 108.763903 157.871534 
L 109.577573 148.476583 
L 110.391244 141.430369 
L 111.204914 132.035417 
L 112.018585 127.337942 
L 112.832255 120.291728 
L 113.645926 124.989204 
L 114.459596 120.291728 
L 115.273267 122.640466 
L 116.086937 117.94299 
L 116.900608 106.199301 
L 117.714278 108.548039 
L 118.527949 106.199301 
L 120.15529 96.80435 
L 120.968961 99.153087 
L 122.596302 94.455612 
L 123.409972 94.455612 
L 124.223643 92.106874 
L 125.850984 106.199301 
L 126.664654 106.199301 
L 127.478325 101.501825 
L 128.291995 103.850563 
L 129.105666 101.501825 
L 129.919337 87.409398 
L 130.733007 94.455612 
L 131.546678 103.850563 
L 132.360348 99.153087 
L 133.987689 85.06066 
L 134.80136 75.665709 
L 135.61503 78.014447 
L 136.428701 73.316971 
L 137.242371 73.316971 
L 138.056042 61.573282 
L 138.869712 63.922019 
L 139.683383 61.573282 
L 141.310724 66.270757 
L 142.124395 73.316971 
L 142.938065 70.968233 
L 143.751736 73.316971 
L 144.565406 70.968233 
L 145.379077 70.968233 
L 146.192747 61.573282 
L 147.006418 49.829592 
L 147.820088 47.480854 
L 148.633759 49.829592 
L 149.44743 54.527068 
L 150.2611 56.875806 
L 151.074771 54.527068 
L 151.888441 49.829592 
L 152.702112 54.527068 
L 153.515782 45.132117 
L 154.329453 42.783379 
L 155.143123 47.480854 
L 155.956794 45.132117 
L 156.770464 45.132117 
L 158.397805 40.434641 
L 159.211476 40.434641 
L 160.025147 42.783379 
L 160.838817 52.17833 
L 161.652488 52.17833 
L 162.466158 45.132117 
L 163.279829 40.434641 
L 164.093499 42.783379 
L 164.90717 47.480854 
L 165.72084 49.829592 
L 166.534511 49.829592 
L 167.348181 54.527068 
L 168.161852 49.829592 
L 168.975522 54.527068 
L 169.789193 54.527068 
L 170.602864 59.224544 
L 171.416534 68.619495 
L 172.230205 75.665709 
L 174.671216 89.758136 
L 175.484887 96.80435 
L 176.298557 106.199301 
L 177.112228 110.896777 
L 178.739569 124.989204 
L 179.553239 127.337942 
L 180.36691 132.035417 
L 181.180581 134.384155 
L 181.994251 143.779107 
L 183.621592 153.174058 
L 185.248933 153.174058 
L 186.062604 162.56901 
L 186.876274 167.266485 
L 187.689945 167.266485 
L 188.503615 169.615223 
L 189.317286 167.266485 
L 190.130957 171.963961 
L 190.944627 171.963961 
L 191.758298 174.312699 
L 192.571968 181.358913 
L 193.385639 181.358913 
L 194.199309 183.70765 
L 195.01298 188.405126 
L 195.82665 188.405126 
L 199.081332 197.800078 
L 200.708674 197.800078 
L 201.522344 193.102602 
L 202.336015 197.800078 
L 203.149685 214.241243 
L 204.777026 214.241243 
L 205.590697 218.938718 
L 206.404367 221.287456 
L 208.031708 221.287456 
L 208.845379 223.636194 
L 212.100061 223.636194 
L 212.913732 225.984932 
L 213.727402 221.287456 
L 214.541073 223.636194 
L 216.168414 223.636194 
L 217.795755 228.33367 
L 218.609425 225.984932 
L 219.423096 225.984932 
L 221.864108 233.031146 
L 222.677778 230.682408 
L 225.93246 230.682408 
L 226.746131 233.031146 
L 228.373472 233.031146 
L 230.000813 237.728621 
L 232.441825 237.728621 
L 233.255495 244.774835 
L 237.323848 244.774835 
L 238.137518 247.123573 
L 238.951189 247.123573 
L 239.764859 249.472311 
L 253.597259 249.472311 
L 254.410929 251.821049 
L 258.479282 251.821049 
L 259.292952 256.518524 
L 264.174976 256.518524 
L 264.988646 258.867262 
L 268.243328 258.867262 
L 269.056999 261.216 
L 387.852898 261.216 
L 387.852898 261.216 
" style="fill:none;stroke:#7dff7a;stroke-linecap:round;stroke-width:1.5;"/>
   </g>
   <g id="line2d_22">
    <path clip-path="url(#p538103baac)" d="M 63.198352 261.216 
L 72.962399 261.216 
L 74.58974 256.518524 
L 75.40341 256.518524 
L 77.030751 251.821049 
L 77.844422 251.821049 
L 78.658093 247.123573 
L 79.471763 247.123573 
L 81.099104 242.426097 
L 81.912775 237.728621 
L 82.726445 230.682408 
L 84.353786 225.984932 
L 85.167457 225.984932 
L 85.981127 221.287456 
L 87.608468 216.589981 
L 88.422139 223.636194 
L 89.23581 221.287456 
L 90.04948 216.589981 
L 90.863151 209.543767 
L 91.676821 209.543767 
L 92.490492 204.846291 
L 93.304162 197.800078 
L 94.117833 193.102602 
L 94.931503 195.45134 
L 96.558844 190.753864 
L 97.372515 186.056388 
L 98.999856 190.753864 
L 99.813527 188.405126 
L 100.627197 188.405126 
L 101.440868 183.70765 
L 102.254538 181.358913 
L 103.068209 171.963961 
L 103.881879 157.871534 
L 104.69555 160.220272 
L 105.50922 157.871534 
L 106.322891 148.476583 
L 107.136561 148.476583 
L 110.391244 157.871534 
L 111.204914 164.917748 
L 112.018585 167.266485 
L 112.832255 160.220272 
L 113.645926 157.871534 
L 114.459596 164.917748 
L 115.273267 155.522796 
L 116.086937 157.871534 
L 116.900608 148.476583 
L 117.714278 146.127845 
L 118.527949 141.430369 
L 119.34162 143.779107 
L 120.15529 134.384155 
L 120.968961 127.337942 
L 123.409972 127.337942 
L 124.223643 122.640466 
L 125.037313 122.640466 
L 125.850984 117.94299 
L 126.664654 110.896777 
L 127.478325 106.199301 
L 128.291995 106.199301 
L 129.105666 103.850563 
L 129.919337 103.850563 
L 130.733007 106.199301 
L 131.546678 101.501825 
L 132.360348 89.758136 
L 133.174019 66.270757 
L 133.987689 66.270757 
L 134.80136 61.573282 
L 135.61503 54.527068 
L 136.428701 63.922019 
L 137.242371 54.527068 
L 138.056042 54.527068 
L 138.869712 47.480854 
L 139.683383 47.480854 
L 140.497054 42.783379 
L 141.310724 56.875806 
L 142.938065 47.480854 
L 143.751736 47.480854 
L 144.565406 45.132117 
L 145.379077 49.829592 
L 146.192747 47.480854 
L 147.006418 68.619495 
L 147.820088 68.619495 
L 148.633759 61.573282 
L 149.44743 61.573282 
L 150.2611 59.224544 
L 151.074771 59.224544 
L 151.888441 70.968233 
L 152.702112 73.316971 
L 153.515782 66.270757 
L 154.329453 66.270757 
L 155.143123 61.573282 
L 155.956794 59.224544 
L 156.770464 70.968233 
L 157.584135 63.922019 
L 158.397805 70.968233 
L 159.211476 75.665709 
L 160.025147 75.665709 
L 160.838817 70.968233 
L 161.652488 73.316971 
L 162.466158 82.711922 
L 163.279829 82.711922 
L 164.093499 78.014447 
L 164.90717 82.711922 
L 165.72084 89.758136 
L 166.534511 94.455612 
L 167.348181 94.455612 
L 168.161852 92.106874 
L 168.975522 96.80435 
L 170.602864 96.80435 
L 172.230205 101.501825 
L 173.043875 108.548039 
L 173.857546 110.896777 
L 174.671216 115.594252 
L 175.484887 115.594252 
L 177.112228 124.989204 
L 177.925898 120.291728 
L 178.739569 120.291728 
L 179.553239 122.640466 
L 180.36691 120.291728 
L 181.180581 129.68668 
L 181.994251 132.035417 
L 182.807922 136.732893 
L 183.621592 148.476583 
L 184.435263 150.82532 
L 185.248933 157.871534 
L 186.062604 160.220272 
L 186.876274 160.220272 
L 187.689945 157.871534 
L 188.503615 160.220272 
L 189.317286 169.615223 
L 190.130957 174.312699 
L 190.944627 171.963961 
L 191.758298 171.963961 
L 192.571968 174.312699 
L 193.385639 179.010175 
L 195.82665 179.010175 
L 196.640321 181.358913 
L 197.453991 181.358913 
L 198.267662 188.405126 
L 199.081332 188.405126 
L 200.708674 193.102602 
L 203.149685 193.102602 
L 203.963356 197.800078 
L 204.777026 200.148816 
L 205.590697 200.148816 
L 206.404367 202.497553 
L 207.218038 202.497553 
L 209.659049 209.543767 
L 210.47272 209.543767 
L 211.286391 211.892505 
L 212.100061 216.589981 
L 213.727402 221.287456 
L 216.168414 221.287456 
L 217.795755 225.984932 
L 218.609425 225.984932 
L 219.423096 230.682408 
L 220.236766 230.682408 
L 221.050437 233.031146 
L 223.491449 233.031146 
L 224.305119 235.379883 
L 225.93246 235.379883 
L 226.746131 233.031146 
L 230.814484 233.031146 
L 232.441825 237.728621 
L 238.951189 237.728621 
L 239.764859 240.077359 
L 240.57853 240.077359 
L 241.392201 242.426097 
L 242.205871 242.426097 
L 243.019542 244.774835 
L 251.156247 244.774835 
L 251.969918 247.123573 
L 253.597259 247.123573 
L 254.410929 249.472311 
L 255.2246 249.472311 
L 256.03827 251.821049 
L 256.851941 251.821049 
L 257.665611 254.169786 
L 260.920293 254.169786 
L 261.733964 256.518524 
L 269.056999 256.518524 
L 269.870669 254.169786 
L 273.125352 254.169786 
L 273.939022 256.518524 
L 291.026103 256.518524 
L 291.839774 258.867262 
L 308.926855 258.867262 
L 309.740526 261.216 
L 387.852898 261.216 
L 387.852898 261.216 
" style="fill:none;stroke:#ceff29;stroke-linecap:round;stroke-width:1.5;"/>
   </g>
   <g id="line2d_23">
    <path clip-path="url(#p538103baac)" d="M 63.198352 261.216 
L 73.776069 261.216 
L 74.58974 258.867262 
L 76.217081 258.867262 
L 78.658093 251.821049 
L 79.471763 251.821049 
L 80.285434 249.472311 
L 81.099104 249.472311 
L 81.912775 247.123573 
L 82.726445 247.123573 
L 84.353786 242.426097 
L 85.981127 233.031146 
L 86.794798 233.031146 
L 87.608468 228.33367 
L 88.422139 230.682408 
L 89.23581 228.33367 
L 90.04948 221.287456 
L 90.863151 216.589981 
L 92.490492 211.892505 
L 93.304162 211.892505 
L 94.117833 209.543767 
L 94.931503 197.800078 
L 95.745174 193.102602 
L 96.558844 190.753864 
L 97.372515 190.753864 
L 98.186185 183.70765 
L 98.999856 179.010175 
L 99.813527 181.358913 
L 100.627197 176.661437 
L 101.440868 176.661437 
L 102.254538 167.266485 
L 103.068209 164.917748 
L 103.881879 164.917748 
L 104.69555 157.871534 
L 105.50922 160.220272 
L 106.322891 160.220272 
L 107.136561 157.871534 
L 107.950232 157.871534 
L 108.763903 148.476583 
L 109.577573 132.035417 
L 110.391244 134.384155 
L 111.204914 129.68668 
L 112.018585 129.68668 
L 112.832255 120.291728 
L 113.645926 122.640466 
L 114.459596 115.594252 
L 116.086937 110.896777 
L 116.900608 106.199301 
L 117.714278 96.80435 
L 118.527949 89.758136 
L 120.15529 99.153087 
L 120.968961 101.501825 
L 121.782631 96.80435 
L 124.223643 110.896777 
L 125.037313 103.850563 
L 125.850984 108.548039 
L 127.478325 94.455612 
L 129.105666 89.758136 
L 129.919337 92.106874 
L 130.733007 89.758136 
L 131.546678 89.758136 
L 132.360348 80.363184 
L 133.174019 80.363184 
L 133.987689 82.711922 
L 134.80136 89.758136 
L 135.61503 85.06066 
L 136.428701 82.711922 
L 137.242371 78.014447 
L 138.869712 78.014447 
L 140.497054 63.922019 
L 142.124395 59.224544 
L 142.938065 45.132117 
L 143.751736 47.480854 
L 144.565406 42.783379 
L 145.379077 52.17833 
L 146.192747 54.527068 
L 147.006418 49.829592 
L 147.820088 40.434641 
L 148.633759 35.737165 
L 149.44743 35.737165 
L 150.2611 31.039689 
L 151.074771 42.783379 
L 153.515782 28.690951 
L 154.329453 28.690951 
L 155.143123 35.737165 
L 155.956794 40.434641 
L 156.770464 49.829592 
L 157.584135 49.829592 
L 159.211476 54.527068 
L 160.025147 52.17833 
L 160.838817 63.922019 
L 161.652488 70.968233 
L 162.466158 73.316971 
L 164.093499 73.316971 
L 164.90717 78.014447 
L 165.72084 75.665709 
L 166.534511 80.363184 
L 168.161852 94.455612 
L 169.789193 94.455612 
L 170.602864 99.153087 
L 171.416534 106.199301 
L 172.230205 115.594252 
L 173.857546 120.291728 
L 174.671216 127.337942 
L 177.112228 134.384155 
L 177.925898 141.430369 
L 178.739569 146.127845 
L 184.435263 146.127845 
L 185.248933 148.476583 
L 186.876274 157.871534 
L 187.689945 153.174058 
L 188.503615 153.174058 
L 189.317286 157.871534 
L 190.944627 162.56901 
L 191.758298 162.56901 
L 192.571968 169.615223 
L 193.385639 174.312699 
L 194.199309 176.661437 
L 196.640321 176.661437 
L 197.453991 181.358913 
L 198.267662 183.70765 
L 199.081332 190.753864 
L 199.895003 190.753864 
L 200.708674 195.45134 
L 201.522344 195.45134 
L 202.336015 193.102602 
L 203.963356 193.102602 
L 204.777026 197.800078 
L 205.590697 197.800078 
L 206.404367 200.148816 
L 207.218038 207.195029 
L 208.031708 209.543767 
L 208.845379 209.543767 
L 210.47272 214.241243 
L 212.913732 214.241243 
L 214.541073 218.938718 
L 217.795755 218.938718 
L 218.609425 221.287456 
L 220.236766 221.287456 
L 222.677778 228.33367 
L 223.491449 225.984932 
L 224.305119 225.984932 
L 225.11879 228.33367 
L 226.746131 228.33367 
L 227.559801 235.379883 
L 232.441825 235.379883 
L 233.255495 240.077359 
L 234.069166 242.426097 
L 238.137518 242.426097 
L 238.951189 244.774835 
L 254.410929 244.774835 
L 255.2246 249.472311 
L 256.851941 249.472311 
L 258.479282 254.169786 
L 270.68434 254.169786 
L 271.498011 256.518524 
L 273.939022 256.518524 
L 274.752693 258.867262 
L 311.367867 258.867262 
L 312.181538 261.216 
L 387.852898 261.216 
L 387.852898 261.216 
" style="fill:none;stroke:#ffc400;stroke-linecap:round;stroke-width:1.5;"/>
   </g>
   <g id="line2d_24">
    <path clip-path="url(#p538103baac)" d="M 63.198352 261.216 
L 68.080376 261.216 
L 68.894046 256.518524 
L 71.335058 256.518524 
L 72.148728 254.169786 
L 72.962399 254.169786 
L 73.776069 251.821049 
L 76.217081 251.821049 
L 77.030751 256.518524 
L 77.844422 256.518524 
L 80.285434 242.426097 
L 81.099104 242.426097 
L 81.912775 244.774835 
L 82.726445 244.774835 
L 84.353786 240.077359 
L 85.167457 244.774835 
L 86.794798 244.774835 
L 87.608468 242.426097 
L 88.422139 235.379883 
L 89.23581 235.379883 
L 90.863151 230.682408 
L 92.490492 221.287456 
L 93.304162 221.287456 
L 94.117833 214.241243 
L 94.931503 211.892505 
L 95.745174 207.195029 
L 96.558844 204.846291 
L 97.372515 197.800078 
L 98.186185 193.102602 
L 98.999856 195.45134 
L 99.813527 193.102602 
L 100.627197 195.45134 
L 101.440868 195.45134 
L 102.254538 193.102602 
L 103.068209 188.405126 
L 103.881879 188.405126 
L 104.69555 186.056388 
L 105.50922 181.358913 
L 106.322891 174.312699 
L 107.136561 169.615223 
L 107.950232 171.963961 
L 108.763903 169.615223 
L 109.577573 153.174058 
L 110.391244 155.522796 
L 111.204914 141.430369 
L 112.018585 120.291728 
L 113.645926 110.896777 
L 114.459596 96.80435 
L 115.273267 99.153087 
L 116.086937 92.106874 
L 116.900608 89.758136 
L 117.714278 80.363184 
L 119.34162 70.968233 
L 120.15529 75.665709 
L 120.968961 70.968233 
L 121.782631 68.619495 
L 122.596302 70.968233 
L 123.409972 61.573282 
L 124.223643 66.270757 
L 126.664654 66.270757 
L 127.478325 68.619495 
L 128.291995 61.573282 
L 129.919337 66.270757 
L 130.733007 63.922019 
L 131.546678 68.619495 
L 132.360348 54.527068 
L 133.174019 56.875806 
L 133.987689 63.922019 
L 135.61503 49.829592 
L 136.428701 59.224544 
L 137.242371 61.573282 
L 138.056042 59.224544 
L 138.869712 63.922019 
L 139.683383 66.270757 
L 140.497054 52.17833 
L 141.310724 61.573282 
L 142.124395 56.875806 
L 142.938065 56.875806 
L 143.751736 47.480854 
L 144.565406 40.434641 
L 145.379077 45.132117 
L 146.192747 42.783379 
L 147.006418 33.388427 
L 147.820088 28.690951 
L 148.633759 31.039689 
L 149.44743 31.039689 
L 150.2611 33.388427 
L 151.074771 40.434641 
L 151.888441 40.434641 
L 153.515782 49.829592 
L 154.329453 49.829592 
L 155.143123 54.527068 
L 155.956794 61.573282 
L 156.770464 59.224544 
L 157.584135 63.922019 
L 160.025147 70.968233 
L 160.838817 75.665709 
L 161.652488 70.968233 
L 164.093499 92.106874 
L 164.90717 94.455612 
L 165.72084 94.455612 
L 166.534511 101.501825 
L 168.161852 110.896777 
L 169.789193 110.896777 
L 171.416534 120.291728 
L 173.857546 127.337942 
L 174.671216 127.337942 
L 175.484887 124.989204 
L 176.298557 129.68668 
L 177.112228 127.337942 
L 177.925898 127.337942 
L 178.739569 134.384155 
L 179.553239 139.081631 
L 181.994251 146.127845 
L 184.435263 146.127845 
L 185.248933 143.779107 
L 186.876274 148.476583 
L 187.689945 153.174058 
L 189.317286 153.174058 
L 190.130957 155.522796 
L 190.944627 160.220272 
L 191.758298 169.615223 
L 192.571968 174.312699 
L 194.199309 179.010175 
L 195.01298 176.661437 
L 195.82665 176.661437 
L 196.640321 181.358913 
L 197.453991 183.70765 
L 198.267662 181.358913 
L 199.081332 186.056388 
L 199.895003 193.102602 
L 201.522344 193.102602 
L 202.336015 197.800078 
L 203.963356 197.800078 
L 204.777026 200.148816 
L 205.590697 200.148816 
L 207.218038 204.846291 
L 208.031708 209.543767 
L 210.47272 209.543767 
L 211.286391 214.241243 
L 212.100061 216.589981 
L 212.913732 221.287456 
L 213.727402 221.287456 
L 214.541073 223.636194 
L 215.354743 223.636194 
L 216.168414 225.984932 
L 217.795755 225.984932 
L 218.609425 223.636194 
L 220.236766 223.636194 
L 221.050437 225.984932 
L 221.864108 225.984932 
L 222.677778 228.33367 
L 226.746131 228.33367 
L 227.559801 230.682408 
L 231.628154 230.682408 
L 232.441825 233.031146 
L 234.069166 233.031146 
L 234.882836 235.379883 
L 235.696507 235.379883 
L 236.510177 237.728621 
L 238.137518 237.728621 
L 238.951189 240.077359 
L 247.087894 240.077359 
L 247.901565 242.426097 
L 249.528906 242.426097 
L 250.342576 244.774835 
L 256.03827 244.774835 
L 257.665611 249.472311 
L 262.547635 249.472311 
L 263.361305 251.821049 
L 279.634716 251.821049 
L 280.448386 254.169786 
L 289.398762 254.169786 
L 290.212433 256.518524 
L 313.808879 256.518524 
L 314.622549 258.867262 
L 333.336972 258.867262 
L 334.150642 261.216 
L 387.852898 261.216 
L 387.852898 261.216 
" style="fill:none;stroke:#ff6800;stroke-linecap:round;stroke-width:1.5;"/>
   </g>
   <g id="line2d_25">
    <path clip-path="url(#p538103baac)" d="M 63.198352 261.216 
L 67.266705 261.216 
L 68.894046 256.518524 
L 71.335058 256.518524 
L 72.148728 254.169786 
L 80.285434 254.169786 
L 81.099104 249.472311 
L 81.912775 249.472311 
L 82.726445 247.123573 
L 85.167457 247.123573 
L 85.981127 242.426097 
L 86.794798 235.379883 
L 87.608468 230.682408 
L 88.422139 230.682408 
L 89.23581 225.984932 
L 90.04948 223.636194 
L 90.863151 223.636194 
L 92.490492 214.241243 
L 93.304162 211.892505 
L 94.117833 214.241243 
L 96.558844 214.241243 
L 97.372515 216.589981 
L 98.999856 207.195029 
L 99.813527 200.148816 
L 100.627197 190.753864 
L 102.254538 186.056388 
L 103.068209 179.010175 
L 103.881879 176.661437 
L 104.69555 171.963961 
L 106.322891 167.266485 
L 107.136561 157.871534 
L 107.950232 150.82532 
L 108.763903 153.174058 
L 109.577573 150.82532 
L 110.391244 153.174058 
L 111.204914 157.871534 
L 112.018585 153.174058 
L 112.832255 153.174058 
L 113.645926 143.779107 
L 115.273267 153.174058 
L 116.086937 153.174058 
L 119.34162 143.779107 
L 120.15529 134.384155 
L 120.968961 127.337942 
L 121.782631 124.989204 
L 122.596302 124.989204 
L 123.409972 117.94299 
L 124.223643 113.245515 
L 125.037313 103.850563 
L 126.664654 80.363184 
L 127.478325 78.014447 
L 128.291995 82.711922 
L 129.105666 70.968233 
L 129.919337 68.619495 
L 131.546678 68.619495 
L 132.360348 70.968233 
L 133.174019 68.619495 
L 134.80136 59.224544 
L 135.61503 52.17833 
L 136.428701 49.829592 
L 137.242371 56.875806 
L 138.056042 49.829592 
L 138.869712 38.085903 
L 139.683383 33.388427 
L 140.497054 23.993476 
L 142.124395 19.296 
L 142.938065 21.644738 
L 143.751736 21.644738 
L 144.565406 31.039689 
L 145.379077 45.132117 
L 146.192747 45.132117 
L 147.006418 49.829592 
L 147.820088 52.17833 
L 148.633759 59.224544 
L 149.44743 59.224544 
L 150.2611 61.573282 
L 151.074771 56.875806 
L 151.888441 63.922019 
L 154.329453 49.829592 
L 155.956794 49.829592 
L 157.584135 45.132117 
L 158.397805 49.829592 
L 159.211476 52.17833 
L 160.025147 59.224544 
L 160.838817 54.527068 
L 161.652488 61.573282 
L 162.466158 61.573282 
L 164.093499 66.270757 
L 164.90717 66.270757 
L 165.72084 73.316971 
L 166.534511 73.316971 
L 167.348181 80.363184 
L 168.161852 85.06066 
L 168.975522 85.06066 
L 169.789193 94.455612 
L 170.602864 96.80435 
L 171.416534 101.501825 
L 172.230205 96.80435 
L 173.043875 94.455612 
L 173.857546 106.199301 
L 174.671216 113.245515 
L 175.484887 106.199301 
L 176.298557 106.199301 
L 177.112228 108.548039 
L 177.925898 115.594252 
L 179.553239 115.594252 
L 180.36691 117.94299 
L 181.180581 134.384155 
L 181.994251 134.384155 
L 182.807922 136.732893 
L 183.621592 136.732893 
L 184.435263 134.384155 
L 185.248933 136.732893 
L 186.062604 136.732893 
L 186.876274 143.779107 
L 189.317286 143.779107 
L 190.130957 148.476583 
L 190.944627 150.82532 
L 191.758298 160.220272 
L 193.385639 164.917748 
L 194.199309 162.56901 
L 195.01298 167.266485 
L 195.82665 164.917748 
L 196.640321 167.266485 
L 198.267662 176.661437 
L 199.081332 179.010175 
L 199.895003 183.70765 
L 200.708674 183.70765 
L 201.522344 186.056388 
L 204.777026 186.056388 
L 205.590697 188.405126 
L 206.404367 188.405126 
L 207.218038 190.753864 
L 208.031708 197.800078 
L 208.845379 197.800078 
L 209.659049 204.846291 
L 210.47272 204.846291 
L 211.286391 207.195029 
L 214.541073 207.195029 
L 215.354743 218.938718 
L 216.168414 218.938718 
L 216.982084 221.287456 
L 220.236766 221.287456 
L 221.050437 223.636194 
L 223.491449 223.636194 
L 224.305119 225.984932 
L 225.11879 230.682408 
L 227.559801 230.682408 
L 229.187142 235.379883 
L 234.882836 235.379883 
L 236.510177 240.077359 
L 238.951189 240.077359 
L 239.764859 242.426097 
L 241.392201 242.426097 
L 242.205871 244.774835 
L 245.460553 244.774835 
L 246.274224 247.123573 
L 247.087894 247.123573 
L 247.901565 249.472311 
L 252.783588 249.472311 
L 254.410929 254.169786 
L 255.2246 254.169786 
L 256.03827 256.518524 
L 282.889398 256.518524 
L 283.703069 258.867262 
L 293.467115 258.867262 
L 294.280786 261.216 
L 387.852898 261.216 
L 387.852898 261.216 
" style="fill:none;stroke:#f10800;stroke-linecap:round;stroke-width:1.5;"/>
   </g>
   <g id="patch_3">
    <path d="M 46.965625 273.312 
L 46.965625 7.2 
" style="fill:none;stroke:#cccccc;stroke-linecap:square;stroke-linejoin:miter;stroke-width:0.8;"/>
   </g>
   <g id="patch_4">
    <path d="M 404.085625 273.312 
L 404.085625 7.2 
" style="fill:none;stroke:#cccccc;stroke-linecap:square;stroke-linejoin:miter;stroke-width:0.8;"/>
   </g>
   <g id="patch_5">
    <path d="M 46.965625 273.312 
L 404.085625 273.312 
" style="fill:none;stroke:#cccccc;stroke-linecap:square;stroke-linejoin:miter;stroke-width:0.8;"/>
   </g>
   <g id="patch_6">
    <path d="M 46.965625 7.2 
L 404.085625 7.2 
" style="fill:none;stroke:#cccccc;stroke-linecap:square;stroke-linejoin:miter;stroke-width:0.8;"/>
   </g>
  </g>
 </g>
 <defs>
  <clipPath id="p538103baac">
   <rect height="266.112" width="357.12" x="46.965625" y="7.2"/>
  </clipPath>
 </defs>
</svg>
