<?xml version="1.0" encoding="utf-8" standalone="no"?>
<!DOCTYPE svg PUBLIC "-//W3C//DTD SVG 1.1//EN"
  "http://www.w3.org/Graphics/SVG/1.1/DTD/svg11.dtd">
<!-- Created with matplotlib (https://matplotlib.org/) -->
<svg height="325.986375pt" version="1.1" viewBox="0 0 430.373125 325.986375" width="430.373125pt" xmlns="http://www.w3.org/2000/svg" xmlns:xlink="http://www.w3.org/1999/xlink">
 <defs>
  <style type="text/css">
*{stroke-linecap:butt;stroke-linejoin:round;white-space:pre;}
  </style>
 </defs>
 <g id="figure_1">
  <g id="patch_1">
   <path d="M 0 325.986375 
L 430.373125 325.986375 
L 430.373125 0 
L 0 0 
z
" style="fill:#ffffff;"/>
  </g>
  <g id="axes_1">
   <g id="patch_2">
    <path d="M 66.053125 288.430125 
L 423.173125 288.430125 
L 423.173125 22.318125 
L 66.053125 22.318125 
z
" style="fill:#ffffff;"/>
   </g>
   <g id="matplotlib.axis_1">
    <g id="xtick_1">
     <g id="line2d_1">
      <path clip-path="url(#p8431bcb404)" d="M 82.285852 288.430125 
L 82.285852 22.318125 
" style="fill:none;stroke:#cccccc;stroke-linecap:round;stroke-width:0.8;"/>
     </g>
     <g id="text_1">
      <!-- 0 -->
      <defs>
       <path d="M 31.78125 66.40625 
Q 24.171875 66.40625 20.328125 58.90625 
Q 16.5 51.421875 16.5 36.375 
Q 16.5 21.390625 20.328125 13.890625 
Q 24.171875 6.390625 31.78125 6.390625 
Q 39.453125 6.390625 43.28125 13.890625 
Q 47.125 21.390625 47.125 36.375 
Q 47.125 51.421875 43.28125 58.90625 
Q 39.453125 66.40625 31.78125 66.40625 
z
M 31.78125 74.21875 
Q 44.046875 74.21875 50.515625 64.515625 
Q 56.984375 54.828125 56.984375 36.375 
Q 56.984375 17.96875 50.515625 8.265625 
Q 44.046875 -1.421875 31.78125 -1.421875 
Q 19.53125 -1.421875 13.0625 8.265625 
Q 6.59375 17.96875 6.59375 36.375 
Q 6.59375 54.828125 13.0625 64.515625 
Q 19.53125 74.21875 31.78125 74.21875 
z
" id="DejaVuSans-48"/>
      </defs>
      <g style="fill:#262626;" transform="translate(79.104602 303.028562)scale(0.1 -0.1)">
       <use xlink:href="#DejaVuSans-48"/>
      </g>
     </g>
    </g>
    <g id="xtick_2">
     <g id="line2d_2">
      <path clip-path="url(#p8431bcb404)" d="M 136.394943 288.430125 
L 136.394943 22.318125 
" style="fill:none;stroke:#cccccc;stroke-linecap:round;stroke-width:0.8;"/>
     </g>
     <g id="text_2">
      <!-- 10 -->
      <defs>
       <path d="M 12.40625 8.296875 
L 28.515625 8.296875 
L 28.515625 63.921875 
L 10.984375 60.40625 
L 10.984375 69.390625 
L 28.421875 72.90625 
L 38.28125 72.90625 
L 38.28125 8.296875 
L 54.390625 8.296875 
L 54.390625 0 
L 12.40625 0 
z
" id="DejaVuSans-49"/>
      </defs>
      <g style="fill:#262626;" transform="translate(130.032443 303.028562)scale(0.1 -0.1)">
       <use xlink:href="#DejaVuSans-49"/>
       <use x="63.623047" xlink:href="#DejaVuSans-48"/>
      </g>
     </g>
    </g>
    <g id="xtick_3">
     <g id="line2d_3">
      <path clip-path="url(#p8431bcb404)" d="M 190.504034 288.430125 
L 190.504034 22.318125 
" style="fill:none;stroke:#cccccc;stroke-linecap:round;stroke-width:0.8;"/>
     </g>
     <g id="text_3">
      <!-- 20 -->
      <defs>
       <path d="M 19.1875 8.296875 
L 53.609375 8.296875 
L 53.609375 0 
L 7.328125 0 
L 7.328125 8.296875 
Q 12.9375 14.109375 22.625 23.890625 
Q 32.328125 33.6875 34.8125 36.53125 
Q 39.546875 41.84375 41.421875 45.53125 
Q 43.3125 49.21875 43.3125 52.78125 
Q 43.3125 58.59375 39.234375 62.25 
Q 35.15625 65.921875 28.609375 65.921875 
Q 23.96875 65.921875 18.8125 64.3125 
Q 13.671875 62.703125 7.8125 59.421875 
L 7.8125 69.390625 
Q 13.765625 71.78125 18.9375 73 
Q 24.125 74.21875 28.421875 74.21875 
Q 39.75 74.21875 46.484375 68.546875 
Q 53.21875 62.890625 53.21875 53.421875 
Q 53.21875 48.921875 51.53125 44.890625 
Q 49.859375 40.875 45.40625 35.40625 
Q 44.1875 33.984375 37.640625 27.21875 
Q 31.109375 20.453125 19.1875 8.296875 
z
" id="DejaVuSans-50"/>
      </defs>
      <g style="fill:#262626;" transform="translate(184.141534 303.028562)scale(0.1 -0.1)">
       <use xlink:href="#DejaVuSans-50"/>
       <use x="63.623047" xlink:href="#DejaVuSans-48"/>
      </g>
     </g>
    </g>
    <g id="xtick_4">
     <g id="line2d_4">
      <path clip-path="url(#p8431bcb404)" d="M 244.613125 288.430125 
L 244.613125 22.318125 
" style="fill:none;stroke:#cccccc;stroke-linecap:round;stroke-width:0.8;"/>
     </g>
     <g id="text_4">
      <!-- 30 -->
      <defs>
       <path d="M 40.578125 39.3125 
Q 47.65625 37.796875 51.625 33 
Q 55.609375 28.21875 55.609375 21.1875 
Q 55.609375 10.40625 48.1875 4.484375 
Q 40.765625 -1.421875 27.09375 -1.421875 
Q 22.515625 -1.421875 17.65625 -0.515625 
Q 12.796875 0.390625 7.625 2.203125 
L 7.625 11.71875 
Q 11.71875 9.328125 16.59375 8.109375 
Q 21.484375 6.890625 26.8125 6.890625 
Q 36.078125 6.890625 40.9375 10.546875 
Q 45.796875 14.203125 45.796875 21.1875 
Q 45.796875 27.640625 41.28125 31.265625 
Q 36.765625 34.90625 28.71875 34.90625 
L 20.21875 34.90625 
L 20.21875 43.015625 
L 29.109375 43.015625 
Q 36.375 43.015625 40.234375 45.921875 
Q 44.09375 48.828125 44.09375 54.296875 
Q 44.09375 59.90625 40.109375 62.90625 
Q 36.140625 65.921875 28.71875 65.921875 
Q 24.65625 65.921875 20.015625 65.03125 
Q 15.375 64.15625 9.8125 62.3125 
L 9.8125 71.09375 
Q 15.4375 72.65625 20.34375 73.4375 
Q 25.25 74.21875 29.59375 74.21875 
Q 40.828125 74.21875 47.359375 69.109375 
Q 53.90625 64.015625 53.90625 55.328125 
Q 53.90625 49.265625 50.4375 45.09375 
Q 46.96875 40.921875 40.578125 39.3125 
z
" id="DejaVuSans-51"/>
      </defs>
      <g style="fill:#262626;" transform="translate(238.250625 303.028562)scale(0.1 -0.1)">
       <use xlink:href="#DejaVuSans-51"/>
       <use x="63.623047" xlink:href="#DejaVuSans-48"/>
      </g>
     </g>
    </g>
    <g id="xtick_5">
     <g id="line2d_5">
      <path clip-path="url(#p8431bcb404)" d="M 298.722216 288.430125 
L 298.722216 22.318125 
" style="fill:none;stroke:#cccccc;stroke-linecap:round;stroke-width:0.8;"/>
     </g>
     <g id="text_5">
      <!-- 40 -->
      <defs>
       <path d="M 37.796875 64.3125 
L 12.890625 25.390625 
L 37.796875 25.390625 
z
M 35.203125 72.90625 
L 47.609375 72.90625 
L 47.609375 25.390625 
L 58.015625 25.390625 
L 58.015625 17.1875 
L 47.609375 17.1875 
L 47.609375 0 
L 37.796875 0 
L 37.796875 17.1875 
L 4.890625 17.1875 
L 4.890625 26.703125 
z
" id="DejaVuSans-52"/>
      </defs>
      <g style="fill:#262626;" transform="translate(292.359716 303.028562)scale(0.1 -0.1)">
       <use xlink:href="#DejaVuSans-52"/>
       <use x="63.623047" xlink:href="#DejaVuSans-48"/>
      </g>
     </g>
    </g>
    <g id="xtick_6">
     <g id="line2d_6">
      <path clip-path="url(#p8431bcb404)" d="M 352.831307 288.430125 
L 352.831307 22.318125 
" style="fill:none;stroke:#cccccc;stroke-linecap:round;stroke-width:0.8;"/>
     </g>
     <g id="text_6">
      <!-- 50 -->
      <defs>
       <path d="M 10.796875 72.90625 
L 49.515625 72.90625 
L 49.515625 64.59375 
L 19.828125 64.59375 
L 19.828125 46.734375 
Q 21.96875 47.46875 24.109375 47.828125 
Q 26.265625 48.1875 28.421875 48.1875 
Q 40.625 48.1875 47.75 41.5 
Q 54.890625 34.8125 54.890625 23.390625 
Q 54.890625 11.625 47.5625 5.09375 
Q 40.234375 -1.421875 26.90625 -1.421875 
Q 22.3125 -1.421875 17.546875 -0.640625 
Q 12.796875 0.140625 7.71875 1.703125 
L 7.71875 11.625 
Q 12.109375 9.234375 16.796875 8.0625 
Q 21.484375 6.890625 26.703125 6.890625 
Q 35.15625 6.890625 40.078125 11.328125 
Q 45.015625 15.765625 45.015625 23.390625 
Q 45.015625 31 40.078125 35.4375 
Q 35.15625 39.890625 26.703125 39.890625 
Q 22.75 39.890625 18.8125 39.015625 
Q 14.890625 38.140625 10.796875 36.28125 
z
" id="DejaVuSans-53"/>
      </defs>
      <g style="fill:#262626;" transform="translate(346.468807 303.028562)scale(0.1 -0.1)">
       <use xlink:href="#DejaVuSans-53"/>
       <use x="63.623047" xlink:href="#DejaVuSans-48"/>
      </g>
     </g>
    </g>
    <g id="xtick_7">
     <g id="line2d_7">
      <path clip-path="url(#p8431bcb404)" d="M 406.940398 288.430125 
L 406.940398 22.318125 
" style="fill:none;stroke:#cccccc;stroke-linecap:round;stroke-width:0.8;"/>
     </g>
     <g id="text_7">
      <!-- 60 -->
      <defs>
       <path d="M 33.015625 40.375 
Q 26.375 40.375 22.484375 35.828125 
Q 18.609375 31.296875 18.609375 23.390625 
Q 18.609375 15.53125 22.484375 10.953125 
Q 26.375 6.390625 33.015625 6.390625 
Q 39.65625 6.390625 43.53125 10.953125 
Q 47.40625 15.53125 47.40625 23.390625 
Q 47.40625 31.296875 43.53125 35.828125 
Q 39.65625 40.375 33.015625 40.375 
z
M 52.59375 71.296875 
L 52.59375 62.3125 
Q 48.875 64.0625 45.09375 64.984375 
Q 41.3125 65.921875 37.59375 65.921875 
Q 27.828125 65.921875 22.671875 59.328125 
Q 17.53125 52.734375 16.796875 39.40625 
Q 19.671875 43.65625 24.015625 45.921875 
Q 28.375 48.1875 33.59375 48.1875 
Q 44.578125 48.1875 50.953125 41.515625 
Q 57.328125 34.859375 57.328125 23.390625 
Q 57.328125 12.15625 50.6875 5.359375 
Q 44.046875 -1.421875 33.015625 -1.421875 
Q 20.359375 -1.421875 13.671875 8.265625 
Q 6.984375 17.96875 6.984375 36.375 
Q 6.984375 53.65625 15.1875 63.9375 
Q 23.390625 74.21875 37.203125 74.21875 
Q 40.921875 74.21875 44.703125 73.484375 
Q 48.484375 72.75 52.59375 71.296875 
z
" id="DejaVuSans-54"/>
      </defs>
      <g style="fill:#262626;" transform="translate(400.577898 303.028562)scale(0.1 -0.1)">
       <use xlink:href="#DejaVuSans-54"/>
       <use x="63.623047" xlink:href="#DejaVuSans-48"/>
      </g>
     </g>
    </g>
    <g id="text_8">
     <!-- time (days) -->
     <defs>
      <path d="M 18.3125 70.21875 
L 18.3125 54.6875 
L 36.8125 54.6875 
L 36.8125 47.703125 
L 18.3125 47.703125 
L 18.3125 18.015625 
Q 18.3125 11.328125 20.140625 9.421875 
Q 21.96875 7.515625 27.59375 7.515625 
L 36.8125 7.515625 
L 36.8125 0 
L 27.59375 0 
Q 17.1875 0 13.234375 3.875 
Q 9.28125 7.765625 9.28125 18.015625 
L 9.28125 47.703125 
L 2.6875 47.703125 
L 2.6875 54.6875 
L 9.28125 54.6875 
L 9.28125 70.21875 
z
" id="DejaVuSans-116"/>
      <path d="M 9.421875 54.6875 
L 18.40625 54.6875 
L 18.40625 0 
L 9.421875 0 
z
M 9.421875 75.984375 
L 18.40625 75.984375 
L 18.40625 64.59375 
L 9.421875 64.59375 
z
" id="DejaVuSans-105"/>
      <path d="M 52 44.1875 
Q 55.375 50.25 60.0625 53.125 
Q 64.75 56 71.09375 56 
Q 79.640625 56 84.28125 50.015625 
Q 88.921875 44.046875 88.921875 33.015625 
L 88.921875 0 
L 79.890625 0 
L 79.890625 32.71875 
Q 79.890625 40.578125 77.09375 44.375 
Q 74.3125 48.1875 68.609375 48.1875 
Q 61.625 48.1875 57.5625 43.546875 
Q 53.515625 38.921875 53.515625 30.90625 
L 53.515625 0 
L 44.484375 0 
L 44.484375 32.71875 
Q 44.484375 40.625 41.703125 44.40625 
Q 38.921875 48.1875 33.109375 48.1875 
Q 26.21875 48.1875 22.15625 43.53125 
Q 18.109375 38.875 18.109375 30.90625 
L 18.109375 0 
L 9.078125 0 
L 9.078125 54.6875 
L 18.109375 54.6875 
L 18.109375 46.1875 
Q 21.1875 51.21875 25.484375 53.609375 
Q 29.78125 56 35.6875 56 
Q 41.65625 56 45.828125 52.96875 
Q 50 49.953125 52 44.1875 
z
" id="DejaVuSans-109"/>
      <path d="M 56.203125 29.59375 
L 56.203125 25.203125 
L 14.890625 25.203125 
Q 15.484375 15.921875 20.484375 11.0625 
Q 25.484375 6.203125 34.421875 6.203125 
Q 39.59375 6.203125 44.453125 7.46875 
Q 49.3125 8.734375 54.109375 11.28125 
L 54.109375 2.78125 
Q 49.265625 0.734375 44.1875 -0.34375 
Q 39.109375 -1.421875 33.890625 -1.421875 
Q 20.796875 -1.421875 13.15625 6.1875 
Q 5.515625 13.8125 5.515625 26.8125 
Q 5.515625 40.234375 12.765625 48.109375 
Q 20.015625 56 32.328125 56 
Q 43.359375 56 49.78125 48.890625 
Q 56.203125 41.796875 56.203125 29.59375 
z
M 47.21875 32.234375 
Q 47.125 39.59375 43.09375 43.984375 
Q 39.0625 48.390625 32.421875 48.390625 
Q 24.90625 48.390625 20.390625 44.140625 
Q 15.875 39.890625 15.1875 32.171875 
z
" id="DejaVuSans-101"/>
      <path id="DejaVuSans-32"/>
      <path d="M 31 75.875 
Q 24.46875 64.65625 21.28125 53.65625 
Q 18.109375 42.671875 18.109375 31.390625 
Q 18.109375 20.125 21.3125 9.0625 
Q 24.515625 -2 31 -13.1875 
L 23.1875 -13.1875 
Q 15.875 -1.703125 12.234375 9.375 
Q 8.59375 20.453125 8.59375 31.390625 
Q 8.59375 42.28125 12.203125 53.3125 
Q 15.828125 64.359375 23.1875 75.875 
z
" id="DejaVuSans-40"/>
      <path d="M 45.40625 46.390625 
L 45.40625 75.984375 
L 54.390625 75.984375 
L 54.390625 0 
L 45.40625 0 
L 45.40625 8.203125 
Q 42.578125 3.328125 38.25 0.953125 
Q 33.9375 -1.421875 27.875 -1.421875 
Q 17.96875 -1.421875 11.734375 6.484375 
Q 5.515625 14.40625 5.515625 27.296875 
Q 5.515625 40.1875 11.734375 48.09375 
Q 17.96875 56 27.875 56 
Q 33.9375 56 38.25 53.625 
Q 42.578125 51.265625 45.40625 46.390625 
z
M 14.796875 27.296875 
Q 14.796875 17.390625 18.875 11.75 
Q 22.953125 6.109375 30.078125 6.109375 
Q 37.203125 6.109375 41.296875 11.75 
Q 45.40625 17.390625 45.40625 27.296875 
Q 45.40625 37.203125 41.296875 42.84375 
Q 37.203125 48.484375 30.078125 48.484375 
Q 22.953125 48.484375 18.875 42.84375 
Q 14.796875 37.203125 14.796875 27.296875 
z
" id="DejaVuSans-100"/>
      <path d="M 34.28125 27.484375 
Q 23.390625 27.484375 19.1875 25 
Q 14.984375 22.515625 14.984375 16.5 
Q 14.984375 11.71875 18.140625 8.90625 
Q 21.296875 6.109375 26.703125 6.109375 
Q 34.1875 6.109375 38.703125 11.40625 
Q 43.21875 16.703125 43.21875 25.484375 
L 43.21875 27.484375 
z
M 52.203125 31.203125 
L 52.203125 0 
L 43.21875 0 
L 43.21875 8.296875 
Q 40.140625 3.328125 35.546875 0.953125 
Q 30.953125 -1.421875 24.3125 -1.421875 
Q 15.921875 -1.421875 10.953125 3.296875 
Q 6 8.015625 6 15.921875 
Q 6 25.140625 12.171875 29.828125 
Q 18.359375 34.515625 30.609375 34.515625 
L 43.21875 34.515625 
L 43.21875 35.40625 
Q 43.21875 41.609375 39.140625 45 
Q 35.0625 48.390625 27.6875 48.390625 
Q 23 48.390625 18.546875 47.265625 
Q 14.109375 46.140625 10.015625 43.890625 
L 10.015625 52.203125 
Q 14.9375 54.109375 19.578125 55.046875 
Q 24.21875 56 28.609375 56 
Q 40.484375 56 46.34375 49.84375 
Q 52.203125 43.703125 52.203125 31.203125 
z
" id="DejaVuSans-97"/>
      <path d="M 32.171875 -5.078125 
Q 28.375 -14.84375 24.75 -17.8125 
Q 21.140625 -20.796875 15.09375 -20.796875 
L 7.90625 -20.796875 
L 7.90625 -13.28125 
L 13.1875 -13.28125 
Q 16.890625 -13.28125 18.9375 -11.515625 
Q 21 -9.765625 23.484375 -3.21875 
L 25.09375 0.875 
L 2.984375 54.6875 
L 12.5 54.6875 
L 29.59375 11.921875 
L 46.6875 54.6875 
L 56.203125 54.6875 
z
" id="DejaVuSans-121"/>
      <path d="M 44.28125 53.078125 
L 44.28125 44.578125 
Q 40.484375 46.53125 36.375 47.5 
Q 32.28125 48.484375 27.875 48.484375 
Q 21.1875 48.484375 17.84375 46.4375 
Q 14.5 44.390625 14.5 40.28125 
Q 14.5 37.15625 16.890625 35.375 
Q 19.28125 33.59375 26.515625 31.984375 
L 29.59375 31.296875 
Q 39.15625 29.25 43.1875 25.515625 
Q 47.21875 21.78125 47.21875 15.09375 
Q 47.21875 7.46875 41.1875 3.015625 
Q 35.15625 -1.421875 24.609375 -1.421875 
Q 20.21875 -1.421875 15.453125 -0.5625 
Q 10.6875 0.296875 5.421875 2 
L 5.421875 11.28125 
Q 10.40625 8.6875 15.234375 7.390625 
Q 20.0625 6.109375 24.8125 6.109375 
Q 31.15625 6.109375 34.5625 8.28125 
Q 37.984375 10.453125 37.984375 14.40625 
Q 37.984375 18.0625 35.515625 20.015625 
Q 33.0625 21.96875 24.703125 23.78125 
L 21.578125 24.515625 
Q 13.234375 26.265625 9.515625 29.90625 
Q 5.8125 33.546875 5.8125 39.890625 
Q 5.8125 47.609375 11.28125 51.796875 
Q 16.75 56 26.8125 56 
Q 31.78125 56 36.171875 55.265625 
Q 40.578125 54.546875 44.28125 53.078125 
z
" id="DejaVuSans-115"/>
      <path d="M 8.015625 75.875 
L 15.828125 75.875 
Q 23.140625 64.359375 26.78125 53.3125 
Q 30.421875 42.28125 30.421875 31.390625 
Q 30.421875 20.453125 26.78125 9.375 
Q 23.140625 -1.703125 15.828125 -13.1875 
L 8.015625 -13.1875 
Q 14.5 -2 17.703125 9.0625 
Q 20.90625 20.125 20.90625 31.390625 
Q 20.90625 42.671875 17.703125 53.65625 
Q 14.5 64.65625 8.015625 75.875 
z
" id="DejaVuSans-41"/>
     </defs>
     <g style="fill:#262626;" transform="translate(216.024063 316.706687)scale(0.1 -0.1)">
      <use xlink:href="#DejaVuSans-116"/>
      <use x="39.208984" xlink:href="#DejaVuSans-105"/>
      <use x="66.992188" xlink:href="#DejaVuSans-109"/>
      <use x="164.404297" xlink:href="#DejaVuSans-101"/>
      <use x="225.927734" xlink:href="#DejaVuSans-32"/>
      <use x="257.714844" xlink:href="#DejaVuSans-40"/>
      <use x="296.728516" xlink:href="#DejaVuSans-100"/>
      <use x="360.205078" xlink:href="#DejaVuSans-97"/>
      <use x="421.484375" xlink:href="#DejaVuSans-121"/>
      <use x="480.664062" xlink:href="#DejaVuSans-115"/>
      <use x="532.763672" xlink:href="#DejaVuSans-41"/>
     </g>
    </g>
   </g>
   <g id="matplotlib.axis_2">
    <g id="ytick_1">
     <g id="line2d_8">
      <path clip-path="url(#p8431bcb404)" d="M 66.053125 276.334125 
L 423.173125 276.334125 
" style="fill:none;stroke:#cccccc;stroke-linecap:round;stroke-width:0.8;"/>
     </g>
     <g id="text_9">
      <!-- 0 -->
      <g style="fill:#262626;" transform="translate(52.690625 280.133344)scale(0.1 -0.1)">
       <use xlink:href="#DejaVuSans-48"/>
      </g>
     </g>
    </g>
    <g id="ytick_2">
     <g id="line2d_9">
      <path clip-path="url(#p8431bcb404)" d="M 66.053125 239.828258 
L 423.173125 239.828258 
" style="fill:none;stroke:#cccccc;stroke-linecap:round;stroke-width:0.8;"/>
     </g>
     <g id="text_10">
      <!-- 25000 -->
      <g style="fill:#262626;" transform="translate(27.240625 243.627477)scale(0.1 -0.1)">
       <use xlink:href="#DejaVuSans-50"/>
       <use x="63.623047" xlink:href="#DejaVuSans-53"/>
       <use x="127.246094" xlink:href="#DejaVuSans-48"/>
       <use x="190.869141" xlink:href="#DejaVuSans-48"/>
       <use x="254.492188" xlink:href="#DejaVuSans-48"/>
      </g>
     </g>
    </g>
    <g id="ytick_3">
     <g id="line2d_10">
      <path clip-path="url(#p8431bcb404)" d="M 66.053125 203.322391 
L 423.173125 203.322391 
" style="fill:none;stroke:#cccccc;stroke-linecap:round;stroke-width:0.8;"/>
     </g>
     <g id="text_11">
      <!-- 50000 -->
      <g style="fill:#262626;" transform="translate(27.240625 207.12161)scale(0.1 -0.1)">
       <use xlink:href="#DejaVuSans-53"/>
       <use x="63.623047" xlink:href="#DejaVuSans-48"/>
       <use x="127.246094" xlink:href="#DejaVuSans-48"/>
       <use x="190.869141" xlink:href="#DejaVuSans-48"/>
       <use x="254.492188" xlink:href="#DejaVuSans-48"/>
      </g>
     </g>
    </g>
    <g id="ytick_4">
     <g id="line2d_11">
      <path clip-path="url(#p8431bcb404)" d="M 66.053125 166.816524 
L 423.173125 166.816524 
" style="fill:none;stroke:#cccccc;stroke-linecap:round;stroke-width:0.8;"/>
     </g>
     <g id="text_12">
      <!-- 75000 -->
      <defs>
       <path d="M 8.203125 72.90625 
L 55.078125 72.90625 
L 55.078125 68.703125 
L 28.609375 0 
L 18.3125 0 
L 43.21875 64.59375 
L 8.203125 64.59375 
z
" id="DejaVuSans-55"/>
      </defs>
      <g style="fill:#262626;" transform="translate(27.240625 170.615743)scale(0.1 -0.1)">
       <use xlink:href="#DejaVuSans-55"/>
       <use x="63.623047" xlink:href="#DejaVuSans-53"/>
       <use x="127.246094" xlink:href="#DejaVuSans-48"/>
       <use x="190.869141" xlink:href="#DejaVuSans-48"/>
       <use x="254.492188" xlink:href="#DejaVuSans-48"/>
      </g>
     </g>
    </g>
    <g id="ytick_5">
     <g id="line2d_12">
      <path clip-path="url(#p8431bcb404)" d="M 66.053125 130.310657 
L 423.173125 130.310657 
" style="fill:none;stroke:#cccccc;stroke-linecap:round;stroke-width:0.8;"/>
     </g>
     <g id="text_13">
      <!-- 100000 -->
      <g style="fill:#262626;" transform="translate(20.878125 134.109876)scale(0.1 -0.1)">
       <use xlink:href="#DejaVuSans-49"/>
       <use x="63.623047" xlink:href="#DejaVuSans-48"/>
       <use x="127.246094" xlink:href="#DejaVuSans-48"/>
       <use x="190.869141" xlink:href="#DejaVuSans-48"/>
       <use x="254.492188" xlink:href="#DejaVuSans-48"/>
       <use x="318.115234" xlink:href="#DejaVuSans-48"/>
      </g>
     </g>
    </g>
    <g id="ytick_6">
     <g id="line2d_13">
      <path clip-path="url(#p8431bcb404)" d="M 66.053125 93.80479 
L 423.173125 93.80479 
" style="fill:none;stroke:#cccccc;stroke-linecap:round;stroke-width:0.8;"/>
     </g>
     <g id="text_14">
      <!-- 125000 -->
      <g style="fill:#262626;" transform="translate(20.878125 97.604009)scale(0.1 -0.1)">
       <use xlink:href="#DejaVuSans-49"/>
       <use x="63.623047" xlink:href="#DejaVuSans-50"/>
       <use x="127.246094" xlink:href="#DejaVuSans-53"/>
       <use x="190.869141" xlink:href="#DejaVuSans-48"/>
       <use x="254.492188" xlink:href="#DejaVuSans-48"/>
       <use x="318.115234" xlink:href="#DejaVuSans-48"/>
      </g>
     </g>
    </g>
    <g id="ytick_7">
     <g id="line2d_14">
      <path clip-path="url(#p8431bcb404)" d="M 66.053125 57.298923 
L 423.173125 57.298923 
" style="fill:none;stroke:#cccccc;stroke-linecap:round;stroke-width:0.8;"/>
     </g>
     <g id="text_15">
      <!-- 150000 -->
      <g style="fill:#262626;" transform="translate(20.878125 61.098142)scale(0.1 -0.1)">
       <use xlink:href="#DejaVuSans-49"/>
       <use x="63.623047" xlink:href="#DejaVuSans-53"/>
       <use x="127.246094" xlink:href="#DejaVuSans-48"/>
       <use x="190.869141" xlink:href="#DejaVuSans-48"/>
       <use x="254.492188" xlink:href="#DejaVuSans-48"/>
       <use x="318.115234" xlink:href="#DejaVuSans-48"/>
      </g>
     </g>
    </g>
    <g id="text_16">
     <!-- cells number -->
     <defs>
      <path d="M 48.78125 52.59375 
L 48.78125 44.1875 
Q 44.96875 46.296875 41.140625 47.34375 
Q 37.3125 48.390625 33.40625 48.390625 
Q 24.65625 48.390625 19.8125 42.84375 
Q 14.984375 37.3125 14.984375 27.296875 
Q 14.984375 17.28125 19.8125 11.734375 
Q 24.65625 6.203125 33.40625 6.203125 
Q 37.3125 6.203125 41.140625 7.25 
Q 44.96875 8.296875 48.78125 10.40625 
L 48.78125 2.09375 
Q 45.015625 0.34375 40.984375 -0.53125 
Q 36.96875 -1.421875 32.421875 -1.421875 
Q 20.0625 -1.421875 12.78125 6.34375 
Q 5.515625 14.109375 5.515625 27.296875 
Q 5.515625 40.671875 12.859375 48.328125 
Q 20.21875 56 33.015625 56 
Q 37.15625 56 41.109375 55.140625 
Q 45.0625 54.296875 48.78125 52.59375 
z
" id="DejaVuSans-99"/>
      <path d="M 9.421875 75.984375 
L 18.40625 75.984375 
L 18.40625 0 
L 9.421875 0 
z
" id="DejaVuSans-108"/>
      <path d="M 54.890625 33.015625 
L 54.890625 0 
L 45.90625 0 
L 45.90625 32.71875 
Q 45.90625 40.484375 42.875 44.328125 
Q 39.84375 48.1875 33.796875 48.1875 
Q 26.515625 48.1875 22.3125 43.546875 
Q 18.109375 38.921875 18.109375 30.90625 
L 18.109375 0 
L 9.078125 0 
L 9.078125 54.6875 
L 18.109375 54.6875 
L 18.109375 46.1875 
Q 21.34375 51.125 25.703125 53.5625 
Q 30.078125 56 35.796875 56 
Q 45.21875 56 50.046875 50.171875 
Q 54.890625 44.34375 54.890625 33.015625 
z
" id="DejaVuSans-110"/>
      <path d="M 8.5 21.578125 
L 8.5 54.6875 
L 17.484375 54.6875 
L 17.484375 21.921875 
Q 17.484375 14.15625 20.5 10.265625 
Q 23.53125 6.390625 29.59375 6.390625 
Q 36.859375 6.390625 41.078125 11.03125 
Q 45.3125 15.671875 45.3125 23.6875 
L 45.3125 54.6875 
L 54.296875 54.6875 
L 54.296875 0 
L 45.3125 0 
L 45.3125 8.40625 
Q 42.046875 3.421875 37.71875 1 
Q 33.40625 -1.421875 27.6875 -1.421875 
Q 18.265625 -1.421875 13.375 4.4375 
Q 8.5 10.296875 8.5 21.578125 
z
M 31.109375 56 
z
" id="DejaVuSans-117"/>
      <path d="M 48.6875 27.296875 
Q 48.6875 37.203125 44.609375 42.84375 
Q 40.53125 48.484375 33.40625 48.484375 
Q 26.265625 48.484375 22.1875 42.84375 
Q 18.109375 37.203125 18.109375 27.296875 
Q 18.109375 17.390625 22.1875 11.75 
Q 26.265625 6.109375 33.40625 6.109375 
Q 40.53125 6.109375 44.609375 11.75 
Q 48.6875 17.390625 48.6875 27.296875 
z
M 18.109375 46.390625 
Q 20.953125 51.265625 25.265625 53.625 
Q 29.59375 56 35.59375 56 
Q 45.5625 56 51.78125 48.09375 
Q 58.015625 40.1875 58.015625 27.296875 
Q 58.015625 14.40625 51.78125 6.484375 
Q 45.5625 -1.421875 35.59375 -1.421875 
Q 29.59375 -1.421875 25.265625 0.953125 
Q 20.953125 3.328125 18.109375 8.203125 
L 18.109375 0 
L 9.078125 0 
L 9.078125 75.984375 
L 18.109375 75.984375 
z
" id="DejaVuSans-98"/>
      <path d="M 41.109375 46.296875 
Q 39.59375 47.171875 37.8125 47.578125 
Q 36.03125 48 33.890625 48 
Q 26.265625 48 22.1875 43.046875 
Q 18.109375 38.09375 18.109375 28.8125 
L 18.109375 0 
L 9.078125 0 
L 9.078125 54.6875 
L 18.109375 54.6875 
L 18.109375 46.1875 
Q 20.953125 51.171875 25.484375 53.578125 
Q 30.03125 56 36.53125 56 
Q 37.453125 56 38.578125 55.875 
Q 39.703125 55.765625 41.0625 55.515625 
z
" id="DejaVuSans-114"/>
     </defs>
     <g style="fill:#262626;" transform="translate(14.798438 187.685844)rotate(-90)scale(0.1 -0.1)">
      <use xlink:href="#DejaVuSans-99"/>
      <use x="54.980469" xlink:href="#DejaVuSans-101"/>
      <use x="116.503906" xlink:href="#DejaVuSans-108"/>
      <use x="144.287109" xlink:href="#DejaVuSans-108"/>
      <use x="172.070312" xlink:href="#DejaVuSans-115"/>
      <use x="224.169922" xlink:href="#DejaVuSans-32"/>
      <use x="255.957031" xlink:href="#DejaVuSans-110"/>
      <use x="319.335938" xlink:href="#DejaVuSans-117"/>
      <use x="382.714844" xlink:href="#DejaVuSans-109"/>
      <use x="480.126953" xlink:href="#DejaVuSans-98"/>
      <use x="543.603516" xlink:href="#DejaVuSans-101"/>
      <use x="605.126953" xlink:href="#DejaVuSans-114"/>
     </g>
    </g>
   </g>
   <g id="line2d_15">
    <path clip-path="url(#p8431bcb404)" d="M 82.285852 276.334125 
L 83.368034 174.728075 
L 83.909125 137.785598 
L 84.450216 108.808701 
L 84.991307 85.785181 
L 85.532398 67.761504 
L 86.073489 54.815064 
L 86.61458 46.050735 
L 87.15567 39.821374 
L 87.696761 36.459914 
L 88.237852 34.414125 
L 88.778943 34.804008 
L 89.320034 36.858558 
L 89.861125 39.654907 
L 90.943307 48.014751 
L 92.56658 64.842495 
L 94.730943 91.81449 
L 97.977489 130.147111 
L 101.224034 163.687241 
L 103.929489 187.560618 
L 105.01167 195.838688 
L 106.093852 203.497619 
L 107.717125 214.608545 
L 109.881489 227.349092 
L 112.045852 236.982261 
L 113.669125 242.164633 
L 115.292398 247.67848 
L 116.91567 251.97303 
L 119.621125 257.711752 
L 121.785489 261.153525 
L 122.86767 263.202235 
L 123.408761 263.900227 
L 126.114216 266.313995 
L 128.27858 267.420853 
L 128.81967 267.879366 
L 129.360761 268.077958 
L 130.984034 268.993525 
L 132.607307 269.392169 
L 133.148398 269.421374 
L 133.689489 269.612665 
L 134.23058 269.615585 
L 134.77167 269.857984 
L 135.312761 269.912013 
L 136.394943 270.223043 
L 138.018216 270.430396 
L 139.641489 271.26565 
L 140.72367 271.598584 
L 141.264761 271.803017 
L 142.346943 272.016211 
L 143.429125 272.274673 
L 143.970216 272.324321 
L 145.593489 272.798897 
L 146.67567 272.587163 
L 147.216761 272.464503 
L 149.381125 271.248128 
L 151.004398 269.841922 
L 153.168761 268.882547 
L 153.709852 268.716081 
L 154.250943 268.683956 
L 155.333125 268.854803 
L 155.874216 268.808075 
L 158.03858 269.846302 
L 159.120761 270.463982 
L 161.285125 271.119627 
L 162.908398 271.055377 
L 165.072761 271.084581 
L 166.154943 271.086042 
L 168.319307 271.630709 
L 169.94258 271.765051 
L 171.024761 271.772352 
L 172.106943 271.940279 
L 174.271307 272.546276 
L 174.812398 272.63097 
L 176.976761 273.615168 
L 178.058943 274.24891 
L 178.600034 274.470866 
L 179.682216 274.635872 
L 181.305489 275.313421 
L 183.469852 275.777776 
L 186.716398 276.107789 
L 188.880761 276.24213 
L 198.079307 276.331205 
L 406.940398 276.334125 
L 406.940398 276.334125 
" style="fill:none;stroke:#000080;stroke-linecap:round;stroke-width:1.5;"/>
   </g>
   <g id="line2d_16">
    <path clip-path="url(#p8431bcb404)" d="M 82.285852 276.334125 
L 83.368034 174.75728 
L 84.450216 108.983929 
L 84.991307 86.471491 
L 86.073489 55.460487 
L 86.61458 45.783512 
L 87.15567 39.260644 
L 87.696761 35.995559 
L 88.237852 34.712013 
L 88.778943 35.011361 
L 89.320034 36.648284 
L 89.861125 39.67243 
L 90.943307 48.102365 
L 91.484398 52.970787 
L 93.648761 77.739288 
L 97.436398 123.79655 
L 100.682943 157.799575 
L 102.847307 177.178349 
L 106.634943 206.483799 
L 107.717125 213.39801 
L 109.881489 225.275559 
L 112.045852 236.339757 
L 112.586943 238.696576 
L 114.210216 243.791335 
L 115.292398 245.826902 
L 116.91567 248.899236 
L 117.456761 249.633734 
L 118.538943 251.47801 
L 119.621125 253.208388 
L 121.244398 255.130057 
L 122.86767 256.911544 
L 124.490943 259.116498 
L 125.573125 260.091935 
L 126.114216 260.725676 
L 126.655307 261.140383 
L 127.737489 262.323173 
L 128.81967 263.232899 
L 129.901852 263.654907 
L 130.442943 264.052091 
L 135.312761 266.248284 
L 136.936034 266.676133 
L 138.018216 267.067476 
L 139.100398 267.511387 
L 140.18258 268.018088 
L 142.346943 268.708779 
L 143.429125 269.028571 
L 145.593489 269.411152 
L 147.216761 270.344242 
L 149.922216 272.619288 
L 151.004398 273.133291 
L 151.545489 273.288075 
L 153.709852 274.278115 
L 154.792034 274.551178 
L 158.03858 274.795038 
L 160.744034 274.346746 
L 161.285125 274.082443 
L 162.908398 273.5626 
L 165.613852 272.371048 
L 168.860398 269.796654 
L 170.48367 268.984764 
L 171.024761 268.840201 
L 172.106943 268.370005 
L 173.189125 268.158271 
L 174.812398 268.204999 
L 175.89458 268.46054 
L 176.43567 268.467841 
L 177.517852 268.867945 
L 178.600034 269.376107 
L 180.223307 270.261009 
L 181.84658 270.910813 
L 184.010943 272.149092 
L 186.716398 273.166876 
L 188.33967 273.336263 
L 189.962943 273.432639 
L 191.586216 273.75243 
L 192.668398 273.828362 
L 196.997125 275.041817 
L 200.24367 275.395194 
L 203.490216 275.590866 
L 206.19567 275.707684 
L 208.360034 276.037697 
L 212.14767 276.227528 
L 217.017489 276.30054 
L 234.873489 276.334125 
L 406.940398 276.334125 
L 406.940398 276.334125 
" style="fill:none;stroke:#0000f1;stroke-linecap:round;stroke-width:1.5;"/>
   </g>
   <g id="line2d_17">
    <path clip-path="url(#p8431bcb404)" d="M 82.285852 276.334125 
L 83.368034 175.293186 
L 84.450216 109.17522 
L 84.991307 85.385077 
L 85.532398 67.990761 
L 86.073489 54.674881 
L 86.61458 45.979184 
L 87.15567 39.955716 
L 87.696761 36.486198 
L 88.237852 35.109197 
L 88.778943 35.947371 
L 89.320034 37.563851 
L 89.861125 40.409849 
L 90.402216 44.299914 
L 91.484398 54.501113 
L 92.56658 66.631283 
L 96.895307 117.977515 
L 100.682943 158.970683 
L 102.306216 173.688388 
L 105.552761 198.95921 
L 106.634943 206.511544 
L 108.799307 219.61861 
L 110.42258 227.568128 
L 112.586943 237.620383 
L 114.210216 243.214542 
L 116.37458 249.823564 
L 117.456761 251.959888 
L 118.538943 253.757437 
L 119.080034 254.77668 
L 123.949852 260.8717 
L 124.490943 261.623721 
L 126.655307 263.469457 
L 127.196398 263.727919 
L 127.737489 263.713317 
L 128.81967 263.91775 
L 129.360761 264.190813 
L 130.442943 264.298871 
L 130.984034 264.130944 
L 132.607307 264.075455 
L 134.23058 264.129484 
L 135.853852 264.66831 
L 136.936034 265.261165 
L 138.559307 265.677332 
L 139.641489 265.702156 
L 140.18258 265.967919 
L 141.264761 266.267267 
L 142.346943 267.047032 
L 145.052398 268.989145 
L 151.004398 270.421635 
L 152.08658 270.738506 
L 154.250943 271.291935 
L 156.415307 271.859966 
L 157.497489 271.858506 
L 158.03858 271.681817 
L 159.120761 271.690579 
L 161.826216 272.308258 
L 163.449489 272.851465 
L 164.53167 273.415116 
L 165.613852 273.68818 
L 167.778216 274.132091 
L 168.860398 274.076602 
L 169.401489 273.942261 
L 172.106943 273.945181 
L 173.730216 274.095585 
L 174.812398 274.231387 
L 175.89458 274.297098 
L 179.141125 274.573082 
L 180.764398 274.632952 
L 182.38767 274.80964 
L 184.010943 274.976107 
L 185.093125 274.908936 
L 188.880761 274.368649 
L 189.421852 274.244529 
L 191.586216 274.361348 
L 194.832761 274.540957 
L 198.620398 275.490109 
L 200.24367 275.541218 
L 201.866943 275.351387 
L 203.490216 275.208284 
L 206.736761 275.271074 
L 209.442216 275.179079 
L 212.688761 275.155716 
L 213.770943 274.955663 
L 215.935307 274.383251 
L 216.476398 274.352587 
L 219.722943 273.337723 
L 220.805125 273.111387 
L 221.887307 273.162495 
L 223.51058 273.158115 
L 225.133852 273.537776 
L 227.839307 275.033056 
L 230.00367 275.668258 
L 232.168034 276.005572 
L 236.496761 276.24067 
L 251.647307 276.334125 
L 406.940398 276.334125 
L 406.940398 276.334125 
" style="fill:none;stroke:#004cff;stroke-linecap:round;stroke-width:1.5;"/>
   </g>
   <g id="line2d_18">
    <path clip-path="url(#p8431bcb404)" d="M 82.285852 276.334125 
L 83.368034 175.412926 
L 83.909125 138.626693 
L 84.991307 86.856993 
L 85.532398 69.015846 
L 86.073489 55.638636 
L 86.61458 46.497567 
L 87.15567 40.520826 
L 87.696761 37.201713 
L 88.237852 35.834933 
L 88.778943 36.379601 
L 89.320034 38.134803 
L 89.861125 40.861061 
L 90.943307 49.507111 
L 92.56658 66.743721 
L 95.272034 98.211778 
L 99.05967 142.039262 
L 102.847307 178.622521 
L 106.093852 204.347476 
L 109.340398 223.917541 
L 111.504761 233.758062 
L 114.210216 244.703982 
L 115.292398 248.261113 
L 117.456761 255.316967 
L 119.621125 259.75462 
L 120.162216 260.662886 
L 121.244398 262.203434 
L 123.949852 266.638167 
L 125.032034 267.682235 
L 126.114216 268.58466 
L 127.196398 269.754308 
L 128.27858 270.564738 
L 128.81967 270.732665 
L 129.360761 271.058297 
L 132.607307 273.933499 
L 133.689489 274.581843 
L 135.312761 275.268154 
L 137.477125 275.787997 
L 139.641489 276.044999 
L 144.511307 276.264034 
L 149.922216 276.319523 
L 406.940398 276.334125 
L 406.940398 276.334125 
" style="fill:none;stroke:#00b0ff;stroke-linecap:round;stroke-width:1.5;"/>
   </g>
   <g id="line2d_19">
    <path clip-path="url(#p8431bcb404)" d="M 82.285852 276.334125 
L 83.368034 174.969014 
L 83.909125 138.279158 
L 84.991307 86.623356 
L 85.532398 69.236341 
L 86.073489 55.962808 
L 86.61458 46.255168 
L 87.15567 40.284268 
L 87.696761 37.156446 
L 88.237852 36.354777 
L 88.778943 37.071752 
L 89.320034 38.422469 
L 90.402216 45.297254 
L 91.484398 54.558062 
L 93.10767 72.469301 
L 97.977489 129.782052 
L 100.682943 157.411152 
L 102.847307 177.36818 
L 106.093852 200.625338 
L 109.340398 217.825442 
L 112.045852 230.07243 
L 114.210216 237.887606 
L 116.37458 244.213343 
L 119.080034 250.436863 
L 121.785489 255.623617 
L 123.408761 257.916185 
L 123.949852 258.617098 
L 125.573125 260.213134 
L 126.655307 261.447032 
L 129.360761 263.057671 
L 132.066216 264.060853 
L 133.148398 264.138245 
L 134.77167 264.239001 
L 135.853852 264.126563 
L 136.394943 264.376263 
L 136.936034 264.471178 
L 138.559307 265.369223 
L 139.100398 265.636446 
L 139.641489 265.709457 
L 140.18258 266.040931 
L 140.72367 266.116863 
L 142.346943 266.832378 
L 142.888034 266.96672 
L 143.970216 267.355142 
L 145.052398 267.53183 
L 146.13458 267.895429 
L 146.67567 267.947997 
L 147.757852 268.222521 
L 153.168761 269.619966 
L 154.250943 269.802495 
L 155.333125 270.155872 
L 161.285125 271.121087 
L 162.367307 271.435038 
L 163.449489 271.51389 
L 164.53167 271.597124 
L 165.613852 271.722704 
L 166.696034 271.899392 
L 167.778216 272.093603 
L 171.024761 272.25715 
L 172.106943 272.349145 
L 174.812398 272.611987 
L 176.976761 272.787215 
L 189.962943 273.331882 
L 192.127307 273.416576 
L 193.75058 273.435559 
L 195.914943 273.596185 
L 198.620398 273.664816 
L 200.24367 273.583043 
L 200.784761 273.642912 
L 201.866943 273.536315 
L 204.031307 273.533395 
L 206.19567 273.745129 
L 207.277852 273.786015 
L 211.065489 273.809379 
L 216.476398 273.764112 
L 219.181852 273.818141 
L 221.346216 273.705703 
L 222.428398 273.796237 
L 224.05167 273.842965 
L 225.674943 273.841504 
L 227.839307 273.924738 
L 228.380398 274.021113 
L 228.921489 273.929118 
L 231.626943 273.981687 
L 233.791307 274.034255 
L 234.332398 274.06346 
L 235.41458 273.974386 
L 238.661125 274.009431 
L 245.695307 273.986068 
L 246.777489 274.029875 
L 248.941852 273.980227 
L 251.647307 274.130631 
L 252.188398 274.067841 
L 253.27058 274.094125 
L 254.352761 274.032795 
L 280.325125 274.12625 
L 282.489489 274.153995 
L 284.653852 274.120409 
L 289.52367 274.104347 
L 292.229125 274.175898 
L 296.557852 274.162756 
L 298.722216 274.159836 
L 302.509852 274.137932 
L 308.461852 274.282495 
L 309.544034 274.245989 
L 311.167307 274.332143 
L 320.365852 274.476706 
L 323.071307 274.545338 
L 324.69458 274.527815 
L 326.317852 274.609588 
L 327.941125 274.5614 
L 331.728761 274.717645 
L 332.810943 274.784816 
L 338.762943 274.862208 
L 340.386216 275.008232 
L 342.009489 275.116289 
L 343.09167 274.984868 
L 349.584761 275.282756 
L 353.372398 275.535377 
L 356.077852 275.649275 
L 358.242216 275.700383 
L 360.40658 275.487189 
L 362.029852 275.392274 
L 363.112034 275.30758 
L 364.735307 275.12359 
L 367.981852 274.80818 
L 369.064034 274.833004 
L 372.31058 274.717645 
L 373.933852 274.675298 
L 375.016034 274.576002 
L 377.180398 274.660696 
L 380.968034 274.773134 
L 382.591307 274.657776 
L 384.75567 274.238688 
L 385.837852 274.24745 
L 391.248761 274.87097 
L 392.330943 275.081244 
L 393.954216 275.252091 
L 400.447307 275.967606 
L 403.152761 275.963225 
L 406.940398 275.545598 
L 406.940398 275.545598 
" style="fill:none;stroke:#29ffce;stroke-linecap:round;stroke-width:1.5;"/>
   </g>
   <g id="line2d_20">
    <path clip-path="url(#p8431bcb404)" d="M 82.285852 276.334125 
L 83.368034 175.031804 
L 83.909125 138.036759 
L 84.450216 108.92698 
L 84.991307 86.287502 
L 85.532398 68.910709 
L 86.073489 55.442965 
L 86.61458 46.320879 
L 87.15567 40.066693 
L 87.696761 36.544607 
L 88.237852 35.164686 
L 88.778943 35.391022 
L 89.320034 37.487919 
L 89.861125 40.460957 
L 90.943307 48.845624 
L 92.025489 60.225233 
L 93.10767 72.352482 
L 94.189852 85.674203 
L 99.600761 147.694751 
L 102.306216 174.092873 
L 103.929489 186.734125 
L 105.552761 198.715351 
L 107.717125 213.614125 
L 108.799307 219.890214 
L 110.96367 232.654125 
L 112.045852 238.070135 
L 115.292398 250.553682 
L 115.833489 252.511856 
L 116.37458 253.96333 
L 116.91567 255.032221 
L 118.538943 257.266381 
L 119.621125 258.735377 
L 122.32658 260.954933 
L 123.949852 262.045729 
L 125.032034 263.463617 
L 126.114216 264.947215 
L 126.655307 265.60286 
L 127.196398 266.001504 
L 127.737489 266.627945 
L 130.984034 268.289692 
L 131.525125 268.667893 
L 132.607307 269.64479 
L 134.23058 271.052456 
L 138.559307 274.49569 
L 139.641489 275.018454 
L 141.805852 275.666798 
L 143.429125 275.938401 
L 146.67567 276.193942 
L 151.545489 276.302 
L 164.53167 276.334125 
L 406.940398 276.334125 
L 406.940398 276.334125 
" style="fill:none;stroke:#7dff7a;stroke-linecap:round;stroke-width:1.5;"/>
   </g>
   <g id="line2d_21">
    <path clip-path="url(#p8431bcb404)" d="M 82.285852 276.334125 
L 83.368034 174.81861 
L 83.909125 138.051361 
L 84.450216 109.369431 
L 84.991307 86.748936 
L 85.532398 69.591178 
L 86.073489 56.235872 
L 86.61458 46.959001 
L 87.15567 40.535429 
L 87.696761 37.298088 
L 88.237852 35.833473 
L 88.778943 36.080253 
L 89.320034 37.701113 
L 90.402216 44.692717 
L 92.025489 60.179966 
L 93.10767 72.514568 
L 96.895307 117.279523 
L 99.600761 146.668206 
L 101.224034 162.882652 
L 102.847307 177.328753 
L 105.552761 197.399679 
L 107.176034 207.964477 
L 109.340398 220.046459 
L 111.504761 229.976055 
L 112.586943 234.11728 
L 113.669125 237.302052 
L 115.833489 243.220383 
L 118.538943 249.540279 
L 119.621125 251.447345 
L 122.32658 256.033942 
L 122.86767 256.57569 
L 125.573125 260.12552 
L 127.737489 262.672169 
L 128.81967 263.73668 
L 131.525125 265.487502 
L 132.066216 265.651048 
L 136.394943 267.959679 
L 138.559307 269.586381 
L 139.100398 269.828779 
L 140.18258 270.531152 
L 141.805852 271.112326 
L 145.052398 272.365207 
L 148.298943 273.00771 
L 149.381125 273.095324 
L 150.463307 273.368388 
L 152.08658 273.743669 
L 157.497489 273.086563 
L 158.03858 272.947841 
L 160.744034 271.737306 
L 162.908398 270.988206 
L 167.237125 270.185077 
L 168.860398 270.02007 
L 169.94258 270.039053 
L 173.189125 270.234725 
L 173.730216 270.312117 
L 174.271307 270.249327 
L 175.89458 270.607085 
L 178.058943 270.872847 
L 179.141125 271.14153 
L 185.634216 271.531413 
L 186.716398 271.494907 
L 189.962943 271.734386 
L 193.209489 272.00891 
L 193.75058 272.067319 
L 194.832761 272.343304 
L 196.456034 272.594464 
L 200.24367 272.810579 
L 201.325852 272.959523 
L 208.901125 273.895533 
L 209.983307 274.070761 
L 213.229852 274.238688 
L 216.476398 274.032795 
L 222.428398 274.111648 
L 223.51058 273.967085 
L 224.592761 273.894073 
L 226.216034 273.818141 
L 228.921489 273.613708 
L 230.00367 273.372769 
L 233.791307 273.372769 
L 235.95567 273.521713 
L 239.743307 273.534855 
L 240.825489 273.664816 
L 242.989852 274.069301 
L 245.154216 274.06492 
L 246.236398 274.045937 
L 248.941852 274.260592 
L 254.893852 274.5614 
L 255.976034 274.754151 
L 261.928034 274.992169 
L 265.17458 274.837384 
L 267.338943 274.523434 
L 268.962216 274.167137 
L 275.996398 273.350866 
L 277.61967 273.305598 
L 278.701852 273.307059 
L 279.784034 273.260331 
L 281.948398 273.469145 
L 283.03058 273.431178 
L 284.653852 273.545077 
L 288.98258 273.975846 
L 296.016761 274.245989 
L 297.098943 274.137932 
L 298.181125 274.178819 
L 302.509852 274.294177 
L 304.133125 274.479627 
L 305.756398 274.74685 
L 310.085125 275.152795 
L 312.249489 275.237489 
L 313.872761 275.160096 
L 315.496034 275.238949 
L 316.578216 275.24333 
L 318.201489 275.016993 
L 320.365852 274.946902 
L 321.448034 274.755611 
L 324.69458 274.298558 
L 327.941125 274.120409 
L 329.023307 274.073682 
L 332.810943 274.175898 
L 334.975307 274.396394 
L 338.221852 274.948362 
L 339.304034 275.05788 
L 342.009489 275.224347 
L 343.09167 275.30758 
L 345.256034 275.24771 
L 350.125852 275.30466 
L 352.290216 274.954203 
L 356.077852 274.486928 
L 360.40658 274.758532 
L 362.570943 274.8111 
L 365.817489 275.053499 
L 367.981852 275.36891 
L 370.687307 275.570422 
L 373.933852 275.709145 
L 383.132398 276.297619 
L 406.940398 276.334125 
L 406.940398 276.334125 
" style="fill:none;stroke:#ceff29;stroke-linecap:round;stroke-width:1.5;"/>
   </g>
   <g id="line2d_22">
    <path clip-path="url(#p8431bcb404)" d="M 82.285852 276.334125 
L 83.368034 174.374699 
L 83.909125 137.822104 
L 84.991307 85.793942 
L 85.532398 67.92359 
L 86.073489 55.253134 
L 86.61458 45.421374 
L 87.15567 39.703095 
L 87.696761 36.045207 
L 88.237852 34.977776 
L 88.778943 34.44333 
L 89.320034 36.408806 
L 89.861125 39.378923 
L 90.943307 48.178297 
L 92.025489 59.21183 
L 97.977489 129.027111 
L 100.141852 152.506224 
L 102.306216 172.607815 
L 105.01167 194.211987 
L 107.176034 208.609901 
L 108.799307 218.529275 
L 109.881489 224.244633 
L 112.586943 235.29569 
L 114.751307 242.627528 
L 115.833489 245.800618 
L 116.91567 248.389614 
L 117.997852 250.682182 
L 118.538943 251.618193 
L 119.621125 252.789301 
L 123.949852 256.753838 
L 125.032034 258.037384 
L 126.114216 259.37934 
L 127.737489 261.093656 
L 130.442943 263.321974 
L 132.066216 264.430292 
L 134.23058 266.03801 
L 134.77167 266.236602 
L 135.853852 266.763747 
L 136.394943 266.947736 
L 137.477125 267.049953 
L 139.641489 267.566876 
L 140.72367 267.610683 
L 141.805852 267.911491 
L 143.429125 268.012248 
L 145.052398 268.313056 
L 145.593489 268.314516 
L 147.216761 268.654751 
L 148.840034 268.923434 
L 151.004398 269.453499 
L 152.08658 269.501687 
L 153.709852 269.760148 
L 155.874216 270.198219 
L 156.415307 270.179236 
L 156.956398 270.347163 
L 158.57967 270.307736 
L 160.202943 270.263929 
L 161.826216 270.567658 
L 163.449489 270.95462 
L 164.53167 271.023251 
L 165.613852 271.233525 
L 168.860398 271.234985 
L 170.48367 271.484686 
L 173.189125 271.979705 
L 178.600034 271.916915 
L 179.682216 272.017671 
L 180.223307 271.966563 
L 181.84658 272.152013 
L 184.010943 272.189979 
L 184.552034 272.279053 
L 186.175307 272.173916 
L 188.880761 272.441139 
L 189.962943 272.395872 
L 193.209489 272.6923 
L 194.832761 272.721504 
L 195.914943 272.776993 
L 196.456034 272.906954 
L 203.490216 273.06466 
L 204.572398 273.12745 
L 208.360034 273.144972 
L 214.312034 273.339184 
L 215.394216 273.401974 
L 219.722943 273.613708 
L 221.346216 273.644373 
L 222.969489 273.715924 
L 226.216034 273.762652 
L 227.839307 273.775794 
L 228.921489 273.718845 
L 230.00367 273.796237 
L 232.168034 273.81522 
L 233.791307 273.911596 
L 234.873489 273.891152 
L 235.95567 273.832743 
L 259.76367 274.00359 
L 264.633489 273.904294 
L 271.66767 274.067841 
L 272.749852 274.019653 
L 274.373125 274.037176 
L 278.160761 274.108727 
L 279.242943 274.048858 
L 280.866216 274.067841 
L 286.818216 274.140853 
L 288.98258 274.206563 
L 291.688034 274.259132 
L 295.47567 274.165676 
L 297.640034 274.1905 
L 298.722216 274.164216 
L 300.88658 274.181739 
L 302.509852 274.137932 
L 307.37967 274.362808 
L 311.167307 274.152534 
L 315.496034 274.227006 
L 316.578216 274.18904 
L 318.201489 274.1905 
L 320.365852 274.224086 
L 326.858943 274.257671 
L 327.941125 274.25037 
L 329.023307 274.215324 
L 336.057489 274.316081 
L 338.762943 274.402235 
L 342.009489 274.37303 
L 343.09167 274.43582 
L 357.701125 274.630031 
L 358.783307 274.670918 
L 359.865489 274.722026 
L 360.94767 274.774594 
L 362.029852 274.757072 
L 365.817489 275.033056 
L 369.064034 274.942521 
L 371.769489 274.907476 
L 373.933852 275.052039 
L 376.098216 274.951283 
L 377.180398 274.863669 
L 378.80367 274.80818 
L 380.426943 274.576002 
L 382.591307 274.571622 
L 385.837852 274.754151 
L 388.543307 274.778975 
L 389.084398 274.717645 
L 391.248761 274.898714 
L 395.036398 275.155716 
L 398.282943 275.641974 
L 399.906216 275.820122 
L 406.940398 276.093186 
L 406.940398 276.093186 
" style="fill:none;stroke:#ffc400;stroke-linecap:round;stroke-width:1.5;"/>
   </g>
   <g id="line2d_23">
    <path clip-path="url(#p8431bcb404)" d="M 82.285852 276.334125 
L 83.368034 174.88286 
L 83.909125 138.020696 
L 84.991307 86.252456 
L 85.532398 68.649327 
L 86.073489 54.968388 
L 86.61458 45.473942 
L 87.15567 39.308832 
L 87.696761 36.322652 
L 88.237852 34.728075 
L 88.778943 35.209953 
L 89.320034 36.982678 
L 89.861125 39.999523 
L 90.943307 49.293916 
L 92.56658 65.815012 
L 99.600761 146.563069 
L 102.306216 172.241296 
L 103.388398 181.399888 
L 105.01167 193.810422 
L 107.717125 211.65303 
L 108.799307 217.664816 
L 111.504761 229.75848 
L 112.586943 233.901165 
L 115.292398 242.725364 
L 116.37458 245.793317 
L 118.538943 252.250474 
L 119.621125 254.814647 
L 120.703307 257.188988 
L 121.785489 258.644842 
L 122.32658 258.929588 
L 122.86767 259.389562 
L 123.949852 260.013082 
L 125.032034 260.836654 
L 125.573125 261.017723 
L 127.737489 262.256002 
L 128.27858 262.342156 
L 128.81967 262.645885 
L 129.901852 263.54539 
L 130.442943 263.91775 
L 132.066216 264.040409 
L 132.607307 263.904607 
L 133.148398 263.941113 
L 133.689489 263.841817 
L 135.853852 264.368962 
L 138.018216 264.6026 
L 138.559307 265.020227 
L 140.18258 265.691935 
L 141.264761 265.991283 
L 142.346943 266.521348 
L 143.429125 267.070396 
L 145.052398 267.850162 
L 146.67567 268.491205 
L 147.216761 268.704399 
L 148.298943 268.832899 
L 149.922216 269.529431 
L 151.004398 269.964581 
L 152.08658 270.287293 
L 153.709852 270.430396 
L 158.57967 271.525572 
L 160.202943 272.035194 
L 161.285125 272.087763 
L 162.908398 271.968023 
L 165.072761 271.76213 
L 168.319307 271.748988 
L 171.024761 272.064399 
L 172.106943 272.219184 
L 174.812398 272.436759 
L 177.517852 272.147632 
L 178.600034 272.045416 
L 181.305489 271.725624 
L 182.38767 271.728545 
L 183.469852 271.671596 
L 185.093125 271.7008 
L 191.586216 271.985546 
L 193.209489 272.213343 
L 205.113489 273.420957 
L 207.277852 273.458923 
L 209.983307 273.6911 
L 210.524398 273.612248 
L 212.688761 273.683799 
L 221.887307 273.707163 
L 224.592761 273.664816 
L 227.298216 273.699862 
L 228.380398 273.705703 
L 230.00367 273.642912 
L 231.626943 273.764112 
L 239.202216 273.918897 
L 245.154216 273.948102 
L 247.85967 273.923278 
L 251.647307 273.838584 
L 253.27058 273.892613 
L 255.434943 273.983147 
L 257.058216 274.019653 
L 261.928034 274.101426 
L 263.551307 274.171517 
L 265.71567 274.143773 
L 278.160761 274.301478 
L 280.866216 274.37595 
L 281.948398 274.370109 
L 286.277125 274.478167 
L 289.52367 274.377411 
L 292.770216 274.390553 
L 297.640034 274.18904 
L 304.133125 274.399314 
L 312.249489 274.9323 
L 319.824761 274.930839 
L 330.64658 274.469405 
L 332.810943 274.533656 
L 333.893125 274.688441 
L 336.057489 274.911856 
L 337.680761 275.098766 
L 345.256034 275.417098 
L 346.879307 275.189301 
L 350.666943 274.590605 
L 352.290216 274.332143 
L 353.372398 274.197802 
L 355.536761 274.302939 
L 359.865489 274.805259 
L 361.488761 274.923538 
L 363.653125 275.182 
L 365.276398 275.471126 
L 367.440761 275.738349 
L 369.605125 276.001191 
L 375.016034 276.268414 
L 385.837852 276.334125 
L 406.940398 276.334125 
L 406.940398 276.334125 
" style="fill:none;stroke:#ff6800;stroke-linecap:round;stroke-width:1.5;"/>
   </g>
   <g id="line2d_24">
    <path clip-path="url(#p8431bcb404)" d="M 82.285852 276.334125 
L 83.368034 174.50904 
L 83.909125 138.134594 
L 84.991307 86.299184 
L 85.532398 68.60406 
L 86.073489 55.419601 
L 86.61458 45.608284 
L 87.15567 40.057932 
L 87.696761 36.199992 
L 88.237852 34.609796 
L 88.778943 34.985077 
L 89.320034 36.857098 
L 89.861125 39.745442 
L 90.943307 48.528753 
L 92.025489 59.673265 
L 93.10767 71.853082 
L 96.895307 117.926407 
L 99.600761 147.617358 
L 102.847307 178.124581 
L 105.552761 198.221791 
L 107.176034 208.411309 
L 108.799307 217.542156 
L 110.42258 225.103251 
L 112.586943 234.256002 
L 115.292398 244.178297 
L 116.37458 247.006772 
L 116.91567 248.277176 
L 117.456761 249.92286 
L 120.162216 255.838271 
L 121.244398 257.381739 
L 122.86767 258.928128 
L 123.949852 259.634881 
L 124.490943 259.802808 
L 126.114216 260.775324 
L 128.27858 262.770005 
L 129.901852 264.526667 
L 130.442943 264.807032 
L 131.525125 265.743043 
L 134.77167 267.302574 
L 135.312761 267.445676 
L 136.936034 267.509927 
L 139.100398 267.854542 
L 139.641489 267.870605 
L 140.72367 267.727502 
L 141.805852 267.666172 
L 142.346943 267.704138 
L 143.429125 268.083799 
L 144.511307 268.032691 
L 145.593489 268.299914 
L 147.216761 268.904451 
L 148.840034 269.197958 
L 150.463307 269.676915 
L 152.62767 269.792274 
L 153.709852 269.655012 
L 155.874216 270.173395 
L 156.415307 270.177776 
L 158.57967 270.900592 
L 161.285125 271.294855 
L 162.908398 271.522652 
L 163.99058 271.801557 
L 165.072761 271.995768 
L 166.154943 272.111126 
L 167.237125 272.292195 
L 168.860398 272.457202 
L 174.271307 272.340383 
L 175.353489 272.25569 
L 175.89458 272.099444 
L 176.976761 272.0717 
L 179.682216 271.979705 
L 180.764398 272.030813 
L 182.928761 271.88333 
L 184.010943 271.966563 
L 186.175307 272.169536 
L 187.257489 272.347684 
L 189.421852 272.262991 
L 189.962943 272.357906 
L 191.586216 272.373969 
L 193.209489 272.576941 
L 199.70258 272.874829 
L 201.325852 273.156654 
L 204.031307 273.136211 
L 209.983307 273.415116 
L 214.312034 273.56406 
L 215.394216 273.704242 
L 217.55858 273.772873 
L 218.640761 273.765572 
L 220.264034 273.793317 
L 222.969489 273.581583 
L 226.216034 273.717384 
L 227.839307 273.569901 
L 230.00367 273.444321 
L 233.791307 273.656055 
L 235.41458 273.768493 
L 237.037852 273.949562 
L 242.989852 273.924738 
L 245.154216 274.12625 
L 249.482943 274.221165 
L 250.024034 274.137932 
L 252.729489 274.231387 
L 255.434943 274.378871 
L 256.517125 274.43874 
L 258.681489 274.364268 
L 262.469125 274.396394 
L 264.092398 274.203643 
L 266.256761 274.12333 
L 268.421125 274.241609 
L 269.503307 274.164216 
L 275.455307 274.710344 
L 278.701852 275.62153 
L 281.407307 276.028936 
L 287.359307 276.293238 
L 315.496034 276.334125 
L 406.940398 276.334125 
L 406.940398 276.334125 
" style="fill:none;stroke:#f10800;stroke-linecap:round;stroke-width:1.5;"/>
   </g>
   <g id="patch_3">
    <path d="M 66.053125 288.430125 
L 66.053125 22.318125 
" style="fill:none;stroke:#cccccc;stroke-linecap:square;stroke-linejoin:miter;stroke-width:0.8;"/>
   </g>
   <g id="patch_4">
    <path d="M 423.173125 288.430125 
L 423.173125 22.318125 
" style="fill:none;stroke:#cccccc;stroke-linecap:square;stroke-linejoin:miter;stroke-width:0.8;"/>
   </g>
   <g id="patch_5">
    <path d="M 66.053125 288.430125 
L 423.173125 288.430125 
" style="fill:none;stroke:#cccccc;stroke-linecap:square;stroke-linejoin:miter;stroke-width:0.8;"/>
   </g>
   <g id="patch_6">
    <path d="M 66.053125 22.318125 
L 423.173125 22.318125 
" style="fill:none;stroke:#cccccc;stroke-linecap:square;stroke-linejoin:miter;stroke-width:0.8;"/>
   </g>
   <g id="text_17">
    <!-- Mature APC -->
    <defs>
     <path d="M 9.8125 72.90625 
L 24.515625 72.90625 
L 43.109375 23.296875 
L 61.8125 72.90625 
L 76.515625 72.90625 
L 76.515625 0 
L 66.890625 0 
L 66.890625 64.015625 
L 48.09375 14.015625 
L 38.1875 14.015625 
L 19.390625 64.015625 
L 19.390625 0 
L 9.8125 0 
z
" id="DejaVuSans-77"/>
     <path d="M 34.1875 63.1875 
L 20.796875 26.90625 
L 47.609375 26.90625 
z
M 28.609375 72.90625 
L 39.796875 72.90625 
L 67.578125 0 
L 57.328125 0 
L 50.6875 18.703125 
L 17.828125 18.703125 
L 11.1875 0 
L 0.78125 0 
z
" id="DejaVuSans-65"/>
     <path d="M 19.671875 64.796875 
L 19.671875 37.40625 
L 32.078125 37.40625 
Q 38.96875 37.40625 42.71875 40.96875 
Q 46.484375 44.53125 46.484375 51.125 
Q 46.484375 57.671875 42.71875 61.234375 
Q 38.96875 64.796875 32.078125 64.796875 
z
M 9.8125 72.90625 
L 32.078125 72.90625 
Q 44.34375 72.90625 50.609375 67.359375 
Q 56.890625 61.8125 56.890625 51.125 
Q 56.890625 40.328125 50.609375 34.8125 
Q 44.34375 29.296875 32.078125 29.296875 
L 19.671875 29.296875 
L 19.671875 0 
L 9.8125 0 
z
" id="DejaVuSans-80"/>
     <path d="M 64.40625 67.28125 
L 64.40625 56.890625 
Q 59.421875 61.53125 53.78125 63.8125 
Q 48.140625 66.109375 41.796875 66.109375 
Q 29.296875 66.109375 22.65625 58.46875 
Q 16.015625 50.828125 16.015625 36.375 
Q 16.015625 21.96875 22.65625 14.328125 
Q 29.296875 6.6875 41.796875 6.6875 
Q 48.140625 6.6875 53.78125 8.984375 
Q 59.421875 11.28125 64.40625 15.921875 
L 64.40625 5.609375 
Q 59.234375 2.09375 53.4375 0.328125 
Q 47.65625 -1.421875 41.21875 -1.421875 
Q 24.65625 -1.421875 15.125 8.703125 
Q 5.609375 18.84375 5.609375 36.375 
Q 5.609375 53.953125 15.125 64.078125 
Q 24.65625 74.21875 41.21875 74.21875 
Q 47.75 74.21875 53.53125 72.484375 
Q 59.328125 70.75 64.40625 67.28125 
z
" id="DejaVuSans-67"/>
    </defs>
    <g style="fill:#262626;" transform="translate(209.629375 16.318125)scale(0.12 -0.12)">
     <use xlink:href="#DejaVuSans-77"/>
     <use x="86.279297" xlink:href="#DejaVuSans-97"/>
     <use x="147.558594" xlink:href="#DejaVuSans-116"/>
     <use x="186.767578" xlink:href="#DejaVuSans-117"/>
     <use x="250.146484" xlink:href="#DejaVuSans-114"/>
     <use x="291.228516" xlink:href="#DejaVuSans-101"/>
     <use x="352.751953" xlink:href="#DejaVuSans-32"/>
     <use x="384.539062" xlink:href="#DejaVuSans-65"/>
     <use x="452.947266" xlink:href="#DejaVuSans-80"/>
     <use x="513.25" xlink:href="#DejaVuSans-67"/>
    </g>
   </g>
  </g>
 </g>
 <defs>
  <clipPath id="p8431bcb404">
   <rect height="266.112" width="357.12" x="66.053125" y="22.318125"/>
  </clipPath>
 </defs>
</svg>
