<?xml version="1.0" encoding="utf-8" standalone="no"?>
<!DOCTYPE svg PUBLIC "-//W3C//DTD SVG 1.1//EN"
  "http://www.w3.org/Graphics/SVG/1.1/DTD/svg11.dtd">
<!-- Created with matplotlib (https://matplotlib.org/) -->
<svg height="325.986375pt" version="1.1" viewBox="0 0 430.373125 325.986375" width="430.373125pt" xmlns="http://www.w3.org/2000/svg" xmlns:xlink="http://www.w3.org/1999/xlink">
 <defs>
  <style type="text/css">
*{stroke-linecap:butt;stroke-linejoin:round;white-space:pre;}
  </style>
 </defs>
 <g id="figure_1">
  <g id="patch_1">
   <path d="M 0 325.986375 
L 430.373125 325.986375 
L 430.373125 0 
L 0 0 
z
" style="fill:#ffffff;"/>
  </g>
  <g id="axes_1">
   <g id="patch_2">
    <path d="M 66.053125 288.430125 
L 423.173125 288.430125 
L 423.173125 22.318125 
L 66.053125 22.318125 
z
" style="fill:#ffffff;"/>
   </g>
   <g id="matplotlib.axis_1">
    <g id="xtick_1">
     <g id="line2d_1">
      <path clip-path="url(#p35491763ab)" d="M 82.285852 288.430125 
L 82.285852 22.318125 
" style="fill:none;stroke:#cccccc;stroke-linecap:round;stroke-width:0.8;"/>
     </g>
     <g id="text_1">
      <!-- 0 -->
      <defs>
       <path d="M 31.78125 66.40625 
Q 24.171875 66.40625 20.328125 58.90625 
Q 16.5 51.421875 16.5 36.375 
Q 16.5 21.390625 20.328125 13.890625 
Q 24.171875 6.390625 31.78125 6.390625 
Q 39.453125 6.390625 43.28125 13.890625 
Q 47.125 21.390625 47.125 36.375 
Q 47.125 51.421875 43.28125 58.90625 
Q 39.453125 66.40625 31.78125 66.40625 
z
M 31.78125 74.21875 
Q 44.046875 74.21875 50.515625 64.515625 
Q 56.984375 54.828125 56.984375 36.375 
Q 56.984375 17.96875 50.515625 8.265625 
Q 44.046875 -1.421875 31.78125 -1.421875 
Q 19.53125 -1.421875 13.0625 8.265625 
Q 6.59375 17.96875 6.59375 36.375 
Q 6.59375 54.828125 13.0625 64.515625 
Q 19.53125 74.21875 31.78125 74.21875 
z
" id="DejaVuSans-48"/>
      </defs>
      <g style="fill:#262626;" transform="translate(79.104602 303.028562)scale(0.1 -0.1)">
       <use xlink:href="#DejaVuSans-48"/>
      </g>
     </g>
    </g>
    <g id="xtick_2">
     <g id="line2d_2">
      <path clip-path="url(#p35491763ab)" d="M 136.394943 288.430125 
L 136.394943 22.318125 
" style="fill:none;stroke:#cccccc;stroke-linecap:round;stroke-width:0.8;"/>
     </g>
     <g id="text_2">
      <!-- 10 -->
      <defs>
       <path d="M 12.40625 8.296875 
L 28.515625 8.296875 
L 28.515625 63.921875 
L 10.984375 60.40625 
L 10.984375 69.390625 
L 28.421875 72.90625 
L 38.28125 72.90625 
L 38.28125 8.296875 
L 54.390625 8.296875 
L 54.390625 0 
L 12.40625 0 
z
" id="DejaVuSans-49"/>
      </defs>
      <g style="fill:#262626;" transform="translate(130.032443 303.028562)scale(0.1 -0.1)">
       <use xlink:href="#DejaVuSans-49"/>
       <use x="63.623047" xlink:href="#DejaVuSans-48"/>
      </g>
     </g>
    </g>
    <g id="xtick_3">
     <g id="line2d_3">
      <path clip-path="url(#p35491763ab)" d="M 190.504034 288.430125 
L 190.504034 22.318125 
" style="fill:none;stroke:#cccccc;stroke-linecap:round;stroke-width:0.8;"/>
     </g>
     <g id="text_3">
      <!-- 20 -->
      <defs>
       <path d="M 19.1875 8.296875 
L 53.609375 8.296875 
L 53.609375 0 
L 7.328125 0 
L 7.328125 8.296875 
Q 12.9375 14.109375 22.625 23.890625 
Q 32.328125 33.6875 34.8125 36.53125 
Q 39.546875 41.84375 41.421875 45.53125 
Q 43.3125 49.21875 43.3125 52.78125 
Q 43.3125 58.59375 39.234375 62.25 
Q 35.15625 65.921875 28.609375 65.921875 
Q 23.96875 65.921875 18.8125 64.3125 
Q 13.671875 62.703125 7.8125 59.421875 
L 7.8125 69.390625 
Q 13.765625 71.78125 18.9375 73 
Q 24.125 74.21875 28.421875 74.21875 
Q 39.75 74.21875 46.484375 68.546875 
Q 53.21875 62.890625 53.21875 53.421875 
Q 53.21875 48.921875 51.53125 44.890625 
Q 49.859375 40.875 45.40625 35.40625 
Q 44.1875 33.984375 37.640625 27.21875 
Q 31.109375 20.453125 19.1875 8.296875 
z
" id="DejaVuSans-50"/>
      </defs>
      <g style="fill:#262626;" transform="translate(184.141534 303.028562)scale(0.1 -0.1)">
       <use xlink:href="#DejaVuSans-50"/>
       <use x="63.623047" xlink:href="#DejaVuSans-48"/>
      </g>
     </g>
    </g>
    <g id="xtick_4">
     <g id="line2d_4">
      <path clip-path="url(#p35491763ab)" d="M 244.613125 288.430125 
L 244.613125 22.318125 
" style="fill:none;stroke:#cccccc;stroke-linecap:round;stroke-width:0.8;"/>
     </g>
     <g id="text_4">
      <!-- 30 -->
      <defs>
       <path d="M 40.578125 39.3125 
Q 47.65625 37.796875 51.625 33 
Q 55.609375 28.21875 55.609375 21.1875 
Q 55.609375 10.40625 48.1875 4.484375 
Q 40.765625 -1.421875 27.09375 -1.421875 
Q 22.515625 -1.421875 17.65625 -0.515625 
Q 12.796875 0.390625 7.625 2.203125 
L 7.625 11.71875 
Q 11.71875 9.328125 16.59375 8.109375 
Q 21.484375 6.890625 26.8125 6.890625 
Q 36.078125 6.890625 40.9375 10.546875 
Q 45.796875 14.203125 45.796875 21.1875 
Q 45.796875 27.640625 41.28125 31.265625 
Q 36.765625 34.90625 28.71875 34.90625 
L 20.21875 34.90625 
L 20.21875 43.015625 
L 29.109375 43.015625 
Q 36.375 43.015625 40.234375 45.921875 
Q 44.09375 48.828125 44.09375 54.296875 
Q 44.09375 59.90625 40.109375 62.90625 
Q 36.140625 65.921875 28.71875 65.921875 
Q 24.65625 65.921875 20.015625 65.03125 
Q 15.375 64.15625 9.8125 62.3125 
L 9.8125 71.09375 
Q 15.4375 72.65625 20.34375 73.4375 
Q 25.25 74.21875 29.59375 74.21875 
Q 40.828125 74.21875 47.359375 69.109375 
Q 53.90625 64.015625 53.90625 55.328125 
Q 53.90625 49.265625 50.4375 45.09375 
Q 46.96875 40.921875 40.578125 39.3125 
z
" id="DejaVuSans-51"/>
      </defs>
      <g style="fill:#262626;" transform="translate(238.250625 303.028562)scale(0.1 -0.1)">
       <use xlink:href="#DejaVuSans-51"/>
       <use x="63.623047" xlink:href="#DejaVuSans-48"/>
      </g>
     </g>
    </g>
    <g id="xtick_5">
     <g id="line2d_5">
      <path clip-path="url(#p35491763ab)" d="M 298.722216 288.430125 
L 298.722216 22.318125 
" style="fill:none;stroke:#cccccc;stroke-linecap:round;stroke-width:0.8;"/>
     </g>
     <g id="text_5">
      <!-- 40 -->
      <defs>
       <path d="M 37.796875 64.3125 
L 12.890625 25.390625 
L 37.796875 25.390625 
z
M 35.203125 72.90625 
L 47.609375 72.90625 
L 47.609375 25.390625 
L 58.015625 25.390625 
L 58.015625 17.1875 
L 47.609375 17.1875 
L 47.609375 0 
L 37.796875 0 
L 37.796875 17.1875 
L 4.890625 17.1875 
L 4.890625 26.703125 
z
" id="DejaVuSans-52"/>
      </defs>
      <g style="fill:#262626;" transform="translate(292.359716 303.028562)scale(0.1 -0.1)">
       <use xlink:href="#DejaVuSans-52"/>
       <use x="63.623047" xlink:href="#DejaVuSans-48"/>
      </g>
     </g>
    </g>
    <g id="xtick_6">
     <g id="line2d_6">
      <path clip-path="url(#p35491763ab)" d="M 352.831307 288.430125 
L 352.831307 22.318125 
" style="fill:none;stroke:#cccccc;stroke-linecap:round;stroke-width:0.8;"/>
     </g>
     <g id="text_6">
      <!-- 50 -->
      <defs>
       <path d="M 10.796875 72.90625 
L 49.515625 72.90625 
L 49.515625 64.59375 
L 19.828125 64.59375 
L 19.828125 46.734375 
Q 21.96875 47.46875 24.109375 47.828125 
Q 26.265625 48.1875 28.421875 48.1875 
Q 40.625 48.1875 47.75 41.5 
Q 54.890625 34.8125 54.890625 23.390625 
Q 54.890625 11.625 47.5625 5.09375 
Q 40.234375 -1.421875 26.90625 -1.421875 
Q 22.3125 -1.421875 17.546875 -0.640625 
Q 12.796875 0.140625 7.71875 1.703125 
L 7.71875 11.625 
Q 12.109375 9.234375 16.796875 8.0625 
Q 21.484375 6.890625 26.703125 6.890625 
Q 35.15625 6.890625 40.078125 11.328125 
Q 45.015625 15.765625 45.015625 23.390625 
Q 45.015625 31 40.078125 35.4375 
Q 35.15625 39.890625 26.703125 39.890625 
Q 22.75 39.890625 18.8125 39.015625 
Q 14.890625 38.140625 10.796875 36.28125 
z
" id="DejaVuSans-53"/>
      </defs>
      <g style="fill:#262626;" transform="translate(346.468807 303.028562)scale(0.1 -0.1)">
       <use xlink:href="#DejaVuSans-53"/>
       <use x="63.623047" xlink:href="#DejaVuSans-48"/>
      </g>
     </g>
    </g>
    <g id="xtick_7">
     <g id="line2d_7">
      <path clip-path="url(#p35491763ab)" d="M 406.940398 288.430125 
L 406.940398 22.318125 
" style="fill:none;stroke:#cccccc;stroke-linecap:round;stroke-width:0.8;"/>
     </g>
     <g id="text_7">
      <!-- 60 -->
      <defs>
       <path d="M 33.015625 40.375 
Q 26.375 40.375 22.484375 35.828125 
Q 18.609375 31.296875 18.609375 23.390625 
Q 18.609375 15.53125 22.484375 10.953125 
Q 26.375 6.390625 33.015625 6.390625 
Q 39.65625 6.390625 43.53125 10.953125 
Q 47.40625 15.53125 47.40625 23.390625 
Q 47.40625 31.296875 43.53125 35.828125 
Q 39.65625 40.375 33.015625 40.375 
z
M 52.59375 71.296875 
L 52.59375 62.3125 
Q 48.875 64.0625 45.09375 64.984375 
Q 41.3125 65.921875 37.59375 65.921875 
Q 27.828125 65.921875 22.671875 59.328125 
Q 17.53125 52.734375 16.796875 39.40625 
Q 19.671875 43.65625 24.015625 45.921875 
Q 28.375 48.1875 33.59375 48.1875 
Q 44.578125 48.1875 50.953125 41.515625 
Q 57.328125 34.859375 57.328125 23.390625 
Q 57.328125 12.15625 50.6875 5.359375 
Q 44.046875 -1.421875 33.015625 -1.421875 
Q 20.359375 -1.421875 13.671875 8.265625 
Q 6.984375 17.96875 6.984375 36.375 
Q 6.984375 53.65625 15.1875 63.9375 
Q 23.390625 74.21875 37.203125 74.21875 
Q 40.921875 74.21875 44.703125 73.484375 
Q 48.484375 72.75 52.59375 71.296875 
z
" id="DejaVuSans-54"/>
      </defs>
      <g style="fill:#262626;" transform="translate(400.577898 303.028562)scale(0.1 -0.1)">
       <use xlink:href="#DejaVuSans-54"/>
       <use x="63.623047" xlink:href="#DejaVuSans-48"/>
      </g>
     </g>
    </g>
    <g id="text_8">
     <!-- time (days) -->
     <defs>
      <path d="M 18.3125 70.21875 
L 18.3125 54.6875 
L 36.8125 54.6875 
L 36.8125 47.703125 
L 18.3125 47.703125 
L 18.3125 18.015625 
Q 18.3125 11.328125 20.140625 9.421875 
Q 21.96875 7.515625 27.59375 7.515625 
L 36.8125 7.515625 
L 36.8125 0 
L 27.59375 0 
Q 17.1875 0 13.234375 3.875 
Q 9.28125 7.765625 9.28125 18.015625 
L 9.28125 47.703125 
L 2.6875 47.703125 
L 2.6875 54.6875 
L 9.28125 54.6875 
L 9.28125 70.21875 
z
" id="DejaVuSans-116"/>
      <path d="M 9.421875 54.6875 
L 18.40625 54.6875 
L 18.40625 0 
L 9.421875 0 
z
M 9.421875 75.984375 
L 18.40625 75.984375 
L 18.40625 64.59375 
L 9.421875 64.59375 
z
" id="DejaVuSans-105"/>
      <path d="M 52 44.1875 
Q 55.375 50.25 60.0625 53.125 
Q 64.75 56 71.09375 56 
Q 79.640625 56 84.28125 50.015625 
Q 88.921875 44.046875 88.921875 33.015625 
L 88.921875 0 
L 79.890625 0 
L 79.890625 32.71875 
Q 79.890625 40.578125 77.09375 44.375 
Q 74.3125 48.1875 68.609375 48.1875 
Q 61.625 48.1875 57.5625 43.546875 
Q 53.515625 38.921875 53.515625 30.90625 
L 53.515625 0 
L 44.484375 0 
L 44.484375 32.71875 
Q 44.484375 40.625 41.703125 44.40625 
Q 38.921875 48.1875 33.109375 48.1875 
Q 26.21875 48.1875 22.15625 43.53125 
Q 18.109375 38.875 18.109375 30.90625 
L 18.109375 0 
L 9.078125 0 
L 9.078125 54.6875 
L 18.109375 54.6875 
L 18.109375 46.1875 
Q 21.1875 51.21875 25.484375 53.609375 
Q 29.78125 56 35.6875 56 
Q 41.65625 56 45.828125 52.96875 
Q 50 49.953125 52 44.1875 
z
" id="DejaVuSans-109"/>
      <path d="M 56.203125 29.59375 
L 56.203125 25.203125 
L 14.890625 25.203125 
Q 15.484375 15.921875 20.484375 11.0625 
Q 25.484375 6.203125 34.421875 6.203125 
Q 39.59375 6.203125 44.453125 7.46875 
Q 49.3125 8.734375 54.109375 11.28125 
L 54.109375 2.78125 
Q 49.265625 0.734375 44.1875 -0.34375 
Q 39.109375 -1.421875 33.890625 -1.421875 
Q 20.796875 -1.421875 13.15625 6.1875 
Q 5.515625 13.8125 5.515625 26.8125 
Q 5.515625 40.234375 12.765625 48.109375 
Q 20.015625 56 32.328125 56 
Q 43.359375 56 49.78125 48.890625 
Q 56.203125 41.796875 56.203125 29.59375 
z
M 47.21875 32.234375 
Q 47.125 39.59375 43.09375 43.984375 
Q 39.0625 48.390625 32.421875 48.390625 
Q 24.90625 48.390625 20.390625 44.140625 
Q 15.875 39.890625 15.1875 32.171875 
z
" id="DejaVuSans-101"/>
      <path id="DejaVuSans-32"/>
      <path d="M 31 75.875 
Q 24.46875 64.65625 21.28125 53.65625 
Q 18.109375 42.671875 18.109375 31.390625 
Q 18.109375 20.125 21.3125 9.0625 
Q 24.515625 -2 31 -13.1875 
L 23.1875 -13.1875 
Q 15.875 -1.703125 12.234375 9.375 
Q 8.59375 20.453125 8.59375 31.390625 
Q 8.59375 42.28125 12.203125 53.3125 
Q 15.828125 64.359375 23.1875 75.875 
z
" id="DejaVuSans-40"/>
      <path d="M 45.40625 46.390625 
L 45.40625 75.984375 
L 54.390625 75.984375 
L 54.390625 0 
L 45.40625 0 
L 45.40625 8.203125 
Q 42.578125 3.328125 38.25 0.953125 
Q 33.9375 -1.421875 27.875 -1.421875 
Q 17.96875 -1.421875 11.734375 6.484375 
Q 5.515625 14.40625 5.515625 27.296875 
Q 5.515625 40.1875 11.734375 48.09375 
Q 17.96875 56 27.875 56 
Q 33.9375 56 38.25 53.625 
Q 42.578125 51.265625 45.40625 46.390625 
z
M 14.796875 27.296875 
Q 14.796875 17.390625 18.875 11.75 
Q 22.953125 6.109375 30.078125 6.109375 
Q 37.203125 6.109375 41.296875 11.75 
Q 45.40625 17.390625 45.40625 27.296875 
Q 45.40625 37.203125 41.296875 42.84375 
Q 37.203125 48.484375 30.078125 48.484375 
Q 22.953125 48.484375 18.875 42.84375 
Q 14.796875 37.203125 14.796875 27.296875 
z
" id="DejaVuSans-100"/>
      <path d="M 34.28125 27.484375 
Q 23.390625 27.484375 19.1875 25 
Q 14.984375 22.515625 14.984375 16.5 
Q 14.984375 11.71875 18.140625 8.90625 
Q 21.296875 6.109375 26.703125 6.109375 
Q 34.1875 6.109375 38.703125 11.40625 
Q 43.21875 16.703125 43.21875 25.484375 
L 43.21875 27.484375 
z
M 52.203125 31.203125 
L 52.203125 0 
L 43.21875 0 
L 43.21875 8.296875 
Q 40.140625 3.328125 35.546875 0.953125 
Q 30.953125 -1.421875 24.3125 -1.421875 
Q 15.921875 -1.421875 10.953125 3.296875 
Q 6 8.015625 6 15.921875 
Q 6 25.140625 12.171875 29.828125 
Q 18.359375 34.515625 30.609375 34.515625 
L 43.21875 34.515625 
L 43.21875 35.40625 
Q 43.21875 41.609375 39.140625 45 
Q 35.0625 48.390625 27.6875 48.390625 
Q 23 48.390625 18.546875 47.265625 
Q 14.109375 46.140625 10.015625 43.890625 
L 10.015625 52.203125 
Q 14.9375 54.109375 19.578125 55.046875 
Q 24.21875 56 28.609375 56 
Q 40.484375 56 46.34375 49.84375 
Q 52.203125 43.703125 52.203125 31.203125 
z
" id="DejaVuSans-97"/>
      <path d="M 32.171875 -5.078125 
Q 28.375 -14.84375 24.75 -17.8125 
Q 21.140625 -20.796875 15.09375 -20.796875 
L 7.90625 -20.796875 
L 7.90625 -13.28125 
L 13.1875 -13.28125 
Q 16.890625 -13.28125 18.9375 -11.515625 
Q 21 -9.765625 23.484375 -3.21875 
L 25.09375 0.875 
L 2.984375 54.6875 
L 12.5 54.6875 
L 29.59375 11.921875 
L 46.6875 54.6875 
L 56.203125 54.6875 
z
" id="DejaVuSans-121"/>
      <path d="M 44.28125 53.078125 
L 44.28125 44.578125 
Q 40.484375 46.53125 36.375 47.5 
Q 32.28125 48.484375 27.875 48.484375 
Q 21.1875 48.484375 17.84375 46.4375 
Q 14.5 44.390625 14.5 40.28125 
Q 14.5 37.15625 16.890625 35.375 
Q 19.28125 33.59375 26.515625 31.984375 
L 29.59375 31.296875 
Q 39.15625 29.25 43.1875 25.515625 
Q 47.21875 21.78125 47.21875 15.09375 
Q 47.21875 7.46875 41.1875 3.015625 
Q 35.15625 -1.421875 24.609375 -1.421875 
Q 20.21875 -1.421875 15.453125 -0.5625 
Q 10.6875 0.296875 5.421875 2 
L 5.421875 11.28125 
Q 10.40625 8.6875 15.234375 7.390625 
Q 20.0625 6.109375 24.8125 6.109375 
Q 31.15625 6.109375 34.5625 8.28125 
Q 37.984375 10.453125 37.984375 14.40625 
Q 37.984375 18.0625 35.515625 20.015625 
Q 33.0625 21.96875 24.703125 23.78125 
L 21.578125 24.515625 
Q 13.234375 26.265625 9.515625 29.90625 
Q 5.8125 33.546875 5.8125 39.890625 
Q 5.8125 47.609375 11.28125 51.796875 
Q 16.75 56 26.8125 56 
Q 31.78125 56 36.171875 55.265625 
Q 40.578125 54.546875 44.28125 53.078125 
z
" id="DejaVuSans-115"/>
      <path d="M 8.015625 75.875 
L 15.828125 75.875 
Q 23.140625 64.359375 26.78125 53.3125 
Q 30.421875 42.28125 30.421875 31.390625 
Q 30.421875 20.453125 26.78125 9.375 
Q 23.140625 -1.703125 15.828125 -13.1875 
L 8.015625 -13.1875 
Q 14.5 -2 17.703125 9.0625 
Q 20.90625 20.125 20.90625 31.390625 
Q 20.90625 42.671875 17.703125 53.65625 
Q 14.5 64.65625 8.015625 75.875 
z
" id="DejaVuSans-41"/>
     </defs>
     <g style="fill:#262626;" transform="translate(216.024063 316.706687)scale(0.1 -0.1)">
      <use xlink:href="#DejaVuSans-116"/>
      <use x="39.208984" xlink:href="#DejaVuSans-105"/>
      <use x="66.992188" xlink:href="#DejaVuSans-109"/>
      <use x="164.404297" xlink:href="#DejaVuSans-101"/>
      <use x="225.927734" xlink:href="#DejaVuSans-32"/>
      <use x="257.714844" xlink:href="#DejaVuSans-40"/>
      <use x="296.728516" xlink:href="#DejaVuSans-100"/>
      <use x="360.205078" xlink:href="#DejaVuSans-97"/>
      <use x="421.484375" xlink:href="#DejaVuSans-121"/>
      <use x="480.664062" xlink:href="#DejaVuSans-115"/>
      <use x="532.763672" xlink:href="#DejaVuSans-41"/>
     </g>
    </g>
   </g>
   <g id="matplotlib.axis_2">
    <g id="ytick_1">
     <g id="line2d_8">
      <path clip-path="url(#p35491763ab)" d="M 66.053125 276.334125 
L 423.173125 276.334125 
" style="fill:none;stroke:#cccccc;stroke-linecap:round;stroke-width:0.8;"/>
     </g>
     <g id="text_9">
      <!-- 0 -->
      <g style="fill:#262626;" transform="translate(52.690625 280.133344)scale(0.1 -0.1)">
       <use xlink:href="#DejaVuSans-48"/>
      </g>
     </g>
    </g>
    <g id="ytick_2">
     <g id="line2d_9">
      <path clip-path="url(#p35491763ab)" d="M 66.053125 227.950125 
L 423.173125 227.950125 
" style="fill:none;stroke:#cccccc;stroke-linecap:round;stroke-width:0.8;"/>
     </g>
     <g id="text_10">
      <!-- 50000 -->
      <g style="fill:#262626;" transform="translate(27.240625 231.749344)scale(0.1 -0.1)">
       <use xlink:href="#DejaVuSans-53"/>
       <use x="63.623047" xlink:href="#DejaVuSans-48"/>
       <use x="127.246094" xlink:href="#DejaVuSans-48"/>
       <use x="190.869141" xlink:href="#DejaVuSans-48"/>
       <use x="254.492188" xlink:href="#DejaVuSans-48"/>
      </g>
     </g>
    </g>
    <g id="ytick_3">
     <g id="line2d_10">
      <path clip-path="url(#p35491763ab)" d="M 66.053125 179.566125 
L 423.173125 179.566125 
" style="fill:none;stroke:#cccccc;stroke-linecap:round;stroke-width:0.8;"/>
     </g>
     <g id="text_11">
      <!-- 100000 -->
      <g style="fill:#262626;" transform="translate(20.878125 183.365344)scale(0.1 -0.1)">
       <use xlink:href="#DejaVuSans-49"/>
       <use x="63.623047" xlink:href="#DejaVuSans-48"/>
       <use x="127.246094" xlink:href="#DejaVuSans-48"/>
       <use x="190.869141" xlink:href="#DejaVuSans-48"/>
       <use x="254.492188" xlink:href="#DejaVuSans-48"/>
       <use x="318.115234" xlink:href="#DejaVuSans-48"/>
      </g>
     </g>
    </g>
    <g id="ytick_4">
     <g id="line2d_11">
      <path clip-path="url(#p35491763ab)" d="M 66.053125 131.182125 
L 423.173125 131.182125 
" style="fill:none;stroke:#cccccc;stroke-linecap:round;stroke-width:0.8;"/>
     </g>
     <g id="text_12">
      <!-- 150000 -->
      <g style="fill:#262626;" transform="translate(20.878125 134.981344)scale(0.1 -0.1)">
       <use xlink:href="#DejaVuSans-49"/>
       <use x="63.623047" xlink:href="#DejaVuSans-53"/>
       <use x="127.246094" xlink:href="#DejaVuSans-48"/>
       <use x="190.869141" xlink:href="#DejaVuSans-48"/>
       <use x="254.492188" xlink:href="#DejaVuSans-48"/>
       <use x="318.115234" xlink:href="#DejaVuSans-48"/>
      </g>
     </g>
    </g>
    <g id="ytick_5">
     <g id="line2d_12">
      <path clip-path="url(#p35491763ab)" d="M 66.053125 82.798125 
L 423.173125 82.798125 
" style="fill:none;stroke:#cccccc;stroke-linecap:round;stroke-width:0.8;"/>
     </g>
     <g id="text_13">
      <!-- 200000 -->
      <g style="fill:#262626;" transform="translate(20.878125 86.597344)scale(0.1 -0.1)">
       <use xlink:href="#DejaVuSans-50"/>
       <use x="63.623047" xlink:href="#DejaVuSans-48"/>
       <use x="127.246094" xlink:href="#DejaVuSans-48"/>
       <use x="190.869141" xlink:href="#DejaVuSans-48"/>
       <use x="254.492188" xlink:href="#DejaVuSans-48"/>
       <use x="318.115234" xlink:href="#DejaVuSans-48"/>
      </g>
     </g>
    </g>
    <g id="ytick_6">
     <g id="line2d_13">
      <path clip-path="url(#p35491763ab)" d="M 66.053125 34.414125 
L 423.173125 34.414125 
" style="fill:none;stroke:#cccccc;stroke-linecap:round;stroke-width:0.8;"/>
     </g>
     <g id="text_14">
      <!-- 250000 -->
      <g style="fill:#262626;" transform="translate(20.878125 38.213344)scale(0.1 -0.1)">
       <use xlink:href="#DejaVuSans-50"/>
       <use x="63.623047" xlink:href="#DejaVuSans-53"/>
       <use x="127.246094" xlink:href="#DejaVuSans-48"/>
       <use x="190.869141" xlink:href="#DejaVuSans-48"/>
       <use x="254.492188" xlink:href="#DejaVuSans-48"/>
       <use x="318.115234" xlink:href="#DejaVuSans-48"/>
      </g>
     </g>
    </g>
    <g id="text_15">
     <!-- cells number -->
     <defs>
      <path d="M 48.78125 52.59375 
L 48.78125 44.1875 
Q 44.96875 46.296875 41.140625 47.34375 
Q 37.3125 48.390625 33.40625 48.390625 
Q 24.65625 48.390625 19.8125 42.84375 
Q 14.984375 37.3125 14.984375 27.296875 
Q 14.984375 17.28125 19.8125 11.734375 
Q 24.65625 6.203125 33.40625 6.203125 
Q 37.3125 6.203125 41.140625 7.25 
Q 44.96875 8.296875 48.78125 10.40625 
L 48.78125 2.09375 
Q 45.015625 0.34375 40.984375 -0.53125 
Q 36.96875 -1.421875 32.421875 -1.421875 
Q 20.0625 -1.421875 12.78125 6.34375 
Q 5.515625 14.109375 5.515625 27.296875 
Q 5.515625 40.671875 12.859375 48.328125 
Q 20.21875 56 33.015625 56 
Q 37.15625 56 41.109375 55.140625 
Q 45.0625 54.296875 48.78125 52.59375 
z
" id="DejaVuSans-99"/>
      <path d="M 9.421875 75.984375 
L 18.40625 75.984375 
L 18.40625 0 
L 9.421875 0 
z
" id="DejaVuSans-108"/>
      <path d="M 54.890625 33.015625 
L 54.890625 0 
L 45.90625 0 
L 45.90625 32.71875 
Q 45.90625 40.484375 42.875 44.328125 
Q 39.84375 48.1875 33.796875 48.1875 
Q 26.515625 48.1875 22.3125 43.546875 
Q 18.109375 38.921875 18.109375 30.90625 
L 18.109375 0 
L 9.078125 0 
L 9.078125 54.6875 
L 18.109375 54.6875 
L 18.109375 46.1875 
Q 21.34375 51.125 25.703125 53.5625 
Q 30.078125 56 35.796875 56 
Q 45.21875 56 50.046875 50.171875 
Q 54.890625 44.34375 54.890625 33.015625 
z
" id="DejaVuSans-110"/>
      <path d="M 8.5 21.578125 
L 8.5 54.6875 
L 17.484375 54.6875 
L 17.484375 21.921875 
Q 17.484375 14.15625 20.5 10.265625 
Q 23.53125 6.390625 29.59375 6.390625 
Q 36.859375 6.390625 41.078125 11.03125 
Q 45.3125 15.671875 45.3125 23.6875 
L 45.3125 54.6875 
L 54.296875 54.6875 
L 54.296875 0 
L 45.3125 0 
L 45.3125 8.40625 
Q 42.046875 3.421875 37.71875 1 
Q 33.40625 -1.421875 27.6875 -1.421875 
Q 18.265625 -1.421875 13.375 4.4375 
Q 8.5 10.296875 8.5 21.578125 
z
M 31.109375 56 
z
" id="DejaVuSans-117"/>
      <path d="M 48.6875 27.296875 
Q 48.6875 37.203125 44.609375 42.84375 
Q 40.53125 48.484375 33.40625 48.484375 
Q 26.265625 48.484375 22.1875 42.84375 
Q 18.109375 37.203125 18.109375 27.296875 
Q 18.109375 17.390625 22.1875 11.75 
Q 26.265625 6.109375 33.40625 6.109375 
Q 40.53125 6.109375 44.609375 11.75 
Q 48.6875 17.390625 48.6875 27.296875 
z
M 18.109375 46.390625 
Q 20.953125 51.265625 25.265625 53.625 
Q 29.59375 56 35.59375 56 
Q 45.5625 56 51.78125 48.09375 
Q 58.015625 40.1875 58.015625 27.296875 
Q 58.015625 14.40625 51.78125 6.484375 
Q 45.5625 -1.421875 35.59375 -1.421875 
Q 29.59375 -1.421875 25.265625 0.953125 
Q 20.953125 3.328125 18.109375 8.203125 
L 18.109375 0 
L 9.078125 0 
L 9.078125 75.984375 
L 18.109375 75.984375 
z
" id="DejaVuSans-98"/>
      <path d="M 41.109375 46.296875 
Q 39.59375 47.171875 37.8125 47.578125 
Q 36.03125 48 33.890625 48 
Q 26.265625 48 22.1875 43.046875 
Q 18.109375 38.09375 18.109375 28.8125 
L 18.109375 0 
L 9.078125 0 
L 9.078125 54.6875 
L 18.109375 54.6875 
L 18.109375 46.1875 
Q 20.953125 51.171875 25.484375 53.578125 
Q 30.03125 56 36.53125 56 
Q 37.453125 56 38.578125 55.875 
Q 39.703125 55.765625 41.0625 55.515625 
z
" id="DejaVuSans-114"/>
     </defs>
     <g style="fill:#262626;" transform="translate(14.798438 187.685844)rotate(-90)scale(0.1 -0.1)">
      <use xlink:href="#DejaVuSans-99"/>
      <use x="54.980469" xlink:href="#DejaVuSans-101"/>
      <use x="116.503906" xlink:href="#DejaVuSans-108"/>
      <use x="144.287109" xlink:href="#DejaVuSans-108"/>
      <use x="172.070312" xlink:href="#DejaVuSans-115"/>
      <use x="224.169922" xlink:href="#DejaVuSans-32"/>
      <use x="255.957031" xlink:href="#DejaVuSans-110"/>
      <use x="319.335938" xlink:href="#DejaVuSans-117"/>
      <use x="382.714844" xlink:href="#DejaVuSans-109"/>
      <use x="480.126953" xlink:href="#DejaVuSans-98"/>
      <use x="543.603516" xlink:href="#DejaVuSans-101"/>
      <use x="605.126953" xlink:href="#DejaVuSans-114"/>
     </g>
    </g>
   </g>
   <g id="line2d_14">
    <path clip-path="url(#p35491763ab)" d="M 82.285852 276.334125 
L 82.826943 224.031989 
L 83.368034 247.177927 
L 83.909125 256.334115 
L 84.450216 260.745768 
L 85.532398 264.116197 
L 86.61458 265.455466 
L 87.15567 265.75448 
L 87.696761 265.846409 
L 88.237852 266.082523 
L 88.778943 266.127036 
L 89.320034 265.9335 
L 89.861125 265.953822 
L 90.402216 265.55417 
L 90.943307 265.513527 
L 91.484398 264.923242 
L 92.025489 264.693902 
L 92.56658 264.772284 
L 93.10767 264.447144 
L 93.648761 263.469787 
L 95.813125 261.369921 
L 96.895307 259.872921 
L 98.51858 258.070133 
L 100.682943 254.441333 
L 101.224034 253.211411 
L 101.765125 252.575646 
L 102.306216 251.665059 
L 103.388398 249.107481 
L 103.929489 248.12335 
L 104.47058 246.79279 
L 105.552761 243.435908 
L 106.634943 240.443841 
L 107.176034 238.705888 
L 108.799307 232.34436 
L 109.340398 230.753494 
L 109.881489 228.119469 
L 110.42258 226.268297 
L 110.96367 223.761038 
L 111.504761 221.883739 
L 112.586943 216.560531 
L 113.669125 212.15662 
L 114.210216 209.64549 
L 115.292398 203.357505 
L 115.833489 201.406663 
L 117.997852 189.366788 
L 119.080034 183.881978 
L 119.621125 179.980292 
L 121.785489 168.334263 
L 123.949852 152.922024 
L 125.032034 148.066206 
L 125.573125 145.907312 
L 126.114216 142.698485 
L 127.196398 138.748415 
L 128.27858 135.195094 
L 128.81967 132.385919 
L 130.442943 126.243086 
L 132.066216 121.071804 
L 132.607307 120.06832 
L 133.689489 118.622606 
L 134.23058 117.348172 
L 134.77167 116.579834 
L 135.312761 115.311205 
L 135.853852 114.567059 
L 136.936034 112.211726 
L 137.477125 111.928196 
L 138.018216 111.38436 
L 138.559307 110.155406 
L 139.100398 108.029413 
L 140.18258 103.00038 
L 140.72367 101.862389 
L 141.805852 98.113596 
L 142.346943 97.211719 
L 143.970216 92.735231 
L 144.511307 91.653365 
L 145.052398 90.23281 
L 145.593489 88.413572 
L 146.13458 87.70523 
L 146.67567 88.007146 
L 147.216761 88.744519 
L 147.757852 90.309257 
L 148.840034 96.433704 
L 149.381125 99.30094 
L 149.922216 102.899742 
L 151.004398 111.724016 
L 152.08658 117.625896 
L 153.709852 123.22586 
L 154.250943 123.958394 
L 154.792034 124.149027 
L 155.333125 123.590675 
L 155.874216 123.327466 
L 156.415307 122.667509 
L 156.956398 121.31566 
L 157.497489 119.507066 
L 158.03858 118.094253 
L 159.120761 113.047802 
L 160.202943 108.518092 
L 161.285125 105.191208 
L 161.826216 104.914451 
L 162.908398 104.771235 
L 163.449489 104.749946 
L 163.99058 104.582537 
L 164.53167 104.080311 
L 165.613852 104.822522 
L 166.154943 104.446094 
L 166.696034 103.640017 
L 167.237125 102.616211 
L 167.778216 101.255653 
L 168.860398 99.574793 
L 169.401489 98.636144 
L 169.94258 98.26649 
L 170.48367 98.150368 
L 171.024761 98.258748 
L 171.565852 97.416867 
L 172.106943 97.120757 
L 173.730216 93.275196 
L 175.89458 86.357252 
L 176.43567 84.206099 
L 177.517852 77.239771 
L 178.600034 69.662837 
L 179.141125 66.675609 
L 179.682216 64.906689 
L 180.764398 59.802177 
L 181.84658 53.955455 
L 183.469852 47.42555 
L 184.010943 45.505673 
L 185.093125 42.723593 
L 186.175307 40.770815 
L 188.33967 37.525216 
L 189.421852 36.536247 
L 191.045125 35.603404 
L 193.75058 34.970541 
L 196.456034 34.718944 
L 198.620398 34.514764 
L 202.408034 34.419931 
L 267.338943 34.414125 
L 406.940398 34.414125 
L 406.940398 34.414125 
" style="fill:none;stroke:#000080;stroke-linecap:round;stroke-width:1.5;"/>
   </g>
   <g id="line2d_15">
    <path clip-path="url(#p35491763ab)" d="M 82.285852 276.334125 
L 82.826943 223.913932 
L 83.368034 247.220505 
L 83.909125 256.247991 
L 84.450216 260.001622 
L 84.991307 262.439208 
L 85.532398 263.86073 
L 86.073489 264.831313 
L 86.61458 265.326765 
L 87.696761 265.703193 
L 88.237852 266.176388 
L 89.320034 265.626746 
L 89.861125 265.848345 
L 90.402216 265.448693 
L 90.943307 265.495141 
L 92.025489 264.663904 
L 92.56658 264.454885 
L 93.10767 263.878148 
L 94.189852 263.157226 
L 94.730943 262.398565 
L 95.272034 262.182773 
L 95.813125 261.707642 
L 98.51858 258.138838 
L 99.05967 257.639515 
L 99.600761 256.699898 
L 100.141852 256.02736 
L 103.388398 249.684218 
L 106.634943 241.045738 
L 107.717125 237.647246 
L 108.258216 236.088314 
L 108.799307 233.719433 
L 110.42258 228.029475 
L 113.128034 214.139396 
L 114.751307 207.489499 
L 115.833489 204.989982 
L 116.91567 201.11152 
L 117.997852 197.266928 
L 118.538943 195.831858 
L 120.162216 189.309695 
L 120.703307 187.727538 
L 121.244398 186.54213 
L 122.86767 181.292466 
L 123.949852 177.021127 
L 125.032034 173.024608 
L 126.655307 166.91758 
L 127.196398 165.207689 
L 127.737489 162.425609 
L 129.360761 156.795647 
L 132.066216 149.717068 
L 132.607307 148.682618 
L 133.689489 145.309285 
L 134.23058 143.579073 
L 134.77167 142.820412 
L 135.853852 140.382826 
L 136.394943 139.583523 
L 139.100398 134.451916 
L 140.72367 129.651255 
L 142.888034 124.433525 
L 143.429125 122.610416 
L 143.970216 121.996906 
L 144.511307 121.675637 
L 145.052398 121.155025 
L 145.593489 120.357657 
L 146.13458 118.236502 
L 146.67567 116.619509 
L 147.757852 110.87536 
L 148.298943 107.510737 
L 150.463307 89.847674 
L 151.545489 83.607105 
L 152.08658 81.367894 
L 154.792034 66.17435 
L 155.874216 63.294535 
L 156.415307 62.385883 
L 156.956398 61.764633 
L 157.497489 61.606901 
L 158.03858 60.977909 
L 158.57967 61.176283 
L 159.120761 61.150156 
L 159.661852 61.909785 
L 160.202943 62.405237 
L 160.744034 63.764827 
L 161.826216 68.792892 
L 162.367307 71.541104 
L 163.99058 78.299381 
L 165.613852 87.035596 
L 167.237125 99.592211 
L 168.860398 111.337911 
L 169.94258 117.662668 
L 170.48367 120.1767 
L 171.024761 121.47823 
L 171.565852 123.437782 
L 172.106943 124.822532 
L 172.648034 126.694025 
L 173.189125 127.370433 
L 173.730216 127.679123 
L 174.271307 128.311986 
L 175.89458 126.942719 
L 176.976761 125.518294 
L 177.517852 124.027099 
L 178.058943 122.963619 
L 178.600034 121.139542 
L 180.764398 112.088831 
L 181.84658 108.532607 
L 182.38767 106.590473 
L 182.928761 103.623566 
L 184.010943 96.848839 
L 185.093125 91.685298 
L 185.634216 89.579626 
L 186.716398 84.539949 
L 187.257489 82.629749 
L 188.880761 80.221193 
L 189.421852 79.891214 
L 190.504034 78.636133 
L 192.127307 75.010236 
L 192.668398 74.514784 
L 193.209489 73.668064 
L 193.75058 71.60497 
L 194.29167 70.093454 
L 195.373852 65.983717 
L 196.456034 61.608836 
L 197.538216 57.462327 
L 198.620398 55.205697 
L 199.161489 54.423812 
L 200.24367 52.068479 
L 200.784761 51.080478 
L 201.325852 50.38278 
L 201.866943 50.001514 
L 202.408034 49.483806 
L 202.949125 48.655472 
L 203.490216 48.424196 
L 204.031307 47.778753 
L 204.572398 47.363619 
L 205.113489 47.120731 
L 205.65458 47.025898 
L 206.736761 45.740819 
L 207.277852 44.570894 
L 208.360034 41.924289 
L 209.442216 39.925063 
L 210.524398 38.436771 
L 211.60658 37.262975 
L 213.770943 36.012732 
L 215.394216 35.525989 
L 217.017489 35.158271 
L 220.264034 34.818615 
L 230.00367 34.423802 
L 252.188398 34.414125 
L 406.940398 34.414125 
L 406.940398 34.414125 
" style="fill:none;stroke:#0000f1;stroke-linecap:round;stroke-width:1.5;"/>
   </g>
   <g id="line2d_16">
    <path clip-path="url(#p35491763ab)" d="M 82.285852 276.334125 
L 82.826943 223.588791 
L 83.368034 246.770533 
L 83.909125 256.029296 
L 84.450216 260.076133 
L 84.991307 262.375341 
L 85.532398 263.881051 
L 86.073489 264.818733 
L 86.61458 265.092586 
L 87.15567 265.694483 
L 89.320034 265.8377 
L 89.861125 265.857054 
L 90.402216 265.398373 
L 90.943307 265.510624 
L 91.484398 265.01614 
L 92.025489 264.776155 
L 92.56658 264.412307 
L 93.648761 263.295605 
L 94.189852 263.314958 
L 94.730943 262.497269 
L 96.354216 260.944142 
L 96.895307 259.853567 
L 97.436398 259.541006 
L 98.51858 258.3256 
L 99.05967 257.247605 
L 99.600761 256.755056 
L 100.682943 254.431656 
L 102.847307 250.433202 
L 103.929489 247.848529 
L 104.47058 246.816014 
L 105.01167 245.19515 
L 105.552761 244.002969 
L 107.176034 239.086186 
L 107.717125 237.569832 
L 109.340398 231.796653 
L 109.881489 230.19224 
L 111.504761 223.453316 
L 112.045852 220.648012 
L 113.128034 216.5944 
L 114.210216 210.847349 
L 115.833489 202.54659 
L 116.37458 199.584521 
L 117.456761 195.345115 
L 117.997852 193.477493 
L 119.621125 185.783469 
L 120.162216 184.071643 
L 120.703307 181.967907 
L 121.244398 180.564771 
L 122.86767 174.28356 
L 125.032034 163.520055 
L 126.655307 157.24078 
L 127.196398 155.289937 
L 127.737489 154.330966 
L 128.27858 153.776485 
L 129.360761 152.174007 
L 129.901852 151.916604 
L 130.442943 151.24697 
L 130.984034 151.607914 
L 131.525125 152.49818 
L 132.066216 152.639461 
L 132.607307 153.134913 
L 133.148398 152.588174 
L 133.689489 152.593013 
L 134.77167 152.287226 
L 135.312761 151.701779 
L 135.853852 150.620881 
L 136.394943 148.672941 
L 136.936034 147.63075 
L 137.477125 146.063108 
L 138.559307 144.839961 
L 139.100398 144.182906 
L 139.641489 143.294576 
L 140.18258 143.340057 
L 140.72367 142.82138 
L 141.805852 140.103167 
L 142.346943 138.156195 
L 143.970216 130.101226 
L 145.593489 122.962651 
L 146.13458 121.420169 
L 147.216761 119.847689 
L 148.298943 117.341398 
L 148.840034 116.244049 
L 149.381125 115.82214 
L 149.922216 115.126378 
L 151.004398 112.191405 
L 152.08658 108.780333 
L 152.62767 108.210369 
L 154.792034 102.371388 
L 156.415307 98.084566 
L 156.956398 97.166238 
L 157.497489 96.86916 
L 158.03858 97.373321 
L 158.57967 98.171657 
L 159.661852 98.385514 
L 160.202943 97.51557 
L 160.744034 96.925285 
L 161.285125 95.679881 
L 161.826216 93.812259 
L 162.367307 92.451701 
L 163.449489 88.647751 
L 165.613852 77.630714 
L 166.696034 74.216739 
L 167.237125 72.527169 
L 168.319307 70.325697 
L 168.860398 70.081842 
L 169.401489 70.786313 
L 169.94258 71.794636 
L 170.48367 71.833343 
L 171.024761 72.046233 
L 171.565852 71.935917 
L 172.106943 72.208803 
L 172.648034 72.128485 
L 173.189125 71.661096 
L 174.271307 70.263766 
L 174.812398 69.174158 
L 175.353489 68.515168 
L 175.89458 68.217123 
L 176.43567 67.685866 
L 178.058943 65.279246 
L 179.141125 63.950622 
L 181.305489 63.017778 
L 182.928761 60.523099 
L 183.469852 59.186733 
L 184.552034 57.756502 
L 185.093125 57.929717 
L 185.634216 58.513228 
L 186.716398 60.085708 
L 187.79858 60.992424 
L 188.33967 62.080096 
L 189.421852 65.290858 
L 189.962943 66.606903 
L 190.504034 67.001717 
L 191.045125 67.135257 
L 191.586216 66.9543 
L 192.668398 66.017586 
L 193.209489 65.927592 
L 193.75058 65.504716 
L 194.29167 64.929914 
L 194.832761 64.658963 
L 195.373852 63.76773 
L 198.620398 51.749145 
L 199.161489 50.315043 
L 199.70258 49.376393 
L 200.24367 48.851911 
L 200.784761 48.74353 
L 201.325852 49.240918 
L 204.031307 53.248081 
L 204.572398 53.258725 
L 205.113489 53.105832 
L 205.65458 52.571673 
L 206.19567 52.25137 
L 206.736761 52.353945 
L 207.277852 52.739081 
L 207.818943 53.543223 
L 208.360034 53.847075 
L 208.901125 54.009645 
L 209.983307 53.726115 
L 211.065489 54.35801 
L 212.14767 54.183827 
L 212.688761 54.146088 
L 213.229852 54.556384 
L 213.770943 55.526 
L 214.853125 59.247697 
L 215.935307 63.590645 
L 216.476398 64.809921 
L 218.640761 72.415886 
L 220.264034 79.026108 
L 220.805125 80.499885 
L 221.346216 81.613685 
L 222.428398 81.797544 
L 222.969489 82.16623 
L 223.51058 82.270739 
L 224.592761 81.129845 
L 225.133852 79.808961 
L 225.674943 77.538784 
L 229.46258 52.2475 
L 230.544761 47.657793 
L 231.626943 43.811265 
L 232.709125 41.303039 
L 234.873489 38.188077 
L 235.41458 37.513604 
L 237.037852 36.391095 
L 238.661125 35.748556 
L 240.825489 35.039246 
L 245.154216 34.567018 
L 251.106216 34.431543 
L 259.76367 34.414125 
L 406.940398 34.414125 
L 406.940398 34.414125 
" style="fill:none;stroke:#004cff;stroke-linecap:round;stroke-width:1.5;"/>
   </g>
   <g id="line2d_17">
    <path clip-path="url(#p35491763ab)" d="M 82.285852 276.334125 
L 82.826943 223.753297 
L 83.368034 246.9931 
L 83.909125 256.316697 
L 84.450216 260.297732 
L 84.991307 262.197288 
L 85.532398 263.622681 
L 86.61458 265.370311 
L 87.15567 265.505786 
L 87.696761 265.782542 
L 88.778943 265.9335 
L 89.320034 265.669324 
L 90.402216 265.62481 
L 90.943307 265.279349 
L 92.025489 264.877761 
L 92.56658 264.258446 
L 93.10767 263.953627 
L 93.648761 263.330441 
L 94.189852 263.204643 
L 95.272034 262.024073 
L 95.813125 261.692159 
L 96.895307 260.092584 
L 97.436398 259.536168 
L 97.977489 258.706866 
L 98.51858 258.168836 
L 102.847307 250.437073 
L 103.388398 249.65809 
L 104.47058 246.403783 
L 105.552761 243.666216 
L 106.093852 242.128572 
L 107.176034 238.690405 
L 107.717125 237.27856 
L 108.258216 234.775172 
L 109.881489 228.664273 
L 110.42258 226.220881 
L 110.96367 224.478089 
L 113.128034 214.564208 
L 114.751307 205.338346 
L 115.292398 203.375891 
L 117.456761 187.479812 
L 119.080034 177.242725 
L 119.621125 172.841717 
L 121.244398 163.78907 
L 122.32658 156.146334 
L 123.949852 142.356894 
L 125.032034 135.069296 
L 126.655307 125.001553 
L 127.737489 116.85272 
L 128.27858 112.763304 
L 129.360761 107.837813 
L 130.442943 100.607308 
L 130.984034 96.394997 
L 134.23058 65.314083 
L 135.853852 54.603801 
L 137.477125 47.526189 
L 138.559307 44.028026 
L 139.641489 41.496575 
L 141.264761 38.959318 
L 141.805852 38.199689 
L 143.429125 36.833325 
L 144.511307 36.113371 
L 145.593489 35.610177 
L 146.67567 35.281166 
L 148.298943 34.915383 
L 153.709852 34.540891 
L 162.908398 34.415093 
L 225.133852 34.414125 
L 406.940398 34.414125 
L 406.940398 34.414125 
" style="fill:none;stroke:#00b0ff;stroke-linecap:round;stroke-width:1.5;"/>
   </g>
   <g id="line2d_18">
    <path clip-path="url(#p35491763ab)" d="M 82.285852 276.334125 
L 82.826943 223.957477 
L 83.368034 247.067611 
L 83.909125 256.243153 
L 84.450216 260.269669 
L 84.991307 262.354052 
L 86.073489 264.759705 
L 86.61458 265.084845 
L 87.15567 265.688677 
L 88.237852 265.92963 
L 88.778943 265.806734 
L 89.320034 265.909308 
L 89.861125 265.47482 
L 90.402216 265.351925 
L 90.943307 265.464176 
L 92.025489 264.700676 
L 93.10767 263.851053 
L 93.648761 263.611068 
L 94.189852 262.951111 
L 95.272034 262.180837 
L 95.813125 261.829569 
L 96.354216 261.026395 
L 96.895307 260.571585 
L 97.977489 259.002009 
L 98.51858 258.503653 
L 99.05967 257.222445 
L 99.600761 256.461849 
L 100.141852 255.432237 
L 100.682943 254.68422 
L 101.224034 253.623643 
L 101.765125 252.93272 
L 102.306216 251.797631 
L 102.847307 251.012842 
L 106.093852 243.18915 
L 106.634943 242.473066 
L 107.717125 238.693308 
L 108.258216 237.655955 
L 110.96367 230.030637 
L 111.504761 227.650144 
L 113.128034 222.368547 
L 113.669125 220.337386 
L 114.210216 217.862061 
L 114.751307 216.053467 
L 115.833489 211.382476 
L 116.37458 209.529369 
L 116.91567 207.126619 
L 117.456761 204.078427 
L 117.997852 202.430468 
L 118.538943 199.9145 
L 119.080034 197.993655 
L 120.162216 193.658449 
L 120.703307 191.585678 
L 121.244398 188.342015 
L 121.785489 186.069902 
L 122.32658 184.304854 
L 122.86767 180.977002 
L 123.408761 178.562641 
L 123.949852 176.936938 
L 126.655307 166.350519 
L 127.196398 163.888741 
L 127.737489 162.682044 
L 128.27858 161.186011 
L 128.81967 159.334839 
L 129.901852 156.999827 
L 130.442943 156.425993 
L 130.984034 155.365416 
L 131.525125 154.672557 
L 132.066216 153.162009 
L 132.607307 153.072982 
L 134.23058 152.107237 
L 134.77167 151.499534 
L 135.312761 152.257228 
L 135.853852 152.011437 
L 136.394943 151.246002 
L 136.936034 150.807643 
L 140.72367 142.038527 
L 141.264761 140.486368 
L 143.429125 136.201481 
L 143.970216 134.588359 
L 145.052398 132.972333 
L 145.593489 132.520426 
L 146.13458 131.365017 
L 148.298943 127.650093 
L 149.381125 125.813436 
L 149.922216 124.210958 
L 150.463307 123.459071 
L 152.08658 120.167024 
L 152.62767 119.479003 
L 154.792034 115.737952 
L 155.874216 113.078768 
L 156.956398 111.724016 
L 158.57967 108.708725 
L 159.661852 106.566281 
L 160.202943 105.748592 
L 160.744034 105.474738 
L 161.285125 104.930902 
L 163.449489 100.602469 
L 165.072761 99.17998 
L 165.613852 98.576147 
L 166.154943 98.152304 
L 166.696034 97.46138 
L 167.237125 96.204364 
L 168.319307 95.020891 
L 169.401489 93.609046 
L 170.48367 93.259713 
L 171.024761 92.758455 
L 171.565852 92.44783 
L 172.106943 91.867222 
L 173.189125 91.241133 
L 174.812398 89.316417 
L 175.353489 88.635171 
L 176.43567 86.976567 
L 177.517852 86.420151 
L 178.058943 86.460794 
L 178.600034 85.471825 
L 179.141125 85.183456 
L 179.682216 85.267644 
L 180.223307 85.049916 
L 181.84658 84.813802 
L 182.928761 84.563173 
L 184.010943 83.585817 
L 184.552034 83.61775 
L 185.093125 83.214227 
L 185.634216 82.606524 
L 186.175307 82.601686 
L 186.716398 82.171068 
L 187.79858 81.808188 
L 188.33967 81.222742 
L 188.880761 80.986628 
L 189.421852 80.486337 
L 189.962943 80.166035 
L 190.504034 79.648327 
L 191.045125 79.652197 
L 191.586216 79.773157 
L 192.127307 79.184808 
L 192.668398 79.262222 
L 193.209489 79.030947 
L 193.75058 78.663228 
L 194.29167 78.893536 
L 194.832761 78.414535 
L 195.373852 78.143584 
L 195.914943 77.516528 
L 196.456034 77.118811 
L 196.997125 76.128874 
L 197.538216 75.708901 
L 198.079307 75.739867 
L 198.620398 75.532784 
L 199.161489 75.782445 
L 200.24367 76.949467 
L 200.784761 76.897212 
L 201.325852 76.974627 
L 202.408034 77.795219 
L 204.031307 76.967853 
L 204.572398 77.067524 
L 205.113489 76.725933 
L 205.65458 76.23919 
L 206.19567 75.089586 
L 207.277852 74.785735 
L 207.818943 74.324151 
L 208.360034 74.150937 
L 209.983307 74.201256 
L 210.524398 73.877083 
L 211.60658 73.631292 
L 212.14767 73.972883 
L 212.688761 74.171258 
L 213.770943 75.3257 
L 214.312034 75.199902 
L 215.394216 75.264736 
L 215.935307 74.867987 
L 216.476398 74.919274 
L 217.017489 74.807024 
L 218.09967 74.235125 
L 219.181852 73.66129 
L 221.346216 75.138938 
L 221.887307 74.785735 
L 222.428398 74.248672 
L 222.969489 74.445111 
L 223.51058 74.334796 
L 224.05167 73.921596 
L 224.592761 73.873212 
L 225.674943 73.191966 
L 227.298216 73.491946 
L 228.380398 72.149774 
L 228.921489 71.962044 
L 229.46258 71.915596 
L 230.544761 71.633033 
L 231.085852 71.628195 
L 231.626943 71.373695 
L 232.168034 71.412402 
L 232.709125 71.615615 
L 233.250216 71.498526 
L 234.332398 70.786313 
L 235.41458 71.145322 
L 235.95567 71.367889 
L 236.496761 71.278862 
L 237.578943 70.693416 
L 238.120034 70.654709 
L 238.661125 70.750509 
L 239.202216 71.026298 
L 240.284398 71.289507 
L 240.825489 71.46756 
L 241.36658 71.395952 
L 241.90767 71.651419 
L 243.530943 71.479172 
L 244.072034 71.389178 
L 244.613125 71.143387 
L 245.695307 71.514009 
L 246.777489 70.782442 
L 247.31858 70.936304 
L 247.85967 71.582714 
L 248.400761 71.992042 
L 248.941852 71.772379 
L 249.482943 71.803345 
L 250.565125 70.820182 
L 251.106216 70.344083 
L 252.188398 69.975397 
L 252.729489 70.254089 
L 253.27058 69.973462 
L 253.81167 70.159257 
L 254.352761 70.730188 
L 254.893852 70.735026 
L 255.434943 71.124033 
L 255.976034 71.277895 
L 257.599307 72.156548 
L 258.140398 71.745284 
L 258.681489 71.708512 
L 259.22258 70.91695 
L 259.76367 70.803731 
L 260.304761 70.441819 
L 260.845852 70.774701 
L 261.386943 70.735026 
L 261.928034 70.426336 
L 264.092398 69.841857 
L 264.633489 69.964753 
L 265.71567 70.414724 
L 266.256761 70.356663 
L 266.797852 70.058618 
L 268.421125 70.227962 
L 269.503307 70.250218 
L 270.044398 70.486332 
L 270.585489 70.952754 
L 271.12658 71.06307 
L 272.208761 70.949851 
L 272.749852 70.260863 
L 273.832034 70.354728 
L 274.373125 70.256025 
L 275.996398 70.963399 
L 276.537489 71.358212 
L 277.07858 71.243058 
L 277.61967 70.836633 
L 278.160761 70.607292 
L 278.701852 70.826956 
L 279.784034 69.919272 
L 280.325125 69.944432 
L 280.866216 69.837019 
L 281.407307 69.516717 
L 281.948398 69.56123 
L 282.489489 69.348341 
L 283.03058 69.506073 
L 284.112761 69.559295 
L 284.653852 69.801215 
L 285.736034 69.580584 
L 286.277125 69.708318 
L 287.359307 69.553489 
L 288.441489 70.026684 
L 288.98258 70.123452 
L 290.064761 69.904757 
L 291.146943 68.933206 
L 292.229125 68.521942 
L 292.770216 68.942883 
L 293.311307 68.630322 
L 293.852398 69.313504 
L 294.393489 69.501234 
L 294.93458 69.536071 
L 295.47567 69.850567 
L 296.016761 69.683158 
L 297.098943 69.149966 
L 298.181125 68.974816 
L 299.263307 69.271894 
L 299.804398 69.151902 
L 300.88658 68.587744 
L 301.42767 68.862565 
L 301.968761 68.904176 
L 302.509852 69.117065 
L 303.050943 69.473171 
L 304.133125 68.975784 
L 304.674216 68.944818 
L 305.756398 67.91811 
L 306.297489 67.979073 
L 306.83858 68.407756 
L 307.920761 68.020684 
L 308.461852 67.644256 
L 309.002943 67.580389 
L 309.544034 68.030361 
L 310.085125 68.012942 
L 311.167307 67.023006 
L 311.708398 66.933979 
L 312.249489 66.668835 
L 313.33167 66.691091 
L 313.872761 67.133321 
L 314.413852 66.752055 
L 314.954943 66.575937 
L 315.496034 67.126547 
L 316.037125 67.374273 
L 316.578216 67.036553 
L 317.119307 66.889466 
L 317.660398 66.873015 
L 318.74258 66.545939 
L 319.28367 65.942107 
L 319.824761 65.680833 
L 320.906943 64.744119 
L 321.448034 64.296083 
L 321.989125 64.127707 
L 322.530216 63.641932 
L 323.071307 63.39227 
L 323.612398 63.554841 
L 324.153489 63.539358 
L 325.23567 63.793857 
L 325.776761 63.597418 
L 326.317852 63.246151 
L 326.858943 63.124223 
L 327.941125 63.652576 
L 328.482216 63.670962 
L 329.023307 63.307114 
L 330.105489 63.043905 
L 330.64658 62.556195 
L 331.18767 62.273632 
L 333.352034 60.567612 
L 333.893125 60.556 
L 334.975307 59.913461 
L 335.516398 60.078934 
L 336.59858 59.640575 
L 337.13967 59.651219 
L 337.680761 59.50897 
L 338.221852 59.654122 
L 338.762943 59.437362 
L 339.304034 58.776437 
L 339.845125 58.330336 
L 340.927307 57.007518 
L 342.009489 56.213052 
L 342.55058 56.030161 
L 343.09167 56.816885 
L 343.632761 57.00655 
L 344.714943 56.603027 
L 346.338216 57.068481 
L 347.420398 56.569159 
L 347.961489 56.131767 
L 348.50258 55.457294 
L 349.04367 54.96281 
L 350.125852 53.104864 
L 353.913489 48.518061 
L 354.45458 48.594508 
L 354.99567 48.257755 
L 356.618943 46.852684 
L 357.160034 46.40368 
L 358.242216 46.048542 
L 358.783307 46.062089 
L 359.324398 46.395939 
L 359.865489 46.980417 
L 360.94767 48.924487 
L 361.488761 49.53606 
L 362.570943 50.362459 
L 363.112034 51.10467 
L 364.194216 52.917134 
L 365.276398 54.59993 
L 365.817489 55.486325 
L 366.35858 56.112414 
L 367.981852 58.421298 
L 368.522943 58.822885 
L 369.064034 58.872237 
L 369.605125 59.233182 
L 371.228398 60.912106 
L 371.769489 61.155962 
L 372.85167 61.249827 
L 373.392761 61.116287 
L 373.933852 61.36111 
L 374.474943 61.769471 
L 375.016034 62.710056 
L 375.557125 62.759408 
L 376.098216 62.981006 
L 377.721489 62.201056 
L 379.885852 60.149575 
L 380.426943 60.01797 
L 380.968034 60.061516 
L 381.509125 60.624705 
L 382.050216 60.859852 
L 382.591307 61.358207 
L 383.132398 62.301695 
L 384.21458 65.035391 
L 385.837852 67.930689 
L 386.378943 67.922948 
L 386.920034 67.268796 
L 388.002216 66.329179 
L 388.543307 65.588904 
L 390.70767 61.858497 
L 391.248761 60.624705 
L 392.330943 57.552321 
L 392.872034 56.509162 
L 393.954216 54.960874 
L 396.65967 48.761916 
L 398.282943 45.263753 
L 399.365125 43.270332 
L 400.988398 41.451094 
L 401.529489 41.064022 
L 402.07058 40.869518 
L 402.61167 40.513412 
L 403.693852 41.077569 
L 404.776034 43.00035 
L 406.399307 46.359167 
L 406.940398 47.014286 
L 406.940398 47.014286 
" style="fill:none;stroke:#29ffce;stroke-linecap:round;stroke-width:1.5;"/>
   </g>
   <g id="line2d_19">
    <path clip-path="url(#p35491763ab)" d="M 82.285852 276.334125 
L 82.826943 223.16785 
L 83.368034 247.344368 
L 83.909125 256.234444 
L 84.450216 260.132259 
L 84.991307 262.447917 
L 85.532398 263.966207 
L 86.073489 264.843893 
L 86.61458 265.435145 
L 88.237852 265.964466 
L 88.778943 265.881246 
L 89.320034 266.228643 
L 90.402216 265.269672 
L 91.484398 265.175807 
L 92.025489 264.569072 
L 92.56658 264.291347 
L 93.10767 264.152001 
L 93.648761 263.518171 
L 94.189852 263.328506 
L 95.272034 261.775379 
L 95.813125 261.507332 
L 96.354216 260.854148 
L 96.895307 260.379985 
L 97.436398 259.341664 
L 97.977489 258.549134 
L 98.51858 258.387532 
L 99.05967 256.988266 
L 100.141852 255.662545 
L 101.224034 253.755248 
L 101.765125 252.711121 
L 102.306216 251.387335 
L 104.47058 247.152767 
L 105.552761 243.856849 
L 106.093852 242.689827 
L 107.176034 239.476161 
L 108.799307 233.728142 
L 109.340398 231.14734 
L 109.881489 229.398742 
L 110.42258 226.437641 
L 110.96367 224.24004 
L 112.045852 217.570789 
L 113.128034 212.467245 
L 114.751307 202.488529 
L 115.833489 194.796441 
L 116.91567 187.277567 
L 117.456761 184.771276 
L 117.997852 183.111705 
L 120.162216 173.752304 
L 120.703307 172.347232 
L 121.244398 170.19995 
L 122.86767 165.70798 
L 123.408761 164.98222 
L 123.949852 163.442641 
L 124.490943 161.426963 
L 128.27858 138.014913 
L 128.81967 136.901114 
L 129.360761 135.190256 
L 130.984034 128.870337 
L 131.525125 126.964976 
L 132.066216 124.282567 
L 134.23058 110.236691 
L 136.394943 92.3559 
L 139.100398 66.741411 
L 139.641489 62.263955 
L 140.72367 55.592769 
L 141.805852 50.216339 
L 142.888034 45.947903 
L 143.429125 44.178016 
L 144.511307 41.435611 
L 145.593489 39.414128 
L 146.13458 38.612889 
L 147.216761 37.560053 
L 148.298943 36.642692 
L 151.004398 35.420512 
L 152.62767 35.012151 
L 155.333125 34.598952 
L 157.497489 34.462509 
L 163.99058 34.415093 
L 226.216034 34.414125 
L 406.940398 34.414125 
L 406.940398 34.414125 
" style="fill:none;stroke:#7dff7a;stroke-linecap:round;stroke-width:1.5;"/>
   </g>
   <g id="line2d_20">
    <path clip-path="url(#p35491763ab)" d="M 82.285852 276.334125 
L 82.826943 224.535182 
L 83.368034 247.473069 
L 83.909125 256.127999 
L 84.450216 259.922272 
L 84.991307 262.35502 
L 85.532398 263.73977 
L 87.15567 265.563847 
L 87.696761 265.961563 
L 88.237852 265.823185 
L 88.778943 266.036074 
L 89.861125 265.914147 
L 90.402216 265.66255 
L 90.943307 265.152583 
L 91.484398 264.981303 
L 92.025489 264.54488 
L 93.648761 263.854924 
L 94.189852 263.187225 
L 94.730943 262.840795 
L 95.813125 261.329279 
L 96.354216 260.929627 
L 96.895307 259.852599 
L 98.51858 258.293667 
L 100.141852 255.548359 
L 100.682943 254.994846 
L 101.224034 253.80847 
L 101.765125 253.023681 
L 103.388398 249.488746 
L 103.929489 248.635253 
L 104.47058 247.089868 
L 105.01167 246.15896 
L 106.093852 243.032385 
L 108.258216 236.418293 
L 108.799307 235.269657 
L 109.340398 233.294622 
L 109.881489 231.753107 
L 113.128034 219.565178 
L 113.669125 217.875609 
L 114.210216 216.653429 
L 114.751307 214.13359 
L 115.292398 212.9656 
L 116.37458 208.256869 
L 116.91567 206.817929 
L 117.456761 204.010689 
L 117.997852 202.499173 
L 122.86767 182.294015 
L 123.408761 180.574448 
L 125.032034 173.781334 
L 127.737489 161.04473 
L 129.360761 153.785194 
L 129.901852 152.374317 
L 130.442943 150.647976 
L 131.525125 146.439536 
L 132.607307 143.706807 
L 133.148398 142.742998 
L 135.312761 136.026331 
L 135.853852 133.499719 
L 136.394943 131.770474 
L 138.559307 120.314111 
L 139.641489 115.503774 
L 140.72367 109.314492 
L 142.346943 104.54383 
L 142.888034 102.380097 
L 143.970216 97.167205 
L 145.052398 92.953927 
L 146.67567 89.284484 
L 147.757852 85.99921 
L 148.298943 84.587365 
L 149.381125 83.948697 
L 150.463307 81.817865 
L 152.62767 75.754382 
L 153.168761 75.932435 
L 153.709852 76.366924 
L 154.250943 77.307509 
L 154.792034 77.509754 
L 155.333125 77.511689 
L 155.874216 77.906503 
L 156.415307 78.693226 
L 157.497489 80.72729 
L 158.57967 84.038691 
L 160.202943 92.614271 
L 161.285125 97.115918 
L 162.908398 103.461964 
L 163.449489 104.93187 
L 163.99058 105.978899 
L 164.53167 107.944257 
L 165.072761 108.940968 
L 165.613852 109.472224 
L 166.154943 110.53764 
L 166.696034 110.778592 
L 167.237125 111.761755 
L 167.778216 112.355911 
L 168.319307 112.74395 
L 168.860398 113.393264 
L 169.401489 113.232629 
L 171.024761 113.285851 
L 171.565852 113.029416 
L 172.106943 113.194889 
L 173.189125 112.028835 
L 173.730216 111.872071 
L 174.271307 111.857555 
L 175.353489 110.396359 
L 175.89458 109.383198 
L 176.43567 108.741626 
L 176.976761 108.851941 
L 178.600034 106.640793 
L 179.141125 105.235721 
L 180.223307 103.716464 
L 180.764398 103.399065 
L 181.305489 103.53454 
L 183.469852 100.840519 
L 184.010943 100.682787 
L 184.552034 100.706011 
L 185.093125 100.444737 
L 185.634216 100.032506 
L 186.716398 100.326681 
L 187.257489 100.202817 
L 187.79858 99.566084 
L 188.33967 98.553891 
L 188.880761 98.019731 
L 189.421852 98.188108 
L 191.045125 97.460412 
L 192.127307 96.225653 
L 192.668398 95.894706 
L 193.209489 96.10566 
L 193.75058 95.463121 
L 194.29167 94.530277 
L 194.832761 93.208426 
L 195.373852 92.267841 
L 196.456034 89.34448 
L 196.997125 88.724197 
L 197.538216 88.274226 
L 198.620398 88.135848 
L 199.161489 88.217133 
L 199.70258 87.740067 
L 201.325852 85.167973 
L 202.408034 84.432537 
L 202.949125 83.245193 
L 203.490216 82.919085 
L 204.031307 82.878442 
L 204.572398 82.270739 
L 206.736761 78.023592 
L 208.360034 75.612133 
L 208.901125 74.496398 
L 209.442216 72.857148 
L 210.524398 70.688577 
L 211.065489 70.154418 
L 211.60658 69.241896 
L 212.14767 68.757088 
L 212.688761 67.849404 
L 213.229852 67.719735 
L 213.770943 68.10584 
L 214.312034 68.883854 
L 215.394216 69.419949 
L 215.935307 70.083777 
L 216.476398 70.444722 
L 217.55858 70.588906 
L 218.09967 70.836633 
L 218.640761 70.335374 
L 219.181852 70.037329 
L 219.722943 70.055715 
L 220.264034 70.221188 
L 222.428398 69.221575 
L 222.969489 69.437367 
L 224.592761 72.089778 
L 225.674943 72.42266 
L 226.216034 73.452272 
L 227.298216 74.205127 
L 227.839307 74.792508 
L 228.380398 74.909598 
L 228.921489 75.166033 
L 230.00367 77.9036 
L 230.544761 78.988369 
L 231.085852 79.352217 
L 231.626943 79.401568 
L 232.709125 80.232805 
L 233.250216 80.154423 
L 233.791307 79.652197 
L 237.037852 77.711031 
L 237.578943 77.804896 
L 238.120034 78.213257 
L 239.202216 78.18713 
L 239.743307 77.687807 
L 240.825489 76.936887 
L 242.448761 73.278089 
L 244.072034 70.074101 
L 244.613125 69.700576 
L 245.695307 69.823472 
L 246.236398 70.169901 
L 246.777489 70.305376 
L 249.482943 68.139708 
L 250.024034 67.500072 
L 250.565125 66.604968 
L 252.729489 65.708896 
L 253.27058 65.256022 
L 253.81167 64.995716 
L 254.352761 65.191187 
L 254.893852 64.745087 
L 257.058216 60.719538 
L 257.599307 59.863141 
L 258.140398 59.659929 
L 258.681489 59.761535 
L 259.76367 59.003841 
L 260.845852 57.542645 
L 261.386943 56.813014 
L 261.928034 56.817852 
L 263.010216 57.052031 
L 264.633489 58.030355 
L 265.71567 59.378334 
L 266.256761 59.738311 
L 266.797852 60.592772 
L 267.338943 61.724958 
L 268.962216 67.262023 
L 269.503307 68.532586 
L 270.044398 69.475107 
L 270.585489 70.135065 
L 271.12658 70.568585 
L 272.208761 73.403888 
L 272.749852 73.979657 
L 273.290943 74.334796 
L 274.373125 76.771414 
L 275.455307 78.624521 
L 277.07858 80.368281 
L 277.61967 80.453436 
L 278.160761 80.085718 
L 278.701852 79.906697 
L 279.242943 80.175712 
L 279.784034 80.824058 
L 280.866216 79.568009 
L 281.948398 79.07546 
L 282.489489 78.532592 
L 283.03058 78.527753 
L 284.112761 78.077782 
L 284.653852 77.602651 
L 285.194943 77.366537 
L 285.736034 76.983336 
L 286.818216 75.372149 
L 287.359307 74.561233 
L 287.900398 73.187127 
L 289.52367 71.448206 
L 290.064761 71.458851 
L 291.146943 70.556973 
L 292.770216 70.389564 
L 293.311307 69.932819 
L 293.852398 69.915401 
L 294.393489 69.634774 
L 294.93458 68.949657 
L 295.47567 69.054166 
L 296.016761 68.800634 
L 296.557852 68.683545 
L 297.098943 69.126742 
L 297.640034 69.416078 
L 298.181125 69.16932 
L 298.722216 68.75225 
L 299.263307 68.644837 
L 299.804398 68.693221 
L 300.345489 68.399047 
L 300.88658 67.951978 
L 301.42767 67.970364 
L 301.968761 68.229703 
L 302.509852 67.960688 
L 303.592034 66.985266 
L 304.674216 65.19022 
L 305.215307 63.457105 
L 306.297489 61.399817 
L 306.83858 60.456329 
L 307.37967 58.969973 
L 307.920761 58.054547 
L 308.461852 56.666894 
L 309.544034 55.700182 
L 310.085125 55.461165 
L 311.708398 53.892556 
L 312.249489 53.679666 
L 312.79058 53.589672 
L 313.33167 53.757081 
L 314.413852 54.34543 
L 314.954943 54.324141 
L 315.496034 53.916748 
L 316.037125 53.311948 
L 316.578216 53.010032 
L 317.660398 54.592188 
L 318.201489 55.548256 
L 319.28367 56.366913 
L 319.824761 56.350463 
L 320.365852 56.975584 
L 320.906943 57.922943 
L 321.448034 59.239955 
L 321.989125 60.232795 
L 323.071307 62.750698 
L 323.612398 63.887722 
L 324.153489 64.630901 
L 324.69458 65.91598 
L 325.776761 67.536844 
L 326.317852 67.967461 
L 327.400034 69.242864 
L 327.941125 69.552521 
L 329.023307 70.491171 
L 329.564398 70.495041 
L 330.105489 69.818633 
L 331.18767 69.246734 
L 331.728761 69.372533 
L 332.269852 69.297054 
L 334.434216 68.313891 
L 334.975307 67.678125 
L 335.516398 66.547875 
L 336.59858 63.250021 
L 337.13967 61.916558 
L 337.680761 60.910171 
L 338.762943 58.370011 
L 339.304034 57.395557 
L 339.845125 56.718181 
L 340.386216 56.441425 
L 342.009489 54.595091 
L 342.55058 53.623541 
L 343.632761 52.909393 
L 344.714943 52.625863 
L 345.256034 52.85617 
L 345.797125 52.726501 
L 346.338216 52.767144 
L 347.420398 51.75108 
L 347.961489 51.535287 
L 348.50258 50.765982 
L 349.04367 50.597605 
L 349.584761 50.684697 
L 350.666943 51.798496 
L 353.372398 58.226794 
L 354.45458 60.913074 
L 355.536761 63.065194 
L 356.077852 64.015456 
L 356.618943 64.018359 
L 357.160034 63.752247 
L 358.242216 62.5291 
L 358.783307 62.189444 
L 359.324398 62.140092 
L 359.865489 61.629157 
L 360.40658 61.441427 
L 360.94767 60.921783 
L 361.488761 61.418203 
L 362.029852 61.45304 
L 362.570943 61.112416 
L 364.194216 58.520001 
L 365.276398 57.12751 
L 365.817489 57.01913 
L 366.35858 56.296273 
L 367.981852 52.984872 
L 368.522943 51.697857 
L 370.687307 48.608055 
L 371.228398 48.08067 
L 372.31058 47.423615 
L 372.85167 46.87107 
L 373.392761 46.639794 
L 374.474943 45.443742 
L 375.016034 45.238593 
L 375.557125 44.790558 
L 377.721489 40.528895 
L 379.344761 38.137758 
L 380.426943 37.059762 
L 380.968034 36.596243 
L 382.591307 35.78436 
L 383.673489 35.321809 
L 384.75567 35.011184 
L 386.378943 34.848613 
L 397.200761 34.415093 
L 406.940398 34.414125 
L 406.940398 34.414125 
" style="fill:none;stroke:#ceff29;stroke-linecap:round;stroke-width:1.5;"/>
   </g>
   <g id="line2d_21">
    <path clip-path="url(#p35491763ab)" d="M 82.285852 276.334125 
L 82.826943 223.881998 
L 83.368034 247.523388 
L 83.909125 256.0651 
L 84.450216 260.018073 
L 84.991307 262.240833 
L 85.532398 263.856859 
L 86.073489 264.850666 
L 86.61458 265.410953 
L 88.237852 266.205418 
L 88.778943 266.037042 
L 89.320034 266.150261 
L 90.943307 265.590942 
L 91.484398 265.071297 
L 92.025489 264.797444 
L 92.56658 264.230384 
L 93.648761 263.682677 
L 94.730943 262.90563 
L 95.272034 262.231157 
L 95.813125 261.336053 
L 96.354216 260.721576 
L 96.895307 260.537717 
L 97.977489 258.695254 
L 98.51858 258.282055 
L 99.05967 257.228251 
L 100.682943 254.902916 
L 102.306216 251.604095 
L 102.847307 251.009939 
L 104.47058 246.726988 
L 105.01167 245.604479 
L 107.176034 240.089671 
L 107.717125 237.954001 
L 108.258216 236.353458 
L 108.799307 234.256496 
L 109.340398 232.905614 
L 110.42258 228.35268 
L 111.504761 225.010313 
L 113.128034 217.640462 
L 113.669125 216.338933 
L 114.210216 213.766839 
L 114.751307 211.771483 
L 117.456761 199.535169 
L 118.538943 194.983203 
L 121.244398 188.534583 
L 121.785489 188.116545 
L 123.408761 183.112672 
L 123.949852 182.322078 
L 125.032034 177.89978 
L 125.573125 175.237692 
L 126.655307 172.016286 
L 127.737489 167.389808 
L 130.442943 157.404318 
L 130.984034 156.214071 
L 133.148398 148.858736 
L 133.689489 146.909828 
L 134.23058 144.263223 
L 134.77167 142.486563 
L 135.312761 141.224708 
L 136.394943 137.59494 
L 136.936034 136.392114 
L 137.477125 136.002139 
L 138.018216 135.353793 
L 138.559307 134.322247 
L 139.100398 133.538426 
L 139.641489 132.535909 
L 140.18258 132.183674 
L 140.72367 132.14787 
L 141.264761 131.12987 
L 142.346943 129.979299 
L 143.429125 129.673512 
L 143.970216 129.024199 
L 144.511307 128.628417 
L 147.216761 124.918332 
L 147.757852 124.548679 
L 148.298943 124.549646 
L 148.840034 123.967103 
L 149.381125 122.788469 
L 149.922216 121.938846 
L 151.004398 119.636735 
L 152.08658 118.411652 
L 152.62767 118.017806 
L 153.168761 117.374299 
L 153.709852 116.361138 
L 155.333125 114.286432 
L 157.497489 111.332105 
L 158.03858 111.272109 
L 158.57967 111.547898 
L 159.120761 111.269206 
L 159.661852 111.332105 
L 160.202943 111.10083 
L 160.744034 111.095991 
L 161.285125 110.459258 
L 161.826216 110.083798 
L 162.367307 109.386101 
L 162.908398 108.077797 
L 163.449489 107.394615 
L 163.99058 106.12889 
L 164.53167 105.660533 
L 165.072761 104.265138 
L 165.613852 103.535507 
L 167.778216 102.508799 
L 168.319307 102.67524 
L 168.860398 102.674272 
L 169.94258 102.233978 
L 170.48367 101.424997 
L 171.024761 100.397321 
L 172.648034 97.955865 
L 173.189125 96.382417 
L 173.730216 96.034052 
L 174.271307 95.456347 
L 174.812398 95.402157 
L 175.353489 96.094048 
L 175.89458 96.600145 
L 176.43567 96.746265 
L 176.976761 96.555632 
L 177.517852 96.799487 
L 178.058943 96.722073 
L 178.600034 96.473379 
L 179.141125 95.923737 
L 179.682216 95.074113 
L 180.764398 94.848644 
L 181.305489 94.380287 
L 181.84658 94.14127 
L 182.38767 93.76581 
L 182.928761 93.650656 
L 183.469852 92.94425 
L 184.010943 93.004246 
L 184.552034 93.247134 
L 185.093125 92.921025 
L 185.634216 93.211329 
L 186.175307 93.343902 
L 186.716398 92.628786 
L 187.79858 91.842062 
L 188.33967 91.777228 
L 188.880761 91.119205 
L 189.421852 90.766002 
L 190.504034 90.713747 
L 191.586216 89.306741 
L 192.127307 88.658395 
L 192.668398 88.570336 
L 193.209489 88.231648 
L 193.75058 88.071981 
L 194.29167 87.62201 
L 194.832761 87.587173 
L 195.914943 87.186554 
L 196.456034 86.462729 
L 196.997125 85.506661 
L 198.620398 85.357639 
L 199.161489 84.633814 
L 200.24367 83.766773 
L 200.784761 83.5384 
L 201.325852 83.59259 
L 201.866943 83.439697 
L 202.408034 83.556786 
L 202.949125 83.325511 
L 203.490216 83.301319 
L 204.031307 82.415891 
L 204.572398 82.12462 
L 205.113489 82.077203 
L 205.65458 82.334606 
L 206.736761 83.68452 
L 207.277852 83.516144 
L 207.818943 83.720324 
L 208.360034 82.959728 
L 208.901125 82.405247 
L 210.524398 81.609814 
L 211.065489 80.90244 
L 212.688761 80.40602 
L 213.770943 80.234741 
L 214.312034 80.168938 
L 214.853125 79.563171 
L 215.394216 79.377376 
L 215.935307 78.585814 
L 216.476398 78.431953 
L 217.017489 78.141649 
L 217.55858 78.086491 
L 219.181852 76.321443 
L 219.722943 76.281768 
L 220.264034 76.445306 
L 221.346216 75.771801 
L 221.887307 75.723417 
L 222.969489 74.865084 
L 223.51058 75.248286 
L 224.05167 75.076039 
L 224.592761 74.723803 
L 225.133852 74.942499 
L 225.674943 74.901856 
L 226.216034 74.668645 
L 226.757125 74.273832 
L 227.298216 73.695159 
L 227.839307 73.973851 
L 228.380398 74.089005 
L 228.921489 74.76251 
L 229.46258 74.899921 
L 230.544761 74.227383 
L 231.085852 74.358988 
L 231.626943 74.369632 
L 232.168034 74.012558 
L 232.709125 74.035783 
L 233.250216 73.614842 
L 233.791307 73.038105 
L 234.332398 72.794249 
L 234.873489 73.103907 
L 235.41458 72.886179 
L 236.496761 73.383566 
L 237.037852 73.370986 
L 237.578943 73.121325 
L 238.120034 73.020686 
L 238.661125 73.203578 
L 239.202216 73.131002 
L 239.743307 72.692643 
L 240.284398 72.669418 
L 240.825489 72.106229 
L 241.36658 72.166225 
L 242.448761 71.785927 
L 242.989852 72.107196 
L 243.530943 71.730769 
L 244.072034 72.087843 
L 244.613125 72.174934 
L 245.154216 72.481689 
L 245.695307 72.963593 
L 246.777489 72.39363 
L 247.31858 71.682385 
L 247.85967 71.185965 
L 248.400761 71.054361 
L 248.941852 70.793087 
L 250.024034 70.886952 
L 250.565125 71.783991 
L 251.106216 71.996881 
L 251.647307 72.352019 
L 252.729489 71.780121 
L 253.27058 71.80528 
L 254.352761 71.401758 
L 255.434943 71.163708 
L 255.976034 71.168547 
L 256.517125 71.481107 
L 257.599307 71.644645 
L 258.681489 70.845342 
L 259.76367 70.779539 
L 260.845852 71.653354 
L 261.386943 71.350471 
L 261.928034 71.299184 
L 262.469125 71.448206 
L 263.010216 72.103326 
L 264.092398 72.419757 
L 264.633489 72.846504 
L 265.71567 72.382017 
L 266.256761 72.017202 
L 266.797852 72.172031 
L 267.338943 72.058812 
L 269.503307 71.107583 
L 270.044398 71.196609 
L 272.208761 71.006944 
L 273.290943 70.997267 
L 273.832034 70.950819 
L 274.373125 70.713737 
L 274.914216 70.950819 
L 275.455307 70.351825 
L 276.537489 70.230865 
L 277.07858 69.852502 
L 278.160761 69.762508 
L 279.242943 70.564714 
L 280.325125 69.999589 
L 280.866216 70.188287 
L 281.407307 70.200867 
L 282.489489 70.438916 
L 283.57167 70.451496 
L 284.112761 70.130226 
L 285.194943 69.79928 
L 285.736034 69.807989 
L 286.818216 69.279635 
L 287.359307 69.412208 
L 287.900398 69.177061 
L 288.441489 68.816117 
L 288.98258 68.69806 
L 289.52367 68.191963 
L 290.064761 68.253895 
L 291.146943 67.587163 
L 291.688034 67.922948 
L 292.229125 68.101001 
L 293.852398 67.938431 
L 294.393489 68.087454 
L 294.93458 68.81902 
L 295.47567 68.849018 
L 296.016761 69.092873 
L 297.640034 69.082229 
L 298.181125 68.928368 
L 298.722216 69.114162 
L 299.263307 68.847082 
L 299.804398 68.903208 
L 300.345489 68.667094 
L 300.88658 68.665159 
L 301.42767 69.247702 
L 303.050943 69.179964 
L 303.592034 68.979655 
L 305.215307 67.814568 
L 306.297489 67.089776 
L 307.37967 66.864306 
L 308.461852 67.299762 
L 309.002943 67.831018 
L 310.085125 68.299376 
L 310.626216 68.640967 
L 311.708398 68.894499 
L 312.249489 69.083196 
L 312.79058 69.122871 
L 314.413852 68.061326 
L 314.954943 68.384531 
L 316.037125 68.370984 
L 316.578216 68.776442 
L 318.201489 68.688383 
L 319.28367 68.871274 
L 319.824761 68.569358 
L 320.365852 68.415497 
L 320.906943 67.996492 
L 321.448034 68.310988 
L 321.989125 68.279054 
L 322.530216 68.52291 
L 323.071307 68.609033 
L 323.612398 68.280022 
L 324.153489 68.337115 
L 324.69458 68.251959 
L 325.23567 68.399047 
L 326.317852 68.300343 
L 327.400034 67.865855 
L 327.941125 67.701349 
L 328.482216 67.673287 
L 329.023307 68.164868 
L 329.564398 68.410659 
L 330.105489 68.370016 
L 330.64658 68.143579 
L 332.269852 68.20164 
L 333.893125 67.574583 
L 335.516398 67.61329 
L 336.057489 67.408142 
L 336.59858 67.400401 
L 337.13967 66.621418 
L 338.762943 65.71567 
L 339.304034 65.783408 
L 340.386216 65.150545 
L 340.927307 65.338275 
L 341.468398 65.652771 
L 342.009489 65.72825 
L 342.55058 65.567615 
L 344.173852 65.447623 
L 344.714943 65.095387 
L 345.797125 64.912496 
L 346.338216 64.267053 
L 346.879307 63.849015 
L 347.420398 63.935139 
L 347.961489 64.224475 
L 348.50258 64.254473 
L 349.04367 64.05126 
L 349.584761 64.120933 
L 350.666943 64.770247 
L 351.208034 65.040229 
L 351.749125 65.105064 
L 352.831307 64.983136 
L 353.372398 64.546713 
L 353.913489 64.479943 
L 354.45458 64.243829 
L 354.99567 63.694186 
L 355.536761 63.626449 
L 356.077852 63.344854 
L 356.618943 62.82521 
L 357.160034 63.008101 
L 358.242216 62.444912 
L 359.324398 62.40814 
L 359.865489 62.228151 
L 361.488761 60.527937 
L 362.570943 60.463103 
L 363.112034 59.931847 
L 364.194216 58.584836 
L 365.817489 57.267824 
L 366.35858 56.995905 
L 366.89967 57.109124 
L 367.440761 57.380074 
L 368.522943 57.604576 
L 370.146216 57.929717 
L 371.228398 58.82095 
L 371.769489 58.837401 
L 372.31058 58.375817 
L 372.85167 58.286791 
L 373.933852 57.176862 
L 374.474943 56.6727 
L 375.016034 56.324336 
L 375.557125 57.012356 
L 376.639307 57.819401 
L 377.180398 58.536452 
L 378.26258 58.767728 
L 378.80367 59.174153 
L 379.344761 59.834111 
L 380.426943 62.0201 
L 380.968034 62.855208 
L 381.509125 63.302276 
L 382.591307 63.45904 
L 384.21458 62.685864 
L 384.75567 61.869142 
L 385.296761 61.339821 
L 387.461125 60.131189 
L 389.084398 60.503745 
L 389.625489 60.917913 
L 390.16658 60.553097 
L 391.789852 58.878043 
L 392.330943 58.472585 
L 392.872034 57.862947 
L 393.413125 57.068481 
L 395.036398 55.716633 
L 397.741852 50.010224 
L 399.365125 46.116279 
L 400.988398 43.499673 
L 401.529489 43.009059 
L 402.07058 42.820361 
L 402.61167 42.496188 
L 404.234943 42.149759 
L 404.776034 41.665919 
L 405.858216 40.921773 
L 406.940398 39.755719 
L 406.940398 39.755719 
" style="fill:none;stroke:#ffc400;stroke-linecap:round;stroke-width:1.5;"/>
   </g>
   <g id="line2d_22">
    <path clip-path="url(#p35491763ab)" d="M 82.285852 276.334125 
L 82.826943 223.579114 
L 83.368034 247.282436 
L 83.909125 256.05252 
L 84.450216 259.965818 
L 84.991307 262.377276 
L 85.532398 263.604295 
L 86.61458 265.213546 
L 87.15567 265.677065 
L 87.696761 265.961563 
L 88.778943 265.951886 
L 89.861125 265.744803 
L 90.402216 265.63352 
L 91.484398 265.037429 
L 92.025489 264.727771 
L 92.56658 264.095876 
L 93.10767 264.062975 
L 93.648761 263.321732 
L 94.189852 263.047879 
L 97.436398 260.07323 
L 97.977489 259.120065 
L 99.05967 257.652095 
L 100.141852 256.113484 
L 100.682943 254.583582 
L 101.224034 253.972976 
L 102.306216 251.783116 
L 102.847307 251.089289 
L 104.47058 247.459521 
L 105.01167 245.468036 
L 106.093852 243.291724 
L 108.258216 236.304106 
L 109.881489 231.493769 
L 110.42258 229.434546 
L 110.96367 228.223978 
L 113.128034 220.498989 
L 113.669125 217.901736 
L 114.210216 216.007018 
L 115.292398 211.094107 
L 116.37458 207.204033 
L 120.162216 185.081901 
L 120.703307 181.466649 
L 121.785489 176.324397 
L 122.86767 172.73624 
L 123.408761 171.85178 
L 123.949852 170.351876 
L 124.490943 169.421936 
L 125.032034 167.837843 
L 126.114216 165.417676 
L 126.655307 164.711269 
L 127.737489 161.491798 
L 128.27858 160.671205 
L 128.81967 159.519666 
L 129.901852 156.466636 
L 130.442943 155.556049 
L 130.984034 153.578111 
L 131.525125 153.685523 
L 132.066216 153.129107 
L 132.607307 153.554887 
L 133.148398 153.356512 
L 133.689489 153.626495 
L 135.312761 152.549467 
L 135.853852 151.701779 
L 136.394943 151.600173 
L 136.936034 150.997308 
L 137.477125 151.030209 
L 138.559307 149.063884 
L 139.100398 147.339478 
L 139.641489 146.098912 
L 140.18258 145.393473 
L 140.72367 144.006788 
L 141.264761 143.660359 
L 141.805852 141.864345 
L 142.346943 140.527978 
L 142.888034 138.588748 
L 143.429125 137.421726 
L 143.970216 135.802797 
L 145.052398 131.437593 
L 146.67567 127.040455 
L 147.216761 126.360176 
L 147.757852 124.524487 
L 148.298943 124.158704 
L 148.840034 122.889107 
L 152.08658 113.311011 
L 152.62767 112.143989 
L 153.709852 111.508223 
L 154.250943 110.417648 
L 154.792034 109.65318 
L 156.956398 105.338295 
L 157.497489 103.475511 
L 158.57967 101.104695 
L 159.120761 100.181529 
L 160.202943 96.438542 
L 161.285125 94.920252 
L 161.826216 94.731555 
L 162.908398 95.352805 
L 163.449489 95.356676 
L 164.53167 97.472992 
L 165.072761 97.504926 
L 165.613852 97.668464 
L 166.154943 97.56976 
L 166.696034 98.25391 
L 167.237125 98.307132 
L 167.778216 97.869741 
L 168.319307 97.888127 
L 168.860398 97.717815 
L 169.94258 96.557567 
L 170.48367 96.576921 
L 171.024761 95.935349 
L 172.106943 94.033857 
L 173.189125 92.471054 
L 173.730216 91.43854 
L 174.271307 90.74181 
L 174.812398 90.549242 
L 175.89458 90.788259 
L 176.43567 91.715296 
L 177.517852 92.535889 
L 178.058943 93.608078 
L 178.600034 94.177074 
L 179.141125 94.22062 
L 179.682216 94.861224 
L 180.764398 96.954316 
L 181.305489 97.58234 
L 181.84658 97.602661 
L 182.928761 97.275585 
L 183.469852 97.700397 
L 184.010943 97.774908 
L 184.552034 98.210364 
L 185.093125 98.381644 
L 185.634216 98.332292 
L 187.79858 97.691688 
L 188.33967 97.32784 
L 188.880761 97.50299 
L 189.962943 95.899545 
L 190.504034 95.922769 
L 191.045125 95.673107 
L 192.127307 95.633433 
L 193.209489 93.555824 
L 193.75058 92.917155 
L 194.29167 92.891027 
L 194.832761 91.910768 
L 195.914943 90.37893 
L 199.161489 86.037918 
L 199.70258 85.48634 
L 201.866943 84.285449 
L 203.490216 81.2779 
L 204.572398 79.821541 
L 207.818943 78.747417 
L 208.901125 76.871085 
L 209.983307 76.066943 
L 210.524398 75.913082 
L 211.065489 76.091135 
L 211.60658 75.666323 
L 212.688761 75.515365 
L 213.229852 75.439886 
L 214.312034 74.767349 
L 214.853125 75.153453 
L 215.394216 75.091521 
L 215.935307 74.560265 
L 216.476398 74.468336 
L 217.017489 74.154807 
L 217.55858 74.440273 
L 218.09967 74.469303 
L 218.640761 73.872245 
L 219.181852 73.907081 
L 219.722943 73.727093 
L 220.264034 73.834505 
L 220.805125 73.777412 
L 222.428398 75.169904 
L 223.51058 75.431177 
L 224.592761 75.577297 
L 225.133852 75.718578 
L 226.216034 75.369246 
L 226.757125 75.880181 
L 227.298216 75.751479 
L 227.839307 75.477626 
L 228.380398 75.351827 
L 228.921489 75.439886 
L 229.46258 75.78438 
L 230.00367 75.964369 
L 230.544761 75.739867 
L 231.626943 75.00056 
L 232.168034 74.432531 
L 233.791307 73.529686 
L 234.873489 73.178418 
L 235.95567 73.264542 
L 236.496761 72.951013 
L 237.037852 72.989721 
L 238.120034 72.374276 
L 238.661125 72.041394 
L 239.202216 71.953335 
L 239.743307 72.026879 
L 240.284398 72.304603 
L 240.825489 72.374276 
L 241.36658 72.313312 
L 241.90767 72.761348 
L 242.448761 72.649097 
L 242.989852 72.394597 
L 244.072034 72.308474 
L 244.613125 72.173966 
L 245.695307 72.299765 
L 246.777489 71.670773 
L 247.31858 71.972689 
L 247.85967 72.087843 
L 248.400761 72.429434 
L 248.941852 72.558135 
L 249.482943 72.978108 
L 250.024034 72.704255 
L 250.565125 72.815538 
L 251.106216 72.671354 
L 251.647307 72.879405 
L 252.729489 72.928757 
L 253.27058 72.547491 
L 254.352761 72.537814 
L 254.893852 72.083004 
L 255.976034 71.651419 
L 256.517125 70.940174 
L 257.058216 70.974043 
L 257.599307 71.170482 
L 258.140398 70.987591 
L 258.681489 71.290474 
L 259.22258 71.344665 
L 260.845852 70.313118 
L 261.386943 70.212479 
L 262.469125 69.516717 
L 263.010216 69.204156 
L 263.551307 69.313504 
L 264.092398 69.229316 
L 264.633489 69.421884 
L 266.256761 69.577681 
L 267.338943 69.173191 
L 267.880034 69.538974 
L 268.421125 69.365759 
L 268.962216 69.687029 
L 270.044398 69.268991 
L 271.66767 68.244218 
L 272.208761 68.38937 
L 273.290943 67.854243 
L 273.832034 67.803923 
L 274.914216 68.581938 
L 275.455307 68.977719 
L 275.996398 69.072552 
L 276.537489 68.869339 
L 280.325125 66.052423 
L 281.407307 66.439495 
L 281.948398 66.467557 
L 282.489489 66.13274 
L 283.03058 65.940172 
L 283.57167 65.380853 
L 284.112761 65.122482 
L 285.194943 64.884433 
L 285.736034 64.725733 
L 286.277125 64.419946 
L 287.359307 65.033456 
L 287.900398 65.285052 
L 288.441489 65.193123 
L 288.98258 65.316018 
L 289.52367 65.770828 
L 291.146943 66.001136 
L 291.688034 65.98275 
L 292.229125 66.290472 
L 293.311307 66.099839 
L 294.393489 67.106226 
L 294.93458 67.790376 
L 296.557852 69.021265 
L 299.263307 68.336147 
L 299.804398 67.920045 
L 300.345489 67.881338 
L 301.42767 68.40582 
L 301.968761 68.46001 
L 302.509852 68.205511 
L 303.050943 67.269764 
L 304.133125 66.167577 
L 305.215307 65.144739 
L 305.756398 64.95217 
L 306.83858 63.885787 
L 307.37967 63.490974 
L 307.920761 62.931655 
L 309.544034 60.197959 
L 311.167307 58.390332 
L 311.708398 58.163895 
L 312.249489 58.134865 
L 312.79058 57.9452 
L 313.872761 58.290661 
L 315.496034 57.299757 
L 316.037125 57.337497 
L 316.578216 57.876494 
L 317.660398 57.898751 
L 318.201489 57.583287 
L 318.74258 57.41104 
L 319.824761 57.97423 
L 320.365852 58.116479 
L 320.906943 58.641929 
L 321.989125 59.216731 
L 323.071307 59.471231 
L 323.612398 60.415687 
L 324.69458 61.293372 
L 326.317852 62.925849 
L 326.858943 63.109708 
L 327.400034 64.097709 
L 327.941125 64.224475 
L 328.482216 64.199315 
L 330.105489 64.673479 
L 330.64658 64.769279 
L 331.18767 64.33092 
L 332.269852 64.812825 
L 332.810943 64.645416 
L 333.352034 64.032874 
L 333.893125 62.884238 
L 334.975307 61.292405 
L 336.057489 59.686056 
L 336.59858 58.769663 
L 337.13967 57.419749 
L 338.762943 55.05861 
L 339.845125 53.892556 
L 340.386216 53.048739 
L 342.009489 51.618508 
L 342.55058 51.252725 
L 343.632761 51.639797 
L 344.714943 51.256595 
L 345.797125 51.115314 
L 346.338216 51.420133 
L 346.879307 52.442003 
L 347.961489 55.190215 
L 349.04367 58.745471 
L 352.290216 65.059583 
L 353.372398 67.425561 
L 354.45458 68.094227 
L 354.99567 68.108743 
L 357.160034 66.452074 
L 357.701125 65.924689 
L 358.783307 64.481878 
L 360.94767 59.754761 
L 363.112034 56.946554 
L 365.276398 51.524643 
L 366.35858 49.254465 
L 367.440761 46.762689 
L 369.605125 41.849778 
L 371.769489 38.788039 
L 373.392761 37.115888 
L 375.016034 36.171432 
L 376.098216 35.63824 
L 377.180398 35.350839 
L 378.80367 35.069244 
L 379.885852 34.923125 
L 380.968034 34.719912 
L 384.21458 34.461541 
L 389.625489 34.415093 
L 406.940398 34.414125 
L 406.940398 34.414125 
" style="fill:none;stroke:#ff6800;stroke-linecap:round;stroke-width:1.5;"/>
   </g>
   <g id="line2d_23">
    <path clip-path="url(#p35491763ab)" d="M 82.285852 276.334125 
L 82.826943 224.043601 
L 83.368034 247.438233 
L 83.909125 256.082518 
L 84.450216 260.335472 
L 84.991307 262.62597 
L 86.073489 264.831313 
L 87.696761 266.038977 
L 88.237852 265.966401 
L 88.778943 266.129939 
L 89.320034 265.751577 
L 90.943307 265.492238 
L 91.484398 264.981303 
L 92.56658 264.412307 
L 93.10767 264.069749 
L 93.648761 263.437854 
L 94.189852 263.384631 
L 97.436398 259.655193 
L 97.977489 258.626549 
L 98.51858 258.127226 
L 99.05967 257.23696 
L 99.600761 256.126064 
L 100.141852 255.692543 
L 100.682943 254.80518 
L 101.224034 253.553002 
L 102.306216 251.730861 
L 102.847307 250.153543 
L 103.929489 248.11077 
L 104.47058 246.420233 
L 106.093852 242.444036 
L 106.634943 241.585704 
L 108.258216 237.131473 
L 108.799307 235.267721 
L 109.340398 233.98361 
L 109.881489 232.24856 
L 110.42258 229.644533 
L 110.96367 227.906579 
L 111.504761 225.194172 
L 112.045852 223.695236 
L 113.669125 216.721166 
L 114.210216 214.57969 
L 115.833489 207.162423 
L 117.456761 199.609681 
L 120.703307 182.395621 
L 121.244398 180.254145 
L 121.785489 178.83843 
L 122.86767 175.235757 
L 123.949852 172.257238 
L 125.573125 169.308717 
L 126.655307 166.878873 
L 128.81967 158.233619 
L 129.360761 155.179621 
L 132.607307 141.376634 
L 133.148398 140.177678 
L 135.312761 133.47843 
L 135.853852 132.943303 
L 136.936034 132.694609 
L 137.477125 132.006588 
L 138.018216 131.847889 
L 138.559307 131.000201 
L 139.100398 130.582163 
L 140.18258 130.542489 
L 140.72367 130.724412 
L 141.805852 131.322439 
L 142.346943 130.961494 
L 142.888034 130.835696 
L 143.970216 128.678737 
L 144.511307 128.966138 
L 145.052398 128.853887 
L 145.593489 128.285859 
L 146.13458 127.55526 
L 147.757852 123.201668 
L 149.922216 119.756727 
L 151.004398 117.270757 
L 151.545489 116.953358 
L 152.08658 115.680859 
L 152.62767 115.680859 
L 153.168761 116.233404 
L 153.709852 117.020128 
L 154.250943 116.365009 
L 154.792034 115.335397 
L 155.333125 114.676407 
L 155.874216 113.277142 
L 156.415307 112.863943 
L 156.956398 112.160439 
L 158.03858 109.742207 
L 159.120761 106.072764 
L 159.661852 104.809942 
L 160.202943 103.903226 
L 161.285125 102.740074 
L 161.826216 102.446867 
L 162.367307 101.85368 
L 162.908398 101.039861 
L 165.072761 96.594339 
L 165.613852 96.012763 
L 166.154943 95.040245 
L 166.696034 93.663236 
L 167.237125 93.164881 
L 167.778216 92.15172 
L 168.319307 91.396929 
L 169.401489 90.355706 
L 170.48367 90.023792 
L 171.024761 90.564725 
L 171.565852 90.364415 
L 172.106943 90.04121 
L 172.648034 90.309257 
L 173.189125 91.109529 
L 173.730216 91.326289 
L 174.271307 91.327257 
L 174.812398 91.700781 
L 175.353489 91.818838 
L 175.89458 92.739102 
L 176.43567 93.397124 
L 176.976761 93.610981 
L 177.517852 94.080306 
L 178.058943 95.280229 
L 178.600034 95.694396 
L 179.141125 95.732136 
L 179.682216 95.432155 
L 180.223307 95.448606 
L 181.305489 94.838967 
L 181.84658 95.386674 
L 182.928761 95.520214 
L 183.469852 95.985668 
L 184.010943 95.929543 
L 185.093125 95.1883 
L 185.634216 94.501247 
L 186.175307 94.023213 
L 186.716398 93.304227 
L 187.257489 92.178815 
L 187.79858 91.854642 
L 188.33967 91.809161 
L 188.880761 92.420735 
L 190.504034 91.522728 
L 191.045125 91.614657 
L 195.373852 87.736196 
L 195.914943 87.694586 
L 196.456034 87.335577 
L 197.538216 86.900121 
L 198.620398 87.112042 
L 199.70258 86.18307 
L 200.24367 85.074108 
L 201.866943 83.039077 
L 202.408034 82.709098 
L 203.490216 82.847477 
L 205.113489 81.784964 
L 205.65458 80.992434 
L 206.736761 80.076041 
L 207.277852 79.248675 
L 208.360034 78.507432 
L 208.901125 78.475498 
L 209.442216 78.807413 
L 209.983307 78.728063 
L 210.524398 78.975789 
L 211.60658 79.11707 
L 212.14767 78.627424 
L 213.229852 78.805477 
L 213.770943 78.330346 
L 215.935307 75.470852 
L 216.476398 75.015075 
L 217.017489 74.732512 
L 217.55858 74.246737 
L 218.09967 74.462529 
L 218.640761 74.220609 
L 219.181852 74.173193 
L 219.722943 74.341569 
L 220.264034 74.147066 
L 220.805125 74.106423 
L 221.887307 74.915404 
L 222.969489 76.016624 
L 223.51058 76.478207 
L 224.05167 75.640196 
L 225.133852 74.632841 
L 225.674943 75.047008 
L 226.757125 75.033461 
L 228.921489 77.319121 
L 229.46258 77.519431 
L 230.00367 77.876505 
L 230.544761 78.056493 
L 231.085852 77.685872 
L 231.626943 77.647164 
L 232.709125 76.617553 
L 233.250216 76.38918 
L 233.791307 76.002108 
L 234.873489 75.737932 
L 235.41458 75.281187 
L 235.95567 74.646389 
L 236.496761 73.547104 
L 237.037852 72.75651 
L 237.578943 72.23493 
L 238.120034 72.166225 
L 238.661125 72.482656 
L 239.202216 73.049717 
L 239.743307 73.400985 
L 240.284398 73.194869 
L 241.36658 73.305184 
L 241.90767 73.133905 
L 242.448761 72.588133 
L 242.989852 72.4604 
L 243.530943 72.18074 
L 244.613125 70.44569 
L 245.154216 69.772185 
L 245.695307 69.718962 
L 247.31858 68.461946 
L 248.400761 67.861984 
L 248.941852 68.056488 
L 249.482943 68.115516 
L 250.024034 68.636128 
L 250.565125 68.897402 
L 252.188398 68.813214 
L 252.729489 68.280022 
L 253.27058 68.25583 
L 253.81167 67.911336 
L 256.517125 65.580195 
L 257.058216 65.408915 
L 258.140398 66.424979 
L 258.681489 66.360145 
L 259.22258 66.469493 
L 259.76367 66.298213 
L 260.304761 66.475299 
L 260.845852 66.122096 
L 261.386943 65.598581 
L 261.928034 65.713735 
L 262.469125 65.656641 
L 265.17458 68.588712 
L 265.71567 68.931271 
L 266.256761 69.468333 
L 267.338943 69.119001 
L 268.421125 68.396144 
L 270.044398 68.747411 
L 271.66767 68.073906 
L 272.208761 67.227186 
L 273.290943 66.163706 
L 273.832034 65.952752 
L 274.373125 65.149577 
L 274.914216 64.596064 
L 275.455307 63.280987 
L 276.537489 59.493488 
L 279.784034 46.624311 
L 281.407307 42.139114 
L 282.489489 40.03441 
L 283.57167 38.542248 
L 284.653852 37.534893 
L 286.277125 36.141434 
L 287.359307 35.608242 
L 288.98258 35.129241 
L 290.605852 34.888288 
L 296.016761 34.494442 
L 304.133125 34.415093 
L 406.940398 34.414125 
L 406.940398 34.414125 
" style="fill:none;stroke:#f10800;stroke-linecap:round;stroke-width:1.5;"/>
   </g>
   <g id="patch_3">
    <path d="M 66.053125 288.430125 
L 66.053125 22.318125 
" style="fill:none;stroke:#cccccc;stroke-linecap:square;stroke-linejoin:miter;stroke-width:0.8;"/>
   </g>
   <g id="patch_4">
    <path d="M 423.173125 288.430125 
L 423.173125 22.318125 
" style="fill:none;stroke:#cccccc;stroke-linecap:square;stroke-linejoin:miter;stroke-width:0.8;"/>
   </g>
   <g id="patch_5">
    <path d="M 66.053125 288.430125 
L 423.173125 288.430125 
" style="fill:none;stroke:#cccccc;stroke-linecap:square;stroke-linejoin:miter;stroke-width:0.8;"/>
   </g>
   <g id="patch_6">
    <path d="M 66.053125 22.318125 
L 423.173125 22.318125 
" style="fill:none;stroke:#cccccc;stroke-linecap:square;stroke-linejoin:miter;stroke-width:0.8;"/>
   </g>
   <g id="text_16">
    <!-- B cell -->
    <defs>
     <path d="M 19.671875 34.8125 
L 19.671875 8.109375 
L 35.5 8.109375 
Q 43.453125 8.109375 47.28125 11.40625 
Q 51.125 14.703125 51.125 21.484375 
Q 51.125 28.328125 47.28125 31.5625 
Q 43.453125 34.8125 35.5 34.8125 
z
M 19.671875 64.796875 
L 19.671875 42.828125 
L 34.28125 42.828125 
Q 41.5 42.828125 45.03125 45.53125 
Q 48.578125 48.25 48.578125 53.8125 
Q 48.578125 59.328125 45.03125 62.0625 
Q 41.5 64.796875 34.28125 64.796875 
z
M 9.8125 72.90625 
L 35.015625 72.90625 
Q 46.296875 72.90625 52.390625 68.21875 
Q 58.5 63.53125 58.5 54.890625 
Q 58.5 48.1875 55.375 44.234375 
Q 52.25 40.28125 46.1875 39.3125 
Q 53.46875 37.75 57.5 32.78125 
Q 61.53125 27.828125 61.53125 20.40625 
Q 61.53125 10.640625 54.890625 5.3125 
Q 48.25 0 35.984375 0 
L 9.8125 0 
z
" id="DejaVuSans-66"/>
    </defs>
    <g style="fill:#262626;" transform="translate(228.265 16.318125)scale(0.12 -0.12)">
     <use xlink:href="#DejaVuSans-66"/>
     <use x="68.603516" xlink:href="#DejaVuSans-32"/>
     <use x="100.390625" xlink:href="#DejaVuSans-99"/>
     <use x="155.371094" xlink:href="#DejaVuSans-101"/>
     <use x="216.894531" xlink:href="#DejaVuSans-108"/>
     <use x="244.677734" xlink:href="#DejaVuSans-108"/>
    </g>
   </g>
  </g>
 </g>
 <defs>
  <clipPath id="p35491763ab">
   <rect height="266.112" width="357.12" x="66.053125" y="22.318125"/>
  </clipPath>
 </defs>
</svg>
