<?xml version="1.0" encoding="utf-8" standalone="no"?>
<!DOCTYPE svg PUBLIC "-//W3C//DTD SVG 1.1//EN"
  "http://www.w3.org/Graphics/SVG/1.1/DTD/svg11.dtd">
<!-- Created with matplotlib (https://matplotlib.org/) -->
<svg height="325.986375pt" version="1.1" viewBox="0 0 411.285625 325.986375" width="411.285625pt" xmlns="http://www.w3.org/2000/svg" xmlns:xlink="http://www.w3.org/1999/xlink">
 <defs>
  <style type="text/css">
*{stroke-linecap:butt;stroke-linejoin:round;white-space:pre;}
  </style>
 </defs>
 <g id="figure_1">
  <g id="patch_1">
   <path d="M 0 325.986375 
L 411.285625 325.986375 
L 411.285625 0 
L 0 0 
z
" style="fill:#ffffff;"/>
  </g>
  <g id="axes_1">
   <g id="patch_2">
    <path d="M 46.965625 288.430125 
L 404.085625 288.430125 
L 404.085625 22.318125 
L 46.965625 22.318125 
z
" style="fill:#ffffff;"/>
   </g>
   <g id="matplotlib.axis_1">
    <g id="xtick_1">
     <g id="line2d_1">
      <path clip-path="url(#pda8fd0e69d)" d="M 63.198352 288.430125 
L 63.198352 22.318125 
" style="fill:none;stroke:#cccccc;stroke-linecap:round;stroke-width:0.8;"/>
     </g>
     <g id="text_1">
      <!-- 0 -->
      <defs>
       <path d="M 31.78125 66.40625 
Q 24.171875 66.40625 20.328125 58.90625 
Q 16.5 51.421875 16.5 36.375 
Q 16.5 21.390625 20.328125 13.890625 
Q 24.171875 6.390625 31.78125 6.390625 
Q 39.453125 6.390625 43.28125 13.890625 
Q 47.125 21.390625 47.125 36.375 
Q 47.125 51.421875 43.28125 58.90625 
Q 39.453125 66.40625 31.78125 66.40625 
z
M 31.78125 74.21875 
Q 44.046875 74.21875 50.515625 64.515625 
Q 56.984375 54.828125 56.984375 36.375 
Q 56.984375 17.96875 50.515625 8.265625 
Q 44.046875 -1.421875 31.78125 -1.421875 
Q 19.53125 -1.421875 13.0625 8.265625 
Q 6.59375 17.96875 6.59375 36.375 
Q 6.59375 54.828125 13.0625 64.515625 
Q 19.53125 74.21875 31.78125 74.21875 
z
" id="DejaVuSans-48"/>
      </defs>
      <g style="fill:#262626;" transform="translate(60.017102 303.028562)scale(0.1 -0.1)">
       <use xlink:href="#DejaVuSans-48"/>
      </g>
     </g>
    </g>
    <g id="xtick_2">
     <g id="line2d_2">
      <path clip-path="url(#pda8fd0e69d)" d="M 117.307443 288.430125 
L 117.307443 22.318125 
" style="fill:none;stroke:#cccccc;stroke-linecap:round;stroke-width:0.8;"/>
     </g>
     <g id="text_2">
      <!-- 10 -->
      <defs>
       <path d="M 12.40625 8.296875 
L 28.515625 8.296875 
L 28.515625 63.921875 
L 10.984375 60.40625 
L 10.984375 69.390625 
L 28.421875 72.90625 
L 38.28125 72.90625 
L 38.28125 8.296875 
L 54.390625 8.296875 
L 54.390625 0 
L 12.40625 0 
z
" id="DejaVuSans-49"/>
      </defs>
      <g style="fill:#262626;" transform="translate(110.944943 303.028562)scale(0.1 -0.1)">
       <use xlink:href="#DejaVuSans-49"/>
       <use x="63.623047" xlink:href="#DejaVuSans-48"/>
      </g>
     </g>
    </g>
    <g id="xtick_3">
     <g id="line2d_3">
      <path clip-path="url(#pda8fd0e69d)" d="M 171.416534 288.430125 
L 171.416534 22.318125 
" style="fill:none;stroke:#cccccc;stroke-linecap:round;stroke-width:0.8;"/>
     </g>
     <g id="text_3">
      <!-- 20 -->
      <defs>
       <path d="M 19.1875 8.296875 
L 53.609375 8.296875 
L 53.609375 0 
L 7.328125 0 
L 7.328125 8.296875 
Q 12.9375 14.109375 22.625 23.890625 
Q 32.328125 33.6875 34.8125 36.53125 
Q 39.546875 41.84375 41.421875 45.53125 
Q 43.3125 49.21875 43.3125 52.78125 
Q 43.3125 58.59375 39.234375 62.25 
Q 35.15625 65.921875 28.609375 65.921875 
Q 23.96875 65.921875 18.8125 64.3125 
Q 13.671875 62.703125 7.8125 59.421875 
L 7.8125 69.390625 
Q 13.765625 71.78125 18.9375 73 
Q 24.125 74.21875 28.421875 74.21875 
Q 39.75 74.21875 46.484375 68.546875 
Q 53.21875 62.890625 53.21875 53.421875 
Q 53.21875 48.921875 51.53125 44.890625 
Q 49.859375 40.875 45.40625 35.40625 
Q 44.1875 33.984375 37.640625 27.21875 
Q 31.109375 20.453125 19.1875 8.296875 
z
" id="DejaVuSans-50"/>
      </defs>
      <g style="fill:#262626;" transform="translate(165.054034 303.028562)scale(0.1 -0.1)">
       <use xlink:href="#DejaVuSans-50"/>
       <use x="63.623047" xlink:href="#DejaVuSans-48"/>
      </g>
     </g>
    </g>
    <g id="xtick_4">
     <g id="line2d_4">
      <path clip-path="url(#pda8fd0e69d)" d="M 225.525625 288.430125 
L 225.525625 22.318125 
" style="fill:none;stroke:#cccccc;stroke-linecap:round;stroke-width:0.8;"/>
     </g>
     <g id="text_4">
      <!-- 30 -->
      <defs>
       <path d="M 40.578125 39.3125 
Q 47.65625 37.796875 51.625 33 
Q 55.609375 28.21875 55.609375 21.1875 
Q 55.609375 10.40625 48.1875 4.484375 
Q 40.765625 -1.421875 27.09375 -1.421875 
Q 22.515625 -1.421875 17.65625 -0.515625 
Q 12.796875 0.390625 7.625 2.203125 
L 7.625 11.71875 
Q 11.71875 9.328125 16.59375 8.109375 
Q 21.484375 6.890625 26.8125 6.890625 
Q 36.078125 6.890625 40.9375 10.546875 
Q 45.796875 14.203125 45.796875 21.1875 
Q 45.796875 27.640625 41.28125 31.265625 
Q 36.765625 34.90625 28.71875 34.90625 
L 20.21875 34.90625 
L 20.21875 43.015625 
L 29.109375 43.015625 
Q 36.375 43.015625 40.234375 45.921875 
Q 44.09375 48.828125 44.09375 54.296875 
Q 44.09375 59.90625 40.109375 62.90625 
Q 36.140625 65.921875 28.71875 65.921875 
Q 24.65625 65.921875 20.015625 65.03125 
Q 15.375 64.15625 9.8125 62.3125 
L 9.8125 71.09375 
Q 15.4375 72.65625 20.34375 73.4375 
Q 25.25 74.21875 29.59375 74.21875 
Q 40.828125 74.21875 47.359375 69.109375 
Q 53.90625 64.015625 53.90625 55.328125 
Q 53.90625 49.265625 50.4375 45.09375 
Q 46.96875 40.921875 40.578125 39.3125 
z
" id="DejaVuSans-51"/>
      </defs>
      <g style="fill:#262626;" transform="translate(219.163125 303.028562)scale(0.1 -0.1)">
       <use xlink:href="#DejaVuSans-51"/>
       <use x="63.623047" xlink:href="#DejaVuSans-48"/>
      </g>
     </g>
    </g>
    <g id="xtick_5">
     <g id="line2d_5">
      <path clip-path="url(#pda8fd0e69d)" d="M 279.634716 288.430125 
L 279.634716 22.318125 
" style="fill:none;stroke:#cccccc;stroke-linecap:round;stroke-width:0.8;"/>
     </g>
     <g id="text_5">
      <!-- 40 -->
      <defs>
       <path d="M 37.796875 64.3125 
L 12.890625 25.390625 
L 37.796875 25.390625 
z
M 35.203125 72.90625 
L 47.609375 72.90625 
L 47.609375 25.390625 
L 58.015625 25.390625 
L 58.015625 17.1875 
L 47.609375 17.1875 
L 47.609375 0 
L 37.796875 0 
L 37.796875 17.1875 
L 4.890625 17.1875 
L 4.890625 26.703125 
z
" id="DejaVuSans-52"/>
      </defs>
      <g style="fill:#262626;" transform="translate(273.272216 303.028562)scale(0.1 -0.1)">
       <use xlink:href="#DejaVuSans-52"/>
       <use x="63.623047" xlink:href="#DejaVuSans-48"/>
      </g>
     </g>
    </g>
    <g id="xtick_6">
     <g id="line2d_6">
      <path clip-path="url(#pda8fd0e69d)" d="M 333.743807 288.430125 
L 333.743807 22.318125 
" style="fill:none;stroke:#cccccc;stroke-linecap:round;stroke-width:0.8;"/>
     </g>
     <g id="text_6">
      <!-- 50 -->
      <defs>
       <path d="M 10.796875 72.90625 
L 49.515625 72.90625 
L 49.515625 64.59375 
L 19.828125 64.59375 
L 19.828125 46.734375 
Q 21.96875 47.46875 24.109375 47.828125 
Q 26.265625 48.1875 28.421875 48.1875 
Q 40.625 48.1875 47.75 41.5 
Q 54.890625 34.8125 54.890625 23.390625 
Q 54.890625 11.625 47.5625 5.09375 
Q 40.234375 -1.421875 26.90625 -1.421875 
Q 22.3125 -1.421875 17.546875 -0.640625 
Q 12.796875 0.140625 7.71875 1.703125 
L 7.71875 11.625 
Q 12.109375 9.234375 16.796875 8.0625 
Q 21.484375 6.890625 26.703125 6.890625 
Q 35.15625 6.890625 40.078125 11.328125 
Q 45.015625 15.765625 45.015625 23.390625 
Q 45.015625 31 40.078125 35.4375 
Q 35.15625 39.890625 26.703125 39.890625 
Q 22.75 39.890625 18.8125 39.015625 
Q 14.890625 38.140625 10.796875 36.28125 
z
" id="DejaVuSans-53"/>
      </defs>
      <g style="fill:#262626;" transform="translate(327.381307 303.028562)scale(0.1 -0.1)">
       <use xlink:href="#DejaVuSans-53"/>
       <use x="63.623047" xlink:href="#DejaVuSans-48"/>
      </g>
     </g>
    </g>
    <g id="xtick_7">
     <g id="line2d_7">
      <path clip-path="url(#pda8fd0e69d)" d="M 387.852898 288.430125 
L 387.852898 22.318125 
" style="fill:none;stroke:#cccccc;stroke-linecap:round;stroke-width:0.8;"/>
     </g>
     <g id="text_7">
      <!-- 60 -->
      <defs>
       <path d="M 33.015625 40.375 
Q 26.375 40.375 22.484375 35.828125 
Q 18.609375 31.296875 18.609375 23.390625 
Q 18.609375 15.53125 22.484375 10.953125 
Q 26.375 6.390625 33.015625 6.390625 
Q 39.65625 6.390625 43.53125 10.953125 
Q 47.40625 15.53125 47.40625 23.390625 
Q 47.40625 31.296875 43.53125 35.828125 
Q 39.65625 40.375 33.015625 40.375 
z
M 52.59375 71.296875 
L 52.59375 62.3125 
Q 48.875 64.0625 45.09375 64.984375 
Q 41.3125 65.921875 37.59375 65.921875 
Q 27.828125 65.921875 22.671875 59.328125 
Q 17.53125 52.734375 16.796875 39.40625 
Q 19.671875 43.65625 24.015625 45.921875 
Q 28.375 48.1875 33.59375 48.1875 
Q 44.578125 48.1875 50.953125 41.515625 
Q 57.328125 34.859375 57.328125 23.390625 
Q 57.328125 12.15625 50.6875 5.359375 
Q 44.046875 -1.421875 33.015625 -1.421875 
Q 20.359375 -1.421875 13.671875 8.265625 
Q 6.984375 17.96875 6.984375 36.375 
Q 6.984375 53.65625 15.1875 63.9375 
Q 23.390625 74.21875 37.203125 74.21875 
Q 40.921875 74.21875 44.703125 73.484375 
Q 48.484375 72.75 52.59375 71.296875 
z
" id="DejaVuSans-54"/>
      </defs>
      <g style="fill:#262626;" transform="translate(381.490398 303.028562)scale(0.1 -0.1)">
       <use xlink:href="#DejaVuSans-54"/>
       <use x="63.623047" xlink:href="#DejaVuSans-48"/>
      </g>
     </g>
    </g>
    <g id="text_8">
     <!-- time (days) -->
     <defs>
      <path d="M 18.3125 70.21875 
L 18.3125 54.6875 
L 36.8125 54.6875 
L 36.8125 47.703125 
L 18.3125 47.703125 
L 18.3125 18.015625 
Q 18.3125 11.328125 20.140625 9.421875 
Q 21.96875 7.515625 27.59375 7.515625 
L 36.8125 7.515625 
L 36.8125 0 
L 27.59375 0 
Q 17.1875 0 13.234375 3.875 
Q 9.28125 7.765625 9.28125 18.015625 
L 9.28125 47.703125 
L 2.6875 47.703125 
L 2.6875 54.6875 
L 9.28125 54.6875 
L 9.28125 70.21875 
z
" id="DejaVuSans-116"/>
      <path d="M 9.421875 54.6875 
L 18.40625 54.6875 
L 18.40625 0 
L 9.421875 0 
z
M 9.421875 75.984375 
L 18.40625 75.984375 
L 18.40625 64.59375 
L 9.421875 64.59375 
z
" id="DejaVuSans-105"/>
      <path d="M 52 44.1875 
Q 55.375 50.25 60.0625 53.125 
Q 64.75 56 71.09375 56 
Q 79.640625 56 84.28125 50.015625 
Q 88.921875 44.046875 88.921875 33.015625 
L 88.921875 0 
L 79.890625 0 
L 79.890625 32.71875 
Q 79.890625 40.578125 77.09375 44.375 
Q 74.3125 48.1875 68.609375 48.1875 
Q 61.625 48.1875 57.5625 43.546875 
Q 53.515625 38.921875 53.515625 30.90625 
L 53.515625 0 
L 44.484375 0 
L 44.484375 32.71875 
Q 44.484375 40.625 41.703125 44.40625 
Q 38.921875 48.1875 33.109375 48.1875 
Q 26.21875 48.1875 22.15625 43.53125 
Q 18.109375 38.875 18.109375 30.90625 
L 18.109375 0 
L 9.078125 0 
L 9.078125 54.6875 
L 18.109375 54.6875 
L 18.109375 46.1875 
Q 21.1875 51.21875 25.484375 53.609375 
Q 29.78125 56 35.6875 56 
Q 41.65625 56 45.828125 52.96875 
Q 50 49.953125 52 44.1875 
z
" id="DejaVuSans-109"/>
      <path d="M 56.203125 29.59375 
L 56.203125 25.203125 
L 14.890625 25.203125 
Q 15.484375 15.921875 20.484375 11.0625 
Q 25.484375 6.203125 34.421875 6.203125 
Q 39.59375 6.203125 44.453125 7.46875 
Q 49.3125 8.734375 54.109375 11.28125 
L 54.109375 2.78125 
Q 49.265625 0.734375 44.1875 -0.34375 
Q 39.109375 -1.421875 33.890625 -1.421875 
Q 20.796875 -1.421875 13.15625 6.1875 
Q 5.515625 13.8125 5.515625 26.8125 
Q 5.515625 40.234375 12.765625 48.109375 
Q 20.015625 56 32.328125 56 
Q 43.359375 56 49.78125 48.890625 
Q 56.203125 41.796875 56.203125 29.59375 
z
M 47.21875 32.234375 
Q 47.125 39.59375 43.09375 43.984375 
Q 39.0625 48.390625 32.421875 48.390625 
Q 24.90625 48.390625 20.390625 44.140625 
Q 15.875 39.890625 15.1875 32.171875 
z
" id="DejaVuSans-101"/>
      <path id="DejaVuSans-32"/>
      <path d="M 31 75.875 
Q 24.46875 64.65625 21.28125 53.65625 
Q 18.109375 42.671875 18.109375 31.390625 
Q 18.109375 20.125 21.3125 9.0625 
Q 24.515625 -2 31 -13.1875 
L 23.1875 -13.1875 
Q 15.875 -1.703125 12.234375 9.375 
Q 8.59375 20.453125 8.59375 31.390625 
Q 8.59375 42.28125 12.203125 53.3125 
Q 15.828125 64.359375 23.1875 75.875 
z
" id="DejaVuSans-40"/>
      <path d="M 45.40625 46.390625 
L 45.40625 75.984375 
L 54.390625 75.984375 
L 54.390625 0 
L 45.40625 0 
L 45.40625 8.203125 
Q 42.578125 3.328125 38.25 0.953125 
Q 33.9375 -1.421875 27.875 -1.421875 
Q 17.96875 -1.421875 11.734375 6.484375 
Q 5.515625 14.40625 5.515625 27.296875 
Q 5.515625 40.1875 11.734375 48.09375 
Q 17.96875 56 27.875 56 
Q 33.9375 56 38.25 53.625 
Q 42.578125 51.265625 45.40625 46.390625 
z
M 14.796875 27.296875 
Q 14.796875 17.390625 18.875 11.75 
Q 22.953125 6.109375 30.078125 6.109375 
Q 37.203125 6.109375 41.296875 11.75 
Q 45.40625 17.390625 45.40625 27.296875 
Q 45.40625 37.203125 41.296875 42.84375 
Q 37.203125 48.484375 30.078125 48.484375 
Q 22.953125 48.484375 18.875 42.84375 
Q 14.796875 37.203125 14.796875 27.296875 
z
" id="DejaVuSans-100"/>
      <path d="M 34.28125 27.484375 
Q 23.390625 27.484375 19.1875 25 
Q 14.984375 22.515625 14.984375 16.5 
Q 14.984375 11.71875 18.140625 8.90625 
Q 21.296875 6.109375 26.703125 6.109375 
Q 34.1875 6.109375 38.703125 11.40625 
Q 43.21875 16.703125 43.21875 25.484375 
L 43.21875 27.484375 
z
M 52.203125 31.203125 
L 52.203125 0 
L 43.21875 0 
L 43.21875 8.296875 
Q 40.140625 3.328125 35.546875 0.953125 
Q 30.953125 -1.421875 24.3125 -1.421875 
Q 15.921875 -1.421875 10.953125 3.296875 
Q 6 8.015625 6 15.921875 
Q 6 25.140625 12.171875 29.828125 
Q 18.359375 34.515625 30.609375 34.515625 
L 43.21875 34.515625 
L 43.21875 35.40625 
Q 43.21875 41.609375 39.140625 45 
Q 35.0625 48.390625 27.6875 48.390625 
Q 23 48.390625 18.546875 47.265625 
Q 14.109375 46.140625 10.015625 43.890625 
L 10.015625 52.203125 
Q 14.9375 54.109375 19.578125 55.046875 
Q 24.21875 56 28.609375 56 
Q 40.484375 56 46.34375 49.84375 
Q 52.203125 43.703125 52.203125 31.203125 
z
" id="DejaVuSans-97"/>
      <path d="M 32.171875 -5.078125 
Q 28.375 -14.84375 24.75 -17.8125 
Q 21.140625 -20.796875 15.09375 -20.796875 
L 7.90625 -20.796875 
L 7.90625 -13.28125 
L 13.1875 -13.28125 
Q 16.890625 -13.28125 18.9375 -11.515625 
Q 21 -9.765625 23.484375 -3.21875 
L 25.09375 0.875 
L 2.984375 54.6875 
L 12.5 54.6875 
L 29.59375 11.921875 
L 46.6875 54.6875 
L 56.203125 54.6875 
z
" id="DejaVuSans-121"/>
      <path d="M 44.28125 53.078125 
L 44.28125 44.578125 
Q 40.484375 46.53125 36.375 47.5 
Q 32.28125 48.484375 27.875 48.484375 
Q 21.1875 48.484375 17.84375 46.4375 
Q 14.5 44.390625 14.5 40.28125 
Q 14.5 37.15625 16.890625 35.375 
Q 19.28125 33.59375 26.515625 31.984375 
L 29.59375 31.296875 
Q 39.15625 29.25 43.1875 25.515625 
Q 47.21875 21.78125 47.21875 15.09375 
Q 47.21875 7.46875 41.1875 3.015625 
Q 35.15625 -1.421875 24.609375 -1.421875 
Q 20.21875 -1.421875 15.453125 -0.5625 
Q 10.6875 0.296875 5.421875 2 
L 5.421875 11.28125 
Q 10.40625 8.6875 15.234375 7.390625 
Q 20.0625 6.109375 24.8125 6.109375 
Q 31.15625 6.109375 34.5625 8.28125 
Q 37.984375 10.453125 37.984375 14.40625 
Q 37.984375 18.0625 35.515625 20.015625 
Q 33.0625 21.96875 24.703125 23.78125 
L 21.578125 24.515625 
Q 13.234375 26.265625 9.515625 29.90625 
Q 5.8125 33.546875 5.8125 39.890625 
Q 5.8125 47.609375 11.28125 51.796875 
Q 16.75 56 26.8125 56 
Q 31.78125 56 36.171875 55.265625 
Q 40.578125 54.546875 44.28125 53.078125 
z
" id="DejaVuSans-115"/>
      <path d="M 8.015625 75.875 
L 15.828125 75.875 
Q 23.140625 64.359375 26.78125 53.3125 
Q 30.421875 42.28125 30.421875 31.390625 
Q 30.421875 20.453125 26.78125 9.375 
Q 23.140625 -1.703125 15.828125 -13.1875 
L 8.015625 -13.1875 
Q 14.5 -2 17.703125 9.0625 
Q 20.90625 20.125 20.90625 31.390625 
Q 20.90625 42.671875 17.703125 53.65625 
Q 14.5 64.65625 8.015625 75.875 
z
" id="DejaVuSans-41"/>
     </defs>
     <g style="fill:#262626;" transform="translate(196.936563 316.706687)scale(0.1 -0.1)">
      <use xlink:href="#DejaVuSans-116"/>
      <use x="39.208984" xlink:href="#DejaVuSans-105"/>
      <use x="66.992188" xlink:href="#DejaVuSans-109"/>
      <use x="164.404297" xlink:href="#DejaVuSans-101"/>
      <use x="225.927734" xlink:href="#DejaVuSans-32"/>
      <use x="257.714844" xlink:href="#DejaVuSans-40"/>
      <use x="296.728516" xlink:href="#DejaVuSans-100"/>
      <use x="360.205078" xlink:href="#DejaVuSans-97"/>
      <use x="421.484375" xlink:href="#DejaVuSans-121"/>
      <use x="480.664062" xlink:href="#DejaVuSans-115"/>
      <use x="532.763672" xlink:href="#DejaVuSans-41"/>
     </g>
    </g>
   </g>
   <g id="matplotlib.axis_2">
    <g id="ytick_1">
     <g id="line2d_8">
      <path clip-path="url(#pda8fd0e69d)" d="M 46.965625 276.334125 
L 404.085625 276.334125 
" style="fill:none;stroke:#cccccc;stroke-linecap:round;stroke-width:0.8;"/>
     </g>
     <g id="text_9">
      <!-- 0 -->
      <g style="fill:#262626;" transform="translate(33.603125 280.133344)scale(0.1 -0.1)">
       <use xlink:href="#DejaVuSans-48"/>
      </g>
     </g>
    </g>
    <g id="ytick_2">
     <g id="line2d_9">
      <path clip-path="url(#pda8fd0e69d)" d="M 46.965625 245.633617 
L 404.085625 245.633617 
" style="fill:none;stroke:#cccccc;stroke-linecap:round;stroke-width:0.8;"/>
     </g>
     <g id="text_10">
      <!-- 50 -->
      <g style="fill:#262626;" transform="translate(27.240625 249.432836)scale(0.1 -0.1)">
       <use xlink:href="#DejaVuSans-53"/>
       <use x="63.623047" xlink:href="#DejaVuSans-48"/>
      </g>
     </g>
    </g>
    <g id="ytick_3">
     <g id="line2d_10">
      <path clip-path="url(#pda8fd0e69d)" d="M 46.965625 214.93311 
L 404.085625 214.93311 
" style="fill:none;stroke:#cccccc;stroke-linecap:round;stroke-width:0.8;"/>
     </g>
     <g id="text_11">
      <!-- 100 -->
      <g style="fill:#262626;" transform="translate(20.878125 218.732329)scale(0.1 -0.1)">
       <use xlink:href="#DejaVuSans-49"/>
       <use x="63.623047" xlink:href="#DejaVuSans-48"/>
       <use x="127.246094" xlink:href="#DejaVuSans-48"/>
      </g>
     </g>
    </g>
    <g id="ytick_4">
     <g id="line2d_11">
      <path clip-path="url(#pda8fd0e69d)" d="M 46.965625 184.232602 
L 404.085625 184.232602 
" style="fill:none;stroke:#cccccc;stroke-linecap:round;stroke-width:0.8;"/>
     </g>
     <g id="text_12">
      <!-- 150 -->
      <g style="fill:#262626;" transform="translate(20.878125 188.031821)scale(0.1 -0.1)">
       <use xlink:href="#DejaVuSans-49"/>
       <use x="63.623047" xlink:href="#DejaVuSans-53"/>
       <use x="127.246094" xlink:href="#DejaVuSans-48"/>
      </g>
     </g>
    </g>
    <g id="ytick_5">
     <g id="line2d_12">
      <path clip-path="url(#pda8fd0e69d)" d="M 46.965625 153.532095 
L 404.085625 153.532095 
" style="fill:none;stroke:#cccccc;stroke-linecap:round;stroke-width:0.8;"/>
     </g>
     <g id="text_13">
      <!-- 200 -->
      <g style="fill:#262626;" transform="translate(20.878125 157.331313)scale(0.1 -0.1)">
       <use xlink:href="#DejaVuSans-50"/>
       <use x="63.623047" xlink:href="#DejaVuSans-48"/>
       <use x="127.246094" xlink:href="#DejaVuSans-48"/>
      </g>
     </g>
    </g>
    <g id="ytick_6">
     <g id="line2d_13">
      <path clip-path="url(#pda8fd0e69d)" d="M 46.965625 122.831587 
L 404.085625 122.831587 
" style="fill:none;stroke:#cccccc;stroke-linecap:round;stroke-width:0.8;"/>
     </g>
     <g id="text_14">
      <!-- 250 -->
      <g style="fill:#262626;" transform="translate(20.878125 126.630806)scale(0.1 -0.1)">
       <use xlink:href="#DejaVuSans-50"/>
       <use x="63.623047" xlink:href="#DejaVuSans-53"/>
       <use x="127.246094" xlink:href="#DejaVuSans-48"/>
      </g>
     </g>
    </g>
    <g id="ytick_7">
     <g id="line2d_14">
      <path clip-path="url(#pda8fd0e69d)" d="M 46.965625 92.131079 
L 404.085625 92.131079 
" style="fill:none;stroke:#cccccc;stroke-linecap:round;stroke-width:0.8;"/>
     </g>
     <g id="text_15">
      <!-- 300 -->
      <g style="fill:#262626;" transform="translate(20.878125 95.930298)scale(0.1 -0.1)">
       <use xlink:href="#DejaVuSans-51"/>
       <use x="63.623047" xlink:href="#DejaVuSans-48"/>
       <use x="127.246094" xlink:href="#DejaVuSans-48"/>
      </g>
     </g>
    </g>
    <g id="ytick_8">
     <g id="line2d_15">
      <path clip-path="url(#pda8fd0e69d)" d="M 46.965625 61.430572 
L 404.085625 61.430572 
" style="fill:none;stroke:#cccccc;stroke-linecap:round;stroke-width:0.8;"/>
     </g>
     <g id="text_16">
      <!-- 350 -->
      <g style="fill:#262626;" transform="translate(20.878125 65.22979)scale(0.1 -0.1)">
       <use xlink:href="#DejaVuSans-51"/>
       <use x="63.623047" xlink:href="#DejaVuSans-53"/>
       <use x="127.246094" xlink:href="#DejaVuSans-48"/>
      </g>
     </g>
    </g>
    <g id="ytick_9">
     <g id="line2d_16">
      <path clip-path="url(#pda8fd0e69d)" d="M 46.965625 30.730064 
L 404.085625 30.730064 
" style="fill:none;stroke:#cccccc;stroke-linecap:round;stroke-width:0.8;"/>
     </g>
     <g id="text_17">
      <!-- 400 -->
      <g style="fill:#262626;" transform="translate(20.878125 34.529283)scale(0.1 -0.1)">
       <use xlink:href="#DejaVuSans-52"/>
       <use x="63.623047" xlink:href="#DejaVuSans-48"/>
       <use x="127.246094" xlink:href="#DejaVuSans-48"/>
      </g>
     </g>
    </g>
    <g id="text_18">
     <!-- cells number -->
     <defs>
      <path d="M 48.78125 52.59375 
L 48.78125 44.1875 
Q 44.96875 46.296875 41.140625 47.34375 
Q 37.3125 48.390625 33.40625 48.390625 
Q 24.65625 48.390625 19.8125 42.84375 
Q 14.984375 37.3125 14.984375 27.296875 
Q 14.984375 17.28125 19.8125 11.734375 
Q 24.65625 6.203125 33.40625 6.203125 
Q 37.3125 6.203125 41.140625 7.25 
Q 44.96875 8.296875 48.78125 10.40625 
L 48.78125 2.09375 
Q 45.015625 0.34375 40.984375 -0.53125 
Q 36.96875 -1.421875 32.421875 -1.421875 
Q 20.0625 -1.421875 12.78125 6.34375 
Q 5.515625 14.109375 5.515625 27.296875 
Q 5.515625 40.671875 12.859375 48.328125 
Q 20.21875 56 33.015625 56 
Q 37.15625 56 41.109375 55.140625 
Q 45.0625 54.296875 48.78125 52.59375 
z
" id="DejaVuSans-99"/>
      <path d="M 9.421875 75.984375 
L 18.40625 75.984375 
L 18.40625 0 
L 9.421875 0 
z
" id="DejaVuSans-108"/>
      <path d="M 54.890625 33.015625 
L 54.890625 0 
L 45.90625 0 
L 45.90625 32.71875 
Q 45.90625 40.484375 42.875 44.328125 
Q 39.84375 48.1875 33.796875 48.1875 
Q 26.515625 48.1875 22.3125 43.546875 
Q 18.109375 38.921875 18.109375 30.90625 
L 18.109375 0 
L 9.078125 0 
L 9.078125 54.6875 
L 18.109375 54.6875 
L 18.109375 46.1875 
Q 21.34375 51.125 25.703125 53.5625 
Q 30.078125 56 35.796875 56 
Q 45.21875 56 50.046875 50.171875 
Q 54.890625 44.34375 54.890625 33.015625 
z
" id="DejaVuSans-110"/>
      <path d="M 8.5 21.578125 
L 8.5 54.6875 
L 17.484375 54.6875 
L 17.484375 21.921875 
Q 17.484375 14.15625 20.5 10.265625 
Q 23.53125 6.390625 29.59375 6.390625 
Q 36.859375 6.390625 41.078125 11.03125 
Q 45.3125 15.671875 45.3125 23.6875 
L 45.3125 54.6875 
L 54.296875 54.6875 
L 54.296875 0 
L 45.3125 0 
L 45.3125 8.40625 
Q 42.046875 3.421875 37.71875 1 
Q 33.40625 -1.421875 27.6875 -1.421875 
Q 18.265625 -1.421875 13.375 4.4375 
Q 8.5 10.296875 8.5 21.578125 
z
M 31.109375 56 
z
" id="DejaVuSans-117"/>
      <path d="M 48.6875 27.296875 
Q 48.6875 37.203125 44.609375 42.84375 
Q 40.53125 48.484375 33.40625 48.484375 
Q 26.265625 48.484375 22.1875 42.84375 
Q 18.109375 37.203125 18.109375 27.296875 
Q 18.109375 17.390625 22.1875 11.75 
Q 26.265625 6.109375 33.40625 6.109375 
Q 40.53125 6.109375 44.609375 11.75 
Q 48.6875 17.390625 48.6875 27.296875 
z
M 18.109375 46.390625 
Q 20.953125 51.265625 25.265625 53.625 
Q 29.59375 56 35.59375 56 
Q 45.5625 56 51.78125 48.09375 
Q 58.015625 40.1875 58.015625 27.296875 
Q 58.015625 14.40625 51.78125 6.484375 
Q 45.5625 -1.421875 35.59375 -1.421875 
Q 29.59375 -1.421875 25.265625 0.953125 
Q 20.953125 3.328125 18.109375 8.203125 
L 18.109375 0 
L 9.078125 0 
L 9.078125 75.984375 
L 18.109375 75.984375 
z
" id="DejaVuSans-98"/>
      <path d="M 41.109375 46.296875 
Q 39.59375 47.171875 37.8125 47.578125 
Q 36.03125 48 33.890625 48 
Q 26.265625 48 22.1875 43.046875 
Q 18.109375 38.09375 18.109375 28.8125 
L 18.109375 0 
L 9.078125 0 
L 9.078125 54.6875 
L 18.109375 54.6875 
L 18.109375 46.1875 
Q 20.953125 51.171875 25.484375 53.578125 
Q 30.03125 56 36.53125 56 
Q 37.453125 56 38.578125 55.875 
Q 39.703125 55.765625 41.0625 55.515625 
z
" id="DejaVuSans-114"/>
     </defs>
     <g style="fill:#262626;" transform="translate(14.798438 187.685844)rotate(-90)scale(0.1 -0.1)">
      <use xlink:href="#DejaVuSans-99"/>
      <use x="54.980469" xlink:href="#DejaVuSans-101"/>
      <use x="116.503906" xlink:href="#DejaVuSans-108"/>
      <use x="144.287109" xlink:href="#DejaVuSans-108"/>
      <use x="172.070312" xlink:href="#DejaVuSans-115"/>
      <use x="224.169922" xlink:href="#DejaVuSans-32"/>
      <use x="255.957031" xlink:href="#DejaVuSans-110"/>
      <use x="319.335938" xlink:href="#DejaVuSans-117"/>
      <use x="382.714844" xlink:href="#DejaVuSans-109"/>
      <use x="480.126953" xlink:href="#DejaVuSans-98"/>
      <use x="543.603516" xlink:href="#DejaVuSans-101"/>
      <use x="605.126953" xlink:href="#DejaVuSans-114"/>
     </g>
    </g>
   </g>
   <g id="line2d_17">
    <path clip-path="url(#pda8fd0e69d)" d="M 63.198352 276.334125 
L 81.054352 276.334125 
L 81.595443 275.720115 
L 83.218716 275.720115 
L 83.759807 275.106105 
L 85.92417 275.106105 
L 86.465261 273.878084 
L 87.006352 273.878084 
L 87.547443 273.264074 
L 89.170716 273.264074 
L 90.252898 272.036054 
L 91.33508 272.036054 
L 91.87617 271.422044 
L 92.417261 271.422044 
L 92.958352 270.808034 
L 94.040534 270.808034 
L 95.122716 269.580013 
L 95.663807 269.580013 
L 96.204898 268.966003 
L 96.745989 267.737983 
L 97.28708 267.737983 
L 98.369261 265.281942 
L 98.910352 265.281942 
L 99.451443 264.053922 
L 100.533625 262.825902 
L 102.156898 262.825902 
L 103.23908 260.369861 
L 103.78017 259.755851 
L 104.321261 257.91382 
L 105.403443 256.6858 
L 105.944534 256.6858 
L 106.485625 254.22976 
L 107.026716 254.22976 
L 108.649989 250.545699 
L 109.19108 248.703668 
L 109.73217 247.475648 
L 110.273261 247.475648 
L 111.896534 245.633617 
L 112.437625 243.791587 
L 113.519807 241.335546 
L 114.060898 238.265496 
L 114.601989 237.037475 
L 115.14308 235.195445 
L 117.307443 232.739404 
L 117.848534 232.739404 
L 118.389625 232.125394 
L 119.471807 229.669353 
L 120.012898 229.669353 
L 120.553989 227.827323 
L 121.09508 226.599303 
L 121.63617 225.985293 
L 122.177261 224.143262 
L 122.718352 222.915242 
L 123.259443 222.915242 
L 125.423807 220.459201 
L 125.964898 219.231181 
L 126.505989 218.617171 
L 127.04708 218.617171 
L 127.58817 216.16113 
L 128.129261 215.54712 
L 128.670352 215.54712 
L 129.211443 214.93311 
L 129.752534 214.93311 
L 130.834716 213.705089 
L 132.457989 213.705089 
L 133.54017 212.477069 
L 135.163443 212.477069 
L 136.245625 211.249049 
L 139.49217 211.249049 
L 140.574352 210.021029 
L 141.115443 210.021029 
L 142.738716 206.336968 
L 144.90308 206.336968 
L 145.44417 205.722957 
L 145.985261 205.722957 
L 147.067443 204.494937 
L 147.608534 204.494937 
L 148.149625 203.880927 
L 148.690716 203.880927 
L 149.772898 202.652907 
L 150.313989 201.424886 
L 151.39617 200.196866 
L 151.937261 198.968846 
L 152.478352 198.968846 
L 153.560534 197.740826 
L 154.642716 197.740826 
L 155.724898 196.512805 
L 156.80708 196.512805 
L 157.34817 195.898795 
L 157.889261 194.670775 
L 158.430352 194.056765 
L 160.594716 194.056765 
L 161.135807 192.214734 
L 161.676898 191.600724 
L 162.217989 191.600724 
L 163.841261 189.758694 
L 164.923443 189.758694 
L 165.464534 189.144683 
L 166.005625 189.144683 
L 167.628898 187.302653 
L 168.169989 187.302653 
L 169.25217 186.074633 
L 171.957625 186.074633 
L 172.498716 185.460622 
L 176.286352 185.460622 
L 176.827443 184.846612 
L 180.073989 184.846612 
L 180.61508 184.232602 
L 288.833261 184.232602 
L 289.374352 184.846612 
L 303.983807 184.846612 
L 304.524898 184.232602 
L 344.024534 184.232602 
L 344.565625 183.618592 
L 382.441989 183.618592 
L 382.98308 183.004582 
L 383.52417 183.618592 
L 385.147443 183.618592 
L 385.688534 183.004582 
L 387.852898 183.004582 
L 387.852898 183.004582 
" style="fill:none;stroke:#000080;stroke-linecap:round;stroke-width:1.5;"/>
   </g>
   <g id="line2d_18">
    <path clip-path="url(#pda8fd0e69d)" d="M 63.198352 276.334125 
L 76.725625 276.334125 
L 77.266716 275.720115 
L 78.348898 275.720115 
L 78.889989 274.492095 
L 84.841989 274.492095 
L 85.92417 273.264074 
L 86.465261 273.264074 
L 87.006352 272.036054 
L 87.547443 272.036054 
L 88.088534 271.422044 
L 90.252898 271.422044 
L 91.87617 269.580013 
L 92.958352 269.580013 
L 93.499443 268.966003 
L 94.040534 267.737983 
L 94.581625 267.123973 
L 95.122716 267.123973 
L 95.663807 265.895952 
L 96.745989 265.895952 
L 97.28708 264.667932 
L 97.82817 264.667932 
L 98.369261 262.825902 
L 99.992534 260.983871 
L 101.074716 260.983871 
L 101.615807 259.755851 
L 102.697989 259.755851 
L 103.23908 259.141841 
L 103.78017 257.91382 
L 104.321261 257.91382 
L 105.403443 256.6858 
L 105.944534 254.22976 
L 106.485625 254.22976 
L 107.026716 253.615749 
L 109.73217 253.615749 
L 110.814352 252.387729 
L 111.355443 252.387729 
L 111.896534 251.773719 
L 114.060898 251.773719 
L 114.601989 251.159709 
L 116.225261 251.159709 
L 116.766352 250.545699 
L 117.307443 250.545699 
L 117.848534 248.703668 
L 118.930716 247.475648 
L 119.471807 247.475648 
L 120.012898 246.861638 
L 120.553989 246.861638 
L 121.09508 245.633617 
L 121.63617 245.019607 
L 122.177261 245.019607 
L 122.718352 244.405597 
L 123.259443 244.405597 
L 123.800534 242.563567 
L 124.882716 240.107526 
L 125.423807 240.107526 
L 125.964898 238.879506 
L 126.505989 238.879506 
L 127.58817 237.651485 
L 128.129261 237.651485 
L 128.670352 235.809455 
L 130.293625 233.967424 
L 130.834716 233.967424 
L 131.375807 233.353414 
L 131.916898 232.125394 
L 132.457989 230.283364 
L 132.99908 229.669353 
L 134.081261 229.669353 
L 136.245625 227.213313 
L 136.786716 227.213313 
L 137.868898 225.985293 
L 138.409989 224.757272 
L 138.95108 224.143262 
L 139.49217 222.915242 
L 140.033261 222.915242 
L 141.115443 220.459201 
L 141.656534 220.459201 
L 142.197625 219.845191 
L 142.738716 218.617171 
L 143.279807 218.003161 
L 143.820898 216.77514 
L 144.361989 216.77514 
L 145.44417 215.54712 
L 145.985261 215.54712 
L 147.067443 214.3191 
L 147.608534 214.3191 
L 148.149625 213.091079 
L 148.690716 213.091079 
L 149.772898 211.863059 
L 150.313989 212.477069 
L 150.85508 210.635039 
L 151.39617 209.407018 
L 151.937261 209.407018 
L 152.478352 206.950978 
L 153.560534 205.722957 
L 154.101625 204.494937 
L 154.642716 203.880927 
L 155.183807 203.880927 
L 155.724898 202.038897 
L 157.34817 202.038897 
L 157.889261 201.424886 
L 160.594716 201.424886 
L 161.135807 200.810876 
L 163.841261 200.810876 
L 164.382352 200.196866 
L 167.628898 200.196866 
L 168.169989 199.582856 
L 168.71108 199.582856 
L 169.25217 198.354836 
L 170.334352 198.354836 
L 171.416534 197.126815 
L 173.039807 197.126815 
L 173.580898 196.512805 
L 174.66308 196.512805 
L 175.20417 195.898795 
L 176.286352 195.898795 
L 176.827443 195.284785 
L 178.991807 195.284785 
L 179.532898 194.670775 
L 180.61508 194.670775 
L 181.15617 194.056765 
L 182.238352 194.056765 
L 182.779443 193.442754 
L 183.861625 193.442754 
L 184.402716 192.214734 
L 187.649261 192.214734 
L 188.190352 190.986714 
L 189.272534 190.986714 
L 189.813625 190.372704 
L 190.354716 190.372704 
L 190.895807 189.758694 
L 192.51908 189.758694 
L 193.06017 189.144683 
L 194.142352 189.144683 
L 194.683443 188.530673 
L 199.553261 188.530673 
L 200.094352 187.916663 
L 202.258716 187.916663 
L 202.799807 187.302653 
L 203.881989 187.302653 
L 204.42308 186.688643 
L 206.587443 186.688643 
L 207.128534 186.074633 
L 207.669625 186.074633 
L 209.292898 184.232602 
L 357.010716 184.232602 
L 357.551807 184.846612 
L 387.852898 184.846612 
L 387.852898 184.846612 
" style="fill:none;stroke:#0000f1;stroke-linecap:round;stroke-width:1.5;"/>
   </g>
   <g id="line2d_19">
    <path clip-path="url(#pda8fd0e69d)" d="M 63.198352 276.334125 
L 71.314716 276.334125 
L 71.855807 275.720115 
L 82.677625 275.720115 
L 83.218716 275.106105 
L 84.300898 275.106105 
L 84.841989 274.492095 
L 87.547443 274.492095 
L 88.629625 273.264074 
L 92.958352 273.264074 
L 93.499443 272.650064 
L 94.040534 272.650064 
L 94.581625 271.422044 
L 95.122716 271.422044 
L 95.663807 270.808034 
L 96.204898 270.808034 
L 97.28708 269.580013 
L 97.82817 268.351993 
L 98.369261 267.737983 
L 98.910352 267.737983 
L 99.451443 266.509963 
L 101.074716 266.509963 
L 103.23908 261.597881 
L 104.321261 261.597881 
L 104.862352 260.983871 
L 105.403443 259.755851 
L 105.944534 259.755851 
L 106.485625 259.141841 
L 107.567807 259.141841 
L 108.649989 257.91382 
L 109.19108 257.91382 
L 109.73217 257.29981 
L 110.273261 257.29981 
L 110.814352 256.6858 
L 111.355443 256.6858 
L 112.978716 254.84377 
L 113.519807 253.615749 
L 114.601989 253.615749 
L 115.68417 252.387729 
L 116.225261 250.545699 
L 117.307443 250.545699 
L 117.848534 249.931688 
L 118.930716 249.931688 
L 119.471807 249.317678 
L 121.09508 245.633617 
L 122.718352 243.791587 
L 123.800534 243.791587 
L 124.882716 241.335546 
L 125.423807 240.721536 
L 125.964898 240.721536 
L 126.505989 240.107526 
L 127.04708 240.107526 
L 127.58817 239.493516 
L 128.129261 239.493516 
L 128.670352 238.265496 
L 130.293625 238.265496 
L 132.457989 235.809455 
L 132.99908 234.581435 
L 134.081261 233.353414 
L 134.622352 233.353414 
L 135.163443 232.739404 
L 135.704534 230.897374 
L 136.245625 229.669353 
L 137.327807 228.441333 
L 137.868898 228.441333 
L 138.409989 227.827323 
L 138.95108 225.371282 
L 140.033261 224.143262 
L 140.574352 224.143262 
L 141.115443 222.301232 
L 141.656534 221.687221 
L 143.279807 221.687221 
L 143.820898 221.073211 
L 144.361989 221.073211 
L 144.90308 220.459201 
L 145.44417 219.231181 
L 145.985261 219.231181 
L 146.526352 218.617171 
L 147.067443 218.617171 
L 147.608534 218.003161 
L 148.690716 218.003161 
L 149.231807 216.77514 
L 149.772898 216.16113 
L 150.85508 213.705089 
L 151.39617 213.705089 
L 152.478352 212.477069 
L 153.019443 211.249049 
L 153.560534 211.249049 
L 154.101625 210.021029 
L 154.642716 210.021029 
L 156.80708 207.564988 
L 157.889261 207.564988 
L 158.430352 205.722957 
L 161.135807 205.722957 
L 161.676898 204.494937 
L 162.217989 203.880927 
L 162.75908 203.880927 
L 163.30017 203.266917 
L 164.382352 203.266917 
L 164.923443 202.652907 
L 173.039807 202.652907 
L 173.580898 202.038897 
L 176.286352 202.038897 
L 176.827443 201.424886 
L 179.532898 201.424886 
L 180.073989 200.810876 
L 184.943807 200.810876 
L 186.025989 199.582856 
L 190.354716 199.582856 
L 190.895807 198.968846 
L 193.601261 198.968846 
L 194.683443 197.740826 
L 200.635443 197.740826 
L 201.176534 197.126815 
L 202.799807 197.126815 
L 203.340898 196.512805 
L 203.881989 196.512805 
L 204.42308 195.898795 
L 204.96417 195.898795 
L 205.505261 194.670775 
L 210.91617 194.670775 
L 211.998352 192.214734 
L 212.539443 192.214734 
L 213.080534 191.600724 
L 213.621625 191.600724 
L 214.703807 190.372704 
L 215.244898 190.372704 
L 215.785989 189.758694 
L 216.32708 188.530673 
L 216.86817 188.530673 
L 217.950352 187.302653 
L 218.491443 186.074633 
L 219.032534 186.074633 
L 219.573625 185.460622 
L 221.196898 185.460622 
L 221.737989 184.846612 
L 222.27908 184.846612 
L 222.82017 184.232602 
L 223.361261 184.232602 
L 223.902352 183.618592 
L 226.607807 183.618592 
L 227.148898 183.004582 
L 229.854352 183.004582 
L 230.395443 182.390572 
L 230.936534 182.390572 
L 231.477625 181.162551 
L 239.593989 181.162551 
L 240.13508 180.548541 
L 243.381625 180.548541 
L 243.922716 179.934531 
L 252.03908 179.934531 
L 252.58017 178.706511 
L 257.99108 178.706511 
L 258.53217 178.092501 
L 259.073261 178.092501 
L 259.614352 177.47849 
L 260.696534 177.47849 
L 261.237625 176.86448 
L 262.860898 176.86448 
L 263.401989 176.25047 
L 313.723443 176.25047 
L 314.264534 176.86448 
L 387.852898 176.86448 
L 387.852898 176.86448 
" style="fill:none;stroke:#004cff;stroke-linecap:round;stroke-width:1.5;"/>
   </g>
   <g id="line2d_20">
    <path clip-path="url(#pda8fd0e69d)" d="M 63.198352 276.334125 
L 73.47908 276.334125 
L 74.02017 275.720115 
L 76.184534 275.720115 
L 77.266716 274.492095 
L 79.97217 274.492095 
L 80.513261 273.878084 
L 82.136534 273.878084 
L 82.677625 273.264074 
L 86.465261 273.264074 
L 87.006352 272.036054 
L 89.711807 272.036054 
L 90.252898 271.422044 
L 91.87617 271.422044 
L 92.417261 270.194023 
L 93.499443 270.194023 
L 94.581625 268.966003 
L 96.204898 268.966003 
L 96.745989 268.351993 
L 97.28708 268.351993 
L 97.82817 266.509963 
L 98.369261 266.509963 
L 99.451443 265.281942 
L 99.992534 263.439912 
L 100.533625 262.211891 
L 101.615807 260.983871 
L 102.156898 259.755851 
L 102.697989 257.91382 
L 103.23908 257.29981 
L 103.78017 256.07179 
L 104.321261 255.45778 
L 104.862352 254.22976 
L 105.403443 254.22976 
L 105.944534 252.387729 
L 106.485625 251.159709 
L 107.026716 249.317678 
L 108.108898 248.089658 
L 108.649989 246.247628 
L 109.73217 245.019607 
L 110.814352 242.563567 
L 111.355443 241.949556 
L 111.896534 240.721536 
L 114.060898 238.265496 
L 114.601989 236.423465 
L 115.14308 235.809455 
L 116.225261 235.809455 
L 116.766352 235.195445 
L 117.307443 232.739404 
L 118.389625 231.511384 
L 118.930716 231.511384 
L 119.471807 229.055343 
L 120.012898 227.213313 
L 120.553989 224.757272 
L 121.09508 224.143262 
L 121.63617 222.915242 
L 122.177261 222.301232 
L 122.718352 219.231181 
L 123.259443 218.003161 
L 124.341625 216.77514 
L 125.423807 214.3191 
L 125.964898 212.477069 
L 126.505989 212.477069 
L 127.04708 211.863059 
L 127.58817 210.021029 
L 128.129261 208.793008 
L 129.211443 207.564988 
L 129.752534 207.564988 
L 130.293625 206.950978 
L 130.834716 205.722957 
L 132.457989 203.880927 
L 133.54017 201.424886 
L 134.081261 200.810876 
L 135.163443 198.354836 
L 135.704534 198.354836 
L 136.245625 197.126815 
L 138.409989 197.126815 
L 139.49217 195.898795 
L 140.033261 195.898795 
L 141.115443 194.670775 
L 145.44417 194.670775 
L 145.985261 194.056765 
L 147.067443 194.056765 
L 147.608534 192.828744 
L 148.149625 192.214734 
L 148.690716 192.214734 
L 149.231807 191.600724 
L 151.39617 191.600724 
L 152.478352 190.372704 
L 153.019443 189.144683 
L 153.560534 189.144683 
L 154.101625 188.530673 
L 154.642716 188.530673 
L 155.183807 187.916663 
L 156.265989 187.916663 
L 157.34817 186.688643 
L 158.430352 186.688643 
L 159.512534 185.460622 
L 161.135807 185.460622 
L 161.676898 184.846612 
L 163.30017 184.846612 
L 163.841261 185.460622 
L 168.169989 185.460622 
L 169.25217 184.232602 
L 173.039807 184.232602 
L 173.580898 183.618592 
L 177.368534 183.618592 
L 177.909625 183.004582 
L 180.61508 183.004582 
L 181.15617 182.390572 
L 182.238352 182.390572 
L 182.779443 181.776562 
L 185.484898 181.776562 
L 186.025989 181.162551 
L 187.649261 181.162551 
L 188.190352 180.548541 
L 193.06017 180.548541 
L 193.601261 179.934531 
L 203.881989 179.934531 
L 204.42308 179.320521 
L 264.48417 179.320521 
L 265.025261 179.934531 
L 267.189625 179.934531 
L 267.730716 180.548541 
L 271.518352 180.548541 
L 272.059443 181.162551 
L 349.976534 181.162551 
L 350.517625 180.548541 
L 387.852898 180.548541 
L 387.852898 180.548541 
" style="fill:none;stroke:#00b0ff;stroke-linecap:round;stroke-width:1.5;"/>
   </g>
   <g id="line2d_21">
    <path clip-path="url(#pda8fd0e69d)" d="M 63.198352 276.334125 
L 78.889989 276.334125 
L 79.43108 275.720115 
L 81.054352 275.720115 
L 81.595443 275.106105 
L 84.841989 275.106105 
L 85.38308 274.492095 
L 85.92417 274.492095 
L 86.465261 273.878084 
L 89.711807 273.878084 
L 90.252898 273.264074 
L 90.793989 272.036054 
L 95.663807 272.036054 
L 96.204898 270.808034 
L 96.745989 270.808034 
L 97.28708 269.580013 
L 98.369261 269.580013 
L 98.910352 268.966003 
L 99.992534 266.509963 
L 100.533625 266.509963 
L 101.074716 265.895952 
L 101.615807 265.895952 
L 102.697989 264.667932 
L 103.23908 264.667932 
L 104.321261 263.439912 
L 104.862352 263.439912 
L 105.403443 261.597881 
L 105.944534 260.983871 
L 107.026716 260.983871 
L 107.567807 259.755851 
L 108.649989 258.527831 
L 109.19108 258.527831 
L 110.814352 256.6858 
L 111.355443 256.6858 
L 111.896534 254.84377 
L 112.437625 254.22976 
L 112.978716 252.387729 
L 114.601989 252.387729 
L 115.14308 251.159709 
L 115.68417 250.545699 
L 116.225261 250.545699 
L 117.307443 249.317678 
L 117.848534 249.317678 
L 118.389625 248.089658 
L 118.930716 246.247628 
L 121.63617 246.247628 
L 122.718352 245.019607 
L 123.259443 245.019607 
L 123.800534 243.791587 
L 124.341625 243.177577 
L 124.882716 241.949556 
L 125.964898 241.949556 
L 126.505989 240.721536 
L 127.04708 240.721536 
L 127.58817 239.493516 
L 128.129261 239.493516 
L 128.670352 238.879506 
L 129.211443 237.651485 
L 129.752534 237.037475 
L 130.293625 237.037475 
L 130.834716 235.195445 
L 131.916898 235.195445 
L 132.457989 233.353414 
L 132.99908 233.353414 
L 133.54017 232.125394 
L 134.081261 231.511384 
L 134.622352 231.511384 
L 135.704534 230.283364 
L 136.245625 230.283364 
L 137.868898 226.599303 
L 138.95108 226.599303 
L 139.49217 225.985293 
L 141.115443 225.985293 
L 141.656534 225.371282 
L 142.197625 225.371282 
L 142.738716 223.529252 
L 143.279807 222.301232 
L 143.820898 220.459201 
L 144.90308 220.459201 
L 145.44417 219.845191 
L 145.985261 219.845191 
L 146.526352 219.231181 
L 147.067443 218.003161 
L 147.608534 217.38915 
L 148.149625 217.38915 
L 148.690716 216.77514 
L 149.231807 216.77514 
L 150.85508 214.93311 
L 151.39617 214.93311 
L 151.937261 214.3191 
L 152.478352 214.3191 
L 153.019443 213.705089 
L 153.560534 212.477069 
L 154.101625 212.477069 
L 156.265989 210.021029 
L 158.430352 210.021029 
L 158.971443 209.407018 
L 159.512534 209.407018 
L 160.053625 208.793008 
L 161.676898 208.793008 
L 162.217989 208.178998 
L 164.382352 208.178998 
L 164.923443 207.564988 
L 165.464534 207.564988 
L 166.005625 205.722957 
L 166.546716 205.722957 
L 167.087807 205.108947 
L 172.498716 205.108947 
L 173.039807 203.880927 
L 174.121989 202.652907 
L 175.20417 202.652907 
L 176.286352 200.196866 
L 177.909625 200.196866 
L 178.991807 198.968846 
L 180.073989 198.968846 
L 180.61508 198.354836 
L 181.15617 198.354836 
L 182.238352 197.126815 
L 183.320534 197.126815 
L 183.861625 195.898795 
L 185.484898 195.898795 
L 186.56708 194.670775 
L 187.10817 194.670775 
L 187.649261 193.442754 
L 189.272534 193.442754 
L 189.813625 192.828744 
L 190.895807 192.828744 
L 191.436898 192.214734 
L 191.977989 190.986714 
L 193.601261 190.986714 
L 194.142352 190.372704 
L 194.683443 190.372704 
L 195.224534 189.758694 
L 197.388898 189.758694 
L 198.47108 188.530673 
L 199.01217 188.530673 
L 199.553261 187.916663 
L 201.176534 187.916663 
L 201.717625 187.302653 
L 202.258716 187.302653 
L 202.799807 186.688643 
L 204.96417 186.688643 
L 205.505261 185.460622 
L 206.046352 185.460622 
L 206.587443 184.846612 
L 207.669625 184.846612 
L 208.751807 183.618592 
L 209.292898 181.776562 
L 209.833989 180.548541 
L 210.91617 179.320521 
L 212.539443 179.320521 
L 213.621625 178.092501 
L 214.703807 178.092501 
L 216.32708 176.25047 
L 216.86817 176.25047 
L 217.950352 175.02245 
L 220.114716 175.02245 
L 220.655807 174.40844 
L 221.737989 174.40844 
L 222.27908 173.79443 
L 223.902352 173.79443 
L 224.443443 173.180419 
L 225.525625 173.180419 
L 226.066716 171.952399 
L 226.607807 171.952399 
L 227.148898 171.338389 
L 227.689989 171.338389 
L 228.23108 170.110369 
L 228.77217 169.496359 
L 229.313261 168.268338 
L 230.936534 166.426308 
L 231.477625 165.198287 
L 232.559807 165.198287 
L 233.100898 162.742247 
L 233.641989 162.128237 
L 234.18308 162.128237 
L 234.72417 160.900216 
L 235.806352 159.672196 
L 236.347443 159.672196 
L 237.429625 158.444176 
L 241.217261 158.444176 
L 242.299443 157.216155 
L 242.840534 155.374125 
L 243.922716 152.918084 
L 244.463807 151.076054 
L 245.004898 151.076054 
L 245.545989 149.848034 
L 246.62817 149.848034 
L 247.169261 149.234023 
L 248.251443 149.234023 
L 248.792534 148.620013 
L 249.874716 148.620013 
L 250.956898 147.391993 
L 251.497989 144.935952 
L 253.121261 144.935952 
L 254.203443 142.479912 
L 254.744534 142.479912 
L 256.908898 140.023871 
L 257.99108 140.023871 
L 258.53217 139.409861 
L 259.073261 139.409861 
L 260.155443 138.181841 
L 261.237625 138.181841 
L 263.401989 135.7258 
L 266.107443 135.7258 
L 266.648534 135.11179 
L 269.89508 135.11179 
L 270.43617 134.49778 
L 273.682716 134.49778 
L 274.223807 133.88377 
L 274.764898 132.655749 
L 276.38817 132.655749 
L 276.929261 132.041739 
L 277.470352 132.041739 
L 278.011443 130.813719 
L 278.552534 130.813719 
L 279.093625 129.585699 
L 280.716898 129.585699 
L 281.257989 128.971688 
L 283.422352 128.971688 
L 283.963443 128.357678 
L 286.127807 128.357678 
L 286.668898 127.743668 
L 287.75108 127.743668 
L 288.29217 127.129658 
L 289.374352 127.129658 
L 289.915443 126.515648 
L 291.538716 126.515648 
L 292.079807 125.901638 
L 292.620898 125.901638 
L 293.161989 125.287628 
L 295.867443 125.287628 
L 296.408534 124.673617 
L 301.819443 124.673617 
L 302.360534 124.059607 
L 305.065989 124.059607 
L 305.60708 123.445597 
L 312.10017 123.445597 
L 312.641261 124.059607 
L 313.723443 124.059607 
L 314.264534 122.831587 
L 321.839807 122.831587 
L 322.921989 121.603567 
L 324.545261 121.603567 
L 325.086352 120.375546 
L 325.627443 119.761536 
L 326.168534 118.533516 
L 331.579443 118.533516 
L 332.120534 117.305496 
L 334.825989 117.305496 
L 335.36708 116.691485 
L 336.449261 116.691485 
L 336.990352 116.077475 
L 337.531443 116.077475 
L 338.072534 115.463465 
L 339.154716 115.463465 
L 339.695807 114.235445 
L 341.31908 114.235445 
L 341.86017 113.007424 
L 342.401261 112.393414 
L 342.942352 112.393414 
L 343.483443 111.779404 
L 345.106716 111.779404 
L 345.647807 110.551384 
L 346.188898 110.551384 
L 346.729989 109.937374 
L 347.27108 108.709353 
L 348.353261 107.481333 
L 348.894352 107.481333 
L 349.435443 106.867323 
L 349.976534 106.867323 
L 350.517625 106.253313 
L 354.846352 106.253313 
L 355.387443 105.025293 
L 355.928534 105.025293 
L 357.010716 103.797272 
L 358.092898 103.797272 
L 358.633989 102.569252 
L 359.17508 101.955242 
L 363.503807 101.955242 
L 364.585989 100.727221 
L 365.12708 100.727221 
L 365.66817 100.113211 
L 367.291443 100.113211 
L 368.373625 98.885191 
L 370.537989 98.885191 
L 371.07908 98.271181 
L 371.62017 98.271181 
L 373.784534 95.81514 
L 374.325625 94.58712 
L 375.407807 94.58712 
L 375.948898 93.3591 
L 376.489989 92.745089 
L 378.654352 92.745089 
L 379.195443 92.131079 
L 381.359807 92.131079 
L 381.900898 91.517069 
L 382.98308 91.517069 
L 383.52417 90.289049 
L 384.606352 89.061029 
L 386.229625 89.061029 
L 386.770716 88.447018 
L 387.852898 88.447018 
L 387.852898 88.447018 
" style="fill:none;stroke:#29ffce;stroke-linecap:round;stroke-width:1.5;"/>
   </g>
   <g id="line2d_22">
    <path clip-path="url(#pda8fd0e69d)" d="M 63.198352 276.334125 
L 77.807807 276.334125 
L 78.889989 275.106105 
L 81.595443 275.106105 
L 82.136534 273.878084 
L 82.677625 273.878084 
L 83.759807 272.650064 
L 84.841989 272.650064 
L 85.38308 272.036054 
L 87.006352 272.036054 
L 87.547443 270.808034 
L 90.793989 270.808034 
L 91.87617 269.580013 
L 92.417261 269.580013 
L 92.958352 268.966003 
L 97.28708 268.966003 
L 98.369261 267.737983 
L 100.533625 267.737983 
L 101.074716 267.123973 
L 102.156898 267.123973 
L 103.23908 265.895952 
L 104.321261 265.895952 
L 104.862352 265.281942 
L 105.944534 265.281942 
L 106.485625 264.667932 
L 107.026716 264.667932 
L 107.567807 264.053922 
L 109.19108 264.053922 
L 110.273261 262.825902 
L 110.814352 262.825902 
L 111.896534 261.597881 
L 114.060898 261.597881 
L 115.14308 260.369861 
L 116.225261 260.369861 
L 116.766352 259.755851 
L 117.307443 259.755851 
L 117.848534 259.141841 
L 118.389625 259.141841 
L 118.930716 258.527831 
L 120.012898 256.07179 
L 120.553989 256.07179 
L 121.09508 254.84377 
L 122.177261 253.615749 
L 122.718352 252.387729 
L 123.259443 251.773719 
L 123.800534 251.773719 
L 124.882716 249.317678 
L 125.423807 248.703668 
L 125.964898 247.475648 
L 127.04708 247.475648 
L 127.58817 246.247628 
L 128.129261 246.247628 
L 129.211443 245.019607 
L 129.752534 243.791587 
L 130.293625 243.177577 
L 132.457989 243.177577 
L 132.99908 241.949556 
L 135.704534 241.949556 
L 136.245625 241.335546 
L 136.786716 241.335546 
L 137.327807 240.721536 
L 137.868898 240.721536 
L 138.95108 239.493516 
L 141.656534 239.493516 
L 142.197625 238.879506 
L 145.985261 238.879506 
L 146.526352 238.265496 
L 147.608534 238.265496 
L 148.149625 237.651485 
L 150.85508 237.651485 
L 151.39617 236.423465 
L 154.101625 236.423465 
L 154.642716 235.809455 
L 158.971443 235.809455 
L 159.512534 235.195445 
L 160.594716 235.195445 
L 161.135807 234.581435 
L 161.676898 234.581435 
L 162.217989 233.967424 
L 169.793261 233.967424 
L 170.334352 233.353414 
L 173.580898 233.353414 
L 174.121989 232.739404 
L 272.600534 232.739404 
L 273.141625 233.353414 
L 374.325625 233.353414 
L 374.866716 232.739404 
L 385.688534 232.739404 
L 386.229625 233.353414 
L 387.852898 233.353414 
L 387.852898 233.353414 
" style="fill:none;stroke:#7dff7a;stroke-linecap:round;stroke-width:1.5;"/>
   </g>
   <g id="line2d_23">
    <path clip-path="url(#pda8fd0e69d)" d="M 63.198352 276.334125 
L 79.43108 276.334125 
L 79.97217 275.720115 
L 87.547443 275.720115 
L 89.711807 273.264074 
L 91.87617 273.264074 
L 92.417261 272.650064 
L 94.040534 272.650064 
L 95.663807 270.808034 
L 96.204898 268.966003 
L 97.28708 268.966003 
L 97.82817 268.351993 
L 98.369261 266.509963 
L 99.451443 265.281942 
L 100.533625 265.281942 
L 101.074716 264.667932 
L 101.615807 263.439912 
L 102.697989 263.439912 
L 103.23908 262.211891 
L 104.321261 260.983871 
L 105.403443 260.983871 
L 107.026716 259.141841 
L 109.73217 259.141841 
L 110.273261 258.527831 
L 111.355443 256.07179 
L 114.060898 253.001739 
L 114.601989 253.001739 
L 115.14308 252.387729 
L 115.68417 251.159709 
L 117.307443 249.317678 
L 117.848534 249.317678 
L 118.389625 248.703668 
L 120.553989 248.703668 
L 121.63617 247.475648 
L 122.177261 247.475648 
L 123.800534 245.633617 
L 124.341625 245.633617 
L 124.882716 243.791587 
L 125.423807 242.563567 
L 126.505989 242.563567 
L 127.04708 240.107526 
L 127.58817 239.493516 
L 128.129261 238.265496 
L 128.670352 238.265496 
L 129.211443 237.651485 
L 130.293625 237.651485 
L 130.834716 237.037475 
L 132.457989 237.037475 
L 132.99908 236.423465 
L 134.081261 236.423465 
L 135.163443 235.195445 
L 137.868898 235.195445 
L 138.95108 233.967424 
L 141.115443 233.967424 
L 141.656534 233.353414 
L 142.197625 233.353414 
L 143.279807 230.897374 
L 144.90308 229.055343 
L 145.44417 229.055343 
L 146.526352 227.827323 
L 147.067443 227.827323 
L 147.608534 227.213313 
L 149.231807 227.213313 
L 149.772898 225.371282 
L 150.313989 224.757272 
L 150.85508 224.757272 
L 152.478352 222.915242 
L 154.101625 222.915242 
L 154.642716 222.301232 
L 155.724898 219.845191 
L 156.265989 219.845191 
L 156.80708 217.38915 
L 157.889261 217.38915 
L 158.430352 216.77514 
L 158.971443 216.77514 
L 159.512534 216.16113 
L 160.053625 216.16113 
L 160.594716 214.93311 
L 162.217989 214.93311 
L 162.75908 213.705089 
L 164.382352 211.863059 
L 164.923443 211.863059 
L 166.005625 210.635039 
L 166.546716 210.635039 
L 167.087807 209.407018 
L 167.628898 208.793008 
L 168.169989 208.793008 
L 168.71108 208.178998 
L 169.25217 208.178998 
L 169.793261 206.950978 
L 170.334352 206.336968 
L 170.875443 206.336968 
L 171.416534 204.494937 
L 172.498716 203.266917 
L 173.039807 201.424886 
L 173.580898 200.810876 
L 174.66308 200.810876 
L 175.20417 198.968846 
L 175.745261 198.968846 
L 176.827443 196.512805 
L 177.368534 196.512805 
L 178.450716 194.056765 
L 178.991807 193.442754 
L 179.532898 193.442754 
L 180.61508 192.214734 
L 181.697261 189.758694 
L 182.779443 189.758694 
L 183.320534 189.144683 
L 183.861625 189.144683 
L 184.402716 188.530673 
L 189.272534 188.530673 
L 190.354716 187.302653 
L 190.895807 187.302653 
L 191.436898 186.688643 
L 191.977989 186.688643 
L 192.51908 186.074633 
L 204.96417 186.074633 
L 205.505261 185.460622 
L 213.080534 185.460622 
L 213.621625 184.846612 
L 216.86817 184.846612 
L 217.950352 183.618592 
L 223.361261 183.618592 
L 223.902352 183.004582 
L 228.23108 183.004582 
L 228.77217 181.776562 
L 229.313261 181.162551 
L 230.936534 181.162551 
L 231.477625 180.548541 
L 233.100898 180.548541 
L 234.18308 179.320521 
L 240.67617 179.320521 
L 241.217261 178.706511 
L 247.169261 178.706511 
L 247.710352 178.092501 
L 249.333625 178.092501 
L 249.874716 177.47849 
L 251.497989 177.47849 
L 252.03908 176.86448 
L 257.449989 176.86448 
L 257.99108 177.47849 
L 263.94308 177.47849 
L 264.48417 176.86448 
L 265.025261 176.86448 
L 265.566352 176.25047 
L 266.107443 176.86448 
L 267.189625 175.63646 
L 268.812898 175.63646 
L 269.353989 175.02245 
L 270.43617 175.02245 
L 270.977261 174.40844 
L 271.518352 173.180419 
L 272.059443 173.180419 
L 272.600534 172.566409 
L 274.223807 172.566409 
L 275.305989 170.110369 
L 275.84708 170.110369 
L 277.470352 168.268338 
L 278.011443 168.268338 
L 279.093625 167.040318 
L 279.634716 165.812298 
L 280.175807 165.812298 
L 280.716898 165.198287 
L 281.257989 163.970267 
L 281.79908 163.356257 
L 282.881261 163.356257 
L 283.422352 162.742247 
L 283.963443 162.742247 
L 285.045625 161.514227 
L 286.127807 161.514227 
L 286.668898 159.672196 
L 287.209989 159.058186 
L 288.833261 159.058186 
L 289.374352 157.216155 
L 290.997625 157.216155 
L 291.538716 155.988135 
L 292.079807 155.988135 
L 293.161989 154.760115 
L 295.326352 154.760115 
L 295.867443 153.532095 
L 296.949625 152.304074 
L 298.031807 152.304074 
L 298.572898 151.690064 
L 299.113989 150.462044 
L 299.65508 149.848034 
L 307.230352 149.848034 
L 307.771443 149.234023 
L 309.394716 149.234023 
L 311.017989 147.391993 
L 312.10017 147.391993 
L 312.641261 146.777983 
L 313.182352 146.777983 
L 314.264534 145.549963 
L 314.805625 145.549963 
L 315.346716 144.321942 
L 315.887807 144.321942 
L 316.428898 143.707932 
L 316.969989 142.479912 
L 317.51108 142.479912 
L 318.05217 141.251891 
L 319.134352 141.251891 
L 319.675443 140.637881 
L 329.41508 140.637881 
L 330.497261 139.409861 
L 332.661625 139.409861 
L 333.202716 138.181841 
L 334.284898 136.95382 
L 334.825989 135.7258 
L 335.90817 135.7258 
L 336.449261 135.11179 
L 336.990352 133.26976 
L 337.531443 132.655749 
L 338.072534 131.427729 
L 338.613625 131.427729 
L 339.154716 130.199709 
L 339.695807 130.199709 
L 340.777989 128.971688 
L 341.31908 128.971688 
L 341.86017 128.357678 
L 344.024534 128.357678 
L 345.106716 127.129658 
L 345.647807 125.901638 
L 346.729989 125.901638 
L 347.27108 125.287628 
L 347.81217 125.287628 
L 348.353261 124.059607 
L 349.435443 122.831587 
L 349.976534 122.831587 
L 351.058716 121.603567 
L 352.140898 121.603567 
L 352.681989 120.989556 
L 353.22308 120.989556 
L 353.76417 120.375546 
L 354.305261 120.375546 
L 354.846352 119.147526 
L 355.387443 117.305496 
L 355.928534 117.305496 
L 357.010716 116.077475 
L 357.551807 116.077475 
L 358.092898 115.463465 
L 359.71617 115.463465 
L 361.339443 113.621435 
L 362.421625 113.621435 
L 362.962716 113.007424 
L 363.503807 111.779404 
L 364.044898 111.165394 
L 365.12708 108.709353 
L 368.373625 108.709353 
L 368.914716 108.095343 
L 369.996898 108.095343 
L 370.537989 107.481333 
L 372.161261 107.481333 
L 372.702352 106.253313 
L 373.243443 105.639303 
L 373.784534 105.639303 
L 375.407807 103.797272 
L 375.948898 103.797272 
L 377.57217 101.955242 
L 378.654352 101.955242 
L 379.736534 100.727221 
L 382.441989 100.727221 
L 384.065261 98.885191 
L 387.852898 98.885191 
L 387.852898 98.885191 
" style="fill:none;stroke:#ceff29;stroke-linecap:round;stroke-width:1.5;"/>
   </g>
   <g id="line2d_24">
    <path clip-path="url(#pda8fd0e69d)" d="M 63.198352 276.334125 
L 74.02017 276.334125 
L 74.561261 275.720115 
L 77.807807 275.720115 
L 78.348898 275.106105 
L 83.218716 275.106105 
L 83.759807 274.492095 
L 84.841989 274.492095 
L 85.38308 273.878084 
L 87.006352 273.878084 
L 88.629625 272.036054 
L 90.793989 272.036054 
L 91.33508 271.422044 
L 91.87617 271.422044 
L 92.417261 270.808034 
L 94.040534 270.808034 
L 94.581625 269.580013 
L 95.122716 268.966003 
L 97.28708 268.966003 
L 97.82817 268.351993 
L 98.910352 268.351993 
L 99.451443 267.737983 
L 100.533625 267.737983 
L 101.074716 267.123973 
L 101.615807 265.895952 
L 103.23908 265.895952 
L 103.78017 265.281942 
L 104.321261 265.281942 
L 104.862352 264.667932 
L 108.649989 264.667932 
L 109.19108 264.053922 
L 109.73217 264.053922 
L 110.273261 262.825902 
L 110.814352 262.211891 
L 112.437625 262.211891 
L 112.978716 260.983871 
L 113.519807 260.369861 
L 114.601989 260.369861 
L 116.225261 258.527831 
L 116.766352 258.527831 
L 117.307443 257.29981 
L 118.930716 255.45778 
L 120.012898 255.45778 
L 120.553989 253.615749 
L 121.09508 253.615749 
L 121.63617 252.387729 
L 122.177261 251.773719 
L 123.259443 251.773719 
L 123.800534 251.159709 
L 125.423807 251.159709 
L 126.505989 249.931688 
L 127.04708 249.931688 
L 128.129261 248.703668 
L 129.211443 246.247628 
L 129.752534 245.633617 
L 130.293625 245.633617 
L 131.375807 244.405597 
L 131.916898 243.177577 
L 132.99908 243.177577 
L 133.54017 242.563567 
L 135.704534 242.563567 
L 136.245625 241.949556 
L 136.786716 241.949556 
L 137.327807 241.335546 
L 137.868898 241.335546 
L 138.95108 240.107526 
L 139.49217 237.651485 
L 140.033261 237.037475 
L 142.197625 237.037475 
L 143.279807 235.809455 
L 143.820898 235.809455 
L 144.361989 235.195445 
L 144.90308 235.195445 
L 146.526352 233.353414 
L 147.067443 233.353414 
L 148.149625 232.125394 
L 149.231807 232.125394 
L 149.772898 231.511384 
L 150.313989 231.511384 
L 151.39617 230.283364 
L 151.937261 230.283364 
L 152.478352 229.669353 
L 153.560534 225.985293 
L 154.101625 225.985293 
L 155.183807 224.757272 
L 155.724898 224.757272 
L 156.265989 224.143262 
L 156.80708 224.143262 
L 157.34817 223.529252 
L 157.889261 222.301232 
L 158.430352 221.687221 
L 158.971443 220.459201 
L 163.841261 220.459201 
L 164.923443 219.231181 
L 165.464534 219.231181 
L 166.546716 218.003161 
L 167.087807 218.003161 
L 167.628898 216.77514 
L 168.169989 216.77514 
L 168.71108 216.16113 
L 170.875443 216.16113 
L 171.416534 215.54712 
L 174.66308 215.54712 
L 175.20417 214.93311 
L 176.827443 214.93311 
L 177.368534 213.705089 
L 179.532898 213.705089 
L 180.073989 213.091079 
L 180.61508 213.091079 
L 181.15617 211.863059 
L 181.697261 211.863059 
L 182.238352 211.249049 
L 182.779443 211.249049 
L 184.402716 209.407018 
L 184.943807 208.178998 
L 193.06017 208.178998 
L 193.601261 207.564988 
L 194.142352 207.564988 
L 195.224534 206.336968 
L 197.929989 206.336968 
L 198.47108 205.722957 
L 199.553261 205.722957 
L 200.635443 204.494937 
L 206.046352 204.494937 
L 206.587443 203.266917 
L 208.210716 203.266917 
L 208.751807 202.652907 
L 209.292898 201.424886 
L 209.833989 200.810876 
L 210.91617 200.810876 
L 211.998352 198.354836 
L 212.539443 198.354836 
L 213.080534 197.126815 
L 213.621625 196.512805 
L 214.162716 196.512805 
L 214.703807 195.898795 
L 215.244898 195.898795 
L 215.785989 194.670775 
L 217.950352 194.670775 
L 219.032534 193.442754 
L 219.573625 193.442754 
L 220.114716 192.828744 
L 220.655807 192.828744 
L 221.196898 191.600724 
L 221.737989 189.758694 
L 222.27908 189.144683 
L 224.443443 189.144683 
L 224.984534 188.530673 
L 225.525625 186.688643 
L 226.607807 185.460622 
L 227.148898 184.232602 
L 228.23108 184.232602 
L 229.313261 183.004582 
L 230.395443 183.004582 
L 230.936534 182.390572 
L 231.477625 182.390572 
L 232.018716 181.162551 
L 232.559807 180.548541 
L 233.100898 180.548541 
L 233.641989 179.934531 
L 234.18308 179.934531 
L 234.72417 179.320521 
L 235.265261 179.320521 
L 235.806352 178.706511 
L 236.888534 178.706511 
L 237.429625 178.092501 
L 238.511807 178.092501 
L 239.052898 176.86448 
L 239.593989 176.86448 
L 240.13508 175.63646 
L 242.299443 175.63646 
L 242.840534 174.40844 
L 243.381625 174.40844 
L 243.922716 173.79443 
L 244.463807 173.79443 
L 245.004898 173.180419 
L 245.545989 173.180419 
L 246.08708 172.566409 
L 247.169261 172.566409 
L 248.792534 170.724379 
L 250.956898 170.724379 
L 251.497989 170.110369 
L 252.03908 168.882348 
L 252.58017 168.268338 
L 253.121261 168.268338 
L 253.662352 167.040318 
L 254.203443 166.426308 
L 254.744534 164.584277 
L 255.285625 164.584277 
L 255.826716 163.356257 
L 256.367807 161.514227 
L 256.908898 160.286206 
L 257.449989 159.672196 
L 258.53217 159.672196 
L 259.073261 157.216155 
L 260.155443 155.988135 
L 260.696534 155.988135 
L 261.778716 154.760115 
L 262.860898 154.760115 
L 263.401989 152.304074 
L 263.94308 152.304074 
L 265.025261 151.076054 
L 265.566352 149.848034 
L 266.107443 149.234023 
L 267.189625 149.234023 
L 267.730716 148.006003 
L 268.271807 147.391993 
L 269.353989 147.391993 
L 270.43617 144.935952 
L 270.977261 144.321942 
L 271.518352 143.093922 
L 272.600534 143.093922 
L 273.141625 141.865902 
L 273.682716 141.865902 
L 274.764898 138.181841 
L 275.305989 137.567831 
L 275.84708 137.567831 
L 276.38817 136.33981 
L 276.929261 135.7258 
L 277.470352 134.49778 
L 278.011443 133.88377 
L 279.093625 133.88377 
L 280.175807 132.655749 
L 280.716898 132.655749 
L 282.34017 130.813719 
L 282.881261 130.813719 
L 283.422352 130.199709 
L 283.963443 128.971688 
L 284.504534 126.515648 
L 285.586716 126.515648 
L 286.127807 125.901638 
L 286.668898 124.673617 
L 287.209989 124.673617 
L 287.75108 122.217577 
L 288.833261 120.989556 
L 290.456534 120.989556 
L 290.997625 119.761536 
L 291.538716 119.147526 
L 295.326352 119.147526 
L 295.867443 118.533516 
L 296.949625 118.533516 
L 297.490716 117.919506 
L 298.572898 117.919506 
L 299.113989 116.691485 
L 299.65508 116.691485 
L 300.19617 116.077475 
L 303.442716 116.077475 
L 303.983807 115.463465 
L 309.935807 115.463465 
L 310.476898 114.235445 
L 311.017989 114.235445 
L 312.641261 112.393414 
L 313.723443 112.393414 
L 314.264534 111.165394 
L 319.134352 105.639303 
L 319.675443 104.411282 
L 320.216534 104.411282 
L 320.757625 103.183262 
L 321.298716 102.569252 
L 322.380898 102.569252 
L 322.921989 100.727221 
L 323.46308 100.727221 
L 324.545261 99.499201 
L 325.086352 98.271181 
L 325.627443 98.271181 
L 326.168534 97.657171 
L 326.709625 97.657171 
L 327.250716 96.42915 
L 327.791807 96.42915 
L 328.332898 95.20113 
L 329.41508 91.517069 
L 329.95617 90.903059 
L 330.497261 90.903059 
L 331.038352 90.289049 
L 331.579443 90.289049 
L 332.120534 89.675039 
L 332.661625 89.675039 
L 333.743807 87.218998 
L 334.284898 87.218998 
L 335.36708 85.990978 
L 335.90817 85.990978 
L 336.449261 84.762957 
L 336.990352 82.920927 
L 338.072534 81.692907 
L 338.613625 81.692907 
L 339.154716 81.078897 
L 339.695807 81.078897 
L 340.777989 79.850876 
L 341.86017 79.850876 
L 342.401261 79.236866 
L 342.942352 78.008846 
L 344.024534 76.780826 
L 344.565625 76.780826 
L 345.106716 75.552805 
L 345.647807 75.552805 
L 346.188898 74.938795 
L 346.729989 74.938795 
L 349.976534 71.254734 
L 350.517625 70.026714 
L 351.058716 70.026714 
L 351.599807 68.798694 
L 352.681989 67.570673 
L 353.22308 65.728643 
L 353.76417 65.114633 
L 354.305261 63.886612 
L 355.387443 63.886612 
L 356.469625 62.658592 
L 357.010716 61.430572 
L 357.551807 60.816562 
L 359.17508 60.816562 
L 359.71617 60.202551 
L 361.880534 60.202551 
L 363.503807 58.360521 
L 364.044898 58.360521 
L 366.209261 55.90448 
L 368.373625 55.90448 
L 369.996898 54.06245 
L 371.62017 54.06245 
L 374.866716 50.378389 
L 375.407807 48.536359 
L 375.948898 47.308338 
L 376.489989 47.308338 
L 377.57217 46.080318 
L 378.113261 46.080318 
L 378.654352 44.852298 
L 379.195443 44.238287 
L 379.736534 44.238287 
L 380.277625 43.010267 
L 380.818716 42.396257 
L 381.359807 39.940216 
L 381.900898 39.326206 
L 384.065261 39.326206 
L 384.606352 38.712196 
L 385.688534 38.712196 
L 386.770716 37.484176 
L 387.311807 36.256155 
L 387.852898 34.414125 
L 387.852898 34.414125 
" style="fill:none;stroke:#ffc400;stroke-linecap:round;stroke-width:1.5;"/>
   </g>
   <g id="line2d_25">
    <path clip-path="url(#pda8fd0e69d)" d="M 63.198352 276.334125 
L 79.43108 276.334125 
L 79.97217 275.720115 
L 81.054352 275.720115 
L 82.136534 274.492095 
L 83.218716 274.492095 
L 84.841989 272.650064 
L 85.38308 272.650064 
L 85.92417 272.036054 
L 86.465261 272.036054 
L 87.006352 271.422044 
L 87.547443 271.422044 
L 88.088534 270.808034 
L 89.170716 270.808034 
L 89.711807 270.194023 
L 91.33508 270.194023 
L 91.87617 269.580013 
L 93.499443 269.580013 
L 94.581625 268.351993 
L 95.122716 267.123973 
L 96.204898 267.123973 
L 96.745989 265.895952 
L 97.28708 265.895952 
L 98.369261 264.667932 
L 98.910352 264.667932 
L 100.533625 262.825902 
L 101.074716 260.983871 
L 102.156898 260.983871 
L 102.697989 259.755851 
L 103.78017 258.527831 
L 104.321261 257.29981 
L 104.862352 256.6858 
L 105.403443 255.45778 
L 105.944534 255.45778 
L 107.026716 253.001739 
L 107.567807 252.387729 
L 108.108898 252.387729 
L 109.19108 249.931688 
L 109.73217 249.317678 
L 110.273261 249.317678 
L 110.814352 248.703668 
L 111.896534 248.703668 
L 112.978716 247.475648 
L 113.519807 247.475648 
L 114.060898 244.405597 
L 114.601989 243.791587 
L 115.14308 243.791587 
L 115.68417 241.949556 
L 116.225261 241.949556 
L 116.766352 240.107526 
L 118.389625 240.107526 
L 118.930716 238.879506 
L 119.471807 238.265496 
L 120.012898 237.037475 
L 120.553989 237.037475 
L 121.09508 235.809455 
L 122.177261 234.581435 
L 122.718352 232.739404 
L 123.259443 231.511384 
L 123.800534 230.897374 
L 124.341625 229.055343 
L 125.423807 229.055343 
L 127.04708 225.371282 
L 127.58817 225.371282 
L 128.670352 224.143262 
L 129.211443 222.915242 
L 129.752534 222.915242 
L 130.293625 222.301232 
L 130.834716 220.459201 
L 131.375807 219.845191 
L 132.457989 219.845191 
L 132.99908 219.231181 
L 134.081261 216.77514 
L 134.622352 216.77514 
L 135.163443 216.16113 
L 135.704534 216.16113 
L 136.245625 214.93311 
L 136.786716 214.93311 
L 137.327807 213.705089 
L 137.868898 213.091079 
L 138.409989 213.091079 
L 138.95108 211.863059 
L 139.49217 211.249049 
L 140.033261 211.249049 
L 140.574352 210.635039 
L 141.115443 210.635039 
L 142.197625 209.407018 
L 142.738716 209.407018 
L 143.279807 208.793008 
L 143.820898 208.793008 
L 144.361989 208.178998 
L 144.90308 208.178998 
L 145.985261 206.950978 
L 146.526352 205.108947 
L 148.149625 205.108947 
L 148.690716 203.266917 
L 149.231807 202.652907 
L 149.772898 201.424886 
L 150.313989 200.810876 
L 151.39617 200.810876 
L 152.478352 199.582856 
L 153.019443 199.582856 
L 153.560534 197.740826 
L 154.642716 196.512805 
L 155.183807 196.512805 
L 155.724898 195.898795 
L 156.265989 194.670775 
L 157.889261 194.670775 
L 158.430352 194.056765 
L 159.512534 194.056765 
L 160.594716 192.828744 
L 161.135807 190.986714 
L 161.676898 190.372704 
L 162.217989 190.372704 
L 163.841261 188.530673 
L 165.464534 188.530673 
L 166.546716 187.302653 
L 167.087807 187.302653 
L 168.169989 186.074633 
L 169.793261 186.074633 
L 170.875443 184.846612 
L 171.957625 184.846612 
L 172.498716 184.232602 
L 174.121989 184.232602 
L 174.66308 182.390572 
L 175.20417 182.390572 
L 175.745261 181.162551 
L 176.286352 180.548541 
L 177.909625 180.548541 
L 178.991807 179.320521 
L 180.073989 179.320521 
L 180.61508 178.706511 
L 182.238352 178.706511 
L 182.779443 178.092501 
L 184.402716 178.092501 
L 184.943807 177.47849 
L 185.484898 177.47849 
L 186.56708 176.25047 
L 187.649261 176.25047 
L 188.731443 175.02245 
L 189.813625 175.02245 
L 190.895807 173.79443 
L 193.06017 173.79443 
L 193.601261 173.180419 
L 194.142352 173.180419 
L 194.683443 171.952399 
L 195.765625 170.724379 
L 196.306716 170.724379 
L 196.847807 169.496359 
L 197.388898 169.496359 
L 197.929989 168.882348 
L 201.176534 168.882348 
L 201.717625 168.268338 
L 203.340898 168.268338 
L 203.881989 166.426308 
L 206.587443 166.426308 
L 207.128534 165.812298 
L 209.833989 165.812298 
L 210.37508 165.198287 
L 211.998352 165.198287 
L 212.539443 164.584277 
L 214.162716 164.584277 
L 215.785989 162.742247 
L 216.32708 163.356257 
L 219.032534 163.356257 
L 219.573625 162.128237 
L 220.114716 162.128237 
L 220.655807 161.514227 
L 221.196898 161.514227 
L 221.737989 160.900216 
L 222.27908 160.900216 
L 222.82017 159.672196 
L 223.361261 159.672196 
L 223.902352 159.058186 
L 226.066716 159.058186 
L 226.607807 158.444176 
L 227.148898 158.444176 
L 227.689989 156.602145 
L 228.23108 155.988135 
L 229.313261 155.988135 
L 229.854352 155.374125 
L 230.936534 155.374125 
L 231.477625 154.760115 
L 232.018716 154.760115 
L 233.100898 153.532095 
L 233.641989 153.532095 
L 234.18308 152.918084 
L 234.72417 152.918084 
L 235.265261 151.076054 
L 236.347443 151.076054 
L 237.429625 148.620013 
L 237.970716 148.620013 
L 238.511807 148.006003 
L 239.052898 146.777983 
L 239.593989 146.777983 
L 240.67617 145.549963 
L 242.299443 145.549963 
L 242.840534 144.935952 
L 243.922716 144.935952 
L 245.004898 143.707932 
L 246.62817 143.707932 
L 247.710352 142.479912 
L 248.251443 141.251891 
L 249.333625 140.023871 
L 249.874716 140.023871 
L 250.415807 138.795851 
L 250.956898 138.795851 
L 251.497989 138.181841 
L 252.58017 138.181841 
L 254.744534 135.7258 
L 255.285625 133.88377 
L 255.826716 133.26976 
L 256.367807 131.427729 
L 256.908898 130.813719 
L 257.449989 130.813719 
L 257.99108 130.199709 
L 259.073261 127.743668 
L 262.319807 124.059607 
L 262.860898 124.059607 
L 263.401989 123.445597 
L 263.94308 120.989556 
L 265.025261 120.989556 
L 265.566352 120.375546 
L 266.648534 120.375546 
L 267.730716 119.147526 
L 268.812898 119.147526 
L 269.89508 116.691485 
L 270.43617 116.077475 
L 270.977261 114.849455 
L 271.518352 114.235445 
L 273.682716 114.235445 
L 274.223807 113.007424 
L 274.764898 112.393414 
L 275.84708 112.393414 
L 276.38817 111.779404 
L 281.257989 111.779404 
L 281.79908 111.165394 
L 286.127807 111.165394 
L 287.75108 109.323364 
L 288.833261 109.323364 
L 289.915443 108.095343 
L 290.456534 108.095343 
L 290.997625 107.481333 
L 292.079807 107.481333 
L 292.620898 106.867323 
L 295.867443 106.867323 
L 296.408534 106.253313 
L 296.949625 106.253313 
L 297.490716 105.639303 
L 299.65508 105.639303 
L 300.737261 104.411282 
L 302.360534 104.411282 
L 302.901625 103.797272 
L 303.442716 103.797272 
L 303.983807 101.955242 
L 304.524898 100.727221 
L 305.60708 100.727221 
L 306.14817 98.271181 
L 306.689261 98.271181 
L 307.230352 97.657171 
L 307.771443 97.657171 
L 308.312534 96.42915 
L 308.853625 96.42915 
L 309.935807 95.20113 
L 311.017989 95.20113 
L 311.55908 93.97311 
L 314.805625 93.97311 
L 315.346716 93.3591 
L 315.887807 93.3591 
L 316.969989 92.131079 
L 317.51108 90.289049 
L 318.05217 90.289049 
L 318.593261 89.061029 
L 319.134352 88.447018 
L 319.675443 88.447018 
L 320.216534 87.833008 
L 320.757625 86.604988 
L 321.839807 86.604988 
L 322.380898 85.990978 
L 322.921989 85.990978 
L 324.00417 84.762957 
L 324.545261 83.534937 
L 325.086352 82.920927 
L 325.627443 82.920927 
L 326.168534 82.306917 
L 326.709625 80.464886 
L 327.791807 79.236866 
L 328.332898 78.008846 
L 328.873989 77.394836 
L 329.41508 77.394836 
L 329.95617 76.166815 
L 331.579443 74.324785 
L 332.661625 74.324785 
L 333.202716 73.096765 
L 334.284898 73.096765 
L 334.825989 72.482754 
L 335.36708 72.482754 
L 337.531443 70.026714 
L 338.613625 67.570673 
L 339.154716 66.956663 
L 339.695807 66.956663 
L 341.31908 65.114633 
L 341.86017 65.114633 
L 343.483443 63.272602 
L 344.024534 63.272602 
L 344.565625 62.658592 
L 345.647807 62.658592 
L 346.188898 62.044582 
L 346.729989 60.816562 
L 347.27108 60.202551 
L 347.81217 60.202551 
L 348.353261 59.588541 
L 348.894352 59.588541 
L 349.976534 57.132501 
L 350.517625 57.132501 
L 351.058716 55.90448 
L 352.140898 54.67646 
L 352.681989 52.83443 
L 353.22308 52.83443 
L 353.76417 52.220419 
L 354.305261 52.220419 
L 354.846352 50.992399 
L 355.387443 50.378389 
L 357.010716 50.378389 
L 358.092898 49.150369 
L 358.633989 49.150369 
L 359.17508 48.536359 
L 361.880534 48.536359 
L 362.421625 47.922348 
L 364.585989 47.922348 
L 365.12708 47.308338 
L 366.209261 47.308338 
L 366.750352 46.694328 
L 368.914716 46.694328 
L 369.455807 46.080318 
L 377.57217 46.080318 
L 378.113261 45.466308 
L 385.688534 45.466308 
L 386.229625 46.080318 
L 387.852898 46.080318 
L 387.852898 46.080318 
" style="fill:none;stroke:#ff6800;stroke-linecap:round;stroke-width:1.5;"/>
   </g>
   <g id="line2d_26">
    <path clip-path="url(#pda8fd0e69d)" d="M 63.198352 276.334125 
L 77.807807 276.334125 
L 78.889989 275.106105 
L 81.595443 275.106105 
L 82.136534 274.492095 
L 82.677625 273.264074 
L 83.218716 273.264074 
L 83.759807 272.650064 
L 84.300898 272.650064 
L 84.841989 272.036054 
L 88.629625 272.036054 
L 89.170716 271.422044 
L 89.711807 271.422044 
L 90.252898 270.194023 
L 90.793989 270.194023 
L 91.33508 269.580013 
L 92.417261 267.123973 
L 94.040534 267.123973 
L 94.581625 266.509963 
L 95.122716 265.281942 
L 97.82817 265.281942 
L 99.451443 263.439912 
L 99.992534 261.597881 
L 103.23908 261.597881 
L 103.78017 260.983871 
L 104.862352 260.983871 
L 105.944534 259.755851 
L 106.485625 258.527831 
L 107.026716 258.527831 
L 108.108898 257.29981 
L 109.73217 257.29981 
L 110.273261 256.6858 
L 111.355443 256.6858 
L 111.896534 255.45778 
L 112.437625 254.84377 
L 112.978716 254.84377 
L 113.519807 254.22976 
L 114.601989 254.22976 
L 115.14308 253.615749 
L 115.68417 252.387729 
L 116.225261 251.773719 
L 116.766352 250.545699 
L 117.307443 249.931688 
L 117.848534 248.703668 
L 118.389625 248.089658 
L 120.012898 248.089658 
L 120.553989 247.475648 
L 123.259443 247.475648 
L 123.800534 246.861638 
L 125.423807 246.861638 
L 125.964898 244.405597 
L 126.505989 244.405597 
L 127.04708 243.791587 
L 128.129261 243.791587 
L 128.670352 243.177577 
L 129.752534 243.177577 
L 130.293625 242.563567 
L 132.99908 242.563567 
L 133.54017 241.949556 
L 134.622352 241.949556 
L 135.163443 241.335546 
L 136.786716 241.335546 
L 137.327807 240.721536 
L 137.868898 240.721536 
L 138.409989 240.107526 
L 139.49217 240.107526 
L 141.115443 238.265496 
L 143.279807 238.265496 
L 143.820898 237.651485 
L 145.44417 237.651485 
L 145.985261 237.037475 
L 148.149625 237.037475 
L 148.690716 236.423465 
L 149.231807 235.195445 
L 149.772898 235.195445 
L 150.313989 234.581435 
L 150.85508 234.581435 
L 151.39617 233.967424 
L 153.019443 233.967424 
L 153.560534 233.353414 
L 154.101625 232.125394 
L 154.642716 232.125394 
L 155.183807 231.511384 
L 155.724898 229.669353 
L 156.265989 229.669353 
L 156.80708 229.055343 
L 157.34817 229.055343 
L 157.889261 227.827323 
L 158.430352 227.213313 
L 159.512534 227.213313 
L 160.053625 226.599303 
L 160.594716 225.371282 
L 161.676898 225.371282 
L 162.217989 224.757272 
L 165.464534 224.757272 
L 166.005625 224.143262 
L 167.087807 221.687221 
L 168.169989 220.459201 
L 168.71108 219.231181 
L 169.25217 219.231181 
L 170.334352 218.003161 
L 170.875443 216.16113 
L 171.416534 213.705089 
L 171.957625 213.705089 
L 172.498716 213.091079 
L 174.121989 213.091079 
L 174.66308 212.477069 
L 177.909625 212.477069 
L 178.991807 211.249049 
L 179.532898 210.021029 
L 180.073989 209.407018 
L 180.61508 209.407018 
L 181.15617 208.793008 
L 182.779443 208.793008 
L 183.861625 206.336968 
L 184.402716 205.722957 
L 184.943807 204.494937 
L 185.484898 204.494937 
L 186.025989 202.652907 
L 186.56708 201.424886 
L 187.10817 201.424886 
L 188.190352 198.968846 
L 188.731443 198.354836 
L 189.272534 198.354836 
L 190.354716 195.898795 
L 190.895807 195.284785 
L 191.436898 194.056765 
L 191.977989 194.056765 
L 192.51908 193.442754 
L 193.06017 192.214734 
L 193.601261 191.600724 
L 196.306716 191.600724 
L 197.388898 190.372704 
L 197.929989 189.144683 
L 198.47108 188.530673 
L 199.01217 188.530673 
L 199.553261 187.916663 
L 200.094352 187.916663 
L 201.176534 186.688643 
L 201.717625 184.846612 
L 202.258716 184.846612 
L 202.799807 183.618592 
L 204.42308 183.618592 
L 204.96417 182.390572 
L 205.505261 182.390572 
L 206.046352 181.162551 
L 207.128534 181.162551 
L 207.669625 178.092501 
L 208.210716 176.86448 
L 209.292898 176.86448 
L 209.833989 176.25047 
L 210.37508 176.25047 
L 210.91617 173.79443 
L 211.998352 173.79443 
L 212.539443 173.180419 
L 213.621625 173.180419 
L 214.162716 171.952399 
L 214.703807 171.952399 
L 215.244898 171.338389 
L 217.409261 171.338389 
L 217.950352 170.110369 
L 218.491443 169.496359 
L 220.114716 169.496359 
L 220.655807 168.268338 
L 221.196898 167.654328 
L 223.361261 167.654328 
L 223.902352 165.812298 
L 224.984534 164.584277 
L 225.525625 162.742247 
L 226.066716 162.742247 
L 226.607807 160.900216 
L 228.23108 159.058186 
L 229.313261 159.058186 
L 231.477625 156.602145 
L 232.559807 156.602145 
L 233.641989 155.374125 
L 234.72417 155.374125 
L 235.265261 154.760115 
L 236.888534 154.760115 
L 237.429625 154.146105 
L 237.970716 154.146105 
L 239.052898 152.918084 
L 239.593989 151.690064 
L 240.67617 151.690064 
L 241.217261 149.848034 
L 242.299443 148.620013 
L 242.840534 147.391993 
L 244.463807 145.549963 
L 245.004898 143.707932 
L 245.545989 143.093922 
L 246.08708 141.865902 
L 246.62817 141.865902 
L 247.169261 141.251891 
L 248.251443 141.251891 
L 249.333625 138.795851 
L 249.874716 138.795851 
L 250.415807 138.181841 
L 250.956898 138.181841 
L 251.497989 137.567831 
L 252.03908 136.33981 
L 252.58017 136.33981 
L 253.121261 135.7258 
L 253.662352 134.49778 
L 254.744534 134.49778 
L 256.367807 132.655749 
L 256.908898 132.655749 
L 257.449989 132.041739 
L 259.073261 132.041739 
L 259.614352 130.813719 
L 260.155443 130.813719 
L 260.696534 130.199709 
L 261.237625 130.199709 
L 261.778716 129.585699 
L 262.319807 129.585699 
L 262.860898 127.129658 
L 263.94308 127.129658 
L 265.025261 124.673617 
L 265.566352 124.673617 
L 266.107443 124.059607 
L 267.189625 121.603567 
L 268.812898 119.761536 
L 269.353989 117.919506 
L 269.89508 117.919506 
L 270.43617 117.305496 
L 270.977261 116.077475 
L 272.059443 116.077475 
L 272.600534 114.235445 
L 276.38817 114.235445 
L 278.011443 112.393414 
L 279.093625 112.393414 
L 279.634716 111.779404 
L 283.422352 111.779404 
L 283.963443 111.165394 
L 285.586716 111.165394 
L 286.127807 109.323364 
L 286.668898 108.709353 
L 288.29217 108.709353 
L 288.833261 107.481333 
L 292.079807 107.481333 
L 292.620898 106.867323 
L 293.161989 107.481333 
L 295.326352 107.481333 
L 296.408534 106.253313 
L 306.689261 106.253313 
L 307.230352 105.639303 
L 341.31908 105.639303 
L 341.86017 106.253313 
L 354.305261 106.253313 
L 354.846352 106.867323 
L 387.852898 106.867323 
L 387.852898 106.867323 
" style="fill:none;stroke:#f10800;stroke-linecap:round;stroke-width:1.5;"/>
   </g>
   <g id="patch_3">
    <path d="M 46.965625 288.430125 
L 46.965625 22.318125 
" style="fill:none;stroke:#cccccc;stroke-linecap:square;stroke-linejoin:miter;stroke-width:0.8;"/>
   </g>
   <g id="patch_4">
    <path d="M 404.085625 288.430125 
L 404.085625 22.318125 
" style="fill:none;stroke:#cccccc;stroke-linecap:square;stroke-linejoin:miter;stroke-width:0.8;"/>
   </g>
   <g id="patch_5">
    <path d="M 46.965625 288.430125 
L 404.085625 288.430125 
" style="fill:none;stroke:#cccccc;stroke-linecap:square;stroke-linejoin:miter;stroke-width:0.8;"/>
   </g>
   <g id="patch_6">
    <path d="M 46.965625 22.318125 
L 404.085625 22.318125 
" style="fill:none;stroke:#cccccc;stroke-linecap:square;stroke-linejoin:miter;stroke-width:0.8;"/>
   </g>
   <g id="text_19">
    <!-- Long-lived Plasma cells -->
    <defs>
     <path d="M 9.8125 72.90625 
L 19.671875 72.90625 
L 19.671875 8.296875 
L 55.171875 8.296875 
L 55.171875 0 
L 9.8125 0 
z
" id="DejaVuSans-76"/>
     <path d="M 30.609375 48.390625 
Q 23.390625 48.390625 19.1875 42.75 
Q 14.984375 37.109375 14.984375 27.296875 
Q 14.984375 17.484375 19.15625 11.84375 
Q 23.34375 6.203125 30.609375 6.203125 
Q 37.796875 6.203125 41.984375 11.859375 
Q 46.1875 17.53125 46.1875 27.296875 
Q 46.1875 37.015625 41.984375 42.703125 
Q 37.796875 48.390625 30.609375 48.390625 
z
M 30.609375 56 
Q 42.328125 56 49.015625 48.375 
Q 55.71875 40.765625 55.71875 27.296875 
Q 55.71875 13.875 49.015625 6.21875 
Q 42.328125 -1.421875 30.609375 -1.421875 
Q 18.84375 -1.421875 12.171875 6.21875 
Q 5.515625 13.875 5.515625 27.296875 
Q 5.515625 40.765625 12.171875 48.375 
Q 18.84375 56 30.609375 56 
z
" id="DejaVuSans-111"/>
     <path d="M 45.40625 27.984375 
Q 45.40625 37.75 41.375 43.109375 
Q 37.359375 48.484375 30.078125 48.484375 
Q 22.859375 48.484375 18.828125 43.109375 
Q 14.796875 37.75 14.796875 27.984375 
Q 14.796875 18.265625 18.828125 12.890625 
Q 22.859375 7.515625 30.078125 7.515625 
Q 37.359375 7.515625 41.375 12.890625 
Q 45.40625 18.265625 45.40625 27.984375 
z
M 54.390625 6.78125 
Q 54.390625 -7.171875 48.1875 -13.984375 
Q 42 -20.796875 29.203125 -20.796875 
Q 24.46875 -20.796875 20.265625 -20.09375 
Q 16.0625 -19.390625 12.109375 -17.921875 
L 12.109375 -9.1875 
Q 16.0625 -11.328125 19.921875 -12.34375 
Q 23.78125 -13.375 27.78125 -13.375 
Q 36.625 -13.375 41.015625 -8.765625 
Q 45.40625 -4.15625 45.40625 5.171875 
L 45.40625 9.625 
Q 42.625 4.78125 38.28125 2.390625 
Q 33.9375 0 27.875 0 
Q 17.828125 0 11.671875 7.65625 
Q 5.515625 15.328125 5.515625 27.984375 
Q 5.515625 40.671875 11.671875 48.328125 
Q 17.828125 56 27.875 56 
Q 33.9375 56 38.28125 53.609375 
Q 42.625 51.21875 45.40625 46.390625 
L 45.40625 54.6875 
L 54.390625 54.6875 
z
" id="DejaVuSans-103"/>
     <path d="M 4.890625 31.390625 
L 31.203125 31.390625 
L 31.203125 23.390625 
L 4.890625 23.390625 
z
" id="DejaVuSans-45"/>
     <path d="M 2.984375 54.6875 
L 12.5 54.6875 
L 29.59375 8.796875 
L 46.6875 54.6875 
L 56.203125 54.6875 
L 35.6875 0 
L 23.484375 0 
z
" id="DejaVuSans-118"/>
     <path d="M 19.671875 64.796875 
L 19.671875 37.40625 
L 32.078125 37.40625 
Q 38.96875 37.40625 42.71875 40.96875 
Q 46.484375 44.53125 46.484375 51.125 
Q 46.484375 57.671875 42.71875 61.234375 
Q 38.96875 64.796875 32.078125 64.796875 
z
M 9.8125 72.90625 
L 32.078125 72.90625 
Q 44.34375 72.90625 50.609375 67.359375 
Q 56.890625 61.8125 56.890625 51.125 
Q 56.890625 40.328125 50.609375 34.8125 
Q 44.34375 29.296875 32.078125 29.296875 
L 19.671875 29.296875 
L 19.671875 0 
L 9.8125 0 
z
" id="DejaVuSans-80"/>
    </defs>
    <g style="fill:#262626;" transform="translate(155.4775 16.318125)scale(0.12 -0.12)">
     <use xlink:href="#DejaVuSans-76"/>
     <use x="55.697266" xlink:href="#DejaVuSans-111"/>
     <use x="116.878906" xlink:href="#DejaVuSans-110"/>
     <use x="180.257812" xlink:href="#DejaVuSans-103"/>
     <use x="243.734375" xlink:href="#DejaVuSans-45"/>
     <use x="279.818359" xlink:href="#DejaVuSans-108"/>
     <use x="307.601562" xlink:href="#DejaVuSans-105"/>
     <use x="335.384766" xlink:href="#DejaVuSans-118"/>
     <use x="394.564453" xlink:href="#DejaVuSans-101"/>
     <use x="456.087891" xlink:href="#DejaVuSans-100"/>
     <use x="519.564453" xlink:href="#DejaVuSans-32"/>
     <use x="551.351562" xlink:href="#DejaVuSans-80"/>
     <use x="611.654297" xlink:href="#DejaVuSans-108"/>
     <use x="639.4375" xlink:href="#DejaVuSans-97"/>
     <use x="700.716797" xlink:href="#DejaVuSans-115"/>
     <use x="752.816406" xlink:href="#DejaVuSans-109"/>
     <use x="850.228516" xlink:href="#DejaVuSans-97"/>
     <use x="911.507812" xlink:href="#DejaVuSans-32"/>
     <use x="943.294922" xlink:href="#DejaVuSans-99"/>
     <use x="998.275391" xlink:href="#DejaVuSans-101"/>
     <use x="1059.798828" xlink:href="#DejaVuSans-108"/>
     <use x="1087.582031" xlink:href="#DejaVuSans-108"/>
     <use x="1115.365234" xlink:href="#DejaVuSans-115"/>
    </g>
   </g>
  </g>
 </g>
 <defs>
  <clipPath id="pda8fd0e69d">
   <rect height="266.112" width="357.12" x="46.965625" y="22.318125"/>
  </clipPath>
 </defs>
</svg>
