<?xml version="1.0" encoding="utf-8" standalone="no"?>
<!DOCTYPE svg PUBLIC "-//W3C//DTD SVG 1.1//EN"
  "http://www.w3.org/Graphics/SVG/1.1/DTD/svg11.dtd">
<!-- Created with matplotlib (https://matplotlib.org/) -->
<svg height="325.986375pt" version="1.1" viewBox="0 0 424.010625 325.986375" width="424.010625pt" xmlns="http://www.w3.org/2000/svg" xmlns:xlink="http://www.w3.org/1999/xlink">
 <defs>
  <style type="text/css">
*{stroke-linecap:butt;stroke-linejoin:round;white-space:pre;}
  </style>
 </defs>
 <g id="figure_1">
  <g id="patch_1">
   <path d="M 0 325.986375 
L 424.010625 325.986375 
L 424.010625 0 
L 0 0 
z
" style="fill:#ffffff;"/>
  </g>
  <g id="axes_1">
   <g id="patch_2">
    <path d="M 59.690625 288.430125 
L 416.810625 288.430125 
L 416.810625 22.318125 
L 59.690625 22.318125 
z
" style="fill:#ffffff;"/>
   </g>
   <g id="matplotlib.axis_1">
    <g id="xtick_1">
     <g id="line2d_1">
      <path clip-path="url(#pef2ccfb9b3)" d="M 75.923352 288.430125 
L 75.923352 22.318125 
" style="fill:none;stroke:#cccccc;stroke-linecap:round;stroke-width:0.8;"/>
     </g>
     <g id="text_1">
      <!-- 0 -->
      <defs>
       <path d="M 31.78125 66.40625 
Q 24.171875 66.40625 20.328125 58.90625 
Q 16.5 51.421875 16.5 36.375 
Q 16.5 21.390625 20.328125 13.890625 
Q 24.171875 6.390625 31.78125 6.390625 
Q 39.453125 6.390625 43.28125 13.890625 
Q 47.125 21.390625 47.125 36.375 
Q 47.125 51.421875 43.28125 58.90625 
Q 39.453125 66.40625 31.78125 66.40625 
z
M 31.78125 74.21875 
Q 44.046875 74.21875 50.515625 64.515625 
Q 56.984375 54.828125 56.984375 36.375 
Q 56.984375 17.96875 50.515625 8.265625 
Q 44.046875 -1.421875 31.78125 -1.421875 
Q 19.53125 -1.421875 13.0625 8.265625 
Q 6.59375 17.96875 6.59375 36.375 
Q 6.59375 54.828125 13.0625 64.515625 
Q 19.53125 74.21875 31.78125 74.21875 
z
" id="DejaVuSans-48"/>
      </defs>
      <g style="fill:#262626;" transform="translate(72.742102 303.028562)scale(0.1 -0.1)">
       <use xlink:href="#DejaVuSans-48"/>
      </g>
     </g>
    </g>
    <g id="xtick_2">
     <g id="line2d_2">
      <path clip-path="url(#pef2ccfb9b3)" d="M 130.032443 288.430125 
L 130.032443 22.318125 
" style="fill:none;stroke:#cccccc;stroke-linecap:round;stroke-width:0.8;"/>
     </g>
     <g id="text_2">
      <!-- 10 -->
      <defs>
       <path d="M 12.40625 8.296875 
L 28.515625 8.296875 
L 28.515625 63.921875 
L 10.984375 60.40625 
L 10.984375 69.390625 
L 28.421875 72.90625 
L 38.28125 72.90625 
L 38.28125 8.296875 
L 54.390625 8.296875 
L 54.390625 0 
L 12.40625 0 
z
" id="DejaVuSans-49"/>
      </defs>
      <g style="fill:#262626;" transform="translate(123.669943 303.028562)scale(0.1 -0.1)">
       <use xlink:href="#DejaVuSans-49"/>
       <use x="63.623047" xlink:href="#DejaVuSans-48"/>
      </g>
     </g>
    </g>
    <g id="xtick_3">
     <g id="line2d_3">
      <path clip-path="url(#pef2ccfb9b3)" d="M 184.141534 288.430125 
L 184.141534 22.318125 
" style="fill:none;stroke:#cccccc;stroke-linecap:round;stroke-width:0.8;"/>
     </g>
     <g id="text_3">
      <!-- 20 -->
      <defs>
       <path d="M 19.1875 8.296875 
L 53.609375 8.296875 
L 53.609375 0 
L 7.328125 0 
L 7.328125 8.296875 
Q 12.9375 14.109375 22.625 23.890625 
Q 32.328125 33.6875 34.8125 36.53125 
Q 39.546875 41.84375 41.421875 45.53125 
Q 43.3125 49.21875 43.3125 52.78125 
Q 43.3125 58.59375 39.234375 62.25 
Q 35.15625 65.921875 28.609375 65.921875 
Q 23.96875 65.921875 18.8125 64.3125 
Q 13.671875 62.703125 7.8125 59.421875 
L 7.8125 69.390625 
Q 13.765625 71.78125 18.9375 73 
Q 24.125 74.21875 28.421875 74.21875 
Q 39.75 74.21875 46.484375 68.546875 
Q 53.21875 62.890625 53.21875 53.421875 
Q 53.21875 48.921875 51.53125 44.890625 
Q 49.859375 40.875 45.40625 35.40625 
Q 44.1875 33.984375 37.640625 27.21875 
Q 31.109375 20.453125 19.1875 8.296875 
z
" id="DejaVuSans-50"/>
      </defs>
      <g style="fill:#262626;" transform="translate(177.779034 303.028562)scale(0.1 -0.1)">
       <use xlink:href="#DejaVuSans-50"/>
       <use x="63.623047" xlink:href="#DejaVuSans-48"/>
      </g>
     </g>
    </g>
    <g id="xtick_4">
     <g id="line2d_4">
      <path clip-path="url(#pef2ccfb9b3)" d="M 238.250625 288.430125 
L 238.250625 22.318125 
" style="fill:none;stroke:#cccccc;stroke-linecap:round;stroke-width:0.8;"/>
     </g>
     <g id="text_4">
      <!-- 30 -->
      <defs>
       <path d="M 40.578125 39.3125 
Q 47.65625 37.796875 51.625 33 
Q 55.609375 28.21875 55.609375 21.1875 
Q 55.609375 10.40625 48.1875 4.484375 
Q 40.765625 -1.421875 27.09375 -1.421875 
Q 22.515625 -1.421875 17.65625 -0.515625 
Q 12.796875 0.390625 7.625 2.203125 
L 7.625 11.71875 
Q 11.71875 9.328125 16.59375 8.109375 
Q 21.484375 6.890625 26.8125 6.890625 
Q 36.078125 6.890625 40.9375 10.546875 
Q 45.796875 14.203125 45.796875 21.1875 
Q 45.796875 27.640625 41.28125 31.265625 
Q 36.765625 34.90625 28.71875 34.90625 
L 20.21875 34.90625 
L 20.21875 43.015625 
L 29.109375 43.015625 
Q 36.375 43.015625 40.234375 45.921875 
Q 44.09375 48.828125 44.09375 54.296875 
Q 44.09375 59.90625 40.109375 62.90625 
Q 36.140625 65.921875 28.71875 65.921875 
Q 24.65625 65.921875 20.015625 65.03125 
Q 15.375 64.15625 9.8125 62.3125 
L 9.8125 71.09375 
Q 15.4375 72.65625 20.34375 73.4375 
Q 25.25 74.21875 29.59375 74.21875 
Q 40.828125 74.21875 47.359375 69.109375 
Q 53.90625 64.015625 53.90625 55.328125 
Q 53.90625 49.265625 50.4375 45.09375 
Q 46.96875 40.921875 40.578125 39.3125 
z
" id="DejaVuSans-51"/>
      </defs>
      <g style="fill:#262626;" transform="translate(231.888125 303.028562)scale(0.1 -0.1)">
       <use xlink:href="#DejaVuSans-51"/>
       <use x="63.623047" xlink:href="#DejaVuSans-48"/>
      </g>
     </g>
    </g>
    <g id="xtick_5">
     <g id="line2d_5">
      <path clip-path="url(#pef2ccfb9b3)" d="M 292.359716 288.430125 
L 292.359716 22.318125 
" style="fill:none;stroke:#cccccc;stroke-linecap:round;stroke-width:0.8;"/>
     </g>
     <g id="text_5">
      <!-- 40 -->
      <defs>
       <path d="M 37.796875 64.3125 
L 12.890625 25.390625 
L 37.796875 25.390625 
z
M 35.203125 72.90625 
L 47.609375 72.90625 
L 47.609375 25.390625 
L 58.015625 25.390625 
L 58.015625 17.1875 
L 47.609375 17.1875 
L 47.609375 0 
L 37.796875 0 
L 37.796875 17.1875 
L 4.890625 17.1875 
L 4.890625 26.703125 
z
" id="DejaVuSans-52"/>
      </defs>
      <g style="fill:#262626;" transform="translate(285.997216 303.028562)scale(0.1 -0.1)">
       <use xlink:href="#DejaVuSans-52"/>
       <use x="63.623047" xlink:href="#DejaVuSans-48"/>
      </g>
     </g>
    </g>
    <g id="xtick_6">
     <g id="line2d_6">
      <path clip-path="url(#pef2ccfb9b3)" d="M 346.468807 288.430125 
L 346.468807 22.318125 
" style="fill:none;stroke:#cccccc;stroke-linecap:round;stroke-width:0.8;"/>
     </g>
     <g id="text_6">
      <!-- 50 -->
      <defs>
       <path d="M 10.796875 72.90625 
L 49.515625 72.90625 
L 49.515625 64.59375 
L 19.828125 64.59375 
L 19.828125 46.734375 
Q 21.96875 47.46875 24.109375 47.828125 
Q 26.265625 48.1875 28.421875 48.1875 
Q 40.625 48.1875 47.75 41.5 
Q 54.890625 34.8125 54.890625 23.390625 
Q 54.890625 11.625 47.5625 5.09375 
Q 40.234375 -1.421875 26.90625 -1.421875 
Q 22.3125 -1.421875 17.546875 -0.640625 
Q 12.796875 0.140625 7.71875 1.703125 
L 7.71875 11.625 
Q 12.109375 9.234375 16.796875 8.0625 
Q 21.484375 6.890625 26.703125 6.890625 
Q 35.15625 6.890625 40.078125 11.328125 
Q 45.015625 15.765625 45.015625 23.390625 
Q 45.015625 31 40.078125 35.4375 
Q 35.15625 39.890625 26.703125 39.890625 
Q 22.75 39.890625 18.8125 39.015625 
Q 14.890625 38.140625 10.796875 36.28125 
z
" id="DejaVuSans-53"/>
      </defs>
      <g style="fill:#262626;" transform="translate(340.106307 303.028562)scale(0.1 -0.1)">
       <use xlink:href="#DejaVuSans-53"/>
       <use x="63.623047" xlink:href="#DejaVuSans-48"/>
      </g>
     </g>
    </g>
    <g id="xtick_7">
     <g id="line2d_7">
      <path clip-path="url(#pef2ccfb9b3)" d="M 400.577898 288.430125 
L 400.577898 22.318125 
" style="fill:none;stroke:#cccccc;stroke-linecap:round;stroke-width:0.8;"/>
     </g>
     <g id="text_7">
      <!-- 60 -->
      <defs>
       <path d="M 33.015625 40.375 
Q 26.375 40.375 22.484375 35.828125 
Q 18.609375 31.296875 18.609375 23.390625 
Q 18.609375 15.53125 22.484375 10.953125 
Q 26.375 6.390625 33.015625 6.390625 
Q 39.65625 6.390625 43.53125 10.953125 
Q 47.40625 15.53125 47.40625 23.390625 
Q 47.40625 31.296875 43.53125 35.828125 
Q 39.65625 40.375 33.015625 40.375 
z
M 52.59375 71.296875 
L 52.59375 62.3125 
Q 48.875 64.0625 45.09375 64.984375 
Q 41.3125 65.921875 37.59375 65.921875 
Q 27.828125 65.921875 22.671875 59.328125 
Q 17.53125 52.734375 16.796875 39.40625 
Q 19.671875 43.65625 24.015625 45.921875 
Q 28.375 48.1875 33.59375 48.1875 
Q 44.578125 48.1875 50.953125 41.515625 
Q 57.328125 34.859375 57.328125 23.390625 
Q 57.328125 12.15625 50.6875 5.359375 
Q 44.046875 -1.421875 33.015625 -1.421875 
Q 20.359375 -1.421875 13.671875 8.265625 
Q 6.984375 17.96875 6.984375 36.375 
Q 6.984375 53.65625 15.1875 63.9375 
Q 23.390625 74.21875 37.203125 74.21875 
Q 40.921875 74.21875 44.703125 73.484375 
Q 48.484375 72.75 52.59375 71.296875 
z
" id="DejaVuSans-54"/>
      </defs>
      <g style="fill:#262626;" transform="translate(394.215398 303.028562)scale(0.1 -0.1)">
       <use xlink:href="#DejaVuSans-54"/>
       <use x="63.623047" xlink:href="#DejaVuSans-48"/>
      </g>
     </g>
    </g>
    <g id="text_8">
     <!-- time (days) -->
     <defs>
      <path d="M 18.3125 70.21875 
L 18.3125 54.6875 
L 36.8125 54.6875 
L 36.8125 47.703125 
L 18.3125 47.703125 
L 18.3125 18.015625 
Q 18.3125 11.328125 20.140625 9.421875 
Q 21.96875 7.515625 27.59375 7.515625 
L 36.8125 7.515625 
L 36.8125 0 
L 27.59375 0 
Q 17.1875 0 13.234375 3.875 
Q 9.28125 7.765625 9.28125 18.015625 
L 9.28125 47.703125 
L 2.6875 47.703125 
L 2.6875 54.6875 
L 9.28125 54.6875 
L 9.28125 70.21875 
z
" id="DejaVuSans-116"/>
      <path d="M 9.421875 54.6875 
L 18.40625 54.6875 
L 18.40625 0 
L 9.421875 0 
z
M 9.421875 75.984375 
L 18.40625 75.984375 
L 18.40625 64.59375 
L 9.421875 64.59375 
z
" id="DejaVuSans-105"/>
      <path d="M 52 44.1875 
Q 55.375 50.25 60.0625 53.125 
Q 64.75 56 71.09375 56 
Q 79.640625 56 84.28125 50.015625 
Q 88.921875 44.046875 88.921875 33.015625 
L 88.921875 0 
L 79.890625 0 
L 79.890625 32.71875 
Q 79.890625 40.578125 77.09375 44.375 
Q 74.3125 48.1875 68.609375 48.1875 
Q 61.625 48.1875 57.5625 43.546875 
Q 53.515625 38.921875 53.515625 30.90625 
L 53.515625 0 
L 44.484375 0 
L 44.484375 32.71875 
Q 44.484375 40.625 41.703125 44.40625 
Q 38.921875 48.1875 33.109375 48.1875 
Q 26.21875 48.1875 22.15625 43.53125 
Q 18.109375 38.875 18.109375 30.90625 
L 18.109375 0 
L 9.078125 0 
L 9.078125 54.6875 
L 18.109375 54.6875 
L 18.109375 46.1875 
Q 21.1875 51.21875 25.484375 53.609375 
Q 29.78125 56 35.6875 56 
Q 41.65625 56 45.828125 52.96875 
Q 50 49.953125 52 44.1875 
z
" id="DejaVuSans-109"/>
      <path d="M 56.203125 29.59375 
L 56.203125 25.203125 
L 14.890625 25.203125 
Q 15.484375 15.921875 20.484375 11.0625 
Q 25.484375 6.203125 34.421875 6.203125 
Q 39.59375 6.203125 44.453125 7.46875 
Q 49.3125 8.734375 54.109375 11.28125 
L 54.109375 2.78125 
Q 49.265625 0.734375 44.1875 -0.34375 
Q 39.109375 -1.421875 33.890625 -1.421875 
Q 20.796875 -1.421875 13.15625 6.1875 
Q 5.515625 13.8125 5.515625 26.8125 
Q 5.515625 40.234375 12.765625 48.109375 
Q 20.015625 56 32.328125 56 
Q 43.359375 56 49.78125 48.890625 
Q 56.203125 41.796875 56.203125 29.59375 
z
M 47.21875 32.234375 
Q 47.125 39.59375 43.09375 43.984375 
Q 39.0625 48.390625 32.421875 48.390625 
Q 24.90625 48.390625 20.390625 44.140625 
Q 15.875 39.890625 15.1875 32.171875 
z
" id="DejaVuSans-101"/>
      <path id="DejaVuSans-32"/>
      <path d="M 31 75.875 
Q 24.46875 64.65625 21.28125 53.65625 
Q 18.109375 42.671875 18.109375 31.390625 
Q 18.109375 20.125 21.3125 9.0625 
Q 24.515625 -2 31 -13.1875 
L 23.1875 -13.1875 
Q 15.875 -1.703125 12.234375 9.375 
Q 8.59375 20.453125 8.59375 31.390625 
Q 8.59375 42.28125 12.203125 53.3125 
Q 15.828125 64.359375 23.1875 75.875 
z
" id="DejaVuSans-40"/>
      <path d="M 45.40625 46.390625 
L 45.40625 75.984375 
L 54.390625 75.984375 
L 54.390625 0 
L 45.40625 0 
L 45.40625 8.203125 
Q 42.578125 3.328125 38.25 0.953125 
Q 33.9375 -1.421875 27.875 -1.421875 
Q 17.96875 -1.421875 11.734375 6.484375 
Q 5.515625 14.40625 5.515625 27.296875 
Q 5.515625 40.1875 11.734375 48.09375 
Q 17.96875 56 27.875 56 
Q 33.9375 56 38.25 53.625 
Q 42.578125 51.265625 45.40625 46.390625 
z
M 14.796875 27.296875 
Q 14.796875 17.390625 18.875 11.75 
Q 22.953125 6.109375 30.078125 6.109375 
Q 37.203125 6.109375 41.296875 11.75 
Q 45.40625 17.390625 45.40625 27.296875 
Q 45.40625 37.203125 41.296875 42.84375 
Q 37.203125 48.484375 30.078125 48.484375 
Q 22.953125 48.484375 18.875 42.84375 
Q 14.796875 37.203125 14.796875 27.296875 
z
" id="DejaVuSans-100"/>
      <path d="M 34.28125 27.484375 
Q 23.390625 27.484375 19.1875 25 
Q 14.984375 22.515625 14.984375 16.5 
Q 14.984375 11.71875 18.140625 8.90625 
Q 21.296875 6.109375 26.703125 6.109375 
Q 34.1875 6.109375 38.703125 11.40625 
Q 43.21875 16.703125 43.21875 25.484375 
L 43.21875 27.484375 
z
M 52.203125 31.203125 
L 52.203125 0 
L 43.21875 0 
L 43.21875 8.296875 
Q 40.140625 3.328125 35.546875 0.953125 
Q 30.953125 -1.421875 24.3125 -1.421875 
Q 15.921875 -1.421875 10.953125 3.296875 
Q 6 8.015625 6 15.921875 
Q 6 25.140625 12.171875 29.828125 
Q 18.359375 34.515625 30.609375 34.515625 
L 43.21875 34.515625 
L 43.21875 35.40625 
Q 43.21875 41.609375 39.140625 45 
Q 35.0625 48.390625 27.6875 48.390625 
Q 23 48.390625 18.546875 47.265625 
Q 14.109375 46.140625 10.015625 43.890625 
L 10.015625 52.203125 
Q 14.9375 54.109375 19.578125 55.046875 
Q 24.21875 56 28.609375 56 
Q 40.484375 56 46.34375 49.84375 
Q 52.203125 43.703125 52.203125 31.203125 
z
" id="DejaVuSans-97"/>
      <path d="M 32.171875 -5.078125 
Q 28.375 -14.84375 24.75 -17.8125 
Q 21.140625 -20.796875 15.09375 -20.796875 
L 7.90625 -20.796875 
L 7.90625 -13.28125 
L 13.1875 -13.28125 
Q 16.890625 -13.28125 18.9375 -11.515625 
Q 21 -9.765625 23.484375 -3.21875 
L 25.09375 0.875 
L 2.984375 54.6875 
L 12.5 54.6875 
L 29.59375 11.921875 
L 46.6875 54.6875 
L 56.203125 54.6875 
z
" id="DejaVuSans-121"/>
      <path d="M 44.28125 53.078125 
L 44.28125 44.578125 
Q 40.484375 46.53125 36.375 47.5 
Q 32.28125 48.484375 27.875 48.484375 
Q 21.1875 48.484375 17.84375 46.4375 
Q 14.5 44.390625 14.5 40.28125 
Q 14.5 37.15625 16.890625 35.375 
Q 19.28125 33.59375 26.515625 31.984375 
L 29.59375 31.296875 
Q 39.15625 29.25 43.1875 25.515625 
Q 47.21875 21.78125 47.21875 15.09375 
Q 47.21875 7.46875 41.1875 3.015625 
Q 35.15625 -1.421875 24.609375 -1.421875 
Q 20.21875 -1.421875 15.453125 -0.5625 
Q 10.6875 0.296875 5.421875 2 
L 5.421875 11.28125 
Q 10.40625 8.6875 15.234375 7.390625 
Q 20.0625 6.109375 24.8125 6.109375 
Q 31.15625 6.109375 34.5625 8.28125 
Q 37.984375 10.453125 37.984375 14.40625 
Q 37.984375 18.0625 35.515625 20.015625 
Q 33.0625 21.96875 24.703125 23.78125 
L 21.578125 24.515625 
Q 13.234375 26.265625 9.515625 29.90625 
Q 5.8125 33.546875 5.8125 39.890625 
Q 5.8125 47.609375 11.28125 51.796875 
Q 16.75 56 26.8125 56 
Q 31.78125 56 36.171875 55.265625 
Q 40.578125 54.546875 44.28125 53.078125 
z
" id="DejaVuSans-115"/>
      <path d="M 8.015625 75.875 
L 15.828125 75.875 
Q 23.140625 64.359375 26.78125 53.3125 
Q 30.421875 42.28125 30.421875 31.390625 
Q 30.421875 20.453125 26.78125 9.375 
Q 23.140625 -1.703125 15.828125 -13.1875 
L 8.015625 -13.1875 
Q 14.5 -2 17.703125 9.0625 
Q 20.90625 20.125 20.90625 31.390625 
Q 20.90625 42.671875 17.703125 53.65625 
Q 14.5 64.65625 8.015625 75.875 
z
" id="DejaVuSans-41"/>
     </defs>
     <g style="fill:#262626;" transform="translate(209.661563 316.706687)scale(0.1 -0.1)">
      <use xlink:href="#DejaVuSans-116"/>
      <use x="39.208984" xlink:href="#DejaVuSans-105"/>
      <use x="66.992188" xlink:href="#DejaVuSans-109"/>
      <use x="164.404297" xlink:href="#DejaVuSans-101"/>
      <use x="225.927734" xlink:href="#DejaVuSans-32"/>
      <use x="257.714844" xlink:href="#DejaVuSans-40"/>
      <use x="296.728516" xlink:href="#DejaVuSans-100"/>
      <use x="360.205078" xlink:href="#DejaVuSans-97"/>
      <use x="421.484375" xlink:href="#DejaVuSans-121"/>
      <use x="480.664062" xlink:href="#DejaVuSans-115"/>
      <use x="532.763672" xlink:href="#DejaVuSans-41"/>
     </g>
    </g>
   </g>
   <g id="matplotlib.axis_2">
    <g id="ytick_1">
     <g id="line2d_8">
      <path clip-path="url(#pef2ccfb9b3)" d="M 59.690625 276.334125 
L 416.810625 276.334125 
" style="fill:none;stroke:#cccccc;stroke-linecap:round;stroke-width:0.8;"/>
     </g>
     <g id="text_9">
      <!-- 0 -->
      <g style="fill:#262626;" transform="translate(46.328125 280.133344)scale(0.1 -0.1)">
       <use xlink:href="#DejaVuSans-48"/>
      </g>
     </g>
    </g>
    <g id="ytick_2">
     <g id="line2d_9">
      <path clip-path="url(#pef2ccfb9b3)" d="M 59.690625 238.986383 
L 416.810625 238.986383 
" style="fill:none;stroke:#cccccc;stroke-linecap:round;stroke-width:0.8;"/>
     </g>
     <g id="text_10">
      <!-- 2000 -->
      <g style="fill:#262626;" transform="translate(27.240625 242.785602)scale(0.1 -0.1)">
       <use xlink:href="#DejaVuSans-50"/>
       <use x="63.623047" xlink:href="#DejaVuSans-48"/>
       <use x="127.246094" xlink:href="#DejaVuSans-48"/>
       <use x="190.869141" xlink:href="#DejaVuSans-48"/>
      </g>
     </g>
    </g>
    <g id="ytick_3">
     <g id="line2d_10">
      <path clip-path="url(#pef2ccfb9b3)" d="M 59.690625 201.638641 
L 416.810625 201.638641 
" style="fill:none;stroke:#cccccc;stroke-linecap:round;stroke-width:0.8;"/>
     </g>
     <g id="text_11">
      <!-- 4000 -->
      <g style="fill:#262626;" transform="translate(27.240625 205.437859)scale(0.1 -0.1)">
       <use xlink:href="#DejaVuSans-52"/>
       <use x="63.623047" xlink:href="#DejaVuSans-48"/>
       <use x="127.246094" xlink:href="#DejaVuSans-48"/>
       <use x="190.869141" xlink:href="#DejaVuSans-48"/>
      </g>
     </g>
    </g>
    <g id="ytick_4">
     <g id="line2d_11">
      <path clip-path="url(#pef2ccfb9b3)" d="M 59.690625 164.290898 
L 416.810625 164.290898 
" style="fill:none;stroke:#cccccc;stroke-linecap:round;stroke-width:0.8;"/>
     </g>
     <g id="text_12">
      <!-- 6000 -->
      <g style="fill:#262626;" transform="translate(27.240625 168.090117)scale(0.1 -0.1)">
       <use xlink:href="#DejaVuSans-54"/>
       <use x="63.623047" xlink:href="#DejaVuSans-48"/>
       <use x="127.246094" xlink:href="#DejaVuSans-48"/>
       <use x="190.869141" xlink:href="#DejaVuSans-48"/>
      </g>
     </g>
    </g>
    <g id="ytick_5">
     <g id="line2d_12">
      <path clip-path="url(#pef2ccfb9b3)" d="M 59.690625 126.943156 
L 416.810625 126.943156 
" style="fill:none;stroke:#cccccc;stroke-linecap:round;stroke-width:0.8;"/>
     </g>
     <g id="text_13">
      <!-- 8000 -->
      <defs>
       <path d="M 31.78125 34.625 
Q 24.75 34.625 20.71875 30.859375 
Q 16.703125 27.09375 16.703125 20.515625 
Q 16.703125 13.921875 20.71875 10.15625 
Q 24.75 6.390625 31.78125 6.390625 
Q 38.8125 6.390625 42.859375 10.171875 
Q 46.921875 13.96875 46.921875 20.515625 
Q 46.921875 27.09375 42.890625 30.859375 
Q 38.875 34.625 31.78125 34.625 
z
M 21.921875 38.8125 
Q 15.578125 40.375 12.03125 44.71875 
Q 8.5 49.078125 8.5 55.328125 
Q 8.5 64.0625 14.71875 69.140625 
Q 20.953125 74.21875 31.78125 74.21875 
Q 42.671875 74.21875 48.875 69.140625 
Q 55.078125 64.0625 55.078125 55.328125 
Q 55.078125 49.078125 51.53125 44.71875 
Q 48 40.375 41.703125 38.8125 
Q 48.828125 37.15625 52.796875 32.3125 
Q 56.78125 27.484375 56.78125 20.515625 
Q 56.78125 9.90625 50.3125 4.234375 
Q 43.84375 -1.421875 31.78125 -1.421875 
Q 19.734375 -1.421875 13.25 4.234375 
Q 6.78125 9.90625 6.78125 20.515625 
Q 6.78125 27.484375 10.78125 32.3125 
Q 14.796875 37.15625 21.921875 38.8125 
z
M 18.3125 54.390625 
Q 18.3125 48.734375 21.84375 45.5625 
Q 25.390625 42.390625 31.78125 42.390625 
Q 38.140625 42.390625 41.71875 45.5625 
Q 45.3125 48.734375 45.3125 54.390625 
Q 45.3125 60.0625 41.71875 63.234375 
Q 38.140625 66.40625 31.78125 66.40625 
Q 25.390625 66.40625 21.84375 63.234375 
Q 18.3125 60.0625 18.3125 54.390625 
z
" id="DejaVuSans-56"/>
      </defs>
      <g style="fill:#262626;" transform="translate(27.240625 130.742375)scale(0.1 -0.1)">
       <use xlink:href="#DejaVuSans-56"/>
       <use x="63.623047" xlink:href="#DejaVuSans-48"/>
       <use x="127.246094" xlink:href="#DejaVuSans-48"/>
       <use x="190.869141" xlink:href="#DejaVuSans-48"/>
      </g>
     </g>
    </g>
    <g id="ytick_6">
     <g id="line2d_13">
      <path clip-path="url(#pef2ccfb9b3)" d="M 59.690625 89.595414 
L 416.810625 89.595414 
" style="fill:none;stroke:#cccccc;stroke-linecap:round;stroke-width:0.8;"/>
     </g>
     <g id="text_14">
      <!-- 10000 -->
      <g style="fill:#262626;" transform="translate(20.878125 93.394633)scale(0.1 -0.1)">
       <use xlink:href="#DejaVuSans-49"/>
       <use x="63.623047" xlink:href="#DejaVuSans-48"/>
       <use x="127.246094" xlink:href="#DejaVuSans-48"/>
       <use x="190.869141" xlink:href="#DejaVuSans-48"/>
       <use x="254.492188" xlink:href="#DejaVuSans-48"/>
      </g>
     </g>
    </g>
    <g id="ytick_7">
     <g id="line2d_14">
      <path clip-path="url(#pef2ccfb9b3)" d="M 59.690625 52.247672 
L 416.810625 52.247672 
" style="fill:none;stroke:#cccccc;stroke-linecap:round;stroke-width:0.8;"/>
     </g>
     <g id="text_15">
      <!-- 12000 -->
      <g style="fill:#262626;" transform="translate(20.878125 56.046891)scale(0.1 -0.1)">
       <use xlink:href="#DejaVuSans-49"/>
       <use x="63.623047" xlink:href="#DejaVuSans-50"/>
       <use x="127.246094" xlink:href="#DejaVuSans-48"/>
       <use x="190.869141" xlink:href="#DejaVuSans-48"/>
       <use x="254.492188" xlink:href="#DejaVuSans-48"/>
      </g>
     </g>
    </g>
    <g id="text_16">
     <!-- cells number -->
     <defs>
      <path d="M 48.78125 52.59375 
L 48.78125 44.1875 
Q 44.96875 46.296875 41.140625 47.34375 
Q 37.3125 48.390625 33.40625 48.390625 
Q 24.65625 48.390625 19.8125 42.84375 
Q 14.984375 37.3125 14.984375 27.296875 
Q 14.984375 17.28125 19.8125 11.734375 
Q 24.65625 6.203125 33.40625 6.203125 
Q 37.3125 6.203125 41.140625 7.25 
Q 44.96875 8.296875 48.78125 10.40625 
L 48.78125 2.09375 
Q 45.015625 0.34375 40.984375 -0.53125 
Q 36.96875 -1.421875 32.421875 -1.421875 
Q 20.0625 -1.421875 12.78125 6.34375 
Q 5.515625 14.109375 5.515625 27.296875 
Q 5.515625 40.671875 12.859375 48.328125 
Q 20.21875 56 33.015625 56 
Q 37.15625 56 41.109375 55.140625 
Q 45.0625 54.296875 48.78125 52.59375 
z
" id="DejaVuSans-99"/>
      <path d="M 9.421875 75.984375 
L 18.40625 75.984375 
L 18.40625 0 
L 9.421875 0 
z
" id="DejaVuSans-108"/>
      <path d="M 54.890625 33.015625 
L 54.890625 0 
L 45.90625 0 
L 45.90625 32.71875 
Q 45.90625 40.484375 42.875 44.328125 
Q 39.84375 48.1875 33.796875 48.1875 
Q 26.515625 48.1875 22.3125 43.546875 
Q 18.109375 38.921875 18.109375 30.90625 
L 18.109375 0 
L 9.078125 0 
L 9.078125 54.6875 
L 18.109375 54.6875 
L 18.109375 46.1875 
Q 21.34375 51.125 25.703125 53.5625 
Q 30.078125 56 35.796875 56 
Q 45.21875 56 50.046875 50.171875 
Q 54.890625 44.34375 54.890625 33.015625 
z
" id="DejaVuSans-110"/>
      <path d="M 8.5 21.578125 
L 8.5 54.6875 
L 17.484375 54.6875 
L 17.484375 21.921875 
Q 17.484375 14.15625 20.5 10.265625 
Q 23.53125 6.390625 29.59375 6.390625 
Q 36.859375 6.390625 41.078125 11.03125 
Q 45.3125 15.671875 45.3125 23.6875 
L 45.3125 54.6875 
L 54.296875 54.6875 
L 54.296875 0 
L 45.3125 0 
L 45.3125 8.40625 
Q 42.046875 3.421875 37.71875 1 
Q 33.40625 -1.421875 27.6875 -1.421875 
Q 18.265625 -1.421875 13.375 4.4375 
Q 8.5 10.296875 8.5 21.578125 
z
M 31.109375 56 
z
" id="DejaVuSans-117"/>
      <path d="M 48.6875 27.296875 
Q 48.6875 37.203125 44.609375 42.84375 
Q 40.53125 48.484375 33.40625 48.484375 
Q 26.265625 48.484375 22.1875 42.84375 
Q 18.109375 37.203125 18.109375 27.296875 
Q 18.109375 17.390625 22.1875 11.75 
Q 26.265625 6.109375 33.40625 6.109375 
Q 40.53125 6.109375 44.609375 11.75 
Q 48.6875 17.390625 48.6875 27.296875 
z
M 18.109375 46.390625 
Q 20.953125 51.265625 25.265625 53.625 
Q 29.59375 56 35.59375 56 
Q 45.5625 56 51.78125 48.09375 
Q 58.015625 40.1875 58.015625 27.296875 
Q 58.015625 14.40625 51.78125 6.484375 
Q 45.5625 -1.421875 35.59375 -1.421875 
Q 29.59375 -1.421875 25.265625 0.953125 
Q 20.953125 3.328125 18.109375 8.203125 
L 18.109375 0 
L 9.078125 0 
L 9.078125 75.984375 
L 18.109375 75.984375 
z
" id="DejaVuSans-98"/>
      <path d="M 41.109375 46.296875 
Q 39.59375 47.171875 37.8125 47.578125 
Q 36.03125 48 33.890625 48 
Q 26.265625 48 22.1875 43.046875 
Q 18.109375 38.09375 18.109375 28.8125 
L 18.109375 0 
L 9.078125 0 
L 9.078125 54.6875 
L 18.109375 54.6875 
L 18.109375 46.1875 
Q 20.953125 51.171875 25.484375 53.578125 
Q 30.03125 56 36.53125 56 
Q 37.453125 56 38.578125 55.875 
Q 39.703125 55.765625 41.0625 55.515625 
z
" id="DejaVuSans-114"/>
     </defs>
     <g style="fill:#262626;" transform="translate(14.798438 187.685844)rotate(-90)scale(0.1 -0.1)">
      <use xlink:href="#DejaVuSans-99"/>
      <use x="54.980469" xlink:href="#DejaVuSans-101"/>
      <use x="116.503906" xlink:href="#DejaVuSans-108"/>
      <use x="144.287109" xlink:href="#DejaVuSans-108"/>
      <use x="172.070312" xlink:href="#DejaVuSans-115"/>
      <use x="224.169922" xlink:href="#DejaVuSans-32"/>
      <use x="255.957031" xlink:href="#DejaVuSans-110"/>
      <use x="319.335938" xlink:href="#DejaVuSans-117"/>
      <use x="382.714844" xlink:href="#DejaVuSans-109"/>
      <use x="480.126953" xlink:href="#DejaVuSans-98"/>
      <use x="543.603516" xlink:href="#DejaVuSans-101"/>
      <use x="605.126953" xlink:href="#DejaVuSans-114"/>
     </g>
    </g>
   </g>
   <g id="line2d_15">
    <path clip-path="url(#pef2ccfb9b3)" d="M 75.923352 276.334125 
L 78.628807 274.373369 
L 79.169898 274.111934 
L 80.79317 272.916807 
L 81.875352 272.300569 
L 86.20408 268.939272 
L 87.286261 268.173643 
L 90.532807 265.633997 
L 91.614989 264.606934 
L 92.15608 264.158761 
L 92.69717 263.878653 
L 94.861534 262.179331 
L 95.402625 261.880549 
L 95.943716 261.245637 
L 97.025898 260.442661 
L 97.566989 260.181227 
L 98.64917 259.154164 
L 100.272443 257.865666 
L 100.813534 257.361472 
L 101.895716 256.633191 
L 102.436807 256.110323 
L 105.142261 254.224262 
L 106.765534 253.103829 
L 107.306625 252.786374 
L 108.388807 251.908702 
L 109.470989 251.404507 
L 111.635352 249.798554 
L 112.176443 249.406403 
L 112.717534 248.827513 
L 113.258625 248.528731 
L 115.422989 246.773387 
L 115.96408 246.455931 
L 118.128443 244.681913 
L 119.210625 243.804242 
L 119.751716 243.318721 
L 121.374989 242.310332 
L 121.91608 241.750116 
L 122.998261 241.115204 
L 123.539352 240.667031 
L 124.621534 239.490577 
L 128.950261 236.241324 
L 134.36117 231.852964 
L 135.443352 230.788553 
L 135.984443 230.508445 
L 137.066625 229.724143 
L 138.148807 228.958514 
L 139.230989 228.342276 
L 139.77208 227.856756 
L 140.31317 227.520626 
L 141.395352 226.512237 
L 144.641898 224.121981 
L 145.72408 223.431048 
L 147.347352 222.142551 
L 147.888443 221.470292 
L 148.429534 221.115488 
L 148.970625 220.910076 
L 151.134989 219.248101 
L 151.67608 218.967993 
L 152.758261 218.127669 
L 153.299352 217.567453 
L 153.840443 217.175301 
L 154.381534 216.615085 
L 156.545898 215.233219 
L 159.251352 213.085724 
L 160.333534 212.450812 
L 161.956807 211.199663 
L 163.038989 210.490056 
L 164.12117 209.631057 
L 164.662261 209.332276 
L 167.367716 207.240802 
L 168.449898 206.512521 
L 171.155352 204.477069 
L 172.237534 203.618071 
L 172.778625 203.319289 
L 173.319716 202.833768 
L 174.401898 202.142835 
L 175.48408 201.171794 
L 176.02517 200.854338 
L 176.566261 200.294122 
L 177.648443 199.640536 
L 178.189534 199.024299 
L 181.43608 196.634043 
L 182.518261 196.017805 
L 183.059352 195.644328 
L 184.141534 194.710634 
L 184.682625 194.486548 
L 185.223716 194.057049 
L 186.305898 193.534181 
L 187.92917 192.283031 
L 189.011352 191.592098 
L 189.552443 191.274642 
L 190.634625 190.434318 
L 192.257898 189.351233 
L 193.34008 188.398866 
L 194.963352 187.353129 
L 196.045534 186.34474 
L 198.209898 184.70144 
L 198.750989 184.402658 
L 199.29208 183.898463 
L 199.83317 183.655703 
L 203.079716 181.022687 
L 204.702989 179.939602 
L 206.326261 178.688453 
L 206.867352 178.072215 
L 208.490625 177.026479 
L 209.572807 176.074111 
L 211.19608 174.991027 
L 212.819352 173.347726 
L 214.983716 171.555034 
L 215.524807 171.181557 
L 216.065898 170.658688 
L 217.14808 169.967755 
L 220.394625 167.596174 
L 221.476807 166.774523 
L 222.017898 166.41972 
L 222.558989 165.859504 
L 223.64117 165.112549 
L 224.182261 164.533659 
L 224.723352 164.34692 
L 227.428807 162.423511 
L 229.59317 160.686841 
L 231.757534 159.006193 
L 232.298625 158.782106 
L 233.380807 157.885761 
L 235.54517 156.410525 
L 236.627352 155.850309 
L 238.250625 154.897941 
L 239.332807 153.9269 
L 239.873898 153.665466 
L 242.579352 151.499297 
L 243.661534 150.640299 
L 244.743716 150.192126 
L 249.072443 146.961546 
L 249.613534 146.700112 
L 251.236807 145.24355 
L 251.777898 144.963442 
L 252.318989 144.32853 
L 253.40117 143.562902 
L 253.942261 143.282793 
L 255.565534 141.919601 
L 256.647716 141.097951 
L 257.188807 140.705799 
L 257.729898 140.03354 
L 258.81208 139.21189 
L 260.976443 137.549915 
L 263.140807 136.037331 
L 263.681898 135.73855 
L 264.222989 135.290377 
L 267.469534 133.441663 
L 272.339352 129.818932 
L 272.880443 129.333412 
L 274.503716 128.194306 
L 275.585898 127.279286 
L 276.66808 126.177528 
L 277.20917 126.009463 
L 278.291352 125.094443 
L 281.537898 122.890926 
L 282.62008 122.08795 
L 283.16117 121.733146 
L 285.325534 119.77239 
L 286.407716 118.950739 
L 286.948807 118.353176 
L 288.57208 117.1207 
L 289.11317 116.821918 
L 290.736443 115.608117 
L 293.982989 113.516643 
L 294.52408 113.031122 
L 295.06517 112.694993 
L 296.688443 111.313126 
L 315.085534 98.502851 
L 316.708807 97.251701 
L 317.249898 96.85955 
L 318.87317 95.36564 
L 321.037534 93.759687 
L 324.28408 90.809216 
L 325.366261 90.174304 
L 326.989534 88.717742 
L 328.071716 87.914766 
L 328.612807 87.429245 
L 330.77717 86.19677 
L 331.859352 85.412467 
L 333.482625 84.0306 
L 334.023716 83.694471 
L 335.646989 82.107192 
L 336.18808 81.659019 
L 337.811352 80.743999 
L 340.516807 78.671199 
L 343.763352 76.467683 
L 345.386625 75.160512 
L 345.927716 74.899078 
L 347.550989 73.797319 
L 358.372807 65.879598 
L 359.454989 64.908556 
L 360.53717 64.10558 
L 362.160443 62.817083 
L 363.242625 61.733998 
L 363.783716 61.45389 
L 364.324807 60.987044 
L 364.865898 60.762957 
L 365.94808 59.922633 
L 366.48917 59.623851 
L 368.112443 58.279332 
L 369.735716 57.140226 
L 371.90008 55.254165 
L 372.44117 54.974057 
L 373.523352 54.189754 
L 374.064443 53.946994 
L 374.605534 53.424126 
L 375.687716 52.733193 
L 376.769898 51.836847 
L 377.85208 51.108566 
L 381.098625 48.550245 
L 383.80408 46.477446 
L 384.886261 45.954577 
L 389.75608 41.659587 
L 393.543716 39.045245 
L 394.625898 38.242269 
L 395.166989 37.756748 
L 395.70808 37.495314 
L 396.790261 36.692337 
L 397.872443 36.262838 
L 398.954625 35.441188 
L 400.577898 34.414125 
L 400.577898 34.414125 
" style="fill:none;stroke:#000080;stroke-linecap:round;stroke-width:1.5;"/>
   </g>
   <g id="line2d_16">
    <path clip-path="url(#pef2ccfb9b3)" d="M 75.923352 276.334125 
L 76.464443 275.848604 
L 77.005534 275.531149 
L 78.087716 274.541433 
L 78.628807 274.149282 
L 80.25208 272.618025 
L 82.416443 270.563899 
L 83.498625 269.406119 
L 86.20408 267.389341 
L 87.827352 266.194213 
L 88.909534 265.335215 
L 92.15608 263.18772 
L 93.238261 262.328722 
L 93.779352 261.768506 
L 94.320443 261.45105 
L 94.861534 260.909507 
L 95.943716 260.423987 
L 97.566989 259.340902 
L 99.190261 257.921688 
L 105.683352 253.738741 
L 106.224443 253.141177 
L 108.388807 251.460529 
L 110.55317 249.87325 
L 116.50517 245.24213 
L 117.046261 244.756609 
L 118.669534 243.804242 
L 119.751716 242.8332 
L 125.703716 238.631579 
L 126.785898 237.735233 
L 128.950261 236.316019 
L 129.491352 235.905194 
L 130.032443 235.681108 
L 133.82008 232.954722 
L 135.984443 231.068661 
L 136.525534 230.67651 
L 137.607716 230.284359 
L 138.148807 229.724143 
L 138.689898 229.462709 
L 139.77208 228.641058 
L 140.31317 228.211559 
L 140.854261 228.02482 
L 141.395352 227.464604 
L 142.477534 226.811019 
L 146.806261 223.48707 
L 148.429534 222.273268 
L 150.052807 220.854054 
L 154.922625 217.137954 
L 155.463716 216.521716 
L 157.086989 215.214545 
L 159.792443 213.291136 
L 161.415716 212.189378 
L 163.58008 210.490056 
L 165.203352 209.481666 
L 166.826625 208.622668 
L 168.990989 206.923346 
L 169.53208 206.400478 
L 171.696443 204.887894 
L 180.353898 197.791823 
L 181.97717 196.783434 
L 183.600443 195.494937 
L 184.682625 194.804004 
L 185.223716 194.281135 
L 185.764807 193.96368 
L 186.846989 192.936617 
L 187.92917 192.170988 
L 190.634625 190.210232 
L 191.175716 189.668689 
L 192.798989 188.604279 
L 193.88117 187.745281 
L 194.422261 187.222412 
L 194.963352 186.867609 
L 197.127716 184.869504 
L 199.29208 183.431616 
L 200.374261 182.609966 
L 200.915352 182.311184 
L 201.456443 181.676272 
L 204.161898 179.790211 
L 204.702989 179.286017 
L 205.24408 179.005909 
L 205.78517 178.57641 
L 206.867352 177.960172 
L 207.408443 177.624042 
L 208.490625 176.690349 
L 209.031716 176.26085 
L 210.113898 175.663286 
L 211.73717 174.43081 
L 212.819352 173.665182 
L 214.442625 172.488728 
L 215.524807 171.667078 
L 216.065898 171.274926 
L 217.14808 170.247863 
L 218.230261 169.370191 
L 220.935716 167.521478 
L 223.10008 165.654091 
L 227.969898 162.442185 
L 228.510989 161.956665 
L 229.59317 160.836232 
L 230.675352 159.977234 
L 232.298625 158.856802 
L 233.380807 157.867087 
L 236.086261 155.962352 
L 236.627352 155.66357 
L 237.168443 155.122028 
L 238.791716 154.16966 
L 239.332807 153.646792 
L 240.95608 152.563707 
L 241.49717 152.115534 
L 242.038261 151.872774 
L 247.44917 147.689827 
L 250.154625 145.859788 
L 251.236807 145.206202 
L 251.777898 144.90742 
L 255.565534 142.031644 
L 257.729898 140.761821 
L 259.35317 139.081172 
L 259.894261 138.763717 
L 260.976443 137.904719 
L 261.517534 137.419198 
L 262.058625 137.120416 
L 263.681898 135.701202 
L 264.76408 135.06629 
L 265.846261 134.113923 
L 268.551716 132.209188 
L 269.092807 131.92908 
L 271.25717 130.080367 
L 272.339352 129.333412 
L 273.962625 128.026241 
L 275.585898 126.980504 
L 279.914625 123.955337 
L 280.996807 123.040317 
L 282.62008 122.031928 
L 283.16117 121.677125 
L 284.243352 120.780779 
L 286.407716 119.10013 
L 286.948807 118.558588 
L 287.489898 118.259806 
L 288.57208 117.494177 
L 289.654261 116.803244 
L 290.195352 116.373745 
L 290.736443 116.130985 
L 297.229534 111.555886 
L 298.852807 110.342085 
L 299.393898 110.061977 
L 299.934989 109.576456 
L 301.01717 108.997566 
L 302.099352 108.157242 
L 303.181534 107.391613 
L 304.263716 106.756702 
L 304.804807 106.159138 
L 307.510261 104.030316 
L 309.133534 102.64845 
L 310.215716 102.088234 
L 311.838989 100.837084 
L 314.544443 98.876328 
L 315.085534 98.297438 
L 316.708807 97.251701 
L 317.790989 96.318008 
L 322.119716 93.162123 
L 323.201898 92.359147 
L 323.742989 91.761583 
L 324.82517 90.939933 
L 327.530625 88.829785 
L 333.482625 85.020316 
L 334.564807 84.161318 
L 336.18808 82.835473 
L 336.72917 82.536691 
L 338.893534 80.725325 
L 339.975716 80.034392 
L 340.516807 79.436828 
L 345.386625 75.720728 
L 345.927716 75.552663 
L 348.63317 73.573233 
L 350.797534 72.247388 
L 351.338625 71.705846 
L 351.879716 71.351042 
L 353.502989 69.987849 
L 354.04408 69.707741 
L 355.667352 68.437918 
L 358.372807 66.533183 
L 359.454989 65.786228 
L 359.99608 65.244686 
L 360.53717 65.001926 
L 361.619352 64.161602 
L 362.160443 63.900167 
L 362.701534 63.508016 
L 363.783716 62.536975 
L 364.865898 61.79002 
L 365.406989 61.155108 
L 366.48917 60.38948 
L 367.571352 59.549155 
L 368.112443 59.2317 
L 368.653534 58.671484 
L 369.194625 58.447397 
L 369.735716 57.961876 
L 370.276807 57.625747 
L 370.817898 57.121552 
L 372.44117 56.206533 
L 374.064443 54.862014 
L 375.146625 54.003016 
L 375.687716 53.666886 
L 376.228807 53.125344 
L 376.769898 52.807888 
L 377.310989 52.322367 
L 377.85208 52.004912 
L 379.475352 50.79111 
L 381.098625 49.539961 
L 384.34517 46.757554 
L 385.427352 45.973251 
L 387.050625 44.516689 
L 390.29717 42.275825 
L 391.920443 40.987328 
L 393.002625 40.333742 
L 394.084807 39.493418 
L 396.24917 37.962161 
L 396.790261 37.345923 
L 397.872443 36.56162 
L 398.413534 36.020078 
L 398.954625 35.721296 
L 400.036807 34.82495 
L 400.577898 34.414125 
L 400.577898 34.414125 
" style="fill:none;stroke:#0000f1;stroke-linecap:round;stroke-width:1.5;"/>
   </g>
   <g id="line2d_17">
    <path clip-path="url(#pef2ccfb9b3)" d="M 75.923352 276.334125 
L 76.464443 275.904626 
L 77.546625 274.746846 
L 82.416443 271.161463 
L 84.039716 270.302465 
L 84.580807 269.835618 
L 85.121898 269.536836 
L 85.662989 269.013968 
L 87.286261 268.0616 
L 92.69717 264.326826 
L 93.238261 264.102739 
L 93.779352 263.67324 
L 94.320443 263.038329 
L 94.861534 262.758221 
L 96.484807 261.507071 
L 98.64917 259.938466 
L 99.190261 259.266207 
L 100.272443 258.444556 
L 103.518989 256.390431 
L 104.60117 255.531433 
L 105.142261 255.32602 
L 107.306625 253.477307 
L 107.847716 253.197199 
L 109.470989 251.964723 
L 110.01208 251.665941 
L 111.094261 250.750922 
L 111.635352 250.489487 
L 113.258625 249.350381 
L 114.881898 248.229949 
L 115.96408 247.352277 
L 116.50517 247.072169 
L 118.669534 245.298151 
L 120.292807 244.177719 
L 121.374989 243.262699 
L 121.91608 242.609114 
L 123.539352 241.656746 
L 125.703716 240.088141 
L 127.326989 238.799644 
L 128.950261 237.697886 
L 129.491352 237.436452 
L 131.114625 236.166628 
L 133.278989 234.766088 
L 135.443352 233.178809 
L 143.018625 227.78206 
L 143.559716 227.464604 
L 144.641898 226.605606 
L 148.429534 223.991264 
L 148.970625 223.375027 
L 153.840443 219.901687 
L 154.381534 219.416166 
L 154.922625 218.781254 
L 156.004807 218.052973 
L 156.545898 217.567453 
L 157.62808 216.895193 
L 162.497898 213.30981 
L 163.038989 213.048376 
L 163.58008 212.581529 
L 165.744443 211.293032 
L 172.778625 206.232413 
L 173.860807 205.597501 
L 174.401898 205.111981 
L 175.48408 204.533091 
L 180.894989 200.518208 
L 181.97717 199.715232 
L 185.764807 197.119564 
L 189.011352 194.766656 
L 192.798989 192.488444 
L 193.88117 191.928228 
L 195.504443 190.583709 
L 196.586625 189.967471 
L 201.997534 185.803198 
L 203.079716 185.130939 
L 204.161898 184.066528 
L 205.24408 183.20753 
L 206.867352 182.012402 
L 207.408443 181.564229 
L 208.490625 181.004013 
L 210.113898 179.827559 
L 210.654989 179.454082 
L 211.19608 178.856518 
L 211.73717 178.48304 
L 212.819352 177.530673 
L 216.606989 174.76694 
L 217.14808 174.244072 
L 218.771352 173.329052 
L 219.853534 172.526076 
L 220.935716 171.797795 
L 222.558989 170.621341 
L 223.64117 169.631626 
L 224.723352 168.922018 
L 225.805534 167.988325 
L 226.887716 167.260044 
L 227.969898 166.494415 
L 229.59317 165.26194 
L 230.134261 164.68305 
L 232.839716 162.535555 
L 235.00408 160.798885 
L 237.709534 158.80078 
L 238.791716 157.717696 
L 242.038261 155.570201 
L 243.661534 154.431095 
L 244.743716 153.254641 
L 246.366989 152.078187 
L 250.154625 149.501193 
L 251.777898 148.025957 
L 254.483352 145.971831 
L 255.024443 145.374267 
L 256.647716 144.496595 
L 258.270989 143.357489 
L 258.81208 142.759925 
L 261.517534 140.892538 
L 262.599716 140.164257 
L 263.140807 139.809453 
L 264.222989 138.894434 
L 264.76408 138.576978 
L 265.30517 137.998088 
L 268.010625 135.962636 
L 271.25717 133.161555 
L 272.339352 132.377253 
L 273.962625 131.35019 
L 277.20917 129.015956 
L 280.996807 125.972115 
L 281.537898 125.393225 
L 282.078989 124.9824 
L 282.62008 124.814335 
L 283.702261 124.011359 
L 285.325534 122.741535 
L 286.407716 121.807842 
L 287.489898 121.060887 
L 288.57208 120.481997 
L 289.11317 120.071172 
L 289.654261 119.492282 
L 290.736443 118.801348 
L 291.277534 118.502567 
L 292.359716 117.662242 
L 292.900807 117.36346 
L 293.982989 116.504462 
L 295.06517 115.72016 
L 301.01717 111.518539 
L 302.099352 110.622193 
L 302.640443 110.454128 
L 303.722625 109.576456 
L 304.804807 109.034914 
L 305.345898 108.624089 
L 305.886989 108.362655 
L 306.42808 107.821112 
L 308.051352 106.719354 
L 309.674625 105.318814 
L 310.215716 104.702576 
L 311.297898 103.787556 
L 312.38008 102.835189 
L 313.462261 102.06956 
L 314.003352 101.471996 
L 314.544443 101.24791 
L 315.085534 100.781063 
L 316.708807 99.754 
L 317.249898 99.343175 
L 317.790989 98.726937 
L 318.87317 97.979982 
L 319.955352 97.177006 
L 320.496443 96.672811 
L 322.119716 95.552379 
L 323.201898 94.637359 
L 326.448443 92.303125 
L 326.989534 92.060365 
L 327.530625 91.369432 
L 328.071716 91.164019 
L 329.153898 90.323695 
L 329.694989 90.043587 
L 330.23608 89.632762 
L 330.77717 89.408675 
L 332.400443 88.157526 
L 333.482625 87.205159 
L 334.564807 86.364834 
L 337.270261 83.974579 
L 338.352443 83.134255 
L 339.434625 82.14454 
L 341.057898 81.154824 
L 342.68117 79.903675 
L 343.763352 78.801917 
L 348.63317 75.68338 
L 349.174261 74.992447 
L 349.715352 74.805708 
L 350.797534 73.797319 
L 352.961898 72.191366 
L 353.502989 71.612476 
L 355.126261 70.566739 
L 358.913898 68.083115 
L 359.454989 67.933724 
L 361.619352 66.365118 
L 362.160443 65.898272 
L 362.701534 65.580816 
L 363.783716 64.721818 
L 364.324807 64.423036 
L 366.48917 62.667692 
L 367.571352 61.995433 
L 370.276807 59.418438 
L 372.44117 57.943203 
L 373.523352 57.140226 
L 375.146625 55.702338 
L 376.228807 55.030079 
L 378.934261 53.125344 
L 379.475352 52.845236 
L 380.557534 51.930216 
L 381.098625 51.631434 
L 382.180807 50.847132 
L 385.968443 48.270137 
L 388.132807 46.608163 
L 388.673898 46.40275 
L 390.29717 45.114253 
L 391.379352 44.199233 
L 393.002625 43.078801 
L 395.166989 41.248762 
L 396.24917 40.389764 
L 396.790261 39.848221 
L 397.331352 39.568113 
L 398.954625 38.316964 
L 400.036807 37.626031 
L 400.577898 37.065815 
L 400.577898 37.065815 
" style="fill:none;stroke:#004cff;stroke-linecap:round;stroke-width:1.5;"/>
   </g>
   <g id="line2d_18">
    <path clip-path="url(#pef2ccfb9b3)" d="M 75.923352 276.334125 
L 77.546625 274.952259 
L 79.169898 273.869174 
L 80.25208 273.047524 
L 82.416443 271.665657 
L 83.498625 270.769311 
L 84.039716 270.395834 
L 84.580807 269.816944 
L 85.662989 269.387445 
L 87.286261 268.248339 
L 90.532807 266.100844 
L 91.614989 265.260519 
L 92.15608 264.887042 
L 93.238261 264.382848 
L 95.402625 262.702199 
L 96.484807 261.805853 
L 98.10808 260.349291 
L 105.683352 255.419389 
L 106.224443 254.840499 
L 106.765534 254.560391 
L 108.388807 253.402611 
L 111.094261 251.292464 
L 112.176443 250.172032 
L 114.881898 248.360666 
L 116.50517 247.202886 
L 117.587352 246.381236 
L 118.669534 245.783672 
L 122.45717 243.356069 
L 123.539352 242.497071 
L 125.703716 241.133878 
L 127.86808 239.471903 
L 128.40917 238.87434 
L 131.655716 236.577453 
L 132.196807 235.961216 
L 136.525534 232.618593 
L 141.936443 228.790449 
L 143.018625 227.800734 
L 146.806261 225.242414 
L 147.347352 224.999653 
L 148.429534 224.103308 
L 149.511716 223.356353 
L 151.134989 222.030508 
L 153.840443 220.125773 
L 156.545898 218.165017 
L 157.086989 217.642148 
L 157.62808 217.399388 
L 160.874625 215.121176 
L 161.415716 214.486264 
L 163.038989 213.160419 
L 163.58008 212.880311 
L 164.12117 212.450812 
L 164.662261 211.871922 
L 165.744443 211.162315 
L 168.449898 208.996146 
L 170.614261 207.427541 
L 171.155352 206.792629 
L 172.237534 206.139044 
L 173.319716 205.261372 
L 176.02517 203.22592 
L 177.107352 202.273552 
L 178.730625 201.171794 
L 179.271716 200.686273 
L 180.353898 199.99534 
L 182.518261 198.557452 
L 183.600443 197.642432 
L 192.798989 190.994534 
L 193.34008 190.751774 
L 198.209898 186.92363 
L 199.83317 186.214023 
L 204.161898 182.815379 
L 207.408443 180.817274 
L 208.490625 180.051646 
L 209.572807 179.080604 
L 211.19608 177.810781 
L 213.360443 176.484936 
L 213.901534 176.186154 
L 214.983716 175.34583 
L 216.606989 174.244072 
L 218.771352 172.264641 
L 219.853534 171.62973 
L 222.558989 169.258148 
L 223.64117 168.623237 
L 224.182261 168.15639 
L 224.723352 167.521478 
L 226.346625 166.41972 
L 227.428807 165.896851 
L 227.969898 165.598069 
L 228.510989 165.16857 
L 229.59317 164.533659 
L 232.839716 161.919317 
L 237.709534 158.445977 
L 238.791716 157.717696 
L 241.49717 155.719592 
L 242.579352 155.08468 
L 244.202625 153.777509 
L 244.743716 153.10525 
L 247.990261 150.565603 
L 249.072443 149.87467 
L 249.613534 149.333128 
L 250.695716 148.623521 
L 251.236807 148.081978 
L 251.777898 147.708501 
L 252.86008 146.606743 
L 253.40117 146.382656 
L 255.565534 144.515269 
L 257.729898 143.002685 
L 258.270989 142.573186 
L 258.81208 142.293078 
L 259.35317 141.732862 
L 259.894261 141.508776 
L 260.976443 140.817842 
L 262.058625 140.220279 
L 263.140807 139.342607 
L 264.76408 138.240848 
L 265.846261 137.269807 
L 266.387352 136.952351 
L 266.928443 136.504178 
L 268.010625 135.943962 
L 269.092807 135.010269 
L 273.962625 131.387538 
L 275.044807 130.752626 
L 276.66808 129.333412 
L 277.20917 129.053304 
L 277.750261 128.511761 
L 279.914625 126.887135 
L 281.537898 125.505268 
L 282.62008 124.870357 
L 283.702261 124.011359 
L 286.407716 122.218667 
L 288.030989 120.799453 
L 289.654261 119.67902 
L 290.736443 119.062783 
L 291.277534 118.577262 
L 291.818625 117.867655 
L 293.441898 116.579158 
L 294.52408 115.832203 
L 295.606261 114.879836 
L 298.311716 113.217861 
L 298.852807 112.844384 
L 299.934989 111.817321 
L 301.01717 111.014344 
L 305.886989 107.372939 
L 308.592443 105.262792 
L 313.462261 101.994864 
L 314.003352 101.359953 
L 316.708807 99.585935 
L 317.249898 99.100414 
L 318.87317 98.166721 
L 321.037534 96.075247 
L 324.82517 93.199471 
L 326.448443 92.097713 
L 328.071716 90.753194 
L 329.694989 89.688783 
L 330.77717 89.035198 
L 332.400443 87.653331 
L 336.72917 84.404078 
L 337.270261 83.78784 
L 337.811352 83.414363 
L 338.352443 82.87282 
L 339.434625 81.995149 
L 341.057898 80.743999 
L 341.598989 80.351848 
L 342.14008 79.772958 
L 343.763352 78.708547 
L 345.927716 77.251985 
L 346.468807 77.046573 
L 350.256443 74.133449 
L 354.04408 71.612476 
L 355.667352 70.193262 
L 370.276807 59.567829 
L 370.817898 58.988939 
L 372.982261 57.551051 
L 374.064443 56.710727 
L 375.146625 55.926424 
L 377.85208 53.480147 
L 379.475352 52.359715 
L 380.557534 51.780825 
L 381.639716 50.79111 
L 382.721898 49.950786 
L 383.80408 49.035766 
L 385.427352 47.915334 
L 386.509534 47.112357 
L 389.75608 44.908841 
L 390.29717 44.42332 
L 390.838261 44.161886 
L 393.543716 42.089086 
L 394.084807 41.472848 
L 396.24917 40.259047 
L 397.331352 39.400049 
L 397.872443 39.082593 
L 400.036807 37.196532 
L 400.577898 36.692337 
L 400.577898 36.692337 
" style="fill:none;stroke:#00b0ff;stroke-linecap:round;stroke-width:1.5;"/>
   </g>
   <g id="line2d_19">
    <path clip-path="url(#pef2ccfb9b3)" d="M 75.923352 276.334125 
L 77.005534 275.400431 
L 79.169898 273.869174 
L 80.25208 273.02885 
L 81.875352 272.001787 
L 86.20408 269.518162 
L 88.368443 268.0616 
L 88.909534 267.594753 
L 89.991716 266.978516 
L 90.532807 266.511669 
L 91.073898 266.212887 
L 91.614989 265.727366 
L 92.15608 265.092455 
L 92.69717 264.681629 
L 93.779352 264.214783 
L 95.943716 262.571482 
L 96.484807 262.254026 
L 97.566989 261.488397 
L 105.142261 256.259714 
L 105.683352 256.035627 
L 106.765534 255.195303 
L 107.847716 254.280283 
L 109.470989 253.122503 
L 110.55317 252.263505 
L 112.717534 250.582857 
L 113.799716 249.705185 
L 114.340807 249.163643 
L 115.422989 248.416688 
L 116.50517 247.688407 
L 117.046261 247.333603 
L 117.587352 247.128191 
L 118.669534 246.381236 
L 120.833898 244.943348 
L 121.91608 244.215067 
L 122.998261 243.542807 
L 124.080443 242.870548 
L 125.703716 241.712768 
L 127.326989 240.648357 
L 127.86808 240.162837 
L 128.950261 239.471903 
L 129.491352 238.949035 
L 131.114625 237.903298 
L 132.196807 236.894909 
L 132.737898 236.652149 
L 135.443352 234.48598 
L 137.607716 232.917375 
L 138.689898 232.562571 
L 139.77208 231.647551 
L 141.936443 229.985577 
L 144.641898 228.099516 
L 146.806261 226.86704 
L 148.970625 224.906284 
L 151.67608 222.721441 
L 152.21717 222.441333 
L 154.381534 220.723337 
L 154.922625 220.051078 
L 155.463716 219.621578 
L 156.004807 219.042688 
L 158.710261 217.11928 
L 159.792443 216.278956 
L 161.415716 215.065154 
L 164.12117 212.898985 
L 164.662261 212.637551 
L 165.203352 212.133356 
L 165.744443 211.8159 
L 168.449898 209.406971 
L 173.319716 206.288435 
L 177.648443 202.833768 
L 179.271716 201.563945 
L 179.812807 201.059751 
L 180.353898 200.779643 
L 181.43608 199.771254 
L 182.518261 199.024299 
L 184.141534 197.791823 
L 185.223716 197.138238 
L 186.846989 195.60698 
L 187.92917 194.78533 
L 190.093534 193.179377 
L 190.634625 192.71253 
L 191.175716 192.563139 
L 191.716807 192.208336 
L 192.257898 192.021597 
L 198.750989 187.334455 
L 199.83317 186.307392 
L 200.374261 186.10198 
L 200.915352 185.635133 
L 201.997534 185.018895 
L 203.079716 183.991832 
L 204.161898 183.412942 
L 204.702989 182.96477 
L 205.78517 182.348532 
L 207.949534 180.742579 
L 209.031716 180.145015 
L 209.572807 179.678168 
L 210.113898 179.454082 
L 211.73717 178.072215 
L 214.983716 175.495221 
L 216.065898 174.785614 
L 216.606989 174.169376 
L 217.14808 173.889268 
L 217.68917 173.478443 
L 218.230261 172.880879 
L 218.771352 172.563423 
L 219.853534 171.499013 
L 225.805534 166.886567 
L 227.969898 164.944484 
L 228.510989 164.664376 
L 233.921898 160.313364 
L 234.462989 160.014582 
L 238.250625 157.008089 
L 238.791716 156.634611 
L 239.873898 155.644896 
L 240.414989 155.42081 
L 242.038261 154.225682 
L 242.579352 153.9269 
L 243.120443 153.422705 
L 244.202625 152.713098 
L 247.44917 150.285495 
L 248.531352 149.29578 
L 249.613534 148.660868 
L 250.695716 147.913913 
L 251.777898 146.718786 
L 253.40117 145.710397 
L 258.81208 141.882253 
L 259.894261 141.153972 
L 260.976443 140.388343 
L 261.517534 140.108235 
L 263.681898 138.371565 
L 264.76408 137.755328 
L 266.387352 136.597548 
L 268.010625 135.40242 
L 270.174989 133.740445 
L 279.373534 126.849787 
L 279.914625 126.569679 
L 281.537898 124.963726 
L 284.243352 122.9096 
L 284.784443 122.386732 
L 285.325534 122.069276 
L 286.948807 120.818127 
L 287.489898 120.556692 
L 288.030989 120.052498 
L 288.57208 119.716368 
L 290.736443 117.774286 
L 293.441898 115.832203 
L 295.06517 114.244924 
L 296.147352 113.236535 
L 306.42808 105.654943 
L 306.96917 105.20677 
L 307.510261 105.038705 
L 308.051352 104.497163 
L 310.215716 103.077949 
L 310.756807 102.629776 
L 312.38008 101.752104 
L 312.92117 101.266584 
L 313.462261 101.005149 
L 315.626625 99.212458 
L 316.167716 98.93235 
L 316.708807 98.521524 
L 317.249898 98.26009 
L 318.33208 97.251701 
L 319.414261 96.61679 
L 320.496443 95.795139 
L 322.119716 94.394599 
L 322.660807 94.039795 
L 323.201898 93.404884 
L 325.907352 91.593518 
L 326.448443 90.921259 
L 328.071716 89.782153 
L 331.859352 87.317202 
L 332.941534 86.234117 
L 335.105898 84.740208 
L 337.270261 82.910168 
L 337.811352 82.368626 
L 338.352443 82.125866 
L 339.434625 81.341563 
L 340.516807 80.575934 
L 341.057898 80.053066 
L 341.598989 79.772958 
L 344.845534 77.195964 
L 345.386625 76.617074 
L 353.502989 70.342653 
L 356.208443 68.139136 
L 358.372807 66.439814 
L 363.242625 62.686366 
L 366.48917 60.314784 
L 368.653534 58.858222 
L 369.194625 58.708831 
L 370.276807 58.07392 
L 370.817898 57.569725 
L 371.90008 56.934814 
L 372.44117 56.636032 
L 372.982261 56.131837 
L 373.523352 55.889077 
L 374.064443 55.347534 
L 374.605534 55.067426 
L 377.310989 53.125344 
L 378.934261 51.967564 
L 380.016443 51.071218 
L 381.098625 49.894764 
L 381.639716 49.670678 
L 383.80408 48.13942 
L 388.132807 44.927514 
L 389.214989 44.329951 
L 391.920443 42.331846 
L 392.461534 41.678261 
L 395.70808 39.605461 
L 396.24917 38.97055 
L 397.331352 38.335638 
L 399.495716 36.673663 
L 400.577898 36.001404 
L 400.577898 36.001404 
" style="fill:none;stroke:#29ffce;stroke-linecap:round;stroke-width:1.5;"/>
   </g>
   <g id="line2d_20">
    <path clip-path="url(#pef2ccfb9b3)" d="M 75.923352 276.334125 
L 83.498625 271.348201 
L 84.580807 270.451856 
L 85.662989 269.55551 
L 86.74517 268.715186 
L 87.286261 268.285687 
L 87.827352 268.0616 
L 88.909534 267.221276 
L 89.450625 267.090559 
L 91.073898 266.231561 
L 97.566989 261.395028 
L 100.813534 258.537926 
L 101.895716 257.921688 
L 103.518989 256.539822 
L 104.06008 256.203692 
L 105.142261 255.232651 
L 107.306625 253.477307 
L 107.847716 253.215873 
L 108.388807 252.786374 
L 109.470989 252.207484 
L 110.55317 251.348485 
L 112.176443 250.041315 
L 114.340807 248.099232 
L 119.210625 244.495175 
L 119.751716 244.177719 
L 120.292807 243.580155 
L 121.91608 242.478397 
L 123.539352 241.339291 
L 124.080443 240.891118 
L 125.162625 239.808033 
L 127.326989 238.052689 
L 128.40917 237.417778 
L 128.950261 236.838888 
L 132.196807 234.560675 
L 133.278989 233.888416 
L 139.77208 228.865145 
L 140.31317 228.342276 
L 141.395352 227.726039 
L 143.559716 225.821304 
L 152.758261 218.893298 
L 153.840443 218.27706 
L 156.545898 216.20426 
L 157.086989 215.550675 
L 159.251352 214.000743 
L 160.333534 212.861637 
L 160.874625 212.338769 
L 161.415716 211.983965 
L 162.497898 211.087619 
L 163.58008 210.340665 
L 164.12117 209.743101 
L 165.744443 208.454604 
L 166.285534 208.193169 
L 166.826625 207.726323 
L 167.908807 206.624564 
L 171.155352 204.421047 
L 171.696443 204.159613 
L 176.566261 200.33147 
L 177.107352 199.789927 
L 178.730625 198.781538 
L 180.894989 196.970173 
L 184.141534 194.467874 
L 184.682625 194.187766 
L 185.764807 193.198051 
L 188.470261 191.330664 
L 189.552443 190.565035 
L 190.634625 189.930123 
L 194.963352 187.110369 
L 196.045534 186.027284 
L 199.83317 183.823768 
L 201.997534 181.993728 
L 202.538625 181.657599 
L 203.620807 180.630536 
L 206.326261 178.501714 
L 206.867352 178.221606 
L 207.949534 177.306587 
L 208.490625 177.026479 
L 210.113898 175.663286 
L 211.73717 174.52418 
L 213.901534 173.067618 
L 215.524807 171.741773 
L 218.230261 170.173168 
L 225.805534 165.317961 
L 226.346625 165.056527 
L 227.428807 164.234877 
L 228.510989 163.338531 
L 230.134261 162.143403 
L 231.216443 161.20971 
L 232.298625 160.63082 
L 234.462989 159.398344 
L 235.00408 158.819454 
L 236.086261 158.072499 
L 237.168443 157.138806 
L 242.038261 153.702814 
L 242.579352 153.422705 
L 243.120443 152.843815 
L 250.154625 147.839218 
L 250.695716 147.185633 
L 259.35317 140.537734 
L 260.435352 139.417302 
L 262.058625 138.352891 
L 265.846261 135.234355 
L 266.387352 134.636791 
L 266.928443 134.281988 
L 268.010625 133.815141 
L 268.551716 133.516359 
L 269.092807 133.068186 
L 270.174989 132.470622 
L 270.71608 132.17184 
L 275.585898 128.418392 
L 277.750261 126.980504 
L 278.832443 126.326919 
L 282.62008 123.73125 
L 283.702261 123.002969 
L 285.866625 121.453038 
L 287.489898 120.201889 
L 289.11317 118.539914 
L 290.195352 117.624895 
L 291.277534 116.859266 
L 291.818625 116.355071 
L 293.441898 115.533421 
L 294.52408 114.786466 
L 295.06517 114.46901 
L 295.606261 113.946142 
L 298.852807 111.798647 
L 301.558261 109.725847 
L 302.099352 109.184305 
L 304.804807 107.391613 
L 305.886989 106.252507 
L 308.051352 104.814619 
L 309.674625 103.376731 
L 312.92117 101.117193 
L 317.249898 97.662526 
L 319.955352 95.552379 
L 321.037534 94.88012 
L 321.578625 94.469294 
L 322.119716 93.834383 
L 322.660807 93.554275 
L 324.82517 91.686888 
L 325.907352 91.107998 
L 326.989534 89.856848 
L 328.071716 89.072546 
L 329.153898 88.064157 
L 331.318261 86.588921 
L 331.859352 86.159422 
L 332.941534 85.543184 
L 334.023716 84.833577 
L 334.564807 84.385404 
L 335.105898 83.750492 
L 335.646989 83.320993 
L 336.72917 82.686082 
L 338.352443 81.416259 
L 342.14008 78.82059 
L 342.68117 78.615178 
L 343.222261 78.279048 
L 345.386625 76.392987 
L 349.174261 73.778645 
L 350.797534 72.527496 
L 355.126261 68.960787 
L 355.667352 68.699352 
L 358.913898 66.346445 
L 359.454989 65.786228 
L 359.99608 65.450099 
L 360.53717 64.945904 
L 361.619352 64.142928 
L 362.701534 63.227908 
L 363.783716 62.555649 
L 364.324807 62.275541 
L 365.406989 61.45389 
L 367.030261 60.408154 
L 368.653534 58.876896 
L 369.735716 57.98055 
L 370.276807 57.681768 
L 371.358989 56.766749 
L 371.90008 56.523988 
L 372.982261 55.571621 
L 374.064443 54.899362 
L 376.228807 53.274735 
L 377.85208 51.930216 
L 378.934261 51.108566 
L 380.016443 50.361611 
L 381.098625 49.894764 
L 381.639716 49.2972 
L 384.34517 47.635226 
L 385.968443 46.421424 
L 387.050625 45.525078 
L 389.214989 43.769734 
L 390.29717 42.836041 
L 391.920443 41.921021 
L 392.461534 41.435501 
L 394.625898 40.165677 
L 395.166989 39.904243 
L 395.70808 39.418722 
L 398.413534 37.756748 
L 398.954625 37.289901 
L 400.036807 36.598968 
L 400.577898 36.132121 
L 400.577898 36.132121 
" style="fill:none;stroke:#7dff7a;stroke-linecap:round;stroke-width:1.5;"/>
   </g>
   <g id="line2d_21">
    <path clip-path="url(#pef2ccfb9b3)" d="M 75.923352 276.334125 
L 81.334261 272.505981 
L 82.957534 271.404223 
L 88.909534 266.922494 
L 89.450625 266.642386 
L 90.532807 265.484606 
L 92.15608 264.476217 
L 92.69717 264.177435 
L 94.320443 262.702199 
L 102.977898 256.633191 
L 103.518989 256.128996 
L 107.306625 253.682719 
L 109.470989 252.058093 
L 110.01208 251.908702 
L 111.635352 250.601531 
L 112.717534 249.761206 
L 114.340807 248.547405 
L 114.881898 248.099232 
L 117.046261 246.810735 
L 118.128443 245.933063 
L 119.210625 244.962022 
L 119.751716 244.32711 
L 120.833898 243.561481 
L 122.998261 241.750116 
L 124.621534 240.442945 
L 125.162625 239.920076 
L 125.703716 239.714664 
L 132.737898 234.429958 
L 133.278989 234.14985 
L 134.36117 233.3282 
L 136.525534 231.946333 
L 138.148807 230.975292 
L 138.689898 230.471098 
L 139.230989 230.209663 
L 139.77208 229.817512 
L 140.854261 229.257296 
L 144.641898 226.680302 
L 145.182989 226.213455 
L 145.72408 226.064064 
L 148.429534 224.290046 
L 151.134989 222.422659 
L 152.21717 221.862443 
L 153.299352 220.760685 
L 156.004807 218.930645 
L 157.086989 218.202364 
L 158.16917 217.36204 
L 159.792443 216.073543 
L 160.333534 215.401284 
L 163.038989 213.533897 
L 165.744443 211.386401 
L 167.908807 210.209947 
L 168.990989 209.276254 
L 169.53208 208.977472 
L 170.614261 208.0998 
L 171.696443 207.27815 
L 173.319716 206.083022 
L 175.48408 204.421047 
L 176.02517 204.159613 
L 177.648443 202.759073 
L 179.812807 201.115772 
L 181.43608 200.051362 
L 181.97717 199.584515 
L 184.141534 198.352039 
L 185.223716 197.324976 
L 189.552443 194.094397 
L 190.093534 193.851636 
L 195.504443 189.855428 
L 199.83317 185.896567 
L 203.620807 183.282225 
L 206.867352 181.321469 
L 207.949534 180.499819 
L 208.490625 180.145015 
L 210.113898 178.688453 
L 210.654989 178.370997 
L 214.442625 175.289809 
L 216.065898 174.18805 
L 216.606989 173.571812 
L 220.394625 170.994818 
L 222.558989 169.239474 
L 223.10008 168.679258 
L 224.182261 168.06302 
L 225.264443 167.428109 
L 225.805534 167.091979 
L 226.887716 166.102264 
L 228.510989 164.981832 
L 231.216443 162.871684 
L 231.757534 162.572902 
L 232.839716 161.751252 
L 235.00408 160.369386 
L 240.414989 156.373177 
L 241.49717 155.719592 
L 242.038261 155.215397 
L 242.579352 154.897941 
L 243.120443 154.337725 
L 243.661534 154.020269 
L 245.284807 152.638403 
L 245.825898 152.302273 
L 246.90808 151.256536 
L 247.44917 151.069798 
L 247.990261 150.677646 
L 249.072443 150.080083 
L 250.154625 149.482519 
L 252.318989 147.764523 
L 258.270989 143.600249 
L 258.81208 143.114729 
L 259.894261 142.498491 
L 260.976443 141.490102 
L 261.517534 141.19132 
L 262.058625 140.631104 
L 263.681898 139.435976 
L 265.30517 138.334218 
L 266.387352 137.661958 
L 266.928443 137.232459 
L 268.010625 136.597548 
L 268.551716 136.205396 
L 269.092807 135.962636 
L 272.339352 133.068186 
L 273.962625 131.985101 
L 275.044807 131.200799 
L 277.20917 129.669541 
L 278.291352 128.717174 
L 281.537898 126.308245 
L 282.62008 125.374551 
L 284.784443 123.787272 
L 285.866625 123.15236 
L 286.948807 122.237341 
L 288.030989 121.565081 
L 289.11317 120.93017 
L 290.736443 119.959128 
L 291.277534 119.660347 
L 296.688443 115.215965 
L 297.229534 114.954531 
L 298.311716 114.058185 
L 298.852807 113.759403 
L 299.393898 113.273883 
L 300.47608 112.601623 
L 301.01717 112.116103 
L 302.099352 111.443843 
L 303.722625 110.286063 
L 304.804807 109.128283 
L 305.886989 108.362655 
L 306.96917 107.6157 
L 307.510261 107.223548 
L 309.133534 105.692291 
L 310.756807 104.366446 
L 311.838989 103.488774 
L 312.92117 102.723145 
L 314.003352 101.976191 
L 314.544443 101.471996 
L 316.167716 100.463607 
L 316.708807 100.052782 
L 317.790989 99.473892 
L 318.33208 99.081741 
L 318.87317 98.446829 
L 322.660807 95.70177 
L 331.318261 89.128567 
L 331.859352 88.885807 
L 334.564807 86.495551 
L 335.105898 86.178096 
L 336.18808 85.113685 
L 337.270261 84.12397 
L 337.811352 83.619775 
L 338.352443 83.339667 
L 339.975716 82.088518 
L 343.222261 80.07174 
L 344.304443 79.175394 
L 345.386625 78.391091 
L 347.009898 77.42005 
L 350.797534 74.731013 
L 351.879716 73.853341 
L 352.420807 73.517211 
L 354.58517 71.537781 
L 356.208443 70.417348 
L 357.831716 69.259568 
L 358.913898 68.344549 
L 361.078261 66.682574 
L 362.701534 65.674185 
L 363.783716 64.721818 
L 366.48917 62.667692 
L 367.571352 61.864716 
L 369.194625 60.352132 
L 369.735716 59.885285 
L 370.276807 59.642525 
L 374.064443 56.486641 
L 374.605534 56.187859 
L 376.228807 54.936709 
L 376.769898 54.544558 
L 377.85208 53.34943 
L 378.934261 52.453084 
L 381.098625 50.753762 
L 382.180807 50.156198 
L 382.721898 49.539961 
L 385.427352 47.728595 
L 385.968443 47.243074 
L 387.591716 46.122642 
L 388.673898 45.282318 
L 390.838261 43.807082 
L 391.379352 43.284214 
L 391.920443 42.92941 
L 393.543716 41.510196 
L 396.24917 39.512092 
L 397.331352 38.87718 
L 398.413534 38.130225 
L 399.495716 37.23388 
L 400.577898 36.281512 
L 400.577898 36.281512 
" style="fill:none;stroke:#ceff29;stroke-linecap:round;stroke-width:1.5;"/>
   </g>
   <g id="line2d_22">
    <path clip-path="url(#pef2ccfb9b3)" d="M 75.923352 276.334125 
L 78.087716 274.42939 
L 80.25208 272.916807 
L 81.334261 271.964439 
L 82.957534 270.862681 
L 84.580807 269.891639 
L 86.74517 268.360382 
L 87.827352 267.464036 
L 88.368443 267.14658 
L 89.450625 266.717081 
L 91.073898 265.279193 
L 92.15608 264.513565 
L 94.320443 262.720873 
L 96.484807 261.507071 
L 98.64917 259.826423 
L 101.354625 257.678928 
L 102.436807 256.969321 
L 102.977898 256.4838 
L 104.60117 255.475411 
L 105.142261 255.045912 
L 106.224443 254.448348 
L 107.847716 253.066482 
L 108.929898 252.356875 
L 110.01208 251.572572 
L 111.094261 250.918986 
L 111.635352 250.45214 
L 112.176443 250.134684 
L 113.258625 249.20099 
L 114.340807 248.566079 
L 115.422989 247.688407 
L 117.587352 246.06378 
L 118.669534 245.372847 
L 119.751716 244.401805 
L 120.292807 243.972306 
L 120.833898 243.710872 
L 121.91608 242.777179 
L 125.162625 240.480293 
L 126.785898 239.079752 
L 127.86808 238.29545 
L 129.491352 236.745518 
L 132.737898 234.373937 
L 134.36117 233.08544 
L 135.443352 232.151746 
L 136.525534 231.460813 
L 139.230989 229.481382 
L 144.641898 225.279761 
L 145.182989 224.682198 
L 147.347352 222.964201 
L 147.888443 222.385311 
L 152.21717 219.285449 
L 152.758261 219.09871 
L 158.710261 214.46759 
L 159.251352 214.187482 
L 160.333534 213.440527 
L 161.415716 212.824289 
L 163.038989 211.554466 
L 167.908807 207.894387 
L 172.778625 204.084918 
L 173.319716 203.524702 
L 173.860807 203.169898 
L 174.401898 202.64703 
L 176.02517 201.601293 
L 177.648443 200.387491 
L 178.189534 200.144731 
L 180.894989 198.165301 
L 183.059352 196.727413 
L 184.141534 195.775045 
L 190.093534 191.536076 
L 192.257898 189.780732 
L 192.798989 189.537972 
L 194.422261 188.249475 
L 194.963352 187.614563 
L 200.915352 184.159897 
L 201.456443 183.637029 
L 202.538625 182.983443 
L 203.620807 182.068424 
L 205.24408 180.723905 
L 205.78517 180.406449 
L 206.867352 179.454082 
L 208.490625 178.352323 
L 209.572807 177.736086 
L 212.819352 175.215113 
L 213.901534 174.244072 
L 214.442625 174.001311 
L 214.983716 173.478443 
L 215.524807 173.235683 
L 219.853534 169.837038 
L 222.558989 168.305781 
L 225.805534 165.373983 
L 226.887716 164.608354 
L 227.969898 163.581291 
L 229.05208 162.85301 
L 230.675352 161.601861 
L 231.216443 161.20971 
L 231.757534 161.004297 
L 233.380807 159.697126 
L 234.462989 158.912824 
L 236.627352 157.755044 
L 241.49717 154.020269 
L 242.579352 153.217293 
L 243.120443 152.787794 
L 243.661534 152.507686 
L 245.284807 151.163167 
L 245.825898 150.901733 
L 246.90808 150.11743 
L 247.44917 149.818648 
L 249.072443 148.530151 
L 251.236807 146.98022 
L 252.318989 145.897135 
L 253.40117 145.224876 
L 253.942261 144.66466 
L 255.565534 143.693619 
L 256.106625 143.488206 
L 257.729898 142.274404 
L 259.35317 141.228668 
L 259.894261 140.836516 
L 260.435352 140.61243 
L 262.058625 139.641389 
L 262.599716 139.379954 
L 263.140807 138.857086 
L 266.928443 136.280092 
L 267.469534 135.64518 
L 268.551716 134.860878 
L 269.633898 133.815141 
L 271.798261 132.563991 
L 272.339352 132.097145 
L 272.880443 131.891732 
L 274.503716 130.453844 
L 275.585898 129.688215 
L 276.126989 129.184021 
L 276.66808 128.903913 
L 277.20917 128.493088 
L 277.750261 128.231653 
L 280.996807 125.785376 
L 282.62008 124.64627 
L 283.702261 123.843294 
L 285.325534 122.704188 
L 285.866625 122.274688 
L 286.407716 121.695798 
L 289.11317 120.033824 
L 291.818625 118.110415 
L 293.441898 116.709875 
L 293.982989 116.392419 
L 295.06517 115.533421 
L 296.147352 114.618401 
L 296.688443 114.394315 
L 299.393898 112.470906 
L 301.01717 111.033018 
L 303.722625 109.277674 
L 305.345898 108.250611 
L 306.42808 107.428961 
L 306.96917 107.074157 
L 308.051352 105.972399 
L 309.674625 104.739924 
L 310.215716 104.422468 
L 310.756807 103.824904 
L 317.249898 99.212458 
L 318.33208 98.185395 
L 319.414261 97.475788 
L 320.496443 96.560768 
L 321.037534 96.187291 
L 322.119716 95.048184 
L 323.201898 94.30123 
L 323.742989 94.151839 
L 326.448443 92.340473 
L 327.530625 91.481475 
L 328.071716 91.164019 
L 330.77717 89.035198 
L 332.941534 87.653331 
L 334.023716 86.77566 
L 334.564807 86.346161 
L 335.105898 86.066052 
L 336.18808 85.244402 
L 337.811352 83.993253 
L 339.434625 82.592712 
L 339.975716 82.349952 
L 341.598989 81.13615 
L 342.68117 80.389196 
L 343.763352 79.455502 
L 344.304443 79.138046 
L 347.009898 76.990551 
L 350.256443 74.76836 
L 350.797534 74.114775 
L 351.338625 73.872015 
L 352.420807 73.013017 
L 353.502989 72.471474 
L 354.58517 71.63115 
L 357.831716 69.166199 
L 363.242625 65.618164 
L 363.783716 65.076621 
L 365.406989 63.956189 
L 366.48917 63.115865 
L 368.653534 61.640629 
L 369.735716 60.669588 
L 372.44117 58.802201 
L 373.523352 58.036572 
L 375.146625 56.990835 
L 375.687716 56.542662 
L 376.228807 56.355924 
L 376.769898 55.814381 
L 378.39317 54.712623 
L 380.016443 53.34943 
L 380.557534 52.882584 
L 382.180807 51.930216 
L 383.80408 50.641719 
L 384.886261 49.595982 
L 385.427352 49.2972 
L 388.132807 46.869597 
L 389.214989 46.40275 
L 390.838261 45.263644 
L 393.002625 43.751061 
L 393.543716 43.340235 
L 394.084807 42.723998 
L 394.625898 42.44389 
L 396.24917 41.230088 
L 398.413534 39.680157 
L 400.577898 38.167573 
L 400.577898 38.167573 
" style="fill:none;stroke:#ffc400;stroke-linecap:round;stroke-width:1.5;"/>
   </g>
   <g id="line2d_23">
    <path clip-path="url(#pef2ccfb9b3)" d="M 75.923352 276.334125 
L 77.005534 275.493801 
L 84.039716 270.806659 
L 84.580807 270.358486 
L 85.662989 269.742249 
L 87.286261 268.621816 
L 87.827352 268.136296 
L 88.368443 267.81884 
L 88.909534 267.314645 
L 91.614989 265.671345 
L 92.15608 265.465932 
L 93.238261 264.606934 
L 93.779352 264.046718 
L 97.025898 261.675136 
L 97.566989 261.189616 
L 98.10808 260.890834 
L 98.64917 260.77879 
L 100.272443 259.807749 
L 103.518989 257.342798 
L 104.06008 257.118712 
L 112.176443 251.441855 
L 112.717534 250.993682 
L 113.258625 250.35877 
L 113.799716 249.947945 
L 114.340807 249.723859 
L 115.422989 248.808839 
L 119.751716 245.48489 
L 124.080443 242.441049 
L 124.621534 242.179615 
L 125.162625 241.750116 
L 125.703716 241.470008 
L 127.326989 240.256206 
L 127.86808 239.957424 
L 129.491352 238.556884 
L 130.032443 238.164732 
L 130.573534 237.604516 
L 131.655716 236.969605 
L 132.737898 236.091933 
L 133.82008 235.363652 
L 134.36117 234.971501 
L 135.984443 233.496265 
L 139.77208 230.900597 
L 140.31317 230.321707 
L 141.395352 229.51873 
L 145.182989 226.512237 
L 145.72408 226.232129 
L 147.347352 224.756893 
L 148.970625 223.692482 
L 151.67608 221.451618 
L 153.299352 220.349859 
L 154.381534 219.6776 
L 156.545898 218.108995 
L 157.62808 217.511431 
L 159.251352 216.260282 
L 160.333534 215.326588 
L 163.58008 212.824289 
L 164.12117 212.525507 
L 166.826625 210.284643 
L 167.367716 209.985861 
L 167.908807 209.537688 
L 168.449898 209.369623 
L 169.53208 208.585321 
L 170.614261 207.502236 
L 174.401898 204.533091 
L 175.48408 203.524702 
L 178.730625 201.48925 
L 180.353898 200.088709 
L 182.518261 198.800212 
L 184.682625 196.914151 
L 186.846989 195.233503 
L 190.093534 192.917943 
L 191.716807 191.704141 
L 192.798989 191.013208 
L 193.34008 190.695752 
L 194.963352 189.220516 
L 198.209898 186.699544 
L 199.29208 185.989937 
L 204.161898 182.329858 
L 204.702989 181.863011 
L 205.24408 181.601577 
L 205.78517 181.078709 
L 207.408443 179.883581 
L 207.949534 179.379386 
L 208.490625 179.192648 
L 214.442625 175.028374 
L 214.983716 174.561528 
L 216.606989 173.497117 
L 218.230261 172.301989 
L 220.935716 170.359907 
L 221.476807 169.818364 
L 223.64117 168.492519 
L 224.723352 167.950977 
L 226.346625 166.625132 
L 227.969898 165.766134 
L 230.134261 163.824052 
L 230.675352 163.581291 
L 232.839716 162.143403 
L 234.462989 161.191036 
L 235.00408 160.724189 
L 235.54517 160.462755 
L 236.086261 159.790496 
L 237.168443 158.875476 
L 237.709534 158.259238 
L 239.873898 156.858698 
L 240.95608 156.074395 
L 243.120443 154.561812 
L 245.284807 152.806468 
L 246.90808 151.349906 
L 247.44917 150.752342 
L 249.072443 149.669257 
L 252.318989 146.849503 
L 258.270989 142.853294 
L 260.976443 141.097951 
L 263.681898 139.137194 
L 264.222989 138.819738 
L 265.30517 137.830023 
L 266.387352 137.064394 
L 267.469534 136.448157 
L 269.092807 135.234355 
L 269.633898 134.692813 
L 270.174989 134.412705 
L 272.880443 132.4146 
L 273.962625 131.83571 
L 274.503716 131.387538 
L 275.044807 130.789974 
L 277.20917 129.165347 
L 278.832443 127.820828 
L 279.914625 127.167243 
L 282.62008 125.206486 
L 284.243352 124.142076 
L 285.866625 122.928274 
L 286.407716 122.592144 
L 287.489898 121.639777 
L 288.57208 120.967518 
L 290.195352 119.77239 
L 291.277534 119.062783 
L 292.359716 118.334502 
L 292.900807 118.03572 
L 293.441898 117.531525 
L 295.06517 116.523136 
L 296.147352 115.458726 
L 296.688443 115.178617 
L 297.229534 114.56238 
L 298.852807 113.385926 
L 299.934989 112.508254 
L 301.01717 111.686604 
L 302.640443 110.323411 
L 304.263716 109.221653 
L 305.886989 108.138568 
L 306.96917 107.447635 
L 308.051352 106.532615 
L 311.838989 104.105012 
L 312.38008 103.619491 
L 313.462261 102.909884 
L 314.544443 101.957517 
L 315.085534 101.658735 
L 315.626625 101.15454 
L 316.708807 100.594324 
L 317.249898 100.127477 
L 317.790989 99.828695 
L 319.414261 98.59622 
L 320.496443 97.979982 
L 323.201898 95.720444 
L 324.28408 95.010837 
L 326.448443 93.498253 
L 330.23608 90.454412 
L 330.77717 90.230326 
L 336.18808 86.215443 
L 336.72917 85.954009 
L 337.811352 85.095011 
L 340.516807 83.227624 
L 341.057898 82.910168 
L 344.304443 80.351848 
L 347.550989 78.33507 
L 348.63317 77.438724 
L 349.174261 76.953203 
L 350.797534 75.814097 
L 356.208443 71.948606 
L 359.99608 68.904765 
L 360.53717 68.605983 
L 361.619352 67.877702 
L 364.865898 65.524794 
L 365.406989 65.151317 
L 366.48917 64.217623 
L 369.194625 61.883389 
L 372.44117 59.549155 
L 372.982261 58.932918 
L 375.687716 57.121552 
L 376.769898 56.281228 
L 377.85208 55.347534 
L 378.934261 54.60058 
L 379.475352 54.395167 
L 382.180807 52.135629 
L 383.80408 50.940501 
L 384.886261 50.193546 
L 385.427352 49.950786 
L 387.050625 48.81168 
L 387.591716 48.288811 
L 388.132807 47.934008 
L 389.214989 47.000314 
L 390.29717 46.253359 
L 391.379352 45.319666 
L 393.002625 44.143212 
L 394.084807 43.564322 
L 394.625898 42.985432 
L 396.24917 41.921021 
L 397.872443 40.427111 
L 400.577898 38.429007 
L 400.577898 38.429007 
" style="fill:none;stroke:#ff6800;stroke-linecap:round;stroke-width:1.5;"/>
   </g>
   <g id="line2d_24">
    <path clip-path="url(#pef2ccfb9b3)" d="M 75.923352 276.334125 
L 78.087716 274.877563 
L 79.169898 274.111934 
L 82.957534 271.590962 
L 83.498625 271.29218 
L 85.121898 269.872966 
L 86.20408 269.294076 
L 86.74517 268.808555 
L 88.368443 267.800166 
L 89.991716 266.418299 
L 91.614989 265.50328 
L 92.69717 264.625608 
L 93.238261 264.308152 
L 98.10808 260.218574 
L 100.272443 258.649969 
L 100.813534 258.183122 
L 101.354625 257.865666 
L 104.60117 255.307346 
L 105.142261 254.896521 
L 105.683352 254.242935 
L 106.224443 253.92548 
L 106.765534 253.458633 
L 107.306625 253.197199 
L 107.847716 252.805047 
L 108.929898 251.796658 
L 110.01208 250.918986 
L 110.55317 250.414792 
L 111.635352 249.723859 
L 112.176443 249.238338 
L 112.717534 248.939556 
L 113.799716 247.968515 
L 116.50517 246.213171 
L 120.292807 243.057287 
L 121.91608 241.936854 
L 122.45717 241.470008 
L 122.998261 241.283269 
L 124.080443 240.685705 
L 125.162625 240.144163 
L 126.244807 239.229143 
L 127.326989 238.220754 
L 127.86808 237.847277 
L 128.950261 236.80154 
L 130.573534 235.699782 
L 131.114625 235.457021 
L 133.82008 233.458917 
L 134.902261 232.525223 
L 135.984443 231.796942 
L 136.525534 231.199379 
L 138.689898 229.76149 
L 140.31317 229.03321 
L 141.395352 228.286255 
L 145.182989 225.727934 
L 145.72408 225.503848 
L 147.347352 224.271372 
L 150.052807 222.291942 
L 150.593898 221.974486 
L 154.922625 218.501146 
L 155.463716 218.221038 
L 156.545898 217.306018 
L 158.16917 215.942826 
L 159.792443 214.934437 
L 160.874625 214.075439 
L 163.038989 212.170704 
L 163.58008 211.946617 
L 164.662261 211.274358 
L 165.203352 210.956902 
L 166.285534 210.097904 
L 167.367716 209.313602 
L 167.908807 208.622668 
L 172.778625 205.54148 
L 175.48408 203.375311 
L 179.812807 200.424839 
L 182.518261 198.333365 
L 188.470261 194.505222 
L 189.011352 194.057049 
L 191.175716 192.861921 
L 192.798989 191.64812 
L 193.88117 190.770448 
L 194.963352 190.135536 
L 196.045534 189.164495 
L 196.586625 188.828365 
L 197.668807 187.819976 
L 198.209898 187.577216 
L 199.83317 186.43811 
L 200.915352 185.317677 
L 206.326261 181.844337 
L 212.819352 177.045152 
L 213.901534 176.242176 
L 214.983716 175.551243 
L 216.065898 174.561528 
L 217.68917 173.590486 
L 219.312443 172.245968 
L 222.017898 170.415928 
L 223.64117 169.090083 
L 227.428807 166.251655 
L 227.969898 165.971547 
L 229.05208 165.056527 
L 229.59317 164.571007 
L 230.675352 163.936095 
L 232.298625 162.703619 
L 233.921898 161.657883 
L 236.086261 159.809169 
L 237.168443 159.118236 
L 237.709534 158.931497 
L 241.49717 156.279808 
L 242.038261 155.682244 
L 242.579352 155.290093 
L 243.661534 154.823246 
L 244.743716 153.796183 
L 245.284807 153.646792 
L 246.366989 152.974533 
L 248.531352 151.387254 
L 249.613534 150.248147 
L 252.318989 147.969935 
L 252.86008 147.484414 
L 253.942261 146.924198 
L 263.140807 140.313648 
L 263.681898 140.108235 
L 265.846261 138.745043 
L 266.387352 138.520956 
L 268.551716 137.008373 
L 270.71608 135.346398 
L 274.503716 132.732056 
L 275.585898 131.817037 
L 276.126989 131.574276 
L 276.66808 131.126103 
L 277.20917 130.883343 
L 283.702261 125.617311 
L 284.784443 124.534227 
L 292.359716 119.510956 
L 292.900807 118.894718 
L 293.982989 118.110415 
L 295.06517 117.270091 
L 296.147352 116.597832 
L 297.229534 115.925572 
L 299.934989 114.132881 
L 300.47608 113.572665 
L 303.722625 111.425169 
L 304.804807 110.640867 
L 306.42808 109.315022 
L 309.133534 107.671721 
L 309.674625 107.186201 
L 310.215716 106.850071 
L 311.297898 105.935051 
L 311.838989 105.617595 
L 315.626625 102.517733 
L 316.167716 102.293646 
L 316.708807 101.938843 
L 317.249898 101.397301 
L 318.87317 100.202173 
L 320.496443 98.895002 
L 321.037534 98.204069 
L 321.578625 97.718548 
L 323.201898 96.728833 
L 325.907352 94.600012 
L 328.612807 93.106102 
L 329.153898 92.732624 
L 330.23608 91.705562 
L 331.318261 91.051976 
L 331.859352 90.510434 
L 332.400443 90.211652 
L 334.564807 88.381612 
L 335.105898 88.101504 
L 336.18808 87.335876 
L 337.270261 86.570247 
L 338.352443 85.561858 
L 342.14008 82.760777 
L 343.222261 82.032496 
L 343.763352 81.416259 
L 344.845534 80.594608 
L 345.927716 79.997044 
L 352.961898 74.600296 
L 354.04408 73.70395 
L 354.58517 73.237103 
L 355.126261 72.919647 
L 357.831716 70.790826 
L 358.372807 70.529392 
L 360.53717 68.587309 
L 361.619352 67.859028 
L 365.406989 64.777839 
L 367.030261 63.638733 
L 368.653534 62.219519 
L 369.194625 61.808694 
L 369.735716 61.565934 
L 374.064443 58.447397 
L 375.146625 57.644421 
L 375.687716 57.046857 
L 376.769898 56.393271 
L 377.85208 55.440904 
L 378.934261 54.84334 
L 379.475352 54.320472 
L 380.016443 53.984342 
L 381.098625 53.050648 
L 384.34517 50.921827 
L 385.427352 50.21222 
L 385.968443 49.670678 
L 387.050625 48.961071 
L 388.673898 47.6539 
L 389.214989 47.018988 
L 390.838261 45.674469 
L 391.920443 44.628732 
L 393.002625 43.937799 
L 393.543716 43.284214 
L 396.790261 40.800589 
L 397.331352 40.595176 
L 398.413534 39.54944 
L 400.577898 38.242269 
L 400.577898 38.242269 
" style="fill:none;stroke:#f10800;stroke-linecap:round;stroke-width:1.5;"/>
   </g>
   <g id="patch_3">
    <path d="M 59.690625 288.430125 
L 59.690625 22.318125 
" style="fill:none;stroke:#cccccc;stroke-linecap:square;stroke-linejoin:miter;stroke-width:0.8;"/>
   </g>
   <g id="patch_4">
    <path d="M 416.810625 288.430125 
L 416.810625 22.318125 
" style="fill:none;stroke:#cccccc;stroke-linecap:square;stroke-linejoin:miter;stroke-width:0.8;"/>
   </g>
   <g id="patch_5">
    <path d="M 59.690625 288.430125 
L 416.810625 288.430125 
" style="fill:none;stroke:#cccccc;stroke-linecap:square;stroke-linejoin:miter;stroke-width:0.8;"/>
   </g>
   <g id="patch_6">
    <path d="M 59.690625 22.318125 
L 416.810625 22.318125 
" style="fill:none;stroke:#cccccc;stroke-linecap:square;stroke-linejoin:miter;stroke-width:0.8;"/>
   </g>
   <g id="text_17">
    <!-- Naive T CD4 -->
    <defs>
     <path d="M 9.8125 72.90625 
L 23.09375 72.90625 
L 55.421875 11.921875 
L 55.421875 72.90625 
L 64.984375 72.90625 
L 64.984375 0 
L 51.703125 0 
L 19.390625 60.984375 
L 19.390625 0 
L 9.8125 0 
z
" id="DejaVuSans-78"/>
     <path d="M 2.984375 54.6875 
L 12.5 54.6875 
L 29.59375 8.796875 
L 46.6875 54.6875 
L 56.203125 54.6875 
L 35.6875 0 
L 23.484375 0 
z
" id="DejaVuSans-118"/>
     <path d="M -0.296875 72.90625 
L 61.375 72.90625 
L 61.375 64.59375 
L 35.5 64.59375 
L 35.5 0 
L 25.59375 0 
L 25.59375 64.59375 
L -0.296875 64.59375 
z
" id="DejaVuSans-84"/>
     <path d="M 64.40625 67.28125 
L 64.40625 56.890625 
Q 59.421875 61.53125 53.78125 63.8125 
Q 48.140625 66.109375 41.796875 66.109375 
Q 29.296875 66.109375 22.65625 58.46875 
Q 16.015625 50.828125 16.015625 36.375 
Q 16.015625 21.96875 22.65625 14.328125 
Q 29.296875 6.6875 41.796875 6.6875 
Q 48.140625 6.6875 53.78125 8.984375 
Q 59.421875 11.28125 64.40625 15.921875 
L 64.40625 5.609375 
Q 59.234375 2.09375 53.4375 0.328125 
Q 47.65625 -1.421875 41.21875 -1.421875 
Q 24.65625 -1.421875 15.125 8.703125 
Q 5.609375 18.84375 5.609375 36.375 
Q 5.609375 53.953125 15.125 64.078125 
Q 24.65625 74.21875 41.21875 74.21875 
Q 47.75 74.21875 53.53125 72.484375 
Q 59.328125 70.75 64.40625 67.28125 
z
" id="DejaVuSans-67"/>
     <path d="M 19.671875 64.796875 
L 19.671875 8.109375 
L 31.59375 8.109375 
Q 46.6875 8.109375 53.6875 14.9375 
Q 60.6875 21.78125 60.6875 36.53125 
Q 60.6875 51.171875 53.6875 57.984375 
Q 46.6875 64.796875 31.59375 64.796875 
z
M 9.8125 72.90625 
L 30.078125 72.90625 
Q 51.265625 72.90625 61.171875 64.09375 
Q 71.09375 55.28125 71.09375 36.53125 
Q 71.09375 17.671875 61.125 8.828125 
Q 51.171875 0 30.078125 0 
L 9.8125 0 
z
" id="DejaVuSans-68"/>
    </defs>
    <g style="fill:#262626;" transform="translate(201.069375 16.318125)scale(0.12 -0.12)">
     <use xlink:href="#DejaVuSans-78"/>
     <use x="74.804688" xlink:href="#DejaVuSans-97"/>
     <use x="136.083984" xlink:href="#DejaVuSans-105"/>
     <use x="163.867188" xlink:href="#DejaVuSans-118"/>
     <use x="223.046875" xlink:href="#DejaVuSans-101"/>
     <use x="284.570312" xlink:href="#DejaVuSans-32"/>
     <use x="316.357422" xlink:href="#DejaVuSans-84"/>
     <use x="377.441406" xlink:href="#DejaVuSans-32"/>
     <use x="409.228516" xlink:href="#DejaVuSans-67"/>
     <use x="479.052734" xlink:href="#DejaVuSans-68"/>
     <use x="556.054688" xlink:href="#DejaVuSans-52"/>
    </g>
   </g>
  </g>
 </g>
 <defs>
  <clipPath id="pef2ccfb9b3">
   <rect height="266.112" width="357.12" x="59.690625" y="22.318125"/>
  </clipPath>
 </defs>
</svg>
