<?xml version="1.0" encoding="utf-8" standalone="no"?>
<!DOCTYPE svg PUBLIC "-//W3C//DTD SVG 1.1//EN"
  "http://www.w3.org/Graphics/SVG/1.1/DTD/svg11.dtd">
<!-- Created with matplotlib (https://matplotlib.org/) -->
<svg height="325.986375pt" version="1.1" viewBox="0 0 424.010625 325.986375" width="424.010625pt" xmlns="http://www.w3.org/2000/svg" xmlns:xlink="http://www.w3.org/1999/xlink">
 <defs>
  <style type="text/css">
*{stroke-linecap:butt;stroke-linejoin:round;white-space:pre;}
  </style>
 </defs>
 <g id="figure_1">
  <g id="patch_1">
   <path d="M 0 325.986375 
L 424.010625 325.986375 
L 424.010625 0 
L 0 0 
z
" style="fill:#ffffff;"/>
  </g>
  <g id="axes_1">
   <g id="patch_2">
    <path d="M 59.690625 288.430125 
L 416.810625 288.430125 
L 416.810625 22.318125 
L 59.690625 22.318125 
z
" style="fill:#ffffff;"/>
   </g>
   <g id="matplotlib.axis_1">
    <g id="xtick_1">
     <g id="line2d_1">
      <path clip-path="url(#p82274d62f2)" d="M 75.923352 288.430125 
L 75.923352 22.318125 
" style="fill:none;stroke:#cccccc;stroke-linecap:round;stroke-width:0.8;"/>
     </g>
     <g id="text_1">
      <!-- 0 -->
      <defs>
       <path d="M 31.78125 66.40625 
Q 24.171875 66.40625 20.328125 58.90625 
Q 16.5 51.421875 16.5 36.375 
Q 16.5 21.390625 20.328125 13.890625 
Q 24.171875 6.390625 31.78125 6.390625 
Q 39.453125 6.390625 43.28125 13.890625 
Q 47.125 21.390625 47.125 36.375 
Q 47.125 51.421875 43.28125 58.90625 
Q 39.453125 66.40625 31.78125 66.40625 
z
M 31.78125 74.21875 
Q 44.046875 74.21875 50.515625 64.515625 
Q 56.984375 54.828125 56.984375 36.375 
Q 56.984375 17.96875 50.515625 8.265625 
Q 44.046875 -1.421875 31.78125 -1.421875 
Q 19.53125 -1.421875 13.0625 8.265625 
Q 6.59375 17.96875 6.59375 36.375 
Q 6.59375 54.828125 13.0625 64.515625 
Q 19.53125 74.21875 31.78125 74.21875 
z
" id="DejaVuSans-48"/>
      </defs>
      <g style="fill:#262626;" transform="translate(72.742102 303.028562)scale(0.1 -0.1)">
       <use xlink:href="#DejaVuSans-48"/>
      </g>
     </g>
    </g>
    <g id="xtick_2">
     <g id="line2d_2">
      <path clip-path="url(#p82274d62f2)" d="M 130.032443 288.430125 
L 130.032443 22.318125 
" style="fill:none;stroke:#cccccc;stroke-linecap:round;stroke-width:0.8;"/>
     </g>
     <g id="text_2">
      <!-- 10 -->
      <defs>
       <path d="M 12.40625 8.296875 
L 28.515625 8.296875 
L 28.515625 63.921875 
L 10.984375 60.40625 
L 10.984375 69.390625 
L 28.421875 72.90625 
L 38.28125 72.90625 
L 38.28125 8.296875 
L 54.390625 8.296875 
L 54.390625 0 
L 12.40625 0 
z
" id="DejaVuSans-49"/>
      </defs>
      <g style="fill:#262626;" transform="translate(123.669943 303.028562)scale(0.1 -0.1)">
       <use xlink:href="#DejaVuSans-49"/>
       <use x="63.623047" xlink:href="#DejaVuSans-48"/>
      </g>
     </g>
    </g>
    <g id="xtick_3">
     <g id="line2d_3">
      <path clip-path="url(#p82274d62f2)" d="M 184.141534 288.430125 
L 184.141534 22.318125 
" style="fill:none;stroke:#cccccc;stroke-linecap:round;stroke-width:0.8;"/>
     </g>
     <g id="text_3">
      <!-- 20 -->
      <defs>
       <path d="M 19.1875 8.296875 
L 53.609375 8.296875 
L 53.609375 0 
L 7.328125 0 
L 7.328125 8.296875 
Q 12.9375 14.109375 22.625 23.890625 
Q 32.328125 33.6875 34.8125 36.53125 
Q 39.546875 41.84375 41.421875 45.53125 
Q 43.3125 49.21875 43.3125 52.78125 
Q 43.3125 58.59375 39.234375 62.25 
Q 35.15625 65.921875 28.609375 65.921875 
Q 23.96875 65.921875 18.8125 64.3125 
Q 13.671875 62.703125 7.8125 59.421875 
L 7.8125 69.390625 
Q 13.765625 71.78125 18.9375 73 
Q 24.125 74.21875 28.421875 74.21875 
Q 39.75 74.21875 46.484375 68.546875 
Q 53.21875 62.890625 53.21875 53.421875 
Q 53.21875 48.921875 51.53125 44.890625 
Q 49.859375 40.875 45.40625 35.40625 
Q 44.1875 33.984375 37.640625 27.21875 
Q 31.109375 20.453125 19.1875 8.296875 
z
" id="DejaVuSans-50"/>
      </defs>
      <g style="fill:#262626;" transform="translate(177.779034 303.028562)scale(0.1 -0.1)">
       <use xlink:href="#DejaVuSans-50"/>
       <use x="63.623047" xlink:href="#DejaVuSans-48"/>
      </g>
     </g>
    </g>
    <g id="xtick_4">
     <g id="line2d_4">
      <path clip-path="url(#p82274d62f2)" d="M 238.250625 288.430125 
L 238.250625 22.318125 
" style="fill:none;stroke:#cccccc;stroke-linecap:round;stroke-width:0.8;"/>
     </g>
     <g id="text_4">
      <!-- 30 -->
      <defs>
       <path d="M 40.578125 39.3125 
Q 47.65625 37.796875 51.625 33 
Q 55.609375 28.21875 55.609375 21.1875 
Q 55.609375 10.40625 48.1875 4.484375 
Q 40.765625 -1.421875 27.09375 -1.421875 
Q 22.515625 -1.421875 17.65625 -0.515625 
Q 12.796875 0.390625 7.625 2.203125 
L 7.625 11.71875 
Q 11.71875 9.328125 16.59375 8.109375 
Q 21.484375 6.890625 26.8125 6.890625 
Q 36.078125 6.890625 40.9375 10.546875 
Q 45.796875 14.203125 45.796875 21.1875 
Q 45.796875 27.640625 41.28125 31.265625 
Q 36.765625 34.90625 28.71875 34.90625 
L 20.21875 34.90625 
L 20.21875 43.015625 
L 29.109375 43.015625 
Q 36.375 43.015625 40.234375 45.921875 
Q 44.09375 48.828125 44.09375 54.296875 
Q 44.09375 59.90625 40.109375 62.90625 
Q 36.140625 65.921875 28.71875 65.921875 
Q 24.65625 65.921875 20.015625 65.03125 
Q 15.375 64.15625 9.8125 62.3125 
L 9.8125 71.09375 
Q 15.4375 72.65625 20.34375 73.4375 
Q 25.25 74.21875 29.59375 74.21875 
Q 40.828125 74.21875 47.359375 69.109375 
Q 53.90625 64.015625 53.90625 55.328125 
Q 53.90625 49.265625 50.4375 45.09375 
Q 46.96875 40.921875 40.578125 39.3125 
z
" id="DejaVuSans-51"/>
      </defs>
      <g style="fill:#262626;" transform="translate(231.888125 303.028562)scale(0.1 -0.1)">
       <use xlink:href="#DejaVuSans-51"/>
       <use x="63.623047" xlink:href="#DejaVuSans-48"/>
      </g>
     </g>
    </g>
    <g id="xtick_5">
     <g id="line2d_5">
      <path clip-path="url(#p82274d62f2)" d="M 292.359716 288.430125 
L 292.359716 22.318125 
" style="fill:none;stroke:#cccccc;stroke-linecap:round;stroke-width:0.8;"/>
     </g>
     <g id="text_5">
      <!-- 40 -->
      <defs>
       <path d="M 37.796875 64.3125 
L 12.890625 25.390625 
L 37.796875 25.390625 
z
M 35.203125 72.90625 
L 47.609375 72.90625 
L 47.609375 25.390625 
L 58.015625 25.390625 
L 58.015625 17.1875 
L 47.609375 17.1875 
L 47.609375 0 
L 37.796875 0 
L 37.796875 17.1875 
L 4.890625 17.1875 
L 4.890625 26.703125 
z
" id="DejaVuSans-52"/>
      </defs>
      <g style="fill:#262626;" transform="translate(285.997216 303.028562)scale(0.1 -0.1)">
       <use xlink:href="#DejaVuSans-52"/>
       <use x="63.623047" xlink:href="#DejaVuSans-48"/>
      </g>
     </g>
    </g>
    <g id="xtick_6">
     <g id="line2d_6">
      <path clip-path="url(#p82274d62f2)" d="M 346.468807 288.430125 
L 346.468807 22.318125 
" style="fill:none;stroke:#cccccc;stroke-linecap:round;stroke-width:0.8;"/>
     </g>
     <g id="text_6">
      <!-- 50 -->
      <defs>
       <path d="M 10.796875 72.90625 
L 49.515625 72.90625 
L 49.515625 64.59375 
L 19.828125 64.59375 
L 19.828125 46.734375 
Q 21.96875 47.46875 24.109375 47.828125 
Q 26.265625 48.1875 28.421875 48.1875 
Q 40.625 48.1875 47.75 41.5 
Q 54.890625 34.8125 54.890625 23.390625 
Q 54.890625 11.625 47.5625 5.09375 
Q 40.234375 -1.421875 26.90625 -1.421875 
Q 22.3125 -1.421875 17.546875 -0.640625 
Q 12.796875 0.140625 7.71875 1.703125 
L 7.71875 11.625 
Q 12.109375 9.234375 16.796875 8.0625 
Q 21.484375 6.890625 26.703125 6.890625 
Q 35.15625 6.890625 40.078125 11.328125 
Q 45.015625 15.765625 45.015625 23.390625 
Q 45.015625 31 40.078125 35.4375 
Q 35.15625 39.890625 26.703125 39.890625 
Q 22.75 39.890625 18.8125 39.015625 
Q 14.890625 38.140625 10.796875 36.28125 
z
" id="DejaVuSans-53"/>
      </defs>
      <g style="fill:#262626;" transform="translate(340.106307 303.028562)scale(0.1 -0.1)">
       <use xlink:href="#DejaVuSans-53"/>
       <use x="63.623047" xlink:href="#DejaVuSans-48"/>
      </g>
     </g>
    </g>
    <g id="xtick_7">
     <g id="line2d_7">
      <path clip-path="url(#p82274d62f2)" d="M 400.577898 288.430125 
L 400.577898 22.318125 
" style="fill:none;stroke:#cccccc;stroke-linecap:round;stroke-width:0.8;"/>
     </g>
     <g id="text_7">
      <!-- 60 -->
      <defs>
       <path d="M 33.015625 40.375 
Q 26.375 40.375 22.484375 35.828125 
Q 18.609375 31.296875 18.609375 23.390625 
Q 18.609375 15.53125 22.484375 10.953125 
Q 26.375 6.390625 33.015625 6.390625 
Q 39.65625 6.390625 43.53125 10.953125 
Q 47.40625 15.53125 47.40625 23.390625 
Q 47.40625 31.296875 43.53125 35.828125 
Q 39.65625 40.375 33.015625 40.375 
z
M 52.59375 71.296875 
L 52.59375 62.3125 
Q 48.875 64.0625 45.09375 64.984375 
Q 41.3125 65.921875 37.59375 65.921875 
Q 27.828125 65.921875 22.671875 59.328125 
Q 17.53125 52.734375 16.796875 39.40625 
Q 19.671875 43.65625 24.015625 45.921875 
Q 28.375 48.1875 33.59375 48.1875 
Q 44.578125 48.1875 50.953125 41.515625 
Q 57.328125 34.859375 57.328125 23.390625 
Q 57.328125 12.15625 50.6875 5.359375 
Q 44.046875 -1.421875 33.015625 -1.421875 
Q 20.359375 -1.421875 13.671875 8.265625 
Q 6.984375 17.96875 6.984375 36.375 
Q 6.984375 53.65625 15.1875 63.9375 
Q 23.390625 74.21875 37.203125 74.21875 
Q 40.921875 74.21875 44.703125 73.484375 
Q 48.484375 72.75 52.59375 71.296875 
z
" id="DejaVuSans-54"/>
      </defs>
      <g style="fill:#262626;" transform="translate(394.215398 303.028562)scale(0.1 -0.1)">
       <use xlink:href="#DejaVuSans-54"/>
       <use x="63.623047" xlink:href="#DejaVuSans-48"/>
      </g>
     </g>
    </g>
    <g id="text_8">
     <!-- time (days) -->
     <defs>
      <path d="M 18.3125 70.21875 
L 18.3125 54.6875 
L 36.8125 54.6875 
L 36.8125 47.703125 
L 18.3125 47.703125 
L 18.3125 18.015625 
Q 18.3125 11.328125 20.140625 9.421875 
Q 21.96875 7.515625 27.59375 7.515625 
L 36.8125 7.515625 
L 36.8125 0 
L 27.59375 0 
Q 17.1875 0 13.234375 3.875 
Q 9.28125 7.765625 9.28125 18.015625 
L 9.28125 47.703125 
L 2.6875 47.703125 
L 2.6875 54.6875 
L 9.28125 54.6875 
L 9.28125 70.21875 
z
" id="DejaVuSans-116"/>
      <path d="M 9.421875 54.6875 
L 18.40625 54.6875 
L 18.40625 0 
L 9.421875 0 
z
M 9.421875 75.984375 
L 18.40625 75.984375 
L 18.40625 64.59375 
L 9.421875 64.59375 
z
" id="DejaVuSans-105"/>
      <path d="M 52 44.1875 
Q 55.375 50.25 60.0625 53.125 
Q 64.75 56 71.09375 56 
Q 79.640625 56 84.28125 50.015625 
Q 88.921875 44.046875 88.921875 33.015625 
L 88.921875 0 
L 79.890625 0 
L 79.890625 32.71875 
Q 79.890625 40.578125 77.09375 44.375 
Q 74.3125 48.1875 68.609375 48.1875 
Q 61.625 48.1875 57.5625 43.546875 
Q 53.515625 38.921875 53.515625 30.90625 
L 53.515625 0 
L 44.484375 0 
L 44.484375 32.71875 
Q 44.484375 40.625 41.703125 44.40625 
Q 38.921875 48.1875 33.109375 48.1875 
Q 26.21875 48.1875 22.15625 43.53125 
Q 18.109375 38.875 18.109375 30.90625 
L 18.109375 0 
L 9.078125 0 
L 9.078125 54.6875 
L 18.109375 54.6875 
L 18.109375 46.1875 
Q 21.1875 51.21875 25.484375 53.609375 
Q 29.78125 56 35.6875 56 
Q 41.65625 56 45.828125 52.96875 
Q 50 49.953125 52 44.1875 
z
" id="DejaVuSans-109"/>
      <path d="M 56.203125 29.59375 
L 56.203125 25.203125 
L 14.890625 25.203125 
Q 15.484375 15.921875 20.484375 11.0625 
Q 25.484375 6.203125 34.421875 6.203125 
Q 39.59375 6.203125 44.453125 7.46875 
Q 49.3125 8.734375 54.109375 11.28125 
L 54.109375 2.78125 
Q 49.265625 0.734375 44.1875 -0.34375 
Q 39.109375 -1.421875 33.890625 -1.421875 
Q 20.796875 -1.421875 13.15625 6.1875 
Q 5.515625 13.8125 5.515625 26.8125 
Q 5.515625 40.234375 12.765625 48.109375 
Q 20.015625 56 32.328125 56 
Q 43.359375 56 49.78125 48.890625 
Q 56.203125 41.796875 56.203125 29.59375 
z
M 47.21875 32.234375 
Q 47.125 39.59375 43.09375 43.984375 
Q 39.0625 48.390625 32.421875 48.390625 
Q 24.90625 48.390625 20.390625 44.140625 
Q 15.875 39.890625 15.1875 32.171875 
z
" id="DejaVuSans-101"/>
      <path id="DejaVuSans-32"/>
      <path d="M 31 75.875 
Q 24.46875 64.65625 21.28125 53.65625 
Q 18.109375 42.671875 18.109375 31.390625 
Q 18.109375 20.125 21.3125 9.0625 
Q 24.515625 -2 31 -13.1875 
L 23.1875 -13.1875 
Q 15.875 -1.703125 12.234375 9.375 
Q 8.59375 20.453125 8.59375 31.390625 
Q 8.59375 42.28125 12.203125 53.3125 
Q 15.828125 64.359375 23.1875 75.875 
z
" id="DejaVuSans-40"/>
      <path d="M 45.40625 46.390625 
L 45.40625 75.984375 
L 54.390625 75.984375 
L 54.390625 0 
L 45.40625 0 
L 45.40625 8.203125 
Q 42.578125 3.328125 38.25 0.953125 
Q 33.9375 -1.421875 27.875 -1.421875 
Q 17.96875 -1.421875 11.734375 6.484375 
Q 5.515625 14.40625 5.515625 27.296875 
Q 5.515625 40.1875 11.734375 48.09375 
Q 17.96875 56 27.875 56 
Q 33.9375 56 38.25 53.625 
Q 42.578125 51.265625 45.40625 46.390625 
z
M 14.796875 27.296875 
Q 14.796875 17.390625 18.875 11.75 
Q 22.953125 6.109375 30.078125 6.109375 
Q 37.203125 6.109375 41.296875 11.75 
Q 45.40625 17.390625 45.40625 27.296875 
Q 45.40625 37.203125 41.296875 42.84375 
Q 37.203125 48.484375 30.078125 48.484375 
Q 22.953125 48.484375 18.875 42.84375 
Q 14.796875 37.203125 14.796875 27.296875 
z
" id="DejaVuSans-100"/>
      <path d="M 34.28125 27.484375 
Q 23.390625 27.484375 19.1875 25 
Q 14.984375 22.515625 14.984375 16.5 
Q 14.984375 11.71875 18.140625 8.90625 
Q 21.296875 6.109375 26.703125 6.109375 
Q 34.1875 6.109375 38.703125 11.40625 
Q 43.21875 16.703125 43.21875 25.484375 
L 43.21875 27.484375 
z
M 52.203125 31.203125 
L 52.203125 0 
L 43.21875 0 
L 43.21875 8.296875 
Q 40.140625 3.328125 35.546875 0.953125 
Q 30.953125 -1.421875 24.3125 -1.421875 
Q 15.921875 -1.421875 10.953125 3.296875 
Q 6 8.015625 6 15.921875 
Q 6 25.140625 12.171875 29.828125 
Q 18.359375 34.515625 30.609375 34.515625 
L 43.21875 34.515625 
L 43.21875 35.40625 
Q 43.21875 41.609375 39.140625 45 
Q 35.0625 48.390625 27.6875 48.390625 
Q 23 48.390625 18.546875 47.265625 
Q 14.109375 46.140625 10.015625 43.890625 
L 10.015625 52.203125 
Q 14.9375 54.109375 19.578125 55.046875 
Q 24.21875 56 28.609375 56 
Q 40.484375 56 46.34375 49.84375 
Q 52.203125 43.703125 52.203125 31.203125 
z
" id="DejaVuSans-97"/>
      <path d="M 32.171875 -5.078125 
Q 28.375 -14.84375 24.75 -17.8125 
Q 21.140625 -20.796875 15.09375 -20.796875 
L 7.90625 -20.796875 
L 7.90625 -13.28125 
L 13.1875 -13.28125 
Q 16.890625 -13.28125 18.9375 -11.515625 
Q 21 -9.765625 23.484375 -3.21875 
L 25.09375 0.875 
L 2.984375 54.6875 
L 12.5 54.6875 
L 29.59375 11.921875 
L 46.6875 54.6875 
L 56.203125 54.6875 
z
" id="DejaVuSans-121"/>
      <path d="M 44.28125 53.078125 
L 44.28125 44.578125 
Q 40.484375 46.53125 36.375 47.5 
Q 32.28125 48.484375 27.875 48.484375 
Q 21.1875 48.484375 17.84375 46.4375 
Q 14.5 44.390625 14.5 40.28125 
Q 14.5 37.15625 16.890625 35.375 
Q 19.28125 33.59375 26.515625 31.984375 
L 29.59375 31.296875 
Q 39.15625 29.25 43.1875 25.515625 
Q 47.21875 21.78125 47.21875 15.09375 
Q 47.21875 7.46875 41.1875 3.015625 
Q 35.15625 -1.421875 24.609375 -1.421875 
Q 20.21875 -1.421875 15.453125 -0.5625 
Q 10.6875 0.296875 5.421875 2 
L 5.421875 11.28125 
Q 10.40625 8.6875 15.234375 7.390625 
Q 20.0625 6.109375 24.8125 6.109375 
Q 31.15625 6.109375 34.5625 8.28125 
Q 37.984375 10.453125 37.984375 14.40625 
Q 37.984375 18.0625 35.515625 20.015625 
Q 33.0625 21.96875 24.703125 23.78125 
L 21.578125 24.515625 
Q 13.234375 26.265625 9.515625 29.90625 
Q 5.8125 33.546875 5.8125 39.890625 
Q 5.8125 47.609375 11.28125 51.796875 
Q 16.75 56 26.8125 56 
Q 31.78125 56 36.171875 55.265625 
Q 40.578125 54.546875 44.28125 53.078125 
z
" id="DejaVuSans-115"/>
      <path d="M 8.015625 75.875 
L 15.828125 75.875 
Q 23.140625 64.359375 26.78125 53.3125 
Q 30.421875 42.28125 30.421875 31.390625 
Q 30.421875 20.453125 26.78125 9.375 
Q 23.140625 -1.703125 15.828125 -13.1875 
L 8.015625 -13.1875 
Q 14.5 -2 17.703125 9.0625 
Q 20.90625 20.125 20.90625 31.390625 
Q 20.90625 42.671875 17.703125 53.65625 
Q 14.5 64.65625 8.015625 75.875 
z
" id="DejaVuSans-41"/>
     </defs>
     <g style="fill:#262626;" transform="translate(209.661563 316.706687)scale(0.1 -0.1)">
      <use xlink:href="#DejaVuSans-116"/>
      <use x="39.208984" xlink:href="#DejaVuSans-105"/>
      <use x="66.992188" xlink:href="#DejaVuSans-109"/>
      <use x="164.404297" xlink:href="#DejaVuSans-101"/>
      <use x="225.927734" xlink:href="#DejaVuSans-32"/>
      <use x="257.714844" xlink:href="#DejaVuSans-40"/>
      <use x="296.728516" xlink:href="#DejaVuSans-100"/>
      <use x="360.205078" xlink:href="#DejaVuSans-97"/>
      <use x="421.484375" xlink:href="#DejaVuSans-121"/>
      <use x="480.664062" xlink:href="#DejaVuSans-115"/>
      <use x="532.763672" xlink:href="#DejaVuSans-41"/>
     </g>
    </g>
   </g>
   <g id="matplotlib.axis_2">
    <g id="ytick_1">
     <g id="line2d_8">
      <path clip-path="url(#p82274d62f2)" d="M 59.690625 276.334125 
L 416.810625 276.334125 
" style="fill:none;stroke:#cccccc;stroke-linecap:round;stroke-width:0.8;"/>
     </g>
     <g id="text_9">
      <!-- 0 -->
      <g style="fill:#262626;" transform="translate(46.328125 280.133344)scale(0.1 -0.1)">
       <use xlink:href="#DejaVuSans-48"/>
      </g>
     </g>
    </g>
    <g id="ytick_2">
     <g id="line2d_9">
      <path clip-path="url(#p82274d62f2)" d="M 59.690625 231.856996 
L 416.810625 231.856996 
" style="fill:none;stroke:#cccccc;stroke-linecap:round;stroke-width:0.8;"/>
     </g>
     <g id="text_10">
      <!-- 10000 -->
      <g style="fill:#262626;" transform="translate(20.878125 235.656215)scale(0.1 -0.1)">
       <use xlink:href="#DejaVuSans-49"/>
       <use x="63.623047" xlink:href="#DejaVuSans-48"/>
       <use x="127.246094" xlink:href="#DejaVuSans-48"/>
       <use x="190.869141" xlink:href="#DejaVuSans-48"/>
       <use x="254.492188" xlink:href="#DejaVuSans-48"/>
      </g>
     </g>
    </g>
    <g id="ytick_3">
     <g id="line2d_10">
      <path clip-path="url(#p82274d62f2)" d="M 59.690625 187.379867 
L 416.810625 187.379867 
" style="fill:none;stroke:#cccccc;stroke-linecap:round;stroke-width:0.8;"/>
     </g>
     <g id="text_11">
      <!-- 20000 -->
      <g style="fill:#262626;" transform="translate(20.878125 191.179086)scale(0.1 -0.1)">
       <use xlink:href="#DejaVuSans-50"/>
       <use x="63.623047" xlink:href="#DejaVuSans-48"/>
       <use x="127.246094" xlink:href="#DejaVuSans-48"/>
       <use x="190.869141" xlink:href="#DejaVuSans-48"/>
       <use x="254.492188" xlink:href="#DejaVuSans-48"/>
      </g>
     </g>
    </g>
    <g id="ytick_4">
     <g id="line2d_11">
      <path clip-path="url(#p82274d62f2)" d="M 59.690625 142.902738 
L 416.810625 142.902738 
" style="fill:none;stroke:#cccccc;stroke-linecap:round;stroke-width:0.8;"/>
     </g>
     <g id="text_12">
      <!-- 30000 -->
      <g style="fill:#262626;" transform="translate(20.878125 146.701957)scale(0.1 -0.1)">
       <use xlink:href="#DejaVuSans-51"/>
       <use x="63.623047" xlink:href="#DejaVuSans-48"/>
       <use x="127.246094" xlink:href="#DejaVuSans-48"/>
       <use x="190.869141" xlink:href="#DejaVuSans-48"/>
       <use x="254.492188" xlink:href="#DejaVuSans-48"/>
      </g>
     </g>
    </g>
    <g id="ytick_5">
     <g id="line2d_12">
      <path clip-path="url(#p82274d62f2)" d="M 59.690625 98.425609 
L 416.810625 98.425609 
" style="fill:none;stroke:#cccccc;stroke-linecap:round;stroke-width:0.8;"/>
     </g>
     <g id="text_13">
      <!-- 40000 -->
      <g style="fill:#262626;" transform="translate(20.878125 102.224828)scale(0.1 -0.1)">
       <use xlink:href="#DejaVuSans-52"/>
       <use x="63.623047" xlink:href="#DejaVuSans-48"/>
       <use x="127.246094" xlink:href="#DejaVuSans-48"/>
       <use x="190.869141" xlink:href="#DejaVuSans-48"/>
       <use x="254.492188" xlink:href="#DejaVuSans-48"/>
      </g>
     </g>
    </g>
    <g id="ytick_6">
     <g id="line2d_13">
      <path clip-path="url(#p82274d62f2)" d="M 59.690625 53.94848 
L 416.810625 53.94848 
" style="fill:none;stroke:#cccccc;stroke-linecap:round;stroke-width:0.8;"/>
     </g>
     <g id="text_14">
      <!-- 50000 -->
      <g style="fill:#262626;" transform="translate(20.878125 57.747699)scale(0.1 -0.1)">
       <use xlink:href="#DejaVuSans-53"/>
       <use x="63.623047" xlink:href="#DejaVuSans-48"/>
       <use x="127.246094" xlink:href="#DejaVuSans-48"/>
       <use x="190.869141" xlink:href="#DejaVuSans-48"/>
       <use x="254.492188" xlink:href="#DejaVuSans-48"/>
      </g>
     </g>
    </g>
    <g id="text_15">
     <!-- cells number -->
     <defs>
      <path d="M 48.78125 52.59375 
L 48.78125 44.1875 
Q 44.96875 46.296875 41.140625 47.34375 
Q 37.3125 48.390625 33.40625 48.390625 
Q 24.65625 48.390625 19.8125 42.84375 
Q 14.984375 37.3125 14.984375 27.296875 
Q 14.984375 17.28125 19.8125 11.734375 
Q 24.65625 6.203125 33.40625 6.203125 
Q 37.3125 6.203125 41.140625 7.25 
Q 44.96875 8.296875 48.78125 10.40625 
L 48.78125 2.09375 
Q 45.015625 0.34375 40.984375 -0.53125 
Q 36.96875 -1.421875 32.421875 -1.421875 
Q 20.0625 -1.421875 12.78125 6.34375 
Q 5.515625 14.109375 5.515625 27.296875 
Q 5.515625 40.671875 12.859375 48.328125 
Q 20.21875 56 33.015625 56 
Q 37.15625 56 41.109375 55.140625 
Q 45.0625 54.296875 48.78125 52.59375 
z
" id="DejaVuSans-99"/>
      <path d="M 9.421875 75.984375 
L 18.40625 75.984375 
L 18.40625 0 
L 9.421875 0 
z
" id="DejaVuSans-108"/>
      <path d="M 54.890625 33.015625 
L 54.890625 0 
L 45.90625 0 
L 45.90625 32.71875 
Q 45.90625 40.484375 42.875 44.328125 
Q 39.84375 48.1875 33.796875 48.1875 
Q 26.515625 48.1875 22.3125 43.546875 
Q 18.109375 38.921875 18.109375 30.90625 
L 18.109375 0 
L 9.078125 0 
L 9.078125 54.6875 
L 18.109375 54.6875 
L 18.109375 46.1875 
Q 21.34375 51.125 25.703125 53.5625 
Q 30.078125 56 35.796875 56 
Q 45.21875 56 50.046875 50.171875 
Q 54.890625 44.34375 54.890625 33.015625 
z
" id="DejaVuSans-110"/>
      <path d="M 8.5 21.578125 
L 8.5 54.6875 
L 17.484375 54.6875 
L 17.484375 21.921875 
Q 17.484375 14.15625 20.5 10.265625 
Q 23.53125 6.390625 29.59375 6.390625 
Q 36.859375 6.390625 41.078125 11.03125 
Q 45.3125 15.671875 45.3125 23.6875 
L 45.3125 54.6875 
L 54.296875 54.6875 
L 54.296875 0 
L 45.3125 0 
L 45.3125 8.40625 
Q 42.046875 3.421875 37.71875 1 
Q 33.40625 -1.421875 27.6875 -1.421875 
Q 18.265625 -1.421875 13.375 4.4375 
Q 8.5 10.296875 8.5 21.578125 
z
M 31.109375 56 
z
" id="DejaVuSans-117"/>
      <path d="M 48.6875 27.296875 
Q 48.6875 37.203125 44.609375 42.84375 
Q 40.53125 48.484375 33.40625 48.484375 
Q 26.265625 48.484375 22.1875 42.84375 
Q 18.109375 37.203125 18.109375 27.296875 
Q 18.109375 17.390625 22.1875 11.75 
Q 26.265625 6.109375 33.40625 6.109375 
Q 40.53125 6.109375 44.609375 11.75 
Q 48.6875 17.390625 48.6875 27.296875 
z
M 18.109375 46.390625 
Q 20.953125 51.265625 25.265625 53.625 
Q 29.59375 56 35.59375 56 
Q 45.5625 56 51.78125 48.09375 
Q 58.015625 40.1875 58.015625 27.296875 
Q 58.015625 14.40625 51.78125 6.484375 
Q 45.5625 -1.421875 35.59375 -1.421875 
Q 29.59375 -1.421875 25.265625 0.953125 
Q 20.953125 3.328125 18.109375 8.203125 
L 18.109375 0 
L 9.078125 0 
L 9.078125 75.984375 
L 18.109375 75.984375 
z
" id="DejaVuSans-98"/>
      <path d="M 41.109375 46.296875 
Q 39.59375 47.171875 37.8125 47.578125 
Q 36.03125 48 33.890625 48 
Q 26.265625 48 22.1875 43.046875 
Q 18.109375 38.09375 18.109375 28.8125 
L 18.109375 0 
L 9.078125 0 
L 9.078125 54.6875 
L 18.109375 54.6875 
L 18.109375 46.1875 
Q 20.953125 51.171875 25.484375 53.578125 
Q 30.03125 56 36.53125 56 
Q 37.453125 56 38.578125 55.875 
Q 39.703125 55.765625 41.0625 55.515625 
z
" id="DejaVuSans-114"/>
     </defs>
     <g style="fill:#262626;" transform="translate(14.798438 187.685844)rotate(-90)scale(0.1 -0.1)">
      <use xlink:href="#DejaVuSans-99"/>
      <use x="54.980469" xlink:href="#DejaVuSans-101"/>
      <use x="116.503906" xlink:href="#DejaVuSans-108"/>
      <use x="144.287109" xlink:href="#DejaVuSans-108"/>
      <use x="172.070312" xlink:href="#DejaVuSans-115"/>
      <use x="224.169922" xlink:href="#DejaVuSans-32"/>
      <use x="255.957031" xlink:href="#DejaVuSans-110"/>
      <use x="319.335938" xlink:href="#DejaVuSans-117"/>
      <use x="382.714844" xlink:href="#DejaVuSans-109"/>
      <use x="480.126953" xlink:href="#DejaVuSans-98"/>
      <use x="543.603516" xlink:href="#DejaVuSans-101"/>
      <use x="605.126953" xlink:href="#DejaVuSans-114"/>
     </g>
    </g>
   </g>
   <g id="line2d_14">
    <path clip-path="url(#p82274d62f2)" d="M 75.923352 276.334125 
L 76.464443 275.849324 
L 77.005534 275.591357 
L 77.546625 275.493507 
L 80.79317 275.871563 
L 86.74517 275.827086 
L 87.286261 275.724788 
L 88.368443 275.711445 
L 99.731352 274.848589 
L 100.813534 274.635099 
L 105.142261 273.994628 
L 106.765534 273.616572 
L 108.388807 273.282994 
L 114.881898 271.250389 
L 115.96408 270.756693 
L 118.669534 269.778196 
L 129.491352 264.992457 
L 130.573534 264.596611 
L 134.36117 262.661856 
L 134.902261 262.501738 
L 137.607716 261.140738 
L 138.689898 260.744891 
L 143.018625 258.592198 
L 144.100807 258.392051 
L 145.72408 257.991757 
L 147.888443 258.169666 
L 150.052807 257.858326 
L 151.134989 257.867221 
L 151.67608 257.69376 
L 152.758261 257.662626 
L 154.922625 257.120005 
L 156.545898 256.724159 
L 157.086989 256.697473 
L 158.710261 256.212672 
L 160.333534 255.945809 
L 161.956807 255.598887 
L 163.038989 255.501038 
L 168.449898 254.042188 
L 168.990989 254.024397 
L 170.614261 253.361688 
L 172.237534 252.5611 
L 174.942989 250.830939 
L 176.02517 249.976978 
L 177.648443 248.802782 
L 178.730625 247.77536 
L 181.97717 245.182344 
L 184.141534 243.287618 
L 185.223716 242.402523 
L 188.470261 239.596016 
L 193.88117 234.903679 
L 196.045534 233.120146 
L 197.127716 232.039352 
L 199.83317 229.677617 
L 201.997534 227.738414 
L 203.620807 226.350727 
L 214.442625 217.046112 
L 215.524807 216.120988 
L 220.935716 211.642141 
L 222.558989 210.178843 
L 226.346625 207.114369 
L 228.510989 205.175166 
L 236.086261 198.632581 
L 238.250625 196.78678 
L 239.332807 195.763806 
L 250.154625 186.71271 
L 252.318989 184.742373 
L 254.483352 182.754246 
L 255.565534 181.700138 
L 256.647716 180.912892 
L 262.058625 176.300614 
L 264.222989 174.22798 
L 267.469534 171.67944 
L 268.010625 171.083447 
L 270.174989 169.393316 
L 271.798261 167.978943 
L 273.962625 166.29326 
L 277.20917 163.437828 
L 279.914625 161.37409 
L 281.537898 159.995299 
L 284.784443 157.295537 
L 285.325534 156.730677 
L 286.407716 155.872269 
L 291.818625 151.304468 
L 295.606261 148.155487 
L 296.147352 147.790775 
L 298.852807 145.415696 
L 324.82517 123.328354 
L 326.448443 121.891742 
L 330.23608 118.747209 
L 331.318261 117.848771 
L 332.941534 116.398817 
L 334.023716 115.451454 
L 334.564807 115.100085 
L 336.18808 113.739085 
L 337.270261 112.991869 
L 338.352443 112.097878 
L 352.961898 99.871116 
L 354.04408 98.888171 
L 355.126261 98.020867 
L 358.372807 95.307762 
L 365.406989 89.628033 
L 390.29717 69.50658 
L 398.413534 63.297573 
L 400.577898 61.585203 
L 400.577898 61.585203 
" style="fill:none;stroke:#000080;stroke-linecap:round;stroke-width:1.5;"/>
   </g>
   <g id="line2d_15">
    <path clip-path="url(#p82274d62f2)" d="M 75.923352 276.334125 
L 77.005534 275.511298 
L 77.546625 275.324494 
L 78.628807 275.542432 
L 79.169898 275.671416 
L 79.710989 275.622491 
L 80.79317 275.849324 
L 82.416443 275.751475 
L 82.957534 275.898249 
L 87.827352 275.733684 
L 88.368443 275.653625 
L 89.450625 275.680311 
L 94.861534 275.324494 
L 97.025898 275.044288 
L 99.190261 274.941991 
L 100.272443 274.661785 
L 101.354625 274.643994 
L 102.436807 274.381579 
L 102.977898 274.101373 
L 104.60117 273.896778 
L 105.683352 273.585438 
L 106.224443 273.536514 
L 107.847716 273.109533 
L 108.929898 272.931625 
L 109.470989 272.704791 
L 110.55317 272.455719 
L 111.635352 272.237781 
L 112.717534 272.064321 
L 113.799716 271.761876 
L 114.340807 271.766324 
L 115.96408 271.263732 
L 116.50517 271.197017 
L 117.587352 270.885677 
L 118.669534 270.605471 
L 121.374989 269.782644 
L 122.45717 269.320082 
L 122.998261 269.119935 
L 123.539352 269.062114 
L 125.162625 268.652925 
L 125.703716 268.555075 
L 128.40917 267.412013 
L 135.984443 265.174813 
L 137.066625 264.663326 
L 137.607716 264.516552 
L 138.148807 264.20966 
L 140.31317 263.569189 
L 141.936443 262.977643 
L 143.559716 262.288248 
L 144.641898 261.71894 
L 146.806261 260.61146 
L 148.970625 259.059208 
L 150.593898 257.862773 
L 151.67608 256.844247 
L 154.922625 254.678211 
L 157.62808 253.361688 
L 159.251352 252.899126 
L 161.956807 252.46325 
L 163.038989 252.583338 
L 164.12117 252.752351 
L 165.203352 253.121511 
L 169.53208 254.117799 
L 170.07317 254.375766 
L 171.696443 254.651525 
L 173.319716 254.704897 
L 175.48408 254.326842 
L 177.648443 253.930995 
L 180.894989 252.779037 
L 189.011352 249.002929 
L 190.093534 248.220132 
L 191.175716 247.495155 
L 197.127716 243.131948 
L 198.209898 242.411419 
L 202.538625 239.146797 
L 204.702989 237.243176 
L 205.78517 236.220202 
L 210.654989 232.048248 
L 214.983716 228.031963 
L 216.606989 226.648724 
L 218.771352 224.856296 
L 223.64117 220.973443 
L 225.805534 219.234387 
L 226.887716 218.238099 
L 227.969898 217.215125 
L 228.510989 216.716981 
L 229.59317 215.956422 
L 244.743716 202.777849 
L 247.44917 200.456143 
L 249.072443 199.055113 
L 252.318989 196.257502 
L 258.270989 190.800158 
L 260.976443 188.665256 
L 263.681898 186.454743 
L 271.25717 179.796517 
L 272.339352 178.853601 
L 278.832443 173.374019 
L 280.996807 171.40813 
L 282.62008 169.998205 
L 284.784443 168.041211 
L 286.948807 166.337737 
L 288.030989 165.39927 
L 289.11317 164.62092 
L 291.818625 162.339243 
L 296.147352 158.705462 
L 297.229534 157.944903 
L 298.311716 156.944168 
L 299.393898 156.134684 
L 301.01717 154.675834 
L 310.756807 146.714428 
L 312.38008 145.482412 
L 316.167716 142.204447 
L 317.249898 141.386068 
L 322.660807 136.920564 
L 331.859352 129.604076 
L 335.105898 126.850942 
L 336.18808 125.867998 
L 337.811352 124.533684 
L 340.516807 122.243112 
L 344.845534 118.893984 
L 345.927716 118.035575 
L 348.09208 116.269833 
L 352.961898 112.182385 
L 354.04408 111.217231 
L 355.126261 110.296555 
L 356.749534 108.962241 
L 357.831716 107.974849 
L 359.454989 106.636087 
L 361.078261 105.257296 
L 362.160443 104.403335 
L 363.242625 103.51824 
L 364.324807 102.726547 
L 365.406989 101.712469 
L 366.48917 100.898537 
L 368.653534 99.128348 
L 376.769898 92.545733 
L 377.85208 91.709563 
L 381.639716 88.56503 
L 382.721898 87.635458 
L 384.34517 86.27001 
L 385.968443 84.860085 
L 387.591716 83.548009 
L 388.673898 82.609542 
L 392.461534 79.496143 
L 397.872443 75.168518 
L 400.577898 72.975796 
L 400.577898 72.975796 
" style="fill:none;stroke:#0000f1;stroke-linecap:round;stroke-width:1.5;"/>
   </g>
   <g id="line2d_16">
    <path clip-path="url(#p82274d62f2)" d="M 75.923352 276.334125 
L 77.005534 275.533537 
L 77.546625 275.39121 
L 78.087716 275.395658 
L 79.169898 275.689207 
L 85.121898 275.871563 
L 87.286261 275.698102 
L 88.368443 275.689207 
L 88.909534 275.54688 
L 89.450625 275.689207 
L 90.532807 275.675863 
L 91.614989 275.542432 
L 92.69717 275.569118 
L 94.320443 275.400105 
L 96.484807 275.244435 
L 98.10808 274.977573 
L 100.272443 274.661785 
L 101.895716 274.39937 
L 102.436807 274.257043 
L 103.518989 274.159193 
L 106.765534 273.429768 
L 107.306625 273.429768 
L 113.258625 272.059873 
L 113.799716 271.997605 
L 114.340807 271.819696 
L 114.881898 271.5217 
L 117.046261 270.907915 
L 123.539352 268.510598 
L 124.080443 268.408301 
L 124.621534 268.17702 
L 126.244807 267.945738 
L 127.326989 267.581026 
L 131.655716 266.380144 
L 132.196807 266.340114 
L 133.82008 265.833075 
L 137.607716 265.16147 
L 138.689898 264.836787 
L 140.854261 264.263032 
L 143.559716 263.039911 
L 145.182989 262.59514 
L 146.806261 261.923535 
L 147.888443 261.501002 
L 150.052807 260.624803 
L 153.840443 258.765659 
L 157.62808 257.213407 
L 159.792443 255.985838 
L 162.497898 254.473616 
L 168.449898 251.391351 
L 172.237534 249.358746 
L 174.401898 248.064462 
L 178.730625 245.591533 
L 179.271716 245.164553 
L 180.894989 244.310592 
L 181.97717 243.719046 
L 183.059352 243.309857 
L 190.093534 239.805059 
L 192.798989 238.070451 
L 194.422261 236.705003 
L 196.586625 235.339555 
L 199.29208 233.698349 
L 201.997534 232.146097 
L 204.702989 230.891842 
L 206.326261 229.980061 
L 207.949534 229.046041 
L 208.490625 228.908162 
L 209.572807 228.436705 
L 211.73717 227.902979 
L 213.901534 227.925218 
L 214.442625 228.112022 
L 216.065898 228.17429 
L 216.606989 228.112022 
L 217.14808 228.178737 
L 218.230261 228.152051 
L 218.771352 228.209871 
L 220.935716 227.640564 
L 222.558989 226.880005 
L 223.10008 226.666515 
L 224.723352 225.478976 
L 225.805534 224.767342 
L 233.921898 217.704374 
L 236.086261 215.840782 
L 241.49717 211.219608 
L 243.120443 209.903085 
L 244.202625 209.066915 
L 245.825898 207.550245 
L 248.531352 205.077317 
L 249.613534 204.201117 
L 254.483352 199.940208 
L 255.565534 199.161858 
L 257.729898 197.431698 
L 258.81208 196.519917 
L 260.435352 194.963218 
L 263.681898 192.089995 
L 270.174989 186.779426 
L 271.25717 185.752004 
L 278.832443 179.12936 
L 280.455716 177.875105 
L 282.62008 176.038199 
L 285.325534 173.70315 
L 286.948807 172.355493 
L 290.195352 169.353287 
L 291.277534 168.503773 
L 293.441898 166.609048 
L 294.52408 165.728401 
L 296.147352 164.371848 
L 300.47608 160.604635 
L 306.96917 155.178426 
L 310.756807 152.082817 
L 314.003352 149.431981 
L 315.085534 148.631392 
L 316.167716 147.759641 
L 317.790989 146.465356 
L 319.955352 144.650689 
L 321.037534 143.685536 
L 329.153898 137.111816 
L 331.859352 134.678917 
L 334.564807 132.33942 
L 336.18808 130.973972 
L 339.434625 128.163017 
L 343.222261 124.92953 
L 345.386625 123.239399 
L 347.009898 121.873951 
L 348.09208 120.984409 
L 349.174261 119.997017 
L 353.502989 116.590069 
L 355.126261 115.215725 
L 360.53717 110.768012 
L 362.701534 108.953345 
L 365.406989 106.613848 
L 368.653534 103.918534 
L 372.44117 100.720629 
L 374.605534 99.092766 
L 382.721898 92.269974 
L 388.673898 87.43531 
L 390.29717 86.145474 
L 390.838261 85.767418 
L 391.920443 84.780026 
L 393.543716 83.570248 
L 394.625898 82.742973 
L 396.24917 81.381973 
L 397.331352 80.625862 
L 398.413534 79.593993 
L 400.577898 77.743744 
L 400.577898 77.743744 
" style="fill:none;stroke:#004cff;stroke-linecap:round;stroke-width:1.5;"/>
   </g>
   <g id="line2d_17">
    <path clip-path="url(#p82274d62f2)" d="M 75.923352 276.334125 
L 76.464443 275.822638 
L 77.546625 275.466821 
L 82.416443 275.871563 
L 83.498625 275.795952 
L 84.039716 275.85822 
L 85.662989 275.711445 
L 88.368443 275.680311 
L 88.909534 275.591357 
L 89.991716 275.609148 
L 90.532807 275.50685 
L 92.15608 275.537984 
L 93.238261 275.257778 
L 94.861534 275.355628 
L 95.943716 275.146586 
L 97.025898 275.199958 
L 98.64917 274.999811 
L 100.813534 274.510563 
L 101.354625 274.563935 
L 102.977898 274.225909 
L 104.06008 274.176984 
L 105.683352 273.812272 
L 107.306625 273.30968 
L 111.094261 272.300049 
L 112.176443 271.752981 
L 113.799716 271.05469 
L 117.046261 269.898284 
L 118.128443 269.235575 
L 119.210625 268.835281 
L 121.374989 267.634399 
L 124.080443 265.833075 
L 125.703716 264.961323 
L 126.785898 264.129601 
L 127.86808 263.364594 
L 128.950261 262.546215 
L 132.737898 259.486189 
L 140.854261 252.271998 
L 145.182989 248.43807 
L 146.806261 247.130442 
L 156.004807 238.702026 
L 157.62808 237.185356 
L 167.908807 228.080888 
L 168.990989 226.933378 
L 171.696443 224.669492 
L 172.778625 223.806636 
L 175.48408 221.613913 
L 177.648443 219.732531 
L 182.518261 215.662873 
L 184.682625 213.906027 
L 187.38808 211.704409 
L 187.92917 211.050595 
L 194.422261 205.51764 
L 205.24408 196.026221 
L 207.408443 194.167077 
L 209.031716 192.628168 
L 211.19608 190.83574 
L 212.278261 189.883929 
L 213.901534 188.376155 
L 215.524807 186.952887 
L 218.230261 184.889148 
L 227.969898 176.798758 
L 229.59317 175.31767 
L 230.675352 174.428127 
L 232.298625 173.23614 
L 237.168443 169.122006 
L 241.49717 165.34145 
L 242.579352 164.474146 
L 243.661534 163.455619 
L 250.154625 157.891531 
L 251.236807 156.948615 
L 266.387352 143.605477 
L 268.010625 142.284506 
L 269.092807 141.470574 
L 272.880443 138.299355 
L 274.503716 137.076234 
L 275.585898 136.119976 
L 279.373534 133.055502 
L 281.537898 131.280864 
L 283.16117 129.942103 
L 286.407716 127.015508 
L 289.11317 124.893949 
L 290.195352 124.044435 
L 293.982989 120.868768 
L 296.688443 118.640464 
L 297.229534 118.289095 
L 299.934989 116.011866 
L 301.558261 114.673104 
L 303.181534 113.312104 
L 304.804807 112.07564 
L 306.96917 110.060826 
L 310.215716 107.494496 
L 311.297898 106.538237 
L 312.92117 105.306221 
L 328.612807 92.563523 
L 329.694989 91.647295 
L 332.941534 89.005353 
L 334.564807 87.800023 
L 336.18808 86.501291 
L 337.811352 85.162529 
L 338.893534 84.099526 
L 350.256443 74.977267 
L 352.961898 72.780096 
L 356.208443 69.986933 
L 356.749534 69.44876 
L 357.831716 68.759364 
L 358.913898 67.94988 
L 359.99608 66.980279 
L 362.160443 65.281253 
L 363.242625 64.33389 
L 370.276807 58.787592 
L 375.687716 54.6868 
L 377.310989 53.272428 
L 384.34517 47.517087 
L 387.050625 45.533407 
L 388.132807 44.603835 
L 389.75608 43.144985 
L 394.625898 39.302161 
L 397.331352 37.020485 
L 398.413534 36.215449 
L 400.036807 34.934507 
L 400.577898 34.414125 
L 400.577898 34.414125 
" style="fill:none;stroke:#00b0ff;stroke-linecap:round;stroke-width:1.5;"/>
   </g>
   <g id="line2d_18">
    <path clip-path="url(#p82274d62f2)" d="M 75.923352 276.334125 
L 77.005534 275.586909 
L 78.087716 275.413448 
L 79.169898 275.542432 
L 80.25208 275.747027 
L 82.957534 275.831533 
L 83.498625 275.791504 
L 84.039716 275.893801 
L 86.74517 275.729236 
L 87.286261 275.804847 
L 89.991716 275.666968 
L 91.073898 275.618043 
L 93.238261 275.444582 
L 95.402625 275.208854 
L 96.484807 275.173272 
L 98.10808 275.017602 
L 99.731352 274.790769 
L 100.272443 274.884171 
L 101.895716 274.483876 
L 102.436807 274.354893 
L 103.518989 274.354893 
L 110.01208 273.087295 
L 111.094261 272.856014 
L 112.176443 272.84267 
L 113.258625 272.549121 
L 114.340807 272.188857 
L 117.587352 271.374925 
L 118.128443 271.17033 
L 118.669534 271.099167 
L 119.210625 270.854543 
L 120.292807 270.574337 
L 125.162625 268.964265 
L 134.902261 266.700379 
L 135.984443 266.40683 
L 137.066625 266.21113 
L 138.689898 265.730777 
L 140.854261 265.370513 
L 141.936443 264.996905 
L 143.018625 264.645536 
L 144.641898 264.062885 
L 146.26517 263.569189 
L 147.888443 263.013225 
L 149.511716 262.515081 
L 158.710261 258.952463 
L 160.333534 258.231934 
L 166.285534 255.741214 
L 170.614261 254.086665 
L 171.155352 253.708609 
L 174.942989 252.485488 
L 175.48408 252.352057 
L 178.730625 250.924341 
L 180.894989 250.119305 
L 182.518261 249.363194 
L 185.764807 248.108939 
L 186.305898 247.793151 
L 186.846989 247.71754 
L 188.470261 247.09486 
L 194.963352 244.764259 
L 195.504443 244.688648 
L 196.586625 244.243876 
L 198.750989 243.558929 
L 199.29208 243.510004 
L 201.997534 242.531507 
L 204.702989 241.472951 
L 207.949534 240.685706 
L 209.031716 240.263173 
L 209.572807 240.13419 
L 210.654989 239.689418 
L 211.73717 239.47148 
L 212.819352 239.14235 
L 214.983716 238.386239 
L 218.771352 237.58565 
L 221.476807 236.785062 
L 224.723352 235.966683 
L 227.969898 235.005977 
L 229.05208 234.756905 
L 230.134261 234.507833 
L 235.54517 233.435934 
L 237.168443 232.906656 
L 238.791716 232.630898 
L 240.414989 232.221708 
L 241.49717 232.017114 
L 243.120443 231.661297 
L 245.284807 230.891842 
L 248.531352 230.131283 
L 249.613534 230.069015 
L 250.695716 229.922241 
L 251.236807 229.842182 
L 252.318989 229.464126 
L 252.86008 229.277323 
L 254.483352 229.152787 
L 255.024443 228.877028 
L 259.35317 228.036411 
L 260.435352 227.800682 
L 262.058625 227.440417 
L 263.681898 227.462656 
L 271.25717 226.235087 
L 271.798261 226.079417 
L 274.503716 225.768077 
L 276.66808 225.41226 
L 279.914625 225.029757 
L 287.489898 223.659861 
L 288.57208 223.704338 
L 289.11317 223.602041 
L 290.195352 223.619832 
L 292.359716 223.326283 
L 294.52408 222.774766 
L 295.606261 222.734737 
L 300.47608 222.063132 
L 301.558261 221.800717 
L 302.640443 221.649495 
L 303.722625 221.725106 
L 304.804807 221.533854 
L 314.003352 220.364106 
L 317.249898 219.648024 
L 318.87317 219.198805 
L 319.955352 219.136537 
L 320.496443 218.900808 
L 321.037534 218.811854 
L 321.578625 218.856331 
L 322.660807 218.593916 
L 323.201898 218.295919 
L 325.366261 217.628762 
L 326.448443 217.20623 
L 327.530625 216.85486 
L 329.694989 216.334478 
L 330.23608 216.307792 
L 334.023716 215.213654 
L 334.564807 214.946792 
L 335.646989 214.582079 
L 337.270261 213.91937 
L 337.811352 213.772595 
L 338.893534 213.327824 
L 339.975716 212.958664 
L 344.304443 211.281876 
L 350.797534 207.65699 
L 351.338625 207.252248 
L 352.420807 206.678493 
L 355.126261 205.464268 
L 355.667352 205.357523 
L 357.831716 204.343444 
L 364.865898 203.178143 
L 365.406989 203.209277 
L 365.94808 203.035816 
L 367.030261 202.915728 
L 368.112443 202.724477 
L 369.735716 202.755611 
L 370.276807 202.613284 
L 375.687716 202.350869 
L 377.85208 202.084006 
L 378.934261 202.248571 
L 379.475352 202.319735 
L 380.016443 202.266362 
L 380.557534 202.373107 
L 384.886261 202.288601 
L 385.968443 201.950574 
L 387.050625 201.625891 
L 389.75608 200.389427 
L 390.29717 199.993581 
L 390.838261 199.780091 
L 394.625898 197.240447 
L 395.70808 196.528812 
L 397.331352 195.407989 
L 397.872443 195.118887 
L 398.413534 194.95877 
L 399.495716 194.43394 
L 400.577898 193.989168 
L 400.577898 193.989168 
" style="fill:none;stroke:#29ffce;stroke-linecap:round;stroke-width:1.5;"/>
   </g>
   <g id="line2d_19">
    <path clip-path="url(#p82274d62f2)" d="M 75.923352 276.334125 
L 76.464443 275.809295 
L 77.005534 275.537984 
L 78.087716 275.444582 
L 78.628807 275.435687 
L 79.710989 275.706997 
L 80.25208 275.658073 
L 82.416443 275.907145 
L 82.957534 275.849324 
L 83.498625 275.920488 
L 84.580807 275.871563 
L 87.286261 275.733684 
L 88.368443 275.689207 
L 89.450625 275.564671 
L 89.991716 275.653625 
L 95.402625 275.262226 
L 97.025898 275.306703 
L 99.190261 274.973125 
L 99.731352 274.941991 
L 100.272443 274.777425 
L 100.813534 274.82635 
L 101.895716 274.559488 
L 102.977898 274.49722 
L 105.683352 273.838958 
L 106.224443 273.825615 
L 107.847716 273.274099 
L 109.470989 272.82488 
L 110.01208 272.509092 
L 111.635352 271.930889 
L 112.176443 271.592863 
L 117.046261 270.013925 
L 118.128443 269.778196 
L 122.998261 267.927948 
L 123.539352 267.638846 
L 125.162625 267.056196 
L 130.032443 264.641088 
L 130.573534 264.334196 
L 131.655716 263.578084 
L 133.82008 261.959117 
L 135.984443 260.099973 
L 140.31317 256.23491 
L 141.395352 255.269757 
L 143.018625 253.855384 
L 146.806261 250.555181 
L 147.888443 249.616714 
L 149.511716 248.277952 
L 151.134989 246.752387 
L 153.840443 244.377308 
L 154.922625 243.505556 
L 157.086989 241.383997 
L 158.710261 239.982967 
L 159.792443 239.088977 
L 168.990989 231.127571 
L 171.155352 229.050489 
L 173.319716 227.24027 
L 179.271716 221.885224 
L 181.43608 220.159511 
L 189.011352 213.839311 
L 192.257898 211.299667 
L 195.504443 208.693307 
L 203.079716 201.799352 
L 203.620807 201.421297 
L 205.24408 199.846806 
L 206.867352 198.525836 
L 207.949534 197.729695 
L 209.572807 196.359799 
L 221.476807 186.138955 
L 222.558989 185.080399 
L 223.64117 184.239782 
L 226.887716 181.464409 
L 227.969898 180.557075 
L 241.49717 168.970783 
L 244.202625 166.577914 
L 255.565534 157.006436 
L 258.270989 154.822609 
L 259.35317 153.937514 
L 266.928443 147.510569 
L 273.421534 141.724094 
L 277.20917 138.637381 
L 278.832443 137.107368 
L 284.784443 132.090348 
L 285.866625 131.187462 
L 289.654261 127.958423 
L 290.736443 127.095566 
L 291.818625 126.13486 
L 293.441898 124.853919 
L 298.311716 120.717546 
L 299.393898 119.75684 
L 301.01717 118.524824 
L 305.345898 114.815431 
L 311.838989 109.50931 
L 312.92117 108.619767 
L 316.167716 105.808812 
L 317.790989 104.55011 
L 319.414261 103.264721 
L 322.119716 101.031969 
L 325.907352 97.851854 
L 326.448443 97.278099 
L 327.530625 96.468615 
L 346.468807 80.94165 
L 348.63317 79.082506 
L 349.715352 78.184068 
L 353.502989 75.021744 
L 359.99608 70.040305 
L 372.44117 59.917311 
L 375.146625 57.81799 
L 377.85208 55.607477 
L 380.016443 53.952928 
L 384.34517 50.474816 
L 387.591716 47.846218 
L 388.673898 46.903303 
L 390.29717 45.622362 
L 391.379352 44.861803 
L 393.002625 43.594204 
L 393.543716 43.091613 
L 395.166989 41.921864 
L 396.790261 40.485253 
L 397.872443 39.533443 
L 398.954625 38.621661 
L 400.577898 37.425227 
L 400.577898 37.425227 
" style="fill:none;stroke:#7dff7a;stroke-linecap:round;stroke-width:1.5;"/>
   </g>
   <g id="line2d_20">
    <path clip-path="url(#p82274d62f2)" d="M 75.923352 276.334125 
L 77.005534 275.542432 
L 78.087716 275.409001 
L 79.169898 275.622491 
L 80.25208 275.724788 
L 81.875352 275.849324 
L 82.416443 275.804847 
L 82.957534 275.907145 
L 84.580807 275.840429 
L 93.238261 275.39121 
L 93.779352 275.262226 
L 94.861534 275.328942 
L 96.484807 275.111004 
L 97.025898 275.004259 
L 97.566989 275.044288 
L 98.64917 274.82635 
L 101.354625 274.639546 
L 103.518989 274.363788 
L 104.60117 274.283729 
L 105.683352 273.994628 
L 106.765534 273.741108 
L 107.847716 273.603229 
L 108.388807 273.469798 
L 108.929898 273.46535 
L 110.01208 273.229621 
L 111.094261 273.03837 
L 113.258625 272.193304 
L 113.799716 272.131036 
L 114.881898 271.859726 
L 115.422989 271.85083 
L 117.587352 271.294866 
L 118.669534 271.116958 
L 120.833898 270.320817 
L 122.998261 269.449065 
L 126.244807 268.279317 
L 127.326989 267.959082 
L 128.40917 267.652189 
L 129.491352 267.336402 
L 131.114625 266.713722 
L 132.196807 266.255608 
L 133.278989 265.730777 
L 133.82008 265.548421 
L 134.902261 264.979114 
L 135.984443 264.418702 
L 137.607716 263.627009 
L 140.31317 261.999146 
L 141.395352 261.260826 
L 143.559716 260.051048 
L 148.970625 256.853143 
L 151.67608 255.790139 
L 152.758261 255.456561 
L 153.840443 255.149668 
L 156.004807 254.878358 
L 157.62808 254.75827 
L 158.710261 254.575913 
L 159.251352 254.611495 
L 160.333534 254.442482 
L 160.874625 254.500302 
L 161.956807 254.375766 
L 163.58008 254.722688 
L 164.12117 254.589257 
L 164.662261 254.638181 
L 165.744443 254.513646 
L 166.285534 254.567018 
L 167.367716 254.495855 
L 168.449898 254.513646 
L 168.990989 254.460273 
L 170.07317 254.558123 
L 171.155352 254.384662 
L 173.319716 254.011054 
L 174.401898 253.810907 
L 176.02517 253.561835 
L 179.271716 253.019214 
L 180.894989 252.908021 
L 183.059352 252.547756 
L 190.634625 250.63524 
L 194.422261 249.558893 
L 194.963352 249.541102 
L 197.127716 248.825021 
L 198.209898 248.317981 
L 199.29208 247.922135 
L 200.374261 247.748674 
L 207.949534 244.613037 
L 211.73717 243.203112 
L 213.901534 242.326912 
L 220.394625 240.356575 
L 220.935716 240.098608 
L 222.017898 239.845088 
L 222.558989 239.618255 
L 224.723352 239.324706 
L 226.887716 238.902173 
L 229.05208 238.573042 
L 229.59317 238.564147 
L 231.216443 238.243912 
L 232.839716 238.092689 
L 233.380807 237.977049 
L 233.921898 237.714634 
L 236.627352 237.065268 
L 242.038261 235.250601 
L 243.120443 235.028215 
L 246.366989 233.805094 
L 248.531352 232.902209 
L 249.072443 232.750986 
L 252.318989 231.172048 
L 253.40117 230.789545 
L 255.565534 229.779914 
L 257.729898 228.383332 
L 261.517534 227.253613 
L 263.140807 227.066809 
L 265.30517 226.702097 
L 267.469534 226.599799 
L 270.174989 226.839976 
L 272.339352 226.875558 
L 275.585898 227.271404 
L 279.914625 227.097943 
L 280.455716 226.977855 
L 281.537898 226.977855 
L 282.62008 226.839976 
L 288.57208 225.986015 
L 290.195352 225.456737 
L 291.277534 225.327753 
L 292.900807 224.807371 
L 295.06517 224.536061 
L 296.147352 224.184691 
L 297.770625 223.917828 
L 298.852807 223.597593 
L 301.01717 222.774766 
L 303.722625 221.516064 
L 304.804807 221.053501 
L 305.886989 220.639864 
L 311.838989 218.104668 
L 314.544443 217.081694 
L 315.626625 216.872651 
L 317.790989 216.628027 
L 318.87317 216.636922 
L 319.955352 216.64137 
L 322.660807 216.534625 
L 324.82517 216.298896 
L 325.366261 216.307792 
L 325.907352 216.156569 
L 329.153898 215.938632 
L 329.694989 215.716246 
L 331.318261 215.453831 
L 333.482625 214.69772 
L 334.564807 214.315216 
L 335.646989 214.026115 
L 337.270261 213.358958 
L 338.893534 212.553922 
L 339.975716 212.260373 
L 342.68117 211.09952 
L 344.304443 210.3612 
L 345.927716 209.871951 
L 349.174261 209.191451 
L 349.715352 209.155869 
L 351.338625 208.760023 
L 354.58517 208.106209 
L 356.208443 208.106209 
L 359.99608 207.194428 
L 360.53717 206.891984 
L 361.619352 206.54951 
L 362.160443 206.233722 
L 363.242625 205.86901 
L 364.865898 205.121794 
L 369.194625 202.693343 
L 371.358989 201.207806 
L 376.769898 196.768989 
L 377.85208 195.746015 
L 380.557534 193.566636 
L 383.262989 191.280511 
L 384.34517 190.204165 
L 386.509534 188.407289 
L 390.29717 185.009236 
L 395.70808 180.343585 
L 398.413534 178.057461 
L 400.577898 176.3273 
L 400.577898 176.3273 
" style="fill:none;stroke:#ceff29;stroke-linecap:round;stroke-width:1.5;"/>
   </g>
   <g id="line2d_21">
    <path clip-path="url(#p82274d62f2)" d="M 75.923352 276.334125 
L 76.464443 275.876011 
L 77.005534 275.573566 
L 78.087716 275.564671 
L 83.498625 275.809295 
L 86.20408 275.876011 
L 86.74517 275.787056 
L 87.827352 275.835981 
L 88.909534 275.640282 
L 89.991716 275.635834 
L 91.614989 275.484612 
L 92.15608 275.493507 
L 93.238261 275.302256 
L 93.779352 275.373419 
L 101.895716 274.528354 
L 104.60117 274.105821 
L 106.224443 273.643259 
L 108.388807 273.269651 
L 108.929898 273.242965 
L 110.55317 272.847118 
L 111.094261 272.735925 
L 111.635352 272.397899 
L 113.258625 272.077664 
L 119.210625 270.641052 
L 120.292807 270.329713 
L 121.91608 270.089536 
L 122.998261 269.680347 
L 124.080443 269.49799 
L 124.621534 269.253366 
L 125.162625 269.182203 
L 126.785898 268.648477 
L 127.86808 268.337137 
L 131.114625 267.118464 
L 136.525534 265.463915 
L 137.066625 265.401647 
L 140.31317 264.26748 
L 141.395352 264.036199 
L 145.182989 262.942061 
L 147.347352 262.257114 
L 150.052807 261.670016 
L 151.67608 261.38981 
L 155.463716 260.349045 
L 156.545898 259.850901 
L 163.038989 257.982862 
L 164.12117 257.667074 
L 166.285534 256.884276 
L 166.826625 256.483982 
L 172.778625 254.824985 
L 173.319716 254.767165 
L 176.02517 253.953234 
L 178.189534 253.303868 
L 179.271716 252.845753 
L 180.353898 252.672292 
L 181.43608 252.285341 
L 183.600443 251.738273 
L 184.682625 251.320188 
L 185.764807 251.084459 
L 187.38808 250.613001 
L 194.422261 249.02072 
L 197.668807 247.877658 
L 199.29208 247.517393 
L 200.374261 247.295007 
L 201.456443 246.930295 
L 204.702989 245.698279 
L 206.326261 245.217926 
L 207.408443 244.733125 
L 210.113898 244.017043 
L 214.983716 242.447 
L 215.524807 242.17569 
L 216.065898 242.055602 
L 216.606989 242.060049 
L 218.230261 241.530772 
L 220.394625 241.005941 
L 224.182261 240.031892 
L 226.346625 239.631598 
L 230.675352 238.399582 
L 231.757534 238.154957 
L 232.839716 237.83917 
L 237.709534 236.131248 
L 239.873898 235.477434 
L 242.579352 234.725771 
L 244.202625 234.619026 
L 245.284807 234.392192 
L 246.366989 234.14312 
L 247.44917 233.876258 
L 248.531352 233.520441 
L 249.072443 233.293607 
L 250.154625 233.053431 
L 251.236807 232.733195 
L 252.318989 232.466333 
L 252.86008 232.484124 
L 258.81208 230.785097 
L 259.35317 230.736172 
L 260.435352 230.407042 
L 261.517534 230.291401 
L 262.058625 230.095702 
L 263.140807 229.96227 
L 266.387352 229.241741 
L 269.633898 228.841447 
L 270.71608 228.539002 
L 272.880443 228.343303 
L 273.962625 228.236558 
L 275.585898 227.916322 
L 276.126989 227.947456 
L 277.20917 227.720623 
L 281.537898 227.040123 
L 282.62008 226.795499 
L 284.243352 226.613143 
L 286.407716 226.252878 
L 286.948807 225.972672 
L 288.030989 225.905956 
L 289.654261 225.634646 
L 290.736443 225.447842 
L 291.818625 225.332201 
L 292.359716 225.252142 
L 292.900807 225.287724 
L 293.982989 225.016414 
L 295.06517 224.967489 
L 295.606261 225.038652 
L 296.147352 224.971936 
L 296.688443 224.753999 
L 297.770625 224.63391 
L 298.852807 224.358152 
L 299.934989 224.202482 
L 302.099352 223.637623 
L 302.640443 223.517534 
L 303.722625 223.401894 
L 305.345898 223.072763 
L 306.42808 222.930436 
L 307.510261 222.917093 
L 311.838989 222.160982 
L 312.92117 222.103162 
L 314.003352 222.054237 
L 314.544443 222.076475 
L 315.085534 221.960835 
L 316.708807 221.876328 
L 317.249898 221.716211 
L 317.790989 221.702867 
L 318.87317 221.436005 
L 323.742989 220.924518 
L 324.28408 220.951204 
L 324.82517 220.808877 
L 325.907352 220.715475 
L 328.071716 220.346315 
L 328.612807 220.195093 
L 331.859352 219.87041 
L 332.941534 219.567965 
L 335.105898 219.09206 
L 335.646989 219.069821 
L 337.270261 218.66508 
L 339.975716 218.309263 
L 343.222261 217.57539 
L 344.304443 217.353004 
L 348.63317 216.512387 
L 349.174261 216.312239 
L 349.715352 216.249971 
L 350.256443 215.969766 
L 350.797534 215.934184 
L 351.879716 215.658426 
L 352.420807 215.631739 
L 354.04408 215.253684 
L 354.58517 215.155834 
L 355.126261 214.915658 
L 356.208443 214.773331 
L 358.913898 213.66585 
L 359.99608 213.092095 
L 363.783716 212.046883 
L 364.865898 211.659932 
L 367.571352 211.00167 
L 368.653534 210.583585 
L 370.817898 209.867503 
L 371.90008 209.444971 
L 374.605534 209.022438 
L 375.146625 209.01799 
L 376.228807 208.795605 
L 377.85208 208.679964 
L 381.098625 208.035046 
L 381.639716 207.995016 
L 383.262989 207.563588 
L 383.80408 207.452395 
L 384.34517 207.474634 
L 386.509534 206.803029 
L 392.461534 204.530248 
L 394.625898 203.271545 
L 395.70808 202.54212 
L 398.413534 200.785274 
L 400.036807 199.646659 
L 400.577898 199.362006 
L 400.577898 199.362006 
" style="fill:none;stroke:#ffc400;stroke-linecap:round;stroke-width:1.5;"/>
   </g>
   <g id="line2d_22">
    <path clip-path="url(#p82274d62f2)" d="M 75.923352 276.334125 
L 76.464443 275.747027 
L 77.005534 275.524641 
L 78.087716 275.431239 
L 80.25208 275.778161 
L 81.334261 275.733684 
L 83.498625 275.924935 
L 85.662989 275.738131 
L 86.74517 275.778161 
L 89.450625 275.609148 
L 90.532807 275.698102 
L 93.238261 275.422344 
L 94.320443 275.275569 
L 96.484807 275.106556 
L 98.64917 274.901961 
L 99.731352 274.728501 
L 100.272443 274.724053 
L 100.813534 274.603965 
L 101.895716 274.528354 
L 104.60117 274.230357 
L 105.142261 274.048001 
L 106.224443 273.923465 
L 109.470989 273.162906 
L 110.01208 272.918281 
L 115.422989 271.708504 
L 116.50517 271.26818 
L 117.587352 270.854543 
L 119.210625 270.294131 
L 120.292807 270.058402 
L 123.539352 268.955369 
L 124.080443 268.679611 
L 129.491352 267.563235 
L 130.573534 267.376431 
L 131.655716 267.220761 
L 133.278989 266.887183 
L 135.443352 266.629215 
L 137.066625 266.09549 
L 137.607716 266.086594 
L 139.230989 265.579555 
L 141.395352 264.85013 
L 142.477534 264.543238 
L 143.018625 264.311957 
L 144.100807 264.022856 
L 148.970625 262.092548 
L 150.052807 261.781208 
L 152.21717 261.020649 
L 153.299352 260.57143 
L 154.922625 259.748604 
L 155.463716 259.615172 
L 156.004807 259.317175 
L 160.333534 258.223038 
L 163.038989 257.240094 
L 164.662261 256.826456 
L 165.203352 256.555146 
L 166.285534 256.199329 
L 167.367716 255.759005 
L 170.07317 254.762717 
L 170.614261 254.71824 
L 171.696443 254.255678 
L 172.237534 254.113351 
L 173.319716 253.664132 
L 176.566261 252.779037 
L 177.107352 252.801276 
L 179.271716 252.30758 
L 180.894989 252.134119 
L 186.846989 250.857626 
L 190.093534 249.959188 
L 191.175716 249.696772 
L 198.209898 247.868762 
L 204.702989 245.564847 
L 205.78517 245.240164 
L 207.408443 244.573007 
L 207.949534 244.43068 
L 208.490625 244.15937 
L 209.572807 243.812448 
L 210.654989 243.309857 
L 211.19608 243.171978 
L 212.278261 242.749445 
L 213.901534 242.237958 
L 214.983716 241.802082 
L 216.065898 241.459608 
L 218.771352 240.783556 
L 224.182261 239.315811 
L 225.805534 238.844353 
L 226.346625 238.621967 
L 229.05208 238.181644 
L 230.675352 237.64347 
L 231.216443 237.443323 
L 231.757534 237.398846 
L 233.921898 236.78951 
L 239.332807 235.392928 
L 240.414989 235.143856 
L 243.120443 234.405536 
L 249.613534 233.475964 
L 250.695716 233.204653 
L 251.236807 233.026745 
L 251.777898 232.995611 
L 253.942261 232.346244 
L 255.024443 232.066039 
L 255.565534 231.705774 
L 257.729898 231.065303 
L 261.517534 230.015643 
L 262.058625 229.953375 
L 262.599716 229.722094 
L 263.140807 229.664274 
L 264.76408 229.219502 
L 268.010625 228.365541 
L 268.551716 228.103126 
L 270.174989 227.773996 
L 270.71608 227.720623 
L 273.962625 226.524188 
L 277.20917 225.594616 
L 278.291352 225.083129 
L 279.373534 224.838505 
L 281.537898 224.158005 
L 282.078989 224.104632 
L 282.62008 223.815531 
L 283.16117 223.766606 
L 284.243352 223.339626 
L 285.325534 223.15727 
L 288.030989 222.53459 
L 289.11317 222.410054 
L 293.441898 221.69842 
L 293.982989 221.54275 
L 295.06517 221.413766 
L 301.558261 220.244018 
L 302.640443 219.701397 
L 305.345898 218.834093 
L 307.510261 218.220308 
L 308.592443 217.957893 
L 309.674625 217.388586 
L 311.297898 216.85486 
L 314.544443 215.476069 
L 317.790989 214.613213 
L 318.33208 214.622109 
L 319.414261 214.355246 
L 320.496443 214.092831 
L 322.119716 214.083935 
L 322.660807 213.91937 
L 324.82517 213.719223 
L 325.366261 213.536867 
L 325.907352 213.527971 
L 326.989534 213.225527 
L 328.071716 213.056514 
L 330.23608 212.367118 
L 334.023716 211.117311 
L 336.18808 210.152157 
L 337.270261 209.54282 
L 339.975716 208.092866 
L 340.516807 207.923853 
L 341.057898 207.585827 
L 341.598989 207.479082 
L 342.68117 207.421261 
L 344.845534 207.141055 
L 345.386625 207.274487 
L 346.468807 207.274487 
L 347.009898 207.327859 
L 347.550989 207.523559 
L 349.174261 207.585827 
L 350.256443 207.4435 
L 350.797534 207.514663 
L 354.04408 207.127712 
L 356.208443 206.580644 
L 356.749534 206.602882 
L 358.372807 206.038023 
L 361.078261 204.677022 
L 364.865898 202.097349 
L 367.030261 200.296025 
L 369.194625 198.641476 
L 376.769898 192.272351 
L 377.85208 191.409495 
L 382.180807 187.415449 
L 383.262989 186.521458 
L 384.34517 185.538514 
L 385.968443 184.119693 
L 387.591716 182.660844 
L 390.838261 180.085618 
L 392.461534 178.635663 
L 394.625898 176.807653 
L 400.036807 172.359941 
L 400.577898 171.830663 
L 400.577898 171.830663 
" style="fill:none;stroke:#ff6800;stroke-linecap:round;stroke-width:1.5;"/>
   </g>
   <g id="line2d_23">
    <path clip-path="url(#p82274d62f2)" d="M 75.923352 276.334125 
L 76.464443 275.902697 
L 77.005534 275.675863 
L 78.087716 275.453478 
L 78.628807 275.6047 
L 84.580807 275.840429 
L 91.614989 275.515746 
L 98.64917 274.893066 
L 99.731352 274.599517 
L 101.895716 274.30152 
L 103.518989 274.172537 
L 105.142261 273.914569 
L 107.306625 273.496484 
L 108.388807 273.434216 
L 108.929898 273.229621 
L 110.01208 272.993893 
L 111.094261 272.762612 
L 112.717534 272.16217 
L 114.340807 271.748533 
L 119.751716 269.884941 
L 122.998261 269.084353 
L 124.080443 268.688507 
L 125.162625 268.248183 
L 127.86808 267.345297 
L 133.278989 265.490601 
L 136.525534 264.498761 
L 138.148807 264.045094 
L 139.77208 263.480235 
L 140.31317 263.240058 
L 141.395352 262.977643 
L 141.936443 262.768601 
L 142.477534 262.737467 
L 144.100807 262.119235 
L 148.970625 261.03844 
L 150.052807 260.744891 
L 150.593898 260.66928 
L 156.545898 258.521035 
L 157.62808 257.982862 
L 158.710261 257.489165 
L 161.415716 256.675234 
L 161.956807 256.421714 
L 163.038989 256.154852 
L 164.12117 255.727871 
L 166.826625 254.91394 
L 168.449898 254.282364 
L 170.07317 253.815355 
L 171.155352 253.539596 
L 172.237534 253.361688 
L 174.942989 252.592234 
L 175.48408 252.400982 
L 176.566261 252.236417 
L 177.648443 251.956211 
L 179.271716 251.475858 
L 180.353898 251.249024 
L 181.43608 251.088907 
L 181.97717 250.79091 
L 187.92917 249.260897 
L 191.716807 248.140073 
L 198.209898 246.223109 
L 201.997534 245.360252 
L 203.620807 244.848765 
L 204.161898 244.621932 
L 205.24408 244.355069 
L 206.326261 244.105997 
L 207.408443 243.865821 
L 221.476807 239.520405 
L 225.805534 238.813219 
L 230.134261 238.05266 
L 231.216443 237.79914 
L 232.839716 237.407742 
L 233.921898 237.154222 
L 235.00408 236.922941 
L 235.54517 236.8073 
L 236.627352 236.349186 
L 237.168443 236.117905 
L 238.250625 235.944444 
L 239.873898 235.335107 
L 240.95608 235.112722 
L 246.366989 233.004506 
L 246.90808 232.688718 
L 251.777898 231.096437 
L 252.86008 230.83847 
L 260.435352 228.836999 
L 260.976443 228.832551 
L 269.092807 226.497502 
L 272.339352 224.776237 
L 276.66808 221.662838 
L 280.455716 218.211413 
L 280.996807 217.868939 
L 282.078989 216.872651 
L 284.243352 215.22255 
L 285.325534 214.23071 
L 287.489898 212.580608 
L 288.57208 211.633245 
L 289.654261 210.752598 
L 292.359716 208.341938 
L 293.441898 207.381232 
L 295.606261 205.477611 
L 298.311716 203.22262 
L 299.934989 201.843829 
L 301.558261 200.4428 
L 302.640443 199.5666 
L 305.345898 197.178179 
L 309.133534 194.135943 
L 311.297898 192.321276 
L 312.38008 191.41839 
L 322.660807 182.407324 
L 324.82517 180.543732 
L 325.907352 179.596369 
L 330.23608 175.784679 
L 332.941534 173.485212 
L 334.564807 172.035258 
L 337.811352 169.193169 
L 343.222261 164.380744 
L 345.386625 162.663926 
L 350.797534 158.269586 
L 352.420807 157.019779 
L 357.290625 152.629886 
L 358.372807 151.744791 
L 359.99608 150.512775 
L 362.160443 148.822644 
L 369.735716 142.457967 
L 372.44117 140.194081 
L 377.310989 135.973201 
L 378.39317 135.052525 
L 381.639716 132.254913 
L 383.80408 130.635946 
L 386.509534 128.492148 
L 388.132807 127.122253 
L 390.29717 125.24087 
L 391.920443 123.804259 
L 393.543716 122.452154 
L 400.036807 116.972572 
L 400.577898 116.56783 
L 400.577898 116.56783 
" style="fill:none;stroke:#f10800;stroke-linecap:round;stroke-width:1.5;"/>
   </g>
   <g id="patch_3">
    <path d="M 59.690625 288.430125 
L 59.690625 22.318125 
" style="fill:none;stroke:#cccccc;stroke-linecap:square;stroke-linejoin:miter;stroke-width:0.8;"/>
   </g>
   <g id="patch_4">
    <path d="M 416.810625 288.430125 
L 416.810625 22.318125 
" style="fill:none;stroke:#cccccc;stroke-linecap:square;stroke-linejoin:miter;stroke-width:0.8;"/>
   </g>
   <g id="patch_5">
    <path d="M 59.690625 288.430125 
L 416.810625 288.430125 
" style="fill:none;stroke:#cccccc;stroke-linecap:square;stroke-linejoin:miter;stroke-width:0.8;"/>
   </g>
   <g id="patch_6">
    <path d="M 59.690625 22.318125 
L 416.810625 22.318125 
" style="fill:none;stroke:#cccccc;stroke-linecap:square;stroke-linejoin:miter;stroke-width:0.8;"/>
   </g>
   <g id="text_16">
    <!-- Naive T CD8 -->
    <defs>
     <path d="M 9.8125 72.90625 
L 23.09375 72.90625 
L 55.421875 11.921875 
L 55.421875 72.90625 
L 64.984375 72.90625 
L 64.984375 0 
L 51.703125 0 
L 19.390625 60.984375 
L 19.390625 0 
L 9.8125 0 
z
" id="DejaVuSans-78"/>
     <path d="M 2.984375 54.6875 
L 12.5 54.6875 
L 29.59375 8.796875 
L 46.6875 54.6875 
L 56.203125 54.6875 
L 35.6875 0 
L 23.484375 0 
z
" id="DejaVuSans-118"/>
     <path d="M -0.296875 72.90625 
L 61.375 72.90625 
L 61.375 64.59375 
L 35.5 64.59375 
L 35.5 0 
L 25.59375 0 
L 25.59375 64.59375 
L -0.296875 64.59375 
z
" id="DejaVuSans-84"/>
     <path d="M 64.40625 67.28125 
L 64.40625 56.890625 
Q 59.421875 61.53125 53.78125 63.8125 
Q 48.140625 66.109375 41.796875 66.109375 
Q 29.296875 66.109375 22.65625 58.46875 
Q 16.015625 50.828125 16.015625 36.375 
Q 16.015625 21.96875 22.65625 14.328125 
Q 29.296875 6.6875 41.796875 6.6875 
Q 48.140625 6.6875 53.78125 8.984375 
Q 59.421875 11.28125 64.40625 15.921875 
L 64.40625 5.609375 
Q 59.234375 2.09375 53.4375 0.328125 
Q 47.65625 -1.421875 41.21875 -1.421875 
Q 24.65625 -1.421875 15.125 8.703125 
Q 5.609375 18.84375 5.609375 36.375 
Q 5.609375 53.953125 15.125 64.078125 
Q 24.65625 74.21875 41.21875 74.21875 
Q 47.75 74.21875 53.53125 72.484375 
Q 59.328125 70.75 64.40625 67.28125 
z
" id="DejaVuSans-67"/>
     <path d="M 19.671875 64.796875 
L 19.671875 8.109375 
L 31.59375 8.109375 
Q 46.6875 8.109375 53.6875 14.9375 
Q 60.6875 21.78125 60.6875 36.53125 
Q 60.6875 51.171875 53.6875 57.984375 
Q 46.6875 64.796875 31.59375 64.796875 
z
M 9.8125 72.90625 
L 30.078125 72.90625 
Q 51.265625 72.90625 61.171875 64.09375 
Q 71.09375 55.28125 71.09375 36.53125 
Q 71.09375 17.671875 61.125 8.828125 
Q 51.171875 0 30.078125 0 
L 9.8125 0 
z
" id="DejaVuSans-68"/>
     <path d="M 31.78125 34.625 
Q 24.75 34.625 20.71875 30.859375 
Q 16.703125 27.09375 16.703125 20.515625 
Q 16.703125 13.921875 20.71875 10.15625 
Q 24.75 6.390625 31.78125 6.390625 
Q 38.8125 6.390625 42.859375 10.171875 
Q 46.921875 13.96875 46.921875 20.515625 
Q 46.921875 27.09375 42.890625 30.859375 
Q 38.875 34.625 31.78125 34.625 
z
M 21.921875 38.8125 
Q 15.578125 40.375 12.03125 44.71875 
Q 8.5 49.078125 8.5 55.328125 
Q 8.5 64.0625 14.71875 69.140625 
Q 20.953125 74.21875 31.78125 74.21875 
Q 42.671875 74.21875 48.875 69.140625 
Q 55.078125 64.0625 55.078125 55.328125 
Q 55.078125 49.078125 51.53125 44.71875 
Q 48 40.375 41.703125 38.8125 
Q 48.828125 37.15625 52.796875 32.3125 
Q 56.78125 27.484375 56.78125 20.515625 
Q 56.78125 9.90625 50.3125 4.234375 
Q 43.84375 -1.421875 31.78125 -1.421875 
Q 19.734375 -1.421875 13.25 4.234375 
Q 6.78125 9.90625 6.78125 20.515625 
Q 6.78125 27.484375 10.78125 32.3125 
Q 14.796875 37.15625 21.921875 38.8125 
z
M 18.3125 54.390625 
Q 18.3125 48.734375 21.84375 45.5625 
Q 25.390625 42.390625 31.78125 42.390625 
Q 38.140625 42.390625 41.71875 45.5625 
Q 45.3125 48.734375 45.3125 54.390625 
Q 45.3125 60.0625 41.71875 63.234375 
Q 38.140625 66.40625 31.78125 66.40625 
Q 25.390625 66.40625 21.84375 63.234375 
Q 18.3125 60.0625 18.3125 54.390625 
z
" id="DejaVuSans-56"/>
    </defs>
    <g style="fill:#262626;" transform="translate(201.069375 16.318125)scale(0.12 -0.12)">
     <use xlink:href="#DejaVuSans-78"/>
     <use x="74.804688" xlink:href="#DejaVuSans-97"/>
     <use x="136.083984" xlink:href="#DejaVuSans-105"/>
     <use x="163.867188" xlink:href="#DejaVuSans-118"/>
     <use x="223.046875" xlink:href="#DejaVuSans-101"/>
     <use x="284.570312" xlink:href="#DejaVuSans-32"/>
     <use x="316.357422" xlink:href="#DejaVuSans-84"/>
     <use x="377.441406" xlink:href="#DejaVuSans-32"/>
     <use x="409.228516" xlink:href="#DejaVuSans-67"/>
     <use x="479.052734" xlink:href="#DejaVuSans-68"/>
     <use x="556.054688" xlink:href="#DejaVuSans-56"/>
    </g>
   </g>
  </g>
 </g>
 <defs>
  <clipPath id="p82274d62f2">
   <rect height="266.112" width="357.12" x="59.690625" y="22.318125"/>
  </clipPath>
 </defs>
</svg>
