<?xml version="1.0" encoding="utf-8" standalone="no"?>
<!DOCTYPE svg PUBLIC "-//W3C//DTD SVG 1.1//EN"
  "http://www.w3.org/Graphics/SVG/1.1/DTD/svg11.dtd">
<!-- Created with matplotlib (https://matplotlib.org/) -->
<svg height="325.986375pt" version="1.1" viewBox="0 0 417.648125 325.986375" width="417.648125pt" xmlns="http://www.w3.org/2000/svg" xmlns:xlink="http://www.w3.org/1999/xlink">
 <defs>
  <style type="text/css">
*{stroke-linecap:butt;stroke-linejoin:round;white-space:pre;}
  </style>
 </defs>
 <g id="figure_1">
  <g id="patch_1">
   <path d="M 0 325.986375 
L 417.648125 325.986375 
L 417.648125 0 
L 0 0 
z
" style="fill:#ffffff;"/>
  </g>
  <g id="axes_1">
   <g id="patch_2">
    <path d="M 53.328125 288.430125 
L 410.448125 288.430125 
L 410.448125 22.318125 
L 53.328125 22.318125 
z
" style="fill:#ffffff;"/>
   </g>
   <g id="matplotlib.axis_1">
    <g id="xtick_1">
     <g id="line2d_1">
      <path clip-path="url(#paf5bf83dd0)" d="M 69.560852 288.430125 
L 69.560852 22.318125 
" style="fill:none;stroke:#cccccc;stroke-linecap:round;stroke-width:0.8;"/>
     </g>
     <g id="text_1">
      <!-- 0 -->
      <defs>
       <path d="M 31.78125 66.40625 
Q 24.171875 66.40625 20.328125 58.90625 
Q 16.5 51.421875 16.5 36.375 
Q 16.5 21.390625 20.328125 13.890625 
Q 24.171875 6.390625 31.78125 6.390625 
Q 39.453125 6.390625 43.28125 13.890625 
Q 47.125 21.390625 47.125 36.375 
Q 47.125 51.421875 43.28125 58.90625 
Q 39.453125 66.40625 31.78125 66.40625 
z
M 31.78125 74.21875 
Q 44.046875 74.21875 50.515625 64.515625 
Q 56.984375 54.828125 56.984375 36.375 
Q 56.984375 17.96875 50.515625 8.265625 
Q 44.046875 -1.421875 31.78125 -1.421875 
Q 19.53125 -1.421875 13.0625 8.265625 
Q 6.59375 17.96875 6.59375 36.375 
Q 6.59375 54.828125 13.0625 64.515625 
Q 19.53125 74.21875 31.78125 74.21875 
z
" id="DejaVuSans-48"/>
      </defs>
      <g style="fill:#262626;" transform="translate(66.379602 303.028562)scale(0.1 -0.1)">
       <use xlink:href="#DejaVuSans-48"/>
      </g>
     </g>
    </g>
    <g id="xtick_2">
     <g id="line2d_2">
      <path clip-path="url(#paf5bf83dd0)" d="M 123.669943 288.430125 
L 123.669943 22.318125 
" style="fill:none;stroke:#cccccc;stroke-linecap:round;stroke-width:0.8;"/>
     </g>
     <g id="text_2">
      <!-- 10 -->
      <defs>
       <path d="M 12.40625 8.296875 
L 28.515625 8.296875 
L 28.515625 63.921875 
L 10.984375 60.40625 
L 10.984375 69.390625 
L 28.421875 72.90625 
L 38.28125 72.90625 
L 38.28125 8.296875 
L 54.390625 8.296875 
L 54.390625 0 
L 12.40625 0 
z
" id="DejaVuSans-49"/>
      </defs>
      <g style="fill:#262626;" transform="translate(117.307443 303.028562)scale(0.1 -0.1)">
       <use xlink:href="#DejaVuSans-49"/>
       <use x="63.623047" xlink:href="#DejaVuSans-48"/>
      </g>
     </g>
    </g>
    <g id="xtick_3">
     <g id="line2d_3">
      <path clip-path="url(#paf5bf83dd0)" d="M 177.779034 288.430125 
L 177.779034 22.318125 
" style="fill:none;stroke:#cccccc;stroke-linecap:round;stroke-width:0.8;"/>
     </g>
     <g id="text_3">
      <!-- 20 -->
      <defs>
       <path d="M 19.1875 8.296875 
L 53.609375 8.296875 
L 53.609375 0 
L 7.328125 0 
L 7.328125 8.296875 
Q 12.9375 14.109375 22.625 23.890625 
Q 32.328125 33.6875 34.8125 36.53125 
Q 39.546875 41.84375 41.421875 45.53125 
Q 43.3125 49.21875 43.3125 52.78125 
Q 43.3125 58.59375 39.234375 62.25 
Q 35.15625 65.921875 28.609375 65.921875 
Q 23.96875 65.921875 18.8125 64.3125 
Q 13.671875 62.703125 7.8125 59.421875 
L 7.8125 69.390625 
Q 13.765625 71.78125 18.9375 73 
Q 24.125 74.21875 28.421875 74.21875 
Q 39.75 74.21875 46.484375 68.546875 
Q 53.21875 62.890625 53.21875 53.421875 
Q 53.21875 48.921875 51.53125 44.890625 
Q 49.859375 40.875 45.40625 35.40625 
Q 44.1875 33.984375 37.640625 27.21875 
Q 31.109375 20.453125 19.1875 8.296875 
z
" id="DejaVuSans-50"/>
      </defs>
      <g style="fill:#262626;" transform="translate(171.416534 303.028562)scale(0.1 -0.1)">
       <use xlink:href="#DejaVuSans-50"/>
       <use x="63.623047" xlink:href="#DejaVuSans-48"/>
      </g>
     </g>
    </g>
    <g id="xtick_4">
     <g id="line2d_4">
      <path clip-path="url(#paf5bf83dd0)" d="M 231.888125 288.430125 
L 231.888125 22.318125 
" style="fill:none;stroke:#cccccc;stroke-linecap:round;stroke-width:0.8;"/>
     </g>
     <g id="text_4">
      <!-- 30 -->
      <defs>
       <path d="M 40.578125 39.3125 
Q 47.65625 37.796875 51.625 33 
Q 55.609375 28.21875 55.609375 21.1875 
Q 55.609375 10.40625 48.1875 4.484375 
Q 40.765625 -1.421875 27.09375 -1.421875 
Q 22.515625 -1.421875 17.65625 -0.515625 
Q 12.796875 0.390625 7.625 2.203125 
L 7.625 11.71875 
Q 11.71875 9.328125 16.59375 8.109375 
Q 21.484375 6.890625 26.8125 6.890625 
Q 36.078125 6.890625 40.9375 10.546875 
Q 45.796875 14.203125 45.796875 21.1875 
Q 45.796875 27.640625 41.28125 31.265625 
Q 36.765625 34.90625 28.71875 34.90625 
L 20.21875 34.90625 
L 20.21875 43.015625 
L 29.109375 43.015625 
Q 36.375 43.015625 40.234375 45.921875 
Q 44.09375 48.828125 44.09375 54.296875 
Q 44.09375 59.90625 40.109375 62.90625 
Q 36.140625 65.921875 28.71875 65.921875 
Q 24.65625 65.921875 20.015625 65.03125 
Q 15.375 64.15625 9.8125 62.3125 
L 9.8125 71.09375 
Q 15.4375 72.65625 20.34375 73.4375 
Q 25.25 74.21875 29.59375 74.21875 
Q 40.828125 74.21875 47.359375 69.109375 
Q 53.90625 64.015625 53.90625 55.328125 
Q 53.90625 49.265625 50.4375 45.09375 
Q 46.96875 40.921875 40.578125 39.3125 
z
" id="DejaVuSans-51"/>
      </defs>
      <g style="fill:#262626;" transform="translate(225.525625 303.028562)scale(0.1 -0.1)">
       <use xlink:href="#DejaVuSans-51"/>
       <use x="63.623047" xlink:href="#DejaVuSans-48"/>
      </g>
     </g>
    </g>
    <g id="xtick_5">
     <g id="line2d_5">
      <path clip-path="url(#paf5bf83dd0)" d="M 285.997216 288.430125 
L 285.997216 22.318125 
" style="fill:none;stroke:#cccccc;stroke-linecap:round;stroke-width:0.8;"/>
     </g>
     <g id="text_5">
      <!-- 40 -->
      <defs>
       <path d="M 37.796875 64.3125 
L 12.890625 25.390625 
L 37.796875 25.390625 
z
M 35.203125 72.90625 
L 47.609375 72.90625 
L 47.609375 25.390625 
L 58.015625 25.390625 
L 58.015625 17.1875 
L 47.609375 17.1875 
L 47.609375 0 
L 37.796875 0 
L 37.796875 17.1875 
L 4.890625 17.1875 
L 4.890625 26.703125 
z
" id="DejaVuSans-52"/>
      </defs>
      <g style="fill:#262626;" transform="translate(279.634716 303.028562)scale(0.1 -0.1)">
       <use xlink:href="#DejaVuSans-52"/>
       <use x="63.623047" xlink:href="#DejaVuSans-48"/>
      </g>
     </g>
    </g>
    <g id="xtick_6">
     <g id="line2d_6">
      <path clip-path="url(#paf5bf83dd0)" d="M 340.106307 288.430125 
L 340.106307 22.318125 
" style="fill:none;stroke:#cccccc;stroke-linecap:round;stroke-width:0.8;"/>
     </g>
     <g id="text_6">
      <!-- 50 -->
      <defs>
       <path d="M 10.796875 72.90625 
L 49.515625 72.90625 
L 49.515625 64.59375 
L 19.828125 64.59375 
L 19.828125 46.734375 
Q 21.96875 47.46875 24.109375 47.828125 
Q 26.265625 48.1875 28.421875 48.1875 
Q 40.625 48.1875 47.75 41.5 
Q 54.890625 34.8125 54.890625 23.390625 
Q 54.890625 11.625 47.5625 5.09375 
Q 40.234375 -1.421875 26.90625 -1.421875 
Q 22.3125 -1.421875 17.546875 -0.640625 
Q 12.796875 0.140625 7.71875 1.703125 
L 7.71875 11.625 
Q 12.109375 9.234375 16.796875 8.0625 
Q 21.484375 6.890625 26.703125 6.890625 
Q 35.15625 6.890625 40.078125 11.328125 
Q 45.015625 15.765625 45.015625 23.390625 
Q 45.015625 31 40.078125 35.4375 
Q 35.15625 39.890625 26.703125 39.890625 
Q 22.75 39.890625 18.8125 39.015625 
Q 14.890625 38.140625 10.796875 36.28125 
z
" id="DejaVuSans-53"/>
      </defs>
      <g style="fill:#262626;" transform="translate(333.743807 303.028562)scale(0.1 -0.1)">
       <use xlink:href="#DejaVuSans-53"/>
       <use x="63.623047" xlink:href="#DejaVuSans-48"/>
      </g>
     </g>
    </g>
    <g id="xtick_7">
     <g id="line2d_7">
      <path clip-path="url(#paf5bf83dd0)" d="M 394.215398 288.430125 
L 394.215398 22.318125 
" style="fill:none;stroke:#cccccc;stroke-linecap:round;stroke-width:0.8;"/>
     </g>
     <g id="text_7">
      <!-- 60 -->
      <defs>
       <path d="M 33.015625 40.375 
Q 26.375 40.375 22.484375 35.828125 
Q 18.609375 31.296875 18.609375 23.390625 
Q 18.609375 15.53125 22.484375 10.953125 
Q 26.375 6.390625 33.015625 6.390625 
Q 39.65625 6.390625 43.53125 10.953125 
Q 47.40625 15.53125 47.40625 23.390625 
Q 47.40625 31.296875 43.53125 35.828125 
Q 39.65625 40.375 33.015625 40.375 
z
M 52.59375 71.296875 
L 52.59375 62.3125 
Q 48.875 64.0625 45.09375 64.984375 
Q 41.3125 65.921875 37.59375 65.921875 
Q 27.828125 65.921875 22.671875 59.328125 
Q 17.53125 52.734375 16.796875 39.40625 
Q 19.671875 43.65625 24.015625 45.921875 
Q 28.375 48.1875 33.59375 48.1875 
Q 44.578125 48.1875 50.953125 41.515625 
Q 57.328125 34.859375 57.328125 23.390625 
Q 57.328125 12.15625 50.6875 5.359375 
Q 44.046875 -1.421875 33.015625 -1.421875 
Q 20.359375 -1.421875 13.671875 8.265625 
Q 6.984375 17.96875 6.984375 36.375 
Q 6.984375 53.65625 15.1875 63.9375 
Q 23.390625 74.21875 37.203125 74.21875 
Q 40.921875 74.21875 44.703125 73.484375 
Q 48.484375 72.75 52.59375 71.296875 
z
" id="DejaVuSans-54"/>
      </defs>
      <g style="fill:#262626;" transform="translate(387.852898 303.028562)scale(0.1 -0.1)">
       <use xlink:href="#DejaVuSans-54"/>
       <use x="63.623047" xlink:href="#DejaVuSans-48"/>
      </g>
     </g>
    </g>
    <g id="text_8">
     <!-- time (days) -->
     <defs>
      <path d="M 18.3125 70.21875 
L 18.3125 54.6875 
L 36.8125 54.6875 
L 36.8125 47.703125 
L 18.3125 47.703125 
L 18.3125 18.015625 
Q 18.3125 11.328125 20.140625 9.421875 
Q 21.96875 7.515625 27.59375 7.515625 
L 36.8125 7.515625 
L 36.8125 0 
L 27.59375 0 
Q 17.1875 0 13.234375 3.875 
Q 9.28125 7.765625 9.28125 18.015625 
L 9.28125 47.703125 
L 2.6875 47.703125 
L 2.6875 54.6875 
L 9.28125 54.6875 
L 9.28125 70.21875 
z
" id="DejaVuSans-116"/>
      <path d="M 9.421875 54.6875 
L 18.40625 54.6875 
L 18.40625 0 
L 9.421875 0 
z
M 9.421875 75.984375 
L 18.40625 75.984375 
L 18.40625 64.59375 
L 9.421875 64.59375 
z
" id="DejaVuSans-105"/>
      <path d="M 52 44.1875 
Q 55.375 50.25 60.0625 53.125 
Q 64.75 56 71.09375 56 
Q 79.640625 56 84.28125 50.015625 
Q 88.921875 44.046875 88.921875 33.015625 
L 88.921875 0 
L 79.890625 0 
L 79.890625 32.71875 
Q 79.890625 40.578125 77.09375 44.375 
Q 74.3125 48.1875 68.609375 48.1875 
Q 61.625 48.1875 57.5625 43.546875 
Q 53.515625 38.921875 53.515625 30.90625 
L 53.515625 0 
L 44.484375 0 
L 44.484375 32.71875 
Q 44.484375 40.625 41.703125 44.40625 
Q 38.921875 48.1875 33.109375 48.1875 
Q 26.21875 48.1875 22.15625 43.53125 
Q 18.109375 38.875 18.109375 30.90625 
L 18.109375 0 
L 9.078125 0 
L 9.078125 54.6875 
L 18.109375 54.6875 
L 18.109375 46.1875 
Q 21.1875 51.21875 25.484375 53.609375 
Q 29.78125 56 35.6875 56 
Q 41.65625 56 45.828125 52.96875 
Q 50 49.953125 52 44.1875 
z
" id="DejaVuSans-109"/>
      <path d="M 56.203125 29.59375 
L 56.203125 25.203125 
L 14.890625 25.203125 
Q 15.484375 15.921875 20.484375 11.0625 
Q 25.484375 6.203125 34.421875 6.203125 
Q 39.59375 6.203125 44.453125 7.46875 
Q 49.3125 8.734375 54.109375 11.28125 
L 54.109375 2.78125 
Q 49.265625 0.734375 44.1875 -0.34375 
Q 39.109375 -1.421875 33.890625 -1.421875 
Q 20.796875 -1.421875 13.15625 6.1875 
Q 5.515625 13.8125 5.515625 26.8125 
Q 5.515625 40.234375 12.765625 48.109375 
Q 20.015625 56 32.328125 56 
Q 43.359375 56 49.78125 48.890625 
Q 56.203125 41.796875 56.203125 29.59375 
z
M 47.21875 32.234375 
Q 47.125 39.59375 43.09375 43.984375 
Q 39.0625 48.390625 32.421875 48.390625 
Q 24.90625 48.390625 20.390625 44.140625 
Q 15.875 39.890625 15.1875 32.171875 
z
" id="DejaVuSans-101"/>
      <path id="DejaVuSans-32"/>
      <path d="M 31 75.875 
Q 24.46875 64.65625 21.28125 53.65625 
Q 18.109375 42.671875 18.109375 31.390625 
Q 18.109375 20.125 21.3125 9.0625 
Q 24.515625 -2 31 -13.1875 
L 23.1875 -13.1875 
Q 15.875 -1.703125 12.234375 9.375 
Q 8.59375 20.453125 8.59375 31.390625 
Q 8.59375 42.28125 12.203125 53.3125 
Q 15.828125 64.359375 23.1875 75.875 
z
" id="DejaVuSans-40"/>
      <path d="M 45.40625 46.390625 
L 45.40625 75.984375 
L 54.390625 75.984375 
L 54.390625 0 
L 45.40625 0 
L 45.40625 8.203125 
Q 42.578125 3.328125 38.25 0.953125 
Q 33.9375 -1.421875 27.875 -1.421875 
Q 17.96875 -1.421875 11.734375 6.484375 
Q 5.515625 14.40625 5.515625 27.296875 
Q 5.515625 40.1875 11.734375 48.09375 
Q 17.96875 56 27.875 56 
Q 33.9375 56 38.25 53.625 
Q 42.578125 51.265625 45.40625 46.390625 
z
M 14.796875 27.296875 
Q 14.796875 17.390625 18.875 11.75 
Q 22.953125 6.109375 30.078125 6.109375 
Q 37.203125 6.109375 41.296875 11.75 
Q 45.40625 17.390625 45.40625 27.296875 
Q 45.40625 37.203125 41.296875 42.84375 
Q 37.203125 48.484375 30.078125 48.484375 
Q 22.953125 48.484375 18.875 42.84375 
Q 14.796875 37.203125 14.796875 27.296875 
z
" id="DejaVuSans-100"/>
      <path d="M 34.28125 27.484375 
Q 23.390625 27.484375 19.1875 25 
Q 14.984375 22.515625 14.984375 16.5 
Q 14.984375 11.71875 18.140625 8.90625 
Q 21.296875 6.109375 26.703125 6.109375 
Q 34.1875 6.109375 38.703125 11.40625 
Q 43.21875 16.703125 43.21875 25.484375 
L 43.21875 27.484375 
z
M 52.203125 31.203125 
L 52.203125 0 
L 43.21875 0 
L 43.21875 8.296875 
Q 40.140625 3.328125 35.546875 0.953125 
Q 30.953125 -1.421875 24.3125 -1.421875 
Q 15.921875 -1.421875 10.953125 3.296875 
Q 6 8.015625 6 15.921875 
Q 6 25.140625 12.171875 29.828125 
Q 18.359375 34.515625 30.609375 34.515625 
L 43.21875 34.515625 
L 43.21875 35.40625 
Q 43.21875 41.609375 39.140625 45 
Q 35.0625 48.390625 27.6875 48.390625 
Q 23 48.390625 18.546875 47.265625 
Q 14.109375 46.140625 10.015625 43.890625 
L 10.015625 52.203125 
Q 14.9375 54.109375 19.578125 55.046875 
Q 24.21875 56 28.609375 56 
Q 40.484375 56 46.34375 49.84375 
Q 52.203125 43.703125 52.203125 31.203125 
z
" id="DejaVuSans-97"/>
      <path d="M 32.171875 -5.078125 
Q 28.375 -14.84375 24.75 -17.8125 
Q 21.140625 -20.796875 15.09375 -20.796875 
L 7.90625 -20.796875 
L 7.90625 -13.28125 
L 13.1875 -13.28125 
Q 16.890625 -13.28125 18.9375 -11.515625 
Q 21 -9.765625 23.484375 -3.21875 
L 25.09375 0.875 
L 2.984375 54.6875 
L 12.5 54.6875 
L 29.59375 11.921875 
L 46.6875 54.6875 
L 56.203125 54.6875 
z
" id="DejaVuSans-121"/>
      <path d="M 44.28125 53.078125 
L 44.28125 44.578125 
Q 40.484375 46.53125 36.375 47.5 
Q 32.28125 48.484375 27.875 48.484375 
Q 21.1875 48.484375 17.84375 46.4375 
Q 14.5 44.390625 14.5 40.28125 
Q 14.5 37.15625 16.890625 35.375 
Q 19.28125 33.59375 26.515625 31.984375 
L 29.59375 31.296875 
Q 39.15625 29.25 43.1875 25.515625 
Q 47.21875 21.78125 47.21875 15.09375 
Q 47.21875 7.46875 41.1875 3.015625 
Q 35.15625 -1.421875 24.609375 -1.421875 
Q 20.21875 -1.421875 15.453125 -0.5625 
Q 10.6875 0.296875 5.421875 2 
L 5.421875 11.28125 
Q 10.40625 8.6875 15.234375 7.390625 
Q 20.0625 6.109375 24.8125 6.109375 
Q 31.15625 6.109375 34.5625 8.28125 
Q 37.984375 10.453125 37.984375 14.40625 
Q 37.984375 18.0625 35.515625 20.015625 
Q 33.0625 21.96875 24.703125 23.78125 
L 21.578125 24.515625 
Q 13.234375 26.265625 9.515625 29.90625 
Q 5.8125 33.546875 5.8125 39.890625 
Q 5.8125 47.609375 11.28125 51.796875 
Q 16.75 56 26.8125 56 
Q 31.78125 56 36.171875 55.265625 
Q 40.578125 54.546875 44.28125 53.078125 
z
" id="DejaVuSans-115"/>
      <path d="M 8.015625 75.875 
L 15.828125 75.875 
Q 23.140625 64.359375 26.78125 53.3125 
Q 30.421875 42.28125 30.421875 31.390625 
Q 30.421875 20.453125 26.78125 9.375 
Q 23.140625 -1.703125 15.828125 -13.1875 
L 8.015625 -13.1875 
Q 14.5 -2 17.703125 9.0625 
Q 20.90625 20.125 20.90625 31.390625 
Q 20.90625 42.671875 17.703125 53.65625 
Q 14.5 64.65625 8.015625 75.875 
z
" id="DejaVuSans-41"/>
     </defs>
     <g style="fill:#262626;" transform="translate(203.299063 316.706687)scale(0.1 -0.1)">
      <use xlink:href="#DejaVuSans-116"/>
      <use x="39.208984" xlink:href="#DejaVuSans-105"/>
      <use x="66.992188" xlink:href="#DejaVuSans-109"/>
      <use x="164.404297" xlink:href="#DejaVuSans-101"/>
      <use x="225.927734" xlink:href="#DejaVuSans-32"/>
      <use x="257.714844" xlink:href="#DejaVuSans-40"/>
      <use x="296.728516" xlink:href="#DejaVuSans-100"/>
      <use x="360.205078" xlink:href="#DejaVuSans-97"/>
      <use x="421.484375" xlink:href="#DejaVuSans-121"/>
      <use x="480.664062" xlink:href="#DejaVuSans-115"/>
      <use x="532.763672" xlink:href="#DejaVuSans-41"/>
     </g>
    </g>
   </g>
   <g id="matplotlib.axis_2">
    <g id="ytick_1">
     <g id="line2d_8">
      <path clip-path="url(#paf5bf83dd0)" d="M 53.328125 276.334125 
L 410.448125 276.334125 
" style="fill:none;stroke:#cccccc;stroke-linecap:round;stroke-width:0.8;"/>
     </g>
     <g id="text_9">
      <!-- 0 -->
      <g style="fill:#262626;" transform="translate(39.965625 280.133344)scale(0.1 -0.1)">
       <use xlink:href="#DejaVuSans-48"/>
      </g>
     </g>
    </g>
    <g id="ytick_2">
     <g id="line2d_9">
      <path clip-path="url(#paf5bf83dd0)" d="M 53.328125 226.080697 
L 410.448125 226.080697 
" style="fill:none;stroke:#cccccc;stroke-linecap:round;stroke-width:0.8;"/>
     </g>
     <g id="text_10">
      <!-- 500 -->
      <g style="fill:#262626;" transform="translate(27.240625 229.879916)scale(0.1 -0.1)">
       <use xlink:href="#DejaVuSans-53"/>
       <use x="63.623047" xlink:href="#DejaVuSans-48"/>
       <use x="127.246094" xlink:href="#DejaVuSans-48"/>
      </g>
     </g>
    </g>
    <g id="ytick_3">
     <g id="line2d_10">
      <path clip-path="url(#paf5bf83dd0)" d="M 53.328125 175.82727 
L 410.448125 175.82727 
" style="fill:none;stroke:#cccccc;stroke-linecap:round;stroke-width:0.8;"/>
     </g>
     <g id="text_11">
      <!-- 1000 -->
      <g style="fill:#262626;" transform="translate(20.878125 179.626489)scale(0.1 -0.1)">
       <use xlink:href="#DejaVuSans-49"/>
       <use x="63.623047" xlink:href="#DejaVuSans-48"/>
       <use x="127.246094" xlink:href="#DejaVuSans-48"/>
       <use x="190.869141" xlink:href="#DejaVuSans-48"/>
      </g>
     </g>
    </g>
    <g id="ytick_4">
     <g id="line2d_11">
      <path clip-path="url(#paf5bf83dd0)" d="M 53.328125 125.573842 
L 410.448125 125.573842 
" style="fill:none;stroke:#cccccc;stroke-linecap:round;stroke-width:0.8;"/>
     </g>
     <g id="text_12">
      <!-- 1500 -->
      <g style="fill:#262626;" transform="translate(20.878125 129.373061)scale(0.1 -0.1)">
       <use xlink:href="#DejaVuSans-49"/>
       <use x="63.623047" xlink:href="#DejaVuSans-53"/>
       <use x="127.246094" xlink:href="#DejaVuSans-48"/>
       <use x="190.869141" xlink:href="#DejaVuSans-48"/>
      </g>
     </g>
    </g>
    <g id="ytick_5">
     <g id="line2d_12">
      <path clip-path="url(#paf5bf83dd0)" d="M 53.328125 75.320415 
L 410.448125 75.320415 
" style="fill:none;stroke:#cccccc;stroke-linecap:round;stroke-width:0.8;"/>
     </g>
     <g id="text_13">
      <!-- 2000 -->
      <g style="fill:#262626;" transform="translate(20.878125 79.119634)scale(0.1 -0.1)">
       <use xlink:href="#DejaVuSans-50"/>
       <use x="63.623047" xlink:href="#DejaVuSans-48"/>
       <use x="127.246094" xlink:href="#DejaVuSans-48"/>
       <use x="190.869141" xlink:href="#DejaVuSans-48"/>
      </g>
     </g>
    </g>
    <g id="ytick_6">
     <g id="line2d_13">
      <path clip-path="url(#paf5bf83dd0)" d="M 53.328125 25.066987 
L 410.448125 25.066987 
" style="fill:none;stroke:#cccccc;stroke-linecap:round;stroke-width:0.8;"/>
     </g>
     <g id="text_14">
      <!-- 2500 -->
      <g style="fill:#262626;" transform="translate(20.878125 28.866206)scale(0.1 -0.1)">
       <use xlink:href="#DejaVuSans-50"/>
       <use x="63.623047" xlink:href="#DejaVuSans-53"/>
       <use x="127.246094" xlink:href="#DejaVuSans-48"/>
       <use x="190.869141" xlink:href="#DejaVuSans-48"/>
      </g>
     </g>
    </g>
    <g id="text_15">
     <!-- viremia -->
     <defs>
      <path d="M 2.984375 54.6875 
L 12.5 54.6875 
L 29.59375 8.796875 
L 46.6875 54.6875 
L 56.203125 54.6875 
L 35.6875 0 
L 23.484375 0 
z
" id="DejaVuSans-118"/>
      <path d="M 41.109375 46.296875 
Q 39.59375 47.171875 37.8125 47.578125 
Q 36.03125 48 33.890625 48 
Q 26.265625 48 22.1875 43.046875 
Q 18.109375 38.09375 18.109375 28.8125 
L 18.109375 0 
L 9.078125 0 
L 9.078125 54.6875 
L 18.109375 54.6875 
L 18.109375 46.1875 
Q 20.953125 51.171875 25.484375 53.578125 
Q 30.03125 56 36.53125 56 
Q 37.453125 56 38.578125 55.875 
Q 39.703125 55.765625 41.0625 55.515625 
z
" id="DejaVuSans-114"/>
     </defs>
     <g style="fill:#262626;" transform="translate(14.798438 174.176469)rotate(-90)scale(0.1 -0.1)">
      <use xlink:href="#DejaVuSans-118"/>
      <use x="59.179688" xlink:href="#DejaVuSans-105"/>
      <use x="86.962891" xlink:href="#DejaVuSans-114"/>
      <use x="128.044922" xlink:href="#DejaVuSans-101"/>
      <use x="189.568359" xlink:href="#DejaVuSans-109"/>
      <use x="286.980469" xlink:href="#DejaVuSans-105"/>
      <use x="314.763672" xlink:href="#DejaVuSans-97"/>
     </g>
    </g>
   </g>
   <g id="line2d_14">
    <path clip-path="url(#paf5bf83dd0)" d="M 69.560852 175.82727 
L 72.807398 80.747785 
L 73.88958 61.048442 
L 74.43067 56.224113 
L 74.971761 53.208907 
L 75.512852 53.711441 
L 76.053943 55.01803 
L 76.595034 51.600797 
L 77.136125 52.605866 
L 78.218307 73.008757 
L 80.38267 128.890569 
L 81.464852 155.122858 
L 82.005943 162.359351 
L 82.547034 174.520681 
L 83.088125 183.264777 
L 83.629216 194.119518 
L 84.170307 198.84334 
L 84.711398 206.481861 
L 85.252489 212.512272 
L 85.79358 220.954848 
L 86.33467 225.276643 
L 87.416852 237.035945 
L 87.957943 241.056219 
L 89.040125 246.483589 
L 89.581216 250.101836 
L 90.122307 251.307918 
L 90.663398 254.825658 
L 91.204489 257.237823 
L 91.74558 259.046946 
L 92.28667 260.052014 
L 92.827761 262.062152 
L 93.368852 264.574823 
L 93.909943 266.383946 
L 94.451034 267.590029 
L 94.992125 268.394083 
L 96.074307 270.203207 
L 96.615398 270.806248 
L 97.156489 270.806248 
L 97.69758 271.107769 
L 98.23867 270.906755 
L 100.403034 272.213344 
L 101.485216 273.117906 
L 102.026307 273.117906 
L 102.567398 273.419426 
L 103.108489 273.318919 
L 103.64958 273.821454 
L 104.19067 274.122974 
L 104.731761 273.821454 
L 105.813943 274.625508 
L 107.437216 274.424495 
L 108.519398 274.726015 
L 109.060489 275.128043 
L 110.14267 275.429563 
L 110.683761 275.027536 
L 112.307034 275.128043 
L 112.848125 275.429563 
L 113.389216 275.128043 
L 115.012489 275.128043 
L 116.09467 275.429563 
L 119.882307 275.53007 
L 120.423398 275.22855 
L 122.587761 275.53007 
L 123.669943 275.53007 
L 124.211034 275.329056 
L 126.916489 275.831591 
L 127.45758 275.731084 
L 128.539761 275.831591 
L 129.080852 275.731084 
L 130.704125 275.932098 
L 131.245216 275.831591 
L 132.327398 275.932098 
L 132.868489 275.932098 
L 133.40958 275.630577 
L 134.491761 275.53007 
L 135.032852 275.329056 
L 136.115034 275.22855 
L 137.738307 274.625508 
L 138.820489 274.826522 
L 139.36158 274.525002 
L 139.90267 274.726015 
L 140.443761 274.525002 
L 140.984852 274.625508 
L 141.525943 274.927029 
L 143.149216 274.927029 
L 144.231398 275.329056 
L 144.772489 275.22855 
L 145.31358 275.53007 
L 148.019034 275.630577 
L 148.560125 275.22855 
L 150.183398 275.22855 
L 150.724489 275.429563 
L 151.26558 275.429563 
L 151.80667 275.22855 
L 153.429943 275.329056 
L 154.512125 275.53007 
L 155.594307 275.429563 
L 158.840852 275.429563 
L 159.381943 275.731084 
L 162.087398 275.731084 
L 162.628489 275.932098 
L 163.16958 275.831591 
L 163.71067 276.133111 
L 164.792852 276.233618 
L 165.875034 276.133111 
L 166.416125 276.032604 
L 167.498307 276.334125 
L 394.215398 276.334125 
L 394.215398 276.334125 
" style="fill:none;stroke:#000080;stroke-linecap:round;stroke-width:1.5;"/>
   </g>
   <g id="line2d_15">
    <path clip-path="url(#paf5bf83dd0)" d="M 69.560852 175.82727 
L 71.184125 123.463199 
L 72.807398 72.003689 
L 74.43067 47.882044 
L 74.971761 48.686098 
L 75.512852 46.07292 
L 76.053943 46.273934 
L 76.595034 49.791674 
L 77.136125 61.550976 
L 77.677216 64.666688 
L 78.218307 71.601661 
L 79.84158 103.663348 
L 80.923761 128.790062 
L 82.547034 161.45479 
L 83.088125 169.595845 
L 83.629216 182.460722 
L 84.170307 190.300257 
L 85.252489 208.391491 
L 88.499034 240.654191 
L 89.581216 248.393219 
L 90.122307 251.106904 
L 90.663398 255.529206 
L 91.204489 257.338329 
L 91.74558 259.54948 
L 93.368852 263.167727 
L 94.451034 266.383946 
L 94.992125 267.087494 
L 95.533216 267.389015 
L 96.074307 268.394083 
L 96.615398 268.896618 
L 97.156489 270.203207 
L 97.69758 270.504727 
L 98.779761 272.01233 
L 99.320852 272.313851 
L 99.861943 272.112837 
L 100.403034 271.610303 
L 100.944125 271.71081 
L 101.485216 271.509796 
L 102.026307 271.811317 
L 102.567398 271.610303 
L 103.108489 271.811317 
L 103.64958 271.409289 
L 104.19067 271.308782 
L 104.731761 271.610303 
L 105.272852 272.112837 
L 105.813943 271.911823 
L 107.437216 272.213344 
L 107.978307 271.610303 
L 108.519398 271.811317 
L 109.60158 272.615371 
L 110.14267 273.318919 
L 110.683761 273.218412 
L 111.224852 273.419426 
L 111.765943 272.816385 
L 112.307034 273.318919 
L 112.848125 273.419426 
L 113.389216 273.318919 
L 114.471398 273.720947 
L 115.012489 273.519933 
L 115.55358 273.62044 
L 116.635761 273.519933 
L 117.176852 273.519933 
L 117.717943 274.022467 
L 118.259034 273.519933 
L 118.800125 273.318919 
L 120.423398 274.022467 
L 120.964489 273.821454 
L 122.04667 274.022467 
L 122.587761 273.821454 
L 123.128852 273.92196 
L 124.211034 273.519933 
L 126.375398 274.223481 
L 126.916489 274.323988 
L 127.99867 274.223481 
L 129.621943 274.625508 
L 131.245216 273.92196 
L 131.786307 274.022467 
L 132.868489 274.625508 
L 133.40958 274.726015 
L 135.573943 275.932098 
L 139.36158 276.032604 
L 140.443761 276.133111 
L 140.984852 276.032604 
L 141.525943 276.133111 
L 142.608125 276.032604 
L 145.85467 275.932098 
L 146.395761 275.831591 
L 146.936852 275.932098 
L 148.019034 275.429563 
L 150.183398 275.329056 
L 151.26558 275.128043 
L 153.429943 273.92196 
L 153.971034 273.318919 
L 154.512125 273.318919 
L 155.053216 272.615371 
L 155.594307 272.213344 
L 157.21758 271.509796 
L 157.75867 271.610303 
L 158.299761 271.308782 
L 159.381943 270.404221 
L 159.923034 271.007262 
L 160.464125 271.409289 
L 161.005216 271.509796 
L 161.546307 271.208275 
L 162.628489 271.71081 
L 163.71067 270.806248 
L 166.416125 273.720947 
L 166.957216 273.720947 
L 167.498307 274.022467 
L 168.039398 273.821454 
L 168.580489 274.424495 
L 169.12158 274.424495 
L 170.203761 275.128043 
L 172.368125 275.22855 
L 172.909216 275.329056 
L 173.450307 275.22855 
L 173.991398 275.429563 
L 174.532489 275.027536 
L 177.237943 275.128043 
L 177.779034 275.429563 
L 179.943398 275.429563 
L 180.484489 275.831591 
L 181.56667 275.932098 
L 182.107761 275.932098 
L 182.648852 276.133111 
L 184.272125 276.032604 
L 185.354307 275.932098 
L 185.895398 276.133111 
L 192.92958 276.233618 
L 194.011761 276.334125 
L 394.215398 276.334125 
L 394.215398 276.334125 
" style="fill:none;stroke:#0000f1;stroke-linecap:round;stroke-width:1.5;"/>
   </g>
   <g id="line2d_16">
    <path clip-path="url(#paf5bf83dd0)" d="M 69.560852 175.82727 
L 72.807398 86.476676 
L 73.348489 75.320415 
L 73.88958 73.812812 
L 74.43067 70.194565 
L 74.971761 69.08899 
L 75.512852 71.702168 
L 76.053943 72.305209 
L 76.595034 74.415853 
L 77.136125 80.848292 
L 78.218307 98.034964 
L 79.300489 121.352555 
L 79.84158 138.941254 
L 80.38267 150.097515 
L 80.923761 155.926913 
L 81.464852 164.369489 
L 82.005943 169.796859 
L 83.088125 188.089106 
L 83.629216 194.521545 
L 85.252489 219.949779 
L 86.33467 232.312123 
L 87.416852 241.056219 
L 88.499034 247.488658 
L 89.581216 250.805384 
L 90.122307 254.524137 
L 90.663398 256.835795 
L 92.28667 260.956576 
L 92.827761 261.559617 
L 93.368852 262.866206 
L 94.451034 265.881412 
L 95.533216 267.791042 
L 96.074307 267.891549 
L 96.615398 268.695604 
L 97.156489 268.796111 
L 98.23867 270.705741 
L 98.779761 271.509796 
L 99.320852 271.811317 
L 99.861943 271.308782 
L 100.403034 271.509796 
L 102.567398 273.218412 
L 103.108489 273.218412 
L 103.64958 273.017399 
L 104.19067 273.117906 
L 104.731761 272.816385 
L 105.272852 273.017399 
L 105.813943 273.519933 
L 106.355034 273.519933 
L 106.896125 273.017399 
L 107.437216 273.419426 
L 107.978307 272.916892 
L 108.519398 273.419426 
L 109.060489 273.720947 
L 109.60158 273.62044 
L 110.683761 274.323988 
L 113.930307 274.223481 
L 114.471398 274.122974 
L 115.012489 273.720947 
L 115.55358 273.92196 
L 116.635761 273.821454 
L 117.176852 273.92196 
L 117.717943 273.419426 
L 118.259034 273.117906 
L 118.800125 273.017399 
L 119.341216 273.218412 
L 120.423398 273.218412 
L 120.964489 273.017399 
L 121.50558 273.519933 
L 122.04667 273.117906 
L 122.587761 273.218412 
L 123.128852 273.720947 
L 123.669943 273.821454 
L 124.752125 273.117906 
L 125.293216 273.218412 
L 125.834307 273.017399 
L 126.375398 272.615371 
L 127.99867 273.720947 
L 128.539761 273.62044 
L 129.080852 274.223481 
L 131.245216 275.027536 
L 131.786307 275.027536 
L 132.327398 274.625508 
L 132.868489 274.424495 
L 133.95067 274.625508 
L 134.491761 274.424495 
L 135.032852 274.525002 
L 135.573943 274.424495 
L 136.115034 274.122974 
L 136.656125 274.223481 
L 137.197216 274.726015 
L 138.279398 275.128043 
L 139.36158 274.927029 
L 141.525943 275.22855 
L 143.149216 275.22855 
L 143.690307 275.027536 
L 144.231398 274.625508 
L 144.772489 274.726015 
L 145.31358 274.625508 
L 145.85467 274.927029 
L 149.642307 275.53007 
L 150.183398 275.53007 
L 150.724489 275.932098 
L 151.80667 275.831591 
L 155.594307 275.831591 
L 156.135398 275.53007 
L 158.840852 275.630577 
L 160.464125 275.932098 
L 161.005216 275.831591 
L 161.546307 275.932098 
L 162.628489 275.731084 
L 163.71067 276.032604 
L 165.333943 275.831591 
L 166.416125 275.932098 
L 175.07358 275.831591 
L 175.61467 275.53007 
L 176.155761 275.630577 
L 176.696852 275.53007 
L 177.237943 275.932098 
L 177.779034 275.831591 
L 178.861216 275.932098 
L 182.107761 276.032604 
L 182.648852 276.233618 
L 186.97758 276.133111 
L 188.059761 276.032604 
L 199.963761 275.932098 
L 202.128125 275.630577 
L 203.210307 275.831591 
L 204.292489 275.53007 
L 204.83358 275.429563 
L 205.37467 275.53007 
L 206.456852 275.22855 
L 206.997943 275.22855 
L 207.539034 275.429563 
L 209.703398 275.429563 
L 210.244489 275.630577 
L 211.32667 275.731084 
L 211.867761 275.831591 
L 212.949943 276.334125 
L 394.215398 276.334125 
L 394.215398 276.334125 
" style="fill:none;stroke:#004cff;stroke-linecap:round;stroke-width:1.5;"/>
   </g>
   <g id="line2d_17">
    <path clip-path="url(#paf5bf83dd0)" d="M 69.560852 175.82727 
L 71.725216 112.708965 
L 72.266307 95.120265 
L 72.807398 84.064511 
L 73.348489 70.6971 
L 73.88958 61.651483 
L 74.43067 60.14388 
L 74.971761 58.23425 
L 75.512852 58.53577 
L 76.053943 60.344894 
L 76.595034 66.475812 
L 77.677216 76.828018 
L 78.218307 84.768059 
L 78.759398 96.828882 
L 79.300489 104.668417 
L 80.38267 131.001213 
L 80.923761 144.871159 
L 82.547034 177.033352 
L 83.629216 194.220024 
L 84.170307 204.873751 
L 84.711398 211.30619 
L 85.252489 220.653327 
L 85.79358 225.779177 
L 86.33467 232.915164 
L 87.416852 243.367877 
L 90.122307 257.840864 
L 91.204489 260.956576 
L 91.74558 263.871275 
L 92.28667 264.775837 
L 92.827761 265.177864 
L 93.368852 264.97685 
L 94.451034 266.785974 
L 94.992125 268.293577 
L 95.533216 268.595097 
L 96.074307 269.399152 
L 96.615398 269.600166 
L 97.156489 270.404221 
L 97.69758 270.906755 
L 99.320852 271.911823 
L 99.861943 272.514865 
L 100.403034 272.916892 
L 101.485216 273.117906 
L 102.026307 273.419426 
L 102.567398 273.92196 
L 103.108489 274.625508 
L 103.64958 274.726015 
L 104.19067 274.525002 
L 104.731761 274.625508 
L 105.272852 274.525002 
L 105.813943 274.927029 
L 106.355034 275.128043 
L 106.896125 274.927029 
L 108.519398 275.22855 
L 109.060489 275.53007 
L 109.60158 275.53007 
L 110.14267 275.731084 
L 111.224852 275.53007 
L 111.765943 275.731084 
L 112.848125 275.731084 
L 113.389216 275.932098 
L 116.635761 276.032604 
L 118.800125 276.334125 
L 394.215398 276.334125 
L 394.215398 276.334125 
" style="fill:none;stroke:#00b0ff;stroke-linecap:round;stroke-width:1.5;"/>
   </g>
   <g id="line2d_18">
    <path clip-path="url(#paf5bf83dd0)" d="M 69.560852 175.82727 
L 72.807398 94.215704 
L 73.88958 75.119401 
L 74.43067 67.681894 
L 74.971761 62.154017 
L 75.512852 63.259592 
L 76.053943 68.083921 
L 76.595034 73.913319 
L 77.136125 83.46147 
L 77.677216 88.687827 
L 78.759398 105.673485 
L 79.84158 127.382966 
L 80.923761 150.298529 
L 81.464852 159.746173 
L 82.005943 166.580639 
L 82.547034 176.028284 
L 83.088125 187.687079 
L 83.629216 192.008874 
L 84.711398 203.567162 
L 85.252489 211.105176 
L 85.79358 215.828998 
L 86.33467 223.668533 
L 86.875761 229.497931 
L 87.416852 233.618712 
L 87.957943 239.146589 
L 89.581216 246.081562 
L 90.663398 249.800315 
L 91.204489 253.016535 
L 91.74558 252.715014 
L 92.28667 253.418562 
L 92.827761 253.921096 
L 93.368852 255.127179 
L 93.909943 255.830727 
L 94.451034 255.026672 
L 94.992125 255.227685 
L 95.533216 257.740357 
L 96.074307 258.745425 
L 96.615398 260.353535 
L 97.156489 261.45911 
L 97.69758 262.263165 
L 98.23867 264.574823 
L 99.861943 266.58496 
L 100.403034 267.188001 
L 100.944125 267.389015 
L 101.485216 268.293577 
L 102.567398 268.997125 
L 103.108489 268.49459 
L 103.64958 268.796111 
L 104.19067 269.298645 
L 104.731761 270.1027 
L 105.272852 269.600166 
L 105.813943 270.404221 
L 106.355034 270.002193 
L 106.896125 270.605234 
L 107.437216 271.610303 
L 109.060489 271.71081 
L 109.60158 272.313851 
L 110.683761 272.313851 
L 111.765943 271.610303 
L 112.307034 272.213344 
L 113.389216 272.816385 
L 113.930307 272.514865 
L 114.471398 271.911823 
L 115.012489 271.911823 
L 115.55358 272.112837 
L 116.09467 271.911823 
L 116.635761 272.414358 
L 117.176852 272.213344 
L 117.717943 271.610303 
L 118.259034 271.308782 
L 118.800125 270.705741 
L 119.341216 270.705741 
L 119.882307 270.1027 
L 120.423398 270.1027 
L 120.964489 269.901686 
L 121.50558 269.097631 
L 122.04667 269.198138 
L 122.587761 268.896618 
L 123.128852 268.293577 
L 124.211034 269.097631 
L 124.752125 269.298645 
L 125.293216 268.595097 
L 125.834307 269.198138 
L 126.375398 269.499659 
L 126.916489 269.600166 
L 127.45758 269.298645 
L 127.99867 269.600166 
L 128.539761 270.1027 
L 129.621943 270.002193 
L 130.163034 269.499659 
L 130.704125 269.399152 
L 131.245216 269.097631 
L 132.868489 268.796111 
L 133.40958 268.19307 
L 133.95067 268.896618 
L 134.491761 268.394083 
L 135.032852 268.595097 
L 135.573943 268.092563 
L 136.115034 268.49459 
L 136.656125 268.595097 
L 137.197216 268.19307 
L 138.279398 266.986987 
L 138.820489 267.690535 
L 139.90267 267.690535 
L 140.443761 268.394083 
L 140.984852 268.796111 
L 141.525943 268.997125 
L 142.067034 268.997125 
L 143.149216 268.092563 
L 143.690307 268.092563 
L 144.231398 268.394083 
L 144.772489 268.092563 
L 145.31358 268.49459 
L 146.936852 267.891549 
L 147.477943 268.092563 
L 148.019034 268.092563 
L 148.560125 268.595097 
L 149.101216 268.293577 
L 149.642307 268.293577 
L 150.183398 268.092563 
L 150.724489 267.590029 
L 151.80667 267.087494 
L 153.429943 266.58496 
L 155.053216 267.590029 
L 155.594307 266.685467 
L 156.135398 266.082426 
L 157.21758 266.182933 
L 157.75867 265.981919 
L 158.299761 266.886481 
L 158.840852 266.986987 
L 159.381943 266.685467 
L 159.923034 266.182933 
L 160.464125 266.383946 
L 161.005216 266.082426 
L 161.546307 266.082426 
L 162.087398 265.780905 
L 162.628489 265.177864 
L 163.16958 265.278371 
L 163.71067 264.876344 
L 164.792852 263.167727 
L 165.333943 263.268234 
L 165.875034 263.971782 
L 166.416125 262.7657 
L 166.957216 262.263165 
L 167.498307 261.15759 
L 168.039398 260.856069 
L 169.12158 260.554549 
L 169.66267 260.956576 
L 170.203761 261.760631 
L 171.285943 260.655056 
L 171.827034 260.554549 
L 172.368125 260.052014 
L 173.450307 260.554549 
L 173.991398 259.649987 
L 174.532489 260.856069 
L 175.07358 260.956576 
L 175.61467 261.559617 
L 176.696852 259.750494 
L 177.237943 260.856069 
L 177.779034 259.951508 
L 178.320125 259.951508 
L 178.861216 259.448973 
L 179.402307 259.649987 
L 180.484489 260.454042 
L 182.107761 261.057083 
L 182.648852 260.052014 
L 183.189943 260.554549 
L 183.731034 260.755562 
L 184.272125 259.951508 
L 184.813216 258.845932 
L 185.354307 258.644919 
L 185.895398 259.750494 
L 186.436489 259.24796 
L 187.51867 256.735288 
L 188.059761 255.428699 
L 188.600852 255.830727 
L 189.141943 256.735288 
L 190.224125 253.318055 
L 190.765216 253.217548 
L 191.306307 252.715014 
L 191.847398 251.709946 
L 192.388489 251.810452 
L 194.011761 249.699808 
L 194.552852 249.599302 
L 195.093943 248.192206 
L 195.635034 247.488658 
L 196.176125 245.378014 
L 196.717216 245.478521 
L 197.258307 242.262301 
L 197.799398 241.759767 
L 198.88158 238.744561 
L 199.42267 238.041013 
L 199.963761 235.930369 
L 200.504852 236.432904 
L 201.045943 236.633917 
L 201.587034 237.337465 
L 202.128125 237.236958 
L 202.669216 236.935438 
L 203.210307 234.221753 
L 203.751398 230.905027 
L 204.292489 229.397424 
L 204.83358 228.693876 
L 205.37467 229.899958 
L 205.915761 229.698944 
L 206.456852 229.19641 
L 206.997943 227.085766 
L 207.539034 227.28678 
L 208.080125 228.191341 
L 208.621216 227.990328 
L 209.162307 227.990328 
L 209.703398 226.784245 
L 210.244489 228.191341 
L 210.78558 228.995396 
L 211.32667 227.5883 
L 211.867761 225.176136 
L 212.408852 224.573095 
L 212.949943 224.271574 
L 213.491034 223.266506 
L 214.573216 222.763971 
L 215.114307 221.256368 
L 215.655398 223.065492 
L 216.196489 221.256368 
L 216.73758 222.562958 
L 217.27867 220.854341 
L 217.819761 217.839135 
L 218.360852 217.035081 
L 218.901943 215.12545 
L 219.443034 214.421902 
L 219.984125 213.316327 
L 220.525216 212.914299 
L 221.066307 212.210752 
L 221.607398 213.316327 
L 222.148489 211.909231 
L 222.68958 211.30619 
L 223.771761 211.60771 
L 224.312852 213.014806 
L 224.853943 212.713286 
L 225.395034 213.21582 
L 225.936125 214.622916 
L 226.477216 212.914299 
L 227.018307 213.316327 
L 228.100489 216.030012 
L 230.264852 208.994532 
L 230.805943 208.894025 
L 231.347034 207.687943 
L 231.888125 208.290984 
L 232.429216 209.095039 
L 232.970307 212.411765 
L 233.511398 211.507204 
L 234.052489 212.612779 
L 234.59358 211.507204 
L 235.13467 212.009738 
L 236.216852 214.82393 
L 237.299034 212.210752 
L 237.840125 213.115313 
L 238.381216 213.014806 
L 238.922307 214.321395 
L 239.463398 212.110245 
L 240.004489 211.60771 
L 240.54558 212.110245 
L 241.08667 211.708217 
L 241.627761 210.401628 
L 242.168852 208.391491 
L 243.251034 207.587436 
L 244.333216 211.507204 
L 244.874307 212.612779 
L 245.415398 211.60771 
L 245.956489 209.999601 
L 246.49758 209.296053 
L 247.03867 208.793518 
L 247.579761 208.08997 
L 248.120852 207.888957 
L 248.661943 208.592505 
L 249.203034 210.502135 
L 249.744125 210.502135 
L 250.285216 211.60771 
L 250.826307 210.904162 
L 251.367398 208.391491 
L 251.908489 209.095039 
L 252.44958 210.401628 
L 252.99067 210.401628 
L 253.531761 212.813793 
L 254.072852 211.507204 
L 254.613943 213.416834 
L 255.155034 212.813793 
L 255.696125 212.713286 
L 256.237216 213.316327 
L 256.778307 215.12545 
L 257.319398 218.34167 
L 257.860489 218.64319 
L 258.40158 218.140656 
L 259.483761 219.949779 
L 260.024852 221.85941 
L 260.565943 222.763971 
L 261.107034 222.361944 
L 261.648125 220.452314 
L 262.189216 220.753834 
L 262.730307 220.150793 
L 263.271398 219.849272 
L 263.812489 218.944711 
L 264.35358 221.256368 
L 264.89467 222.562958 
L 265.435761 221.256368 
L 265.976852 220.55282 
L 266.517943 222.663464 
L 267.059034 221.256368 
L 267.600125 222.562958 
L 268.141216 222.663464 
L 268.682307 222.964985 
L 269.223398 226.482725 
L 269.764489 227.5883 
L 270.30558 229.296917 
L 270.84667 233.216684 
L 271.387761 234.32226 
L 271.928852 236.030876 
L 272.469943 235.528342 
L 273.552125 236.935438 
L 274.093216 238.342534 
L 274.634307 238.041013 
L 275.175398 239.649123 
L 275.716489 238.945575 
L 276.25758 241.357739 
L 277.339761 243.56889 
L 277.880852 245.277507 
L 278.421943 246.483589 
L 278.963034 246.282575 
L 279.504125 247.08663 
L 280.045216 247.488658 
L 280.586307 246.78511 
L 281.668489 247.790178 
L 282.20958 249.297781 
L 282.75067 250.403356 
L 283.291761 251.006398 
L 283.832852 252.011466 
L 284.373943 252.614507 
L 284.915034 252.614507 
L 285.456125 253.619576 
L 287.079398 254.524137 
L 287.620489 255.830727 
L 288.16158 255.931233 
L 289.243761 257.840864 
L 289.784852 259.24796 
L 290.325943 259.54948 
L 290.867034 261.15759 
L 291.408125 261.760631 
L 291.949216 261.559617 
L 292.490307 261.660124 
L 293.031398 262.062152 
L 293.572489 263.167727 
L 294.11358 262.7657 
L 294.65467 263.469248 
L 295.736852 264.373809 
L 296.277943 264.273302 
L 296.819034 264.775837 
L 297.360125 266.082426 
L 297.901216 266.283439 
L 298.442307 266.685467 
L 298.983398 266.283439 
L 299.524489 266.082426 
L 300.06558 266.182933 
L 300.60667 266.986987 
L 301.147761 267.590029 
L 302.229943 267.288508 
L 303.312125 268.896618 
L 303.853216 269.198138 
L 304.935398 269.198138 
L 305.476489 269.600166 
L 306.01758 270.605234 
L 306.55867 271.007262 
L 307.099761 270.303714 
L 308.181943 271.208275 
L 308.723034 270.806248 
L 309.264125 271.007262 
L 309.805216 271.409289 
L 310.346307 271.409289 
L 311.428489 272.112837 
L 312.51067 272.01233 
L 313.051761 270.906755 
L 313.592852 270.605234 
L 314.133943 270.504727 
L 314.675034 271.409289 
L 315.216125 272.01233 
L 315.757216 271.71081 
L 316.298307 272.514865 
L 316.839398 272.816385 
L 317.380489 272.615371 
L 317.92158 272.916892 
L 318.46267 273.017399 
L 319.003761 273.419426 
L 319.544852 273.62044 
L 320.627034 273.519933 
L 321.168125 273.419426 
L 321.709216 273.519933 
L 322.250307 273.419426 
L 323.332489 274.022467 
L 323.87358 273.92196 
L 325.496852 274.323988 
L 326.037943 274.826522 
L 326.579034 275.027536 
L 327.120125 275.027536 
L 327.661216 274.826522 
L 328.743398 274.927029 
L 329.82558 274.323988 
L 330.36667 274.323988 
L 331.448852 274.826522 
L 331.989943 274.726015 
L 334.695398 275.22855 
L 335.236489 275.128043 
L 335.77758 275.22855 
L 336.859761 275.731084 
L 337.400852 275.429563 
L 337.941943 275.53007 
L 338.483034 275.831591 
L 339.565216 275.932098 
L 340.647398 275.932098 
L 341.188489 275.731084 
L 343.352852 276.032604 
L 345.517216 275.731084 
L 346.058307 275.329056 
L 347.140489 275.53007 
L 348.22267 275.429563 
L 349.304852 275.53007 
L 350.928125 275.027536 
L 352.010307 275.22855 
L 354.715761 274.826522 
L 355.256852 275.027536 
L 355.797943 274.927029 
L 356.339034 275.22855 
L 356.880125 274.927029 
L 358.503398 274.625508 
L 359.044489 274.927029 
L 360.667761 274.826522 
L 361.749943 274.625508 
L 362.291034 274.726015 
L 363.373216 275.329056 
L 363.914307 275.027536 
L 364.996489 275.329056 
L 365.53758 275.429563 
L 366.07867 275.128043 
L 367.160852 275.329056 
L 367.701943 275.027536 
L 368.243034 275.027536 
L 369.325216 274.625508 
L 369.866307 274.726015 
L 370.407398 274.525002 
L 372.03067 274.525002 
L 372.571761 274.826522 
L 373.112852 274.927029 
L 373.653943 275.22855 
L 374.195034 274.927029 
L 374.736125 275.329056 
L 375.818307 275.53007 
L 376.900489 275.429563 
L 377.44158 275.731084 
L 378.523761 275.932098 
L 380.147034 275.731084 
L 381.229216 276.032604 
L 381.770307 276.032604 
L 382.311398 276.233618 
L 389.34558 276.233618 
L 389.88667 276.032604 
L 390.968852 275.932098 
L 392.051034 275.831591 
L 394.215398 275.831591 
L 394.215398 275.831591 
" style="fill:none;stroke:#29ffce;stroke-linecap:round;stroke-width:1.5;"/>
   </g>
   <g id="line2d_19">
    <path clip-path="url(#paf5bf83dd0)" d="M 69.560852 175.82727 
L 72.266307 104.366896 
L 73.348489 82.556909 
L 73.88958 75.018894 
L 74.43067 70.496086 
L 74.971761 69.591524 
L 75.512852 66.978346 
L 76.595034 70.496086 
L 77.136125 74.51636 
L 77.677216 82.154881 
L 78.218307 97.230909 
L 78.759398 104.366896 
L 79.84158 120.85002 
L 80.38267 127.483473 
L 80.923761 136.52909 
L 82.005943 159.545159 
L 82.547034 166.982667 
L 83.088125 178.641462 
L 83.629216 185.274914 
L 84.170307 197.536751 
L 84.711398 203.567162 
L 86.33467 227.28678 
L 87.957943 241.65926 
L 89.040125 247.388151 
L 89.581216 250.60437 
L 90.122307 251.910959 
L 90.663398 254.725151 
L 91.204489 255.629713 
L 91.74558 257.036809 
L 92.28667 260.554549 
L 93.909943 266.785974 
L 94.451034 267.489522 
L 94.992125 267.992056 
L 95.533216 268.19307 
L 96.074307 269.399152 
L 96.615398 271.107769 
L 97.69758 272.01233 
L 98.23867 272.414358 
L 98.779761 272.615371 
L 99.320852 273.117906 
L 99.861943 273.117906 
L 100.403034 273.419426 
L 100.944125 273.419426 
L 101.485216 273.92196 
L 102.026307 274.625508 
L 102.567398 274.625508 
L 103.108489 274.826522 
L 103.64958 274.323988 
L 104.19067 274.022467 
L 106.896125 274.525002 
L 107.437216 274.022467 
L 107.978307 274.223481 
L 108.519398 274.122974 
L 111.224852 274.525002 
L 111.765943 275.027536 
L 112.307034 275.128043 
L 112.848125 275.429563 
L 113.389216 275.22855 
L 114.471398 275.22855 
L 115.012489 275.53007 
L 116.09467 275.027536 
L 116.635761 275.329056 
L 118.259034 275.429563 
L 122.587761 276.233618 
L 123.128852 276.133111 
L 123.669943 276.334125 
L 394.215398 276.334125 
L 394.215398 276.334125 
" style="fill:none;stroke:#7dff7a;stroke-linecap:round;stroke-width:1.5;"/>
   </g>
   <g id="line2d_20">
    <path clip-path="url(#paf5bf83dd0)" d="M 69.560852 175.82727 
L 72.266307 94.617731 
L 73.348489 67.279867 
L 74.43067 48.786605 
L 75.512852 34.414125 
L 76.053943 35.620207 
L 76.595034 40.444536 
L 77.136125 53.1084 
L 79.300489 88.386306 
L 80.923761 126.880432 
L 81.464852 135.222501 
L 84.170307 184.872887 
L 84.711398 191.707353 
L 85.252489 200.75297 
L 87.416852 227.990328 
L 87.957943 233.819725 
L 88.499034 237.236958 
L 89.040125 239.046082 
L 89.581216 241.759767 
L 90.122307 243.26737 
L 90.663398 246.78511 
L 91.204489 248.393219 
L 92.28667 253.318055 
L 93.368852 258.242891 
L 93.909943 258.845932 
L 94.451034 262.263165 
L 95.533216 264.67533 
L 96.074307 265.278371 
L 96.615398 264.172796 
L 97.69758 266.58496 
L 98.23867 267.188001 
L 99.320852 267.288508 
L 99.861943 266.685467 
L 100.403034 267.690535 
L 101.485216 267.791042 
L 102.026307 268.19307 
L 102.567398 269.097631 
L 103.108489 269.298645 
L 103.64958 268.896618 
L 104.19067 269.901686 
L 104.731761 270.203207 
L 105.813943 269.298645 
L 106.355034 269.700673 
L 106.896125 269.901686 
L 107.437216 270.404221 
L 107.978307 271.107769 
L 108.519398 271.409289 
L 109.060489 271.007262 
L 109.60158 271.007262 
L 110.14267 271.610303 
L 110.683761 271.610303 
L 111.765943 272.615371 
L 112.848125 272.514865 
L 113.389216 272.615371 
L 113.930307 273.117906 
L 115.55358 273.62044 
L 116.09467 273.519933 
L 116.635761 273.62044 
L 117.176852 273.318919 
L 117.717943 273.519933 
L 119.341216 273.318919 
L 119.882307 273.519933 
L 120.423398 273.218412 
L 121.50558 274.022467 
L 122.04667 273.92196 
L 122.587761 274.022467 
L 123.669943 274.726015 
L 124.211034 274.726015 
L 124.752125 275.027536 
L 126.375398 275.027536 
L 126.916489 275.22855 
L 127.99867 274.927029 
L 128.539761 275.128043 
L 129.080852 275.128043 
L 129.621943 275.53007 
L 130.704125 275.22855 
L 131.786307 275.53007 
L 136.656125 275.630577 
L 137.738307 275.731084 
L 139.36158 275.630577 
L 140.443761 275.429563 
L 140.984852 275.630577 
L 141.525943 275.429563 
L 143.690307 275.329056 
L 144.772489 275.027536 
L 145.31358 274.826522 
L 145.85467 274.424495 
L 146.395761 274.525002 
L 146.936852 274.223481 
L 147.477943 274.223481 
L 148.019034 274.022467 
L 148.560125 273.62044 
L 149.101216 273.62044 
L 149.642307 273.419426 
L 150.724489 273.92196 
L 151.26558 273.519933 
L 152.347761 273.218412 
L 152.888852 273.218412 
L 153.429943 272.615371 
L 153.971034 272.715878 
L 154.512125 273.017399 
L 155.053216 272.414358 
L 155.594307 272.112837 
L 156.135398 272.816385 
L 156.676489 273.017399 
L 157.21758 272.715878 
L 157.75867 272.816385 
L 158.840852 272.615371 
L 159.923034 273.017399 
L 160.464125 272.715878 
L 161.005216 272.615371 
L 162.087398 272.816385 
L 162.628489 273.218412 
L 163.16958 273.117906 
L 163.71067 273.218412 
L 164.251761 273.017399 
L 164.792852 272.615371 
L 165.333943 273.218412 
L 165.875034 273.117906 
L 166.416125 273.218412 
L 167.498307 272.816385 
L 168.039398 272.313851 
L 169.12158 272.916892 
L 169.66267 273.419426 
L 170.203761 272.916892 
L 170.744852 272.715878 
L 171.827034 273.017399 
L 173.450307 272.01233 
L 173.991398 271.610303 
L 174.532489 272.313851 
L 175.07358 272.514865 
L 176.155761 272.313851 
L 177.237943 271.811317 
L 177.779034 271.911823 
L 178.320125 272.414358 
L 179.402307 272.514865 
L 179.943398 272.514865 
L 180.484489 272.715878 
L 181.02558 273.218412 
L 182.107761 273.419426 
L 183.189943 273.117906 
L 183.731034 272.514865 
L 184.272125 272.615371 
L 185.354307 272.213344 
L 186.436489 273.017399 
L 186.97758 273.218412 
L 187.51867 273.218412 
L 188.600852 273.720947 
L 189.683034 273.62044 
L 190.224125 273.117906 
L 190.765216 273.720947 
L 191.306307 273.821454 
L 191.847398 274.323988 
L 192.388489 274.323988 
L 192.92958 274.525002 
L 193.47067 274.323988 
L 194.011761 274.323988 
L 194.552852 274.726015 
L 196.176125 274.826522 
L 196.717216 275.027536 
L 197.258307 274.826522 
L 197.799398 274.826522 
L 198.340489 275.027536 
L 199.42267 274.927029 
L 199.963761 274.424495 
L 200.504852 274.424495 
L 201.045943 274.223481 
L 201.587034 274.424495 
L 202.128125 273.92196 
L 202.669216 274.022467 
L 203.210307 274.424495 
L 203.751398 274.525002 
L 204.292489 274.323988 
L 204.83358 274.323988 
L 205.37467 274.525002 
L 205.915761 274.424495 
L 206.456852 274.525002 
L 206.997943 274.424495 
L 207.539034 274.525002 
L 209.703398 274.223481 
L 210.244489 273.821454 
L 211.32667 273.821454 
L 211.867761 274.122974 
L 212.949943 273.720947 
L 213.491034 273.92196 
L 214.032125 273.92196 
L 214.573216 273.62044 
L 215.114307 273.62044 
L 215.655398 273.218412 
L 216.196489 273.117906 
L 216.73758 273.218412 
L 217.27867 273.519933 
L 217.819761 273.318919 
L 219.443034 273.218412 
L 219.984125 273.117906 
L 220.525216 273.720947 
L 222.68958 273.720947 
L 223.23067 273.017399 
L 223.771761 273.017399 
L 224.312852 273.218412 
L 225.395034 273.117906 
L 225.936125 273.419426 
L 227.018307 273.720947 
L 228.100489 274.022467 
L 228.64158 274.525002 
L 229.723761 274.525002 
L 230.264852 274.223481 
L 230.805943 274.122974 
L 231.347034 274.323988 
L 231.888125 273.92196 
L 232.970307 274.424495 
L 234.052489 274.625508 
L 234.59358 274.424495 
L 235.13467 274.525002 
L 235.675761 274.424495 
L 236.216852 274.525002 
L 236.757943 274.826522 
L 237.299034 274.826522 
L 237.840125 274.625508 
L 238.381216 274.927029 
L 239.463398 274.625508 
L 240.004489 274.826522 
L 241.08667 274.826522 
L 242.168852 275.53007 
L 243.251034 275.329056 
L 244.333216 275.53007 
L 244.874307 275.329056 
L 246.49758 275.22855 
L 247.03867 275.53007 
L 248.120852 275.53007 
L 249.203034 275.22855 
L 250.285216 275.329056 
L 254.072852 274.525002 
L 255.155034 273.821454 
L 256.237216 274.022467 
L 256.778307 274.424495 
L 257.319398 274.022467 
L 257.860489 273.821454 
L 258.40158 273.419426 
L 259.483761 273.62044 
L 260.024852 273.519933 
L 260.565943 272.816385 
L 261.107034 272.615371 
L 262.730307 273.017399 
L 263.271398 272.715878 
L 265.976852 273.218412 
L 266.517943 273.017399 
L 267.059034 273.519933 
L 268.682307 273.117906 
L 269.223398 272.715878 
L 270.30558 272.615371 
L 270.84667 272.816385 
L 271.928852 273.92196 
L 273.011034 273.821454 
L 273.552125 274.122974 
L 274.093216 274.223481 
L 274.634307 274.122974 
L 275.716489 274.323988 
L 276.79867 273.821454 
L 278.421943 274.424495 
L 278.963034 274.223481 
L 279.504125 274.424495 
L 280.586307 274.424495 
L 281.127398 274.726015 
L 281.668489 274.424495 
L 283.832852 274.424495 
L 284.373943 274.726015 
L 284.915034 274.323988 
L 285.456125 274.323988 
L 286.538307 274.625508 
L 287.620489 274.525002 
L 288.70267 274.323988 
L 289.243761 274.625508 
L 289.784852 274.726015 
L 290.867034 275.22855 
L 291.408125 275.329056 
L 291.949216 275.630577 
L 292.490307 275.429563 
L 293.572489 275.429563 
L 294.65467 275.731084 
L 299.524489 275.630577 
L 300.60667 275.429563 
L 302.771034 275.831591 
L 303.853216 275.429563 
L 306.55867 275.329056 
L 307.099761 275.027536 
L 308.181943 274.927029 
L 308.723034 275.22855 
L 309.264125 274.826522 
L 313.592852 274.726015 
L 314.133943 274.625508 
L 314.675034 274.826522 
L 315.216125 274.625508 
L 315.757216 274.726015 
L 316.298307 274.625508 
L 316.839398 275.128043 
L 317.380489 274.927029 
L 318.46267 274.826522 
L 319.003761 274.625508 
L 321.168125 275.329056 
L 322.250307 275.429563 
L 322.791398 275.731084 
L 325.496852 275.831591 
L 326.037943 275.932098 
L 327.120125 275.630577 
L 327.661216 275.731084 
L 328.202307 275.630577 
L 328.743398 275.932098 
L 329.82558 276.032604 
L 331.448852 275.831591 
L 334.154307 275.932098 
L 335.236489 276.133111 
L 335.77758 275.831591 
L 336.859761 275.731084 
L 339.024125 275.329056 
L 340.106307 275.429563 
L 340.647398 275.22855 
L 342.811761 275.329056 
L 343.893943 275.630577 
L 344.976125 275.831591 
L 345.517216 275.630577 
L 349.845943 275.731084 
L 350.387034 275.932098 
L 351.469216 275.932098 
L 352.010307 275.731084 
L 352.551398 275.731084 
L 353.63358 276.032604 
L 354.715761 276.133111 
L 361.749943 276.233618 
L 362.832125 276.334125 
L 394.215398 276.334125 
L 394.215398 276.334125 
" style="fill:none;stroke:#ceff29;stroke-linecap:round;stroke-width:1.5;"/>
   </g>
   <g id="line2d_21">
    <path clip-path="url(#paf5bf83dd0)" d="M 69.560852 175.82727 
L 70.643034 145.876227 
L 72.807398 83.059443 
L 73.88958 64.264661 
L 74.43067 57.932729 
L 74.971761 56.62614 
L 75.512852 50.897249 
L 77.136125 61.75199 
L 77.677216 65.370236 
L 78.218307 74.114333 
L 79.300489 94.416717 
L 79.84158 102.055238 
L 81.464852 139.544295 
L 82.005943 154.72083 
L 82.547034 163.062899 
L 83.088125 174.21916 
L 83.629216 182.762243 
L 84.170307 195.124586 
L 84.711398 202.763107 
L 85.252489 207.78845 
L 85.79358 214.220889 
L 86.33467 218.944711 
L 86.875761 227.186273 
L 87.416852 232.613643 
L 87.957943 234.422766 
L 89.040125 244.975986 
L 89.581216 246.986123 
L 90.122307 251.508932 
L 90.663398 252.614507 
L 91.204489 254.624644 
L 91.74558 256.03174 
L 92.28667 256.634781 
L 92.827761 260.253028 
L 93.368852 260.554549 
L 94.992125 264.97685 
L 96.615398 267.288508 
L 97.156489 266.886481 
L 97.69758 267.288508 
L 98.23867 268.394083 
L 99.320852 269.600166 
L 99.861943 270.002193 
L 100.403034 269.801179 
L 101.485216 270.906755 
L 102.026307 271.107769 
L 102.567398 271.509796 
L 103.64958 271.409289 
L 104.19067 271.610303 
L 104.731761 272.01233 
L 105.272852 272.01233 
L 106.355034 271.308782 
L 106.896125 270.404221 
L 107.437216 270.404221 
L 107.978307 270.806248 
L 108.519398 270.705741 
L 109.60158 271.409289 
L 110.683761 271.208275 
L 111.224852 271.610303 
L 113.389216 272.313851 
L 113.930307 272.213344 
L 114.471398 273.017399 
L 115.012489 272.514865 
L 115.55358 272.313851 
L 116.09467 273.017399 
L 116.635761 273.117906 
L 117.717943 272.615371 
L 118.800125 273.117906 
L 119.882307 273.821454 
L 120.964489 273.419426 
L 121.50558 273.720947 
L 122.04667 273.519933 
L 122.587761 273.720947 
L 123.128852 273.720947 
L 124.211034 273.017399 
L 124.752125 272.916892 
L 125.293216 273.117906 
L 126.375398 273.017399 
L 126.916489 272.615371 
L 127.45758 272.414358 
L 127.99867 273.117906 
L 128.539761 273.017399 
L 129.621943 272.514865 
L 131.786307 272.916892 
L 132.868489 272.715878 
L 133.40958 272.816385 
L 133.95067 272.313851 
L 135.573943 272.615371 
L 136.656125 272.313851 
L 137.197216 272.916892 
L 137.738307 272.715878 
L 138.279398 273.017399 
L 138.820489 272.916892 
L 139.36158 272.615371 
L 140.443761 272.916892 
L 140.984852 272.715878 
L 141.525943 273.117906 
L 142.067034 272.816385 
L 143.149216 273.117906 
L 143.690307 272.816385 
L 144.231398 272.816385 
L 144.772489 272.313851 
L 145.31358 272.01233 
L 145.85467 272.313851 
L 146.395761 271.71081 
L 146.936852 271.71081 
L 149.101216 272.414358 
L 150.183398 272.514865 
L 151.26558 272.414358 
L 151.80667 272.916892 
L 152.347761 272.414358 
L 152.888852 272.213344 
L 153.429943 271.107769 
L 153.971034 271.107769 
L 154.512125 271.610303 
L 155.053216 271.409289 
L 155.594307 271.610303 
L 156.135398 271.409289 
L 156.676489 271.409289 
L 157.21758 272.112837 
L 157.75867 272.414358 
L 159.381943 272.213344 
L 159.923034 271.811317 
L 160.464125 271.811317 
L 161.546307 271.308782 
L 162.087398 270.906755 
L 162.628489 270.906755 
L 163.16958 271.107769 
L 163.71067 271.107769 
L 164.251761 270.504727 
L 164.792852 270.1027 
L 165.875034 269.600166 
L 166.416125 269.700673 
L 166.957216 269.600166 
L 168.039398 269.901686 
L 168.580489 270.203207 
L 169.66267 270.203207 
L 170.203761 270.504727 
L 170.744852 269.901686 
L 171.827034 268.293577 
L 172.368125 268.695604 
L 172.909216 268.796111 
L 173.991398 266.685467 
L 174.532489 266.986987 
L 175.07358 266.986987 
L 175.61467 268.092563 
L 176.155761 267.992056 
L 177.237943 268.092563 
L 177.779034 267.590029 
L 178.320125 266.785974 
L 178.861216 267.389015 
L 179.402307 267.791042 
L 180.484489 267.087494 
L 181.02558 266.182933 
L 181.56667 266.484453 
L 182.107761 266.58496 
L 182.648852 266.383946 
L 183.189943 267.087494 
L 183.731034 266.785974 
L 184.272125 267.188001 
L 186.97758 266.182933 
L 187.51867 266.283439 
L 188.059761 265.981919 
L 188.600852 264.373809 
L 189.141943 264.072289 
L 189.683034 263.167727 
L 190.224125 262.966713 
L 190.765216 263.368741 
L 191.306307 262.665193 
L 191.847398 262.464179 
L 192.388489 261.15759 
L 192.92958 261.258097 
L 194.011761 260.152521 
L 194.552852 260.052014 
L 195.093943 259.448973 
L 195.635034 259.448973 
L 196.176125 258.946439 
L 196.717216 258.745425 
L 197.258307 257.63985 
L 198.340489 258.644919 
L 199.963761 257.137316 
L 200.504852 258.142384 
L 201.045943 257.438836 
L 201.587034 258.544412 
L 202.128125 258.644919 
L 202.669216 259.24796 
L 203.210307 258.142384 
L 203.751398 258.343398 
L 204.292489 259.046946 
L 204.83358 259.54948 
L 205.37467 258.242891 
L 205.915761 258.242891 
L 206.456852 257.840864 
L 206.997943 256.333261 
L 207.539034 256.634781 
L 208.080125 256.232754 
L 208.621216 256.333261 
L 209.162307 256.634781 
L 210.78558 254.021603 
L 211.32667 253.619576 
L 211.867761 254.624644 
L 212.408852 254.12211 
L 212.949943 252.514 
L 213.491034 252.815521 
L 214.032125 252.916028 
L 214.573216 252.413494 
L 215.655398 252.312987 
L 216.196489 251.408425 
L 216.73758 250.905891 
L 217.819761 251.307918 
L 218.360852 252.715014 
L 218.901943 252.514 
L 219.443034 253.619576 
L 219.984125 254.323124 
L 220.525216 253.619576 
L 221.066307 253.418562 
L 221.607398 253.016535 
L 222.148489 251.910959 
L 222.68958 252.815521 
L 223.23067 252.614507 
L 223.771761 252.916028 
L 224.312852 251.910959 
L 225.395034 250.503863 
L 225.936125 250.30285 
L 226.477216 248.69474 
L 227.018307 249.498795 
L 227.559398 249.599302 
L 228.100489 248.69474 
L 229.18267 249.900822 
L 229.723761 248.99626 
L 230.805943 248.895754 
L 231.347034 249.297781 
L 231.888125 249.096767 
L 232.429216 248.594233 
L 232.970307 250.60437 
L 233.511398 251.106904 
L 234.052489 250.704877 
L 234.59358 249.800315 
L 235.13467 248.091699 
L 235.675761 247.488658 
L 236.216852 248.192206 
L 236.757943 247.187137 
L 237.299034 246.483589 
L 237.840125 246.885616 
L 238.381216 246.584096 
L 239.463398 249.398288 
L 240.004489 248.895754 
L 240.54558 249.096767 
L 241.08667 250.403356 
L 241.627761 247.287644 
L 242.168852 248.795247 
L 242.709943 248.99626 
L 243.251034 250.101836 
L 243.792125 250.202343 
L 244.333216 252.011466 
L 244.874307 252.21248 
L 245.415398 252.21248 
L 246.49758 254.725151 
L 247.03867 255.830727 
L 247.579761 254.926165 
L 248.661943 254.423631 
L 249.203034 255.127179 
L 249.744125 255.026672 
L 250.285216 255.529206 
L 250.826307 256.835795 
L 251.367398 256.232754 
L 251.908489 257.237823 
L 252.99067 255.931233 
L 254.072852 255.328192 
L 254.613943 257.036809 
L 255.696125 256.735288 
L 256.237216 256.03174 
L 257.319398 256.132247 
L 257.860489 256.835795 
L 258.40158 255.931233 
L 258.94267 256.534275 
L 259.483761 257.338329 
L 260.024852 257.840864 
L 260.565943 258.041877 
L 261.107034 258.845932 
L 262.189216 258.142384 
L 262.730307 258.544412 
L 263.271398 258.142384 
L 263.812489 256.534275 
L 264.35358 256.936302 
L 264.89467 256.835795 
L 265.976852 256.132247 
L 266.517943 256.936302 
L 267.059034 256.232754 
L 267.600125 257.941371 
L 268.141216 258.041877 
L 268.682307 257.941371 
L 269.223398 258.242891 
L 269.764489 258.745425 
L 270.30558 259.448973 
L 270.84667 259.24796 
L 271.387761 258.745425 
L 271.928852 258.845932 
L 272.469943 258.745425 
L 273.011034 258.142384 
L 273.552125 259.24796 
L 274.093216 258.041877 
L 275.175398 257.740357 
L 277.880852 259.649987 
L 278.421943 259.649987 
L 278.963034 261.861138 
L 279.504125 261.760631 
L 280.045216 261.15759 
L 280.586307 262.263165 
L 281.127398 261.559617 
L 281.668489 262.564686 
L 282.20958 262.7657 
L 282.75067 263.871275 
L 283.291761 264.072289 
L 283.832852 264.775837 
L 284.373943 264.574823 
L 284.915034 265.077357 
L 285.456125 264.876344 
L 286.538307 266.484453 
L 287.079398 266.484453 
L 288.16158 265.780905 
L 288.70267 265.981919 
L 289.243761 266.685467 
L 289.784852 266.986987 
L 290.867034 267.087494 
L 291.408125 266.484453 
L 291.949216 266.785974 
L 292.490307 266.383946 
L 293.031398 266.283439 
L 294.11358 266.785974 
L 294.65467 266.58496 
L 295.195761 266.785974 
L 295.736852 267.489522 
L 296.277943 266.886481 
L 296.819034 267.891549 
L 297.360125 266.886481 
L 298.983398 266.283439 
L 299.524489 265.077357 
L 300.06558 265.680398 
L 302.229943 267.188001 
L 302.771034 266.785974 
L 303.312125 267.288508 
L 303.853216 266.383946 
L 304.394307 266.58496 
L 304.935398 267.590029 
L 305.476489 267.590029 
L 306.01758 266.685467 
L 306.55867 266.58496 
L 307.099761 266.082426 
L 307.640852 266.785974 
L 308.181943 266.58496 
L 308.723034 266.785974 
L 309.264125 267.489522 
L 309.805216 268.595097 
L 310.346307 268.293577 
L 311.428489 268.49459 
L 312.51067 269.298645 
L 314.133943 270.002193 
L 314.675034 269.198138 
L 315.757216 269.901686 
L 316.839398 269.399152 
L 317.380489 270.002193 
L 317.92158 270.1027 
L 318.46267 269.700673 
L 320.085943 270.705741 
L 320.627034 269.700673 
L 321.168125 269.901686 
L 322.250307 270.002193 
L 322.791398 270.705741 
L 323.87358 270.806248 
L 324.41467 271.308782 
L 324.955761 271.007262 
L 325.496852 271.208275 
L 326.037943 270.906755 
L 326.579034 270.806248 
L 327.120125 270.906755 
L 327.661216 270.806248 
L 328.202307 271.107769 
L 328.743398 271.107769 
L 329.284489 271.71081 
L 329.82558 271.610303 
L 330.36667 272.112837 
L 330.907761 272.112837 
L 332.531034 272.615371 
L 334.154307 272.615371 
L 334.695398 272.01233 
L 335.236489 271.911823 
L 336.31867 272.213344 
L 336.859761 272.213344 
L 337.400852 272.514865 
L 337.941943 272.414358 
L 338.483034 272.715878 
L 339.024125 272.715878 
L 339.565216 273.519933 
L 340.106307 273.017399 
L 340.647398 273.519933 
L 341.188489 273.117906 
L 341.72958 273.519933 
L 343.893943 273.62044 
L 344.435034 273.821454 
L 344.976125 273.519933 
L 345.517216 273.821454 
L 346.058307 273.92196 
L 346.599398 273.821454 
L 347.140489 274.223481 
L 347.68158 274.424495 
L 348.763761 274.525002 
L 349.304852 274.826522 
L 352.010307 275.22855 
L 354.17467 274.525002 
L 354.715761 274.726015 
L 355.797943 274.826522 
L 356.339034 275.027536 
L 356.880125 274.625508 
L 357.421216 274.826522 
L 357.962307 274.625508 
L 358.503398 275.027536 
L 361.749943 275.027536 
L 363.373216 274.323988 
L 363.914307 274.424495 
L 364.455398 274.927029 
L 364.996489 274.826522 
L 366.07867 274.323988 
L 367.701943 274.122974 
L 368.243034 274.122974 
L 369.866307 275.027536 
L 370.407398 274.625508 
L 370.948489 274.826522 
L 371.48958 274.726015 
L 372.03067 275.027536 
L 372.571761 274.927029 
L 373.112852 275.128043 
L 374.195034 275.027536 
L 374.736125 275.128043 
L 375.277216 274.927029 
L 376.900489 275.027536 
L 380.147034 275.53007 
L 380.688125 275.429563 
L 385.557943 276.233618 
L 389.34558 276.133111 
L 390.427761 276.032604 
L 392.051034 276.233618 
L 394.215398 276.334125 
L 394.215398 276.334125 
" style="fill:none;stroke:#ffc400;stroke-linecap:round;stroke-width:1.5;"/>
   </g>
   <g id="line2d_22">
    <path clip-path="url(#paf5bf83dd0)" d="M 69.560852 175.82727 
L 70.643034 145.373693 
L 72.266307 96.527361 
L 72.807398 82.858429 
L 73.348489 73.209771 
L 73.88958 65.57125 
L 74.43067 62.154017 
L 74.971761 59.741852 
L 75.512852 58.435263 
L 76.053943 61.75199 
L 77.136125 70.395579 
L 77.677216 76.325484 
L 78.218307 87.883772 
L 78.759398 93.009621 
L 79.300489 103.663348 
L 80.38267 129.895637 
L 80.923761 140.247843 
L 81.464852 147.283323 
L 82.547034 168.088242 
L 83.088125 179.546024 
L 83.629216 187.687079 
L 84.170307 192.611915 
L 84.711398 201.858545 
L 85.252489 209.095039 
L 86.33467 220.150793 
L 87.416852 232.915164 
L 87.957943 237.84 
L 88.499034 240.352671 
L 89.040125 243.970918 
L 89.581216 245.478521 
L 90.663398 251.810452 
L 91.74558 253.921096 
L 92.28667 256.735288 
L 92.827761 258.845932 
L 93.368852 259.750494 
L 94.451034 263.670261 
L 94.992125 264.172796 
L 95.533216 263.971782 
L 96.074307 264.273302 
L 96.615398 264.172796 
L 98.23867 267.288508 
L 99.861943 268.293577 
L 100.403034 268.092563 
L 100.944125 268.394083 
L 101.485216 269.499659 
L 102.026307 269.600166 
L 102.567398 269.298645 
L 103.108489 271.107769 
L 103.64958 271.308782 
L 104.731761 273.017399 
L 105.272852 273.519933 
L 105.813943 273.318919 
L 106.355034 273.318919 
L 106.896125 273.62044 
L 107.437216 274.122974 
L 107.978307 273.519933 
L 110.683761 272.514865 
L 111.224852 272.715878 
L 111.765943 273.117906 
L 112.307034 272.816385 
L 112.848125 272.715878 
L 113.930307 272.916892 
L 114.471398 272.715878 
L 115.012489 272.916892 
L 116.09467 273.017399 
L 116.635761 273.218412 
L 117.176852 273.017399 
L 117.717943 273.017399 
L 118.259034 272.313851 
L 118.800125 272.01233 
L 119.341216 271.509796 
L 120.423398 271.610303 
L 122.04667 271.007262 
L 122.587761 271.308782 
L 124.211034 270.504727 
L 124.752125 270.705741 
L 125.293216 271.308782 
L 125.834307 271.208275 
L 126.375398 271.308782 
L 126.916489 271.811317 
L 127.99867 271.911823 
L 129.080852 271.71081 
L 129.621943 272.213344 
L 130.704125 272.313851 
L 131.786307 273.017399 
L 132.327398 272.816385 
L 133.40958 273.218412 
L 133.95067 272.615371 
L 134.491761 272.916892 
L 135.032852 272.313851 
L 135.573943 272.916892 
L 136.656125 273.218412 
L 137.197216 273.318919 
L 137.738307 273.62044 
L 138.279398 273.419426 
L 138.820489 273.519933 
L 139.90267 273.218412 
L 140.443761 273.017399 
L 140.984852 273.017399 
L 141.525943 273.318919 
L 143.149216 273.62044 
L 143.690307 273.92196 
L 144.772489 274.022467 
L 145.31358 274.122974 
L 145.85467 274.022467 
L 146.395761 274.323988 
L 147.477943 274.424495 
L 148.560125 273.519933 
L 149.642307 272.715878 
L 150.724489 272.916892 
L 151.26558 272.313851 
L 151.80667 272.816385 
L 152.347761 272.816385 
L 152.888852 272.514865 
L 153.429943 272.615371 
L 153.971034 272.916892 
L 154.512125 272.816385 
L 155.053216 273.318919 
L 155.594307 272.715878 
L 157.75867 273.117906 
L 158.299761 273.419426 
L 159.923034 273.720947 
L 162.087398 272.514865 
L 162.628489 272.916892 
L 163.16958 272.01233 
L 163.71067 272.01233 
L 164.792852 271.610303 
L 165.333943 271.007262 
L 166.416125 270.1027 
L 166.957216 269.600166 
L 167.498307 269.901686 
L 168.039398 269.600166 
L 168.580489 269.801179 
L 169.12158 269.097631 
L 169.66267 268.896618 
L 170.203761 269.097631 
L 170.744852 268.896618 
L 171.285943 267.690535 
L 171.827034 267.891549 
L 172.368125 267.590029 
L 173.991398 267.389015 
L 174.532489 267.590029 
L 175.07358 267.389015 
L 175.61467 266.283439 
L 176.155761 265.479385 
L 176.696852 265.881412 
L 177.237943 266.685467 
L 177.779034 266.283439 
L 178.320125 265.378878 
L 178.861216 266.383946 
L 179.402307 265.378878 
L 179.943398 266.182933 
L 183.189943 265.077357 
L 183.731034 265.479385 
L 184.272125 265.479385 
L 184.813216 266.383946 
L 185.354307 266.785974 
L 185.895398 267.389015 
L 186.436489 267.791042 
L 186.97758 267.590029 
L 187.51867 268.293577 
L 188.059761 269.499659 
L 188.600852 270.1027 
L 189.141943 269.700673 
L 189.683034 269.901686 
L 190.765216 270.806248 
L 192.388489 270.605234 
L 192.92958 270.806248 
L 193.47067 270.806248 
L 194.011761 271.208275 
L 194.552852 271.308782 
L 195.093943 271.107769 
L 195.635034 270.504727 
L 196.176125 270.203207 
L 196.717216 270.1027 
L 197.258307 269.097631 
L 198.340489 270.1027 
L 198.88158 270.303714 
L 199.42267 270.1027 
L 199.963761 270.303714 
L 200.504852 270.002193 
L 201.045943 270.303714 
L 201.587034 269.801179 
L 202.128125 269.901686 
L 203.210307 269.700673 
L 203.751398 269.801179 
L 204.292489 269.499659 
L 204.83358 269.399152 
L 205.915761 270.1027 
L 206.456852 270.1027 
L 206.997943 269.298645 
L 207.539034 268.796111 
L 208.080125 268.595097 
L 208.621216 267.690535 
L 209.162307 267.992056 
L 209.703398 267.791042 
L 210.78558 267.891549 
L 211.32667 267.590029 
L 212.408852 266.283439 
L 212.949943 266.785974 
L 213.491034 266.58496 
L 214.032125 266.886481 
L 214.573216 266.182933 
L 215.114307 266.383946 
L 215.655398 266.283439 
L 216.196489 266.986987 
L 216.73758 266.785974 
L 217.27867 266.986987 
L 218.360852 266.886481 
L 218.901943 266.182933 
L 220.525216 267.590029 
L 221.066307 267.690535 
L 221.607398 267.188001 
L 222.148489 268.19307 
L 222.68958 268.49459 
L 223.23067 268.293577 
L 223.771761 268.896618 
L 224.853943 268.695604 
L 225.395034 268.092563 
L 225.936125 267.992056 
L 226.477216 267.288508 
L 227.018307 267.791042 
L 227.559398 266.986987 
L 228.100489 267.087494 
L 228.64158 266.383946 
L 229.18267 266.986987 
L 229.723761 268.19307 
L 230.805943 268.293577 
L 231.888125 267.590029 
L 232.429216 267.791042 
L 232.970307 266.685467 
L 233.511398 267.087494 
L 234.052489 266.182933 
L 235.13467 266.283439 
L 235.675761 266.283439 
L 236.216852 266.685467 
L 236.757943 266.685467 
L 237.299034 265.680398 
L 237.840125 266.283439 
L 238.381216 267.087494 
L 238.922307 266.785974 
L 239.463398 267.288508 
L 240.54558 266.886481 
L 241.08667 267.690535 
L 241.627761 268.19307 
L 242.168852 268.896618 
L 242.709943 269.399152 
L 243.251034 269.097631 
L 243.792125 268.394083 
L 244.333216 268.394083 
L 244.874307 268.092563 
L 245.415398 268.695604 
L 245.956489 268.997125 
L 246.49758 268.394083 
L 247.03867 268.394083 
L 247.579761 268.595097 
L 248.120852 268.49459 
L 248.661943 268.997125 
L 249.203034 268.796111 
L 249.744125 268.394083 
L 250.285216 268.293577 
L 250.826307 267.992056 
L 251.367398 268.49459 
L 251.908489 268.394083 
L 252.44958 268.595097 
L 253.531761 268.49459 
L 254.072852 268.595097 
L 255.155034 269.198138 
L 255.696125 269.198138 
L 256.237216 268.896618 
L 257.319398 269.198138 
L 257.860489 269.700673 
L 258.94267 269.198138 
L 259.483761 269.298645 
L 260.024852 268.997125 
L 261.107034 269.499659 
L 261.648125 269.298645 
L 262.189216 268.695604 
L 262.730307 269.600166 
L 263.271398 270.1027 
L 264.35358 270.203207 
L 264.89467 271.107769 
L 266.517943 271.308782 
L 267.059034 271.107769 
L 268.141216 271.811317 
L 268.682307 272.112837 
L 269.223398 272.615371 
L 269.764489 272.514865 
L 270.30558 272.715878 
L 271.387761 272.715878 
L 271.928852 272.313851 
L 272.469943 272.112837 
L 273.011034 272.414358 
L 273.552125 272.414358 
L 274.634307 271.911823 
L 275.175398 272.213344 
L 275.716489 272.213344 
L 276.25758 271.71081 
L 278.421943 272.112837 
L 278.963034 271.911823 
L 279.504125 271.409289 
L 281.127398 270.605234 
L 282.20958 270.303714 
L 282.75067 270.906755 
L 283.832852 271.007262 
L 284.373943 271.409289 
L 284.915034 270.906755 
L 285.456125 271.007262 
L 285.997216 270.705741 
L 286.538307 271.308782 
L 287.079398 271.610303 
L 287.620489 271.308782 
L 288.16158 271.208275 
L 289.243761 272.01233 
L 289.784852 272.615371 
L 290.325943 273.017399 
L 292.490307 273.92196 
L 293.031398 273.720947 
L 294.11358 274.022467 
L 295.195761 274.726015 
L 296.277943 275.027536 
L 296.819034 274.726015 
L 297.360125 274.726015 
L 298.442307 274.223481 
L 298.983398 274.022467 
L 300.06558 274.525002 
L 300.60667 274.424495 
L 301.147761 274.826522 
L 302.771034 274.625508 
L 303.312125 274.022467 
L 303.853216 274.424495 
L 304.394307 274.525002 
L 305.476489 274.323988 
L 306.01758 274.625508 
L 308.181943 274.122974 
L 308.723034 274.323988 
L 309.264125 274.223481 
L 309.805216 274.424495 
L 310.346307 274.022467 
L 311.428489 274.122974 
L 311.96958 274.022467 
L 312.51067 274.122974 
L 313.051761 274.525002 
L 313.592852 274.223481 
L 314.675034 274.424495 
L 315.757216 274.223481 
L 316.298307 274.424495 
L 316.839398 274.022467 
L 319.003761 274.424495 
L 319.544852 274.726015 
L 320.085943 274.625508 
L 320.627034 275.22855 
L 321.168125 275.027536 
L 321.709216 275.027536 
L 322.791398 275.630577 
L 323.332489 275.731084 
L 324.955761 275.53007 
L 326.037943 275.630577 
L 327.120125 275.53007 
L 328.202307 275.630577 
L 328.743398 275.731084 
L 329.284489 275.53007 
L 330.36667 275.630577 
L 331.448852 275.731084 
L 332.531034 275.630577 
L 333.072125 275.22855 
L 334.154307 274.726015 
L 334.695398 274.826522 
L 335.236489 274.525002 
L 335.77758 274.826522 
L 336.31867 274.726015 
L 336.859761 274.826522 
L 337.400852 274.424495 
L 337.941943 274.424495 
L 339.024125 274.122974 
L 339.565216 274.022467 
L 341.188489 274.424495 
L 341.72958 274.625508 
L 342.27067 275.22855 
L 343.352852 274.726015 
L 343.893943 274.726015 
L 344.976125 275.22855 
L 345.517216 275.128043 
L 347.140489 275.630577 
L 349.845943 275.731084 
L 350.928125 276.032604 
L 351.469216 275.932098 
L 352.010307 276.133111 
L 354.17467 276.133111 
L 354.715761 276.334125 
L 394.215398 276.334125 
L 394.215398 276.334125 
" style="fill:none;stroke:#ff6800;stroke-linecap:round;stroke-width:1.5;"/>
   </g>
   <g id="line2d_23">
    <path clip-path="url(#paf5bf83dd0)" d="M 69.560852 175.82727 
L 72.807398 73.712305 
L 73.348489 62.455538 
L 73.88958 57.229181 
L 74.43067 47.580523 
L 74.971761 43.660756 
L 75.512852 41.751125 
L 76.053943 44.565317 
L 76.595034 50.595729 
L 77.136125 58.033236 
L 77.677216 68.385442 
L 78.218307 81.350826 
L 79.300489 101.552704 
L 80.923761 142.760515 
L 81.464852 150.801063 
L 82.005943 160.851749 
L 83.088125 183.566298 
L 83.629216 194.220024 
L 85.79358 222.562958 
L 87.416852 238.041013 
L 87.957943 240.151657 
L 88.499034 244.171931 
L 89.581216 248.99626 
L 90.122307 253.418562 
L 91.74558 255.026672 
L 92.28667 255.931233 
L 93.368852 258.946439 
L 93.909943 261.559617 
L 94.451034 261.961645 
L 95.533216 263.971782 
L 96.074307 264.373809 
L 96.615398 263.670261 
L 97.156489 264.072289 
L 98.23867 267.489522 
L 99.320852 268.19307 
L 100.403034 269.801179 
L 100.944125 270.303714 
L 101.485216 271.308782 
L 102.026307 271.911823 
L 102.567398 271.911823 
L 103.108489 271.208275 
L 104.19067 271.610303 
L 104.731761 272.313851 
L 105.813943 273.017399 
L 107.978307 273.318919 
L 109.60158 273.017399 
L 110.14267 273.117906 
L 111.765943 271.811317 
L 112.307034 271.911823 
L 113.930307 273.318919 
L 115.012489 273.318919 
L 115.55358 273.821454 
L 116.635761 274.122974 
L 117.176852 273.92196 
L 117.717943 274.223481 
L 118.259034 274.223481 
L 118.800125 274.022467 
L 120.964489 274.323988 
L 121.50558 274.223481 
L 122.04667 274.323988 
L 123.669943 273.821454 
L 124.211034 273.92196 
L 128.539761 273.117906 
L 129.080852 273.218412 
L 129.621943 273.720947 
L 130.163034 273.720947 
L 130.704125 273.017399 
L 132.327398 273.318919 
L 132.868489 273.720947 
L 133.40958 273.62044 
L 133.95067 274.022467 
L 134.491761 273.92196 
L 135.032852 273.419426 
L 135.573943 273.419426 
L 136.115034 274.022467 
L 137.738307 274.122974 
L 138.279398 273.62044 
L 139.36158 273.318919 
L 139.90267 273.318919 
L 140.443761 273.017399 
L 140.984852 273.117906 
L 141.525943 273.519933 
L 142.608125 273.92196 
L 143.149216 273.62044 
L 143.690307 273.62044 
L 144.231398 273.92196 
L 144.772489 274.424495 
L 145.31358 274.625508 
L 146.395761 274.223481 
L 146.936852 274.424495 
L 148.019034 274.022467 
L 148.560125 274.223481 
L 149.101216 274.022467 
L 149.642307 274.625508 
L 150.183398 274.625508 
L 150.724489 274.323988 
L 151.26558 274.625508 
L 152.888852 274.323988 
L 153.429943 274.826522 
L 153.971034 274.525002 
L 155.053216 274.726015 
L 156.135398 274.323988 
L 156.676489 274.323988 
L 157.21758 274.525002 
L 157.75867 274.424495 
L 158.299761 274.525002 
L 159.923034 274.223481 
L 160.464125 273.821454 
L 162.087398 273.720947 
L 162.628489 273.62044 
L 163.16958 273.720947 
L 163.71067 273.62044 
L 164.251761 273.117906 
L 164.792852 272.916892 
L 166.416125 273.519933 
L 166.957216 273.218412 
L 167.498307 273.419426 
L 168.039398 272.916892 
L 168.580489 273.419426 
L 169.12158 273.117906 
L 169.66267 273.519933 
L 170.203761 273.117906 
L 171.827034 273.318919 
L 172.368125 273.017399 
L 172.909216 273.419426 
L 173.991398 273.218412 
L 174.532489 273.318919 
L 175.07358 273.62044 
L 175.61467 272.916892 
L 176.696852 273.017399 
L 177.237943 272.816385 
L 177.779034 273.318919 
L 178.320125 273.519933 
L 178.861216 273.117906 
L 179.402307 273.117906 
L 179.943398 273.62044 
L 180.484489 273.62044 
L 181.56667 273.218412 
L 182.107761 273.218412 
L 183.731034 272.715878 
L 184.272125 272.213344 
L 184.813216 272.916892 
L 185.895398 273.62044 
L 186.436489 273.92196 
L 188.600852 273.519933 
L 189.141943 273.218412 
L 189.683034 273.318919 
L 190.765216 273.117906 
L 191.847398 273.419426 
L 192.92958 273.821454 
L 194.552852 273.92196 
L 195.093943 273.62044 
L 195.635034 273.62044 
L 196.176125 273.318919 
L 197.258307 273.62044 
L 197.799398 273.117906 
L 198.340489 273.117906 
L 198.88158 273.720947 
L 199.42267 273.419426 
L 199.963761 273.62044 
L 201.045943 273.519933 
L 201.587034 273.821454 
L 202.128125 274.323988 
L 203.210307 273.720947 
L 203.751398 273.720947 
L 204.83358 274.022467 
L 205.37467 273.92196 
L 205.915761 274.022467 
L 206.456852 273.92196 
L 206.997943 273.62044 
L 207.539034 273.62044 
L 208.080125 273.419426 
L 208.621216 273.62044 
L 209.703398 273.218412 
L 211.32667 273.92196 
L 212.408852 273.017399 
L 213.491034 272.916892 
L 214.032125 272.514865 
L 215.114307 272.615371 
L 215.655398 272.112837 
L 216.196489 272.816385 
L 218.360852 272.916892 
L 218.901943 273.218412 
L 219.984125 273.117906 
L 222.68958 274.022467 
L 223.23067 274.122974 
L 223.771761 273.519933 
L 224.853943 273.720947 
L 225.395034 273.419426 
L 225.936125 273.318919 
L 227.018307 273.519933 
L 227.559398 273.318919 
L 228.100489 273.419426 
L 228.64158 273.318919 
L 230.264852 273.821454 
L 230.805943 274.323988 
L 231.347034 274.525002 
L 232.429216 274.022467 
L 233.511398 274.525002 
L 234.052489 274.223481 
L 234.59358 274.424495 
L 235.675761 274.122974 
L 236.216852 274.223481 
L 236.757943 274.122974 
L 237.840125 274.223481 
L 238.381216 274.122974 
L 238.922307 274.223481 
L 239.463398 274.022467 
L 240.54558 274.424495 
L 241.08667 274.323988 
L 242.709943 274.525002 
L 243.251034 274.525002 
L 244.333216 274.122974 
L 245.415398 274.223481 
L 245.956489 274.625508 
L 246.49758 274.826522 
L 248.120852 274.424495 
L 248.661943 274.122974 
L 249.203034 274.424495 
L 249.744125 274.223481 
L 250.285216 273.821454 
L 250.826307 273.720947 
L 251.908489 274.022467 
L 252.99067 273.92196 
L 253.531761 274.323988 
L 254.072852 274.223481 
L 254.613943 274.525002 
L 255.155034 274.525002 
L 255.696125 274.223481 
L 256.237216 274.223481 
L 257.860489 274.726015 
L 258.94267 274.525002 
L 259.483761 274.726015 
L 260.024852 274.424495 
L 261.107034 275.22855 
L 261.648125 275.329056 
L 262.189216 275.731084 
L 262.730307 275.731084 
L 263.812489 276.032604 
L 265.976852 276.334125 
L 394.215398 276.334125 
L 394.215398 276.334125 
" style="fill:none;stroke:#f10800;stroke-linecap:round;stroke-width:1.5;"/>
   </g>
   <g id="patch_3">
    <path d="M 53.328125 288.430125 
L 53.328125 22.318125 
" style="fill:none;stroke:#cccccc;stroke-linecap:square;stroke-linejoin:miter;stroke-width:0.8;"/>
   </g>
   <g id="patch_4">
    <path d="M 410.448125 288.430125 
L 410.448125 22.318125 
" style="fill:none;stroke:#cccccc;stroke-linecap:square;stroke-linejoin:miter;stroke-width:0.8;"/>
   </g>
   <g id="patch_5">
    <path d="M 53.328125 288.430125 
L 410.448125 288.430125 
" style="fill:none;stroke:#cccccc;stroke-linecap:square;stroke-linejoin:miter;stroke-width:0.8;"/>
   </g>
   <g id="patch_6">
    <path d="M 53.328125 22.318125 
L 410.448125 22.318125 
" style="fill:none;stroke:#cccccc;stroke-linecap:square;stroke-linejoin:miter;stroke-width:0.8;"/>
   </g>
   <g id="text_16">
    <!-- Sars-Cov-2 -->
    <defs>
     <path d="M 53.515625 70.515625 
L 53.515625 60.890625 
Q 47.90625 63.578125 42.921875 64.890625 
Q 37.9375 66.21875 33.296875 66.21875 
Q 25.25 66.21875 20.875 63.09375 
Q 16.5 59.96875 16.5 54.203125 
Q 16.5 49.359375 19.40625 46.890625 
Q 22.3125 44.4375 30.421875 42.921875 
L 36.375 41.703125 
Q 47.40625 39.59375 52.65625 34.296875 
Q 57.90625 29 57.90625 20.125 
Q 57.90625 9.515625 50.796875 4.046875 
Q 43.703125 -1.421875 29.984375 -1.421875 
Q 24.8125 -1.421875 18.96875 -0.25 
Q 13.140625 0.921875 6.890625 3.21875 
L 6.890625 13.375 
Q 12.890625 10.015625 18.65625 8.296875 
Q 24.421875 6.59375 29.984375 6.59375 
Q 38.421875 6.59375 43.015625 9.90625 
Q 47.609375 13.234375 47.609375 19.390625 
Q 47.609375 24.75 44.3125 27.78125 
Q 41.015625 30.8125 33.5 32.328125 
L 27.484375 33.5 
Q 16.453125 35.6875 11.515625 40.375 
Q 6.59375 45.0625 6.59375 53.421875 
Q 6.59375 63.09375 13.40625 68.65625 
Q 20.21875 74.21875 32.171875 74.21875 
Q 37.3125 74.21875 42.625 73.28125 
Q 47.953125 72.359375 53.515625 70.515625 
z
" id="DejaVuSans-83"/>
     <path d="M 4.890625 31.390625 
L 31.203125 31.390625 
L 31.203125 23.390625 
L 4.890625 23.390625 
z
" id="DejaVuSans-45"/>
     <path d="M 64.40625 67.28125 
L 64.40625 56.890625 
Q 59.421875 61.53125 53.78125 63.8125 
Q 48.140625 66.109375 41.796875 66.109375 
Q 29.296875 66.109375 22.65625 58.46875 
Q 16.015625 50.828125 16.015625 36.375 
Q 16.015625 21.96875 22.65625 14.328125 
Q 29.296875 6.6875 41.796875 6.6875 
Q 48.140625 6.6875 53.78125 8.984375 
Q 59.421875 11.28125 64.40625 15.921875 
L 64.40625 5.609375 
Q 59.234375 2.09375 53.4375 0.328125 
Q 47.65625 -1.421875 41.21875 -1.421875 
Q 24.65625 -1.421875 15.125 8.703125 
Q 5.609375 18.84375 5.609375 36.375 
Q 5.609375 53.953125 15.125 64.078125 
Q 24.65625 74.21875 41.21875 74.21875 
Q 47.75 74.21875 53.53125 72.484375 
Q 59.328125 70.75 64.40625 67.28125 
z
" id="DejaVuSans-67"/>
     <path d="M 30.609375 48.390625 
Q 23.390625 48.390625 19.1875 42.75 
Q 14.984375 37.109375 14.984375 27.296875 
Q 14.984375 17.484375 19.15625 11.84375 
Q 23.34375 6.203125 30.609375 6.203125 
Q 37.796875 6.203125 41.984375 11.859375 
Q 46.1875 17.53125 46.1875 27.296875 
Q 46.1875 37.015625 41.984375 42.703125 
Q 37.796875 48.390625 30.609375 48.390625 
z
M 30.609375 56 
Q 42.328125 56 49.015625 48.375 
Q 55.71875 40.765625 55.71875 27.296875 
Q 55.71875 13.875 49.015625 6.21875 
Q 42.328125 -1.421875 30.609375 -1.421875 
Q 18.84375 -1.421875 12.171875 6.21875 
Q 5.515625 13.875 5.515625 27.296875 
Q 5.515625 40.765625 12.171875 48.375 
Q 18.84375 56 30.609375 56 
z
" id="DejaVuSans-111"/>
    </defs>
    <g style="fill:#262626;" transform="translate(199.252813 16.318125)scale(0.12 -0.12)">
     <use xlink:href="#DejaVuSans-83"/>
     <use x="63.476562" xlink:href="#DejaVuSans-97"/>
     <use x="124.755859" xlink:href="#DejaVuSans-114"/>
     <use x="165.869141" xlink:href="#DejaVuSans-115"/>
     <use x="217.96875" xlink:href="#DejaVuSans-45"/>
     <use x="254.052734" xlink:href="#DejaVuSans-67"/>
     <use x="323.876953" xlink:href="#DejaVuSans-111"/>
     <use x="385.058594" xlink:href="#DejaVuSans-118"/>
     <use x="444.207031" xlink:href="#DejaVuSans-45"/>
     <use x="480.291016" xlink:href="#DejaVuSans-50"/>
    </g>
   </g>
  </g>
 </g>
 <defs>
  <clipPath id="paf5bf83dd0">
   <rect height="266.112" width="357.12" x="53.328125" y="22.318125"/>
  </clipPath>
 </defs>
</svg>
