<?xml version="1.0" encoding="utf-8" standalone="no"?>
<!DOCTYPE svg PUBLIC "-//W3C//DTD SVG 1.1//EN"
  "http://www.w3.org/Graphics/SVG/1.1/DTD/svg11.dtd">
<!-- Created with matplotlib (https://matplotlib.org/) -->
<svg height="325.986375pt" version="1.1" viewBox="0 0 424.010625 325.986375" width="424.010625pt" xmlns="http://www.w3.org/2000/svg" xmlns:xlink="http://www.w3.org/1999/xlink">
 <defs>
  <style type="text/css">
*{stroke-linecap:butt;stroke-linejoin:round;white-space:pre;}
  </style>
 </defs>
 <g id="figure_1">
  <g id="patch_1">
   <path d="M 0 325.986375 
L 424.010625 325.986375 
L 424.010625 0 
L 0 0 
z
" style="fill:#ffffff;"/>
  </g>
  <g id="axes_1">
   <g id="patch_2">
    <path d="M 59.690625 288.430125 
L 416.810625 288.430125 
L 416.810625 22.318125 
L 59.690625 22.318125 
z
" style="fill:#ffffff;"/>
   </g>
   <g id="matplotlib.axis_1">
    <g id="xtick_1">
     <g id="line2d_1">
      <path clip-path="url(#p338669f80d)" d="M 75.923352 288.430125 
L 75.923352 22.318125 
" style="fill:none;stroke:#cccccc;stroke-linecap:round;stroke-width:0.8;"/>
     </g>
     <g id="text_1">
      <!-- 0 -->
      <defs>
       <path d="M 31.78125 66.40625 
Q 24.171875 66.40625 20.328125 58.90625 
Q 16.5 51.421875 16.5 36.375 
Q 16.5 21.390625 20.328125 13.890625 
Q 24.171875 6.390625 31.78125 6.390625 
Q 39.453125 6.390625 43.28125 13.890625 
Q 47.125 21.390625 47.125 36.375 
Q 47.125 51.421875 43.28125 58.90625 
Q 39.453125 66.40625 31.78125 66.40625 
z
M 31.78125 74.21875 
Q 44.046875 74.21875 50.515625 64.515625 
Q 56.984375 54.828125 56.984375 36.375 
Q 56.984375 17.96875 50.515625 8.265625 
Q 44.046875 -1.421875 31.78125 -1.421875 
Q 19.53125 -1.421875 13.0625 8.265625 
Q 6.59375 17.96875 6.59375 36.375 
Q 6.59375 54.828125 13.0625 64.515625 
Q 19.53125 74.21875 31.78125 74.21875 
z
" id="DejaVuSans-48"/>
      </defs>
      <g style="fill:#262626;" transform="translate(72.742102 303.028562)scale(0.1 -0.1)">
       <use xlink:href="#DejaVuSans-48"/>
      </g>
     </g>
    </g>
    <g id="xtick_2">
     <g id="line2d_2">
      <path clip-path="url(#p338669f80d)" d="M 130.122776 288.430125 
L 130.122776 22.318125 
" style="fill:none;stroke:#cccccc;stroke-linecap:round;stroke-width:0.8;"/>
     </g>
     <g id="text_2">
      <!-- 10 -->
      <defs>
       <path d="M 12.40625 8.296875 
L 28.515625 8.296875 
L 28.515625 63.921875 
L 10.984375 60.40625 
L 10.984375 69.390625 
L 28.421875 72.90625 
L 38.28125 72.90625 
L 38.28125 8.296875 
L 54.390625 8.296875 
L 54.390625 0 
L 12.40625 0 
z
" id="DejaVuSans-49"/>
      </defs>
      <g style="fill:#262626;" transform="translate(123.760276 303.028562)scale(0.1 -0.1)">
       <use xlink:href="#DejaVuSans-49"/>
       <use x="63.623047" xlink:href="#DejaVuSans-48"/>
      </g>
     </g>
    </g>
    <g id="xtick_3">
     <g id="line2d_3">
      <path clip-path="url(#p338669f80d)" d="M 184.322199 288.430125 
L 184.322199 22.318125 
" style="fill:none;stroke:#cccccc;stroke-linecap:round;stroke-width:0.8;"/>
     </g>
     <g id="text_3">
      <!-- 20 -->
      <defs>
       <path d="M 19.1875 8.296875 
L 53.609375 8.296875 
L 53.609375 0 
L 7.328125 0 
L 7.328125 8.296875 
Q 12.9375 14.109375 22.625 23.890625 
Q 32.328125 33.6875 34.8125 36.53125 
Q 39.546875 41.84375 41.421875 45.53125 
Q 43.3125 49.21875 43.3125 52.78125 
Q 43.3125 58.59375 39.234375 62.25 
Q 35.15625 65.921875 28.609375 65.921875 
Q 23.96875 65.921875 18.8125 64.3125 
Q 13.671875 62.703125 7.8125 59.421875 
L 7.8125 69.390625 
Q 13.765625 71.78125 18.9375 73 
Q 24.125 74.21875 28.421875 74.21875 
Q 39.75 74.21875 46.484375 68.546875 
Q 53.21875 62.890625 53.21875 53.421875 
Q 53.21875 48.921875 51.53125 44.890625 
Q 49.859375 40.875 45.40625 35.40625 
Q 44.1875 33.984375 37.640625 27.21875 
Q 31.109375 20.453125 19.1875 8.296875 
z
" id="DejaVuSans-50"/>
      </defs>
      <g style="fill:#262626;" transform="translate(177.959699 303.028562)scale(0.1 -0.1)">
       <use xlink:href="#DejaVuSans-50"/>
       <use x="63.623047" xlink:href="#DejaVuSans-48"/>
      </g>
     </g>
    </g>
    <g id="xtick_4">
     <g id="line2d_4">
      <path clip-path="url(#p338669f80d)" d="M 238.521622 288.430125 
L 238.521622 22.318125 
" style="fill:none;stroke:#cccccc;stroke-linecap:round;stroke-width:0.8;"/>
     </g>
     <g id="text_4">
      <!-- 30 -->
      <defs>
       <path d="M 40.578125 39.3125 
Q 47.65625 37.796875 51.625 33 
Q 55.609375 28.21875 55.609375 21.1875 
Q 55.609375 10.40625 48.1875 4.484375 
Q 40.765625 -1.421875 27.09375 -1.421875 
Q 22.515625 -1.421875 17.65625 -0.515625 
Q 12.796875 0.390625 7.625 2.203125 
L 7.625 11.71875 
Q 11.71875 9.328125 16.59375 8.109375 
Q 21.484375 6.890625 26.8125 6.890625 
Q 36.078125 6.890625 40.9375 10.546875 
Q 45.796875 14.203125 45.796875 21.1875 
Q 45.796875 27.640625 41.28125 31.265625 
Q 36.765625 34.90625 28.71875 34.90625 
L 20.21875 34.90625 
L 20.21875 43.015625 
L 29.109375 43.015625 
Q 36.375 43.015625 40.234375 45.921875 
Q 44.09375 48.828125 44.09375 54.296875 
Q 44.09375 59.90625 40.109375 62.90625 
Q 36.140625 65.921875 28.71875 65.921875 
Q 24.65625 65.921875 20.015625 65.03125 
Q 15.375 64.15625 9.8125 62.3125 
L 9.8125 71.09375 
Q 15.4375 72.65625 20.34375 73.4375 
Q 25.25 74.21875 29.59375 74.21875 
Q 40.828125 74.21875 47.359375 69.109375 
Q 53.90625 64.015625 53.90625 55.328125 
Q 53.90625 49.265625 50.4375 45.09375 
Q 46.96875 40.921875 40.578125 39.3125 
z
" id="DejaVuSans-51"/>
      </defs>
      <g style="fill:#262626;" transform="translate(232.159122 303.028562)scale(0.1 -0.1)">
       <use xlink:href="#DejaVuSans-51"/>
       <use x="63.623047" xlink:href="#DejaVuSans-48"/>
      </g>
     </g>
    </g>
    <g id="xtick_5">
     <g id="line2d_5">
      <path clip-path="url(#p338669f80d)" d="M 292.721045 288.430125 
L 292.721045 22.318125 
" style="fill:none;stroke:#cccccc;stroke-linecap:round;stroke-width:0.8;"/>
     </g>
     <g id="text_5">
      <!-- 40 -->
      <defs>
       <path d="M 37.796875 64.3125 
L 12.890625 25.390625 
L 37.796875 25.390625 
z
M 35.203125 72.90625 
L 47.609375 72.90625 
L 47.609375 25.390625 
L 58.015625 25.390625 
L 58.015625 17.1875 
L 47.609375 17.1875 
L 47.609375 0 
L 37.796875 0 
L 37.796875 17.1875 
L 4.890625 17.1875 
L 4.890625 26.703125 
z
" id="DejaVuSans-52"/>
      </defs>
      <g style="fill:#262626;" transform="translate(286.358545 303.028562)scale(0.1 -0.1)">
       <use xlink:href="#DejaVuSans-52"/>
       <use x="63.623047" xlink:href="#DejaVuSans-48"/>
      </g>
     </g>
    </g>
    <g id="xtick_6">
     <g id="line2d_6">
      <path clip-path="url(#p338669f80d)" d="M 346.920469 288.430125 
L 346.920469 22.318125 
" style="fill:none;stroke:#cccccc;stroke-linecap:round;stroke-width:0.8;"/>
     </g>
     <g id="text_6">
      <!-- 50 -->
      <defs>
       <path d="M 10.796875 72.90625 
L 49.515625 72.90625 
L 49.515625 64.59375 
L 19.828125 64.59375 
L 19.828125 46.734375 
Q 21.96875 47.46875 24.109375 47.828125 
Q 26.265625 48.1875 28.421875 48.1875 
Q 40.625 48.1875 47.75 41.5 
Q 54.890625 34.8125 54.890625 23.390625 
Q 54.890625 11.625 47.5625 5.09375 
Q 40.234375 -1.421875 26.90625 -1.421875 
Q 22.3125 -1.421875 17.546875 -0.640625 
Q 12.796875 0.140625 7.71875 1.703125 
L 7.71875 11.625 
Q 12.109375 9.234375 16.796875 8.0625 
Q 21.484375 6.890625 26.703125 6.890625 
Q 35.15625 6.890625 40.078125 11.328125 
Q 45.015625 15.765625 45.015625 23.390625 
Q 45.015625 31 40.078125 35.4375 
Q 35.15625 39.890625 26.703125 39.890625 
Q 22.75 39.890625 18.8125 39.015625 
Q 14.890625 38.140625 10.796875 36.28125 
z
" id="DejaVuSans-53"/>
      </defs>
      <g style="fill:#262626;" transform="translate(340.557969 303.028562)scale(0.1 -0.1)">
       <use xlink:href="#DejaVuSans-53"/>
       <use x="63.623047" xlink:href="#DejaVuSans-48"/>
      </g>
     </g>
    </g>
    <g id="xtick_7">
     <g id="line2d_7">
      <path clip-path="url(#p338669f80d)" d="M 401.119892 288.430125 
L 401.119892 22.318125 
" style="fill:none;stroke:#cccccc;stroke-linecap:round;stroke-width:0.8;"/>
     </g>
     <g id="text_7">
      <!-- 60 -->
      <defs>
       <path d="M 33.015625 40.375 
Q 26.375 40.375 22.484375 35.828125 
Q 18.609375 31.296875 18.609375 23.390625 
Q 18.609375 15.53125 22.484375 10.953125 
Q 26.375 6.390625 33.015625 6.390625 
Q 39.65625 6.390625 43.53125 10.953125 
Q 47.40625 15.53125 47.40625 23.390625 
Q 47.40625 31.296875 43.53125 35.828125 
Q 39.65625 40.375 33.015625 40.375 
z
M 52.59375 71.296875 
L 52.59375 62.3125 
Q 48.875 64.0625 45.09375 64.984375 
Q 41.3125 65.921875 37.59375 65.921875 
Q 27.828125 65.921875 22.671875 59.328125 
Q 17.53125 52.734375 16.796875 39.40625 
Q 19.671875 43.65625 24.015625 45.921875 
Q 28.375 48.1875 33.59375 48.1875 
Q 44.578125 48.1875 50.953125 41.515625 
Q 57.328125 34.859375 57.328125 23.390625 
Q 57.328125 12.15625 50.6875 5.359375 
Q 44.046875 -1.421875 33.015625 -1.421875 
Q 20.359375 -1.421875 13.671875 8.265625 
Q 6.984375 17.96875 6.984375 36.375 
Q 6.984375 53.65625 15.1875 63.9375 
Q 23.390625 74.21875 37.203125 74.21875 
Q 40.921875 74.21875 44.703125 73.484375 
Q 48.484375 72.75 52.59375 71.296875 
z
" id="DejaVuSans-54"/>
      </defs>
      <g style="fill:#262626;" transform="translate(394.757392 303.028562)scale(0.1 -0.1)">
       <use xlink:href="#DejaVuSans-54"/>
       <use x="63.623047" xlink:href="#DejaVuSans-48"/>
      </g>
     </g>
    </g>
    <g id="text_8">
     <!-- time (days) -->
     <defs>
      <path d="M 18.3125 70.21875 
L 18.3125 54.6875 
L 36.8125 54.6875 
L 36.8125 47.703125 
L 18.3125 47.703125 
L 18.3125 18.015625 
Q 18.3125 11.328125 20.140625 9.421875 
Q 21.96875 7.515625 27.59375 7.515625 
L 36.8125 7.515625 
L 36.8125 0 
L 27.59375 0 
Q 17.1875 0 13.234375 3.875 
Q 9.28125 7.765625 9.28125 18.015625 
L 9.28125 47.703125 
L 2.6875 47.703125 
L 2.6875 54.6875 
L 9.28125 54.6875 
L 9.28125 70.21875 
z
" id="DejaVuSans-116"/>
      <path d="M 9.421875 54.6875 
L 18.40625 54.6875 
L 18.40625 0 
L 9.421875 0 
z
M 9.421875 75.984375 
L 18.40625 75.984375 
L 18.40625 64.59375 
L 9.421875 64.59375 
z
" id="DejaVuSans-105"/>
      <path d="M 52 44.1875 
Q 55.375 50.25 60.0625 53.125 
Q 64.75 56 71.09375 56 
Q 79.640625 56 84.28125 50.015625 
Q 88.921875 44.046875 88.921875 33.015625 
L 88.921875 0 
L 79.890625 0 
L 79.890625 32.71875 
Q 79.890625 40.578125 77.09375 44.375 
Q 74.3125 48.1875 68.609375 48.1875 
Q 61.625 48.1875 57.5625 43.546875 
Q 53.515625 38.921875 53.515625 30.90625 
L 53.515625 0 
L 44.484375 0 
L 44.484375 32.71875 
Q 44.484375 40.625 41.703125 44.40625 
Q 38.921875 48.1875 33.109375 48.1875 
Q 26.21875 48.1875 22.15625 43.53125 
Q 18.109375 38.875 18.109375 30.90625 
L 18.109375 0 
L 9.078125 0 
L 9.078125 54.6875 
L 18.109375 54.6875 
L 18.109375 46.1875 
Q 21.1875 51.21875 25.484375 53.609375 
Q 29.78125 56 35.6875 56 
Q 41.65625 56 45.828125 52.96875 
Q 50 49.953125 52 44.1875 
z
" id="DejaVuSans-109"/>
      <path d="M 56.203125 29.59375 
L 56.203125 25.203125 
L 14.890625 25.203125 
Q 15.484375 15.921875 20.484375 11.0625 
Q 25.484375 6.203125 34.421875 6.203125 
Q 39.59375 6.203125 44.453125 7.46875 
Q 49.3125 8.734375 54.109375 11.28125 
L 54.109375 2.78125 
Q 49.265625 0.734375 44.1875 -0.34375 
Q 39.109375 -1.421875 33.890625 -1.421875 
Q 20.796875 -1.421875 13.15625 6.1875 
Q 5.515625 13.8125 5.515625 26.8125 
Q 5.515625 40.234375 12.765625 48.109375 
Q 20.015625 56 32.328125 56 
Q 43.359375 56 49.78125 48.890625 
Q 56.203125 41.796875 56.203125 29.59375 
z
M 47.21875 32.234375 
Q 47.125 39.59375 43.09375 43.984375 
Q 39.0625 48.390625 32.421875 48.390625 
Q 24.90625 48.390625 20.390625 44.140625 
Q 15.875 39.890625 15.1875 32.171875 
z
" id="DejaVuSans-101"/>
      <path id="DejaVuSans-32"/>
      <path d="M 31 75.875 
Q 24.46875 64.65625 21.28125 53.65625 
Q 18.109375 42.671875 18.109375 31.390625 
Q 18.109375 20.125 21.3125 9.0625 
Q 24.515625 -2 31 -13.1875 
L 23.1875 -13.1875 
Q 15.875 -1.703125 12.234375 9.375 
Q 8.59375 20.453125 8.59375 31.390625 
Q 8.59375 42.28125 12.203125 53.3125 
Q 15.828125 64.359375 23.1875 75.875 
z
" id="DejaVuSans-40"/>
      <path d="M 45.40625 46.390625 
L 45.40625 75.984375 
L 54.390625 75.984375 
L 54.390625 0 
L 45.40625 0 
L 45.40625 8.203125 
Q 42.578125 3.328125 38.25 0.953125 
Q 33.9375 -1.421875 27.875 -1.421875 
Q 17.96875 -1.421875 11.734375 6.484375 
Q 5.515625 14.40625 5.515625 27.296875 
Q 5.515625 40.1875 11.734375 48.09375 
Q 17.96875 56 27.875 56 
Q 33.9375 56 38.25 53.625 
Q 42.578125 51.265625 45.40625 46.390625 
z
M 14.796875 27.296875 
Q 14.796875 17.390625 18.875 11.75 
Q 22.953125 6.109375 30.078125 6.109375 
Q 37.203125 6.109375 41.296875 11.75 
Q 45.40625 17.390625 45.40625 27.296875 
Q 45.40625 37.203125 41.296875 42.84375 
Q 37.203125 48.484375 30.078125 48.484375 
Q 22.953125 48.484375 18.875 42.84375 
Q 14.796875 37.203125 14.796875 27.296875 
z
" id="DejaVuSans-100"/>
      <path d="M 34.28125 27.484375 
Q 23.390625 27.484375 19.1875 25 
Q 14.984375 22.515625 14.984375 16.5 
Q 14.984375 11.71875 18.140625 8.90625 
Q 21.296875 6.109375 26.703125 6.109375 
Q 34.1875 6.109375 38.703125 11.40625 
Q 43.21875 16.703125 43.21875 25.484375 
L 43.21875 27.484375 
z
M 52.203125 31.203125 
L 52.203125 0 
L 43.21875 0 
L 43.21875 8.296875 
Q 40.140625 3.328125 35.546875 0.953125 
Q 30.953125 -1.421875 24.3125 -1.421875 
Q 15.921875 -1.421875 10.953125 3.296875 
Q 6 8.015625 6 15.921875 
Q 6 25.140625 12.171875 29.828125 
Q 18.359375 34.515625 30.609375 34.515625 
L 43.21875 34.515625 
L 43.21875 35.40625 
Q 43.21875 41.609375 39.140625 45 
Q 35.0625 48.390625 27.6875 48.390625 
Q 23 48.390625 18.546875 47.265625 
Q 14.109375 46.140625 10.015625 43.890625 
L 10.015625 52.203125 
Q 14.9375 54.109375 19.578125 55.046875 
Q 24.21875 56 28.609375 56 
Q 40.484375 56 46.34375 49.84375 
Q 52.203125 43.703125 52.203125 31.203125 
z
" id="DejaVuSans-97"/>
      <path d="M 32.171875 -5.078125 
Q 28.375 -14.84375 24.75 -17.8125 
Q 21.140625 -20.796875 15.09375 -20.796875 
L 7.90625 -20.796875 
L 7.90625 -13.28125 
L 13.1875 -13.28125 
Q 16.890625 -13.28125 18.9375 -11.515625 
Q 21 -9.765625 23.484375 -3.21875 
L 25.09375 0.875 
L 2.984375 54.6875 
L 12.5 54.6875 
L 29.59375 11.921875 
L 46.6875 54.6875 
L 56.203125 54.6875 
z
" id="DejaVuSans-121"/>
      <path d="M 44.28125 53.078125 
L 44.28125 44.578125 
Q 40.484375 46.53125 36.375 47.5 
Q 32.28125 48.484375 27.875 48.484375 
Q 21.1875 48.484375 17.84375 46.4375 
Q 14.5 44.390625 14.5 40.28125 
Q 14.5 37.15625 16.890625 35.375 
Q 19.28125 33.59375 26.515625 31.984375 
L 29.59375 31.296875 
Q 39.15625 29.25 43.1875 25.515625 
Q 47.21875 21.78125 47.21875 15.09375 
Q 47.21875 7.46875 41.1875 3.015625 
Q 35.15625 -1.421875 24.609375 -1.421875 
Q 20.21875 -1.421875 15.453125 -0.5625 
Q 10.6875 0.296875 5.421875 2 
L 5.421875 11.28125 
Q 10.40625 8.6875 15.234375 7.390625 
Q 20.0625 6.109375 24.8125 6.109375 
Q 31.15625 6.109375 34.5625 8.28125 
Q 37.984375 10.453125 37.984375 14.40625 
Q 37.984375 18.0625 35.515625 20.015625 
Q 33.0625 21.96875 24.703125 23.78125 
L 21.578125 24.515625 
Q 13.234375 26.265625 9.515625 29.90625 
Q 5.8125 33.546875 5.8125 39.890625 
Q 5.8125 47.609375 11.28125 51.796875 
Q 16.75 56 26.8125 56 
Q 31.78125 56 36.171875 55.265625 
Q 40.578125 54.546875 44.28125 53.078125 
z
" id="DejaVuSans-115"/>
      <path d="M 8.015625 75.875 
L 15.828125 75.875 
Q 23.140625 64.359375 26.78125 53.3125 
Q 30.421875 42.28125 30.421875 31.390625 
Q 30.421875 20.453125 26.78125 9.375 
Q 23.140625 -1.703125 15.828125 -13.1875 
L 8.015625 -13.1875 
Q 14.5 -2 17.703125 9.0625 
Q 20.90625 20.125 20.90625 31.390625 
Q 20.90625 42.671875 17.703125 53.65625 
Q 14.5 64.65625 8.015625 75.875 
z
" id="DejaVuSans-41"/>
     </defs>
     <g style="fill:#262626;" transform="translate(209.661563 316.706687)scale(0.1 -0.1)">
      <use xlink:href="#DejaVuSans-116"/>
      <use x="39.208984" xlink:href="#DejaVuSans-105"/>
      <use x="66.992188" xlink:href="#DejaVuSans-109"/>
      <use x="164.404297" xlink:href="#DejaVuSans-101"/>
      <use x="225.927734" xlink:href="#DejaVuSans-32"/>
      <use x="257.714844" xlink:href="#DejaVuSans-40"/>
      <use x="296.728516" xlink:href="#DejaVuSans-100"/>
      <use x="360.205078" xlink:href="#DejaVuSans-97"/>
      <use x="421.484375" xlink:href="#DejaVuSans-121"/>
      <use x="480.664062" xlink:href="#DejaVuSans-115"/>
      <use x="532.763672" xlink:href="#DejaVuSans-41"/>
     </g>
    </g>
   </g>
   <g id="matplotlib.axis_2">
    <g id="ytick_1">
     <g id="line2d_8">
      <path clip-path="url(#p338669f80d)" d="M 59.690625 276.62076 
L 416.810625 276.62076 
" style="fill:none;stroke:#cccccc;stroke-linecap:round;stroke-width:0.8;"/>
     </g>
     <g id="text_9">
      <!-- 0 -->
      <g style="fill:#262626;" transform="translate(46.328125 280.419979)scale(0.1 -0.1)">
       <use xlink:href="#DejaVuSans-48"/>
      </g>
     </g>
    </g>
    <g id="ytick_2">
     <g id="line2d_9">
      <path clip-path="url(#p338669f80d)" d="M 59.690625 238.402751 
L 416.810625 238.402751 
" style="fill:none;stroke:#cccccc;stroke-linecap:round;stroke-width:0.8;"/>
     </g>
     <g id="text_10">
      <!-- 2000 -->
      <g style="fill:#262626;" transform="translate(27.240625 242.201969)scale(0.1 -0.1)">
       <use xlink:href="#DejaVuSans-50"/>
       <use x="63.623047" xlink:href="#DejaVuSans-48"/>
       <use x="127.246094" xlink:href="#DejaVuSans-48"/>
       <use x="190.869141" xlink:href="#DejaVuSans-48"/>
      </g>
     </g>
    </g>
    <g id="ytick_3">
     <g id="line2d_10">
      <path clip-path="url(#p338669f80d)" d="M 59.690625 200.184741 
L 416.810625 200.184741 
" style="fill:none;stroke:#cccccc;stroke-linecap:round;stroke-width:0.8;"/>
     </g>
     <g id="text_11">
      <!-- 4000 -->
      <g style="fill:#262626;" transform="translate(27.240625 203.98396)scale(0.1 -0.1)">
       <use xlink:href="#DejaVuSans-52"/>
       <use x="63.623047" xlink:href="#DejaVuSans-48"/>
       <use x="127.246094" xlink:href="#DejaVuSans-48"/>
       <use x="190.869141" xlink:href="#DejaVuSans-48"/>
      </g>
     </g>
    </g>
    <g id="ytick_4">
     <g id="line2d_11">
      <path clip-path="url(#p338669f80d)" d="M 59.690625 161.966732 
L 416.810625 161.966732 
" style="fill:none;stroke:#cccccc;stroke-linecap:round;stroke-width:0.8;"/>
     </g>
     <g id="text_12">
      <!-- 6000 -->
      <g style="fill:#262626;" transform="translate(27.240625 165.76595)scale(0.1 -0.1)">
       <use xlink:href="#DejaVuSans-54"/>
       <use x="63.623047" xlink:href="#DejaVuSans-48"/>
       <use x="127.246094" xlink:href="#DejaVuSans-48"/>
       <use x="190.869141" xlink:href="#DejaVuSans-48"/>
      </g>
     </g>
    </g>
    <g id="ytick_5">
     <g id="line2d_12">
      <path clip-path="url(#p338669f80d)" d="M 59.690625 123.748722 
L 416.810625 123.748722 
" style="fill:none;stroke:#cccccc;stroke-linecap:round;stroke-width:0.8;"/>
     </g>
     <g id="text_13">
      <!-- 8000 -->
      <defs>
       <path d="M 31.78125 34.625 
Q 24.75 34.625 20.71875 30.859375 
Q 16.703125 27.09375 16.703125 20.515625 
Q 16.703125 13.921875 20.71875 10.15625 
Q 24.75 6.390625 31.78125 6.390625 
Q 38.8125 6.390625 42.859375 10.171875 
Q 46.921875 13.96875 46.921875 20.515625 
Q 46.921875 27.09375 42.890625 30.859375 
Q 38.875 34.625 31.78125 34.625 
z
M 21.921875 38.8125 
Q 15.578125 40.375 12.03125 44.71875 
Q 8.5 49.078125 8.5 55.328125 
Q 8.5 64.0625 14.71875 69.140625 
Q 20.953125 74.21875 31.78125 74.21875 
Q 42.671875 74.21875 48.875 69.140625 
Q 55.078125 64.0625 55.078125 55.328125 
Q 55.078125 49.078125 51.53125 44.71875 
Q 48 40.375 41.703125 38.8125 
Q 48.828125 37.15625 52.796875 32.3125 
Q 56.78125 27.484375 56.78125 20.515625 
Q 56.78125 9.90625 50.3125 4.234375 
Q 43.84375 -1.421875 31.78125 -1.421875 
Q 19.734375 -1.421875 13.25 4.234375 
Q 6.78125 9.90625 6.78125 20.515625 
Q 6.78125 27.484375 10.78125 32.3125 
Q 14.796875 37.15625 21.921875 38.8125 
z
M 18.3125 54.390625 
Q 18.3125 48.734375 21.84375 45.5625 
Q 25.390625 42.390625 31.78125 42.390625 
Q 38.140625 42.390625 41.71875 45.5625 
Q 45.3125 48.734375 45.3125 54.390625 
Q 45.3125 60.0625 41.71875 63.234375 
Q 38.140625 66.40625 31.78125 66.40625 
Q 25.390625 66.40625 21.84375 63.234375 
Q 18.3125 60.0625 18.3125 54.390625 
z
" id="DejaVuSans-56"/>
      </defs>
      <g style="fill:#262626;" transform="translate(27.240625 127.547941)scale(0.1 -0.1)">
       <use xlink:href="#DejaVuSans-56"/>
       <use x="63.623047" xlink:href="#DejaVuSans-48"/>
       <use x="127.246094" xlink:href="#DejaVuSans-48"/>
       <use x="190.869141" xlink:href="#DejaVuSans-48"/>
      </g>
     </g>
    </g>
    <g id="ytick_6">
     <g id="line2d_13">
      <path clip-path="url(#p338669f80d)" d="M 59.690625 85.530713 
L 416.810625 85.530713 
" style="fill:none;stroke:#cccccc;stroke-linecap:round;stroke-width:0.8;"/>
     </g>
     <g id="text_14">
      <!-- 10000 -->
      <g style="fill:#262626;" transform="translate(20.878125 89.329931)scale(0.1 -0.1)">
       <use xlink:href="#DejaVuSans-49"/>
       <use x="63.623047" xlink:href="#DejaVuSans-48"/>
       <use x="127.246094" xlink:href="#DejaVuSans-48"/>
       <use x="190.869141" xlink:href="#DejaVuSans-48"/>
       <use x="254.492188" xlink:href="#DejaVuSans-48"/>
      </g>
     </g>
    </g>
    <g id="ytick_7">
     <g id="line2d_14">
      <path clip-path="url(#p338669f80d)" d="M 59.690625 47.312703 
L 416.810625 47.312703 
" style="fill:none;stroke:#cccccc;stroke-linecap:round;stroke-width:0.8;"/>
     </g>
     <g id="text_15">
      <!-- 12000 -->
      <g style="fill:#262626;" transform="translate(20.878125 51.111922)scale(0.1 -0.1)">
       <use xlink:href="#DejaVuSans-49"/>
       <use x="63.623047" xlink:href="#DejaVuSans-50"/>
       <use x="127.246094" xlink:href="#DejaVuSans-48"/>
       <use x="190.869141" xlink:href="#DejaVuSans-48"/>
       <use x="254.492188" xlink:href="#DejaVuSans-48"/>
      </g>
     </g>
    </g>
    <g id="text_16">
     <!-- cells number -->
     <defs>
      <path d="M 48.78125 52.59375 
L 48.78125 44.1875 
Q 44.96875 46.296875 41.140625 47.34375 
Q 37.3125 48.390625 33.40625 48.390625 
Q 24.65625 48.390625 19.8125 42.84375 
Q 14.984375 37.3125 14.984375 27.296875 
Q 14.984375 17.28125 19.8125 11.734375 
Q 24.65625 6.203125 33.40625 6.203125 
Q 37.3125 6.203125 41.140625 7.25 
Q 44.96875 8.296875 48.78125 10.40625 
L 48.78125 2.09375 
Q 45.015625 0.34375 40.984375 -0.53125 
Q 36.96875 -1.421875 32.421875 -1.421875 
Q 20.0625 -1.421875 12.78125 6.34375 
Q 5.515625 14.109375 5.515625 27.296875 
Q 5.515625 40.671875 12.859375 48.328125 
Q 20.21875 56 33.015625 56 
Q 37.15625 56 41.109375 55.140625 
Q 45.0625 54.296875 48.78125 52.59375 
z
" id="DejaVuSans-99"/>
      <path d="M 9.421875 75.984375 
L 18.40625 75.984375 
L 18.40625 0 
L 9.421875 0 
z
" id="DejaVuSans-108"/>
      <path d="M 54.890625 33.015625 
L 54.890625 0 
L 45.90625 0 
L 45.90625 32.71875 
Q 45.90625 40.484375 42.875 44.328125 
Q 39.84375 48.1875 33.796875 48.1875 
Q 26.515625 48.1875 22.3125 43.546875 
Q 18.109375 38.921875 18.109375 30.90625 
L 18.109375 0 
L 9.078125 0 
L 9.078125 54.6875 
L 18.109375 54.6875 
L 18.109375 46.1875 
Q 21.34375 51.125 25.703125 53.5625 
Q 30.078125 56 35.796875 56 
Q 45.21875 56 50.046875 50.171875 
Q 54.890625 44.34375 54.890625 33.015625 
z
" id="DejaVuSans-110"/>
      <path d="M 8.5 21.578125 
L 8.5 54.6875 
L 17.484375 54.6875 
L 17.484375 21.921875 
Q 17.484375 14.15625 20.5 10.265625 
Q 23.53125 6.390625 29.59375 6.390625 
Q 36.859375 6.390625 41.078125 11.03125 
Q 45.3125 15.671875 45.3125 23.6875 
L 45.3125 54.6875 
L 54.296875 54.6875 
L 54.296875 0 
L 45.3125 0 
L 45.3125 8.40625 
Q 42.046875 3.421875 37.71875 1 
Q 33.40625 -1.421875 27.6875 -1.421875 
Q 18.265625 -1.421875 13.375 4.4375 
Q 8.5 10.296875 8.5 21.578125 
z
M 31.109375 56 
z
" id="DejaVuSans-117"/>
      <path d="M 48.6875 27.296875 
Q 48.6875 37.203125 44.609375 42.84375 
Q 40.53125 48.484375 33.40625 48.484375 
Q 26.265625 48.484375 22.1875 42.84375 
Q 18.109375 37.203125 18.109375 27.296875 
Q 18.109375 17.390625 22.1875 11.75 
Q 26.265625 6.109375 33.40625 6.109375 
Q 40.53125 6.109375 44.609375 11.75 
Q 48.6875 17.390625 48.6875 27.296875 
z
M 18.109375 46.390625 
Q 20.953125 51.265625 25.265625 53.625 
Q 29.59375 56 35.59375 56 
Q 45.5625 56 51.78125 48.09375 
Q 58.015625 40.1875 58.015625 27.296875 
Q 58.015625 14.40625 51.78125 6.484375 
Q 45.5625 -1.421875 35.59375 -1.421875 
Q 29.59375 -1.421875 25.265625 0.953125 
Q 20.953125 3.328125 18.109375 8.203125 
L 18.109375 0 
L 9.078125 0 
L 9.078125 75.984375 
L 18.109375 75.984375 
z
" id="DejaVuSans-98"/>
      <path d="M 41.109375 46.296875 
Q 39.59375 47.171875 37.8125 47.578125 
Q 36.03125 48 33.890625 48 
Q 26.265625 48 22.1875 43.046875 
Q 18.109375 38.09375 18.109375 28.8125 
L 18.109375 0 
L 9.078125 0 
L 9.078125 54.6875 
L 18.109375 54.6875 
L 18.109375 46.1875 
Q 20.953125 51.171875 25.484375 53.578125 
Q 30.03125 56 36.53125 56 
Q 37.453125 56 38.578125 55.875 
Q 39.703125 55.765625 41.0625 55.515625 
z
" id="DejaVuSans-114"/>
     </defs>
     <g style="fill:#262626;" transform="translate(14.798438 187.685844)rotate(-90)scale(0.1 -0.1)">
      <use xlink:href="#DejaVuSans-99"/>
      <use x="54.980469" xlink:href="#DejaVuSans-101"/>
      <use x="116.503906" xlink:href="#DejaVuSans-108"/>
      <use x="144.287109" xlink:href="#DejaVuSans-108"/>
      <use x="172.070312" xlink:href="#DejaVuSans-115"/>
      <use x="224.169922" xlink:href="#DejaVuSans-32"/>
      <use x="255.957031" xlink:href="#DejaVuSans-110"/>
      <use x="319.335938" xlink:href="#DejaVuSans-117"/>
      <use x="382.714844" xlink:href="#DejaVuSans-109"/>
      <use x="480.126953" xlink:href="#DejaVuSans-98"/>
      <use x="543.603516" xlink:href="#DejaVuSans-101"/>
      <use x="605.126953" xlink:href="#DejaVuSans-114"/>
     </g>
    </g>
   </g>
   <g id="line2d_15">
    <path clip-path="url(#p338669f80d)" d="M 75.923352 276.23858 
L 77.007341 275.512438 
L 78.633323 274.174807 
L 79.717312 273.35312 
L 82.427283 271.365784 
L 82.969277 271.098258 
L 83.511272 270.563206 
L 85.137254 269.588646 
L 87.847225 267.123585 
L 88.931214 266.015262 
L 93.809162 261.945044 
L 94.89315 261.085139 
L 95.435145 260.607414 
L 95.977139 260.378106 
L 98.68711 258.333443 
L 101.939075 255.944817 
L 104.649047 253.976589 
L 105.733035 253.078466 
L 106.817024 252.352324 
L 108.443006 250.919149 
L 109.526995 250.231225 
L 110.068989 249.982807 
L 110.610983 249.35221 
L 111.152977 248.97003 
L 111.694972 248.798049 
L 112.236966 248.473196 
L 112.77896 247.919035 
L 114.404943 246.944476 
L 118.740897 244.55585 
L 120.366879 243.351983 
L 121.992862 242.224552 
L 123.076851 241.345537 
L 124.160839 240.581177 
L 127.412804 238.517405 
L 128.496793 237.982352 
L 129.580781 237.25621 
L 134.458729 234.045898 
L 135.542718 233.357973 
L 136.084712 233.071338 
L 137.168701 232.173215 
L 137.710695 231.943907 
L 138.794683 231.236874 
L 140.96266 230.109443 
L 141.504654 229.402409 
L 145.298614 226.70804 
L 146.382603 226.172988 
L 146.924597 225.657044 
L 147.466591 225.3513 
L 149.092574 224.070997 
L 149.634568 223.746144 
L 150.718556 222.886239 
L 151.802545 222.389405 
L 152.344539 222.045443 
L 152.886533 221.433954 
L 155.05451 219.943452 
L 158.306476 217.765025 
L 158.84847 217.268191 
L 161.558441 216.064324 
L 162.100435 215.586599 
L 163.184424 215.013329 
L 164.268412 214.000552 
L 167.520378 211.15331 
L 168.604366 210.408059 
L 169.14636 210.216969 
L 170.230349 209.41439 
L 175.650291 205.305954 
L 176.73428 204.656248 
L 178.902257 203.318618 
L 179.444251 202.630694 
L 179.986245 202.344059 
L 180.528239 201.923661 
L 181.612228 201.293063 
L 182.696216 200.375831 
L 185.948182 197.891661 
L 186.490176 197.662352 
L 194.078095 192.197177 
L 196.246072 190.496476 
L 196.788066 190.152514 
L 197.33006 189.579243 
L 200.040032 187.687452 
L 202.208009 186.273386 
L 203.291997 185.661898 
L 203.833991 185.069518 
L 204.375985 184.859319 
L 205.459974 183.922978 
L 206.543962 183.349708 
L 209.253934 181.152172 
L 210.879916 180.082068 
L 212.505899 179.164836 
L 218.467836 174.444912 
L 220.093818 173.298371 
L 221.177807 172.381139 
L 222.261795 171.59767 
L 223.345784 170.718656 
L 224.429772 169.87786 
L 225.513761 168.884191 
L 228.223732 166.954182 
L 228.765726 166.323585 
L 229.30772 165.960514 
L 230.391709 164.909518 
L 231.475697 163.954068 
L 232.017691 163.53367 
L 232.559686 163.266144 
L 233.10168 162.673765 
L 234.185668 161.966732 
L 234.727662 161.393461 
L 236.895639 159.826523 
L 237.979628 158.890182 
L 239.605611 157.800969 
L 240.689599 156.979281 
L 241.231593 156.730864 
L 242.315582 155.928286 
L 243.39957 155.202144 
L 247.19353 151.915395 
L 249.903501 149.870732 
L 250.445495 149.33568 
L 250.987489 149.010826 
L 251.529484 148.494883 
L 252.071478 148.227357 
L 254.781449 146.240021 
L 256.949426 144.749518 
L 258.575409 143.316343 
L 260.201391 142.150694 
L 262.369368 140.354447 
L 263.995351 139.398997 
L 266.163328 137.526315 
L 267.247316 136.685518 
L 269.415293 134.659964 
L 274.293241 131.124798 
L 274.835236 130.819054 
L 275.919224 129.94004 
L 276.461218 129.347661 
L 277.003213 129.061025 
L 281.339167 125.487642 
L 281.881161 125.277443 
L 282.965149 124.264665 
L 285.133126 122.468419 
L 286.217115 121.283661 
L 287.843097 120.022466 
L 290.553068 118.188002 
L 292.179051 116.907698 
L 292.721045 116.601954 
L 293.805034 115.684722 
L 295.431017 114.499964 
L 296.515005 113.792931 
L 297.598993 112.83748 
L 298.682982 111.977575 
L 299.224976 111.423414 
L 300.308965 110.811926 
L 301.392953 109.875585 
L 302.476942 109.092116 
L 303.56093 108.117556 
L 304.102924 107.773594 
L 304.644919 107.563395 
L 306.270901 106.034675 
L 306.812895 105.537841 
L 307.35489 105.193879 
L 309.522867 103.321196 
L 310.064861 102.996343 
L 310.606855 102.537727 
L 311.148849 102.270201 
L 314.400815 99.652267 
L 316.568792 97.932457 
L 317.110786 97.607604 
L 321.988734 93.518277 
L 324.698705 91.760248 
L 326.324688 90.556381 
L 327.408676 89.887566 
L 328.492665 88.683698 
L 329.034659 88.2633 
L 329.576653 87.995774 
L 331.202636 86.73458 
L 334.454601 84.517935 
L 335.53859 83.791793 
L 337.706567 82.033765 
L 338.248561 81.689803 
L 338.790555 81.479604 
L 339.874544 80.79168 
L 340.958532 80.084646 
L 342.584515 78.938106 
L 343.668503 78.078201 
L 344.752492 77.14186 
L 345.83648 76.262845 
L 350.172434 72.995206 
L 352.882405 71.351831 
L 353.424399 70.759452 
L 353.966394 70.396381 
L 355.050382 69.249841 
L 363.72229 62.561689 
L 364.264284 62.255945 
L 364.806278 61.720893 
L 365.348273 61.376931 
L 365.890267 61.185841 
L 368.058244 59.65712 
L 368.600238 59.408703 
L 370.768215 58.013746 
L 372.394198 57.096514 
L 376.188157 54.134618 
L 376.730151 53.790656 
L 378.356134 52.128172 
L 378.898128 51.803319 
L 379.440123 51.344703 
L 381.066105 50.331926 
L 382.150094 49.510239 
L 382.692088 49.204495 
L 383.776077 48.115281 
L 385.944053 46.834978 
L 387.570036 45.210713 
L 389.196019 43.930409 
L 391.90599 41.637329 
L 392.989978 40.777424 
L 393.531973 40.414352 
L 395.157955 38.942959 
L 397.867927 36.688097 
L 398.409921 36.133935 
L 400.035903 34.853632 
L 400.577898 34.414125 
L 400.577898 34.414125 
" style="fill:none;stroke:#000080;stroke-linecap:round;stroke-width:1.5;"/>
   </g>
   <g id="line2d_16">
    <path clip-path="url(#p338669f80d)" d="M 75.923352 276.181253 
L 77.007341 275.493329 
L 78.633323 273.907281 
L 80.259306 272.531433 
L 80.8013 272.244798 
L 82.427283 270.86895 
L 82.969277 270.524988 
L 85.137254 268.614087 
L 86.763237 267.486656 
L 87.847225 266.550315 
L 90.015202 265.136248 
L 91.099191 264.257234 
L 93.809162 262.327225 
L 97.061127 259.556419 
L 98.145116 258.543642 
L 100.313093 257.282447 
L 100.855087 256.65185 
L 101.397081 256.365215 
L 102.48107 255.467092 
L 103.023064 255.12313 
L 104.107052 254.244116 
L 104.649047 253.938371 
L 106.817024 252.314106 
L 107.359018 251.989253 
L 108.443006 251.110239 
L 108.985 250.70895 
L 109.526995 250.460533 
L 110.068989 249.906371 
L 112.236966 248.454087 
L 113.862949 247.020912 
L 114.404943 246.715168 
L 117.114914 244.307433 
L 118.740897 243.351983 
L 119.824885 242.434751 
L 120.366879 242.205443 
L 120.908874 241.67039 
L 123.076851 240.485632 
L 124.160839 239.300874 
L 125.244827 238.651168 
L 126.328816 237.772153 
L 133.374741 232.784703 
L 134.458729 231.88658 
L 135.542718 231.084002 
L 136.626706 230.204988 
L 139.336678 228.332305 
L 140.420666 227.567945 
L 140.96266 227.128438 
L 142.588643 226.192097 
L 144.214626 225.121992 
L 144.75662 224.58694 
L 145.298614 224.376741 
L 147.466591 222.408514 
L 148.008585 222.121879 
L 151.802545 219.179092 
L 153.970522 217.765025 
L 155.05451 216.981556 
L 156.138499 216.255414 
L 157.764481 215.510163 
L 161.016447 213.159755 
L 162.100435 212.10876 
L 163.184424 211.439945 
L 163.726418 211.095983 
L 164.268412 210.522713 
L 165.352401 209.777461 
L 166.978383 208.420722 
L 169.688355 206.280514 
L 170.772343 205.439717 
L 171.856331 204.885556 
L 175.108297 202.688021 
L 176.73428 201.713461 
L 177.818268 200.815338 
L 178.902257 199.898106 
L 179.986245 199.210182 
L 180.528239 198.961765 
L 187.03217 194.490258 
L 188.116158 193.745007 
L 189.742141 192.483812 
L 190.284135 192.273613 
L 191.910118 191.165291 
L 193.536101 190.248059 
L 194.078095 189.923206 
L 194.620089 189.44548 
L 195.704078 188.719338 
L 203.291997 182.967528 
L 205.459974 181.19039 
L 208.169945 179.413253 
L 215.757864 173.604116 
L 218.467836 172.075395 
L 219.551824 171.349253 
L 220.093818 170.795092 
L 221.177807 170.107168 
L 222.803789 169.09439 
L 223.345784 168.673992 
L 223.887778 168.482902 
L 224.429772 168.062504 
L 224.971766 167.470125 
L 226.597749 166.438239 
L 227.681737 165.521007 
L 230.391709 163.91585 
L 230.933703 163.514561 
L 232.017691 162.979509 
L 234.727662 160.667319 
L 236.353645 159.654542 
L 237.979628 158.049386 
L 239.605611 156.960172 
L 244.483559 153.119262 
L 245.025553 152.526883 
L 245.567547 152.240248 
L 246.651536 151.43767 
L 247.735524 150.787964 
L 249.903501 149.240134 
L 250.987489 148.322902 
L 252.613472 146.870618 
L 253.155466 146.335566 
L 253.697461 145.972495 
L 254.781449 144.997935 
L 256.407432 144.042485 
L 256.949426 143.679414 
L 258.575409 141.997822 
L 259.659397 141.25257 
L 261.28538 139.838504 
L 263.453357 138.424438 
L 264.537345 137.526315 
L 265.07934 137.297007 
L 266.163328 136.303338 
L 269.415293 133.876495 
L 270.499282 133.131243 
L 273.751247 130.952817 
L 278.629195 126.920817 
L 279.713184 126.041803 
L 281.881161 124.16912 
L 284.591132 122.086239 
L 285.133126 121.780495 
L 286.217115 120.71039 
L 292.179051 116.601954 
L 293.26304 115.91403 
L 294.889022 114.671945 
L 295.431017 114.461746 
L 296.515005 113.468078 
L 297.056999 112.971243 
L 298.140988 112.302428 
L 300.308965 110.659054 
L 300.850959 110.429746 
L 301.392953 110.028457 
L 302.476942 109.436078 
L 303.018936 109.111225 
L 305.186913 107.391414 
L 310.606855 103.302087 
L 311.690844 102.327528 
L 312.232838 101.90713 
L 312.774832 101.639604 
L 313.316826 101.123661 
L 314.400815 100.607717 
L 314.942809 100.244646 
L 316.026797 98.964343 
L 317.110786 98.085329 
L 317.65278 97.760476 
L 318.194774 97.187206 
L 319.278763 96.51839 
L 320.904746 95.104324 
L 321.44674 94.932343 
L 322.530728 94.263528 
L 323.614717 93.422732 
L 325.240699 91.970447 
L 326.866682 91.186978 
L 333.912607 86.505272 
L 334.454601 85.817348 
L 334.996596 85.511604 
L 336.622578 84.116646 
L 337.164572 83.791793 
L 337.706567 83.237632 
L 338.248561 82.950997 
L 339.874544 81.460495 
L 341.500526 80.677025 
L 343.668503 78.632362 
L 345.294486 77.600476 
L 345.83648 76.969879 
L 348.546451 75.135414 
L 350.714428 73.320059 
L 353.424399 71.218068 
L 354.508388 70.2244 
L 356.134371 69.345386 
L 366.974255 61.39604 
L 367.51625 61.071187 
L 368.058244 60.593461 
L 368.600238 60.268608 
L 370.226221 58.797215 
L 371.310209 58.071073 
L 373.478186 56.523243 
L 374.562175 55.835319 
L 375.104169 55.472248 
L 375.646163 54.956305 
L 376.730151 54.344817 
L 377.272146 53.943528 
L 377.81414 53.33204 
L 379.440123 52.032627 
L 382.150094 49.567566 
L 382.692088 48.898751 
L 383.776077 48.268153 
L 384.860065 47.102504 
L 387.028042 45.363585 
L 387.570036 44.790315 
L 389.196019 43.605556 
L 395.157955 38.847414 
L 396.241944 38.063945 
L 398.951915 35.809082 
L 400.035903 35.044722 
L 400.577898 34.605215 
L 400.577898 34.605215 
" style="fill:none;stroke:#0000f1;stroke-linecap:round;stroke-width:1.5;"/>
   </g>
   <g id="line2d_17">
    <path clip-path="url(#p338669f80d)" d="M 75.923352 276.257689 
L 78.091329 274.51877 
L 78.633323 273.945499 
L 81.343295 272.072817 
L 81.885289 271.595092 
L 83.511272 270.582315 
L 86.763237 268.079035 
L 87.305231 267.314675 
L 88.38922 266.512097 
L 88.931214 266.225461 
L 89.473208 265.709518 
L 90.015202 265.48021 
L 91.641185 264.123471 
L 92.183179 263.836836 
L 95.977139 261.008703 
L 98.145116 259.785727 
L 99.229104 258.849386 
L 99.771099 258.562751 
L 103.565058 255.639073 
L 104.649047 255.027585 
L 107.359018 253.19312 
L 107.901012 252.524305 
L 108.985 251.85549 
L 110.610983 250.938258 
L 112.236966 249.657954 
L 113.862949 248.855376 
L 116.030926 247.288438 
L 117.114914 246.638732 
L 118.740897 245.415755 
L 119.282891 244.804267 
L 120.366879 243.963471 
L 121.992862 242.740495 
L 124.702833 240.944248 
L 126.328816 239.644836 
L 127.954799 238.765822 
L 128.496793 238.479187 
L 129.580781 237.695717 
L 131.206764 236.510959 
L 132.832747 235.249765 
L 133.916735 234.428078 
L 135.542718 233.472627 
L 136.626706 232.536286 
L 137.710695 232.020343 
L 140.420666 229.822807 
L 141.504654 229.153992 
L 142.588643 228.122106 
L 145.298614 226.058334 
L 149.092574 223.841689 
L 153.970522 220.402068 
L 154.512516 219.79058 
L 155.596504 218.988002 
L 156.680493 218.108988 
L 158.306476 216.752248 
L 158.84847 216.427395 
L 159.932458 215.56749 
L 161.016447 214.879566 
L 162.100435 214.287187 
L 162.64243 213.82857 
L 163.184424 213.599262 
L 163.726418 213.083319 
L 165.894395 211.72658 
L 166.978383 210.981329 
L 170.772343 208.363395 
L 171.856331 207.522599 
L 174.024308 206.414277 
L 176.192285 205.076646 
L 177.818268 203.968324 
L 179.986245 202.267623 
L 180.528239 201.94277 
L 181.070233 201.407717 
L 182.696216 200.490485 
L 189.200147 195.808779 
L 190.82613 194.356495 
L 192.452112 193.209954 
L 192.994107 192.923319 
L 193.536101 192.483812 
L 194.078095 192.216286 
L 196.788066 190.056969 
L 197.872055 189.369044 
L 199.498037 188.069632 
L 202.208009 185.852988 
L 203.833991 184.610902 
L 204.375985 184.400703 
L 204.91798 183.88476 
L 206.001968 183.158618 
L 207.627951 181.935642 
L 208.711939 181.266826 
L 210.337922 180.23494 
L 211.42191 179.623452 
L 212.505899 178.782656 
L 213.589887 177.846315 
L 214.131882 177.387698 
L 216.841853 175.782542 
L 217.925841 174.922637 
L 219.00983 174.330258 
L 221.177807 172.705992 
L 221.719801 172.457575 
L 224.429772 170.412912 
L 227.681737 168.005177 
L 228.223732 167.794978 
L 236.353645 161.737424 
L 236.895639 161.183262 
L 238.521622 160.036722 
L 239.063616 159.406125 
L 239.605611 158.966618 
L 240.689599 158.450675 
L 241.773588 157.59077 
L 244.483559 155.679869 
L 245.025553 155.412343 
L 245.567547 154.781746 
L 246.651536 154.093822 
L 249.361507 151.647869 
L 250.445495 151.074599 
L 259.659397 143.545651 
L 260.201391 143.010599 
L 260.743386 142.743073 
L 262.369368 141.500988 
L 263.453357 140.411774 
L 263.995351 140.144248 
L 265.621334 138.940381 
L 267.789311 137.373443 
L 268.873299 136.570864 
L 269.957288 136.016703 
L 272.125265 134.258675 
L 272.667259 133.666296 
L 274.293241 132.405101 
L 274.835236 132.137575 
L 277.003213 130.360438 
L 279.17119 128.908153 
L 280.255178 127.990921 
L 281.339167 127.169234 
L 282.423155 126.366656 
L 286.217115 123.442978 
L 287.843097 122.525746 
L 288.927086 121.856931 
L 292.179051 119.449196 
L 293.805034 118.264438 
L 295.973011 116.773935 
L 297.598993 115.436305 
L 298.140988 115.130561 
L 299.224976 114.251547 
L 299.76697 113.831149 
L 300.850959 112.780153 
L 301.392953 112.569954 
L 303.56093 111.136779 
L 306.270901 108.576172 
L 310.064861 105.996457 
L 310.606855 105.690713 
L 312.232838 104.314864 
L 320.362751 97.856021 
L 320.904746 97.49295 
L 321.44674 96.90057 
L 323.072722 95.792248 
L 324.156711 95.18076 
L 326.866682 93.097879 
L 327.950671 92.352627 
L 330.660642 90.250637 
L 331.202636 89.62004 
L 332.828619 88.416172 
L 334.454601 87.403395 
L 336.080584 86.314182 
L 337.164572 85.664476 
L 340.416538 83.352286 
L 340.958532 82.798125 
L 342.584515 81.55604 
L 343.668503 80.696134 
L 344.752492 79.931774 
L 345.83648 78.976324 
L 346.920469 78.039983 
L 348.546451 76.893443 
L 349.63044 76.090864 
L 351.256423 74.944324 
L 351.798417 74.466599 
L 353.424399 73.434713 
L 353.966394 72.861443 
L 355.050382 72.192627 
L 355.592376 71.886883 
L 356.134371 71.294504 
L 358.844342 69.249841 
L 359.92833 68.561916 
L 360.470324 67.988646 
L 361.554313 67.300722 
L 362.096307 66.95676 
L 363.180296 65.963092 
L 364.264284 65.447149 
L 365.890267 64.013973 
L 366.432261 63.536248 
L 366.974255 63.287831 
L 369.684226 60.899206 
L 372.394198 59.217613 
L 374.02018 57.822656 
L 381.6081 52.242826 
L 382.692088 51.669556 
L 384.318071 50.331926 
L 384.860065 49.796874 
L 385.402059 49.529348 
L 386.486048 48.478352 
L 387.570036 47.847755 
L 388.11203 47.255376 
L 389.196019 46.529234 
L 389.738013 46.299926 
L 390.822002 45.210713 
L 391.90599 44.369916 
L 392.447984 43.681992 
L 394.615961 42.019509 
L 395.69995 41.503566 
L 398.409921 39.439793 
L 399.493909 38.656324 
L 400.577898 37.796419 
L 400.577898 37.796419 
" style="fill:none;stroke:#004cff;stroke-linecap:round;stroke-width:1.5;"/>
   </g>
   <g id="line2d_18">
    <path clip-path="url(#p338669f80d)" d="M 75.923352 276.334125 
L 79.175318 274.193916 
L 80.259306 273.314902 
L 80.8013 272.607869 
L 81.343295 272.091926 
L 81.885289 271.767073 
L 82.427283 271.595092 
L 83.511272 270.830732 
L 84.053266 270.27657 
L 84.59526 269.89439 
L 85.137254 269.684191 
L 87.847225 267.486656 
L 89.473208 266.397443 
L 96.519133 261.06603 
L 97.603122 260.358997 
L 101.397081 257.301556 
L 101.939075 257.03403 
L 102.48107 256.537196 
L 103.565058 255.791945 
L 104.649047 254.836495 
L 105.191041 254.530751 
L 105.733035 254.072134 
L 106.275029 253.460646 
L 109.526995 250.995585 
L 110.610983 250.422315 
L 113.320954 247.995471 
L 114.404943 247.269329 
L 116.57292 245.683281 
L 119.824885 242.893367 
L 120.366879 242.664059 
L 123.076851 240.753158 
L 123.618845 240.294542 
L 124.702833 239.625727 
L 126.328816 238.383642 
L 127.412804 237.733935 
L 130.122776 235.517291 
L 131.206764 234.867585 
L 132.290752 233.912134 
L 132.832747 233.396191 
L 133.916735 232.708267 
L 135.000724 231.69549 
L 135.542718 231.466182 
L 136.084712 231.026675 
L 136.626706 230.816476 
L 138.794683 229.402409 
L 140.420666 228.389632 
L 140.96266 227.816362 
L 141.504654 227.4724 
L 142.046649 226.956457 
L 143.130637 226.402296 
L 144.214626 225.523281 
L 146.924597 223.82258 
L 148.008585 223.134656 
L 148.550579 222.771585 
L 149.634568 221.816134 
L 150.718556 221.089992 
L 151.802545 220.077215 
L 152.344539 219.79058 
L 153.428528 218.816021 
L 156.138499 216.561158 
L 157.764481 215.777689 
L 169.688355 207.427054 
L 170.772343 206.73913 
L 171.856331 206.051206 
L 173.482314 204.522485 
L 174.566303 203.930106 
L 176.73428 202.191187 
L 177.818268 201.560589 
L 178.902257 200.872665 
L 179.986245 200.299395 
L 180.528239 199.82167 
L 182.154222 199.019092 
L 183.780205 197.528589 
L 184.864193 196.917101 
L 185.406187 196.630466 
L 186.490176 195.713234 
L 187.03217 195.388381 
L 188.658153 193.764116 
L 189.200147 193.47748 
L 191.368124 191.814997 
L 197.872055 187.591907 
L 199.498037 186.502694 
L 200.040032 186.235168 
L 201.12402 185.470807 
L 204.375985 183.521689 
L 205.459974 182.852874 
L 209.253934 180.311376 
L 210.879916 179.222163 
L 213.047893 177.731661 
L 214.673876 176.680665 
L 215.21587 176.489575 
L 215.757864 176.145613 
L 216.841853 175.304817 
L 222.261795 171.502125 
L 222.803789 170.909746 
L 223.345784 170.680438 
L 224.429772 169.954296 
L 224.971766 169.724988 
L 228.223732 167.527452 
L 229.849714 166.03695 
L 230.391709 165.750315 
L 232.017691 164.508229 
L 232.559686 164.240703 
L 237.979628 160.113158 
L 239.063616 159.367907 
L 240.147605 158.508002 
L 240.689599 158.278694 
L 243.941564 155.202144 
L 244.483559 154.953727 
L 245.567547 154.112931 
L 246.651536 153.081044 
L 248.277518 151.781632 
L 253.155466 147.902504 
L 255.865438 145.552097 
L 256.949426 144.730409 
L 259.659397 142.532874 
L 261.28538 141.634751 
L 261.827374 141.099698 
L 262.369368 140.774845 
L 264.537345 138.940381 
L 265.621334 138.214239 
L 266.163328 137.640969 
L 266.705322 137.297007 
L 268.331305 135.902049 
L 268.873299 135.424324 
L 269.415293 135.195016 
L 269.957288 134.812836 
L 271.58327 133.245898 
L 272.125265 132.882826 
L 273.751247 131.392324 
L 275.37723 130.532419 
L 276.461218 129.615187 
L 277.003213 129.290334 
L 280.255178 126.557746 
L 281.339167 126.022694 
L 282.423155 124.971698 
L 284.591132 123.78694 
L 285.67512 122.716836 
L 286.217115 122.239111 
L 286.759109 121.933367 
L 287.301103 121.436533 
L 288.927086 120.385537 
L 290.011074 119.602068 
L 290.553068 119.086125 
L 291.637057 118.436419 
L 295.973011 115.34076 
L 297.056999 114.327983 
L 297.598993 114.022239 
L 300.308965 111.652722 
L 301.392953 110.850144 
L 302.476942 110.124002 
L 303.018936 109.58895 
L 303.56093 109.225879 
L 305.186913 107.697158 
L 306.270901 106.932798 
L 307.35489 105.996457 
L 308.438878 105.308533 
L 309.522867 104.658826 
L 310.064861 104.238428 
L 311.148849 103.187433 
L 314.400815 100.416627 
L 317.110786 98.333746 
L 318.194774 97.244533 
L 323.072722 93.365405 
L 324.156711 92.142428 
L 325.782694 90.843016 
L 326.866682 90.19331 
L 328.492665 88.913007 
L 329.576653 87.919338 
L 331.74463 86.600817 
L 332.828619 85.568931 
L 333.370613 85.224969 
L 333.912607 84.670807 
L 334.454601 84.365063 
L 335.53859 83.447831 
L 337.706567 81.900002 
L 342.584515 78.231073 
L 343.668503 77.676912 
L 345.294486 76.606807 
L 346.378474 75.651357 
L 350.714428 72.804116 
L 351.798417 72.039755 
L 353.424399 70.950542 
L 354.508388 70.03331 
L 355.592376 69.307168 
L 359.386336 66.135073 
L 359.92833 65.600021 
L 360.470324 65.313386 
L 361.554313 64.357935 
L 363.72229 62.829215 
L 365.348273 61.96931 
L 368.058244 59.829101 
L 369.142232 59.102959 
L 370.226221 58.262163 
L 370.768215 57.803547 
L 372.936192 56.465916 
L 374.02018 55.357594 
L 375.104169 54.574125 
L 376.188157 53.637784 
L 376.730151 53.33204 
L 378.356134 51.937082 
L 381.066105 49.720438 
L 381.6081 49.452912 
L 389.738013 43.395357 
L 390.822002 42.325253 
L 391.363996 41.885746 
L 392.447984 41.369803 
L 394.073967 39.936627 
L 400.577898 35.388684 
L 400.577898 35.388684 
" style="fill:none;stroke:#00b0ff;stroke-linecap:round;stroke-width:1.5;"/>
   </g>
   <g id="line2d_19">
    <path clip-path="url(#p338669f80d)" d="M 75.923352 276.257689 
L 77.007341 275.436002 
L 80.259306 273.257575 
L 80.8013 272.798959 
L 81.885289 272.187471 
L 82.427283 271.709746 
L 82.969277 271.44222 
L 85.679248 269.302011 
L 86.221243 268.786068 
L 86.763237 268.499433 
L 87.305231 267.926163 
L 88.931214 266.722296 
L 91.099191 264.926049 
L 92.725173 263.703073 
L 93.809162 262.747623 
L 95.435145 261.658409 
L 95.977139 261.008703 
L 98.145116 259.441765 
L 99.229104 258.849386 
L 99.771099 258.448097 
L 100.313093 258.257007 
L 101.397081 257.339774 
L 102.48107 256.479869 
L 103.565058 255.658182 
L 104.649047 254.855604 
L 105.191041 254.607187 
L 112.77896 249.122902 
L 118.740897 244.613177 
L 119.282891 244.020798 
L 119.824885 243.657727 
L 120.908874 242.759604 
L 122.534856 241.67039 
L 123.618845 240.657613 
L 124.702833 239.740381 
L 126.87081 237.886807 
L 129.038787 236.549177 
L 133.916735 233.510845 
L 134.458729 233.243319 
L 135.000724 232.784703 
L 135.542718 232.478959 
L 137.168701 231.084002 
L 138.252689 230.090334 
L 139.336678 229.268646 
L 142.046649 227.319528 
L 142.588643 227.052002 
L 144.214626 225.809916 
L 148.550579 222.67604 
L 150.718556 221.586826 
L 151.802545 220.650485 
L 152.886533 219.867016 
L 153.970522 219.02622 
L 155.05451 218.529386 
L 158.306476 216.828684 
L 158.84847 216.484722 
L 159.932458 216.083433 
L 160.474453 215.643926 
L 161.016447 214.975111 
L 163.726418 212.911338 
L 164.268412 212.357177 
L 165.352401 211.631035 
L 165.894395 211.038656 
L 166.436389 210.637367 
L 167.520378 210.064097 
L 169.688355 208.382504 
L 170.230349 207.790125 
L 171.856331 206.605367 
L 172.398326 206.127642 
L 173.482314 205.477935 
L 176.73428 203.414163 
L 177.276274 202.783566 
L 178.902257 201.579698 
L 179.444251 200.929992 
L 179.986245 200.681575 
L 181.070233 199.859888 
L 181.612228 199.592362 
L 182.696216 198.732457 
L 183.23821 198.445822 
L 184.864193 197.146409 
L 187.03217 195.885215 
L 188.658153 194.45204 
L 189.200147 194.127187 
L 190.82613 192.827774 
L 197.33006 188.814883 
L 201.12402 186.445367 
L 202.208009 185.757443 
L 206.001968 183.387926 
L 207.627951 182.203168 
L 209.253934 180.9993 
L 210.337922 180.483357 
L 211.42191 179.776324 
L 211.963905 179.222163 
L 212.505899 178.935528 
L 214.131882 177.483243 
L 215.21587 176.623338 
L 215.757864 176.126504 
L 216.841853 175.515016 
L 218.467836 173.986296 
L 219.00983 173.623225 
L 219.551824 173.413025 
L 221.719801 171.884305 
L 222.261795 171.425689 
L 222.803789 170.756874 
L 223.887778 169.954296 
L 226.597749 168.119831 
L 228.765726 166.495566 
L 229.849714 165.922296 
L 233.10168 163.495452 
L 233.643674 163.017727 
L 234.185668 162.711983 
L 234.727662 162.234258 
L 235.811651 161.641879 
L 236.895639 160.953954 
L 237.979628 160.342466 
L 239.605611 159.043054 
L 241.231593 157.953841 
L 242.315582 156.864627 
L 245.025553 154.647983 
L 246.109541 153.94095 
L 247.735524 152.565101 
L 248.277518 152.182921 
L 248.819513 151.991831 
L 249.361507 151.647869 
L 250.445495 150.749746 
L 252.071478 149.679642 
L 252.613472 149.431225 
L 258.033414 144.7113 
L 259.659397 143.698523 
L 260.743386 142.762182 
L 261.28538 142.513765 
L 265.07934 139.322561 
L 266.163328 138.615528 
L 272.667259 133.704514 
L 274.835236 132.42421 
L 275.919224 131.564305 
L 277.003213 130.761727 
L 278.087201 129.978258 
L 279.713184 129.099243 
L 280.797172 128.678845 
L 282.423155 127.532305 
L 284.049138 126.615073 
L 285.67512 125.220116 
L 286.217115 124.895262 
L 286.759109 124.321992 
L 288.385092 123.232779 
L 301.392953 112.245101 
L 302.476942 111.614504 
L 303.018936 111.174997 
L 303.56093 110.888362 
L 304.102924 110.35331 
L 304.644919 110.009348 
L 305.186913 109.493405 
L 306.270901 108.862807 
L 307.35489 108.022011 
L 311.148849 105.212988 
L 312.232838 104.333973 
L 313.316826 103.62694 
L 314.400815 102.843471 
L 315.484803 102.270201 
L 317.110786 101.180988 
L 318.194774 100.454845 
L 318.736769 99.938902 
L 319.820757 99.136324 
L 321.44674 97.741367 
L 321.988734 97.340078 
L 323.072722 96.289082 
L 323.614717 96.021556 
L 326.324688 93.671149 
L 327.408676 93.021443 
L 329.034659 91.798466 
L 329.576653 91.282523 
L 330.118647 90.938561 
L 331.74463 89.352514 
L 334.454601 87.518049 
L 335.53859 86.677253 
L 336.080584 86.123092 
L 339.332549 83.868229 
L 340.416538 82.779016 
L 342.042521 81.842675 
L 343.668503 80.466826 
L 345.294486 79.396722 
L 348.004457 77.256514 
L 348.546451 76.702352 
L 354.508388 72.441044 
L 356.134371 71.084305 
L 357.218359 70.262618 
L 358.302348 69.364495 
L 359.92833 68.1033 
L 361.012319 67.071414 
L 361.554313 66.727452 
L 362.638301 65.848438 
L 363.72229 65.026751 
L 364.264284 64.396153 
L 366.432261 63.020305 
L 368.058244 61.701784 
L 369.142232 60.899206 
L 370.226221 60.192172 
L 372.394198 58.778106 
L 373.478186 57.765329 
L 374.562175 57.096514 
L 375.646163 56.236608 
L 377.81414 55.128286 
L 382.692088 51.038959 
L 383.234082 50.809651 
L 385.402059 49.10895 
L 386.486048 48.344589 
L 390.822002 44.847642 
L 391.363996 44.389025 
L 391.90599 44.10239 
L 395.157955 41.560893 
L 395.69995 41.006732 
L 398.409921 39.038504 
L 399.493909 38.083054 
L 400.035903 37.815528 
L 400.577898 37.414239 
L 400.577898 37.414239 
" style="fill:none;stroke:#29ffce;stroke-linecap:round;stroke-width:1.5;"/>
   </g>
   <g id="line2d_20">
    <path clip-path="url(#p338669f80d)" d="M 75.923352 276.257689 
L 78.091329 274.423225 
L 78.633323 274.079262 
L 79.175318 273.869063 
L 80.8013 272.665196 
L 82.969277 270.926277 
L 84.053266 270.142807 
L 85.137254 268.958049 
L 87.305231 267.123585 
L 87.847225 266.83695 
L 88.38922 266.397443 
L 88.931214 266.168134 
L 90.015202 265.403774 
L 91.641185 263.970599 
L 92.183179 263.607528 
L 92.725173 263.37822 
L 93.809162 262.518315 
L 94.351156 262.02148 
L 97.061127 260.320779 
L 99.229104 258.505424 
L 100.855087 257.186902 
L 101.397081 256.65185 
L 101.939075 256.403433 
L 102.48107 255.868381 
L 104.649047 254.454315 
L 105.733035 253.632627 
L 106.275029 253.231338 
L 106.817024 253.00203 
L 107.359018 252.447869 
L 111.152977 249.982807 
L 113.320954 248.664286 
L 114.946937 247.479528 
L 115.488931 246.829822 
L 118.198902 244.727831 
L 119.824885 243.562182 
L 120.366879 242.988912 
L 126.328816 238.899585 
L 126.87081 238.460078 
L 127.412804 238.173443 
L 128.496793 237.25621 
L 129.580781 236.434523 
L 131.206764 234.96313 
L 132.290752 234.084116 
L 132.832747 233.60639 
L 135.542718 231.88658 
L 136.626706 231.141329 
L 137.168701 230.93113 
L 141.504654 227.510618 
L 142.588643 226.746258 
L 146.382603 223.918125 
L 149.092574 221.988116 
L 149.634568 221.223755 
L 150.176562 220.898902 
L 150.718556 220.325632 
L 151.260551 219.924343 
L 151.802545 219.675926 
L 152.344539 219.255528 
L 152.886533 218.988002 
L 153.428528 218.433841 
L 155.05451 217.2873 
L 156.138499 216.198087 
L 158.84847 214.287187 
L 159.390464 214.057879 
L 160.474453 213.274409 
L 162.100435 212.376286 
L 163.184424 211.669253 
L 165.894395 209.739243 
L 166.978383 208.84112 
L 167.520378 208.382504 
L 168.062372 208.172305 
L 168.604366 207.713689 
L 169.688355 207.159528 
L 170.772343 206.299623 
L 171.314337 205.917443 
L 171.856331 205.344172 
L 174.566303 203.624362 
L 175.650291 202.802675 
L 176.192285 202.496931 
L 176.73428 202.000097 
L 177.276274 201.770789 
L 177.818268 201.312172 
L 178.360262 201.044646 
L 179.444251 200.261177 
L 180.528239 199.611471 
L 183.780205 197.222845 
L 184.322199 196.783338 
L 184.864193 196.515812 
L 185.406187 196.095414 
L 186.490176 195.59858 
L 188.658153 193.897879 
L 190.284135 192.961537 
L 191.368124 192.006087 
L 194.078095 190.095187 
L 194.620089 189.579243 
L 195.162083 189.369044 
L 196.788066 188.184286 
L 197.33006 187.954978 
L 198.414049 187.133291 
L 199.498037 186.655566 
L 200.582026 185.642789 
L 203.833991 183.330599 
L 206.001968 182.069405 
L 206.543962 181.840097 
L 211.963905 177.960969 
L 213.047893 177.234826 
L 214.131882 176.317594 
L 215.757864 175.285708 
L 217.383847 174.120059 
L 217.925841 173.833424 
L 218.467836 173.355698 
L 219.551824 172.667774 
L 221.177807 171.654997 
L 221.719801 171.368362 
L 222.803789 170.546675 
L 223.345784 170.317367 
L 223.887778 169.820533 
L 225.513761 168.807755 
L 226.055755 168.463793 
L 227.139743 167.451016 
L 228.223732 166.877746 
L 229.30772 165.692988 
L 229.849714 165.425461 
L 230.391709 165.005063 
L 231.475697 164.412684 
L 232.559686 163.552779 
L 233.10168 163.361689 
L 234.185668 162.597329 
L 234.727662 162.368021 
L 235.269657 161.832969 
L 236.895639 160.743755 
L 237.979628 159.941177 
L 238.521622 159.730978 
L 239.605611 158.947509 
L 240.147605 158.622656 
L 241.231593 157.743642 
L 244.483559 155.355016 
L 246.109541 154.399566 
L 246.651536 153.883623 
L 247.735524 153.253025 
L 249.361507 151.896286 
L 250.987489 150.558656 
L 254.781449 147.59676 
L 256.407432 146.583983 
L 258.033414 145.112589 
L 261.28538 142.8004 
L 262.369368 142.284457 
L 263.453357 141.443661 
L 263.995351 141.157025 
L 265.621334 140.029594 
L 266.705322 139.303452 
L 274.835236 132.825499 
L 278.629195 130.264893 
L 279.713184 129.17568 
L 280.797172 128.239338 
L 282.423155 126.959035 
L 284.049138 125.90804 
L 285.133126 124.990807 
L 286.759109 123.710504 
L 287.301103 123.118125 
L 288.385092 122.430201 
L 289.46908 121.532078 
L 291.637057 119.984248 
L 294.347028 117.939585 
L 294.889022 117.423642 
L 296.515005 116.391755 
L 299.224976 114.041348 
L 301.934947 112.359755 
L 302.476942 112.111338 
L 304.644919 110.639945 
L 310.064861 106.932798 
L 310.606855 106.397746 
L 311.690844 105.614277 
L 313.316826 104.353082 
L 313.85882 103.798921 
L 315.484803 102.767035 
L 316.026797 102.28931 
L 316.568792 102.021784 
L 318.194774 100.722371 
L 318.736769 100.473954 
L 321.44674 98.295528 
L 321.988734 97.989784 
L 323.072722 97.129879 
L 323.614717 96.843243 
L 324.698705 95.964229 
L 325.782694 95.314523 
L 326.866682 94.263528 
L 328.492665 93.422732 
L 329.576653 92.906789 
L 331.202636 91.702921 
L 331.74463 91.397177 
L 333.912607 89.734694 
L 337.706567 87.078542 
L 342.584515 83.161196 
L 345.83648 81.154751 
L 346.378474 80.619698 
L 352.340411 76.54948 
L 353.424399 75.632248 
L 353.966394 75.345613 
L 355.050382 74.562144 
L 355.592376 74.313727 
L 357.760353 72.842334 
L 359.386336 71.676684 
L 360.470324 70.625689 
L 361.554313 69.765784 
L 366.432261 66.096855 
L 366.974255 65.485367 
L 367.51625 65.160514 
L 368.058244 64.66368 
L 368.600238 64.377044 
L 369.142232 63.88021 
L 370.226221 63.154068 
L 374.562175 60.001082 
L 375.104169 59.46603 
L 375.646163 59.102959 
L 376.730151 57.93731 
L 377.272146 57.593348 
L 378.898128 56.19839 
L 379.982117 55.357594 
L 382.150094 53.943528 
L 383.776077 52.56768 
L 384.318071 52.35748 
L 384.860065 51.726883 
L 385.944053 50.962523 
L 395.157955 44.197935 
L 395.69995 43.892191 
L 396.783938 42.917632 
L 397.325932 42.363471 
L 400.577898 40.051281 
L 400.577898 40.051281 
" style="fill:none;stroke:#7dff7a;stroke-linecap:round;stroke-width:1.5;"/>
   </g>
   <g id="line2d_21">
    <path clip-path="url(#p338669f80d)" d="M 75.923352 276.066599 
L 76.465347 275.493329 
L 77.549335 274.70986 
L 79.717312 272.856286 
L 80.8013 272.321234 
L 82.969277 270.620533 
L 85.137254 269.13003 
L 87.847225 267.41022 
L 88.38922 266.798732 
L 89.473208 266.034371 
L 90.015202 265.575755 
L 90.557197 265.308229 
L 91.641185 264.429215 
L 92.725173 263.550201 
L 97.061127 260.358997 
L 98.145116 259.231566 
L 99.229104 258.39077 
L 100.855087 257.339774 
L 106.817024 252.772722 
L 107.359018 252.505196 
L 107.901012 252.04658 
L 108.985 251.377765 
L 110.068989 250.441424 
L 112.236966 248.931812 
L 113.320954 248.129234 
L 113.862949 247.899926 
L 115.488931 246.848931 
L 117.656908 245.549518 
L 118.198902 245.090902 
L 118.740897 244.785158 
L 119.824885 244.001689 
L 121.450868 243.008021 
L 122.534856 242.186334 
L 123.076851 241.899698 
L 126.328816 239.243547 
L 127.412804 238.383642 
L 131.206764 235.956798 
L 131.748758 235.612836 
L 134.458729 233.128665 
L 135.000724 232.784703 
L 135.542718 232.26876 
L 138.794683 230.090334 
L 140.420666 229.020229 
L 141.504654 228.408741 
L 142.588643 227.701708 
L 144.75662 226.287642 
L 145.298614 226.001007 
L 145.840608 225.54239 
L 147.466591 224.510504 
L 149.092574 223.363964 
L 151.802545 220.879793 
L 152.344539 220.440286 
L 152.886533 220.191869 
L 153.428528 219.714144 
L 154.512516 219.102656 
L 155.596504 218.395623 
L 156.680493 217.612153 
L 157.222487 217.077101 
L 159.390464 215.720362 
L 159.932458 215.319073 
L 160.474453 215.070656 
L 162.100435 214.019661 
L 162.64243 213.713916 
L 163.726418 212.777575 
L 168.062372 209.509935 
L 169.14636 209.013101 
L 169.688355 208.745575 
L 171.314337 207.427054 
L 171.856331 207.140419 
L 173.482314 205.841007 
L 177.818268 202.840893 
L 178.360262 202.554258 
L 179.986245 201.312172 
L 182.154222 200.127414 
L 183.23821 199.267509 
L 186.490176 197.050864 
L 188.116158 195.675016 
L 189.742141 194.604912 
L 191.368124 193.534807 
L 191.910118 192.999755 
L 194.078095 191.75767 
L 194.620089 191.241727 
L 195.704078 190.630239 
L 197.33006 189.579243 
L 197.872055 189.349935 
L 200.582026 187.439035 
L 201.666014 187.018637 
L 202.750003 186.044078 
L 203.833991 185.260608 
L 204.375985 184.993082 
L 207.085957 183.1204 
L 207.627951 182.871983 
L 209.253934 181.706334 
L 209.795928 181.133063 
L 213.589887 178.362258 
L 214.131882 177.769879 
L 215.757864 176.699774 
L 217.383847 175.667888 
L 219.00983 174.521348 
L 220.635812 173.260153 
L 222.803789 172.037177 
L 223.887778 171.196381 
L 227.139743 169.170826 
L 228.223732 168.177158 
L 230.933703 166.075168 
L 231.475697 165.788533 
L 232.017691 165.310807 
L 232.559686 165.005063 
L 233.643674 163.91585 
L 235.811651 162.425348 
L 236.895639 161.546334 
L 239.063616 160.189594 
L 242.315582 157.648097 
L 242.857576 157.38057 
L 246.651536 154.552438 
L 247.735524 153.520552 
L 248.819513 152.717973 
L 249.361507 152.354902 
L 249.903501 151.743414 
L 250.445495 151.514106 
L 254.781449 147.902504 
L 256.949426 146.354675 
L 257.49142 145.934277 
L 258.033414 145.341898 
L 263.453357 141.233461 
L 263.995351 140.774845 
L 264.537345 140.067812 
L 265.621334 139.207907 
L 266.163328 138.863945 
L 267.247316 137.908495 
L 268.331305 137.144134 
L 269.415293 136.494428 
L 271.041276 135.156798 
L 271.58327 134.851054 
L 272.125265 134.373329 
L 272.667259 133.704514 
L 282.965149 125.697841 
L 284.049138 124.74239 
L 290.011074 120.404646 
L 291.095063 119.697613 
L 291.637057 119.162561 
L 293.26304 117.977803 
L 294.347028 117.06057 
L 294.889022 116.773935 
L 295.431017 116.334428 
L 295.973011 116.047793 
L 298.140988 114.423528 
L 298.682982 114.175111 
L 303.56093 110.429746 
L 305.186913 109.455187 
L 308.438878 107.410523 
L 310.064861 105.977348 
L 311.148849 105.193879 
L 312.232838 104.161992 
L 313.316826 103.168324 
L 314.942809 102.212874 
L 316.026797 101.429405 
L 316.568792 101.219206 
L 322.530728 97.320969 
L 323.614717 96.671262 
L 325.240699 95.734921 
L 326.324688 94.855907 
L 329.034659 92.581935 
L 329.576653 92.333518 
L 332.828619 89.964002 
L 333.370613 89.371623 
L 334.454601 88.569044 
L 336.080584 87.135869 
L 337.706567 85.893784 
L 340.416538 83.638921 
L 340.958532 83.294959 
L 342.042521 82.396836 
L 344.210498 80.657916 
L 345.294486 79.931774 
L 345.83648 79.645139 
L 346.378474 79.148305 
L 347.462463 78.517708 
L 348.546451 77.581367 
L 349.63044 76.797898 
L 350.714428 76.033537 
L 351.256423 75.613139 
L 352.340411 75.097196 
L 354.508388 73.797784 
L 357.760353 71.256286 
L 358.302348 70.893215 
L 359.92833 69.440931 
L 360.470324 69.096969 
L 361.012319 68.600134 
L 362.096307 67.969537 
L 364.264284 66.402599 
L 365.890267 65.198732 
L 366.974255 64.281499 
L 367.51625 64.052191 
L 368.058244 63.478921 
L 369.142232 62.905651 
L 370.226221 61.96931 
L 371.310209 61.071187 
L 372.394198 60.268608 
L 373.478186 59.236722 
L 380.524111 54.47858 
L 381.066105 53.981746 
L 381.6081 53.771547 
L 387.028042 49.663111 
L 388.11203 48.956078 
L 390.280007 47.255376 
L 391.363996 46.624779 
L 391.90599 46.357253 
L 392.447984 45.936855 
L 393.531973 45.344476 
L 394.615961 44.408134 
L 396.241944 43.452684 
L 396.783938 42.95585 
L 397.867927 42.287035 
L 398.409921 41.885746 
L 398.951915 41.713765 
L 400.577898 40.509898 
L 400.577898 40.509898 
" style="fill:none;stroke:#ceff29;stroke-linecap:round;stroke-width:1.5;"/>
   </g>
   <g id="line2d_22">
    <path clip-path="url(#p338669f80d)" d="M 75.923352 276.257689 
L 78.091329 274.767187 
L 79.175318 273.92639 
L 83.511272 270.620533 
L 84.053266 270.161916 
L 85.137254 269.015376 
L 86.763237 267.868836 
L 87.305231 267.391111 
L 87.847225 267.161803 
L 89.473208 266.015262 
L 90.015202 265.441992 
L 92.183179 263.970599 
L 92.725173 263.683964 
L 94.351156 262.23168 
L 96.519133 260.68385 
L 97.061127 260.091471 
L 97.603122 259.823945 
L 99.771099 257.79839 
L 100.313093 257.511755 
L 101.397081 256.65185 
L 108.985 250.957367 
L 109.526995 250.479642 
L 110.068989 249.829935 
L 112.77896 248.415869 
L 114.404943 247.020912 
L 114.946937 246.715168 
L 116.57292 245.358428 
L 117.656908 244.594068 
L 119.824885 242.683168 
L 120.366879 242.415642 
L 120.908874 241.995243 
L 121.992862 241.345537 
L 123.076851 240.447414 
L 124.702833 239.033348 
L 125.244827 238.727604 
L 126.328816 237.848589 
L 126.87081 237.523736 
L 127.412804 236.950466 
L 129.038787 235.842144 
L 129.580781 235.593727 
L 131.748758 234.045898 
L 133.374741 232.937575 
L 134.458729 232.134997 
L 135.000724 231.733708 
L 135.542718 231.160438 
L 137.710695 229.861025 
L 140.96266 227.567945 
L 141.504654 226.994675 
L 142.588643 226.192097 
L 143.130637 225.561499 
L 144.214626 224.77803 
L 145.298614 224.032779 
L 146.382603 223.05822 
L 147.466591 222.140988 
L 148.550579 221.51039 
L 149.634568 220.93712 
L 150.176562 220.650485 
L 151.260551 219.847907 
L 152.344539 219.255528 
L 153.428528 218.586713 
L 154.512516 217.841461 
L 156.138499 216.446504 
L 156.680493 216.255414 
L 158.306476 214.841348 
L 158.84847 214.61204 
L 159.390464 214.134315 
L 161.016447 213.159755 
L 162.100435 212.414504 
L 163.184424 211.420836 
L 163.726418 211.229746 
L 174.566303 203.490599 
L 175.650291 202.496931 
L 178.360262 200.853556 
L 178.902257 200.414049 
L 181.612228 198.904438 
L 183.780205 197.299281 
L 184.864193 196.496703 
L 186.490176 194.948874 
L 187.574164 194.432931 
L 188.658153 193.68768 
L 189.742141 192.579357 
L 191.368124 191.37549 
L 195.162083 188.566466 
L 196.788066 187.228836 
L 197.872055 186.598239 
L 198.414049 186.082296 
L 198.956043 185.738334 
L 200.040032 184.763774 
L 200.582026 184.477139 
L 202.208009 183.235054 
L 202.750003 182.986637 
L 203.291997 182.489803 
L 204.375985 181.763661 
L 206.001968 180.693556 
L 207.627951 179.585234 
L 211.42191 176.833537 
L 211.963905 176.546902 
L 213.047893 175.62967 
L 221.177807 169.47657 
L 221.719801 168.960627 
L 222.803789 168.349139 
L 223.887778 167.336362 
L 224.971766 166.858637 
L 225.513761 166.514675 
L 226.055755 166.03695 
L 226.597749 165.712097 
L 228.223732 164.336248 
L 228.765726 164.011395 
L 230.391709 162.731092 
L 231.475697 162.081386 
L 233.10168 161.125935 
L 239.605611 156.214921 
L 243.39957 153.042826 
L 245.567547 151.571433 
L 250.445495 147.902504 
L 250.987489 147.291016 
L 253.697461 145.399225 
L 256.949426 143.278125 
L 257.49142 142.590201 
L 261.827374 139.494542 
L 263.995351 138.080476 
L 265.07934 137.297007 
L 265.621334 136.781063 
L 266.163328 136.513537 
L 266.705322 135.921158 
L 269.957288 133.666296 
L 271.58327 132.462428 
L 272.125265 132.099357 
L 272.667259 131.526087 
L 273.209253 131.296779 
L 274.293241 130.532419 
L 275.37723 129.462315 
L 275.919224 129.17568 
L 276.461218 128.755281 
L 277.003213 128.506864 
L 277.545207 127.952703 
L 278.087201 127.723395 
L 281.339167 125.220116 
L 282.423155 124.455755 
L 283.507143 123.538523 
L 284.591132 122.659509 
L 285.133126 122.200893 
L 285.67512 121.914258 
L 286.217115 121.49386 
L 286.759109 121.245443 
L 288.385092 120.041575 
L 290.011074 119.143452 
L 291.095063 118.207111 
L 292.721045 117.003243 
L 293.805034 116.238883 
L 299.76697 111.289651 
L 301.392953 109.913803 
L 301.934947 109.684495 
L 303.018936 108.862807 
L 304.644919 107.525177 
L 306.270901 106.455073 
L 307.35489 105.595168 
L 308.438878 104.830807 
L 308.980872 104.238428 
L 310.064861 103.359414 
L 311.148849 102.403964 
L 313.316826 101.066334 
L 314.400815 100.053556 
L 315.484803 99.556722 
L 319.278763 96.747698 
L 319.820757 96.289082 
L 320.362751 96.059774 
L 321.44674 95.008779 
L 323.072722 93.919566 
L 324.156711 93.231642 
L 325.240699 92.48639 
L 325.782694 92.180646 
L 326.866682 91.301632 
L 330.118647 89.008552 
L 333.370613 86.333291 
L 336.080584 84.384172 
L 336.622578 83.753575 
L 339.874544 81.594258 
L 340.416538 81.326732 
L 343.126509 79.05276 
L 347.462463 76.243736 
L 349.088446 74.848779 
L 352.340411 72.70857 
L 353.424399 71.676684 
L 353.966394 71.485594 
L 355.592376 70.453708 
L 356.134371 69.899547 
L 356.676365 69.536476 
L 359.92833 66.689234 
L 361.012319 65.924874 
L 361.554313 65.389822 
L 362.096307 65.026751 
L 363.72229 63.574466 
L 365.890267 62.217727 
L 366.974255 61.109405 
L 367.51625 60.669898 
L 368.600238 60.134845 
L 375.646163 54.555016 
L 376.188157 54.077291 
L 376.730151 53.427585 
L 378.356134 52.281044 
L 378.898128 51.956191 
L 383.234082 48.421025 
L 387.028042 45.764874 
L 388.11203 45.000514 
L 389.738013 44.083281 
L 391.363996 42.611888 
L 391.90599 42.306144 
L 392.989978 41.446239 
L 394.615961 40.318807 
L 395.157955 39.993954 
L 397.325932 38.140381 
L 398.409921 37.567111 
L 398.951915 37.165822 
L 399.493909 36.917405 
L 400.577898 36.210371 
L 400.577898 36.210371 
" style="fill:none;stroke:#ffc400;stroke-linecap:round;stroke-width:1.5;"/>
   </g>
   <g id="line2d_23">
    <path clip-path="url(#p338669f80d)" d="M 75.923352 276.04749 
L 77.007341 275.206694 
L 78.633323 273.582428 
L 81.343295 271.556874 
L 83.511272 269.932608 
L 84.053266 269.51221 
L 85.137254 268.919831 
L 86.221243 267.926163 
L 86.763237 267.639528 
L 89.473208 265.365556 
L 90.015202 265.155357 
L 92.725173 263.091585 
L 94.351156 261.753954 
L 94.89315 261.25712 
L 95.435145 260.970485 
L 96.519133 259.995926 
L 97.061127 259.651964 
L 97.603122 259.136021 
L 98.145116 258.925822 
L 99.771099 257.569082 
L 101.397081 256.632741 
L 102.48107 255.925708 
L 104.649047 254.14857 
L 105.733035 253.288665 
L 106.275029 253.040248 
L 108.443006 251.568855 
L 108.985 251.320438 
L 110.068989 250.460533 
L 110.610983 250.097461 
L 111.152977 249.600627 
L 112.236966 248.855376 
L 113.862949 247.842599 
L 114.404943 247.536855 
L 115.488931 246.581405 
L 118.740897 244.17367 
L 119.282891 243.906144 
L 120.366879 243.103566 
L 121.992862 241.899698 
L 123.076851 241.421973 
L 124.160839 240.791376 
L 126.328816 238.899585 
L 126.87081 238.517405 
L 127.412804 237.925025 
L 129.580781 236.472741 
L 130.122776 235.937689 
L 131.206764 235.287983 
L 132.290752 234.332533 
L 135.000724 232.670049 
L 135.542718 232.173215 
L 137.168701 231.198656 
L 138.794683 230.185879 
L 141.504654 228.274978 
L 142.046649 227.606163 
L 144.75662 225.54239 
L 145.298614 225.255755 
L 146.382603 224.338523 
L 146.924597 224.051888 
L 147.466591 223.555054 
L 148.550579 222.905348 
L 149.634568 221.988116 
L 150.718556 221.357518 
L 151.802545 220.516722 
L 152.886533 219.809689 
L 153.970522 219.293746 
L 155.05451 218.510277 
L 157.764481 216.71403 
L 158.84847 215.75858 
L 162.64243 213.006883 
L 164.268412 212.10876 
L 164.810406 211.401727 
L 165.352401 211.038656 
L 165.894395 210.809348 
L 166.978383 209.81568 
L 167.520378 209.490826 
L 168.604366 208.478049 
L 173.482314 204.904665 
L 174.024308 204.407831 
L 174.566303 204.102087 
L 177.276274 201.885443 
L 180.528239 199.745234 
L 181.612228 198.980874 
L 182.154222 198.732457 
L 183.23821 197.929879 
L 184.322199 197.299281 
L 185.948182 196.114523 
L 186.490176 195.808779 
L 187.03217 195.350163 
L 188.658153 194.45204 
L 189.742141 193.592134 
L 190.82613 192.961537 
L 195.162083 190.133405 
L 195.704078 189.923206 
L 196.246072 189.369044 
L 196.788066 189.005973 
L 197.33006 188.432703 
L 202.208009 184.706447 
L 203.291997 183.674561 
L 203.833991 183.330599 
L 204.375985 183.177727 
L 204.91798 182.852874 
L 206.543962 181.38148 
L 207.627951 180.521575 
L 209.253934 179.394144 
L 210.337922 178.725329 
L 211.963905 177.464134 
L 214.673876 175.591452 
L 215.757864 174.67422 
L 216.841853 173.986296 
L 217.925841 173.107281 
L 218.467836 172.782428 
L 219.551824 172.36203 
L 221.719801 170.967073 
L 222.261795 170.470239 
L 224.971766 168.807755 
L 226.055755 167.852305 
L 228.223732 166.438239 
L 228.765726 166.208931 
L 229.849714 165.368134 
L 230.933703 164.431793 
L 231.475697 164.126049 
L 232.017691 163.590997 
L 232.559686 163.361689 
L 235.269657 161.317025 
L 236.895639 160.07494 
L 239.605611 158.508002 
L 241.773588 156.883736 
L 242.315582 156.597101 
L 242.857576 156.062049 
L 243.39957 155.775414 
L 245.025553 154.227585 
L 245.567547 153.998277 
L 247.19353 152.660646 
L 251.529484 149.52677 
L 252.613472 148.838845 
L 254.239455 147.654087 
L 255.865438 146.813291 
L 256.407432 146.201803 
L 257.49142 145.399225 
L 258.033414 144.90239 
L 259.117403 144.271793 
L 261.28538 142.093367 
L 261.827374 141.768514 
L 262.369368 141.27168 
L 262.911363 140.965935 
L 263.453357 140.392665 
L 263.995351 140.067812 
L 265.621334 138.672855 
L 267.789311 137.277898 
L 269.415293 136.07403 
L 270.499282 135.214125 
L 272.125265 134.144021 
L 273.751247 132.729954 
L 274.293241 132.366883 
L 274.835236 131.678959 
L 275.37723 131.373215 
L 275.919224 131.201234 
L 277.003213 130.264893 
L 277.545207 129.710732 
L 279.17119 128.812608 
L 282.423155 126.194675 
L 282.965149 125.965367 
L 285.133126 124.379319 
L 286.217115 123.442978 
L 288.385092 121.971585 
L 289.46908 121.169007 
L 290.011074 120.461973 
L 293.26304 117.84404 
L 294.347028 117.194334 
L 295.973011 115.761158 
L 297.598993 114.671945 
L 299.76697 113.181443 
L 318.736769 98.486618 
L 319.278763 98.25731 
L 320.362751 97.49295 
L 320.904746 96.90057 
L 323.072722 95.582049 
L 325.240699 93.919566 
L 326.866682 93.059661 
L 327.950671 92.123319 
L 329.034659 91.244305 
L 332.286624 88.702807 
L 333.912607 87.365177 
L 334.996596 86.677253 
L 336.622578 85.224969 
L 337.706567 84.498826 
L 338.790555 83.772684 
L 339.332549 83.524267 
L 339.874544 83.065651 
L 340.958532 82.492381 
L 346.378474 78.785234 
L 348.004457 77.543149 
L 348.546451 77.352059 
L 350.172434 76.109973 
L 351.256423 75.173632 
L 351.798417 74.944324 
L 352.882405 74.027092 
L 353.966394 73.014315 
L 354.508388 72.785007 
L 355.592376 71.829556 
L 356.134371 71.218068 
L 357.218359 70.587471 
L 357.760353 70.262618 
L 360.470324 67.816665 
L 361.554313 66.651016 
L 362.096307 66.307054 
L 362.638301 65.791111 
L 364.264284 64.682789 
L 366.974255 62.313272 
L 367.51625 61.873765 
L 368.058244 61.58713 
L 368.600238 60.994751 
L 369.684226 60.287717 
L 371.310209 58.758997 
L 371.852203 58.376817 
L 372.394198 57.803547 
L 373.478186 57.000969 
L 374.02018 56.465916 
L 377.272146 54.172836 
L 379.440123 52.395698 
L 379.982117 52.051736 
L 381.066105 51.153613 
L 383.234082 49.510239 
L 383.776077 49.070732 
L 384.860065 48.478352 
L 387.028042 46.930523 
L 388.11203 46.051509 
L 389.196019 45.325367 
L 390.280007 44.48457 
L 395.157955 40.299698 
L 396.783938 39.229594 
L 397.325932 38.866523 
L 398.409921 37.77731 
L 400.577898 35.923736 
L 400.577898 35.923736 
" style="fill:none;stroke:#ff6800;stroke-linecap:round;stroke-width:1.5;"/>
   </g>
   <g id="line2d_24">
    <path clip-path="url(#p338669f80d)" d="M 75.923352 276.162144 
L 77.549335 275.053822 
L 79.175318 273.811736 
L 79.717312 273.410447 
L 80.259306 272.856286 
L 81.343295 272.072817 
L 82.427283 271.193803 
L 83.511272 270.410334 
L 84.59526 269.32112 
L 89.473208 265.441992 
L 91.641185 264.047035 
L 92.725173 263.034258 
L 93.809162 262.480097 
L 100.313093 257.741063 
L 102.48107 255.352438 
L 106.275029 252.486087 
L 107.359018 251.740836 
L 107.901012 251.339547 
L 109.526995 250.594296 
L 111.694972 248.912703 
L 112.77896 248.301215 
L 114.946937 246.562296 
L 115.488931 246.332988 
L 116.57292 245.358428 
L 117.656908 244.55585 
L 119.824885 242.759604 
L 121.992862 241.536627 
L 123.076851 240.848703 
L 124.160839 239.931471 
L 125.244827 239.18622 
L 126.328816 238.61295 
L 126.87081 238.23077 
L 127.412804 238.001461 
L 129.038787 236.835812 
L 135.000724 232.975793 
L 136.084712 231.943907 
L 137.168701 231.351528 
L 137.710695 231.045784 
L 139.336678 229.803698 
L 139.878672 229.440627 
L 140.420666 228.867357 
L 143.130637 227.223983 
L 143.672631 226.89913 
L 144.214626 226.402296 
L 146.382603 224.950011 
L 148.550579 222.962675 
L 149.092574 222.656931 
L 150.176562 221.777916 
L 152.886533 219.847907 
L 155.05451 218.529386 
L 155.596504 218.07077 
L 157.222487 217.09621 
L 157.764481 216.675812 
L 158.84847 216.178978 
L 160.474453 215.032438 
L 162.100435 214.057879 
L 163.184424 213.408172 
L 164.810406 212.089651 
L 165.352401 211.803016 
L 166.978383 210.408059 
L 168.604366 209.490826 
L 169.688355 208.611812 
L 170.230349 208.26785 
L 171.314337 207.828343 
L 171.856331 207.465272 
L 172.94032 207.006656 
L 174.024308 206.452495 
L 174.566303 205.898334 
L 175.108297 205.611698 
L 176.192285 204.637139 
L 176.73428 204.23585 
L 177.818268 203.223073 
L 178.902257 202.554258 
L 179.986245 201.980988 
L 184.864193 198.273841 
L 186.490176 197.184627 
L 187.03217 196.764229 
L 187.574164 196.190959 
L 189.742141 194.853329 
L 190.82613 193.764116 
L 191.368124 193.534807 
L 192.452112 192.655793 
L 194.620089 191.088855 
L 195.704078 189.884988 
L 197.33006 188.757556 
L 199.498037 187.324381 
L 200.040032 186.808438 
L 200.582026 186.502694 
L 201.666014 186.177841 
L 202.750003 185.60457 
L 206.001968 183.254163 
L 206.543962 182.604457 
L 209.253934 180.712665 
L 209.795928 180.502466 
L 210.337922 180.139395 
L 210.879916 179.527907 
L 211.42191 179.222163 
L 211.963905 179.050182 
L 213.589887 177.712552 
L 214.131882 177.425916 
L 215.21587 176.58512 
L 216.299859 175.916305 
L 217.383847 174.941746 
L 218.467836 174.368476 
L 220.093818 173.069063 
L 224.971766 170.06895 
L 226.597749 168.960627 
L 227.681737 168.158049 
L 229.30772 166.973291 
L 229.849714 166.629329 
L 230.933703 165.616552 
L 233.10168 164.126049 
L 234.185668 163.113272 
L 235.811651 162.100495 
L 236.353645 161.584552 
L 239.605611 159.425234 
L 241.773588 157.648097 
L 242.315582 157.418789 
L 248.277518 152.717973 
L 249.903501 151.647869 
L 250.445495 151.189253 
L 251.529484 150.119149 
L 253.155466 148.418447 
L 253.697461 148.150921 
L 254.239455 147.749632 
L 254.781449 147.501215 
L 256.407432 145.972495 
L 259.117403 144.176248 
L 260.201391 143.450106 
L 260.743386 143.316343 
L 262.911363 141.768514 
L 263.995351 141.137916 
L 266.705322 138.921272 
L 268.331305 138.061367 
L 269.415293 137.297007 
L 271.041276 135.997594 
L 275.919224 132.462428 
L 277.545207 131.201234 
L 278.087201 130.876381 
L 279.713184 129.500533 
L 284.049138 125.965367 
L 285.133126 125.162789 
L 286.217115 124.16912 
L 289.46908 121.608514 
L 290.553068 120.958807 
L 291.095063 120.500191 
L 292.179051 119.965139 
L 293.26304 119.028798 
L 294.889022 117.557405 
L 295.431017 117.213443 
L 297.056999 115.742049 
L 297.598993 115.493632 
L 298.682982 114.557291 
L 299.76697 113.716495 
L 303.018936 111.805594 
L 304.102924 110.907471 
L 306.270901 108.977461 
L 308.980872 106.760817 
L 310.064861 106.053784 
L 310.606855 105.824476 
L 311.690844 104.96457 
L 316.568792 101.773367 
L 317.110786 101.467623 
L 320.362751 98.773253 
L 322.530728 97.30186 
L 325.782694 94.875016 
L 327.408676 93.632931 
L 327.950671 93.403623 
L 328.492665 92.830352 
L 329.034659 92.543717 
L 329.576653 92.085101 
L 330.118647 91.836684 
L 331.202636 90.823907 
L 335.53859 87.365177 
L 336.622578 86.3524 
L 337.706567 85.626258 
L 338.790555 84.728134 
L 340.958532 83.161196 
L 343.668503 81.097424 
L 344.210498 80.485935 
L 349.088446 77.275623 
L 350.714428 76.109973 
L 351.256423 75.823338 
L 352.340411 74.944324 
L 353.424399 73.931547 
L 353.966394 73.281841 
L 354.508388 72.937879 
L 355.592376 72.097082 
L 357.218359 70.854997 
L 357.760353 70.530144 
L 358.844342 69.746675 
L 359.386336 69.307168 
L 359.92833 68.714789 
L 361.012319 68.084191 
L 362.096307 67.281613 
L 366.432261 64.281499 
L 366.974255 63.765556 
L 367.51625 63.574466 
L 368.600238 62.638125 
L 371.852203 60.23039 
L 372.394198 59.580684 
L 376.188157 56.637898 
L 376.730151 56.408589 
L 377.81414 55.43403 
L 381.6081 52.625007 
L 382.150094 52.089954 
L 383.234082 51.421139 
L 384.318071 50.542125 
L 385.402059 49.644002 
L 385.944053 49.414694 
L 387.570036 48.077063 
L 388.11203 47.828646 
L 390.280007 46.108836 
L 391.363996 45.344476 
L 391.90599 44.790315 
L 392.447984 44.427243 
L 393.531973 43.52912 
L 394.615961 42.707433 
L 395.157955 42.497234 
L 396.241944 41.484457 
L 398.409921 39.592665 
L 398.951915 39.11494 
L 400.035903 38.388798 
L 400.577898 37.949291 
L 400.577898 37.949291 
" style="fill:none;stroke:#f10800;stroke-linecap:round;stroke-width:1.5;"/>
   </g>
   <g id="patch_3">
    <path d="M 59.690625 288.430125 
L 59.690625 22.318125 
" style="fill:none;stroke:#cccccc;stroke-linecap:square;stroke-linejoin:miter;stroke-width:0.8;"/>
   </g>
   <g id="patch_4">
    <path d="M 416.810625 288.430125 
L 416.810625 22.318125 
" style="fill:none;stroke:#cccccc;stroke-linecap:square;stroke-linejoin:miter;stroke-width:0.8;"/>
   </g>
   <g id="patch_5">
    <path d="M 59.690625 288.430125 
L 416.810625 288.430125 
" style="fill:none;stroke:#cccccc;stroke-linecap:square;stroke-linejoin:miter;stroke-width:0.8;"/>
   </g>
   <g id="patch_6">
    <path d="M 59.690625 22.318125 
L 416.810625 22.318125 
" style="fill:none;stroke:#cccccc;stroke-linecap:square;stroke-linejoin:miter;stroke-width:0.8;"/>
   </g>
   <g id="text_17">
    <!-- Naive T CD4 -->
    <defs>
     <path d="M 9.8125 72.90625 
L 23.09375 72.90625 
L 55.421875 11.921875 
L 55.421875 72.90625 
L 64.984375 72.90625 
L 64.984375 0 
L 51.703125 0 
L 19.390625 60.984375 
L 19.390625 0 
L 9.8125 0 
z
" id="DejaVuSans-78"/>
     <path d="M 2.984375 54.6875 
L 12.5 54.6875 
L 29.59375 8.796875 
L 46.6875 54.6875 
L 56.203125 54.6875 
L 35.6875 0 
L 23.484375 0 
z
" id="DejaVuSans-118"/>
     <path d="M -0.296875 72.90625 
L 61.375 72.90625 
L 61.375 64.59375 
L 35.5 64.59375 
L 35.5 0 
L 25.59375 0 
L 25.59375 64.59375 
L -0.296875 64.59375 
z
" id="DejaVuSans-84"/>
     <path d="M 64.40625 67.28125 
L 64.40625 56.890625 
Q 59.421875 61.53125 53.78125 63.8125 
Q 48.140625 66.109375 41.796875 66.109375 
Q 29.296875 66.109375 22.65625 58.46875 
Q 16.015625 50.828125 16.015625 36.375 
Q 16.015625 21.96875 22.65625 14.328125 
Q 29.296875 6.6875 41.796875 6.6875 
Q 48.140625 6.6875 53.78125 8.984375 
Q 59.421875 11.28125 64.40625 15.921875 
L 64.40625 5.609375 
Q 59.234375 2.09375 53.4375 0.328125 
Q 47.65625 -1.421875 41.21875 -1.421875 
Q 24.65625 -1.421875 15.125 8.703125 
Q 5.609375 18.84375 5.609375 36.375 
Q 5.609375 53.953125 15.125 64.078125 
Q 24.65625 74.21875 41.21875 74.21875 
Q 47.75 74.21875 53.53125 72.484375 
Q 59.328125 70.75 64.40625 67.28125 
z
" id="DejaVuSans-67"/>
     <path d="M 19.671875 64.796875 
L 19.671875 8.109375 
L 31.59375 8.109375 
Q 46.6875 8.109375 53.6875 14.9375 
Q 60.6875 21.78125 60.6875 36.53125 
Q 60.6875 51.171875 53.6875 57.984375 
Q 46.6875 64.796875 31.59375 64.796875 
z
M 9.8125 72.90625 
L 30.078125 72.90625 
Q 51.265625 72.90625 61.171875 64.09375 
Q 71.09375 55.28125 71.09375 36.53125 
Q 71.09375 17.671875 61.125 8.828125 
Q 51.171875 0 30.078125 0 
L 9.8125 0 
z
" id="DejaVuSans-68"/>
    </defs>
    <g style="fill:#262626;" transform="translate(201.069375 16.318125)scale(0.12 -0.12)">
     <use xlink:href="#DejaVuSans-78"/>
     <use x="74.804688" xlink:href="#DejaVuSans-97"/>
     <use x="136.083984" xlink:href="#DejaVuSans-105"/>
     <use x="163.867188" xlink:href="#DejaVuSans-118"/>
     <use x="223.046875" xlink:href="#DejaVuSans-101"/>
     <use x="284.570312" xlink:href="#DejaVuSans-32"/>
     <use x="316.357422" xlink:href="#DejaVuSans-84"/>
     <use x="377.441406" xlink:href="#DejaVuSans-32"/>
     <use x="409.228516" xlink:href="#DejaVuSans-67"/>
     <use x="479.052734" xlink:href="#DejaVuSans-68"/>
     <use x="556.054688" xlink:href="#DejaVuSans-52"/>
    </g>
   </g>
  </g>
 </g>
 <defs>
  <clipPath id="p338669f80d">
   <rect height="266.112" width="357.12" x="59.690625" y="22.318125"/>
  </clipPath>
 </defs>
</svg>
