<?xml version="1.0" encoding="utf-8" standalone="no"?>
<!DOCTYPE svg PUBLIC "-//W3C//DTD SVG 1.1//EN"
  "http://www.w3.org/Graphics/SVG/1.1/DTD/svg11.dtd">
<!-- Created with matplotlib (https://matplotlib.org/) -->
<svg height="325.986375pt" version="1.1" viewBox="0 0 430.373125 325.986375" width="430.373125pt" xmlns="http://www.w3.org/2000/svg" xmlns:xlink="http://www.w3.org/1999/xlink">
 <defs>
  <style type="text/css">
*{stroke-linecap:butt;stroke-linejoin:round;white-space:pre;}
  </style>
 </defs>
 <g id="figure_1">
  <g id="patch_1">
   <path d="M 0 325.986375 
L 430.373125 325.986375 
L 430.373125 0 
L 0 0 
z
" style="fill:#ffffff;"/>
  </g>
  <g id="axes_1">
   <g id="patch_2">
    <path d="M 66.053125 288.430125 
L 423.173125 288.430125 
L 423.173125 22.318125 
L 66.053125 22.318125 
z
" style="fill:#ffffff;"/>
   </g>
   <g id="matplotlib.axis_1">
    <g id="xtick_1">
     <g id="line2d_1">
      <path clip-path="url(#p5959204e4c)" d="M 82.285852 288.430125 
L 82.285852 22.318125 
" style="fill:none;stroke:#cccccc;stroke-linecap:round;stroke-width:0.8;"/>
     </g>
     <g id="text_1">
      <!-- 0 -->
      <defs>
       <path d="M 31.78125 66.40625 
Q 24.171875 66.40625 20.328125 58.90625 
Q 16.5 51.421875 16.5 36.375 
Q 16.5 21.390625 20.328125 13.890625 
Q 24.171875 6.390625 31.78125 6.390625 
Q 39.453125 6.390625 43.28125 13.890625 
Q 47.125 21.390625 47.125 36.375 
Q 47.125 51.421875 43.28125 58.90625 
Q 39.453125 66.40625 31.78125 66.40625 
z
M 31.78125 74.21875 
Q 44.046875 74.21875 50.515625 64.515625 
Q 56.984375 54.828125 56.984375 36.375 
Q 56.984375 17.96875 50.515625 8.265625 
Q 44.046875 -1.421875 31.78125 -1.421875 
Q 19.53125 -1.421875 13.0625 8.265625 
Q 6.59375 17.96875 6.59375 36.375 
Q 6.59375 54.828125 13.0625 64.515625 
Q 19.53125 74.21875 31.78125 74.21875 
z
" id="DejaVuSans-48"/>
      </defs>
      <g style="fill:#262626;" transform="translate(79.104602 303.028562)scale(0.1 -0.1)">
       <use xlink:href="#DejaVuSans-48"/>
      </g>
     </g>
    </g>
    <g id="xtick_2">
     <g id="line2d_2">
      <path clip-path="url(#p5959204e4c)" d="M 122.969379 288.430125 
L 122.969379 22.318125 
" style="fill:none;stroke:#cccccc;stroke-linecap:round;stroke-width:0.8;"/>
     </g>
     <g id="text_2">
      <!-- 5 -->
      <defs>
       <path d="M 10.796875 72.90625 
L 49.515625 72.90625 
L 49.515625 64.59375 
L 19.828125 64.59375 
L 19.828125 46.734375 
Q 21.96875 47.46875 24.109375 47.828125 
Q 26.265625 48.1875 28.421875 48.1875 
Q 40.625 48.1875 47.75 41.5 
Q 54.890625 34.8125 54.890625 23.390625 
Q 54.890625 11.625 47.5625 5.09375 
Q 40.234375 -1.421875 26.90625 -1.421875 
Q 22.3125 -1.421875 17.546875 -0.640625 
Q 12.796875 0.140625 7.71875 1.703125 
L 7.71875 11.625 
Q 12.109375 9.234375 16.796875 8.0625 
Q 21.484375 6.890625 26.703125 6.890625 
Q 35.15625 6.890625 40.078125 11.328125 
Q 45.015625 15.765625 45.015625 23.390625 
Q 45.015625 31 40.078125 35.4375 
Q 35.15625 39.890625 26.703125 39.890625 
Q 22.75 39.890625 18.8125 39.015625 
Q 14.890625 38.140625 10.796875 36.28125 
z
" id="DejaVuSans-53"/>
      </defs>
      <g style="fill:#262626;" transform="translate(119.788129 303.028562)scale(0.1 -0.1)">
       <use xlink:href="#DejaVuSans-53"/>
      </g>
     </g>
    </g>
    <g id="xtick_3">
     <g id="line2d_3">
      <path clip-path="url(#p5959204e4c)" d="M 163.652906 288.430125 
L 163.652906 22.318125 
" style="fill:none;stroke:#cccccc;stroke-linecap:round;stroke-width:0.8;"/>
     </g>
     <g id="text_3">
      <!-- 10 -->
      <defs>
       <path d="M 12.40625 8.296875 
L 28.515625 8.296875 
L 28.515625 63.921875 
L 10.984375 60.40625 
L 10.984375 69.390625 
L 28.421875 72.90625 
L 38.28125 72.90625 
L 38.28125 8.296875 
L 54.390625 8.296875 
L 54.390625 0 
L 12.40625 0 
z
" id="DejaVuSans-49"/>
      </defs>
      <g style="fill:#262626;" transform="translate(157.290406 303.028562)scale(0.1 -0.1)">
       <use xlink:href="#DejaVuSans-49"/>
       <use x="63.623047" xlink:href="#DejaVuSans-48"/>
      </g>
     </g>
    </g>
    <g id="xtick_4">
     <g id="line2d_4">
      <path clip-path="url(#p5959204e4c)" d="M 204.336433 288.430125 
L 204.336433 22.318125 
" style="fill:none;stroke:#cccccc;stroke-linecap:round;stroke-width:0.8;"/>
     </g>
     <g id="text_4">
      <!-- 15 -->
      <g style="fill:#262626;" transform="translate(197.973933 303.028562)scale(0.1 -0.1)">
       <use xlink:href="#DejaVuSans-49"/>
       <use x="63.623047" xlink:href="#DejaVuSans-53"/>
      </g>
     </g>
    </g>
    <g id="xtick_5">
     <g id="line2d_5">
      <path clip-path="url(#p5959204e4c)" d="M 245.01996 288.430125 
L 245.01996 22.318125 
" style="fill:none;stroke:#cccccc;stroke-linecap:round;stroke-width:0.8;"/>
     </g>
     <g id="text_5">
      <!-- 20 -->
      <defs>
       <path d="M 19.1875 8.296875 
L 53.609375 8.296875 
L 53.609375 0 
L 7.328125 0 
L 7.328125 8.296875 
Q 12.9375 14.109375 22.625 23.890625 
Q 32.328125 33.6875 34.8125 36.53125 
Q 39.546875 41.84375 41.421875 45.53125 
Q 43.3125 49.21875 43.3125 52.78125 
Q 43.3125 58.59375 39.234375 62.25 
Q 35.15625 65.921875 28.609375 65.921875 
Q 23.96875 65.921875 18.8125 64.3125 
Q 13.671875 62.703125 7.8125 59.421875 
L 7.8125 69.390625 
Q 13.765625 71.78125 18.9375 73 
Q 24.125 74.21875 28.421875 74.21875 
Q 39.75 74.21875 46.484375 68.546875 
Q 53.21875 62.890625 53.21875 53.421875 
Q 53.21875 48.921875 51.53125 44.890625 
Q 49.859375 40.875 45.40625 35.40625 
Q 44.1875 33.984375 37.640625 27.21875 
Q 31.109375 20.453125 19.1875 8.296875 
z
" id="DejaVuSans-50"/>
      </defs>
      <g style="fill:#262626;" transform="translate(238.65746 303.028562)scale(0.1 -0.1)">
       <use xlink:href="#DejaVuSans-50"/>
       <use x="63.623047" xlink:href="#DejaVuSans-48"/>
      </g>
     </g>
    </g>
    <g id="xtick_6">
     <g id="line2d_6">
      <path clip-path="url(#p5959204e4c)" d="M 285.703487 288.430125 
L 285.703487 22.318125 
" style="fill:none;stroke:#cccccc;stroke-linecap:round;stroke-width:0.8;"/>
     </g>
     <g id="text_6">
      <!-- 25 -->
      <g style="fill:#262626;" transform="translate(279.340987 303.028562)scale(0.1 -0.1)">
       <use xlink:href="#DejaVuSans-50"/>
       <use x="63.623047" xlink:href="#DejaVuSans-53"/>
      </g>
     </g>
    </g>
    <g id="xtick_7">
     <g id="line2d_7">
      <path clip-path="url(#p5959204e4c)" d="M 326.387014 288.430125 
L 326.387014 22.318125 
" style="fill:none;stroke:#cccccc;stroke-linecap:round;stroke-width:0.8;"/>
     </g>
     <g id="text_7">
      <!-- 30 -->
      <defs>
       <path d="M 40.578125 39.3125 
Q 47.65625 37.796875 51.625 33 
Q 55.609375 28.21875 55.609375 21.1875 
Q 55.609375 10.40625 48.1875 4.484375 
Q 40.765625 -1.421875 27.09375 -1.421875 
Q 22.515625 -1.421875 17.65625 -0.515625 
Q 12.796875 0.390625 7.625 2.203125 
L 7.625 11.71875 
Q 11.71875 9.328125 16.59375 8.109375 
Q 21.484375 6.890625 26.8125 6.890625 
Q 36.078125 6.890625 40.9375 10.546875 
Q 45.796875 14.203125 45.796875 21.1875 
Q 45.796875 27.640625 41.28125 31.265625 
Q 36.765625 34.90625 28.71875 34.90625 
L 20.21875 34.90625 
L 20.21875 43.015625 
L 29.109375 43.015625 
Q 36.375 43.015625 40.234375 45.921875 
Q 44.09375 48.828125 44.09375 54.296875 
Q 44.09375 59.90625 40.109375 62.90625 
Q 36.140625 65.921875 28.71875 65.921875 
Q 24.65625 65.921875 20.015625 65.03125 
Q 15.375 64.15625 9.8125 62.3125 
L 9.8125 71.09375 
Q 15.4375 72.65625 20.34375 73.4375 
Q 25.25 74.21875 29.59375 74.21875 
Q 40.828125 74.21875 47.359375 69.109375 
Q 53.90625 64.015625 53.90625 55.328125 
Q 53.90625 49.265625 50.4375 45.09375 
Q 46.96875 40.921875 40.578125 39.3125 
z
" id="DejaVuSans-51"/>
      </defs>
      <g style="fill:#262626;" transform="translate(320.024514 303.028562)scale(0.1 -0.1)">
       <use xlink:href="#DejaVuSans-51"/>
       <use x="63.623047" xlink:href="#DejaVuSans-48"/>
      </g>
     </g>
    </g>
    <g id="xtick_8">
     <g id="line2d_8">
      <path clip-path="url(#p5959204e4c)" d="M 367.070541 288.430125 
L 367.070541 22.318125 
" style="fill:none;stroke:#cccccc;stroke-linecap:round;stroke-width:0.8;"/>
     </g>
     <g id="text_8">
      <!-- 35 -->
      <g style="fill:#262626;" transform="translate(360.708041 303.028562)scale(0.1 -0.1)">
       <use xlink:href="#DejaVuSans-51"/>
       <use x="63.623047" xlink:href="#DejaVuSans-53"/>
      </g>
     </g>
    </g>
    <g id="xtick_9">
     <g id="line2d_9">
      <path clip-path="url(#p5959204e4c)" d="M 407.754068 288.430125 
L 407.754068 22.318125 
" style="fill:none;stroke:#cccccc;stroke-linecap:round;stroke-width:0.8;"/>
     </g>
     <g id="text_9">
      <!-- 40 -->
      <defs>
       <path d="M 37.796875 64.3125 
L 12.890625 25.390625 
L 37.796875 25.390625 
z
M 35.203125 72.90625 
L 47.609375 72.90625 
L 47.609375 25.390625 
L 58.015625 25.390625 
L 58.015625 17.1875 
L 47.609375 17.1875 
L 47.609375 0 
L 37.796875 0 
L 37.796875 17.1875 
L 4.890625 17.1875 
L 4.890625 26.703125 
z
" id="DejaVuSans-52"/>
      </defs>
      <g style="fill:#262626;" transform="translate(401.391568 303.028562)scale(0.1 -0.1)">
       <use xlink:href="#DejaVuSans-52"/>
       <use x="63.623047" xlink:href="#DejaVuSans-48"/>
      </g>
     </g>
    </g>
    <g id="text_10">
     <!-- time (days) -->
     <defs>
      <path d="M 18.3125 70.21875 
L 18.3125 54.6875 
L 36.8125 54.6875 
L 36.8125 47.703125 
L 18.3125 47.703125 
L 18.3125 18.015625 
Q 18.3125 11.328125 20.140625 9.421875 
Q 21.96875 7.515625 27.59375 7.515625 
L 36.8125 7.515625 
L 36.8125 0 
L 27.59375 0 
Q 17.1875 0 13.234375 3.875 
Q 9.28125 7.765625 9.28125 18.015625 
L 9.28125 47.703125 
L 2.6875 47.703125 
L 2.6875 54.6875 
L 9.28125 54.6875 
L 9.28125 70.21875 
z
" id="DejaVuSans-116"/>
      <path d="M 9.421875 54.6875 
L 18.40625 54.6875 
L 18.40625 0 
L 9.421875 0 
z
M 9.421875 75.984375 
L 18.40625 75.984375 
L 18.40625 64.59375 
L 9.421875 64.59375 
z
" id="DejaVuSans-105"/>
      <path d="M 52 44.1875 
Q 55.375 50.25 60.0625 53.125 
Q 64.75 56 71.09375 56 
Q 79.640625 56 84.28125 50.015625 
Q 88.921875 44.046875 88.921875 33.015625 
L 88.921875 0 
L 79.890625 0 
L 79.890625 32.71875 
Q 79.890625 40.578125 77.09375 44.375 
Q 74.3125 48.1875 68.609375 48.1875 
Q 61.625 48.1875 57.5625 43.546875 
Q 53.515625 38.921875 53.515625 30.90625 
L 53.515625 0 
L 44.484375 0 
L 44.484375 32.71875 
Q 44.484375 40.625 41.703125 44.40625 
Q 38.921875 48.1875 33.109375 48.1875 
Q 26.21875 48.1875 22.15625 43.53125 
Q 18.109375 38.875 18.109375 30.90625 
L 18.109375 0 
L 9.078125 0 
L 9.078125 54.6875 
L 18.109375 54.6875 
L 18.109375 46.1875 
Q 21.1875 51.21875 25.484375 53.609375 
Q 29.78125 56 35.6875 56 
Q 41.65625 56 45.828125 52.96875 
Q 50 49.953125 52 44.1875 
z
" id="DejaVuSans-109"/>
      <path d="M 56.203125 29.59375 
L 56.203125 25.203125 
L 14.890625 25.203125 
Q 15.484375 15.921875 20.484375 11.0625 
Q 25.484375 6.203125 34.421875 6.203125 
Q 39.59375 6.203125 44.453125 7.46875 
Q 49.3125 8.734375 54.109375 11.28125 
L 54.109375 2.78125 
Q 49.265625 0.734375 44.1875 -0.34375 
Q 39.109375 -1.421875 33.890625 -1.421875 
Q 20.796875 -1.421875 13.15625 6.1875 
Q 5.515625 13.8125 5.515625 26.8125 
Q 5.515625 40.234375 12.765625 48.109375 
Q 20.015625 56 32.328125 56 
Q 43.359375 56 49.78125 48.890625 
Q 56.203125 41.796875 56.203125 29.59375 
z
M 47.21875 32.234375 
Q 47.125 39.59375 43.09375 43.984375 
Q 39.0625 48.390625 32.421875 48.390625 
Q 24.90625 48.390625 20.390625 44.140625 
Q 15.875 39.890625 15.1875 32.171875 
z
" id="DejaVuSans-101"/>
      <path id="DejaVuSans-32"/>
      <path d="M 31 75.875 
Q 24.46875 64.65625 21.28125 53.65625 
Q 18.109375 42.671875 18.109375 31.390625 
Q 18.109375 20.125 21.3125 9.0625 
Q 24.515625 -2 31 -13.1875 
L 23.1875 -13.1875 
Q 15.875 -1.703125 12.234375 9.375 
Q 8.59375 20.453125 8.59375 31.390625 
Q 8.59375 42.28125 12.203125 53.3125 
Q 15.828125 64.359375 23.1875 75.875 
z
" id="DejaVuSans-40"/>
      <path d="M 45.40625 46.390625 
L 45.40625 75.984375 
L 54.390625 75.984375 
L 54.390625 0 
L 45.40625 0 
L 45.40625 8.203125 
Q 42.578125 3.328125 38.25 0.953125 
Q 33.9375 -1.421875 27.875 -1.421875 
Q 17.96875 -1.421875 11.734375 6.484375 
Q 5.515625 14.40625 5.515625 27.296875 
Q 5.515625 40.1875 11.734375 48.09375 
Q 17.96875 56 27.875 56 
Q 33.9375 56 38.25 53.625 
Q 42.578125 51.265625 45.40625 46.390625 
z
M 14.796875 27.296875 
Q 14.796875 17.390625 18.875 11.75 
Q 22.953125 6.109375 30.078125 6.109375 
Q 37.203125 6.109375 41.296875 11.75 
Q 45.40625 17.390625 45.40625 27.296875 
Q 45.40625 37.203125 41.296875 42.84375 
Q 37.203125 48.484375 30.078125 48.484375 
Q 22.953125 48.484375 18.875 42.84375 
Q 14.796875 37.203125 14.796875 27.296875 
z
" id="DejaVuSans-100"/>
      <path d="M 34.28125 27.484375 
Q 23.390625 27.484375 19.1875 25 
Q 14.984375 22.515625 14.984375 16.5 
Q 14.984375 11.71875 18.140625 8.90625 
Q 21.296875 6.109375 26.703125 6.109375 
Q 34.1875 6.109375 38.703125 11.40625 
Q 43.21875 16.703125 43.21875 25.484375 
L 43.21875 27.484375 
z
M 52.203125 31.203125 
L 52.203125 0 
L 43.21875 0 
L 43.21875 8.296875 
Q 40.140625 3.328125 35.546875 0.953125 
Q 30.953125 -1.421875 24.3125 -1.421875 
Q 15.921875 -1.421875 10.953125 3.296875 
Q 6 8.015625 6 15.921875 
Q 6 25.140625 12.171875 29.828125 
Q 18.359375 34.515625 30.609375 34.515625 
L 43.21875 34.515625 
L 43.21875 35.40625 
Q 43.21875 41.609375 39.140625 45 
Q 35.0625 48.390625 27.6875 48.390625 
Q 23 48.390625 18.546875 47.265625 
Q 14.109375 46.140625 10.015625 43.890625 
L 10.015625 52.203125 
Q 14.9375 54.109375 19.578125 55.046875 
Q 24.21875 56 28.609375 56 
Q 40.484375 56 46.34375 49.84375 
Q 52.203125 43.703125 52.203125 31.203125 
z
" id="DejaVuSans-97"/>
      <path d="M 32.171875 -5.078125 
Q 28.375 -14.84375 24.75 -17.8125 
Q 21.140625 -20.796875 15.09375 -20.796875 
L 7.90625 -20.796875 
L 7.90625 -13.28125 
L 13.1875 -13.28125 
Q 16.890625 -13.28125 18.9375 -11.515625 
Q 21 -9.765625 23.484375 -3.21875 
L 25.09375 0.875 
L 2.984375 54.6875 
L 12.5 54.6875 
L 29.59375 11.921875 
L 46.6875 54.6875 
L 56.203125 54.6875 
z
" id="DejaVuSans-121"/>
      <path d="M 44.28125 53.078125 
L 44.28125 44.578125 
Q 40.484375 46.53125 36.375 47.5 
Q 32.28125 48.484375 27.875 48.484375 
Q 21.1875 48.484375 17.84375 46.4375 
Q 14.5 44.390625 14.5 40.28125 
Q 14.5 37.15625 16.890625 35.375 
Q 19.28125 33.59375 26.515625 31.984375 
L 29.59375 31.296875 
Q 39.15625 29.25 43.1875 25.515625 
Q 47.21875 21.78125 47.21875 15.09375 
Q 47.21875 7.46875 41.1875 3.015625 
Q 35.15625 -1.421875 24.609375 -1.421875 
Q 20.21875 -1.421875 15.453125 -0.5625 
Q 10.6875 0.296875 5.421875 2 
L 5.421875 11.28125 
Q 10.40625 8.6875 15.234375 7.390625 
Q 20.0625 6.109375 24.8125 6.109375 
Q 31.15625 6.109375 34.5625 8.28125 
Q 37.984375 10.453125 37.984375 14.40625 
Q 37.984375 18.0625 35.515625 20.015625 
Q 33.0625 21.96875 24.703125 23.78125 
L 21.578125 24.515625 
Q 13.234375 26.265625 9.515625 29.90625 
Q 5.8125 33.546875 5.8125 39.890625 
Q 5.8125 47.609375 11.28125 51.796875 
Q 16.75 56 26.8125 56 
Q 31.78125 56 36.171875 55.265625 
Q 40.578125 54.546875 44.28125 53.078125 
z
" id="DejaVuSans-115"/>
      <path d="M 8.015625 75.875 
L 15.828125 75.875 
Q 23.140625 64.359375 26.78125 53.3125 
Q 30.421875 42.28125 30.421875 31.390625 
Q 30.421875 20.453125 26.78125 9.375 
Q 23.140625 -1.703125 15.828125 -13.1875 
L 8.015625 -13.1875 
Q 14.5 -2 17.703125 9.0625 
Q 20.90625 20.125 20.90625 31.390625 
Q 20.90625 42.671875 17.703125 53.65625 
Q 14.5 64.65625 8.015625 75.875 
z
" id="DejaVuSans-41"/>
     </defs>
     <g style="fill:#262626;" transform="translate(216.024063 316.706687)scale(0.1 -0.1)">
      <use xlink:href="#DejaVuSans-116"/>
      <use x="39.208984" xlink:href="#DejaVuSans-105"/>
      <use x="66.992188" xlink:href="#DejaVuSans-109"/>
      <use x="164.404297" xlink:href="#DejaVuSans-101"/>
      <use x="225.927734" xlink:href="#DejaVuSans-32"/>
      <use x="257.714844" xlink:href="#DejaVuSans-40"/>
      <use x="296.728516" xlink:href="#DejaVuSans-100"/>
      <use x="360.205078" xlink:href="#DejaVuSans-97"/>
      <use x="421.484375" xlink:href="#DejaVuSans-121"/>
      <use x="480.664062" xlink:href="#DejaVuSans-115"/>
      <use x="532.763672" xlink:href="#DejaVuSans-41"/>
     </g>
    </g>
   </g>
   <g id="matplotlib.axis_2">
    <g id="ytick_1">
     <g id="line2d_10">
      <path clip-path="url(#p5959204e4c)" d="M 66.053125 260.609804 
L 423.173125 260.609804 
" style="fill:none;stroke:#cccccc;stroke-linecap:round;stroke-width:0.8;"/>
     </g>
     <g id="text_11">
      <!-- 100000 -->
      <g style="fill:#262626;" transform="translate(20.878125 264.409022)scale(0.1 -0.1)">
       <use xlink:href="#DejaVuSans-49"/>
       <use x="63.623047" xlink:href="#DejaVuSans-48"/>
       <use x="127.246094" xlink:href="#DejaVuSans-48"/>
       <use x="190.869141" xlink:href="#DejaVuSans-48"/>
       <use x="254.492188" xlink:href="#DejaVuSans-48"/>
       <use x="318.115234" xlink:href="#DejaVuSans-48"/>
      </g>
     </g>
    </g>
    <g id="ytick_2">
     <g id="line2d_11">
      <path clip-path="url(#p5959204e4c)" d="M 66.053125 220.895904 
L 423.173125 220.895904 
" style="fill:none;stroke:#cccccc;stroke-linecap:round;stroke-width:0.8;"/>
     </g>
     <g id="text_12">
      <!-- 200000 -->
      <g style="fill:#262626;" transform="translate(20.878125 224.695123)scale(0.1 -0.1)">
       <use xlink:href="#DejaVuSans-50"/>
       <use x="63.623047" xlink:href="#DejaVuSans-48"/>
       <use x="127.246094" xlink:href="#DejaVuSans-48"/>
       <use x="190.869141" xlink:href="#DejaVuSans-48"/>
       <use x="254.492188" xlink:href="#DejaVuSans-48"/>
       <use x="318.115234" xlink:href="#DejaVuSans-48"/>
      </g>
     </g>
    </g>
    <g id="ytick_3">
     <g id="line2d_12">
      <path clip-path="url(#p5959204e4c)" d="M 66.053125 181.182004 
L 423.173125 181.182004 
" style="fill:none;stroke:#cccccc;stroke-linecap:round;stroke-width:0.8;"/>
     </g>
     <g id="text_13">
      <!-- 300000 -->
      <g style="fill:#262626;" transform="translate(20.878125 184.981223)scale(0.1 -0.1)">
       <use xlink:href="#DejaVuSans-51"/>
       <use x="63.623047" xlink:href="#DejaVuSans-48"/>
       <use x="127.246094" xlink:href="#DejaVuSans-48"/>
       <use x="190.869141" xlink:href="#DejaVuSans-48"/>
       <use x="254.492188" xlink:href="#DejaVuSans-48"/>
       <use x="318.115234" xlink:href="#DejaVuSans-48"/>
      </g>
     </g>
    </g>
    <g id="ytick_4">
     <g id="line2d_13">
      <path clip-path="url(#p5959204e4c)" d="M 66.053125 141.468104 
L 423.173125 141.468104 
" style="fill:none;stroke:#cccccc;stroke-linecap:round;stroke-width:0.8;"/>
     </g>
     <g id="text_14">
      <!-- 400000 -->
      <g style="fill:#262626;" transform="translate(20.878125 145.267323)scale(0.1 -0.1)">
       <use xlink:href="#DejaVuSans-52"/>
       <use x="63.623047" xlink:href="#DejaVuSans-48"/>
       <use x="127.246094" xlink:href="#DejaVuSans-48"/>
       <use x="190.869141" xlink:href="#DejaVuSans-48"/>
       <use x="254.492188" xlink:href="#DejaVuSans-48"/>
       <use x="318.115234" xlink:href="#DejaVuSans-48"/>
      </g>
     </g>
    </g>
    <g id="ytick_5">
     <g id="line2d_14">
      <path clip-path="url(#p5959204e4c)" d="M 66.053125 101.754205 
L 423.173125 101.754205 
" style="fill:none;stroke:#cccccc;stroke-linecap:round;stroke-width:0.8;"/>
     </g>
     <g id="text_15">
      <!-- 500000 -->
      <g style="fill:#262626;" transform="translate(20.878125 105.553423)scale(0.1 -0.1)">
       <use xlink:href="#DejaVuSans-53"/>
       <use x="63.623047" xlink:href="#DejaVuSans-48"/>
       <use x="127.246094" xlink:href="#DejaVuSans-48"/>
       <use x="190.869141" xlink:href="#DejaVuSans-48"/>
       <use x="254.492188" xlink:href="#DejaVuSans-48"/>
       <use x="318.115234" xlink:href="#DejaVuSans-48"/>
      </g>
     </g>
    </g>
    <g id="ytick_6">
     <g id="line2d_15">
      <path clip-path="url(#p5959204e4c)" d="M 66.053125 62.040305 
L 423.173125 62.040305 
" style="fill:none;stroke:#cccccc;stroke-linecap:round;stroke-width:0.8;"/>
     </g>
     <g id="text_16">
      <!-- 600000 -->
      <defs>
       <path d="M 33.015625 40.375 
Q 26.375 40.375 22.484375 35.828125 
Q 18.609375 31.296875 18.609375 23.390625 
Q 18.609375 15.53125 22.484375 10.953125 
Q 26.375 6.390625 33.015625 6.390625 
Q 39.65625 6.390625 43.53125 10.953125 
Q 47.40625 15.53125 47.40625 23.390625 
Q 47.40625 31.296875 43.53125 35.828125 
Q 39.65625 40.375 33.015625 40.375 
z
M 52.59375 71.296875 
L 52.59375 62.3125 
Q 48.875 64.0625 45.09375 64.984375 
Q 41.3125 65.921875 37.59375 65.921875 
Q 27.828125 65.921875 22.671875 59.328125 
Q 17.53125 52.734375 16.796875 39.40625 
Q 19.671875 43.65625 24.015625 45.921875 
Q 28.375 48.1875 33.59375 48.1875 
Q 44.578125 48.1875 50.953125 41.515625 
Q 57.328125 34.859375 57.328125 23.390625 
Q 57.328125 12.15625 50.6875 5.359375 
Q 44.046875 -1.421875 33.015625 -1.421875 
Q 20.359375 -1.421875 13.671875 8.265625 
Q 6.984375 17.96875 6.984375 36.375 
Q 6.984375 53.65625 15.1875 63.9375 
Q 23.390625 74.21875 37.203125 74.21875 
Q 40.921875 74.21875 44.703125 73.484375 
Q 48.484375 72.75 52.59375 71.296875 
z
" id="DejaVuSans-54"/>
      </defs>
      <g style="fill:#262626;" transform="translate(20.878125 65.839524)scale(0.1 -0.1)">
       <use xlink:href="#DejaVuSans-54"/>
       <use x="63.623047" xlink:href="#DejaVuSans-48"/>
       <use x="127.246094" xlink:href="#DejaVuSans-48"/>
       <use x="190.869141" xlink:href="#DejaVuSans-48"/>
       <use x="254.492188" xlink:href="#DejaVuSans-48"/>
       <use x="318.115234" xlink:href="#DejaVuSans-48"/>
      </g>
     </g>
    </g>
    <g id="ytick_7">
     <g id="line2d_16">
      <path clip-path="url(#p5959204e4c)" d="M 66.053125 22.326405 
L 423.173125 22.326405 
" style="fill:none;stroke:#cccccc;stroke-linecap:round;stroke-width:0.8;"/>
     </g>
     <g id="text_17">
      <!-- 700000 -->
      <defs>
       <path d="M 8.203125 72.90625 
L 55.078125 72.90625 
L 55.078125 68.703125 
L 28.609375 0 
L 18.3125 0 
L 43.21875 64.59375 
L 8.203125 64.59375 
z
" id="DejaVuSans-55"/>
      </defs>
      <g style="fill:#262626;" transform="translate(20.878125 26.125624)scale(0.1 -0.1)">
       <use xlink:href="#DejaVuSans-55"/>
       <use x="63.623047" xlink:href="#DejaVuSans-48"/>
       <use x="127.246094" xlink:href="#DejaVuSans-48"/>
       <use x="190.869141" xlink:href="#DejaVuSans-48"/>
       <use x="254.492188" xlink:href="#DejaVuSans-48"/>
       <use x="318.115234" xlink:href="#DejaVuSans-48"/>
      </g>
     </g>
    </g>
    <g id="text_18">
     <!-- cells number -->
     <defs>
      <path d="M 48.78125 52.59375 
L 48.78125 44.1875 
Q 44.96875 46.296875 41.140625 47.34375 
Q 37.3125 48.390625 33.40625 48.390625 
Q 24.65625 48.390625 19.8125 42.84375 
Q 14.984375 37.3125 14.984375 27.296875 
Q 14.984375 17.28125 19.8125 11.734375 
Q 24.65625 6.203125 33.40625 6.203125 
Q 37.3125 6.203125 41.140625 7.25 
Q 44.96875 8.296875 48.78125 10.40625 
L 48.78125 2.09375 
Q 45.015625 0.34375 40.984375 -0.53125 
Q 36.96875 -1.421875 32.421875 -1.421875 
Q 20.0625 -1.421875 12.78125 6.34375 
Q 5.515625 14.109375 5.515625 27.296875 
Q 5.515625 40.671875 12.859375 48.328125 
Q 20.21875 56 33.015625 56 
Q 37.15625 56 41.109375 55.140625 
Q 45.0625 54.296875 48.78125 52.59375 
z
" id="DejaVuSans-99"/>
      <path d="M 9.421875 75.984375 
L 18.40625 75.984375 
L 18.40625 0 
L 9.421875 0 
z
" id="DejaVuSans-108"/>
      <path d="M 54.890625 33.015625 
L 54.890625 0 
L 45.90625 0 
L 45.90625 32.71875 
Q 45.90625 40.484375 42.875 44.328125 
Q 39.84375 48.1875 33.796875 48.1875 
Q 26.515625 48.1875 22.3125 43.546875 
Q 18.109375 38.921875 18.109375 30.90625 
L 18.109375 0 
L 9.078125 0 
L 9.078125 54.6875 
L 18.109375 54.6875 
L 18.109375 46.1875 
Q 21.34375 51.125 25.703125 53.5625 
Q 30.078125 56 35.796875 56 
Q 45.21875 56 50.046875 50.171875 
Q 54.890625 44.34375 54.890625 33.015625 
z
" id="DejaVuSans-110"/>
      <path d="M 8.5 21.578125 
L 8.5 54.6875 
L 17.484375 54.6875 
L 17.484375 21.921875 
Q 17.484375 14.15625 20.5 10.265625 
Q 23.53125 6.390625 29.59375 6.390625 
Q 36.859375 6.390625 41.078125 11.03125 
Q 45.3125 15.671875 45.3125 23.6875 
L 45.3125 54.6875 
L 54.296875 54.6875 
L 54.296875 0 
L 45.3125 0 
L 45.3125 8.40625 
Q 42.046875 3.421875 37.71875 1 
Q 33.40625 -1.421875 27.6875 -1.421875 
Q 18.265625 -1.421875 13.375 4.4375 
Q 8.5 10.296875 8.5 21.578125 
z
M 31.109375 56 
z
" id="DejaVuSans-117"/>
      <path d="M 48.6875 27.296875 
Q 48.6875 37.203125 44.609375 42.84375 
Q 40.53125 48.484375 33.40625 48.484375 
Q 26.265625 48.484375 22.1875 42.84375 
Q 18.109375 37.203125 18.109375 27.296875 
Q 18.109375 17.390625 22.1875 11.75 
Q 26.265625 6.109375 33.40625 6.109375 
Q 40.53125 6.109375 44.609375 11.75 
Q 48.6875 17.390625 48.6875 27.296875 
z
M 18.109375 46.390625 
Q 20.953125 51.265625 25.265625 53.625 
Q 29.59375 56 35.59375 56 
Q 45.5625 56 51.78125 48.09375 
Q 58.015625 40.1875 58.015625 27.296875 
Q 58.015625 14.40625 51.78125 6.484375 
Q 45.5625 -1.421875 35.59375 -1.421875 
Q 29.59375 -1.421875 25.265625 0.953125 
Q 20.953125 3.328125 18.109375 8.203125 
L 18.109375 0 
L 9.078125 0 
L 9.078125 75.984375 
L 18.109375 75.984375 
z
" id="DejaVuSans-98"/>
      <path d="M 41.109375 46.296875 
Q 39.59375 47.171875 37.8125 47.578125 
Q 36.03125 48 33.890625 48 
Q 26.265625 48 22.1875 43.046875 
Q 18.109375 38.09375 18.109375 28.8125 
L 18.109375 0 
L 9.078125 0 
L 9.078125 54.6875 
L 18.109375 54.6875 
L 18.109375 46.1875 
Q 20.953125 51.171875 25.484375 53.578125 
Q 30.03125 56 36.53125 56 
Q 37.453125 56 38.578125 55.875 
Q 39.703125 55.765625 41.0625 55.515625 
z
" id="DejaVuSans-114"/>
     </defs>
     <g style="fill:#262626;" transform="translate(14.798438 187.685844)rotate(-90)scale(0.1 -0.1)">
      <use xlink:href="#DejaVuSans-99"/>
      <use x="54.980469" xlink:href="#DejaVuSans-101"/>
      <use x="116.503906" xlink:href="#DejaVuSans-108"/>
      <use x="144.287109" xlink:href="#DejaVuSans-108"/>
      <use x="172.070312" xlink:href="#DejaVuSans-115"/>
      <use x="224.169922" xlink:href="#DejaVuSans-32"/>
      <use x="255.957031" xlink:href="#DejaVuSans-110"/>
      <use x="319.335938" xlink:href="#DejaVuSans-117"/>
      <use x="382.714844" xlink:href="#DejaVuSans-109"/>
      <use x="480.126953" xlink:href="#DejaVuSans-98"/>
      <use x="543.603516" xlink:href="#DejaVuSans-101"/>
      <use x="605.126953" xlink:href="#DejaVuSans-114"/>
     </g>
    </g>
   </g>
   <g id="line2d_17">
    <path clip-path="url(#p5959204e4c)" d="M 82.285852 275.743976 
L 83.099523 228.063468 
L 83.913193 190.40238 
L 84.726864 160.267473 
L 85.540534 135.591639 
L 86.354205 115.228337 
L 87.167876 98.703383 
L 87.981546 85.19192 
L 88.795217 74.279732 
L 89.608887 65.411221 
L 90.422558 58.062561 
L 91.236228 52.097533 
L 92.049899 47.514549 
L 92.863569 43.954992 
L 94.49091 39.077331 
L 96.118251 36.300138 
L 96.931922 35.506654 
L 97.745593 34.88394 
L 98.559263 34.414125 
L 99.372934 34.565038 
L 100.186604 34.879572 
L 101.000275 35.577345 
L 102.627616 37.230635 
L 105.882298 40.764378 
L 106.695968 42.285023 
L 107.509639 43.460157 
L 109.950651 48.00581 
L 110.764321 50.272679 
L 112.391662 53.70396 
L 113.205333 55.573294 
L 114.832674 58.494251 
L 122.155709 77.94175 
L 125.410391 87.395644 
L 127.037732 92.330096 
L 127.851403 95.168052 
L 129.478744 100.126332 
L 132.733426 110.89555 
L 134.360767 116.358197 
L 136.801778 125.592473 
L 137.615449 128.206045 
L 140.870131 140.976446 
L 151.447848 176.16455 
L 153.075189 181.027517 
L 154.70253 186.611689 
L 157.143542 194.876945 
L 158.770883 199.212512 
L 162.025565 207.214068 
L 162.839236 208.500004 
L 164.466577 211.432082 
L 170.162271 224.470552 
L 176.671635 236.221101 
L 177.485305 237.428403 
L 180.739988 241.393836 
L 182.367329 243.786996 
L 183.180999 244.806451 
L 183.99467 245.386672 
L 186.435681 248.17975 
L 189.690364 251.769887 
L 191.317705 252.856459 
L 192.131375 253.385448 
L 192.945046 253.767893 
L 197.013398 256.879477 
L 198.640739 257.800442 
L 199.45441 258.067717 
L 201.895422 259.176132 
L 202.709092 259.354844 
L 205.963774 261.326242 
L 207.591115 262.791288 
L 209.218457 264.081593 
L 212.473139 266.102236 
L 214.10048 266.644331 
L 218.982503 267.721769 
L 219.796174 267.6896 
L 220.609844 267.805962 
L 223.050856 267.84925 
L 223.864526 267.86871 
L 227.119208 268.46561 
L 228.746549 268.532329 
L 230.373891 268.790867 
L 233.628573 269.855994 
L 235.255914 269.729703 
L 241.765278 270.702694 
L 242.578949 270.568858 
L 243.392619 270.582758 
L 245.01996 270.233276 
L 245.833631 270.039869 
L 248.274642 270.23407 
L 249.901984 270.726125 
L 252.342995 270.834941 
L 253.156666 270.689191 
L 253.970336 270.65742 
L 256.411348 271.101024 
L 258.852359 271.196735 
L 259.66603 271.38061 
L 260.479701 271.278943 
L 262.920712 271.604994 
L 265.361724 271.729298 
L 266.175394 271.994984 
L 266.989065 272.12882 
L 269.430076 271.906819 
L 270.243747 272.088709 
L 271.871088 271.854 
L 273.498429 271.454081 
L 274.3121 271.448918 
L 275.12577 271.23486 
L 277.566782 271.525963 
L 279.194123 271.447727 
L 280.007793 271.486249 
L 280.821464 271.69157 
L 282.448805 272.367501 
L 284.889817 272.257493 
L 285.703487 272.448914 
L 286.517158 272.456063 
L 288.144499 271.971156 
L 293.026522 271.588314 
L 294.653863 271.359959 
L 296.281204 271.467584 
L 299.535886 271.076799 
L 300.349557 271.019214 
L 301.163228 271.073225 
L 304.41791 272.132394 
L 306.045251 272.549787 
L 307.672592 272.598238 
L 308.486262 272.47314 
L 310.927274 271.638751 
L 312.554615 271.331762 
L 314.995627 271.884183 
L 318.250309 272.066866 
L 319.87765 272.406817 
L 320.69132 272.339701 
L 322.318662 272.595856 
L 323.946003 272.38974 
L 324.759673 272.169328 
L 326.387014 272.057335 
L 327.200685 272.094666 
L 328.828026 271.717781 
L 330.455367 271.670919 
L 332.082708 271.740021 
L 333.710049 271.968376 
L 334.52372 272.126834 
L 335.33739 272.107772 
L 336.964731 272.404435 
L 338.592072 272.938189 
L 341.033084 273.225718 
L 342.660425 273.134376 
L 344.287766 273.035886 
L 348.356119 272.644307 
L 349.169789 272.739223 
L 349.98346 272.963606 
L 351.610801 273.043034 
L 352.424472 272.975918 
L 353.238142 272.620478 
L 354.865483 272.309121 
L 357.306495 271.737638 
L 358.933836 271.561706 
L 359.747506 271.589505 
L 361.374847 271.964007 
L 363.815859 272.521591 
L 367.070541 273.041843 
L 368.697882 273.172501 
L 370.325223 273.541444 
L 371.138894 273.235249 
L 372.766235 273.226909 
L 374.393576 273.449307 
L 375.207247 273.832149 
L 376.834588 274.151449 
L 379.275599 274.249542 
L 381.716611 273.895294 
L 383.343952 273.789258 
L 384.157623 273.957248 
L 385.784964 274.023967 
L 386.598634 274.238025 
L 389.039646 274.234054 
L 389.853316 274.350019 
L 391.480657 274.408001 
L 393.107999 274.700692 
L 393.921669 274.704664 
L 394.73534 274.577976 
L 397.176351 274.478294 
L 402.058374 275.725311 
L 403.685716 275.981863 
L 405.313057 276.334125 
L 406.126727 276.166532 
L 406.940398 275.882975 
L 406.940398 275.882975 
" style="fill:none;stroke:#000080;stroke-linecap:round;stroke-width:1.5;"/>
   </g>
   <g id="line2d_18">
    <path clip-path="url(#p5959204e4c)" d="M 82.285852 275.675271 
L 83.099523 227.911364 
L 83.913193 190.16926 
L 84.726864 160.085981 
L 85.540534 135.233419 
L 86.354205 115.005145 
L 87.167876 98.238333 
L 87.981546 84.502487 
L 88.795217 73.634381 
L 89.608887 64.682471 
L 90.422558 57.412444 
L 91.236228 51.625335 
L 92.049899 47.199221 
L 92.863569 43.739743 
L 93.67724 40.971684 
L 94.49091 39.0678 
L 96.118251 36.22905 
L 96.931922 35.344225 
L 97.745593 34.9312 
L 98.559263 34.888706 
L 99.372934 35.322382 
L 100.186604 35.516186 
L 101.000275 36.013801 
L 101.813945 36.684172 
L 105.068627 40.775895 
L 109.13698 47.219078 
L 110.764321 50.262751 
L 113.205333 55.652324 
L 114.832674 59.30918 
L 115.646344 61.480736 
L 116.460015 63.237282 
L 122.155709 78.351598 
L 123.78305 83.251499 
L 124.59672 85.367455 
L 131.106085 106.06912 
L 131.919755 109.101276 
L 132.733426 111.529781 
L 135.174437 119.582569 
L 136.801778 125.031316 
L 139.24279 134.095616 
L 141.683802 142.578902 
L 145.752154 158.769862 
L 147.379495 164.680879 
L 149.820507 172.985055 
L 151.447848 177.414744 
L 153.075189 181.59066 
L 155.516201 188.761799 
L 157.143542 192.936127 
L 158.770883 197.38329 
L 162.839236 207.455529 
L 164.466577 211.750984 
L 165.280247 214.112373 
L 168.53493 221.259683 
L 170.975941 225.745765 
L 171.789612 226.962599 
L 173.416953 230.057106 
L 175.044294 232.659558 
L 176.671635 234.858517 
L 178.298976 237.63293 
L 179.112647 239.21116 
L 183.180999 245.137268 
L 183.99467 246.111847 
L 185.622011 247.399769 
L 186.435681 248.0479 
L 188.063022 249.571325 
L 189.690364 251.065362 
L 191.317705 252.736126 
L 192.945046 253.512135 
L 193.758716 254.062967 
L 194.572387 254.869556 
L 197.827069 257.34135 
L 201.081751 259.385027 
L 202.709092 260.11616 
L 204.336433 260.837761 
L 205.963774 261.569291 
L 207.591115 262.818691 
L 213.286809 264.82464 
L 215.727821 265.369912 
L 216.541491 265.928686 
L 218.168832 266.525189 
L 218.982503 266.605808 
L 219.796174 266.564109 
L 222.237185 267.280547 
L 223.864526 267.921927 
L 224.678197 268.072045 
L 226.305538 268.628437 
L 227.119208 268.889357 
L 227.932879 269.307545 
L 232.001232 269.814691 
L 233.628573 269.917947 
L 235.255914 270.283712 
L 236.069584 270.435419 
L 236.883255 270.383394 
L 237.696925 270.648683 
L 239.324266 270.807936 
L 240.137937 270.836133 
L 240.951608 271.051382 
L 248.274642 271.916748 
L 249.088313 271.745978 
L 249.901984 271.799592 
L 253.970336 271.409204 
L 255.597677 271.462024 
L 257.225018 271.794429 
L 259.66603 271.83732 
L 261.293371 271.700704 
L 263.734383 271.763849 
L 266.989065 272.116112 
L 267.802735 272.04979 
L 268.616406 271.719767 
L 271.057418 271.976319 
L 271.871088 272.312298 
L 273.498429 272.568056 
L 274.3121 272.433029 
L 275.939441 272.42588 
L 282.448805 272.125643 
L 283.262476 272.157017 
L 289.77184 273.313883 
L 291.399181 273.514438 
L 293.840193 272.90761 
L 295.467534 272.7563 
L 298.722216 272.667341 
L 301.163228 272.009678 
L 301.976898 272.045818 
L 303.604239 272.454474 
L 304.41791 272.442957 
L 306.045251 271.965199 
L 308.486262 271.574017 
L 309.299933 271.57084 
L 310.927274 271.986247 
L 311.740945 272.199908 
L 312.554615 272.242005 
L 313.368286 272.440177 
L 319.063979 272.759874 
L 320.69132 272.609755 
L 323.946003 272.127629 
L 327.200685 272.02199 
L 328.014355 271.822626 
L 329.641696 271.892125 
L 331.269038 272.088312 
L 335.33739 272.611741 
L 338.592072 272.971549 
L 340.219413 273.265829 
L 341.033084 273.34208 
L 346.728778 272.796411 
L 348.356119 272.674489 
L 349.98346 272.697523 
L 350.79713 272.599033 
L 351.610801 272.691963 
L 352.424472 272.565276 
L 354.051813 272.790851 
L 356.492824 272.323815 
L 360.561177 272.270996 
L 361.374847 272.43422 
L 363.815859 272.232076 
L 364.62953 272.100226 
L 366.256871 272.088312 
L 367.884212 271.861148 
L 370.325223 272.081561 
L 371.138894 272.270202 
L 371.952565 272.671312 
L 373.579906 272.887356 
L 376.020917 272.995377 
L 378.461929 273.279332 
L 380.08927 273.355185 
L 381.716611 273.258681 
L 384.971293 273.372659 
L 387.412305 273.411579 
L 389.039646 273.47393 
L 389.853316 273.646685 
L 390.666987 273.659791 
L 394.73534 273.008086 
L 397.176351 272.883384 
L 398.803692 272.427072 
L 399.617363 272.401258 
L 401.244704 272.119686 
L 402.058374 272.084341 
L 404.499386 272.647484 
L 405.313057 272.976315 
L 406.940398 273.367497 
L 406.940398 273.367497 
" style="fill:none;stroke:#0000f1;stroke-linecap:round;stroke-width:1.5;"/>
   </g>
   <g id="line2d_19">
    <path clip-path="url(#p5959204e4c)" d="M 82.285852 275.815461 
L 83.099523 227.925264 
L 83.913193 190.112072 
L 84.726864 159.936656 
L 85.540534 135.019759 
L 86.354205 114.839538 
L 87.167876 98.567959 
L 87.981546 85.058878 
L 88.795217 74.0343 
L 89.608887 64.852446 
L 90.422558 57.410459 
L 91.236228 51.821522 
L 92.049899 47.257997 
L 92.863569 43.497885 
L 94.49091 38.65001 
L 95.304581 36.971303 
L 96.118251 35.885128 
L 96.931922 35.462572 
L 97.745593 34.715156 
L 98.559263 35.181 
L 99.372934 35.194106 
L 101.000275 35.819997 
L 101.813945 36.184571 
L 102.627616 37.153193 
L 103.441286 37.889886 
L 105.068627 40.149209 
L 105.882298 41.621006 
L 106.695968 42.734584 
L 110.764321 49.854889 
L 115.646344 60.801231 
L 118.901027 68.851636 
L 126.224061 90.468309 
L 131.919755 109.9031 
L 133.547096 116.025395 
L 135.174437 121.542847 
L 137.615449 131.104762 
L 138.42912 134.192915 
L 140.056461 139.441901 
L 144.124813 153.407294 
L 146.565825 162.391373 
L 149.006837 170.185622 
L 153.075189 182.249911 
L 157.143542 194.571545 
L 158.770883 199.103696 
L 160.398224 203.25777 
L 161.211895 205.451963 
L 163.652906 210.963855 
L 166.093918 215.143743 
L 168.53493 219.994398 
L 170.162271 223.337912 
L 173.416953 229.065847 
L 174.230623 230.264016 
L 175.044294 231.196101 
L 175.857964 232.50666 
L 176.671635 233.531278 
L 178.298976 236.173047 
L 179.112647 237.617044 
L 182.367329 242.200425 
L 183.99467 244.053079 
L 184.80834 245.209945 
L 188.063022 248.617397 
L 190.504034 250.892209 
L 193.758716 253.449387 
L 195.386057 254.072499 
L 196.199728 254.338979 
L 197.827069 255.131271 
L 199.45441 255.655097 
L 200.268081 256.117367 
L 201.081751 256.742067 
L 204.336433 258.29488 
L 205.963774 259.045473 
L 207.591115 259.309173 
L 208.404786 259.46088 
L 211.659468 261.347688 
L 213.286809 261.922745 
L 216.541491 263.94458 
L 218.168832 264.438223 
L 218.982503 264.603036 
L 220.609844 265.215822 
L 222.237185 265.612961 
L 227.119208 267.163788 
L 230.373891 268.561321 
L 231.187561 268.74877 
L 233.628573 268.756316 
L 234.442243 268.534315 
L 237.696925 268.578795 
L 240.137937 268.989039 
L 240.951608 269.271008 
L 241.765278 269.257108 
L 242.578949 269.127641 
L 243.392619 269.187609 
L 244.20629 269.089913 
L 246.647301 269.122875 
L 248.274642 269.149881 
L 251.529325 269.969178 
L 253.156666 270.352417 
L 254.784007 270.434625 
L 255.597677 270.77815 
L 258.038689 270.982677 
L 263.734383 271.620879 
L 266.175394 271.464804 
L 266.989065 271.610554 
L 270.243747 271.315082 
L 272.684759 270.995385 
L 273.498429 271.052971 
L 278.380452 272.409995 
L 280.007793 272.419923 
L 280.821464 272.318653 
L 283.262476 271.651856 
L 284.076146 271.534303 
L 286.517158 271.478306 
L 288.144499 271.424296 
L 295.467534 272.84367 
L 296.281204 272.934218 
L 299.535886 272.418732 
L 300.349557 272.402052 
L 302.790569 272.641924 
L 303.604239 272.581559 
L 304.41791 272.353601 
L 308.486262 271.97473 
L 310.927274 271.41119 
L 311.740945 271.37505 
L 312.554615 271.508886 
L 314.995627 271.523183 
L 318.250309 272.45646 
L 319.87765 272.431837 
L 320.69132 272.643909 
L 321.504991 272.622861 
L 323.946003 272.110552 
L 325.573344 271.946931 
L 326.387014 271.745581 
L 328.014355 271.592683 
L 328.828026 271.379816 
L 330.455367 271.361548 
L 331.269038 271.532715 
L 332.896379 272.321035 
L 335.33739 273.081557 
L 338.592072 272.762257 
L 341.033084 272.246373 
L 342.660425 272.036287 
L 345.915107 271.457655 
L 347.542448 271.411984 
L 349.169789 271.65821 
L 350.79713 271.921116 
L 352.424472 272.560113 
L 354.865483 273.008483 
L 355.679154 272.977903 
L 357.306495 272.774965 
L 358.933836 272.456857 
L 362.188518 271.550983 
L 363.815859 271.685216 
L 366.256871 272.538668 
L 367.884212 272.606181 
L 370.325223 272.603401 
L 371.138894 272.764243 
L 371.952565 273.111342 
L 374.393576 273.174487 
L 375.207247 272.962018 
L 377.648258 273.164559 
L 379.275599 272.919524 
L 381.716611 272.062101 
L 384.157623 272.166946 
L 386.598634 272.844067 
L 388.225975 273.258283 
L 389.853316 273.366305 
L 390.666987 273.309117 
L 391.480657 273.407608 
L 392.294328 273.795613 
L 393.921669 274.05137 
L 397.176351 274.49974 
L 397.990022 274.584728 
L 399.617363 275.094257 
L 404.499386 275.344455 
L 406.126727 275.313081 
L 406.940398 275.26741 
L 406.940398 275.26741 
" style="fill:none;stroke:#004cff;stroke-linecap:round;stroke-width:1.5;"/>
   </g>
   <g id="line2d_20">
    <path clip-path="url(#p5959204e4c)" d="M 82.285852 275.57281 
L 83.099523 227.765217 
L 83.913193 190.272913 
L 84.726864 160.049047 
L 85.540534 135.331513 
L 86.354205 115.084969 
L 87.167876 98.57749 
L 87.981546 85.272936 
L 88.795217 74.019606 
L 89.608887 65.236877 
L 90.422558 58.052235 
L 91.236228 52.092767 
L 92.049899 47.715501 
L 93.67724 41.040389 
L 95.304581 37.152398 
L 97.745593 34.833504 
L 98.559263 34.941128 
L 99.372934 34.813647 
L 101.000275 35.618648 
L 102.627616 37.169873 
L 107.509639 44.04276 
L 109.950651 48.493894 
L 111.577992 51.930735 
L 113.205333 55.241683 
L 114.832674 59.324271 
L 115.646344 61.130062 
L 118.087356 67.528369 
L 121.342038 76.180439 
L 122.155709 78.404417 
L 123.78305 83.704634 
L 124.59672 85.960781 
L 125.410391 88.865853 
L 127.037732 93.682355 
L 130.292414 104.444821 
L 131.919755 110.008739 
L 133.547096 115.414198 
L 137.615449 130.464177 
L 139.24279 136.153193 
L 143.311143 150.510562 
L 144.938484 156.75875 
L 150.634178 174.672896 
L 152.261519 180.00409 
L 153.075189 182.17644 
L 156.329871 192.067981 
L 157.957212 196.632697 
L 159.584554 201.307023 
L 163.652906 211.512304 
L 165.280247 214.328019 
L 167.721259 219.000359 
L 169.3486 222.364127 
L 171.789612 227.119866 
L 173.416953 229.613105 
L 176.671635 234.790209 
L 178.298976 237.273122 
L 179.112647 238.239758 
L 179.926317 239.445472 
L 180.739988 240.257621 
L 181.553658 241.239746 
L 182.367329 242.040378 
L 183.99467 243.867218 
L 186.435681 246.300488 
L 188.063022 248.080862 
L 188.876693 248.767119 
L 189.690364 249.732564 
L 191.317705 251.201978 
L 192.945046 252.286167 
L 193.758716 252.624927 
L 194.572387 253.45455 
L 195.386057 254.588779 
L 196.199728 255.246839 
L 197.013398 255.701166 
L 197.827069 256.007757 
L 200.268081 257.541905 
L 203.522763 260.351663 
L 207.591115 262.151894 
L 209.218457 262.329813 
L 213.286809 263.087157 
L 214.91415 263.3449 
L 216.541491 264.024405 
L 217.355162 264.54982 
L 218.982503 265.232501 
L 221.423515 265.958472 
L 223.050856 266.321854 
L 224.678197 266.886585 
L 226.305538 267.582373 
L 227.119208 268.136779 
L 227.932879 268.390948 
L 228.746549 268.260289 
L 230.373891 268.282132 
L 231.187561 268.533521 
L 232.001232 268.617317 
L 232.814902 268.424705 
L 233.628573 268.417953 
L 236.069584 269.014853 
L 237.696925 269.294836 
L 239.324266 269.876248 
L 240.137937 269.865128 
L 240.951608 270.030338 
L 245.01996 270.322235 
L 246.647301 270.649875 
L 247.460972 270.954877 
L 249.901984 271.383787 
L 250.715654 271.417941 
L 251.529325 271.270603 
L 253.156666 271.407616 
L 254.784007 271.773381 
L 256.411348 272.1316 
L 257.225018 272.299987 
L 258.038689 272.199511 
L 259.66603 272.297604 
L 262.107042 271.972745 
L 262.920712 271.792443 
L 263.734383 271.757892 
L 267.802735 271.049794 
L 269.430076 270.786093 
L 275.12577 271.55694 
L 277.566782 272.085532 
L 279.194123 272.105786 
L 280.821464 272.168931 
L 282.448805 272.353601 
L 284.076146 272.145897 
L 286.517158 271.937796 
L 287.330828 272.224531 
L 289.77184 271.965596 
L 290.585511 272.126437 
L 291.399181 272.132792 
L 292.212852 272.348835 
L 293.840193 272.177668 
L 297.094875 272.523973 
L 299.535886 272.875839 
L 301.163228 272.72294 
L 304.41791 272.231679 
L 306.858921 271.992999 
L 307.672592 271.961625 
L 309.299933 271.742007 
L 310.113603 271.889345 
L 310.927274 271.81786 
L 317.436638 272.820239 
L 319.87765 273.061303 
L 320.69132 272.749151 
L 321.504991 272.622067 
L 323.132332 272.938189 
L 323.946003 272.871867 
L 324.759673 273.000937 
L 325.573344 273.004512 
L 327.200685 272.738826 
L 329.641696 272.766625 
L 330.455367 273.006497 
L 332.082708 273.041446 
L 334.52372 272.336921 
L 337.778402 272.452091 
L 340.219413 272.600224 
L 341.846755 272.222148 
L 342.660425 272.270202 
L 343.474096 272.562893 
L 345.915107 272.795617 
L 346.728778 272.7702 
L 347.542448 272.974329 
L 349.169789 273.00332 
L 350.79713 272.752726 
L 351.610801 272.637158 
L 353.238142 272.746371 
L 355.679154 272.7285 
L 357.306495 272.311901 
L 358.120165 272.02199 
L 358.933836 271.962816 
L 359.747506 272.083149 
L 361.374847 271.840894 
L 363.002189 271.695939 
L 364.62953 271.785692 
L 366.256871 272.082752 
L 368.697882 271.95805 
L 371.138894 272.169725 
L 371.952565 272.111743 
L 373.579906 272.440574 
L 374.393576 272.595856 
L 375.207247 272.632392 
L 376.834588 272.24121 
L 380.08927 271.954079 
L 381.716611 272.133189 
L 383.343952 272.562893 
L 389.039646 272.662575 
L 389.853316 272.844862 
L 391.480657 272.730089 
L 393.921669 273.115711 
L 396.362681 272.765831 
L 397.990022 272.41198 
L 398.803692 272.394109 
L 399.617363 272.620875 
L 401.244704 272.727309 
L 402.058374 272.7007 
L 404.499386 272.976712 
L 405.313057 273.212215 
L 406.940398 273.224924 
L 406.940398 273.224924 
" style="fill:none;stroke:#00b0ff;stroke-linecap:round;stroke-width:1.5;"/>
   </g>
   <g id="line2d_21">
    <path clip-path="url(#p5959204e4c)" d="M 82.285852 275.599815 
L 83.099523 227.738212 
L 83.913193 190.030658 
L 84.726864 159.959293 
L 85.540534 135.140489 
L 86.354205 115.229528 
L 87.167876 98.418634 
L 87.981546 84.815035 
L 88.795217 73.843673 
L 89.608887 64.670159 
L 90.422558 57.463278 
L 91.236228 51.584827 
L 92.049899 47.214709 
L 92.863569 43.564207 
L 93.67724 40.544363 
L 94.49091 38.430789 
L 95.304581 36.858516 
L 96.118251 35.778297 
L 96.931922 35.047562 
L 97.745593 34.920477 
L 98.559263 34.501098 
L 99.372934 34.505864 
L 100.186604 35.000699 
L 101.000275 35.804111 
L 101.813945 36.353355 
L 103.441286 38.105532 
L 106.695968 43.008213 
L 110.764321 50.070536 
L 111.577992 52.10349 
L 114.019003 56.648746 
L 114.832674 58.682892 
L 115.646344 60.360804 
L 119.714697 70.812311 
L 122.969379 79.690751 
L 129.478744 100.57629 
L 140.870131 140.450634 
L 141.683802 142.732595 
L 146.565825 159.468429 
L 149.820507 171.314291 
L 153.88886 184.500895 
L 155.516201 189.091027 
L 157.143542 193.372186 
L 158.770883 197.998061 
L 159.584554 200.153334 
L 161.211895 203.924963 
L 166.907588 218.590909 
L 168.53493 221.924494 
L 170.975941 226.303348 
L 171.789612 227.796194 
L 174.230623 231.438356 
L 175.044294 232.926435 
L 179.926317 240.345786 
L 181.553658 242.28025 
L 183.99467 245.858076 
L 186.435681 248.35886 
L 188.063022 249.674184 
L 189.690364 251.148364 
L 192.945046 253.65868 
L 196.199728 255.739291 
L 197.827069 257.113789 
L 199.45441 258.299646 
L 200.268081 258.956117 
L 201.081751 259.369538 
L 202.709092 260.367152 
L 203.522763 260.765482 
L 205.150104 261.360793 
L 207.591115 262.263887 
L 212.473139 264.649501 
L 214.91415 264.993027 
L 216.541491 265.589927 
L 218.168832 266.613354 
L 218.982503 267.038292 
L 222.237185 267.889759 
L 223.864526 268.27816 
L 224.678197 268.593886 
L 227.119208 268.521607 
L 227.932879 268.700319 
L 229.56022 268.760287 
L 234.442243 269.964413 
L 236.069584 270.440979 
L 238.510596 270.891732 
L 242.578949 270.688794 
L 244.20629 271.2293 
L 245.01996 271.685216 
L 245.833631 271.796018 
L 247.460972 271.66933 
L 248.274642 271.43899 
L 249.088313 271.363136 
L 250.715654 271.492206 
L 252.342995 271.334145 
L 253.156666 271.123264 
L 254.784007 271.192366 
L 257.225018 271.829377 
L 258.038689 272.235253 
L 259.66603 272.203085 
L 261.293371 272.202291 
L 262.107042 271.953285 
L 263.734383 271.96083 
L 265.361724 272.540256 
L 266.175394 272.702289 
L 266.989065 272.657412 
L 267.802735 272.828976 
L 271.871088 272.962415 
L 273.498429 272.819842 
L 274.3121 272.950898 
L 275.12577 272.867896 
L 276.753111 272.488628 
L 277.566782 272.541845 
L 280.007793 272.226119 
L 283.262476 272.259479 
L 284.889817 272.403243 
L 285.703487 272.527548 
L 286.517158 272.522385 
L 288.144499 272.218971 
L 291.399181 272.474331 
L 293.026522 272.272584 
L 293.840193 272.209439 
L 296.281204 272.508088 
L 298.722216 272.73962 
L 300.349557 272.885767 
L 302.790569 273.495375 
L 303.604239 273.377822 
L 304.41791 273.139936 
L 305.23158 273.153836 
L 306.045251 272.907213 
L 308.486262 272.741208 
L 309.299933 272.821828 
L 310.927274 272.664561 
L 312.554615 272.241608 
L 313.368286 272.041847 
L 314.995627 271.960036 
L 321.504991 271.449315 
L 323.946003 271.553366 
L 324.759673 271.496178 
L 326.387014 271.664962 
L 327.200685 271.828583 
L 328.828026 272.390932 
L 332.082708 272.198319 
L 332.896379 272.254316 
L 333.710049 271.987836 
L 334.52372 272.133189 
L 336.964731 272.02477 
L 338.592072 272.070441 
L 339.405743 271.942959 
L 341.033084 272.30237 
L 347.542448 272.958841 
L 349.98346 272.843273 
L 350.79713 272.845259 
L 351.610801 272.727706 
L 356.492824 272.785291 
L 360.561177 271.794429 
L 361.374847 271.983467 
L 362.188518 272.034301 
L 363.002189 271.789663 
L 364.62953 271.885771 
L 365.4432 271.783309 
L 372.766235 273.091088 
L 373.579906 272.955664 
L 374.393576 273.058125 
L 376.834588 272.931041 
L 377.648258 273.150262 
L 378.461929 273.241206 
L 379.275599 273.125242 
L 380.90294 272.517222 
L 383.343952 272.239622 
L 385.784964 272.343275 
L 389.039646 272.752726 
L 389.853316 272.696729 
L 393.107999 273.063685 
L 393.921669 272.774568 
L 397.990022 273.202684 
L 402.872045 274.012848 
L 403.685716 273.992593 
L 404.499386 273.850021 
L 406.126727 273.823015 
L 406.940398 273.729687 
L 406.940398 273.729687 
" style="fill:none;stroke:#29ffce;stroke-linecap:round;stroke-width:1.5;"/>
   </g>
   <g id="line2d_22">
    <path clip-path="url(#p5959204e4c)" d="M 82.285852 275.674477 
L 83.099523 227.701278 
L 83.913193 190.247099 
L 84.726864 159.985504 
L 85.540534 135.682584 
L 86.354205 115.514674 
L 87.167876 98.9647 
L 87.981546 85.397638 
L 88.795217 74.003323 
L 89.608887 64.944185 
L 90.422558 57.883054 
L 91.236228 52.250034 
L 92.049899 47.539569 
L 92.863569 43.866827 
L 93.67724 41.117037 
L 94.49091 38.974075 
L 95.304581 37.446678 
L 96.118251 36.451051 
L 96.931922 35.741364 
L 97.745593 35.221111 
L 98.559263 35.091644 
L 99.372934 35.245337 
L 101.000275 36.199662 
L 101.813945 36.497516 
L 102.627616 37.417687 
L 104.254957 39.636503 
L 105.068627 40.375578 
L 106.695968 43.075727 
L 108.32331 45.471666 
L 110.764321 50.193252 
L 113.205333 55.696407 
L 114.019003 57.10069 
L 118.901027 69.342103 
L 121.342038 76.709031 
L 122.155709 78.646672 
L 124.59672 85.550139 
L 127.851403 96.384091 
L 128.665073 98.789562 
L 134.360767 119.503141 
L 135.174437 122.117904 
L 136.801778 128.010255 
L 137.615449 131.115485 
L 140.056461 139.193292 
L 144.938484 156.844532 
L 149.820507 173.556538 
L 151.447848 178.352389 
L 155.516201 190.67164 
L 157.143542 195.092989 
L 158.770883 198.705762 
L 163.652906 210.121126 
L 164.466577 211.718419 
L 165.280247 213.622303 
L 167.721259 218.050006 
L 169.3486 220.440783 
L 172.603282 226.748938 
L 174.230623 229.889911 
L 176.671635 234.291005 
L 179.112647 237.695281 
L 182.367329 240.853727 
L 183.180999 241.484781 
L 183.99467 242.301696 
L 185.622011 244.218686 
L 187.249352 245.761968 
L 188.063022 246.317962 
L 190.504034 248.754013 
L 192.131375 250.033595 
L 193.758716 251.535575 
L 194.572387 251.886645 
L 197.013398 253.291326 
L 199.45441 255.471619 
L 202.709092 257.225782 
L 203.522763 257.585987 
L 205.150104 258.602266 
L 205.963774 258.940231 
L 206.777445 259.622516 
L 210.032127 261.392167 
L 211.659468 262.044667 
L 213.286809 262.833782 
L 218.982503 264.405658 
L 220.609844 265.015664 
L 221.423515 265.155457 
L 224.678197 266.544649 
L 226.305538 267.337735 
L 227.119208 267.373081 
L 227.932879 267.767043 
L 229.56022 268.113745 
L 230.373891 268.613346 
L 231.187561 268.915966 
L 232.814902 268.939397 
L 234.442243 269.271008 
L 235.255914 269.378235 
L 236.069584 269.307545 
L 236.883255 269.386973 
L 238.510596 269.336536 
L 243.392619 269.819457 
L 245.01996 270.05496 
L 246.647301 270.18403 
L 247.460972 270.425094 
L 249.901984 270.644712 
L 252.342995 270.396897 
L 253.156666 270.452894 
L 254.784007 270.818659 
L 255.597677 270.778945 
L 258.038689 271.110159 
L 258.852359 270.902058 
L 260.479701 271.056942 
L 262.107042 271.134781 
L 262.920712 270.936609 
L 264.548053 270.865918 
L 266.175394 270.992208 
L 268.616406 271.87624 
L 271.057418 271.981482 
L 273.498429 271.733667 
L 274.3121 271.670919 
L 275.939441 271.775366 
L 277.566782 271.973936 
L 280.007793 271.878623 
L 280.821464 271.947328 
L 281.635135 272.278542 
L 283.262476 272.490217 
L 286.517158 272.645895 
L 287.330828 272.478302 
L 288.144499 272.522782 
L 291.399181 271.933031 
L 293.026522 271.647488 
L 293.840193 271.519609 
L 296.281204 271.552174 
L 299.535886 271.115719 
L 300.349557 270.942169 
L 301.976898 270.956069 
L 303.604239 270.838516 
L 304.41791 271.000945 
L 306.045251 271.511269 
L 306.858921 271.635971 
L 309.299933 272.434617 
L 310.927274 272.593473 
L 312.554615 272.639541 
L 317.436638 272.411583 
L 319.063979 272.214999 
L 319.87765 272.244388 
L 321.504991 272.562496 
L 323.132332 272.499748 
L 323.946003 272.403243 
L 326.387014 272.56051 
L 327.200685 272.43144 
L 328.014355 272.437 
L 328.828026 272.56607 
L 332.082708 272.085532 
L 333.710049 272.19276 
L 336.964731 272.092283 
L 337.778402 271.919528 
L 340.219413 272.094666 
L 341.033084 272.163371 
L 345.101437 271.886963 
L 345.915107 271.853603 
L 347.542448 271.99975 
L 348.356119 271.928265 
L 349.98346 272.064881 
L 352.424472 272.236048 
L 353.238142 272.510868 
L 354.051813 272.508088 
L 354.865483 272.364721 
L 355.679154 272.367104 
L 358.120165 272.897284 
L 358.933836 272.905624 
L 360.561177 273.197918 
L 362.188518 273.302366 
L 363.002189 273.479887 
L 364.62953 273.513644 
L 365.4432 273.399268 
L 366.256871 273.409991 
L 367.884212 273.14351 
L 368.697882 273.136759 
L 371.952565 272.4509 
L 373.579906 272.894504 
L 377.648258 273.230484 
L 380.08927 272.91873 
L 383.343952 273.218967 
L 385.784964 273.086322 
L 387.412305 273.042637 
L 389.039646 273.231675 
L 390.666987 273.917534 
L 391.480657 274.339296 
L 393.921669 274.955656 
L 395.54901 275.045012 
L 397.176351 275.003709 
L 397.990022 274.889333 
L 398.803692 274.933019 
L 399.617363 275.125234 
L 401.244704 275.830553 
L 402.872045 275.98226 
L 403.685716 275.845644 
L 405.313057 275.949297 
L 406.940398 275.651443 
L 406.940398 275.651443 
" style="fill:none;stroke:#7dff7a;stroke-linecap:round;stroke-width:1.5;"/>
   </g>
   <g id="line2d_23">
    <path clip-path="url(#p5959204e4c)" d="M 82.285852 275.393303 
L 83.099523 227.446314 
L 83.913193 190.093406 
L 84.726864 159.667396 
L 85.540534 135.211577 
L 86.354205 115.102444 
L 87.167876 98.716489 
L 87.981546 85.154986 
L 88.795217 73.939781 
L 89.608887 64.985488 
L 90.422558 58.165817 
L 91.236228 52.60468 
L 92.049899 47.912085 
L 92.863569 43.990735 
L 93.67724 41.254447 
L 94.49091 39.285035 
L 95.304581 37.71157 
L 96.118251 36.38314 
L 96.931922 35.582905 
L 97.745593 35.299745 
L 98.559263 35.193709 
L 101.813945 36.233022 
L 102.627616 37.112684 
L 103.441286 37.721896 
L 105.068627 39.561046 
L 105.882298 41.083677 
L 108.32331 44.924806 
L 109.13698 46.717491 
L 109.950651 48.210734 
L 110.764321 49.952188 
L 111.577992 51.287767 
L 116.460015 62.023625 
L 119.714697 70.724543 
L 121.342038 75.248354 
L 122.155709 77.486629 
L 123.78305 82.55174 
L 125.410391 87.419076 
L 127.037732 92.563614 
L 128.665073 98.232376 
L 131.106085 106.653311 
L 135.174437 120.124266 
L 137.615449 129.690153 
L 142.497472 147.283808 
L 149.820507 171.669334 
L 158.770883 199.034991 
L 160.398224 203.208524 
L 161.211895 205.571501 
L 162.839236 209.564337 
L 164.466577 213.285926 
L 167.721259 219.608379 
L 169.3486 223.017023 
L 170.162271 224.638939 
L 172.603282 228.854966 
L 175.044294 233.305306 
L 176.671635 235.862087 
L 178.298976 238.123396 
L 181.553658 242.242919 
L 182.367329 243.315195 
L 184.80834 247.190874 
L 185.622011 247.960926 
L 189.690364 250.656309 
L 191.317705 252.306421 
L 193.758716 254.746443 
L 194.572387 255.460102 
L 195.386057 255.900926 
L 197.013398 257.318316 
L 199.45441 258.519264 
L 200.268081 258.88066 
L 203.522763 261.390579 
L 205.150104 261.976756 
L 206.777445 262.837356 
L 208.404786 263.191604 
L 209.218457 263.390174 
L 210.845798 264.032347 
L 211.659468 264.142752 
L 212.473139 264.113761 
L 216.541491 264.60939 
L 221.423515 266.575228 
L 223.864526 266.860374 
L 224.678197 266.803186 
L 228.746549 267.799211 
L 229.56022 268.126453 
L 231.187561 268.227724 
L 232.814902 268.258701 
L 235.255914 268.500558 
L 240.137937 270.154245 
L 242.578949 270.106588 
L 244.20629 270.213816 
L 245.01996 270.409605 
L 245.833631 270.357183 
L 246.647301 270.606586 
L 250.715654 270.760279 
L 253.156666 271.370682 
L 253.970336 271.43899 
L 254.784007 271.226917 
L 257.225018 271.554954 
L 260.479701 272.576793 
L 261.293371 272.738031 
L 264.548053 272.87703 
L 265.361724 272.626832 
L 266.989065 272.500145 
L 268.616406 272.172903 
L 270.243747 271.700704 
L 275.939441 271.389744 
L 279.194123 271.513652 
L 280.007793 271.332556 
L 280.821464 271.27378 
L 281.635135 271.483866 
L 282.448805 271.494589 
L 284.076146 271.100627 
L 284.889817 271.271397 
L 286.517158 271.164567 
L 287.330828 271.139944 
L 289.77184 271.38895 
L 291.399181 271.027157 
L 292.212852 270.860358 
L 296.281204 271.569648 
L 297.094875 271.55972 
L 301.163228 272.275364 
L 303.604239 272.168137 
L 305.23158 272.318653 
L 306.858921 272.098638 
L 309.299933 272.404037 
L 310.113603 272.472345 
L 310.927274 272.390138 
L 314.995627 273.050977 
L 318.250309 272.397286 
L 319.063979 272.348041 
L 320.69132 272.620875 
L 328.828026 273.310706 
L 332.082708 272.917935 
L 333.710049 272.70904 
L 334.52372 272.626832 
L 335.33739 272.761463 
L 336.151061 272.732869 
L 336.964731 272.815871 
L 340.219413 272.513251 
L 341.033084 272.62167 
L 343.474096 272.54383 
L 345.101437 272.797205 
L 348.356119 272.763051 
L 350.79713 273.266623 
L 351.610801 273.180841 
L 354.051813 272.413172 
L 354.865483 272.401655 
L 356.492824 272.646689 
L 358.120165 272.47592 
L 359.747506 272.801176 
L 362.188518 272.880604 
L 363.002189 272.961223 
L 367.070541 272.517222 
L 367.884212 272.461226 
L 368.697882 272.536682 
L 369.511553 272.48148 
L 370.325223 272.645101 
L 372.766235 272.776951 
L 380.08927 273.363525 
L 381.716611 273.601412 
L 383.343952 273.431039 
L 385.784964 273.35042 
L 389.039646 273.886955 
L 389.853316 273.877423 
L 392.294328 273.159396 
L 393.107999 273.17409 
L 393.921669 273.419125 
L 394.73534 273.503318 
L 396.362681 273.416742 
L 399.617363 273.599029 
L 401.244704 273.437393 
L 402.058374 273.16853 
L 405.313057 273.128419 
L 406.126727 273.415551 
L 406.940398 273.516821 
L 406.940398 273.516821 
" style="fill:none;stroke:#ceff29;stroke-linecap:round;stroke-width:1.5;"/>
   </g>
   <g id="line2d_24">
    <path clip-path="url(#p5959204e4c)" d="M 82.285852 275.513636 
L 83.099523 227.825185 
L 83.913193 190.048132 
L 84.726864 159.933082 
L 85.540534 135.007447 
L 86.354205 114.848275 
L 87.167876 98.613232 
L 87.981546 85.268171 
L 88.795217 74.283703 
L 89.608887 65.353239 
L 90.422558 57.987899 
L 91.236228 52.346142 
L 92.049899 47.657519 
L 92.863569 43.727432 
L 93.67724 40.887491 
L 94.49091 38.736189 
L 96.118251 36.113483 
L 96.931922 34.989977 
L 98.559263 34.582115 
L 99.372934 34.629374 
L 101.813945 35.77234 
L 102.627616 36.762805 
L 103.441286 37.936351 
L 104.254957 38.850962 
L 107.509639 43.413295 
L 108.32331 45.02687 
L 109.950651 47.598345 
L 113.205333 54.873535 
L 119.714697 71.333755 
L 122.969379 80.231257 
L 131.919755 108.809776 
L 134.360767 117.716412 
L 137.615449 129.612314 
L 144.124813 152.49586 
L 145.752154 158.009738 
L 147.379495 163.723774 
L 149.006837 168.999368 
L 151.447848 176.800767 
L 152.261519 179.187572 
L 153.075189 182.007656 
L 157.957212 196.161293 
L 162.025565 207.412638 
L 164.466577 213.146531 
L 166.093918 217.535314 
L 167.721259 221.485258 
L 168.53493 223.142916 
L 170.162271 225.764431 
L 173.416953 231.293797 
L 175.044294 233.422859 
L 175.857964 234.489575 
L 177.485305 237.197665 
L 179.926317 240.590027 
L 181.553658 242.208765 
L 183.99467 244.966101 
L 184.80834 245.81161 
L 187.249352 247.693652 
L 188.063022 248.590789 
L 190.504034 250.72978 
L 194.572387 253.522064 
L 197.827069 256.496238 
L 198.640739 256.989882 
L 199.45441 257.341747 
L 201.081751 258.296469 
L 202.709092 259.256354 
L 208.404786 262.840136 
L 210.032127 263.744422 
L 211.659468 264.095493 
L 212.473139 264.565308 
L 213.286809 264.842511 
L 215.727821 266.493418 
L 217.355162 266.783726 
L 220.609844 267.345678 
L 222.237185 267.74242 
L 223.050856 268.030743 
L 224.678197 268.874663 
L 226.305538 269.092693 
L 227.932879 268.939 
L 228.746549 268.75433 
L 230.373891 268.692774 
L 233.628573 269.120492 
L 235.255914 269.493009 
L 237.696925 269.529943 
L 244.20629 269.425892 
L 245.01996 269.462826 
L 246.647301 269.89253 
L 249.088313 270.915163 
L 253.156666 271.11413 
L 254.784007 271.843674 
L 256.411348 272.093475 
L 257.225018 272.347644 
L 259.66603 272.400066 
L 262.107042 271.964007 
L 263.734383 271.945342 
L 265.361724 271.772189 
L 266.989065 271.449712 
L 268.616406 271.533112 
L 271.057418 271.809918 
L 273.498429 272.409995 
L 275.939441 272.272982 
L 276.753111 272.373061 
L 279.194123 272.260273 
L 280.821464 272.595458 
L 282.448805 272.539065 
L 283.262476 272.730486 
L 286.517158 272.914758 
L 287.330828 272.98386 
L 288.958169 272.754314 
L 289.77184 272.441369 
L 290.585511 272.44534 
L 293.026522 271.964802 
L 294.653863 272.25233 
L 296.281204 272.626435 
L 298.722216 273.086322 
L 299.535886 273.118888 
L 303.604239 272.527151 
L 305.23158 272.477905 
L 306.045251 272.595061 
L 308.486262 272.556936 
L 313.368286 272.857173 
L 314.181956 272.818253 
L 315.809297 272.449311 
L 317.436638 272.294824 
L 319.063979 272.106978 
L 321.504991 271.540657 
L 324.759673 271.130016 
L 327.200685 271.42787 
L 329.641696 272.48704 
L 330.455367 272.720954 
L 332.082708 272.736046 
L 333.710049 272.826593 
L 336.151061 272.693552 
L 337.778402 272.755505 
L 338.592072 272.709835 
L 339.405743 272.515634 
L 340.219413 272.537476 
L 341.846755 272.348438 
L 345.101437 272.664958 
L 348.356119 272.298001 
L 354.051813 271.625645 
L 354.865483 271.754318 
L 355.679154 271.766629 
L 356.492824 271.5208 
L 358.933836 271.292445 
L 359.747506 271.004123 
L 361.374847 270.852018 
L 362.188518 270.9517 
L 363.815859 271.44177 
L 364.62953 271.528743 
L 366.256871 272.084341 
L 368.697882 272.360352 
L 371.952565 272.381401 
L 372.766235 272.306341 
L 374.393576 272.381798 
L 376.020917 272.244388 
L 376.834588 272.368295 
L 377.648258 272.373855 
L 379.275599 272.131203 
L 382.530282 272.053364 
L 383.343952 272.149869 
L 386.598634 273.070437 
L 388.225975 273.065274 
L 392.294328 273.626431 
L 393.107999 273.699902 
L 394.73534 273.456059 
L 395.54901 273.416742 
L 396.362681 273.527941 
L 397.176351 273.343668 
L 397.990022 273.375042 
L 398.803692 273.050977 
L 400.431033 272.778937 
L 402.872045 272.711423 
L 403.685716 272.665355 
L 406.126727 273.284892 
L 406.940398 273.512452 
L 406.940398 273.512452 
" style="fill:none;stroke:#ffc400;stroke-linecap:round;stroke-width:1.5;"/>
   </g>
   <g id="line2d_25">
    <path clip-path="url(#p5959204e4c)" d="M 82.285852 275.403231 
L 83.099523 227.663152 
L 83.913193 190.092215 
L 84.726864 159.823869 
L 85.540534 135.144063 
L 86.354205 114.716424 
L 87.167876 98.317761 
L 87.981546 85.179212 
L 88.795217 74.134379 
L 89.608887 64.927506 
L 90.422558 57.568917 
L 91.236228 52.132084 
L 92.049899 47.488735 
L 92.863569 43.762777 
L 93.67724 41.068586 
L 94.49091 38.964544 
L 96.118251 36.222696 
L 96.931922 35.32675 
L 97.745593 34.889103 
L 98.559263 34.83271 
L 99.372934 34.655983 
L 100.186604 34.794981 
L 101.000275 35.18656 
L 102.627616 37.104742 
L 103.441286 37.668282 
L 104.254957 38.563433 
L 107.509639 43.816391 
L 109.950651 47.99191 
L 110.764321 49.646788 
L 112.391662 53.249236 
L 113.205333 55.03795 
L 114.832674 59.057791 
L 118.087356 66.825433 
L 118.901027 68.836942 
L 120.528368 73.447726 
L 122.155709 77.906802 
L 123.78305 83.352769 
L 124.59672 85.615667 
L 125.410391 88.419866 
L 127.037732 93.071158 
L 128.665073 98.206165 
L 131.106085 105.477383 
L 132.733426 111.426128 
L 134.360767 116.949934 
L 136.801778 126.303352 
L 140.056461 137.557874 
L 140.870131 140.212351 
L 142.497472 146.482381 
L 143.311143 149.069742 
L 144.938484 155.243665 
L 149.006837 169.329391 
L 151.447848 176.955651 
L 157.143542 194.277265 
L 157.957212 196.449219 
L 159.584554 201.221638 
L 161.211895 205.665226 
L 162.839236 209.24742 
L 164.466577 212.996015 
L 166.093918 216.155653 
L 167.721259 219.404647 
L 169.3486 222.636961 
L 172.603282 229.38197 
L 173.416953 230.926046 
L 179.112647 239.889076 
L 180.739988 242.102729 
L 181.553658 243.21869 
L 183.180999 244.8414 
L 184.80834 246.949016 
L 187.249352 248.957348 
L 188.876693 250.495865 
L 190.504034 252.340178 
L 192.945046 254.892591 
L 195.386057 256.346516 
L 196.199728 256.848103 
L 197.827069 258.200758 
L 202.709092 260.483513 
L 203.522763 261.000191 
L 204.336433 261.322271 
L 205.963774 261.665399 
L 207.591115 262.256342 
L 209.218457 262.860787 
L 210.032127 263.280563 
L 211.659468 263.807567 
L 212.473139 263.842118 
L 215.727821 264.428692 
L 217.355162 264.282148 
L 218.168832 264.513283 
L 219.796174 265.23131 
L 221.423515 265.858393 
L 222.237185 266.068082 
L 223.864526 266.719787 
L 224.678197 266.937419 
L 225.491867 267.028364 
L 226.305538 267.351238 
L 228.746549 267.564502 
L 232.001232 268.921526 
L 232.814902 269.15822 
L 233.628573 269.2027 
L 234.442243 269.359967 
L 236.069584 269.98983 
L 236.883255 270.139551 
L 238.510596 269.958456 
L 239.324266 269.725732 
L 240.951608 269.879425 
L 243.392619 270.059329 
L 244.20629 270.024778 
L 245.01996 270.131211 
L 246.647301 270.795625 
L 248.274642 271.13637 
L 249.901984 271.624454 
L 250.715654 271.759878 
L 254.784007 273.137156 
L 255.597677 273.281318 
L 258.852359 273.002923 
L 260.479701 272.195142 
L 262.920712 272.505705 
L 263.734383 272.624847 
L 264.548053 272.586324 
L 265.361724 272.677666 
L 269.430076 272.155428 
L 270.243747 272.275762 
L 273.498429 272.325404 
L 275.12577 272.045024 
L 275.939441 271.98029 
L 277.566782 272.439383 
L 280.821464 272.740811 
L 281.635135 272.71738 
L 282.448805 272.921112 
L 284.889817 273.058125 
L 285.703487 273.021589 
L 286.517158 273.259475 
L 287.330828 273.202684 
L 288.144499 272.877824 
L 288.958169 272.696332 
L 292.212852 273.263446 
L 294.653863 272.98664 
L 297.094875 272.27457 
L 299.535886 272.111743 
L 300.349557 272.224928 
L 303.604239 272.12326 
L 306.045251 272.751534 
L 308.486262 272.878221 
L 311.740945 272.848039 
L 312.554615 272.826593 
L 313.368286 272.693949 
L 314.181956 272.42588 
L 316.622968 272.09546 
L 318.250309 271.978702 
L 320.69132 271.975922 
L 321.504991 271.944151 
L 322.318662 271.777749 
L 323.132332 271.451301 
L 323.946003 271.296814 
L 324.759673 271.361548 
L 325.573344 271.191969 
L 326.387014 270.900469 
L 328.014355 270.716991 
L 329.641696 271.01564 
L 334.52372 272.207454 
L 335.33739 272.274173 
L 338.592072 272.055349 
L 340.219413 272.657809 
L 341.846755 273.021986 
L 344.287766 273.197521 
L 348.356119 273.098236 
L 354.051813 272.485848 
L 355.679154 272.364324 
L 356.492824 272.145103 
L 358.120165 272.006898 
L 359.747506 272.293236 
L 361.374847 272.870676 
L 363.002189 273.182827 
L 364.62953 273.292437 
L 366.256871 273.34486 
L 367.884212 273.700696 
L 371.952565 273.423096 
L 374.393576 273.011263 
L 375.207247 272.746371 
L 376.020917 272.637555 
L 377.648258 272.863527 
L 378.461929 272.698715 
L 379.275599 272.348835 
L 380.08927 272.247962 
L 381.716611 272.597444 
L 382.530282 272.875044 
L 383.343952 272.908404 
L 384.157623 273.170119 
L 385.784964 273.388545 
L 386.598634 273.447719 
L 388.225975 273.827384 
L 390.666987 273.635168 
L 391.480657 273.780521 
L 392.294328 273.78767 
L 393.921669 274.016025 
L 394.73534 273.791641 
L 396.362681 273.683222 
L 397.990022 273.78767 
L 399.617363 274.037073 
L 401.244704 274.007288 
L 402.058374 274.107367 
L 402.872045 274.080758 
L 404.499386 274.473926 
L 406.126727 274.875433 
L 406.940398 275.071223 
L 406.940398 275.071223 
" style="fill:none;stroke:#ff6800;stroke-linecap:round;stroke-width:1.5;"/>
   </g>
   <g id="line2d_26">
    <path clip-path="url(#p5959204e4c)" d="M 82.285852 275.625629 
L 83.099523 227.89389 
L 83.913193 190.415089 
L 84.726864 160.358021 
L 85.540534 135.451052 
L 86.354205 115.045653 
L 87.167876 98.24707 
L 87.981546 84.790412 
L 88.795217 73.843276 
L 89.608887 65.011302 
L 90.422558 57.898542 
L 91.236228 52.035182 
L 92.049899 47.438696 
L 92.863569 44.005429 
L 93.67724 41.156751 
L 94.49091 39.095997 
L 96.118251 36.08608 
L 96.931922 35.263208 
L 97.745593 34.712376 
L 99.372934 35.150818 
L 100.186604 35.817614 
L 101.000275 36.190925 
L 101.813945 36.84263 
L 102.627616 37.680196 
L 103.441286 38.350567 
L 105.882298 41.617432 
L 109.950651 48.363632 
L 114.019003 57.230158 
L 114.832674 59.446987 
L 117.273685 65.198354 
L 119.714697 71.547018 
L 122.155709 78.604575 
L 124.59672 85.497717 
L 126.224061 90.636299 
L 127.851403 96.003632 
L 131.106085 107.581822 
L 132.733426 113.121514 
L 135.174437 122.629816 
L 136.801778 128.307315 
L 139.24279 137.152395 
L 140.870131 142.396218 
L 141.683802 144.684533 
L 143.311143 150.210722 
L 145.752154 157.705927 
L 147.379495 163.152688 
L 149.820507 171.579977 
L 151.447848 177.112521 
L 156.329871 192.677192 
L 157.143542 194.953593 
L 158.770883 198.851512 
L 159.584554 201.136253 
L 161.211895 204.952759 
L 165.280247 213.042083 
L 166.093918 214.5667 
L 169.3486 222.214405 
L 170.975941 224.954267 
L 171.789612 226.678248 
L 173.416953 229.225497 
L 175.044294 231.179024 
L 175.857964 232.369647 
L 177.485305 234.254468 
L 178.298976 235.345012 
L 183.180999 240.29813 
L 183.99467 240.885498 
L 184.80834 241.645622 
L 186.435681 243.610666 
L 188.063022 244.93711 
L 189.690364 246.52924 
L 191.317705 248.388645 
L 192.945046 250.004207 
L 193.758716 250.666634 
L 194.572387 251.097927 
L 196.199728 252.750026 
L 197.827069 254.433498 
L 199.45441 255.680514 
L 204.336433 259.221803 
L 205.150104 259.572476 
L 205.963774 259.722198 
L 207.591115 260.468025 
L 208.404786 260.621718 
L 210.032127 261.688036 
L 210.845798 262.062935 
L 214.10048 264.036319 
L 218.168832 265.238459 
L 219.796174 265.784128 
L 221.423515 266.315102 
L 223.864526 266.544252 
L 224.678197 266.338931 
L 225.491867 266.419153 
L 227.119208 266.976736 
L 227.932879 267.331778 
L 232.814902 268.677682 
L 233.628573 268.777761 
L 235.255914 269.147101 
L 236.883255 269.319459 
L 237.696925 269.024782 
L 240.951608 269.416361 
L 241.765278 269.640744 
L 243.392619 269.866716 
L 245.01996 270.213022 
L 245.833631 270.465999 
L 247.460972 270.487048 
L 248.274642 270.445745 
L 249.088313 270.747968 
L 252.342995 271.197132 
L 253.156666 271.110159 
L 254.784007 271.141533 
L 255.597677 270.977117 
L 256.411348 270.961232 
L 258.038689 271.281326 
L 261.293371 271.480689 
L 263.734383 271.354796 
L 265.361724 271.305948 
L 266.989065 271.720561 
L 267.802735 272.119289 
L 268.616406 272.350027 
L 271.057418 272.355587 
L 272.684759 271.877828 
L 273.498429 271.84566 
L 276.753111 272.390932 
L 279.194123 272.556539 
L 280.007793 272.361146 
L 280.821464 271.962022 
L 282.448805 271.423501 
L 283.262476 271.289665 
L 284.889817 271.490618 
L 288.144499 270.83375 
L 293.840193 271.466392 
L 294.653863 271.429856 
L 296.281204 271.731284 
L 297.094875 271.82342 
L 299.535886 272.689978 
L 301.163228 272.390138 
L 302.790569 271.993396 
L 303.604239 272.037478 
L 306.045251 272.595061 
L 307.672592 272.768214 
L 309.299933 272.374649 
L 310.927274 272.276953 
L 312.554615 272.391726 
L 316.622968 272.118097 
L 317.436638 271.87068 
L 319.87765 271.73327 
L 320.69132 271.747964 
L 323.946003 271.271794 
L 324.759673 271.502532 
L 327.200685 271.5764 
L 328.828026 271.27656 
L 330.455367 271.308728 
L 331.269038 271.252732 
L 332.082708 271.312302 
L 333.710049 271.166155 
L 335.33739 271.522389 
L 336.964731 271.69435 
L 339.405743 272.255508 
L 341.846755 272.823813 
L 345.101437 272.357969 
L 347.542448 272.511662 
L 351.610801 271.970362 
L 352.424472 271.98307 
L 353.238142 272.1594 
L 354.051813 272.035492 
L 360.561177 271.98307 
L 361.374847 272.147486 
L 362.188518 272.116509 
L 363.002189 271.967979 
L 363.815859 272.084738 
L 365.4432 272.612933 
L 367.884212 273.065274 
L 371.138894 272.850819 
L 371.952565 272.715394 
L 374.393576 272.71182 
L 375.207247 272.977109 
L 376.834588 273.19633 
L 378.461929 273.460427 
L 380.08927 273.506098 
L 385.784964 273.052168 
L 389.039646 273.332548 
L 390.666987 273.069642 
L 393.921669 272.840493 
L 395.54901 273.329371 
L 397.176351 273.349228 
L 400.431033 273.60578 
L 402.872045 273.444145 
L 406.126727 273.547004 
L 406.940398 273.833738 
L 406.940398 273.833738 
" style="fill:none;stroke:#f10800;stroke-linecap:round;stroke-width:1.5;"/>
   </g>
   <g id="patch_3">
    <path d="M 66.053125 288.430125 
L 66.053125 22.318125 
" style="fill:none;stroke:#cccccc;stroke-linecap:square;stroke-linejoin:miter;stroke-width:0.8;"/>
   </g>
   <g id="patch_4">
    <path d="M 423.173125 288.430125 
L 423.173125 22.318125 
" style="fill:none;stroke:#cccccc;stroke-linecap:square;stroke-linejoin:miter;stroke-width:0.8;"/>
   </g>
   <g id="patch_5">
    <path d="M 66.053125 288.430125 
L 423.173125 288.430125 
" style="fill:none;stroke:#cccccc;stroke-linecap:square;stroke-linejoin:miter;stroke-width:0.8;"/>
   </g>
   <g id="patch_6">
    <path d="M 66.053125 22.318125 
L 423.173125 22.318125 
" style="fill:none;stroke:#cccccc;stroke-linecap:square;stroke-linejoin:miter;stroke-width:0.8;"/>
   </g>
   <g id="text_19">
    <!-- Short-lived Plasma cells -->
    <defs>
     <path d="M 53.515625 70.515625 
L 53.515625 60.890625 
Q 47.90625 63.578125 42.921875 64.890625 
Q 37.9375 66.21875 33.296875 66.21875 
Q 25.25 66.21875 20.875 63.09375 
Q 16.5 59.96875 16.5 54.203125 
Q 16.5 49.359375 19.40625 46.890625 
Q 22.3125 44.4375 30.421875 42.921875 
L 36.375 41.703125 
Q 47.40625 39.59375 52.65625 34.296875 
Q 57.90625 29 57.90625 20.125 
Q 57.90625 9.515625 50.796875 4.046875 
Q 43.703125 -1.421875 29.984375 -1.421875 
Q 24.8125 -1.421875 18.96875 -0.25 
Q 13.140625 0.921875 6.890625 3.21875 
L 6.890625 13.375 
Q 12.890625 10.015625 18.65625 8.296875 
Q 24.421875 6.59375 29.984375 6.59375 
Q 38.421875 6.59375 43.015625 9.90625 
Q 47.609375 13.234375 47.609375 19.390625 
Q 47.609375 24.75 44.3125 27.78125 
Q 41.015625 30.8125 33.5 32.328125 
L 27.484375 33.5 
Q 16.453125 35.6875 11.515625 40.375 
Q 6.59375 45.0625 6.59375 53.421875 
Q 6.59375 63.09375 13.40625 68.65625 
Q 20.21875 74.21875 32.171875 74.21875 
Q 37.3125 74.21875 42.625 73.28125 
Q 47.953125 72.359375 53.515625 70.515625 
z
" id="DejaVuSans-83"/>
     <path d="M 54.890625 33.015625 
L 54.890625 0 
L 45.90625 0 
L 45.90625 32.71875 
Q 45.90625 40.484375 42.875 44.328125 
Q 39.84375 48.1875 33.796875 48.1875 
Q 26.515625 48.1875 22.3125 43.546875 
Q 18.109375 38.921875 18.109375 30.90625 
L 18.109375 0 
L 9.078125 0 
L 9.078125 75.984375 
L 18.109375 75.984375 
L 18.109375 46.1875 
Q 21.34375 51.125 25.703125 53.5625 
Q 30.078125 56 35.796875 56 
Q 45.21875 56 50.046875 50.171875 
Q 54.890625 44.34375 54.890625 33.015625 
z
" id="DejaVuSans-104"/>
     <path d="M 30.609375 48.390625 
Q 23.390625 48.390625 19.1875 42.75 
Q 14.984375 37.109375 14.984375 27.296875 
Q 14.984375 17.484375 19.15625 11.84375 
Q 23.34375 6.203125 30.609375 6.203125 
Q 37.796875 6.203125 41.984375 11.859375 
Q 46.1875 17.53125 46.1875 27.296875 
Q 46.1875 37.015625 41.984375 42.703125 
Q 37.796875 48.390625 30.609375 48.390625 
z
M 30.609375 56 
Q 42.328125 56 49.015625 48.375 
Q 55.71875 40.765625 55.71875 27.296875 
Q 55.71875 13.875 49.015625 6.21875 
Q 42.328125 -1.421875 30.609375 -1.421875 
Q 18.84375 -1.421875 12.171875 6.21875 
Q 5.515625 13.875 5.515625 27.296875 
Q 5.515625 40.765625 12.171875 48.375 
Q 18.84375 56 30.609375 56 
z
" id="DejaVuSans-111"/>
     <path d="M 4.890625 31.390625 
L 31.203125 31.390625 
L 31.203125 23.390625 
L 4.890625 23.390625 
z
" id="DejaVuSans-45"/>
     <path d="M 2.984375 54.6875 
L 12.5 54.6875 
L 29.59375 8.796875 
L 46.6875 54.6875 
L 56.203125 54.6875 
L 35.6875 0 
L 23.484375 0 
z
" id="DejaVuSans-118"/>
     <path d="M 19.671875 64.796875 
L 19.671875 37.40625 
L 32.078125 37.40625 
Q 38.96875 37.40625 42.71875 40.96875 
Q 46.484375 44.53125 46.484375 51.125 
Q 46.484375 57.671875 42.71875 61.234375 
Q 38.96875 64.796875 32.078125 64.796875 
z
M 9.8125 72.90625 
L 32.078125 72.90625 
Q 44.34375 72.90625 50.609375 67.359375 
Q 56.890625 61.8125 56.890625 51.125 
Q 56.890625 40.328125 50.609375 34.8125 
Q 44.34375 29.296875 32.078125 29.296875 
L 19.671875 29.296875 
L 19.671875 0 
L 9.8125 0 
z
" id="DejaVuSans-80"/>
    </defs>
    <g style="fill:#262626;" transform="translate(173.088438 16.318125)scale(0.12 -0.12)">
     <use xlink:href="#DejaVuSans-83"/>
     <use x="63.476562" xlink:href="#DejaVuSans-104"/>
     <use x="126.855469" xlink:href="#DejaVuSans-111"/>
     <use x="188.037109" xlink:href="#DejaVuSans-114"/>
     <use x="229.150391" xlink:href="#DejaVuSans-116"/>
     <use x="268.359375" xlink:href="#DejaVuSans-45"/>
     <use x="304.443359" xlink:href="#DejaVuSans-108"/>
     <use x="332.226562" xlink:href="#DejaVuSans-105"/>
     <use x="360.009766" xlink:href="#DejaVuSans-118"/>
     <use x="419.189453" xlink:href="#DejaVuSans-101"/>
     <use x="480.712891" xlink:href="#DejaVuSans-100"/>
     <use x="544.189453" xlink:href="#DejaVuSans-32"/>
     <use x="575.976562" xlink:href="#DejaVuSans-80"/>
     <use x="636.279297" xlink:href="#DejaVuSans-108"/>
     <use x="664.0625" xlink:href="#DejaVuSans-97"/>
     <use x="725.341797" xlink:href="#DejaVuSans-115"/>
     <use x="777.441406" xlink:href="#DejaVuSans-109"/>
     <use x="874.853516" xlink:href="#DejaVuSans-97"/>
     <use x="936.132812" xlink:href="#DejaVuSans-32"/>
     <use x="967.919922" xlink:href="#DejaVuSans-99"/>
     <use x="1022.900391" xlink:href="#DejaVuSans-101"/>
     <use x="1084.423828" xlink:href="#DejaVuSans-108"/>
     <use x="1112.207031" xlink:href="#DejaVuSans-108"/>
     <use x="1139.990234" xlink:href="#DejaVuSans-115"/>
    </g>
   </g>
  </g>
 </g>
 <defs>
  <clipPath id="p5959204e4c">
   <rect height="266.112" width="357.12" x="66.053125" y="22.318125"/>
  </clipPath>
 </defs>
</svg>
