<?xml version="1.0" encoding="utf-8" standalone="no"?>
<!DOCTYPE svg PUBLIC "-//W3C//DTD SVG 1.1//EN"
  "http://www.w3.org/Graphics/SVG/1.1/DTD/svg11.dtd">
<!-- Created with matplotlib (https://matplotlib.org/) -->
<svg height="325.986375pt" version="1.1" viewBox="0 0 430.373125 325.986375" width="430.373125pt" xmlns="http://www.w3.org/2000/svg" xmlns:xlink="http://www.w3.org/1999/xlink">
 <defs>
  <style type="text/css">
*{stroke-linecap:butt;stroke-linejoin:round;white-space:pre;}
  </style>
 </defs>
 <g id="figure_1">
  <g id="patch_1">
   <path d="M 0 325.986375 
L 430.373125 325.986375 
L 430.373125 0 
L 0 0 
z
" style="fill:#ffffff;"/>
  </g>
  <g id="axes_1">
   <g id="patch_2">
    <path d="M 66.053125 288.430125 
L 423.173125 288.430125 
L 423.173125 22.318125 
L 66.053125 22.318125 
z
" style="fill:#ffffff;"/>
   </g>
   <g id="matplotlib.axis_1">
    <g id="xtick_1">
     <g id="line2d_1">
      <path clip-path="url(#pbeecdebe33)" d="M 82.285852 288.430125 
L 82.285852 22.318125 
" style="fill:none;stroke:#cccccc;stroke-linecap:round;stroke-width:0.8;"/>
     </g>
     <g id="text_1">
      <!-- 0 -->
      <defs>
       <path d="M 31.78125 66.40625 
Q 24.171875 66.40625 20.328125 58.90625 
Q 16.5 51.421875 16.5 36.375 
Q 16.5 21.390625 20.328125 13.890625 
Q 24.171875 6.390625 31.78125 6.390625 
Q 39.453125 6.390625 43.28125 13.890625 
Q 47.125 21.390625 47.125 36.375 
Q 47.125 51.421875 43.28125 58.90625 
Q 39.453125 66.40625 31.78125 66.40625 
z
M 31.78125 74.21875 
Q 44.046875 74.21875 50.515625 64.515625 
Q 56.984375 54.828125 56.984375 36.375 
Q 56.984375 17.96875 50.515625 8.265625 
Q 44.046875 -1.421875 31.78125 -1.421875 
Q 19.53125 -1.421875 13.0625 8.265625 
Q 6.59375 17.96875 6.59375 36.375 
Q 6.59375 54.828125 13.0625 64.515625 
Q 19.53125 74.21875 31.78125 74.21875 
z
" id="DejaVuSans-48"/>
      </defs>
      <g style="fill:#262626;" transform="translate(79.104602 303.028562)scale(0.1 -0.1)">
       <use xlink:href="#DejaVuSans-48"/>
      </g>
     </g>
    </g>
    <g id="xtick_2">
     <g id="line2d_2">
      <path clip-path="url(#pbeecdebe33)" d="M 136.394943 288.430125 
L 136.394943 22.318125 
" style="fill:none;stroke:#cccccc;stroke-linecap:round;stroke-width:0.8;"/>
     </g>
     <g id="text_2">
      <!-- 10 -->
      <defs>
       <path d="M 12.40625 8.296875 
L 28.515625 8.296875 
L 28.515625 63.921875 
L 10.984375 60.40625 
L 10.984375 69.390625 
L 28.421875 72.90625 
L 38.28125 72.90625 
L 38.28125 8.296875 
L 54.390625 8.296875 
L 54.390625 0 
L 12.40625 0 
z
" id="DejaVuSans-49"/>
      </defs>
      <g style="fill:#262626;" transform="translate(130.032443 303.028562)scale(0.1 -0.1)">
       <use xlink:href="#DejaVuSans-49"/>
       <use x="63.623047" xlink:href="#DejaVuSans-48"/>
      </g>
     </g>
    </g>
    <g id="xtick_3">
     <g id="line2d_3">
      <path clip-path="url(#pbeecdebe33)" d="M 190.504034 288.430125 
L 190.504034 22.318125 
" style="fill:none;stroke:#cccccc;stroke-linecap:round;stroke-width:0.8;"/>
     </g>
     <g id="text_3">
      <!-- 20 -->
      <defs>
       <path d="M 19.1875 8.296875 
L 53.609375 8.296875 
L 53.609375 0 
L 7.328125 0 
L 7.328125 8.296875 
Q 12.9375 14.109375 22.625 23.890625 
Q 32.328125 33.6875 34.8125 36.53125 
Q 39.546875 41.84375 41.421875 45.53125 
Q 43.3125 49.21875 43.3125 52.78125 
Q 43.3125 58.59375 39.234375 62.25 
Q 35.15625 65.921875 28.609375 65.921875 
Q 23.96875 65.921875 18.8125 64.3125 
Q 13.671875 62.703125 7.8125 59.421875 
L 7.8125 69.390625 
Q 13.765625 71.78125 18.9375 73 
Q 24.125 74.21875 28.421875 74.21875 
Q 39.75 74.21875 46.484375 68.546875 
Q 53.21875 62.890625 53.21875 53.421875 
Q 53.21875 48.921875 51.53125 44.890625 
Q 49.859375 40.875 45.40625 35.40625 
Q 44.1875 33.984375 37.640625 27.21875 
Q 31.109375 20.453125 19.1875 8.296875 
z
" id="DejaVuSans-50"/>
      </defs>
      <g style="fill:#262626;" transform="translate(184.141534 303.028562)scale(0.1 -0.1)">
       <use xlink:href="#DejaVuSans-50"/>
       <use x="63.623047" xlink:href="#DejaVuSans-48"/>
      </g>
     </g>
    </g>
    <g id="xtick_4">
     <g id="line2d_4">
      <path clip-path="url(#pbeecdebe33)" d="M 244.613125 288.430125 
L 244.613125 22.318125 
" style="fill:none;stroke:#cccccc;stroke-linecap:round;stroke-width:0.8;"/>
     </g>
     <g id="text_4">
      <!-- 30 -->
      <defs>
       <path d="M 40.578125 39.3125 
Q 47.65625 37.796875 51.625 33 
Q 55.609375 28.21875 55.609375 21.1875 
Q 55.609375 10.40625 48.1875 4.484375 
Q 40.765625 -1.421875 27.09375 -1.421875 
Q 22.515625 -1.421875 17.65625 -0.515625 
Q 12.796875 0.390625 7.625 2.203125 
L 7.625 11.71875 
Q 11.71875 9.328125 16.59375 8.109375 
Q 21.484375 6.890625 26.8125 6.890625 
Q 36.078125 6.890625 40.9375 10.546875 
Q 45.796875 14.203125 45.796875 21.1875 
Q 45.796875 27.640625 41.28125 31.265625 
Q 36.765625 34.90625 28.71875 34.90625 
L 20.21875 34.90625 
L 20.21875 43.015625 
L 29.109375 43.015625 
Q 36.375 43.015625 40.234375 45.921875 
Q 44.09375 48.828125 44.09375 54.296875 
Q 44.09375 59.90625 40.109375 62.90625 
Q 36.140625 65.921875 28.71875 65.921875 
Q 24.65625 65.921875 20.015625 65.03125 
Q 15.375 64.15625 9.8125 62.3125 
L 9.8125 71.09375 
Q 15.4375 72.65625 20.34375 73.4375 
Q 25.25 74.21875 29.59375 74.21875 
Q 40.828125 74.21875 47.359375 69.109375 
Q 53.90625 64.015625 53.90625 55.328125 
Q 53.90625 49.265625 50.4375 45.09375 
Q 46.96875 40.921875 40.578125 39.3125 
z
" id="DejaVuSans-51"/>
      </defs>
      <g style="fill:#262626;" transform="translate(238.250625 303.028562)scale(0.1 -0.1)">
       <use xlink:href="#DejaVuSans-51"/>
       <use x="63.623047" xlink:href="#DejaVuSans-48"/>
      </g>
     </g>
    </g>
    <g id="xtick_5">
     <g id="line2d_5">
      <path clip-path="url(#pbeecdebe33)" d="M 298.722216 288.430125 
L 298.722216 22.318125 
" style="fill:none;stroke:#cccccc;stroke-linecap:round;stroke-width:0.8;"/>
     </g>
     <g id="text_5">
      <!-- 40 -->
      <defs>
       <path d="M 37.796875 64.3125 
L 12.890625 25.390625 
L 37.796875 25.390625 
z
M 35.203125 72.90625 
L 47.609375 72.90625 
L 47.609375 25.390625 
L 58.015625 25.390625 
L 58.015625 17.1875 
L 47.609375 17.1875 
L 47.609375 0 
L 37.796875 0 
L 37.796875 17.1875 
L 4.890625 17.1875 
L 4.890625 26.703125 
z
" id="DejaVuSans-52"/>
      </defs>
      <g style="fill:#262626;" transform="translate(292.359716 303.028562)scale(0.1 -0.1)">
       <use xlink:href="#DejaVuSans-52"/>
       <use x="63.623047" xlink:href="#DejaVuSans-48"/>
      </g>
     </g>
    </g>
    <g id="xtick_6">
     <g id="line2d_6">
      <path clip-path="url(#pbeecdebe33)" d="M 352.831307 288.430125 
L 352.831307 22.318125 
" style="fill:none;stroke:#cccccc;stroke-linecap:round;stroke-width:0.8;"/>
     </g>
     <g id="text_6">
      <!-- 50 -->
      <defs>
       <path d="M 10.796875 72.90625 
L 49.515625 72.90625 
L 49.515625 64.59375 
L 19.828125 64.59375 
L 19.828125 46.734375 
Q 21.96875 47.46875 24.109375 47.828125 
Q 26.265625 48.1875 28.421875 48.1875 
Q 40.625 48.1875 47.75 41.5 
Q 54.890625 34.8125 54.890625 23.390625 
Q 54.890625 11.625 47.5625 5.09375 
Q 40.234375 -1.421875 26.90625 -1.421875 
Q 22.3125 -1.421875 17.546875 -0.640625 
Q 12.796875 0.140625 7.71875 1.703125 
L 7.71875 11.625 
Q 12.109375 9.234375 16.796875 8.0625 
Q 21.484375 6.890625 26.703125 6.890625 
Q 35.15625 6.890625 40.078125 11.328125 
Q 45.015625 15.765625 45.015625 23.390625 
Q 45.015625 31 40.078125 35.4375 
Q 35.15625 39.890625 26.703125 39.890625 
Q 22.75 39.890625 18.8125 39.015625 
Q 14.890625 38.140625 10.796875 36.28125 
z
" id="DejaVuSans-53"/>
      </defs>
      <g style="fill:#262626;" transform="translate(346.468807 303.028562)scale(0.1 -0.1)">
       <use xlink:href="#DejaVuSans-53"/>
       <use x="63.623047" xlink:href="#DejaVuSans-48"/>
      </g>
     </g>
    </g>
    <g id="xtick_7">
     <g id="line2d_7">
      <path clip-path="url(#pbeecdebe33)" d="M 406.940398 288.430125 
L 406.940398 22.318125 
" style="fill:none;stroke:#cccccc;stroke-linecap:round;stroke-width:0.8;"/>
     </g>
     <g id="text_7">
      <!-- 60 -->
      <defs>
       <path d="M 33.015625 40.375 
Q 26.375 40.375 22.484375 35.828125 
Q 18.609375 31.296875 18.609375 23.390625 
Q 18.609375 15.53125 22.484375 10.953125 
Q 26.375 6.390625 33.015625 6.390625 
Q 39.65625 6.390625 43.53125 10.953125 
Q 47.40625 15.53125 47.40625 23.390625 
Q 47.40625 31.296875 43.53125 35.828125 
Q 39.65625 40.375 33.015625 40.375 
z
M 52.59375 71.296875 
L 52.59375 62.3125 
Q 48.875 64.0625 45.09375 64.984375 
Q 41.3125 65.921875 37.59375 65.921875 
Q 27.828125 65.921875 22.671875 59.328125 
Q 17.53125 52.734375 16.796875 39.40625 
Q 19.671875 43.65625 24.015625 45.921875 
Q 28.375 48.1875 33.59375 48.1875 
Q 44.578125 48.1875 50.953125 41.515625 
Q 57.328125 34.859375 57.328125 23.390625 
Q 57.328125 12.15625 50.6875 5.359375 
Q 44.046875 -1.421875 33.015625 -1.421875 
Q 20.359375 -1.421875 13.671875 8.265625 
Q 6.984375 17.96875 6.984375 36.375 
Q 6.984375 53.65625 15.1875 63.9375 
Q 23.390625 74.21875 37.203125 74.21875 
Q 40.921875 74.21875 44.703125 73.484375 
Q 48.484375 72.75 52.59375 71.296875 
z
" id="DejaVuSans-54"/>
      </defs>
      <g style="fill:#262626;" transform="translate(400.577898 303.028562)scale(0.1 -0.1)">
       <use xlink:href="#DejaVuSans-54"/>
       <use x="63.623047" xlink:href="#DejaVuSans-48"/>
      </g>
     </g>
    </g>
    <g id="text_8">
     <!-- time (days) -->
     <defs>
      <path d="M 18.3125 70.21875 
L 18.3125 54.6875 
L 36.8125 54.6875 
L 36.8125 47.703125 
L 18.3125 47.703125 
L 18.3125 18.015625 
Q 18.3125 11.328125 20.140625 9.421875 
Q 21.96875 7.515625 27.59375 7.515625 
L 36.8125 7.515625 
L 36.8125 0 
L 27.59375 0 
Q 17.1875 0 13.234375 3.875 
Q 9.28125 7.765625 9.28125 18.015625 
L 9.28125 47.703125 
L 2.6875 47.703125 
L 2.6875 54.6875 
L 9.28125 54.6875 
L 9.28125 70.21875 
z
" id="DejaVuSans-116"/>
      <path d="M 9.421875 54.6875 
L 18.40625 54.6875 
L 18.40625 0 
L 9.421875 0 
z
M 9.421875 75.984375 
L 18.40625 75.984375 
L 18.40625 64.59375 
L 9.421875 64.59375 
z
" id="DejaVuSans-105"/>
      <path d="M 52 44.1875 
Q 55.375 50.25 60.0625 53.125 
Q 64.75 56 71.09375 56 
Q 79.640625 56 84.28125 50.015625 
Q 88.921875 44.046875 88.921875 33.015625 
L 88.921875 0 
L 79.890625 0 
L 79.890625 32.71875 
Q 79.890625 40.578125 77.09375 44.375 
Q 74.3125 48.1875 68.609375 48.1875 
Q 61.625 48.1875 57.5625 43.546875 
Q 53.515625 38.921875 53.515625 30.90625 
L 53.515625 0 
L 44.484375 0 
L 44.484375 32.71875 
Q 44.484375 40.625 41.703125 44.40625 
Q 38.921875 48.1875 33.109375 48.1875 
Q 26.21875 48.1875 22.15625 43.53125 
Q 18.109375 38.875 18.109375 30.90625 
L 18.109375 0 
L 9.078125 0 
L 9.078125 54.6875 
L 18.109375 54.6875 
L 18.109375 46.1875 
Q 21.1875 51.21875 25.484375 53.609375 
Q 29.78125 56 35.6875 56 
Q 41.65625 56 45.828125 52.96875 
Q 50 49.953125 52 44.1875 
z
" id="DejaVuSans-109"/>
      <path d="M 56.203125 29.59375 
L 56.203125 25.203125 
L 14.890625 25.203125 
Q 15.484375 15.921875 20.484375 11.0625 
Q 25.484375 6.203125 34.421875 6.203125 
Q 39.59375 6.203125 44.453125 7.46875 
Q 49.3125 8.734375 54.109375 11.28125 
L 54.109375 2.78125 
Q 49.265625 0.734375 44.1875 -0.34375 
Q 39.109375 -1.421875 33.890625 -1.421875 
Q 20.796875 -1.421875 13.15625 6.1875 
Q 5.515625 13.8125 5.515625 26.8125 
Q 5.515625 40.234375 12.765625 48.109375 
Q 20.015625 56 32.328125 56 
Q 43.359375 56 49.78125 48.890625 
Q 56.203125 41.796875 56.203125 29.59375 
z
M 47.21875 32.234375 
Q 47.125 39.59375 43.09375 43.984375 
Q 39.0625 48.390625 32.421875 48.390625 
Q 24.90625 48.390625 20.390625 44.140625 
Q 15.875 39.890625 15.1875 32.171875 
z
" id="DejaVuSans-101"/>
      <path id="DejaVuSans-32"/>
      <path d="M 31 75.875 
Q 24.46875 64.65625 21.28125 53.65625 
Q 18.109375 42.671875 18.109375 31.390625 
Q 18.109375 20.125 21.3125 9.0625 
Q 24.515625 -2 31 -13.1875 
L 23.1875 -13.1875 
Q 15.875 -1.703125 12.234375 9.375 
Q 8.59375 20.453125 8.59375 31.390625 
Q 8.59375 42.28125 12.203125 53.3125 
Q 15.828125 64.359375 23.1875 75.875 
z
" id="DejaVuSans-40"/>
      <path d="M 45.40625 46.390625 
L 45.40625 75.984375 
L 54.390625 75.984375 
L 54.390625 0 
L 45.40625 0 
L 45.40625 8.203125 
Q 42.578125 3.328125 38.25 0.953125 
Q 33.9375 -1.421875 27.875 -1.421875 
Q 17.96875 -1.421875 11.734375 6.484375 
Q 5.515625 14.40625 5.515625 27.296875 
Q 5.515625 40.1875 11.734375 48.09375 
Q 17.96875 56 27.875 56 
Q 33.9375 56 38.25 53.625 
Q 42.578125 51.265625 45.40625 46.390625 
z
M 14.796875 27.296875 
Q 14.796875 17.390625 18.875 11.75 
Q 22.953125 6.109375 30.078125 6.109375 
Q 37.203125 6.109375 41.296875 11.75 
Q 45.40625 17.390625 45.40625 27.296875 
Q 45.40625 37.203125 41.296875 42.84375 
Q 37.203125 48.484375 30.078125 48.484375 
Q 22.953125 48.484375 18.875 42.84375 
Q 14.796875 37.203125 14.796875 27.296875 
z
" id="DejaVuSans-100"/>
      <path d="M 34.28125 27.484375 
Q 23.390625 27.484375 19.1875 25 
Q 14.984375 22.515625 14.984375 16.5 
Q 14.984375 11.71875 18.140625 8.90625 
Q 21.296875 6.109375 26.703125 6.109375 
Q 34.1875 6.109375 38.703125 11.40625 
Q 43.21875 16.703125 43.21875 25.484375 
L 43.21875 27.484375 
z
M 52.203125 31.203125 
L 52.203125 0 
L 43.21875 0 
L 43.21875 8.296875 
Q 40.140625 3.328125 35.546875 0.953125 
Q 30.953125 -1.421875 24.3125 -1.421875 
Q 15.921875 -1.421875 10.953125 3.296875 
Q 6 8.015625 6 15.921875 
Q 6 25.140625 12.171875 29.828125 
Q 18.359375 34.515625 30.609375 34.515625 
L 43.21875 34.515625 
L 43.21875 35.40625 
Q 43.21875 41.609375 39.140625 45 
Q 35.0625 48.390625 27.6875 48.390625 
Q 23 48.390625 18.546875 47.265625 
Q 14.109375 46.140625 10.015625 43.890625 
L 10.015625 52.203125 
Q 14.9375 54.109375 19.578125 55.046875 
Q 24.21875 56 28.609375 56 
Q 40.484375 56 46.34375 49.84375 
Q 52.203125 43.703125 52.203125 31.203125 
z
" id="DejaVuSans-97"/>
      <path d="M 32.171875 -5.078125 
Q 28.375 -14.84375 24.75 -17.8125 
Q 21.140625 -20.796875 15.09375 -20.796875 
L 7.90625 -20.796875 
L 7.90625 -13.28125 
L 13.1875 -13.28125 
Q 16.890625 -13.28125 18.9375 -11.515625 
Q 21 -9.765625 23.484375 -3.21875 
L 25.09375 0.875 
L 2.984375 54.6875 
L 12.5 54.6875 
L 29.59375 11.921875 
L 46.6875 54.6875 
L 56.203125 54.6875 
z
" id="DejaVuSans-121"/>
      <path d="M 44.28125 53.078125 
L 44.28125 44.578125 
Q 40.484375 46.53125 36.375 47.5 
Q 32.28125 48.484375 27.875 48.484375 
Q 21.1875 48.484375 17.84375 46.4375 
Q 14.5 44.390625 14.5 40.28125 
Q 14.5 37.15625 16.890625 35.375 
Q 19.28125 33.59375 26.515625 31.984375 
L 29.59375 31.296875 
Q 39.15625 29.25 43.1875 25.515625 
Q 47.21875 21.78125 47.21875 15.09375 
Q 47.21875 7.46875 41.1875 3.015625 
Q 35.15625 -1.421875 24.609375 -1.421875 
Q 20.21875 -1.421875 15.453125 -0.5625 
Q 10.6875 0.296875 5.421875 2 
L 5.421875 11.28125 
Q 10.40625 8.6875 15.234375 7.390625 
Q 20.0625 6.109375 24.8125 6.109375 
Q 31.15625 6.109375 34.5625 8.28125 
Q 37.984375 10.453125 37.984375 14.40625 
Q 37.984375 18.0625 35.515625 20.015625 
Q 33.0625 21.96875 24.703125 23.78125 
L 21.578125 24.515625 
Q 13.234375 26.265625 9.515625 29.90625 
Q 5.8125 33.546875 5.8125 39.890625 
Q 5.8125 47.609375 11.28125 51.796875 
Q 16.75 56 26.8125 56 
Q 31.78125 56 36.171875 55.265625 
Q 40.578125 54.546875 44.28125 53.078125 
z
" id="DejaVuSans-115"/>
      <path d="M 8.015625 75.875 
L 15.828125 75.875 
Q 23.140625 64.359375 26.78125 53.3125 
Q 30.421875 42.28125 30.421875 31.390625 
Q 30.421875 20.453125 26.78125 9.375 
Q 23.140625 -1.703125 15.828125 -13.1875 
L 8.015625 -13.1875 
Q 14.5 -2 17.703125 9.0625 
Q 20.90625 20.125 20.90625 31.390625 
Q 20.90625 42.671875 17.703125 53.65625 
Q 14.5 64.65625 8.015625 75.875 
z
" id="DejaVuSans-41"/>
     </defs>
     <g style="fill:#262626;" transform="translate(216.024063 316.706687)scale(0.1 -0.1)">
      <use xlink:href="#DejaVuSans-116"/>
      <use x="39.208984" xlink:href="#DejaVuSans-105"/>
      <use x="66.992188" xlink:href="#DejaVuSans-109"/>
      <use x="164.404297" xlink:href="#DejaVuSans-101"/>
      <use x="225.927734" xlink:href="#DejaVuSans-32"/>
      <use x="257.714844" xlink:href="#DejaVuSans-40"/>
      <use x="296.728516" xlink:href="#DejaVuSans-100"/>
      <use x="360.205078" xlink:href="#DejaVuSans-97"/>
      <use x="421.484375" xlink:href="#DejaVuSans-121"/>
      <use x="480.664062" xlink:href="#DejaVuSans-115"/>
      <use x="532.763672" xlink:href="#DejaVuSans-41"/>
     </g>
    </g>
   </g>
   <g id="matplotlib.axis_2">
    <g id="ytick_1">
     <g id="line2d_8">
      <path clip-path="url(#pbeecdebe33)" d="M 66.053125 276.334125 
L 423.173125 276.334125 
" style="fill:none;stroke:#cccccc;stroke-linecap:round;stroke-width:0.8;"/>
     </g>
     <g id="text_9">
      <!-- 0 -->
      <g style="fill:#262626;" transform="translate(52.690625 280.133344)scale(0.1 -0.1)">
       <use xlink:href="#DejaVuSans-48"/>
      </g>
     </g>
    </g>
    <g id="ytick_2">
     <g id="line2d_9">
      <path clip-path="url(#pbeecdebe33)" d="M 66.053125 233.640728 
L 423.173125 233.640728 
" style="fill:none;stroke:#cccccc;stroke-linecap:round;stroke-width:0.8;"/>
     </g>
     <g id="text_10">
      <!-- 20000 -->
      <g style="fill:#262626;" transform="translate(27.240625 237.439947)scale(0.1 -0.1)">
       <use xlink:href="#DejaVuSans-50"/>
       <use x="63.623047" xlink:href="#DejaVuSans-48"/>
       <use x="127.246094" xlink:href="#DejaVuSans-48"/>
       <use x="190.869141" xlink:href="#DejaVuSans-48"/>
       <use x="254.492188" xlink:href="#DejaVuSans-48"/>
      </g>
     </g>
    </g>
    <g id="ytick_3">
     <g id="line2d_10">
      <path clip-path="url(#pbeecdebe33)" d="M 66.053125 190.947331 
L 423.173125 190.947331 
" style="fill:none;stroke:#cccccc;stroke-linecap:round;stroke-width:0.8;"/>
     </g>
     <g id="text_11">
      <!-- 40000 -->
      <g style="fill:#262626;" transform="translate(27.240625 194.74655)scale(0.1 -0.1)">
       <use xlink:href="#DejaVuSans-52"/>
       <use x="63.623047" xlink:href="#DejaVuSans-48"/>
       <use x="127.246094" xlink:href="#DejaVuSans-48"/>
       <use x="190.869141" xlink:href="#DejaVuSans-48"/>
       <use x="254.492188" xlink:href="#DejaVuSans-48"/>
      </g>
     </g>
    </g>
    <g id="ytick_4">
     <g id="line2d_11">
      <path clip-path="url(#pbeecdebe33)" d="M 66.053125 148.253934 
L 423.173125 148.253934 
" style="fill:none;stroke:#cccccc;stroke-linecap:round;stroke-width:0.8;"/>
     </g>
     <g id="text_12">
      <!-- 60000 -->
      <g style="fill:#262626;" transform="translate(27.240625 152.053152)scale(0.1 -0.1)">
       <use xlink:href="#DejaVuSans-54"/>
       <use x="63.623047" xlink:href="#DejaVuSans-48"/>
       <use x="127.246094" xlink:href="#DejaVuSans-48"/>
       <use x="190.869141" xlink:href="#DejaVuSans-48"/>
       <use x="254.492188" xlink:href="#DejaVuSans-48"/>
      </g>
     </g>
    </g>
    <g id="ytick_5">
     <g id="line2d_12">
      <path clip-path="url(#pbeecdebe33)" d="M 66.053125 105.560537 
L 423.173125 105.560537 
" style="fill:none;stroke:#cccccc;stroke-linecap:round;stroke-width:0.8;"/>
     </g>
     <g id="text_13">
      <!-- 80000 -->
      <defs>
       <path d="M 31.78125 34.625 
Q 24.75 34.625 20.71875 30.859375 
Q 16.703125 27.09375 16.703125 20.515625 
Q 16.703125 13.921875 20.71875 10.15625 
Q 24.75 6.390625 31.78125 6.390625 
Q 38.8125 6.390625 42.859375 10.171875 
Q 46.921875 13.96875 46.921875 20.515625 
Q 46.921875 27.09375 42.890625 30.859375 
Q 38.875 34.625 31.78125 34.625 
z
M 21.921875 38.8125 
Q 15.578125 40.375 12.03125 44.71875 
Q 8.5 49.078125 8.5 55.328125 
Q 8.5 64.0625 14.71875 69.140625 
Q 20.953125 74.21875 31.78125 74.21875 
Q 42.671875 74.21875 48.875 69.140625 
Q 55.078125 64.0625 55.078125 55.328125 
Q 55.078125 49.078125 51.53125 44.71875 
Q 48 40.375 41.703125 38.8125 
Q 48.828125 37.15625 52.796875 32.3125 
Q 56.78125 27.484375 56.78125 20.515625 
Q 56.78125 9.90625 50.3125 4.234375 
Q 43.84375 -1.421875 31.78125 -1.421875 
Q 19.734375 -1.421875 13.25 4.234375 
Q 6.78125 9.90625 6.78125 20.515625 
Q 6.78125 27.484375 10.78125 32.3125 
Q 14.796875 37.15625 21.921875 38.8125 
z
M 18.3125 54.390625 
Q 18.3125 48.734375 21.84375 45.5625 
Q 25.390625 42.390625 31.78125 42.390625 
Q 38.140625 42.390625 41.71875 45.5625 
Q 45.3125 48.734375 45.3125 54.390625 
Q 45.3125 60.0625 41.71875 63.234375 
Q 38.140625 66.40625 31.78125 66.40625 
Q 25.390625 66.40625 21.84375 63.234375 
Q 18.3125 60.0625 18.3125 54.390625 
z
" id="DejaVuSans-56"/>
      </defs>
      <g style="fill:#262626;" transform="translate(27.240625 109.359755)scale(0.1 -0.1)">
       <use xlink:href="#DejaVuSans-56"/>
       <use x="63.623047" xlink:href="#DejaVuSans-48"/>
       <use x="127.246094" xlink:href="#DejaVuSans-48"/>
       <use x="190.869141" xlink:href="#DejaVuSans-48"/>
       <use x="254.492188" xlink:href="#DejaVuSans-48"/>
      </g>
     </g>
    </g>
    <g id="ytick_6">
     <g id="line2d_13">
      <path clip-path="url(#pbeecdebe33)" d="M 66.053125 62.867139 
L 423.173125 62.867139 
" style="fill:none;stroke:#cccccc;stroke-linecap:round;stroke-width:0.8;"/>
     </g>
     <g id="text_14">
      <!-- 100000 -->
      <g style="fill:#262626;" transform="translate(20.878125 66.666358)scale(0.1 -0.1)">
       <use xlink:href="#DejaVuSans-49"/>
       <use x="63.623047" xlink:href="#DejaVuSans-48"/>
       <use x="127.246094" xlink:href="#DejaVuSans-48"/>
       <use x="190.869141" xlink:href="#DejaVuSans-48"/>
       <use x="254.492188" xlink:href="#DejaVuSans-48"/>
       <use x="318.115234" xlink:href="#DejaVuSans-48"/>
      </g>
     </g>
    </g>
    <g id="text_15">
     <!-- cells number -->
     <defs>
      <path d="M 48.78125 52.59375 
L 48.78125 44.1875 
Q 44.96875 46.296875 41.140625 47.34375 
Q 37.3125 48.390625 33.40625 48.390625 
Q 24.65625 48.390625 19.8125 42.84375 
Q 14.984375 37.3125 14.984375 27.296875 
Q 14.984375 17.28125 19.8125 11.734375 
Q 24.65625 6.203125 33.40625 6.203125 
Q 37.3125 6.203125 41.140625 7.25 
Q 44.96875 8.296875 48.78125 10.40625 
L 48.78125 2.09375 
Q 45.015625 0.34375 40.984375 -0.53125 
Q 36.96875 -1.421875 32.421875 -1.421875 
Q 20.0625 -1.421875 12.78125 6.34375 
Q 5.515625 14.109375 5.515625 27.296875 
Q 5.515625 40.671875 12.859375 48.328125 
Q 20.21875 56 33.015625 56 
Q 37.15625 56 41.109375 55.140625 
Q 45.0625 54.296875 48.78125 52.59375 
z
" id="DejaVuSans-99"/>
      <path d="M 9.421875 75.984375 
L 18.40625 75.984375 
L 18.40625 0 
L 9.421875 0 
z
" id="DejaVuSans-108"/>
      <path d="M 54.890625 33.015625 
L 54.890625 0 
L 45.90625 0 
L 45.90625 32.71875 
Q 45.90625 40.484375 42.875 44.328125 
Q 39.84375 48.1875 33.796875 48.1875 
Q 26.515625 48.1875 22.3125 43.546875 
Q 18.109375 38.921875 18.109375 30.90625 
L 18.109375 0 
L 9.078125 0 
L 9.078125 54.6875 
L 18.109375 54.6875 
L 18.109375 46.1875 
Q 21.34375 51.125 25.703125 53.5625 
Q 30.078125 56 35.796875 56 
Q 45.21875 56 50.046875 50.171875 
Q 54.890625 44.34375 54.890625 33.015625 
z
" id="DejaVuSans-110"/>
      <path d="M 8.5 21.578125 
L 8.5 54.6875 
L 17.484375 54.6875 
L 17.484375 21.921875 
Q 17.484375 14.15625 20.5 10.265625 
Q 23.53125 6.390625 29.59375 6.390625 
Q 36.859375 6.390625 41.078125 11.03125 
Q 45.3125 15.671875 45.3125 23.6875 
L 45.3125 54.6875 
L 54.296875 54.6875 
L 54.296875 0 
L 45.3125 0 
L 45.3125 8.40625 
Q 42.046875 3.421875 37.71875 1 
Q 33.40625 -1.421875 27.6875 -1.421875 
Q 18.265625 -1.421875 13.375 4.4375 
Q 8.5 10.296875 8.5 21.578125 
z
M 31.109375 56 
z
" id="DejaVuSans-117"/>
      <path d="M 48.6875 27.296875 
Q 48.6875 37.203125 44.609375 42.84375 
Q 40.53125 48.484375 33.40625 48.484375 
Q 26.265625 48.484375 22.1875 42.84375 
Q 18.109375 37.203125 18.109375 27.296875 
Q 18.109375 17.390625 22.1875 11.75 
Q 26.265625 6.109375 33.40625 6.109375 
Q 40.53125 6.109375 44.609375 11.75 
Q 48.6875 17.390625 48.6875 27.296875 
z
M 18.109375 46.390625 
Q 20.953125 51.265625 25.265625 53.625 
Q 29.59375 56 35.59375 56 
Q 45.5625 56 51.78125 48.09375 
Q 58.015625 40.1875 58.015625 27.296875 
Q 58.015625 14.40625 51.78125 6.484375 
Q 45.5625 -1.421875 35.59375 -1.421875 
Q 29.59375 -1.421875 25.265625 0.953125 
Q 20.953125 3.328125 18.109375 8.203125 
L 18.109375 0 
L 9.078125 0 
L 9.078125 75.984375 
L 18.109375 75.984375 
z
" id="DejaVuSans-98"/>
      <path d="M 41.109375 46.296875 
Q 39.59375 47.171875 37.8125 47.578125 
Q 36.03125 48 33.890625 48 
Q 26.265625 48 22.1875 43.046875 
Q 18.109375 38.09375 18.109375 28.8125 
L 18.109375 0 
L 9.078125 0 
L 9.078125 54.6875 
L 18.109375 54.6875 
L 18.109375 46.1875 
Q 20.953125 51.171875 25.484375 53.578125 
Q 30.03125 56 36.53125 56 
Q 37.453125 56 38.578125 55.875 
Q 39.703125 55.765625 41.0625 55.515625 
z
" id="DejaVuSans-114"/>
     </defs>
     <g style="fill:#262626;" transform="translate(14.798438 187.685844)rotate(-90)scale(0.1 -0.1)">
      <use xlink:href="#DejaVuSans-99"/>
      <use x="54.980469" xlink:href="#DejaVuSans-101"/>
      <use x="116.503906" xlink:href="#DejaVuSans-108"/>
      <use x="144.287109" xlink:href="#DejaVuSans-108"/>
      <use x="172.070312" xlink:href="#DejaVuSans-115"/>
      <use x="224.169922" xlink:href="#DejaVuSans-32"/>
      <use x="255.957031" xlink:href="#DejaVuSans-110"/>
      <use x="319.335938" xlink:href="#DejaVuSans-117"/>
      <use x="382.714844" xlink:href="#DejaVuSans-109"/>
      <use x="480.126953" xlink:href="#DejaVuSans-98"/>
      <use x="543.603516" xlink:href="#DejaVuSans-101"/>
      <use x="605.126953" xlink:href="#DejaVuSans-114"/>
     </g>
    </g>
   </g>
   <g id="line2d_14">
    <path clip-path="url(#pbeecdebe33)" d="M 82.285852 276.334125 
L 82.826943 198.29273 
L 83.368034 141.493434 
L 83.909125 101.327486 
L 84.450216 73.051649 
L 84.991307 54.795953 
L 85.532398 43.20683 
L 86.073489 36.638451 
L 86.61458 34.414125 
L 87.15567 35.293609 
L 88.237852 43.085154 
L 89.861125 61.79767 
L 94.730943 125.534642 
L 97.436398 155.385866 
L 100.141852 179.546059 
L 101.765125 191.681657 
L 103.929489 205.290178 
L 106.093852 216.851549 
L 108.258216 226.592048 
L 109.340398 230.519841 
L 113.128034 242.802731 
L 114.210216 245.52657 
L 114.751307 246.378303 
L 115.833489 248.489491 
L 116.91567 249.889835 
L 117.456761 251.012671 
L 119.080034 253.542255 
L 120.162216 255.309762 
L 121.244398 256.274632 
L 125.032034 260.979445 
L 126.655307 262.10655 
L 127.737489 263.135461 
L 128.27858 263.402295 
L 128.81967 263.846306 
L 130.984034 264.928584 
L 131.525125 265.003297 
L 132.607307 265.596736 
L 134.23058 266.585088 
L 134.77167 266.775073 
L 136.936034 267.92993 
L 137.477125 267.938468 
L 138.559307 268.557523 
L 140.72367 269.411391 
L 141.805852 269.853267 
L 143.429125 270.211892 
L 144.511307 270.5449 
L 145.052398 270.553439 
L 146.13458 270.798926 
L 147.757852 271.144743 
L 148.298943 271.368883 
L 148.840034 271.447866 
L 149.922216 271.789413 
L 151.004398 271.977264 
L 151.545489 271.921762 
L 153.168761 272.269714 
L 154.250943 272.361504 
L 155.874216 272.677436 
L 156.956398 272.754284 
L 158.03858 272.852478 
L 159.120761 272.954943 
L 160.744034 273.16414 
L 171.565852 273.708481 
L 173.730216 273.828023 
L 175.89458 274.030816 
L 176.976761 273.994527 
L 182.38767 274.188782 
L 185.634216 274.276303 
L 186.175307 274.222937 
L 186.716398 274.312593 
L 187.79858 274.23361 
L 195.373852 274.272034 
L 196.997125 274.214398 
L 200.784761 274.32967 
L 201.866943 274.323266 
L 204.031307 274.442808 
L 208.901125 274.331805 
L 209.983307 274.344613 
L 211.065489 274.272034 
L 211.60658 274.351017 
L 212.688761 274.374498 
L 217.017489 274.395845 
L 218.09967 274.532464 
L 225.133852 274.344613 
L 226.757125 274.455616 
L 227.839307 274.370229 
L 230.544761 274.269899 
L 231.085852 274.355286 
L 233.250216 274.327535 
L 234.873489 274.29765 
L 236.496761 274.368094 
L 237.037852 274.449212 
L 238.120034 274.429999 
L 240.825489 274.500444 
L 243.530943 274.278438 
L 245.695307 274.406518 
L 247.31858 274.355286 
L 248.400761 274.310458 
L 249.482943 274.359555 
L 251.106216 274.327535 
L 251.647307 274.254957 
L 253.27058 274.39371 
L 257.058216 274.282707 
L 258.681489 274.312593 
L 261.386943 274.278438 
L 263.010216 274.400114 
L 270.585489 274.355286 
L 273.290943 274.370229 
L 273.832034 274.26563 
L 275.455307 274.312593 
L 280.866216 274.387306 
L 281.407307 274.323266 
L 281.948398 274.378767 
L 283.03058 274.282707 
L 284.653852 274.269899 
L 288.441489 274.227206 
L 290.064761 274.286977 
L 301.42767 274.308323 
L 303.050943 274.357421 
L 304.133125 274.415057 
L 304.674216 274.444942 
L 305.756398 274.353151 
L 307.37967 274.325401 
L 311.708398 274.42573 
L 312.79058 274.280573 
L 313.872761 274.391575 
L 315.496034 274.301919 
L 317.119307 274.323266 
L 319.28367 274.272034 
L 320.365852 274.45775 
L 321.989125 274.402249 
L 323.071307 274.485501 
L 324.153489 274.479097 
L 326.317852 274.346747 
L 327.400034 274.316862 
L 328.482216 274.359555 
L 332.269852 274.406518 
L 334.434216 274.383037 
L 335.516398 274.417191 
L 336.59858 274.308323 
L 337.680761 274.370229 
L 342.009489 274.506848 
L 343.09167 274.455616 
L 348.50258 274.464154 
L 349.584761 274.421461 
L 350.666943 274.42573 
L 355.536761 274.289111 
L 357.160034 274.365959 
L 360.40658 274.415057 
L 362.029852 274.39371 
L 363.112034 274.229341 
L 366.89967 274.378767 
L 368.522943 274.442808 
L 370.146216 274.429999 
L 370.687307 274.508982 
L 373.392761 274.342478 
L 376.098216 274.395845 
L 378.26258 274.417191 
L 378.80367 274.45775 
L 379.885852 274.368094 
L 383.132398 274.412922 
L 385.296761 274.432134 
L 388.002216 274.321131 
L 389.084398 274.372363 
L 390.16658 274.23361 
L 390.70767 274.257091 
L 391.248761 274.148223 
L 395.577489 274.291246 
L 396.65967 274.205859 
L 398.282943 274.222937 
L 400.447307 274.274169 
L 400.988398 274.333939 
L 401.529489 274.276303 
L 402.61167 274.340343 
L 403.693852 274.383037 
L 404.776034 274.436403 
L 405.858216 274.410787 
L 406.940398 274.419326 
L 406.940398 274.419326 
" style="fill:none;stroke:#000080;stroke-linecap:round;stroke-width:1.5;"/>
   </g>
   <g id="line2d_15">
    <path clip-path="url(#pbeecdebe33)" d="M 82.285852 276.334125 
L 82.826943 198.482715 
L 83.368034 141.826443 
L 83.909125 102.164277 
L 84.450216 74.582208 
L 84.991307 56.185623 
L 85.532398 43.98385 
L 86.073489 37.893637 
L 86.61458 35.502807 
L 87.15567 36.015127 
L 87.696761 38.254396 
L 88.778943 47.755812 
L 89.861125 61.135922 
L 92.025489 91.147246 
L 94.730943 125.938095 
L 96.354216 143.544852 
L 97.436398 154.553344 
L 99.05967 169.318856 
L 100.682943 182.590098 
L 103.388398 201.987843 
L 106.093852 216.892108 
L 107.176034 221.656691 
L 110.42258 233.899023 
L 114.210216 244.839206 
L 116.37458 249.642213 
L 119.080034 254.142097 
L 121.244398 256.893687 
L 121.785489 257.534088 
L 122.32658 258.368744 
L 126.114216 262.221823 
L 126.655307 262.546292 
L 127.196398 263.165347 
L 128.27858 263.666994 
L 128.81967 264.091793 
L 129.901852 264.535805 
L 130.442943 264.864544 
L 131.525125 265.161263 
L 132.607307 265.773913 
L 133.689489 266.18377 
L 134.77167 266.781477 
L 135.312761 266.95652 
L 136.394943 267.590517 
L 138.018216 268.111377 
L 139.100398 268.843568 
L 139.641489 268.956706 
L 140.18258 269.236348 
L 140.72367 269.302522 
L 144.511307 270.604671 
L 145.593489 270.713539 
L 146.13458 270.954757 
L 147.216761 271.082837 
L 147.757852 271.371018 
L 149.381125 271.663467 
L 149.922216 271.631447 
L 152.62767 272.338023 
L 153.709852 272.45543 
L 154.250943 272.414871 
L 154.792034 272.649685 
L 155.874216 272.873825 
L 156.415307 273.008309 
L 156.956398 272.961347 
L 157.497489 273.123582 
L 160.744034 273.194026 
L 161.826216 273.234584 
L 163.449489 273.416031 
L 164.53167 273.603882 
L 166.154943 273.518495 
L 166.696034 273.612421 
L 167.237125 273.550516 
L 167.778216 273.638037 
L 168.319307 273.599613 
L 168.860398 273.740501 
L 169.401489 273.667922 
L 172.106943 273.836561 
L 185.093125 274.186647 
L 189.421852 274.240014 
L 192.127307 274.308323 
L 193.209489 274.269899 
L 200.24367 274.355286 
L 202.949125 274.368094 
L 204.031307 274.378767 
L 205.65458 274.252822 
L 207.818943 274.348882 
L 208.901125 274.301919 
L 209.442216 274.235745 
L 213.770943 274.547406 
L 214.312034 274.440673 
L 216.476398 274.406518 
L 217.55858 274.29765 
L 219.181852 274.419326 
L 222.428398 274.280573 
L 234.332398 274.387306 
L 235.95567 274.216533 
L 237.578943 274.216533 
L 240.825489 274.380902 
L 241.36658 274.310458 
L 241.90767 274.385171 
L 242.989852 274.385171 
L 247.85967 274.389441 
L 251.106216 274.468424 
L 257.058216 274.29765 
L 257.599307 274.304054 
L 258.140398 274.436403 
L 259.22258 274.434269 
L 260.304761 274.468424 
L 262.469125 274.438538 
L 263.551307 274.36169 
L 265.17458 274.389441 
L 266.797852 274.447077 
L 270.044398 274.404383 
L 271.66767 274.438538 
L 275.455307 274.476962 
L 276.537489 274.351017 
L 282.489489 274.263495 
L 285.194943 274.323266 
L 286.277125 274.344613 
L 290.064761 274.267765 
L 291.688034 274.447077 
L 292.770216 274.48977 
L 293.852398 274.555945 
L 303.050943 274.32967 
L 304.133125 274.355286 
L 305.215307 274.286977 
L 309.002943 274.308323 
L 310.085125 274.263495 
L 310.626216 274.314727 
L 311.167307 274.244283 
L 311.708398 274.316862 
L 312.79058 274.323266 
L 318.201489 274.318997 
L 319.28367 274.327535 
L 321.448034 274.519656 
L 326.317852 274.363825 
L 328.482216 274.410787 
L 330.105489 274.353151 
L 331.18767 274.331805 
L 333.893125 274.252822 
L 336.057489 274.340343 
L 337.13967 274.222937 
L 342.009489 274.459885 
L 343.632761 274.346747 
L 345.797125 274.45775 
L 349.584761 274.342478 
L 350.666943 274.391575 
L 351.749125 274.383037 
L 354.45458 274.261361 
L 355.536761 274.408653 
L 362.029852 274.442808 
L 372.85167 274.432134 
L 376.098216 274.340343 
L 378.26258 274.380902 
L 378.80367 274.504713 
L 379.885852 274.429999 
L 381.509125 274.455616 
L 382.591307 274.455616 
L 384.21458 274.453481 
L 384.75567 274.46202 
L 385.296761 274.323266 
L 388.002216 274.344613 
L 388.543307 274.391575 
L 389.625489 274.342478 
L 397.741852 274.500444 
L 399.906216 274.380902 
L 406.940398 274.468424 
L 406.940398 274.468424 
" style="fill:none;stroke:#0000f1;stroke-linecap:round;stroke-width:1.5;"/>
   </g>
   <g id="line2d_16">
    <path clip-path="url(#pbeecdebe33)" d="M 82.285852 276.334125 
L 82.826943 198.700452 
L 83.368034 142.417746 
L 83.909125 101.931598 
L 84.450216 73.566105 
L 84.991307 55.438488 
L 85.532398 43.285813 
L 86.073489 36.71103 
L 86.61458 34.725787 
L 87.15567 35.51348 
L 87.696761 38.68133 
L 88.778943 48.114436 
L 89.861125 61.08896 
L 94.189852 118.812567 
L 95.813125 137.670241 
L 97.436398 154.593903 
L 100.682943 182.888952 
L 101.765125 190.635669 
L 103.388398 201.770107 
L 105.01167 211.243772 
L 108.799307 228.459884 
L 109.340398 230.635113 
L 113.128034 242.064135 
L 114.751307 246.194721 
L 115.833489 248.263216 
L 116.91567 250.493946 
L 119.621125 254.671495 
L 120.703307 255.971509 
L 121.785489 257.376122 
L 122.86767 258.637712 
L 123.949852 259.653815 
L 125.032034 260.520491 
L 125.573125 260.823614 
L 126.114216 261.508843 
L 127.196398 262.277324 
L 127.737489 262.512138 
L 128.81967 263.590146 
L 129.901852 264.123813 
L 130.984034 264.960604 
L 132.066216 265.686392 
L 133.689489 266.318254 
L 134.23058 266.63632 
L 135.312761 266.997079 
L 138.559307 268.457193 
L 139.641489 268.817952 
L 140.18258 269.157365 
L 141.264761 269.539471 
L 141.805852 269.831921 
L 142.346943 269.96427 
L 142.888034 269.938654 
L 143.429125 270.079542 
L 145.052398 270.781849 
L 147.757852 271.403038 
L 148.840034 271.689083 
L 152.62767 272.26331 
L 153.168761 272.212078 
L 153.709852 272.399928 
L 158.57967 272.920788 
L 159.120761 273.06808 
L 160.744034 273.221776 
L 163.449489 273.443782 
L 163.99058 273.409627 
L 166.154943 273.731962 
L 175.353489 273.977449 
L 178.058943 274.178108 
L 184.010943 274.19732 
L 187.79858 274.312593 
L 188.880761 274.212263 
L 191.586216 274.336074 
L 193.209489 274.32967 
L 194.29167 274.406518 
L 195.373852 274.355286 
L 201.866943 274.278438 
L 203.490216 274.203724 
L 209.442216 274.485501 
L 210.524398 274.374498 
L 214.853125 274.365959 
L 215.935307 274.421461 
L 218.640761 274.333939 
L 223.51058 274.325401 
L 224.05167 274.464154 
L 245.695307 274.376633 
L 247.85967 274.419326 
L 250.024034 274.42573 
L 251.106216 274.372363 
L 254.352761 274.293381 
L 255.434943 274.291246 
L 257.058216 274.240014 
L 257.599307 274.205859 
L 258.140398 274.312593 
L 260.845852 274.186647 
L 262.469125 274.432134 
L 265.17458 274.342478 
L 269.503307 274.342478 
L 270.585489 274.423595 
L 274.373125 274.498309 
L 275.455307 274.318997 
L 279.242943 274.199455 
L 280.866216 274.29765 
L 288.98258 274.36169 
L 291.688034 274.306189 
L 293.311307 274.321131 
L 298.181125 274.442808 
L 300.88658 274.308323 
L 305.756398 274.447077 
L 310.085125 274.312593 
L 310.626216 274.423595 
L 317.119307 274.442808 
L 318.74258 274.429999 
L 320.906943 274.436403 
L 321.989125 274.427865 
L 324.69458 274.306189 
L 325.776761 274.338209 
L 326.317852 274.263495 
L 327.400034 274.312593 
L 328.482216 274.348882 
L 336.057489 274.387306 
L 339.304034 274.295515 
L 340.927307 274.293381 
L 350.666943 274.308323 
L 352.831307 274.436403 
L 354.45458 274.45775 
L 355.536761 274.555945 
L 356.618943 274.468424 
L 358.242216 274.410787 
L 359.324398 274.511117 
L 359.865489 274.419326 
L 361.488761 274.487636 
L 363.112034 274.383037 
L 364.194216 274.440673 
L 365.817489 274.397979 
L 367.440761 274.272034 
L 368.522943 274.148223 
L 369.605125 274.310458 
L 376.639307 274.391575 
L 377.180398 274.49404 
L 378.26258 274.46202 
L 385.837852 274.32967 
L 387.461125 274.397979 
L 388.543307 274.32967 
L 389.084398 274.442808 
L 390.16658 274.314727 
L 398.282943 274.395845 
L 399.365125 274.355286 
L 401.529489 274.472693 
L 404.234943 274.336074 
L 406.940398 274.316862 
L 406.940398 274.316862 
" style="fill:none;stroke:#004cff;stroke-linecap:round;stroke-width:1.5;"/>
   </g>
   <g id="line2d_17">
    <path clip-path="url(#pbeecdebe33)" d="M 82.285852 276.334125 
L 82.826943 198.576641 
L 83.368034 142.227761 
L 83.909125 101.355237 
L 84.450216 73.653626 
L 84.991307 55.278388 
L 85.532398 43.802403 
L 86.073489 37.761287 
L 86.61458 35.658638 
L 87.15567 35.985242 
L 87.696761 38.928952 
L 88.237852 43.230312 
L 88.778943 48.558447 
L 89.861125 62.139217 
L 93.648761 112.252727 
L 96.354216 143.371944 
L 100.141852 178.525687 
L 103.388398 201.108359 
L 105.552761 213.239688 
L 106.093852 215.84612 
L 106.634943 217.85271 
L 109.340398 229.84315 
L 110.96367 235.228922 
L 113.128034 241.611585 
L 115.292398 246.807372 
L 115.833489 247.755165 
L 116.91567 250.002972 
L 117.456761 250.630565 
L 120.162216 255.181681 
L 121.244398 256.526523 
L 123.949852 259.666623 
L 124.490943 259.974015 
L 125.573125 261.139545 
L 130.442943 265.026779 
L 132.066216 265.872108 
L 133.148398 266.644859 
L 133.689489 266.794285 
L 134.77167 267.332222 
L 136.394943 267.921391 
L 136.936034 268.499887 
L 138.559307 268.973783 
L 139.641489 269.656878 
L 141.805852 270.177737 
L 143.429125 270.813869 
L 144.511307 271.059356 
L 145.052398 271.074298 
L 146.13458 271.362479 
L 146.67567 271.362479 
L 148.298943 271.851318 
L 150.463307 272.135229 
L 151.545489 272.474642 
L 152.62767 272.617665 
L 153.709852 272.796977 
L 154.250943 272.801246 
L 154.792034 272.959212 
L 155.874216 272.963481 
L 156.956398 273.162006 
L 158.03858 273.03606 
L 159.120761 273.270874 
L 160.202943 273.315702 
L 161.826216 273.516361 
L 162.908398 273.631633 
L 164.53167 273.610286 
L 165.072761 273.695673 
L 165.613852 273.665788 
L 166.696034 273.870716 
L 167.778216 273.665788 
L 169.94258 273.734097 
L 172.648034 273.988123 
L 174.812398 274.107664 
L 175.89458 274.118338 
L 176.976761 274.184512 
L 178.058943 274.173839 
L 179.682216 274.182378 
L 182.928761 274.244283 
L 187.79858 274.190916 
L 188.880761 274.175974 
L 189.962943 274.269899 
L 191.045125 274.212263 
L 192.668398 274.257091 
L 193.209489 274.391575 
L 196.456034 274.289111 
L 198.079307 274.325401 
L 204.031307 274.449212 
L 204.572398 274.562349 
L 206.736761 274.404383 
L 207.818943 274.259226 
L 212.14767 274.432134 
L 214.312034 274.385171 
L 217.55858 274.410787 
L 221.887307 274.368094 
L 222.969489 274.440673 
L 225.133852 274.389441 
L 228.380398 274.29765 
L 231.085852 274.310458 
L 232.709125 274.321131 
L 233.250216 274.289111 
L 233.791307 274.417191 
L 239.202216 274.442808 
L 239.743307 274.491905 
L 240.825489 274.348882 
L 244.613125 274.383037 
L 252.729489 274.481232 
L 253.27058 274.528194 
L 254.893852 274.323266 
L 255.976034 274.353151 
L 257.058216 274.308323 
L 259.76367 274.417191 
L 260.845852 274.372363 
L 262.469125 274.427865 
L 264.633489 274.385171 
L 283.57167 274.276303 
L 284.653852 274.421461 
L 287.900398 274.26563 
L 288.441489 274.331805 
L 290.064761 274.274169 
L 295.47567 274.327535 
L 297.098943 274.417191 
L 298.181125 274.400114 
L 299.804398 274.383037 
L 300.345489 274.32967 
L 301.968761 274.444942 
L 303.050943 274.402249 
L 304.674216 274.42573 
L 307.37967 274.295515 
L 308.461852 274.353151 
L 313.872761 274.440673 
L 314.954943 274.351017 
L 316.578216 274.42573 
L 334.975307 274.438538 
L 336.59858 274.498309 
L 338.221852 274.336074 
L 338.762943 274.402249 
L 339.845125 274.325401 
L 342.009489 274.434269 
L 343.632761 274.333939 
L 344.714943 274.218667 
L 346.879307 274.331805 
L 350.666943 274.316862 
L 351.208034 274.383037 
L 352.290216 274.333939 
L 353.913489 274.385171 
L 355.536761 274.39371 
L 356.077852 274.496174 
L 357.160034 274.453481 
L 358.242216 274.408653 
L 358.783307 274.333939 
L 359.324398 274.451346 
L 367.440761 274.340343 
L 367.981852 274.406518 
L 369.064034 274.368094 
L 370.146216 274.453481 
L 373.392761 274.395845 
L 386.378943 274.276303 
L 387.461125 274.400114 
L 390.16658 274.406518 
L 391.248761 274.408653 
L 393.954216 274.282707 
L 398.282943 274.387306 
L 399.906216 274.286977 
L 400.988398 274.272034 
L 403.693852 274.304054 
L 405.858216 274.455616 
L 406.940398 274.427865 
L 406.940398 274.427865 
" style="fill:none;stroke:#00b0ff;stroke-linecap:round;stroke-width:1.5;"/>
   </g>
   <g id="line2d_18">
    <path clip-path="url(#pbeecdebe33)" d="M 82.285852 276.334125 
L 82.826943 198.783704 
L 83.368034 142.562904 
L 83.909125 102.138661 
L 84.450216 73.587452 
L 84.991307 55.404334 
L 85.532398 43.296486 
L 86.073489 37.150772 
L 86.61458 34.6404 
L 87.15567 35.699196 
L 87.696761 37.998236 
L 88.778943 47.691771 
L 89.861125 61.564991 
L 94.189852 118.936378 
L 97.977489 159.685091 
L 99.600761 173.833683 
L 101.765125 190.294122 
L 103.929489 204.321037 
L 105.01167 210.28317 
L 106.634943 218.672423 
L 109.340398 230.018193 
L 110.96367 235.510699 
L 112.045852 239.052116 
L 114.210216 244.529679 
L 115.833489 247.72101 
L 116.91567 250.150265 
L 119.080034 253.841109 
L 120.703307 255.977913 
L 121.244398 256.498773 
L 122.86767 258.81062 
L 123.408761 259.485176 
L 125.573125 261.410648 
L 126.655307 262.635949 
L 127.196398 262.778971 
L 127.737489 263.233656 
L 128.27858 263.419372 
L 128.81967 263.918885 
L 129.360761 264.260432 
L 129.901852 264.802638 
L 130.442943 264.949931 
L 132.607307 266.418584 
L 133.148398 266.935174 
L 133.689489 267.103813 
L 134.77167 267.652423 
L 135.312761 267.968354 
L 135.853852 267.983297 
L 137.477125 268.482809 
L 138.559307 269.025015 
L 139.641489 269.353755 
L 143.429125 270.747694 
L 145.052398 271.003854 
L 145.593489 271.268553 
L 146.13458 271.38596 
L 147.216761 271.426519 
L 147.757852 271.516175 
L 148.840034 271.930301 
L 151.004398 272.218482 
L 151.545489 272.199269 
L 152.08658 272.374312 
L 154.250943 272.626203 
L 155.333125 272.914384 
L 155.874216 272.848209 
L 156.956398 273.051003 
L 158.03858 273.025387 
L 160.202943 273.26447 
L 161.826216 273.390415 
L 163.449489 273.509957 
L 164.53167 273.614556 
L 169.94258 273.806676 
L 173.189125 274.028682 
L 174.271307 273.960372 
L 175.89458 274.058567 
L 176.43567 274.058567 
L 176.976761 274.193051 
L 178.058943 274.173839 
L 179.682216 274.293381 
L 184.552034 274.263495 
L 187.79858 274.212263 
L 188.880761 274.278438 
L 189.962943 274.32967 
L 191.586216 274.340343 
L 192.127307 274.282707 
L 193.209489 274.299785 
L 195.914943 274.357421 
L 197.538216 274.220802 
L 202.949125 274.327535 
L 204.031307 274.280573 
L 205.65458 274.323266 
L 210.524398 274.46202 
L 212.688761 274.395845 
L 213.770943 274.447077 
L 214.312034 274.295515 
L 214.853125 274.272034 
L 216.476398 274.485501 
L 217.55858 274.502578 
L 218.09967 274.383037 
L 238.661125 274.316862 
L 240.284398 274.23361 
L 243.530943 274.304054 
L 244.613125 274.272034 
L 252.729489 274.321131 
L 254.352761 274.340343 
L 262.469125 274.374498 
L 266.256761 274.346747 
L 267.880034 274.432134 
L 270.044398 274.316862 
L 280.866216 274.293381 
L 284.653852 274.261361 
L 285.736034 274.316862 
L 286.818216 274.237879 
L 287.900398 274.235745 
L 293.852398 274.427865 
L 294.393489 274.385171 
L 294.93458 274.459885 
L 296.016761 274.404383 
L 306.83858 274.376633 
L 307.920761 274.474828 
L 310.085125 274.372363 
L 311.708398 274.331805 
L 312.79058 274.282707 
L 313.872761 274.383037 
L 314.954943 274.323266 
L 317.660398 274.470558 
L 319.28367 274.351017 
L 321.448034 274.412922 
L 322.530216 274.498309 
L 325.23567 274.372363 
L 326.317852 274.280573 
L 326.858943 274.402249 
L 332.269852 274.423595 
L 333.352034 274.434269 
L 334.434216 274.312593 
L 339.304034 274.368094 
L 340.927307 274.205859 
L 342.009489 274.376633 
L 363.653125 274.400114 
L 364.735307 274.500444 
L 365.817489 274.336074 
L 367.440761 274.36169 
L 367.981852 274.427865 
L 369.064034 274.406518 
L 370.687307 274.517521 
L 372.31058 274.363825 
L 391.248761 274.419326 
L 392.330943 274.45775 
L 399.365125 274.280573 
L 400.447307 274.483366 
L 403.152761 274.365959 
L 405.858216 274.468424 
L 406.940398 274.397979 
L 406.940398 274.397979 
" style="fill:none;stroke:#29ffce;stroke-linecap:round;stroke-width:1.5;"/>
   </g>
   <g id="line2d_19">
    <path clip-path="url(#pbeecdebe33)" d="M 82.285852 276.334125 
L 82.826943 197.77187 
L 83.368034 141.393105 
L 83.909125 101.707458 
L 84.450216 73.194672 
L 84.991307 54.904821 
L 85.532398 43.676458 
L 86.073489 37.477376 
L 86.61458 34.930715 
L 87.15567 36.570142 
L 87.696761 38.803006 
L 88.237852 42.97842 
L 89.320034 54.94538 
L 91.484398 83.932062 
L 92.56658 98.306928 
L 95.272034 131.682492 
L 97.436398 154.051697 
L 100.141852 178.218294 
L 100.682943 182.154626 
L 101.765125 190.923849 
L 103.929489 205.512183 
L 105.01167 211.800921 
L 106.634943 219.906262 
L 108.799307 229.537892 
L 109.881489 233.484897 
L 110.96367 236.526802 
L 111.504761 238.34554 
L 112.586943 240.960511 
L 113.128034 242.890252 
L 114.210216 245.599148 
L 114.751307 246.525595 
L 115.292398 247.842686 
L 116.37458 249.644348 
L 118.538943 253.433387 
L 119.621125 254.786767 
L 121.244398 256.212727 
L 121.785489 256.966265 
L 122.32658 257.433758 
L 123.949852 259.643141 
L 125.573125 260.968771 
L 126.114216 261.634788 
L 128.27858 263.032997 
L 129.360761 263.545318 
L 130.442943 264.196392 
L 130.984034 264.655346 
L 132.066216 265.11857 
L 134.77167 266.815632 
L 135.312761 267.005618 
L 135.853852 267.347165 
L 136.394943 267.543555 
L 136.936034 267.588383 
L 139.100398 268.452924 
L 140.18258 268.5746 
L 143.970216 270.141448 
L 147.757852 271.458539 
L 148.298943 271.445731 
L 149.381125 271.625043 
L 151.545489 271.949513 
L 152.62767 272.128825 
L 153.168761 272.29533 
L 158.57967 272.87596 
L 160.202943 273.106504 
L 163.449489 273.381877 
L 163.99058 273.490745 
L 165.072761 273.469398 
L 166.154943 273.591074 
L 169.401489 273.723424 
L 169.94258 273.857908 
L 175.353489 273.988123 
L 179.682216 274.1653 
L 181.84658 274.227206 
L 186.175307 274.173839 
L 186.716398 274.272034 
L 188.33967 274.331805 
L 189.962943 274.363825 
L 191.045125 274.259226 
L 194.832761 274.331805 
L 195.373852 274.438538 
L 195.914943 274.342478 
L 196.456034 274.423595 
L 196.997125 274.280573 
L 197.538216 274.355286 
L 199.161489 274.250687 
L 204.031307 274.355286 
L 207.818943 274.333939 
L 212.688761 274.26563 
L 213.770943 274.338209 
L 216.476398 274.45775 
L 220.264034 274.376633 
L 247.31858 274.344613 
L 247.85967 274.404383 
L 248.941852 274.314727 
L 250.024034 274.380902 
L 251.106216 274.359555 
L 251.647307 274.449212 
L 253.81167 274.351017 
L 255.434943 274.387306 
L 260.845852 274.391575 
L 261.928034 274.365959 
L 263.010216 274.449212 
L 265.71567 274.286977 
L 267.880034 274.406518 
L 270.044398 274.336074 
L 276.537489 274.374498 
L 277.61967 274.374498 
L 280.866216 274.374498 
L 282.489489 274.432134 
L 284.653852 274.444942 
L 285.736034 274.321131 
L 287.900398 274.449212 
L 290.064761 274.474828 
L 292.770216 274.472693 
L 296.557852 274.342478 
L 297.640034 274.419326 
L 299.804398 274.291246 
L 300.88658 274.391575 
L 301.968761 274.351017 
L 302.509852 274.231475 
L 304.133125 274.291246 
L 315.496034 274.528194 
L 317.119307 274.45775 
L 317.660398 274.545272 
L 320.365852 274.380902 
L 321.448034 274.363825 
L 323.071307 274.348882 
L 326.858943 274.357421 
L 341.468398 274.248553 
L 342.009489 274.301919 
L 342.55058 274.222937 
L 346.338216 274.374498 
L 352.831307 274.383037 
L 354.45458 274.459885 
L 355.536761 274.423595 
L 357.701125 274.385171 
L 359.324398 274.383037 
L 364.735307 274.218667 
L 370.146216 274.440673 
L 370.687307 274.344613 
L 371.769489 274.39371 
L 373.933852 274.323266 
L 376.098216 274.412922 
L 378.26258 274.293381 
L 382.050216 274.306189 
L 383.132398 274.353151 
L 383.673489 274.451346 
L 384.75567 274.353151 
L 387.461125 274.237879 
L 388.543307 274.272034 
L 397.741852 274.421461 
L 398.824034 274.412922 
L 406.940398 274.400114 
L 406.940398 274.400114 
" style="fill:none;stroke:#7dff7a;stroke-linecap:round;stroke-width:1.5;"/>
   </g>
   <g id="line2d_20">
    <path clip-path="url(#pbeecdebe33)" d="M 82.285852 276.334125 
L 82.826943 198.909649 
L 83.368034 142.541557 
L 83.909125 101.549492 
L 84.450216 73.672838 
L 84.991307 54.783145 
L 85.532398 43.004036 
L 86.073489 36.749454 
L 86.61458 34.979813 
L 87.15567 35.468652 
L 87.696761 38.369668 
L 88.778943 47.975683 
L 89.861125 60.666295 
L 93.648761 111.462899 
L 94.189852 119.256578 
L 96.895307 148.680868 
L 98.51858 164.50731 
L 101.224034 186.639567 
L 102.847307 198.294864 
L 103.388398 201.45631 
L 104.47058 208.650148 
L 106.634943 219.519887 
L 107.717125 224.107292 
L 109.340398 230.048079 
L 110.42258 233.418722 
L 111.504761 237.323033 
L 115.292398 246.754005 
L 116.37458 248.95058 
L 116.91567 249.746812 
L 117.997852 251.992485 
L 119.621125 254.455894 
L 120.162216 255.679059 
L 120.703307 256.571351 
L 121.244398 257.205348 
L 121.785489 257.499933 
L 122.86767 258.853314 
L 123.408761 259.525735 
L 126.655307 262.179129 
L 127.737489 262.813126 
L 128.27858 263.314774 
L 129.360761 264.046965 
L 131.525125 265.50281 
L 132.066216 265.682122 
L 133.689489 266.92877 
L 135.853852 267.592652 
L 136.936034 268.094299 
L 139.100398 269.071978 
L 139.641489 269.358024 
L 140.18258 269.430603 
L 142.346943 270.254585 
L 143.429125 270.329299 
L 144.511307 270.683654 
L 147.757852 271.522579 
L 148.840034 271.759528 
L 152.08658 272.278252 
L 154.250943 272.617665 
L 155.333125 272.822593 
L 158.03858 273.076619 
L 159.120761 273.341318 
L 162.908398 273.55692 
L 164.53167 273.642306 
L 166.154943 273.704212 
L 166.696034 273.751174 
L 167.237125 273.667922 
L 169.401489 273.883524 
L 171.024761 273.907005 
L 172.106943 274.03722 
L 173.189125 273.992392 
L 173.730216 273.926217 
L 174.271307 274.050028 
L 175.89458 273.928352 
L 176.43567 274.054298 
L 176.976761 274.003066 
L 178.600034 274.139684 
L 180.764398 274.045759 
L 183.469852 274.158896 
L 184.552034 274.23361 
L 185.093125 274.314727 
L 186.175307 274.312593 
L 187.79858 274.299785 
L 192.127307 274.173839 
L 194.832761 274.244283 
L 196.456034 274.36169 
L 197.538216 274.338209 
L 199.161489 274.267765 
L 202.949125 274.404383 
L 205.113489 274.310458 
L 207.277852 274.301919 
L 207.818943 274.261361 
L 208.901125 274.365959 
L 210.524398 274.254957 
L 212.14767 274.250687 
L 213.770943 274.252822 
L 215.935307 274.389441 
L 217.017489 274.466289 
L 218.09967 274.372363 
L 223.51058 274.395845 
L 224.592761 274.318997 
L 226.757125 274.306189 
L 243.530943 274.321131 
L 244.613125 274.214398 
L 245.695307 274.306189 
L 247.31858 274.252822 
L 247.85967 274.32967 
L 248.400761 274.286977 
L 248.941852 274.376633 
L 250.024034 274.355286 
L 254.893852 274.400114 
L 257.058216 274.235745 
L 261.386943 274.308323 
L 262.469125 274.29765 
L 263.551307 274.387306 
L 265.17458 274.444942 
L 266.256761 274.468424 
L 267.880034 274.310458 
L 268.962216 274.289111 
L 269.503307 274.184512 
L 270.585489 274.250687 
L 272.208761 274.325401 
L 280.866216 274.479097 
L 281.407307 274.385171 
L 284.112761 274.380902 
L 287.900398 274.402249 
L 291.688034 274.257091 
L 292.770216 274.274169 
L 294.393489 274.248553 
L 295.47567 274.331805 
L 298.181125 274.36169 
L 306.297489 274.434269 
L 307.37967 274.543137 
L 309.002943 274.479097 
L 310.085125 274.348882 
L 326.317852 274.432134 
L 327.400034 274.438538 
L 331.728761 274.400114 
L 334.434216 274.321131 
L 335.516398 274.316862 
L 338.221852 274.440673 
L 344.173852 274.333939 
L 344.714943 274.400114 
L 345.797125 274.351017 
L 347.420398 274.372363 
L 360.94767 274.323266 
L 364.194216 274.449212 
L 366.35858 274.415057 
L 369.064034 274.355286 
L 370.687307 274.348882 
L 372.31058 274.438538 
L 373.933852 274.421461 
L 375.557125 274.442808 
L 376.639307 274.374498 
L 377.721489 274.312593 
L 378.80367 274.293381 
L 391.789852 274.340343 
L 392.872034 274.310458 
L 406.940398 274.342478 
L 406.940398 274.342478 
" style="fill:none;stroke:#ceff29;stroke-linecap:round;stroke-width:1.5;"/>
   </g>
   <g id="line2d_21">
    <path clip-path="url(#pbeecdebe33)" d="M 82.285852 276.334125 
L 82.826943 198.258575 
L 83.368034 143.066686 
L 83.909125 102.821755 
L 84.450216 74.673998 
L 84.991307 55.316812 
L 85.532398 43.358392 
L 86.073489 37.210543 
L 86.61458 34.791962 
L 87.15567 35.714139 
L 87.696761 38.326975 
L 88.778943 49.149751 
L 89.861125 61.833959 
L 90.402216 70.054573 
L 92.025489 90.908163 
L 94.189852 118.857395 
L 95.272034 131.163767 
L 96.895307 148.887931 
L 97.977489 159.309389 
L 99.05967 169.835446 
L 100.141852 178.818137 
L 101.765125 190.353893 
L 103.388398 201.383732 
L 106.093852 215.927237 
L 107.717125 223.076247 
L 108.258216 225.345401 
L 108.799307 226.698782 
L 109.881489 230.906216 
L 110.96367 234.870298 
L 113.128034 241.082187 
L 115.833489 247.554506 
L 116.37458 248.581282 
L 116.91567 249.968818 
L 117.997852 251.92631 
L 118.538943 252.560307 
L 119.080034 253.367212 
L 119.621125 254.458028 
L 120.703307 255.890392 
L 121.244398 256.366423 
L 122.32658 257.672841 
L 123.408761 259.35923 
L 124.490943 260.582396 
L 125.573125 261.344473 
L 127.196398 262.881436 
L 128.81967 264.108871 
L 131.525125 265.848627 
L 134.23058 267.372781 
L 135.312761 268.104973 
L 135.853852 268.241592 
L 136.394943 268.548984 
L 141.805852 270.278067 
L 142.346943 270.574786 
L 142.888034 270.534227 
L 146.67567 271.456404 
L 149.381125 272.054112 
L 151.004398 272.370043 
L 151.545489 272.493854 
L 152.62767 272.55149 
L 154.792034 272.910115 
L 156.956398 273.059541 
L 158.03858 273.219642 
L 160.744034 273.384011 
L 163.99058 273.65298 
L 164.53167 273.731962 
L 166.154943 273.638037 
L 167.778216 273.851504 
L 168.860398 273.842965 
L 169.94258 274.0052 
L 176.43567 274.062836 
L 177.517852 274.103395 
L 180.223307 274.205859 
L 186.175307 274.235745 
L 190.504034 274.225071 
L 192.127307 274.346747 
L 193.75058 274.267765 
L 195.914943 274.173839 
L 207.818943 274.402249 
L 208.901125 274.342478 
L 209.983307 274.410787 
L 211.065489 274.372363 
L 212.688761 274.402249 
L 215.394216 274.404383 
L 216.476398 274.436403 
L 220.805125 274.483366 
L 221.346216 274.370229 
L 227.298216 274.378767 
L 228.921489 274.254957 
L 230.00367 274.378767 
L 231.085852 274.36169 
L 231.626943 274.485501 
L 232.709125 274.464154 
L 233.250216 274.564484 
L 234.332398 274.519656 
L 235.41458 274.562349 
L 236.496761 274.372363 
L 238.120034 274.487636 
L 239.743307 274.496174 
L 247.85967 274.291246 
L 248.400761 274.408653 
L 250.024034 274.389441 
L 251.106216 274.423595 
L 251.647307 274.376633 
L 252.729489 274.429999 
L 253.81167 274.316862 
L 259.76367 274.432134 
L 260.304761 274.351017 
L 261.386943 274.479097 
L 262.469125 274.46202 
L 263.010216 274.370229 
L 264.092398 274.421461 
L 266.797852 274.32967 
L 269.503307 274.304054 
L 272.208761 274.321131 
L 274.914216 274.42573 
L 275.455307 274.500444 
L 276.537489 274.383037 
L 278.701852 274.316862 
L 292.770216 274.385171 
L 293.852398 274.29765 
L 297.640034 274.365959 
L 298.722216 274.267765 
L 300.345489 274.261361 
L 302.509852 274.348882 
L 305.215307 274.284842 
L 309.544034 274.242149 
L 310.626216 274.383037 
L 313.33167 274.389441 
L 316.037125 274.248553 
L 317.119307 274.318997 
L 325.776761 274.244283 
L 326.317852 274.389441 
L 327.400034 274.310458 
L 329.564398 274.331805 
L 333.352034 274.323266 
L 334.975307 274.289111 
L 338.221852 274.348882 
L 339.845125 274.195186 
L 342.55058 274.376633 
L 345.256034 274.32967 
L 346.338216 274.368094 
L 349.04367 274.308323 
L 351.749125 274.389441 
L 352.290216 274.327535 
L 353.372398 274.380902 
L 353.913489 274.274169 
L 354.45458 274.336074 
L 355.536761 274.263495 
L 356.618943 274.314727 
L 358.783307 274.333939 
L 360.94767 274.357421 
L 361.488761 274.429999 
L 362.570943 274.408653 
L 366.35858 274.348882 
L 370.687307 274.474828 
L 374.474943 274.280573 
L 377.180398 274.321131 
L 377.721489 274.267765 
L 378.26258 274.380902 
L 381.509125 274.387306 
L 383.132398 274.468424 
L 386.378943 274.29765 
L 388.002216 274.357421 
L 392.330943 274.295515 
L 392.872034 274.385171 
L 393.413125 274.280573 
L 393.954216 274.351017 
L 394.495307 274.295515 
L 395.036398 274.385171 
L 396.11858 274.353151 
L 403.152761 274.389441 
L 404.234943 274.327535 
L 405.317125 274.415057 
L 406.940398 274.308323 
L 406.940398 274.308323 
" style="fill:none;stroke:#ffc400;stroke-linecap:round;stroke-width:1.5;"/>
   </g>
   <g id="line2d_22">
    <path clip-path="url(#pbeecdebe33)" d="M 82.285852 276.334125 
L 82.826943 197.814564 
L 83.368034 141.937446 
L 83.909125 100.697759 
L 84.450216 73.282194 
L 84.991307 55.282658 
L 85.532398 43.953965 
L 86.073489 37.573436 
L 86.61458 34.975543 
L 87.15567 35.176202 
L 87.696761 38.087892 
L 88.778943 48.306556 
L 94.730943 124.392594 
L 97.977489 158.579332 
L 99.05967 169.024271 
L 100.141852 178.075272 
L 101.224034 185.862547 
L 103.388398 200.798832 
L 105.01167 210.810434 
L 109.881489 231.591445 
L 110.96367 234.964223 
L 111.504761 237.101028 
L 114.210216 244.339693 
L 115.292398 246.440208 
L 115.833489 247.782916 
L 116.37458 248.468145 
L 116.91567 249.390322 
L 117.997852 251.6979 
L 119.080034 253.655392 
L 121.785489 257.105019 
L 122.32658 257.5533 
L 123.408761 259.10307 
L 126.114216 261.641192 
L 127.737489 263.186693 
L 131.525125 266.237137 
L 132.607307 266.862595 
L 133.148398 267.272451 
L 133.689489 267.483784 
L 134.23058 267.823196 
L 134.77167 267.940603 
L 136.394943 268.694142 
L 136.936034 268.937494 
L 137.477125 268.99513 
L 140.18258 269.908769 
L 141.264761 270.02831 
L 142.346943 270.574786 
L 143.970216 271.104184 
L 151.545489 272.553625 
L 152.62767 272.570702 
L 153.168761 272.745745 
L 153.709852 272.737206 
L 154.792034 272.995501 
L 156.415307 273.072349 
L 159.661852 273.362665 
L 160.744034 273.354126 
L 162.367307 273.499283 
L 162.908398 273.573997 
L 163.449489 273.514226 
L 163.99058 273.642306 
L 164.53167 273.597478 
L 166.696034 273.849369 
L 181.305489 274.175974 
L 182.38767 274.099126 
L 188.880761 274.225071 
L 206.19567 274.359555 
L 208.901125 274.26563 
L 210.524398 274.312593 
L 212.14767 274.355286 
L 212.688761 274.440673 
L 213.229852 274.316862 
L 214.853125 274.306189 
L 215.394216 274.220802 
L 217.55858 274.380902 
L 218.640761 274.415057 
L 220.264034 274.254957 
L 225.133852 274.370229 
L 226.757125 274.163166 
L 228.380398 274.295515 
L 234.332398 274.29765 
L 235.41458 274.42573 
L 236.496761 274.417191 
L 238.661125 274.280573 
L 261.928034 274.468424 
L 266.256761 274.252822 
L 267.338943 274.342478 
L 270.044398 274.415057 
L 271.12658 274.331805 
L 272.208761 274.406518 
L 274.373125 274.308323 
L 275.455307 274.483366 
L 277.61967 274.391575 
L 282.489489 274.434269 
L 285.194943 274.376633 
L 285.736034 274.259226 
L 286.818216 274.404383 
L 290.605852 274.325401 
L 291.688034 274.286977 
L 296.557852 274.485501 
L 297.640034 274.412922 
L 301.42767 274.404383 
L 301.968761 274.468424 
L 303.050943 274.447077 
L 304.674216 274.387306 
L 306.297489 274.316862 
L 307.920761 274.421461 
L 309.002943 274.338209 
L 309.544034 274.400114 
L 310.626216 274.26563 
L 311.167307 274.325401 
L 312.249489 274.269899 
L 317.660398 274.442808 
L 318.74258 274.368094 
L 327.400034 274.293381 
L 328.482216 274.397979 
L 345.256034 274.304054 
L 346.879307 274.374498 
L 347.420398 274.299785 
L 348.50258 274.36169 
L 350.666943 274.261361 
L 351.749125 274.218667 
L 353.372398 274.402249 
L 357.160034 274.314727 
L 360.94767 274.248553 
L 362.029852 274.436403 
L 362.570943 274.491905 
L 363.653125 274.380902 
L 364.194216 274.436403 
L 365.276398 274.344613 
L 366.35858 274.444942 
L 369.064034 274.338209 
L 370.687307 274.272034 
L 372.31058 274.365959 
L 373.933852 274.344613 
L 378.80367 274.432134 
L 379.885852 274.355286 
L 385.837852 274.453481 
L 386.920034 274.380902 
L 388.002216 274.406518 
L 389.084398 274.327535 
L 390.16658 274.46202 
L 392.330943 274.342478 
L 394.495307 274.372363 
L 396.11858 274.314727 
L 403.693852 274.440673 
L 404.776034 274.543137 
L 406.940398 274.376633 
L 406.940398 274.376633 
" style="fill:none;stroke:#ff6800;stroke-linecap:round;stroke-width:1.5;"/>
   </g>
   <g id="line2d_23">
    <path clip-path="url(#pbeecdebe33)" d="M 82.285852 276.334125 
L 82.826943 199.00571 
L 83.368034 141.239409 
L 83.909125 100.746856 
L 84.450216 73.130632 
L 84.991307 54.418116 
L 85.532398 42.884495 
L 86.073489 36.463408 
L 86.61458 35.12497 
L 87.15567 35.799526 
L 87.696761 37.825327 
L 88.237852 42.190727 
L 89.320034 53.837486 
L 94.730943 125.758783 
L 96.895307 149.188919 
L 100.682943 182.254955 
L 102.847307 197.447401 
L 103.929489 203.870622 
L 105.01167 209.851967 
L 108.258216 224.809599 
L 110.42258 233.311989 
L 113.128034 241.4216 
L 115.833489 247.928073 
L 116.37458 248.805423 
L 117.456761 250.903803 
L 117.997852 251.928445 
L 118.538943 252.583788 
L 119.621125 254.630937 
L 120.703307 255.905334 
L 121.244398 256.720778 
L 122.32658 257.792383 
L 122.86767 258.620635 
L 126.114216 261.965662 
L 127.196398 262.900648 
L 127.737489 263.4642 
L 128.81967 264.102467 
L 129.360761 264.189988 
L 130.984034 265.556177 
L 133.689489 267.063254 
L 134.77167 267.633211 
L 135.853852 268.196764 
L 136.394943 268.322709 
L 138.559307 269.178712 
L 139.641489 269.413525 
L 140.72367 270.12864 
L 141.264761 270.241777 
L 141.805852 270.519284 
L 142.888034 270.561978 
L 143.429125 270.77331 
L 143.970216 270.826677 
L 146.67567 271.648525 
L 147.216761 271.689083 
L 148.298943 271.923897 
L 149.381125 272.092536 
L 153.709852 272.636877 
L 154.250943 272.796977 
L 155.874216 273.008309 
L 156.415307 273.125716 
L 156.956398 273.112908 
L 158.03858 273.26447 
L 159.661852 273.373338 
L 170.48367 274.028682 
L 171.565852 274.071375 
L 175.89458 274.195186 
L 177.517852 274.126876 
L 178.058943 274.186647 
L 179.141125 274.158896 
L 179.682216 274.222937 
L 180.223307 274.16957 
L 181.305489 274.222937 
L 188.33967 274.167435 
L 189.962943 274.244283 
L 191.045125 274.252822 
L 192.127307 274.272034 
L 193.209489 274.229341 
L 193.75058 274.344613 
L 205.113489 274.365959 
L 207.818943 274.387306 
L 226.757125 274.325401 
L 227.298216 274.432134 
L 228.380398 274.289111 
L 229.46258 274.355286 
L 241.36658 274.325401 
L 244.613125 274.464154 
L 246.236398 274.359555 
L 255.976034 274.444942 
L 257.058216 274.504713 
L 258.681489 274.29765 
L 261.928034 274.314727 
L 262.469125 274.207994 
L 267.338943 274.355286 
L 269.503307 274.342478 
L 271.12658 274.336074 
L 271.66767 274.432134 
L 272.208761 274.314727 
L 273.832034 274.400114 
L 279.242943 274.272034 
L 280.325125 274.250687 
L 280.866216 274.312593 
L 281.948398 274.276303 
L 285.736034 274.365959 
L 292.229125 274.32967 
L 292.770216 274.218667 
L 294.393489 274.314727 
L 302.509852 274.387306 
L 306.297489 274.496174 
L 307.920761 274.436403 
L 311.167307 274.464154 
L 312.79058 274.491905 
L 314.413852 274.466289 
L 314.954943 274.39371 
L 316.037125 274.500444 
L 317.119307 274.400114 
L 319.824761 274.342478 
L 320.365852 274.402249 
L 320.906943 274.289111 
L 321.448034 274.338209 
L 322.530216 274.246418 
L 330.105489 274.344613 
L 331.18767 274.248553 
L 335.516398 274.368094 
L 336.59858 274.286977 
L 344.173852 274.423595 
L 346.879307 274.387306 
L 348.50258 274.359555 
L 350.666943 274.346747 
L 352.290216 274.276303 
L 353.372398 274.402249 
L 360.94767 274.389441 
L 362.570943 274.36169 
L 366.89967 274.257091 
L 367.981852 274.316862 
L 374.474943 274.293381 
L 375.557125 274.406518 
L 378.80367 274.348882 
L 379.885852 274.464154 
L 380.968034 274.442808 
L 384.21458 274.346747 
L 386.378943 274.368094 
L 387.461125 274.316862 
L 388.543307 274.395845 
L 389.625489 274.293381 
L 392.872034 274.449212 
L 395.036398 274.314727 
L 396.11858 274.421461 
L 397.200761 274.400114 
L 400.988398 274.308323 
L 402.61167 274.400114 
L 405.858216 274.376633 
L 406.399307 274.291246 
L 406.940398 274.325401 
L 406.940398 274.325401 
" style="fill:none;stroke:#f10800;stroke-linecap:round;stroke-width:1.5;"/>
   </g>
   <g id="patch_3">
    <path d="M 66.053125 288.430125 
L 66.053125 22.318125 
" style="fill:none;stroke:#cccccc;stroke-linecap:square;stroke-linejoin:miter;stroke-width:0.8;"/>
   </g>
   <g id="patch_4">
    <path d="M 423.173125 288.430125 
L 423.173125 22.318125 
" style="fill:none;stroke:#cccccc;stroke-linecap:square;stroke-linejoin:miter;stroke-width:0.8;"/>
   </g>
   <g id="patch_5">
    <path d="M 66.053125 288.430125 
L 423.173125 288.430125 
" style="fill:none;stroke:#cccccc;stroke-linecap:square;stroke-linejoin:miter;stroke-width:0.8;"/>
   </g>
   <g id="patch_6">
    <path d="M 66.053125 22.318125 
L 423.173125 22.318125 
" style="fill:none;stroke:#cccccc;stroke-linecap:square;stroke-linejoin:miter;stroke-width:0.8;"/>
   </g>
   <g id="text_16">
    <!-- Mature APC -->
    <defs>
     <path d="M 9.8125 72.90625 
L 24.515625 72.90625 
L 43.109375 23.296875 
L 61.8125 72.90625 
L 76.515625 72.90625 
L 76.515625 0 
L 66.890625 0 
L 66.890625 64.015625 
L 48.09375 14.015625 
L 38.1875 14.015625 
L 19.390625 64.015625 
L 19.390625 0 
L 9.8125 0 
z
" id="DejaVuSans-77"/>
     <path d="M 34.1875 63.1875 
L 20.796875 26.90625 
L 47.609375 26.90625 
z
M 28.609375 72.90625 
L 39.796875 72.90625 
L 67.578125 0 
L 57.328125 0 
L 50.6875 18.703125 
L 17.828125 18.703125 
L 11.1875 0 
L 0.78125 0 
z
" id="DejaVuSans-65"/>
     <path d="M 19.671875 64.796875 
L 19.671875 37.40625 
L 32.078125 37.40625 
Q 38.96875 37.40625 42.71875 40.96875 
Q 46.484375 44.53125 46.484375 51.125 
Q 46.484375 57.671875 42.71875 61.234375 
Q 38.96875 64.796875 32.078125 64.796875 
z
M 9.8125 72.90625 
L 32.078125 72.90625 
Q 44.34375 72.90625 50.609375 67.359375 
Q 56.890625 61.8125 56.890625 51.125 
Q 56.890625 40.328125 50.609375 34.8125 
Q 44.34375 29.296875 32.078125 29.296875 
L 19.671875 29.296875 
L 19.671875 0 
L 9.8125 0 
z
" id="DejaVuSans-80"/>
     <path d="M 64.40625 67.28125 
L 64.40625 56.890625 
Q 59.421875 61.53125 53.78125 63.8125 
Q 48.140625 66.109375 41.796875 66.109375 
Q 29.296875 66.109375 22.65625 58.46875 
Q 16.015625 50.828125 16.015625 36.375 
Q 16.015625 21.96875 22.65625 14.328125 
Q 29.296875 6.6875 41.796875 6.6875 
Q 48.140625 6.6875 53.78125 8.984375 
Q 59.421875 11.28125 64.40625 15.921875 
L 64.40625 5.609375 
Q 59.234375 2.09375 53.4375 0.328125 
Q 47.65625 -1.421875 41.21875 -1.421875 
Q 24.65625 -1.421875 15.125 8.703125 
Q 5.609375 18.84375 5.609375 36.375 
Q 5.609375 53.953125 15.125 64.078125 
Q 24.65625 74.21875 41.21875 74.21875 
Q 47.75 74.21875 53.53125 72.484375 
Q 59.328125 70.75 64.40625 67.28125 
z
" id="DejaVuSans-67"/>
    </defs>
    <g style="fill:#262626;" transform="translate(209.629375 16.318125)scale(0.12 -0.12)">
     <use xlink:href="#DejaVuSans-77"/>
     <use x="86.279297" xlink:href="#DejaVuSans-97"/>
     <use x="147.558594" xlink:href="#DejaVuSans-116"/>
     <use x="186.767578" xlink:href="#DejaVuSans-117"/>
     <use x="250.146484" xlink:href="#DejaVuSans-114"/>
     <use x="291.228516" xlink:href="#DejaVuSans-101"/>
     <use x="352.751953" xlink:href="#DejaVuSans-32"/>
     <use x="384.539062" xlink:href="#DejaVuSans-65"/>
     <use x="452.947266" xlink:href="#DejaVuSans-80"/>
     <use x="513.25" xlink:href="#DejaVuSans-67"/>
    </g>
   </g>
  </g>
 </g>
 <defs>
  <clipPath id="pbeecdebe33">
   <rect height="266.112" width="357.12" x="66.053125" y="22.318125"/>
  </clipPath>
 </defs>
</svg>
