<?xml version="1.0" encoding="utf-8" standalone="no"?>
<!DOCTYPE svg PUBLIC "-//W3C//DTD SVG 1.1//EN"
  "http://www.w3.org/Graphics/SVG/1.1/DTD/svg11.dtd">
<!-- Created with matplotlib (https://matplotlib.org/) -->
<svg height="325.986375pt" version="1.1" viewBox="0 0 430.373125 325.986375" width="430.373125pt" xmlns="http://www.w3.org/2000/svg" xmlns:xlink="http://www.w3.org/1999/xlink">
 <defs>
  <style type="text/css">
*{stroke-linecap:butt;stroke-linejoin:round;white-space:pre;}
  </style>
 </defs>
 <g id="figure_1">
  <g id="patch_1">
   <path d="M 0 325.986375 
L 430.373125 325.986375 
L 430.373125 0 
L 0 0 
z
" style="fill:#ffffff;"/>
  </g>
  <g id="axes_1">
   <g id="patch_2">
    <path d="M 66.053125 288.430125 
L 423.173125 288.430125 
L 423.173125 22.318125 
L 66.053125 22.318125 
z
" style="fill:#ffffff;"/>
   </g>
   <g id="matplotlib.axis_1">
    <g id="xtick_1">
     <g id="line2d_1">
      <path clip-path="url(#pa84e5675ea)" d="M 82.285852 288.430125 
L 82.285852 22.318125 
" style="fill:none;stroke:#cccccc;stroke-linecap:round;stroke-width:0.8;"/>
     </g>
     <g id="text_1">
      <!-- 0 -->
      <defs>
       <path d="M 31.78125 66.40625 
Q 24.171875 66.40625 20.328125 58.90625 
Q 16.5 51.421875 16.5 36.375 
Q 16.5 21.390625 20.328125 13.890625 
Q 24.171875 6.390625 31.78125 6.390625 
Q 39.453125 6.390625 43.28125 13.890625 
Q 47.125 21.390625 47.125 36.375 
Q 47.125 51.421875 43.28125 58.90625 
Q 39.453125 66.40625 31.78125 66.40625 
z
M 31.78125 74.21875 
Q 44.046875 74.21875 50.515625 64.515625 
Q 56.984375 54.828125 56.984375 36.375 
Q 56.984375 17.96875 50.515625 8.265625 
Q 44.046875 -1.421875 31.78125 -1.421875 
Q 19.53125 -1.421875 13.0625 8.265625 
Q 6.59375 17.96875 6.59375 36.375 
Q 6.59375 54.828125 13.0625 64.515625 
Q 19.53125 74.21875 31.78125 74.21875 
z
" id="DejaVuSans-48"/>
      </defs>
      <g style="fill:#262626;" transform="translate(79.104602 303.028562)scale(0.1 -0.1)">
       <use xlink:href="#DejaVuSans-48"/>
      </g>
     </g>
    </g>
    <g id="xtick_2">
     <g id="line2d_2">
      <path clip-path="url(#pa84e5675ea)" d="M 136.394943 288.430125 
L 136.394943 22.318125 
" style="fill:none;stroke:#cccccc;stroke-linecap:round;stroke-width:0.8;"/>
     </g>
     <g id="text_2">
      <!-- 10 -->
      <defs>
       <path d="M 12.40625 8.296875 
L 28.515625 8.296875 
L 28.515625 63.921875 
L 10.984375 60.40625 
L 10.984375 69.390625 
L 28.421875 72.90625 
L 38.28125 72.90625 
L 38.28125 8.296875 
L 54.390625 8.296875 
L 54.390625 0 
L 12.40625 0 
z
" id="DejaVuSans-49"/>
      </defs>
      <g style="fill:#262626;" transform="translate(130.032443 303.028562)scale(0.1 -0.1)">
       <use xlink:href="#DejaVuSans-49"/>
       <use x="63.623047" xlink:href="#DejaVuSans-48"/>
      </g>
     </g>
    </g>
    <g id="xtick_3">
     <g id="line2d_3">
      <path clip-path="url(#pa84e5675ea)" d="M 190.504034 288.430125 
L 190.504034 22.318125 
" style="fill:none;stroke:#cccccc;stroke-linecap:round;stroke-width:0.8;"/>
     </g>
     <g id="text_3">
      <!-- 20 -->
      <defs>
       <path d="M 19.1875 8.296875 
L 53.609375 8.296875 
L 53.609375 0 
L 7.328125 0 
L 7.328125 8.296875 
Q 12.9375 14.109375 22.625 23.890625 
Q 32.328125 33.6875 34.8125 36.53125 
Q 39.546875 41.84375 41.421875 45.53125 
Q 43.3125 49.21875 43.3125 52.78125 
Q 43.3125 58.59375 39.234375 62.25 
Q 35.15625 65.921875 28.609375 65.921875 
Q 23.96875 65.921875 18.8125 64.3125 
Q 13.671875 62.703125 7.8125 59.421875 
L 7.8125 69.390625 
Q 13.765625 71.78125 18.9375 73 
Q 24.125 74.21875 28.421875 74.21875 
Q 39.75 74.21875 46.484375 68.546875 
Q 53.21875 62.890625 53.21875 53.421875 
Q 53.21875 48.921875 51.53125 44.890625 
Q 49.859375 40.875 45.40625 35.40625 
Q 44.1875 33.984375 37.640625 27.21875 
Q 31.109375 20.453125 19.1875 8.296875 
z
" id="DejaVuSans-50"/>
      </defs>
      <g style="fill:#262626;" transform="translate(184.141534 303.028562)scale(0.1 -0.1)">
       <use xlink:href="#DejaVuSans-50"/>
       <use x="63.623047" xlink:href="#DejaVuSans-48"/>
      </g>
     </g>
    </g>
    <g id="xtick_4">
     <g id="line2d_4">
      <path clip-path="url(#pa84e5675ea)" d="M 244.613125 288.430125 
L 244.613125 22.318125 
" style="fill:none;stroke:#cccccc;stroke-linecap:round;stroke-width:0.8;"/>
     </g>
     <g id="text_4">
      <!-- 30 -->
      <defs>
       <path d="M 40.578125 39.3125 
Q 47.65625 37.796875 51.625 33 
Q 55.609375 28.21875 55.609375 21.1875 
Q 55.609375 10.40625 48.1875 4.484375 
Q 40.765625 -1.421875 27.09375 -1.421875 
Q 22.515625 -1.421875 17.65625 -0.515625 
Q 12.796875 0.390625 7.625 2.203125 
L 7.625 11.71875 
Q 11.71875 9.328125 16.59375 8.109375 
Q 21.484375 6.890625 26.8125 6.890625 
Q 36.078125 6.890625 40.9375 10.546875 
Q 45.796875 14.203125 45.796875 21.1875 
Q 45.796875 27.640625 41.28125 31.265625 
Q 36.765625 34.90625 28.71875 34.90625 
L 20.21875 34.90625 
L 20.21875 43.015625 
L 29.109375 43.015625 
Q 36.375 43.015625 40.234375 45.921875 
Q 44.09375 48.828125 44.09375 54.296875 
Q 44.09375 59.90625 40.109375 62.90625 
Q 36.140625 65.921875 28.71875 65.921875 
Q 24.65625 65.921875 20.015625 65.03125 
Q 15.375 64.15625 9.8125 62.3125 
L 9.8125 71.09375 
Q 15.4375 72.65625 20.34375 73.4375 
Q 25.25 74.21875 29.59375 74.21875 
Q 40.828125 74.21875 47.359375 69.109375 
Q 53.90625 64.015625 53.90625 55.328125 
Q 53.90625 49.265625 50.4375 45.09375 
Q 46.96875 40.921875 40.578125 39.3125 
z
" id="DejaVuSans-51"/>
      </defs>
      <g style="fill:#262626;" transform="translate(238.250625 303.028562)scale(0.1 -0.1)">
       <use xlink:href="#DejaVuSans-51"/>
       <use x="63.623047" xlink:href="#DejaVuSans-48"/>
      </g>
     </g>
    </g>
    <g id="xtick_5">
     <g id="line2d_5">
      <path clip-path="url(#pa84e5675ea)" d="M 298.722216 288.430125 
L 298.722216 22.318125 
" style="fill:none;stroke:#cccccc;stroke-linecap:round;stroke-width:0.8;"/>
     </g>
     <g id="text_5">
      <!-- 40 -->
      <defs>
       <path d="M 37.796875 64.3125 
L 12.890625 25.390625 
L 37.796875 25.390625 
z
M 35.203125 72.90625 
L 47.609375 72.90625 
L 47.609375 25.390625 
L 58.015625 25.390625 
L 58.015625 17.1875 
L 47.609375 17.1875 
L 47.609375 0 
L 37.796875 0 
L 37.796875 17.1875 
L 4.890625 17.1875 
L 4.890625 26.703125 
z
" id="DejaVuSans-52"/>
      </defs>
      <g style="fill:#262626;" transform="translate(292.359716 303.028562)scale(0.1 -0.1)">
       <use xlink:href="#DejaVuSans-52"/>
       <use x="63.623047" xlink:href="#DejaVuSans-48"/>
      </g>
     </g>
    </g>
    <g id="xtick_6">
     <g id="line2d_6">
      <path clip-path="url(#pa84e5675ea)" d="M 352.831307 288.430125 
L 352.831307 22.318125 
" style="fill:none;stroke:#cccccc;stroke-linecap:round;stroke-width:0.8;"/>
     </g>
     <g id="text_6">
      <!-- 50 -->
      <defs>
       <path d="M 10.796875 72.90625 
L 49.515625 72.90625 
L 49.515625 64.59375 
L 19.828125 64.59375 
L 19.828125 46.734375 
Q 21.96875 47.46875 24.109375 47.828125 
Q 26.265625 48.1875 28.421875 48.1875 
Q 40.625 48.1875 47.75 41.5 
Q 54.890625 34.8125 54.890625 23.390625 
Q 54.890625 11.625 47.5625 5.09375 
Q 40.234375 -1.421875 26.90625 -1.421875 
Q 22.3125 -1.421875 17.546875 -0.640625 
Q 12.796875 0.140625 7.71875 1.703125 
L 7.71875 11.625 
Q 12.109375 9.234375 16.796875 8.0625 
Q 21.484375 6.890625 26.703125 6.890625 
Q 35.15625 6.890625 40.078125 11.328125 
Q 45.015625 15.765625 45.015625 23.390625 
Q 45.015625 31 40.078125 35.4375 
Q 35.15625 39.890625 26.703125 39.890625 
Q 22.75 39.890625 18.8125 39.015625 
Q 14.890625 38.140625 10.796875 36.28125 
z
" id="DejaVuSans-53"/>
      </defs>
      <g style="fill:#262626;" transform="translate(346.468807 303.028562)scale(0.1 -0.1)">
       <use xlink:href="#DejaVuSans-53"/>
       <use x="63.623047" xlink:href="#DejaVuSans-48"/>
      </g>
     </g>
    </g>
    <g id="xtick_7">
     <g id="line2d_7">
      <path clip-path="url(#pa84e5675ea)" d="M 406.940398 288.430125 
L 406.940398 22.318125 
" style="fill:none;stroke:#cccccc;stroke-linecap:round;stroke-width:0.8;"/>
     </g>
     <g id="text_7">
      <!-- 60 -->
      <defs>
       <path d="M 33.015625 40.375 
Q 26.375 40.375 22.484375 35.828125 
Q 18.609375 31.296875 18.609375 23.390625 
Q 18.609375 15.53125 22.484375 10.953125 
Q 26.375 6.390625 33.015625 6.390625 
Q 39.65625 6.390625 43.53125 10.953125 
Q 47.40625 15.53125 47.40625 23.390625 
Q 47.40625 31.296875 43.53125 35.828125 
Q 39.65625 40.375 33.015625 40.375 
z
M 52.59375 71.296875 
L 52.59375 62.3125 
Q 48.875 64.0625 45.09375 64.984375 
Q 41.3125 65.921875 37.59375 65.921875 
Q 27.828125 65.921875 22.671875 59.328125 
Q 17.53125 52.734375 16.796875 39.40625 
Q 19.671875 43.65625 24.015625 45.921875 
Q 28.375 48.1875 33.59375 48.1875 
Q 44.578125 48.1875 50.953125 41.515625 
Q 57.328125 34.859375 57.328125 23.390625 
Q 57.328125 12.15625 50.6875 5.359375 
Q 44.046875 -1.421875 33.015625 -1.421875 
Q 20.359375 -1.421875 13.671875 8.265625 
Q 6.984375 17.96875 6.984375 36.375 
Q 6.984375 53.65625 15.1875 63.9375 
Q 23.390625 74.21875 37.203125 74.21875 
Q 40.921875 74.21875 44.703125 73.484375 
Q 48.484375 72.75 52.59375 71.296875 
z
" id="DejaVuSans-54"/>
      </defs>
      <g style="fill:#262626;" transform="translate(400.577898 303.028562)scale(0.1 -0.1)">
       <use xlink:href="#DejaVuSans-54"/>
       <use x="63.623047" xlink:href="#DejaVuSans-48"/>
      </g>
     </g>
    </g>
    <g id="text_8">
     <!-- time (days) -->
     <defs>
      <path d="M 18.3125 70.21875 
L 18.3125 54.6875 
L 36.8125 54.6875 
L 36.8125 47.703125 
L 18.3125 47.703125 
L 18.3125 18.015625 
Q 18.3125 11.328125 20.140625 9.421875 
Q 21.96875 7.515625 27.59375 7.515625 
L 36.8125 7.515625 
L 36.8125 0 
L 27.59375 0 
Q 17.1875 0 13.234375 3.875 
Q 9.28125 7.765625 9.28125 18.015625 
L 9.28125 47.703125 
L 2.6875 47.703125 
L 2.6875 54.6875 
L 9.28125 54.6875 
L 9.28125 70.21875 
z
" id="DejaVuSans-116"/>
      <path d="M 9.421875 54.6875 
L 18.40625 54.6875 
L 18.40625 0 
L 9.421875 0 
z
M 9.421875 75.984375 
L 18.40625 75.984375 
L 18.40625 64.59375 
L 9.421875 64.59375 
z
" id="DejaVuSans-105"/>
      <path d="M 52 44.1875 
Q 55.375 50.25 60.0625 53.125 
Q 64.75 56 71.09375 56 
Q 79.640625 56 84.28125 50.015625 
Q 88.921875 44.046875 88.921875 33.015625 
L 88.921875 0 
L 79.890625 0 
L 79.890625 32.71875 
Q 79.890625 40.578125 77.09375 44.375 
Q 74.3125 48.1875 68.609375 48.1875 
Q 61.625 48.1875 57.5625 43.546875 
Q 53.515625 38.921875 53.515625 30.90625 
L 53.515625 0 
L 44.484375 0 
L 44.484375 32.71875 
Q 44.484375 40.625 41.703125 44.40625 
Q 38.921875 48.1875 33.109375 48.1875 
Q 26.21875 48.1875 22.15625 43.53125 
Q 18.109375 38.875 18.109375 30.90625 
L 18.109375 0 
L 9.078125 0 
L 9.078125 54.6875 
L 18.109375 54.6875 
L 18.109375 46.1875 
Q 21.1875 51.21875 25.484375 53.609375 
Q 29.78125 56 35.6875 56 
Q 41.65625 56 45.828125 52.96875 
Q 50 49.953125 52 44.1875 
z
" id="DejaVuSans-109"/>
      <path d="M 56.203125 29.59375 
L 56.203125 25.203125 
L 14.890625 25.203125 
Q 15.484375 15.921875 20.484375 11.0625 
Q 25.484375 6.203125 34.421875 6.203125 
Q 39.59375 6.203125 44.453125 7.46875 
Q 49.3125 8.734375 54.109375 11.28125 
L 54.109375 2.78125 
Q 49.265625 0.734375 44.1875 -0.34375 
Q 39.109375 -1.421875 33.890625 -1.421875 
Q 20.796875 -1.421875 13.15625 6.1875 
Q 5.515625 13.8125 5.515625 26.8125 
Q 5.515625 40.234375 12.765625 48.109375 
Q 20.015625 56 32.328125 56 
Q 43.359375 56 49.78125 48.890625 
Q 56.203125 41.796875 56.203125 29.59375 
z
M 47.21875 32.234375 
Q 47.125 39.59375 43.09375 43.984375 
Q 39.0625 48.390625 32.421875 48.390625 
Q 24.90625 48.390625 20.390625 44.140625 
Q 15.875 39.890625 15.1875 32.171875 
z
" id="DejaVuSans-101"/>
      <path id="DejaVuSans-32"/>
      <path d="M 31 75.875 
Q 24.46875 64.65625 21.28125 53.65625 
Q 18.109375 42.671875 18.109375 31.390625 
Q 18.109375 20.125 21.3125 9.0625 
Q 24.515625 -2 31 -13.1875 
L 23.1875 -13.1875 
Q 15.875 -1.703125 12.234375 9.375 
Q 8.59375 20.453125 8.59375 31.390625 
Q 8.59375 42.28125 12.203125 53.3125 
Q 15.828125 64.359375 23.1875 75.875 
z
" id="DejaVuSans-40"/>
      <path d="M 45.40625 46.390625 
L 45.40625 75.984375 
L 54.390625 75.984375 
L 54.390625 0 
L 45.40625 0 
L 45.40625 8.203125 
Q 42.578125 3.328125 38.25 0.953125 
Q 33.9375 -1.421875 27.875 -1.421875 
Q 17.96875 -1.421875 11.734375 6.484375 
Q 5.515625 14.40625 5.515625 27.296875 
Q 5.515625 40.1875 11.734375 48.09375 
Q 17.96875 56 27.875 56 
Q 33.9375 56 38.25 53.625 
Q 42.578125 51.265625 45.40625 46.390625 
z
M 14.796875 27.296875 
Q 14.796875 17.390625 18.875 11.75 
Q 22.953125 6.109375 30.078125 6.109375 
Q 37.203125 6.109375 41.296875 11.75 
Q 45.40625 17.390625 45.40625 27.296875 
Q 45.40625 37.203125 41.296875 42.84375 
Q 37.203125 48.484375 30.078125 48.484375 
Q 22.953125 48.484375 18.875 42.84375 
Q 14.796875 37.203125 14.796875 27.296875 
z
" id="DejaVuSans-100"/>
      <path d="M 34.28125 27.484375 
Q 23.390625 27.484375 19.1875 25 
Q 14.984375 22.515625 14.984375 16.5 
Q 14.984375 11.71875 18.140625 8.90625 
Q 21.296875 6.109375 26.703125 6.109375 
Q 34.1875 6.109375 38.703125 11.40625 
Q 43.21875 16.703125 43.21875 25.484375 
L 43.21875 27.484375 
z
M 52.203125 31.203125 
L 52.203125 0 
L 43.21875 0 
L 43.21875 8.296875 
Q 40.140625 3.328125 35.546875 0.953125 
Q 30.953125 -1.421875 24.3125 -1.421875 
Q 15.921875 -1.421875 10.953125 3.296875 
Q 6 8.015625 6 15.921875 
Q 6 25.140625 12.171875 29.828125 
Q 18.359375 34.515625 30.609375 34.515625 
L 43.21875 34.515625 
L 43.21875 35.40625 
Q 43.21875 41.609375 39.140625 45 
Q 35.0625 48.390625 27.6875 48.390625 
Q 23 48.390625 18.546875 47.265625 
Q 14.109375 46.140625 10.015625 43.890625 
L 10.015625 52.203125 
Q 14.9375 54.109375 19.578125 55.046875 
Q 24.21875 56 28.609375 56 
Q 40.484375 56 46.34375 49.84375 
Q 52.203125 43.703125 52.203125 31.203125 
z
" id="DejaVuSans-97"/>
      <path d="M 32.171875 -5.078125 
Q 28.375 -14.84375 24.75 -17.8125 
Q 21.140625 -20.796875 15.09375 -20.796875 
L 7.90625 -20.796875 
L 7.90625 -13.28125 
L 13.1875 -13.28125 
Q 16.890625 -13.28125 18.9375 -11.515625 
Q 21 -9.765625 23.484375 -3.21875 
L 25.09375 0.875 
L 2.984375 54.6875 
L 12.5 54.6875 
L 29.59375 11.921875 
L 46.6875 54.6875 
L 56.203125 54.6875 
z
" id="DejaVuSans-121"/>
      <path d="M 44.28125 53.078125 
L 44.28125 44.578125 
Q 40.484375 46.53125 36.375 47.5 
Q 32.28125 48.484375 27.875 48.484375 
Q 21.1875 48.484375 17.84375 46.4375 
Q 14.5 44.390625 14.5 40.28125 
Q 14.5 37.15625 16.890625 35.375 
Q 19.28125 33.59375 26.515625 31.984375 
L 29.59375 31.296875 
Q 39.15625 29.25 43.1875 25.515625 
Q 47.21875 21.78125 47.21875 15.09375 
Q 47.21875 7.46875 41.1875 3.015625 
Q 35.15625 -1.421875 24.609375 -1.421875 
Q 20.21875 -1.421875 15.453125 -0.5625 
Q 10.6875 0.296875 5.421875 2 
L 5.421875 11.28125 
Q 10.40625 8.6875 15.234375 7.390625 
Q 20.0625 6.109375 24.8125 6.109375 
Q 31.15625 6.109375 34.5625 8.28125 
Q 37.984375 10.453125 37.984375 14.40625 
Q 37.984375 18.0625 35.515625 20.015625 
Q 33.0625 21.96875 24.703125 23.78125 
L 21.578125 24.515625 
Q 13.234375 26.265625 9.515625 29.90625 
Q 5.8125 33.546875 5.8125 39.890625 
Q 5.8125 47.609375 11.28125 51.796875 
Q 16.75 56 26.8125 56 
Q 31.78125 56 36.171875 55.265625 
Q 40.578125 54.546875 44.28125 53.078125 
z
" id="DejaVuSans-115"/>
      <path d="M 8.015625 75.875 
L 15.828125 75.875 
Q 23.140625 64.359375 26.78125 53.3125 
Q 30.421875 42.28125 30.421875 31.390625 
Q 30.421875 20.453125 26.78125 9.375 
Q 23.140625 -1.703125 15.828125 -13.1875 
L 8.015625 -13.1875 
Q 14.5 -2 17.703125 9.0625 
Q 20.90625 20.125 20.90625 31.390625 
Q 20.90625 42.671875 17.703125 53.65625 
Q 14.5 64.65625 8.015625 75.875 
z
" id="DejaVuSans-41"/>
     </defs>
     <g style="fill:#262626;" transform="translate(216.024063 316.706687)scale(0.1 -0.1)">
      <use xlink:href="#DejaVuSans-116"/>
      <use x="39.208984" xlink:href="#DejaVuSans-105"/>
      <use x="66.992188" xlink:href="#DejaVuSans-109"/>
      <use x="164.404297" xlink:href="#DejaVuSans-101"/>
      <use x="225.927734" xlink:href="#DejaVuSans-32"/>
      <use x="257.714844" xlink:href="#DejaVuSans-40"/>
      <use x="296.728516" xlink:href="#DejaVuSans-100"/>
      <use x="360.205078" xlink:href="#DejaVuSans-97"/>
      <use x="421.484375" xlink:href="#DejaVuSans-121"/>
      <use x="480.664062" xlink:href="#DejaVuSans-115"/>
      <use x="532.763672" xlink:href="#DejaVuSans-41"/>
     </g>
    </g>
   </g>
   <g id="matplotlib.axis_2">
    <g id="ytick_1">
     <g id="line2d_8">
      <path clip-path="url(#pa84e5675ea)" d="M 66.053125 276.334125 
L 423.173125 276.334125 
" style="fill:none;stroke:#cccccc;stroke-linecap:round;stroke-width:0.8;"/>
     </g>
     <g id="text_9">
      <!-- 0 -->
      <g style="fill:#262626;" transform="translate(52.690625 280.133344)scale(0.1 -0.1)">
       <use xlink:href="#DejaVuSans-48"/>
      </g>
     </g>
    </g>
    <g id="ytick_2">
     <g id="line2d_9">
      <path clip-path="url(#pa84e5675ea)" d="M 66.053125 236.463993 
L 423.173125 236.463993 
" style="fill:none;stroke:#cccccc;stroke-linecap:round;stroke-width:0.8;"/>
     </g>
     <g id="text_10">
      <!-- 20000 -->
      <g style="fill:#262626;" transform="translate(27.240625 240.263212)scale(0.1 -0.1)">
       <use xlink:href="#DejaVuSans-50"/>
       <use x="63.623047" xlink:href="#DejaVuSans-48"/>
       <use x="127.246094" xlink:href="#DejaVuSans-48"/>
       <use x="190.869141" xlink:href="#DejaVuSans-48"/>
       <use x="254.492188" xlink:href="#DejaVuSans-48"/>
      </g>
     </g>
    </g>
    <g id="ytick_3">
     <g id="line2d_10">
      <path clip-path="url(#pa84e5675ea)" d="M 66.053125 196.593861 
L 423.173125 196.593861 
" style="fill:none;stroke:#cccccc;stroke-linecap:round;stroke-width:0.8;"/>
     </g>
     <g id="text_11">
      <!-- 40000 -->
      <g style="fill:#262626;" transform="translate(27.240625 200.39308)scale(0.1 -0.1)">
       <use xlink:href="#DejaVuSans-52"/>
       <use x="63.623047" xlink:href="#DejaVuSans-48"/>
       <use x="127.246094" xlink:href="#DejaVuSans-48"/>
       <use x="190.869141" xlink:href="#DejaVuSans-48"/>
       <use x="254.492188" xlink:href="#DejaVuSans-48"/>
      </g>
     </g>
    </g>
    <g id="ytick_4">
     <g id="line2d_11">
      <path clip-path="url(#pa84e5675ea)" d="M 66.053125 156.723729 
L 423.173125 156.723729 
" style="fill:none;stroke:#cccccc;stroke-linecap:round;stroke-width:0.8;"/>
     </g>
     <g id="text_12">
      <!-- 60000 -->
      <g style="fill:#262626;" transform="translate(27.240625 160.522948)scale(0.1 -0.1)">
       <use xlink:href="#DejaVuSans-54"/>
       <use x="63.623047" xlink:href="#DejaVuSans-48"/>
       <use x="127.246094" xlink:href="#DejaVuSans-48"/>
       <use x="190.869141" xlink:href="#DejaVuSans-48"/>
       <use x="254.492188" xlink:href="#DejaVuSans-48"/>
      </g>
     </g>
    </g>
    <g id="ytick_5">
     <g id="line2d_12">
      <path clip-path="url(#pa84e5675ea)" d="M 66.053125 116.853597 
L 423.173125 116.853597 
" style="fill:none;stroke:#cccccc;stroke-linecap:round;stroke-width:0.8;"/>
     </g>
     <g id="text_13">
      <!-- 80000 -->
      <defs>
       <path d="M 31.78125 34.625 
Q 24.75 34.625 20.71875 30.859375 
Q 16.703125 27.09375 16.703125 20.515625 
Q 16.703125 13.921875 20.71875 10.15625 
Q 24.75 6.390625 31.78125 6.390625 
Q 38.8125 6.390625 42.859375 10.171875 
Q 46.921875 13.96875 46.921875 20.515625 
Q 46.921875 27.09375 42.890625 30.859375 
Q 38.875 34.625 31.78125 34.625 
z
M 21.921875 38.8125 
Q 15.578125 40.375 12.03125 44.71875 
Q 8.5 49.078125 8.5 55.328125 
Q 8.5 64.0625 14.71875 69.140625 
Q 20.953125 74.21875 31.78125 74.21875 
Q 42.671875 74.21875 48.875 69.140625 
Q 55.078125 64.0625 55.078125 55.328125 
Q 55.078125 49.078125 51.53125 44.71875 
Q 48 40.375 41.703125 38.8125 
Q 48.828125 37.15625 52.796875 32.3125 
Q 56.78125 27.484375 56.78125 20.515625 
Q 56.78125 9.90625 50.3125 4.234375 
Q 43.84375 -1.421875 31.78125 -1.421875 
Q 19.734375 -1.421875 13.25 4.234375 
Q 6.78125 9.90625 6.78125 20.515625 
Q 6.78125 27.484375 10.78125 32.3125 
Q 14.796875 37.15625 21.921875 38.8125 
z
M 18.3125 54.390625 
Q 18.3125 48.734375 21.84375 45.5625 
Q 25.390625 42.390625 31.78125 42.390625 
Q 38.140625 42.390625 41.71875 45.5625 
Q 45.3125 48.734375 45.3125 54.390625 
Q 45.3125 60.0625 41.71875 63.234375 
Q 38.140625 66.40625 31.78125 66.40625 
Q 25.390625 66.40625 21.84375 63.234375 
Q 18.3125 60.0625 18.3125 54.390625 
z
" id="DejaVuSans-56"/>
      </defs>
      <g style="fill:#262626;" transform="translate(27.240625 120.652816)scale(0.1 -0.1)">
       <use xlink:href="#DejaVuSans-56"/>
       <use x="63.623047" xlink:href="#DejaVuSans-48"/>
       <use x="127.246094" xlink:href="#DejaVuSans-48"/>
       <use x="190.869141" xlink:href="#DejaVuSans-48"/>
       <use x="254.492188" xlink:href="#DejaVuSans-48"/>
      </g>
     </g>
    </g>
    <g id="ytick_6">
     <g id="line2d_13">
      <path clip-path="url(#pa84e5675ea)" d="M 66.053125 76.983465 
L 423.173125 76.983465 
" style="fill:none;stroke:#cccccc;stroke-linecap:round;stroke-width:0.8;"/>
     </g>
     <g id="text_14">
      <!-- 100000 -->
      <g style="fill:#262626;" transform="translate(20.878125 80.782684)scale(0.1 -0.1)">
       <use xlink:href="#DejaVuSans-49"/>
       <use x="63.623047" xlink:href="#DejaVuSans-48"/>
       <use x="127.246094" xlink:href="#DejaVuSans-48"/>
       <use x="190.869141" xlink:href="#DejaVuSans-48"/>
       <use x="254.492188" xlink:href="#DejaVuSans-48"/>
       <use x="318.115234" xlink:href="#DejaVuSans-48"/>
      </g>
     </g>
    </g>
    <g id="ytick_7">
     <g id="line2d_14">
      <path clip-path="url(#pa84e5675ea)" d="M 66.053125 37.113333 
L 423.173125 37.113333 
" style="fill:none;stroke:#cccccc;stroke-linecap:round;stroke-width:0.8;"/>
     </g>
     <g id="text_15">
      <!-- 120000 -->
      <g style="fill:#262626;" transform="translate(20.878125 40.912552)scale(0.1 -0.1)">
       <use xlink:href="#DejaVuSans-49"/>
       <use x="63.623047" xlink:href="#DejaVuSans-50"/>
       <use x="127.246094" xlink:href="#DejaVuSans-48"/>
       <use x="190.869141" xlink:href="#DejaVuSans-48"/>
       <use x="254.492188" xlink:href="#DejaVuSans-48"/>
       <use x="318.115234" xlink:href="#DejaVuSans-48"/>
      </g>
     </g>
    </g>
    <g id="text_16">
     <!-- cells number -->
     <defs>
      <path d="M 48.78125 52.59375 
L 48.78125 44.1875 
Q 44.96875 46.296875 41.140625 47.34375 
Q 37.3125 48.390625 33.40625 48.390625 
Q 24.65625 48.390625 19.8125 42.84375 
Q 14.984375 37.3125 14.984375 27.296875 
Q 14.984375 17.28125 19.8125 11.734375 
Q 24.65625 6.203125 33.40625 6.203125 
Q 37.3125 6.203125 41.140625 7.25 
Q 44.96875 8.296875 48.78125 10.40625 
L 48.78125 2.09375 
Q 45.015625 0.34375 40.984375 -0.53125 
Q 36.96875 -1.421875 32.421875 -1.421875 
Q 20.0625 -1.421875 12.78125 6.34375 
Q 5.515625 14.109375 5.515625 27.296875 
Q 5.515625 40.671875 12.859375 48.328125 
Q 20.21875 56 33.015625 56 
Q 37.15625 56 41.109375 55.140625 
Q 45.0625 54.296875 48.78125 52.59375 
z
" id="DejaVuSans-99"/>
      <path d="M 9.421875 75.984375 
L 18.40625 75.984375 
L 18.40625 0 
L 9.421875 0 
z
" id="DejaVuSans-108"/>
      <path d="M 54.890625 33.015625 
L 54.890625 0 
L 45.90625 0 
L 45.90625 32.71875 
Q 45.90625 40.484375 42.875 44.328125 
Q 39.84375 48.1875 33.796875 48.1875 
Q 26.515625 48.1875 22.3125 43.546875 
Q 18.109375 38.921875 18.109375 30.90625 
L 18.109375 0 
L 9.078125 0 
L 9.078125 54.6875 
L 18.109375 54.6875 
L 18.109375 46.1875 
Q 21.34375 51.125 25.703125 53.5625 
Q 30.078125 56 35.796875 56 
Q 45.21875 56 50.046875 50.171875 
Q 54.890625 44.34375 54.890625 33.015625 
z
" id="DejaVuSans-110"/>
      <path d="M 8.5 21.578125 
L 8.5 54.6875 
L 17.484375 54.6875 
L 17.484375 21.921875 
Q 17.484375 14.15625 20.5 10.265625 
Q 23.53125 6.390625 29.59375 6.390625 
Q 36.859375 6.390625 41.078125 11.03125 
Q 45.3125 15.671875 45.3125 23.6875 
L 45.3125 54.6875 
L 54.296875 54.6875 
L 54.296875 0 
L 45.3125 0 
L 45.3125 8.40625 
Q 42.046875 3.421875 37.71875 1 
Q 33.40625 -1.421875 27.6875 -1.421875 
Q 18.265625 -1.421875 13.375 4.4375 
Q 8.5 10.296875 8.5 21.578125 
z
M 31.109375 56 
z
" id="DejaVuSans-117"/>
      <path d="M 48.6875 27.296875 
Q 48.6875 37.203125 44.609375 42.84375 
Q 40.53125 48.484375 33.40625 48.484375 
Q 26.265625 48.484375 22.1875 42.84375 
Q 18.109375 37.203125 18.109375 27.296875 
Q 18.109375 17.390625 22.1875 11.75 
Q 26.265625 6.109375 33.40625 6.109375 
Q 40.53125 6.109375 44.609375 11.75 
Q 48.6875 17.390625 48.6875 27.296875 
z
M 18.109375 46.390625 
Q 20.953125 51.265625 25.265625 53.625 
Q 29.59375 56 35.59375 56 
Q 45.5625 56 51.78125 48.09375 
Q 58.015625 40.1875 58.015625 27.296875 
Q 58.015625 14.40625 51.78125 6.484375 
Q 45.5625 -1.421875 35.59375 -1.421875 
Q 29.59375 -1.421875 25.265625 0.953125 
Q 20.953125 3.328125 18.109375 8.203125 
L 18.109375 0 
L 9.078125 0 
L 9.078125 75.984375 
L 18.109375 75.984375 
z
" id="DejaVuSans-98"/>
      <path d="M 41.109375 46.296875 
Q 39.59375 47.171875 37.8125 47.578125 
Q 36.03125 48 33.890625 48 
Q 26.265625 48 22.1875 43.046875 
Q 18.109375 38.09375 18.109375 28.8125 
L 18.109375 0 
L 9.078125 0 
L 9.078125 54.6875 
L 18.109375 54.6875 
L 18.109375 46.1875 
Q 20.953125 51.171875 25.484375 53.578125 
Q 30.03125 56 36.53125 56 
Q 37.453125 56 38.578125 55.875 
Q 39.703125 55.765625 41.0625 55.515625 
z
" id="DejaVuSans-114"/>
     </defs>
     <g style="fill:#262626;" transform="translate(14.798438 187.685844)rotate(-90)scale(0.1 -0.1)">
      <use xlink:href="#DejaVuSans-99"/>
      <use x="54.980469" xlink:href="#DejaVuSans-101"/>
      <use x="116.503906" xlink:href="#DejaVuSans-108"/>
      <use x="144.287109" xlink:href="#DejaVuSans-108"/>
      <use x="172.070312" xlink:href="#DejaVuSans-115"/>
      <use x="224.169922" xlink:href="#DejaVuSans-32"/>
      <use x="255.957031" xlink:href="#DejaVuSans-110"/>
      <use x="319.335938" xlink:href="#DejaVuSans-117"/>
      <use x="382.714844" xlink:href="#DejaVuSans-109"/>
      <use x="480.126953" xlink:href="#DejaVuSans-98"/>
      <use x="543.603516" xlink:href="#DejaVuSans-101"/>
      <use x="605.126953" xlink:href="#DejaVuSans-114"/>
     </g>
    </g>
   </g>
   <g id="line2d_15">
    <path clip-path="url(#pa84e5675ea)" d="M 82.285852 276.334125 
L 84.450216 274.494118 
L 91.484398 269.049852 
L 93.648761 267.347397 
L 103.929489 259.606611 
L 105.552761 258.241059 
L 112.045852 253.450663 
L 114.210216 251.929617 
L 115.833489 250.641812 
L 117.456761 249.346033 
L 119.080034 248.090123 
L 120.703307 246.836208 
L 124.490943 243.865883 
L 150.463307 223.480285 
L 152.08658 222.148622 
L 155.874216 219.262025 
L 157.497489 218.022063 
L 159.120761 216.690401 
L 164.53167 212.563842 
L 175.89458 203.734602 
L 178.600034 201.645407 
L 184.552034 196.996549 
L 186.175307 195.822374 
L 193.209489 190.270458 
L 196.456034 187.766614 
L 206.736761 180.013867 
L 208.901125 178.369224 
L 225.133852 166.065301 
L 226.216034 165.293814 
L 227.298216 164.374807 
L 231.626943 161.133366 
L 236.496761 157.375606 
L 238.661125 155.796748 
L 239.743307 154.909638 
L 241.90767 153.40454 
L 245.154216 150.912657 
L 247.31858 149.357722 
L 257.599307 141.844196 
L 261.386943 139.039332 
L 265.17458 136.344111 
L 266.256761 135.568637 
L 268.421125 134.10939 
L 270.044398 132.857468 
L 272.749852 130.804156 
L 275.996398 128.35015 
L 280.866216 124.843571 
L 285.736034 121.257253 
L 319.824761 96.890622 
L 323.612398 94.340927 
L 335.516398 85.842608 
L 337.680761 84.267738 
L 342.009489 81.131952 
L 350.125852 75.075679 
L 352.831307 73.137991 
L 356.077852 70.889315 
L 359.324398 68.471192 
L 366.35858 63.553211 
L 378.26258 54.91734 
L 379.885852 53.707282 
L 381.509125 52.505197 
L 384.75567 50.220639 
L 396.11858 42.304424 
L 398.824034 40.524223 
L 405.317125 35.899287 
L 406.940398 34.725112 
L 406.940398 34.725112 
" style="fill:none;stroke:#000080;stroke-linecap:round;stroke-width:1.5;"/>
   </g>
   <g id="line2d_16">
    <path clip-path="url(#pa84e5675ea)" d="M 82.285852 276.334125 
L 84.450216 274.553924 
L 88.237852 271.539742 
L 94.189852 267.046378 
L 117.997852 248.399117 
L 120.703307 246.353779 
L 122.86767 244.683221 
L 127.196398 241.280305 
L 129.360761 239.607753 
L 136.394943 234.183421 
L 143.429125 228.773045 
L 146.67567 226.374856 
L 148.840034 224.632531 
L 156.415307 218.970973 
L 158.57967 217.206719 
L 165.072761 212.240894 
L 171.024761 207.472426 
L 175.353489 204.223011 
L 179.141125 201.370303 
L 181.305489 199.701738 
L 184.010943 197.574666 
L 196.456034 188.099529 
L 198.620398 186.444919 
L 199.70258 185.669445 
L 201.866943 183.949049 
L 205.113489 181.540893 
L 206.736761 180.28299 
L 241.36658 154.381359 
L 242.989852 153.239079 
L 252.188398 146.503021 
L 254.352761 144.814521 
L 256.517125 143.229683 
L 282.489489 124.295357 
L 283.57167 123.569721 
L 285.194943 122.355675 
L 287.359307 120.836623 
L 288.98258 119.696337 
L 297.640034 113.315123 
L 301.42767 110.486337 
L 303.592034 108.965291 
L 306.83858 106.638869 
L 311.167307 103.578837 
L 317.660398 98.798408 
L 319.28367 97.584362 
L 325.776761 92.893641 
L 331.18767 89.028232 
L 333.352034 87.533102 
L 336.057489 85.521654 
L 365.817489 64.157243 
L 372.31058 59.675841 
L 374.474943 58.027211 
L 377.721489 55.603107 
L 390.16658 46.957269 
L 393.954216 44.345775 
L 400.447307 39.936138 
L 406.940398 35.438787 
L 406.940398 35.438787 
" style="fill:none;stroke:#0000f1;stroke-linecap:round;stroke-width:1.5;"/>
   </g>
   <g id="line2d_17">
    <path clip-path="url(#pa84e5675ea)" d="M 82.285852 276.334125 
L 84.450216 274.649612 
L 87.15567 272.446787 
L 90.402216 269.994774 
L 92.025489 268.740858 
L 93.648761 267.514852 
L 97.977489 264.074059 
L 115.833489 250.251085 
L 117.997852 248.546636 
L 123.949852 243.993467 
L 128.81967 240.181883 
L 134.77167 235.47322 
L 142.346943 229.542538 
L 145.593489 227.008791 
L 147.757852 225.344213 
L 152.62767 221.622336 
L 161.826216 214.806537 
L 167.778216 210.181602 
L 176.976761 203.226257 
L 179.682216 201.049348 
L 181.305489 199.763536 
L 184.010943 197.676335 
L 188.880761 194.074069 
L 190.504034 192.774302 
L 219.722943 170.7321 
L 229.46258 163.607307 
L 231.085852 162.387281 
L 232.709125 161.177223 
L 237.037852 157.905878 
L 244.613125 151.989151 
L 245.695307 151.090079 
L 247.31858 149.886001 
L 253.27058 145.50228 
L 256.517125 143.062228 
L 265.17458 136.890332 
L 266.797852 135.732104 
L 271.66767 132.18765 
L 278.701852 126.845052 
L 281.407307 124.891416 
L 286.818216 120.762863 
L 288.98258 119.132175 
L 293.311307 115.805012 
L 297.640034 112.806779 
L 299.804398 111.241876 
L 301.968761 109.668999 
L 304.674216 107.731311 
L 306.297489 106.634882 
L 308.461852 105.133772 
L 319.824761 97.195628 
L 333.893125 86.785537 
L 343.09167 80.410303 
L 345.797125 78.434738 
L 356.077852 71.321906 
L 357.701125 70.119822 
L 360.94767 67.855198 
L 362.570943 66.613244 
L 365.817489 64.34862 
L 378.80367 55.341957 
L 380.426943 54.105983 
L 386.920034 49.485035 
L 405.317125 36.467437 
L 406.940398 35.335125 
L 406.940398 35.335125 
" style="fill:none;stroke:#004cff;stroke-linecap:round;stroke-width:1.5;"/>
   </g>
   <g id="line2d_18">
    <path clip-path="url(#pa84e5675ea)" d="M 82.285852 276.334125 
L 83.909125 274.950631 
L 90.943307 269.675813 
L 93.648761 267.668352 
L 95.813125 266.111423 
L 106.634943 257.782553 
L 107.717125 256.855572 
L 112.586943 253.089838 
L 115.292398 251.07839 
L 117.997852 248.989195 
L 121.244398 246.395643 
L 124.490943 243.90974 
L 127.196398 241.758747 
L 134.77167 236.053331 
L 139.641489 232.28959 
L 140.72367 231.510129 
L 141.805852 230.577168 
L 146.67567 226.823395 
L 148.840034 225.204668 
L 153.709852 221.36318 
L 156.956398 218.899206 
L 160.202943 216.449187 
L 161.285125 215.715576 
L 162.908398 214.403849 
L 167.778216 210.679979 
L 175.89458 204.368537 
L 179.682216 201.458017 
L 182.928761 198.874433 
L 186.175307 196.30879 
L 187.257489 195.381809 
L 188.33967 194.614309 
L 191.586216 192.132393 
L 193.75058 190.581445 
L 222.969489 168.329924 
L 239.202216 156.251268 
L 240.284398 155.415989 
L 243.530943 152.985904 
L 253.81167 145.318878 
L 255.434943 144.078917 
L 259.22258 141.3518 
L 260.845852 140.20354 
L 264.633489 137.462468 
L 266.797852 135.893578 
L 267.880034 135.088202 
L 271.12658 132.568409 
L 278.160761 127.498922 
L 281.948398 124.741903 
L 285.736034 122.166292 
L 290.064761 119.082337 
L 294.393489 115.9625 
L 296.016761 114.690642 
L 297.098943 113.945071 
L 299.263307 112.242616 
L 302.509852 109.836454 
L 318.74258 98.337908 
L 319.824761 97.484687 
L 321.989125 96.003511 
L 327.400034 92.26768 
L 333.352034 87.794251 
L 338.221852 84.437186 
L 345.797125 78.759679 
L 362.570943 66.950146 
L 364.735307 65.409166 
L 369.605125 61.874678 
L 370.687307 61.013484 
L 385.837852 50.254528 
L 387.461125 49.074373 
L 393.954216 44.770392 
L 396.11858 43.321112 
L 399.365125 41.184073 
L 400.988398 40.043788 
L 405.317125 36.931924 
L 406.940398 35.961086 
L 406.940398 35.961086 
" style="fill:none;stroke:#00b0ff;stroke-linecap:round;stroke-width:1.5;"/>
   </g>
   <g id="line2d_19">
    <path clip-path="url(#pa84e5675ea)" d="M 82.285852 276.334125 
L 86.61458 273.13654 
L 90.402216 270.210073 
L 92.56658 268.635203 
L 114.210216 251.365455 
L 116.91567 249.194526 
L 118.538943 247.984468 
L 120.703307 246.35976 
L 122.86767 244.768941 
L 125.032034 243.160182 
L 132.066216 237.821571 
L 133.148398 236.984298 
L 135.312761 235.307759 
L 138.018216 233.124869 
L 140.72367 231.039662 
L 181.84658 198.898355 
L 184.010943 197.247731 
L 187.79858 194.263452 
L 201.325852 183.933101 
L 206.736761 179.882295 
L 209.442216 177.789113 
L 212.688761 175.382951 
L 213.770943 174.5696 
L 217.55858 171.714899 
L 220.805125 169.404424 
L 229.46258 162.897619 
L 234.873489 158.808937 
L 237.037852 157.15632 
L 240.284398 154.833885 
L 242.989852 152.814463 
L 244.613125 151.692118 
L 252.188398 145.96278 
L 253.81167 144.782624 
L 272.208761 131.103182 
L 286.277125 120.461844 
L 319.824761 96.318485 
L 320.906943 95.626739 
L 325.23567 92.467031 
L 327.400034 90.987849 
L 332.810943 87.136394 
L 333.893125 86.285167 
L 340.927307 81.145907 
L 344.173852 78.933114 
L 351.749125 73.329367 
L 353.372398 72.29075 
L 357.701125 69.222744 
L 377.180398 55.529347 
L 380.968034 52.919847 
L 385.837852 49.564775 
L 387.461125 48.386613 
L 390.16658 46.377158 
L 393.954216 43.789587 
L 395.577489 42.655281 
L 403.693852 37.063495 
L 405.858216 35.486632 
L 406.940398 34.699196 
L 406.940398 34.699196 
" style="fill:none;stroke:#29ffce;stroke-linecap:round;stroke-width:1.5;"/>
   </g>
   <g id="line2d_20">
    <path clip-path="url(#pa84e5675ea)" d="M 82.285852 276.334125 
L 85.532398 273.70469 
L 91.484398 269.097696 
L 94.189852 267.080267 
L 99.600761 262.893903 
L 130.984034 238.495376 
L 136.394943 234.081753 
L 137.477125 233.28435 
L 141.805852 229.883428 
L 145.052398 227.503181 
L 147.757852 225.555525 
L 152.62767 221.839629 
L 168.319307 209.691199 
L 171.024761 207.66181 
L 173.189125 205.97929 
L 175.89458 203.929965 
L 178.058943 202.307251 
L 179.682216 201.129088 
L 184.010943 197.841796 
L 191.586216 192.030724 
L 193.75058 190.413991 
L 196.997125 187.852335 
L 215.935307 173.596769 
L 217.55858 172.412626 
L 219.722943 170.797886 
L 238.120034 157.50319 
L 240.825489 155.485761 
L 242.448761 154.295638 
L 247.85967 150.412287 
L 250.565125 148.279235 
L 273.290943 131.934474 
L 275.455307 130.331695 
L 278.701852 127.939487 
L 280.325125 126.67361 
L 286.277125 122.224104 
L 287.900398 121.131662 
L 289.52367 120.039221 
L 290.605852 119.267733 
L 294.393489 116.357214 
L 300.345489 112.152908 
L 302.509852 110.524214 
L 308.461852 106.188337 
L 312.249489 103.481155 
L 313.872761 102.334888 
L 317.119307 100.102161 
L 323.612398 95.541018 
L 329.564398 91.296842 
L 333.893125 88.374362 
L 359.324398 70.412867 
L 362.029852 68.473185 
L 366.35858 65.395211 
L 369.064034 63.533276 
L 371.769489 61.533789 
L 394.495307 45.613645 
L 395.577489 44.82621 
L 397.741852 43.390885 
L 406.940398 36.977774 
L 406.940398 36.977774 
" style="fill:none;stroke:#7dff7a;stroke-linecap:round;stroke-width:1.5;"/>
   </g>
   <g id="line2d_21">
    <path clip-path="url(#pa84e5675ea)" d="M 82.285852 276.334125 
L 86.073489 273.294027 
L 90.943307 269.484436 
L 93.648761 267.447073 
L 95.272034 266.314761 
L 96.354216 265.477488 
L 100.682943 262.281897 
L 103.929489 259.807955 
L 105.552761 258.571981 
L 113.128034 252.551591 
L 116.37458 250.187292 
L 121.785489 245.903247 
L 126.655307 241.890318 
L 128.81967 240.201818 
L 143.429125 228.448103 
L 148.840034 224.213895 
L 149.922216 223.448388 
L 152.08658 221.773843 
L 158.03858 217.124985 
L 160.744034 214.896245 
L 164.53167 212.065466 
L 173.189125 205.355322 
L 174.812398 204.071504 
L 179.141125 200.828069 
L 182.38767 198.479718 
L 184.010943 197.249725 
L 185.634216 196.077543 
L 187.79858 194.367114 
L 189.962943 192.628776 
L 191.586216 191.342965 
L 198.620398 186.074127 
L 200.24367 184.77436 
L 201.866943 183.652016 
L 207.818943 179.070938 
L 209.442216 177.777152 
L 212.688761 175.311185 
L 220.805125 169.11736 
L 223.51058 167.235489 
L 238.120034 156.578203 
L 239.743307 155.408015 
L 255.976034 143.333345 
L 258.140398 141.710631 
L 260.304761 140.067981 
L 261.386943 139.28254 
L 262.469125 138.419351 
L 265.17458 136.489637 
L 267.338943 134.900812 
L 270.044398 132.943189 
L 271.66767 131.703228 
L 278.160761 126.74139 
L 281.948398 123.926558 
L 283.03058 123.067357 
L 284.653852 121.941026 
L 287.359307 119.99337 
L 291.688034 116.955266 
L 308.461852 104.854681 
L 313.872761 101.003226 
L 320.365852 96.242732 
L 324.153489 93.621271 
L 327.400034 91.284881 
L 329.564398 89.765829 
L 332.269852 87.871998 
L 333.893125 86.649978 
L 336.59858 84.800004 
L 362.029852 66.990016 
L 365.276398 64.569899 
L 367.981852 62.666101 
L 369.605125 61.601568 
L 382.591307 52.401535 
L 389.084398 47.983924 
L 390.70767 46.905437 
L 399.906216 40.450463 
L 404.234943 37.474158 
L 406.940398 35.506567 
L 406.940398 35.506567 
" style="fill:none;stroke:#ceff29;stroke-linecap:round;stroke-width:1.5;"/>
   </g>
   <g id="line2d_22">
    <path clip-path="url(#pa84e5675ea)" d="M 82.285852 276.334125 
L 90.943307 269.56019 
L 93.10767 267.929501 
L 94.730943 266.617774 
L 95.813125 265.834326 
L 97.436398 264.594365 
L 102.306216 260.866507 
L 104.47058 259.185981 
L 106.634943 257.483527 
L 108.258216 256.231604 
L 123.949852 243.806078 
L 126.655307 241.776688 
L 128.81967 240.03835 
L 133.148398 236.685272 
L 134.77167 235.455279 
L 139.641489 231.619772 
L 141.264761 230.290103 
L 147.216761 225.623304 
L 151.004398 222.686869 
L 156.956398 217.996148 
L 159.120761 216.361472 
L 174.271307 204.617725 
L 175.353489 203.748556 
L 176.976761 202.564413 
L 179.141125 200.770257 
L 181.84658 198.708971 
L 185.093125 196.250978 
L 192.668398 190.507685 
L 195.914943 187.977925 
L 214.853125 173.712392 
L 217.017489 172.097652 
L 220.805125 169.228996 
L 225.674943 165.620749 
L 227.298216 164.52432 
L 229.46258 162.957424 
L 230.544761 162.132112 
L 236.496761 157.814177 
L 237.578943 157.072593 
L 242.989852 153.061657 
L 245.695307 150.98841 
L 247.31858 149.762404 
L 248.941852 148.538391 
L 251.647307 146.622631 
L 253.27058 145.3428 
L 257.599307 141.985735 
L 268.421125 134.087462 
L 274.373125 129.721682 
L 276.537489 128.148805 
L 279.242943 126.197162 
L 281.407307 124.668143 
L 285.736034 121.576214 
L 296.557852 113.642058 
L 300.345489 110.871084 
L 304.674216 107.789122 
L 311.167307 102.942908 
L 314.413852 100.696226 
L 315.496034 99.894836 
L 316.578216 99.127336 
L 318.201489 97.90731 
L 319.28367 97.225531 
L 326.317852 92.168005 
L 328.482216 90.642972 
L 336.59858 84.883732 
L 340.386216 82.106777 
L 344.173852 79.41953 
L 350.125852 75.245127 
L 352.290216 73.74003 
L 353.913489 72.581802 
L 357.701125 69.924458 
L 362.570943 66.407912 
L 364.194216 65.247692 
L 365.817489 64.047601 
L 372.31058 59.564204 
L 401.529489 38.809807 
L 406.940398 35.093911 
L 406.940398 35.093911 
" style="fill:none;stroke:#ffc400;stroke-linecap:round;stroke-width:1.5;"/>
   </g>
   <g id="line2d_23">
    <path clip-path="url(#pa84e5675ea)" d="M 82.285852 276.334125 
L 86.073489 273.198339 
L 89.320034 270.690508 
L 90.943307 269.350871 
L 96.354216 265.236274 
L 99.05967 263.137111 
L 100.682943 261.89117 
L 104.47058 259.058397 
L 106.093852 257.78654 
L 109.881489 254.921871 
L 132.066216 237.674051 
L 133.689489 236.382259 
L 138.018216 233.043136 
L 145.593489 227.034707 
L 147.216761 225.906382 
L 154.792034 219.94181 
L 156.415307 218.75368 
L 157.497489 217.846635 
L 166.696034 210.534453 
L 168.860398 208.638628 
L 171.565852 206.467699 
L 174.271307 204.500108 
L 184.010943 196.924783 
L 186.716398 194.937257 
L 188.880761 193.294608 
L 192.668398 190.410004 
L 196.456034 187.511445 
L 199.161489 185.543854 
L 203.490216 182.224665 
L 245.695307 150.470099 
L 251.647307 146.048501 
L 268.962216 133.106656 
L 270.585489 131.900585 
L 275.996398 127.81589 
L 277.61967 126.621779 
L 304.133125 107.410356 
L 306.297489 105.825518 
L 308.461852 104.190843 
L 310.626216 102.707674 
L 312.79058 101.194603 
L 314.413852 99.964609 
L 316.578216 98.393726 
L 323.071307 93.714966 
L 325.23567 92.07431 
L 331.18767 87.800232 
L 332.810943 86.669914 
L 343.632761 78.843407 
L 347.420398 76.0824 
L 356.077852 70.183614 
L 357.701125 69.099146 
L 360.40658 67.241198 
L 365.276398 63.953906 
L 382.050216 52.273951 
L 383.673489 51.15958 
L 386.920034 48.859074 
L 401.529489 38.951346 
L 404.776034 36.720612 
L 406.940398 35.213521 
L 406.940398 35.213521 
" style="fill:none;stroke:#ff6800;stroke-linecap:round;stroke-width:1.5;"/>
   </g>
   <g id="line2d_24">
    <path clip-path="url(#pa84e5675ea)" d="M 82.285852 276.334125 
L 83.909125 275.04632 
L 85.532398 273.746553 
L 97.436398 264.57443 
L 99.05967 263.244761 
L 102.306216 260.854546 
L 108.799307 255.697345 
L 113.128034 252.124981 
L 115.833489 250.093598 
L 120.162216 246.646825 
L 146.13458 226.340966 
L 148.840034 224.166051 
L 171.565852 206.78666 
L 173.189125 205.554673 
L 174.271307 204.721387 
L 176.43567 203.120602 
L 178.600034 201.432101 
L 181.305489 199.301043 
L 184.552034 196.860991 
L 188.33967 193.884686 
L 190.504034 192.21014 
L 199.161489 185.637549 
L 205.113489 181.144185 
L 207.277852 179.497548 
L 212.14767 175.7976 
L 215.394216 173.223983 
L 222.969489 167.414905 
L 224.05167 166.5876 
L 225.133852 165.758301 
L 230.00367 161.902859 
L 240.825489 153.89295 
L 241.90767 153.099534 
L 243.530943 151.93732 
L 250.565125 146.670475 
L 258.140398 141.228202 
L 259.76367 139.918468 
L 272.749852 130.335682 
L 275.996398 127.977364 
L 279.242943 125.656922 
L 281.948398 123.623545 
L 283.57167 122.381591 
L 288.98258 118.338759 
L 302.509852 108.484856 
L 304.674216 106.931915 
L 305.756398 106.106603 
L 307.920761 104.627421 
L 316.037125 98.746577 
L 338.762943 82.453647 
L 349.584761 74.724822 
L 351.208034 73.590517 
L 352.290216 72.781153 
L 353.372398 72.083426 
L 356.618943 69.808835 
L 358.242216 68.702439 
L 364.194216 64.366562 
L 366.35858 62.951172 
L 385.296761 49.574743 
L 388.543307 47.226392 
L 395.036398 42.709106 
L 396.11858 41.818009 
L 398.282943 40.396638 
L 399.365125 39.676982 
L 402.07058 37.775177 
L 404.776034 35.915235 
L 406.940398 34.414125 
L 406.940398 34.414125 
" style="fill:none;stroke:#f10800;stroke-linecap:round;stroke-width:1.5;"/>
   </g>
   <g id="patch_3">
    <path d="M 66.053125 288.430125 
L 66.053125 22.318125 
" style="fill:none;stroke:#cccccc;stroke-linecap:square;stroke-linejoin:miter;stroke-width:0.8;"/>
   </g>
   <g id="patch_4">
    <path d="M 423.173125 288.430125 
L 423.173125 22.318125 
" style="fill:none;stroke:#cccccc;stroke-linecap:square;stroke-linejoin:miter;stroke-width:0.8;"/>
   </g>
   <g id="patch_5">
    <path d="M 66.053125 288.430125 
L 423.173125 288.430125 
" style="fill:none;stroke:#cccccc;stroke-linecap:square;stroke-linejoin:miter;stroke-width:0.8;"/>
   </g>
   <g id="patch_6">
    <path d="M 66.053125 22.318125 
L 423.173125 22.318125 
" style="fill:none;stroke:#cccccc;stroke-linecap:square;stroke-linejoin:miter;stroke-width:0.8;"/>
   </g>
   <g id="text_17">
    <!-- Naive T CD4 -->
    <defs>
     <path d="M 9.8125 72.90625 
L 23.09375 72.90625 
L 55.421875 11.921875 
L 55.421875 72.90625 
L 64.984375 72.90625 
L 64.984375 0 
L 51.703125 0 
L 19.390625 60.984375 
L 19.390625 0 
L 9.8125 0 
z
" id="DejaVuSans-78"/>
     <path d="M 2.984375 54.6875 
L 12.5 54.6875 
L 29.59375 8.796875 
L 46.6875 54.6875 
L 56.203125 54.6875 
L 35.6875 0 
L 23.484375 0 
z
" id="DejaVuSans-118"/>
     <path d="M -0.296875 72.90625 
L 61.375 72.90625 
L 61.375 64.59375 
L 35.5 64.59375 
L 35.5 0 
L 25.59375 0 
L 25.59375 64.59375 
L -0.296875 64.59375 
z
" id="DejaVuSans-84"/>
     <path d="M 64.40625 67.28125 
L 64.40625 56.890625 
Q 59.421875 61.53125 53.78125 63.8125 
Q 48.140625 66.109375 41.796875 66.109375 
Q 29.296875 66.109375 22.65625 58.46875 
Q 16.015625 50.828125 16.015625 36.375 
Q 16.015625 21.96875 22.65625 14.328125 
Q 29.296875 6.6875 41.796875 6.6875 
Q 48.140625 6.6875 53.78125 8.984375 
Q 59.421875 11.28125 64.40625 15.921875 
L 64.40625 5.609375 
Q 59.234375 2.09375 53.4375 0.328125 
Q 47.65625 -1.421875 41.21875 -1.421875 
Q 24.65625 -1.421875 15.125 8.703125 
Q 5.609375 18.84375 5.609375 36.375 
Q 5.609375 53.953125 15.125 64.078125 
Q 24.65625 74.21875 41.21875 74.21875 
Q 47.75 74.21875 53.53125 72.484375 
Q 59.328125 70.75 64.40625 67.28125 
z
" id="DejaVuSans-67"/>
     <path d="M 19.671875 64.796875 
L 19.671875 8.109375 
L 31.59375 8.109375 
Q 46.6875 8.109375 53.6875 14.9375 
Q 60.6875 21.78125 60.6875 36.53125 
Q 60.6875 51.171875 53.6875 57.984375 
Q 46.6875 64.796875 31.59375 64.796875 
z
M 9.8125 72.90625 
L 30.078125 72.90625 
Q 51.265625 72.90625 61.171875 64.09375 
Q 71.09375 55.28125 71.09375 36.53125 
Q 71.09375 17.671875 61.125 8.828125 
Q 51.171875 0 30.078125 0 
L 9.8125 0 
z
" id="DejaVuSans-68"/>
    </defs>
    <g style="fill:#262626;" transform="translate(207.431875 16.318125)scale(0.12 -0.12)">
     <use xlink:href="#DejaVuSans-78"/>
     <use x="74.804688" xlink:href="#DejaVuSans-97"/>
     <use x="136.083984" xlink:href="#DejaVuSans-105"/>
     <use x="163.867188" xlink:href="#DejaVuSans-118"/>
     <use x="223.046875" xlink:href="#DejaVuSans-101"/>
     <use x="284.570312" xlink:href="#DejaVuSans-32"/>
     <use x="316.357422" xlink:href="#DejaVuSans-84"/>
     <use x="377.441406" xlink:href="#DejaVuSans-32"/>
     <use x="409.228516" xlink:href="#DejaVuSans-67"/>
     <use x="479.052734" xlink:href="#DejaVuSans-68"/>
     <use x="556.054688" xlink:href="#DejaVuSans-52"/>
    </g>
   </g>
  </g>
 </g>
 <defs>
  <clipPath id="pa84e5675ea">
   <rect height="266.112" width="357.12" x="66.053125" y="22.318125"/>
  </clipPath>
 </defs>
</svg>
