<?xml version="1.0" encoding="utf-8" standalone="no"?>
<!DOCTYPE svg PUBLIC "-//W3C//DTD SVG 1.1//EN"
  "http://www.w3.org/Graphics/SVG/1.1/DTD/svg11.dtd">
<!-- Created with matplotlib (https://matplotlib.org/) -->
<svg height="325.986375pt" version="1.1" viewBox="0 0 404.923125 325.986375" width="404.923125pt" xmlns="http://www.w3.org/2000/svg" xmlns:xlink="http://www.w3.org/1999/xlink">
 <defs>
  <style type="text/css">
*{stroke-linecap:butt;stroke-linejoin:round;white-space:pre;}
  </style>
 </defs>
 <g id="figure_1">
  <g id="patch_1">
   <path d="M 0 325.986375 
L 404.923125 325.986375 
L 404.923125 0 
L 0 0 
z
" style="fill:#ffffff;"/>
  </g>
  <g id="axes_1">
   <g id="patch_2">
    <path d="M 40.603125 288.430125 
L 397.723125 288.430125 
L 397.723125 22.318125 
L 40.603125 22.318125 
z
" style="fill:#ffffff;"/>
   </g>
   <g id="matplotlib.axis_1">
    <g id="xtick_1">
     <g id="line2d_1">
      <path clip-path="url(#pb258facf13)" d="M 56.835852 288.430125 
L 56.835852 22.318125 
" style="fill:none;stroke:#cccccc;stroke-linecap:round;stroke-width:0.8;"/>
     </g>
     <g id="text_1">
      <!-- 0 -->
      <defs>
       <path d="M 31.78125 66.40625 
Q 24.171875 66.40625 20.328125 58.90625 
Q 16.5 51.421875 16.5 36.375 
Q 16.5 21.390625 20.328125 13.890625 
Q 24.171875 6.390625 31.78125 6.390625 
Q 39.453125 6.390625 43.28125 13.890625 
Q 47.125 21.390625 47.125 36.375 
Q 47.125 51.421875 43.28125 58.90625 
Q 39.453125 66.40625 31.78125 66.40625 
z
M 31.78125 74.21875 
Q 44.046875 74.21875 50.515625 64.515625 
Q 56.984375 54.828125 56.984375 36.375 
Q 56.984375 17.96875 50.515625 8.265625 
Q 44.046875 -1.421875 31.78125 -1.421875 
Q 19.53125 -1.421875 13.0625 8.265625 
Q 6.59375 17.96875 6.59375 36.375 
Q 6.59375 54.828125 13.0625 64.515625 
Q 19.53125 74.21875 31.78125 74.21875 
z
" id="DejaVuSans-48"/>
      </defs>
      <g style="fill:#262626;" transform="translate(53.654602 303.028562)scale(0.1 -0.1)">
       <use xlink:href="#DejaVuSans-48"/>
      </g>
     </g>
    </g>
    <g id="xtick_2">
     <g id="line2d_2">
      <path clip-path="url(#pb258facf13)" d="M 111.035276 288.430125 
L 111.035276 22.318125 
" style="fill:none;stroke:#cccccc;stroke-linecap:round;stroke-width:0.8;"/>
     </g>
     <g id="text_2">
      <!-- 10 -->
      <defs>
       <path d="M 12.40625 8.296875 
L 28.515625 8.296875 
L 28.515625 63.921875 
L 10.984375 60.40625 
L 10.984375 69.390625 
L 28.421875 72.90625 
L 38.28125 72.90625 
L 38.28125 8.296875 
L 54.390625 8.296875 
L 54.390625 0 
L 12.40625 0 
z
" id="DejaVuSans-49"/>
      </defs>
      <g style="fill:#262626;" transform="translate(104.672776 303.028562)scale(0.1 -0.1)">
       <use xlink:href="#DejaVuSans-49"/>
       <use x="63.623047" xlink:href="#DejaVuSans-48"/>
      </g>
     </g>
    </g>
    <g id="xtick_3">
     <g id="line2d_3">
      <path clip-path="url(#pb258facf13)" d="M 165.234699 288.430125 
L 165.234699 22.318125 
" style="fill:none;stroke:#cccccc;stroke-linecap:round;stroke-width:0.8;"/>
     </g>
     <g id="text_3">
      <!-- 20 -->
      <defs>
       <path d="M 19.1875 8.296875 
L 53.609375 8.296875 
L 53.609375 0 
L 7.328125 0 
L 7.328125 8.296875 
Q 12.9375 14.109375 22.625 23.890625 
Q 32.328125 33.6875 34.8125 36.53125 
Q 39.546875 41.84375 41.421875 45.53125 
Q 43.3125 49.21875 43.3125 52.78125 
Q 43.3125 58.59375 39.234375 62.25 
Q 35.15625 65.921875 28.609375 65.921875 
Q 23.96875 65.921875 18.8125 64.3125 
Q 13.671875 62.703125 7.8125 59.421875 
L 7.8125 69.390625 
Q 13.765625 71.78125 18.9375 73 
Q 24.125 74.21875 28.421875 74.21875 
Q 39.75 74.21875 46.484375 68.546875 
Q 53.21875 62.890625 53.21875 53.421875 
Q 53.21875 48.921875 51.53125 44.890625 
Q 49.859375 40.875 45.40625 35.40625 
Q 44.1875 33.984375 37.640625 27.21875 
Q 31.109375 20.453125 19.1875 8.296875 
z
" id="DejaVuSans-50"/>
      </defs>
      <g style="fill:#262626;" transform="translate(158.872199 303.028562)scale(0.1 -0.1)">
       <use xlink:href="#DejaVuSans-50"/>
       <use x="63.623047" xlink:href="#DejaVuSans-48"/>
      </g>
     </g>
    </g>
    <g id="xtick_4">
     <g id="line2d_4">
      <path clip-path="url(#pb258facf13)" d="M 219.434122 288.430125 
L 219.434122 22.318125 
" style="fill:none;stroke:#cccccc;stroke-linecap:round;stroke-width:0.8;"/>
     </g>
     <g id="text_4">
      <!-- 30 -->
      <defs>
       <path d="M 40.578125 39.3125 
Q 47.65625 37.796875 51.625 33 
Q 55.609375 28.21875 55.609375 21.1875 
Q 55.609375 10.40625 48.1875 4.484375 
Q 40.765625 -1.421875 27.09375 -1.421875 
Q 22.515625 -1.421875 17.65625 -0.515625 
Q 12.796875 0.390625 7.625 2.203125 
L 7.625 11.71875 
Q 11.71875 9.328125 16.59375 8.109375 
Q 21.484375 6.890625 26.8125 6.890625 
Q 36.078125 6.890625 40.9375 10.546875 
Q 45.796875 14.203125 45.796875 21.1875 
Q 45.796875 27.640625 41.28125 31.265625 
Q 36.765625 34.90625 28.71875 34.90625 
L 20.21875 34.90625 
L 20.21875 43.015625 
L 29.109375 43.015625 
Q 36.375 43.015625 40.234375 45.921875 
Q 44.09375 48.828125 44.09375 54.296875 
Q 44.09375 59.90625 40.109375 62.90625 
Q 36.140625 65.921875 28.71875 65.921875 
Q 24.65625 65.921875 20.015625 65.03125 
Q 15.375 64.15625 9.8125 62.3125 
L 9.8125 71.09375 
Q 15.4375 72.65625 20.34375 73.4375 
Q 25.25 74.21875 29.59375 74.21875 
Q 40.828125 74.21875 47.359375 69.109375 
Q 53.90625 64.015625 53.90625 55.328125 
Q 53.90625 49.265625 50.4375 45.09375 
Q 46.96875 40.921875 40.578125 39.3125 
z
" id="DejaVuSans-51"/>
      </defs>
      <g style="fill:#262626;" transform="translate(213.071622 303.028562)scale(0.1 -0.1)">
       <use xlink:href="#DejaVuSans-51"/>
       <use x="63.623047" xlink:href="#DejaVuSans-48"/>
      </g>
     </g>
    </g>
    <g id="xtick_5">
     <g id="line2d_5">
      <path clip-path="url(#pb258facf13)" d="M 273.633545 288.430125 
L 273.633545 22.318125 
" style="fill:none;stroke:#cccccc;stroke-linecap:round;stroke-width:0.8;"/>
     </g>
     <g id="text_5">
      <!-- 40 -->
      <defs>
       <path d="M 37.796875 64.3125 
L 12.890625 25.390625 
L 37.796875 25.390625 
z
M 35.203125 72.90625 
L 47.609375 72.90625 
L 47.609375 25.390625 
L 58.015625 25.390625 
L 58.015625 17.1875 
L 47.609375 17.1875 
L 47.609375 0 
L 37.796875 0 
L 37.796875 17.1875 
L 4.890625 17.1875 
L 4.890625 26.703125 
z
" id="DejaVuSans-52"/>
      </defs>
      <g style="fill:#262626;" transform="translate(267.271045 303.028562)scale(0.1 -0.1)">
       <use xlink:href="#DejaVuSans-52"/>
       <use x="63.623047" xlink:href="#DejaVuSans-48"/>
      </g>
     </g>
    </g>
    <g id="xtick_6">
     <g id="line2d_6">
      <path clip-path="url(#pb258facf13)" d="M 327.832969 288.430125 
L 327.832969 22.318125 
" style="fill:none;stroke:#cccccc;stroke-linecap:round;stroke-width:0.8;"/>
     </g>
     <g id="text_6">
      <!-- 50 -->
      <defs>
       <path d="M 10.796875 72.90625 
L 49.515625 72.90625 
L 49.515625 64.59375 
L 19.828125 64.59375 
L 19.828125 46.734375 
Q 21.96875 47.46875 24.109375 47.828125 
Q 26.265625 48.1875 28.421875 48.1875 
Q 40.625 48.1875 47.75 41.5 
Q 54.890625 34.8125 54.890625 23.390625 
Q 54.890625 11.625 47.5625 5.09375 
Q 40.234375 -1.421875 26.90625 -1.421875 
Q 22.3125 -1.421875 17.546875 -0.640625 
Q 12.796875 0.140625 7.71875 1.703125 
L 7.71875 11.625 
Q 12.109375 9.234375 16.796875 8.0625 
Q 21.484375 6.890625 26.703125 6.890625 
Q 35.15625 6.890625 40.078125 11.328125 
Q 45.015625 15.765625 45.015625 23.390625 
Q 45.015625 31 40.078125 35.4375 
Q 35.15625 39.890625 26.703125 39.890625 
Q 22.75 39.890625 18.8125 39.015625 
Q 14.890625 38.140625 10.796875 36.28125 
z
" id="DejaVuSans-53"/>
      </defs>
      <g style="fill:#262626;" transform="translate(321.470469 303.028562)scale(0.1 -0.1)">
       <use xlink:href="#DejaVuSans-53"/>
       <use x="63.623047" xlink:href="#DejaVuSans-48"/>
      </g>
     </g>
    </g>
    <g id="xtick_7">
     <g id="line2d_7">
      <path clip-path="url(#pb258facf13)" d="M 382.032392 288.430125 
L 382.032392 22.318125 
" style="fill:none;stroke:#cccccc;stroke-linecap:round;stroke-width:0.8;"/>
     </g>
     <g id="text_7">
      <!-- 60 -->
      <defs>
       <path d="M 33.015625 40.375 
Q 26.375 40.375 22.484375 35.828125 
Q 18.609375 31.296875 18.609375 23.390625 
Q 18.609375 15.53125 22.484375 10.953125 
Q 26.375 6.390625 33.015625 6.390625 
Q 39.65625 6.390625 43.53125 10.953125 
Q 47.40625 15.53125 47.40625 23.390625 
Q 47.40625 31.296875 43.53125 35.828125 
Q 39.65625 40.375 33.015625 40.375 
z
M 52.59375 71.296875 
L 52.59375 62.3125 
Q 48.875 64.0625 45.09375 64.984375 
Q 41.3125 65.921875 37.59375 65.921875 
Q 27.828125 65.921875 22.671875 59.328125 
Q 17.53125 52.734375 16.796875 39.40625 
Q 19.671875 43.65625 24.015625 45.921875 
Q 28.375 48.1875 33.59375 48.1875 
Q 44.578125 48.1875 50.953125 41.515625 
Q 57.328125 34.859375 57.328125 23.390625 
Q 57.328125 12.15625 50.6875 5.359375 
Q 44.046875 -1.421875 33.015625 -1.421875 
Q 20.359375 -1.421875 13.671875 8.265625 
Q 6.984375 17.96875 6.984375 36.375 
Q 6.984375 53.65625 15.1875 63.9375 
Q 23.390625 74.21875 37.203125 74.21875 
Q 40.921875 74.21875 44.703125 73.484375 
Q 48.484375 72.75 52.59375 71.296875 
z
" id="DejaVuSans-54"/>
      </defs>
      <g style="fill:#262626;" transform="translate(375.669892 303.028562)scale(0.1 -0.1)">
       <use xlink:href="#DejaVuSans-54"/>
       <use x="63.623047" xlink:href="#DejaVuSans-48"/>
      </g>
     </g>
    </g>
    <g id="text_8">
     <!-- time (days) -->
     <defs>
      <path d="M 18.3125 70.21875 
L 18.3125 54.6875 
L 36.8125 54.6875 
L 36.8125 47.703125 
L 18.3125 47.703125 
L 18.3125 18.015625 
Q 18.3125 11.328125 20.140625 9.421875 
Q 21.96875 7.515625 27.59375 7.515625 
L 36.8125 7.515625 
L 36.8125 0 
L 27.59375 0 
Q 17.1875 0 13.234375 3.875 
Q 9.28125 7.765625 9.28125 18.015625 
L 9.28125 47.703125 
L 2.6875 47.703125 
L 2.6875 54.6875 
L 9.28125 54.6875 
L 9.28125 70.21875 
z
" id="DejaVuSans-116"/>
      <path d="M 9.421875 54.6875 
L 18.40625 54.6875 
L 18.40625 0 
L 9.421875 0 
z
M 9.421875 75.984375 
L 18.40625 75.984375 
L 18.40625 64.59375 
L 9.421875 64.59375 
z
" id="DejaVuSans-105"/>
      <path d="M 52 44.1875 
Q 55.375 50.25 60.0625 53.125 
Q 64.75 56 71.09375 56 
Q 79.640625 56 84.28125 50.015625 
Q 88.921875 44.046875 88.921875 33.015625 
L 88.921875 0 
L 79.890625 0 
L 79.890625 32.71875 
Q 79.890625 40.578125 77.09375 44.375 
Q 74.3125 48.1875 68.609375 48.1875 
Q 61.625 48.1875 57.5625 43.546875 
Q 53.515625 38.921875 53.515625 30.90625 
L 53.515625 0 
L 44.484375 0 
L 44.484375 32.71875 
Q 44.484375 40.625 41.703125 44.40625 
Q 38.921875 48.1875 33.109375 48.1875 
Q 26.21875 48.1875 22.15625 43.53125 
Q 18.109375 38.875 18.109375 30.90625 
L 18.109375 0 
L 9.078125 0 
L 9.078125 54.6875 
L 18.109375 54.6875 
L 18.109375 46.1875 
Q 21.1875 51.21875 25.484375 53.609375 
Q 29.78125 56 35.6875 56 
Q 41.65625 56 45.828125 52.96875 
Q 50 49.953125 52 44.1875 
z
" id="DejaVuSans-109"/>
      <path d="M 56.203125 29.59375 
L 56.203125 25.203125 
L 14.890625 25.203125 
Q 15.484375 15.921875 20.484375 11.0625 
Q 25.484375 6.203125 34.421875 6.203125 
Q 39.59375 6.203125 44.453125 7.46875 
Q 49.3125 8.734375 54.109375 11.28125 
L 54.109375 2.78125 
Q 49.265625 0.734375 44.1875 -0.34375 
Q 39.109375 -1.421875 33.890625 -1.421875 
Q 20.796875 -1.421875 13.15625 6.1875 
Q 5.515625 13.8125 5.515625 26.8125 
Q 5.515625 40.234375 12.765625 48.109375 
Q 20.015625 56 32.328125 56 
Q 43.359375 56 49.78125 48.890625 
Q 56.203125 41.796875 56.203125 29.59375 
z
M 47.21875 32.234375 
Q 47.125 39.59375 43.09375 43.984375 
Q 39.0625 48.390625 32.421875 48.390625 
Q 24.90625 48.390625 20.390625 44.140625 
Q 15.875 39.890625 15.1875 32.171875 
z
" id="DejaVuSans-101"/>
      <path id="DejaVuSans-32"/>
      <path d="M 31 75.875 
Q 24.46875 64.65625 21.28125 53.65625 
Q 18.109375 42.671875 18.109375 31.390625 
Q 18.109375 20.125 21.3125 9.0625 
Q 24.515625 -2 31 -13.1875 
L 23.1875 -13.1875 
Q 15.875 -1.703125 12.234375 9.375 
Q 8.59375 20.453125 8.59375 31.390625 
Q 8.59375 42.28125 12.203125 53.3125 
Q 15.828125 64.359375 23.1875 75.875 
z
" id="DejaVuSans-40"/>
      <path d="M 45.40625 46.390625 
L 45.40625 75.984375 
L 54.390625 75.984375 
L 54.390625 0 
L 45.40625 0 
L 45.40625 8.203125 
Q 42.578125 3.328125 38.25 0.953125 
Q 33.9375 -1.421875 27.875 -1.421875 
Q 17.96875 -1.421875 11.734375 6.484375 
Q 5.515625 14.40625 5.515625 27.296875 
Q 5.515625 40.1875 11.734375 48.09375 
Q 17.96875 56 27.875 56 
Q 33.9375 56 38.25 53.625 
Q 42.578125 51.265625 45.40625 46.390625 
z
M 14.796875 27.296875 
Q 14.796875 17.390625 18.875 11.75 
Q 22.953125 6.109375 30.078125 6.109375 
Q 37.203125 6.109375 41.296875 11.75 
Q 45.40625 17.390625 45.40625 27.296875 
Q 45.40625 37.203125 41.296875 42.84375 
Q 37.203125 48.484375 30.078125 48.484375 
Q 22.953125 48.484375 18.875 42.84375 
Q 14.796875 37.203125 14.796875 27.296875 
z
" id="DejaVuSans-100"/>
      <path d="M 34.28125 27.484375 
Q 23.390625 27.484375 19.1875 25 
Q 14.984375 22.515625 14.984375 16.5 
Q 14.984375 11.71875 18.140625 8.90625 
Q 21.296875 6.109375 26.703125 6.109375 
Q 34.1875 6.109375 38.703125 11.40625 
Q 43.21875 16.703125 43.21875 25.484375 
L 43.21875 27.484375 
z
M 52.203125 31.203125 
L 52.203125 0 
L 43.21875 0 
L 43.21875 8.296875 
Q 40.140625 3.328125 35.546875 0.953125 
Q 30.953125 -1.421875 24.3125 -1.421875 
Q 15.921875 -1.421875 10.953125 3.296875 
Q 6 8.015625 6 15.921875 
Q 6 25.140625 12.171875 29.828125 
Q 18.359375 34.515625 30.609375 34.515625 
L 43.21875 34.515625 
L 43.21875 35.40625 
Q 43.21875 41.609375 39.140625 45 
Q 35.0625 48.390625 27.6875 48.390625 
Q 23 48.390625 18.546875 47.265625 
Q 14.109375 46.140625 10.015625 43.890625 
L 10.015625 52.203125 
Q 14.9375 54.109375 19.578125 55.046875 
Q 24.21875 56 28.609375 56 
Q 40.484375 56 46.34375 49.84375 
Q 52.203125 43.703125 52.203125 31.203125 
z
" id="DejaVuSans-97"/>
      <path d="M 32.171875 -5.078125 
Q 28.375 -14.84375 24.75 -17.8125 
Q 21.140625 -20.796875 15.09375 -20.796875 
L 7.90625 -20.796875 
L 7.90625 -13.28125 
L 13.1875 -13.28125 
Q 16.890625 -13.28125 18.9375 -11.515625 
Q 21 -9.765625 23.484375 -3.21875 
L 25.09375 0.875 
L 2.984375 54.6875 
L 12.5 54.6875 
L 29.59375 11.921875 
L 46.6875 54.6875 
L 56.203125 54.6875 
z
" id="DejaVuSans-121"/>
      <path d="M 44.28125 53.078125 
L 44.28125 44.578125 
Q 40.484375 46.53125 36.375 47.5 
Q 32.28125 48.484375 27.875 48.484375 
Q 21.1875 48.484375 17.84375 46.4375 
Q 14.5 44.390625 14.5 40.28125 
Q 14.5 37.15625 16.890625 35.375 
Q 19.28125 33.59375 26.515625 31.984375 
L 29.59375 31.296875 
Q 39.15625 29.25 43.1875 25.515625 
Q 47.21875 21.78125 47.21875 15.09375 
Q 47.21875 7.46875 41.1875 3.015625 
Q 35.15625 -1.421875 24.609375 -1.421875 
Q 20.21875 -1.421875 15.453125 -0.5625 
Q 10.6875 0.296875 5.421875 2 
L 5.421875 11.28125 
Q 10.40625 8.6875 15.234375 7.390625 
Q 20.0625 6.109375 24.8125 6.109375 
Q 31.15625 6.109375 34.5625 8.28125 
Q 37.984375 10.453125 37.984375 14.40625 
Q 37.984375 18.0625 35.515625 20.015625 
Q 33.0625 21.96875 24.703125 23.78125 
L 21.578125 24.515625 
Q 13.234375 26.265625 9.515625 29.90625 
Q 5.8125 33.546875 5.8125 39.890625 
Q 5.8125 47.609375 11.28125 51.796875 
Q 16.75 56 26.8125 56 
Q 31.78125 56 36.171875 55.265625 
Q 40.578125 54.546875 44.28125 53.078125 
z
" id="DejaVuSans-115"/>
      <path d="M 8.015625 75.875 
L 15.828125 75.875 
Q 23.140625 64.359375 26.78125 53.3125 
Q 30.421875 42.28125 30.421875 31.390625 
Q 30.421875 20.453125 26.78125 9.375 
Q 23.140625 -1.703125 15.828125 -13.1875 
L 8.015625 -13.1875 
Q 14.5 -2 17.703125 9.0625 
Q 20.90625 20.125 20.90625 31.390625 
Q 20.90625 42.671875 17.703125 53.65625 
Q 14.5 64.65625 8.015625 75.875 
z
" id="DejaVuSans-41"/>
     </defs>
     <g style="fill:#262626;" transform="translate(190.574062 316.706687)scale(0.1 -0.1)">
      <use xlink:href="#DejaVuSans-116"/>
      <use x="39.208984" xlink:href="#DejaVuSans-105"/>
      <use x="66.992188" xlink:href="#DejaVuSans-109"/>
      <use x="164.404297" xlink:href="#DejaVuSans-101"/>
      <use x="225.927734" xlink:href="#DejaVuSans-32"/>
      <use x="257.714844" xlink:href="#DejaVuSans-40"/>
      <use x="296.728516" xlink:href="#DejaVuSans-100"/>
      <use x="360.205078" xlink:href="#DejaVuSans-97"/>
      <use x="421.484375" xlink:href="#DejaVuSans-121"/>
      <use x="480.664062" xlink:href="#DejaVuSans-115"/>
      <use x="532.763672" xlink:href="#DejaVuSans-41"/>
     </g>
    </g>
   </g>
   <g id="matplotlib.axis_2">
    <g id="ytick_1">
     <g id="line2d_8">
      <path clip-path="url(#pb258facf13)" d="M 40.603125 276.334125 
L 397.723125 276.334125 
" style="fill:none;stroke:#cccccc;stroke-linecap:round;stroke-width:0.8;"/>
     </g>
     <g id="text_9">
      <!-- 0 -->
      <g style="fill:#262626;" transform="translate(27.240625 280.133344)scale(0.1 -0.1)">
       <use xlink:href="#DejaVuSans-48"/>
      </g>
     </g>
    </g>
    <g id="ytick_2">
     <g id="line2d_9">
      <path clip-path="url(#pb258facf13)" d="M 40.603125 241.273255 
L 397.723125 241.273255 
" style="fill:none;stroke:#cccccc;stroke-linecap:round;stroke-width:0.8;"/>
     </g>
     <g id="text_10">
      <!-- 10 -->
      <g style="fill:#262626;" transform="translate(20.878125 245.072474)scale(0.1 -0.1)">
       <use xlink:href="#DejaVuSans-49"/>
       <use x="63.623047" xlink:href="#DejaVuSans-48"/>
      </g>
     </g>
    </g>
    <g id="ytick_3">
     <g id="line2d_10">
      <path clip-path="url(#pb258facf13)" d="M 40.603125 206.212386 
L 397.723125 206.212386 
" style="fill:none;stroke:#cccccc;stroke-linecap:round;stroke-width:0.8;"/>
     </g>
     <g id="text_11">
      <!-- 20 -->
      <g style="fill:#262626;" transform="translate(20.878125 210.011605)scale(0.1 -0.1)">
       <use xlink:href="#DejaVuSans-50"/>
       <use x="63.623047" xlink:href="#DejaVuSans-48"/>
      </g>
     </g>
    </g>
    <g id="ytick_4">
     <g id="line2d_11">
      <path clip-path="url(#pb258facf13)" d="M 40.603125 171.151516 
L 397.723125 171.151516 
" style="fill:none;stroke:#cccccc;stroke-linecap:round;stroke-width:0.8;"/>
     </g>
     <g id="text_12">
      <!-- 30 -->
      <g style="fill:#262626;" transform="translate(20.878125 174.950735)scale(0.1 -0.1)">
       <use xlink:href="#DejaVuSans-51"/>
       <use x="63.623047" xlink:href="#DejaVuSans-48"/>
      </g>
     </g>
    </g>
    <g id="ytick_5">
     <g id="line2d_12">
      <path clip-path="url(#pb258facf13)" d="M 40.603125 136.090647 
L 397.723125 136.090647 
" style="fill:none;stroke:#cccccc;stroke-linecap:round;stroke-width:0.8;"/>
     </g>
     <g id="text_13">
      <!-- 40 -->
      <g style="fill:#262626;" transform="translate(20.878125 139.889865)scale(0.1 -0.1)">
       <use xlink:href="#DejaVuSans-52"/>
       <use x="63.623047" xlink:href="#DejaVuSans-48"/>
      </g>
     </g>
    </g>
    <g id="ytick_6">
     <g id="line2d_13">
      <path clip-path="url(#pb258facf13)" d="M 40.603125 101.029777 
L 397.723125 101.029777 
" style="fill:none;stroke:#cccccc;stroke-linecap:round;stroke-width:0.8;"/>
     </g>
     <g id="text_14">
      <!-- 50 -->
      <g style="fill:#262626;" transform="translate(20.878125 104.828996)scale(0.1 -0.1)">
       <use xlink:href="#DejaVuSans-53"/>
       <use x="63.623047" xlink:href="#DejaVuSans-48"/>
      </g>
     </g>
    </g>
    <g id="ytick_7">
     <g id="line2d_14">
      <path clip-path="url(#pb258facf13)" d="M 40.603125 65.968908 
L 397.723125 65.968908 
" style="fill:none;stroke:#cccccc;stroke-linecap:round;stroke-width:0.8;"/>
     </g>
     <g id="text_15">
      <!-- 60 -->
      <g style="fill:#262626;" transform="translate(20.878125 69.768126)scale(0.1 -0.1)">
       <use xlink:href="#DejaVuSans-54"/>
       <use x="63.623047" xlink:href="#DejaVuSans-48"/>
      </g>
     </g>
    </g>
    <g id="ytick_8">
     <g id="line2d_15">
      <path clip-path="url(#pb258facf13)" d="M 40.603125 30.908038 
L 397.723125 30.908038 
" style="fill:none;stroke:#cccccc;stroke-linecap:round;stroke-width:0.8;"/>
     </g>
     <g id="text_16">
      <!-- 70 -->
      <defs>
       <path d="M 8.203125 72.90625 
L 55.078125 72.90625 
L 55.078125 68.703125 
L 28.609375 0 
L 18.3125 0 
L 43.21875 64.59375 
L 8.203125 64.59375 
z
" id="DejaVuSans-55"/>
      </defs>
      <g style="fill:#262626;" transform="translate(20.878125 34.707257)scale(0.1 -0.1)">
       <use xlink:href="#DejaVuSans-55"/>
       <use x="63.623047" xlink:href="#DejaVuSans-48"/>
      </g>
     </g>
    </g>
    <g id="text_17">
     <!-- cells number -->
     <defs>
      <path d="M 48.78125 52.59375 
L 48.78125 44.1875 
Q 44.96875 46.296875 41.140625 47.34375 
Q 37.3125 48.390625 33.40625 48.390625 
Q 24.65625 48.390625 19.8125 42.84375 
Q 14.984375 37.3125 14.984375 27.296875 
Q 14.984375 17.28125 19.8125 11.734375 
Q 24.65625 6.203125 33.40625 6.203125 
Q 37.3125 6.203125 41.140625 7.25 
Q 44.96875 8.296875 48.78125 10.40625 
L 48.78125 2.09375 
Q 45.015625 0.34375 40.984375 -0.53125 
Q 36.96875 -1.421875 32.421875 -1.421875 
Q 20.0625 -1.421875 12.78125 6.34375 
Q 5.515625 14.109375 5.515625 27.296875 
Q 5.515625 40.671875 12.859375 48.328125 
Q 20.21875 56 33.015625 56 
Q 37.15625 56 41.109375 55.140625 
Q 45.0625 54.296875 48.78125 52.59375 
z
" id="DejaVuSans-99"/>
      <path d="M 9.421875 75.984375 
L 18.40625 75.984375 
L 18.40625 0 
L 9.421875 0 
z
" id="DejaVuSans-108"/>
      <path d="M 54.890625 33.015625 
L 54.890625 0 
L 45.90625 0 
L 45.90625 32.71875 
Q 45.90625 40.484375 42.875 44.328125 
Q 39.84375 48.1875 33.796875 48.1875 
Q 26.515625 48.1875 22.3125 43.546875 
Q 18.109375 38.921875 18.109375 30.90625 
L 18.109375 0 
L 9.078125 0 
L 9.078125 54.6875 
L 18.109375 54.6875 
L 18.109375 46.1875 
Q 21.34375 51.125 25.703125 53.5625 
Q 30.078125 56 35.796875 56 
Q 45.21875 56 50.046875 50.171875 
Q 54.890625 44.34375 54.890625 33.015625 
z
" id="DejaVuSans-110"/>
      <path d="M 8.5 21.578125 
L 8.5 54.6875 
L 17.484375 54.6875 
L 17.484375 21.921875 
Q 17.484375 14.15625 20.5 10.265625 
Q 23.53125 6.390625 29.59375 6.390625 
Q 36.859375 6.390625 41.078125 11.03125 
Q 45.3125 15.671875 45.3125 23.6875 
L 45.3125 54.6875 
L 54.296875 54.6875 
L 54.296875 0 
L 45.3125 0 
L 45.3125 8.40625 
Q 42.046875 3.421875 37.71875 1 
Q 33.40625 -1.421875 27.6875 -1.421875 
Q 18.265625 -1.421875 13.375 4.4375 
Q 8.5 10.296875 8.5 21.578125 
z
M 31.109375 56 
z
" id="DejaVuSans-117"/>
      <path d="M 48.6875 27.296875 
Q 48.6875 37.203125 44.609375 42.84375 
Q 40.53125 48.484375 33.40625 48.484375 
Q 26.265625 48.484375 22.1875 42.84375 
Q 18.109375 37.203125 18.109375 27.296875 
Q 18.109375 17.390625 22.1875 11.75 
Q 26.265625 6.109375 33.40625 6.109375 
Q 40.53125 6.109375 44.609375 11.75 
Q 48.6875 17.390625 48.6875 27.296875 
z
M 18.109375 46.390625 
Q 20.953125 51.265625 25.265625 53.625 
Q 29.59375 56 35.59375 56 
Q 45.5625 56 51.78125 48.09375 
Q 58.015625 40.1875 58.015625 27.296875 
Q 58.015625 14.40625 51.78125 6.484375 
Q 45.5625 -1.421875 35.59375 -1.421875 
Q 29.59375 -1.421875 25.265625 0.953125 
Q 20.953125 3.328125 18.109375 8.203125 
L 18.109375 0 
L 9.078125 0 
L 9.078125 75.984375 
L 18.109375 75.984375 
z
" id="DejaVuSans-98"/>
      <path d="M 41.109375 46.296875 
Q 39.59375 47.171875 37.8125 47.578125 
Q 36.03125 48 33.890625 48 
Q 26.265625 48 22.1875 43.046875 
Q 18.109375 38.09375 18.109375 28.8125 
L 18.109375 0 
L 9.078125 0 
L 9.078125 54.6875 
L 18.109375 54.6875 
L 18.109375 46.1875 
Q 20.953125 51.171875 25.484375 53.578125 
Q 30.03125 56 36.53125 56 
Q 37.453125 56 38.578125 55.875 
Q 39.703125 55.765625 41.0625 55.515625 
z
" id="DejaVuSans-114"/>
     </defs>
     <g style="fill:#262626;" transform="translate(14.798438 187.685844)rotate(-90)scale(0.1 -0.1)">
      <use xlink:href="#DejaVuSans-99"/>
      <use x="54.980469" xlink:href="#DejaVuSans-101"/>
      <use x="116.503906" xlink:href="#DejaVuSans-108"/>
      <use x="144.287109" xlink:href="#DejaVuSans-108"/>
      <use x="172.070312" xlink:href="#DejaVuSans-115"/>
      <use x="224.169922" xlink:href="#DejaVuSans-32"/>
      <use x="255.957031" xlink:href="#DejaVuSans-110"/>
      <use x="319.335938" xlink:href="#DejaVuSans-117"/>
      <use x="382.714844" xlink:href="#DejaVuSans-109"/>
      <use x="480.126953" xlink:href="#DejaVuSans-98"/>
      <use x="543.603516" xlink:href="#DejaVuSans-101"/>
      <use x="605.126953" xlink:href="#DejaVuSans-114"/>
     </g>
    </g>
   </g>
   <g id="line2d_16">
    <path clip-path="url(#pb258facf13)" d="M 56.835852 276.334125 
L 57.919841 276.334125 
L 59.545823 265.815864 
L 61.171806 265.815864 
L 61.7138 258.80369 
L 62.255795 258.80369 
L 63.339783 251.791516 
L 63.881777 251.791516 
L 64.423772 248.285429 
L 64.965766 241.273255 
L 65.50776 237.767168 
L 66.049754 241.273255 
L 67.133743 234.261082 
L 68.217731 220.236734 
L 69.30172 213.22456 
L 69.843714 216.730647 
L 70.385708 216.730647 
L 70.927702 209.718473 
L 72.553685 199.200212 
L 73.095679 199.200212 
L 73.637673 195.694125 
L 74.179668 199.200212 
L 74.721662 192.188038 
L 75.263656 181.669777 
L 76.889639 171.151516 
L 77.431633 160.633255 
L 77.973627 160.633255 
L 78.515622 146.608908 
L 79.057616 143.102821 
L 79.59961 136.090647 
L 80.141604 125.572386 
L 80.683599 122.066299 
L 81.225593 122.066299 
L 82.309581 129.078473 
L 82.851575 129.078473 
L 83.39357 115.054125 
L 83.935564 108.041951 
L 84.477558 97.52369 
L 85.019552 101.029777 
L 85.561547 101.029777 
L 87.187529 90.511516 
L 87.729524 83.499342 
L 88.271518 79.993255 
L 88.813512 90.511516 
L 89.8975 90.511516 
L 90.439495 83.499342 
L 90.981489 94.017603 
L 92.065477 94.017603 
L 93.149466 101.029777 
L 95.317443 101.029777 
L 95.859437 104.535864 
L 96.401431 97.52369 
L 97.48542 90.511516 
L 98.027414 97.52369 
L 99.111402 97.52369 
L 99.653397 104.535864 
L 100.195391 104.535864 
L 100.737385 108.041951 
L 101.279379 108.041951 
L 101.821374 111.548038 
L 102.363368 108.041951 
L 102.905362 97.52369 
L 103.447356 101.029777 
L 104.531345 101.029777 
L 105.073339 104.535864 
L 105.615333 111.548038 
L 106.157327 115.054125 
L 106.699322 125.572386 
L 107.241316 129.078473 
L 107.78331 136.090647 
L 108.867299 136.090647 
L 109.409293 139.596734 
L 109.951287 146.608908 
L 111.57727 146.608908 
L 112.119264 153.621082 
L 112.661258 157.127168 
L 113.203252 157.127168 
L 113.745247 153.621082 
L 114.287241 153.621082 
L 115.371229 160.633255 
L 115.913224 167.645429 
L 116.455218 164.139342 
L 116.997212 164.139342 
L 118.081201 171.151516 
L 119.165189 171.151516 
L 120.249178 178.16369 
L 120.791172 178.16369 
L 121.333166 181.669777 
L 122.959149 181.669777 
L 123.501143 178.16369 
L 124.585131 185.175864 
L 126.211114 185.175864 
L 127.295103 192.188038 
L 128.379091 192.188038 
L 129.463079 199.200212 
L 131.631056 199.200212 
L 132.173051 202.706299 
L 132.715045 202.706299 
L 133.257039 206.212386 
L 135.425016 206.212386 
L 135.96701 209.718473 
L 136.509004 209.718473 
L 137.050999 213.22456 
L 137.592993 213.22456 
L 138.134987 220.236734 
L 138.676981 223.742821 
L 139.218976 223.742821 
L 139.76097 220.236734 
L 141.386953 220.236734 
L 143.012935 230.754995 
L 144.638918 230.754995 
L 145.180912 234.261082 
L 146.806895 234.261082 
L 147.348889 237.767168 
L 147.890883 237.767168 
L 148.974872 244.779342 
L 156.020797 244.779342 
L 156.562791 248.285429 
L 160.898745 248.285429 
L 161.440739 251.791516 
L 179.868543 251.791516 
L 180.410537 255.297603 
L 182.578514 255.297603 
L 183.120509 258.80369 
L 191.250422 258.80369 
L 191.792416 262.309777 
L 196.670364 262.309777 
L 197.212359 265.815864 
L 203.716289 265.815864 
L 204.258284 269.321951 
L 204.800278 269.321951 
L 205.342272 272.828038 
L 225.396059 272.828038 
L 225.938053 276.334125 
L 381.490398 276.334125 
L 381.490398 276.334125 
" style="fill:none;stroke:#000080;stroke-linecap:round;stroke-width:1.5;"/>
   </g>
   <g id="line2d_17">
    <path clip-path="url(#pb258facf13)" d="M 56.835852 276.334125 
L 57.919841 276.334125 
L 58.461835 272.828038 
L 60.629812 272.828038 
L 61.171806 269.321951 
L 61.7138 262.309777 
L 63.339783 251.791516 
L 64.423772 251.791516 
L 65.50776 244.779342 
L 66.049754 237.767168 
L 66.591748 234.261082 
L 67.675737 220.236734 
L 68.217731 216.730647 
L 68.759725 202.706299 
L 69.30172 199.200212 
L 69.843714 188.681951 
L 70.385708 188.681951 
L 71.469697 174.657603 
L 72.011691 164.139342 
L 72.553685 160.633255 
L 73.095679 160.633255 
L 74.179668 139.596734 
L 74.721662 118.560212 
L 75.263656 125.572386 
L 75.80565 115.054125 
L 76.347645 111.548038 
L 76.889639 101.029777 
L 77.431633 94.017603 
L 77.973627 94.017603 
L 79.057616 87.005429 
L 79.59961 90.511516 
L 80.141604 87.005429 
L 80.683599 87.005429 
L 81.225593 90.511516 
L 82.309581 83.499342 
L 82.851575 90.511516 
L 83.935564 62.462821 
L 84.477558 62.462821 
L 85.019552 69.474995 
L 85.561547 69.474995 
L 86.103541 62.462821 
L 87.187529 76.487168 
L 87.729524 79.993255 
L 88.271518 72.981082 
L 88.813512 62.462821 
L 89.355506 72.981082 
L 89.8975 62.462821 
L 90.439495 58.956734 
L 91.523483 72.981082 
L 92.065477 65.968908 
L 92.607472 62.462821 
L 93.149466 62.462821 
L 93.69146 58.956734 
L 94.233454 62.462821 
L 94.775449 58.956734 
L 95.317443 51.94456 
L 96.401431 51.94456 
L 96.943426 44.932386 
L 97.48542 44.932386 
L 98.027414 41.426299 
L 98.569408 48.438473 
L 99.111402 48.438473 
L 99.653397 51.94456 
L 100.737385 51.94456 
L 101.279379 55.450647 
L 101.821374 62.462821 
L 102.363368 62.462821 
L 102.905362 69.474995 
L 103.447356 79.993255 
L 103.989351 83.499342 
L 104.531345 94.017603 
L 105.073339 101.029777 
L 105.615333 97.52369 
L 106.699322 104.535864 
L 107.241316 104.535864 
L 107.78331 108.041951 
L 108.325304 115.054125 
L 108.867299 111.548038 
L 109.409293 111.548038 
L 110.493281 118.560212 
L 111.57727 118.560212 
L 112.119264 122.066299 
L 112.661258 129.078473 
L 113.745247 129.078473 
L 114.287241 136.090647 
L 114.829235 139.596734 
L 116.455218 139.596734 
L 116.997212 150.114995 
L 117.539206 153.621082 
L 118.081201 153.621082 
L 118.623195 150.114995 
L 119.165189 150.114995 
L 119.707183 153.621082 
L 120.249178 153.621082 
L 120.791172 157.127168 
L 121.333166 157.127168 
L 121.87516 160.633255 
L 122.417154 167.645429 
L 122.959149 167.645429 
L 123.501143 171.151516 
L 125.127126 171.151516 
L 125.66912 174.657603 
L 126.211114 171.151516 
L 126.753108 174.657603 
L 127.295103 171.151516 
L 127.837097 171.151516 
L 128.379091 178.16369 
L 128.921085 178.16369 
L 130.005074 192.188038 
L 133.257039 192.188038 
L 133.799033 195.694125 
L 134.341028 195.694125 
L 134.883022 202.706299 
L 136.509004 202.706299 
L 137.050999 206.212386 
L 138.134987 206.212386 
L 139.218976 213.22456 
L 139.76097 213.22456 
L 140.302964 216.730647 
L 140.844958 223.742821 
L 141.386953 227.248908 
L 144.638918 227.248908 
L 145.180912 234.261082 
L 147.890883 234.261082 
L 148.432878 237.767168 
L 152.226837 237.767168 
L 152.768831 234.261082 
L 154.394814 234.261082 
L 154.936808 230.754995 
L 155.478803 230.754995 
L 156.020797 234.261082 
L 157.104785 234.261082 
L 157.64678 237.767168 
L 158.730768 237.767168 
L 159.272762 241.273255 
L 161.440739 241.273255 
L 161.982733 244.779342 
L 162.524728 251.791516 
L 166.318687 251.791516 
L 166.860682 255.297603 
L 174.990595 255.297603 
L 175.532589 258.80369 
L 176.074583 258.80369 
L 176.616578 262.309777 
L 178.24256 262.309777 
L 178.784555 265.815864 
L 199.92233 265.815864 
L 200.464324 269.321951 
L 222.144093 269.321951 
L 222.686088 272.828038 
L 227.564036 272.828038 
L 228.10603 276.334125 
L 381.490398 276.334125 
L 381.490398 276.334125 
" style="fill:none;stroke:#0000f1;stroke-linecap:round;stroke-width:1.5;"/>
   </g>
   <g id="line2d_18">
    <path clip-path="url(#pb258facf13)" d="M 56.835852 276.334125 
L 59.003829 276.334125 
L 59.545823 272.828038 
L 60.087818 272.828038 
L 60.629812 269.321951 
L 61.7138 269.321951 
L 62.255795 258.80369 
L 62.797789 255.297603 
L 63.881777 255.297603 
L 64.423772 244.779342 
L 64.965766 244.779342 
L 65.50776 248.285429 
L 66.049754 248.285429 
L 66.591748 241.273255 
L 67.133743 237.767168 
L 67.675737 223.742821 
L 68.759725 216.730647 
L 69.30172 209.718473 
L 69.843714 209.718473 
L 70.385708 202.706299 
L 71.469697 195.694125 
L 72.011691 199.200212 
L 72.553685 192.188038 
L 73.095679 195.694125 
L 73.637673 185.175864 
L 75.80565 171.151516 
L 76.347645 160.633255 
L 76.889639 157.127168 
L 77.431633 150.114995 
L 77.973627 146.608908 
L 78.515622 146.608908 
L 79.057616 143.102821 
L 79.59961 132.58456 
L 80.141604 129.078473 
L 80.683599 129.078473 
L 81.225593 118.560212 
L 81.767587 118.560212 
L 82.309581 122.066299 
L 83.935564 111.548038 
L 84.477558 122.066299 
L 85.019552 115.054125 
L 85.561547 94.017603 
L 86.645535 94.017603 
L 87.187529 104.535864 
L 87.729524 108.041951 
L 88.271518 108.041951 
L 88.813512 118.560212 
L 89.8975 104.535864 
L 90.439495 108.041951 
L 90.981489 104.535864 
L 92.065477 111.548038 
L 93.149466 104.535864 
L 93.69146 111.548038 
L 94.775449 118.560212 
L 95.317443 104.535864 
L 95.859437 104.535864 
L 96.943426 97.52369 
L 97.48542 101.029777 
L 98.027414 108.041951 
L 98.569408 111.548038 
L 99.111402 125.572386 
L 99.653397 125.572386 
L 100.195391 118.560212 
L 100.737385 122.066299 
L 103.447356 122.066299 
L 103.989351 125.572386 
L 104.531345 125.572386 
L 105.073339 129.078473 
L 105.615333 129.078473 
L 106.157327 125.572386 
L 107.241316 125.572386 
L 107.78331 129.078473 
L 108.325304 129.078473 
L 108.867299 136.090647 
L 109.951287 136.090647 
L 110.493281 146.608908 
L 112.119264 146.608908 
L 113.745247 157.127168 
L 114.287241 153.621082 
L 114.829235 160.633255 
L 115.371229 160.633255 
L 116.455218 167.645429 
L 116.997212 174.657603 
L 117.539206 178.16369 
L 118.081201 178.16369 
L 118.623195 181.669777 
L 119.707183 181.669777 
L 120.249178 185.175864 
L 120.791172 185.175864 
L 121.333166 181.669777 
L 121.87516 188.681951 
L 122.417154 185.175864 
L 122.959149 185.175864 
L 123.501143 181.669777 
L 124.043137 181.669777 
L 125.127126 188.681951 
L 125.66912 188.681951 
L 126.211114 192.188038 
L 127.295103 192.188038 
L 127.837097 195.694125 
L 128.379091 192.188038 
L 129.463079 192.188038 
L 130.005074 195.694125 
L 131.631056 195.694125 
L 132.173051 199.200212 
L 133.257039 199.200212 
L 133.799033 206.212386 
L 135.425016 206.212386 
L 135.96701 209.718473 
L 137.050999 209.718473 
L 137.592993 216.730647 
L 140.302964 216.730647 
L 141.386953 223.742821 
L 142.470941 223.742821 
L 143.012935 227.248908 
L 143.55493 227.248908 
L 144.638918 234.261082 
L 145.180912 234.261082 
L 145.722906 241.273255 
L 151.142849 241.273255 
L 152.226837 248.285429 
L 152.768831 248.285429 
L 153.310826 251.791516 
L 159.272762 251.791516 
L 159.814757 255.297603 
L 165.234699 255.297603 
L 165.776693 258.80369 
L 168.486664 258.80369 
L 169.028658 262.309777 
L 177.158572 262.309777 
L 178.24256 269.321951 
L 185.83048 269.321951 
L 186.372474 272.828038 
L 208.052243 272.828038 
L 208.594237 276.334125 
L 381.490398 276.334125 
L 381.490398 276.334125 
" style="fill:none;stroke:#004cff;stroke-linecap:round;stroke-width:1.5;"/>
   </g>
   <g id="line2d_19">
    <path clip-path="url(#pb258facf13)" d="M 56.835852 276.334125 
L 58.461835 276.334125 
L 59.545823 269.321951 
L 61.7138 269.321951 
L 62.255795 265.815864 
L 62.797789 265.815864 
L 63.339783 262.309777 
L 64.965766 262.309777 
L 65.50776 255.297603 
L 66.049754 255.297603 
L 67.133743 241.273255 
L 67.675737 237.767168 
L 68.217731 237.767168 
L 68.759725 230.754995 
L 69.30172 227.248908 
L 69.843714 213.22456 
L 70.385708 206.212386 
L 70.927702 202.706299 
L 71.469697 209.718473 
L 72.011691 209.718473 
L 73.095679 195.694125 
L 74.179668 188.681951 
L 74.721662 174.657603 
L 75.263656 174.657603 
L 75.80565 171.151516 
L 76.347645 160.633255 
L 77.431633 153.621082 
L 77.973627 146.608908 
L 78.515622 146.608908 
L 79.057616 143.102821 
L 79.59961 153.621082 
L 80.141604 146.608908 
L 81.225593 153.621082 
L 81.767587 153.621082 
L 82.309581 143.102821 
L 82.851575 136.090647 
L 83.935564 115.054125 
L 84.477558 108.041951 
L 85.019552 104.535864 
L 87.187529 118.560212 
L 87.729524 108.041951 
L 88.813512 101.029777 
L 89.355506 94.017603 
L 89.8975 94.017603 
L 91.523483 72.981082 
L 92.065477 83.499342 
L 93.149466 69.474995 
L 94.233454 76.487168 
L 94.775449 69.474995 
L 95.859437 76.487168 
L 96.401431 69.474995 
L 96.943426 72.981082 
L 99.653397 72.981082 
L 100.195391 79.993255 
L 100.737385 90.511516 
L 102.363368 90.511516 
L 102.905362 87.005429 
L 103.447356 101.029777 
L 103.989351 101.029777 
L 104.531345 108.041951 
L 105.073339 104.535864 
L 105.615333 115.054125 
L 106.157327 115.054125 
L 106.699322 122.066299 
L 107.241316 122.066299 
L 107.78331 125.572386 
L 108.325304 122.066299 
L 108.867299 129.078473 
L 109.951287 136.090647 
L 111.57727 136.090647 
L 112.119264 132.58456 
L 112.661258 136.090647 
L 113.203252 136.090647 
L 113.745247 132.58456 
L 114.287241 132.58456 
L 114.829235 136.090647 
L 115.371229 143.102821 
L 115.913224 143.102821 
L 116.997212 150.114995 
L 117.539206 160.633255 
L 119.165189 171.151516 
L 120.249178 171.151516 
L 120.791172 174.657603 
L 122.417154 174.657603 
L 122.959149 178.16369 
L 123.501143 178.16369 
L 124.043137 181.669777 
L 125.127126 181.669777 
L 125.66912 188.681951 
L 126.753108 195.694125 
L 127.295103 195.694125 
L 128.379091 202.706299 
L 128.921085 209.718473 
L 129.463079 213.22456 
L 130.005074 213.22456 
L 130.547068 216.730647 
L 132.173051 216.730647 
L 132.715045 220.236734 
L 134.341028 220.236734 
L 135.425016 227.248908 
L 138.676981 227.248908 
L 139.218976 234.261082 
L 148.432878 234.261082 
L 149.516866 241.273255 
L 153.310826 241.273255 
L 153.85282 244.779342 
L 158.730768 244.779342 
L 159.272762 248.285429 
L 162.524728 248.285429 
L 163.066722 251.791516 
L 166.860682 251.791516 
L 167.94467 258.80369 
L 169.570653 258.80369 
L 170.112647 262.309777 
L 174.448601 262.309777 
L 174.990595 265.815864 
L 183.662503 265.815864 
L 184.204497 269.321951 
L 187.998457 269.321951 
L 188.540451 272.828038 
L 211.846203 272.828038 
L 212.388197 276.334125 
L 381.490398 276.334125 
L 381.490398 276.334125 
" style="fill:none;stroke:#00b0ff;stroke-linecap:round;stroke-width:1.5;"/>
   </g>
   <g id="line2d_20">
    <path clip-path="url(#pb258facf13)" d="M 56.835852 276.334125 
L 57.919841 276.334125 
L 58.461835 272.828038 
L 59.545823 272.828038 
L 60.087818 269.321951 
L 60.629812 269.321951 
L 61.171806 265.815864 
L 61.7138 265.815864 
L 62.255795 269.321951 
L 62.797789 269.321951 
L 63.339783 265.815864 
L 63.881777 255.297603 
L 64.423772 251.791516 
L 64.965766 244.779342 
L 65.50776 234.261082 
L 66.049754 227.248908 
L 66.591748 227.248908 
L 67.675737 220.236734 
L 68.759725 220.236734 
L 69.30172 206.212386 
L 69.843714 199.200212 
L 70.385708 209.718473 
L 70.927702 213.22456 
L 71.469697 195.694125 
L 72.011691 192.188038 
L 73.095679 192.188038 
L 73.637673 178.16369 
L 74.179668 171.151516 
L 74.721662 160.633255 
L 75.263656 157.127168 
L 76.889639 136.090647 
L 77.431633 125.572386 
L 77.973627 129.078473 
L 78.515622 129.078473 
L 79.057616 111.548038 
L 79.59961 108.041951 
L 80.141604 108.041951 
L 80.683599 104.535864 
L 81.225593 108.041951 
L 81.767587 101.029777 
L 82.309581 97.52369 
L 82.851575 111.548038 
L 83.935564 104.535864 
L 84.477558 104.535864 
L 85.019552 97.52369 
L 85.561547 97.52369 
L 86.103541 101.029777 
L 86.645535 101.029777 
L 87.187529 83.499342 
L 87.729524 90.511516 
L 88.271518 90.511516 
L 88.813512 83.499342 
L 89.355506 79.993255 
L 89.8975 72.981082 
L 90.439495 69.474995 
L 91.523483 69.474995 
L 92.607472 83.499342 
L 93.149466 79.993255 
L 93.69146 83.499342 
L 94.775449 83.499342 
L 95.859437 76.487168 
L 96.401431 76.487168 
L 96.943426 83.499342 
L 98.569408 94.017603 
L 99.653397 94.017603 
L 100.195391 97.52369 
L 100.737385 104.535864 
L 101.279379 101.029777 
L 102.363368 101.029777 
L 102.905362 97.52369 
L 103.447356 90.511516 
L 103.989351 90.511516 
L 105.073339 97.52369 
L 106.157327 97.52369 
L 106.699322 108.041951 
L 107.241316 111.548038 
L 107.78331 125.572386 
L 108.325304 125.572386 
L 108.867299 132.58456 
L 109.409293 132.58456 
L 109.951287 136.090647 
L 110.493281 136.090647 
L 111.035276 143.102821 
L 111.57727 146.608908 
L 112.119264 143.102821 
L 112.661258 150.114995 
L 113.203252 153.621082 
L 113.745247 160.633255 
L 114.287241 153.621082 
L 114.829235 153.621082 
L 115.371229 157.127168 
L 116.455218 157.127168 
L 116.997212 171.151516 
L 117.539206 174.657603 
L 119.165189 174.657603 
L 119.707183 171.151516 
L 120.249178 174.657603 
L 120.791172 174.657603 
L 121.87516 181.669777 
L 123.501143 181.669777 
L 124.043137 178.16369 
L 124.585131 185.175864 
L 125.127126 188.681951 
L 125.66912 188.681951 
L 126.211114 192.188038 
L 126.753108 192.188038 
L 127.295103 195.694125 
L 127.837097 202.706299 
L 128.379091 206.212386 
L 128.921085 206.212386 
L 130.547068 216.730647 
L 131.089062 216.730647 
L 132.173051 223.742821 
L 132.715045 223.742821 
L 133.799033 230.754995 
L 134.883022 230.754995 
L 135.425016 241.273255 
L 137.050999 241.273255 
L 137.592993 244.779342 
L 138.134987 244.779342 
L 138.676981 248.285429 
L 140.844958 248.285429 
L 141.386953 244.779342 
L 142.470941 244.779342 
L 143.012935 251.791516 
L 144.638918 251.791516 
L 145.180912 255.297603 
L 147.890883 255.297603 
L 148.432878 258.80369 
L 152.768831 258.80369 
L 153.310826 262.309777 
L 165.234699 262.309777 
L 165.776693 265.815864 
L 167.402676 265.815864 
L 167.94467 269.321951 
L 175.532589 269.321951 
L 176.074583 272.828038 
L 193.418399 272.828038 
L 193.960393 276.334125 
L 381.490398 276.334125 
L 381.490398 276.334125 
" style="fill:none;stroke:#29ffce;stroke-linecap:round;stroke-width:1.5;"/>
   </g>
   <g id="line2d_21">
    <path clip-path="url(#pb258facf13)" d="M 56.835852 276.334125 
L 59.003829 276.334125 
L 59.545823 272.828038 
L 61.7138 272.828038 
L 62.255795 265.815864 
L 63.339783 265.815864 
L 63.881777 251.791516 
L 64.423772 251.791516 
L 64.965766 244.779342 
L 66.591748 244.779342 
L 67.133743 234.261082 
L 67.675737 237.767168 
L 68.759725 230.754995 
L 69.30172 223.742821 
L 69.843714 213.22456 
L 70.385708 192.188038 
L 70.927702 185.175864 
L 71.469697 181.669777 
L 72.011691 188.681951 
L 73.095679 174.657603 
L 73.637673 164.139342 
L 74.179668 157.127168 
L 74.721662 146.608908 
L 75.263656 146.608908 
L 75.80565 132.58456 
L 76.347645 129.078473 
L 76.889639 118.560212 
L 77.431633 118.560212 
L 77.973627 115.054125 
L 78.515622 115.054125 
L 79.057616 94.017603 
L 79.59961 97.52369 
L 80.141604 94.017603 
L 80.683599 87.005429 
L 81.225593 83.499342 
L 81.767587 83.499342 
L 82.309581 79.993255 
L 82.851575 83.499342 
L 83.935564 83.499342 
L 84.477558 76.487168 
L 85.019552 87.005429 
L 86.103541 87.005429 
L 86.645535 90.511516 
L 87.187529 83.499342 
L 87.729524 87.005429 
L 88.271518 83.499342 
L 88.813512 94.017603 
L 89.355506 90.511516 
L 89.8975 83.499342 
L 90.439495 97.52369 
L 90.981489 94.017603 
L 91.523483 97.52369 
L 92.065477 90.511516 
L 93.69146 90.511516 
L 94.233454 87.005429 
L 95.317443 87.005429 
L 95.859437 90.511516 
L 96.401431 90.511516 
L 96.943426 87.005429 
L 98.027414 101.029777 
L 98.569408 101.029777 
L 99.111402 94.017603 
L 99.653397 94.017603 
L 100.195391 104.535864 
L 100.737385 111.548038 
L 101.279379 115.054125 
L 101.821374 122.066299 
L 103.447356 122.066299 
L 103.989351 125.572386 
L 104.531345 125.572386 
L 105.073339 136.090647 
L 105.615333 143.102821 
L 107.241316 143.102821 
L 107.78331 150.114995 
L 108.867299 157.127168 
L 109.409293 157.127168 
L 109.951287 160.633255 
L 111.035276 160.633255 
L 111.57727 167.645429 
L 112.119264 171.151516 
L 112.661258 171.151516 
L 113.203252 174.657603 
L 114.287241 174.657603 
L 114.829235 181.669777 
L 115.913224 188.681951 
L 116.455218 188.681951 
L 116.997212 192.188038 
L 117.539206 188.681951 
L 119.707183 188.681951 
L 121.333166 199.200212 
L 125.66912 199.200212 
L 126.211114 202.706299 
L 126.753108 202.706299 
L 127.295103 209.718473 
L 128.921085 209.718473 
L 129.463079 213.22456 
L 130.547068 213.22456 
L 131.089062 216.730647 
L 132.173051 216.730647 
L 132.715045 220.236734 
L 136.509004 220.236734 
L 137.050999 223.742821 
L 139.218976 223.742821 
L 139.76097 227.248908 
L 141.386953 227.248908 
L 141.928947 230.754995 
L 143.012935 230.754995 
L 144.096924 237.767168 
L 144.638918 244.779342 
L 145.722906 244.779342 
L 146.264901 248.285429 
L 150.05886 248.285429 
L 151.142849 255.297603 
L 160.898745 255.297603 
L 161.440739 258.80369 
L 164.15071 258.80369 
L 164.692705 262.309777 
L 169.570653 262.309777 
L 170.112647 265.815864 
L 172.280624 265.815864 
L 172.822618 269.321951 
L 174.448601 269.321951 
L 174.990595 272.828038 
L 195.044382 272.828038 
L 195.586376 276.334125 
L 381.490398 276.334125 
L 381.490398 276.334125 
" style="fill:none;stroke:#7dff7a;stroke-linecap:round;stroke-width:1.5;"/>
   </g>
   <g id="line2d_22">
    <path clip-path="url(#pb258facf13)" d="M 56.835852 276.334125 
L 59.003829 276.334125 
L 60.629812 265.815864 
L 61.171806 265.815864 
L 61.7138 255.297603 
L 62.255795 251.791516 
L 62.797789 251.791516 
L 63.339783 244.779342 
L 63.881777 244.779342 
L 66.049754 230.754995 
L 66.591748 230.754995 
L 67.133743 227.248908 
L 67.675737 216.730647 
L 68.759725 216.730647 
L 69.30172 213.22456 
L 69.843714 206.212386 
L 70.385708 206.212386 
L 70.927702 199.200212 
L 71.469697 199.200212 
L 72.011691 195.694125 
L 72.553685 188.681951 
L 73.095679 185.175864 
L 73.637673 174.657603 
L 74.179668 174.657603 
L 74.721662 181.669777 
L 75.263656 167.645429 
L 76.347645 167.645429 
L 76.889639 160.633255 
L 77.431633 150.114995 
L 77.973627 160.633255 
L 79.057616 160.633255 
L 80.141604 153.621082 
L 81.225593 139.596734 
L 81.767587 129.078473 
L 82.309581 115.054125 
L 82.851575 111.548038 
L 83.39357 111.548038 
L 83.935564 122.066299 
L 84.477558 115.054125 
L 86.645535 115.054125 
L 87.187529 111.548038 
L 87.729524 111.548038 
L 88.813512 97.52369 
L 89.8975 97.52369 
L 90.439495 108.041951 
L 90.981489 108.041951 
L 91.523483 101.029777 
L 92.065477 101.029777 
L 93.149466 108.041951 
L 93.69146 115.054125 
L 94.775449 115.054125 
L 95.317443 111.548038 
L 98.027414 129.078473 
L 98.569408 129.078473 
L 99.653397 136.090647 
L 100.195391 143.102821 
L 100.737385 136.090647 
L 101.821374 136.090647 
L 102.363368 132.58456 
L 102.905362 132.58456 
L 103.447356 136.090647 
L 106.157327 136.090647 
L 107.241316 143.102821 
L 107.78331 139.596734 
L 108.325304 143.102821 
L 109.951287 143.102821 
L 110.493281 139.596734 
L 111.57727 139.596734 
L 112.119264 143.102821 
L 113.203252 143.102821 
L 114.287241 150.114995 
L 115.913224 150.114995 
L 116.455218 157.127168 
L 116.997212 160.633255 
L 117.539206 167.645429 
L 118.081201 167.645429 
L 118.623195 174.657603 
L 119.165189 178.16369 
L 119.707183 178.16369 
L 120.249178 181.669777 
L 120.791172 181.669777 
L 121.333166 178.16369 
L 122.959149 178.16369 
L 123.501143 181.669777 
L 124.043137 181.669777 
L 124.585131 188.681951 
L 125.66912 188.681951 
L 126.211114 185.175864 
L 126.753108 185.175864 
L 127.295103 181.669777 
L 127.837097 185.175864 
L 128.379091 192.188038 
L 132.173051 192.188038 
L 133.257039 199.200212 
L 133.799033 199.200212 
L 134.341028 202.706299 
L 137.050999 202.706299 
L 137.592993 209.718473 
L 139.218976 209.718473 
L 140.302964 223.742821 
L 141.928947 223.742821 
L 142.470941 227.248908 
L 145.180912 227.248908 
L 145.722906 230.754995 
L 146.264901 230.754995 
L 146.806895 234.261082 
L 147.348889 241.273255 
L 147.890883 244.779342 
L 148.974872 244.779342 
L 149.516866 251.791516 
L 150.600855 251.791516 
L 151.142849 255.297603 
L 151.684843 255.297603 
L 152.768831 262.309777 
L 159.814757 262.309777 
L 160.356751 265.815864 
L 162.524728 265.815864 
L 163.066722 269.321951 
L 164.15071 269.321951 
L 164.692705 265.815864 
L 177.700566 265.815864 
L 178.24256 269.321951 
L 183.120509 269.321951 
L 183.662503 272.828038 
L 260.08369 272.828038 
L 260.625684 276.334125 
L 381.490398 276.334125 
L 381.490398 276.334125 
" style="fill:none;stroke:#ceff29;stroke-linecap:round;stroke-width:1.5;"/>
   </g>
   <g id="line2d_23">
    <path clip-path="url(#pb258facf13)" d="M 56.835852 276.334125 
L 60.087818 276.334125 
L 60.629812 272.828038 
L 61.171806 265.815864 
L 61.7138 262.309777 
L 62.255795 262.309777 
L 62.797789 255.297603 
L 63.881777 248.285429 
L 64.423772 248.285429 
L 64.965766 241.273255 
L 65.50776 241.273255 
L 66.049754 234.261082 
L 66.591748 223.742821 
L 67.133743 220.236734 
L 67.675737 223.742821 
L 68.759725 216.730647 
L 69.30172 209.718473 
L 69.843714 206.212386 
L 72.011691 206.212386 
L 72.553685 209.718473 
L 73.095679 206.212386 
L 73.637673 206.212386 
L 74.179668 202.706299 
L 75.263656 174.657603 
L 75.80565 171.151516 
L 76.889639 171.151516 
L 77.431633 167.645429 
L 77.973627 153.621082 
L 78.515622 146.608908 
L 79.057616 143.102821 
L 79.59961 132.58456 
L 80.141604 129.078473 
L 80.683599 115.054125 
L 81.767587 94.017603 
L 82.309581 94.017603 
L 82.851575 90.511516 
L 83.39357 76.487168 
L 83.935564 72.981082 
L 84.477558 72.981082 
L 85.019552 69.474995 
L 85.561547 62.462821 
L 86.103541 65.968908 
L 86.645535 65.968908 
L 87.187529 55.450647 
L 87.729524 41.426299 
L 88.271518 44.932386 
L 88.813512 44.932386 
L 89.355506 41.426299 
L 89.8975 41.426299 
L 90.439495 37.920212 
L 90.981489 41.426299 
L 92.065477 34.414125 
L 92.607472 41.426299 
L 93.149466 41.426299 
L 94.233454 48.438473 
L 94.775449 48.438473 
L 95.859437 69.474995 
L 96.943426 83.499342 
L 97.48542 79.993255 
L 98.027414 83.499342 
L 99.111402 83.499342 
L 100.195391 90.511516 
L 100.737385 97.52369 
L 101.279379 101.029777 
L 101.821374 101.029777 
L 102.363368 104.535864 
L 102.905362 111.548038 
L 104.531345 111.548038 
L 105.073339 104.535864 
L 105.615333 104.535864 
L 106.157327 111.548038 
L 106.699322 115.054125 
L 107.78331 115.054125 
L 109.409293 125.572386 
L 109.951287 118.560212 
L 110.493281 122.066299 
L 111.57727 122.066299 
L 112.119264 129.078473 
L 112.661258 139.596734 
L 114.829235 153.621082 
L 115.371229 153.621082 
L 115.913224 160.633255 
L 116.455218 160.633255 
L 116.997212 171.151516 
L 117.539206 167.645429 
L 119.165189 167.645429 
L 119.707183 174.657603 
L 120.249178 171.151516 
L 121.333166 171.151516 
L 121.87516 174.657603 
L 122.417154 171.151516 
L 123.501143 178.16369 
L 124.043137 178.16369 
L 124.585131 174.657603 
L 125.127126 181.669777 
L 126.211114 181.669777 
L 126.753108 178.16369 
L 127.295103 181.669777 
L 127.837097 192.188038 
L 128.379091 195.694125 
L 129.463079 195.694125 
L 130.005074 202.706299 
L 132.173051 202.706299 
L 132.715045 206.212386 
L 140.302964 206.212386 
L 140.844958 209.718473 
L 141.386953 209.718473 
L 141.928947 213.22456 
L 143.012935 213.22456 
L 143.55493 220.236734 
L 144.638918 220.236734 
L 145.180912 223.742821 
L 151.142849 223.742821 
L 151.684843 227.248908 
L 153.85282 227.248908 
L 154.394814 230.754995 
L 159.814757 230.754995 
L 160.356751 237.767168 
L 160.898745 237.767168 
L 161.982733 244.779342 
L 164.15071 244.779342 
L 164.692705 248.285429 
L 170.654641 248.285429 
L 171.196635 251.791516 
L 173.364612 251.791516 
L 173.906607 255.297603 
L 180.410537 255.297603 
L 180.952532 258.80369 
L 197.212359 258.80369 
L 197.754353 262.309777 
L 209.136232 262.309777 
L 209.678226 265.815864 
L 223.228082 265.815864 
L 224.31207 272.828038 
L 244.907851 272.828038 
L 245.449845 276.334125 
L 381.490398 276.334125 
L 381.490398 276.334125 
" style="fill:none;stroke:#ffc400;stroke-linecap:round;stroke-width:1.5;"/>
   </g>
   <g id="line2d_24">
    <path clip-path="url(#pb258facf13)" d="M 56.835852 276.334125 
L 61.7138 276.334125 
L 63.881777 262.309777 
L 64.423772 265.815864 
L 64.965766 262.309777 
L 65.50776 265.815864 
L 66.049754 258.80369 
L 66.591748 255.297603 
L 67.133743 255.297603 
L 68.759725 234.261082 
L 69.30172 230.754995 
L 69.843714 223.742821 
L 70.385708 213.22456 
L 70.927702 209.718473 
L 71.469697 209.718473 
L 72.553685 223.742821 
L 73.095679 213.22456 
L 74.179668 206.212386 
L 74.721662 199.200212 
L 75.263656 195.694125 
L 75.80565 199.200212 
L 76.347645 195.694125 
L 77.431633 181.669777 
L 78.515622 181.669777 
L 79.057616 167.645429 
L 79.59961 167.645429 
L 80.141604 164.139342 
L 80.683599 157.127168 
L 82.309581 146.608908 
L 82.851575 139.596734 
L 83.39357 139.596734 
L 83.935564 129.078473 
L 84.477558 104.535864 
L 85.019552 104.535864 
L 85.561547 94.017603 
L 86.103541 101.029777 
L 86.645535 94.017603 
L 87.729524 94.017603 
L 88.271518 97.52369 
L 88.813512 94.017603 
L 89.355506 87.005429 
L 89.8975 83.499342 
L 90.439495 87.005429 
L 90.981489 87.005429 
L 91.523483 83.499342 
L 92.065477 90.511516 
L 92.607472 94.017603 
L 93.149466 79.993255 
L 93.69146 79.993255 
L 95.317443 90.511516 
L 96.943426 90.511516 
L 97.48542 94.017603 
L 98.027414 111.548038 
L 98.569408 111.548038 
L 100.195391 122.066299 
L 100.737385 122.066299 
L 101.279379 125.572386 
L 102.905362 125.572386 
L 103.989351 139.596734 
L 104.531345 136.090647 
L 106.699322 136.090647 
L 108.325304 146.608908 
L 108.867299 146.608908 
L 109.409293 150.114995 
L 109.951287 146.608908 
L 110.493281 146.608908 
L 111.035276 150.114995 
L 111.57727 143.102821 
L 112.119264 139.596734 
L 112.661258 143.102821 
L 113.203252 143.102821 
L 113.745247 146.608908 
L 115.371229 146.608908 
L 116.455218 153.621082 
L 117.539206 167.645429 
L 120.249178 185.175864 
L 121.333166 185.175864 
L 121.87516 188.681951 
L 122.959149 188.681951 
L 123.501143 192.188038 
L 124.043137 199.200212 
L 125.127126 199.200212 
L 125.66912 202.706299 
L 129.463079 202.706299 
L 131.089062 213.22456 
L 131.631056 213.22456 
L 132.173051 216.730647 
L 133.257039 216.730647 
L 133.799033 220.236734 
L 135.96701 220.236734 
L 136.509004 223.742821 
L 137.050999 223.742821 
L 137.592993 220.236734 
L 138.134987 220.236734 
L 138.676981 227.248908 
L 140.302964 227.248908 
L 140.844958 230.754995 
L 141.386953 237.767168 
L 141.928947 237.767168 
L 142.470941 241.273255 
L 145.722906 241.273255 
L 146.264901 244.779342 
L 146.806895 244.779342 
L 147.348889 241.273255 
L 148.432878 241.273255 
L 148.974872 244.779342 
L 150.05886 244.779342 
L 150.600855 248.285429 
L 156.020797 248.285429 
L 156.562791 251.791516 
L 157.64678 251.791516 
L 158.188774 255.297603 
L 161.440739 255.297603 
L 162.524728 262.309777 
L 167.402676 262.309777 
L 167.94467 265.815864 
L 170.654641 265.815864 
L 171.196635 269.321951 
L 206.968255 269.321951 
L 207.510249 272.828038 
L 227.022041 272.828038 
L 227.564036 276.334125 
L 381.490398 276.334125 
L 381.490398 276.334125 
" style="fill:none;stroke:#ff6800;stroke-linecap:round;stroke-width:1.5;"/>
   </g>
   <g id="line2d_25">
    <path clip-path="url(#pb258facf13)" d="M 56.835852 276.334125 
L 58.461835 276.334125 
L 59.545823 269.321951 
L 61.171806 269.321951 
L 61.7138 265.815864 
L 64.423772 265.815864 
L 64.965766 262.309777 
L 65.50776 251.791516 
L 66.049754 237.767168 
L 66.591748 237.767168 
L 67.133743 234.261082 
L 68.759725 234.261082 
L 69.30172 230.754995 
L 69.843714 230.754995 
L 70.385708 220.236734 
L 70.927702 223.742821 
L 72.011691 209.718473 
L 72.553685 199.200212 
L 73.095679 185.175864 
L 73.637673 181.669777 
L 74.179668 167.645429 
L 74.721662 157.127168 
L 75.263656 167.645429 
L 75.80565 157.127168 
L 76.347645 150.114995 
L 76.889639 139.596734 
L 77.431633 139.596734 
L 77.973627 129.078473 
L 78.515622 125.572386 
L 79.057616 125.572386 
L 79.59961 108.041951 
L 80.141604 101.029777 
L 80.683599 115.054125 
L 81.225593 108.041951 
L 81.767587 115.054125 
L 82.309581 108.041951 
L 82.851575 97.52369 
L 83.39357 104.535864 
L 84.477558 104.535864 
L 85.561547 111.548038 
L 86.103541 122.066299 
L 86.645535 118.560212 
L 87.187529 122.066299 
L 87.729524 115.054125 
L 88.271518 111.548038 
L 88.813512 111.548038 
L 89.355506 122.066299 
L 89.8975 115.054125 
L 90.439495 122.066299 
L 90.981489 115.054125 
L 92.065477 122.066299 
L 93.149466 122.066299 
L 94.233454 129.078473 
L 95.317443 129.078473 
L 95.859437 125.572386 
L 96.401431 136.090647 
L 97.48542 143.102821 
L 98.027414 143.102821 
L 98.569408 150.114995 
L 100.737385 164.139342 
L 101.821374 164.139342 
L 102.905362 171.151516 
L 103.447356 171.151516 
L 103.989351 167.645429 
L 105.073339 167.645429 
L 105.615333 164.139342 
L 106.157327 167.645429 
L 106.699322 174.657603 
L 107.241316 171.151516 
L 107.78331 181.669777 
L 108.325304 181.669777 
L 109.951287 192.188038 
L 110.493281 192.188038 
L 111.035276 188.681951 
L 112.119264 195.694125 
L 112.661258 188.681951 
L 113.745247 188.681951 
L 114.287241 185.175864 
L 114.829235 185.175864 
L 115.371229 188.681951 
L 116.455218 188.681951 
L 116.997212 192.188038 
L 118.623195 192.188038 
L 119.707183 199.200212 
L 124.043137 199.200212 
L 124.585131 206.212386 
L 127.295103 206.212386 
L 127.837097 209.718473 
L 128.379091 209.718473 
L 128.921085 206.212386 
L 130.005074 206.212386 
L 130.547068 209.718473 
L 139.218976 209.718473 
L 139.76097 213.22456 
L 140.844958 213.22456 
L 141.928947 220.236734 
L 143.012935 220.236734 
L 144.096924 227.248908 
L 147.890883 227.248908 
L 150.05886 241.273255 
L 150.600855 241.273255 
L 151.142849 248.285429 
L 151.684843 248.285429 
L 152.226837 251.791516 
L 153.85282 251.791516 
L 154.394814 255.297603 
L 158.188774 255.297603 
L 158.730768 258.80369 
L 169.570653 258.80369 
L 170.112647 262.309777 
L 184.204497 262.309777 
L 184.746491 265.815864 
L 193.418399 265.815864 
L 193.960393 269.321951 
L 206.968255 269.321951 
L 207.510249 272.828038 
L 213.472186 272.828038 
L 214.01418 276.334125 
L 381.490398 276.334125 
L 381.490398 276.334125 
" style="fill:none;stroke:#f10800;stroke-linecap:round;stroke-width:1.5;"/>
   </g>
   <g id="patch_3">
    <path d="M 40.603125 288.430125 
L 40.603125 22.318125 
" style="fill:none;stroke:#cccccc;stroke-linecap:square;stroke-linejoin:miter;stroke-width:0.8;"/>
   </g>
   <g id="patch_4">
    <path d="M 397.723125 288.430125 
L 397.723125 22.318125 
" style="fill:none;stroke:#cccccc;stroke-linecap:square;stroke-linejoin:miter;stroke-width:0.8;"/>
   </g>
   <g id="patch_5">
    <path d="M 40.603125 288.430125 
L 397.723125 288.430125 
" style="fill:none;stroke:#cccccc;stroke-linecap:square;stroke-linejoin:miter;stroke-width:0.8;"/>
   </g>
   <g id="patch_6">
    <path d="M 40.603125 22.318125 
L 397.723125 22.318125 
" style="fill:none;stroke:#cccccc;stroke-linecap:square;stroke-linejoin:miter;stroke-width:0.8;"/>
   </g>
   <g id="text_18">
    <!-- Effector T CD4 -->
    <defs>
     <path d="M 9.8125 72.90625 
L 55.90625 72.90625 
L 55.90625 64.59375 
L 19.671875 64.59375 
L 19.671875 43.015625 
L 54.390625 43.015625 
L 54.390625 34.71875 
L 19.671875 34.71875 
L 19.671875 8.296875 
L 56.78125 8.296875 
L 56.78125 0 
L 9.8125 0 
z
" id="DejaVuSans-69"/>
     <path d="M 37.109375 75.984375 
L 37.109375 68.5 
L 28.515625 68.5 
Q 23.6875 68.5 21.796875 66.546875 
Q 19.921875 64.59375 19.921875 59.515625 
L 19.921875 54.6875 
L 34.71875 54.6875 
L 34.71875 47.703125 
L 19.921875 47.703125 
L 19.921875 0 
L 10.890625 0 
L 10.890625 47.703125 
L 2.296875 47.703125 
L 2.296875 54.6875 
L 10.890625 54.6875 
L 10.890625 58.5 
Q 10.890625 67.625 15.140625 71.796875 
Q 19.390625 75.984375 28.609375 75.984375 
z
" id="DejaVuSans-102"/>
     <path d="M 30.609375 48.390625 
Q 23.390625 48.390625 19.1875 42.75 
Q 14.984375 37.109375 14.984375 27.296875 
Q 14.984375 17.484375 19.15625 11.84375 
Q 23.34375 6.203125 30.609375 6.203125 
Q 37.796875 6.203125 41.984375 11.859375 
Q 46.1875 17.53125 46.1875 27.296875 
Q 46.1875 37.015625 41.984375 42.703125 
Q 37.796875 48.390625 30.609375 48.390625 
z
M 30.609375 56 
Q 42.328125 56 49.015625 48.375 
Q 55.71875 40.765625 55.71875 27.296875 
Q 55.71875 13.875 49.015625 6.21875 
Q 42.328125 -1.421875 30.609375 -1.421875 
Q 18.84375 -1.421875 12.171875 6.21875 
Q 5.515625 13.875 5.515625 27.296875 
Q 5.515625 40.765625 12.171875 48.375 
Q 18.84375 56 30.609375 56 
z
" id="DejaVuSans-111"/>
     <path d="M -0.296875 72.90625 
L 61.375 72.90625 
L 61.375 64.59375 
L 35.5 64.59375 
L 35.5 0 
L 25.59375 0 
L 25.59375 64.59375 
L -0.296875 64.59375 
z
" id="DejaVuSans-84"/>
     <path d="M 64.40625 67.28125 
L 64.40625 56.890625 
Q 59.421875 61.53125 53.78125 63.8125 
Q 48.140625 66.109375 41.796875 66.109375 
Q 29.296875 66.109375 22.65625 58.46875 
Q 16.015625 50.828125 16.015625 36.375 
Q 16.015625 21.96875 22.65625 14.328125 
Q 29.296875 6.6875 41.796875 6.6875 
Q 48.140625 6.6875 53.78125 8.984375 
Q 59.421875 11.28125 64.40625 15.921875 
L 64.40625 5.609375 
Q 59.234375 2.09375 53.4375 0.328125 
Q 47.65625 -1.421875 41.21875 -1.421875 
Q 24.65625 -1.421875 15.125 8.703125 
Q 5.609375 18.84375 5.609375 36.375 
Q 5.609375 53.953125 15.125 64.078125 
Q 24.65625 74.21875 41.21875 74.21875 
Q 47.75 74.21875 53.53125 72.484375 
Q 59.328125 70.75 64.40625 67.28125 
z
" id="DejaVuSans-67"/>
     <path d="M 19.671875 64.796875 
L 19.671875 8.109375 
L 31.59375 8.109375 
Q 46.6875 8.109375 53.6875 14.9375 
Q 60.6875 21.78125 60.6875 36.53125 
Q 60.6875 51.171875 53.6875 57.984375 
Q 46.6875 64.796875 31.59375 64.796875 
z
M 9.8125 72.90625 
L 30.078125 72.90625 
Q 51.265625 72.90625 61.171875 64.09375 
Q 71.09375 55.28125 71.09375 36.53125 
Q 71.09375 17.671875 61.125 8.828125 
Q 51.171875 0 30.078125 0 
L 9.8125 0 
z
" id="DejaVuSans-68"/>
    </defs>
    <g style="fill:#262626;" transform="translate(175.560938 16.318125)scale(0.12 -0.12)">
     <use xlink:href="#DejaVuSans-69"/>
     <use x="63.183594" xlink:href="#DejaVuSans-102"/>
     <use x="98.388672" xlink:href="#DejaVuSans-102"/>
     <use x="133.59375" xlink:href="#DejaVuSans-101"/>
     <use x="195.117188" xlink:href="#DejaVuSans-99"/>
     <use x="250.097656" xlink:href="#DejaVuSans-116"/>
     <use x="289.306641" xlink:href="#DejaVuSans-111"/>
     <use x="350.488281" xlink:href="#DejaVuSans-114"/>
     <use x="391.601562" xlink:href="#DejaVuSans-32"/>
     <use x="423.388672" xlink:href="#DejaVuSans-84"/>
     <use x="484.472656" xlink:href="#DejaVuSans-32"/>
     <use x="516.259766" xlink:href="#DejaVuSans-67"/>
     <use x="586.083984" xlink:href="#DejaVuSans-68"/>
     <use x="663.085938" xlink:href="#DejaVuSans-52"/>
    </g>
   </g>
  </g>
 </g>
 <defs>
  <clipPath id="pb258facf13">
   <rect height="266.112" width="357.12" x="40.603125" y="22.318125"/>
  </clipPath>
 </defs>
</svg>
