<?xml version="1.0" encoding="utf-8" standalone="no"?>
<!DOCTYPE svg PUBLIC "-//W3C//DTD SVG 1.1//EN"
  "http://www.w3.org/Graphics/SVG/1.1/DTD/svg11.dtd">
<!-- Created with matplotlib (https://matplotlib.org/) -->
<svg height="325.986375pt" version="1.1" viewBox="0 0 404.923125 325.986375" width="404.923125pt" xmlns="http://www.w3.org/2000/svg" xmlns:xlink="http://www.w3.org/1999/xlink">
 <defs>
  <style type="text/css">
*{stroke-linecap:butt;stroke-linejoin:round;white-space:pre;}
  </style>
 </defs>
 <g id="figure_1">
  <g id="patch_1">
   <path d="M 0 325.986375 
L 404.923125 325.986375 
L 404.923125 0 
L 0 0 
z
" style="fill:#ffffff;"/>
  </g>
  <g id="axes_1">
   <g id="patch_2">
    <path d="M 40.603125 288.430125 
L 397.723125 288.430125 
L 397.723125 22.318125 
L 40.603125 22.318125 
z
" style="fill:#ffffff;"/>
   </g>
   <g id="matplotlib.axis_1">
    <g id="xtick_1">
     <g id="line2d_1">
      <path clip-path="url(#p2604f085e4)" d="M 56.835852 288.430125 
L 56.835852 22.318125 
" style="fill:none;stroke:#cccccc;stroke-linecap:round;stroke-width:0.8;"/>
     </g>
     <g id="text_1">
      <!-- 0 -->
      <defs>
       <path d="M 31.78125 66.40625 
Q 24.171875 66.40625 20.328125 58.90625 
Q 16.5 51.421875 16.5 36.375 
Q 16.5 21.390625 20.328125 13.890625 
Q 24.171875 6.390625 31.78125 6.390625 
Q 39.453125 6.390625 43.28125 13.890625 
Q 47.125 21.390625 47.125 36.375 
Q 47.125 51.421875 43.28125 58.90625 
Q 39.453125 66.40625 31.78125 66.40625 
z
M 31.78125 74.21875 
Q 44.046875 74.21875 50.515625 64.515625 
Q 56.984375 54.828125 56.984375 36.375 
Q 56.984375 17.96875 50.515625 8.265625 
Q 44.046875 -1.421875 31.78125 -1.421875 
Q 19.53125 -1.421875 13.0625 8.265625 
Q 6.59375 17.96875 6.59375 36.375 
Q 6.59375 54.828125 13.0625 64.515625 
Q 19.53125 74.21875 31.78125 74.21875 
z
" id="DejaVuSans-48"/>
      </defs>
      <g style="fill:#262626;" transform="translate(53.654602 303.028562)scale(0.1 -0.1)">
       <use xlink:href="#DejaVuSans-48"/>
      </g>
     </g>
    </g>
    <g id="xtick_2">
     <g id="line2d_2">
      <path clip-path="url(#p2604f085e4)" d="M 97.519379 288.430125 
L 97.519379 22.318125 
" style="fill:none;stroke:#cccccc;stroke-linecap:round;stroke-width:0.8;"/>
     </g>
     <g id="text_2">
      <!-- 5 -->
      <defs>
       <path d="M 10.796875 72.90625 
L 49.515625 72.90625 
L 49.515625 64.59375 
L 19.828125 64.59375 
L 19.828125 46.734375 
Q 21.96875 47.46875 24.109375 47.828125 
Q 26.265625 48.1875 28.421875 48.1875 
Q 40.625 48.1875 47.75 41.5 
Q 54.890625 34.8125 54.890625 23.390625 
Q 54.890625 11.625 47.5625 5.09375 
Q 40.234375 -1.421875 26.90625 -1.421875 
Q 22.3125 -1.421875 17.546875 -0.640625 
Q 12.796875 0.140625 7.71875 1.703125 
L 7.71875 11.625 
Q 12.109375 9.234375 16.796875 8.0625 
Q 21.484375 6.890625 26.703125 6.890625 
Q 35.15625 6.890625 40.078125 11.328125 
Q 45.015625 15.765625 45.015625 23.390625 
Q 45.015625 31 40.078125 35.4375 
Q 35.15625 39.890625 26.703125 39.890625 
Q 22.75 39.890625 18.8125 39.015625 
Q 14.890625 38.140625 10.796875 36.28125 
z
" id="DejaVuSans-53"/>
      </defs>
      <g style="fill:#262626;" transform="translate(94.338129 303.028562)scale(0.1 -0.1)">
       <use xlink:href="#DejaVuSans-53"/>
      </g>
     </g>
    </g>
    <g id="xtick_3">
     <g id="line2d_3">
      <path clip-path="url(#p2604f085e4)" d="M 138.202906 288.430125 
L 138.202906 22.318125 
" style="fill:none;stroke:#cccccc;stroke-linecap:round;stroke-width:0.8;"/>
     </g>
     <g id="text_3">
      <!-- 10 -->
      <defs>
       <path d="M 12.40625 8.296875 
L 28.515625 8.296875 
L 28.515625 63.921875 
L 10.984375 60.40625 
L 10.984375 69.390625 
L 28.421875 72.90625 
L 38.28125 72.90625 
L 38.28125 8.296875 
L 54.390625 8.296875 
L 54.390625 0 
L 12.40625 0 
z
" id="DejaVuSans-49"/>
      </defs>
      <g style="fill:#262626;" transform="translate(131.840406 303.028562)scale(0.1 -0.1)">
       <use xlink:href="#DejaVuSans-49"/>
       <use x="63.623047" xlink:href="#DejaVuSans-48"/>
      </g>
     </g>
    </g>
    <g id="xtick_4">
     <g id="line2d_4">
      <path clip-path="url(#p2604f085e4)" d="M 178.886433 288.430125 
L 178.886433 22.318125 
" style="fill:none;stroke:#cccccc;stroke-linecap:round;stroke-width:0.8;"/>
     </g>
     <g id="text_4">
      <!-- 15 -->
      <g style="fill:#262626;" transform="translate(172.523933 303.028562)scale(0.1 -0.1)">
       <use xlink:href="#DejaVuSans-49"/>
       <use x="63.623047" xlink:href="#DejaVuSans-53"/>
      </g>
     </g>
    </g>
    <g id="xtick_5">
     <g id="line2d_5">
      <path clip-path="url(#p2604f085e4)" d="M 219.56996 288.430125 
L 219.56996 22.318125 
" style="fill:none;stroke:#cccccc;stroke-linecap:round;stroke-width:0.8;"/>
     </g>
     <g id="text_5">
      <!-- 20 -->
      <defs>
       <path d="M 19.1875 8.296875 
L 53.609375 8.296875 
L 53.609375 0 
L 7.328125 0 
L 7.328125 8.296875 
Q 12.9375 14.109375 22.625 23.890625 
Q 32.328125 33.6875 34.8125 36.53125 
Q 39.546875 41.84375 41.421875 45.53125 
Q 43.3125 49.21875 43.3125 52.78125 
Q 43.3125 58.59375 39.234375 62.25 
Q 35.15625 65.921875 28.609375 65.921875 
Q 23.96875 65.921875 18.8125 64.3125 
Q 13.671875 62.703125 7.8125 59.421875 
L 7.8125 69.390625 
Q 13.765625 71.78125 18.9375 73 
Q 24.125 74.21875 28.421875 74.21875 
Q 39.75 74.21875 46.484375 68.546875 
Q 53.21875 62.890625 53.21875 53.421875 
Q 53.21875 48.921875 51.53125 44.890625 
Q 49.859375 40.875 45.40625 35.40625 
Q 44.1875 33.984375 37.640625 27.21875 
Q 31.109375 20.453125 19.1875 8.296875 
z
" id="DejaVuSans-50"/>
      </defs>
      <g style="fill:#262626;" transform="translate(213.20746 303.028562)scale(0.1 -0.1)">
       <use xlink:href="#DejaVuSans-50"/>
       <use x="63.623047" xlink:href="#DejaVuSans-48"/>
      </g>
     </g>
    </g>
    <g id="xtick_6">
     <g id="line2d_6">
      <path clip-path="url(#p2604f085e4)" d="M 260.253487 288.430125 
L 260.253487 22.318125 
" style="fill:none;stroke:#cccccc;stroke-linecap:round;stroke-width:0.8;"/>
     </g>
     <g id="text_6">
      <!-- 25 -->
      <g style="fill:#262626;" transform="translate(253.890987 303.028562)scale(0.1 -0.1)">
       <use xlink:href="#DejaVuSans-50"/>
       <use x="63.623047" xlink:href="#DejaVuSans-53"/>
      </g>
     </g>
    </g>
    <g id="xtick_7">
     <g id="line2d_7">
      <path clip-path="url(#p2604f085e4)" d="M 300.937014 288.430125 
L 300.937014 22.318125 
" style="fill:none;stroke:#cccccc;stroke-linecap:round;stroke-width:0.8;"/>
     </g>
     <g id="text_7">
      <!-- 30 -->
      <defs>
       <path d="M 40.578125 39.3125 
Q 47.65625 37.796875 51.625 33 
Q 55.609375 28.21875 55.609375 21.1875 
Q 55.609375 10.40625 48.1875 4.484375 
Q 40.765625 -1.421875 27.09375 -1.421875 
Q 22.515625 -1.421875 17.65625 -0.515625 
Q 12.796875 0.390625 7.625 2.203125 
L 7.625 11.71875 
Q 11.71875 9.328125 16.59375 8.109375 
Q 21.484375 6.890625 26.8125 6.890625 
Q 36.078125 6.890625 40.9375 10.546875 
Q 45.796875 14.203125 45.796875 21.1875 
Q 45.796875 27.640625 41.28125 31.265625 
Q 36.765625 34.90625 28.71875 34.90625 
L 20.21875 34.90625 
L 20.21875 43.015625 
L 29.109375 43.015625 
Q 36.375 43.015625 40.234375 45.921875 
Q 44.09375 48.828125 44.09375 54.296875 
Q 44.09375 59.90625 40.109375 62.90625 
Q 36.140625 65.921875 28.71875 65.921875 
Q 24.65625 65.921875 20.015625 65.03125 
Q 15.375 64.15625 9.8125 62.3125 
L 9.8125 71.09375 
Q 15.4375 72.65625 20.34375 73.4375 
Q 25.25 74.21875 29.59375 74.21875 
Q 40.828125 74.21875 47.359375 69.109375 
Q 53.90625 64.015625 53.90625 55.328125 
Q 53.90625 49.265625 50.4375 45.09375 
Q 46.96875 40.921875 40.578125 39.3125 
z
" id="DejaVuSans-51"/>
      </defs>
      <g style="fill:#262626;" transform="translate(294.574514 303.028562)scale(0.1 -0.1)">
       <use xlink:href="#DejaVuSans-51"/>
       <use x="63.623047" xlink:href="#DejaVuSans-48"/>
      </g>
     </g>
    </g>
    <g id="xtick_8">
     <g id="line2d_8">
      <path clip-path="url(#p2604f085e4)" d="M 341.620541 288.430125 
L 341.620541 22.318125 
" style="fill:none;stroke:#cccccc;stroke-linecap:round;stroke-width:0.8;"/>
     </g>
     <g id="text_8">
      <!-- 35 -->
      <g style="fill:#262626;" transform="translate(335.258041 303.028562)scale(0.1 -0.1)">
       <use xlink:href="#DejaVuSans-51"/>
       <use x="63.623047" xlink:href="#DejaVuSans-53"/>
      </g>
     </g>
    </g>
    <g id="xtick_9">
     <g id="line2d_9">
      <path clip-path="url(#p2604f085e4)" d="M 382.304068 288.430125 
L 382.304068 22.318125 
" style="fill:none;stroke:#cccccc;stroke-linecap:round;stroke-width:0.8;"/>
     </g>
     <g id="text_9">
      <!-- 40 -->
      <defs>
       <path d="M 37.796875 64.3125 
L 12.890625 25.390625 
L 37.796875 25.390625 
z
M 35.203125 72.90625 
L 47.609375 72.90625 
L 47.609375 25.390625 
L 58.015625 25.390625 
L 58.015625 17.1875 
L 47.609375 17.1875 
L 47.609375 0 
L 37.796875 0 
L 37.796875 17.1875 
L 4.890625 17.1875 
L 4.890625 26.703125 
z
" id="DejaVuSans-52"/>
      </defs>
      <g style="fill:#262626;" transform="translate(375.941568 303.028562)scale(0.1 -0.1)">
       <use xlink:href="#DejaVuSans-52"/>
       <use x="63.623047" xlink:href="#DejaVuSans-48"/>
      </g>
     </g>
    </g>
    <g id="text_10">
     <!-- time (days) -->
     <defs>
      <path d="M 18.3125 70.21875 
L 18.3125 54.6875 
L 36.8125 54.6875 
L 36.8125 47.703125 
L 18.3125 47.703125 
L 18.3125 18.015625 
Q 18.3125 11.328125 20.140625 9.421875 
Q 21.96875 7.515625 27.59375 7.515625 
L 36.8125 7.515625 
L 36.8125 0 
L 27.59375 0 
Q 17.1875 0 13.234375 3.875 
Q 9.28125 7.765625 9.28125 18.015625 
L 9.28125 47.703125 
L 2.6875 47.703125 
L 2.6875 54.6875 
L 9.28125 54.6875 
L 9.28125 70.21875 
z
" id="DejaVuSans-116"/>
      <path d="M 9.421875 54.6875 
L 18.40625 54.6875 
L 18.40625 0 
L 9.421875 0 
z
M 9.421875 75.984375 
L 18.40625 75.984375 
L 18.40625 64.59375 
L 9.421875 64.59375 
z
" id="DejaVuSans-105"/>
      <path d="M 52 44.1875 
Q 55.375 50.25 60.0625 53.125 
Q 64.75 56 71.09375 56 
Q 79.640625 56 84.28125 50.015625 
Q 88.921875 44.046875 88.921875 33.015625 
L 88.921875 0 
L 79.890625 0 
L 79.890625 32.71875 
Q 79.890625 40.578125 77.09375 44.375 
Q 74.3125 48.1875 68.609375 48.1875 
Q 61.625 48.1875 57.5625 43.546875 
Q 53.515625 38.921875 53.515625 30.90625 
L 53.515625 0 
L 44.484375 0 
L 44.484375 32.71875 
Q 44.484375 40.625 41.703125 44.40625 
Q 38.921875 48.1875 33.109375 48.1875 
Q 26.21875 48.1875 22.15625 43.53125 
Q 18.109375 38.875 18.109375 30.90625 
L 18.109375 0 
L 9.078125 0 
L 9.078125 54.6875 
L 18.109375 54.6875 
L 18.109375 46.1875 
Q 21.1875 51.21875 25.484375 53.609375 
Q 29.78125 56 35.6875 56 
Q 41.65625 56 45.828125 52.96875 
Q 50 49.953125 52 44.1875 
z
" id="DejaVuSans-109"/>
      <path d="M 56.203125 29.59375 
L 56.203125 25.203125 
L 14.890625 25.203125 
Q 15.484375 15.921875 20.484375 11.0625 
Q 25.484375 6.203125 34.421875 6.203125 
Q 39.59375 6.203125 44.453125 7.46875 
Q 49.3125 8.734375 54.109375 11.28125 
L 54.109375 2.78125 
Q 49.265625 0.734375 44.1875 -0.34375 
Q 39.109375 -1.421875 33.890625 -1.421875 
Q 20.796875 -1.421875 13.15625 6.1875 
Q 5.515625 13.8125 5.515625 26.8125 
Q 5.515625 40.234375 12.765625 48.109375 
Q 20.015625 56 32.328125 56 
Q 43.359375 56 49.78125 48.890625 
Q 56.203125 41.796875 56.203125 29.59375 
z
M 47.21875 32.234375 
Q 47.125 39.59375 43.09375 43.984375 
Q 39.0625 48.390625 32.421875 48.390625 
Q 24.90625 48.390625 20.390625 44.140625 
Q 15.875 39.890625 15.1875 32.171875 
z
" id="DejaVuSans-101"/>
      <path id="DejaVuSans-32"/>
      <path d="M 31 75.875 
Q 24.46875 64.65625 21.28125 53.65625 
Q 18.109375 42.671875 18.109375 31.390625 
Q 18.109375 20.125 21.3125 9.0625 
Q 24.515625 -2 31 -13.1875 
L 23.1875 -13.1875 
Q 15.875 -1.703125 12.234375 9.375 
Q 8.59375 20.453125 8.59375 31.390625 
Q 8.59375 42.28125 12.203125 53.3125 
Q 15.828125 64.359375 23.1875 75.875 
z
" id="DejaVuSans-40"/>
      <path d="M 45.40625 46.390625 
L 45.40625 75.984375 
L 54.390625 75.984375 
L 54.390625 0 
L 45.40625 0 
L 45.40625 8.203125 
Q 42.578125 3.328125 38.25 0.953125 
Q 33.9375 -1.421875 27.875 -1.421875 
Q 17.96875 -1.421875 11.734375 6.484375 
Q 5.515625 14.40625 5.515625 27.296875 
Q 5.515625 40.1875 11.734375 48.09375 
Q 17.96875 56 27.875 56 
Q 33.9375 56 38.25 53.625 
Q 42.578125 51.265625 45.40625 46.390625 
z
M 14.796875 27.296875 
Q 14.796875 17.390625 18.875 11.75 
Q 22.953125 6.109375 30.078125 6.109375 
Q 37.203125 6.109375 41.296875 11.75 
Q 45.40625 17.390625 45.40625 27.296875 
Q 45.40625 37.203125 41.296875 42.84375 
Q 37.203125 48.484375 30.078125 48.484375 
Q 22.953125 48.484375 18.875 42.84375 
Q 14.796875 37.203125 14.796875 27.296875 
z
" id="DejaVuSans-100"/>
      <path d="M 34.28125 27.484375 
Q 23.390625 27.484375 19.1875 25 
Q 14.984375 22.515625 14.984375 16.5 
Q 14.984375 11.71875 18.140625 8.90625 
Q 21.296875 6.109375 26.703125 6.109375 
Q 34.1875 6.109375 38.703125 11.40625 
Q 43.21875 16.703125 43.21875 25.484375 
L 43.21875 27.484375 
z
M 52.203125 31.203125 
L 52.203125 0 
L 43.21875 0 
L 43.21875 8.296875 
Q 40.140625 3.328125 35.546875 0.953125 
Q 30.953125 -1.421875 24.3125 -1.421875 
Q 15.921875 -1.421875 10.953125 3.296875 
Q 6 8.015625 6 15.921875 
Q 6 25.140625 12.171875 29.828125 
Q 18.359375 34.515625 30.609375 34.515625 
L 43.21875 34.515625 
L 43.21875 35.40625 
Q 43.21875 41.609375 39.140625 45 
Q 35.0625 48.390625 27.6875 48.390625 
Q 23 48.390625 18.546875 47.265625 
Q 14.109375 46.140625 10.015625 43.890625 
L 10.015625 52.203125 
Q 14.9375 54.109375 19.578125 55.046875 
Q 24.21875 56 28.609375 56 
Q 40.484375 56 46.34375 49.84375 
Q 52.203125 43.703125 52.203125 31.203125 
z
" id="DejaVuSans-97"/>
      <path d="M 32.171875 -5.078125 
Q 28.375 -14.84375 24.75 -17.8125 
Q 21.140625 -20.796875 15.09375 -20.796875 
L 7.90625 -20.796875 
L 7.90625 -13.28125 
L 13.1875 -13.28125 
Q 16.890625 -13.28125 18.9375 -11.515625 
Q 21 -9.765625 23.484375 -3.21875 
L 25.09375 0.875 
L 2.984375 54.6875 
L 12.5 54.6875 
L 29.59375 11.921875 
L 46.6875 54.6875 
L 56.203125 54.6875 
z
" id="DejaVuSans-121"/>
      <path d="M 44.28125 53.078125 
L 44.28125 44.578125 
Q 40.484375 46.53125 36.375 47.5 
Q 32.28125 48.484375 27.875 48.484375 
Q 21.1875 48.484375 17.84375 46.4375 
Q 14.5 44.390625 14.5 40.28125 
Q 14.5 37.15625 16.890625 35.375 
Q 19.28125 33.59375 26.515625 31.984375 
L 29.59375 31.296875 
Q 39.15625 29.25 43.1875 25.515625 
Q 47.21875 21.78125 47.21875 15.09375 
Q 47.21875 7.46875 41.1875 3.015625 
Q 35.15625 -1.421875 24.609375 -1.421875 
Q 20.21875 -1.421875 15.453125 -0.5625 
Q 10.6875 0.296875 5.421875 2 
L 5.421875 11.28125 
Q 10.40625 8.6875 15.234375 7.390625 
Q 20.0625 6.109375 24.8125 6.109375 
Q 31.15625 6.109375 34.5625 8.28125 
Q 37.984375 10.453125 37.984375 14.40625 
Q 37.984375 18.0625 35.515625 20.015625 
Q 33.0625 21.96875 24.703125 23.78125 
L 21.578125 24.515625 
Q 13.234375 26.265625 9.515625 29.90625 
Q 5.8125 33.546875 5.8125 39.890625 
Q 5.8125 47.609375 11.28125 51.796875 
Q 16.75 56 26.8125 56 
Q 31.78125 56 36.171875 55.265625 
Q 40.578125 54.546875 44.28125 53.078125 
z
" id="DejaVuSans-115"/>
      <path d="M 8.015625 75.875 
L 15.828125 75.875 
Q 23.140625 64.359375 26.78125 53.3125 
Q 30.421875 42.28125 30.421875 31.390625 
Q 30.421875 20.453125 26.78125 9.375 
Q 23.140625 -1.703125 15.828125 -13.1875 
L 8.015625 -13.1875 
Q 14.5 -2 17.703125 9.0625 
Q 20.90625 20.125 20.90625 31.390625 
Q 20.90625 42.671875 17.703125 53.65625 
Q 14.5 64.65625 8.015625 75.875 
z
" id="DejaVuSans-41"/>
     </defs>
     <g style="fill:#262626;" transform="translate(190.574062 316.706687)scale(0.1 -0.1)">
      <use xlink:href="#DejaVuSans-116"/>
      <use x="39.208984" xlink:href="#DejaVuSans-105"/>
      <use x="66.992188" xlink:href="#DejaVuSans-109"/>
      <use x="164.404297" xlink:href="#DejaVuSans-101"/>
      <use x="225.927734" xlink:href="#DejaVuSans-32"/>
      <use x="257.714844" xlink:href="#DejaVuSans-40"/>
      <use x="296.728516" xlink:href="#DejaVuSans-100"/>
      <use x="360.205078" xlink:href="#DejaVuSans-97"/>
      <use x="421.484375" xlink:href="#DejaVuSans-121"/>
      <use x="480.664062" xlink:href="#DejaVuSans-115"/>
      <use x="532.763672" xlink:href="#DejaVuSans-41"/>
     </g>
    </g>
   </g>
   <g id="matplotlib.axis_2">
    <g id="ytick_1">
     <g id="line2d_10">
      <path clip-path="url(#p2604f085e4)" d="M 40.603125 276.334125 
L 397.723125 276.334125 
" style="fill:none;stroke:#cccccc;stroke-linecap:round;stroke-width:0.8;"/>
     </g>
     <g id="text_11">
      <!-- 0 -->
      <g style="fill:#262626;" transform="translate(27.240625 280.133344)scale(0.1 -0.1)">
       <use xlink:href="#DejaVuSans-48"/>
      </g>
     </g>
    </g>
    <g id="ytick_2">
     <g id="line2d_11">
      <path clip-path="url(#p2604f085e4)" d="M 40.603125 241.774125 
L 397.723125 241.774125 
" style="fill:none;stroke:#cccccc;stroke-linecap:round;stroke-width:0.8;"/>
     </g>
     <g id="text_12">
      <!-- 2 -->
      <g style="fill:#262626;" transform="translate(27.240625 245.573344)scale(0.1 -0.1)">
       <use xlink:href="#DejaVuSans-50"/>
      </g>
     </g>
    </g>
    <g id="ytick_3">
     <g id="line2d_12">
      <path clip-path="url(#p2604f085e4)" d="M 40.603125 207.214125 
L 397.723125 207.214125 
" style="fill:none;stroke:#cccccc;stroke-linecap:round;stroke-width:0.8;"/>
     </g>
     <g id="text_13">
      <!-- 4 -->
      <g style="fill:#262626;" transform="translate(27.240625 211.013344)scale(0.1 -0.1)">
       <use xlink:href="#DejaVuSans-52"/>
      </g>
     </g>
    </g>
    <g id="ytick_4">
     <g id="line2d_13">
      <path clip-path="url(#p2604f085e4)" d="M 40.603125 172.654125 
L 397.723125 172.654125 
" style="fill:none;stroke:#cccccc;stroke-linecap:round;stroke-width:0.8;"/>
     </g>
     <g id="text_14">
      <!-- 6 -->
      <defs>
       <path d="M 33.015625 40.375 
Q 26.375 40.375 22.484375 35.828125 
Q 18.609375 31.296875 18.609375 23.390625 
Q 18.609375 15.53125 22.484375 10.953125 
Q 26.375 6.390625 33.015625 6.390625 
Q 39.65625 6.390625 43.53125 10.953125 
Q 47.40625 15.53125 47.40625 23.390625 
Q 47.40625 31.296875 43.53125 35.828125 
Q 39.65625 40.375 33.015625 40.375 
z
M 52.59375 71.296875 
L 52.59375 62.3125 
Q 48.875 64.0625 45.09375 64.984375 
Q 41.3125 65.921875 37.59375 65.921875 
Q 27.828125 65.921875 22.671875 59.328125 
Q 17.53125 52.734375 16.796875 39.40625 
Q 19.671875 43.65625 24.015625 45.921875 
Q 28.375 48.1875 33.59375 48.1875 
Q 44.578125 48.1875 50.953125 41.515625 
Q 57.328125 34.859375 57.328125 23.390625 
Q 57.328125 12.15625 50.6875 5.359375 
Q 44.046875 -1.421875 33.015625 -1.421875 
Q 20.359375 -1.421875 13.671875 8.265625 
Q 6.984375 17.96875 6.984375 36.375 
Q 6.984375 53.65625 15.1875 63.9375 
Q 23.390625 74.21875 37.203125 74.21875 
Q 40.921875 74.21875 44.703125 73.484375 
Q 48.484375 72.75 52.59375 71.296875 
z
" id="DejaVuSans-54"/>
      </defs>
      <g style="fill:#262626;" transform="translate(27.240625 176.453344)scale(0.1 -0.1)">
       <use xlink:href="#DejaVuSans-54"/>
      </g>
     </g>
    </g>
    <g id="ytick_5">
     <g id="line2d_14">
      <path clip-path="url(#p2604f085e4)" d="M 40.603125 138.094125 
L 397.723125 138.094125 
" style="fill:none;stroke:#cccccc;stroke-linecap:round;stroke-width:0.8;"/>
     </g>
     <g id="text_15">
      <!-- 8 -->
      <defs>
       <path d="M 31.78125 34.625 
Q 24.75 34.625 20.71875 30.859375 
Q 16.703125 27.09375 16.703125 20.515625 
Q 16.703125 13.921875 20.71875 10.15625 
Q 24.75 6.390625 31.78125 6.390625 
Q 38.8125 6.390625 42.859375 10.171875 
Q 46.921875 13.96875 46.921875 20.515625 
Q 46.921875 27.09375 42.890625 30.859375 
Q 38.875 34.625 31.78125 34.625 
z
M 21.921875 38.8125 
Q 15.578125 40.375 12.03125 44.71875 
Q 8.5 49.078125 8.5 55.328125 
Q 8.5 64.0625 14.71875 69.140625 
Q 20.953125 74.21875 31.78125 74.21875 
Q 42.671875 74.21875 48.875 69.140625 
Q 55.078125 64.0625 55.078125 55.328125 
Q 55.078125 49.078125 51.53125 44.71875 
Q 48 40.375 41.703125 38.8125 
Q 48.828125 37.15625 52.796875 32.3125 
Q 56.78125 27.484375 56.78125 20.515625 
Q 56.78125 9.90625 50.3125 4.234375 
Q 43.84375 -1.421875 31.78125 -1.421875 
Q 19.734375 -1.421875 13.25 4.234375 
Q 6.78125 9.90625 6.78125 20.515625 
Q 6.78125 27.484375 10.78125 32.3125 
Q 14.796875 37.15625 21.921875 38.8125 
z
M 18.3125 54.390625 
Q 18.3125 48.734375 21.84375 45.5625 
Q 25.390625 42.390625 31.78125 42.390625 
Q 38.140625 42.390625 41.71875 45.5625 
Q 45.3125 48.734375 45.3125 54.390625 
Q 45.3125 60.0625 41.71875 63.234375 
Q 38.140625 66.40625 31.78125 66.40625 
Q 25.390625 66.40625 21.84375 63.234375 
Q 18.3125 60.0625 18.3125 54.390625 
z
" id="DejaVuSans-56"/>
      </defs>
      <g style="fill:#262626;" transform="translate(27.240625 141.893344)scale(0.1 -0.1)">
       <use xlink:href="#DejaVuSans-56"/>
      </g>
     </g>
    </g>
    <g id="ytick_6">
     <g id="line2d_15">
      <path clip-path="url(#p2604f085e4)" d="M 40.603125 103.534125 
L 397.723125 103.534125 
" style="fill:none;stroke:#cccccc;stroke-linecap:round;stroke-width:0.8;"/>
     </g>
     <g id="text_16">
      <!-- 10 -->
      <g style="fill:#262626;" transform="translate(20.878125 107.333344)scale(0.1 -0.1)">
       <use xlink:href="#DejaVuSans-49"/>
       <use x="63.623047" xlink:href="#DejaVuSans-48"/>
      </g>
     </g>
    </g>
    <g id="ytick_7">
     <g id="line2d_16">
      <path clip-path="url(#p2604f085e4)" d="M 40.603125 68.974125 
L 397.723125 68.974125 
" style="fill:none;stroke:#cccccc;stroke-linecap:round;stroke-width:0.8;"/>
     </g>
     <g id="text_17">
      <!-- 12 -->
      <g style="fill:#262626;" transform="translate(20.878125 72.773344)scale(0.1 -0.1)">
       <use xlink:href="#DejaVuSans-49"/>
       <use x="63.623047" xlink:href="#DejaVuSans-50"/>
      </g>
     </g>
    </g>
    <g id="ytick_8">
     <g id="line2d_17">
      <path clip-path="url(#p2604f085e4)" d="M 40.603125 34.414125 
L 397.723125 34.414125 
" style="fill:none;stroke:#cccccc;stroke-linecap:round;stroke-width:0.8;"/>
     </g>
     <g id="text_18">
      <!-- 14 -->
      <g style="fill:#262626;" transform="translate(20.878125 38.213344)scale(0.1 -0.1)">
       <use xlink:href="#DejaVuSans-49"/>
       <use x="63.623047" xlink:href="#DejaVuSans-52"/>
      </g>
     </g>
    </g>
    <g id="text_19">
     <!-- cells number -->
     <defs>
      <path d="M 48.78125 52.59375 
L 48.78125 44.1875 
Q 44.96875 46.296875 41.140625 47.34375 
Q 37.3125 48.390625 33.40625 48.390625 
Q 24.65625 48.390625 19.8125 42.84375 
Q 14.984375 37.3125 14.984375 27.296875 
Q 14.984375 17.28125 19.8125 11.734375 
Q 24.65625 6.203125 33.40625 6.203125 
Q 37.3125 6.203125 41.140625 7.25 
Q 44.96875 8.296875 48.78125 10.40625 
L 48.78125 2.09375 
Q 45.015625 0.34375 40.984375 -0.53125 
Q 36.96875 -1.421875 32.421875 -1.421875 
Q 20.0625 -1.421875 12.78125 6.34375 
Q 5.515625 14.109375 5.515625 27.296875 
Q 5.515625 40.671875 12.859375 48.328125 
Q 20.21875 56 33.015625 56 
Q 37.15625 56 41.109375 55.140625 
Q 45.0625 54.296875 48.78125 52.59375 
z
" id="DejaVuSans-99"/>
      <path d="M 9.421875 75.984375 
L 18.40625 75.984375 
L 18.40625 0 
L 9.421875 0 
z
" id="DejaVuSans-108"/>
      <path d="M 54.890625 33.015625 
L 54.890625 0 
L 45.90625 0 
L 45.90625 32.71875 
Q 45.90625 40.484375 42.875 44.328125 
Q 39.84375 48.1875 33.796875 48.1875 
Q 26.515625 48.1875 22.3125 43.546875 
Q 18.109375 38.921875 18.109375 30.90625 
L 18.109375 0 
L 9.078125 0 
L 9.078125 54.6875 
L 18.109375 54.6875 
L 18.109375 46.1875 
Q 21.34375 51.125 25.703125 53.5625 
Q 30.078125 56 35.796875 56 
Q 45.21875 56 50.046875 50.171875 
Q 54.890625 44.34375 54.890625 33.015625 
z
" id="DejaVuSans-110"/>
      <path d="M 8.5 21.578125 
L 8.5 54.6875 
L 17.484375 54.6875 
L 17.484375 21.921875 
Q 17.484375 14.15625 20.5 10.265625 
Q 23.53125 6.390625 29.59375 6.390625 
Q 36.859375 6.390625 41.078125 11.03125 
Q 45.3125 15.671875 45.3125 23.6875 
L 45.3125 54.6875 
L 54.296875 54.6875 
L 54.296875 0 
L 45.3125 0 
L 45.3125 8.40625 
Q 42.046875 3.421875 37.71875 1 
Q 33.40625 -1.421875 27.6875 -1.421875 
Q 18.265625 -1.421875 13.375 4.4375 
Q 8.5 10.296875 8.5 21.578125 
z
M 31.109375 56 
z
" id="DejaVuSans-117"/>
      <path d="M 48.6875 27.296875 
Q 48.6875 37.203125 44.609375 42.84375 
Q 40.53125 48.484375 33.40625 48.484375 
Q 26.265625 48.484375 22.1875 42.84375 
Q 18.109375 37.203125 18.109375 27.296875 
Q 18.109375 17.390625 22.1875 11.75 
Q 26.265625 6.109375 33.40625 6.109375 
Q 40.53125 6.109375 44.609375 11.75 
Q 48.6875 17.390625 48.6875 27.296875 
z
M 18.109375 46.390625 
Q 20.953125 51.265625 25.265625 53.625 
Q 29.59375 56 35.59375 56 
Q 45.5625 56 51.78125 48.09375 
Q 58.015625 40.1875 58.015625 27.296875 
Q 58.015625 14.40625 51.78125 6.484375 
Q 45.5625 -1.421875 35.59375 -1.421875 
Q 29.59375 -1.421875 25.265625 0.953125 
Q 20.953125 3.328125 18.109375 8.203125 
L 18.109375 0 
L 9.078125 0 
L 9.078125 75.984375 
L 18.109375 75.984375 
z
" id="DejaVuSans-98"/>
      <path d="M 41.109375 46.296875 
Q 39.59375 47.171875 37.8125 47.578125 
Q 36.03125 48 33.890625 48 
Q 26.265625 48 22.1875 43.046875 
Q 18.109375 38.09375 18.109375 28.8125 
L 18.109375 0 
L 9.078125 0 
L 9.078125 54.6875 
L 18.109375 54.6875 
L 18.109375 46.1875 
Q 20.953125 51.171875 25.484375 53.578125 
Q 30.03125 56 36.53125 56 
Q 37.453125 56 38.578125 55.875 
Q 39.703125 55.765625 41.0625 55.515625 
z
" id="DejaVuSans-114"/>
     </defs>
     <g style="fill:#262626;" transform="translate(14.798438 187.685844)rotate(-90)scale(0.1 -0.1)">
      <use xlink:href="#DejaVuSans-99"/>
      <use x="54.980469" xlink:href="#DejaVuSans-101"/>
      <use x="116.503906" xlink:href="#DejaVuSans-108"/>
      <use x="144.287109" xlink:href="#DejaVuSans-108"/>
      <use x="172.070312" xlink:href="#DejaVuSans-115"/>
      <use x="224.169922" xlink:href="#DejaVuSans-32"/>
      <use x="255.957031" xlink:href="#DejaVuSans-110"/>
      <use x="319.335938" xlink:href="#DejaVuSans-117"/>
      <use x="382.714844" xlink:href="#DejaVuSans-109"/>
      <use x="480.126953" xlink:href="#DejaVuSans-98"/>
      <use x="543.603516" xlink:href="#DejaVuSans-101"/>
      <use x="605.126953" xlink:href="#DejaVuSans-114"/>
     </g>
    </g>
   </g>
   <g id="line2d_18">
    <path clip-path="url(#p2604f085e4)" d="M 56.835852 276.334125 
L 60.090534 276.334125 
L 60.904205 259.054125 
L 69.04091 259.054125 
L 69.854581 241.774125 
L 70.668251 241.774125 
L 71.481922 224.494125 
L 72.295593 224.494125 
L 73.922934 189.934125 
L 74.736604 207.214125 
L 79.618627 207.214125 
L 80.432298 172.654125 
L 81.245968 172.654125 
L 82.059639 155.374125 
L 83.68698 155.374125 
L 84.500651 138.094125 
L 86.127992 138.094125 
L 86.941662 103.534125 
L 91.010015 103.534125 
L 91.823685 120.814125 
L 94.264697 120.814125 
L 95.078368 103.534125 
L 98.33305 103.534125 
L 99.14672 86.254125 
L 99.960391 103.534125 
L 104.842414 103.534125 
L 105.656085 86.254125 
L 106.469755 103.534125 
L 109.724437 103.534125 
L 110.538108 120.814125 
L 112.97912 120.814125 
L 113.79279 103.534125 
L 115.420131 103.534125 
L 117.047472 138.094125 
L 120.302154 138.094125 
L 121.115825 155.374125 
L 125.997848 155.374125 
L 126.811519 172.654125 
L 127.625189 155.374125 
L 130.066201 155.374125 
L 130.879871 172.654125 
L 143.8986 172.654125 
L 144.712271 155.374125 
L 147.966953 155.374125 
L 148.780623 172.654125 
L 169.122387 172.654125 
L 169.936057 155.374125 
L 171.563398 155.374125 
L 172.377069 172.654125 
L 175.631751 172.654125 
L 176.445422 155.374125 
L 181.327445 155.374125 
L 182.141115 189.934125 
L 183.768457 189.934125 
L 184.582127 207.214125 
L 195.159844 207.214125 
L 196.787185 241.774125 
L 204.923891 241.774125 
L 205.737561 259.054125 
L 216.315278 259.054125 
L 217.128949 276.334125 
L 217.942619 259.054125 
L 235.029701 259.054125 
L 235.843371 241.774125 
L 238.284383 241.774125 
L 239.098053 224.494125 
L 239.911724 224.494125 
L 240.725394 241.774125 
L 242.352735 241.774125 
L 243.166406 224.494125 
L 245.607418 224.494125 
L 246.421088 207.214125 
L 247.234759 224.494125 
L 252.930452 224.494125 
L 253.744123 207.214125 
L 278.96791 207.214125 
L 279.78158 224.494125 
L 284.663603 224.494125 
L 285.477274 241.774125 
L 294.42765 241.774125 
L 295.24132 224.494125 
L 318.024096 224.494125 
L 318.837766 207.214125 
L 322.906119 207.214125 
L 323.719789 224.494125 
L 325.34713 224.494125 
L 326.160801 241.774125 
L 327.788142 241.774125 
L 328.601813 224.494125 
L 353.011929 224.494125 
L 353.825599 207.214125 
L 361.148634 207.214125 
L 361.962305 224.494125 
L 366.844328 224.494125 
L 367.657999 241.774125 
L 374.167363 241.774125 
L 375.794704 276.334125 
L 381.490398 276.334125 
L 381.490398 276.334125 
" style="fill:none;stroke:#000080;stroke-linecap:round;stroke-width:1.5;"/>
   </g>
   <g id="line2d_19">
    <path clip-path="url(#p2604f085e4)" d="M 56.835852 276.334125 
L 62.531546 276.334125 
L 63.345217 241.774125 
L 69.854581 241.774125 
L 70.668251 224.494125 
L 75.550275 224.494125 
L 76.363945 207.214125 
L 77.177616 224.494125 
L 77.991286 207.214125 
L 80.432298 207.214125 
L 81.245968 224.494125 
L 82.87331 224.494125 
L 84.500651 189.934125 
L 85.314321 207.214125 
L 86.127992 189.934125 
L 90.196344 189.934125 
L 91.010015 172.654125 
L 95.078368 172.654125 
L 95.892038 155.374125 
L 96.705709 172.654125 
L 97.519379 155.374125 
L 98.33305 155.374125 
L 99.14672 172.654125 
L 101.587732 172.654125 
L 102.401403 207.214125 
L 107.283426 207.214125 
L 108.097096 189.934125 
L 108.910767 189.934125 
L 109.724437 172.654125 
L 110.538108 189.934125 
L 111.351778 189.934125 
L 112.165449 207.214125 
L 121.115825 207.214125 
L 121.929495 224.494125 
L 123.556837 224.494125 
L 124.370507 207.214125 
L 132.507212 207.214125 
L 133.320883 189.934125 
L 136.575565 189.934125 
L 137.389236 207.214125 
L 139.016577 207.214125 
L 139.830247 224.494125 
L 169.122387 224.494125 
L 169.936057 241.774125 
L 175.631751 241.774125 
L 176.445422 259.054125 
L 178.886433 259.054125 
L 179.700104 241.774125 
L 183.768457 241.774125 
L 184.582127 224.494125 
L 189.46415 224.494125 
L 190.277821 207.214125 
L 198.414526 207.214125 
L 199.228197 224.494125 
L 217.942619 224.494125 
L 218.75629 207.214125 
L 232.588689 207.214125 
L 233.402359 224.494125 
L 234.21603 224.494125 
L 235.029701 241.774125 
L 249.67577 241.774125 
L 250.489441 224.494125 
L 257.812476 224.494125 
L 258.626146 207.214125 
L 264.32184 207.214125 
L 265.135511 224.494125 
L 273.272216 224.494125 
L 274.085886 241.774125 
L 274.899557 241.774125 
L 275.713228 259.054125 
L 278.96791 259.054125 
L 279.78158 276.334125 
L 295.24132 276.334125 
L 296.868662 241.774125 
L 298.496003 241.774125 
L 299.309673 224.494125 
L 304.191696 224.494125 
L 305.819038 259.054125 
L 331.042824 259.054125 
L 331.856495 241.774125 
L 332.670165 241.774125 
L 333.483836 259.054125 
L 339.9932 259.054125 
L 340.806871 241.774125 
L 357.893952 241.774125 
L 358.707623 259.054125 
L 366.844328 259.054125 
L 367.657999 241.774125 
L 381.490398 241.774125 
L 381.490398 241.774125 
" style="fill:none;stroke:#0000f1;stroke-linecap:round;stroke-width:1.5;"/>
   </g>
   <g id="line2d_20">
    <path clip-path="url(#p2604f085e4)" d="M 56.835852 276.334125 
L 60.904205 276.334125 
L 62.531546 241.774125 
L 63.345217 241.774125 
L 64.158887 224.494125 
L 68.22724 224.494125 
L 69.04091 207.214125 
L 70.668251 207.214125 
L 71.481922 189.934125 
L 74.736604 189.934125 
L 75.550275 207.214125 
L 81.245968 207.214125 
L 82.059639 189.934125 
L 83.68698 189.934125 
L 84.500651 155.374125 
L 86.941662 155.374125 
L 87.755333 172.654125 
L 88.569003 155.374125 
L 89.382674 155.374125 
L 90.196344 172.654125 
L 91.823685 172.654125 
L 92.637356 189.934125 
L 93.451027 189.934125 
L 94.264697 172.654125 
L 95.078368 172.654125 
L 95.892038 189.934125 
L 96.705709 189.934125 
L 97.519379 172.654125 
L 99.14672 172.654125 
L 99.960391 207.214125 
L 100.774061 207.214125 
L 101.587732 224.494125 
L 116.233802 224.494125 
L 117.047472 207.214125 
L 132.507212 207.214125 
L 133.320883 189.934125 
L 139.830247 189.934125 
L 140.643918 224.494125 
L 141.457588 241.774125 
L 186.209468 241.774125 
L 187.023139 224.494125 
L 202.482879 224.494125 
L 203.296549 207.214125 
L 211.433255 207.214125 
L 212.246925 224.494125 
L 213.874266 224.494125 
L 214.687937 241.774125 
L 223.638313 241.774125 
L 224.451984 224.494125 
L 237.470712 224.494125 
L 238.284383 241.774125 
L 241.539065 241.774125 
L 242.352735 224.494125 
L 250.489441 224.494125 
L 251.303111 207.214125 
L 252.116782 207.214125 
L 252.930452 189.934125 
L 256.998805 189.934125 
L 257.812476 172.654125 
L 258.626146 189.934125 
L 262.694499 189.934125 
L 263.508169 207.214125 
L 275.713228 207.214125 
L 276.526898 189.934125 
L 283.849933 189.934125 
L 284.663603 207.214125 
L 286.290945 207.214125 
L 287.104615 224.494125 
L 292.800309 224.494125 
L 293.613979 207.214125 
L 306.632708 207.214125 
L 307.446379 224.494125 
L 308.260049 207.214125 
L 309.07372 207.214125 
L 309.88739 224.494125 
L 310.701061 207.214125 
L 312.328402 207.214125 
L 313.142072 224.494125 
L 324.53346 224.494125 
L 325.34713 241.774125 
L 326.160801 224.494125 
L 350.570917 224.494125 
L 351.384588 207.214125 
L 353.011929 207.214125 
L 353.825599 224.494125 
L 357.080282 224.494125 
L 357.893952 241.774125 
L 365.216987 241.774125 
L 366.030657 224.494125 
L 370.09901 224.494125 
L 370.912681 207.214125 
L 373.353692 207.214125 
L 374.167363 189.934125 
L 380.676727 189.934125 
L 381.490398 207.214125 
L 381.490398 207.214125 
" style="fill:none;stroke:#004cff;stroke-linecap:round;stroke-width:1.5;"/>
   </g>
   <g id="line2d_21">
    <path clip-path="url(#p2604f085e4)" d="M 56.835852 276.334125 
L 62.531546 276.334125 
L 63.345217 259.054125 
L 64.158887 259.054125 
L 65.786228 224.494125 
L 68.22724 224.494125 
L 69.04091 189.934125 
L 81.245968 189.934125 
L 82.059639 207.214125 
L 82.87331 189.934125 
L 83.68698 189.934125 
L 84.500651 207.214125 
L 86.941662 155.374125 
L 88.569003 155.374125 
L 89.382674 138.094125 
L 90.196344 138.094125 
L 91.823685 103.534125 
L 93.451027 103.534125 
L 94.264697 86.254125 
L 95.078368 103.534125 
L 99.14672 103.534125 
L 99.960391 120.814125 
L 102.401403 120.814125 
L 103.215073 103.534125 
L 105.656085 103.534125 
L 106.469755 138.094125 
L 108.910767 138.094125 
L 109.724437 103.534125 
L 110.538108 120.814125 
L 111.351778 86.254125 
L 113.79279 86.254125 
L 114.606461 68.974125 
L 120.302154 68.974125 
L 121.115825 86.254125 
L 121.929495 86.254125 
L 122.743166 68.974125 
L 125.184178 68.974125 
L 125.997848 86.254125 
L 128.43886 86.254125 
L 129.25253 103.534125 
L 130.066201 103.534125 
L 131.693542 138.094125 
L 133.320883 138.094125 
L 134.134554 155.374125 
L 140.643918 155.374125 
L 141.457588 172.654125 
L 147.966953 172.654125 
L 148.780623 155.374125 
L 149.594294 172.654125 
L 154.476317 172.654125 
L 155.289988 189.934125 
L 160.985681 189.934125 
L 161.799352 224.494125 
L 162.613022 207.214125 
L 165.054034 207.214125 
L 165.867705 224.494125 
L 174.00441 224.494125 
L 174.818081 241.774125 
L 182.954786 241.774125 
L 183.768457 224.494125 
L 187.836809 224.494125 
L 188.65048 241.774125 
L 192.718832 241.774125 
L 193.532503 224.494125 
L 208.178573 224.494125 
L 209.805914 259.054125 
L 218.75629 259.054125 
L 219.56996 241.774125 
L 226.079325 241.774125 
L 226.892995 224.494125 
L 232.588689 224.494125 
L 233.402359 207.214125 
L 236.657042 207.214125 
L 237.470712 224.494125 
L 240.725394 224.494125 
L 241.539065 241.774125 
L 247.234759 241.774125 
L 248.048429 224.494125 
L 255.371464 224.494125 
L 256.185135 241.774125 
L 256.998805 241.774125 
L 257.812476 259.054125 
L 261.880828 259.054125 
L 262.694499 241.774125 
L 269.203863 241.774125 
L 270.017534 259.054125 
L 275.713228 259.054125 
L 276.526898 241.774125 
L 277.340569 241.774125 
L 278.154239 224.494125 
L 287.918286 224.494125 
L 288.731956 207.214125 
L 290.359297 207.214125 
L 291.172968 224.494125 
L 292.800309 224.494125 
L 293.613979 241.774125 
L 307.446379 241.774125 
L 308.260049 224.494125 
L 309.07372 241.774125 
L 328.601813 241.774125 
L 329.415483 259.054125 
L 345.688894 259.054125 
L 346.502565 276.334125 
L 351.384588 276.334125 
L 352.198258 259.054125 
L 358.707623 259.054125 
L 359.521293 224.494125 
L 361.148634 224.494125 
L 361.962305 241.774125 
L 365.216987 241.774125 
L 366.030657 224.494125 
L 370.912681 224.494125 
L 371.726351 241.774125 
L 381.490398 241.774125 
L 381.490398 241.774125 
" style="fill:none;stroke:#00b0ff;stroke-linecap:round;stroke-width:1.5;"/>
   </g>
   <g id="line2d_22">
    <path clip-path="url(#p2604f085e4)" d="M 56.835852 276.334125 
L 66.599899 276.334125 
L 67.413569 259.054125 
L 69.854581 259.054125 
L 70.668251 241.774125 
L 72.295593 241.774125 
L 74.736604 189.934125 
L 77.177616 189.934125 
L 77.991286 172.654125 
L 79.618627 172.654125 
L 81.245968 138.094125 
L 82.059639 138.094125 
L 82.87331 155.374125 
L 88.569003 155.374125 
L 89.382674 172.654125 
L 90.196344 172.654125 
L 91.010015 155.374125 
L 108.910767 155.374125 
L 109.724437 172.654125 
L 112.97912 172.654125 
L 113.79279 189.934125 
L 117.047472 189.934125 
L 118.674813 155.374125 
L 124.370507 155.374125 
L 125.184178 138.094125 
L 130.879871 138.094125 
L 131.693542 155.374125 
L 132.507212 138.094125 
L 134.948224 138.094125 
L 135.761895 155.374125 
L 140.643918 155.374125 
L 141.457588 138.094125 
L 143.8986 138.094125 
L 144.712271 120.814125 
L 151.221635 120.814125 
L 152.035305 138.094125 
L 155.289988 138.094125 
L 156.103658 155.374125 
L 164.240364 155.374125 
L 165.054034 189.934125 
L 169.936057 189.934125 
L 170.749728 172.654125 
L 174.818081 172.654125 
L 175.631751 189.934125 
L 177.259092 189.934125 
L 178.072763 172.654125 
L 188.65048 172.654125 
L 189.46415 155.374125 
L 200.041867 155.374125 
L 200.855538 172.654125 
L 207.364902 172.654125 
L 208.178573 189.934125 
L 209.805914 189.934125 
L 210.619584 172.654125 
L 211.433255 189.934125 
L 216.315278 189.934125 
L 217.128949 207.214125 
L 217.942619 207.214125 
L 218.75629 224.494125 
L 230.961348 224.494125 
L 231.775018 241.774125 
L 248.8621 241.774125 
L 249.67577 224.494125 
L 261.067158 224.494125 
L 261.880828 241.774125 
L 262.694499 224.494125 
L 270.831204 224.494125 
L 271.644875 207.214125 
L 276.526898 207.214125 
L 277.340569 189.934125 
L 279.78158 189.934125 
L 280.595251 207.214125 
L 283.036262 207.214125 
L 283.849933 189.934125 
L 293.613979 189.934125 
L 295.24132 224.494125 
L 296.054991 224.494125 
L 296.868662 241.774125 
L 326.160801 241.774125 
L 327.788142 207.214125 
L 328.601813 207.214125 
L 329.415483 224.494125 
L 332.670165 224.494125 
L 333.483836 241.774125 
L 339.17953 241.774125 
L 339.9932 224.494125 
L 340.806871 241.774125 
L 353.011929 241.774125 
L 353.825599 224.494125 
L 358.707623 224.494125 
L 359.521293 207.214125 
L 361.148634 207.214125 
L 361.962305 189.934125 
L 374.167363 189.934125 
L 374.981033 207.214125 
L 381.490398 207.214125 
L 381.490398 207.214125 
" style="fill:none;stroke:#29ffce;stroke-linecap:round;stroke-width:1.5;"/>
   </g>
   <g id="line2d_23">
    <path clip-path="url(#p2604f085e4)" d="M 56.835852 276.334125 
L 59.276864 276.334125 
L 60.090534 259.054125 
L 60.904205 259.054125 
L 61.717876 276.334125 
L 63.345217 276.334125 
L 64.158887 241.774125 
L 64.972558 241.774125 
L 65.786228 259.054125 
L 66.599899 259.054125 
L 67.413569 241.774125 
L 69.04091 241.774125 
L 69.854581 224.494125 
L 72.295593 224.494125 
L 73.109263 207.214125 
L 74.736604 207.214125 
L 75.550275 224.494125 
L 83.68698 224.494125 
L 84.500651 207.214125 
L 86.127992 207.214125 
L 86.941662 189.934125 
L 89.382674 189.934125 
L 90.196344 172.654125 
L 92.637356 172.654125 
L 93.451027 155.374125 
L 94.264697 172.654125 
L 95.078368 172.654125 
L 95.892038 155.374125 
L 96.705709 155.374125 
L 97.519379 138.094125 
L 99.14672 138.094125 
L 99.960391 155.374125 
L 100.774061 155.374125 
L 101.587732 138.094125 
L 109.724437 138.094125 
L 110.538108 120.814125 
L 111.351778 138.094125 
L 112.97912 138.094125 
L 113.79279 120.814125 
L 114.606461 138.094125 
L 115.420131 120.814125 
L 117.047472 155.374125 
L 121.115825 155.374125 
L 121.929495 172.654125 
L 125.997848 172.654125 
L 126.811519 155.374125 
L 128.43886 155.374125 
L 129.25253 138.094125 
L 130.066201 138.094125 
L 130.879871 155.374125 
L 135.761895 155.374125 
L 136.575565 138.094125 
L 142.271259 138.094125 
L 143.8986 172.654125 
L 153.662647 172.654125 
L 154.476317 189.934125 
L 155.289988 172.654125 
L 162.613022 172.654125 
L 163.426693 189.934125 
L 175.631751 189.934125 
L 176.445422 207.214125 
L 181.327445 207.214125 
L 182.141115 189.934125 
L 186.209468 189.934125 
L 187.023139 207.214125 
L 191.091491 207.214125 
L 191.905162 224.494125 
L 212.246925 224.494125 
L 213.060596 207.214125 
L 229.334007 207.214125 
L 230.147677 189.934125 
L 230.961348 189.934125 
L 231.775018 207.214125 
L 236.657042 207.214125 
L 237.470712 189.934125 
L 240.725394 189.934125 
L 241.539065 207.214125 
L 248.048429 207.214125 
L 248.8621 224.494125 
L 252.930452 224.494125 
L 254.557793 259.054125 
L 255.371464 259.054125 
L 256.185135 241.774125 
L 260.253487 241.774125 
L 261.067158 224.494125 
L 265.949181 224.494125 
L 266.762852 207.214125 
L 270.831204 207.214125 
L 271.644875 224.494125 
L 278.154239 224.494125 
L 278.96791 207.214125 
L 291.172968 207.214125 
L 291.986638 224.494125 
L 296.868662 224.494125 
L 297.682332 241.774125 
L 325.34713 241.774125 
L 326.160801 259.054125 
L 329.415483 259.054125 
L 330.229154 241.774125 
L 339.17953 241.774125 
L 339.9932 224.494125 
L 352.198258 224.494125 
L 353.011929 207.214125 
L 354.63927 207.214125 
L 355.45294 224.494125 
L 357.893952 224.494125 
L 358.707623 207.214125 
L 364.403316 207.214125 
L 365.216987 224.494125 
L 366.030657 224.494125 
L 366.844328 207.214125 
L 373.353692 207.214125 
L 374.167363 189.934125 
L 374.981033 189.934125 
L 375.794704 207.214125 
L 379.863057 207.214125 
L 380.676727 224.494125 
L 381.490398 224.494125 
L 381.490398 224.494125 
" style="fill:none;stroke:#7dff7a;stroke-linecap:round;stroke-width:1.5;"/>
   </g>
   <g id="line2d_24">
    <path clip-path="url(#p2604f085e4)" d="M 56.835852 276.334125 
L 60.904205 276.334125 
L 61.717876 259.054125 
L 68.22724 259.054125 
L 69.04091 241.774125 
L 73.109263 241.774125 
L 73.922934 224.494125 
L 75.550275 224.494125 
L 76.363945 207.214125 
L 77.177616 207.214125 
L 77.991286 189.934125 
L 78.804957 189.934125 
L 79.618627 207.214125 
L 80.432298 207.214125 
L 82.059639 172.654125 
L 83.68698 172.654125 
L 84.500651 155.374125 
L 86.127992 155.374125 
L 86.941662 103.534125 
L 87.755333 86.254125 
L 88.569003 86.254125 
L 89.382674 120.814125 
L 92.637356 120.814125 
L 93.451027 103.534125 
L 94.264697 138.094125 
L 99.14672 138.094125 
L 99.960391 155.374125 
L 103.215073 155.374125 
L 104.842414 189.934125 
L 109.724437 189.934125 
L 110.538108 172.654125 
L 112.97912 172.654125 
L 113.79279 189.934125 
L 114.606461 189.934125 
L 115.420131 207.214125 
L 117.047472 207.214125 
L 117.861143 224.494125 
L 121.115825 224.494125 
L 121.929495 207.214125 
L 122.743166 207.214125 
L 123.556837 189.934125 
L 125.184178 189.934125 
L 125.997848 172.654125 
L 126.811519 207.214125 
L 127.625189 207.214125 
L 128.43886 224.494125 
L 130.066201 224.494125 
L 130.879871 207.214125 
L 143.08493 207.214125 
L 143.8986 224.494125 
L 160.172011 224.494125 
L 160.985681 207.214125 
L 181.327445 207.214125 
L 182.141115 224.494125 
L 187.836809 224.494125 
L 188.65048 207.214125 
L 189.46415 224.494125 
L 206.551232 224.494125 
L 207.364902 241.774125 
L 213.060596 241.774125 
L 213.874266 259.054125 
L 220.383631 259.054125 
L 221.197301 241.774125 
L 256.185135 241.774125 
L 256.998805 259.054125 
L 258.626146 259.054125 
L 259.439817 241.774125 
L 269.203863 241.774125 
L 270.017534 224.494125 
L 288.731956 224.494125 
L 289.545627 241.774125 
L 292.800309 241.774125 
L 293.613979 259.054125 
L 294.42765 259.054125 
L 295.24132 276.334125 
L 304.191696 276.334125 
L 305.005367 259.054125 
L 345.688894 259.054125 
L 346.502565 241.774125 
L 352.198258 241.774125 
L 353.011929 224.494125 
L 364.403316 224.494125 
L 365.216987 207.214125 
L 366.844328 207.214125 
L 367.657999 224.494125 
L 374.981033 224.494125 
L 375.794704 207.214125 
L 381.490398 207.214125 
L 381.490398 207.214125 
" style="fill:none;stroke:#ceff29;stroke-linecap:round;stroke-width:1.5;"/>
   </g>
   <g id="line2d_25">
    <path clip-path="url(#p2604f085e4)" d="M 56.835852 276.334125 
L 63.345217 276.334125 
L 64.158887 259.054125 
L 69.854581 259.054125 
L 70.668251 241.774125 
L 74.736604 241.774125 
L 75.550275 224.494125 
L 77.991286 224.494125 
L 78.804957 241.774125 
L 79.618627 224.494125 
L 80.432298 224.494125 
L 81.245968 207.214125 
L 82.059639 207.214125 
L 82.87331 189.934125 
L 85.314321 189.934125 
L 86.127992 207.214125 
L 86.941662 189.934125 
L 87.755333 189.934125 
L 88.569003 172.654125 
L 89.382674 172.654125 
L 90.196344 138.094125 
L 91.010015 120.814125 
L 93.451027 120.814125 
L 94.264697 86.254125 
L 102.401403 86.254125 
L 103.215073 51.694125 
L 104.028744 34.414125 
L 108.097096 34.414125 
L 108.910767 51.694125 
L 109.724437 51.694125 
L 110.538108 68.974125 
L 112.165449 68.974125 
L 112.97912 86.254125 
L 113.79279 86.254125 
L 114.606461 68.974125 
L 115.420131 68.974125 
L 116.233802 86.254125 
L 118.674813 86.254125 
L 119.488484 103.534125 
L 129.25253 103.534125 
L 130.879871 138.094125 
L 136.575565 138.094125 
L 137.389236 155.374125 
L 156.103658 155.374125 
L 156.917329 189.934125 
L 161.799352 189.934125 
L 162.613022 207.214125 
L 168.308716 207.214125 
L 169.122387 224.494125 
L 182.954786 224.494125 
L 183.768457 207.214125 
L 186.209468 207.214125 
L 187.023139 224.494125 
L 202.482879 224.494125 
L 203.296549 241.774125 
L 220.383631 241.774125 
L 221.197301 259.054125 
L 248.8621 259.054125 
L 249.67577 241.774125 
L 252.116782 241.774125 
L 252.930452 259.054125 
L 261.067158 259.054125 
L 261.880828 276.334125 
L 262.694499 276.334125 
L 263.508169 259.054125 
L 272.458545 259.054125 
L 273.272216 241.774125 
L 274.085886 259.054125 
L 281.408921 259.054125 
L 282.222592 241.774125 
L 290.359297 241.774125 
L 291.986638 276.334125 
L 306.632708 276.334125 
L 307.446379 259.054125 
L 318.024096 259.054125 
L 318.837766 276.334125 
L 333.483836 276.334125 
L 334.297506 259.054125 
L 336.738518 259.054125 
L 337.552189 276.334125 
L 338.365859 276.334125 
L 339.17953 259.054125 
L 341.620541 259.054125 
L 342.434212 241.774125 
L 344.061553 241.774125 
L 344.875223 224.494125 
L 345.688894 224.494125 
L 346.502565 241.774125 
L 353.011929 241.774125 
L 353.825599 207.214125 
L 354.63927 224.494125 
L 358.707623 224.494125 
L 359.521293 207.214125 
L 366.030657 207.214125 
L 366.844328 189.934125 
L 373.353692 189.934125 
L 374.167363 207.214125 
L 374.981033 207.214125 
L 375.794704 189.934125 
L 380.676727 189.934125 
L 381.490398 172.654125 
L 381.490398 172.654125 
" style="fill:none;stroke:#ffc400;stroke-linecap:round;stroke-width:1.5;"/>
   </g>
   <g id="line2d_26">
    <path clip-path="url(#p2604f085e4)" d="M 56.835852 276.334125 
L 60.904205 276.334125 
L 61.717876 259.054125 
L 62.531546 259.054125 
L 63.345217 241.774125 
L 71.481922 241.774125 
L 72.295593 224.494125 
L 73.109263 224.494125 
L 73.922934 207.214125 
L 76.363945 207.214125 
L 77.177616 189.934125 
L 78.804957 189.934125 
L 79.618627 172.654125 
L 81.245968 172.654125 
L 82.059639 155.374125 
L 83.68698 155.374125 
L 84.500651 172.654125 
L 86.127992 172.654125 
L 86.941662 189.934125 
L 89.382674 189.934125 
L 90.196344 207.214125 
L 91.823685 172.654125 
L 95.892038 172.654125 
L 96.705709 155.374125 
L 98.33305 155.374125 
L 99.14672 138.094125 
L 100.774061 138.094125 
L 101.587732 155.374125 
L 103.215073 155.374125 
L 104.028744 172.654125 
L 104.842414 172.654125 
L 105.656085 189.934125 
L 107.283426 189.934125 
L 109.724437 138.094125 
L 112.165449 138.094125 
L 112.97912 155.374125 
L 120.302154 155.374125 
L 121.115825 172.654125 
L 125.184178 172.654125 
L 125.997848 138.094125 
L 126.811519 138.094125 
L 128.43886 172.654125 
L 134.948224 172.654125 
L 135.761895 189.934125 
L 141.457588 189.934125 
L 142.271259 207.214125 
L 143.8986 207.214125 
L 144.712271 224.494125 
L 150.407964 224.494125 
L 151.221635 241.774125 
L 154.476317 241.774125 
L 155.289988 224.494125 
L 171.563398 224.494125 
L 172.377069 207.214125 
L 186.209468 207.214125 
L 187.023139 224.494125 
L 190.277821 224.494125 
L 191.091491 241.774125 
L 193.532503 241.774125 
L 194.346174 259.054125 
L 203.296549 259.054125 
L 204.11022 276.334125 
L 208.992243 276.334125 
L 209.805914 259.054125 
L 222.010972 259.054125 
L 222.824642 276.334125 
L 264.32184 276.334125 
L 265.135511 259.054125 
L 296.054991 259.054125 
L 296.868662 241.774125 
L 311.514731 241.774125 
L 312.328402 224.494125 
L 318.024096 224.494125 
L 318.837766 207.214125 
L 319.651437 207.214125 
L 320.465107 189.934125 
L 326.974472 189.934125 
L 327.788142 172.654125 
L 331.856495 172.654125 
L 332.670165 189.934125 
L 341.620541 189.934125 
L 342.434212 207.214125 
L 353.825599 207.214125 
L 354.63927 189.934125 
L 356.266611 189.934125 
L 357.080282 207.214125 
L 359.521293 207.214125 
L 360.334964 189.934125 
L 370.912681 189.934125 
L 371.726351 172.654125 
L 374.167363 172.654125 
L 374.981033 189.934125 
L 381.490398 189.934125 
L 381.490398 189.934125 
" style="fill:none;stroke:#ff6800;stroke-linecap:round;stroke-width:1.5;"/>
   </g>
   <g id="line2d_27">
    <path clip-path="url(#p2604f085e4)" d="M 56.835852 276.334125 
L 64.158887 276.334125 
L 64.972558 259.054125 
L 65.786228 224.494125 
L 66.599899 224.494125 
L 67.413569 189.934125 
L 69.04091 189.934125 
L 69.854581 155.374125 
L 70.668251 155.374125 
L 72.295593 120.814125 
L 73.109263 138.094125 
L 74.736604 103.534125 
L 76.363945 103.534125 
L 77.177616 68.974125 
L 77.991286 68.974125 
L 78.804957 86.254125 
L 90.196344 86.254125 
L 91.010015 68.974125 
L 91.823685 68.974125 
L 92.637356 86.254125 
L 94.264697 86.254125 
L 95.078368 68.974125 
L 102.401403 68.974125 
L 103.215073 86.254125 
L 105.656085 86.254125 
L 106.469755 68.974125 
L 108.910767 68.974125 
L 109.724437 51.694125 
L 110.538108 51.694125 
L 111.351778 34.414125 
L 114.606461 34.414125 
L 115.420131 51.694125 
L 116.233802 51.694125 
L 117.047472 68.974125 
L 119.488484 68.974125 
L 120.302154 34.414125 
L 121.115825 34.414125 
L 121.929495 68.974125 
L 123.556837 103.534125 
L 125.184178 103.534125 
L 125.997848 120.814125 
L 131.693542 120.814125 
L 132.507212 103.534125 
L 133.320883 120.814125 
L 135.761895 120.814125 
L 136.575565 138.094125 
L 138.202906 138.094125 
L 139.016577 155.374125 
L 140.643918 155.374125 
L 141.457588 189.934125 
L 147.153282 189.934125 
L 147.966953 207.214125 
L 151.221635 207.214125 
L 152.035305 241.774125 
L 158.54467 241.774125 
L 159.35834 224.494125 
L 161.799352 224.494125 
L 162.613022 241.774125 
L 170.749728 241.774125 
L 171.563398 224.494125 
L 178.886433 224.494125 
L 179.700104 241.774125 
L 191.091491 241.774125 
L 191.905162 259.054125 
L 194.346174 259.054125 
L 195.159844 276.334125 
L 205.737561 276.334125 
L 206.551232 259.054125 
L 211.433255 259.054125 
L 212.246925 241.774125 
L 213.060596 241.774125 
L 213.874266 259.054125 
L 214.687937 241.774125 
L 217.942619 241.774125 
L 218.75629 224.494125 
L 222.824642 224.494125 
L 223.638313 241.774125 
L 225.265654 241.774125 
L 226.079325 259.054125 
L 275.713228 259.054125 
L 276.526898 241.774125 
L 281.408921 241.774125 
L 282.222592 276.334125 
L 283.036262 259.054125 
L 283.849933 259.054125 
L 284.663603 241.774125 
L 290.359297 241.774125 
L 291.172968 224.494125 
L 293.613979 224.494125 
L 294.42765 241.774125 
L 308.260049 241.774125 
L 309.07372 259.054125 
L 311.514731 259.054125 
L 312.328402 241.774125 
L 315.583084 241.774125 
L 316.396755 224.494125 
L 322.906119 224.494125 
L 323.719789 207.214125 
L 326.974472 207.214125 
L 328.601813 172.654125 
L 330.229154 172.654125 
L 331.042824 189.934125 
L 340.806871 189.934125 
L 341.620541 207.214125 
L 343.247882 207.214125 
L 344.061553 241.774125 
L 347.316235 241.774125 
L 348.129906 224.494125 
L 353.011929 224.494125 
L 353.825599 207.214125 
L 366.030657 207.214125 
L 366.844328 224.494125 
L 368.471669 224.494125 
L 369.28534 207.214125 
L 371.726351 207.214125 
L 372.540022 189.934125 
L 373.353692 189.934125 
L 374.167363 207.214125 
L 378.235716 207.214125 
L 379.049386 224.494125 
L 381.490398 224.494125 
L 381.490398 224.494125 
" style="fill:none;stroke:#f10800;stroke-linecap:round;stroke-width:1.5;"/>
   </g>
   <g id="patch_3">
    <path d="M 40.603125 288.430125 
L 40.603125 22.318125 
" style="fill:none;stroke:#cccccc;stroke-linecap:square;stroke-linejoin:miter;stroke-width:0.8;"/>
   </g>
   <g id="patch_4">
    <path d="M 397.723125 288.430125 
L 397.723125 22.318125 
" style="fill:none;stroke:#cccccc;stroke-linecap:square;stroke-linejoin:miter;stroke-width:0.8;"/>
   </g>
   <g id="patch_5">
    <path d="M 40.603125 288.430125 
L 397.723125 288.430125 
" style="fill:none;stroke:#cccccc;stroke-linecap:square;stroke-linejoin:miter;stroke-width:0.8;"/>
   </g>
   <g id="patch_6">
    <path d="M 40.603125 22.318125 
L 397.723125 22.318125 
" style="fill:none;stroke:#cccccc;stroke-linecap:square;stroke-linejoin:miter;stroke-width:0.8;"/>
   </g>
   <g id="text_20">
    <!-- Effector T CD4 -->
    <defs>
     <path d="M 9.8125 72.90625 
L 55.90625 72.90625 
L 55.90625 64.59375 
L 19.671875 64.59375 
L 19.671875 43.015625 
L 54.390625 43.015625 
L 54.390625 34.71875 
L 19.671875 34.71875 
L 19.671875 8.296875 
L 56.78125 8.296875 
L 56.78125 0 
L 9.8125 0 
z
" id="DejaVuSans-69"/>
     <path d="M 37.109375 75.984375 
L 37.109375 68.5 
L 28.515625 68.5 
Q 23.6875 68.5 21.796875 66.546875 
Q 19.921875 64.59375 19.921875 59.515625 
L 19.921875 54.6875 
L 34.71875 54.6875 
L 34.71875 47.703125 
L 19.921875 47.703125 
L 19.921875 0 
L 10.890625 0 
L 10.890625 47.703125 
L 2.296875 47.703125 
L 2.296875 54.6875 
L 10.890625 54.6875 
L 10.890625 58.5 
Q 10.890625 67.625 15.140625 71.796875 
Q 19.390625 75.984375 28.609375 75.984375 
z
" id="DejaVuSans-102"/>
     <path d="M 30.609375 48.390625 
Q 23.390625 48.390625 19.1875 42.75 
Q 14.984375 37.109375 14.984375 27.296875 
Q 14.984375 17.484375 19.15625 11.84375 
Q 23.34375 6.203125 30.609375 6.203125 
Q 37.796875 6.203125 41.984375 11.859375 
Q 46.1875 17.53125 46.1875 27.296875 
Q 46.1875 37.015625 41.984375 42.703125 
Q 37.796875 48.390625 30.609375 48.390625 
z
M 30.609375 56 
Q 42.328125 56 49.015625 48.375 
Q 55.71875 40.765625 55.71875 27.296875 
Q 55.71875 13.875 49.015625 6.21875 
Q 42.328125 -1.421875 30.609375 -1.421875 
Q 18.84375 -1.421875 12.171875 6.21875 
Q 5.515625 13.875 5.515625 27.296875 
Q 5.515625 40.765625 12.171875 48.375 
Q 18.84375 56 30.609375 56 
z
" id="DejaVuSans-111"/>
     <path d="M -0.296875 72.90625 
L 61.375 72.90625 
L 61.375 64.59375 
L 35.5 64.59375 
L 35.5 0 
L 25.59375 0 
L 25.59375 64.59375 
L -0.296875 64.59375 
z
" id="DejaVuSans-84"/>
     <path d="M 64.40625 67.28125 
L 64.40625 56.890625 
Q 59.421875 61.53125 53.78125 63.8125 
Q 48.140625 66.109375 41.796875 66.109375 
Q 29.296875 66.109375 22.65625 58.46875 
Q 16.015625 50.828125 16.015625 36.375 
Q 16.015625 21.96875 22.65625 14.328125 
Q 29.296875 6.6875 41.796875 6.6875 
Q 48.140625 6.6875 53.78125 8.984375 
Q 59.421875 11.28125 64.40625 15.921875 
L 64.40625 5.609375 
Q 59.234375 2.09375 53.4375 0.328125 
Q 47.65625 -1.421875 41.21875 -1.421875 
Q 24.65625 -1.421875 15.125 8.703125 
Q 5.609375 18.84375 5.609375 36.375 
Q 5.609375 53.953125 15.125 64.078125 
Q 24.65625 74.21875 41.21875 74.21875 
Q 47.75 74.21875 53.53125 72.484375 
Q 59.328125 70.75 64.40625 67.28125 
z
" id="DejaVuSans-67"/>
     <path d="M 19.671875 64.796875 
L 19.671875 8.109375 
L 31.59375 8.109375 
Q 46.6875 8.109375 53.6875 14.9375 
Q 60.6875 21.78125 60.6875 36.53125 
Q 60.6875 51.171875 53.6875 57.984375 
Q 46.6875 64.796875 31.59375 64.796875 
z
M 9.8125 72.90625 
L 30.078125 72.90625 
Q 51.265625 72.90625 61.171875 64.09375 
Q 71.09375 55.28125 71.09375 36.53125 
Q 71.09375 17.671875 61.125 8.828125 
Q 51.171875 0 30.078125 0 
L 9.8125 0 
z
" id="DejaVuSans-68"/>
    </defs>
    <g style="fill:#262626;" transform="translate(175.560938 16.318125)scale(0.12 -0.12)">
     <use xlink:href="#DejaVuSans-69"/>
     <use x="63.183594" xlink:href="#DejaVuSans-102"/>
     <use x="98.388672" xlink:href="#DejaVuSans-102"/>
     <use x="133.59375" xlink:href="#DejaVuSans-101"/>
     <use x="195.117188" xlink:href="#DejaVuSans-99"/>
     <use x="250.097656" xlink:href="#DejaVuSans-116"/>
     <use x="289.306641" xlink:href="#DejaVuSans-111"/>
     <use x="350.488281" xlink:href="#DejaVuSans-114"/>
     <use x="391.601562" xlink:href="#DejaVuSans-32"/>
     <use x="423.388672" xlink:href="#DejaVuSans-84"/>
     <use x="484.472656" xlink:href="#DejaVuSans-32"/>
     <use x="516.259766" xlink:href="#DejaVuSans-67"/>
     <use x="586.083984" xlink:href="#DejaVuSans-68"/>
     <use x="663.085938" xlink:href="#DejaVuSans-52"/>
    </g>
   </g>
  </g>
 </g>
 <defs>
  <clipPath id="p2604f085e4">
   <rect height="266.112" width="357.12" x="40.603125" y="22.318125"/>
  </clipPath>
 </defs>
</svg>
