<?xml version="1.0" encoding="utf-8" standalone="no"?>
<!DOCTYPE svg PUBLIC "-//W3C//DTD SVG 1.1//EN"
  "http://www.w3.org/Graphics/SVG/1.1/DTD/svg11.dtd">
<!-- Created with matplotlib (https://matplotlib.org/) -->
<svg height="325.986375pt" version="1.1" viewBox="0 0 424.010625 325.986375" width="424.010625pt" xmlns="http://www.w3.org/2000/svg" xmlns:xlink="http://www.w3.org/1999/xlink">
 <defs>
  <style type="text/css">
*{stroke-linecap:butt;stroke-linejoin:round;white-space:pre;}
  </style>
 </defs>
 <g id="figure_1">
  <g id="patch_1">
   <path d="M 0 325.986375 
L 424.010625 325.986375 
L 424.010625 0 
L 0 0 
z
" style="fill:#ffffff;"/>
  </g>
  <g id="axes_1">
   <g id="patch_2">
    <path d="M 59.690625 288.430125 
L 416.810625 288.430125 
L 416.810625 22.318125 
L 59.690625 22.318125 
z
" style="fill:#ffffff;"/>
   </g>
   <g id="matplotlib.axis_1">
    <g id="xtick_1">
     <g id="line2d_1">
      <path clip-path="url(#p53c5e8b92a)" d="M 75.923352 288.430125 
L 75.923352 22.318125 
" style="fill:none;stroke:#cccccc;stroke-linecap:round;stroke-width:0.8;"/>
     </g>
     <g id="text_1">
      <!-- 0 -->
      <defs>
       <path d="M 31.78125 66.40625 
Q 24.171875 66.40625 20.328125 58.90625 
Q 16.5 51.421875 16.5 36.375 
Q 16.5 21.390625 20.328125 13.890625 
Q 24.171875 6.390625 31.78125 6.390625 
Q 39.453125 6.390625 43.28125 13.890625 
Q 47.125 21.390625 47.125 36.375 
Q 47.125 51.421875 43.28125 58.90625 
Q 39.453125 66.40625 31.78125 66.40625 
z
M 31.78125 74.21875 
Q 44.046875 74.21875 50.515625 64.515625 
Q 56.984375 54.828125 56.984375 36.375 
Q 56.984375 17.96875 50.515625 8.265625 
Q 44.046875 -1.421875 31.78125 -1.421875 
Q 19.53125 -1.421875 13.0625 8.265625 
Q 6.59375 17.96875 6.59375 36.375 
Q 6.59375 54.828125 13.0625 64.515625 
Q 19.53125 74.21875 31.78125 74.21875 
z
" id="DejaVuSans-48"/>
      </defs>
      <g style="fill:#262626;" transform="translate(72.742102 303.028562)scale(0.1 -0.1)">
       <use xlink:href="#DejaVuSans-48"/>
      </g>
     </g>
    </g>
    <g id="xtick_2">
     <g id="line2d_2">
      <path clip-path="url(#p53c5e8b92a)" d="M 116.606879 288.430125 
L 116.606879 22.318125 
" style="fill:none;stroke:#cccccc;stroke-linecap:round;stroke-width:0.8;"/>
     </g>
     <g id="text_2">
      <!-- 5 -->
      <defs>
       <path d="M 10.796875 72.90625 
L 49.515625 72.90625 
L 49.515625 64.59375 
L 19.828125 64.59375 
L 19.828125 46.734375 
Q 21.96875 47.46875 24.109375 47.828125 
Q 26.265625 48.1875 28.421875 48.1875 
Q 40.625 48.1875 47.75 41.5 
Q 54.890625 34.8125 54.890625 23.390625 
Q 54.890625 11.625 47.5625 5.09375 
Q 40.234375 -1.421875 26.90625 -1.421875 
Q 22.3125 -1.421875 17.546875 -0.640625 
Q 12.796875 0.140625 7.71875 1.703125 
L 7.71875 11.625 
Q 12.109375 9.234375 16.796875 8.0625 
Q 21.484375 6.890625 26.703125 6.890625 
Q 35.15625 6.890625 40.078125 11.328125 
Q 45.015625 15.765625 45.015625 23.390625 
Q 45.015625 31 40.078125 35.4375 
Q 35.15625 39.890625 26.703125 39.890625 
Q 22.75 39.890625 18.8125 39.015625 
Q 14.890625 38.140625 10.796875 36.28125 
z
" id="DejaVuSans-53"/>
      </defs>
      <g style="fill:#262626;" transform="translate(113.425629 303.028562)scale(0.1 -0.1)">
       <use xlink:href="#DejaVuSans-53"/>
      </g>
     </g>
    </g>
    <g id="xtick_3">
     <g id="line2d_3">
      <path clip-path="url(#p53c5e8b92a)" d="M 157.290406 288.430125 
L 157.290406 22.318125 
" style="fill:none;stroke:#cccccc;stroke-linecap:round;stroke-width:0.8;"/>
     </g>
     <g id="text_3">
      <!-- 10 -->
      <defs>
       <path d="M 12.40625 8.296875 
L 28.515625 8.296875 
L 28.515625 63.921875 
L 10.984375 60.40625 
L 10.984375 69.390625 
L 28.421875 72.90625 
L 38.28125 72.90625 
L 38.28125 8.296875 
L 54.390625 8.296875 
L 54.390625 0 
L 12.40625 0 
z
" id="DejaVuSans-49"/>
      </defs>
      <g style="fill:#262626;" transform="translate(150.927906 303.028562)scale(0.1 -0.1)">
       <use xlink:href="#DejaVuSans-49"/>
       <use x="63.623047" xlink:href="#DejaVuSans-48"/>
      </g>
     </g>
    </g>
    <g id="xtick_4">
     <g id="line2d_4">
      <path clip-path="url(#p53c5e8b92a)" d="M 197.973933 288.430125 
L 197.973933 22.318125 
" style="fill:none;stroke:#cccccc;stroke-linecap:round;stroke-width:0.8;"/>
     </g>
     <g id="text_4">
      <!-- 15 -->
      <g style="fill:#262626;" transform="translate(191.611433 303.028562)scale(0.1 -0.1)">
       <use xlink:href="#DejaVuSans-49"/>
       <use x="63.623047" xlink:href="#DejaVuSans-53"/>
      </g>
     </g>
    </g>
    <g id="xtick_5">
     <g id="line2d_5">
      <path clip-path="url(#p53c5e8b92a)" d="M 238.65746 288.430125 
L 238.65746 22.318125 
" style="fill:none;stroke:#cccccc;stroke-linecap:round;stroke-width:0.8;"/>
     </g>
     <g id="text_5">
      <!-- 20 -->
      <defs>
       <path d="M 19.1875 8.296875 
L 53.609375 8.296875 
L 53.609375 0 
L 7.328125 0 
L 7.328125 8.296875 
Q 12.9375 14.109375 22.625 23.890625 
Q 32.328125 33.6875 34.8125 36.53125 
Q 39.546875 41.84375 41.421875 45.53125 
Q 43.3125 49.21875 43.3125 52.78125 
Q 43.3125 58.59375 39.234375 62.25 
Q 35.15625 65.921875 28.609375 65.921875 
Q 23.96875 65.921875 18.8125 64.3125 
Q 13.671875 62.703125 7.8125 59.421875 
L 7.8125 69.390625 
Q 13.765625 71.78125 18.9375 73 
Q 24.125 74.21875 28.421875 74.21875 
Q 39.75 74.21875 46.484375 68.546875 
Q 53.21875 62.890625 53.21875 53.421875 
Q 53.21875 48.921875 51.53125 44.890625 
Q 49.859375 40.875 45.40625 35.40625 
Q 44.1875 33.984375 37.640625 27.21875 
Q 31.109375 20.453125 19.1875 8.296875 
z
" id="DejaVuSans-50"/>
      </defs>
      <g style="fill:#262626;" transform="translate(232.29496 303.028562)scale(0.1 -0.1)">
       <use xlink:href="#DejaVuSans-50"/>
       <use x="63.623047" xlink:href="#DejaVuSans-48"/>
      </g>
     </g>
    </g>
    <g id="xtick_6">
     <g id="line2d_6">
      <path clip-path="url(#p53c5e8b92a)" d="M 279.340987 288.430125 
L 279.340987 22.318125 
" style="fill:none;stroke:#cccccc;stroke-linecap:round;stroke-width:0.8;"/>
     </g>
     <g id="text_6">
      <!-- 25 -->
      <g style="fill:#262626;" transform="translate(272.978487 303.028562)scale(0.1 -0.1)">
       <use xlink:href="#DejaVuSans-50"/>
       <use x="63.623047" xlink:href="#DejaVuSans-53"/>
      </g>
     </g>
    </g>
    <g id="xtick_7">
     <g id="line2d_7">
      <path clip-path="url(#p53c5e8b92a)" d="M 320.024514 288.430125 
L 320.024514 22.318125 
" style="fill:none;stroke:#cccccc;stroke-linecap:round;stroke-width:0.8;"/>
     </g>
     <g id="text_7">
      <!-- 30 -->
      <defs>
       <path d="M 40.578125 39.3125 
Q 47.65625 37.796875 51.625 33 
Q 55.609375 28.21875 55.609375 21.1875 
Q 55.609375 10.40625 48.1875 4.484375 
Q 40.765625 -1.421875 27.09375 -1.421875 
Q 22.515625 -1.421875 17.65625 -0.515625 
Q 12.796875 0.390625 7.625 2.203125 
L 7.625 11.71875 
Q 11.71875 9.328125 16.59375 8.109375 
Q 21.484375 6.890625 26.8125 6.890625 
Q 36.078125 6.890625 40.9375 10.546875 
Q 45.796875 14.203125 45.796875 21.1875 
Q 45.796875 27.640625 41.28125 31.265625 
Q 36.765625 34.90625 28.71875 34.90625 
L 20.21875 34.90625 
L 20.21875 43.015625 
L 29.109375 43.015625 
Q 36.375 43.015625 40.234375 45.921875 
Q 44.09375 48.828125 44.09375 54.296875 
Q 44.09375 59.90625 40.109375 62.90625 
Q 36.140625 65.921875 28.71875 65.921875 
Q 24.65625 65.921875 20.015625 65.03125 
Q 15.375 64.15625 9.8125 62.3125 
L 9.8125 71.09375 
Q 15.4375 72.65625 20.34375 73.4375 
Q 25.25 74.21875 29.59375 74.21875 
Q 40.828125 74.21875 47.359375 69.109375 
Q 53.90625 64.015625 53.90625 55.328125 
Q 53.90625 49.265625 50.4375 45.09375 
Q 46.96875 40.921875 40.578125 39.3125 
z
" id="DejaVuSans-51"/>
      </defs>
      <g style="fill:#262626;" transform="translate(313.662014 303.028562)scale(0.1 -0.1)">
       <use xlink:href="#DejaVuSans-51"/>
       <use x="63.623047" xlink:href="#DejaVuSans-48"/>
      </g>
     </g>
    </g>
    <g id="xtick_8">
     <g id="line2d_8">
      <path clip-path="url(#p53c5e8b92a)" d="M 360.708041 288.430125 
L 360.708041 22.318125 
" style="fill:none;stroke:#cccccc;stroke-linecap:round;stroke-width:0.8;"/>
     </g>
     <g id="text_8">
      <!-- 35 -->
      <g style="fill:#262626;" transform="translate(354.345541 303.028562)scale(0.1 -0.1)">
       <use xlink:href="#DejaVuSans-51"/>
       <use x="63.623047" xlink:href="#DejaVuSans-53"/>
      </g>
     </g>
    </g>
    <g id="xtick_9">
     <g id="line2d_9">
      <path clip-path="url(#p53c5e8b92a)" d="M 401.391568 288.430125 
L 401.391568 22.318125 
" style="fill:none;stroke:#cccccc;stroke-linecap:round;stroke-width:0.8;"/>
     </g>
     <g id="text_9">
      <!-- 40 -->
      <defs>
       <path d="M 37.796875 64.3125 
L 12.890625 25.390625 
L 37.796875 25.390625 
z
M 35.203125 72.90625 
L 47.609375 72.90625 
L 47.609375 25.390625 
L 58.015625 25.390625 
L 58.015625 17.1875 
L 47.609375 17.1875 
L 47.609375 0 
L 37.796875 0 
L 37.796875 17.1875 
L 4.890625 17.1875 
L 4.890625 26.703125 
z
" id="DejaVuSans-52"/>
      </defs>
      <g style="fill:#262626;" transform="translate(395.029068 303.028562)scale(0.1 -0.1)">
       <use xlink:href="#DejaVuSans-52"/>
       <use x="63.623047" xlink:href="#DejaVuSans-48"/>
      </g>
     </g>
    </g>
    <g id="text_10">
     <!-- time (days) -->
     <defs>
      <path d="M 18.3125 70.21875 
L 18.3125 54.6875 
L 36.8125 54.6875 
L 36.8125 47.703125 
L 18.3125 47.703125 
L 18.3125 18.015625 
Q 18.3125 11.328125 20.140625 9.421875 
Q 21.96875 7.515625 27.59375 7.515625 
L 36.8125 7.515625 
L 36.8125 0 
L 27.59375 0 
Q 17.1875 0 13.234375 3.875 
Q 9.28125 7.765625 9.28125 18.015625 
L 9.28125 47.703125 
L 2.6875 47.703125 
L 2.6875 54.6875 
L 9.28125 54.6875 
L 9.28125 70.21875 
z
" id="DejaVuSans-116"/>
      <path d="M 9.421875 54.6875 
L 18.40625 54.6875 
L 18.40625 0 
L 9.421875 0 
z
M 9.421875 75.984375 
L 18.40625 75.984375 
L 18.40625 64.59375 
L 9.421875 64.59375 
z
" id="DejaVuSans-105"/>
      <path d="M 52 44.1875 
Q 55.375 50.25 60.0625 53.125 
Q 64.75 56 71.09375 56 
Q 79.640625 56 84.28125 50.015625 
Q 88.921875 44.046875 88.921875 33.015625 
L 88.921875 0 
L 79.890625 0 
L 79.890625 32.71875 
Q 79.890625 40.578125 77.09375 44.375 
Q 74.3125 48.1875 68.609375 48.1875 
Q 61.625 48.1875 57.5625 43.546875 
Q 53.515625 38.921875 53.515625 30.90625 
L 53.515625 0 
L 44.484375 0 
L 44.484375 32.71875 
Q 44.484375 40.625 41.703125 44.40625 
Q 38.921875 48.1875 33.109375 48.1875 
Q 26.21875 48.1875 22.15625 43.53125 
Q 18.109375 38.875 18.109375 30.90625 
L 18.109375 0 
L 9.078125 0 
L 9.078125 54.6875 
L 18.109375 54.6875 
L 18.109375 46.1875 
Q 21.1875 51.21875 25.484375 53.609375 
Q 29.78125 56 35.6875 56 
Q 41.65625 56 45.828125 52.96875 
Q 50 49.953125 52 44.1875 
z
" id="DejaVuSans-109"/>
      <path d="M 56.203125 29.59375 
L 56.203125 25.203125 
L 14.890625 25.203125 
Q 15.484375 15.921875 20.484375 11.0625 
Q 25.484375 6.203125 34.421875 6.203125 
Q 39.59375 6.203125 44.453125 7.46875 
Q 49.3125 8.734375 54.109375 11.28125 
L 54.109375 2.78125 
Q 49.265625 0.734375 44.1875 -0.34375 
Q 39.109375 -1.421875 33.890625 -1.421875 
Q 20.796875 -1.421875 13.15625 6.1875 
Q 5.515625 13.8125 5.515625 26.8125 
Q 5.515625 40.234375 12.765625 48.109375 
Q 20.015625 56 32.328125 56 
Q 43.359375 56 49.78125 48.890625 
Q 56.203125 41.796875 56.203125 29.59375 
z
M 47.21875 32.234375 
Q 47.125 39.59375 43.09375 43.984375 
Q 39.0625 48.390625 32.421875 48.390625 
Q 24.90625 48.390625 20.390625 44.140625 
Q 15.875 39.890625 15.1875 32.171875 
z
" id="DejaVuSans-101"/>
      <path id="DejaVuSans-32"/>
      <path d="M 31 75.875 
Q 24.46875 64.65625 21.28125 53.65625 
Q 18.109375 42.671875 18.109375 31.390625 
Q 18.109375 20.125 21.3125 9.0625 
Q 24.515625 -2 31 -13.1875 
L 23.1875 -13.1875 
Q 15.875 -1.703125 12.234375 9.375 
Q 8.59375 20.453125 8.59375 31.390625 
Q 8.59375 42.28125 12.203125 53.3125 
Q 15.828125 64.359375 23.1875 75.875 
z
" id="DejaVuSans-40"/>
      <path d="M 45.40625 46.390625 
L 45.40625 75.984375 
L 54.390625 75.984375 
L 54.390625 0 
L 45.40625 0 
L 45.40625 8.203125 
Q 42.578125 3.328125 38.25 0.953125 
Q 33.9375 -1.421875 27.875 -1.421875 
Q 17.96875 -1.421875 11.734375 6.484375 
Q 5.515625 14.40625 5.515625 27.296875 
Q 5.515625 40.1875 11.734375 48.09375 
Q 17.96875 56 27.875 56 
Q 33.9375 56 38.25 53.625 
Q 42.578125 51.265625 45.40625 46.390625 
z
M 14.796875 27.296875 
Q 14.796875 17.390625 18.875 11.75 
Q 22.953125 6.109375 30.078125 6.109375 
Q 37.203125 6.109375 41.296875 11.75 
Q 45.40625 17.390625 45.40625 27.296875 
Q 45.40625 37.203125 41.296875 42.84375 
Q 37.203125 48.484375 30.078125 48.484375 
Q 22.953125 48.484375 18.875 42.84375 
Q 14.796875 37.203125 14.796875 27.296875 
z
" id="DejaVuSans-100"/>
      <path d="M 34.28125 27.484375 
Q 23.390625 27.484375 19.1875 25 
Q 14.984375 22.515625 14.984375 16.5 
Q 14.984375 11.71875 18.140625 8.90625 
Q 21.296875 6.109375 26.703125 6.109375 
Q 34.1875 6.109375 38.703125 11.40625 
Q 43.21875 16.703125 43.21875 25.484375 
L 43.21875 27.484375 
z
M 52.203125 31.203125 
L 52.203125 0 
L 43.21875 0 
L 43.21875 8.296875 
Q 40.140625 3.328125 35.546875 0.953125 
Q 30.953125 -1.421875 24.3125 -1.421875 
Q 15.921875 -1.421875 10.953125 3.296875 
Q 6 8.015625 6 15.921875 
Q 6 25.140625 12.171875 29.828125 
Q 18.359375 34.515625 30.609375 34.515625 
L 43.21875 34.515625 
L 43.21875 35.40625 
Q 43.21875 41.609375 39.140625 45 
Q 35.0625 48.390625 27.6875 48.390625 
Q 23 48.390625 18.546875 47.265625 
Q 14.109375 46.140625 10.015625 43.890625 
L 10.015625 52.203125 
Q 14.9375 54.109375 19.578125 55.046875 
Q 24.21875 56 28.609375 56 
Q 40.484375 56 46.34375 49.84375 
Q 52.203125 43.703125 52.203125 31.203125 
z
" id="DejaVuSans-97"/>
      <path d="M 32.171875 -5.078125 
Q 28.375 -14.84375 24.75 -17.8125 
Q 21.140625 -20.796875 15.09375 -20.796875 
L 7.90625 -20.796875 
L 7.90625 -13.28125 
L 13.1875 -13.28125 
Q 16.890625 -13.28125 18.9375 -11.515625 
Q 21 -9.765625 23.484375 -3.21875 
L 25.09375 0.875 
L 2.984375 54.6875 
L 12.5 54.6875 
L 29.59375 11.921875 
L 46.6875 54.6875 
L 56.203125 54.6875 
z
" id="DejaVuSans-121"/>
      <path d="M 44.28125 53.078125 
L 44.28125 44.578125 
Q 40.484375 46.53125 36.375 47.5 
Q 32.28125 48.484375 27.875 48.484375 
Q 21.1875 48.484375 17.84375 46.4375 
Q 14.5 44.390625 14.5 40.28125 
Q 14.5 37.15625 16.890625 35.375 
Q 19.28125 33.59375 26.515625 31.984375 
L 29.59375 31.296875 
Q 39.15625 29.25 43.1875 25.515625 
Q 47.21875 21.78125 47.21875 15.09375 
Q 47.21875 7.46875 41.1875 3.015625 
Q 35.15625 -1.421875 24.609375 -1.421875 
Q 20.21875 -1.421875 15.453125 -0.5625 
Q 10.6875 0.296875 5.421875 2 
L 5.421875 11.28125 
Q 10.40625 8.6875 15.234375 7.390625 
Q 20.0625 6.109375 24.8125 6.109375 
Q 31.15625 6.109375 34.5625 8.28125 
Q 37.984375 10.453125 37.984375 14.40625 
Q 37.984375 18.0625 35.515625 20.015625 
Q 33.0625 21.96875 24.703125 23.78125 
L 21.578125 24.515625 
Q 13.234375 26.265625 9.515625 29.90625 
Q 5.8125 33.546875 5.8125 39.890625 
Q 5.8125 47.609375 11.28125 51.796875 
Q 16.75 56 26.8125 56 
Q 31.78125 56 36.171875 55.265625 
Q 40.578125 54.546875 44.28125 53.078125 
z
" id="DejaVuSans-115"/>
      <path d="M 8.015625 75.875 
L 15.828125 75.875 
Q 23.140625 64.359375 26.78125 53.3125 
Q 30.421875 42.28125 30.421875 31.390625 
Q 30.421875 20.453125 26.78125 9.375 
Q 23.140625 -1.703125 15.828125 -13.1875 
L 8.015625 -13.1875 
Q 14.5 -2 17.703125 9.0625 
Q 20.90625 20.125 20.90625 31.390625 
Q 20.90625 42.671875 17.703125 53.65625 
Q 14.5 64.65625 8.015625 75.875 
z
" id="DejaVuSans-41"/>
     </defs>
     <g style="fill:#262626;" transform="translate(209.661563 316.706687)scale(0.1 -0.1)">
      <use xlink:href="#DejaVuSans-116"/>
      <use x="39.208984" xlink:href="#DejaVuSans-105"/>
      <use x="66.992188" xlink:href="#DejaVuSans-109"/>
      <use x="164.404297" xlink:href="#DejaVuSans-101"/>
      <use x="225.927734" xlink:href="#DejaVuSans-32"/>
      <use x="257.714844" xlink:href="#DejaVuSans-40"/>
      <use x="296.728516" xlink:href="#DejaVuSans-100"/>
      <use x="360.205078" xlink:href="#DejaVuSans-97"/>
      <use x="421.484375" xlink:href="#DejaVuSans-121"/>
      <use x="480.664062" xlink:href="#DejaVuSans-115"/>
      <use x="532.763672" xlink:href="#DejaVuSans-41"/>
     </g>
    </g>
   </g>
   <g id="matplotlib.axis_2">
    <g id="ytick_1">
     <g id="line2d_10">
      <path clip-path="url(#p53c5e8b92a)" d="M 59.690625 276.367894 
L 416.810625 276.367894 
" style="fill:none;stroke:#cccccc;stroke-linecap:round;stroke-width:0.8;"/>
     </g>
     <g id="text_11">
      <!-- 0 -->
      <g style="fill:#262626;" transform="translate(46.328125 280.167113)scale(0.1 -0.1)">
       <use xlink:href="#DejaVuSans-48"/>
      </g>
     </g>
    </g>
    <g id="ytick_2">
     <g id="line2d_11">
      <path clip-path="url(#p53c5e8b92a)" d="M 59.690625 242.59905 
L 416.810625 242.59905 
" style="fill:none;stroke:#cccccc;stroke-linecap:round;stroke-width:0.8;"/>
     </g>
     <g id="text_12">
      <!-- 2000 -->
      <g style="fill:#262626;" transform="translate(27.240625 246.398268)scale(0.1 -0.1)">
       <use xlink:href="#DejaVuSans-50"/>
       <use x="63.623047" xlink:href="#DejaVuSans-48"/>
       <use x="127.246094" xlink:href="#DejaVuSans-48"/>
       <use x="190.869141" xlink:href="#DejaVuSans-48"/>
      </g>
     </g>
    </g>
    <g id="ytick_3">
     <g id="line2d_12">
      <path clip-path="url(#p53c5e8b92a)" d="M 59.690625 208.830205 
L 416.810625 208.830205 
" style="fill:none;stroke:#cccccc;stroke-linecap:round;stroke-width:0.8;"/>
     </g>
     <g id="text_13">
      <!-- 4000 -->
      <g style="fill:#262626;" transform="translate(27.240625 212.629424)scale(0.1 -0.1)">
       <use xlink:href="#DejaVuSans-52"/>
       <use x="63.623047" xlink:href="#DejaVuSans-48"/>
       <use x="127.246094" xlink:href="#DejaVuSans-48"/>
       <use x="190.869141" xlink:href="#DejaVuSans-48"/>
      </g>
     </g>
    </g>
    <g id="ytick_4">
     <g id="line2d_13">
      <path clip-path="url(#p53c5e8b92a)" d="M 59.690625 175.061361 
L 416.810625 175.061361 
" style="fill:none;stroke:#cccccc;stroke-linecap:round;stroke-width:0.8;"/>
     </g>
     <g id="text_14">
      <!-- 6000 -->
      <defs>
       <path d="M 33.015625 40.375 
Q 26.375 40.375 22.484375 35.828125 
Q 18.609375 31.296875 18.609375 23.390625 
Q 18.609375 15.53125 22.484375 10.953125 
Q 26.375 6.390625 33.015625 6.390625 
Q 39.65625 6.390625 43.53125 10.953125 
Q 47.40625 15.53125 47.40625 23.390625 
Q 47.40625 31.296875 43.53125 35.828125 
Q 39.65625 40.375 33.015625 40.375 
z
M 52.59375 71.296875 
L 52.59375 62.3125 
Q 48.875 64.0625 45.09375 64.984375 
Q 41.3125 65.921875 37.59375 65.921875 
Q 27.828125 65.921875 22.671875 59.328125 
Q 17.53125 52.734375 16.796875 39.40625 
Q 19.671875 43.65625 24.015625 45.921875 
Q 28.375 48.1875 33.59375 48.1875 
Q 44.578125 48.1875 50.953125 41.515625 
Q 57.328125 34.859375 57.328125 23.390625 
Q 57.328125 12.15625 50.6875 5.359375 
Q 44.046875 -1.421875 33.015625 -1.421875 
Q 20.359375 -1.421875 13.671875 8.265625 
Q 6.984375 17.96875 6.984375 36.375 
Q 6.984375 53.65625 15.1875 63.9375 
Q 23.390625 74.21875 37.203125 74.21875 
Q 40.921875 74.21875 44.703125 73.484375 
Q 48.484375 72.75 52.59375 71.296875 
z
" id="DejaVuSans-54"/>
      </defs>
      <g style="fill:#262626;" transform="translate(27.240625 178.86058)scale(0.1 -0.1)">
       <use xlink:href="#DejaVuSans-54"/>
       <use x="63.623047" xlink:href="#DejaVuSans-48"/>
       <use x="127.246094" xlink:href="#DejaVuSans-48"/>
       <use x="190.869141" xlink:href="#DejaVuSans-48"/>
      </g>
     </g>
    </g>
    <g id="ytick_5">
     <g id="line2d_14">
      <path clip-path="url(#p53c5e8b92a)" d="M 59.690625 141.292517 
L 416.810625 141.292517 
" style="fill:none;stroke:#cccccc;stroke-linecap:round;stroke-width:0.8;"/>
     </g>
     <g id="text_15">
      <!-- 8000 -->
      <defs>
       <path d="M 31.78125 34.625 
Q 24.75 34.625 20.71875 30.859375 
Q 16.703125 27.09375 16.703125 20.515625 
Q 16.703125 13.921875 20.71875 10.15625 
Q 24.75 6.390625 31.78125 6.390625 
Q 38.8125 6.390625 42.859375 10.171875 
Q 46.921875 13.96875 46.921875 20.515625 
Q 46.921875 27.09375 42.890625 30.859375 
Q 38.875 34.625 31.78125 34.625 
z
M 21.921875 38.8125 
Q 15.578125 40.375 12.03125 44.71875 
Q 8.5 49.078125 8.5 55.328125 
Q 8.5 64.0625 14.71875 69.140625 
Q 20.953125 74.21875 31.78125 74.21875 
Q 42.671875 74.21875 48.875 69.140625 
Q 55.078125 64.0625 55.078125 55.328125 
Q 55.078125 49.078125 51.53125 44.71875 
Q 48 40.375 41.703125 38.8125 
Q 48.828125 37.15625 52.796875 32.3125 
Q 56.78125 27.484375 56.78125 20.515625 
Q 56.78125 9.90625 50.3125 4.234375 
Q 43.84375 -1.421875 31.78125 -1.421875 
Q 19.734375 -1.421875 13.25 4.234375 
Q 6.78125 9.90625 6.78125 20.515625 
Q 6.78125 27.484375 10.78125 32.3125 
Q 14.796875 37.15625 21.921875 38.8125 
z
M 18.3125 54.390625 
Q 18.3125 48.734375 21.84375 45.5625 
Q 25.390625 42.390625 31.78125 42.390625 
Q 38.140625 42.390625 41.71875 45.5625 
Q 45.3125 48.734375 45.3125 54.390625 
Q 45.3125 60.0625 41.71875 63.234375 
Q 38.140625 66.40625 31.78125 66.40625 
Q 25.390625 66.40625 21.84375 63.234375 
Q 18.3125 60.0625 18.3125 54.390625 
z
" id="DejaVuSans-56"/>
      </defs>
      <g style="fill:#262626;" transform="translate(27.240625 145.091736)scale(0.1 -0.1)">
       <use xlink:href="#DejaVuSans-56"/>
       <use x="63.623047" xlink:href="#DejaVuSans-48"/>
       <use x="127.246094" xlink:href="#DejaVuSans-48"/>
       <use x="190.869141" xlink:href="#DejaVuSans-48"/>
      </g>
     </g>
    </g>
    <g id="ytick_6">
     <g id="line2d_15">
      <path clip-path="url(#p53c5e8b92a)" d="M 59.690625 107.523673 
L 416.810625 107.523673 
" style="fill:none;stroke:#cccccc;stroke-linecap:round;stroke-width:0.8;"/>
     </g>
     <g id="text_16">
      <!-- 10000 -->
      <g style="fill:#262626;" transform="translate(20.878125 111.322891)scale(0.1 -0.1)">
       <use xlink:href="#DejaVuSans-49"/>
       <use x="63.623047" xlink:href="#DejaVuSans-48"/>
       <use x="127.246094" xlink:href="#DejaVuSans-48"/>
       <use x="190.869141" xlink:href="#DejaVuSans-48"/>
       <use x="254.492188" xlink:href="#DejaVuSans-48"/>
      </g>
     </g>
    </g>
    <g id="ytick_7">
     <g id="line2d_16">
      <path clip-path="url(#p53c5e8b92a)" d="M 59.690625 73.754829 
L 416.810625 73.754829 
" style="fill:none;stroke:#cccccc;stroke-linecap:round;stroke-width:0.8;"/>
     </g>
     <g id="text_17">
      <!-- 12000 -->
      <g style="fill:#262626;" transform="translate(20.878125 77.554047)scale(0.1 -0.1)">
       <use xlink:href="#DejaVuSans-49"/>
       <use x="63.623047" xlink:href="#DejaVuSans-50"/>
       <use x="127.246094" xlink:href="#DejaVuSans-48"/>
       <use x="190.869141" xlink:href="#DejaVuSans-48"/>
       <use x="254.492188" xlink:href="#DejaVuSans-48"/>
      </g>
     </g>
    </g>
    <g id="ytick_8">
     <g id="line2d_17">
      <path clip-path="url(#p53c5e8b92a)" d="M 59.690625 39.985984 
L 416.810625 39.985984 
" style="fill:none;stroke:#cccccc;stroke-linecap:round;stroke-width:0.8;"/>
     </g>
     <g id="text_18">
      <!-- 14000 -->
      <g style="fill:#262626;" transform="translate(20.878125 43.785203)scale(0.1 -0.1)">
       <use xlink:href="#DejaVuSans-49"/>
       <use x="63.623047" xlink:href="#DejaVuSans-52"/>
       <use x="127.246094" xlink:href="#DejaVuSans-48"/>
       <use x="190.869141" xlink:href="#DejaVuSans-48"/>
       <use x="254.492188" xlink:href="#DejaVuSans-48"/>
      </g>
     </g>
    </g>
    <g id="text_19">
     <!-- cells number -->
     <defs>
      <path d="M 48.78125 52.59375 
L 48.78125 44.1875 
Q 44.96875 46.296875 41.140625 47.34375 
Q 37.3125 48.390625 33.40625 48.390625 
Q 24.65625 48.390625 19.8125 42.84375 
Q 14.984375 37.3125 14.984375 27.296875 
Q 14.984375 17.28125 19.8125 11.734375 
Q 24.65625 6.203125 33.40625 6.203125 
Q 37.3125 6.203125 41.140625 7.25 
Q 44.96875 8.296875 48.78125 10.40625 
L 48.78125 2.09375 
Q 45.015625 0.34375 40.984375 -0.53125 
Q 36.96875 -1.421875 32.421875 -1.421875 
Q 20.0625 -1.421875 12.78125 6.34375 
Q 5.515625 14.109375 5.515625 27.296875 
Q 5.515625 40.671875 12.859375 48.328125 
Q 20.21875 56 33.015625 56 
Q 37.15625 56 41.109375 55.140625 
Q 45.0625 54.296875 48.78125 52.59375 
z
" id="DejaVuSans-99"/>
      <path d="M 9.421875 75.984375 
L 18.40625 75.984375 
L 18.40625 0 
L 9.421875 0 
z
" id="DejaVuSans-108"/>
      <path d="M 54.890625 33.015625 
L 54.890625 0 
L 45.90625 0 
L 45.90625 32.71875 
Q 45.90625 40.484375 42.875 44.328125 
Q 39.84375 48.1875 33.796875 48.1875 
Q 26.515625 48.1875 22.3125 43.546875 
Q 18.109375 38.921875 18.109375 30.90625 
L 18.109375 0 
L 9.078125 0 
L 9.078125 54.6875 
L 18.109375 54.6875 
L 18.109375 46.1875 
Q 21.34375 51.125 25.703125 53.5625 
Q 30.078125 56 35.796875 56 
Q 45.21875 56 50.046875 50.171875 
Q 54.890625 44.34375 54.890625 33.015625 
z
" id="DejaVuSans-110"/>
      <path d="M 8.5 21.578125 
L 8.5 54.6875 
L 17.484375 54.6875 
L 17.484375 21.921875 
Q 17.484375 14.15625 20.5 10.265625 
Q 23.53125 6.390625 29.59375 6.390625 
Q 36.859375 6.390625 41.078125 11.03125 
Q 45.3125 15.671875 45.3125 23.6875 
L 45.3125 54.6875 
L 54.296875 54.6875 
L 54.296875 0 
L 45.3125 0 
L 45.3125 8.40625 
Q 42.046875 3.421875 37.71875 1 
Q 33.40625 -1.421875 27.6875 -1.421875 
Q 18.265625 -1.421875 13.375 4.4375 
Q 8.5 10.296875 8.5 21.578125 
z
M 31.109375 56 
z
" id="DejaVuSans-117"/>
      <path d="M 48.6875 27.296875 
Q 48.6875 37.203125 44.609375 42.84375 
Q 40.53125 48.484375 33.40625 48.484375 
Q 26.265625 48.484375 22.1875 42.84375 
Q 18.109375 37.203125 18.109375 27.296875 
Q 18.109375 17.390625 22.1875 11.75 
Q 26.265625 6.109375 33.40625 6.109375 
Q 40.53125 6.109375 44.609375 11.75 
Q 48.6875 17.390625 48.6875 27.296875 
z
M 18.109375 46.390625 
Q 20.953125 51.265625 25.265625 53.625 
Q 29.59375 56 35.59375 56 
Q 45.5625 56 51.78125 48.09375 
Q 58.015625 40.1875 58.015625 27.296875 
Q 58.015625 14.40625 51.78125 6.484375 
Q 45.5625 -1.421875 35.59375 -1.421875 
Q 29.59375 -1.421875 25.265625 0.953125 
Q 20.953125 3.328125 18.109375 8.203125 
L 18.109375 0 
L 9.078125 0 
L 9.078125 75.984375 
L 18.109375 75.984375 
z
" id="DejaVuSans-98"/>
      <path d="M 41.109375 46.296875 
Q 39.59375 47.171875 37.8125 47.578125 
Q 36.03125 48 33.890625 48 
Q 26.265625 48 22.1875 43.046875 
Q 18.109375 38.09375 18.109375 28.8125 
L 18.109375 0 
L 9.078125 0 
L 9.078125 54.6875 
L 18.109375 54.6875 
L 18.109375 46.1875 
Q 20.953125 51.171875 25.484375 53.578125 
Q 30.03125 56 36.53125 56 
Q 37.453125 56 38.578125 55.875 
Q 39.703125 55.765625 41.0625 55.515625 
z
" id="DejaVuSans-114"/>
     </defs>
     <g style="fill:#262626;" transform="translate(14.798438 187.685844)rotate(-90)scale(0.1 -0.1)">
      <use xlink:href="#DejaVuSans-99"/>
      <use x="54.980469" xlink:href="#DejaVuSans-101"/>
      <use x="116.503906" xlink:href="#DejaVuSans-108"/>
      <use x="144.287109" xlink:href="#DejaVuSans-108"/>
      <use x="172.070312" xlink:href="#DejaVuSans-115"/>
      <use x="224.169922" xlink:href="#DejaVuSans-32"/>
      <use x="255.957031" xlink:href="#DejaVuSans-110"/>
      <use x="319.335938" xlink:href="#DejaVuSans-117"/>
      <use x="382.714844" xlink:href="#DejaVuSans-109"/>
      <use x="480.126953" xlink:href="#DejaVuSans-98"/>
      <use x="543.603516" xlink:href="#DejaVuSans-101"/>
      <use x="605.126953" xlink:href="#DejaVuSans-114"/>
     </g>
    </g>
   </g>
   <g id="line2d_18">
    <path clip-path="url(#p53c5e8b92a)" d="M 75.923352 276.334125 
L 76.737023 275.912014 
L 77.550693 275.185984 
L 78.364364 274.020959 
L 79.991705 271.049301 
L 81.619046 267.452919 
L 85.687399 257.389803 
L 90.569422 244.253723 
L 92.196763 239.593622 
L 93.824104 235.372517 
L 95.451445 230.729301 
L 97.892457 224.110607 
L 98.706127 221.645482 
L 99.519798 219.568698 
L 101.147139 214.722869 
L 102.77448 210.282266 
L 106.029162 201.299753 
L 106.842833 199.729502 
L 110.097515 190.544376 
L 114.165868 180.379954 
L 114.979538 178.252517 
L 115.793209 176.614728 
L 117.42055 172.511813 
L 118.23422 170.114226 
L 119.047891 168.425783 
L 122.302573 160.135532 
L 123.116244 158.700356 
L 125.557255 153.196035 
L 127.998267 148.552818 
L 134.507631 133.306185 
L 136.134972 130.368296 
L 139.389654 123.462567 
L 141.016995 120.693522 
L 142.644337 117.806286 
L 143.458007 116.725683 
L 145.899019 112.28508 
L 148.34003 107.624979 
L 149.153701 105.767693 
L 149.967371 104.484477 
L 152.408383 99.655532 
L 154.035724 97.308597 
L 156.476736 92.884879 
L 157.290406 91.551009 
L 158.104077 89.980758 
L 159.731418 87.43121 
L 160.545088 86.468798 
L 161.358759 85.25312 
L 163.799771 82.146386 
L 164.613441 80.86317 
L 166.240782 78.769502 
L 168.681794 75.358849 
L 169.495464 74.058748 
L 171.122805 72.268999 
L 172.750147 70.107793 
L 173.563817 68.875231 
L 176.004829 66.089301 
L 176.818499 65.042467 
L 177.63217 64.383974 
L 178.44584 63.202065 
L 179.259511 62.45915 
L 180.073181 61.294125 
L 180.886852 60.348597 
L 183.327864 58.440658 
L 184.955205 56.498949 
L 185.768875 55.975532 
L 186.582546 55.148195 
L 188.209887 53.848095 
L 189.023557 52.818145 
L 190.650898 51.602467 
L 192.278239 50.792014 
L 193.09191 50.403673 
L 195.532922 48.495733 
L 197.973933 47.837241 
L 198.787604 47.313823 
L 201.228615 46.250105 
L 202.042286 46.334527 
L 202.855957 46.064376 
L 203.669627 46.300758 
L 204.483298 45.912416 
L 207.73798 44.882467 
L 209.365321 43.920055 
L 210.992662 43.700557 
L 211.806332 43.683673 
L 212.620003 42.87322 
L 213.433674 42.535532 
L 214.247344 42.028999 
L 215.061015 42.045884 
L 215.874685 41.927693 
L 216.688356 41.657542 
L 218.315697 41.404276 
L 219.129367 41.404276 
L 220.756708 41.674427 
L 221.570379 41.708195 
L 222.384049 41.944577 
L 223.19772 42.062768 
L 224.011391 42.349803 
L 224.825061 42.383572 
L 228.079743 41.606889 
L 228.893414 41.505582 
L 230.520755 41.775733 
L 232.148096 41.488698 
L 232.961766 41.505582 
L 233.775437 41.252316 
L 234.589108 41.42116 
L 235.402778 41.353622 
L 236.216449 41.556236 
L 239.471131 41.826386 
L 240.284801 41.606889 
L 241.098472 41.826386 
L 242.725813 41.809502 
L 244.353154 42.045884 
L 245.166825 42.045884 
L 245.980495 42.231612 
L 246.794166 42.248497 
L 248.421507 42.501763 
L 250.048848 42.569301 
L 250.862518 42.890105 
L 251.676189 42.839452 
L 252.489859 42.636839 
L 253.30353 42.316035 
L 254.930871 42.974527 
L 255.744542 43.109602 
L 256.558212 42.788798 
L 257.371883 42.653723 
L 258.185553 42.974527 
L 259.812894 43.295331 
L 260.626565 43.3291 
L 261.440235 43.227793 
L 262.253906 43.497944 
L 263.881247 43.565482 
L 266.322259 44.072014 
L 267.135929 43.835633 
L 268.76327 44.122668 
L 270.390611 44.173321 
L 272.017952 44.021361 
L 272.831623 44.20709 
L 273.645293 44.05513 
L 276.086305 44.257743 
L 276.899976 43.920055 
L 280.968328 44.088899 
L 283.40934 44.831813 
L 284.223011 44.899351 
L 285.036681 44.814929 
L 285.850352 44.35905 
L 286.664022 44.612316 
L 289.105034 44.662969 
L 289.918704 44.494125 
L 290.732375 44.6292 
L 292.359716 44.578547 
L 293.173386 44.460356 
L 293.987057 44.696738 
L 295.614398 44.544778 
L 296.428069 44.612316 
L 297.241739 44.426587 
L 298.05541 44.511009 
L 299.682751 45.220155 
L 300.496421 45.135733 
L 301.310092 45.321462 
L 302.123762 45.23704 
L 302.937433 45.321462 
L 303.751103 45.676035 
L 304.564774 45.760457 
L 306.192115 46.064376 
L 307.005786 46.486487 
L 307.819456 46.587793 
L 308.633127 46.925482 
L 310.260468 46.6891 
L 311.074138 46.503371 
L 312.701479 47.094326 
L 313.51515 47.128095 
L 314.32882 47.432014 
L 315.142491 47.313823 
L 315.956162 47.499552 
L 316.769832 47.347592 
L 318.397173 47.448899 
L 319.210844 47.212517 
L 320.024514 47.398246 
L 321.651855 47.432014 
L 322.465526 47.432014 
L 323.279196 47.702165 
L 324.906538 47.465783 
L 325.720208 47.212517 
L 327.347549 47.465783 
L 328.97489 47.803472 
L 329.788561 48.343773 
L 330.602231 48.732115 
L 331.415902 48.86719 
L 332.229572 49.339954 
L 334.670584 49.525683 
L 335.484255 49.525683 
L 336.297925 49.356839 
L 337.111596 49.306185 
L 337.925266 49.626989 
L 339.552607 49.525683 
L 340.366278 49.981562 
L 345.248301 50.504979 
L 346.875642 50.420557 
L 347.689313 50.0491 
L 348.502983 50.217944 
L 349.316654 50.521864 
L 350.130324 50.690708 
L 350.943995 50.741361 
L 351.757665 50.673823 
L 352.571336 50.808899 
L 353.385006 50.758246 
L 354.198677 50.876437 
L 355.012347 51.247894 
L 355.826018 51.028396 
L 357.453359 51.07905 
L 359.0807 51.703773 
L 359.894371 51.619351 
L 361.521712 51.163472 
L 362.335382 51.366085 
L 365.590065 51.399854 
L 367.217406 51.906386 
L 368.031076 51.872617 
L 369.658417 52.075231 
L 370.472088 51.923271 
L 371.285758 52.125884 
L 372.099429 52.108999 
L 375.354111 51.467391 
L 376.981452 51.484276 
L 377.795123 51.720658 
L 380.236134 51.484276 
L 382.677146 51.838849 
L 384.304487 51.838849 
L 385.118157 51.720658 
L 385.931828 51.720658 
L 387.559169 52.108999 
L 388.37284 52.159653 
L 390.000181 52.615532 
L 390.813851 52.68307 
L 391.627522 52.53111 
L 392.441192 52.868798 
L 393.254863 53.358447 
L 396.509545 54.000055 
L 397.323216 53.645482 
L 398.136886 53.949401 
L 398.950557 53.763673 
L 399.764227 53.932517 
L 400.577898 54.270205 
L 400.577898 54.270205 
" style="fill:none;stroke:#000080;stroke-linecap:round;stroke-width:1.5;"/>
   </g>
   <g id="line2d_19">
    <path clip-path="url(#p53c5e8b92a)" d="M 75.923352 276.317241 
L 76.737023 275.827592 
L 77.550693 275.101562 
L 78.364364 274.054728 
L 79.178034 272.703974 
L 82.432717 265.983974 
L 89.755751 245.520055 
L 91.383093 240.522266 
L 95.451445 229.817542 
L 97.892457 223.01312 
L 100.333468 215.702165 
L 101.147139 213.895532 
L 101.96081 211.531713 
L 102.77448 209.590004 
L 104.401821 205.081864 
L 114.979538 177.171914 
L 117.42055 171.88709 
L 120.675232 163.56307 
L 122.302573 159.713421 
L 123.929914 155.542969 
L 127.184596 147.776135 
L 127.998267 146.30719 
L 133.693961 133.103572 
L 135.321302 129.912416 
L 136.948643 125.674427 
L 138.575984 121.926085 
L 139.389654 120.524678 
L 144.271678 110.714829 
L 145.899019 107.844477 
L 148.34003 102.441462 
L 149.153701 100.989401 
L 150.781042 97.646286 
L 151.594712 96.498145 
L 153.222054 93.492718 
L 154.035724 92.428999 
L 154.849395 90.504175 
L 159.731418 81.656738 
L 160.545088 80.593019 
L 161.358759 79.056537 
L 162.17243 77.908396 
L 162.9861 76.456336 
L 164.613441 74.075633 
L 165.427112 72.741763 
L 166.240782 71.931311 
L 167.054453 70.749401 
L 168.681794 68.892115 
L 173.563817 62.273421 
L 174.377488 61.311009 
L 175.191158 60.55121 
L 178.44584 56.482065 
L 179.259511 55.975532 
L 180.073181 54.844276 
L 184.955205 51.163472 
L 185.768875 49.947793 
L 187.396216 49.32307 
L 189.023557 48.107391 
L 189.837228 47.820356 
L 190.650898 47.26317 
L 192.278239 46.520256 
L 193.09191 46.300758 
L 193.905581 45.743572 
L 195.532922 44.240859 
L 196.346592 44.088899 
L 197.160263 43.244678 
L 197.973933 42.670607 
L 199.601274 42.028999 
L 200.414945 41.944577 
L 201.228615 41.590004 
L 202.855957 40.408095 
L 203.669627 40.273019 
L 205.296968 39.732718 
L 206.110639 39.226185 
L 207.73798 39.310607 
L 209.365321 38.432617 
L 210.178991 38.432617 
L 211.806332 38.078045 
L 212.620003 37.402668 
L 215.061015 37.368899 
L 215.874685 37.470205 
L 218.315697 37.115633 
L 219.129367 36.879251 
L 219.943038 36.828597 
L 220.756708 36.946788 
L 221.570379 36.845482 
L 222.384049 36.507793 
L 225.638732 37.216939 
L 226.452402 37.132517 
L 228.079743 37.216939 
L 228.893414 37.216939 
L 231.334425 36.727291 
L 232.148096 36.744175 
L 232.961766 36.355834 
L 235.402778 36.03503 
L 236.216449 36.30518 
L 237.030119 36.237643 
L 237.84379 36.474024 
L 239.471131 36.406487 
L 241.098472 36.170105 
L 242.725813 36.102567 
L 243.539484 36.186989 
L 244.353154 36.018145 
L 246.794166 36.474024 
L 247.607836 36.186989 
L 250.048848 36.828597 
L 250.862518 36.642869 
L 251.676189 36.744175 
L 252.489859 36.440256 
L 253.30353 36.406487 
L 255.744542 36.676638 
L 256.558212 36.592215 
L 257.371883 36.929904 
L 258.185553 36.929904 
L 259.812894 37.453321 
L 260.626565 37.470205 
L 261.440235 37.132517 
L 262.253906 36.997442 
L 263.067576 37.064979 
L 263.881247 36.963673 
L 264.694918 37.098748 
L 265.508588 36.997442 
L 266.322259 37.419552 
L 267.135929 37.200055 
L 268.76327 37.149401 
L 271.204282 37.588396 
L 272.017952 37.419552 
L 273.645293 37.402668 
L 274.458964 37.216939 
L 275.272635 37.520859 
L 276.086305 37.554628 
L 276.899976 37.774125 
L 278.527317 38.601462 
L 279.340987 38.398849 
L 280.154658 38.348195 
L 281.781999 38.618346 
L 282.595669 38.804075 
L 283.40934 38.854728 
L 285.036681 39.51322 
L 285.850352 39.310607 
L 286.664022 39.682065 
L 288.291363 39.428798 
L 289.918704 39.901562 
L 295.614398 40.053522 
L 296.428069 40.188597 
L 298.05541 40.070406 
L 298.86908 40.222366 
L 300.496421 40.036638 
L 302.123762 40.712014 
L 302.937433 40.830205 
L 305.378445 40.576939 
L 306.192115 40.69513 
L 307.819456 41.286085 
L 308.633127 41.235432 
L 309.446797 41.370507 
L 310.260468 41.167894 
L 311.074138 41.353622 
L 311.887809 41.302969 
L 313.51515 40.897743 
L 314.32882 41.252316 
L 315.142491 41.336738 
L 315.956162 41.657542 
L 316.769832 41.606889 
L 318.397173 41.961462 
L 319.210844 41.792617 
L 320.024514 41.944577 
L 320.838185 41.87704 
L 324.092867 42.501763 
L 324.906538 43.17714 
L 325.720208 43.126487 
L 326.533879 43.295331 
L 328.97489 42.991411 
L 329.788561 42.940758 
L 330.602231 43.109602 
L 331.415902 43.008296 
L 332.229572 43.160256 
L 333.043243 43.109602 
L 333.856913 42.856336 
L 336.297925 43.042065 
L 338.738937 43.886286 
L 340.366278 44.190205 
L 341.993619 44.105783 
L 342.807289 44.35905 
L 344.43463 44.662969 
L 345.248301 44.511009 
L 346.061972 44.950004 
L 349.316654 45.270808 
L 350.943995 45.135733 
L 351.757665 45.321462 
L 353.385006 46.064376 
L 354.198677 45.979954 
L 355.012347 46.165683 
L 355.826018 46.604678 
L 356.639689 46.807291 
L 358.26703 46.790406 
L 359.0807 47.077442 
L 359.894371 47.144979 
L 361.521712 46.925482 
L 362.335382 46.655331 
L 366.403735 47.871009 
L 367.217406 47.71905 
L 368.031076 47.820356 
L 368.844747 48.039854 
L 370.472088 47.955432 
L 371.285758 48.529502 
L 372.099429 48.647693 
L 372.913099 48.546386 
L 375.354111 49.221763 
L 376.167782 49.610105 
L 376.981452 49.542567 
L 377.795123 49.964678 
L 378.608793 50.099753 
L 379.422464 49.930909 
L 380.236134 50.099753 
L 381.049805 49.998447 
L 382.677146 49.998447 
L 383.490816 50.319251 
L 385.118157 50.673823 
L 386.745499 50.454326 
L 388.37284 50.910205 
L 389.18651 51.011512 
L 390.813851 50.92709 
L 391.627522 51.197241 
L 393.254863 50.859552 
L 394.882204 51.062165 
L 395.695874 50.724477 
L 398.136886 51.028396 
L 400.577898 51.399854 
L 400.577898 51.399854 
" style="fill:none;stroke:#0000f1;stroke-linecap:round;stroke-width:1.5;"/>
   </g>
   <g id="line2d_20">
    <path clip-path="url(#p53c5e8b92a)" d="M 75.923352 276.300356 
L 76.737023 275.793823 
L 77.550693 274.882065 
L 79.178034 272.045482 
L 81.619046 267.013924 
L 82.432717 265.274829 
L 84.060058 261.138145 
L 85.687399 257.102768 
L 88.12841 250.281462 
L 88.942081 248.2891 
L 93.824104 234.612718 
L 95.451445 230.476035 
L 97.892457 223.31704 
L 99.519798 218.859552 
L 100.333468 216.529502 
L 102.77448 210.60307 
L 104.401821 205.774125 
L 105.215492 203.562266 
L 106.029162 200.877643 
L 106.842833 198.851512 
L 107.656503 197.16307 
L 108.470174 194.968095 
L 109.283844 192.401663 
L 114.979538 177.813522 
L 117.42055 172.207894 
L 119.047891 168.003673 
L 122.302573 160.709602 
L 123.116244 158.632818 
L 123.929914 156.99503 
L 127.998267 147.016336 
L 128.811937 145.513622 
L 129.625608 143.774527 
L 130.439278 141.630205 
L 132.06662 138.168899 
L 132.88029 135.906386 
L 136.948643 127.17714 
L 137.762313 125.201663 
L 139.389654 122.415733 
L 140.203325 120.170105 
L 141.016995 118.380356 
L 145.085348 110.866788 
L 145.899019 109.583572 
L 147.52636 106.409301 
L 148.34003 104.940356 
L 149.153701 102.947994 
L 149.967371 101.614125 
L 152.408383 96.51503 
L 153.222054 95.248698 
L 154.035724 93.745984 
L 154.849395 92.732919 
L 155.663065 91.213321 
L 156.476736 89.33915 
L 159.731418 84.67905 
L 161.358759 81.724276 
L 162.17243 80.86317 
L 162.9861 79.647492 
L 164.613441 76.844678 
L 166.240782 74.396437 
L 167.054453 73.737944 
L 167.868123 72.69111 
L 169.495464 70.918246 
L 170.309135 69.601261 
L 171.936476 67.811512 
L 172.750147 66.730909 
L 174.377488 65.194427 
L 176.004829 62.830607 
L 177.63217 61.547391 
L 178.44584 60.686286 
L 179.259511 60.1291 
L 180.886852 58.643271 
L 181.700522 58.288698 
L 182.514193 57.376939 
L 183.327864 56.684678 
L 185.768875 53.662366 
L 188.209887 51.788195 
L 189.023557 50.792014 
L 189.837228 50.353019 
L 191.464569 49.17111 
L 192.278239 48.360658 
L 194.719251 46.672215 
L 195.532922 46.334527 
L 196.346592 45.861763 
L 197.160263 45.253924 
L 198.787604 44.460356 
L 199.601274 43.835633 
L 200.414945 43.734326 
L 201.228615 43.126487 
L 202.042286 42.75503 
L 202.855957 42.552416 
L 203.669627 41.978346 
L 204.483298 41.657542 
L 205.296968 41.623773 
L 206.110639 41.319854 
L 206.924309 40.880859 
L 207.73798 40.644477 
L 208.55165 40.627592 
L 209.365321 40.458748 
L 210.178991 40.070406 
L 210.992662 39.918447 
L 211.806332 39.580758 
L 214.247344 39.040457 
L 215.061015 39.209301 
L 215.874685 39.158648 
L 216.688356 38.820959 
L 218.315697 38.668999 
L 219.129367 38.601462 
L 219.943038 38.381964 
L 220.756708 38.432617 
L 221.570379 38.128698 
L 222.384049 37.959854 
L 223.19772 37.976738 
L 224.011391 37.571512 
L 224.825061 37.352014 
L 226.452402 37.233823 
L 228.893414 37.622165 
L 229.707084 37.436437 
L 230.520755 37.605281 
L 231.334425 37.554628 
L 232.961766 37.791009 
L 235.402778 37.672818 
L 236.216449 37.588396 
L 237.030119 37.33513 
L 238.65746 37.368899 
L 239.471131 37.537743 
L 240.284801 37.571512 
L 241.098472 37.166286 
L 241.912142 37.03121 
L 242.725813 37.267592 
L 243.539484 37.284477 
L 245.166825 37.723472 
L 245.980495 37.892316 
L 246.794166 37.807894 
L 247.607836 37.959854 
L 250.048848 38.162467 
L 250.862518 38.36508 
L 253.30353 38.618346 
L 254.930871 38.280658 
L 255.744542 38.280658 
L 256.558212 38.415733 
L 257.371883 38.094929 
L 259.812894 38.51704 
L 260.626565 38.094929 
L 262.253906 38.128698 
L 263.067576 38.314427 
L 263.881247 38.280658 
L 264.694918 38.550808 
L 265.508588 38.685884 
L 267.135929 39.445683 
L 267.9496 39.259954 
L 268.76327 39.378145 
L 270.390611 39.074226 
L 272.017952 39.428798 
L 273.645293 39.935331 
L 275.272635 40.357442 
L 276.086305 40.137944 
L 277.713646 40.560055 
L 278.527317 40.475633 
L 279.340987 40.273019 
L 280.154658 40.526286 
L 280.968328 40.627592 
L 281.781999 40.897743 
L 282.595669 40.931512 
L 284.223011 41.319854 
L 285.036681 41.218547 
L 285.850352 41.404276 
L 286.664022 41.336738 
L 287.477693 41.387391 
L 288.291363 41.606889 
L 289.105034 41.691311 
L 292.359716 41.539351 
L 293.173386 41.843271 
L 293.987057 41.691311 
L 296.428069 41.792617 
L 297.241739 41.606889 
L 298.86908 41.758849 
L 299.682751 41.775733 
L 300.496421 41.995231 
L 302.123762 42.164075 
L 302.937433 42.484879 
L 303.751103 42.484879 
L 306.192115 42.940758 
L 307.005786 43.3291 
L 307.819456 43.464175 
L 308.633127 43.295331 
L 310.260468 43.565482 
L 311.074138 43.970708 
L 311.887809 43.869401 
L 312.701479 43.920055 
L 313.51515 44.088899 
L 314.32882 44.105783 
L 315.956162 44.477241 
L 316.769832 44.646085 
L 317.583503 44.679854 
L 318.397173 45.017542 
L 319.210844 44.966889 
L 320.024514 45.253924 
L 321.651855 45.372115 
L 322.465526 45.08508 
L 323.279196 44.916236 
L 324.092867 45.08508 
L 326.533879 45.169502 
L 327.347549 45.017542 
L 328.97489 44.966889 
L 329.788561 44.93312 
L 330.602231 45.034427 
L 331.415902 45.355231 
L 332.229572 45.490306 
L 334.670584 45.490306 
L 335.484255 45.777341 
L 336.297925 45.608497 
L 337.111596 45.777341 
L 337.925266 45.65915 
L 338.738937 45.760457 
L 339.552607 46.030607 
L 340.366278 45.979954 
L 341.179948 46.098145 
L 342.807289 46.081261 
L 343.62096 46.199452 
L 344.43463 46.081261 
L 345.248301 46.418949 
L 349.316654 46.773522 
L 350.130324 46.6891 
L 356.639689 47.195633 
L 357.453359 46.942366 
L 359.0807 47.144979 
L 359.894371 46.874829 
L 360.708041 47.347592 
L 361.521712 47.178748 
L 363.149053 47.195633 
L 363.962723 46.959251 
L 365.590065 46.790406 
L 366.403735 47.009904 
L 367.217406 47.11121 
L 368.031076 47.077442 
L 369.658417 47.583974 
L 370.472088 47.904778 
L 371.285758 48.056738 
L 372.099429 48.360658 
L 372.913099 48.428195 
L 373.72677 48.732115 
L 374.54044 48.681462 
L 375.354111 49.069803 
L 376.167782 49.103572 
L 376.981452 49.32307 
L 377.795123 49.711411 
L 378.608793 49.711411 
L 379.422464 49.47503 
L 381.049805 49.89714 
L 381.863475 49.863371 
L 382.677146 49.964678 
L 383.490816 50.234829 
L 385.118157 50.403673 
L 386.745499 50.724477 
L 388.37284 51.214125 
L 389.18651 51.399854 
L 390.000181 51.180356 
L 390.813851 51.3492 
L 391.627522 51.315432 
L 392.441192 51.65312 
L 393.254863 51.619351 
L 394.068533 51.838849 
L 397.323216 51.872617 
L 398.136886 52.210306 
L 398.950557 52.412919 
L 400.577898 52.514226 
L 400.577898 52.514226 
" style="fill:none;stroke:#004cff;stroke-linecap:round;stroke-width:1.5;"/>
   </g>
   <g id="line2d_21">
    <path clip-path="url(#p53c5e8b92a)" d="M 75.923352 276.300356 
L 76.737023 275.962668 
L 77.550693 275.236638 
L 79.178034 272.923472 
L 80.805376 269.850507 
L 82.432717 266.135934 
L 84.060058 261.88106 
L 84.873728 259.939351 
L 88.12841 250.872416 
L 88.942081 248.86317 
L 89.755751 245.790205 
L 91.383093 241.332718 
L 92.196763 239.019552 
L 93.824104 233.937341 
L 97.078786 224.600256 
L 99.519798 218.62317 
L 101.147139 213.979954 
L 106.029162 200.658145 
L 106.842833 198.91905 
L 108.470174 194.579753 
L 110.097515 190.780758 
L 111.724856 185.698547 
L 114.979538 176.834226 
L 117.42055 170.789602 
L 119.047891 166.213924 
L 122.302573 158.801663 
L 123.929914 154.78317 
L 125.557255 151.321864 
L 127.184596 147.387793 
L 127.998267 145.817542 
L 131.252949 138.675432 
L 133.693961 133.677643 
L 135.321302 129.709803 
L 136.948643 126.282266 
L 137.762313 124.965281 
L 139.389654 121.301361 
L 142.644337 115.729502 
L 144.271678 111.930507 
L 145.899019 108.384778 
L 146.712689 107.185984 
L 152.408383 95.569502 
L 154.849395 91.584778 
L 155.663065 89.980758 
L 156.476736 89.052115 
L 157.290406 87.752014 
L 158.104077 86.080457 
L 158.917747 85.084276 
L 159.731418 83.750406 
L 160.545088 82.804879 
L 166.240782 74.210708 
L 167.054453 73.298949 
L 167.868123 71.81312 
L 169.495464 69.90518 
L 171.122805 67.406286 
L 172.750147 65.464577 
L 173.563817 64.046286 
L 175.191158 62.121462 
L 176.004829 61.4292 
L 176.818499 60.365482 
L 180.073181 57.34317 
L 180.886852 56.144376 
L 181.700522 55.249502 
L 182.514193 54.591009 
L 183.327864 53.442869 
L 184.141534 52.497341 
L 186.582546 51.197241 
L 187.396216 50.47121 
L 189.023557 49.559452 
L 189.837228 48.765884 
L 190.650898 48.174929 
L 191.464569 47.735934 
L 192.278239 47.56709 
L 193.09191 46.790406 
L 193.905581 46.199452 
L 195.532922 45.372115 
L 197.160263 43.987592 
L 197.973933 43.548597 
L 199.601274 42.856336 
L 200.414945 42.383572 
L 201.228615 42.14719 
L 202.855957 41.370507 
L 203.669627 41.235432 
L 204.483298 40.627592 
L 206.110639 39.884678 
L 208.55165 39.698949 
L 209.365321 39.276839 
L 210.178991 39.175532 
L 210.992662 38.922266 
L 211.806332 38.500155 
L 212.620003 38.297542 
L 213.433674 38.466386 
L 215.061015 38.111813 
L 215.874685 38.145582 
L 216.688356 37.9092 
L 217.502026 37.520859 
L 218.315697 36.929904 
L 219.129367 36.828597 
L 220.756708 36.980557 
L 222.384049 37.267592 
L 224.011391 37.149401 
L 224.825061 37.216939 
L 227.266073 36.524678 
L 228.079743 36.051914 
L 228.893414 35.984376 
L 229.707084 36.254527 
L 230.520755 36.170105 
L 231.334425 35.832416 
L 232.148096 36.136336 
L 232.961766 35.950607 
L 233.775437 36.018145 
L 234.589108 35.57915 
L 235.402778 35.292115 
L 237.030119 35.376537 
L 237.84379 35.562266 
L 238.65746 35.410306 
L 240.284801 35.680457 
L 241.912142 35.747994 
L 242.725813 35.612919 
L 243.539484 35.798648 
L 244.353154 35.596035 
L 245.166825 35.562266 
L 245.980495 35.663572 
L 247.607836 36.271411 
L 249.235177 36.355834 
L 250.048848 36.203874 
L 250.862518 36.186989 
L 251.676189 36.440256 
L 252.489859 36.524678 
L 253.30353 36.474024 
L 254.117201 36.288296 
L 254.930871 36.220758 
L 255.744542 36.338949 
L 256.558212 36.642869 
L 258.185553 36.727291 
L 261.440235 36.524678 
L 263.067576 36.862366 
L 264.694918 36.879251 
L 265.508588 37.301361 
L 267.9496 37.774125 
L 268.76327 38.06116 
L 271.204282 38.398849 
L 272.017952 38.314427 
L 272.831623 38.500155 
L 276.086305 38.044276 
L 276.899976 37.672818 
L 279.340987 37.672818 
L 280.154658 37.858547 
L 281.781999 37.622165 
L 283.40934 37.740356 
L 284.223011 37.892316 
L 285.850352 37.942969 
L 287.477693 37.791009 
L 288.291363 37.858547 
L 289.105034 37.807894 
L 289.918704 38.111813 
L 290.732375 37.993622 
L 293.173386 38.263773 
L 293.987057 38.280658 
L 294.800728 37.993622 
L 296.428069 38.398849 
L 298.05541 38.449502 
L 298.86908 38.753421 
L 300.496421 38.500155 
L 301.310092 38.584577 
L 302.123762 38.533924 
L 304.564774 39.276839 
L 305.378445 39.411914 
L 306.192115 39.800256 
L 307.005786 39.918447 
L 307.819456 39.800256 
L 308.633127 40.036638 
L 309.446797 40.036638 
L 311.074138 40.526286 
L 311.887809 40.39121 
L 314.32882 40.897743 
L 315.142491 40.762668 
L 316.769832 40.897743 
L 318.397173 41.2692 
L 320.024514 41.2692 
L 320.838185 41.42116 
L 322.465526 41.319854 
L 324.906538 41.42116 
L 328.97489 42.14719 
L 329.788561 42.012115 
L 330.602231 42.518648 
L 332.229572 42.721261 
L 333.856913 42.501763 
L 334.670584 42.619954 
L 335.484255 42.619954 
L 336.297925 42.923874 
L 337.111596 42.974527 
L 337.925266 42.738145 
L 338.738937 43.008296 
L 339.552607 43.008296 
L 340.366278 42.87322 
L 341.993619 42.906989 
L 342.807289 42.906989 
L 343.62096 43.227793 
L 344.43463 43.210909 
L 345.248301 43.48106 
L 346.875642 43.717442 
L 347.689313 43.599251 
L 348.502983 43.734326 
L 349.316654 43.683673 
L 350.130324 43.396638 
L 350.943995 43.565482 
L 351.757665 43.312215 
L 354.198677 43.227793 
L 355.012347 43.413522 
L 357.453359 43.464175 
L 358.26703 43.278447 
L 359.894371 43.143371 
L 360.708041 43.295331 
L 361.521712 43.075834 
L 363.962723 42.940758 
L 365.590065 43.3291 
L 366.403735 43.17714 
L 367.217406 43.396638 
L 368.031076 43.497944 
L 368.844747 43.464175 
L 369.658417 43.312215 
L 372.099429 43.801864 
L 372.913099 44.05513 
L 373.72677 43.936939 
L 374.54044 43.936939 
L 375.354111 44.20709 
L 376.167782 44.35905 
L 376.981452 44.274628 
L 377.795123 44.375934 
L 378.608793 44.696738 
L 379.422464 44.764276 
L 380.236134 44.662969 
L 382.677146 45.203271 
L 385.118157 45.422768 
L 385.931828 45.642266 
L 386.745499 45.709803 
L 387.559169 45.608497 
L 388.37284 45.65915 
L 389.18651 45.490306 
L 390.000181 45.895532 
L 390.813851 46.165683 
L 393.254863 45.996839 
L 394.882204 46.148798 
L 395.695874 46.469602 
L 396.509545 46.554024 
L 397.323216 46.790406 
L 399.764227 46.554024 
L 400.577898 46.722869 
L 400.577898 46.722869 
" style="fill:none;stroke:#00b0ff;stroke-linecap:round;stroke-width:1.5;"/>
   </g>
   <g id="line2d_22">
    <path clip-path="url(#p53c5e8b92a)" d="M 75.923352 276.249703 
L 76.737023 275.760055 
L 77.550693 274.831411 
L 78.364364 273.683271 
L 79.178034 272.332517 
L 79.991705 270.745381 
L 80.805376 269.411512 
L 82.432717 265.96709 
L 84.060058 261.7291 
L 85.687399 256.731311 
L 87.31474 252.138748 
L 90.569422 243.375733 
L 92.196763 238.546788 
L 96.265116 227.200457 
L 97.078786 225.376939 
L 106.842833 197.500758 
L 107.656503 195.542165 
L 108.470174 193.245884 
L 110.911185 187.454527 
L 118.23422 169.084276 
L 122.302573 159.460155 
L 124.743585 153.770105 
L 125.557255 152.166085 
L 127.184596 148.51905 
L 132.06662 137.206487 
L 135.321302 130.486487 
L 139.389654 120.946788 
L 141.016995 117.468597 
L 142.644337 114.007291 
L 144.271678 111.052517 
L 149.153701 102.964879 
L 151.594712 98.338547 
L 153.222054 95.468195 
L 154.035724 93.7291 
L 157.290406 88.292316 
L 158.104077 87.279251 
L 158.917747 85.337542 
L 159.731418 84.240055 
L 160.545088 82.838648 
L 162.17243 80.44106 
L 163.799771 77.520055 
L 164.613441 76.253723 
L 165.427112 75.358849 
L 166.240782 74.29513 
L 167.868123 72.724879 
L 169.495464 70.074024 
L 170.309135 69.347994 
L 171.122805 68.368698 
L 172.750147 65.869803 
L 173.563817 64.502165 
L 174.377488 64.029401 
L 176.004829 61.851311 
L 178.44584 59.858949 
L 180.073181 58.271813 
L 180.886852 56.819753 
L 182.514193 54.793622 
L 183.327864 53.729904 
L 184.141534 53.071411 
L 185.768875 51.332316 
L 186.582546 50.234829 
L 187.396216 49.542567 
L 189.023557 48.782768 
L 189.837228 48.377542 
L 190.650898 47.702165 
L 192.278239 46.722869 
L 193.09191 46.030607 
L 194.719251 44.983773 
L 195.532922 45.000658 
L 196.346592 44.342165 
L 197.973933 43.818748 
L 198.787604 43.227793 
L 199.601274 42.906989 
L 200.414945 42.248497 
L 201.228615 41.910808 
L 202.042286 41.775733 
L 202.855957 41.505582 
L 205.296968 41.049703 
L 206.924309 40.458748 
L 207.73798 40.205482 
L 208.55165 39.766487 
L 210.992662 38.989803 
L 213.433674 38.550808 
L 214.247344 38.36508 
L 215.874685 37.723472 
L 216.688356 37.605281 
L 217.502026 37.622165 
L 219.129367 36.946788 
L 219.943038 36.389602 
L 220.756708 36.102567 
L 222.384049 35.764879 
L 223.19772 35.545381 
L 224.011391 35.528497 
L 224.825061 35.697341 
L 225.638732 35.359653 
L 228.893414 34.988195 
L 229.707084 34.886889 
L 232.148096 34.937542 
L 232.961766 35.190808 
L 233.775437 34.802467 
L 234.589108 34.599854 
L 236.216449 34.937542 
L 237.030119 34.667391 
L 237.84379 34.650507 
L 238.65746 34.85312 
L 240.284801 34.954427 
L 241.912142 34.414125 
L 243.539484 34.768698 
L 244.353154 34.464778 
L 247.607836 35.106386 
L 248.421507 34.751813 
L 249.235177 34.566085 
L 251.676189 34.886889 
L 253.30353 34.582969 
L 254.930871 34.70116 
L 255.744542 34.667391 
L 257.371883 34.886889 
L 258.999224 35.410306 
L 259.812894 35.325884 
L 260.626565 35.764879 
L 261.440235 35.933723 
L 262.253906 36.271411 
L 264.694918 36.575331 
L 265.508588 37.03121 
L 266.322259 37.064979 
L 267.135929 36.946788 
L 267.9496 37.318246 
L 269.576941 37.554628 
L 270.390611 37.33513 
L 272.831623 37.132517 
L 273.645293 37.352014 
L 274.458964 37.402668 
L 275.272635 37.233823 
L 280.154658 38.010507 
L 282.595669 38.584577 
L 283.40934 38.652115 
L 284.223011 38.93915 
L 285.036681 39.023572 
L 286.664022 39.462567 
L 287.477693 39.563874 
L 288.291363 39.884678 
L 290.732375 40.205482 
L 291.546045 40.863974 
L 293.173386 41.2692 
L 295.614398 41.556236 
L 296.428069 41.961462 
L 298.05541 42.265381 
L 300.496421 42.721261 
L 302.937433 42.383572 
L 303.751103 42.738145 
L 307.005786 42.788798 
L 308.633127 43.092718 
L 309.446797 43.075834 
L 310.260468 43.210909 
L 311.074138 43.143371 
L 312.701479 43.430406 
L 314.32882 43.531713 
L 315.956162 43.362869 
L 317.583503 43.953823 
L 319.210844 44.831813 
L 320.024514 44.966889 
L 320.838185 45.304577 
L 321.651855 45.388999 
L 322.465526 45.253924 
L 324.092867 45.338346 
L 324.906538 45.456537 
L 325.720208 45.692919 
L 329.788561 45.456537 
L 330.602231 45.557844 
L 331.415902 45.50719 
L 333.043243 45.81111 
L 334.670584 45.794226 
L 335.484255 45.642266 
L 336.297925 45.726688 
L 337.111596 46.030607 
L 337.925266 45.946185 
L 339.552607 46.722869 
L 340.366278 46.53714 
L 341.179948 46.554024 
L 341.993619 46.891713 
L 343.62096 46.993019 
L 345.248301 47.617743 
L 346.061972 47.432014 
L 346.875642 47.786587 
L 347.689313 47.465783 
L 348.502983 47.651512 
L 350.943995 47.533321 
L 351.757665 47.533321 
L 352.571336 47.735934 
L 353.385006 47.499552 
L 355.826018 47.786587 
L 356.639689 47.516437 
L 359.0807 47.465783 
L 360.708041 47.904778 
L 361.521712 47.803472 
L 362.335382 47.854125 
L 363.149053 48.056738 
L 363.962723 47.921663 
L 364.776394 47.955432 
L 365.590065 48.158045 
L 366.403735 48.056738 
L 367.217406 48.073622 
L 368.844747 48.377542 
L 370.472088 48.580155 
L 371.285758 48.478849 
L 372.099429 48.681462 
L 372.913099 48.765884 
L 374.54044 49.103572 
L 375.354111 49.01915 
L 376.167782 49.238648 
L 378.608793 49.47503 
L 379.422464 49.289301 
L 380.236134 49.508798 
L 381.049805 49.610105 
L 382.677146 49.559452 
L 383.490816 49.914024 
L 387.559169 50.504979 
L 388.37284 50.420557 
L 389.18651 50.656939 
L 390.813851 50.724477 
L 391.627522 50.420557 
L 393.254863 50.521864 
L 394.068533 50.690708 
L 395.695874 50.724477 
L 396.509545 50.876437 
L 398.136886 50.910205 
L 398.950557 50.758246 
L 399.764227 50.859552 
L 400.577898 50.724477 
L 400.577898 50.724477 
" style="fill:none;stroke:#29ffce;stroke-linecap:round;stroke-width:1.5;"/>
   </g>
   <g id="line2d_23">
    <path clip-path="url(#p53c5e8b92a)" d="M 75.923352 276.283472 
L 77.550693 275.084678 
L 79.178034 272.53513 
L 79.991705 271.150607 
L 80.805376 269.47905 
L 84.060058 261.27322 
L 85.687399 256.748195 
L 87.31474 252.712818 
L 88.942081 248.238447 
L 96.265116 228.399251 
L 97.892457 223.857341 
L 100.333468 217.47503 
L 101.96081 212.747391 
L 102.77448 210.670607 
L 106.029162 200.978949 
L 106.842833 199.104778 
L 110.097515 190.257341 
L 110.911185 188.771512 
L 112.538527 184.364678 
L 114.165868 180.565683 
L 117.42055 172.055934 
L 118.23422 170.367492 
L 119.861561 166.163271 
L 121.488903 163.208497 
L 122.302573 161.418748 
L 124.743585 155.019552 
L 125.557255 153.128497 
L 127.184596 148.687894 
L 134.507631 131.280055 
L 136.948643 126.316035 
L 139.389654 122.196236 
L 143.458007 113.551411 
L 145.085348 109.600457 
L 147.52636 104.248095 
L 149.153701 101.529703 
L 150.781042 98.558045 
L 152.408383 95.33312 
L 154.035724 92.682266 
L 154.849395 91.263974 
L 155.663065 90.149602 
L 157.290406 87.0091 
L 158.104077 85.708999 
L 158.917747 83.817944 
L 161.358759 79.647492 
L 162.9861 77.165482 
L 163.799771 75.409502 
L 165.427112 72.69111 
L 171.936476 64.012517 
L 174.377488 61.446085 
L 175.191158 60.078447 
L 176.818499 58.778346 
L 177.63217 57.444477 
L 180.073181 54.574125 
L 180.886852 53.729904 
L 181.700522 53.071411 
L 182.514193 51.754427 
L 183.327864 50.960859 
L 184.141534 50.386788 
L 185.768875 48.765884 
L 188.209887 47.499552 
L 189.023557 47.077442 
L 189.837228 46.165683 
L 191.464569 44.747391 
L 193.09191 43.970708 
L 193.905581 43.261562 
L 196.346592 41.927693 
L 197.160263 41.539351 
L 197.973933 40.661361 
L 198.787604 40.560055 
L 200.414945 39.901562 
L 201.228615 40.019753 
L 202.855957 39.445683 
L 206.924309 38.230004 
L 207.73798 38.044276 
L 208.55165 37.723472 
L 209.365321 37.689703 
L 210.992662 37.081864 
L 211.806332 37.284477 
L 215.061015 36.845482 
L 215.874685 36.45714 
L 216.688356 36.372718 
L 217.502026 36.085683 
L 218.315697 36.288296 
L 219.943038 35.866185 
L 220.756708 35.697341 
L 221.570379 35.832416 
L 222.384049 35.612919 
L 223.19772 35.612919 
L 224.011391 35.308999 
L 224.825061 35.275231 
L 225.638732 35.038849 
L 227.266073 34.988195 
L 228.079743 34.684276 
L 228.893414 34.85312 
L 229.707084 34.886889 
L 230.520755 34.616738 
L 231.334425 35.173924 
L 232.148096 35.325884 
L 235.402778 35.038849 
L 236.216449 35.140155 
L 237.030119 35.055733 
L 237.84379 35.308999 
L 238.65746 35.207693 
L 240.284801 35.646688 
L 241.098472 35.88307 
L 241.912142 35.747994 
L 243.539484 36.355834 
L 244.353154 36.271411 
L 245.166825 36.625984 
L 245.980495 36.592215 
L 248.421507 36.896135 
L 250.048848 36.845482 
L 250.862518 37.250708 
L 252.489859 37.098748 
L 253.30353 37.149401 
L 254.117201 36.997442 
L 254.930871 37.081864 
L 256.558212 36.693522 
L 257.371883 36.845482 
L 258.185553 37.33513 
L 259.812894 37.115633 
L 260.626565 37.318246 
L 262.253906 37.064979 
L 263.881247 36.946788 
L 265.508588 37.115633 
L 266.322259 37.655934 
L 267.135929 37.655934 
L 267.9496 37.858547 
L 268.76327 37.723472 
L 269.576941 37.892316 
L 271.204282 37.774125 
L 273.645293 38.449502 
L 274.458964 38.449502 
L 275.272635 39.107994 
L 276.086305 39.09111 
L 278.527317 39.51322 
L 280.154658 39.428798 
L 280.968328 39.81714 
L 281.781999 39.867793 
L 282.595669 40.070406 
L 283.40934 39.918447 
L 284.223011 39.631411 
L 285.850352 39.834024 
L 286.664022 40.323673 
L 287.477693 40.458748 
L 288.291363 40.762668 
L 289.105034 40.576939 
L 289.918704 40.54317 
L 290.732375 40.84709 
L 293.173386 40.830205 
L 293.987057 41.083472 
L 294.800728 41.134125 
L 296.428069 40.99905 
L 297.241739 41.353622 
L 298.05541 41.235432 
L 298.86908 41.2692 
L 299.682751 41.488698 
L 300.496421 41.57312 
L 301.310092 41.860155 
L 302.123762 41.978346 
L 302.937433 41.741964 
L 303.751103 42.14719 
L 304.564774 41.910808 
L 306.192115 41.910808 
L 308.633127 41.606889 
L 310.260468 41.927693 
L 311.074138 41.792617 
L 312.701479 41.741964 
L 313.51515 41.522467 
L 315.956162 41.775733 
L 317.583503 41.860155 
L 319.210844 42.366688 
L 320.838185 42.282266 
L 321.651855 42.484879 
L 322.465526 42.383572 
L 324.092867 42.670607 
L 324.906538 42.400457 
L 325.720208 42.87322 
L 326.533879 43.008296 
L 327.347549 43.396638 
L 329.788561 43.396638 
L 331.415902 43.109602 
L 332.229572 43.17714 
L 333.043243 43.531713 
L 333.856913 43.464175 
L 335.484255 43.666788 
L 336.297925 43.413522 
L 339.552607 43.683673 
L 340.366278 43.90317 
L 341.993619 43.920055 
L 342.807289 44.05513 
L 343.62096 44.342165 
L 344.43463 44.274628 
L 345.248301 44.578547 
L 347.689313 44.612316 
L 348.502983 44.966889 
L 349.316654 44.983773 
L 350.943995 44.78116 
L 352.571336 45.372115 
L 354.198677 45.034427 
L 355.826018 45.287693 
L 356.639689 45.203271 
L 357.453359 45.591612 
L 359.0807 45.524075 
L 360.708041 45.946185 
L 361.521712 46.199452 
L 362.335382 46.098145 
L 365.590065 47.178748 
L 366.403735 47.364477 
L 367.217406 47.26317 
L 368.844747 47.398246 
L 370.472088 46.993019 
L 372.913099 47.330708 
L 373.72677 47.161864 
L 374.54044 47.482668 
L 375.354111 47.56709 
L 376.167782 47.887894 
L 376.981452 48.056738 
L 378.608793 47.904778 
L 380.236134 48.208698 
L 381.049805 48.14116 
L 381.863475 48.259351 
L 384.304487 48.158045 
L 385.118157 48.022969 
L 385.931828 48.29312 
L 386.745499 48.343773 
L 387.559169 48.546386 
L 388.37284 49.002266 
L 390.000181 49.356839 
L 393.254863 49.491914 
L 394.068533 49.778949 
L 394.882204 49.880256 
L 395.695874 49.829602 
L 398.136886 50.285482 
L 399.764227 50.724477 
L 400.577898 50.825783 
L 400.577898 50.825783 
" style="fill:none;stroke:#7dff7a;stroke-linecap:round;stroke-width:1.5;"/>
   </g>
   <g id="line2d_24">
    <path clip-path="url(#p53c5e8b92a)" d="M 75.923352 276.300356 
L 76.737023 275.861361 
L 77.550693 275.135331 
L 79.178034 272.568899 
L 82.432717 265.781361 
L 84.873728 259.280859 
L 86.501069 254.519452 
L 89.755751 245.604477 
L 90.569422 243.190004 
L 92.196763 238.884477 
L 93.824104 234.325683 
L 94.637775 232.687894 
L 96.265116 227.67322 
L 97.892457 223.16508 
L 98.706127 221.375331 
L 100.333468 217.002266 
L 102.77448 211.278447 
L 103.588151 208.813321 
L 107.656503 198.530708 
L 108.470174 196.690306 
L 110.097515 192.165281 
L 110.911185 190.510607 
L 112.538527 185.934929 
L 114.979538 179.552617 
L 115.793209 177.931713 
L 116.606879 175.719854 
L 121.488903 164.542366 
L 122.302573 162.212316 
L 123.116244 160.304376 
L 124.743585 156.015733 
L 127.184596 150.562065 
L 128.811937 146.543572 
L 131.252949 141.208095 
L 132.88029 137.763673 
L 133.693961 136.396035 
L 136.948643 128.865582 
L 137.762313 127.3291 
L 139.389654 123.935331 
L 142.644337 118.177743 
L 143.458007 116.607492 
L 144.271678 114.699552 
L 145.085348 113.16307 
L 145.899019 111.272014 
L 147.52636 108.401663 
L 152.408383 99.604879 
L 153.222054 98.507391 
L 154.035724 96.565683 
L 154.849395 95.535733 
L 155.663065 94.286286 
L 157.290406 91.196437 
L 159.731418 86.840256 
L 162.17243 83.108798 
L 162.9861 82.011311 
L 163.799771 80.474829 
L 165.427112 77.925281 
L 167.054453 75.797844 
L 168.681794 73.889904 
L 171.122805 70.63121 
L 172.750147 67.862165 
L 173.563817 66.747793 
L 174.377488 65.987994 
L 176.818499 63.202065 
L 180.073181 60.196638 
L 180.886852 59.166688 
L 181.700522 58.761462 
L 182.514193 57.951009 
L 183.327864 57.326286 
L 184.141534 57.140557 
L 184.955205 56.04307 
L 185.768875 55.418346 
L 186.582546 54.506587 
L 187.396216 54.152014 
L 188.209887 53.662366 
L 189.023557 53.037643 
L 189.837228 52.801261 
L 191.464569 51.551813 
L 193.09191 50.792014 
L 193.905581 50.065984 
L 195.532922 49.17111 
L 196.346592 48.951612 
L 197.160263 48.613924 
L 198.787604 47.550205 
L 199.601274 47.144979 
L 200.414945 47.094326 
L 201.228615 46.722869 
L 202.042286 46.773522 
L 202.855957 46.402065 
L 205.296968 45.692919 
L 206.110639 45.135733 
L 209.365321 43.683673 
L 210.178991 43.531713 
L 212.620003 42.687492 
L 213.433674 42.45111 
L 216.688356 42.400457 
L 218.315697 42.028999 
L 219.129367 42.180959 
L 219.943038 42.214728 
L 220.756708 42.535532 
L 222.384049 42.012115 
L 223.19772 41.961462 
L 224.011391 42.197844 
L 224.825061 42.028999 
L 225.638732 41.995231 
L 226.452402 41.590004 
L 228.893414 41.083472 
L 232.961766 40.661361 
L 234.589108 40.610708 
L 235.402778 40.239251 
L 236.216449 40.306788 
L 237.030119 40.104175 
L 238.65746 40.424979 
L 239.471131 40.509401 
L 240.284801 40.070406 
L 241.098472 40.137944 
L 241.912142 40.424979 
L 242.725813 39.935331 
L 243.539484 39.850909 
L 244.353154 39.597643 
L 245.166825 39.682065 
L 247.607836 39.462567 
L 248.421507 39.597643 
L 249.235177 39.51322 
L 250.048848 39.985984 
L 250.862518 39.834024 
L 252.489859 40.12106 
L 253.30353 40.306788 
L 254.117201 40.12106 
L 255.744542 40.070406 
L 256.558212 40.306788 
L 257.371883 40.289904 
L 258.185553 40.036638 
L 260.626565 40.357442 
L 263.067576 40.54317 
L 263.881247 40.340557 
L 265.508588 40.796437 
L 266.322259 40.69513 
L 267.9496 40.880859 
L 268.76327 40.779552 
L 269.576941 40.796437 
L 271.204282 41.151009 
L 272.831623 41.319854 
L 273.645293 41.741964 
L 275.272635 41.623773 
L 277.713646 41.488698 
L 280.968328 41.860155 
L 281.781999 41.590004 
L 283.40934 42.248497 
L 285.036681 41.944577 
L 285.850352 42.130306 
L 287.477693 42.012115 
L 289.105034 42.028999 
L 290.732375 41.860155 
L 292.359716 41.826386 
L 293.173386 41.961462 
L 293.987057 41.775733 
L 296.428069 41.72508 
L 297.241739 41.843271 
L 298.05541 41.741964 
L 298.86908 41.826386 
L 299.682751 41.775733 
L 301.310092 42.012115 
L 302.937433 41.961462 
L 304.564774 42.096537 
L 305.378445 42.045884 
L 307.819456 42.75503 
L 308.633127 42.619954 
L 309.446797 42.991411 
L 310.260468 42.839452 
L 311.074138 42.839452 
L 311.887809 42.619954 
L 312.701479 42.805683 
L 313.51515 42.484879 
L 314.32882 42.467994 
L 315.142491 42.29915 
L 316.769832 42.400457 
L 317.583503 42.670607 
L 318.397173 42.586185 
L 319.210844 42.704376 
L 320.024514 42.164075 
L 320.838185 42.29915 
L 321.651855 42.316035 
L 322.465526 42.180959 
L 324.092867 42.265381 
L 325.720208 42.130306 
L 328.16122 42.805683 
L 330.602231 43.278447 
L 331.415902 43.17714 
L 332.229572 43.396638 
L 333.043243 43.464175 
L 333.856913 43.75121 
L 336.297925 44.004477 
L 337.111596 43.970708 
L 337.925266 44.072014 
L 340.366278 44.038246 
L 344.43463 44.662969 
L 345.248301 44.713622 
L 346.061972 44.426587 
L 346.875642 44.426587 
L 348.502983 44.240859 
L 349.316654 44.595432 
L 350.130324 44.409703 
L 350.943995 44.527894 
L 351.757665 44.257743 
L 353.385006 44.612316 
L 354.198677 44.595432 
L 355.826018 44.35905 
L 356.639689 44.426587 
L 357.453359 44.257743 
L 358.26703 44.730507 
L 360.708041 45.034427 
L 361.521712 44.764276 
L 363.149053 45.23704 
L 363.962723 45.591612 
L 366.403735 45.439653 
L 367.217406 45.321462 
L 368.031076 45.625381 
L 369.658417 45.743572 
L 370.472088 46.013723 
L 372.099429 46.081261 
L 372.913099 46.266989 
L 373.72677 46.098145 
L 375.354111 46.081261 
L 376.167782 46.165683 
L 376.981452 45.844879 
L 377.795123 46.081261 
L 378.608793 46.064376 
L 380.236134 46.334527 
L 381.049805 46.23322 
L 381.863475 46.317643 
L 383.490816 46.131914 
L 384.304487 45.827994 
L 385.118157 45.946185 
L 385.931828 45.709803 
L 389.18651 46.199452 
L 390.000181 46.587793 
L 390.813851 46.824175 
L 393.254863 47.077442 
L 394.068533 47.347592 
L 394.882204 47.41513 
L 395.695874 47.921663 
L 396.509545 47.938547 
L 397.323216 48.107391 
L 398.136886 48.056738 
L 400.577898 48.411311 
L 400.577898 48.411311 
" style="fill:none;stroke:#ceff29;stroke-linecap:round;stroke-width:1.5;"/>
   </g>
   <g id="line2d_25">
    <path clip-path="url(#p53c5e8b92a)" d="M 75.923352 276.317241 
L 76.737023 275.844477 
L 77.550693 274.966487 
L 79.991705 271.150607 
L 80.805376 269.664778 
L 84.873728 260.327693 
L 85.687399 258.06518 
L 86.501069 255.414326 
L 90.569422 244.506989 
L 91.383093 242.176939 
L 92.196763 239.475432 
L 94.637775 233.582768 
L 95.451445 230.881261 
L 97.892457 223.840457 
L 98.706127 221.375331 
L 99.519798 219.686889 
L 106.029162 201.890708 
L 107.656503 196.605884 
L 109.283844 192.756236 
L 110.097515 190.358648 
L 112.538527 184.921864 
L 113.352197 182.929502 
L 114.165868 180.531914 
L 124.743585 155.289703 
L 125.557255 153.044075 
L 127.998267 147.877442 
L 128.811937 145.682467 
L 130.439278 142.136738 
L 131.252949 140.684678 
L 132.88029 137.020758 
L 135.321302 131.465783 
L 137.762313 126.164075 
L 142.644337 115.307391 
L 143.458007 113.939753 
L 145.085348 110.68106 
L 145.899019 109.212115 
L 148.34003 103.825984 
L 149.967371 101.47905 
L 151.594712 98.220356 
L 153.222054 95.468195 
L 154.035724 93.847291 
L 155.663065 91.044477 
L 156.476736 90.031411 
L 157.290406 88.427391 
L 158.917747 86.350607 
L 161.358759 82.315231 
L 163.799771 78.448698 
L 165.427112 76.236839 
L 167.054453 73.653522 
L 167.868123 72.826185 
L 170.309135 68.925884 
L 171.936476 67.102366 
L 172.750147 66.511411 
L 175.191158 63.354024 
L 177.63217 60.669401 
L 179.259511 59.166688 
L 180.073181 57.900356 
L 180.886852 57.478246 
L 181.700522 56.431411 
L 183.327864 55.283271 
L 184.141534 54.911813 
L 184.955205 54.016939 
L 185.768875 53.290909 
L 186.582546 52.750607 
L 187.396216 52.058346 
L 189.023557 51.112818 
L 189.837228 50.184175 
L 191.464569 49.390607 
L 193.09191 47.803472 
L 194.719251 47.128095 
L 195.532922 46.402065 
L 198.787604 45.405884 
L 199.601274 44.679854 
L 200.414945 44.35905 
L 202.855957 43.801864 
L 205.296968 42.349803 
L 206.110639 42.14719 
L 206.924309 41.741964 
L 207.73798 41.674427 
L 208.55165 41.370507 
L 209.365321 41.2692 
L 211.806332 40.54317 
L 212.620003 40.576939 
L 214.247344 40.306788 
L 215.061015 40.104175 
L 215.874685 39.783371 
L 216.688356 40.002869 
L 219.129367 39.648296 
L 219.943038 39.631411 
L 220.756708 39.411914 
L 221.570379 39.563874 
L 222.384049 39.496336 
L 223.19772 39.175532 
L 224.011391 39.192416 
L 224.825061 39.023572 
L 225.638732 39.124879 
L 228.079743 38.415733 
L 228.893414 38.483271 
L 229.707084 38.246889 
L 231.334425 38.280658 
L 232.148096 38.094929 
L 233.775437 38.06116 
L 235.402778 37.605281 
L 236.216449 37.689703 
L 237.030119 37.520859 
L 237.84379 37.63905 
L 238.65746 37.503974 
L 239.471131 37.672818 
L 241.912142 37.571512 
L 242.725813 37.605281 
L 243.539484 37.774125 
L 245.166825 37.841663 
L 245.980495 38.06116 
L 246.794166 38.483271 
L 250.862518 38.854728 
L 251.676189 39.040457 
L 252.489859 39.074226 
L 253.30353 39.411914 
L 254.117201 39.378145 
L 254.930871 39.175532 
L 255.744542 39.209301 
L 256.558212 38.770306 
L 259.812894 38.871612 
L 260.626565 38.736537 
L 261.440235 38.398849 
L 262.253906 38.719653 
L 263.881247 38.972919 
L 265.508588 39.344376 
L 266.322259 39.361261 
L 267.135929 39.057341 
L 267.9496 38.989803 
L 268.76327 39.24307 
L 269.576941 39.614527 
L 270.390611 39.81714 
L 271.204282 39.800256 
L 272.017952 39.901562 
L 272.831623 39.698949 
L 274.458964 40.104175 
L 275.272635 39.9691 
L 276.086305 39.952215 
L 276.899976 40.289904 
L 277.713646 40.289904 
L 279.340987 39.952215 
L 281.781999 40.070406 
L 283.40934 40.340557 
L 285.036681 40.205482 
L 285.850352 40.273019 
L 288.291363 39.682065 
L 289.918704 39.766487 
L 291.546045 39.631411 
L 292.359716 39.580758 
L 293.173386 39.327492 
L 295.614398 39.310607 
L 298.86908 39.428798 
L 300.496421 39.81714 
L 301.310092 40.019753 
L 302.123762 40.104175 
L 302.937433 40.053522 
L 305.378445 40.526286 
L 307.005786 41.319854 
L 307.819456 41.42116 
L 308.633127 41.252316 
L 309.446797 41.353622 
L 311.074138 41.2692 
L 311.887809 41.218547 
L 312.701479 41.404276 
L 313.51515 41.167894 
L 314.32882 41.201663 
L 315.142491 41.083472 
L 315.956162 41.100356 
L 318.397173 40.84709 
L 319.210844 40.458748 
L 320.024514 40.374326 
L 320.838185 40.560055 
L 323.279196 40.644477 
L 324.092867 40.796437 
L 325.720208 40.728899 
L 326.533879 41.049703 
L 327.347549 41.606889 
L 328.97489 41.944577 
L 329.788561 41.995231 
L 330.602231 42.164075 
L 331.415902 42.130306 
L 332.229572 42.332919 
L 335.484255 42.316035 
L 336.297925 42.619954 
L 339.552607 43.058949 
L 340.366278 43.244678 
L 341.179948 43.683673 
L 341.993619 43.90317 
L 342.807289 43.616135 
L 343.62096 43.497944 
L 345.248301 43.616135 
L 346.061972 44.105783 
L 346.875642 44.460356 
L 347.689313 44.392818 
L 349.316654 44.578547 
L 350.130324 44.392818 
L 350.943995 44.342165 
L 351.757665 44.747391 
L 352.571336 44.764276 
L 354.198677 45.557844 
L 355.012347 45.709803 
L 355.826018 45.743572 
L 356.639689 45.65915 
L 357.453359 46.064376 
L 358.26703 45.844879 
L 359.894371 46.182567 
L 360.708041 46.520256 
L 361.521712 46.604678 
L 363.149053 46.959251 
L 364.776394 47.398246 
L 365.590065 47.347592 
L 367.217406 47.668396 
L 368.031076 47.651512 
L 369.658417 48.039854 
L 370.472088 47.955432 
L 371.285758 48.124276 
L 372.099429 48.59704 
L 372.913099 48.850306 
L 373.72677 48.833421 
L 374.54044 48.985381 
L 375.354111 49.32307 
L 376.167782 49.221763 
L 376.981452 49.238648 
L 377.795123 49.458145 
L 381.049805 49.762065 
L 382.677146 49.812718 
L 383.490816 49.846487 
L 384.304487 50.133522 
L 385.118157 50.015331 
L 385.931828 50.133522 
L 386.745499 50.420557 
L 388.37284 50.285482 
L 389.18651 49.947793 
L 390.000181 49.914024 
L 390.813851 49.677643 
L 391.627522 49.711411 
L 393.254863 49.947793 
L 394.882204 49.59322 
L 396.509545 49.964678 
L 398.136886 49.610105 
L 398.950557 49.610105 
L 400.577898 49.89714 
L 400.577898 49.89714 
" style="fill:none;stroke:#ffc400;stroke-linecap:round;stroke-width:1.5;"/>
   </g>
   <g id="line2d_26">
    <path clip-path="url(#p53c5e8b92a)" d="M 75.923352 276.283472 
L 76.737023 275.912014 
L 77.550693 275.135331 
L 78.364364 274.189803 
L 79.991705 271.251914 
L 80.805376 269.597241 
L 84.873728 259.82116 
L 88.942081 248.744979 
L 89.755751 246.161663 
L 90.569422 244.034226 
L 93.010434 236.60508 
L 93.824104 234.730909 
L 95.451445 229.969502 
L 96.265116 227.149803 
L 97.078786 224.752215 
L 97.892457 222.759854 
L 99.519798 218.234829 
L 101.96081 211.700557 
L 102.77448 209.404276 
L 104.401821 204.237643 
L 106.029162 199.324276 
L 106.842833 197.58518 
L 113.352197 180.869602 
L 121.488903 161.047291 
L 122.302573 158.734125 
L 123.929914 155.289703 
L 125.557255 151.119251 
L 126.370926 149.684075 
L 127.998267 145.716236 
L 128.811937 144.162869 
L 130.439278 140.228798 
L 133.693961 133.187994 
L 134.507631 131.296939 
L 135.321302 130.131914 
L 136.134972 128.105783 
L 136.948643 126.434226 
L 137.762313 125.235432 
L 139.389654 121.554628 
L 141.016995 118.397241 
L 141.830666 116.573723 
L 142.644337 115.121663 
L 143.458007 113.365683 
L 144.271678 111.998045 
L 146.712689 106.409301 
L 147.52636 105.210507 
L 149.967371 100.668597 
L 151.594712 97.81513 
L 153.222054 94.657743 
L 155.663065 90.267793 
L 157.290406 88.174125 
L 158.104077 86.418145 
L 159.731418 84.256939 
L 160.545088 83.058145 
L 163.799771 79.022768 
L 164.613441 77.621361 
L 166.240782 75.612115 
L 167.054453 75.02116 
L 169.495464 71.914427 
L 170.309135 70.597442 
L 172.750147 67.592014 
L 173.563817 66.410105 
L 174.377488 65.836035 
L 175.191158 64.890507 
L 177.63217 61.395432 
L 178.44584 60.382366 
L 179.259511 59.892718 
L 180.073181 58.67704 
L 181.700522 56.904175 
L 182.514193 56.076839 
L 184.141534 54.894929 
L 184.955205 54.016939 
L 186.582546 52.666185 
L 188.209887 52.007693 
L 189.023557 51.399854 
L 189.837228 50.369904 
L 190.650898 49.660758 
L 191.464569 49.255532 
L 192.278239 48.647693 
L 197.973933 45.692919 
L 198.787604 44.983773 
L 199.601274 44.764276 
L 200.414945 44.139552 
L 202.042286 43.633019 
L 202.855957 43.633019 
L 203.669627 43.092718 
L 204.483298 42.856336 
L 205.296968 42.316035 
L 206.110639 42.045884 
L 206.924309 42.012115 
L 207.73798 41.539351 
L 209.365321 40.914628 
L 210.992662 40.560055 
L 211.806332 40.340557 
L 216.688356 39.901562 
L 217.502026 39.985984 
L 219.943038 39.074226 
L 220.756708 39.259954 
L 222.384049 39.411914 
L 223.19772 39.24307 
L 224.825061 39.614527 
L 225.638732 39.276839 
L 226.452402 39.175532 
L 227.266073 39.445683 
L 228.079743 39.563874 
L 228.893414 39.293723 
L 232.961766 39.192416 
L 233.775437 39.411914 
L 235.402778 39.445683 
L 237.030119 38.854728 
L 237.84379 38.905381 
L 238.65746 38.635231 
L 240.284801 38.415733 
L 241.098472 38.348195 
L 241.912142 38.685884 
L 242.725813 38.770306 
L 243.539484 39.09111 
L 244.353154 39.24307 
L 245.166825 39.141763 
L 247.607836 39.546989 
L 248.421507 39.276839 
L 249.235177 39.715834 
L 250.048848 39.580758 
L 250.862518 39.834024 
L 251.676189 39.800256 
L 252.489859 40.019753 
L 253.30353 39.783371 
L 254.117201 39.715834 
L 254.930871 39.51322 
L 255.744542 39.648296 
L 256.558212 39.648296 
L 257.371883 39.81714 
L 258.999224 39.834024 
L 259.812894 40.104175 
L 260.626565 40.053522 
L 261.440235 40.188597 
L 262.253906 40.188597 
L 263.067576 39.800256 
L 263.881247 39.985984 
L 264.694918 39.81714 
L 266.322259 39.783371 
L 267.135929 39.698949 
L 267.9496 39.783371 
L 271.204282 39.24307 
L 272.017952 39.445683 
L 274.458964 39.51322 
L 275.272635 39.783371 
L 276.086305 39.935331 
L 276.899976 40.273019 
L 277.713646 40.475633 
L 278.527317 40.424979 
L 279.340987 40.593823 
L 280.154658 40.880859 
L 280.968328 41.471813 
L 281.781999 41.454929 
L 283.40934 41.015934 
L 285.036681 41.286085 
L 285.850352 41.151009 
L 287.477693 41.522467 
L 288.291363 41.336738 
L 290.732375 41.336738 
L 292.359716 41.741964 
L 293.173386 41.961462 
L 295.614398 42.045884 
L 296.428069 42.552416 
L 298.05541 42.265381 
L 298.86908 42.400457 
L 299.682751 42.687492 
L 301.310092 42.248497 
L 302.123762 42.265381 
L 302.937433 42.14719 
L 307.005786 43.312215 
L 308.633127 43.396638 
L 309.446797 43.210909 
L 311.074138 43.227793 
L 311.887809 43.548597 
L 315.142491 43.582366 
L 315.956162 43.852517 
L 317.583503 43.953823 
L 318.397173 43.683673 
L 319.210844 43.548597 
L 320.024514 43.565482 
L 320.838185 43.801864 
L 322.465526 43.633019 
L 323.279196 43.801864 
L 324.092867 43.801864 
L 324.906538 44.072014 
L 325.720208 43.936939 
L 326.533879 44.05513 
L 328.16122 43.936939 
L 328.97489 44.156437 
L 333.043243 44.173321 
L 334.670584 44.747391 
L 335.484255 44.983773 
L 337.111596 45.169502 
L 337.925266 45.000658 
L 340.366278 45.439653 
L 342.807289 45.439653 
L 343.62096 45.50719 
L 345.248301 45.96307 
L 346.061972 46.030607 
L 346.875642 45.777341 
L 347.689313 45.895532 
L 348.502983 46.131914 
L 349.316654 46.013723 
L 353.385006 46.604678 
L 354.198677 46.402065 
L 355.012347 46.756638 
L 355.826018 46.418949 
L 356.639689 46.908597 
L 357.453359 46.908597 
L 358.26703 47.313823 
L 359.894371 46.857944 
L 360.708041 46.891713 
L 361.521712 46.469602 
L 363.149053 46.722869 
L 363.962723 46.570909 
L 368.031076 46.570909 
L 368.844747 46.554024 
L 369.658417 46.84106 
L 372.099429 47.043673 
L 372.913099 47.347592 
L 373.72677 47.482668 
L 374.54044 47.364477 
L 375.354111 47.381361 
L 376.167782 47.550205 
L 376.981452 47.56709 
L 377.795123 47.871009 
L 378.608793 47.921663 
L 379.422464 48.259351 
L 380.236134 48.090507 
L 381.049805 48.276236 
L 381.863475 48.613924 
L 382.677146 48.461964 
L 383.490816 48.495733 
L 384.304487 48.765884 
L 385.931828 49.103572 
L 388.37284 49.829602 
L 389.18651 49.610105 
L 390.000181 49.981562 
L 393.254863 50.707592 
L 394.068533 50.538748 
L 396.509545 50.994628 
L 400.577898 50.859552 
L 400.577898 50.859552 
" style="fill:none;stroke:#ff6800;stroke-linecap:round;stroke-width:1.5;"/>
   </g>
   <g id="line2d_27">
    <path clip-path="url(#p53c5e8b92a)" d="M 75.923352 276.334125 
L 76.737023 275.861361 
L 78.364364 273.868999 
L 79.178034 272.68709 
L 79.991705 270.897341 
L 80.805376 269.394628 
L 81.619046 267.655532 
L 83.246387 263.350004 
L 88.12841 249.622969 
L 88.942081 247.005884 
L 90.569422 242.565281 
L 92.196763 237.719452 
L 93.010434 235.659552 
L 95.451445 228.264175 
L 97.078786 223.435231 
L 97.892457 221.527291 
L 99.519798 216.748999 
L 101.147139 211.886286 
L 104.401821 203.258346 
L 105.215492 200.590607 
L 107.656503 193.769301 
L 108.470174 191.135331 
L 109.283844 189.075432 
L 111.724856 181.81513 
L 112.538527 180.177341 
L 114.979538 173.676839 
L 116.606879 170.418145 
L 120.675232 160.557643 
L 123.929914 153.381763 
L 127.184596 145.918849 
L 130.439278 137.966286 
L 136.134972 125.691311 
L 136.948643 124.053522 
L 137.762313 122.044276 
L 138.575984 120.338949 
L 139.389654 118.262165 
L 140.203325 116.742567 
L 141.016995 115.560658 
L 144.271678 108.992617 
L 145.899019 106.088497 
L 147.52636 102.323271 
L 149.153701 99.385381 
L 150.781042 96.531914 
L 154.035724 90.419753 
L 154.849395 89.153421 
L 155.663065 87.633823 
L 158.104077 84.37513 
L 158.917747 82.973723 
L 162.17243 78.431813 
L 162.9861 77.435633 
L 165.427112 73.72106 
L 166.240782 72.167693 
L 167.054453 71.019552 
L 167.868123 70.124678 
L 168.681794 68.908999 
L 169.495464 67.490708 
L 170.309135 66.69714 
L 171.936476 64.7892 
L 173.563817 63.083874 
L 174.377488 61.699351 
L 177.63217 57.883472 
L 180.073181 55.992416 
L 182.514193 53.10518 
L 184.141534 51.399854 
L 184.955205 50.234829 
L 185.768875 49.306185 
L 186.582546 49.154226 
L 187.396216 48.884075 
L 189.023557 47.56709 
L 189.837228 46.621562 
L 190.650898 45.979954 
L 191.464569 45.608497 
L 193.09191 44.443472 
L 194.719251 43.396638 
L 195.532922 42.518648 
L 196.346592 42.096537 
L 197.973933 41.032818 
L 198.787604 40.745783 
L 201.228615 40.273019 
L 202.042286 39.546989 
L 202.855957 39.040457 
L 203.669627 39.175532 
L 204.483298 39.057341 
L 206.110639 38.668999 
L 206.924309 38.601462 
L 208.55165 38.162467 
L 211.806332 37.503974 
L 212.620003 37.368899 
L 214.247344 37.470205 
L 215.061015 37.081864 
L 215.874685 37.216939 
L 217.502026 36.946788 
L 218.315697 36.693522 
L 219.129367 36.558447 
L 219.943038 36.946788 
L 220.756708 36.845482 
L 221.570379 36.963673 
L 222.384049 36.913019 
L 224.011391 36.676638 
L 226.452402 36.474024 
L 227.266073 36.794829 
L 228.079743 36.828597 
L 228.893414 36.541562 
L 230.520755 36.929904 
L 234.589108 37.098748 
L 237.030119 37.436437 
L 238.65746 37.63905 
L 240.284801 37.368899 
L 244.353154 37.824778 
L 245.166825 37.436437 
L 247.607836 37.622165 
L 248.421507 37.926085 
L 249.235177 37.858547 
L 250.048848 37.993622 
L 250.862518 37.9092 
L 251.676189 37.976738 
L 252.489859 38.21312 
L 254.117201 38.871612 
L 255.744542 38.668999 
L 256.558212 38.500155 
L 257.371883 38.567693 
L 258.185553 38.381964 
L 259.812894 38.601462 
L 260.626565 38.483271 
L 261.440235 38.668999 
L 262.253906 38.584577 
L 263.881247 38.854728 
L 264.694918 38.736537 
L 266.322259 39.074226 
L 267.135929 38.956035 
L 267.9496 39.175532 
L 268.76327 39.023572 
L 269.576941 38.685884 
L 270.390611 38.702768 
L 271.204282 38.93915 
L 272.831623 38.753421 
L 273.645293 39.141763 
L 274.458964 38.888497 
L 275.272635 39.293723 
L 276.086305 39.344376 
L 276.899976 39.563874 
L 277.713646 39.985984 
L 280.154658 39.783371 
L 282.595669 39.884678 
L 283.40934 39.766487 
L 284.223011 39.800256 
L 285.036681 40.053522 
L 285.850352 39.935331 
L 286.664022 40.239251 
L 287.477693 40.712014 
L 289.105034 40.813321 
L 289.918704 41.049703 
L 290.732375 40.863974 
L 291.546045 41.015934 
L 292.359716 40.796437 
L 293.987057 40.965281 
L 295.614398 41.134125 
L 296.428069 41.184778 
L 298.05541 41.57312 
L 298.86908 41.910808 
L 300.496421 41.944577 
L 301.310092 42.349803 
L 302.937433 42.704376 
L 303.751103 42.518648 
L 305.378445 42.670607 
L 306.192115 42.636839 
L 307.005786 42.890105 
L 308.633127 42.822567 
L 309.446797 43.194024 
L 310.260468 43.3291 
L 311.074138 43.295331 
L 311.887809 43.447291 
L 312.701479 43.768095 
L 313.51515 43.835633 
L 314.32882 43.768095 
L 315.142491 43.886286 
L 315.956162 44.156437 
L 316.769832 43.886286 
L 319.210844 43.869401 
L 321.651855 44.6292 
L 322.465526 44.595432 
L 323.279196 44.882467 
L 324.906538 45.068195 
L 325.720208 45.034427 
L 326.533879 44.865582 
L 327.347549 44.916236 
L 328.16122 44.814929 
L 328.97489 44.848698 
L 329.788561 45.152617 
L 331.415902 45.101964 
L 332.229572 45.524075 
L 334.670584 45.709803 
L 335.484255 45.81111 
L 336.297925 45.777341 
L 337.925266 45.929301 
L 338.738937 45.844879 
L 340.366278 46.182567 
L 341.179948 46.655331 
L 341.993619 46.942366 
L 342.807289 47.060557 
L 343.62096 46.993019 
L 346.061972 47.178748 
L 347.689313 47.280055 
L 348.502983 47.41513 
L 349.316654 47.229401 
L 350.943995 47.465783 
L 352.571336 48.343773 
L 353.385006 48.782768 
L 354.198677 48.816537 
L 355.012347 48.985381 
L 355.826018 48.782768 
L 356.639689 48.748999 
L 357.453359 48.917844 
L 358.26703 48.900959 
L 359.0807 49.187994 
L 359.894371 49.103572 
L 361.521712 49.204879 
L 362.335382 49.373723 
L 363.149053 49.187994 
L 363.962723 49.187994 
L 364.776394 49.036035 
L 366.403735 49.32307 
L 367.217406 49.154226 
L 368.844747 49.086688 
L 372.099429 50.0491 
L 372.913099 50.133522 
L 374.54044 49.964678 
L 375.354111 49.964678 
L 376.167782 50.150406 
L 376.981452 50.116638 
L 377.795123 50.217944 
L 378.608793 50.572517 
L 379.422464 50.707592 
L 380.236134 50.454326 
L 381.049805 50.656939 
L 381.863475 50.369904 
L 383.490816 50.302366 
L 384.304487 50.336135 
L 385.118157 50.150406 
L 385.931828 50.403673 
L 386.745499 50.386788 
L 387.559169 50.606286 
L 388.37284 50.690708 
L 389.18651 50.960859 
L 390.000181 50.77513 
L 390.813851 50.724477 
L 392.441192 50.994628 
L 393.254863 50.876437 
L 394.882204 50.977743 
L 395.695874 51.399854 
L 396.509545 51.399854 
L 397.323216 51.231009 
L 398.950557 51.568698 
L 399.764227 51.619351 
L 400.577898 51.80508 
L 400.577898 51.80508 
" style="fill:none;stroke:#f10800;stroke-linecap:round;stroke-width:1.5;"/>
   </g>
   <g id="patch_3">
    <path d="M 59.690625 288.430125 
L 59.690625 22.318125 
" style="fill:none;stroke:#cccccc;stroke-linecap:square;stroke-linejoin:miter;stroke-width:0.8;"/>
   </g>
   <g id="patch_4">
    <path d="M 416.810625 288.430125 
L 416.810625 22.318125 
" style="fill:none;stroke:#cccccc;stroke-linecap:square;stroke-linejoin:miter;stroke-width:0.8;"/>
   </g>
   <g id="patch_5">
    <path d="M 59.690625 288.430125 
L 416.810625 288.430125 
" style="fill:none;stroke:#cccccc;stroke-linecap:square;stroke-linejoin:miter;stroke-width:0.8;"/>
   </g>
   <g id="patch_6">
    <path d="M 59.690625 22.318125 
L 416.810625 22.318125 
" style="fill:none;stroke:#cccccc;stroke-linecap:square;stroke-linejoin:miter;stroke-width:0.8;"/>
   </g>
   <g id="text_20">
    <!-- Antibodies -->
    <defs>
     <path d="M 34.1875 63.1875 
L 20.796875 26.90625 
L 47.609375 26.90625 
z
M 28.609375 72.90625 
L 39.796875 72.90625 
L 67.578125 0 
L 57.328125 0 
L 50.6875 18.703125 
L 17.828125 18.703125 
L 11.1875 0 
L 0.78125 0 
z
" id="DejaVuSans-65"/>
     <path d="M 30.609375 48.390625 
Q 23.390625 48.390625 19.1875 42.75 
Q 14.984375 37.109375 14.984375 27.296875 
Q 14.984375 17.484375 19.15625 11.84375 
Q 23.34375 6.203125 30.609375 6.203125 
Q 37.796875 6.203125 41.984375 11.859375 
Q 46.1875 17.53125 46.1875 27.296875 
Q 46.1875 37.015625 41.984375 42.703125 
Q 37.796875 48.390625 30.609375 48.390625 
z
M 30.609375 56 
Q 42.328125 56 49.015625 48.375 
Q 55.71875 40.765625 55.71875 27.296875 
Q 55.71875 13.875 49.015625 6.21875 
Q 42.328125 -1.421875 30.609375 -1.421875 
Q 18.84375 -1.421875 12.171875 6.21875 
Q 5.515625 13.875 5.515625 27.296875 
Q 5.515625 40.765625 12.171875 48.375 
Q 18.84375 56 30.609375 56 
z
" id="DejaVuSans-111"/>
    </defs>
    <g style="fill:#262626;" transform="translate(206.550938 16.318125)scale(0.12 -0.12)">
     <use xlink:href="#DejaVuSans-65"/>
     <use x="68.408203" xlink:href="#DejaVuSans-110"/>
     <use x="131.787109" xlink:href="#DejaVuSans-116"/>
     <use x="170.996094" xlink:href="#DejaVuSans-105"/>
     <use x="198.779297" xlink:href="#DejaVuSans-98"/>
     <use x="262.255859" xlink:href="#DejaVuSans-111"/>
     <use x="323.4375" xlink:href="#DejaVuSans-100"/>
     <use x="386.914062" xlink:href="#DejaVuSans-105"/>
     <use x="414.697266" xlink:href="#DejaVuSans-101"/>
     <use x="476.220703" xlink:href="#DejaVuSans-115"/>
    </g>
   </g>
  </g>
 </g>
 <defs>
  <clipPath id="p53c5e8b92a">
   <rect height="266.112" width="357.12" x="59.690625" y="22.318125"/>
  </clipPath>
 </defs>
</svg>
