<?xml version="1.0" encoding="utf-8" standalone="no"?>
<!DOCTYPE svg PUBLIC "-//W3C//DTD SVG 1.1//EN"
  "http://www.w3.org/Graphics/SVG/1.1/DTD/svg11.dtd">
<!-- Created with matplotlib (https://matplotlib.org/) -->
<svg height="325.986375pt" version="1.1" viewBox="0 0 424.010625 325.986375" width="424.010625pt" xmlns="http://www.w3.org/2000/svg" xmlns:xlink="http://www.w3.org/1999/xlink">
 <defs>
  <style type="text/css">
*{stroke-linecap:butt;stroke-linejoin:round;white-space:pre;}
  </style>
 </defs>
 <g id="figure_1">
  <g id="patch_1">
   <path d="M 0 325.986375 
L 424.010625 325.986375 
L 424.010625 0 
L 0 0 
z
" style="fill:#ffffff;"/>
  </g>
  <g id="axes_1">
   <g id="patch_2">
    <path d="M 59.690625 288.430125 
L 416.810625 288.430125 
L 416.810625 22.318125 
L 59.690625 22.318125 
z
" style="fill:#ffffff;"/>
   </g>
   <g id="matplotlib.axis_1">
    <g id="xtick_1">
     <g id="line2d_1">
      <path clip-path="url(#p187b3f9305)" d="M 75.923352 288.430125 
L 75.923352 22.318125 
" style="fill:none;stroke:#cccccc;stroke-linecap:round;stroke-width:0.8;"/>
     </g>
     <g id="text_1">
      <!-- 0 -->
      <defs>
       <path d="M 31.78125 66.40625 
Q 24.171875 66.40625 20.328125 58.90625 
Q 16.5 51.421875 16.5 36.375 
Q 16.5 21.390625 20.328125 13.890625 
Q 24.171875 6.390625 31.78125 6.390625 
Q 39.453125 6.390625 43.28125 13.890625 
Q 47.125 21.390625 47.125 36.375 
Q 47.125 51.421875 43.28125 58.90625 
Q 39.453125 66.40625 31.78125 66.40625 
z
M 31.78125 74.21875 
Q 44.046875 74.21875 50.515625 64.515625 
Q 56.984375 54.828125 56.984375 36.375 
Q 56.984375 17.96875 50.515625 8.265625 
Q 44.046875 -1.421875 31.78125 -1.421875 
Q 19.53125 -1.421875 13.0625 8.265625 
Q 6.59375 17.96875 6.59375 36.375 
Q 6.59375 54.828125 13.0625 64.515625 
Q 19.53125 74.21875 31.78125 74.21875 
z
" id="DejaVuSans-48"/>
      </defs>
      <g style="fill:#262626;" transform="translate(72.742102 303.028562)scale(0.1 -0.1)">
       <use xlink:href="#DejaVuSans-48"/>
      </g>
     </g>
    </g>
    <g id="xtick_2">
     <g id="line2d_2">
      <path clip-path="url(#p187b3f9305)" d="M 116.606879 288.430125 
L 116.606879 22.318125 
" style="fill:none;stroke:#cccccc;stroke-linecap:round;stroke-width:0.8;"/>
     </g>
     <g id="text_2">
      <!-- 5 -->
      <defs>
       <path d="M 10.796875 72.90625 
L 49.515625 72.90625 
L 49.515625 64.59375 
L 19.828125 64.59375 
L 19.828125 46.734375 
Q 21.96875 47.46875 24.109375 47.828125 
Q 26.265625 48.1875 28.421875 48.1875 
Q 40.625 48.1875 47.75 41.5 
Q 54.890625 34.8125 54.890625 23.390625 
Q 54.890625 11.625 47.5625 5.09375 
Q 40.234375 -1.421875 26.90625 -1.421875 
Q 22.3125 -1.421875 17.546875 -0.640625 
Q 12.796875 0.140625 7.71875 1.703125 
L 7.71875 11.625 
Q 12.109375 9.234375 16.796875 8.0625 
Q 21.484375 6.890625 26.703125 6.890625 
Q 35.15625 6.890625 40.078125 11.328125 
Q 45.015625 15.765625 45.015625 23.390625 
Q 45.015625 31 40.078125 35.4375 
Q 35.15625 39.890625 26.703125 39.890625 
Q 22.75 39.890625 18.8125 39.015625 
Q 14.890625 38.140625 10.796875 36.28125 
z
" id="DejaVuSans-53"/>
      </defs>
      <g style="fill:#262626;" transform="translate(113.425629 303.028562)scale(0.1 -0.1)">
       <use xlink:href="#DejaVuSans-53"/>
      </g>
     </g>
    </g>
    <g id="xtick_3">
     <g id="line2d_3">
      <path clip-path="url(#p187b3f9305)" d="M 157.290406 288.430125 
L 157.290406 22.318125 
" style="fill:none;stroke:#cccccc;stroke-linecap:round;stroke-width:0.8;"/>
     </g>
     <g id="text_3">
      <!-- 10 -->
      <defs>
       <path d="M 12.40625 8.296875 
L 28.515625 8.296875 
L 28.515625 63.921875 
L 10.984375 60.40625 
L 10.984375 69.390625 
L 28.421875 72.90625 
L 38.28125 72.90625 
L 38.28125 8.296875 
L 54.390625 8.296875 
L 54.390625 0 
L 12.40625 0 
z
" id="DejaVuSans-49"/>
      </defs>
      <g style="fill:#262626;" transform="translate(150.927906 303.028562)scale(0.1 -0.1)">
       <use xlink:href="#DejaVuSans-49"/>
       <use x="63.623047" xlink:href="#DejaVuSans-48"/>
      </g>
     </g>
    </g>
    <g id="xtick_4">
     <g id="line2d_4">
      <path clip-path="url(#p187b3f9305)" d="M 197.973933 288.430125 
L 197.973933 22.318125 
" style="fill:none;stroke:#cccccc;stroke-linecap:round;stroke-width:0.8;"/>
     </g>
     <g id="text_4">
      <!-- 15 -->
      <g style="fill:#262626;" transform="translate(191.611433 303.028562)scale(0.1 -0.1)">
       <use xlink:href="#DejaVuSans-49"/>
       <use x="63.623047" xlink:href="#DejaVuSans-53"/>
      </g>
     </g>
    </g>
    <g id="xtick_5">
     <g id="line2d_5">
      <path clip-path="url(#p187b3f9305)" d="M 238.65746 288.430125 
L 238.65746 22.318125 
" style="fill:none;stroke:#cccccc;stroke-linecap:round;stroke-width:0.8;"/>
     </g>
     <g id="text_5">
      <!-- 20 -->
      <defs>
       <path d="M 19.1875 8.296875 
L 53.609375 8.296875 
L 53.609375 0 
L 7.328125 0 
L 7.328125 8.296875 
Q 12.9375 14.109375 22.625 23.890625 
Q 32.328125 33.6875 34.8125 36.53125 
Q 39.546875 41.84375 41.421875 45.53125 
Q 43.3125 49.21875 43.3125 52.78125 
Q 43.3125 58.59375 39.234375 62.25 
Q 35.15625 65.921875 28.609375 65.921875 
Q 23.96875 65.921875 18.8125 64.3125 
Q 13.671875 62.703125 7.8125 59.421875 
L 7.8125 69.390625 
Q 13.765625 71.78125 18.9375 73 
Q 24.125 74.21875 28.421875 74.21875 
Q 39.75 74.21875 46.484375 68.546875 
Q 53.21875 62.890625 53.21875 53.421875 
Q 53.21875 48.921875 51.53125 44.890625 
Q 49.859375 40.875 45.40625 35.40625 
Q 44.1875 33.984375 37.640625 27.21875 
Q 31.109375 20.453125 19.1875 8.296875 
z
" id="DejaVuSans-50"/>
      </defs>
      <g style="fill:#262626;" transform="translate(232.29496 303.028562)scale(0.1 -0.1)">
       <use xlink:href="#DejaVuSans-50"/>
       <use x="63.623047" xlink:href="#DejaVuSans-48"/>
      </g>
     </g>
    </g>
    <g id="xtick_6">
     <g id="line2d_6">
      <path clip-path="url(#p187b3f9305)" d="M 279.340987 288.430125 
L 279.340987 22.318125 
" style="fill:none;stroke:#cccccc;stroke-linecap:round;stroke-width:0.8;"/>
     </g>
     <g id="text_6">
      <!-- 25 -->
      <g style="fill:#262626;" transform="translate(272.978487 303.028562)scale(0.1 -0.1)">
       <use xlink:href="#DejaVuSans-50"/>
       <use x="63.623047" xlink:href="#DejaVuSans-53"/>
      </g>
     </g>
    </g>
    <g id="xtick_7">
     <g id="line2d_7">
      <path clip-path="url(#p187b3f9305)" d="M 320.024514 288.430125 
L 320.024514 22.318125 
" style="fill:none;stroke:#cccccc;stroke-linecap:round;stroke-width:0.8;"/>
     </g>
     <g id="text_7">
      <!-- 30 -->
      <defs>
       <path d="M 40.578125 39.3125 
Q 47.65625 37.796875 51.625 33 
Q 55.609375 28.21875 55.609375 21.1875 
Q 55.609375 10.40625 48.1875 4.484375 
Q 40.765625 -1.421875 27.09375 -1.421875 
Q 22.515625 -1.421875 17.65625 -0.515625 
Q 12.796875 0.390625 7.625 2.203125 
L 7.625 11.71875 
Q 11.71875 9.328125 16.59375 8.109375 
Q 21.484375 6.890625 26.8125 6.890625 
Q 36.078125 6.890625 40.9375 10.546875 
Q 45.796875 14.203125 45.796875 21.1875 
Q 45.796875 27.640625 41.28125 31.265625 
Q 36.765625 34.90625 28.71875 34.90625 
L 20.21875 34.90625 
L 20.21875 43.015625 
L 29.109375 43.015625 
Q 36.375 43.015625 40.234375 45.921875 
Q 44.09375 48.828125 44.09375 54.296875 
Q 44.09375 59.90625 40.109375 62.90625 
Q 36.140625 65.921875 28.71875 65.921875 
Q 24.65625 65.921875 20.015625 65.03125 
Q 15.375 64.15625 9.8125 62.3125 
L 9.8125 71.09375 
Q 15.4375 72.65625 20.34375 73.4375 
Q 25.25 74.21875 29.59375 74.21875 
Q 40.828125 74.21875 47.359375 69.109375 
Q 53.90625 64.015625 53.90625 55.328125 
Q 53.90625 49.265625 50.4375 45.09375 
Q 46.96875 40.921875 40.578125 39.3125 
z
" id="DejaVuSans-51"/>
      </defs>
      <g style="fill:#262626;" transform="translate(313.662014 303.028562)scale(0.1 -0.1)">
       <use xlink:href="#DejaVuSans-51"/>
       <use x="63.623047" xlink:href="#DejaVuSans-48"/>
      </g>
     </g>
    </g>
    <g id="xtick_8">
     <g id="line2d_8">
      <path clip-path="url(#p187b3f9305)" d="M 360.708041 288.430125 
L 360.708041 22.318125 
" style="fill:none;stroke:#cccccc;stroke-linecap:round;stroke-width:0.8;"/>
     </g>
     <g id="text_8">
      <!-- 35 -->
      <g style="fill:#262626;" transform="translate(354.345541 303.028562)scale(0.1 -0.1)">
       <use xlink:href="#DejaVuSans-51"/>
       <use x="63.623047" xlink:href="#DejaVuSans-53"/>
      </g>
     </g>
    </g>
    <g id="xtick_9">
     <g id="line2d_9">
      <path clip-path="url(#p187b3f9305)" d="M 401.391568 288.430125 
L 401.391568 22.318125 
" style="fill:none;stroke:#cccccc;stroke-linecap:round;stroke-width:0.8;"/>
     </g>
     <g id="text_9">
      <!-- 40 -->
      <defs>
       <path d="M 37.796875 64.3125 
L 12.890625 25.390625 
L 37.796875 25.390625 
z
M 35.203125 72.90625 
L 47.609375 72.90625 
L 47.609375 25.390625 
L 58.015625 25.390625 
L 58.015625 17.1875 
L 47.609375 17.1875 
L 47.609375 0 
L 37.796875 0 
L 37.796875 17.1875 
L 4.890625 17.1875 
L 4.890625 26.703125 
z
" id="DejaVuSans-52"/>
      </defs>
      <g style="fill:#262626;" transform="translate(395.029068 303.028562)scale(0.1 -0.1)">
       <use xlink:href="#DejaVuSans-52"/>
       <use x="63.623047" xlink:href="#DejaVuSans-48"/>
      </g>
     </g>
    </g>
    <g id="text_10">
     <!-- time (days) -->
     <defs>
      <path d="M 18.3125 70.21875 
L 18.3125 54.6875 
L 36.8125 54.6875 
L 36.8125 47.703125 
L 18.3125 47.703125 
L 18.3125 18.015625 
Q 18.3125 11.328125 20.140625 9.421875 
Q 21.96875 7.515625 27.59375 7.515625 
L 36.8125 7.515625 
L 36.8125 0 
L 27.59375 0 
Q 17.1875 0 13.234375 3.875 
Q 9.28125 7.765625 9.28125 18.015625 
L 9.28125 47.703125 
L 2.6875 47.703125 
L 2.6875 54.6875 
L 9.28125 54.6875 
L 9.28125 70.21875 
z
" id="DejaVuSans-116"/>
      <path d="M 9.421875 54.6875 
L 18.40625 54.6875 
L 18.40625 0 
L 9.421875 0 
z
M 9.421875 75.984375 
L 18.40625 75.984375 
L 18.40625 64.59375 
L 9.421875 64.59375 
z
" id="DejaVuSans-105"/>
      <path d="M 52 44.1875 
Q 55.375 50.25 60.0625 53.125 
Q 64.75 56 71.09375 56 
Q 79.640625 56 84.28125 50.015625 
Q 88.921875 44.046875 88.921875 33.015625 
L 88.921875 0 
L 79.890625 0 
L 79.890625 32.71875 
Q 79.890625 40.578125 77.09375 44.375 
Q 74.3125 48.1875 68.609375 48.1875 
Q 61.625 48.1875 57.5625 43.546875 
Q 53.515625 38.921875 53.515625 30.90625 
L 53.515625 0 
L 44.484375 0 
L 44.484375 32.71875 
Q 44.484375 40.625 41.703125 44.40625 
Q 38.921875 48.1875 33.109375 48.1875 
Q 26.21875 48.1875 22.15625 43.53125 
Q 18.109375 38.875 18.109375 30.90625 
L 18.109375 0 
L 9.078125 0 
L 9.078125 54.6875 
L 18.109375 54.6875 
L 18.109375 46.1875 
Q 21.1875 51.21875 25.484375 53.609375 
Q 29.78125 56 35.6875 56 
Q 41.65625 56 45.828125 52.96875 
Q 50 49.953125 52 44.1875 
z
" id="DejaVuSans-109"/>
      <path d="M 56.203125 29.59375 
L 56.203125 25.203125 
L 14.890625 25.203125 
Q 15.484375 15.921875 20.484375 11.0625 
Q 25.484375 6.203125 34.421875 6.203125 
Q 39.59375 6.203125 44.453125 7.46875 
Q 49.3125 8.734375 54.109375 11.28125 
L 54.109375 2.78125 
Q 49.265625 0.734375 44.1875 -0.34375 
Q 39.109375 -1.421875 33.890625 -1.421875 
Q 20.796875 -1.421875 13.15625 6.1875 
Q 5.515625 13.8125 5.515625 26.8125 
Q 5.515625 40.234375 12.765625 48.109375 
Q 20.015625 56 32.328125 56 
Q 43.359375 56 49.78125 48.890625 
Q 56.203125 41.796875 56.203125 29.59375 
z
M 47.21875 32.234375 
Q 47.125 39.59375 43.09375 43.984375 
Q 39.0625 48.390625 32.421875 48.390625 
Q 24.90625 48.390625 20.390625 44.140625 
Q 15.875 39.890625 15.1875 32.171875 
z
" id="DejaVuSans-101"/>
      <path id="DejaVuSans-32"/>
      <path d="M 31 75.875 
Q 24.46875 64.65625 21.28125 53.65625 
Q 18.109375 42.671875 18.109375 31.390625 
Q 18.109375 20.125 21.3125 9.0625 
Q 24.515625 -2 31 -13.1875 
L 23.1875 -13.1875 
Q 15.875 -1.703125 12.234375 9.375 
Q 8.59375 20.453125 8.59375 31.390625 
Q 8.59375 42.28125 12.203125 53.3125 
Q 15.828125 64.359375 23.1875 75.875 
z
" id="DejaVuSans-40"/>
      <path d="M 45.40625 46.390625 
L 45.40625 75.984375 
L 54.390625 75.984375 
L 54.390625 0 
L 45.40625 0 
L 45.40625 8.203125 
Q 42.578125 3.328125 38.25 0.953125 
Q 33.9375 -1.421875 27.875 -1.421875 
Q 17.96875 -1.421875 11.734375 6.484375 
Q 5.515625 14.40625 5.515625 27.296875 
Q 5.515625 40.1875 11.734375 48.09375 
Q 17.96875 56 27.875 56 
Q 33.9375 56 38.25 53.625 
Q 42.578125 51.265625 45.40625 46.390625 
z
M 14.796875 27.296875 
Q 14.796875 17.390625 18.875 11.75 
Q 22.953125 6.109375 30.078125 6.109375 
Q 37.203125 6.109375 41.296875 11.75 
Q 45.40625 17.390625 45.40625 27.296875 
Q 45.40625 37.203125 41.296875 42.84375 
Q 37.203125 48.484375 30.078125 48.484375 
Q 22.953125 48.484375 18.875 42.84375 
Q 14.796875 37.203125 14.796875 27.296875 
z
" id="DejaVuSans-100"/>
      <path d="M 34.28125 27.484375 
Q 23.390625 27.484375 19.1875 25 
Q 14.984375 22.515625 14.984375 16.5 
Q 14.984375 11.71875 18.140625 8.90625 
Q 21.296875 6.109375 26.703125 6.109375 
Q 34.1875 6.109375 38.703125 11.40625 
Q 43.21875 16.703125 43.21875 25.484375 
L 43.21875 27.484375 
z
M 52.203125 31.203125 
L 52.203125 0 
L 43.21875 0 
L 43.21875 8.296875 
Q 40.140625 3.328125 35.546875 0.953125 
Q 30.953125 -1.421875 24.3125 -1.421875 
Q 15.921875 -1.421875 10.953125 3.296875 
Q 6 8.015625 6 15.921875 
Q 6 25.140625 12.171875 29.828125 
Q 18.359375 34.515625 30.609375 34.515625 
L 43.21875 34.515625 
L 43.21875 35.40625 
Q 43.21875 41.609375 39.140625 45 
Q 35.0625 48.390625 27.6875 48.390625 
Q 23 48.390625 18.546875 47.265625 
Q 14.109375 46.140625 10.015625 43.890625 
L 10.015625 52.203125 
Q 14.9375 54.109375 19.578125 55.046875 
Q 24.21875 56 28.609375 56 
Q 40.484375 56 46.34375 49.84375 
Q 52.203125 43.703125 52.203125 31.203125 
z
" id="DejaVuSans-97"/>
      <path d="M 32.171875 -5.078125 
Q 28.375 -14.84375 24.75 -17.8125 
Q 21.140625 -20.796875 15.09375 -20.796875 
L 7.90625 -20.796875 
L 7.90625 -13.28125 
L 13.1875 -13.28125 
Q 16.890625 -13.28125 18.9375 -11.515625 
Q 21 -9.765625 23.484375 -3.21875 
L 25.09375 0.875 
L 2.984375 54.6875 
L 12.5 54.6875 
L 29.59375 11.921875 
L 46.6875 54.6875 
L 56.203125 54.6875 
z
" id="DejaVuSans-121"/>
      <path d="M 44.28125 53.078125 
L 44.28125 44.578125 
Q 40.484375 46.53125 36.375 47.5 
Q 32.28125 48.484375 27.875 48.484375 
Q 21.1875 48.484375 17.84375 46.4375 
Q 14.5 44.390625 14.5 40.28125 
Q 14.5 37.15625 16.890625 35.375 
Q 19.28125 33.59375 26.515625 31.984375 
L 29.59375 31.296875 
Q 39.15625 29.25 43.1875 25.515625 
Q 47.21875 21.78125 47.21875 15.09375 
Q 47.21875 7.46875 41.1875 3.015625 
Q 35.15625 -1.421875 24.609375 -1.421875 
Q 20.21875 -1.421875 15.453125 -0.5625 
Q 10.6875 0.296875 5.421875 2 
L 5.421875 11.28125 
Q 10.40625 8.6875 15.234375 7.390625 
Q 20.0625 6.109375 24.8125 6.109375 
Q 31.15625 6.109375 34.5625 8.28125 
Q 37.984375 10.453125 37.984375 14.40625 
Q 37.984375 18.0625 35.515625 20.015625 
Q 33.0625 21.96875 24.703125 23.78125 
L 21.578125 24.515625 
Q 13.234375 26.265625 9.515625 29.90625 
Q 5.8125 33.546875 5.8125 39.890625 
Q 5.8125 47.609375 11.28125 51.796875 
Q 16.75 56 26.8125 56 
Q 31.78125 56 36.171875 55.265625 
Q 40.578125 54.546875 44.28125 53.078125 
z
" id="DejaVuSans-115"/>
      <path d="M 8.015625 75.875 
L 15.828125 75.875 
Q 23.140625 64.359375 26.78125 53.3125 
Q 30.421875 42.28125 30.421875 31.390625 
Q 30.421875 20.453125 26.78125 9.375 
Q 23.140625 -1.703125 15.828125 -13.1875 
L 8.015625 -13.1875 
Q 14.5 -2 17.703125 9.0625 
Q 20.90625 20.125 20.90625 31.390625 
Q 20.90625 42.671875 17.703125 53.65625 
Q 14.5 64.65625 8.015625 75.875 
z
" id="DejaVuSans-41"/>
     </defs>
     <g style="fill:#262626;" transform="translate(209.661563 316.706687)scale(0.1 -0.1)">
      <use xlink:href="#DejaVuSans-116"/>
      <use x="39.208984" xlink:href="#DejaVuSans-105"/>
      <use x="66.992188" xlink:href="#DejaVuSans-109"/>
      <use x="164.404297" xlink:href="#DejaVuSans-101"/>
      <use x="225.927734" xlink:href="#DejaVuSans-32"/>
      <use x="257.714844" xlink:href="#DejaVuSans-40"/>
      <use x="296.728516" xlink:href="#DejaVuSans-100"/>
      <use x="360.205078" xlink:href="#DejaVuSans-97"/>
      <use x="421.484375" xlink:href="#DejaVuSans-121"/>
      <use x="480.664062" xlink:href="#DejaVuSans-115"/>
      <use x="532.763672" xlink:href="#DejaVuSans-41"/>
     </g>
    </g>
   </g>
   <g id="matplotlib.axis_2">
    <g id="ytick_1">
     <g id="line2d_10">
      <path clip-path="url(#p187b3f9305)" d="M 59.690625 277.58418 
L 416.810625 277.58418 
" style="fill:none;stroke:#cccccc;stroke-linecap:round;stroke-width:0.8;"/>
     </g>
     <g id="text_11">
      <!-- 0 -->
      <g style="fill:#262626;" transform="translate(46.328125 281.383399)scale(0.1 -0.1)">
       <use xlink:href="#DejaVuSans-48"/>
      </g>
     </g>
    </g>
    <g id="ytick_2">
     <g id="line2d_11">
      <path clip-path="url(#p187b3f9305)" d="M 59.690625 243.242008 
L 416.810625 243.242008 
" style="fill:none;stroke:#cccccc;stroke-linecap:round;stroke-width:0.8;"/>
     </g>
     <g id="text_12">
      <!-- 2500 -->
      <g style="fill:#262626;" transform="translate(27.240625 247.041226)scale(0.1 -0.1)">
       <use xlink:href="#DejaVuSans-50"/>
       <use x="63.623047" xlink:href="#DejaVuSans-53"/>
       <use x="127.246094" xlink:href="#DejaVuSans-48"/>
       <use x="190.869141" xlink:href="#DejaVuSans-48"/>
      </g>
     </g>
    </g>
    <g id="ytick_3">
     <g id="line2d_12">
      <path clip-path="url(#p187b3f9305)" d="M 59.690625 208.899835 
L 416.810625 208.899835 
" style="fill:none;stroke:#cccccc;stroke-linecap:round;stroke-width:0.8;"/>
     </g>
     <g id="text_13">
      <!-- 5000 -->
      <g style="fill:#262626;" transform="translate(27.240625 212.699054)scale(0.1 -0.1)">
       <use xlink:href="#DejaVuSans-53"/>
       <use x="63.623047" xlink:href="#DejaVuSans-48"/>
       <use x="127.246094" xlink:href="#DejaVuSans-48"/>
       <use x="190.869141" xlink:href="#DejaVuSans-48"/>
      </g>
     </g>
    </g>
    <g id="ytick_4">
     <g id="line2d_13">
      <path clip-path="url(#p187b3f9305)" d="M 59.690625 174.557663 
L 416.810625 174.557663 
" style="fill:none;stroke:#cccccc;stroke-linecap:round;stroke-width:0.8;"/>
     </g>
     <g id="text_14">
      <!-- 7500 -->
      <defs>
       <path d="M 8.203125 72.90625 
L 55.078125 72.90625 
L 55.078125 68.703125 
L 28.609375 0 
L 18.3125 0 
L 43.21875 64.59375 
L 8.203125 64.59375 
z
" id="DejaVuSans-55"/>
      </defs>
      <g style="fill:#262626;" transform="translate(27.240625 178.356881)scale(0.1 -0.1)">
       <use xlink:href="#DejaVuSans-55"/>
       <use x="63.623047" xlink:href="#DejaVuSans-53"/>
       <use x="127.246094" xlink:href="#DejaVuSans-48"/>
       <use x="190.869141" xlink:href="#DejaVuSans-48"/>
      </g>
     </g>
    </g>
    <g id="ytick_5">
     <g id="line2d_14">
      <path clip-path="url(#p187b3f9305)" d="M 59.690625 140.21549 
L 416.810625 140.21549 
" style="fill:none;stroke:#cccccc;stroke-linecap:round;stroke-width:0.8;"/>
     </g>
     <g id="text_15">
      <!-- 10000 -->
      <g style="fill:#262626;" transform="translate(20.878125 144.014709)scale(0.1 -0.1)">
       <use xlink:href="#DejaVuSans-49"/>
       <use x="63.623047" xlink:href="#DejaVuSans-48"/>
       <use x="127.246094" xlink:href="#DejaVuSans-48"/>
       <use x="190.869141" xlink:href="#DejaVuSans-48"/>
       <use x="254.492188" xlink:href="#DejaVuSans-48"/>
      </g>
     </g>
    </g>
    <g id="ytick_6">
     <g id="line2d_15">
      <path clip-path="url(#p187b3f9305)" d="M 59.690625 105.873318 
L 416.810625 105.873318 
" style="fill:none;stroke:#cccccc;stroke-linecap:round;stroke-width:0.8;"/>
     </g>
     <g id="text_16">
      <!-- 12500 -->
      <g style="fill:#262626;" transform="translate(20.878125 109.672536)scale(0.1 -0.1)">
       <use xlink:href="#DejaVuSans-49"/>
       <use x="63.623047" xlink:href="#DejaVuSans-50"/>
       <use x="127.246094" xlink:href="#DejaVuSans-53"/>
       <use x="190.869141" xlink:href="#DejaVuSans-48"/>
       <use x="254.492188" xlink:href="#DejaVuSans-48"/>
      </g>
     </g>
    </g>
    <g id="ytick_7">
     <g id="line2d_16">
      <path clip-path="url(#p187b3f9305)" d="M 59.690625 71.531145 
L 416.810625 71.531145 
" style="fill:none;stroke:#cccccc;stroke-linecap:round;stroke-width:0.8;"/>
     </g>
     <g id="text_17">
      <!-- 15000 -->
      <g style="fill:#262626;" transform="translate(20.878125 75.330364)scale(0.1 -0.1)">
       <use xlink:href="#DejaVuSans-49"/>
       <use x="63.623047" xlink:href="#DejaVuSans-53"/>
       <use x="127.246094" xlink:href="#DejaVuSans-48"/>
       <use x="190.869141" xlink:href="#DejaVuSans-48"/>
       <use x="254.492188" xlink:href="#DejaVuSans-48"/>
      </g>
     </g>
    </g>
    <g id="ytick_8">
     <g id="line2d_17">
      <path clip-path="url(#p187b3f9305)" d="M 59.690625 37.188973 
L 416.810625 37.188973 
" style="fill:none;stroke:#cccccc;stroke-linecap:round;stroke-width:0.8;"/>
     </g>
     <g id="text_18">
      <!-- 17500 -->
      <g style="fill:#262626;" transform="translate(20.878125 40.988191)scale(0.1 -0.1)">
       <use xlink:href="#DejaVuSans-49"/>
       <use x="63.623047" xlink:href="#DejaVuSans-55"/>
       <use x="127.246094" xlink:href="#DejaVuSans-53"/>
       <use x="190.869141" xlink:href="#DejaVuSans-48"/>
       <use x="254.492188" xlink:href="#DejaVuSans-48"/>
      </g>
     </g>
    </g>
    <g id="text_19">
     <!-- cells number -->
     <defs>
      <path d="M 48.78125 52.59375 
L 48.78125 44.1875 
Q 44.96875 46.296875 41.140625 47.34375 
Q 37.3125 48.390625 33.40625 48.390625 
Q 24.65625 48.390625 19.8125 42.84375 
Q 14.984375 37.3125 14.984375 27.296875 
Q 14.984375 17.28125 19.8125 11.734375 
Q 24.65625 6.203125 33.40625 6.203125 
Q 37.3125 6.203125 41.140625 7.25 
Q 44.96875 8.296875 48.78125 10.40625 
L 48.78125 2.09375 
Q 45.015625 0.34375 40.984375 -0.53125 
Q 36.96875 -1.421875 32.421875 -1.421875 
Q 20.0625 -1.421875 12.78125 6.34375 
Q 5.515625 14.109375 5.515625 27.296875 
Q 5.515625 40.671875 12.859375 48.328125 
Q 20.21875 56 33.015625 56 
Q 37.15625 56 41.109375 55.140625 
Q 45.0625 54.296875 48.78125 52.59375 
z
" id="DejaVuSans-99"/>
      <path d="M 9.421875 75.984375 
L 18.40625 75.984375 
L 18.40625 0 
L 9.421875 0 
z
" id="DejaVuSans-108"/>
      <path d="M 54.890625 33.015625 
L 54.890625 0 
L 45.90625 0 
L 45.90625 32.71875 
Q 45.90625 40.484375 42.875 44.328125 
Q 39.84375 48.1875 33.796875 48.1875 
Q 26.515625 48.1875 22.3125 43.546875 
Q 18.109375 38.921875 18.109375 30.90625 
L 18.109375 0 
L 9.078125 0 
L 9.078125 54.6875 
L 18.109375 54.6875 
L 18.109375 46.1875 
Q 21.34375 51.125 25.703125 53.5625 
Q 30.078125 56 35.796875 56 
Q 45.21875 56 50.046875 50.171875 
Q 54.890625 44.34375 54.890625 33.015625 
z
" id="DejaVuSans-110"/>
      <path d="M 8.5 21.578125 
L 8.5 54.6875 
L 17.484375 54.6875 
L 17.484375 21.921875 
Q 17.484375 14.15625 20.5 10.265625 
Q 23.53125 6.390625 29.59375 6.390625 
Q 36.859375 6.390625 41.078125 11.03125 
Q 45.3125 15.671875 45.3125 23.6875 
L 45.3125 54.6875 
L 54.296875 54.6875 
L 54.296875 0 
L 45.3125 0 
L 45.3125 8.40625 
Q 42.046875 3.421875 37.71875 1 
Q 33.40625 -1.421875 27.6875 -1.421875 
Q 18.265625 -1.421875 13.375 4.4375 
Q 8.5 10.296875 8.5 21.578125 
z
M 31.109375 56 
z
" id="DejaVuSans-117"/>
      <path d="M 48.6875 27.296875 
Q 48.6875 37.203125 44.609375 42.84375 
Q 40.53125 48.484375 33.40625 48.484375 
Q 26.265625 48.484375 22.1875 42.84375 
Q 18.109375 37.203125 18.109375 27.296875 
Q 18.109375 17.390625 22.1875 11.75 
Q 26.265625 6.109375 33.40625 6.109375 
Q 40.53125 6.109375 44.609375 11.75 
Q 48.6875 17.390625 48.6875 27.296875 
z
M 18.109375 46.390625 
Q 20.953125 51.265625 25.265625 53.625 
Q 29.59375 56 35.59375 56 
Q 45.5625 56 51.78125 48.09375 
Q 58.015625 40.1875 58.015625 27.296875 
Q 58.015625 14.40625 51.78125 6.484375 
Q 45.5625 -1.421875 35.59375 -1.421875 
Q 29.59375 -1.421875 25.265625 0.953125 
Q 20.953125 3.328125 18.109375 8.203125 
L 18.109375 0 
L 9.078125 0 
L 9.078125 75.984375 
L 18.109375 75.984375 
z
" id="DejaVuSans-98"/>
      <path d="M 41.109375 46.296875 
Q 39.59375 47.171875 37.8125 47.578125 
Q 36.03125 48 33.890625 48 
Q 26.265625 48 22.1875 43.046875 
Q 18.109375 38.09375 18.109375 28.8125 
L 18.109375 0 
L 9.078125 0 
L 9.078125 54.6875 
L 18.109375 54.6875 
L 18.109375 46.1875 
Q 20.953125 51.171875 25.484375 53.578125 
Q 30.03125 56 36.53125 56 
Q 37.453125 56 38.578125 55.875 
Q 39.703125 55.765625 41.0625 55.515625 
z
" id="DejaVuSans-114"/>
     </defs>
     <g style="fill:#262626;" transform="translate(14.798438 187.685844)rotate(-90)scale(0.1 -0.1)">
      <use xlink:href="#DejaVuSans-99"/>
      <use x="54.980469" xlink:href="#DejaVuSans-101"/>
      <use x="116.503906" xlink:href="#DejaVuSans-108"/>
      <use x="144.287109" xlink:href="#DejaVuSans-108"/>
      <use x="172.070312" xlink:href="#DejaVuSans-115"/>
      <use x="224.169922" xlink:href="#DejaVuSans-32"/>
      <use x="255.957031" xlink:href="#DejaVuSans-110"/>
      <use x="319.335938" xlink:href="#DejaVuSans-117"/>
      <use x="382.714844" xlink:href="#DejaVuSans-109"/>
      <use x="480.126953" xlink:href="#DejaVuSans-98"/>
      <use x="543.603516" xlink:href="#DejaVuSans-101"/>
      <use x="605.126953" xlink:href="#DejaVuSans-114"/>
     </g>
    </g>
   </g>
   <g id="line2d_18">
    <path clip-path="url(#p187b3f9305)" d="M 75.923352 269.809112 
L 76.737023 268.998637 
L 78.364364 266.869422 
L 79.178034 265.646841 
L 79.991705 264.808892 
L 84.873728 256.621718 
L 86.501069 253.283659 
L 87.31474 251.099497 
L 88.942081 247.26691 
L 94.637775 228.818295 
L 96.265116 221.839966 
L 97.078786 219.175013 
L 99.519798 209.339415 
L 100.333468 206.619515 
L 102.77448 196.907548 
L 103.588151 193.143646 
L 104.401821 190.300114 
L 107.656503 173.390029 
L 108.470174 170.587707 
L 109.283844 166.878753 
L 110.911185 158.375631 
L 111.724856 155.147467 
L 113.352197 147.853189 
L 114.165868 144.130498 
L 114.979538 139.33633 
L 116.606879 133.113529 
L 118.23422 124.37688 
L 120.675232 115.763863 
L 121.488903 111.189486 
L 122.302573 108.826744 
L 123.116244 105.996949 
L 123.929914 103.785313 
L 127.998267 87.177439 
L 129.625608 82.328324 
L 130.439278 80.350215 
L 131.252949 79.10016 
L 132.06662 76.654997 
L 132.88029 73.385622 
L 133.693961 71.311355 
L 134.507631 68.275507 
L 137.762313 63.165392 
L 138.575984 62.052705 
L 139.389654 59.511385 
L 140.203325 58.494856 
L 141.016995 57.052485 
L 141.830666 56.475537 
L 142.644337 55.088113 
L 143.458007 53.412215 
L 144.271678 52.230844 
L 145.085348 52.450634 
L 145.899019 51.72258 
L 146.712689 51.859949 
L 147.52636 50.870894 
L 148.34003 48.604311 
L 149.153701 49.579628 
L 149.967371 51.24179 
L 150.781042 50.266472 
L 151.594712 50.829683 
L 152.408383 51.997317 
L 154.849395 54.799639 
L 155.663065 56.667853 
L 157.290406 58.700909 
L 158.104077 60.335597 
L 158.917747 60.898808 
L 162.17243 68.330455 
L 162.9861 69.62172 
L 163.799771 71.228934 
L 164.613441 73.866413 
L 167.054453 77.03963 
L 168.681794 80.748584 
L 169.495464 80.927163 
L 171.122805 84.581171 
L 171.936476 86.105963 
L 173.563817 87.932967 
L 174.377488 90.089655 
L 175.191158 92.878239 
L 176.004829 93.922242 
L 176.818499 97.466354 
L 178.44584 100.584623 
L 179.259511 102.823733 
L 180.073181 105.392527 
L 180.886852 106.093107 
L 182.514193 108.579481 
L 184.141534 112.260962 
L 184.955205 112.61812 
L 185.768875 114.390176 
L 186.582546 117.000181 
L 187.396216 117.783183 
L 188.209887 118.93708 
L 189.023557 120.887715 
L 189.837228 122.233929 
L 190.650898 124.665354 
L 193.09191 129.541943 
L 193.905581 131.643684 
L 195.532922 135.077901 
L 196.346592 137.358221 
L 197.160263 138.498381 
L 197.973933 140.352859 
L 198.787604 140.943544 
L 199.601274 142.537021 
L 200.414945 145.078342 
L 201.228615 146.960293 
L 202.042286 148.430138 
L 203.669627 152.372619 
L 204.483298 154.323255 
L 205.296968 156.864575 
L 206.924309 159.460844 
L 207.73798 160.546056 
L 208.55165 161.851059 
L 209.365321 163.842905 
L 210.178991 164.996802 
L 210.992662 165.875961 
L 212.620003 168.101334 
L 213.433674 168.650809 
L 214.247344 169.790969 
L 215.061015 171.288288 
L 215.874685 172.1125 
L 218.315697 176.645667 
L 219.129367 178.156722 
L 219.943038 178.925987 
L 220.756708 179.530409 
L 224.011391 184.187208 
L 225.638732 187.154371 
L 226.452402 188.047268 
L 227.266073 188.335742 
L 228.079743 189.489639 
L 230.520755 194.009069 
L 231.334425 194.915702 
L 232.148096 196.385547 
L 232.961766 197.168549 
L 234.589108 199.943396 
L 235.402778 200.108239 
L 236.216449 200.698924 
L 237.030119 202.086348 
L 237.84379 202.814402 
L 238.65746 204.023247 
L 240.284801 205.781566 
L 241.098472 206.193672 
L 241.912142 206.454672 
L 242.725813 208.158044 
L 243.539484 209.463047 
L 244.353154 210.479575 
L 245.980495 211.894473 
L 246.794166 211.798314 
L 247.607836 212.965948 
L 248.421507 213.378054 
L 249.235177 213.52916 
L 250.048848 213.515423 
L 250.862518 214.270951 
L 251.676189 215.823217 
L 252.489859 216.963377 
L 253.30353 217.334273 
L 254.117201 218.213432 
L 254.930871 219.518435 
L 255.744542 220.603647 
L 256.558212 221.02949 
L 257.371883 221.716334 
L 258.185553 222.801546 
L 258.999224 223.543337 
L 259.812894 223.584548 
L 261.440235 224.944498 
L 262.253906 224.587339 
L 263.067576 225.040656 
L 263.881247 225.672552 
L 264.694918 226.579185 
L 265.508588 228.48861 
L 266.322259 229.312822 
L 267.135929 229.958455 
L 267.9496 230.892562 
L 268.76327 230.94751 
L 270.390611 232.389881 
L 271.204282 233.200356 
L 272.017952 233.186619 
L 272.831623 234.395464 
L 273.645293 234.752623 
L 274.458964 235.46694 
L 275.272635 235.975204 
L 276.086305 236.208731 
L 276.899976 236.675784 
L 279.340987 239.629211 
L 280.154658 240.219896 
L 282.595669 243.18706 
L 283.40934 243.283218 
L 285.036681 244.849221 
L 285.850352 245.123959 
L 286.664022 245.893223 
L 287.477693 246.154224 
L 288.291363 246.662488 
L 289.105034 246.992173 
L 289.918704 247.4867 
L 290.732375 248.310912 
L 293.173386 249.753283 
L 293.987057 249.533494 
L 294.800728 250.000547 
L 295.614398 250.16539 
L 296.428069 250.714864 
L 297.241739 251.030812 
L 298.05541 251.594024 
L 298.86908 252.322078 
L 299.682751 252.830342 
L 300.496421 253.860607 
L 301.310092 254.519977 
L 302.123762 254.574925 
L 303.751103 255.234294 
L 304.564774 255.193084 
L 305.378445 255.770032 
L 306.192115 255.838716 
L 307.005786 256.388191 
L 307.819456 256.498086 
L 308.633127 257.171193 
L 311.074138 258.599827 
L 311.887809 259.011933 
L 313.51515 259.355355 
L 314.32882 259.231723 
L 315.142491 259.794935 
L 315.956162 259.987251 
L 316.769832 260.481778 
L 318.397173 261.113674 
L 319.210844 261.663149 
L 320.024514 261.773044 
L 321.651855 261.690623 
L 322.465526 262.171413 
L 324.906538 262.926941 
L 325.720208 263.490152 
L 327.347549 263.915995 
L 328.16122 263.751153 
L 330.602231 264.273154 
L 332.229572 264.808892 
L 333.043243 264.808892 
L 333.856913 264.561628 
L 335.484255 264.781418 
L 336.297925 264.973734 
L 337.111596 264.946261 
L 337.925266 265.303419 
L 338.738937 265.509472 
L 341.179948 266.718317 
L 342.807289 266.869422 
L 344.43463 267.322739 
L 345.248301 267.40516 
L 346.061972 267.721108 
L 347.689313 267.940898 
L 348.502983 267.885951 
L 349.316654 268.28432 
L 354.198677 269.218427 
L 355.826018 269.795375 
L 356.639689 269.658007 
L 357.453359 269.699217 
L 358.26703 270.001428 
L 361.521712 270.276166 
L 362.335382 270.193745 
L 364.776394 270.743219 
L 366.403735 270.770693 
L 368.844747 271.127852 
L 372.099429 271.402589 
L 374.54044 272.322959 
L 376.167782 272.460328 
L 376.981452 272.680118 
L 377.795123 273.06475 
L 378.608793 273.28454 
L 380.236134 273.298277 
L 381.049805 273.188382 
L 385.931828 273.573014 
L 386.745499 273.751594 
L 387.559169 273.779067 
L 388.37284 273.930173 
L 390.000181 273.998857 
L 391.627522 274.259858 
L 394.882204 274.342279 
L 396.509545 274.520858 
L 398.950557 274.575806 
L 400.577898 274.795596 
L 400.577898 274.795596 
" style="fill:none;stroke:#000080;stroke-linecap:round;stroke-width:1.5;"/>
   </g>
   <g id="line2d_19">
    <path clip-path="url(#p187b3f9305)" d="M 75.923352 270.138797 
L 79.991705 265.028682 
L 82.432717 261.099937 
L 83.246387 259.90483 
L 88.12841 248.654334 
L 90.569422 241.305109 
L 91.383093 239.093473 
L 95.451445 224.779656 
L 97.078786 218.721696 
L 97.892457 215.974323 
L 101.96081 199.462606 
L 106.842833 176.865457 
L 107.656503 173.73345 
L 108.470174 169.43381 
L 109.283844 166.219383 
L 116.606879 127.687466 
L 118.23422 121.478401 
L 119.861561 113.153858 
L 120.675232 109.142692 
L 122.302573 102.040731 
L 123.116244 97.91967 
L 124.743585 91.257289 
L 125.557255 87.47965 
L 126.370926 84.97954 
L 127.998267 78.509474 
L 129.625608 73.426833 
L 130.439278 70.830565 
L 131.252949 67.78098 
L 132.06662 65.253396 
L 133.693961 61.228493 
L 134.507631 60.143281 
L 135.321302 58.673436 
L 136.134972 56.310694 
L 136.948643 55.568903 
L 137.762313 54.387533 
L 138.575984 53.000109 
L 139.389654 53.247372 
L 140.203325 51.022 
L 141.016995 50.829683 
L 141.830666 49.730734 
L 142.644337 49.181259 
L 143.458007 47.340519 
L 144.271678 46.928413 
L 145.085348 48.013625 
L 145.899019 47.189413 
L 146.712689 46.557517 
L 147.52636 44.551934 
L 148.34003 45.197567 
L 149.153701 45.692094 
L 149.967371 44.648092 
L 150.781042 44.029933 
L 151.594712 44.785461 
L 152.408383 46.475096 
L 153.222054 47.175676 
L 154.035724 47.464151 
L 154.849395 48.618048 
L 155.663065 50.36263 
L 156.476736 50.087893 
L 157.290406 50.486262 
L 158.104077 51.310474 
L 158.917747 52.368213 
L 159.731418 54.250164 
L 160.545088 55.720009 
L 161.358759 56.104641 
L 162.17243 57.739329 
L 162.9861 59.717438 
L 163.799771 61.146072 
L 164.613441 63.879709 
L 166.240782 69.8003 
L 167.054453 71.970725 
L 167.868123 73.316938 
L 168.681794 73.811465 
L 169.495464 76.256628 
L 170.309135 79.787003 
L 171.122805 81.916218 
L 171.936476 85.103172 
L 172.750147 86.861491 
L 173.563817 90.364392 
L 174.377488 92.466133 
L 175.191158 93.83982 
L 176.004829 96.985563 
L 176.818499 99.101041 
L 177.63217 101.807204 
L 178.44584 103.180891 
L 179.259511 104.801842 
L 180.886852 110.351537 
L 181.700522 112.384593 
L 182.514193 115.887495 
L 184.141534 120.351977 
L 184.955205 121.341032 
L 185.768875 122.948246 
L 186.582546 124.912618 
L 187.396216 127.398991 
L 188.209887 129.239732 
L 189.023557 132.151948 
L 189.837228 133.594319 
L 190.650898 135.668586 
L 191.464569 135.792218 
L 192.278239 136.83622 
L 193.905581 140.146806 
L 194.719251 142.344705 
L 195.532922 143.100233 
L 196.346592 144.212919 
L 197.160263 145.833869 
L 198.787604 151.136301 
L 199.601274 152.331409 
L 201.228615 155.999153 
L 202.042286 157.125576 
L 202.855957 158.842684 
L 205.296968 164.87317 
L 207.73798 169.145336 
L 208.55165 169.708548 
L 209.365321 171.123445 
L 210.178991 171.425656 
L 211.806332 174.804926 
L 212.620003 176.164876 
L 213.433674 177.167668 
L 214.247344 178.994671 
L 215.061015 180.258463 
L 217.502026 185.698263 
L 218.315697 186.948318 
L 219.943038 188.885217 
L 220.756708 190.739694 
L 221.570379 191.069379 
L 222.384049 192.140855 
L 223.19772 192.717803 
L 224.825061 195.176703 
L 225.638732 196.028389 
L 226.452402 196.674022 
L 227.266073 197.91034 
L 228.079743 198.913131 
L 228.893414 199.613712 
L 229.707084 199.792291 
L 230.520755 199.75108 
L 231.334425 200.520345 
L 232.961766 201.811611 
L 234.589108 203.322666 
L 235.402778 203.652351 
L 236.216449 203.446298 
L 237.030119 204.00951 
L 238.65746 205.960145 
L 240.284801 207.512411 
L 241.098472 208.473992 
L 241.912142 209.147099 
L 242.725813 208.364097 
L 243.539484 209.298204 
L 244.353154 209.202046 
L 245.166825 210.218574 
L 245.980495 210.795523 
L 246.794166 212.086789 
L 247.607836 213.007159 
L 248.421507 213.556634 
L 249.235177 213.872582 
L 250.048848 214.930321 
L 250.862518 215.3699 
L 251.676189 216.455113 
L 252.489859 217.12822 
L 253.30353 218.639275 
L 254.930871 220.521226 
L 255.744542 221.221807 
L 256.558212 221.633913 
L 257.371883 222.60923 
L 258.185553 223.131231 
L 258.999224 224.010391 
L 259.812894 224.504918 
L 261.440235 226.167079 
L 264.694918 228.158925 
L 265.508588 229.189191 
L 266.322259 229.876034 
L 267.9496 232.046459 
L 268.76327 232.692092 
L 270.390611 233.076725 
L 272.017952 234.464148 
L 272.831623 234.738886 
L 274.458964 236.153783 
L 275.272635 236.579626 
L 276.899976 238.324208 
L 278.527317 239.011052 
L 279.340987 239.656685 
L 280.154658 239.972633 
L 280.968328 241.112793 
L 281.781999 241.923268 
L 282.595669 242.211742 
L 283.40934 242.376585 
L 284.223011 242.994744 
L 285.036681 243.18706 
L 285.850352 244.162378 
L 287.477693 244.354694 
L 289.105034 246.044329 
L 289.918704 246.360277 
L 290.732375 247.363068 
L 291.546045 247.679016 
L 292.359716 248.997756 
L 293.173386 249.313704 
L 295.614398 251.223128 
L 296.428069 251.937446 
L 297.241739 252.102288 
L 298.05541 252.610552 
L 299.682751 253.214974 
L 300.496421 253.778186 
L 301.310092 253.723239 
L 302.123762 254.602398 
L 303.751103 255.632663 
L 304.564774 255.893664 
L 305.378445 256.415665 
L 307.005786 256.731613 
L 307.819456 257.088772 
L 308.633127 257.212403 
L 310.260468 258.064089 
L 311.887809 259.50646 
L 312.701479 260.12462 
L 313.51515 260.344409 
L 314.32882 260.742779 
L 315.142491 260.852674 
L 316.769832 262.267571 
L 317.583503 262.720888 
L 318.397173 263.023099 
L 320.024514 264.300628 
L 321.651855 264.877576 
L 322.465526 264.959997 
L 323.279196 264.918787 
L 324.092867 265.193524 
L 324.906538 265.193524 
L 325.720208 265.34463 
L 326.533879 265.619367 
L 328.16122 265.481998 
L 331.415902 266.828212 
L 332.229572 267.075475 
L 333.043243 267.14416 
L 333.856913 267.336476 
L 334.670584 267.652424 
L 337.925266 268.146951 
L 339.552607 268.50411 
L 342.807289 269.383269 
L 343.62096 269.919007 
L 344.43463 270.015165 
L 345.248301 270.386061 
L 346.875642 270.605851 
L 347.689313 270.894325 
L 348.502983 270.894325 
L 349.316654 271.086641 
L 350.130324 271.141589 
L 352.571336 271.910853 
L 354.198677 271.938327 
L 358.26703 271.938327 
L 359.0807 272.254275 
L 368.844747 274.136226 
L 370.472088 274.053805 
L 371.285758 274.149963 
L 372.099429 274.040068 
L 373.72677 274.149963 
L 375.354111 273.98512 
L 380.236134 274.095015 
L 381.049805 274.026331 
L 386.745499 274.699438 
L 388.37284 274.658227 
L 390.813851 274.905491 
L 392.441192 274.974175 
L 394.068533 275.207702 
L 395.695874 275.125281 
L 396.509545 275.235175 
L 397.323216 275.152754 
L 398.950557 275.454965 
L 400.577898 275.551123 
L 400.577898 275.551123 
" style="fill:none;stroke:#0000f1;stroke-linecap:round;stroke-width:1.5;"/>
   </g>
   <g id="line2d_20">
    <path clip-path="url(#p187b3f9305)" d="M 75.923352 270.015165 
L 78.364364 267.322739 
L 79.178034 266.210053 
L 79.991705 265.413314 
L 81.619046 262.858257 
L 84.873728 256.346981 
L 85.687399 255.014504 
L 87.31474 251.868761 
L 89.755751 245.563538 
L 90.569422 243.269481 
L 91.383093 240.480897 
L 92.196763 238.392893 
L 93.824104 232.760777 
L 94.637775 230.659036 
L 101.96081 204.407879 
L 102.77448 200.698924 
L 103.588151 197.95155 
L 104.401821 193.761805 
L 106.842833 183.074521 
L 110.097515 166.604015 
L 111.724856 158.320683 
L 112.538527 154.776571 
L 113.352197 149.886246 
L 114.165868 146.31466 
L 114.979538 144.144235 
L 115.793209 140.284174 
L 116.606879 134.981743 
L 117.42055 130.69584 
L 119.861561 121.478401 
L 123.116244 108.27727 
L 123.929914 104.101261 
L 124.743585 100.763202 
L 126.370926 92.273817 
L 127.998267 86.55928 
L 128.811937 83.015168 
L 130.439278 77.918789 
L 131.252949 74.443361 
L 132.06662 72.204252 
L 132.88029 68.660139 
L 133.693961 66.269924 
L 134.507631 62.368653 
L 135.321302 60.706492 
L 136.948643 58.330014 
L 137.762313 57.38217 
L 138.575984 55.486482 
L 139.389654 53.274846 
L 140.203325 52.313265 
L 141.016995 49.92305 
L 142.644337 48.260889 
L 143.458007 48.494416 
L 144.271678 47.601519 
L 145.085348 47.120729 
L 145.899019 48.480679 
L 147.52636 46.227832 
L 148.34003 47.161939 
L 149.153701 47.216887 
L 149.967371 46.392675 
L 150.781042 45.966832 
L 151.594712 47.766362 
L 152.408383 46.461359 
L 153.222054 46.255306 
L 154.035724 45.472305 
L 155.663065 45.472305 
L 157.290406 49.48347 
L 158.104077 50.760999 
L 158.917747 50.760999 
L 159.731418 52.409423 
L 160.545088 54.552375 
L 161.358759 55.665061 
L 162.17243 55.623851 
L 162.9861 56.94259 
L 163.799771 57.670644 
L 165.427112 60.885072 
L 166.240782 62.176337 
L 167.868123 64.18192 
L 168.681794 66.627083 
L 170.309135 68.509034 
L 171.122805 68.660139 
L 171.936476 69.882721 
L 172.750147 72.135567 
L 173.563817 73.577939 
L 174.377488 73.729044 
L 175.191158 74.635677 
L 177.63217 80.501321 
L 178.44584 81.806323 
L 179.259511 85.02075 
L 180.073181 87.658229 
L 180.886852 89.691286 
L 181.700522 92.617239 
L 182.514193 93.963452 
L 183.327864 96.065193 
L 184.141534 96.916879 
L 184.955205 98.771356 
L 185.768875 101.189045 
L 188.209887 107.123373 
L 189.023557 107.920111 
L 189.837228 108.950376 
L 190.650898 110.983433 
L 191.464569 113.565964 
L 193.905581 117.632077 
L 195.532922 122.769666 
L 196.346592 123.621352 
L 197.160263 125.915409 
L 197.973933 127.495149 
L 198.787604 130.105154 
L 200.414945 133.882793 
L 201.228615 135.270217 
L 202.855957 139.748437 
L 203.669627 140.833649 
L 206.110639 145.737711 
L 206.924309 148.059242 
L 207.73798 149.405455 
L 210.992662 156.782154 
L 211.806332 157.757472 
L 212.620003 158.526736 
L 213.433674 160.285056 
L 214.247344 161.631269 
L 215.061015 164.090168 
L 215.874685 165.601224 
L 216.688356 166.425436 
L 217.502026 168.321124 
L 218.315697 169.145336 
L 219.129367 169.639863 
L 219.943038 172.002605 
L 220.756708 173.115291 
L 221.570379 174.887347 
L 222.384049 175.697823 
L 223.19772 176.714351 
L 224.011391 178.871039 
L 224.825061 179.777673 
L 226.452402 182.085467 
L 227.266073 183.101995 
L 228.893414 186.646107 
L 230.520755 188.583006 
L 232.148096 191.014432 
L 232.961766 191.440275 
L 233.775437 192.388119 
L 234.589108 193.061225 
L 236.216449 196.467969 
L 237.030119 197.03118 
L 237.84379 198.281235 
L 238.65746 199.256553 
L 239.471131 200.589029 
L 240.284801 202.47098 
L 241.098472 203.377614 
L 241.912142 205.355723 
L 242.725813 206.495883 
L 243.539484 208.020675 
L 244.353154 208.803677 
L 245.166825 209.971311 
L 245.980495 210.603207 
L 247.607836 213.213212 
L 248.421507 213.185738 
L 249.235177 213.900055 
L 250.048848 214.985268 
L 250.862518 215.095163 
L 251.676189 216.001796 
L 252.489859 216.702377 
L 253.30353 218.021116 
L 254.117201 218.543117 
L 254.930871 219.655803 
L 256.558212 221.537755 
L 258.999224 223.090021 
L 259.812894 223.804338 
L 260.626565 223.721917 
L 261.440235 224.862077 
L 262.253906 225.645078 
L 263.067576 225.933553 
L 263.881247 227.609451 
L 264.694918 228.804558 
L 266.322259 229.573823 
L 267.9496 231.345879 
L 268.76327 231.881617 
L 270.390611 233.310251 
L 271.204282 233.736094 
L 272.017952 233.955884 
L 272.831623 234.464148 
L 273.645293 235.192202 
L 274.458964 236.071362 
L 275.272635 236.249941 
L 276.086305 237.788471 
L 276.899976 237.953313 
L 277.713646 238.695104 
L 279.340987 239.038526 
L 280.154658 239.972633 
L 280.968328 240.46716 
L 281.781999 241.662268 
L 282.595669 242.101847 
L 283.40934 242.92606 
L 284.223011 243.173323 
L 285.036681 243.18706 
L 285.850352 243.805219 
L 287.477693 244.354694 
L 289.918704 246.538856 
L 290.732375 246.731172 
L 291.546045 247.321858 
L 292.359716 247.4867 
L 293.987057 248.764229 
L 294.800728 249.162598 
L 295.614398 249.148861 
L 296.428069 249.560967 
L 297.241739 249.574704 
L 298.05541 250.247811 
L 298.86908 250.632443 
L 299.682751 251.374234 
L 300.496421 251.827551 
L 303.751103 252.267131 
L 305.378445 253.132553 
L 306.192115 253.269922 
L 307.005786 253.640817 
L 308.633127 255.083189 
L 309.446797 255.3854 
L 310.260468 255.921138 
L 311.074138 256.031033 
L 313.51515 257.432193 
L 314.32882 257.528351 
L 315.142491 257.871773 
L 315.956162 258.393774 
L 316.769832 258.32509 
L 317.583503 258.558617 
L 318.397173 259.094354 
L 320.024514 259.478987 
L 323.279196 261.676886 
L 324.092867 261.924149 
L 326.533879 263.339047 
L 327.347549 263.393994 
L 328.16122 263.32531 
L 328.97489 263.98468 
L 329.788561 264.410523 
L 331.415902 265.591893 
L 332.229572 265.536946 
L 333.856913 266.182579 
L 334.670584 266.567211 
L 336.297925 266.622159 
L 337.111596 266.92437 
L 337.925266 266.951843 
L 338.738937 267.157897 
L 339.552607 267.487581 
L 340.366278 267.528792 
L 341.179948 267.913424 
L 342.807289 267.831003 
L 343.62096 268.078267 
L 346.061972 268.380478 
L 346.875642 268.792584 
L 349.316654 268.916216 
L 350.130324 268.668952 
L 350.943995 268.778847 
L 351.757665 269.039848 
L 352.571336 269.067321 
L 353.385006 269.314585 
L 354.198677 269.259637 
L 355.012347 269.589322 
L 355.826018 269.699217 
L 356.639689 270.111323 
L 358.26703 270.578377 
L 359.0807 270.523429 
L 359.894371 270.702009 
L 361.521712 270.908062 
L 362.335382 271.182799 
L 364.776394 271.677326 
L 365.590065 271.965801 
L 368.031076 272.089432 
L 368.844747 272.268012 
L 369.658417 272.171854 
L 371.285758 272.858697 
L 372.913099 273.229593 
L 374.54044 273.627962 
L 375.354111 273.792804 
L 377.795123 274.026331 
L 379.422464 274.1637 
L 381.049805 274.012594 
L 381.863475 274.053805 
L 382.677146 273.957647 
L 385.118157 274.273595 
L 388.37284 274.575806 
L 390.813851 274.878017 
L 391.627522 274.699438 
L 392.441192 274.64449 
L 394.068533 274.754385 
L 394.882204 274.685701 
L 395.695874 274.86428 
L 398.136886 274.630753 
L 399.764227 274.823069 
L 400.577898 274.726911 
L 400.577898 274.726911 
" style="fill:none;stroke:#004cff;stroke-linecap:round;stroke-width:1.5;"/>
   </g>
   <g id="line2d_21">
    <path clip-path="url(#p187b3f9305)" d="M 75.923352 270.042639 
L 76.737023 269.259637 
L 80.805376 264.122048 
L 84.873728 257.308561 
L 85.687399 255.701348 
L 87.31474 251.827551 
L 92.196763 237.609891 
L 94.637775 229.862297 
L 96.265116 223.818075 
L 97.078786 221.620176 
L 101.147139 205.300775 
L 103.588151 194.517333 
L 104.401821 191.193011 
L 105.215492 188.4319 
L 106.029162 185.162525 
L 108.470174 173.760924 
L 109.283844 170.395391 
L 110.097515 166.260594 
L 111.724856 159.831739 
L 116.606879 135.860903 
L 118.23422 129.885365 
L 119.047891 126.066515 
L 119.861561 121.711928 
L 120.675232 119.088186 
L 121.488903 115.131967 
L 122.302573 112.233488 
L 123.116244 110.063063 
L 124.743585 104.45842 
L 126.370926 98.57904 
L 127.184596 96.381141 
L 127.998267 92.136449 
L 129.625608 87.108754 
L 130.439278 83.605853 
L 132.06662 78.344632 
L 133.693961 73.44057 
L 134.507631 70.555827 
L 135.321302 69.607983 
L 136.134972 68.357928 
L 136.948643 67.56119 
L 137.762313 65.583081 
L 139.389654 62.492285 
L 140.203325 60.967493 
L 141.016995 60.376807 
L 141.830666 60.10207 
L 142.644337 60.198228 
L 143.458007 59.236647 
L 144.271678 58.467383 
L 145.085348 56.599168 
L 145.899019 56.255747 
L 146.712689 57.079959 
L 147.52636 58.797067 
L 148.34003 58.123961 
L 149.153701 58.563541 
L 149.967371 60.005912 
L 150.781042 60.308123 
L 152.408383 61.434546 
L 153.222054 62.203811 
L 154.035724 62.038969 
L 154.849395 62.945602 
L 155.663065 62.657128 
L 156.476736 64.14071 
L 157.290406 66.283661 
L 158.104077 67.149084 
L 158.917747 67.712295 
L 159.731418 68.00077 
L 160.545088 69.992616 
L 161.358759 69.374457 
L 162.17243 70.748144 
L 162.9861 72.959779 
L 167.054453 80.144162 
L 167.868123 81.984902 
L 168.681794 84.649855 
L 169.495464 86.518069 
L 170.309135 89.196759 
L 171.122805 92.273817 
L 171.936476 94.636559 
L 172.750147 95.227244 
L 175.191158 103.016049 
L 176.004829 104.856789 
L 176.818499 107.714058 
L 177.63217 109.060271 
L 178.44584 111.848856 
L 180.073181 116.244654 
L 181.700522 123.168036 
L 182.514193 124.15709 
L 184.141534 127.206675 
L 184.955205 127.495149 
L 185.768875 130.338681 
L 186.582546 131.286525 
L 189.023557 136.781273 
L 190.650898 141.053439 
L 191.464569 143.347496 
L 192.278239 146.039923 
L 193.905581 150.188457 
L 194.719251 151.850618 
L 195.532922 152.221514 
L 196.346592 154.075991 
L 197.973933 158.526736 
L 198.787604 159.447107 
L 200.414945 162.922535 
L 201.228615 163.444536 
L 202.042286 165.038012 
L 202.855957 165.697382 
L 204.483298 168.925546 
L 205.296968 171.068498 
L 206.110639 172.524606 
L 206.924309 173.225186 
L 207.73798 174.159293 
L 208.55165 174.736242 
L 209.365321 175.519243 
L 210.178991 176.728088 
L 210.992662 177.648458 
L 211.806332 180.258463 
L 212.620003 181.37115 
L 213.433674 182.827258 
L 214.247344 183.596522 
L 215.061015 184.722946 
L 215.874685 185.629579 
L 216.688356 185.849369 
L 217.502026 187.346688 
L 219.943038 189.448429 
L 222.384049 193.404647 
L 224.011391 195.094282 
L 224.825061 196.536653 
L 225.638732 197.374602 
L 226.452402 197.91034 
L 228.079743 198.597183 
L 228.893414 199.778554 
L 230.520755 201.234662 
L 232.961766 203.267719 
L 233.775437 203.377614 
L 234.589108 204.243036 
L 236.216449 204.517774 
L 237.030119 206.50962 
L 237.84379 207.457464 
L 238.65746 208.734993 
L 239.471131 209.614152 
L 240.284801 210.781786 
L 241.098472 210.438364 
L 241.912142 211.235103 
L 242.725813 211.564788 
L 244.353154 212.512632 
L 245.980495 214.064898 
L 246.794166 214.930321 
L 248.421507 217.567799 
L 249.235177 218.666749 
L 250.862518 219.655803 
L 251.676189 220.342647 
L 252.489859 221.455333 
L 253.30353 222.856494 
L 254.117201 223.763127 
L 254.930871 223.900496 
L 255.744542 224.491181 
L 256.558212 225.384078 
L 257.371883 226.757765 
L 258.185553 227.293503 
L 258.999224 228.00782 
L 259.812894 229.051822 
L 260.626565 229.312822 
L 261.440235 230.233193 
L 263.067576 231.771722 
L 263.881247 232.609671 
L 264.694918 233.145409 
L 265.508588 233.92841 
L 266.322259 233.983358 
L 267.135929 233.873463 
L 267.9496 234.752623 
L 268.76327 235.219676 
L 269.576941 234.944939 
L 270.390611 236.64831 
L 271.204282 237.445049 
L 273.645293 239.258316 
L 274.458964 239.299526 
L 276.899976 241.140267 
L 277.713646 242.115584 
L 278.527317 242.211742 
L 280.968328 245.137695 
L 282.595669 245.618486 
L 283.40934 246.401487 
L 284.223011 246.923488 
L 285.850352 248.475755 
L 286.664022 249.217546 
L 287.477693 249.451072 
L 288.291363 250.124179 
L 289.105034 250.618706 
L 289.918704 250.879707 
L 290.732375 251.387971 
L 291.546045 251.717656 
L 293.173386 252.679237 
L 293.987057 253.58587 
L 295.614398 254.698556 
L 296.428069 255.454084 
L 298.05541 255.838716 
L 302.123762 257.349772 
L 303.751103 257.116245 
L 304.564774 257.789352 
L 305.378445 258.160247 
L 306.192115 258.3663 
L 307.819456 259.066881 
L 308.633127 259.781198 
L 309.446797 260.248251 
L 310.260468 260.564199 
L 311.074138 261.031253 
L 311.887809 261.04499 
L 313.51515 261.869202 
L 314.32882 262.020307 
L 315.142491 262.295045 
L 315.956162 262.762098 
L 317.583503 263.10552 
L 318.397173 263.407731 
L 319.210844 263.476416 
L 320.838185 264.039627 
L 324.092867 265.262209 
L 324.906538 264.932524 
L 325.720208 265.179787 
L 326.533879 265.179787 
L 329.788561 265.811683 
L 330.602231 265.852894 
L 331.415902 266.141368 
L 332.229572 266.759527 
L 333.043243 267.034265 
L 333.856913 267.130423 
L 335.484255 266.951843 
L 336.297925 267.267791 
L 337.111596 267.460108 
L 337.925266 267.885951 
L 338.738937 267.872214 
L 339.552607 268.160688 
L 340.366278 268.201899 
L 341.179948 268.462899 
L 341.993619 268.888742 
L 343.62096 268.7239 
L 344.43463 269.039848 
L 345.248301 269.616796 
L 346.061972 269.809112 
L 346.875642 270.276166 
L 350.943995 271.155325 
L 351.757665 271.237747 
L 352.571336 271.746011 
L 354.198677 271.910853 
L 355.826018 271.897116 
L 356.639689 272.213064 
L 357.453359 272.36417 
L 359.0807 272.350433 
L 359.894371 272.322959 
L 365.590065 273.215856 
L 366.403735 273.586751 
L 367.217406 273.710383 
L 368.031076 273.710383 
L 368.844747 273.916436 
L 370.472088 273.94391 
L 371.285758 274.177437 
L 372.099429 274.026331 
L 372.913099 274.108752 
L 375.354111 274.053805 
L 376.981452 274.301068 
L 377.795123 274.259858 
L 381.863475 274.575806 
L 383.490816 274.548332 
L 385.118157 274.630753 
L 385.931828 274.754385 
L 387.559169 274.589543 
L 390.000181 274.850543 
L 392.441192 274.891754 
L 394.068533 274.754385 
L 394.882204 274.809333 
L 396.509545 275.166491 
L 397.323216 275.111544 
L 398.136886 275.358807 
L 399.764227 275.358807 
L 400.577898 275.482439 
L 400.577898 275.482439 
" style="fill:none;stroke:#00b0ff;stroke-linecap:round;stroke-width:1.5;"/>
   </g>
   <g id="line2d_22">
    <path clip-path="url(#p187b3f9305)" d="M 75.923352 269.919007 
L 76.737023 269.177216 
L 77.550693 268.188162 
L 78.364364 267.460108 
L 79.991705 265.289682 
L 81.619046 263.270363 
L 82.432717 262.034044 
L 86.501069 254.107871 
L 87.31474 252.541868 
L 88.12841 250.522548 
L 89.755751 245.673433 
L 91.383093 241.593583 
L 95.451445 229.065559 
L 96.265116 225.864868 
L 97.078786 223.666969 
L 97.892457 220.960806 
L 98.706127 217.251851 
L 100.333468 211.083997 
L 101.96081 205.602987 
L 102.77448 201.839084 
L 105.215492 193.033751 
L 108.470174 178.802355 
L 109.283844 176.054981 
L 113.352197 159.309738 
L 114.165868 156.356311 
L 114.979538 153.883675 
L 115.793209 150.009878 
L 117.42055 143.457391 
L 118.23422 139.583594 
L 119.047891 137.124695 
L 122.302573 125.338461 
L 123.116244 123.566405 
L 123.929914 121.038821 
L 124.743585 117.590867 
L 125.557255 115.11823 
L 126.370926 112.288435 
L 127.998267 107.672847 
L 128.811937 104.224893 
L 129.625608 102.260521 
L 131.252949 99.197199 
L 132.06662 97.535038 
L 134.507631 95.144823 
L 135.321302 92.933187 
L 136.948643 90.501761 
L 137.762313 90.19955 
L 138.575984 89.183022 
L 140.203325 85.377909 
L 141.016995 84.045433 
L 141.830666 81.723902 
L 142.644337 81.284322 
L 143.458007 80.6799 
L 144.271678 81.064532 
L 145.085348 82.149745 
L 145.899019 82.712956 
L 146.712689 83.056378 
L 147.52636 82.245903 
L 148.34003 81.60027 
L 149.153701 81.957429 
L 150.781042 82.342061 
L 151.594712 81.971165 
L 154.849395 84.05917 
L 155.663065 85.226803 
L 156.476736 87.781861 
L 157.290406 87.974177 
L 158.917747 90.391866 
L 159.731418 91.257289 
L 160.545088 90.85892 
L 161.358759 92.012817 
L 162.17243 92.768345 
L 162.9861 94.004663 
L 163.799771 94.49919 
L 164.613441 95.19977 
L 165.427112 97.480091 
L 166.240782 99.046094 
L 167.868123 103.634208 
L 168.681794 105.310106 
L 169.495464 107.39811 
L 171.122805 110.530116 
L 171.936476 111.107065 
L 172.750147 112.769226 
L 173.563817 113.772017 
L 174.377488 114.953388 
L 175.191158 117.082603 
L 176.004829 118.318921 
L 176.818499 120.29703 
L 179.259511 127.165465 
L 181.700522 132.907476 
L 182.514193 133.869057 
L 183.327864 135.572428 
L 184.955205 139.927016 
L 185.768875 140.971018 
L 186.582546 142.289757 
L 187.396216 143.320022 
L 188.209887 145.984975 
L 189.023557 147.619662 
L 191.464569 154.117201 
L 192.278239 155.83431 
L 193.09191 158.100893 
L 194.719251 161.109268 
L 195.532922 162.702745 
L 196.346592 164.65338 
L 197.160263 165.450118 
L 197.973933 166.782595 
L 198.787604 169.461284 
L 199.601274 170.889919 
L 200.414945 171.563025 
L 202.042286 174.337873 
L 203.669627 175.505507 
L 204.483298 176.755562 
L 205.296968 178.486407 
L 207.73798 184.31084 
L 210.178991 189.008849 
L 210.992662 189.736903 
L 211.806332 190.959484 
L 212.620003 192.635382 
L 213.433674 193.65191 
L 214.247344 195.094282 
L 215.061015 196.055863 
L 215.874685 197.333391 
L 216.688356 197.965287 
L 217.502026 199.599975 
L 218.315697 200.14945 
L 219.129367 200.437924 
L 220.756708 202.841876 
L 221.570379 203.556193 
L 222.384049 204.078194 
L 224.011391 206.001356 
L 224.825061 206.523357 
L 225.638732 208.13057 
L 226.452402 209.353152 
L 227.266073 209.627889 
L 229.707084 211.386208 
L 230.520755 212.526368 
L 231.334425 213.075843 
L 232.148096 214.051161 
L 232.961766 214.66932 
L 234.589108 214.66932 
L 235.402778 215.644638 
L 236.216449 217.306799 
L 237.030119 218.199695 
L 237.84379 218.845328 
L 238.65746 220.287699 
L 239.471131 221.235543 
L 240.284801 221.730071 
L 241.912142 223.076284 
L 245.166825 225.617605 
L 245.980495 225.645078 
L 246.794166 226.579185 
L 247.607836 226.977555 
L 248.421507 227.733082 
L 249.235177 227.705609 
L 250.048848 228.00782 
L 250.862518 228.186399 
L 251.676189 228.571031 
L 252.489859 228.433663 
L 253.30353 229.051822 
L 254.117201 229.862297 
L 254.930871 231.084879 
L 257.371883 231.922828 
L 258.999224 232.115144 
L 259.812894 233.117935 
L 260.626565 233.22783 
L 261.440235 233.021777 
L 262.253906 233.241567 
L 263.067576 233.681147 
L 265.508588 236.236204 
L 266.322259 236.620837 
L 267.135929 237.637365 
L 267.9496 237.706049 
L 268.76327 238.22805 
L 269.576941 238.173103 
L 270.390611 238.832473 
L 272.017952 239.381947 
L 273.645293 240.384739 
L 276.086305 241.744689 
L 277.713646 242.92606 
L 278.527317 243.063428 
L 281.781999 245.302538 
L 282.595669 245.42617 
L 283.40934 246.058066 
L 284.223011 246.497646 
L 285.036681 246.387751 
L 286.664022 247.376805 
L 287.477693 247.308121 
L 289.105034 248.516965 
L 289.918704 249.148861 
L 291.546045 249.76702 
L 292.359716 250.481338 
L 293.173386 250.90718 
L 293.987057 251.470392 
L 295.614398 253.36608 
L 296.428069 253.256185 
L 297.241739 253.530922 
L 298.86908 254.602398 
L 299.682751 255.412874 
L 300.496421 255.399137 
L 301.310092 255.673874 
L 302.123762 256.182138 
L 303.751103 257.610773 
L 304.564774 257.308561 
L 306.192115 257.294825 
L 307.005786 257.528351 
L 307.819456 258.228932 
L 309.446797 259.02567 
L 310.260468 259.011933 
L 311.074138 259.492724 
L 311.887809 259.822408 
L 312.701479 259.781198 
L 313.51515 259.987251 
L 314.32882 260.481778 
L 315.142491 260.660357 
L 315.956162 260.564199 
L 316.769832 261.237306 
L 319.210844 262.501098 
L 320.838185 263.10552 
L 322.465526 264.24568 
L 323.279196 264.602839 
L 327.347549 265.303419 
L 328.16122 265.220998 
L 328.97489 265.275945 
L 329.788561 265.454525 
L 330.602231 265.894105 
L 331.415902 266.196316 
L 332.229572 266.635895 
L 333.043243 266.663369 
L 333.856913 267.034265 
L 334.670584 267.061738 
L 336.297925 267.473844 
L 337.111596 267.473844 
L 337.925266 267.679898 
L 338.738937 267.693634 
L 339.552607 267.556266 
L 341.179948 268.119477 
L 342.807289 268.449162 
L 345.248301 269.506901 
L 346.061972 269.561849 
L 346.875642 269.960218 
L 349.316654 270.550903 
L 350.130324 270.454745 
L 350.943995 270.660798 
L 353.385006 270.537166 
L 355.012347 270.770693 
L 357.453359 270.647061 
L 359.0807 271.251483 
L 359.894371 271.567431 
L 361.521712 271.691063 
L 362.335382 271.691063 
L 363.149053 272.103169 
L 363.962723 271.965801 
L 364.776394 272.254275 
L 365.590065 272.254275 
L 366.403735 272.460328 
L 368.844747 272.597697 
L 374.54044 272.954855 
L 375.354111 273.092224 
L 376.981452 273.078487 
L 378.608793 273.229593 
L 379.422464 273.270803 
L 380.236134 273.476856 
L 381.049805 273.559277 
L 382.677146 273.930173 
L 384.304487 273.930173 
L 385.931828 274.273595 
L 388.37284 274.452174 
L 390.000181 274.520858 
L 390.813851 274.589543 
L 391.627522 274.795596 
L 393.254863 274.850543 
L 394.068533 274.987912 
L 396.509545 275.097807 
L 397.323216 275.34507 
L 400.577898 275.606071 
L 400.577898 275.606071 
" style="fill:none;stroke:#29ffce;stroke-linecap:round;stroke-width:1.5;"/>
   </g>
   <g id="line2d_23">
    <path clip-path="url(#p187b3f9305)" d="M 75.923352 270.042639 
L 76.737023 269.383269 
L 79.178034 266.388632 
L 79.991705 265.509472 
L 83.246387 260.413094 
L 84.873728 257.00635 
L 85.687399 255.577716 
L 88.12841 249.931863 
L 88.942081 247.830122 
L 93.010434 235.494413 
L 94.637775 229.876034 
L 95.451445 227.540766 
L 96.265116 224.546129 
L 97.078786 221.111912 
L 99.519798 212.663737 
L 104.401821 191.618854 
L 105.215492 188.376953 
L 107.656503 176.975352 
L 109.283844 167.689228 
L 110.097515 163.334641 
L 111.724856 155.435941 
L 113.352197 147.908137 
L 114.165868 143.168917 
L 116.606879 130.860682 
L 119.047891 117.714499 
L 119.861561 113.222542 
L 120.675232 109.980641 
L 121.488903 104.307314 
L 123.116244 98.09825 
L 124.743585 92.012817 
L 126.370926 85.061961 
L 127.184596 82.47943 
L 127.998267 80.9409 
L 128.811937 78.138579 
L 129.625608 76.078049 
L 130.439278 74.910415 
L 131.252949 72.726253 
L 132.06662 69.539299 
L 132.88029 67.808454 
L 134.507631 65.047343 
L 135.321302 62.863181 
L 136.134972 61.516968 
L 137.762313 57.560749 
L 138.575984 55.926062 
L 139.389654 55.033165 
L 140.203325 53.893005 
L 141.016995 53.247372 
L 141.830666 51.489053 
L 142.644337 50.692315 
L 143.458007 51.832475 
L 144.271678 51.956107 
L 145.085348 52.917688 
L 145.899019 52.42316 
L 146.712689 52.354476 
L 147.52636 53.316057 
L 148.34003 53.604531 
L 149.153701 54.401269 
L 149.967371 54.208953 
L 150.781042 55.156797 
L 151.594712 55.198008 
L 152.408383 56.214536 
L 153.222054 56.310694 
L 154.035724 59.4427 
L 154.849395 59.360279 
L 155.663065 60.033386 
L 156.476736 62.931865 
L 157.290406 63.96213 
L 158.104077 65.734186 
L 158.917747 69.003561 
L 159.731418 70.597038 
L 160.545088 70.624512 
L 161.358759 72.506463 
L 162.17243 75.116468 
L 163.799771 78.536948 
L 164.613441 81.009585 
L 165.427112 82.012376 
L 167.868123 86.504332 
L 168.681794 89.210495 
L 170.309135 92.795818 
L 171.122805 94.004663 
L 171.936476 94.361821 
L 172.750147 96.628405 
L 173.563817 97.164143 
L 174.377488 98.427935 
L 175.191158 100.268675 
L 176.004829 101.010466 
L 176.818499 102.301732 
L 177.63217 103.084733 
L 178.44584 104.609526 
L 179.259511 107.233268 
L 180.886852 110.11801 
L 181.700522 113.373648 
L 182.514193 116.107285 
L 183.327864 118.071657 
L 184.141534 121.203663 
L 184.955205 123.044404 
L 189.023557 134.693269 
L 190.650898 137.71538 
L 191.464569 138.965435 
L 193.905581 144.693709 
L 194.719251 147.19382 
L 195.532922 148.100453 
L 196.346592 148.677401 
L 197.160263 151.27367 
L 198.787604 155.010098 
L 199.601274 156.301364 
L 200.414945 157.290418 
L 202.042286 160.09274 
L 203.669627 161.71369 
L 204.483298 163.211009 
L 205.296968 164.241274 
L 206.110639 166.01333 
L 206.924309 166.865016 
L 208.55165 169.310179 
L 210.178991 170.711339 
L 210.992662 171.714131 
L 212.620003 172.538343 
L 214.247344 174.475241 
L 215.061015 176.027508 
L 215.874685 176.837983 
L 217.502026 178.884776 
L 218.315697 179.365567 
L 219.943038 183.033311 
L 221.570379 184.489419 
L 222.384049 186.549949 
L 223.19772 187.51153 
L 224.011391 189.695692 
L 224.825061 190.464957 
L 225.638732 191.014432 
L 226.452402 190.616062 
L 227.266073 191.193011 
L 228.079743 190.877063 
L 229.707084 194.27007 
L 230.520755 194.558544 
L 231.334425 195.437703 
L 232.148096 196.646548 
L 232.961766 197.621866 
L 233.775437 198.336183 
L 236.216449 202.127559 
L 238.65746 203.185298 
L 240.284801 206.372251 
L 241.098472 206.976673 
L 241.912142 208.460255 
L 242.725813 209.586679 
L 243.539484 210.36968 
L 244.353154 211.317524 
L 245.166825 211.770841 
L 245.980495 212.759895 
L 246.794166 214.078635 
L 247.607836 214.999005 
L 248.421507 215.438585 
L 250.862518 218.721696 
L 251.676189 219.367329 
L 252.489859 220.301436 
L 253.30353 221.68886 
L 254.117201 222.032282 
L 254.930871 223.035073 
L 257.371883 225.274183 
L 258.185553 225.837395 
L 258.999224 226.895133 
L 259.812894 228.433663 
L 260.626565 228.845769 
L 261.440235 228.419926 
L 262.253906 229.093033 
L 263.067576 230.411772 
L 263.881247 231.510721 
L 264.694918 232.266249 
L 265.508588 233.351462 
L 266.322259 233.955884 
L 267.135929 235.041097 
L 267.9496 235.329571 
L 269.576941 236.923048 
L 270.390611 237.019206 
L 271.204282 237.390101 
L 272.017952 237.980787 
L 272.831623 239.162157 
L 273.645293 239.670422 
L 274.458964 240.371002 
L 275.272635 240.714424 
L 276.086305 241.511162 
L 276.899976 241.703478 
L 277.713646 242.541427 
L 278.527317 242.981007 
L 279.340987 243.585429 
L 280.154658 243.915114 
L 280.968328 244.368431 
L 281.781999 244.601958 
L 283.40934 245.934434 
L 284.223011 246.222908 
L 285.036681 246.319066 
L 285.850352 246.580067 
L 286.664022 247.088331 
L 287.477693 247.981227 
L 288.291363 248.228491 
L 289.105034 248.62686 
L 290.732375 250.2066 
L 291.546045 250.838496 
L 292.359716 251.690182 
L 293.173386 252.363289 
L 293.987057 252.775395 
L 294.800728 252.871553 
L 295.614398 253.269922 
L 296.428069 253.269922 
L 297.241739 253.421028 
L 298.05541 253.791923 
L 298.86908 254.396345 
L 299.682751 254.849662 
L 300.496421 255.660137 
L 301.310092 256.237086 
L 302.123762 256.140928 
L 302.937433 256.30577 
L 303.751103 256.74535 
L 304.564774 257.542088 
L 306.192115 257.803089 
L 307.005786 258.242669 
L 309.446797 259.053144 
L 310.260468 259.478987 
L 311.074138 259.602619 
L 312.701479 260.344409 
L 313.51515 260.344409 
L 314.32882 260.619147 
L 315.142491 261.209832 
L 315.956162 261.96536 
L 317.583503 262.528572 
L 320.024514 262.981888 
L 321.651855 263.792364 
L 324.906538 264.740208 
L 325.720208 264.90505 
L 326.533879 265.207261 
L 327.347549 265.303419 
L 328.16122 265.619367 
L 329.788561 265.729262 
L 330.602231 266.182579 
L 331.415902 266.361158 
L 333.856913 267.199107 
L 334.670584 267.281528 
L 336.297925 267.666161 
L 337.925266 267.982109 
L 338.738937 267.831003 
L 341.179948 268.614005 
L 341.993619 268.943689 
L 342.807289 268.820058 
L 344.43463 269.108532 
L 345.248301 269.520638 
L 346.061972 269.658007 
L 346.875642 269.493164 
L 347.689313 269.68548 
L 348.502983 269.589322 
L 350.130324 270.042639 
L 352.571336 270.30364 
L 354.198677 270.825641 
L 355.012347 271.361378 
L 355.826018 271.375115 
L 356.639689 271.567431 
L 358.26703 271.402589 
L 359.0807 271.155325 
L 361.521712 271.100378 
L 362.335382 271.306431 
L 364.776394 271.4438 
L 367.217406 272.213064 
L 370.472088 272.707592 
L 371.285758 272.735065 
L 372.099429 272.954855 
L 374.54044 273.215856 
L 376.981452 273.76533 
L 381.049805 274.273595 
L 381.863475 274.534595 
L 382.677146 274.479648 
L 388.37284 275.207702 
L 389.18651 275.207702 
L 391.627522 275.633545 
L 393.254863 275.798387 
L 394.882204 275.908282 
L 396.509545 275.96323 
L 398.950557 276.306651 
L 400.577898 276.334125 
L 400.577898 276.334125 
" style="fill:none;stroke:#7dff7a;stroke-linecap:round;stroke-width:1.5;"/>
   </g>
   <g id="line2d_24">
    <path clip-path="url(#p187b3f9305)" d="M 75.923352 269.973955 
L 80.805376 263.929732 
L 81.619046 262.62473 
L 82.432717 261.621938 
L 84.060058 258.956986 
L 84.873728 257.651983 
L 89.755751 246.552593 
L 92.196763 239.423158 
L 93.010434 236.758205 
L 94.637775 232.225039 
L 96.265116 226.675344 
L 98.706127 218.48817 
L 99.519798 214.820426 
L 102.77448 203.528719 
L 103.588151 199.49008 
L 104.401821 197.196023 
L 106.029162 191.824907 
L 108.470174 180.505727 
L 113.352197 160.614741 
L 114.165868 158.265736 
L 114.979538 154.336991 
L 115.793209 151.040143 
L 117.42055 143.63597 
L 118.23422 140.174279 
L 119.047891 137.371958 
L 119.861561 133.553109 
L 121.488903 127.75615 
L 122.302573 123.525194 
L 123.929914 116.65676 
L 125.557255 110.406484 
L 126.370926 108.387165 
L 127.184596 105.626054 
L 127.998267 103.606734 
L 128.811937 100.694518 
L 129.625608 98.208145 
L 130.439278 96.765773 
L 131.252949 93.784873 
L 132.06662 91.408394 
L 132.88029 89.883602 
L 133.693961 88.001651 
L 134.507631 84.965803 
L 135.321302 82.616798 
L 136.948643 79.416108 
L 137.762313 78.275948 
L 138.575984 76.737418 
L 139.389654 75.597258 
L 140.203325 73.674097 
L 141.830666 70.528354 
L 142.644337 70.54209 
L 143.458007 70.212406 
L 144.271678 69.429404 
L 145.085348 69.223351 
L 145.899019 68.660139 
L 146.712689 68.385402 
L 147.52636 67.794717 
L 148.34003 67.56119 
L 149.153701 68.467823 
L 149.967371 68.509034 
L 150.781042 67.616137 
L 151.594712 67.56119 
L 152.408383 67.808454 
L 153.222054 68.976087 
L 154.035724 68.660139 
L 155.663065 70.143721 
L 156.476736 72.12183 
L 157.290406 72.657568 
L 158.104077 72.602621 
L 158.917747 73.330675 
L 159.731418 75.377468 
L 160.545088 76.751155 
L 161.358759 78.536948 
L 162.17243 79.951846 
L 162.9861 80.995848 
L 163.799771 83.605853 
L 164.613441 83.715748 
L 165.427112 84.965803 
L 166.240782 86.518069 
L 167.054453 87.713177 
L 167.868123 89.251706 
L 169.495464 91.133657 
L 170.309135 91.106183 
L 171.122805 93.152977 
L 172.750147 95.790456 
L 173.563817 95.323402 
L 174.377488 97.370196 
L 175.191158 99.073567 
L 176.004829 100.172517 
L 176.818499 103.331997 
L 177.63217 105.213948 
L 178.44584 106.73874 
L 179.259511 108.75806 
L 180.886852 110.324063 
L 181.700522 112.879121 
L 182.514193 113.744543 
L 183.327864 116.21718 
L 184.141534 118.140342 
L 186.582546 121.739401 
L 187.396216 123.964774 
L 189.023557 127.302833 
L 189.837228 129.33589 
L 190.650898 129.802943 
L 191.464569 131.341473 
L 192.278239 132.028316 
L 193.09191 135.064164 
L 193.905581 136.671378 
L 194.719251 139.638542 
L 197.160263 143.759602 
L 197.973933 144.391498 
L 198.787604 146.438292 
L 200.414945 149.858772 
L 201.228615 151.781934 
L 202.855957 156.562364 
L 203.669627 158.251999 
L 204.483298 158.980053 
L 207.73798 164.282485 
L 208.55165 165.175381 
L 209.365321 165.807277 
L 210.992662 168.279913 
L 211.806332 169.900864 
L 212.620003 170.725076 
L 213.433674 171.082235 
L 214.247344 172.414711 
L 215.061015 172.799343 
L 216.688356 174.502715 
L 217.502026 175.574191 
L 218.315697 176.89293 
L 219.129367 177.387458 
L 219.943038 178.678723 
L 220.756708 180.904096 
L 221.570379 182.044256 
L 222.384049 182.978363 
L 223.19772 183.720154 
L 224.011391 184.750419 
L 225.638732 185.918053 
L 226.452402 186.85216 
L 227.266073 188.129689 
L 228.893414 191.165537 
L 229.707084 191.948539 
L 230.520755 192.319434 
L 231.334425 194.173911 
L 232.148096 194.915702 
L 232.961766 196.028389 
L 233.775437 196.055863 
L 234.589108 196.261916 
L 235.402778 197.044917 
L 237.030119 198.13013 
L 238.65746 200.396713 
L 239.471131 201.907769 
L 240.284801 202.347349 
L 241.098472 203.35014 
L 241.912142 204.696353 
L 242.725813 205.135933 
L 243.539484 206.124988 
L 244.353154 206.28983 
L 245.166825 207.375043 
L 245.980495 208.185518 
L 246.794166 208.212992 
L 247.607836 209.064677 
L 248.421507 210.177364 
L 249.235177 210.919155 
L 250.048848 212.045578 
L 250.862518 211.921946 
L 251.676189 212.361526 
L 252.489859 212.65 
L 254.117201 213.694002 
L 254.930871 214.380846 
L 255.744542 215.273742 
L 256.558212 215.836954 
L 257.371883 216.72985 
L 258.185553 217.402957 
L 258.999224 218.543117 
L 259.812894 219.463487 
L 260.626565 220.136594 
L 261.440235 220.452542 
L 262.253906 220.603647 
L 263.067576 221.771281 
L 263.881247 222.197124 
L 264.694918 222.842757 
L 265.508588 224.243918 
L 266.322259 224.422497 
L 267.135929 225.315394 
L 267.9496 225.466499 
L 268.76327 226.441817 
L 272.017952 229.491402 
L 272.831623 230.713983 
L 274.458964 231.565669 
L 275.272635 232.30746 
L 276.086305 232.78825 
L 278.527317 234.889991 
L 280.154658 237.376365 
L 280.968328 238.118155 
L 281.781999 238.530262 
L 282.595669 239.272052 
L 283.40934 239.615474 
L 284.223011 240.288581 
L 285.036681 240.371002 
L 285.850352 241.154003 
L 286.664022 242.445269 
L 287.477693 243.132113 
L 288.291363 243.090902 
L 289.105034 243.791482 
L 289.918704 243.970062 
L 290.732375 244.753063 
L 291.546045 245.123959 
L 292.359716 245.632223 
L 293.173386 246.676225 
L 293.987057 247.115805 
L 295.614398 248.475755 
L 296.428069 249.093914 
L 297.241739 249.409862 
L 298.05541 249.574704 
L 299.682751 250.357706 
L 301.310092 251.044549 
L 302.123762 251.800077 
L 302.937433 252.308341 
L 303.751103 252.679237 
L 304.564774 252.70671 
L 305.378445 253.517186 
L 306.192115 254.080397 
L 307.005786 254.28645 
L 307.819456 254.72603 
L 308.633127 255.371663 
L 309.446797 255.82498 
L 310.260468 255.673874 
L 311.074138 255.962348 
L 311.887809 256.484349 
L 313.51515 257.18493 
L 315.142491 258.407511 
L 315.956162 259.011933 
L 316.769832 259.176776 
L 317.583503 259.575145 
L 318.397173 259.575145 
L 320.838185 261.223569 
L 321.651855 261.182358 
L 323.279196 261.841728 
L 324.092867 262.047781 
L 324.906538 262.377466 
L 325.720208 262.308782 
L 326.533879 262.707151 
L 327.347549 263.627521 
L 328.97489 263.970943 
L 330.602231 264.616576 
L 333.043243 265.688052 
L 334.670584 266.141368 
L 335.484255 266.388632 
L 336.297925 266.92437 
L 337.111596 267.267791 
L 337.925266 267.102949 
L 339.552607 267.803529 
L 340.366278 267.968372 
L 341.179948 268.009582 
L 342.807289 268.476636 
L 343.62096 268.847531 
L 344.43463 268.929953 
L 346.875642 269.671744 
L 348.502983 270.042639 
L 349.316654 269.891533 
L 350.130324 270.358587 
L 350.943995 270.688272 
L 354.198677 271.127852 
L 355.012347 271.237747 
L 356.639689 271.320168 
L 359.894371 271.48501 
L 363.962723 272.048222 
L 364.776394 271.910853 
L 368.844747 272.432854 
L 369.658417 272.14438 
L 371.285758 272.158117 
L 374.54044 272.529012 
L 375.354111 272.474065 
L 376.167782 272.542749 
L 377.795123 272.515275 
L 378.608793 272.474065 
L 379.422464 272.62517 
L 382.677146 272.776276 
L 385.931828 273.600488 
L 386.745499 273.573014 
L 393.254863 274.589543 
L 394.068533 274.465911 
L 397.323216 274.726911 
L 398.950557 275.056596 
L 400.577898 275.111544 
L 400.577898 275.111544 
" style="fill:none;stroke:#ceff29;stroke-linecap:round;stroke-width:1.5;"/>
   </g>
   <g id="line2d_25">
    <path clip-path="url(#p187b3f9305)" d="M 75.923352 270.138797 
L 76.737023 269.561849 
L 80.805376 264.630313 
L 81.619046 263.572574 
L 85.687399 257.129982 
L 87.31474 253.764449 
L 88.942081 249.918126 
L 90.569422 245.261327 
L 91.383093 242.52769 
L 93.010434 237.760997 
L 93.824104 235.329571 
L 99.519798 214.216003 
L 100.333468 210.561996 
L 101.147139 207.663517 
L 101.96081 203.542456 
L 103.588151 196.495442 
L 105.215492 190.396273 
L 106.029162 185.959264 
L 106.842833 182.799784 
L 107.656503 178.527618 
L 108.470174 175.0934 
L 109.283844 172.208658 
L 110.097515 168.678283 
L 110.911185 164.309958 
L 111.724856 160.848267 
L 114.165868 148.732349 
L 114.979538 145.998712 
L 115.793209 141.012228 
L 116.606879 136.973589 
L 117.42055 134.597111 
L 121.488903 117.590867 
L 122.302573 113.181332 
L 123.116244 110.063063 
L 124.743585 103.373207 
L 126.370926 96.848195 
L 127.184596 93.262872 
L 127.998267 88.853337 
L 128.811937 85.405383 
L 129.625608 83.125062 
L 131.252949 77.424262 
L 133.693961 71.352566 
L 135.321302 66.379819 
L 136.134972 64.84129 
L 136.948643 63.756077 
L 137.762313 61.558178 
L 138.575984 58.398698 
L 139.389654 56.489273 
L 140.203325 55.720009 
L 141.016995 55.156797 
L 141.830666 53.316057 
L 142.644337 52.313265 
L 145.085348 51.337948 
L 145.899019 49.22247 
L 146.712689 48.590574 
L 147.52636 48.439468 
L 148.34003 47.958678 
L 149.153701 48.686732 
L 149.967371 47.972415 
L 150.781042 48.659258 
L 151.594712 48.357047 
L 152.408383 49.071364 
L 153.222054 48.370784 
L 154.035724 48.192205 
L 154.849395 48.618048 
L 155.663065 48.576837 
L 156.476736 48.686732 
L 157.290406 48.947732 
L 158.104077 49.881839 
L 158.917747 50.101629 
L 159.731418 51.956107 
L 160.545088 51.914896 
L 161.358759 51.159368 
L 162.9861 53.947953 
L 163.799771 55.58264 
L 165.427112 59.525122 
L 166.240782 60.198228 
L 167.054453 62.451075 
L 167.868123 64.195657 
L 168.681794 64.978659 
L 169.495464 66.503451 
L 170.309135 68.618929 
L 171.122805 71.256408 
L 171.936476 71.764672 
L 172.750147 74.278519 
L 174.377488 76.42147 
L 176.004829 80.226583 
L 176.818499 82.493167 
L 177.63217 83.743222 
L 178.44584 83.3998 
L 179.259511 84.485013 
L 180.073181 86.655438 
L 181.700522 89.993497 
L 183.327864 94.966244 
L 184.141534 96.120141 
L 184.955205 98.551566 
L 185.768875 99.93899 
L 186.582546 103.139681 
L 187.396216 105.159 
L 188.209887 106.106844 
L 189.023557 108.634428 
L 190.650898 112.741752 
L 192.278239 115.708916 
L 193.09191 117.412288 
L 193.905581 120.022293 
L 194.719251 122.233929 
L 195.532922 123.580142 
L 196.346592 125.723093 
L 197.973933 128.649046 
L 200.414945 130.682103 
L 201.228615 132.660212 
L 202.042286 133.374529 
L 203.669627 135.641113 
L 204.483298 137.619222 
L 205.296968 138.773119 
L 206.110639 139.583594 
L 206.924309 140.641333 
L 207.73798 141.506756 
L 208.55165 143.869497 
L 209.365321 144.446446 
L 210.178991 146.493239 
L 210.992662 147.276241 
L 211.806332 149.707667 
L 213.433674 152.042934 
L 214.247344 152.63362 
L 216.688356 157.771209 
L 217.502026 160.202634 
L 220.756708 165.642435 
L 221.570379 166.370489 
L 222.384049 167.689228 
L 223.19772 168.595861 
L 224.011391 168.815651 
L 224.825061 170.53276 
L 225.638732 171.205867 
L 226.452402 172.208658 
L 227.266073 173.417502 
L 228.893414 175.409348 
L 229.707084 175.519243 
L 230.520755 177.126457 
L 231.334425 177.730879 
L 232.961766 180.588148 
L 233.775437 181.426097 
L 234.589108 183.019574 
L 235.402778 183.610259 
L 237.030119 186.481265 
L 237.84379 188.129689 
L 238.65746 189.187428 
L 240.284801 190.327588 
L 241.098472 191.563906 
L 241.912142 192.099644 
L 242.725813 194.173911 
L 243.539484 194.695913 
L 244.353154 195.520125 
L 245.980495 198.212551 
L 246.794166 198.775763 
L 247.607836 200.63024 
L 248.421507 201.756663 
L 249.235177 203.13035 
L 250.048848 204.819985 
L 250.862518 205.712881 
L 251.676189 206.385988 
L 252.489859 206.523357 
L 253.30353 207.347569 
L 254.117201 208.941046 
L 254.930871 209.751521 
L 255.744542 209.614152 
L 256.558212 210.671891 
L 258.185553 211.976894 
L 258.999224 212.361526 
L 259.812894 213.900055 
L 260.626565 215.136374 
L 263.881247 217.361746 
L 264.694918 218.543117 
L 266.322259 220.260226 
L 267.135929 221.153122 
L 267.9496 222.458125 
L 268.76327 223.103758 
L 269.576941 223.570811 
L 270.390611 224.669761 
L 271.204282 224.656024 
L 272.017952 225.178025 
L 273.645293 227.540766 
L 274.458964 227.870451 
L 275.272635 228.516084 
L 276.086305 229.532612 
L 276.899976 229.889771 
L 277.713646 230.782667 
L 278.527317 232.156354 
L 279.340987 233.310251 
L 280.154658 233.269041 
L 280.968328 233.584989 
L 281.781999 234.821307 
L 283.40934 235.741677 
L 284.223011 236.098836 
L 285.850352 238.021997 
L 286.664022 238.351682 
L 287.477693 238.832473 
L 288.291363 239.76658 
L 289.105034 240.068791 
L 289.918704 240.123738 
L 290.732375 241.044109 
L 291.546045 241.112793 
L 292.359716 241.60732 
L 293.173386 241.854584 
L 293.987057 242.70627 
L 294.800728 243.18706 
L 295.614398 244.615694 
L 296.428069 244.7668 
L 297.241739 245.357485 
L 298.05541 246.34654 
L 300.496421 247.885069 
L 303.751103 249.409862 
L 304.564774 250.014284 
L 306.192115 250.412653 
L 307.005786 250.495074 
L 307.819456 251.456655 
L 308.633127 251.607761 
L 309.446797 252.019867 
L 310.260468 252.720447 
L 311.887809 253.311133 
L 312.701479 253.888081 
L 313.51515 254.72603 
L 315.142491 255.248031 
L 316.769832 256.127191 
L 317.583503 257.075035 
L 318.397173 257.638246 
L 320.024514 258.036615 
L 320.838185 257.761878 
L 321.651855 258.009142 
L 322.465526 258.434985 
L 324.092867 259.698777 
L 324.906538 259.753724 
L 325.720208 260.838937 
L 326.533879 261.099937 
L 327.347549 261.196095 
L 328.16122 261.566991 
L 328.97489 261.773044 
L 329.788561 262.295045 
L 333.856913 263.517626 
L 334.670584 263.723679 
L 335.484255 264.108312 
L 337.111596 264.46547 
L 338.738937 265.179787 
L 339.552607 265.481998 
L 340.366278 265.578157 
L 342.807289 266.718317 
L 343.62096 266.841949 
L 345.248301 267.652424 
L 346.875642 267.803529 
L 348.502983 268.160688 
L 350.943995 268.476636 
L 352.571336 269.163479 
L 353.385006 269.190953 
L 354.198677 269.46569 
L 355.012347 269.397006 
L 356.639689 269.809112 
L 358.26703 269.932744 
L 359.0807 269.932744 
L 359.894371 270.138797 
L 360.708041 270.111323 
L 363.149053 270.688272 
L 363.962723 270.839377 
L 364.776394 271.278957 
L 365.590065 271.320168 
L 366.403735 271.22401 
L 367.217406 271.278957 
L 368.031076 271.498747 
L 368.844747 271.48501 
L 371.285758 271.952064 
L 372.913099 272.089432 
L 373.72677 272.199327 
L 374.54044 272.171854 
L 375.354111 272.40538 
L 380.236134 272.996066 
L 382.677146 273.339488 
L 383.490816 273.366961 
L 384.304487 273.682909 
L 387.559169 273.655436 
L 388.37284 273.834015 
L 389.18651 273.682909 
L 390.813851 273.875225 
L 391.627522 274.012594 
L 394.068533 273.98512 
L 394.882204 274.012594 
L 397.323216 274.520858 
L 398.950557 274.589543 
L 400.577898 274.64449 
L 400.577898 274.64449 
" style="fill:none;stroke:#ffc400;stroke-linecap:round;stroke-width:1.5;"/>
   </g>
   <g id="line2d_26">
    <path clip-path="url(#p187b3f9305)" d="M 75.923352 270.111323 
L 77.550693 268.229372 
L 79.178034 266.292474 
L 80.805376 264.012154 
L 81.619046 262.308782 
L 82.432717 260.921358 
L 83.246387 259.849882 
L 84.060058 258.572353 
L 86.501069 253.311133 
L 87.31474 251.003339 
L 88.942081 247.00591 
L 89.755751 244.890432 
L 93.010434 235.357045 
L 93.824104 232.032722 
L 94.637775 229.505139 
L 98.706127 214.18853 
L 102.77448 195.382756 
L 103.588151 191.069379 
L 105.215492 183.830049 
L 106.029162 179.035882 
L 106.842833 176.068718 
L 107.656503 171.810289 
L 108.470174 168.678283 
L 109.283844 164.955591 
L 110.097515 161.864796 
L 112.538527 150.765405 
L 114.979538 139.95449 
L 116.606879 131.684894 
L 118.23422 123.813668 
L 119.047891 119.898661 
L 122.302573 107.068425 
L 123.116244 102.109415 
L 124.743585 96.477299 
L 126.370926 89.97976 
L 127.184596 86.33949 
L 127.998267 84.402591 
L 128.811937 80.748584 
L 129.625608 78.00121 
L 130.439278 74.621941 
L 133.693961 67.987033 
L 134.507631 64.786342 
L 135.321302 63.975867 
L 136.134972 60.843861 
L 136.948643 60.060859 
L 137.762313 58.879489 
L 139.389654 54.428743 
L 140.203325 53.357267 
L 141.016995 52.60174 
L 141.830666 52.505581 
L 142.644337 51.50279 
L 143.458007 51.296737 
L 144.271678 50.58242 
L 145.085348 50.912105 
L 146.712689 48.796627 
L 147.52636 48.975206 
L 148.34003 48.535626 
L 149.153701 48.329573 
L 149.967371 48.714206 
L 150.781042 49.455997 
L 151.594712 50.458788 
L 152.408383 51.008263 
L 153.222054 52.780319 
L 155.663065 55.80243 
L 156.476736 55.884851 
L 157.290406 56.475537 
L 158.104077 58.591014 
L 158.917747 57.890434 
L 159.731418 59.525122 
L 161.358759 63.604972 
L 162.17243 64.195657 
L 163.799771 68.04198 
L 165.427112 70.514617 
L 166.240782 70.912986 
L 167.054453 72.643831 
L 167.868123 75.542311 
L 168.681794 76.407734 
L 169.495464 78.715528 
L 170.309135 80.6799 
L 171.122805 82.987694 
L 171.936476 86.435648 
L 172.750147 88.812126 
L 174.377488 92.507344 
L 176.004829 97.576249 
L 176.818499 98.853777 
L 177.63217 102.425363 
L 178.44584 105.007895 
L 179.259511 107.054688 
L 180.073181 109.596009 
L 180.886852 111.532908 
L 181.700522 114.239071 
L 183.327864 116.093548 
L 185.768875 122.35756 
L 186.582546 124.253248 
L 187.396216 126.973148 
L 188.209887 127.714939 
L 189.837228 132.75637 
L 191.464569 137.152168 
L 192.278239 138.539592 
L 193.09191 141.080913 
L 193.905581 141.644124 
L 194.719251 143.306286 
L 195.532922 145.792659 
L 197.160263 149.69393 
L 198.787604 154.996361 
L 200.414945 158.458052 
L 201.228615 159.65316 
L 202.855957 162.977482 
L 203.669627 165.491329 
L 205.296968 168.73323 
L 206.110639 170.148128 
L 206.924309 172.208658 
L 208.55165 173.857082 
L 209.365321 174.708768 
L 210.992662 177.359984 
L 211.806332 179.228198 
L 212.620003 180.354621 
L 213.433674 181.206307 
L 214.247344 182.593731 
L 215.061015 182.634942 
L 216.688356 184.915262 
L 217.502026 185.821895 
L 219.129367 189.544587 
L 219.943038 189.132481 
L 221.570379 190.918274 
L 223.19772 191.563906 
L 224.011391 192.800225 
L 224.825061 192.717803 
L 225.638732 193.349699 
L 227.266073 194.847018 
L 228.893414 196.220705 
L 229.707084 197.745497 
L 230.520755 198.17134 
L 231.334425 199.70987 
L 232.961766 200.231871 
L 234.589108 201.317083 
L 235.402778 201.880295 
L 236.216449 202.924297 
L 237.84379 203.968299 
L 239.471131 205.671671 
L 240.284801 206.743147 
L 241.098472 208.08936 
L 241.912142 208.295413 
L 242.725813 209.792732 
L 243.539484 210.012521 
L 245.166825 212.182947 
L 245.980495 212.911001 
L 246.794166 213.130791 
L 247.607836 214.037424 
L 249.235177 215.040216 
L 250.048848 216.276534 
L 251.676189 218.185959 
L 252.489859 218.872802 
L 253.30353 219.394803 
L 254.117201 220.232752 
L 255.744542 221.578965 
L 256.558212 222.60923 
L 257.371883 223.941707 
L 258.185553 224.395023 
L 260.626565 225.301657 
L 261.440235 226.386869 
L 263.067576 227.430871 
L 263.881247 228.969401 
L 264.694918 230.205719 
L 265.508588 230.906299 
L 266.322259 231.222247 
L 267.135929 231.840406 
L 268.76327 233.900937 
L 270.390611 235.604308 
L 271.204282 236.662047 
L 272.831623 237.225259 
L 274.458964 239.615474 
L 276.086305 241.112793 
L 277.713646 241.222688 
L 278.527317 241.923268 
L 279.340987 242.816165 
L 280.154658 243.310692 
L 280.968328 244.011272 
L 281.781999 244.382168 
L 282.595669 244.533273 
L 286.664022 247.349331 
L 288.291363 248.832913 
L 289.105034 249.06644 
L 289.918704 249.135124 
L 290.732375 249.560967 
L 291.546045 249.602178 
L 292.359716 250.412653 
L 294.800728 252.102288 
L 295.614398 252.44571 
L 296.428069 253.187501 
L 298.05541 253.929292 
L 301.310092 256.264559 
L 302.123762 256.759087 
L 302.937433 256.470612 
L 303.751103 257.033824 
L 304.564774 257.198666 
L 305.378445 257.624509 
L 306.192115 258.187721 
L 307.005786 258.599827 
L 307.819456 258.380037 
L 310.260468 258.929512 
L 311.074138 259.259197 
L 311.887809 259.094354 
L 315.142491 260.179567 
L 315.956162 260.921358 
L 317.583503 261.333464 
L 318.397173 261.374675 
L 319.210844 262.034044 
L 320.838185 262.899467 
L 321.651855 262.968151 
L 323.279196 263.393994 
L 324.906538 264.012154 
L 327.347549 265.358367 
L 328.16122 265.495735 
L 328.97489 265.82542 
L 330.602231 265.852894 
L 333.043243 266.388632 
L 333.856913 266.883159 
L 334.670584 266.910633 
L 335.484255 267.267791 
L 336.297925 267.432634 
L 337.111596 267.940898 
L 338.738937 268.476636 
L 341.993619 269.259637 
L 342.807289 269.520638 
L 345.248301 269.90527 
L 346.061972 270.193745 
L 346.875642 270.152534 
L 347.689313 270.331113 
L 348.502983 270.317376 
L 349.316654 270.825641 
L 350.130324 271.169062 
L 350.943995 271.22401 
L 351.757665 271.732274 
L 352.571336 271.746011 
L 354.198677 272.281749 
L 359.894371 273.078487 
L 360.708041 272.954855 
L 361.521712 272.954855 
L 363.149053 273.353224 
L 363.962723 273.394435 
L 364.776394 273.696646 
L 366.403735 274.012594 
L 367.217406 274.20491 
L 368.844747 274.259858 
L 369.658417 274.149963 
L 370.472088 274.328542 
L 372.099429 274.067542 
L 372.913099 273.957647 
L 373.72677 274.012594 
L 375.354111 273.98512 
L 376.167782 274.191173 
L 376.981452 274.177437 
L 380.236134 274.617016 
L 383.490816 274.64449 
L 384.304487 274.850543 
L 385.118157 274.754385 
L 385.931828 274.946701 
L 386.745499 274.809333 
L 387.559169 274.987912 
L 388.37284 274.905491 
L 389.18651 275.042859 
L 390.813851 275.166491 
L 391.627522 275.372544 
L 392.441192 275.386281 
L 393.254863 275.52365 
L 394.882204 275.482439 
L 400.577898 276.00444 
L 400.577898 276.00444 
" style="fill:none;stroke:#ff6800;stroke-linecap:round;stroke-width:1.5;"/>
   </g>
   <g id="line2d_27">
    <path clip-path="url(#p187b3f9305)" d="M 75.923352 270.015165 
L 79.178034 266.732054 
L 83.246387 260.550463 
L 84.873728 257.775615 
L 89.755751 246.264119 
L 90.569422 244.162378 
L 94.637775 231.4283 
L 95.451445 228.186399 
L 96.265116 224.477445 
L 97.078786 221.743808 
L 98.706127 215.053952 
L 99.519798 212.677474 
L 103.588151 195.547598 
L 105.215492 190.355062 
L 108.470174 174.227978 
L 109.283844 169.186547 
L 110.097515 165.257802 
L 110.911185 160.601004 
L 111.724856 157.331629 
L 112.538527 153.471569 
L 113.352197 147.825715 
L 114.165868 143.869497 
L 115.793209 134.006425 
L 118.23422 120.970137 
L 119.047891 116.285864 
L 119.861561 113.373648 
L 121.488903 104.760631 
L 123.929914 93.317819 
L 124.743585 91.518289 
L 125.557255 87.314808 
L 127.184596 82.451956 
L 127.998267 78.866633 
L 128.811937 75.995627 
L 129.625608 73.838939 
L 131.252949 68.234296 
L 132.06662 64.827553 
L 133.693961 60.665282 
L 134.507631 57.107433 
L 135.321302 54.717217 
L 136.134972 52.711635 
L 136.948643 50.238998 
L 138.575984 47.944941 
L 139.389654 45.348673 
L 140.203325 44.442039 
L 141.016995 42.711194 
L 141.830666 41.529823 
L 142.644337 40.142399 
L 143.458007 38.026922 
L 144.271678 37.353815 
L 145.085348 34.908652 
L 145.899019 35.471864 
L 146.712689 34.52402 
L 147.52636 34.414125 
L 148.34003 34.510283 
L 149.153701 35.210863 
L 149.967371 35.430653 
L 150.781042 35.938917 
L 151.594712 37.037867 
L 152.408383 37.779658 
L 153.222054 38.686291 
L 154.849395 41.351244 
L 156.476736 42.944721 
L 157.290406 44.551934 
L 158.104077 45.527252 
L 158.917747 47.697677 
L 160.545088 51.173105 
L 161.358759 53.34353 
L 162.17243 54.538638 
L 162.9861 56.310694 
L 163.799771 57.725592 
L 164.613441 60.019649 
L 165.427112 61.214756 
L 166.240782 63.714867 
L 167.054453 65.006132 
L 167.868123 67.698559 
L 168.681794 69.965142 
L 169.495464 73.275727 
L 170.309135 75.075257 
L 171.122805 77.616578 
L 172.750147 81.861271 
L 174.377488 87.69944 
L 176.004829 93.221661 
L 176.818499 95.323402 
L 177.63217 98.386724 
L 178.44584 99.375779 
L 180.073181 102.4391 
L 180.886852 103.716629 
L 182.514193 107.700321 
L 183.327864 108.799271 
L 184.141534 110.969696 
L 184.955205 113.840702 
L 185.768875 118.387605 
L 187.396216 124.005985 
L 189.023557 126.602253 
L 189.837228 128.649046 
L 190.650898 129.665575 
L 191.464569 132.783844 
L 192.278239 134.789427 
L 193.09191 135.668586 
L 195.532922 142.344705 
L 196.346592 143.210127 
L 197.973933 146.932819 
L 198.787604 149.144455 
L 199.601274 152.125355 
L 201.228615 156.562364 
L 202.042286 157.262944 
L 202.855957 158.622895 
L 203.669627 160.285056 
L 204.483298 160.449898 
L 205.296968 161.315321 
L 206.110639 163.526957 
L 206.924309 165.35396 
L 207.73798 166.658963 
L 208.55165 167.441964 
L 209.365321 169.694811 
L 210.178991 169.969548 
L 210.992662 171.851499 
L 211.806332 173.321344 
L 212.620003 175.31319 
L 213.433674 176.535772 
L 214.247344 178.060564 
L 215.061015 177.813301 
L 215.874685 178.939724 
L 216.688356 180.423306 
L 219.943038 185.217473 
L 220.756708 186.893371 
L 221.570379 187.484056 
L 222.384049 188.294532 
L 223.19772 188.308268 
L 224.011391 189.050059 
L 224.825061 189.283586 
L 225.638732 190.945747 
L 226.452402 191.797433 
L 227.266073 192.443066 
L 228.079743 192.69033 
L 228.893414 193.624437 
L 229.707084 194.379965 
L 230.520755 195.396493 
L 231.334425 196.674022 
L 232.148096 197.058654 
L 232.961766 197.979024 
L 233.775437 198.638394 
L 234.589108 198.940605 
L 235.402778 200.286818 
L 236.216449 202.072611 
L 237.030119 203.240245 
L 237.84379 203.102876 
L 238.65746 203.982036 
L 240.284801 204.833722 
L 241.098472 206.358514 
L 241.912142 206.592041 
L 242.725813 207.855833 
L 243.539484 208.240465 
L 244.353154 209.174572 
L 245.166825 209.22952 
L 245.980495 209.833942 
L 247.607836 212.471421 
L 249.235177 214.518214 
L 250.862518 215.727059 
L 252.489859 216.661166 
L 253.30353 216.619955 
L 254.117201 217.663957 
L 254.930871 218.433222 
L 255.744542 218.872802 
L 256.558212 219.820646 
L 257.371883 220.534963 
L 258.185553 221.894913 
L 259.812894 224.010391 
L 260.626565 224.573603 
L 261.440235 224.807129 
L 263.067576 226.222027 
L 263.881247 226.579185 
L 265.508588 228.419926 
L 266.322259 229.161717 
L 267.135929 230.109561 
L 267.9496 230.755194 
L 269.576941 231.799196 
L 271.204282 232.96683 
L 272.017952 232.953093 
L 273.645293 234.821307 
L 274.458964 235.260887 
L 275.272635 235.521887 
L 276.899976 236.64831 
L 278.527317 238.598946 
L 280.154658 240.68695 
L 280.968328 241.34632 
L 284.223011 242.802428 
L 285.036681 242.871112 
L 285.850352 243.324429 
L 286.664022 243.379376 
L 287.477693 243.750272 
L 288.291363 244.835484 
L 289.105034 245.275064 
L 289.918704 246.003118 
L 290.732375 246.56633 
L 291.546045 247.280647 
L 292.359716 247.788911 
L 293.173386 247.624069 
L 293.987057 248.668071 
L 294.800728 249.011493 
L 297.241739 250.838496 
L 298.05541 251.594024 
L 298.86908 251.868761 
L 299.682751 252.390762 
L 301.310092 253.819397 
L 302.937433 254.616135 
L 304.564774 255.879927 
L 305.378445 256.388191 
L 307.005786 257.555825 
L 308.633127 258.613564 
L 310.260468 258.915775 
L 311.887809 259.753724 
L 312.701479 259.932303 
L 313.51515 259.987251 
L 315.142491 260.591673 
L 315.956162 260.715305 
L 317.583503 261.374675 
L 318.397173 261.360938 
L 320.838185 261.96536 
L 321.651855 262.459887 
L 323.279196 263.174204 
L 324.092867 263.201678 
L 324.906538 263.476416 
L 325.720208 263.957206 
L 326.533879 264.589102 
L 327.347549 264.712734 
L 328.97489 265.275945 
L 329.788561 265.495735 
L 330.602231 265.427051 
L 331.415902 265.481998 
L 332.229572 265.262209 
L 335.484255 267.006791 
L 337.111596 267.18537 
L 337.925266 267.377686 
L 338.738937 267.336476 
L 339.552607 267.734845 
L 340.366278 267.707371 
L 341.993619 267.872214 
L 342.807289 268.380478 
L 343.62096 268.696426 
L 345.248301 269.108532 
L 347.689313 269.850323 
L 348.502983 269.877797 
L 350.130324 270.331113 
L 350.943995 270.482219 
L 351.757665 270.331113 
L 353.385006 270.399798 
L 354.198677 270.688272 
L 355.012347 270.853114 
L 355.826018 270.715746 
L 356.639689 270.729482 
L 358.26703 270.976746 
L 359.894371 271.251483 
L 360.708041 271.017957 
L 363.149053 271.169062 
L 365.590065 271.910853 
L 367.217406 272.061959 
L 368.031076 271.869643 
L 370.472088 272.130643 
L 371.285758 271.814695 
L 372.913099 271.842169 
L 373.72677 271.855906 
L 374.54044 272.061959 
L 375.354111 271.965801 
L 376.981452 272.226801 
L 379.422464 272.40538 
L 387.559169 273.188382 
L 388.37284 273.092224 
L 389.18651 273.394435 
L 390.000181 273.394435 
L 392.441192 273.834015 
L 393.254863 273.902699 
L 394.068533 274.108752 
L 394.882204 273.916436 
L 397.323216 274.067542 
L 399.764227 274.397226 
L 400.577898 274.410963 
L 400.577898 274.410963 
" style="fill:none;stroke:#f10800;stroke-linecap:round;stroke-width:1.5;"/>
   </g>
   <g id="patch_3">
    <path d="M 59.690625 288.430125 
L 59.690625 22.318125 
" style="fill:none;stroke:#cccccc;stroke-linecap:square;stroke-linejoin:miter;stroke-width:0.8;"/>
   </g>
   <g id="patch_4">
    <path d="M 416.810625 288.430125 
L 416.810625 22.318125 
" style="fill:none;stroke:#cccccc;stroke-linecap:square;stroke-linejoin:miter;stroke-width:0.8;"/>
   </g>
   <g id="patch_5">
    <path d="M 59.690625 288.430125 
L 416.810625 288.430125 
" style="fill:none;stroke:#cccccc;stroke-linecap:square;stroke-linejoin:miter;stroke-width:0.8;"/>
   </g>
   <g id="patch_6">
    <path d="M 59.690625 22.318125 
L 416.810625 22.318125 
" style="fill:none;stroke:#cccccc;stroke-linecap:square;stroke-linejoin:miter;stroke-width:0.8;"/>
   </g>
   <g id="text_20">
    <!-- Sars-Cov-2 -->
    <defs>
     <path d="M 53.515625 70.515625 
L 53.515625 60.890625 
Q 47.90625 63.578125 42.921875 64.890625 
Q 37.9375 66.21875 33.296875 66.21875 
Q 25.25 66.21875 20.875 63.09375 
Q 16.5 59.96875 16.5 54.203125 
Q 16.5 49.359375 19.40625 46.890625 
Q 22.3125 44.4375 30.421875 42.921875 
L 36.375 41.703125 
Q 47.40625 39.59375 52.65625 34.296875 
Q 57.90625 29 57.90625 20.125 
Q 57.90625 9.515625 50.796875 4.046875 
Q 43.703125 -1.421875 29.984375 -1.421875 
Q 24.8125 -1.421875 18.96875 -0.25 
Q 13.140625 0.921875 6.890625 3.21875 
L 6.890625 13.375 
Q 12.890625 10.015625 18.65625 8.296875 
Q 24.421875 6.59375 29.984375 6.59375 
Q 38.421875 6.59375 43.015625 9.90625 
Q 47.609375 13.234375 47.609375 19.390625 
Q 47.609375 24.75 44.3125 27.78125 
Q 41.015625 30.8125 33.5 32.328125 
L 27.484375 33.5 
Q 16.453125 35.6875 11.515625 40.375 
Q 6.59375 45.0625 6.59375 53.421875 
Q 6.59375 63.09375 13.40625 68.65625 
Q 20.21875 74.21875 32.171875 74.21875 
Q 37.3125 74.21875 42.625 73.28125 
Q 47.953125 72.359375 53.515625 70.515625 
z
" id="DejaVuSans-83"/>
     <path d="M 4.890625 31.390625 
L 31.203125 31.390625 
L 31.203125 23.390625 
L 4.890625 23.390625 
z
" id="DejaVuSans-45"/>
     <path d="M 64.40625 67.28125 
L 64.40625 56.890625 
Q 59.421875 61.53125 53.78125 63.8125 
Q 48.140625 66.109375 41.796875 66.109375 
Q 29.296875 66.109375 22.65625 58.46875 
Q 16.015625 50.828125 16.015625 36.375 
Q 16.015625 21.96875 22.65625 14.328125 
Q 29.296875 6.6875 41.796875 6.6875 
Q 48.140625 6.6875 53.78125 8.984375 
Q 59.421875 11.28125 64.40625 15.921875 
L 64.40625 5.609375 
Q 59.234375 2.09375 53.4375 0.328125 
Q 47.65625 -1.421875 41.21875 -1.421875 
Q 24.65625 -1.421875 15.125 8.703125 
Q 5.609375 18.84375 5.609375 36.375 
Q 5.609375 53.953125 15.125 64.078125 
Q 24.65625 74.21875 41.21875 74.21875 
Q 47.75 74.21875 53.53125 72.484375 
Q 59.328125 70.75 64.40625 67.28125 
z
" id="DejaVuSans-67"/>
     <path d="M 30.609375 48.390625 
Q 23.390625 48.390625 19.1875 42.75 
Q 14.984375 37.109375 14.984375 27.296875 
Q 14.984375 17.484375 19.15625 11.84375 
Q 23.34375 6.203125 30.609375 6.203125 
Q 37.796875 6.203125 41.984375 11.859375 
Q 46.1875 17.53125 46.1875 27.296875 
Q 46.1875 37.015625 41.984375 42.703125 
Q 37.796875 48.390625 30.609375 48.390625 
z
M 30.609375 56 
Q 42.328125 56 49.015625 48.375 
Q 55.71875 40.765625 55.71875 27.296875 
Q 55.71875 13.875 49.015625 6.21875 
Q 42.328125 -1.421875 30.609375 -1.421875 
Q 18.84375 -1.421875 12.171875 6.21875 
Q 5.515625 13.875 5.515625 27.296875 
Q 5.515625 40.765625 12.171875 48.375 
Q 18.84375 56 30.609375 56 
z
" id="DejaVuSans-111"/>
     <path d="M 2.984375 54.6875 
L 12.5 54.6875 
L 29.59375 8.796875 
L 46.6875 54.6875 
L 56.203125 54.6875 
L 35.6875 0 
L 23.484375 0 
z
" id="DejaVuSans-118"/>
    </defs>
    <g style="fill:#262626;" transform="translate(205.615313 16.318125)scale(0.12 -0.12)">
     <use xlink:href="#DejaVuSans-83"/>
     <use x="63.476562" xlink:href="#DejaVuSans-97"/>
     <use x="124.755859" xlink:href="#DejaVuSans-114"/>
     <use x="165.869141" xlink:href="#DejaVuSans-115"/>
     <use x="217.96875" xlink:href="#DejaVuSans-45"/>
     <use x="254.052734" xlink:href="#DejaVuSans-67"/>
     <use x="323.876953" xlink:href="#DejaVuSans-111"/>
     <use x="385.058594" xlink:href="#DejaVuSans-118"/>
     <use x="444.207031" xlink:href="#DejaVuSans-45"/>
     <use x="480.291016" xlink:href="#DejaVuSans-50"/>
    </g>
   </g>
  </g>
 </g>
 <defs>
  <clipPath id="p187b3f9305">
   <rect height="266.112" width="357.12" x="59.690625" y="22.318125"/>
  </clipPath>
 </defs>
</svg>
