<?xml version="1.0" encoding="utf-8" standalone="no"?>
<!DOCTYPE svg PUBLIC "-//W3C//DTD SVG 1.1//EN"
  "http://www.w3.org/Graphics/SVG/1.1/DTD/svg11.dtd">
<!-- Created with matplotlib (https://matplotlib.org/) -->
<svg height="325.986375pt" version="1.1" viewBox="0 0 430.373125 325.986375" width="430.373125pt" xmlns="http://www.w3.org/2000/svg" xmlns:xlink="http://www.w3.org/1999/xlink">
 <defs>
  <style type="text/css">
*{stroke-linecap:butt;stroke-linejoin:round;white-space:pre;}
  </style>
 </defs>
 <g id="figure_1">
  <g id="patch_1">
   <path d="M 0 325.986375 
L 430.373125 325.986375 
L 430.373125 0 
L 0 0 
z
" style="fill:#ffffff;"/>
  </g>
  <g id="axes_1">
   <g id="patch_2">
    <path d="M 66.053125 288.430125 
L 423.173125 288.430125 
L 423.173125 22.318125 
L 66.053125 22.318125 
z
" style="fill:#ffffff;"/>
   </g>
   <g id="matplotlib.axis_1">
    <g id="xtick_1">
     <g id="line2d_1">
      <path clip-path="url(#p2c2c65d899)" d="M 82.285852 288.430125 
L 82.285852 22.318125 
" style="fill:none;stroke:#cccccc;stroke-linecap:round;stroke-width:0.8;"/>
     </g>
     <g id="text_1">
      <!-- 0 -->
      <defs>
       <path d="M 31.78125 66.40625 
Q 24.171875 66.40625 20.328125 58.90625 
Q 16.5 51.421875 16.5 36.375 
Q 16.5 21.390625 20.328125 13.890625 
Q 24.171875 6.390625 31.78125 6.390625 
Q 39.453125 6.390625 43.28125 13.890625 
Q 47.125 21.390625 47.125 36.375 
Q 47.125 51.421875 43.28125 58.90625 
Q 39.453125 66.40625 31.78125 66.40625 
z
M 31.78125 74.21875 
Q 44.046875 74.21875 50.515625 64.515625 
Q 56.984375 54.828125 56.984375 36.375 
Q 56.984375 17.96875 50.515625 8.265625 
Q 44.046875 -1.421875 31.78125 -1.421875 
Q 19.53125 -1.421875 13.0625 8.265625 
Q 6.59375 17.96875 6.59375 36.375 
Q 6.59375 54.828125 13.0625 64.515625 
Q 19.53125 74.21875 31.78125 74.21875 
z
" id="DejaVuSans-48"/>
      </defs>
      <g style="fill:#262626;" transform="translate(79.104602 303.028562)scale(0.1 -0.1)">
       <use xlink:href="#DejaVuSans-48"/>
      </g>
     </g>
    </g>
    <g id="xtick_2">
     <g id="line2d_2">
      <path clip-path="url(#p2c2c65d899)" d="M 136.394943 288.430125 
L 136.394943 22.318125 
" style="fill:none;stroke:#cccccc;stroke-linecap:round;stroke-width:0.8;"/>
     </g>
     <g id="text_2">
      <!-- 10 -->
      <defs>
       <path d="M 12.40625 8.296875 
L 28.515625 8.296875 
L 28.515625 63.921875 
L 10.984375 60.40625 
L 10.984375 69.390625 
L 28.421875 72.90625 
L 38.28125 72.90625 
L 38.28125 8.296875 
L 54.390625 8.296875 
L 54.390625 0 
L 12.40625 0 
z
" id="DejaVuSans-49"/>
      </defs>
      <g style="fill:#262626;" transform="translate(130.032443 303.028562)scale(0.1 -0.1)">
       <use xlink:href="#DejaVuSans-49"/>
       <use x="63.623047" xlink:href="#DejaVuSans-48"/>
      </g>
     </g>
    </g>
    <g id="xtick_3">
     <g id="line2d_3">
      <path clip-path="url(#p2c2c65d899)" d="M 190.504034 288.430125 
L 190.504034 22.318125 
" style="fill:none;stroke:#cccccc;stroke-linecap:round;stroke-width:0.8;"/>
     </g>
     <g id="text_3">
      <!-- 20 -->
      <defs>
       <path d="M 19.1875 8.296875 
L 53.609375 8.296875 
L 53.609375 0 
L 7.328125 0 
L 7.328125 8.296875 
Q 12.9375 14.109375 22.625 23.890625 
Q 32.328125 33.6875 34.8125 36.53125 
Q 39.546875 41.84375 41.421875 45.53125 
Q 43.3125 49.21875 43.3125 52.78125 
Q 43.3125 58.59375 39.234375 62.25 
Q 35.15625 65.921875 28.609375 65.921875 
Q 23.96875 65.921875 18.8125 64.3125 
Q 13.671875 62.703125 7.8125 59.421875 
L 7.8125 69.390625 
Q 13.765625 71.78125 18.9375 73 
Q 24.125 74.21875 28.421875 74.21875 
Q 39.75 74.21875 46.484375 68.546875 
Q 53.21875 62.890625 53.21875 53.421875 
Q 53.21875 48.921875 51.53125 44.890625 
Q 49.859375 40.875 45.40625 35.40625 
Q 44.1875 33.984375 37.640625 27.21875 
Q 31.109375 20.453125 19.1875 8.296875 
z
" id="DejaVuSans-50"/>
      </defs>
      <g style="fill:#262626;" transform="translate(184.141534 303.028562)scale(0.1 -0.1)">
       <use xlink:href="#DejaVuSans-50"/>
       <use x="63.623047" xlink:href="#DejaVuSans-48"/>
      </g>
     </g>
    </g>
    <g id="xtick_4">
     <g id="line2d_4">
      <path clip-path="url(#p2c2c65d899)" d="M 244.613125 288.430125 
L 244.613125 22.318125 
" style="fill:none;stroke:#cccccc;stroke-linecap:round;stroke-width:0.8;"/>
     </g>
     <g id="text_4">
      <!-- 30 -->
      <defs>
       <path d="M 40.578125 39.3125 
Q 47.65625 37.796875 51.625 33 
Q 55.609375 28.21875 55.609375 21.1875 
Q 55.609375 10.40625 48.1875 4.484375 
Q 40.765625 -1.421875 27.09375 -1.421875 
Q 22.515625 -1.421875 17.65625 -0.515625 
Q 12.796875 0.390625 7.625 2.203125 
L 7.625 11.71875 
Q 11.71875 9.328125 16.59375 8.109375 
Q 21.484375 6.890625 26.8125 6.890625 
Q 36.078125 6.890625 40.9375 10.546875 
Q 45.796875 14.203125 45.796875 21.1875 
Q 45.796875 27.640625 41.28125 31.265625 
Q 36.765625 34.90625 28.71875 34.90625 
L 20.21875 34.90625 
L 20.21875 43.015625 
L 29.109375 43.015625 
Q 36.375 43.015625 40.234375 45.921875 
Q 44.09375 48.828125 44.09375 54.296875 
Q 44.09375 59.90625 40.109375 62.90625 
Q 36.140625 65.921875 28.71875 65.921875 
Q 24.65625 65.921875 20.015625 65.03125 
Q 15.375 64.15625 9.8125 62.3125 
L 9.8125 71.09375 
Q 15.4375 72.65625 20.34375 73.4375 
Q 25.25 74.21875 29.59375 74.21875 
Q 40.828125 74.21875 47.359375 69.109375 
Q 53.90625 64.015625 53.90625 55.328125 
Q 53.90625 49.265625 50.4375 45.09375 
Q 46.96875 40.921875 40.578125 39.3125 
z
" id="DejaVuSans-51"/>
      </defs>
      <g style="fill:#262626;" transform="translate(238.250625 303.028562)scale(0.1 -0.1)">
       <use xlink:href="#DejaVuSans-51"/>
       <use x="63.623047" xlink:href="#DejaVuSans-48"/>
      </g>
     </g>
    </g>
    <g id="xtick_5">
     <g id="line2d_5">
      <path clip-path="url(#p2c2c65d899)" d="M 298.722216 288.430125 
L 298.722216 22.318125 
" style="fill:none;stroke:#cccccc;stroke-linecap:round;stroke-width:0.8;"/>
     </g>
     <g id="text_5">
      <!-- 40 -->
      <defs>
       <path d="M 37.796875 64.3125 
L 12.890625 25.390625 
L 37.796875 25.390625 
z
M 35.203125 72.90625 
L 47.609375 72.90625 
L 47.609375 25.390625 
L 58.015625 25.390625 
L 58.015625 17.1875 
L 47.609375 17.1875 
L 47.609375 0 
L 37.796875 0 
L 37.796875 17.1875 
L 4.890625 17.1875 
L 4.890625 26.703125 
z
" id="DejaVuSans-52"/>
      </defs>
      <g style="fill:#262626;" transform="translate(292.359716 303.028562)scale(0.1 -0.1)">
       <use xlink:href="#DejaVuSans-52"/>
       <use x="63.623047" xlink:href="#DejaVuSans-48"/>
      </g>
     </g>
    </g>
    <g id="xtick_6">
     <g id="line2d_6">
      <path clip-path="url(#p2c2c65d899)" d="M 352.831307 288.430125 
L 352.831307 22.318125 
" style="fill:none;stroke:#cccccc;stroke-linecap:round;stroke-width:0.8;"/>
     </g>
     <g id="text_6">
      <!-- 50 -->
      <defs>
       <path d="M 10.796875 72.90625 
L 49.515625 72.90625 
L 49.515625 64.59375 
L 19.828125 64.59375 
L 19.828125 46.734375 
Q 21.96875 47.46875 24.109375 47.828125 
Q 26.265625 48.1875 28.421875 48.1875 
Q 40.625 48.1875 47.75 41.5 
Q 54.890625 34.8125 54.890625 23.390625 
Q 54.890625 11.625 47.5625 5.09375 
Q 40.234375 -1.421875 26.90625 -1.421875 
Q 22.3125 -1.421875 17.546875 -0.640625 
Q 12.796875 0.140625 7.71875 1.703125 
L 7.71875 11.625 
Q 12.109375 9.234375 16.796875 8.0625 
Q 21.484375 6.890625 26.703125 6.890625 
Q 35.15625 6.890625 40.078125 11.328125 
Q 45.015625 15.765625 45.015625 23.390625 
Q 45.015625 31 40.078125 35.4375 
Q 35.15625 39.890625 26.703125 39.890625 
Q 22.75 39.890625 18.8125 39.015625 
Q 14.890625 38.140625 10.796875 36.28125 
z
" id="DejaVuSans-53"/>
      </defs>
      <g style="fill:#262626;" transform="translate(346.468807 303.028562)scale(0.1 -0.1)">
       <use xlink:href="#DejaVuSans-53"/>
       <use x="63.623047" xlink:href="#DejaVuSans-48"/>
      </g>
     </g>
    </g>
    <g id="xtick_7">
     <g id="line2d_7">
      <path clip-path="url(#p2c2c65d899)" d="M 406.940398 288.430125 
L 406.940398 22.318125 
" style="fill:none;stroke:#cccccc;stroke-linecap:round;stroke-width:0.8;"/>
     </g>
     <g id="text_7">
      <!-- 60 -->
      <defs>
       <path d="M 33.015625 40.375 
Q 26.375 40.375 22.484375 35.828125 
Q 18.609375 31.296875 18.609375 23.390625 
Q 18.609375 15.53125 22.484375 10.953125 
Q 26.375 6.390625 33.015625 6.390625 
Q 39.65625 6.390625 43.53125 10.953125 
Q 47.40625 15.53125 47.40625 23.390625 
Q 47.40625 31.296875 43.53125 35.828125 
Q 39.65625 40.375 33.015625 40.375 
z
M 52.59375 71.296875 
L 52.59375 62.3125 
Q 48.875 64.0625 45.09375 64.984375 
Q 41.3125 65.921875 37.59375 65.921875 
Q 27.828125 65.921875 22.671875 59.328125 
Q 17.53125 52.734375 16.796875 39.40625 
Q 19.671875 43.65625 24.015625 45.921875 
Q 28.375 48.1875 33.59375 48.1875 
Q 44.578125 48.1875 50.953125 41.515625 
Q 57.328125 34.859375 57.328125 23.390625 
Q 57.328125 12.15625 50.6875 5.359375 
Q 44.046875 -1.421875 33.015625 -1.421875 
Q 20.359375 -1.421875 13.671875 8.265625 
Q 6.984375 17.96875 6.984375 36.375 
Q 6.984375 53.65625 15.1875 63.9375 
Q 23.390625 74.21875 37.203125 74.21875 
Q 40.921875 74.21875 44.703125 73.484375 
Q 48.484375 72.75 52.59375 71.296875 
z
" id="DejaVuSans-54"/>
      </defs>
      <g style="fill:#262626;" transform="translate(400.577898 303.028562)scale(0.1 -0.1)">
       <use xlink:href="#DejaVuSans-54"/>
       <use x="63.623047" xlink:href="#DejaVuSans-48"/>
      </g>
     </g>
    </g>
    <g id="text_8">
     <!-- time (days) -->
     <defs>
      <path d="M 18.3125 70.21875 
L 18.3125 54.6875 
L 36.8125 54.6875 
L 36.8125 47.703125 
L 18.3125 47.703125 
L 18.3125 18.015625 
Q 18.3125 11.328125 20.140625 9.421875 
Q 21.96875 7.515625 27.59375 7.515625 
L 36.8125 7.515625 
L 36.8125 0 
L 27.59375 0 
Q 17.1875 0 13.234375 3.875 
Q 9.28125 7.765625 9.28125 18.015625 
L 9.28125 47.703125 
L 2.6875 47.703125 
L 2.6875 54.6875 
L 9.28125 54.6875 
L 9.28125 70.21875 
z
" id="DejaVuSans-116"/>
      <path d="M 9.421875 54.6875 
L 18.40625 54.6875 
L 18.40625 0 
L 9.421875 0 
z
M 9.421875 75.984375 
L 18.40625 75.984375 
L 18.40625 64.59375 
L 9.421875 64.59375 
z
" id="DejaVuSans-105"/>
      <path d="M 52 44.1875 
Q 55.375 50.25 60.0625 53.125 
Q 64.75 56 71.09375 56 
Q 79.640625 56 84.28125 50.015625 
Q 88.921875 44.046875 88.921875 33.015625 
L 88.921875 0 
L 79.890625 0 
L 79.890625 32.71875 
Q 79.890625 40.578125 77.09375 44.375 
Q 74.3125 48.1875 68.609375 48.1875 
Q 61.625 48.1875 57.5625 43.546875 
Q 53.515625 38.921875 53.515625 30.90625 
L 53.515625 0 
L 44.484375 0 
L 44.484375 32.71875 
Q 44.484375 40.625 41.703125 44.40625 
Q 38.921875 48.1875 33.109375 48.1875 
Q 26.21875 48.1875 22.15625 43.53125 
Q 18.109375 38.875 18.109375 30.90625 
L 18.109375 0 
L 9.078125 0 
L 9.078125 54.6875 
L 18.109375 54.6875 
L 18.109375 46.1875 
Q 21.1875 51.21875 25.484375 53.609375 
Q 29.78125 56 35.6875 56 
Q 41.65625 56 45.828125 52.96875 
Q 50 49.953125 52 44.1875 
z
" id="DejaVuSans-109"/>
      <path d="M 56.203125 29.59375 
L 56.203125 25.203125 
L 14.890625 25.203125 
Q 15.484375 15.921875 20.484375 11.0625 
Q 25.484375 6.203125 34.421875 6.203125 
Q 39.59375 6.203125 44.453125 7.46875 
Q 49.3125 8.734375 54.109375 11.28125 
L 54.109375 2.78125 
Q 49.265625 0.734375 44.1875 -0.34375 
Q 39.109375 -1.421875 33.890625 -1.421875 
Q 20.796875 -1.421875 13.15625 6.1875 
Q 5.515625 13.8125 5.515625 26.8125 
Q 5.515625 40.234375 12.765625 48.109375 
Q 20.015625 56 32.328125 56 
Q 43.359375 56 49.78125 48.890625 
Q 56.203125 41.796875 56.203125 29.59375 
z
M 47.21875 32.234375 
Q 47.125 39.59375 43.09375 43.984375 
Q 39.0625 48.390625 32.421875 48.390625 
Q 24.90625 48.390625 20.390625 44.140625 
Q 15.875 39.890625 15.1875 32.171875 
z
" id="DejaVuSans-101"/>
      <path id="DejaVuSans-32"/>
      <path d="M 31 75.875 
Q 24.46875 64.65625 21.28125 53.65625 
Q 18.109375 42.671875 18.109375 31.390625 
Q 18.109375 20.125 21.3125 9.0625 
Q 24.515625 -2 31 -13.1875 
L 23.1875 -13.1875 
Q 15.875 -1.703125 12.234375 9.375 
Q 8.59375 20.453125 8.59375 31.390625 
Q 8.59375 42.28125 12.203125 53.3125 
Q 15.828125 64.359375 23.1875 75.875 
z
" id="DejaVuSans-40"/>
      <path d="M 45.40625 46.390625 
L 45.40625 75.984375 
L 54.390625 75.984375 
L 54.390625 0 
L 45.40625 0 
L 45.40625 8.203125 
Q 42.578125 3.328125 38.25 0.953125 
Q 33.9375 -1.421875 27.875 -1.421875 
Q 17.96875 -1.421875 11.734375 6.484375 
Q 5.515625 14.40625 5.515625 27.296875 
Q 5.515625 40.1875 11.734375 48.09375 
Q 17.96875 56 27.875 56 
Q 33.9375 56 38.25 53.625 
Q 42.578125 51.265625 45.40625 46.390625 
z
M 14.796875 27.296875 
Q 14.796875 17.390625 18.875 11.75 
Q 22.953125 6.109375 30.078125 6.109375 
Q 37.203125 6.109375 41.296875 11.75 
Q 45.40625 17.390625 45.40625 27.296875 
Q 45.40625 37.203125 41.296875 42.84375 
Q 37.203125 48.484375 30.078125 48.484375 
Q 22.953125 48.484375 18.875 42.84375 
Q 14.796875 37.203125 14.796875 27.296875 
z
" id="DejaVuSans-100"/>
      <path d="M 34.28125 27.484375 
Q 23.390625 27.484375 19.1875 25 
Q 14.984375 22.515625 14.984375 16.5 
Q 14.984375 11.71875 18.140625 8.90625 
Q 21.296875 6.109375 26.703125 6.109375 
Q 34.1875 6.109375 38.703125 11.40625 
Q 43.21875 16.703125 43.21875 25.484375 
L 43.21875 27.484375 
z
M 52.203125 31.203125 
L 52.203125 0 
L 43.21875 0 
L 43.21875 8.296875 
Q 40.140625 3.328125 35.546875 0.953125 
Q 30.953125 -1.421875 24.3125 -1.421875 
Q 15.921875 -1.421875 10.953125 3.296875 
Q 6 8.015625 6 15.921875 
Q 6 25.140625 12.171875 29.828125 
Q 18.359375 34.515625 30.609375 34.515625 
L 43.21875 34.515625 
L 43.21875 35.40625 
Q 43.21875 41.609375 39.140625 45 
Q 35.0625 48.390625 27.6875 48.390625 
Q 23 48.390625 18.546875 47.265625 
Q 14.109375 46.140625 10.015625 43.890625 
L 10.015625 52.203125 
Q 14.9375 54.109375 19.578125 55.046875 
Q 24.21875 56 28.609375 56 
Q 40.484375 56 46.34375 49.84375 
Q 52.203125 43.703125 52.203125 31.203125 
z
" id="DejaVuSans-97"/>
      <path d="M 32.171875 -5.078125 
Q 28.375 -14.84375 24.75 -17.8125 
Q 21.140625 -20.796875 15.09375 -20.796875 
L 7.90625 -20.796875 
L 7.90625 -13.28125 
L 13.1875 -13.28125 
Q 16.890625 -13.28125 18.9375 -11.515625 
Q 21 -9.765625 23.484375 -3.21875 
L 25.09375 0.875 
L 2.984375 54.6875 
L 12.5 54.6875 
L 29.59375 11.921875 
L 46.6875 54.6875 
L 56.203125 54.6875 
z
" id="DejaVuSans-121"/>
      <path d="M 44.28125 53.078125 
L 44.28125 44.578125 
Q 40.484375 46.53125 36.375 47.5 
Q 32.28125 48.484375 27.875 48.484375 
Q 21.1875 48.484375 17.84375 46.4375 
Q 14.5 44.390625 14.5 40.28125 
Q 14.5 37.15625 16.890625 35.375 
Q 19.28125 33.59375 26.515625 31.984375 
L 29.59375 31.296875 
Q 39.15625 29.25 43.1875 25.515625 
Q 47.21875 21.78125 47.21875 15.09375 
Q 47.21875 7.46875 41.1875 3.015625 
Q 35.15625 -1.421875 24.609375 -1.421875 
Q 20.21875 -1.421875 15.453125 -0.5625 
Q 10.6875 0.296875 5.421875 2 
L 5.421875 11.28125 
Q 10.40625 8.6875 15.234375 7.390625 
Q 20.0625 6.109375 24.8125 6.109375 
Q 31.15625 6.109375 34.5625 8.28125 
Q 37.984375 10.453125 37.984375 14.40625 
Q 37.984375 18.0625 35.515625 20.015625 
Q 33.0625 21.96875 24.703125 23.78125 
L 21.578125 24.515625 
Q 13.234375 26.265625 9.515625 29.90625 
Q 5.8125 33.546875 5.8125 39.890625 
Q 5.8125 47.609375 11.28125 51.796875 
Q 16.75 56 26.8125 56 
Q 31.78125 56 36.171875 55.265625 
Q 40.578125 54.546875 44.28125 53.078125 
z
" id="DejaVuSans-115"/>
      <path d="M 8.015625 75.875 
L 15.828125 75.875 
Q 23.140625 64.359375 26.78125 53.3125 
Q 30.421875 42.28125 30.421875 31.390625 
Q 30.421875 20.453125 26.78125 9.375 
Q 23.140625 -1.703125 15.828125 -13.1875 
L 8.015625 -13.1875 
Q 14.5 -2 17.703125 9.0625 
Q 20.90625 20.125 20.90625 31.390625 
Q 20.90625 42.671875 17.703125 53.65625 
Q 14.5 64.65625 8.015625 75.875 
z
" id="DejaVuSans-41"/>
     </defs>
     <g style="fill:#262626;" transform="translate(216.024063 316.706687)scale(0.1 -0.1)">
      <use xlink:href="#DejaVuSans-116"/>
      <use x="39.208984" xlink:href="#DejaVuSans-105"/>
      <use x="66.992188" xlink:href="#DejaVuSans-109"/>
      <use x="164.404297" xlink:href="#DejaVuSans-101"/>
      <use x="225.927734" xlink:href="#DejaVuSans-32"/>
      <use x="257.714844" xlink:href="#DejaVuSans-40"/>
      <use x="296.728516" xlink:href="#DejaVuSans-100"/>
      <use x="360.205078" xlink:href="#DejaVuSans-97"/>
      <use x="421.484375" xlink:href="#DejaVuSans-121"/>
      <use x="480.664062" xlink:href="#DejaVuSans-115"/>
      <use x="532.763672" xlink:href="#DejaVuSans-41"/>
     </g>
    </g>
   </g>
   <g id="matplotlib.axis_2">
    <g id="ytick_1">
     <g id="line2d_8">
      <path clip-path="url(#p2c2c65d899)" d="M 66.053125 276.334125 
L 423.173125 276.334125 
" style="fill:none;stroke:#cccccc;stroke-linecap:round;stroke-width:0.8;"/>
     </g>
     <g id="text_9">
      <!-- 0 -->
      <g style="fill:#262626;" transform="translate(52.690625 280.133344)scale(0.1 -0.1)">
       <use xlink:href="#DejaVuSans-48"/>
      </g>
     </g>
    </g>
    <g id="ytick_2">
     <g id="line2d_9">
      <path clip-path="url(#p2c2c65d899)" d="M 66.053125 236.784033 
L 423.173125 236.784033 
" style="fill:none;stroke:#cccccc;stroke-linecap:round;stroke-width:0.8;"/>
     </g>
     <g id="text_10">
      <!-- 20000 -->
      <g style="fill:#262626;" transform="translate(27.240625 240.583252)scale(0.1 -0.1)">
       <use xlink:href="#DejaVuSans-50"/>
       <use x="63.623047" xlink:href="#DejaVuSans-48"/>
       <use x="127.246094" xlink:href="#DejaVuSans-48"/>
       <use x="190.869141" xlink:href="#DejaVuSans-48"/>
       <use x="254.492188" xlink:href="#DejaVuSans-48"/>
      </g>
     </g>
    </g>
    <g id="ytick_3">
     <g id="line2d_10">
      <path clip-path="url(#p2c2c65d899)" d="M 66.053125 197.233942 
L 423.173125 197.233942 
" style="fill:none;stroke:#cccccc;stroke-linecap:round;stroke-width:0.8;"/>
     </g>
     <g id="text_11">
      <!-- 40000 -->
      <g style="fill:#262626;" transform="translate(27.240625 201.033161)scale(0.1 -0.1)">
       <use xlink:href="#DejaVuSans-52"/>
       <use x="63.623047" xlink:href="#DejaVuSans-48"/>
       <use x="127.246094" xlink:href="#DejaVuSans-48"/>
       <use x="190.869141" xlink:href="#DejaVuSans-48"/>
       <use x="254.492188" xlink:href="#DejaVuSans-48"/>
      </g>
     </g>
    </g>
    <g id="ytick_4">
     <g id="line2d_11">
      <path clip-path="url(#p2c2c65d899)" d="M 66.053125 157.68385 
L 423.173125 157.68385 
" style="fill:none;stroke:#cccccc;stroke-linecap:round;stroke-width:0.8;"/>
     </g>
     <g id="text_12">
      <!-- 60000 -->
      <g style="fill:#262626;" transform="translate(27.240625 161.483069)scale(0.1 -0.1)">
       <use xlink:href="#DejaVuSans-54"/>
       <use x="63.623047" xlink:href="#DejaVuSans-48"/>
       <use x="127.246094" xlink:href="#DejaVuSans-48"/>
       <use x="190.869141" xlink:href="#DejaVuSans-48"/>
       <use x="254.492188" xlink:href="#DejaVuSans-48"/>
      </g>
     </g>
    </g>
    <g id="ytick_5">
     <g id="line2d_12">
      <path clip-path="url(#p2c2c65d899)" d="M 66.053125 118.133759 
L 423.173125 118.133759 
" style="fill:none;stroke:#cccccc;stroke-linecap:round;stroke-width:0.8;"/>
     </g>
     <g id="text_13">
      <!-- 80000 -->
      <defs>
       <path d="M 31.78125 34.625 
Q 24.75 34.625 20.71875 30.859375 
Q 16.703125 27.09375 16.703125 20.515625 
Q 16.703125 13.921875 20.71875 10.15625 
Q 24.75 6.390625 31.78125 6.390625 
Q 38.8125 6.390625 42.859375 10.171875 
Q 46.921875 13.96875 46.921875 20.515625 
Q 46.921875 27.09375 42.890625 30.859375 
Q 38.875 34.625 31.78125 34.625 
z
M 21.921875 38.8125 
Q 15.578125 40.375 12.03125 44.71875 
Q 8.5 49.078125 8.5 55.328125 
Q 8.5 64.0625 14.71875 69.140625 
Q 20.953125 74.21875 31.78125 74.21875 
Q 42.671875 74.21875 48.875 69.140625 
Q 55.078125 64.0625 55.078125 55.328125 
Q 55.078125 49.078125 51.53125 44.71875 
Q 48 40.375 41.703125 38.8125 
Q 48.828125 37.15625 52.796875 32.3125 
Q 56.78125 27.484375 56.78125 20.515625 
Q 56.78125 9.90625 50.3125 4.234375 
Q 43.84375 -1.421875 31.78125 -1.421875 
Q 19.734375 -1.421875 13.25 4.234375 
Q 6.78125 9.90625 6.78125 20.515625 
Q 6.78125 27.484375 10.78125 32.3125 
Q 14.796875 37.15625 21.921875 38.8125 
z
M 18.3125 54.390625 
Q 18.3125 48.734375 21.84375 45.5625 
Q 25.390625 42.390625 31.78125 42.390625 
Q 38.140625 42.390625 41.71875 45.5625 
Q 45.3125 48.734375 45.3125 54.390625 
Q 45.3125 60.0625 41.71875 63.234375 
Q 38.140625 66.40625 31.78125 66.40625 
Q 25.390625 66.40625 21.84375 63.234375 
Q 18.3125 60.0625 18.3125 54.390625 
z
" id="DejaVuSans-56"/>
      </defs>
      <g style="fill:#262626;" transform="translate(27.240625 121.932978)scale(0.1 -0.1)">
       <use xlink:href="#DejaVuSans-56"/>
       <use x="63.623047" xlink:href="#DejaVuSans-48"/>
       <use x="127.246094" xlink:href="#DejaVuSans-48"/>
       <use x="190.869141" xlink:href="#DejaVuSans-48"/>
       <use x="254.492188" xlink:href="#DejaVuSans-48"/>
      </g>
     </g>
    </g>
    <g id="ytick_6">
     <g id="line2d_13">
      <path clip-path="url(#p2c2c65d899)" d="M 66.053125 78.583667 
L 423.173125 78.583667 
" style="fill:none;stroke:#cccccc;stroke-linecap:round;stroke-width:0.8;"/>
     </g>
     <g id="text_14">
      <!-- 100000 -->
      <g style="fill:#262626;" transform="translate(20.878125 82.382886)scale(0.1 -0.1)">
       <use xlink:href="#DejaVuSans-49"/>
       <use x="63.623047" xlink:href="#DejaVuSans-48"/>
       <use x="127.246094" xlink:href="#DejaVuSans-48"/>
       <use x="190.869141" xlink:href="#DejaVuSans-48"/>
       <use x="254.492188" xlink:href="#DejaVuSans-48"/>
       <use x="318.115234" xlink:href="#DejaVuSans-48"/>
      </g>
     </g>
    </g>
    <g id="ytick_7">
     <g id="line2d_14">
      <path clip-path="url(#p2c2c65d899)" d="M 66.053125 39.033576 
L 423.173125 39.033576 
" style="fill:none;stroke:#cccccc;stroke-linecap:round;stroke-width:0.8;"/>
     </g>
     <g id="text_15">
      <!-- 120000 -->
      <g style="fill:#262626;" transform="translate(20.878125 42.832794)scale(0.1 -0.1)">
       <use xlink:href="#DejaVuSans-49"/>
       <use x="63.623047" xlink:href="#DejaVuSans-50"/>
       <use x="127.246094" xlink:href="#DejaVuSans-48"/>
       <use x="190.869141" xlink:href="#DejaVuSans-48"/>
       <use x="254.492188" xlink:href="#DejaVuSans-48"/>
       <use x="318.115234" xlink:href="#DejaVuSans-48"/>
      </g>
     </g>
    </g>
    <g id="text_16">
     <!-- cells number -->
     <defs>
      <path d="M 48.78125 52.59375 
L 48.78125 44.1875 
Q 44.96875 46.296875 41.140625 47.34375 
Q 37.3125 48.390625 33.40625 48.390625 
Q 24.65625 48.390625 19.8125 42.84375 
Q 14.984375 37.3125 14.984375 27.296875 
Q 14.984375 17.28125 19.8125 11.734375 
Q 24.65625 6.203125 33.40625 6.203125 
Q 37.3125 6.203125 41.140625 7.25 
Q 44.96875 8.296875 48.78125 10.40625 
L 48.78125 2.09375 
Q 45.015625 0.34375 40.984375 -0.53125 
Q 36.96875 -1.421875 32.421875 -1.421875 
Q 20.0625 -1.421875 12.78125 6.34375 
Q 5.515625 14.109375 5.515625 27.296875 
Q 5.515625 40.671875 12.859375 48.328125 
Q 20.21875 56 33.015625 56 
Q 37.15625 56 41.109375 55.140625 
Q 45.0625 54.296875 48.78125 52.59375 
z
" id="DejaVuSans-99"/>
      <path d="M 9.421875 75.984375 
L 18.40625 75.984375 
L 18.40625 0 
L 9.421875 0 
z
" id="DejaVuSans-108"/>
      <path d="M 54.890625 33.015625 
L 54.890625 0 
L 45.90625 0 
L 45.90625 32.71875 
Q 45.90625 40.484375 42.875 44.328125 
Q 39.84375 48.1875 33.796875 48.1875 
Q 26.515625 48.1875 22.3125 43.546875 
Q 18.109375 38.921875 18.109375 30.90625 
L 18.109375 0 
L 9.078125 0 
L 9.078125 54.6875 
L 18.109375 54.6875 
L 18.109375 46.1875 
Q 21.34375 51.125 25.703125 53.5625 
Q 30.078125 56 35.796875 56 
Q 45.21875 56 50.046875 50.171875 
Q 54.890625 44.34375 54.890625 33.015625 
z
" id="DejaVuSans-110"/>
      <path d="M 8.5 21.578125 
L 8.5 54.6875 
L 17.484375 54.6875 
L 17.484375 21.921875 
Q 17.484375 14.15625 20.5 10.265625 
Q 23.53125 6.390625 29.59375 6.390625 
Q 36.859375 6.390625 41.078125 11.03125 
Q 45.3125 15.671875 45.3125 23.6875 
L 45.3125 54.6875 
L 54.296875 54.6875 
L 54.296875 0 
L 45.3125 0 
L 45.3125 8.40625 
Q 42.046875 3.421875 37.71875 1 
Q 33.40625 -1.421875 27.6875 -1.421875 
Q 18.265625 -1.421875 13.375 4.4375 
Q 8.5 10.296875 8.5 21.578125 
z
M 31.109375 56 
z
" id="DejaVuSans-117"/>
      <path d="M 48.6875 27.296875 
Q 48.6875 37.203125 44.609375 42.84375 
Q 40.53125 48.484375 33.40625 48.484375 
Q 26.265625 48.484375 22.1875 42.84375 
Q 18.109375 37.203125 18.109375 27.296875 
Q 18.109375 17.390625 22.1875 11.75 
Q 26.265625 6.109375 33.40625 6.109375 
Q 40.53125 6.109375 44.609375 11.75 
Q 48.6875 17.390625 48.6875 27.296875 
z
M 18.109375 46.390625 
Q 20.953125 51.265625 25.265625 53.625 
Q 29.59375 56 35.59375 56 
Q 45.5625 56 51.78125 48.09375 
Q 58.015625 40.1875 58.015625 27.296875 
Q 58.015625 14.40625 51.78125 6.484375 
Q 45.5625 -1.421875 35.59375 -1.421875 
Q 29.59375 -1.421875 25.265625 0.953125 
Q 20.953125 3.328125 18.109375 8.203125 
L 18.109375 0 
L 9.078125 0 
L 9.078125 75.984375 
L 18.109375 75.984375 
z
" id="DejaVuSans-98"/>
      <path d="M 41.109375 46.296875 
Q 39.59375 47.171875 37.8125 47.578125 
Q 36.03125 48 33.890625 48 
Q 26.265625 48 22.1875 43.046875 
Q 18.109375 38.09375 18.109375 28.8125 
L 18.109375 0 
L 9.078125 0 
L 9.078125 54.6875 
L 18.109375 54.6875 
L 18.109375 46.1875 
Q 20.953125 51.171875 25.484375 53.578125 
Q 30.03125 56 36.53125 56 
Q 37.453125 56 38.578125 55.875 
Q 39.703125 55.765625 41.0625 55.515625 
z
" id="DejaVuSans-114"/>
     </defs>
     <g style="fill:#262626;" transform="translate(14.798438 187.685844)rotate(-90)scale(0.1 -0.1)">
      <use xlink:href="#DejaVuSans-99"/>
      <use x="54.980469" xlink:href="#DejaVuSans-101"/>
      <use x="116.503906" xlink:href="#DejaVuSans-108"/>
      <use x="144.287109" xlink:href="#DejaVuSans-108"/>
      <use x="172.070312" xlink:href="#DejaVuSans-115"/>
      <use x="224.169922" xlink:href="#DejaVuSans-32"/>
      <use x="255.957031" xlink:href="#DejaVuSans-110"/>
      <use x="319.335938" xlink:href="#DejaVuSans-117"/>
      <use x="382.714844" xlink:href="#DejaVuSans-109"/>
      <use x="480.126953" xlink:href="#DejaVuSans-98"/>
      <use x="543.603516" xlink:href="#DejaVuSans-101"/>
      <use x="605.126953" xlink:href="#DejaVuSans-114"/>
     </g>
    </g>
   </g>
   <g id="line2d_15">
    <path clip-path="url(#p2c2c65d899)" d="M 82.285852 276.334125 
L 83.368034 275.471933 
L 86.61458 272.849762 
L 89.320034 270.773382 
L 95.272034 266.215234 
L 109.340398 255.752257 
L 115.833489 250.717531 
L 117.997852 249.113774 
L 141.264761 231.12046 
L 145.593489 227.873398 
L 147.757852 226.356652 
L 159.661852 217.398556 
L 166.696034 212.116641 
L 168.860398 210.544525 
L 173.730216 206.874277 
L 175.89458 205.116275 
L 178.058943 203.463081 
L 179.682216 202.306241 
L 181.84658 200.686665 
L 195.914943 189.901355 
L 198.620398 187.862548 
L 201.325852 185.738708 
L 255.434943 144.923013 
L 256.517125 144.141899 
L 260.304761 141.27254 
L 265.17458 137.693257 
L 278.160761 128.149819 
L 286.277125 122.345844 
L 288.98258 120.514674 
L 293.311307 117.392195 
L 296.557852 115.159592 
L 297.640034 114.370568 
L 303.050943 110.463019 
L 307.920761 106.850118 
L 310.626216 104.900298 
L 321.989125 96.687722 
L 325.776761 93.909328 
L 330.64658 90.395302 
L 332.269852 89.214732 
L 336.057489 86.390855 
L 337.680761 85.16678 
L 340.386216 83.173455 
L 342.55058 81.545969 
L 344.714943 79.916505 
L 351.749125 74.937149 
L 354.45458 73.109935 
L 377.180398 56.805409 
L 379.344761 55.195721 
L 382.050216 53.400146 
L 384.75567 51.4879 
L 386.378943 50.416092 
L 388.002216 49.296824 
L 406.940398 36.116756 
L 406.940398 36.116756 
" style="fill:none;stroke:#000080;stroke-linecap:round;stroke-width:1.5;"/>
   </g>
   <g id="line2d_16">
    <path clip-path="url(#p2c2c65d899)" d="M 82.285852 276.334125 
L 86.61458 272.719247 
L 91.484398 268.930348 
L 95.272034 266.100539 
L 96.895307 264.821093 
L 102.847307 260.272833 
L 105.01167 258.607774 
L 127.737489 240.968433 
L 133.148398 236.722731 
L 135.312761 234.974617 
L 136.394943 234.136155 
L 139.641489 231.476411 
L 140.72367 230.730892 
L 148.840034 224.521528 
L 153.168761 221.248757 
L 156.956398 218.312163 
L 159.661852 216.253581 
L 166.154943 211.414627 
L 167.778216 210.206372 
L 171.024761 207.698896 
L 179.682216 201.036683 
L 181.305489 199.869955 
L 182.928761 198.588533 
L 185.093125 196.953136 
L 187.79858 194.894554 
L 188.880761 194.101575 
L 190.504034 192.764782 
L 209.442216 178.510929 
L 213.229852 175.542694 
L 216.476398 173.181554 
L 229.46258 163.537264 
L 232.709125 160.978373 
L 235.41458 158.985048 
L 237.037852 157.695715 
L 242.989852 153.392665 
L 244.072034 152.668899 
L 247.31858 150.309736 
L 254.352761 145.134606 
L 255.434943 144.329762 
L 259.76367 141.039194 
L 260.845852 140.301585 
L 267.880034 135.055265 
L 269.503307 133.87074 
L 275.996398 129.118797 
L 279.242943 126.781386 
L 281.407307 125.171698 
L 285.194943 122.379461 
L 287.359307 120.74802 
L 288.441489 120.006456 
L 294.393489 115.499723 
L 296.557852 113.913764 
L 300.88658 110.793262 
L 311.708398 103.005849 
L 315.496034 100.126602 
L 334.975307 86.272205 
L 337.13967 84.795009 
L 344.714943 79.323254 
L 349.584761 75.747926 
L 351.749125 74.195585 
L 356.077852 71.098812 
L 358.783307 69.372451 
L 369.605125 61.737306 
L 378.26258 55.753377 
L 379.885852 54.493706 
L 384.21458 51.300037 
L 386.920034 49.480732 
L 406.940398 35.6382 
L 406.940398 35.6382 
" style="fill:none;stroke:#0000f1;stroke-linecap:round;stroke-width:1.5;"/>
   </g>
   <g id="line2d_17">
    <path clip-path="url(#p2c2c65d899)" d="M 82.285852 276.334125 
L 90.402216 270.197928 
L 95.272034 266.761025 
L 100.141852 263.055182 
L 108.258216 257.029725 
L 109.340398 256.276296 
L 111.504761 254.78328 
L 114.751307 252.246142 
L 122.32658 246.341313 
L 126.114216 243.416584 
L 128.81967 241.346137 
L 132.066216 238.856458 
L 136.936034 235.207962 
L 148.298943 226.534627 
L 149.381125 225.759445 
L 150.463307 224.913073 
L 154.250943 222.192027 
L 157.497489 219.684551 
L 176.43567 205.23097 
L 178.600034 203.585687 
L 183.469852 199.903573 
L 185.634216 198.274109 
L 186.716398 197.540455 
L 191.045125 194.269663 
L 197.538216 189.403024 
L 203.490216 185.044604 
L 206.19567 182.954381 
L 218.640761 173.577055 
L 225.674943 168.47707 
L 227.839307 166.936594 
L 229.46258 165.690766 
L 232.168034 163.727104 
L 235.95567 160.879498 
L 238.120034 159.386482 
L 241.36658 156.977881 
L 247.31858 152.627371 
L 253.81167 147.96046 
L 257.599307 145.245347 
L 259.22258 143.967879 
L 261.928034 142.014104 
L 263.010216 141.27254 
L 266.256761 138.899534 
L 273.832034 133.378342 
L 277.07858 130.987539 
L 278.701852 129.864316 
L 281.948398 127.554591 
L 284.112761 125.917217 
L 290.064761 121.493539 
L 306.83858 109.304201 
L 309.544034 107.342516 
L 312.79058 105.068386 
L 313.872761 104.291227 
L 319.824761 100.007952 
L 322.530216 98.095705 
L 327.400034 94.500602 
L 331.18767 91.825038 
L 333.352034 90.290494 
L 337.13967 87.652503 
L 338.762943 86.543123 
L 340.386216 85.32498 
L 342.009489 84.237353 
L 343.09167 83.426576 
L 345.256034 81.963223 
L 351.208034 77.73334 
L 360.94767 70.93468 
L 364.194216 68.541899 
L 371.228398 63.740518 
L 378.26258 58.786869 
L 379.344761 58.039372 
L 382.591307 55.719759 
L 386.378943 53.194486 
L 398.282943 44.970044 
L 399.365125 44.18893 
L 401.529489 42.658342 
L 404.234943 40.785645 
L 406.940398 38.988093 
L 406.940398 38.988093 
" style="fill:none;stroke:#004cff;stroke-linecap:round;stroke-width:1.5;"/>
   </g>
   <g id="line2d_18">
    <path clip-path="url(#p2c2c65d899)" d="M 82.285852 276.334125 
L 89.320034 270.890055 
L 96.354216 265.797981 
L 98.51858 264.000429 
L 101.765125 261.659064 
L 104.47058 259.614324 
L 110.96367 255.020581 
L 114.210216 252.499262 
L 120.703307 247.622736 
L 121.785489 246.839644 
L 132.066216 239.093759 
L 133.148398 238.273094 
L 137.477125 234.871787 
L 139.100398 233.582454 
L 146.67567 227.899105 
L 160.202943 217.709024 
L 161.826216 216.506702 
L 164.53167 214.440209 
L 165.613852 213.579995 
L 168.319307 211.6104 
L 174.812398 206.611269 
L 175.89458 205.804447 
L 179.141125 203.318723 
L 201.325852 186.589035 
L 207.277852 182.032864 
L 208.901125 180.814721 
L 212.688761 178.030395 
L 217.017489 174.913848 
L 219.181852 173.248789 
L 221.887307 171.257442 
L 224.05167 169.566675 
L 225.674943 168.376218 
L 228.380398 166.448151 
L 253.27058 148.094931 
L 258.140398 144.638253 
L 261.928034 141.713523 
L 265.17458 139.449281 
L 269.503307 136.229903 
L 292.229125 119.808705 
L 293.311307 119.051321 
L 296.557852 116.632833 
L 298.722216 115.159592 
L 300.88658 113.621093 
L 331.728761 92.078158 
L 333.893125 90.533727 
L 336.057489 89.074329 
L 350.125852 79.309411 
L 352.831307 77.363547 
L 354.45458 76.301627 
L 388.002216 52.885995 
L 390.16658 51.367272 
L 391.248761 50.659325 
L 392.872034 49.516327 
L 395.036398 48.025289 
L 397.741852 46.077447 
L 400.447307 44.22057 
L 403.152761 42.298436 
L 404.234943 41.525231 
L 405.858216 40.457379 
L 406.940398 39.65649 
L 406.940398 39.65649 
" style="fill:none;stroke:#00b0ff;stroke-linecap:round;stroke-width:1.5;"/>
   </g>
   <g id="line2d_19">
    <path clip-path="url(#p2c2c65d899)" d="M 82.285852 276.334125 
L 89.861125 270.377881 
L 95.813125 265.863238 
L 97.977489 264.168517 
L 102.306216 260.917499 
L 103.388398 260.146273 
L 107.717125 256.91503 
L 112.586943 253.327837 
L 113.669125 252.489375 
L 126.655307 242.578122 
L 129.901852 239.977703 
L 132.066216 238.413497 
L 133.689489 237.187444 
L 142.888034 230.212786 
L 146.67567 227.264326 
L 152.62767 222.807031 
L 155.874216 220.22441 
L 167.778216 211.007261 
L 171.024761 208.483965 
L 174.271307 206.043725 
L 208.360034 180.518096 
L 213.770943 176.551222 
L 222.969489 169.614135 
L 236.496761 159.647512 
L 241.36658 155.959466 
L 263.010216 139.961454 
L 265.17458 138.278598 
L 266.797852 137.107915 
L 274.373125 131.428522 
L 275.455307 130.718598 
L 278.160761 128.630353 
L 310.626216 105.024881 
L 315.496034 101.497013 
L 316.578216 100.755449 
L 318.201489 99.566968 
L 320.906943 97.581554 
L 322.530216 96.393073 
L 328.482216 92.147371 
L 330.105489 91.016239 
L 332.810943 89.135632 
L 342.55058 82.336971 
L 345.797125 80.167648 
L 346.879307 79.388512 
L 348.50258 78.314727 
L 372.31058 61.349715 
L 373.933852 60.24429 
L 376.639307 58.383458 
L 380.968034 55.419179 
L 383.132398 53.900455 
L 385.837852 52.043578 
L 388.002216 50.558472 
L 389.625489 49.496552 
L 391.789852 47.997604 
L 402.07058 40.882542 
L 403.152761 40.069788 
L 404.776034 38.94261 
L 406.940398 37.404112 
L 406.940398 37.404112 
" style="fill:none;stroke:#29ffce;stroke-linecap:round;stroke-width:1.5;"/>
   </g>
   <g id="line2d_20">
    <path clip-path="url(#p2c2c65d899)" d="M 82.285852 276.334125 
L 83.909125 274.991399 
L 87.696761 272.080513 
L 88.778943 271.176793 
L 94.189852 267.116976 
L 101.765125 261.568098 
L 113.128034 253.110311 
L 114.210216 252.356882 
L 121.785489 246.612231 
L 123.408761 245.437593 
L 125.573125 243.79231 
L 157.497489 219.18622 
L 163.99058 214.329469 
L 173.189125 207.192655 
L 174.812398 205.940895 
L 182.38767 200.249636 
L 195.914943 190.124813 
L 198.079307 188.536877 
L 202.949125 184.856741 
L 233.791307 161.878138 
L 235.95567 160.274381 
L 238.120034 158.569772 
L 250.024034 149.77581 
L 254.352761 146.475354 
L 256.517125 144.962563 
L 258.140398 143.768151 
L 261.386943 141.444583 
L 264.633489 139.063667 
L 267.338943 137.028815 
L 290.605852 120.182454 
L 292.770216 118.578697 
L 296.016761 116.201737 
L 299.263307 113.856416 
L 301.968761 111.871002 
L 308.461852 107.229799 
L 309.544034 106.527784 
L 314.954943 102.558933 
L 319.28367 99.458206 
L 324.153489 95.835417 
L 326.858943 94.067528 
L 334.434216 88.54238 
L 336.057489 87.419158 
L 338.221852 85.941962 
L 342.55058 82.683034 
L 343.632761 81.91774 
L 346.338216 79.874978 
L 352.831307 75.310897 
L 354.45458 74.272707 
L 383.132398 54.268271 
L 388.002216 51.023186 
L 392.330943 47.965964 
L 399.906216 42.763149 
L 402.07058 41.311661 
L 404.776034 39.334156 
L 406.940398 37.936061 
L 406.940398 37.936061 
" style="fill:none;stroke:#7dff7a;stroke-linecap:round;stroke-width:1.5;"/>
   </g>
   <g id="line2d_21">
    <path clip-path="url(#p2c2c65d899)" d="M 82.285852 276.334125 
L 92.025489 268.600105 
L 95.272034 266.242919 
L 105.01167 258.9044 
L 108.258216 256.574899 
L 115.292398 251.35231 
L 136.936034 234.553408 
L 139.100398 232.834957 
L 143.429125 229.500884 
L 145.052398 228.201664 
L 166.696034 211.966351 
L 168.319307 210.726456 
L 173.730216 206.795177 
L 175.353489 205.703594 
L 176.43567 204.896772 
L 180.223307 202.061031 
L 181.84658 200.921988 
L 186.716398 197.218122 
L 188.33967 195.930766 
L 191.045125 193.844499 
L 225.674943 167.864044 
L 227.839307 166.373005 
L 230.00367 164.868124 
L 293.311307 118.491687 
L 296.557852 116.087042 
L 301.42767 112.509736 
L 304.133125 110.583646 
L 306.83858 108.667444 
L 309.544034 106.743332 
L 311.708398 105.141554 
L 316.037125 102.078399 
L 320.906943 98.708731 
L 323.071307 97.209783 
L 327.400034 94.136741 
L 332.269852 90.608873 
L 333.893125 89.386775 
L 337.680761 86.727031 
L 350.125852 77.859901 
L 351.749125 76.774251 
L 353.372398 75.672781 
L 356.618943 73.428313 
L 358.783307 71.893769 
L 363.653125 68.346126 
L 366.35858 66.485294 
L 369.064034 64.56316 
L 371.769489 62.811091 
L 377.721489 58.642511 
L 382.591307 55.183856 
L 391.789852 48.909234 
L 393.954216 47.410285 
L 405.317125 39.527952 
L 406.940398 38.349359 
L 406.940398 38.349359 
" style="fill:none;stroke:#ceff29;stroke-linecap:round;stroke-width:1.5;"/>
   </g>
   <g id="line2d_22">
    <path clip-path="url(#p2c2c65d899)" d="M 82.285852 276.334125 
L 83.909125 274.975579 
L 86.61458 272.814167 
L 87.696761 271.938132 
L 88.778943 271.081873 
L 91.484398 269.092503 
L 96.895307 264.927879 
L 101.765125 261.396055 
L 103.929489 259.756704 
L 106.093852 258.154925 
L 116.91567 249.869181 
L 120.703307 247.082877 
L 122.86767 245.378268 
L 125.032034 243.713209 
L 126.655307 242.465404 
L 129.360761 240.442417 
L 131.525125 238.749673 
L 133.148398 237.42079 
L 143.970216 228.88588 
L 145.593489 227.687512 
L 148.840034 225.162239 
L 152.08658 222.571708 
L 153.709852 221.39707 
L 156.956398 218.755124 
L 161.826216 215.074988 
L 167.237125 210.957824 
L 173.189125 206.342328 
L 174.812398 205.108365 
L 184.010943 197.876631 
L 186.716398 195.804206 
L 189.421852 193.810881 
L 192.668398 191.364708 
L 194.29167 190.138655 
L 223.51058 167.899639 
L 225.674943 166.270175 
L 227.298216 165.07774 
L 228.921489 163.796317 
L 231.626943 161.688297 
L 238.120034 156.681256 
L 239.202216 155.821041 
L 242.448761 153.477698 
L 246.777489 150.185153 
L 248.941852 148.575464 
L 252.188398 146.149066 
L 254.352761 144.49785 
L 263.551307 137.635909 
L 265.17458 136.439519 
L 268.962216 133.65717 
L 273.290943 130.465477 
L 283.57167 123.043903 
L 286.277125 121.084196 
L 288.441489 119.425069 
L 292.229125 116.67436 
L 296.557852 113.518263 
L 300.345489 110.724049 
L 304.133125 107.953565 
L 314.954943 99.990154 
L 317.660398 98.040335 
L 320.365852 96.003505 
L 321.989125 94.868417 
L 325.23567 92.436087 
L 329.023307 89.730861 
L 330.64658 88.58984 
L 334.975307 85.439676 
L 339.845125 81.947403 
L 364.194216 64.45242 
L 371.769489 59.107225 
L 373.933852 57.594434 
L 377.180398 55.387539 
L 384.21458 50.590112 
L 386.920034 48.731258 
L 393.954216 43.704442 
L 397.200761 41.408559 
L 400.447307 39.033576 
L 403.693852 36.664525 
L 406.940398 34.414125 
L 406.940398 34.414125 
" style="fill:none;stroke:#ffc400;stroke-linecap:round;stroke-width:1.5;"/>
   </g>
   <g id="line2d_23">
    <path clip-path="url(#p2c2c65d899)" d="M 82.285852 276.334125 
L 88.778943 271.050233 
L 92.025489 268.679205 
L 95.272034 266.314109 
L 96.354216 265.50531 
L 98.51858 263.860026 
L 101.765125 261.479111 
L 103.929489 259.736929 
L 105.01167 259.017117 
L 106.093852 258.105488 
L 109.881489 255.198556 
L 112.045852 253.636327 
L 113.128034 252.805776 
L 115.292398 251.162469 
L 118.538943 248.637196 
L 125.032034 243.705299 
L 129.360761 240.355407 
L 130.984034 239.075961 
L 168.860398 209.824714 
L 170.48367 208.580863 
L 174.812398 205.333801 
L 179.682216 201.675417 
L 183.469852 198.819901 
L 186.175307 196.814711 
L 188.880761 194.740309 
L 190.504034 193.534031 
L 195.914943 189.434664 
L 200.784761 185.861313 
L 201.866943 185.086131 
L 203.490216 183.854146 
L 210.524398 178.726477 
L 211.60658 177.921632 
L 213.770943 176.248663 
L 215.394216 175.149171 
L 240.825489 155.648998 
L 242.989852 154.047219 
L 244.613125 152.811279 
L 253.81167 146.202459 
L 256.517125 144.100371 
L 258.681489 142.518368 
L 265.17458 137.673482 
L 266.256761 136.947737 
L 268.421125 135.357824 
L 272.749852 132.209636 
L 275.455307 130.226199 
L 277.07858 129.004101 
L 281.407307 125.996317 
L 284.112761 123.91005 
L 287.900398 121.096061 
L 289.52367 119.980748 
L 291.688034 118.404677 
L 294.393489 116.512205 
L 298.181125 113.777316 
L 302.509852 110.617264 
L 305.756398 108.266011 
L 317.119307 100.091007 
L 320.906943 97.543981 
L 322.530216 96.395051 
L 325.23567 94.621229 
L 346.879307 79.252064 
L 365.276398 66.079906 
L 366.89967 64.895381 
L 370.146216 62.749788 
L 377.180398 57.976092 
L 378.26258 57.313628 
L 381.509125 55.035543 
L 384.21458 53.243924 
L 388.543307 50.305352 
L 390.16658 49.134669 
L 394.495307 46.087335 
L 395.577489 45.379388 
L 399.365125 42.790834 
L 405.317125 38.703332 
L 406.940398 37.546492 
L 406.940398 37.546492 
" style="fill:none;stroke:#ff6800;stroke-linecap:round;stroke-width:1.5;"/>
   </g>
   <g id="line2d_24">
    <path clip-path="url(#p2c2c65d899)" d="M 82.285852 276.334125 
L 98.51858 263.974721 
L 103.388398 260.510133 
L 107.176034 257.575517 
L 109.340398 255.938143 
L 119.080034 248.556118 
L 121.244398 246.908857 
L 123.408761 245.176563 
L 127.737489 241.848423 
L 128.81967 240.978321 
L 129.901852 240.209071 
L 132.607307 238.112917 
L 136.936034 234.852011 
L 138.559307 233.627936 
L 146.13458 227.810118 
L 147.216761 226.860915 
L 148.840034 225.63684 
L 165.613852 213.085619 
L 180.764398 201.778247 
L 182.928761 200.156694 
L 185.093125 198.525252 
L 193.75058 191.865017 
L 195.373852 190.714109 
L 198.079307 188.66937 
L 200.24367 187.085388 
L 201.325852 186.205399 
L 202.408034 185.339252 
L 204.031307 184.079581 
L 205.65458 182.847596 
L 208.901125 180.478546 
L 215.935307 175.242113 
L 217.55858 173.964646 
L 220.264034 171.915951 
L 221.887307 170.709673 
L 222.969489 169.912739 
L 230.544761 164.419231 
L 233.250216 162.410086 
L 235.41458 160.73514 
L 241.36658 156.414292 
L 245.154216 153.469788 
L 247.85967 151.468553 
L 252.188398 148.344096 
L 257.599307 144.373267 
L 259.76367 142.710186 
L 261.386943 141.460403 
L 263.551307 139.856647 
L 265.71567 138.333968 
L 301.42767 112.359445 
L 304.133125 110.310751 
L 307.920761 107.530379 
L 318.201489 100.193837 
L 319.28367 99.392948 
L 327.400034 93.715532 
L 330.64658 91.257494 
L 332.810943 89.758546 
L 337.13967 86.719121 
L 338.221852 85.951849 
L 341.468398 83.523474 
L 345.256034 80.909213 
L 346.879307 79.74644 
L 350.125852 77.581072 
L 352.290216 76.042574 
L 359.324398 71.270855 
L 360.94767 70.042825 
L 363.653125 68.059388 
L 366.35858 66.117478 
L 375.557125 59.447355 
L 377.721489 57.982025 
L 387.461125 51.266419 
L 389.625489 49.793178 
L 391.248761 48.606675 
L 392.330943 47.950144 
L 400.988398 41.972147 
L 406.940398 37.74622 
L 406.940398 37.74622 
" style="fill:none;stroke:#f10800;stroke-linecap:round;stroke-width:1.5;"/>
   </g>
   <g id="patch_3">
    <path d="M 66.053125 288.430125 
L 66.053125 22.318125 
" style="fill:none;stroke:#cccccc;stroke-linecap:square;stroke-linejoin:miter;stroke-width:0.8;"/>
   </g>
   <g id="patch_4">
    <path d="M 423.173125 288.430125 
L 423.173125 22.318125 
" style="fill:none;stroke:#cccccc;stroke-linecap:square;stroke-linejoin:miter;stroke-width:0.8;"/>
   </g>
   <g id="patch_5">
    <path d="M 66.053125 288.430125 
L 423.173125 288.430125 
" style="fill:none;stroke:#cccccc;stroke-linecap:square;stroke-linejoin:miter;stroke-width:0.8;"/>
   </g>
   <g id="patch_6">
    <path d="M 66.053125 22.318125 
L 423.173125 22.318125 
" style="fill:none;stroke:#cccccc;stroke-linecap:square;stroke-linejoin:miter;stroke-width:0.8;"/>
   </g>
   <g id="text_17">
    <!-- Naive T CD4 -->
    <defs>
     <path d="M 9.8125 72.90625 
L 23.09375 72.90625 
L 55.421875 11.921875 
L 55.421875 72.90625 
L 64.984375 72.90625 
L 64.984375 0 
L 51.703125 0 
L 19.390625 60.984375 
L 19.390625 0 
L 9.8125 0 
z
" id="DejaVuSans-78"/>
     <path d="M 2.984375 54.6875 
L 12.5 54.6875 
L 29.59375 8.796875 
L 46.6875 54.6875 
L 56.203125 54.6875 
L 35.6875 0 
L 23.484375 0 
z
" id="DejaVuSans-118"/>
     <path d="M -0.296875 72.90625 
L 61.375 72.90625 
L 61.375 64.59375 
L 35.5 64.59375 
L 35.5 0 
L 25.59375 0 
L 25.59375 64.59375 
L -0.296875 64.59375 
z
" id="DejaVuSans-84"/>
     <path d="M 64.40625 67.28125 
L 64.40625 56.890625 
Q 59.421875 61.53125 53.78125 63.8125 
Q 48.140625 66.109375 41.796875 66.109375 
Q 29.296875 66.109375 22.65625 58.46875 
Q 16.015625 50.828125 16.015625 36.375 
Q 16.015625 21.96875 22.65625 14.328125 
Q 29.296875 6.6875 41.796875 6.6875 
Q 48.140625 6.6875 53.78125 8.984375 
Q 59.421875 11.28125 64.40625 15.921875 
L 64.40625 5.609375 
Q 59.234375 2.09375 53.4375 0.328125 
Q 47.65625 -1.421875 41.21875 -1.421875 
Q 24.65625 -1.421875 15.125 8.703125 
Q 5.609375 18.84375 5.609375 36.375 
Q 5.609375 53.953125 15.125 64.078125 
Q 24.65625 74.21875 41.21875 74.21875 
Q 47.75 74.21875 53.53125 72.484375 
Q 59.328125 70.75 64.40625 67.28125 
z
" id="DejaVuSans-67"/>
     <path d="M 19.671875 64.796875 
L 19.671875 8.109375 
L 31.59375 8.109375 
Q 46.6875 8.109375 53.6875 14.9375 
Q 60.6875 21.78125 60.6875 36.53125 
Q 60.6875 51.171875 53.6875 57.984375 
Q 46.6875 64.796875 31.59375 64.796875 
z
M 9.8125 72.90625 
L 30.078125 72.90625 
Q 51.265625 72.90625 61.171875 64.09375 
Q 71.09375 55.28125 71.09375 36.53125 
Q 71.09375 17.671875 61.125 8.828125 
Q 51.171875 0 30.078125 0 
L 9.8125 0 
z
" id="DejaVuSans-68"/>
    </defs>
    <g style="fill:#262626;" transform="translate(207.431875 16.318125)scale(0.12 -0.12)">
     <use xlink:href="#DejaVuSans-78"/>
     <use x="74.804688" xlink:href="#DejaVuSans-97"/>
     <use x="136.083984" xlink:href="#DejaVuSans-105"/>
     <use x="163.867188" xlink:href="#DejaVuSans-118"/>
     <use x="223.046875" xlink:href="#DejaVuSans-101"/>
     <use x="284.570312" xlink:href="#DejaVuSans-32"/>
     <use x="316.357422" xlink:href="#DejaVuSans-84"/>
     <use x="377.441406" xlink:href="#DejaVuSans-32"/>
     <use x="409.228516" xlink:href="#DejaVuSans-67"/>
     <use x="479.052734" xlink:href="#DejaVuSans-68"/>
     <use x="556.054688" xlink:href="#DejaVuSans-52"/>
    </g>
   </g>
  </g>
 </g>
 <defs>
  <clipPath id="p2c2c65d899">
   <rect height="266.112" width="357.12" x="66.053125" y="22.318125"/>
  </clipPath>
 </defs>
</svg>
