<?xml version="1.0" encoding="utf-8" standalone="no"?>
<!DOCTYPE svg PUBLIC "-//W3C//DTD SVG 1.1//EN"
  "http://www.w3.org/Graphics/SVG/1.1/DTD/svg11.dtd">
<!-- Created with matplotlib (https://matplotlib.org/) -->
<svg height="325.986375pt" version="1.1" viewBox="0 0 424.010625 325.986375" width="424.010625pt" xmlns="http://www.w3.org/2000/svg" xmlns:xlink="http://www.w3.org/1999/xlink">
 <defs>
  <style type="text/css">
*{stroke-linecap:butt;stroke-linejoin:round;white-space:pre;}
  </style>
 </defs>
 <g id="figure_1">
  <g id="patch_1">
   <path d="M 0 325.986375 
L 424.010625 325.986375 
L 424.010625 0 
L 0 0 
z
" style="fill:#ffffff;"/>
  </g>
  <g id="axes_1">
   <g id="patch_2">
    <path d="M 59.690625 288.430125 
L 416.810625 288.430125 
L 416.810625 22.318125 
L 59.690625 22.318125 
z
" style="fill:#ffffff;"/>
   </g>
   <g id="matplotlib.axis_1">
    <g id="xtick_1">
     <g id="line2d_1">
      <path clip-path="url(#p94425dda64)" d="M 75.923352 288.430125 
L 75.923352 22.318125 
" style="fill:none;stroke:#cccccc;stroke-linecap:round;stroke-width:0.8;"/>
     </g>
     <g id="text_1">
      <!-- 0 -->
      <defs>
       <path d="M 31.78125 66.40625 
Q 24.171875 66.40625 20.328125 58.90625 
Q 16.5 51.421875 16.5 36.375 
Q 16.5 21.390625 20.328125 13.890625 
Q 24.171875 6.390625 31.78125 6.390625 
Q 39.453125 6.390625 43.28125 13.890625 
Q 47.125 21.390625 47.125 36.375 
Q 47.125 51.421875 43.28125 58.90625 
Q 39.453125 66.40625 31.78125 66.40625 
z
M 31.78125 74.21875 
Q 44.046875 74.21875 50.515625 64.515625 
Q 56.984375 54.828125 56.984375 36.375 
Q 56.984375 17.96875 50.515625 8.265625 
Q 44.046875 -1.421875 31.78125 -1.421875 
Q 19.53125 -1.421875 13.0625 8.265625 
Q 6.59375 17.96875 6.59375 36.375 
Q 6.59375 54.828125 13.0625 64.515625 
Q 19.53125 74.21875 31.78125 74.21875 
z
" id="DejaVuSans-48"/>
      </defs>
      <g style="fill:#262626;" transform="translate(72.742102 303.028562)scale(0.1 -0.1)">
       <use xlink:href="#DejaVuSans-48"/>
      </g>
     </g>
    </g>
    <g id="xtick_2">
     <g id="line2d_2">
      <path clip-path="url(#p94425dda64)" d="M 130.032443 288.430125 
L 130.032443 22.318125 
" style="fill:none;stroke:#cccccc;stroke-linecap:round;stroke-width:0.8;"/>
     </g>
     <g id="text_2">
      <!-- 10 -->
      <defs>
       <path d="M 12.40625 8.296875 
L 28.515625 8.296875 
L 28.515625 63.921875 
L 10.984375 60.40625 
L 10.984375 69.390625 
L 28.421875 72.90625 
L 38.28125 72.90625 
L 38.28125 8.296875 
L 54.390625 8.296875 
L 54.390625 0 
L 12.40625 0 
z
" id="DejaVuSans-49"/>
      </defs>
      <g style="fill:#262626;" transform="translate(123.669943 303.028562)scale(0.1 -0.1)">
       <use xlink:href="#DejaVuSans-49"/>
       <use x="63.623047" xlink:href="#DejaVuSans-48"/>
      </g>
     </g>
    </g>
    <g id="xtick_3">
     <g id="line2d_3">
      <path clip-path="url(#p94425dda64)" d="M 184.141534 288.430125 
L 184.141534 22.318125 
" style="fill:none;stroke:#cccccc;stroke-linecap:round;stroke-width:0.8;"/>
     </g>
     <g id="text_3">
      <!-- 20 -->
      <defs>
       <path d="M 19.1875 8.296875 
L 53.609375 8.296875 
L 53.609375 0 
L 7.328125 0 
L 7.328125 8.296875 
Q 12.9375 14.109375 22.625 23.890625 
Q 32.328125 33.6875 34.8125 36.53125 
Q 39.546875 41.84375 41.421875 45.53125 
Q 43.3125 49.21875 43.3125 52.78125 
Q 43.3125 58.59375 39.234375 62.25 
Q 35.15625 65.921875 28.609375 65.921875 
Q 23.96875 65.921875 18.8125 64.3125 
Q 13.671875 62.703125 7.8125 59.421875 
L 7.8125 69.390625 
Q 13.765625 71.78125 18.9375 73 
Q 24.125 74.21875 28.421875 74.21875 
Q 39.75 74.21875 46.484375 68.546875 
Q 53.21875 62.890625 53.21875 53.421875 
Q 53.21875 48.921875 51.53125 44.890625 
Q 49.859375 40.875 45.40625 35.40625 
Q 44.1875 33.984375 37.640625 27.21875 
Q 31.109375 20.453125 19.1875 8.296875 
z
" id="DejaVuSans-50"/>
      </defs>
      <g style="fill:#262626;" transform="translate(177.779034 303.028562)scale(0.1 -0.1)">
       <use xlink:href="#DejaVuSans-50"/>
       <use x="63.623047" xlink:href="#DejaVuSans-48"/>
      </g>
     </g>
    </g>
    <g id="xtick_4">
     <g id="line2d_4">
      <path clip-path="url(#p94425dda64)" d="M 238.250625 288.430125 
L 238.250625 22.318125 
" style="fill:none;stroke:#cccccc;stroke-linecap:round;stroke-width:0.8;"/>
     </g>
     <g id="text_4">
      <!-- 30 -->
      <defs>
       <path d="M 40.578125 39.3125 
Q 47.65625 37.796875 51.625 33 
Q 55.609375 28.21875 55.609375 21.1875 
Q 55.609375 10.40625 48.1875 4.484375 
Q 40.765625 -1.421875 27.09375 -1.421875 
Q 22.515625 -1.421875 17.65625 -0.515625 
Q 12.796875 0.390625 7.625 2.203125 
L 7.625 11.71875 
Q 11.71875 9.328125 16.59375 8.109375 
Q 21.484375 6.890625 26.8125 6.890625 
Q 36.078125 6.890625 40.9375 10.546875 
Q 45.796875 14.203125 45.796875 21.1875 
Q 45.796875 27.640625 41.28125 31.265625 
Q 36.765625 34.90625 28.71875 34.90625 
L 20.21875 34.90625 
L 20.21875 43.015625 
L 29.109375 43.015625 
Q 36.375 43.015625 40.234375 45.921875 
Q 44.09375 48.828125 44.09375 54.296875 
Q 44.09375 59.90625 40.109375 62.90625 
Q 36.140625 65.921875 28.71875 65.921875 
Q 24.65625 65.921875 20.015625 65.03125 
Q 15.375 64.15625 9.8125 62.3125 
L 9.8125 71.09375 
Q 15.4375 72.65625 20.34375 73.4375 
Q 25.25 74.21875 29.59375 74.21875 
Q 40.828125 74.21875 47.359375 69.109375 
Q 53.90625 64.015625 53.90625 55.328125 
Q 53.90625 49.265625 50.4375 45.09375 
Q 46.96875 40.921875 40.578125 39.3125 
z
" id="DejaVuSans-51"/>
      </defs>
      <g style="fill:#262626;" transform="translate(231.888125 303.028562)scale(0.1 -0.1)">
       <use xlink:href="#DejaVuSans-51"/>
       <use x="63.623047" xlink:href="#DejaVuSans-48"/>
      </g>
     </g>
    </g>
    <g id="xtick_5">
     <g id="line2d_5">
      <path clip-path="url(#p94425dda64)" d="M 292.359716 288.430125 
L 292.359716 22.318125 
" style="fill:none;stroke:#cccccc;stroke-linecap:round;stroke-width:0.8;"/>
     </g>
     <g id="text_5">
      <!-- 40 -->
      <defs>
       <path d="M 37.796875 64.3125 
L 12.890625 25.390625 
L 37.796875 25.390625 
z
M 35.203125 72.90625 
L 47.609375 72.90625 
L 47.609375 25.390625 
L 58.015625 25.390625 
L 58.015625 17.1875 
L 47.609375 17.1875 
L 47.609375 0 
L 37.796875 0 
L 37.796875 17.1875 
L 4.890625 17.1875 
L 4.890625 26.703125 
z
" id="DejaVuSans-52"/>
      </defs>
      <g style="fill:#262626;" transform="translate(285.997216 303.028562)scale(0.1 -0.1)">
       <use xlink:href="#DejaVuSans-52"/>
       <use x="63.623047" xlink:href="#DejaVuSans-48"/>
      </g>
     </g>
    </g>
    <g id="xtick_6">
     <g id="line2d_6">
      <path clip-path="url(#p94425dda64)" d="M 346.468807 288.430125 
L 346.468807 22.318125 
" style="fill:none;stroke:#cccccc;stroke-linecap:round;stroke-width:0.8;"/>
     </g>
     <g id="text_6">
      <!-- 50 -->
      <defs>
       <path d="M 10.796875 72.90625 
L 49.515625 72.90625 
L 49.515625 64.59375 
L 19.828125 64.59375 
L 19.828125 46.734375 
Q 21.96875 47.46875 24.109375 47.828125 
Q 26.265625 48.1875 28.421875 48.1875 
Q 40.625 48.1875 47.75 41.5 
Q 54.890625 34.8125 54.890625 23.390625 
Q 54.890625 11.625 47.5625 5.09375 
Q 40.234375 -1.421875 26.90625 -1.421875 
Q 22.3125 -1.421875 17.546875 -0.640625 
Q 12.796875 0.140625 7.71875 1.703125 
L 7.71875 11.625 
Q 12.109375 9.234375 16.796875 8.0625 
Q 21.484375 6.890625 26.703125 6.890625 
Q 35.15625 6.890625 40.078125 11.328125 
Q 45.015625 15.765625 45.015625 23.390625 
Q 45.015625 31 40.078125 35.4375 
Q 35.15625 39.890625 26.703125 39.890625 
Q 22.75 39.890625 18.8125 39.015625 
Q 14.890625 38.140625 10.796875 36.28125 
z
" id="DejaVuSans-53"/>
      </defs>
      <g style="fill:#262626;" transform="translate(340.106307 303.028562)scale(0.1 -0.1)">
       <use xlink:href="#DejaVuSans-53"/>
       <use x="63.623047" xlink:href="#DejaVuSans-48"/>
      </g>
     </g>
    </g>
    <g id="xtick_7">
     <g id="line2d_7">
      <path clip-path="url(#p94425dda64)" d="M 400.577898 288.430125 
L 400.577898 22.318125 
" style="fill:none;stroke:#cccccc;stroke-linecap:round;stroke-width:0.8;"/>
     </g>
     <g id="text_7">
      <!-- 60 -->
      <defs>
       <path d="M 33.015625 40.375 
Q 26.375 40.375 22.484375 35.828125 
Q 18.609375 31.296875 18.609375 23.390625 
Q 18.609375 15.53125 22.484375 10.953125 
Q 26.375 6.390625 33.015625 6.390625 
Q 39.65625 6.390625 43.53125 10.953125 
Q 47.40625 15.53125 47.40625 23.390625 
Q 47.40625 31.296875 43.53125 35.828125 
Q 39.65625 40.375 33.015625 40.375 
z
M 52.59375 71.296875 
L 52.59375 62.3125 
Q 48.875 64.0625 45.09375 64.984375 
Q 41.3125 65.921875 37.59375 65.921875 
Q 27.828125 65.921875 22.671875 59.328125 
Q 17.53125 52.734375 16.796875 39.40625 
Q 19.671875 43.65625 24.015625 45.921875 
Q 28.375 48.1875 33.59375 48.1875 
Q 44.578125 48.1875 50.953125 41.515625 
Q 57.328125 34.859375 57.328125 23.390625 
Q 57.328125 12.15625 50.6875 5.359375 
Q 44.046875 -1.421875 33.015625 -1.421875 
Q 20.359375 -1.421875 13.671875 8.265625 
Q 6.984375 17.96875 6.984375 36.375 
Q 6.984375 53.65625 15.1875 63.9375 
Q 23.390625 74.21875 37.203125 74.21875 
Q 40.921875 74.21875 44.703125 73.484375 
Q 48.484375 72.75 52.59375 71.296875 
z
" id="DejaVuSans-54"/>
      </defs>
      <g style="fill:#262626;" transform="translate(394.215398 303.028562)scale(0.1 -0.1)">
       <use xlink:href="#DejaVuSans-54"/>
       <use x="63.623047" xlink:href="#DejaVuSans-48"/>
      </g>
     </g>
    </g>
    <g id="text_8">
     <!-- time (days) -->
     <defs>
      <path d="M 18.3125 70.21875 
L 18.3125 54.6875 
L 36.8125 54.6875 
L 36.8125 47.703125 
L 18.3125 47.703125 
L 18.3125 18.015625 
Q 18.3125 11.328125 20.140625 9.421875 
Q 21.96875 7.515625 27.59375 7.515625 
L 36.8125 7.515625 
L 36.8125 0 
L 27.59375 0 
Q 17.1875 0 13.234375 3.875 
Q 9.28125 7.765625 9.28125 18.015625 
L 9.28125 47.703125 
L 2.6875 47.703125 
L 2.6875 54.6875 
L 9.28125 54.6875 
L 9.28125 70.21875 
z
" id="DejaVuSans-116"/>
      <path d="M 9.421875 54.6875 
L 18.40625 54.6875 
L 18.40625 0 
L 9.421875 0 
z
M 9.421875 75.984375 
L 18.40625 75.984375 
L 18.40625 64.59375 
L 9.421875 64.59375 
z
" id="DejaVuSans-105"/>
      <path d="M 52 44.1875 
Q 55.375 50.25 60.0625 53.125 
Q 64.75 56 71.09375 56 
Q 79.640625 56 84.28125 50.015625 
Q 88.921875 44.046875 88.921875 33.015625 
L 88.921875 0 
L 79.890625 0 
L 79.890625 32.71875 
Q 79.890625 40.578125 77.09375 44.375 
Q 74.3125 48.1875 68.609375 48.1875 
Q 61.625 48.1875 57.5625 43.546875 
Q 53.515625 38.921875 53.515625 30.90625 
L 53.515625 0 
L 44.484375 0 
L 44.484375 32.71875 
Q 44.484375 40.625 41.703125 44.40625 
Q 38.921875 48.1875 33.109375 48.1875 
Q 26.21875 48.1875 22.15625 43.53125 
Q 18.109375 38.875 18.109375 30.90625 
L 18.109375 0 
L 9.078125 0 
L 9.078125 54.6875 
L 18.109375 54.6875 
L 18.109375 46.1875 
Q 21.1875 51.21875 25.484375 53.609375 
Q 29.78125 56 35.6875 56 
Q 41.65625 56 45.828125 52.96875 
Q 50 49.953125 52 44.1875 
z
" id="DejaVuSans-109"/>
      <path d="M 56.203125 29.59375 
L 56.203125 25.203125 
L 14.890625 25.203125 
Q 15.484375 15.921875 20.484375 11.0625 
Q 25.484375 6.203125 34.421875 6.203125 
Q 39.59375 6.203125 44.453125 7.46875 
Q 49.3125 8.734375 54.109375 11.28125 
L 54.109375 2.78125 
Q 49.265625 0.734375 44.1875 -0.34375 
Q 39.109375 -1.421875 33.890625 -1.421875 
Q 20.796875 -1.421875 13.15625 6.1875 
Q 5.515625 13.8125 5.515625 26.8125 
Q 5.515625 40.234375 12.765625 48.109375 
Q 20.015625 56 32.328125 56 
Q 43.359375 56 49.78125 48.890625 
Q 56.203125 41.796875 56.203125 29.59375 
z
M 47.21875 32.234375 
Q 47.125 39.59375 43.09375 43.984375 
Q 39.0625 48.390625 32.421875 48.390625 
Q 24.90625 48.390625 20.390625 44.140625 
Q 15.875 39.890625 15.1875 32.171875 
z
" id="DejaVuSans-101"/>
      <path id="DejaVuSans-32"/>
      <path d="M 31 75.875 
Q 24.46875 64.65625 21.28125 53.65625 
Q 18.109375 42.671875 18.109375 31.390625 
Q 18.109375 20.125 21.3125 9.0625 
Q 24.515625 -2 31 -13.1875 
L 23.1875 -13.1875 
Q 15.875 -1.703125 12.234375 9.375 
Q 8.59375 20.453125 8.59375 31.390625 
Q 8.59375 42.28125 12.203125 53.3125 
Q 15.828125 64.359375 23.1875 75.875 
z
" id="DejaVuSans-40"/>
      <path d="M 45.40625 46.390625 
L 45.40625 75.984375 
L 54.390625 75.984375 
L 54.390625 0 
L 45.40625 0 
L 45.40625 8.203125 
Q 42.578125 3.328125 38.25 0.953125 
Q 33.9375 -1.421875 27.875 -1.421875 
Q 17.96875 -1.421875 11.734375 6.484375 
Q 5.515625 14.40625 5.515625 27.296875 
Q 5.515625 40.1875 11.734375 48.09375 
Q 17.96875 56 27.875 56 
Q 33.9375 56 38.25 53.625 
Q 42.578125 51.265625 45.40625 46.390625 
z
M 14.796875 27.296875 
Q 14.796875 17.390625 18.875 11.75 
Q 22.953125 6.109375 30.078125 6.109375 
Q 37.203125 6.109375 41.296875 11.75 
Q 45.40625 17.390625 45.40625 27.296875 
Q 45.40625 37.203125 41.296875 42.84375 
Q 37.203125 48.484375 30.078125 48.484375 
Q 22.953125 48.484375 18.875 42.84375 
Q 14.796875 37.203125 14.796875 27.296875 
z
" id="DejaVuSans-100"/>
      <path d="M 34.28125 27.484375 
Q 23.390625 27.484375 19.1875 25 
Q 14.984375 22.515625 14.984375 16.5 
Q 14.984375 11.71875 18.140625 8.90625 
Q 21.296875 6.109375 26.703125 6.109375 
Q 34.1875 6.109375 38.703125 11.40625 
Q 43.21875 16.703125 43.21875 25.484375 
L 43.21875 27.484375 
z
M 52.203125 31.203125 
L 52.203125 0 
L 43.21875 0 
L 43.21875 8.296875 
Q 40.140625 3.328125 35.546875 0.953125 
Q 30.953125 -1.421875 24.3125 -1.421875 
Q 15.921875 -1.421875 10.953125 3.296875 
Q 6 8.015625 6 15.921875 
Q 6 25.140625 12.171875 29.828125 
Q 18.359375 34.515625 30.609375 34.515625 
L 43.21875 34.515625 
L 43.21875 35.40625 
Q 43.21875 41.609375 39.140625 45 
Q 35.0625 48.390625 27.6875 48.390625 
Q 23 48.390625 18.546875 47.265625 
Q 14.109375 46.140625 10.015625 43.890625 
L 10.015625 52.203125 
Q 14.9375 54.109375 19.578125 55.046875 
Q 24.21875 56 28.609375 56 
Q 40.484375 56 46.34375 49.84375 
Q 52.203125 43.703125 52.203125 31.203125 
z
" id="DejaVuSans-97"/>
      <path d="M 32.171875 -5.078125 
Q 28.375 -14.84375 24.75 -17.8125 
Q 21.140625 -20.796875 15.09375 -20.796875 
L 7.90625 -20.796875 
L 7.90625 -13.28125 
L 13.1875 -13.28125 
Q 16.890625 -13.28125 18.9375 -11.515625 
Q 21 -9.765625 23.484375 -3.21875 
L 25.09375 0.875 
L 2.984375 54.6875 
L 12.5 54.6875 
L 29.59375 11.921875 
L 46.6875 54.6875 
L 56.203125 54.6875 
z
" id="DejaVuSans-121"/>
      <path d="M 44.28125 53.078125 
L 44.28125 44.578125 
Q 40.484375 46.53125 36.375 47.5 
Q 32.28125 48.484375 27.875 48.484375 
Q 21.1875 48.484375 17.84375 46.4375 
Q 14.5 44.390625 14.5 40.28125 
Q 14.5 37.15625 16.890625 35.375 
Q 19.28125 33.59375 26.515625 31.984375 
L 29.59375 31.296875 
Q 39.15625 29.25 43.1875 25.515625 
Q 47.21875 21.78125 47.21875 15.09375 
Q 47.21875 7.46875 41.1875 3.015625 
Q 35.15625 -1.421875 24.609375 -1.421875 
Q 20.21875 -1.421875 15.453125 -0.5625 
Q 10.6875 0.296875 5.421875 2 
L 5.421875 11.28125 
Q 10.40625 8.6875 15.234375 7.390625 
Q 20.0625 6.109375 24.8125 6.109375 
Q 31.15625 6.109375 34.5625 8.28125 
Q 37.984375 10.453125 37.984375 14.40625 
Q 37.984375 18.0625 35.515625 20.015625 
Q 33.0625 21.96875 24.703125 23.78125 
L 21.578125 24.515625 
Q 13.234375 26.265625 9.515625 29.90625 
Q 5.8125 33.546875 5.8125 39.890625 
Q 5.8125 47.609375 11.28125 51.796875 
Q 16.75 56 26.8125 56 
Q 31.78125 56 36.171875 55.265625 
Q 40.578125 54.546875 44.28125 53.078125 
z
" id="DejaVuSans-115"/>
      <path d="M 8.015625 75.875 
L 15.828125 75.875 
Q 23.140625 64.359375 26.78125 53.3125 
Q 30.421875 42.28125 30.421875 31.390625 
Q 30.421875 20.453125 26.78125 9.375 
Q 23.140625 -1.703125 15.828125 -13.1875 
L 8.015625 -13.1875 
Q 14.5 -2 17.703125 9.0625 
Q 20.90625 20.125 20.90625 31.390625 
Q 20.90625 42.671875 17.703125 53.65625 
Q 14.5 64.65625 8.015625 75.875 
z
" id="DejaVuSans-41"/>
     </defs>
     <g style="fill:#262626;" transform="translate(209.661563 316.706687)scale(0.1 -0.1)">
      <use xlink:href="#DejaVuSans-116"/>
      <use x="39.208984" xlink:href="#DejaVuSans-105"/>
      <use x="66.992188" xlink:href="#DejaVuSans-109"/>
      <use x="164.404297" xlink:href="#DejaVuSans-101"/>
      <use x="225.927734" xlink:href="#DejaVuSans-32"/>
      <use x="257.714844" xlink:href="#DejaVuSans-40"/>
      <use x="296.728516" xlink:href="#DejaVuSans-100"/>
      <use x="360.205078" xlink:href="#DejaVuSans-97"/>
      <use x="421.484375" xlink:href="#DejaVuSans-121"/>
      <use x="480.664062" xlink:href="#DejaVuSans-115"/>
      <use x="532.763672" xlink:href="#DejaVuSans-41"/>
     </g>
    </g>
   </g>
   <g id="matplotlib.axis_2">
    <g id="ytick_1">
     <g id="line2d_8">
      <path clip-path="url(#p94425dda64)" d="M 59.690625 276.334125 
L 416.810625 276.334125 
" style="fill:none;stroke:#cccccc;stroke-linecap:round;stroke-width:0.8;"/>
     </g>
     <g id="text_9">
      <!-- 0 -->
      <g style="fill:#262626;" transform="translate(46.328125 280.133344)scale(0.1 -0.1)">
       <use xlink:href="#DejaVuSans-48"/>
      </g>
     </g>
    </g>
    <g id="ytick_2">
     <g id="line2d_9">
      <path clip-path="url(#p94425dda64)" d="M 59.690625 232.492948 
L 416.810625 232.492948 
" style="fill:none;stroke:#cccccc;stroke-linecap:round;stroke-width:0.8;"/>
     </g>
     <g id="text_10">
      <!-- 10000 -->
      <g style="fill:#262626;" transform="translate(20.878125 236.292167)scale(0.1 -0.1)">
       <use xlink:href="#DejaVuSans-49"/>
       <use x="63.623047" xlink:href="#DejaVuSans-48"/>
       <use x="127.246094" xlink:href="#DejaVuSans-48"/>
       <use x="190.869141" xlink:href="#DejaVuSans-48"/>
       <use x="254.492188" xlink:href="#DejaVuSans-48"/>
      </g>
     </g>
    </g>
    <g id="ytick_3">
     <g id="line2d_10">
      <path clip-path="url(#p94425dda64)" d="M 59.690625 188.651771 
L 416.810625 188.651771 
" style="fill:none;stroke:#cccccc;stroke-linecap:round;stroke-width:0.8;"/>
     </g>
     <g id="text_11">
      <!-- 20000 -->
      <g style="fill:#262626;" transform="translate(20.878125 192.450989)scale(0.1 -0.1)">
       <use xlink:href="#DejaVuSans-50"/>
       <use x="63.623047" xlink:href="#DejaVuSans-48"/>
       <use x="127.246094" xlink:href="#DejaVuSans-48"/>
       <use x="190.869141" xlink:href="#DejaVuSans-48"/>
       <use x="254.492188" xlink:href="#DejaVuSans-48"/>
      </g>
     </g>
    </g>
    <g id="ytick_4">
     <g id="line2d_11">
      <path clip-path="url(#p94425dda64)" d="M 59.690625 144.810593 
L 416.810625 144.810593 
" style="fill:none;stroke:#cccccc;stroke-linecap:round;stroke-width:0.8;"/>
     </g>
     <g id="text_12">
      <!-- 30000 -->
      <g style="fill:#262626;" transform="translate(20.878125 148.609812)scale(0.1 -0.1)">
       <use xlink:href="#DejaVuSans-51"/>
       <use x="63.623047" xlink:href="#DejaVuSans-48"/>
       <use x="127.246094" xlink:href="#DejaVuSans-48"/>
       <use x="190.869141" xlink:href="#DejaVuSans-48"/>
       <use x="254.492188" xlink:href="#DejaVuSans-48"/>
      </g>
     </g>
    </g>
    <g id="ytick_5">
     <g id="line2d_12">
      <path clip-path="url(#p94425dda64)" d="M 59.690625 100.969416 
L 416.810625 100.969416 
" style="fill:none;stroke:#cccccc;stroke-linecap:round;stroke-width:0.8;"/>
     </g>
     <g id="text_13">
      <!-- 40000 -->
      <g style="fill:#262626;" transform="translate(20.878125 104.768635)scale(0.1 -0.1)">
       <use xlink:href="#DejaVuSans-52"/>
       <use x="63.623047" xlink:href="#DejaVuSans-48"/>
       <use x="127.246094" xlink:href="#DejaVuSans-48"/>
       <use x="190.869141" xlink:href="#DejaVuSans-48"/>
       <use x="254.492188" xlink:href="#DejaVuSans-48"/>
      </g>
     </g>
    </g>
    <g id="ytick_6">
     <g id="line2d_13">
      <path clip-path="url(#p94425dda64)" d="M 59.690625 57.128239 
L 416.810625 57.128239 
" style="fill:none;stroke:#cccccc;stroke-linecap:round;stroke-width:0.8;"/>
     </g>
     <g id="text_14">
      <!-- 50000 -->
      <g style="fill:#262626;" transform="translate(20.878125 60.927458)scale(0.1 -0.1)">
       <use xlink:href="#DejaVuSans-53"/>
       <use x="63.623047" xlink:href="#DejaVuSans-48"/>
       <use x="127.246094" xlink:href="#DejaVuSans-48"/>
       <use x="190.869141" xlink:href="#DejaVuSans-48"/>
       <use x="254.492188" xlink:href="#DejaVuSans-48"/>
      </g>
     </g>
    </g>
    <g id="text_15">
     <!-- cells number -->
     <defs>
      <path d="M 48.78125 52.59375 
L 48.78125 44.1875 
Q 44.96875 46.296875 41.140625 47.34375 
Q 37.3125 48.390625 33.40625 48.390625 
Q 24.65625 48.390625 19.8125 42.84375 
Q 14.984375 37.3125 14.984375 27.296875 
Q 14.984375 17.28125 19.8125 11.734375 
Q 24.65625 6.203125 33.40625 6.203125 
Q 37.3125 6.203125 41.140625 7.25 
Q 44.96875 8.296875 48.78125 10.40625 
L 48.78125 2.09375 
Q 45.015625 0.34375 40.984375 -0.53125 
Q 36.96875 -1.421875 32.421875 -1.421875 
Q 20.0625 -1.421875 12.78125 6.34375 
Q 5.515625 14.109375 5.515625 27.296875 
Q 5.515625 40.671875 12.859375 48.328125 
Q 20.21875 56 33.015625 56 
Q 37.15625 56 41.109375 55.140625 
Q 45.0625 54.296875 48.78125 52.59375 
z
" id="DejaVuSans-99"/>
      <path d="M 9.421875 75.984375 
L 18.40625 75.984375 
L 18.40625 0 
L 9.421875 0 
z
" id="DejaVuSans-108"/>
      <path d="M 54.890625 33.015625 
L 54.890625 0 
L 45.90625 0 
L 45.90625 32.71875 
Q 45.90625 40.484375 42.875 44.328125 
Q 39.84375 48.1875 33.796875 48.1875 
Q 26.515625 48.1875 22.3125 43.546875 
Q 18.109375 38.921875 18.109375 30.90625 
L 18.109375 0 
L 9.078125 0 
L 9.078125 54.6875 
L 18.109375 54.6875 
L 18.109375 46.1875 
Q 21.34375 51.125 25.703125 53.5625 
Q 30.078125 56 35.796875 56 
Q 45.21875 56 50.046875 50.171875 
Q 54.890625 44.34375 54.890625 33.015625 
z
" id="DejaVuSans-110"/>
      <path d="M 8.5 21.578125 
L 8.5 54.6875 
L 17.484375 54.6875 
L 17.484375 21.921875 
Q 17.484375 14.15625 20.5 10.265625 
Q 23.53125 6.390625 29.59375 6.390625 
Q 36.859375 6.390625 41.078125 11.03125 
Q 45.3125 15.671875 45.3125 23.6875 
L 45.3125 54.6875 
L 54.296875 54.6875 
L 54.296875 0 
L 45.3125 0 
L 45.3125 8.40625 
Q 42.046875 3.421875 37.71875 1 
Q 33.40625 -1.421875 27.6875 -1.421875 
Q 18.265625 -1.421875 13.375 4.4375 
Q 8.5 10.296875 8.5 21.578125 
z
M 31.109375 56 
z
" id="DejaVuSans-117"/>
      <path d="M 48.6875 27.296875 
Q 48.6875 37.203125 44.609375 42.84375 
Q 40.53125 48.484375 33.40625 48.484375 
Q 26.265625 48.484375 22.1875 42.84375 
Q 18.109375 37.203125 18.109375 27.296875 
Q 18.109375 17.390625 22.1875 11.75 
Q 26.265625 6.109375 33.40625 6.109375 
Q 40.53125 6.109375 44.609375 11.75 
Q 48.6875 17.390625 48.6875 27.296875 
z
M 18.109375 46.390625 
Q 20.953125 51.265625 25.265625 53.625 
Q 29.59375 56 35.59375 56 
Q 45.5625 56 51.78125 48.09375 
Q 58.015625 40.1875 58.015625 27.296875 
Q 58.015625 14.40625 51.78125 6.484375 
Q 45.5625 -1.421875 35.59375 -1.421875 
Q 29.59375 -1.421875 25.265625 0.953125 
Q 20.953125 3.328125 18.109375 8.203125 
L 18.109375 0 
L 9.078125 0 
L 9.078125 75.984375 
L 18.109375 75.984375 
z
" id="DejaVuSans-98"/>
      <path d="M 41.109375 46.296875 
Q 39.59375 47.171875 37.8125 47.578125 
Q 36.03125 48 33.890625 48 
Q 26.265625 48 22.1875 43.046875 
Q 18.109375 38.09375 18.109375 28.8125 
L 18.109375 0 
L 9.078125 0 
L 9.078125 54.6875 
L 18.109375 54.6875 
L 18.109375 46.1875 
Q 20.953125 51.171875 25.484375 53.578125 
Q 30.03125 56 36.53125 56 
Q 37.453125 56 38.578125 55.875 
Q 39.703125 55.765625 41.0625 55.515625 
z
" id="DejaVuSans-114"/>
     </defs>
     <g style="fill:#262626;" transform="translate(14.798438 187.685844)rotate(-90)scale(0.1 -0.1)">
      <use xlink:href="#DejaVuSans-99"/>
      <use x="54.980469" xlink:href="#DejaVuSans-101"/>
      <use x="116.503906" xlink:href="#DejaVuSans-108"/>
      <use x="144.287109" xlink:href="#DejaVuSans-108"/>
      <use x="172.070312" xlink:href="#DejaVuSans-115"/>
      <use x="224.169922" xlink:href="#DejaVuSans-32"/>
      <use x="255.957031" xlink:href="#DejaVuSans-110"/>
      <use x="319.335938" xlink:href="#DejaVuSans-117"/>
      <use x="382.714844" xlink:href="#DejaVuSans-109"/>
      <use x="480.126953" xlink:href="#DejaVuSans-98"/>
      <use x="543.603516" xlink:href="#DejaVuSans-101"/>
      <use x="605.126953" xlink:href="#DejaVuSans-114"/>
     </g>
    </g>
   </g>
   <g id="line2d_14">
    <path clip-path="url(#p94425dda64)" d="M 75.923352 276.334125 
L 78.087716 274.7953 
L 79.169898 274.523484 
L 79.710989 274.37004 
L 80.25208 274.440186 
L 80.79317 274.334967 
L 82.416443 274.501564 
L 84.039716 274.37004 
L 86.20408 274.598014 
L 87.827352 274.619935 
L 89.450625 274.378808 
L 90.532807 274.352504 
L 93.238261 273.979854 
L 95.402625 273.769416 
L 97.566989 273.247706 
L 98.10808 273.300316 
L 98.64917 273.116183 
L 99.731352 272.923281 
L 100.813534 272.699691 
L 101.895716 272.344578 
L 104.06008 271.875477 
L 105.142261 271.586126 
L 106.224443 271.309926 
L 106.765534 270.99427 
L 110.01208 269.850015 
L 126.244807 260.165499 
L 128.40917 258.758197 
L 131.114625 257.083464 
L 132.737898 255.763845 
L 134.36117 254.610822 
L 143.559716 247.013146 
L 145.182989 245.54885 
L 148.429534 242.821929 
L 150.593898 240.888533 
L 152.21717 239.525073 
L 153.840443 238.179148 
L 154.922625 237.10504 
L 158.16917 234.413191 
L 159.792443 233.010274 
L 167.367716 226.368335 
L 169.53208 224.654145 
L 172.778625 221.795701 
L 185.223716 211.379037 
L 190.093534 207.09137 
L 194.422261 203.518314 
L 205.24408 194.688701 
L 206.867352 193.395386 
L 207.949534 192.387039 
L 228.510989 174.846184 
L 229.59317 174.052659 
L 233.921898 170.405073 
L 238.250625 166.849553 
L 240.414989 164.894237 
L 242.579352 163.048523 
L 243.661534 162.202388 
L 244.202625 161.698215 
L 245.284807 160.909074 
L 246.90808 159.567534 
L 249.072443 157.726204 
L 251.236807 155.985709 
L 252.86008 154.521414 
L 255.024443 152.890522 
L 258.81208 149.808488 
L 262.599716 146.625618 
L 275.585898 135.976596 
L 276.126989 135.617098 
L 277.750261 134.196644 
L 283.16117 129.62401 
L 284.243352 128.865557 
L 285.325534 127.822137 
L 286.407716 126.853247 
L 287.489898 125.888741 
L 292.359716 121.772055 
L 294.52408 120.027176 
L 295.606261 119.229266 
L 296.688443 118.212151 
L 298.311716 116.967062 
L 302.099352 113.836802 
L 304.804807 111.627206 
L 306.42808 110.338276 
L 308.051352 108.882749 
L 310.756807 106.475868 
L 313.462261 104.296961 
L 314.544443 103.406986 
L 325.366261 94.502842 
L 330.77717 89.86883 
L 331.318261 89.49618 
L 332.941534 88.071342 
L 336.18808 85.54609 
L 337.270261 84.691187 
L 339.975716 82.547353 
L 341.598989 81.350489 
L 343.763352 79.649452 
L 345.927716 77.882652 
L 347.550989 76.365747 
L 349.174261 75.173267 
L 361.619352 65.29585 
L 365.406989 62.424253 
L 366.48917 61.600039 
L 368.653534 59.951611 
L 369.194625 59.578961 
L 370.276807 58.64076 
L 372.982261 56.562688 
L 374.064443 55.633255 
L 377.310989 52.985248 
L 378.934261 51.696317 
L 381.639716 49.381503 
L 384.34517 47.33412 
L 390.29717 42.673803 
L 394.625898 39.148972 
L 397.331352 37.088437 
L 400.577898 34.580721 
L 400.577898 34.580721 
" style="fill:none;stroke:#000080;stroke-linecap:round;stroke-width:1.5;"/>
   </g>
   <g id="line2d_15">
    <path clip-path="url(#p94425dda64)" d="M 75.923352 276.334125 
L 77.005534 275.439765 
L 78.628807 274.562941 
L 79.710989 274.256053 
L 80.25208 274.163987 
L 81.875352 274.286742 
L 82.416443 274.286742 
L 82.957534 274.409497 
L 84.580807 274.49718 
L 87.286261 274.619935 
L 89.991716 274.431418 
L 91.073898 274.229748 
L 95.402625 273.82641 
L 101.895716 272.419108 
L 102.977898 272.099067 
L 104.60117 271.757106 
L 108.929898 270.231433 
L 109.470989 269.920161 
L 110.55317 269.556279 
L 115.96408 266.851278 
L 121.374989 263.536885 
L 125.162625 260.95464 
L 126.244807 260.20934 
L 127.326989 259.503497 
L 128.950261 258.560912 
L 130.032443 257.894526 
L 130.573534 257.491187 
L 131.655716 256.912483 
L 133.278989 255.890984 
L 134.36117 255.049233 
L 135.984443 253.944436 
L 137.607716 252.958009 
L 141.395352 250.656348 
L 142.477534 250.077644 
L 143.018625 249.713762 
L 144.100807 249.371801 
L 147.347352 247.885585 
L 148.429534 247.499783 
L 150.052807 246.693105 
L 152.21717 245.930269 
L 154.381534 244.965763 
L 154.922625 244.676411 
L 155.463716 244.514199 
L 157.62808 243.475163 
L 159.792443 242.633412 
L 161.956807 241.265567 
L 163.038989 240.787699 
L 163.58008 240.454506 
L 164.662261 240.038014 
L 166.826625 239.051588 
L 167.908807 238.722779 
L 170.07317 237.613597 
L 172.778625 236.513184 
L 174.401898 235.570598 
L 176.02517 234.698159 
L 176.566261 234.478953 
L 178.730625 233.00589 
L 179.812807 232.422802 
L 181.43608 231.436375 
L 183.600443 230.226359 
L 190.093534 226.688376 
L 192.257898 225.566042 
L 193.88117 224.689218 
L 195.504443 223.917614 
L 197.127716 223.141625 
L 199.29208 222.234112 
L 200.374261 221.646641 
L 201.997534 220.796122 
L 202.538625 220.410319 
L 203.620807 219.936835 
L 205.24408 219.156462 
L 206.326261 218.691745 
L 209.572807 216.907409 
L 211.19608 216.227871 
L 212.819352 215.53518 
L 216.606989 213.728924 
L 219.312443 212.461914 
L 225.264443 210.208477 
L 226.346625 209.577164 
L 228.510989 208.599506 
L 230.675352 207.700762 
L 233.921898 206.1444 
L 235.00408 205.657763 
L 236.086261 205.193047 
L 238.250625 204.145243 
L 244.202625 200.624796 
L 245.825898 199.63837 
L 249.613534 197.569066 
L 250.695716 197.12627 
L 255.565534 194.771999 
L 256.647716 194.254673 
L 258.81208 193.088498 
L 259.35317 192.956974 
L 264.222989 190.396649 
L 265.30517 189.743416 
L 269.092807 187.424218 
L 270.174989 186.836746 
L 275.044807 183.829241 
L 277.750261 182.584152 
L 278.832443 182.207118 
L 279.373534 182.036137 
L 279.914625 181.72048 
L 280.996807 181.343446 
L 283.16117 180.466623 
L 285.866625 179.655561 
L 288.57208 178.673519 
L 290.736443 178.029053 
L 291.277534 177.735317 
L 291.818625 177.595026 
L 292.900807 177.029474 
L 293.982989 176.459539 
L 296.688443 174.964555 
L 298.311716 173.780843 
L 302.640443 171.04077 
L 304.263716 169.839521 
L 309.674625 165.648305 
L 310.756807 164.8767 
L 312.38008 163.421173 
L 322.119716 155.200952 
L 326.448443 151.605976 
L 327.530625 150.768609 
L 331.859352 147.094719 
L 332.941534 146.125829 
L 336.18808 143.609345 
L 337.811352 142.232732 
L 338.893534 141.39975 
L 339.975716 140.571152 
L 341.598989 139.137545 
L 345.386625 135.862609 
L 347.009898 134.705202 
L 356.749534 126.533207 
L 359.99608 123.872047 
L 361.619352 122.591885 
L 362.701534 121.842201 
L 370.817898 115.331786 
L 372.982261 113.683358 
L 374.605534 112.433884 
L 375.146625 112.091923 
L 377.310989 110.237441 
L 378.934261 108.904669 
L 381.098625 107.238704 
L 382.180807 106.436411 
L 389.75608 100.307414 
L 391.920443 98.667754 
L 393.002625 97.720785 
L 394.625898 96.401165 
L 396.24917 94.967559 
L 397.331352 94.143345 
L 399.495716 92.280095 
L 400.577898 91.442728 
L 400.577898 91.442728 
" style="fill:none;stroke:#0000f1;stroke-linecap:round;stroke-width:1.5;"/>
   </g>
   <g id="line2d_16">
    <path clip-path="url(#p94425dda64)" d="M 75.923352 276.334125 
L 76.464443 276.005316 
L 77.546625 275.141645 
L 78.628807 274.606783 
L 79.710989 274.42265 
L 80.79317 274.251669 
L 82.416443 274.470875 
L 83.498625 274.549789 
L 84.039716 274.317431 
L 85.662989 274.527868 
L 86.74517 274.492796 
L 88.909534 274.606783 
L 89.991716 274.44457 
L 91.073898 274.308663 
L 91.614989 274.120146 
L 95.943716 273.633508 
L 96.484807 273.686118 
L 100.272443 272.936434 
L 101.895716 272.2832 
L 102.436807 272.090299 
L 102.977898 272.063994 
L 107.847716 270.560242 
L 108.929898 270.3235 
L 111.094261 269.433524 
L 112.176443 269.196781 
L 113.799716 268.412024 
L 115.96408 267.022259 
L 117.046261 266.342721 
L 118.128443 265.492202 
L 119.210625 264.935419 
L 122.45717 262.905572 
L 124.621534 261.388668 
L 127.86808 259.065085 
L 128.950261 258.337322 
L 131.114625 256.886179 
L 131.655716 256.403926 
L 137.607716 252.800181 
L 140.31317 251.581396 
L 141.936443 250.866785 
L 143.018625 250.358227 
L 144.100807 250.09518 
L 144.641898 249.827749 
L 145.72408 249.520861 
L 146.806261 249.064913 
L 156.004807 245.982878 
L 158.16917 244.961379 
L 160.333534 244.128396 
L 168.990989 239.950332 
L 170.07317 239.494384 
L 173.860807 237.758273 
L 176.02517 236.622787 
L 179.812807 234.877908 
L 182.518261 233.273321 
L 185.764807 231.624892 
L 189.552443 229.213628 
L 196.586625 225.684413 
L 197.668807 225.272306 
L 200.374261 224.145588 
L 203.079716 222.576073 
L 204.161898 221.914072 
L 205.78517 221.124931 
L 207.408443 220.182345 
L 208.490625 219.511575 
L 210.113898 218.625983 
L 212.819352 217.380894 
L 218.771352 214.531217 
L 225.264443 211.690309 
L 226.346625 211.067764 
L 228.510989 210.112027 
L 229.59317 209.450025 
L 232.839716 208.117253 
L 233.921898 207.507861 
L 235.00408 206.937926 
L 237.709534 205.767366 
L 238.250625 205.530624 
L 238.791716 205.425405 
L 242.038261 203.952341 
L 243.661534 203.351717 
L 245.284807 202.759861 
L 246.366989 202.452973 
L 248.531352 201.44901 
L 251.236807 200.664253 
L 251.777898 200.409974 
L 252.318989 200.322292 
L 253.40117 199.892648 
L 254.483352 199.572608 
L 255.024443 199.252567 
L 256.647716 198.665095 
L 257.729898 198.231068 
L 258.81208 197.915411 
L 261.517534 196.858839 
L 262.599716 196.464268 
L 265.30517 195.355087 
L 265.846261 195.048198 
L 266.387352 194.894754 
L 268.551716 193.899559 
L 270.174989 193.386618 
L 280.996807 188.349266 
L 283.702261 187.367224 
L 285.325534 186.727143 
L 288.030989 185.775789 
L 291.818625 183.864314 
L 292.359716 183.767863 
L 295.606261 182.207118 
L 297.229534 181.40044 
L 298.852807 180.799816 
L 304.804807 178.335942 
L 305.886989 177.735317 
L 307.510261 177.213607 
L 308.592443 176.762043 
L 309.133534 176.696282 
L 316.167716 173.964976 
L 317.790989 173.381889 
L 318.87317 172.943477 
L 319.955352 172.614668 
L 321.578625 171.930746 
L 323.201898 171.365194 
L 326.448443 170.142026 
L 327.530625 169.6247 
L 333.482625 167.467714 
L 334.023716 167.274813 
L 335.105898 166.634731 
L 337.270261 165.797365 
L 337.811352 165.718451 
L 341.057898 164.328685 
L 342.14008 163.745598 
L 343.222261 163.315954 
L 344.304443 162.746019 
L 347.550989 161.439552 
L 348.63317 160.895921 
L 355.126261 157.910337 
L 356.749534 157.476309 
L 358.913898 156.660864 
L 360.53717 156.073392 
L 364.865898 154.424964 
L 373.523352 152.083845 
L 374.064443 151.816413 
L 374.605534 151.776956 
L 380.557534 149.181559 
L 382.180807 148.497636 
L 383.262989 147.857555 
L 387.050625 146.217895 
L 388.132807 145.924159 
L 390.29717 144.854435 
L 392.461534 143.754021 
L 400.577898 139.589109 
L 400.577898 139.589109 
" style="fill:none;stroke:#004cff;stroke-linecap:round;stroke-width:1.5;"/>
   </g>
   <g id="line2d_17">
    <path clip-path="url(#p94425dda64)" d="M 75.923352 276.334125 
L 78.087716 274.66816 
L 79.169898 274.440186 
L 79.710989 274.19906 
L 80.25208 274.133298 
L 81.875352 274.334967 
L 86.20408 274.435802 
L 87.827352 274.374424 
L 88.909534 274.42265 
L 89.991716 274.19906 
L 91.614989 274.041231 
L 92.69717 273.874635 
L 93.779352 273.7738 
L 94.861534 273.607204 
L 95.402625 273.668581 
L 97.566989 273.300316 
L 98.10808 273.041653 
L 101.895716 272.537479 
L 108.929898 270.433103 
L 111.635352 269.42914 
L 112.717534 268.784674 
L 114.340807 268.23666 
L 115.422989 267.596578 
L 117.046261 266.794285 
L 118.669534 266.044601 
L 119.751716 265.439592 
L 120.833898 265.088863 
L 122.998261 264.036675 
L 124.621534 262.988871 
L 126.244807 262.256723 
L 127.86808 261.336058 
L 133.278989 258.661746 
L 134.36117 258.012897 
L 135.443352 257.618326 
L 138.148807 256.237329 
L 140.854261 254.816875 
L 143.018625 253.59809 
L 144.641898 252.949241 
L 146.26517 251.927742 
L 153.840443 248.174937 
L 154.922625 247.76283 
L 159.792443 245.30334 
L 160.874625 244.7071 
L 163.038989 243.593534 
L 164.662261 242.681637 
L 165.744443 242.295835 
L 166.285534 241.923185 
L 167.367716 241.42778 
L 168.990989 240.472042 
L 171.696443 238.985826 
L 174.401898 237.40316 
L 177.107352 236.017778 
L 178.730625 235.026968 
L 182.518261 232.87875 
L 184.141534 231.844098 
L 185.223716 231.195249 
L 187.92917 229.415297 
L 189.552443 228.529705 
L 200.915352 221.721171 
L 207.949534 217.885068 
L 208.490625 217.481729 
L 210.654989 216.363779 
L 214.983716 213.991971 
L 216.065898 213.553559 
L 218.230261 212.225172 
L 220.394625 211.067764 
L 222.017898 210.208477 
L 223.10008 209.686767 
L 224.182261 209.072991 
L 224.723352 208.866937 
L 225.805534 208.270697 
L 230.675352 205.850664 
L 232.298625 204.881774 
L 235.54517 202.961531 
L 237.168443 202.26884 
L 239.332807 201.133354 
L 241.49717 199.905801 
L 244.743716 198.353823 
L 247.990261 196.58264 
L 249.072443 196.100387 
L 250.695716 195.219179 
L 253.942261 193.605824 
L 258.81208 191.46199 
L 259.894261 191.001658 
L 264.76408 188.963043 
L 265.846261 188.397492 
L 270.71608 186.266811 
L 271.798261 185.832783 
L 272.339352 185.530279 
L 272.880443 185.372451 
L 274.503716 184.521932 
L 275.044807 184.333415 
L 275.585898 183.938844 
L 277.20917 183.193544 
L 281.537898 180.948876 
L 282.62008 180.668292 
L 283.702261 180.247417 
L 286.948807 179.076857 
L 288.030989 178.73928 
L 290.195352 177.84492 
L 291.277534 177.305674 
L 293.982989 176.187724 
L 295.06517 175.872067 
L 296.147352 175.381046 
L 297.770625 174.736581 
L 298.852807 174.197334 
L 309.133534 169.962277 
L 310.215716 169.703614 
L 311.297898 169.173136 
L 311.838989 169.067917 
L 312.38008 168.765413 
L 312.92117 168.695267 
L 314.003352 168.256855 
L 315.085534 167.976271 
L 315.626625 167.643078 
L 323.742989 164.946846 
L 324.82517 164.473361 
L 325.366261 164.464593 
L 329.153898 163.372948 
L 330.23608 162.973993 
L 330.77717 162.978377 
L 332.941534 162.399674 
L 337.270261 161.141432 
L 338.893534 160.545192 
L 342.14008 159.374632 
L 343.222261 159.054592 
L 344.304443 158.660021 
L 345.927716 158.190921 
L 347.009898 157.853344 
L 351.338625 156.617022 
L 353.502989 155.70951 
L 354.58517 155.371933 
L 355.126261 155.11327 
L 356.208443 154.854607 
L 359.454989 153.635822 
L 359.99608 153.565676 
L 361.619352 152.881754 
L 365.406989 151.702426 
L 365.94808 151.448148 
L 366.48917 151.421843 
L 369.735716 150.290741 
L 371.358989 150.080303 
L 373.523352 149.361308 
L 374.064443 149.295546 
L 375.146625 148.957969 
L 377.85208 148.190748 
L 379.475352 147.83125 
L 380.557534 147.480521 
L 381.639716 147.208706 
L 383.262989 146.678227 
L 384.886261 146.349419 
L 385.968443 146.029378 
L 388.132807 145.753179 
L 389.214989 145.507668 
L 390.29717 145.143786 
L 394.625898 143.951306 
L 396.790261 143.512895 
L 398.413534 143.131476 
L 399.495716 142.9868 
L 400.577898 142.622919 
L 400.577898 142.622919 
" style="fill:none;stroke:#00b0ff;stroke-linecap:round;stroke-width:1.5;"/>
   </g>
   <g id="line2d_18">
    <path clip-path="url(#p94425dda64)" d="M 75.923352 276.334125 
L 77.546625 275.132877 
L 79.169898 274.462107 
L 80.25208 274.247285 
L 82.416443 274.339351 
L 82.957534 274.475259 
L 84.039716 274.453338 
L 85.121898 274.49718 
L 85.662989 274.475259 
L 86.20408 274.589246 
L 87.286261 274.484027 
L 87.827352 274.650624 
L 88.909534 274.5191 
L 89.991716 274.378808 
L 91.614989 274.159603 
L 94.320443 273.721191 
L 95.402625 273.725575 
L 96.484807 273.501985 
L 100.813534 272.375267 
L 101.895716 272.085915 
L 102.436807 271.88863 
L 103.518989 271.866709 
L 105.683352 271.257317 
L 106.224443 271.226628 
L 108.388807 270.34542 
L 112.176443 268.938118 
L 113.799716 268.144593 
L 114.881898 267.723718 
L 117.046261 266.640841 
L 118.128443 265.991991 
L 118.669534 265.825395 
L 120.292807 265.001181 
L 121.91608 264.190119 
L 122.998261 263.571958 
L 127.326989 261.024786 
L 133.82008 257.280749 
L 134.902261 256.675741 
L 135.984443 256.009355 
L 138.148807 254.878253 
L 143.018625 252.30916 
L 149.511716 249.516477 
L 151.67608 248.429216 
L 152.758261 247.889969 
L 153.840443 247.333186 
L 154.381534 247.035066 
L 155.463716 246.587886 
L 158.16917 245.088518 
L 160.333534 243.795203 
L 160.874625 243.361176 
L 164.662261 241.511078 
L 166.826625 240.173922 
L 167.367716 239.950332 
L 167.908807 239.595218 
L 168.990989 239.104197 
L 172.237534 237.346166 
L 173.319716 236.80692 
L 174.942989 235.881871 
L 176.566261 234.94367 
L 179.271716 233.5276 
L 180.353898 232.975201 
L 181.43608 232.343888 
L 184.682625 230.848904 
L 186.305898 229.893166 
L 187.38808 229.388992 
L 189.011352 228.595467 
L 190.634625 227.880856 
L 191.716807 227.258311 
L 192.798989 226.464786 
L 197.127716 223.992144 
L 198.209898 223.369599 
L 199.29208 222.852273 
L 200.915352 221.77378 
L 201.456443 221.55019 
L 203.079716 220.611989 
L 203.620807 220.362094 
L 205.78517 218.959176 
L 208.490625 217.608868 
L 210.113898 216.530375 
L 214.983716 213.812222 
L 215.524807 213.378195 
L 216.065898 213.145836 
L 217.68917 212.076112 
L 218.771352 211.497408 
L 222.017898 209.787602 
L 223.10008 209.059839 
L 224.723352 208.310154 
L 226.346625 207.437715 
L 233.380807 203.557771 
L 237.709534 201.212268 
L 238.250625 200.97991 
L 239.873898 200.024172 
L 242.038261 198.941295 
L 245.825898 196.814998 
L 250.154625 194.767615 
L 251.236807 194.2196 
L 253.40117 193.355929 
L 257.729898 191.102492 
L 264.222989 188.191438 
L 265.846261 187.748642 
L 267.469534 186.933196 
L 269.092807 186.231738 
L 270.174989 185.806478 
L 271.25717 185.262848 
L 272.880443 184.482475 
L 276.66808 182.81651 
L 277.750261 182.193965 
L 280.455716 180.983949 
L 281.537898 180.734054 
L 283.702261 179.695018 
L 285.325534 178.958486 
L 286.948807 178.401703 
L 288.57208 177.752854 
L 292.359716 176.349936 
L 293.441898 175.766849 
L 294.52408 175.297748 
L 301.558261 172.338469 
L 302.640443 172.014044 
L 311.838989 168.739108 
L 315.626625 167.61239 
L 316.167716 167.296733 
L 317.249898 166.954772 
L 319.414261 166.113021 
L 323.201898 164.859164 
L 323.742989 164.543507 
L 324.82517 164.35499 
L 325.907352 163.877121 
L 326.989534 163.557081 
L 336.18808 160.325986 
L 337.270261 159.856885 
L 339.975716 159.221188 
L 342.68117 158.322444 
L 343.222261 158.068165 
L 343.763352 158.01994 
L 344.304443 157.783198 
L 344.845534 157.72182 
L 348.09208 156.590718 
L 352.420807 155.481536 
L 357.290625 154.017241 
L 359.454989 153.10096 
L 360.53717 152.583634 
L 361.619352 152.487183 
L 364.865898 151.360465 
L 365.94808 151.084266 
L 373.523352 149.203479 
L 375.146625 148.506405 
L 377.310989 147.918933 
L 382.180807 146.555472 
L 383.262989 146.182822 
L 384.34517 145.884702 
L 385.968443 145.362992 
L 387.050625 144.911428 
L 391.920443 143.740869 
L 393.543716 143.035026 
L 395.166989 142.583462 
L 398.413534 141.597035 
L 399.495716 141.377829 
L 400.577898 141.193696 
L 400.577898 141.193696 
" style="fill:none;stroke:#29ffce;stroke-linecap:round;stroke-width:1.5;"/>
   </g>
   <g id="line2d_19">
    <path clip-path="url(#p94425dda64)" d="M 75.923352 276.334125 
L 77.546625 275.146029 
L 79.710989 274.387577 
L 81.334261 274.313047 
L 84.039716 274.475259 
L 86.74517 274.505948 
L 90.532807 274.256053 
L 91.614989 274.106993 
L 93.238261 273.883403 
L 93.779352 273.690502 
L 94.320443 273.760648 
L 94.861534 273.62474 
L 95.402625 273.694886 
L 96.484807 273.392382 
L 97.566989 273.15564 
L 100.272443 272.918897 
L 101.354625 272.58132 
L 105.142261 271.594894 
L 107.847716 270.415566 
L 110.01208 269.744796 
L 111.094261 269.551895 
L 112.717534 268.696992 
L 114.340807 267.995533 
L 115.422989 267.443134 
L 115.96408 267.241465 
L 117.046261 266.518085 
L 120.833898 264.624147 
L 121.91608 264.005986 
L 122.998261 263.462355 
L 126.785898 261.331674 
L 128.40917 260.599526 
L 132.196807 258.745045 
L 133.82008 257.850685 
L 134.902261 257.495571 
L 135.984443 256.934404 
L 137.607716 256.057581 
L 138.689898 255.606016 
L 143.018625 252.944857 
L 144.100807 252.23463 
L 146.26517 251.094759 
L 150.052807 248.990383 
L 154.381534 246.377449 
L 163.038989 241.879344 
L 165.203352 240.647407 
L 175.48408 235.26371 
L 177.107352 234.307973 
L 178.730625 233.567057 
L 179.271716 233.417997 
L 181.43608 232.291278 
L 184.682625 230.840135 
L 186.846989 229.590662 
L 187.92917 229.082104 
L 190.093534 228.016764 
L 191.175716 227.446828 
L 192.257898 226.907582 
L 194.422261 225.833473 
L 196.586625 224.562079 
L 203.079716 221.203845 
L 210.113898 217.62202 
L 211.19608 216.946866 
L 212.278261 216.412004 
L 213.360443 215.842069 
L 215.524807 214.776728 
L 217.68917 213.619321 
L 219.312443 212.733729 
L 221.476807 211.777992 
L 222.558989 211.146679 
L 223.64117 210.624969 
L 226.346625 209.081759 
L 227.969898 208.275081 
L 230.675352 206.674879 
L 231.216443 206.337301 
L 232.298625 205.942731 
L 234.462989 204.710794 
L 239.873898 202.049634 
L 247.44917 198.134617 
L 249.072443 197.472615 
L 253.40117 195.267404 
L 254.483352 194.798304 
L 256.647716 193.627744 
L 258.270989 192.87806 
L 259.35317 192.426496 
L 259.894261 192.031925 
L 260.976443 191.475142 
L 262.058625 190.878902 
L 263.140807 190.401034 
L 264.76408 189.528594 
L 268.551716 187.805636 
L 269.633898 187.205012 
L 273.421534 185.403139 
L 274.503716 184.912118 
L 277.750261 183.320683 
L 280.455716 182.268495 
L 282.078989 181.299605 
L 283.702261 180.598146 
L 284.243352 180.45347 
L 285.866625 179.703786 
L 288.030989 178.809426 
L 288.57208 178.704207 
L 289.11317 178.375399 
L 294.52408 176.314863 
L 296.688443 175.210066 
L 298.311716 174.631362 
L 303.181534 172.614668 
L 304.263716 172.198177 
L 304.804807 172.040349 
L 305.886989 171.527407 
L 309.674625 170.343695 
L 311.297898 169.703614 
L 312.92117 169.063533 
L 317.790989 167.169594 
L 319.955352 166.468135 
L 321.578625 165.766676 
L 329.694989 162.697794 
L 330.77717 162.24623 
L 331.859352 162.062097 
L 332.400443 161.82097 
L 333.482625 161.632453 
L 336.18808 160.685484 
L 337.811352 160.124317 
L 338.352443 159.782355 
L 341.598989 158.721399 
L 342.14008 158.432047 
L 342.68117 158.353133 
L 343.763352 157.848959 
L 344.304443 157.581528 
L 345.386625 157.388627 
L 347.550989 156.726625 
L 354.04408 154.267135 
L 354.58517 154.201374 
L 356.749534 153.561292 
L 357.831716 153.333318 
L 358.372807 153.079039 
L 358.913898 153.039582 
L 363.783716 151.478836 
L 364.865898 151.233326 
L 366.48917 150.825603 
L 368.653534 150.023309 
L 369.735716 149.571745 
L 370.817898 149.343771 
L 371.358989 149.282393 
L 375.146625 147.914549 
L 377.85208 147.318309 
L 378.934261 147.002652 
L 380.016443 146.857976 
L 381.098625 146.621234 
L 382.721898 146.003073 
L 386.509534 144.806209 
L 387.591716 144.639613 
L 388.132807 144.582619 
L 389.214989 144.174896 
L 391.920443 143.41206 
L 393.543716 142.833356 
L 396.790261 141.860082 
L 398.954625 141.127934 
L 399.495716 141.04902 
L 400.577898 140.610609 
L 400.577898 140.610609 
" style="fill:none;stroke:#7dff7a;stroke-linecap:round;stroke-width:1.5;"/>
   </g>
   <g id="line2d_20">
    <path clip-path="url(#p94425dda64)" d="M 75.923352 276.334125 
L 78.087716 274.790916 
L 79.710989 274.326199 
L 80.79317 274.29551 
L 81.875352 274.27359 
L 82.416443 274.269206 
L 82.957534 274.418266 
L 84.580807 274.492796 
L 86.20408 274.729538 
L 88.909534 274.238517 
L 91.073898 274.234133 
L 95.402625 273.594051 
L 95.943716 273.558978 
L 98.10808 272.949586 
L 98.64917 272.95397 
L 100.272443 272.476101 
L 101.354625 272.35773 
L 104.06008 271.656271 
L 105.683352 271.09072 
L 106.765534 270.722454 
L 107.306625 270.476944 
L 107.847716 270.476944 
L 110.01208 269.37653 
L 111.094261 268.863588 
L 117.046261 265.87362 
L 119.751716 264.264649 
L 120.292807 264.071748 
L 124.080443 261.989292 
L 124.621534 261.726245 
L 125.703716 261.033554 
L 127.86808 259.972598 
L 132.196807 258.104964 
L 135.443352 256.456535 
L 135.984443 256.232945 
L 136.525534 255.829606 
L 137.607716 255.250903 
L 139.230989 254.365311 
L 141.936443 253.093917 
L 145.72408 251.26574 
L 146.26517 251.085991 
L 147.888443 250.231088 
L 148.970625 249.77514 
L 153.299352 247.797903 
L 154.922625 247.219199 
L 155.463716 246.855317 
L 156.545898 246.412522 
L 158.710261 245.439247 
L 161.956807 244.40898 
L 162.497898 244.28184 
L 163.038989 243.9618 
L 165.203352 243.124433 
L 166.285534 242.602723 
L 180.353898 235.798573 
L 181.43608 235.215485 
L 183.059352 234.417575 
L 184.141534 234.018621 
L 185.223716 233.558288 
L 185.764807 233.225095 
L 186.305898 233.08042 
L 189.552443 231.44076 
L 191.716807 230.436797 
L 193.34008 229.586278 
L 195.504443 228.240354 
L 198.750989 226.495475 
L 200.915352 225.210928 
L 202.538625 224.334105 
L 207.408443 221.449355 
L 210.113898 220.05959 
L 212.278261 218.761891 
L 212.819352 218.538301 
L 213.360443 218.14373 
L 214.983716 217.293212 
L 216.606989 216.385699 
L 218.230261 215.60971 
L 221.476807 213.829759 
L 222.558989 213.20283 
L 224.723352 212.163794 
L 226.346625 211.392189 
L 227.428807 210.896784 
L 227.969898 210.502213 
L 228.510989 210.256703 
L 229.59317 209.533323 
L 236.086261 206.183857 
L 242.038261 203.255267 
L 242.579352 203.079902 
L 249.613534 199.235031 
L 250.695716 198.796619 
L 255.565534 196.302056 
L 256.106625 196.152996 
L 262.058625 193.057809 
L 262.599716 192.891212 
L 263.140807 192.597477 
L 264.76408 192.031925 
L 271.798261 188.643002 
L 272.339352 188.493942 
L 276.126989 186.674533 
L 277.20917 186.117751 
L 278.291352 185.631113 
L 290.736443 180.374556 
L 291.818625 179.809005 
L 295.06517 178.704207 
L 296.147352 178.156193 
L 298.852807 176.915487 
L 299.934989 176.700666 
L 301.558261 176.143883 
L 303.181534 175.582716 
L 306.42808 174.074579 
L 306.96917 174.035122 
L 312.38008 171.667699 
L 314.003352 170.856637 
L 319.955352 168.940777 
L 320.496443 168.6032 
L 322.660807 167.941198 
L 323.742989 167.458945 
L 327.530625 166.262081 
L 328.612807 165.8982 
L 330.23608 165.429099 
L 331.318261 164.924925 
L 331.859352 164.80217 
L 332.400443 164.539123 
L 332.941534 164.403215 
L 333.482625 164.118248 
L 336.18808 163.451862 
L 337.811352 162.947688 
L 340.516807 162.092785 
L 342.14008 161.557923 
L 343.222261 161.264187 
L 344.845534 160.641642 
L 345.927716 160.203231 
L 347.009898 159.756051 
L 347.550989 159.637679 
L 348.09208 159.396553 
L 349.715352 159.107201 
L 354.04408 157.734972 
L 366.48917 153.570061 
L 367.030261 153.526219 
L 372.44117 151.719963 
L 372.982261 151.641049 
L 373.523352 151.417459 
L 374.605534 151.338545 
L 375.687716 151.044809 
L 377.85208 150.132912 
L 380.016443 149.663812 
L 383.80408 148.497636 
L 386.509534 147.804946 
L 387.591716 147.51121 
L 389.214989 147.08595 
L 390.29717 146.735221 
L 390.838261 146.678227 
L 391.920443 146.248584 
L 392.461534 146.007457 
L 393.543716 145.761947 
L 395.166989 145.156939 
L 396.24917 144.858819 
L 397.331352 144.4774 
L 398.954625 144.166128 
L 400.577898 143.578656 
L 400.577898 143.578656 
" style="fill:none;stroke:#ceff29;stroke-linecap:round;stroke-width:1.5;"/>
   </g>
   <g id="line2d_21">
    <path clip-path="url(#p94425dda64)" d="M 75.923352 276.334125 
L 77.005534 275.395924 
L 78.087716 274.685697 
L 79.169898 274.321815 
L 81.334261 274.19906 
L 81.875352 274.374424 
L 83.498625 274.453338 
L 84.580807 274.628703 
L 86.20408 274.567326 
L 88.909534 274.321815 
L 89.991716 274.251669 
L 90.532807 274.378808 
L 92.15608 274.264821 
L 92.69717 274.256053 
L 94.861534 273.769416 
L 95.402625 273.729959 
L 95.943716 273.563363 
L 97.025898 273.47568 
L 97.566989 273.282779 
L 98.64917 273.067957 
L 99.731352 272.875056 
L 100.813534 272.739148 
L 101.895716 272.344578 
L 102.977898 272.107836 
L 109.470989 269.946465 
L 111.635352 269.113483 
L 112.717534 268.583005 
L 113.799716 268.065679 
L 115.422989 267.114325 
L 118.128443 265.579884 
L 120.292807 264.071748 
L 121.91608 262.866115 
L 124.621534 261.02917 
L 127.326989 258.740661 
L 130.032443 256.539833 
L 133.278989 253.659468 
L 133.82008 253.242977 
L 134.902261 252.203941 
L 151.134989 238.464116 
L 152.758261 236.960364 
L 162.497898 228.770832 
L 164.662261 226.833052 
L 166.285534 225.570426 
L 171.155352 221.449355 
L 173.319716 219.564185 
L 176.566261 216.63121 
L 177.648443 215.745618 
L 179.271716 214.347085 
L 180.894989 213.167757 
L 186.846989 207.792829 
L 198.209898 198.270525 
L 201.997534 195.109576 
L 203.079716 194.079308 
L 205.24408 192.198522 
L 212.819352 185.692491 
L 226.887716 173.934287 
L 227.969898 172.868947 
L 230.134261 171.088995 
L 231.757534 169.585243 
L 233.380807 168.388378 
L 234.462989 167.551012 
L 240.95608 161.952494 
L 245.825898 158.068165 
L 248.531352 155.862954 
L 252.86008 152.421422 
L 257.188807 149.085108 
L 258.270989 148.282815 
L 266.928443 141.426054 
L 269.633898 139.466354 
L 271.798261 137.655713 
L 272.880443 136.813963 
L 278.291352 132.535064 
L 278.832443 131.991433 
L 279.914625 131.246133 
L 285.866625 126.445524 
L 287.489898 124.959308 
L 289.654261 123.315264 
L 292.900807 120.763708 
L 298.852807 115.993788 
L 301.01717 114.270829 
L 303.722625 112.021777 
L 313.462261 104.332034 
L 315.626625 102.61346 
L 317.249898 101.377139 
L 318.33208 100.465243 
L 327.530625 93.060468 
L 328.612807 92.152955 
L 332.400443 89.206828 
L 333.482625 88.259859 
L 344.845534 79.110205 
L 346.468807 77.724824 
L 347.550989 77.001445 
L 349.174261 75.545917 
L 350.797534 74.261371 
L 352.420807 72.827764 
L 353.502989 71.964093 
L 355.126261 70.797918 
L 358.372807 68.088533 
L 360.53717 66.483946 
L 362.701534 64.695226 
L 363.783716 63.796482 
L 375.146625 54.716974 
L 378.934261 51.827841 
L 384.34517 47.171908 
L 385.968443 45.874209 
L 388.132807 44.181939 
L 390.29717 42.63873 
L 390.838261 42.160861 
L 391.379352 41.84082 
L 394.084807 39.696987 
L 397.872443 36.67633 
L 399.495716 35.255876 
L 400.577898 34.414125 
L 400.577898 34.414125 
" style="fill:none;stroke:#ffc400;stroke-linecap:round;stroke-width:1.5;"/>
   </g>
   <g id="line2d_22">
    <path clip-path="url(#p94425dda64)" d="M 75.923352 276.334125 
L 76.464443 275.751037 
L 77.546625 275.049579 
L 78.087716 274.747074 
L 78.628807 274.685697 
L 79.169898 274.448954 
L 80.25208 274.391961 
L 81.334261 274.418266 
L 81.875352 274.334967 
L 86.74517 274.64624 
L 89.991716 274.409497 
L 90.532807 274.207828 
L 91.614989 274.150834 
L 92.69717 274.032463 
L 93.238261 274.063152 
L 97.025898 273.387998 
L 97.566989 273.221401 
L 98.10808 273.181944 
L 99.190261 272.791758 
L 101.354625 272.388419 
L 101.895716 272.164829 
L 103.518989 271.779027 
L 105.142261 271.108257 
L 108.388807 270.266506 
L 108.929898 270.016611 
L 109.470989 269.999075 
L 110.55317 269.551895 
L 112.176443 268.885509 
L 112.717534 268.762754 
L 113.258625 268.390104 
L 118.128443 266.263807 
L 118.669534 265.917461 
L 119.210625 265.733328 
L 121.374989 264.470702 
L 126.785898 261.581569 
L 128.40917 260.50746 
L 131.114625 258.973019 
L 132.737898 257.942751 
L 133.278989 257.688472 
L 134.902261 256.614363 
L 135.984443 256.044428 
L 138.148807 254.983472 
L 138.689898 254.803723 
L 139.77208 254.154873 
L 143.559716 252.10749 
L 144.641898 251.704152 
L 145.72408 251.125448 
L 147.888443 249.937352 
L 148.429534 249.691842 
L 148.970625 249.306039 
L 149.511716 249.165747 
L 150.593898 248.587044 
L 153.299352 247.170974 
L 154.381534 246.535277 
L 158.16917 244.452821 
L 160.333534 243.334871 
L 161.415716 242.607107 
L 162.497898 242.177464 
L 165.203352 240.936759 
L 167.908807 239.766199 
L 170.07317 238.727163 
L 171.155352 238.144076 
L 173.319716 236.75431 
L 174.942989 235.824877 
L 176.566261 235.057657 
L 179.271716 233.391692 
L 180.353898 232.812988 
L 185.223716 230.178134 
L 186.305898 229.441602 
L 189.552443 227.797558 
L 191.175716 226.806747 
L 193.34008 225.570426 
L 193.88117 225.399445 
L 195.504443 224.557695 
L 199.29208 222.606762 
L 199.83317 222.225344 
L 200.374261 222.023675 
L 200.915352 221.677329 
L 201.997534 221.186308 
L 203.620807 220.239339 
L 204.702989 219.533496 
L 209.572807 217.056469 
L 210.654989 216.622442 
L 214.442625 214.496145 
L 217.14808 213.237903 
L 219.853534 211.58509 
L 221.476807 210.883632 
L 222.017898 210.550439 
L 223.10008 210.116411 
L 231.216443 205.521856 
L 236.627352 202.926458 
L 237.709534 202.32145 
L 243.120443 199.774277 
L 244.202625 199.134196 
L 245.284807 198.695784 
L 247.990261 197.415622 
L 249.072443 196.911448 
L 250.695716 196.201221 
L 253.942261 194.456342 
L 256.647716 193.298935 
L 258.270989 192.470337 
L 261.517534 191.010426 
L 262.599716 190.352808 
L 264.76408 189.787257 
L 267.469534 188.546552 
L 269.633898 187.669728 
L 270.71608 187.152402 
L 271.25717 186.863051 
L 271.798261 186.753448 
L 273.421534 186.0213 
L 275.585898 184.934039 
L 276.126989 184.784979 
L 277.750261 184.035295 
L 278.832443 183.724022 
L 291.818625 177.954523 
L 296.688443 175.552027 
L 301.01717 173.627399 
L 302.640443 172.996086 
L 305.345898 171.755381 
L 305.886989 171.698387 
L 306.42808 171.41342 
L 307.510261 171.141604 
L 310.215716 170.374384 
L 314.003352 168.594432 
L 316.167716 167.700072 
L 317.249898 167.230971 
L 322.119716 165.538702 
L 323.201898 165.034528 
L 324.28408 164.521587 
L 324.82517 164.376911 
L 325.366261 164.096327 
L 326.448443 163.991108 
L 328.612807 163.206351 
L 329.694989 162.860006 
L 330.23608 162.820549 
L 330.77717 162.49174 
L 332.400443 162.184852 
L 333.482625 161.737672 
L 338.352443 160.005945 
L 339.975716 159.563149 
L 341.598989 159.076512 
L 347.009898 157.585912 
L 347.550989 157.511382 
L 348.09208 157.147501 
L 349.715352 156.682784 
L 350.797534 156.358359 
L 353.502989 155.345628 
L 354.58517 154.972978 
L 355.667352 154.784461 
L 357.290625 154.289056 
L 358.372807 153.881333 
L 362.701534 152.434574 
L 364.865898 151.873407 
L 365.94808 151.487605 
L 367.030261 151.316624 
L 369.194625 150.794914 
L 372.44117 149.913706 
L 374.064443 149.2254 
L 374.605534 149.107029 
L 375.687716 148.729995 
L 376.769898 148.453795 
L 378.39317 147.967158 
L 382.180807 146.844824 
L 383.80408 146.226663 
L 384.34517 146.02061 
L 385.427352 145.858397 
L 388.673898 144.950885 
L 389.214989 144.722911 
L 390.29717 144.578235 
L 390.838261 144.486169 
L 391.379352 144.223122 
L 391.920443 144.122287 
L 393.543716 143.517279 
L 397.872443 141.969685 
L 398.954625 141.785552 
L 400.577898 141.500584 
L 400.577898 141.500584 
" style="fill:none;stroke:#ff6800;stroke-linecap:round;stroke-width:1.5;"/>
   </g>
   <g id="line2d_23">
    <path clip-path="url(#p94425dda64)" d="M 75.923352 276.334125 
L 76.464443 275.856256 
L 78.087716 274.847909 
L 79.710989 274.448954 
L 81.875352 274.435802 
L 85.121898 274.694465 
L 86.74517 274.567326 
L 87.286261 274.457723 
L 87.827352 274.466491 
L 88.368443 274.308663 
L 89.991716 274.286742 
L 97.025898 273.585283 
L 100.272443 272.756685 
L 102.977898 272.388419 
L 105.142261 271.691344 
L 108.929898 270.533937 
L 111.094261 269.661498 
L 112.176443 269.126635 
L 115.422989 267.798248 
L 116.50517 267.123094 
L 117.587352 266.653993 
L 119.210625 265.886772 
L 120.292807 265.220387 
L 122.998261 263.813085 
L 124.080443 263.251918 
L 125.162625 262.673214 
L 125.703716 262.502234 
L 126.785898 261.853384 
L 130.032443 259.766544 
L 132.737898 258.210182 
L 135.443352 256.890563 
L 136.525534 256.224177 
L 137.607716 255.741924 
L 139.77208 254.566981 
L 145.182989 252.567823 
L 147.347352 251.388495 
L 147.888443 251.230667 
L 152.758261 248.779945 
L 155.463716 247.56116 
L 157.086989 246.622959 
L 157.62808 246.504588 
L 161.415716 244.417748 
L 163.038989 243.431321 
L 164.662261 242.56765 
L 171.696443 239.04282 
L 173.319716 237.951174 
L 178.730625 235.154107 
L 180.894989 233.930938 
L 183.059352 232.742842 
L 184.141534 232.225517 
L 187.92917 230.090451 
L 189.011352 229.45037 
L 190.634625 228.534089 
L 193.88117 226.675224 
L 194.963352 226.048295 
L 199.83317 223.724712 
L 201.456443 222.676908 
L 204.161898 221.282759 
L 205.78517 220.35771 
L 212.278261 216.740813 
L 213.360443 216.337474 
L 219.312443 213.040617 
L 219.853534 212.55398 
L 220.935716 212.03227 
L 222.017898 211.506176 
L 223.10008 210.804717 
L 224.723352 209.866516 
L 226.346625 208.941467 
L 227.428807 208.45483 
L 228.510989 207.788444 
L 231.216443 206.297844 
L 232.298625 205.933963 
L 236.627352 203.531466 
L 237.168443 203.123743 
L 238.250625 202.76863 
L 245.284807 199.186805 
L 246.366989 198.555492 
L 254.483352 194.710621 
L 258.81208 192.496642 
L 262.599716 190.694769 
L 265.30517 189.383918 
L 266.387352 188.756989 
L 267.469534 188.397492 
L 268.551716 187.748642 
L 271.25717 186.437791 
L 271.798261 186.034452 
L 278.291352 183.237385 
L 279.373534 182.706907 
L 280.996807 182.136972 
L 282.078989 181.619646 
L 284.784443 180.712133 
L 286.407716 179.966833 
L 288.57208 179.147003 
L 290.195352 178.353478 
L 292.900807 177.182919 
L 295.606261 176.240333 
L 297.229534 175.657246 
L 299.934989 174.521759 
L 302.640443 173.430114 
L 303.722625 173.022391 
L 306.42808 172.149951 
L 306.96917 172.005276 
L 307.510261 171.720308 
L 308.592443 171.387115 
L 309.674625 170.874173 
L 310.756807 170.562901 
L 311.838989 170.111337 
L 315.626625 168.559359 
L 316.708807 168.129716 
L 318.33208 167.507171 
L 319.414261 167.296733 
L 319.955352 167.002997 
L 323.201898 166.042875 
L 328.071716 164.048102 
L 329.153898 163.473782 
L 329.694989 163.372948 
L 330.77717 162.943304 
L 333.482625 162.062097 
L 336.72917 160.865232 
L 337.270261 160.720557 
L 337.811352 160.448741 
L 338.893534 160.141853 
L 339.975716 159.707825 
L 341.598989 159.159811 
L 343.222261 158.712631 
L 344.304443 158.195305 
L 345.386625 158.050629 
L 345.927716 157.787582 
L 348.09208 157.239567 
L 351.879716 155.867338 
L 352.961898 155.683205 
L 355.667352 154.837071 
L 356.208443 154.59156 
L 357.831716 154.21891 
L 361.078261 153.359623 
L 365.406989 152.171527 
L 366.48917 151.974242 
L 367.030261 151.676122 
L 369.194625 151.110571 
L 372.44117 150.084687 
L 374.605534 149.580513 
L 376.228807 149.190327 
L 377.310989 149.032499 
L 381.639716 147.813714 
L 382.721898 147.616429 
L 387.591716 146.309962 
L 389.214989 145.814556 
L 390.29717 145.560277 
L 391.920443 145.042952 
L 393.002625 144.771136 
L 395.70808 143.95569 
L 398.413534 143.013105 
L 398.954625 142.969264 
L 400.036807 142.596614 
L 400.577898 142.508932 
L 400.577898 142.508932 
" style="fill:none;stroke:#f10800;stroke-linecap:round;stroke-width:1.5;"/>
   </g>
   <g id="patch_3">
    <path d="M 59.690625 288.430125 
L 59.690625 22.318125 
" style="fill:none;stroke:#cccccc;stroke-linecap:square;stroke-linejoin:miter;stroke-width:0.8;"/>
   </g>
   <g id="patch_4">
    <path d="M 416.810625 288.430125 
L 416.810625 22.318125 
" style="fill:none;stroke:#cccccc;stroke-linecap:square;stroke-linejoin:miter;stroke-width:0.8;"/>
   </g>
   <g id="patch_5">
    <path d="M 59.690625 288.430125 
L 416.810625 288.430125 
" style="fill:none;stroke:#cccccc;stroke-linecap:square;stroke-linejoin:miter;stroke-width:0.8;"/>
   </g>
   <g id="patch_6">
    <path d="M 59.690625 22.318125 
L 416.810625 22.318125 
" style="fill:none;stroke:#cccccc;stroke-linecap:square;stroke-linejoin:miter;stroke-width:0.8;"/>
   </g>
   <g id="text_16">
    <!-- Naive T CD8 -->
    <defs>
     <path d="M 9.8125 72.90625 
L 23.09375 72.90625 
L 55.421875 11.921875 
L 55.421875 72.90625 
L 64.984375 72.90625 
L 64.984375 0 
L 51.703125 0 
L 19.390625 60.984375 
L 19.390625 0 
L 9.8125 0 
z
" id="DejaVuSans-78"/>
     <path d="M 2.984375 54.6875 
L 12.5 54.6875 
L 29.59375 8.796875 
L 46.6875 54.6875 
L 56.203125 54.6875 
L 35.6875 0 
L 23.484375 0 
z
" id="DejaVuSans-118"/>
     <path d="M -0.296875 72.90625 
L 61.375 72.90625 
L 61.375 64.59375 
L 35.5 64.59375 
L 35.5 0 
L 25.59375 0 
L 25.59375 64.59375 
L -0.296875 64.59375 
z
" id="DejaVuSans-84"/>
     <path d="M 64.40625 67.28125 
L 64.40625 56.890625 
Q 59.421875 61.53125 53.78125 63.8125 
Q 48.140625 66.109375 41.796875 66.109375 
Q 29.296875 66.109375 22.65625 58.46875 
Q 16.015625 50.828125 16.015625 36.375 
Q 16.015625 21.96875 22.65625 14.328125 
Q 29.296875 6.6875 41.796875 6.6875 
Q 48.140625 6.6875 53.78125 8.984375 
Q 59.421875 11.28125 64.40625 15.921875 
L 64.40625 5.609375 
Q 59.234375 2.09375 53.4375 0.328125 
Q 47.65625 -1.421875 41.21875 -1.421875 
Q 24.65625 -1.421875 15.125 8.703125 
Q 5.609375 18.84375 5.609375 36.375 
Q 5.609375 53.953125 15.125 64.078125 
Q 24.65625 74.21875 41.21875 74.21875 
Q 47.75 74.21875 53.53125 72.484375 
Q 59.328125 70.75 64.40625 67.28125 
z
" id="DejaVuSans-67"/>
     <path d="M 19.671875 64.796875 
L 19.671875 8.109375 
L 31.59375 8.109375 
Q 46.6875 8.109375 53.6875 14.9375 
Q 60.6875 21.78125 60.6875 36.53125 
Q 60.6875 51.171875 53.6875 57.984375 
Q 46.6875 64.796875 31.59375 64.796875 
z
M 9.8125 72.90625 
L 30.078125 72.90625 
Q 51.265625 72.90625 61.171875 64.09375 
Q 71.09375 55.28125 71.09375 36.53125 
Q 71.09375 17.671875 61.125 8.828125 
Q 51.171875 0 30.078125 0 
L 9.8125 0 
z
" id="DejaVuSans-68"/>
     <path d="M 31.78125 34.625 
Q 24.75 34.625 20.71875 30.859375 
Q 16.703125 27.09375 16.703125 20.515625 
Q 16.703125 13.921875 20.71875 10.15625 
Q 24.75 6.390625 31.78125 6.390625 
Q 38.8125 6.390625 42.859375 10.171875 
Q 46.921875 13.96875 46.921875 20.515625 
Q 46.921875 27.09375 42.890625 30.859375 
Q 38.875 34.625 31.78125 34.625 
z
M 21.921875 38.8125 
Q 15.578125 40.375 12.03125 44.71875 
Q 8.5 49.078125 8.5 55.328125 
Q 8.5 64.0625 14.71875 69.140625 
Q 20.953125 74.21875 31.78125 74.21875 
Q 42.671875 74.21875 48.875 69.140625 
Q 55.078125 64.0625 55.078125 55.328125 
Q 55.078125 49.078125 51.53125 44.71875 
Q 48 40.375 41.703125 38.8125 
Q 48.828125 37.15625 52.796875 32.3125 
Q 56.78125 27.484375 56.78125 20.515625 
Q 56.78125 9.90625 50.3125 4.234375 
Q 43.84375 -1.421875 31.78125 -1.421875 
Q 19.734375 -1.421875 13.25 4.234375 
Q 6.78125 9.90625 6.78125 20.515625 
Q 6.78125 27.484375 10.78125 32.3125 
Q 14.796875 37.15625 21.921875 38.8125 
z
M 18.3125 54.390625 
Q 18.3125 48.734375 21.84375 45.5625 
Q 25.390625 42.390625 31.78125 42.390625 
Q 38.140625 42.390625 41.71875 45.5625 
Q 45.3125 48.734375 45.3125 54.390625 
Q 45.3125 60.0625 41.71875 63.234375 
Q 38.140625 66.40625 31.78125 66.40625 
Q 25.390625 66.40625 21.84375 63.234375 
Q 18.3125 60.0625 18.3125 54.390625 
z
" id="DejaVuSans-56"/>
    </defs>
    <g style="fill:#262626;" transform="translate(201.069375 16.318125)scale(0.12 -0.12)">
     <use xlink:href="#DejaVuSans-78"/>
     <use x="74.804688" xlink:href="#DejaVuSans-97"/>
     <use x="136.083984" xlink:href="#DejaVuSans-105"/>
     <use x="163.867188" xlink:href="#DejaVuSans-118"/>
     <use x="223.046875" xlink:href="#DejaVuSans-101"/>
     <use x="284.570312" xlink:href="#DejaVuSans-32"/>
     <use x="316.357422" xlink:href="#DejaVuSans-84"/>
     <use x="377.441406" xlink:href="#DejaVuSans-32"/>
     <use x="409.228516" xlink:href="#DejaVuSans-67"/>
     <use x="479.052734" xlink:href="#DejaVuSans-68"/>
     <use x="556.054688" xlink:href="#DejaVuSans-56"/>
    </g>
   </g>
  </g>
 </g>
 <defs>
  <clipPath id="p94425dda64">
   <rect height="266.112" width="357.12" x="59.690625" y="22.318125"/>
  </clipPath>
 </defs>
</svg>
