<?xml version="1.0" encoding="utf-8" standalone="no"?>
<!DOCTYPE svg PUBLIC "-//W3C//DTD SVG 1.1//EN"
  "http://www.w3.org/Graphics/SVG/1.1/DTD/svg11.dtd">
<!-- Created with matplotlib (https://matplotlib.org/) -->
<svg height="310.86825pt" version="1.1" viewBox="0 0 430.373125 310.86825" width="430.373125pt" xmlns="http://www.w3.org/2000/svg" xmlns:xlink="http://www.w3.org/1999/xlink">
 <defs>
  <style type="text/css">
*{stroke-linecap:butt;stroke-linejoin:round;white-space:pre;}
  </style>
 </defs>
 <g id="figure_1">
  <g id="patch_1">
   <path d="M 0 310.86825 
L 430.373125 310.86825 
L 430.373125 0 
L 0 0 
z
" style="fill:#ffffff;"/>
  </g>
  <g id="axes_1">
   <g id="patch_2">
    <path d="M 66.053125 273.312 
L 423.173125 273.312 
L 423.173125 7.2 
L 66.053125 7.2 
z
" style="fill:#ffffff;"/>
   </g>
   <g id="matplotlib.axis_1">
    <g id="xtick_1">
     <g id="line2d_1">
      <path clip-path="url(#pfde0c51f3e)" d="M 82.285852 273.312 
L 82.285852 7.2 
" style="fill:none;stroke:#cccccc;stroke-linecap:round;stroke-width:0.8;"/>
     </g>
     <g id="text_1">
      <!-- 0 -->
      <defs>
       <path d="M 31.78125 66.40625 
Q 24.171875 66.40625 20.328125 58.90625 
Q 16.5 51.421875 16.5 36.375 
Q 16.5 21.390625 20.328125 13.890625 
Q 24.171875 6.390625 31.78125 6.390625 
Q 39.453125 6.390625 43.28125 13.890625 
Q 47.125 21.390625 47.125 36.375 
Q 47.125 51.421875 43.28125 58.90625 
Q 39.453125 66.40625 31.78125 66.40625 
z
M 31.78125 74.21875 
Q 44.046875 74.21875 50.515625 64.515625 
Q 56.984375 54.828125 56.984375 36.375 
Q 56.984375 17.96875 50.515625 8.265625 
Q 44.046875 -1.421875 31.78125 -1.421875 
Q 19.53125 -1.421875 13.0625 8.265625 
Q 6.59375 17.96875 6.59375 36.375 
Q 6.59375 54.828125 13.0625 64.515625 
Q 19.53125 74.21875 31.78125 74.21875 
z
" id="DejaVuSans-48"/>
      </defs>
      <g style="fill:#262626;" transform="translate(79.104602 287.910438)scale(0.1 -0.1)">
       <use xlink:href="#DejaVuSans-48"/>
      </g>
     </g>
    </g>
    <g id="xtick_2">
     <g id="line2d_2">
      <path clip-path="url(#pfde0c51f3e)" d="M 150.634178 273.312 
L 150.634178 7.2 
" style="fill:none;stroke:#cccccc;stroke-linecap:round;stroke-width:0.8;"/>
     </g>
     <g id="text_2">
      <!-- 2 -->
      <defs>
       <path d="M 19.1875 8.296875 
L 53.609375 8.296875 
L 53.609375 0 
L 7.328125 0 
L 7.328125 8.296875 
Q 12.9375 14.109375 22.625 23.890625 
Q 32.328125 33.6875 34.8125 36.53125 
Q 39.546875 41.84375 41.421875 45.53125 
Q 43.3125 49.21875 43.3125 52.78125 
Q 43.3125 58.59375 39.234375 62.25 
Q 35.15625 65.921875 28.609375 65.921875 
Q 23.96875 65.921875 18.8125 64.3125 
Q 13.671875 62.703125 7.8125 59.421875 
L 7.8125 69.390625 
Q 13.765625 71.78125 18.9375 73 
Q 24.125 74.21875 28.421875 74.21875 
Q 39.75 74.21875 46.484375 68.546875 
Q 53.21875 62.890625 53.21875 53.421875 
Q 53.21875 48.921875 51.53125 44.890625 
Q 49.859375 40.875 45.40625 35.40625 
Q 44.1875 33.984375 37.640625 27.21875 
Q 31.109375 20.453125 19.1875 8.296875 
z
" id="DejaVuSans-50"/>
      </defs>
      <g style="fill:#262626;" transform="translate(147.452928 287.910438)scale(0.1 -0.1)">
       <use xlink:href="#DejaVuSans-50"/>
      </g>
     </g>
    </g>
    <g id="xtick_3">
     <g id="line2d_3">
      <path clip-path="url(#pfde0c51f3e)" d="M 218.982503 273.312 
L 218.982503 7.2 
" style="fill:none;stroke:#cccccc;stroke-linecap:round;stroke-width:0.8;"/>
     </g>
     <g id="text_3">
      <!-- 4 -->
      <defs>
       <path d="M 37.796875 64.3125 
L 12.890625 25.390625 
L 37.796875 25.390625 
z
M 35.203125 72.90625 
L 47.609375 72.90625 
L 47.609375 25.390625 
L 58.015625 25.390625 
L 58.015625 17.1875 
L 47.609375 17.1875 
L 47.609375 0 
L 37.796875 0 
L 37.796875 17.1875 
L 4.890625 17.1875 
L 4.890625 26.703125 
z
" id="DejaVuSans-52"/>
      </defs>
      <g style="fill:#262626;" transform="translate(215.801253 287.910438)scale(0.1 -0.1)">
       <use xlink:href="#DejaVuSans-52"/>
      </g>
     </g>
    </g>
    <g id="xtick_4">
     <g id="line2d_4">
      <path clip-path="url(#pfde0c51f3e)" d="M 287.330828 273.312 
L 287.330828 7.2 
" style="fill:none;stroke:#cccccc;stroke-linecap:round;stroke-width:0.8;"/>
     </g>
     <g id="text_4">
      <!-- 6 -->
      <defs>
       <path d="M 33.015625 40.375 
Q 26.375 40.375 22.484375 35.828125 
Q 18.609375 31.296875 18.609375 23.390625 
Q 18.609375 15.53125 22.484375 10.953125 
Q 26.375 6.390625 33.015625 6.390625 
Q 39.65625 6.390625 43.53125 10.953125 
Q 47.40625 15.53125 47.40625 23.390625 
Q 47.40625 31.296875 43.53125 35.828125 
Q 39.65625 40.375 33.015625 40.375 
z
M 52.59375 71.296875 
L 52.59375 62.3125 
Q 48.875 64.0625 45.09375 64.984375 
Q 41.3125 65.921875 37.59375 65.921875 
Q 27.828125 65.921875 22.671875 59.328125 
Q 17.53125 52.734375 16.796875 39.40625 
Q 19.671875 43.65625 24.015625 45.921875 
Q 28.375 48.1875 33.59375 48.1875 
Q 44.578125 48.1875 50.953125 41.515625 
Q 57.328125 34.859375 57.328125 23.390625 
Q 57.328125 12.15625 50.6875 5.359375 
Q 44.046875 -1.421875 33.015625 -1.421875 
Q 20.359375 -1.421875 13.671875 8.265625 
Q 6.984375 17.96875 6.984375 36.375 
Q 6.984375 53.65625 15.1875 63.9375 
Q 23.390625 74.21875 37.203125 74.21875 
Q 40.921875 74.21875 44.703125 73.484375 
Q 48.484375 72.75 52.59375 71.296875 
z
" id="DejaVuSans-54"/>
      </defs>
      <g style="fill:#262626;" transform="translate(284.149578 287.910438)scale(0.1 -0.1)">
       <use xlink:href="#DejaVuSans-54"/>
      </g>
     </g>
    </g>
    <g id="xtick_5">
     <g id="line2d_5">
      <path clip-path="url(#pfde0c51f3e)" d="M 355.679154 273.312 
L 355.679154 7.2 
" style="fill:none;stroke:#cccccc;stroke-linecap:round;stroke-width:0.8;"/>
     </g>
     <g id="text_5">
      <!-- 8 -->
      <defs>
       <path d="M 31.78125 34.625 
Q 24.75 34.625 20.71875 30.859375 
Q 16.703125 27.09375 16.703125 20.515625 
Q 16.703125 13.921875 20.71875 10.15625 
Q 24.75 6.390625 31.78125 6.390625 
Q 38.8125 6.390625 42.859375 10.171875 
Q 46.921875 13.96875 46.921875 20.515625 
Q 46.921875 27.09375 42.890625 30.859375 
Q 38.875 34.625 31.78125 34.625 
z
M 21.921875 38.8125 
Q 15.578125 40.375 12.03125 44.71875 
Q 8.5 49.078125 8.5 55.328125 
Q 8.5 64.0625 14.71875 69.140625 
Q 20.953125 74.21875 31.78125 74.21875 
Q 42.671875 74.21875 48.875 69.140625 
Q 55.078125 64.0625 55.078125 55.328125 
Q 55.078125 49.078125 51.53125 44.71875 
Q 48 40.375 41.703125 38.8125 
Q 48.828125 37.15625 52.796875 32.3125 
Q 56.78125 27.484375 56.78125 20.515625 
Q 56.78125 9.90625 50.3125 4.234375 
Q 43.84375 -1.421875 31.78125 -1.421875 
Q 19.734375 -1.421875 13.25 4.234375 
Q 6.78125 9.90625 6.78125 20.515625 
Q 6.78125 27.484375 10.78125 32.3125 
Q 14.796875 37.15625 21.921875 38.8125 
z
M 18.3125 54.390625 
Q 18.3125 48.734375 21.84375 45.5625 
Q 25.390625 42.390625 31.78125 42.390625 
Q 38.140625 42.390625 41.71875 45.5625 
Q 45.3125 48.734375 45.3125 54.390625 
Q 45.3125 60.0625 41.71875 63.234375 
Q 38.140625 66.40625 31.78125 66.40625 
Q 25.390625 66.40625 21.84375 63.234375 
Q 18.3125 60.0625 18.3125 54.390625 
z
" id="DejaVuSans-56"/>
      </defs>
      <g style="fill:#262626;" transform="translate(352.497904 287.910438)scale(0.1 -0.1)">
       <use xlink:href="#DejaVuSans-56"/>
      </g>
     </g>
    </g>
    <g id="text_6">
     <!-- time (days) -->
     <defs>
      <path d="M 18.3125 70.21875 
L 18.3125 54.6875 
L 36.8125 54.6875 
L 36.8125 47.703125 
L 18.3125 47.703125 
L 18.3125 18.015625 
Q 18.3125 11.328125 20.140625 9.421875 
Q 21.96875 7.515625 27.59375 7.515625 
L 36.8125 7.515625 
L 36.8125 0 
L 27.59375 0 
Q 17.1875 0 13.234375 3.875 
Q 9.28125 7.765625 9.28125 18.015625 
L 9.28125 47.703125 
L 2.6875 47.703125 
L 2.6875 54.6875 
L 9.28125 54.6875 
L 9.28125 70.21875 
z
" id="DejaVuSans-116"/>
      <path d="M 9.421875 54.6875 
L 18.40625 54.6875 
L 18.40625 0 
L 9.421875 0 
z
M 9.421875 75.984375 
L 18.40625 75.984375 
L 18.40625 64.59375 
L 9.421875 64.59375 
z
" id="DejaVuSans-105"/>
      <path d="M 52 44.1875 
Q 55.375 50.25 60.0625 53.125 
Q 64.75 56 71.09375 56 
Q 79.640625 56 84.28125 50.015625 
Q 88.921875 44.046875 88.921875 33.015625 
L 88.921875 0 
L 79.890625 0 
L 79.890625 32.71875 
Q 79.890625 40.578125 77.09375 44.375 
Q 74.3125 48.1875 68.609375 48.1875 
Q 61.625 48.1875 57.5625 43.546875 
Q 53.515625 38.921875 53.515625 30.90625 
L 53.515625 0 
L 44.484375 0 
L 44.484375 32.71875 
Q 44.484375 40.625 41.703125 44.40625 
Q 38.921875 48.1875 33.109375 48.1875 
Q 26.21875 48.1875 22.15625 43.53125 
Q 18.109375 38.875 18.109375 30.90625 
L 18.109375 0 
L 9.078125 0 
L 9.078125 54.6875 
L 18.109375 54.6875 
L 18.109375 46.1875 
Q 21.1875 51.21875 25.484375 53.609375 
Q 29.78125 56 35.6875 56 
Q 41.65625 56 45.828125 52.96875 
Q 50 49.953125 52 44.1875 
z
" id="DejaVuSans-109"/>
      <path d="M 56.203125 29.59375 
L 56.203125 25.203125 
L 14.890625 25.203125 
Q 15.484375 15.921875 20.484375 11.0625 
Q 25.484375 6.203125 34.421875 6.203125 
Q 39.59375 6.203125 44.453125 7.46875 
Q 49.3125 8.734375 54.109375 11.28125 
L 54.109375 2.78125 
Q 49.265625 0.734375 44.1875 -0.34375 
Q 39.109375 -1.421875 33.890625 -1.421875 
Q 20.796875 -1.421875 13.15625 6.1875 
Q 5.515625 13.8125 5.515625 26.8125 
Q 5.515625 40.234375 12.765625 48.109375 
Q 20.015625 56 32.328125 56 
Q 43.359375 56 49.78125 48.890625 
Q 56.203125 41.796875 56.203125 29.59375 
z
M 47.21875 32.234375 
Q 47.125 39.59375 43.09375 43.984375 
Q 39.0625 48.390625 32.421875 48.390625 
Q 24.90625 48.390625 20.390625 44.140625 
Q 15.875 39.890625 15.1875 32.171875 
z
" id="DejaVuSans-101"/>
      <path id="DejaVuSans-32"/>
      <path d="M 31 75.875 
Q 24.46875 64.65625 21.28125 53.65625 
Q 18.109375 42.671875 18.109375 31.390625 
Q 18.109375 20.125 21.3125 9.0625 
Q 24.515625 -2 31 -13.1875 
L 23.1875 -13.1875 
Q 15.875 -1.703125 12.234375 9.375 
Q 8.59375 20.453125 8.59375 31.390625 
Q 8.59375 42.28125 12.203125 53.3125 
Q 15.828125 64.359375 23.1875 75.875 
z
" id="DejaVuSans-40"/>
      <path d="M 45.40625 46.390625 
L 45.40625 75.984375 
L 54.390625 75.984375 
L 54.390625 0 
L 45.40625 0 
L 45.40625 8.203125 
Q 42.578125 3.328125 38.25 0.953125 
Q 33.9375 -1.421875 27.875 -1.421875 
Q 17.96875 -1.421875 11.734375 6.484375 
Q 5.515625 14.40625 5.515625 27.296875 
Q 5.515625 40.1875 11.734375 48.09375 
Q 17.96875 56 27.875 56 
Q 33.9375 56 38.25 53.625 
Q 42.578125 51.265625 45.40625 46.390625 
z
M 14.796875 27.296875 
Q 14.796875 17.390625 18.875 11.75 
Q 22.953125 6.109375 30.078125 6.109375 
Q 37.203125 6.109375 41.296875 11.75 
Q 45.40625 17.390625 45.40625 27.296875 
Q 45.40625 37.203125 41.296875 42.84375 
Q 37.203125 48.484375 30.078125 48.484375 
Q 22.953125 48.484375 18.875 42.84375 
Q 14.796875 37.203125 14.796875 27.296875 
z
" id="DejaVuSans-100"/>
      <path d="M 34.28125 27.484375 
Q 23.390625 27.484375 19.1875 25 
Q 14.984375 22.515625 14.984375 16.5 
Q 14.984375 11.71875 18.140625 8.90625 
Q 21.296875 6.109375 26.703125 6.109375 
Q 34.1875 6.109375 38.703125 11.40625 
Q 43.21875 16.703125 43.21875 25.484375 
L 43.21875 27.484375 
z
M 52.203125 31.203125 
L 52.203125 0 
L 43.21875 0 
L 43.21875 8.296875 
Q 40.140625 3.328125 35.546875 0.953125 
Q 30.953125 -1.421875 24.3125 -1.421875 
Q 15.921875 -1.421875 10.953125 3.296875 
Q 6 8.015625 6 15.921875 
Q 6 25.140625 12.171875 29.828125 
Q 18.359375 34.515625 30.609375 34.515625 
L 43.21875 34.515625 
L 43.21875 35.40625 
Q 43.21875 41.609375 39.140625 45 
Q 35.0625 48.390625 27.6875 48.390625 
Q 23 48.390625 18.546875 47.265625 
Q 14.109375 46.140625 10.015625 43.890625 
L 10.015625 52.203125 
Q 14.9375 54.109375 19.578125 55.046875 
Q 24.21875 56 28.609375 56 
Q 40.484375 56 46.34375 49.84375 
Q 52.203125 43.703125 52.203125 31.203125 
z
" id="DejaVuSans-97"/>
      <path d="M 32.171875 -5.078125 
Q 28.375 -14.84375 24.75 -17.8125 
Q 21.140625 -20.796875 15.09375 -20.796875 
L 7.90625 -20.796875 
L 7.90625 -13.28125 
L 13.1875 -13.28125 
Q 16.890625 -13.28125 18.9375 -11.515625 
Q 21 -9.765625 23.484375 -3.21875 
L 25.09375 0.875 
L 2.984375 54.6875 
L 12.5 54.6875 
L 29.59375 11.921875 
L 46.6875 54.6875 
L 56.203125 54.6875 
z
" id="DejaVuSans-121"/>
      <path d="M 44.28125 53.078125 
L 44.28125 44.578125 
Q 40.484375 46.53125 36.375 47.5 
Q 32.28125 48.484375 27.875 48.484375 
Q 21.1875 48.484375 17.84375 46.4375 
Q 14.5 44.390625 14.5 40.28125 
Q 14.5 37.15625 16.890625 35.375 
Q 19.28125 33.59375 26.515625 31.984375 
L 29.59375 31.296875 
Q 39.15625 29.25 43.1875 25.515625 
Q 47.21875 21.78125 47.21875 15.09375 
Q 47.21875 7.46875 41.1875 3.015625 
Q 35.15625 -1.421875 24.609375 -1.421875 
Q 20.21875 -1.421875 15.453125 -0.5625 
Q 10.6875 0.296875 5.421875 2 
L 5.421875 11.28125 
Q 10.40625 8.6875 15.234375 7.390625 
Q 20.0625 6.109375 24.8125 6.109375 
Q 31.15625 6.109375 34.5625 8.28125 
Q 37.984375 10.453125 37.984375 14.40625 
Q 37.984375 18.0625 35.515625 20.015625 
Q 33.0625 21.96875 24.703125 23.78125 
L 21.578125 24.515625 
Q 13.234375 26.265625 9.515625 29.90625 
Q 5.8125 33.546875 5.8125 39.890625 
Q 5.8125 47.609375 11.28125 51.796875 
Q 16.75 56 26.8125 56 
Q 31.78125 56 36.171875 55.265625 
Q 40.578125 54.546875 44.28125 53.078125 
z
" id="DejaVuSans-115"/>
      <path d="M 8.015625 75.875 
L 15.828125 75.875 
Q 23.140625 64.359375 26.78125 53.3125 
Q 30.421875 42.28125 30.421875 31.390625 
Q 30.421875 20.453125 26.78125 9.375 
Q 23.140625 -1.703125 15.828125 -13.1875 
L 8.015625 -13.1875 
Q 14.5 -2 17.703125 9.0625 
Q 20.90625 20.125 20.90625 31.390625 
Q 20.90625 42.671875 17.703125 53.65625 
Q 14.5 64.65625 8.015625 75.875 
z
" id="DejaVuSans-41"/>
     </defs>
     <g style="fill:#262626;" transform="translate(216.024063 301.588562)scale(0.1 -0.1)">
      <use xlink:href="#DejaVuSans-116"/>
      <use x="39.208984" xlink:href="#DejaVuSans-105"/>
      <use x="66.992188" xlink:href="#DejaVuSans-109"/>
      <use x="164.404297" xlink:href="#DejaVuSans-101"/>
      <use x="225.927734" xlink:href="#DejaVuSans-32"/>
      <use x="257.714844" xlink:href="#DejaVuSans-40"/>
      <use x="296.728516" xlink:href="#DejaVuSans-100"/>
      <use x="360.205078" xlink:href="#DejaVuSans-97"/>
      <use x="421.484375" xlink:href="#DejaVuSans-121"/>
      <use x="480.664062" xlink:href="#DejaVuSans-115"/>
      <use x="532.763672" xlink:href="#DejaVuSans-41"/>
     </g>
    </g>
   </g>
   <g id="matplotlib.axis_2">
    <g id="ytick_1">
     <g id="line2d_6">
      <path clip-path="url(#pfde0c51f3e)" d="M 66.053125 256.63768 
L 423.173125 256.63768 
" style="fill:none;stroke:#cccccc;stroke-linecap:round;stroke-width:0.8;"/>
     </g>
     <g id="text_7">
      <!-- 110000 -->
      <defs>
       <path d="M 12.40625 8.296875 
L 28.515625 8.296875 
L 28.515625 63.921875 
L 10.984375 60.40625 
L 10.984375 69.390625 
L 28.421875 72.90625 
L 38.28125 72.90625 
L 38.28125 8.296875 
L 54.390625 8.296875 
L 54.390625 0 
L 12.40625 0 
z
" id="DejaVuSans-49"/>
      </defs>
      <g style="fill:#262626;" transform="translate(20.878125 260.436899)scale(0.1 -0.1)">
       <use xlink:href="#DejaVuSans-49"/>
       <use x="63.623047" xlink:href="#DejaVuSans-49"/>
       <use x="127.246094" xlink:href="#DejaVuSans-48"/>
       <use x="190.869141" xlink:href="#DejaVuSans-48"/>
       <use x="254.492188" xlink:href="#DejaVuSans-48"/>
       <use x="318.115234" xlink:href="#DejaVuSans-48"/>
      </g>
     </g>
    </g>
    <g id="ytick_2">
     <g id="line2d_7">
      <path clip-path="url(#pfde0c51f3e)" d="M 66.053125 224.00532 
L 423.173125 224.00532 
" style="fill:none;stroke:#cccccc;stroke-linecap:round;stroke-width:0.8;"/>
     </g>
     <g id="text_8">
      <!-- 120000 -->
      <g style="fill:#262626;" transform="translate(20.878125 227.804539)scale(0.1 -0.1)">
       <use xlink:href="#DejaVuSans-49"/>
       <use x="63.623047" xlink:href="#DejaVuSans-50"/>
       <use x="127.246094" xlink:href="#DejaVuSans-48"/>
       <use x="190.869141" xlink:href="#DejaVuSans-48"/>
       <use x="254.492188" xlink:href="#DejaVuSans-48"/>
       <use x="318.115234" xlink:href="#DejaVuSans-48"/>
      </g>
     </g>
    </g>
    <g id="ytick_3">
     <g id="line2d_8">
      <path clip-path="url(#pfde0c51f3e)" d="M 66.053125 191.37296 
L 423.173125 191.37296 
" style="fill:none;stroke:#cccccc;stroke-linecap:round;stroke-width:0.8;"/>
     </g>
     <g id="text_9">
      <!-- 130000 -->
      <defs>
       <path d="M 40.578125 39.3125 
Q 47.65625 37.796875 51.625 33 
Q 55.609375 28.21875 55.609375 21.1875 
Q 55.609375 10.40625 48.1875 4.484375 
Q 40.765625 -1.421875 27.09375 -1.421875 
Q 22.515625 -1.421875 17.65625 -0.515625 
Q 12.796875 0.390625 7.625 2.203125 
L 7.625 11.71875 
Q 11.71875 9.328125 16.59375 8.109375 
Q 21.484375 6.890625 26.8125 6.890625 
Q 36.078125 6.890625 40.9375 10.546875 
Q 45.796875 14.203125 45.796875 21.1875 
Q 45.796875 27.640625 41.28125 31.265625 
Q 36.765625 34.90625 28.71875 34.90625 
L 20.21875 34.90625 
L 20.21875 43.015625 
L 29.109375 43.015625 
Q 36.375 43.015625 40.234375 45.921875 
Q 44.09375 48.828125 44.09375 54.296875 
Q 44.09375 59.90625 40.109375 62.90625 
Q 36.140625 65.921875 28.71875 65.921875 
Q 24.65625 65.921875 20.015625 65.03125 
Q 15.375 64.15625 9.8125 62.3125 
L 9.8125 71.09375 
Q 15.4375 72.65625 20.34375 73.4375 
Q 25.25 74.21875 29.59375 74.21875 
Q 40.828125 74.21875 47.359375 69.109375 
Q 53.90625 64.015625 53.90625 55.328125 
Q 53.90625 49.265625 50.4375 45.09375 
Q 46.96875 40.921875 40.578125 39.3125 
z
" id="DejaVuSans-51"/>
      </defs>
      <g style="fill:#262626;" transform="translate(20.878125 195.172179)scale(0.1 -0.1)">
       <use xlink:href="#DejaVuSans-49"/>
       <use x="63.623047" xlink:href="#DejaVuSans-51"/>
       <use x="127.246094" xlink:href="#DejaVuSans-48"/>
       <use x="190.869141" xlink:href="#DejaVuSans-48"/>
       <use x="254.492188" xlink:href="#DejaVuSans-48"/>
       <use x="318.115234" xlink:href="#DejaVuSans-48"/>
      </g>
     </g>
    </g>
    <g id="ytick_4">
     <g id="line2d_9">
      <path clip-path="url(#pfde0c51f3e)" d="M 66.053125 158.7406 
L 423.173125 158.7406 
" style="fill:none;stroke:#cccccc;stroke-linecap:round;stroke-width:0.8;"/>
     </g>
     <g id="text_10">
      <!-- 140000 -->
      <g style="fill:#262626;" transform="translate(20.878125 162.539819)scale(0.1 -0.1)">
       <use xlink:href="#DejaVuSans-49"/>
       <use x="63.623047" xlink:href="#DejaVuSans-52"/>
       <use x="127.246094" xlink:href="#DejaVuSans-48"/>
       <use x="190.869141" xlink:href="#DejaVuSans-48"/>
       <use x="254.492188" xlink:href="#DejaVuSans-48"/>
       <use x="318.115234" xlink:href="#DejaVuSans-48"/>
      </g>
     </g>
    </g>
    <g id="ytick_5">
     <g id="line2d_10">
      <path clip-path="url(#pfde0c51f3e)" d="M 66.053125 126.10824 
L 423.173125 126.10824 
" style="fill:none;stroke:#cccccc;stroke-linecap:round;stroke-width:0.8;"/>
     </g>
     <g id="text_11">
      <!-- 150000 -->
      <defs>
       <path d="M 10.796875 72.90625 
L 49.515625 72.90625 
L 49.515625 64.59375 
L 19.828125 64.59375 
L 19.828125 46.734375 
Q 21.96875 47.46875 24.109375 47.828125 
Q 26.265625 48.1875 28.421875 48.1875 
Q 40.625 48.1875 47.75 41.5 
Q 54.890625 34.8125 54.890625 23.390625 
Q 54.890625 11.625 47.5625 5.09375 
Q 40.234375 -1.421875 26.90625 -1.421875 
Q 22.3125 -1.421875 17.546875 -0.640625 
Q 12.796875 0.140625 7.71875 1.703125 
L 7.71875 11.625 
Q 12.109375 9.234375 16.796875 8.0625 
Q 21.484375 6.890625 26.703125 6.890625 
Q 35.15625 6.890625 40.078125 11.328125 
Q 45.015625 15.765625 45.015625 23.390625 
Q 45.015625 31 40.078125 35.4375 
Q 35.15625 39.890625 26.703125 39.890625 
Q 22.75 39.890625 18.8125 39.015625 
Q 14.890625 38.140625 10.796875 36.28125 
z
" id="DejaVuSans-53"/>
      </defs>
      <g style="fill:#262626;" transform="translate(20.878125 129.907459)scale(0.1 -0.1)">
       <use xlink:href="#DejaVuSans-49"/>
       <use x="63.623047" xlink:href="#DejaVuSans-53"/>
       <use x="127.246094" xlink:href="#DejaVuSans-48"/>
       <use x="190.869141" xlink:href="#DejaVuSans-48"/>
       <use x="254.492188" xlink:href="#DejaVuSans-48"/>
       <use x="318.115234" xlink:href="#DejaVuSans-48"/>
      </g>
     </g>
    </g>
    <g id="ytick_6">
     <g id="line2d_11">
      <path clip-path="url(#pfde0c51f3e)" d="M 66.053125 93.47588 
L 423.173125 93.47588 
" style="fill:none;stroke:#cccccc;stroke-linecap:round;stroke-width:0.8;"/>
     </g>
     <g id="text_12">
      <!-- 160000 -->
      <g style="fill:#262626;" transform="translate(20.878125 97.275099)scale(0.1 -0.1)">
       <use xlink:href="#DejaVuSans-49"/>
       <use x="63.623047" xlink:href="#DejaVuSans-54"/>
       <use x="127.246094" xlink:href="#DejaVuSans-48"/>
       <use x="190.869141" xlink:href="#DejaVuSans-48"/>
       <use x="254.492188" xlink:href="#DejaVuSans-48"/>
       <use x="318.115234" xlink:href="#DejaVuSans-48"/>
      </g>
     </g>
    </g>
    <g id="ytick_7">
     <g id="line2d_12">
      <path clip-path="url(#pfde0c51f3e)" d="M 66.053125 60.843521 
L 423.173125 60.843521 
" style="fill:none;stroke:#cccccc;stroke-linecap:round;stroke-width:0.8;"/>
     </g>
     <g id="text_13">
      <!-- 170000 -->
      <defs>
       <path d="M 8.203125 72.90625 
L 55.078125 72.90625 
L 55.078125 68.703125 
L 28.609375 0 
L 18.3125 0 
L 43.21875 64.59375 
L 8.203125 64.59375 
z
" id="DejaVuSans-55"/>
      </defs>
      <g style="fill:#262626;" transform="translate(20.878125 64.642739)scale(0.1 -0.1)">
       <use xlink:href="#DejaVuSans-49"/>
       <use x="63.623047" xlink:href="#DejaVuSans-55"/>
       <use x="127.246094" xlink:href="#DejaVuSans-48"/>
       <use x="190.869141" xlink:href="#DejaVuSans-48"/>
       <use x="254.492188" xlink:href="#DejaVuSans-48"/>
       <use x="318.115234" xlink:href="#DejaVuSans-48"/>
      </g>
     </g>
    </g>
    <g id="ytick_8">
     <g id="line2d_13">
      <path clip-path="url(#pfde0c51f3e)" d="M 66.053125 28.211161 
L 423.173125 28.211161 
" style="fill:none;stroke:#cccccc;stroke-linecap:round;stroke-width:0.8;"/>
     </g>
     <g id="text_14">
      <!-- 180000 -->
      <g style="fill:#262626;" transform="translate(20.878125 32.010379)scale(0.1 -0.1)">
       <use xlink:href="#DejaVuSans-49"/>
       <use x="63.623047" xlink:href="#DejaVuSans-56"/>
       <use x="127.246094" xlink:href="#DejaVuSans-48"/>
       <use x="190.869141" xlink:href="#DejaVuSans-48"/>
       <use x="254.492188" xlink:href="#DejaVuSans-48"/>
       <use x="318.115234" xlink:href="#DejaVuSans-48"/>
      </g>
     </g>
    </g>
    <g id="text_15">
     <!-- cells number -->
     <defs>
      <path d="M 48.78125 52.59375 
L 48.78125 44.1875 
Q 44.96875 46.296875 41.140625 47.34375 
Q 37.3125 48.390625 33.40625 48.390625 
Q 24.65625 48.390625 19.8125 42.84375 
Q 14.984375 37.3125 14.984375 27.296875 
Q 14.984375 17.28125 19.8125 11.734375 
Q 24.65625 6.203125 33.40625 6.203125 
Q 37.3125 6.203125 41.140625 7.25 
Q 44.96875 8.296875 48.78125 10.40625 
L 48.78125 2.09375 
Q 45.015625 0.34375 40.984375 -0.53125 
Q 36.96875 -1.421875 32.421875 -1.421875 
Q 20.0625 -1.421875 12.78125 6.34375 
Q 5.515625 14.109375 5.515625 27.296875 
Q 5.515625 40.671875 12.859375 48.328125 
Q 20.21875 56 33.015625 56 
Q 37.15625 56 41.109375 55.140625 
Q 45.0625 54.296875 48.78125 52.59375 
z
" id="DejaVuSans-99"/>
      <path d="M 9.421875 75.984375 
L 18.40625 75.984375 
L 18.40625 0 
L 9.421875 0 
z
" id="DejaVuSans-108"/>
      <path d="M 54.890625 33.015625 
L 54.890625 0 
L 45.90625 0 
L 45.90625 32.71875 
Q 45.90625 40.484375 42.875 44.328125 
Q 39.84375 48.1875 33.796875 48.1875 
Q 26.515625 48.1875 22.3125 43.546875 
Q 18.109375 38.921875 18.109375 30.90625 
L 18.109375 0 
L 9.078125 0 
L 9.078125 54.6875 
L 18.109375 54.6875 
L 18.109375 46.1875 
Q 21.34375 51.125 25.703125 53.5625 
Q 30.078125 56 35.796875 56 
Q 45.21875 56 50.046875 50.171875 
Q 54.890625 44.34375 54.890625 33.015625 
z
" id="DejaVuSans-110"/>
      <path d="M 8.5 21.578125 
L 8.5 54.6875 
L 17.484375 54.6875 
L 17.484375 21.921875 
Q 17.484375 14.15625 20.5 10.265625 
Q 23.53125 6.390625 29.59375 6.390625 
Q 36.859375 6.390625 41.078125 11.03125 
Q 45.3125 15.671875 45.3125 23.6875 
L 45.3125 54.6875 
L 54.296875 54.6875 
L 54.296875 0 
L 45.3125 0 
L 45.3125 8.40625 
Q 42.046875 3.421875 37.71875 1 
Q 33.40625 -1.421875 27.6875 -1.421875 
Q 18.265625 -1.421875 13.375 4.4375 
Q 8.5 10.296875 8.5 21.578125 
z
M 31.109375 56 
z
" id="DejaVuSans-117"/>
      <path d="M 48.6875 27.296875 
Q 48.6875 37.203125 44.609375 42.84375 
Q 40.53125 48.484375 33.40625 48.484375 
Q 26.265625 48.484375 22.1875 42.84375 
Q 18.109375 37.203125 18.109375 27.296875 
Q 18.109375 17.390625 22.1875 11.75 
Q 26.265625 6.109375 33.40625 6.109375 
Q 40.53125 6.109375 44.609375 11.75 
Q 48.6875 17.390625 48.6875 27.296875 
z
M 18.109375 46.390625 
Q 20.953125 51.265625 25.265625 53.625 
Q 29.59375 56 35.59375 56 
Q 45.5625 56 51.78125 48.09375 
Q 58.015625 40.1875 58.015625 27.296875 
Q 58.015625 14.40625 51.78125 6.484375 
Q 45.5625 -1.421875 35.59375 -1.421875 
Q 29.59375 -1.421875 25.265625 0.953125 
Q 20.953125 3.328125 18.109375 8.203125 
L 18.109375 0 
L 9.078125 0 
L 9.078125 75.984375 
L 18.109375 75.984375 
z
" id="DejaVuSans-98"/>
      <path d="M 41.109375 46.296875 
Q 39.59375 47.171875 37.8125 47.578125 
Q 36.03125 48 33.890625 48 
Q 26.265625 48 22.1875 43.046875 
Q 18.109375 38.09375 18.109375 28.8125 
L 18.109375 0 
L 9.078125 0 
L 9.078125 54.6875 
L 18.109375 54.6875 
L 18.109375 46.1875 
Q 20.953125 51.171875 25.484375 53.578125 
Q 30.03125 56 36.53125 56 
Q 37.453125 56 38.578125 55.875 
Q 39.703125 55.765625 41.0625 55.515625 
z
" id="DejaVuSans-114"/>
     </defs>
     <g style="fill:#262626;" transform="translate(14.798438 172.567719)rotate(-90)scale(0.1 -0.1)">
      <use xlink:href="#DejaVuSans-99"/>
      <use x="54.980469" xlink:href="#DejaVuSans-101"/>
      <use x="116.503906" xlink:href="#DejaVuSans-108"/>
      <use x="144.287109" xlink:href="#DejaVuSans-108"/>
      <use x="172.070312" xlink:href="#DejaVuSans-115"/>
      <use x="224.169922" xlink:href="#DejaVuSans-32"/>
      <use x="255.957031" xlink:href="#DejaVuSans-110"/>
      <use x="319.335938" xlink:href="#DejaVuSans-117"/>
      <use x="382.714844" xlink:href="#DejaVuSans-109"/>
      <use x="480.126953" xlink:href="#DejaVuSans-98"/>
      <use x="543.603516" xlink:href="#DejaVuSans-101"/>
      <use x="605.126953" xlink:href="#DejaVuSans-114"/>
     </g>
    </g>
   </g>
   <g id="line2d_14">
    <path clip-path="url(#pfde0c51f3e)" d="M 82.285852 260.814622 
L 85.703269 103.523384 
L 89.120685 45.558523 
L 92.538101 31.738719 
L 95.955517 32.583897 
L 99.372934 36.281143 
L 102.79035 41.251052 
L 106.207766 44.050908 
L 109.625182 47.908053 
L 113.042599 49.480933 
L 116.460015 49.523355 
L 119.877431 51.892464 
L 123.294847 53.393553 
L 126.712264 52.848592 
L 130.12968 52.819223 
L 133.547096 51.174552 
L 136.964513 52.910594 
L 140.381929 51.154973 
L 143.799345 49.996524 
L 147.216761 49.715886 
L 150.634178 49.343877 
L 154.051594 49.223137 
L 157.46901 49.657148 
L 160.886426 49.738729 
L 164.303843 50.776438 
L 167.721259 48.701019 
L 171.138675 45.22241 
L 174.556092 44.233649 
L 177.973508 44.067224 
L 181.390924 42.696665 
L 184.80834 39.498694 
L 188.225757 41.388108 
L 191.643173 42.102756 
L 195.060589 42.497608 
L 198.478005 43.130676 
L 201.895422 40.053444 
L 205.312838 39.769543 
L 208.730254 38.953734 
L 212.14767 40.121972 
L 215.565087 37.260114 
L 218.982503 37.563595 
L 222.399919 37.586438 
L 225.817336 38.017185 
L 229.234752 37.805075 
L 232.652168 37.844233 
L 236.069584 38.764466 
L 239.487001 40.314503 
L 242.904417 40.75504 
L 246.321833 38.301086 
L 249.739249 38.624147 
L 253.156666 38.248875 
L 256.574082 38.855837 
L 259.991498 40.262291 
L 263.408914 38.689411 
L 266.826331 36.330092 
L 270.243747 35.827554 
L 273.661163 37.420013 
L 277.07858 36.734733 
L 280.495996 36.486727 
L 283.913412 32.313048 
L 287.330828 33.513919 
L 290.748245 36.049454 
L 294.165661 36.999055 
L 297.583077 35.360911 
L 301.000493 32.763375 
L 304.41791 34.881215 
L 307.835326 34.398256 
L 311.252742 34.786581 
L 314.670158 34.900794 
L 318.087575 33.686871 
L 321.504991 32.27389 
L 324.922407 31.640822 
L 328.339824 29.950466 
L 331.75724 28.873598 
L 335.174656 26.070478 
L 338.592072 25.117613 
L 342.009489 26.328274 
L 345.426905 26.481646 
L 348.844321 27.401878 
L 352.261737 28.867071 
L 355.679154 27.196294 
L 359.09657 22.353652 
L 362.513986 21.328996 
L 365.931403 23.512101 
L 369.348819 24.21696 
L 372.766235 24.354016 
L 376.183651 24.363805 
L 379.601068 26.142269 
L 383.018484 27.375772 
L 386.4359 25.039295 
L 389.853316 23.880847 
L 393.270733 22.97693 
L 396.688149 22.921455 
L 400.105565 23.508838 
L 403.522981 23.296727 
L 406.940398 24.814132 
" style="fill:none;stroke:#000080;stroke-linecap:round;stroke-width:1.5;"/>
   </g>
   <g id="line2d_15">
    <path clip-path="url(#pfde0c51f3e)" d="M 82.285852 261.216 
L 85.703269 102.857684 
L 89.120685 46.002323 
L 92.538101 29.79383 
L 95.955517 30.250683 
L 99.372934 36.385567 
L 102.79035 41.701378 
L 106.207766 46.093694 
L 109.625182 49.585356 
L 113.042599 52.199208 
L 116.460015 50.055262 
L 119.877431 52.293842 
L 123.294847 54.356207 
L 126.712264 53.530609 
L 130.12968 51.602036 
L 133.547096 50.300005 
L 136.964513 48.994711 
L 140.381929 45.803266 
L 143.799345 46.237276 
L 147.216761 45.672736 
L 150.634178 45.894637 
L 154.051594 43.744164 
L 157.46901 46.031692 
L 160.886426 47.757944 
L 164.303843 47.405515 
L 167.721259 48.501962 
L 171.138675 50.035683 
L 174.556092 49.771361 
L 177.973508 47.405515 
L 181.390924 47.059612 
L 184.80834 45.042932 
L 188.225757 45.689053 
L 191.643173 46.390648 
L 195.060589 46.093694 
L 198.478005 45.976217 
L 201.895422 46.123063 
L 205.312838 43.995433 
L 208.730254 43.616898 
L 212.14767 45.055985 
L 215.565087 45.548734 
L 218.982503 48.051636 
L 222.399919 46.615812 
L 225.817336 45.372519 
L 229.234752 43.887746 
L 232.652168 43.146992 
L 236.069584 42.726034 
L 239.487001 40.918202 
L 242.904417 40.794199 
L 246.321833 38.888469 
L 249.739249 39.573748 
L 253.156666 37.818127 
L 256.574082 37.090426 
L 259.991498 39.472588 
L 263.408914 42.08644 
L 266.826331 41.424003 
L 270.243747 40.428716 
L 273.661163 39.074473 
L 277.07858 37.586438 
L 280.495996 36.653152 
L 283.913412 33.980562 
L 287.330828 31.843142 
L 290.748245 31.066492 
L 294.165661 29.154236 
L 297.583077 29.960255 
L 301.000493 32.221678 
L 304.41791 32.955906 
L 307.835326 31.989988 
L 311.252742 29.989624 
L 314.670158 28.690856 
L 318.087575 26.980921 
L 321.504991 28.47222 
L 324.922407 30.14626 
L 328.339824 30.345317 
L 331.75724 31.764825 
L 335.174656 32.003041 
L 338.592072 31.950829 
L 342.009489 31.595136 
L 345.426905 30.926173 
L 348.844321 29.415295 
L 352.261737 31.343867 
L 355.679154 28.886651 
L 359.09657 30.59006 
L 362.513986 31.089335 
L 365.931403 29.989624 
L 369.348819 28.207897 
L 372.766235 27.382299 
L 376.183651 25.750681 
L 379.601068 22.497235 
L 383.018484 21.681426 
L 386.4359 22.066487 
L 389.853316 22.823558 
L 393.270733 24.905503 
L 396.688149 23.195567 
L 400.105565 22.435233 
L 403.522981 25.10456 
L 406.940398 25.222037 
" style="fill:none;stroke:#0000f1;stroke-linecap:round;stroke-width:1.5;"/>
   </g>
   <g id="line2d_16">
    <path clip-path="url(#pfde0c51f3e)" d="M 82.285852 259.173214 
L 85.703269 101.255435 
L 89.120685 43.52879 
L 92.538101 28.534221 
L 95.955517 32.38484 
L 99.372934 37.641913 
L 102.79035 42.448659 
L 106.207766 45.183251 
L 109.625182 45.613998 
L 113.042599 45.189778 
L 116.460015 48.407328 
L 119.877431 50.786227 
L 123.294847 52.143733 
L 126.712264 53.174916 
L 130.12968 53.749246 
L 133.547096 54.271363 
L 136.964513 53.129231 
L 140.381929 53.05744 
L 143.799345 50.179265 
L 147.216761 47.307618 
L 150.634178 46.534231 
L 154.051594 47.513202 
L 157.46901 48.035319 
L 160.886426 45.339886 
L 164.303843 43.988907 
L 167.721259 43.466789 
L 171.138675 42.65098 
L 174.556092 45.264832 
L 177.973508 45.225673 
L 181.390924 44.370705 
L 184.80834 43.068674 
L 188.225757 42.181074 
L 191.643173 41.750327 
L 195.060589 42.07665 
L 198.478005 41.130312 
L 201.895422 41.65243 
L 205.312838 43.832271 
L 208.730254 44.321757 
L 212.14767 43.646267 
L 215.565087 43.071937 
L 218.982503 39.932704 
L 222.399919 36.950107 
L 225.817336 37.589701 
L 229.234752 35.710077 
L 232.652168 38.023711 
L 236.069584 38.4153 
L 239.487001 39.17237 
L 242.904417 37.863813 
L 246.321833 39.270267 
L 249.739249 38.914575 
L 253.156666 40.862727 
L 256.574082 41.179261 
L 259.991498 41.224946 
L 263.408914 38.943944 
L 266.826331 39.325742 
L 270.243747 39.17237 
L 273.661163 37.367801 
L 277.07858 36.346408 
L 280.495996 35.540389 
L 283.913412 32.472947 
L 287.330828 31.396079 
L 290.748245 32.603476 
L 294.165661 34.042563 
L 297.583077 34.440678 
L 301.000493 34.757212 
L 304.41791 34.509206 
L 307.835326 32.854746 
L 311.252742 31.050176 
L 314.670158 32.025884 
L 318.087575 30.665114 
L 321.504991 30.120154 
L 324.922407 30.740169 
L 328.339824 30.534585 
L 331.75724 32.146623 
L 335.174656 30.24742 
L 338.592072 28.821386 
L 342.009489 28.592959 
L 345.426905 28.589696 
L 348.844321 28.3319 
L 352.261737 28.247056 
L 355.679154 26.912393 
L 359.09657 26.165112 
L 362.513986 24.925082 
L 365.931403 24.474756 
L 369.348819 23.619788 
L 372.766235 21.854377 
L 376.183651 23.123776 
L 379.601068 22.52334 
L 383.018484 24.164748 
L 386.4359 24.996873 
L 389.853316 24.778236 
L 393.270733 22.20028 
L 396.688149 19.648429 
L 400.105565 19.296 
L 403.522981 20.216233 
L 406.940398 21.286574 
" style="fill:none;stroke:#004cff;stroke-linecap:round;stroke-width:1.5;"/>
   </g>
   <g id="line2d_17">
    <path clip-path="url(#pfde0c51f3e)" d="M 82.285852 258.54341 
L 85.703269 100.922585 
L 89.120685 45.653157 
L 92.538101 31.732192 
L 95.955517 33.657502 
L 99.372934 40.62451 
L 102.79035 43.284048 
L 106.207766 45.427994 
L 109.625182 46.7855 
L 113.042599 48.779337 
L 116.460015 48.208271 
L 119.877431 49.57883 
L 123.294847 50.933073 
L 126.712264 49.066502 
L 130.12968 47.539307 
L 133.547096 48.557437 
L 136.964513 48.244166 
L 140.381929 47.252143 
L 143.799345 46.158959 
L 147.216761 46.243803 
L 150.634178 46.051272 
L 154.051594 49.389562 
L 157.46901 49.644095 
L 160.886426 50.874335 
L 164.303843 52.081732 
L 167.721259 49.510302 
L 171.138675 47.957002 
L 174.556092 48.439961 
L 177.973508 49.983471 
L 181.390924 46.730025 
L 184.80834 44.344599 
L 188.225757 43.068674 
L 191.643173 45.689053 
L 195.060589 44.945035 
L 198.478005 45.349676 
L 201.895422 45.326833 
L 205.312838 44.589342 
L 208.730254 44.109646 
L 212.14767 44.553447 
L 215.565087 43.512474 
L 218.982503 44.951561 
L 222.399919 42.314867 
L 225.817336 41.747064 
L 229.234752 40.970413 
L 232.652168 40.931255 
L 236.069584 39.253951 
L 239.487001 39.485641 
L 242.904417 37.106742 
L 246.321833 36.225668 
L 249.739249 35.938504 
L 253.156666 37.315589 
L 256.574082 36.604204 
L 259.991498 36.088612 
L 263.408914 37.224219 
L 266.826331 37.821391 
L 270.243747 37.273167 
L 273.661163 36.525886 
L 277.07858 36.392093 
L 280.495996 36.71189 
L 283.913412 35.72313 
L 287.330828 36.705364 
L 290.748245 37.325379 
L 294.165661 39.315953 
L 297.583077 37.756126 
L 301.000493 36.365987 
L 304.41791 35.015008 
L 307.835326 34.60384 
L 311.252742 34.453731 
L 314.670158 33.380127 
L 318.087575 34.845319 
L 321.504991 32.998328 
L 324.922407 32.247784 
L 328.339824 29.02697 
L 331.75724 26.99071 
L 335.174656 27.01029 
L 338.592072 29.199921 
L 342.009489 29.056339 
L 345.426905 28.207897 
L 348.844321 27.228927 
L 352.261737 26.077004 
L 355.679154 25.953001 
L 359.09657 26.23364 
L 362.513986 24.08643 
L 365.931403 26.449013 
L 369.348819 25.130666 
L 372.766235 25.208984 
L 376.183651 23.19883 
L 379.601068 22.125226 
L 383.018484 23.854741 
L 386.4359 23.391361 
L 389.853316 22.588605 
L 393.270733 21.289837 
L 396.688149 21.20173 
L 400.105565 21.156045 
L 403.522981 21.828271 
L 406.940398 20.930881 
" style="fill:none;stroke:#00b0ff;stroke-linecap:round;stroke-width:1.5;"/>
   </g>
   <g id="line2d_18">
    <path clip-path="url(#pfde0c51f3e)" d="M 82.285852 259.940075 
L 85.703269 103.777917 
L 89.120685 48.332274 
L 92.538101 31.81051 
L 95.955517 29.966782 
L 99.372934 33.693397 
L 102.79035 39.472588 
L 106.207766 45.894637 
L 109.625182 48.629228 
L 113.042599 52.058889 
L 116.460015 50.942863 
L 119.877431 49.90189 
L 123.294847 50.946126 
L 126.712264 50.081368 
L 130.12968 50.290215 
L 133.547096 50.433798 
L 136.964513 50.107474 
L 140.381929 50.685067 
L 143.799345 48.916393 
L 147.216761 47.849315 
L 150.634178 45.930532 
L 154.051594 46.942135 
L 157.46901 46.24054 
L 160.886426 45.202831 
L 164.303843 42.595505 
L 167.721259 44.494708 
L 171.138675 46.243803 
L 174.556092 48.391012 
L 177.973508 45.809792 
L 181.390924 46.984557 
L 184.80834 48.211534 
L 188.225757 46.814869 
L 191.643173 44.563236 
L 195.060589 43.342786 
L 198.478005 43.009936 
L 201.895422 43.802902 
L 205.312838 41.482741 
L 208.730254 40.510297 
L 212.14767 41.600218 
L 215.565087 41.724221 
L 218.982503 41.107469 
L 222.399919 38.979839 
L 225.817336 37.116532 
L 229.234752 37.237271 
L 232.652168 39.058157 
L 236.069584 39.387744 
L 239.487001 40.771356 
L 242.904417 39.671646 
L 246.321833 38.40551 
L 249.739249 36.675995 
L 253.156666 36.734733 
L 256.574082 35.220592 
L 259.991498 35.432702 
L 263.408914 36.437779 
L 266.826331 36.365987 
L 270.243747 35.044377 
L 273.661163 34.05888 
L 277.07858 33.282229 
L 280.495996 32.299995 
L 283.913412 31.542925 
L 287.330828 31.748509 
L 290.748245 32.345681 
L 294.165661 31.177442 
L 297.583077 29.67309 
L 301.000493 30.152786 
L 304.41791 28.318848 
L 307.835326 27.89789 
L 311.252742 28.919283 
L 314.670158 28.824649 
L 318.087575 28.403692 
L 321.504991 28.423271 
L 324.922407 26.129216 
L 328.339824 24.641181 
L 331.75724 25.323197 
L 335.174656 26.863444 
L 338.592072 25.329723 
L 342.009489 24.171275 
L 345.426905 24.918556 
L 348.844321 28.132843 
L 352.261737 28.185055 
L 355.679154 27.806519 
L 359.09657 28.061052 
L 362.513986 28.158949 
L 365.931403 27.4443 
L 369.348819 25.238353 
L 372.766235 26.43596 
L 376.183651 27.196294 
L 379.601068 29.049812 
L 383.018484 27.734728 
L 386.4359 29.121604 
L 389.853316 27.516091 
L 393.270733 25.594045 
L 396.688149 24.931609 
L 400.105565 24.54002 
L 403.522981 22.999773 
L 406.940398 19.958437 
" style="fill:none;stroke:#29ffce;stroke-linecap:round;stroke-width:1.5;"/>
   </g>
   <g id="line2d_19">
    <path clip-path="url(#pfde0c51f3e)" d="M 82.285852 260.002076 
L 85.703269 100.247095 
L 89.120685 44.909139 
L 92.538101 31.063229 
L 95.955517 29.767724 
L 99.372934 34.332991 
L 102.79035 39.821754 
L 106.207766 42.735824 
L 109.625182 46.22096 
L 113.042599 47.819946 
L 116.460015 48.609649 
L 119.877431 48.107111 
L 123.294847 48.231114 
L 126.712264 49.989998 
L 130.12968 51.941413 
L 133.547096 52.907331 
L 136.964513 52.084995 
L 140.381929 51.435611 
L 143.799345 49.464617 
L 147.216761 49.892101 
L 150.634178 48.622702 
L 154.051594 46.599496 
L 157.46901 48.531331 
L 160.886426 49.154609 
L 164.303843 48.694493 
L 167.721259 47.382672 
L 171.138675 45.431257 
L 174.556092 43.44721 
L 177.973508 43.297101 
L 181.390924 44.155332 
L 184.80834 43.049095 
L 188.225757 42.755404 
L 191.643173 45.503048 
L 195.060589 46.765921 
L 198.478005 46.5636 
L 201.895422 46.243803 
L 205.312838 47.056349 
L 208.730254 46.152432 
L 212.14767 45.431257 
L 215.565087 44.530604 
L 218.982503 42.732561 
L 222.399919 43.055621 
L 225.817336 42.416027 
L 229.234752 42.957724 
L 232.652168 43.365629 
L 236.069584 43.349312 
L 239.487001 43.913852 
L 242.904417 43.793113 
L 246.321833 42.624874 
L 249.739249 40.631037 
L 253.156666 38.669832 
L 256.574082 37.658229 
L 259.991498 36.910948 
L 263.408914 36.206089 
L 266.826331 35.520809 
L 270.243747 36.72168 
L 273.661163 36.858736 
L 277.07858 36.303986 
L 280.495996 37.367801 
L 283.913412 36.910948 
L 287.330828 35.011745 
L 290.748245 32.825376 
L 294.165661 31.725666 
L 297.583077 30.942489 
L 301.000493 30.648798 
L 304.41791 31.151336 
L 307.835326 30.867435 
L 311.252742 30.991438 
L 314.670158 30.648798 
L 318.087575 30.665114 
L 321.504991 29.379399 
L 324.922407 28.792017 
L 328.339824 27.245243 
L 331.75724 25.629941 
L 335.174656 25.368882 
L 338.592072 25.443937 
L 342.009489 28.45264 
L 345.426905 28.005577 
L 348.844321 25.845315 
L 352.261737 24.556336 
L 355.679154 25.528781 
L 359.09657 26.165112 
L 362.513986 23.717685 
L 365.931403 22.722398 
L 369.348819 21.949011 
L 372.766235 21.185414 
L 376.183651 21.97838 
L 379.601068 22.55271 
L 383.018484 23.88411 
L 386.4359 25.652784 
L 389.853316 26.850391 
L 393.270733 27.039659 
L 396.688149 25.613625 
L 400.105565 25.098034 
L 403.522981 22.435233 
L 406.940398 21.727111 
" style="fill:none;stroke:#7dff7a;stroke-linecap:round;stroke-width:1.5;"/>
   </g>
   <g id="line2d_20">
    <path clip-path="url(#pfde0c51f3e)" d="M 82.285852 260.406717 
L 85.703269 101.565443 
L 89.120685 45.274622 
L 92.538101 32.998328 
L 95.955517 32.237994 
L 99.372934 35.537126 
L 102.79035 39.710804 
L 106.207766 43.887746 
L 109.625182 47.21951 
L 113.042599 49.882311 
L 116.460015 51.02118 
L 119.877431 50.450114 
L 123.294847 51.455191 
L 126.712264 54.754322 
L 130.12968 54.819587 
L 133.547096 53.853669 
L 136.964513 51.285502 
L 140.381929 50.091158 
L 143.799345 48.426908 
L 147.216761 44.439233 
L 150.634178 44.605658 
L 154.051594 47.307618 
L 157.46901 50.35548 
L 160.886426 50.270636 
L 164.303843 50.867808 
L 167.721259 50.779701 
L 171.138675 50.074842 
L 174.556092 50.205371 
L 177.973508 48.590069 
L 181.390924 46.867081 
L 184.80834 42.396448 
L 188.225757 40.565772 
L 191.643173 38.500144 
L 195.060589 38.646989 
L 198.478005 38.744886 
L 201.895422 38.888469 
L 205.312838 42.739087 
L 208.730254 41.665483 
L 212.14767 43.120886 
L 215.565087 42.181074 
L 218.982503 42.243075 
L 222.399919 39.95881 
L 225.817336 39.949021 
L 229.234752 40.363452 
L 232.652168 40.781146 
L 236.069584 40.487455 
L 239.487001 39.185423 
L 242.904417 39.492168 
L 246.321833 38.95047 
L 249.739249 39.942494 
L 253.156666 40.206816 
L 256.574082 38.764466 
L 259.991498 38.098766 
L 263.408914 38.633936 
L 266.826331 36.362724 
L 270.243747 35.403333 
L 273.661163 34.352571 
L 277.07858 36.359461 
L 280.495996 34.711527 
L 283.913412 34.541839 
L 287.330828 35.73292 
L 290.748245 34.349308 
L 294.165661 33.546552 
L 297.583077 32.626319 
L 301.000493 33.735819 
L 304.41791 34.052353 
L 307.835326 32.120517 
L 311.252742 31.657138 
L 314.670158 31.281866 
L 318.087575 30.603113 
L 321.504991 31.869248 
L 324.922407 32.329365 
L 328.339824 32.211888 
L 331.75724 31.412395 
L 335.174656 32.743796 
L 338.592072 30.759748 
L 342.009489 27.323561 
L 345.426905 26.024793 
L 348.844321 27.150609 
L 352.261737 26.305431 
L 355.679154 24.680339 
L 359.09657 26.710072 
L 362.513986 27.649884 
L 365.931403 27.578093 
L 369.348819 27.049449 
L 372.766235 25.917106 
L 376.183651 26.341326 
L 379.601068 25.290565 
L 383.018484 24.079904 
L 386.4359 22.748504 
L 389.853316 21.482368 
L 393.270733 21.965327 
L 396.688149 22.490708 
L 400.105565 21.717321 
L 403.522981 21.283311 
L 406.940398 20.86888 
" style="fill:none;stroke:#ceff29;stroke-linecap:round;stroke-width:1.5;"/>
   </g>
   <g id="line2d_21">
    <path clip-path="url(#pfde0c51f3e)" d="M 82.285852 260.184817 
L 85.703269 101.761237 
L 89.120685 46.116537 
L 92.538101 30.988175 
L 95.955517 33.066856 
L 99.372934 36.117982 
L 102.79035 39.62596 
L 106.207766 43.75069 
L 109.625182 45.832635 
L 113.042599 45.369256 
L 116.460015 44.501235 
L 119.877431 44.057435 
L 123.294847 44.573026 
L 126.712264 45.251779 
L 130.12968 45.790213 
L 133.547096 49.069765 
L 136.964513 47.633941 
L 140.381929 48.909867 
L 143.799345 47.855841 
L 147.216761 47.47078 
L 150.634178 49.353667 
L 154.051594 49.817046 
L 157.46901 49.92147 
L 160.886426 48.293115 
L 164.303843 47.402252 
L 167.721259 44.599132 
L 171.138675 45.163672 
L 174.556092 46.080641 
L 177.973508 45.721685 
L 181.390924 42.680349 
L 184.80834 42.748877 
L 188.225757 43.959538 
L 191.643173 45.336623 
L 195.060589 43.744164 
L 198.478005 43.629951 
L 201.895422 43.303627 
L 205.312838 41.593692 
L 208.730254 41.283684 
L 212.14767 40.539666 
L 215.565087 40.673459 
L 218.982503 42.412764 
L 222.399919 41.825381 
L 225.817336 41.234736 
L 229.234752 40.582088 
L 232.652168 40.614721 
L 236.069584 43.016462 
L 239.487001 43.088254 
L 242.904417 42.044018 
L 246.321833 41.649167 
L 249.739249 39.234372 
L 253.156666 37.309063 
L 256.574082 37.570122 
L 259.991498 38.943944 
L 263.408914 39.218056 
L 266.826331 37.377591 
L 270.243747 37.462435 
L 273.661163 38.167294 
L 277.07858 37.867076 
L 280.495996 36.933791 
L 283.913412 34.117618 
L 287.330828 31.960619 
L 290.748245 32.175992 
L 294.165661 31.608189 
L 297.583077 31.849669 
L 301.000493 32.46642 
L 304.41791 32.283679 
L 307.835326 31.278603 
L 311.252742 32.557791 
L 314.670158 32.016094 
L 318.087575 28.305795 
L 321.504991 27.90768 
L 324.922407 26.204271 
L 328.339824 25.088244 
L 331.75724 25.688679 
L 335.174656 25.949738 
L 338.592072 27.561777 
L 342.009489 29.040023 
L 345.426905 30.90333 
L 348.844321 30.622692 
L 352.261737 28.984548 
L 355.679154 27.35293 
L 359.09657 25.241616 
L 362.513986 23.146618 
L 365.931403 25.117613 
L 369.348819 23.844951 
L 372.766235 25.352566 
L 376.183651 24.575916 
L 379.601068 24.416017 
L 383.018484 23.437046 
L 386.4359 24.44865 
L 389.853316 23.518627 
L 393.270733 22.901876 
L 396.688149 22.265545 
L 400.105565 22.598395 
L 403.522981 21.890273 
L 406.940398 21.76627 
" style="fill:none;stroke:#ffc400;stroke-linecap:round;stroke-width:1.5;"/>
   </g>
   <g id="line2d_22">
    <path clip-path="url(#pfde0c51f3e)" d="M 82.285852 257.84834 
L 85.703269 100.315623 
L 89.120685 44.651344 
L 92.538101 31.004491 
L 95.955517 31.451554 
L 99.372934 34.091512 
L 102.79035 39.087526 
L 106.207766 41.437056 
L 109.625182 42.037492 
L 113.042599 43.473315 
L 116.460015 45.813056 
L 119.877431 48.475856 
L 123.294847 50.401165 
L 126.712264 52.199208 
L 130.12968 50.916757 
L 133.547096 49.57883 
L 136.964513 47.898263 
L 140.381929 49.311245 
L 143.799345 48.622702 
L 147.216761 48.296378 
L 150.634178 48.772811 
L 154.051594 45.349676 
L 157.46901 44.429444 
L 160.886426 47.34025 
L 164.303843 47.806893 
L 167.721259 46.916029 
L 171.138675 44.608922 
L 174.556092 43.845324 
L 177.973508 43.081727 
L 181.390924 43.32647 
L 184.80834 42.677086 
L 188.225757 43.21552 
L 191.643173 44.941772 
L 195.060589 44.253229 
L 198.478005 43.910589 
L 201.895422 41.939595 
L 205.312838 40.321029 
L 208.730254 41.182524 
L 212.14767 40.363452 
L 215.565087 41.192313 
L 218.982503 41.260841 
L 222.399919 38.18361 
L 225.817336 37.041477 
L 229.234752 39.351848 
L 232.652168 39.975126 
L 236.069584 38.601304 
L 239.487001 39.178897 
L 242.904417 39.488904 
L 246.321833 39.687962 
L 249.739249 39.391007 
L 253.156666 36.613993 
L 256.574082 36.496517 
L 259.991498 36.05598 
L 263.408914 38.875416 
L 266.826331 38.51646 
L 270.243747 37.478751 
L 273.661163 36.646626 
L 277.07858 36.698838 
L 280.495996 36.881579 
L 283.913412 36.336618 
L 287.330828 35.201012 
L 290.748245 33.399706 
L 294.165661 33.801084 
L 297.583077 35.360911 
L 301.000493 34.515733 
L 304.41791 33.588974 
L 307.835326 30.776064 
L 311.252742 27.509565 
L 314.670158 29.487086 
L 318.087575 28.818123 
L 321.504991 30.133207 
L 324.922407 29.819936 
L 328.339824 29.646985 
L 331.75724 29.307608 
L 335.174656 31.536398 
L 338.592072 32.078095 
L 342.009489 35.697024 
L 345.426905 35.181433 
L 348.844321 33.719503 
L 352.261737 30.24742 
L 355.679154 28.44285 
L 359.09657 28.11 
L 362.513986 26.56649 
L 365.931403 23.936322 
L 369.348819 23.86453 
L 372.766235 24.070114 
L 376.183651 24.151695 
L 379.601068 28.305795 
L 383.018484 27.284402 
L 386.4359 27.78694 
L 389.853316 26.56649 
L 393.270733 25.319934 
L 396.688149 24.928345 
L 400.105565 25.972581 
L 403.522981 25.195931 
L 406.940398 25.319934 
" style="fill:none;stroke:#ff6800;stroke-linecap:round;stroke-width:1.5;"/>
   </g>
   <g id="line2d_23">
    <path clip-path="url(#pfde0c51f3e)" d="M 82.285852 260.726515 
L 85.703269 102.381252 
L 89.120685 44.834085 
L 92.538101 31.239444 
L 95.955517 32.169466 
L 99.372934 36.15714 
L 102.79035 39.338795 
L 106.207766 45.065775 
L 109.625182 46.43307 
L 113.042599 47.800366 
L 116.460015 47.862368 
L 119.877431 48.169112 
L 123.294847 47.353303 
L 126.712264 48.851128 
L 130.12968 48.821759 
L 133.547096 48.103847 
L 136.964513 49.177452 
L 140.381929 49.311245 
L 143.799345 50.290215 
L 147.216761 48.733652 
L 150.634178 47.34025 
L 154.051594 46.273172 
L 157.46901 46.79529 
L 160.886426 48.231114 
L 164.303843 49.741992 
L 167.721259 49.451564 
L 171.138675 49.817046 
L 174.556092 48.169112 
L 177.973508 46.955188 
L 181.390924 47.836262 
L 184.80834 44.915666 
L 188.225757 44.360916 
L 191.643173 43.515738 
L 195.060589 42.526977 
L 198.478005 43.049095 
L 201.895422 40.914938 
L 205.312838 41.123786 
L 208.730254 41.397897 
L 212.14767 43.088254 
L 215.565087 40.898622 
L 218.982503 41.159681 
L 222.399919 38.829731 
L 225.817336 36.173457 
L 229.234752 38.010658 
L 232.652168 39.420376 
L 236.069584 40.830094 
L 239.487001 37.067583 
L 242.904417 34.476574 
L 246.321833 33.376863 
L 249.739249 35.520809 
L 253.156666 33.396443 
L 256.574082 34.378677 
L 259.991498 34.251411 
L 263.408914 34.675631 
L 266.826331 36.15714 
L 270.243747 33.944666 
L 273.661163 34.189409 
L 277.07858 35.194486 
L 280.495996 34.972586 
L 283.913412 35.615443 
L 287.330828 34.861636 
L 290.748245 33.128857 
L 294.165661 33.396443 
L 297.583077 35.028061 
L 301.000493 34.877952 
L 304.41791 35.507756 
L 307.835326 35.755762 
L 311.252742 35.494703 
L 314.670158 33.902244 
L 318.087575 33.092962 
L 321.504991 30.867435 
L 324.922407 29.787304 
L 328.339824 29.522982 
L 331.75724 29.088971 
L 335.174656 28.305795 
L 338.592072 28.175265 
L 342.009489 25.616888 
L 345.426905 25.43741 
L 348.844321 26.618702 
L 352.261737 26.928709 
L 355.679154 25.88121 
L 359.09657 26.034582 
L 362.513986 28.260109 
L 365.931403 30.583533 
L 369.348819 30.289842 
L 372.766235 31.70935 
L 376.183651 30.139733 
L 379.601068 26.511015 
L 383.018484 25.704995 
L 386.4359 27.473669 
L 389.853316 25.832262 
L 393.270733 23.534944 
L 396.688149 21.492158 
L 400.105565 22.213333 
L 403.522981 21.397524 
L 406.940398 22.960614 
" style="fill:none;stroke:#f10800;stroke-linecap:round;stroke-width:1.5;"/>
   </g>
   <g id="patch_3">
    <path d="M 66.053125 273.312 
L 66.053125 7.2 
" style="fill:none;stroke:#cccccc;stroke-linecap:square;stroke-linejoin:miter;stroke-width:0.8;"/>
   </g>
   <g id="patch_4">
    <path d="M 423.173125 273.312 
L 423.173125 7.2 
" style="fill:none;stroke:#cccccc;stroke-linecap:square;stroke-linejoin:miter;stroke-width:0.8;"/>
   </g>
   <g id="patch_5">
    <path d="M 66.053125 273.312 
L 423.173125 273.312 
" style="fill:none;stroke:#cccccc;stroke-linecap:square;stroke-linejoin:miter;stroke-width:0.8;"/>
   </g>
   <g id="patch_6">
    <path d="M 66.053125 7.2 
L 423.173125 7.2 
" style="fill:none;stroke:#cccccc;stroke-linecap:square;stroke-linejoin:miter;stroke-width:0.8;"/>
   </g>
  </g>
 </g>
 <defs>
  <clipPath id="pfde0c51f3e">
   <rect height="266.112" width="357.12" x="66.053125" y="7.2"/>
  </clipPath>
 </defs>
</svg>
