<?xml version="1.0" encoding="utf-8" standalone="no"?>
<!DOCTYPE svg PUBLIC "-//W3C//DTD SVG 1.1//EN"
  "http://www.w3.org/Graphics/SVG/1.1/DTD/svg11.dtd">
<!-- Created with matplotlib (https://matplotlib.org/) -->
<svg height="310.86825pt" version="1.1" viewBox="0 0 417.648125 310.86825" width="417.648125pt" xmlns="http://www.w3.org/2000/svg" xmlns:xlink="http://www.w3.org/1999/xlink">
 <defs>
  <style type="text/css">
*{stroke-linecap:butt;stroke-linejoin:round;white-space:pre;}
  </style>
 </defs>
 <g id="figure_1">
  <g id="patch_1">
   <path d="M 0 310.86825 
L 417.648125 310.86825 
L 417.648125 0 
L 0 0 
z
" style="fill:#ffffff;"/>
  </g>
  <g id="axes_1">
   <g id="patch_2">
    <path d="M 53.328125 273.312 
L 410.448125 273.312 
L 410.448125 7.2 
L 53.328125 7.2 
z
" style="fill:#ffffff;"/>
   </g>
   <g id="matplotlib.axis_1">
    <g id="xtick_1">
     <g id="line2d_1">
      <path clip-path="url(#p6d65bd6e0d)" d="M 69.560852 273.312 
L 69.560852 7.2 
" style="fill:none;stroke:#cccccc;stroke-linecap:round;stroke-width:0.8;"/>
     </g>
     <g id="text_1">
      <!-- 0 -->
      <defs>
       <path d="M 31.78125 66.40625 
Q 24.171875 66.40625 20.328125 58.90625 
Q 16.5 51.421875 16.5 36.375 
Q 16.5 21.390625 20.328125 13.890625 
Q 24.171875 6.390625 31.78125 6.390625 
Q 39.453125 6.390625 43.28125 13.890625 
Q 47.125 21.390625 47.125 36.375 
Q 47.125 51.421875 43.28125 58.90625 
Q 39.453125 66.40625 31.78125 66.40625 
z
M 31.78125 74.21875 
Q 44.046875 74.21875 50.515625 64.515625 
Q 56.984375 54.828125 56.984375 36.375 
Q 56.984375 17.96875 50.515625 8.265625 
Q 44.046875 -1.421875 31.78125 -1.421875 
Q 19.53125 -1.421875 13.0625 8.265625 
Q 6.59375 17.96875 6.59375 36.375 
Q 6.59375 54.828125 13.0625 64.515625 
Q 19.53125 74.21875 31.78125 74.21875 
z
" id="DejaVuSans-48"/>
      </defs>
      <g style="fill:#262626;" transform="translate(66.379602 287.910437)scale(0.1 -0.1)">
       <use xlink:href="#DejaVuSans-48"/>
      </g>
     </g>
    </g>
    <g id="xtick_2">
     <g id="line2d_2">
      <path clip-path="url(#p6d65bd6e0d)" d="M 137.909178 273.312 
L 137.909178 7.2 
" style="fill:none;stroke:#cccccc;stroke-linecap:round;stroke-width:0.8;"/>
     </g>
     <g id="text_2">
      <!-- 2 -->
      <defs>
       <path d="M 19.1875 8.296875 
L 53.609375 8.296875 
L 53.609375 0 
L 7.328125 0 
L 7.328125 8.296875 
Q 12.9375 14.109375 22.625 23.890625 
Q 32.328125 33.6875 34.8125 36.53125 
Q 39.546875 41.84375 41.421875 45.53125 
Q 43.3125 49.21875 43.3125 52.78125 
Q 43.3125 58.59375 39.234375 62.25 
Q 35.15625 65.921875 28.609375 65.921875 
Q 23.96875 65.921875 18.8125 64.3125 
Q 13.671875 62.703125 7.8125 59.421875 
L 7.8125 69.390625 
Q 13.765625 71.78125 18.9375 73 
Q 24.125 74.21875 28.421875 74.21875 
Q 39.75 74.21875 46.484375 68.546875 
Q 53.21875 62.890625 53.21875 53.421875 
Q 53.21875 48.921875 51.53125 44.890625 
Q 49.859375 40.875 45.40625 35.40625 
Q 44.1875 33.984375 37.640625 27.21875 
Q 31.109375 20.453125 19.1875 8.296875 
z
" id="DejaVuSans-50"/>
      </defs>
      <g style="fill:#262626;" transform="translate(134.727928 287.910437)scale(0.1 -0.1)">
       <use xlink:href="#DejaVuSans-50"/>
      </g>
     </g>
    </g>
    <g id="xtick_3">
     <g id="line2d_3">
      <path clip-path="url(#p6d65bd6e0d)" d="M 206.257503 273.312 
L 206.257503 7.2 
" style="fill:none;stroke:#cccccc;stroke-linecap:round;stroke-width:0.8;"/>
     </g>
     <g id="text_3">
      <!-- 4 -->
      <defs>
       <path d="M 37.796875 64.3125 
L 12.890625 25.390625 
L 37.796875 25.390625 
z
M 35.203125 72.90625 
L 47.609375 72.90625 
L 47.609375 25.390625 
L 58.015625 25.390625 
L 58.015625 17.1875 
L 47.609375 17.1875 
L 47.609375 0 
L 37.796875 0 
L 37.796875 17.1875 
L 4.890625 17.1875 
L 4.890625 26.703125 
z
" id="DejaVuSans-52"/>
      </defs>
      <g style="fill:#262626;" transform="translate(203.076253 287.910437)scale(0.1 -0.1)">
       <use xlink:href="#DejaVuSans-52"/>
      </g>
     </g>
    </g>
    <g id="xtick_4">
     <g id="line2d_4">
      <path clip-path="url(#p6d65bd6e0d)" d="M 274.605828 273.312 
L 274.605828 7.2 
" style="fill:none;stroke:#cccccc;stroke-linecap:round;stroke-width:0.8;"/>
     </g>
     <g id="text_4">
      <!-- 6 -->
      <defs>
       <path d="M 33.015625 40.375 
Q 26.375 40.375 22.484375 35.828125 
Q 18.609375 31.296875 18.609375 23.390625 
Q 18.609375 15.53125 22.484375 10.953125 
Q 26.375 6.390625 33.015625 6.390625 
Q 39.65625 6.390625 43.53125 10.953125 
Q 47.40625 15.53125 47.40625 23.390625 
Q 47.40625 31.296875 43.53125 35.828125 
Q 39.65625 40.375 33.015625 40.375 
z
M 52.59375 71.296875 
L 52.59375 62.3125 
Q 48.875 64.0625 45.09375 64.984375 
Q 41.3125 65.921875 37.59375 65.921875 
Q 27.828125 65.921875 22.671875 59.328125 
Q 17.53125 52.734375 16.796875 39.40625 
Q 19.671875 43.65625 24.015625 45.921875 
Q 28.375 48.1875 33.59375 48.1875 
Q 44.578125 48.1875 50.953125 41.515625 
Q 57.328125 34.859375 57.328125 23.390625 
Q 57.328125 12.15625 50.6875 5.359375 
Q 44.046875 -1.421875 33.015625 -1.421875 
Q 20.359375 -1.421875 13.671875 8.265625 
Q 6.984375 17.96875 6.984375 36.375 
Q 6.984375 53.65625 15.1875 63.9375 
Q 23.390625 74.21875 37.203125 74.21875 
Q 40.921875 74.21875 44.703125 73.484375 
Q 48.484375 72.75 52.59375 71.296875 
z
" id="DejaVuSans-54"/>
      </defs>
      <g style="fill:#262626;" transform="translate(271.424578 287.910437)scale(0.1 -0.1)">
       <use xlink:href="#DejaVuSans-54"/>
      </g>
     </g>
    </g>
    <g id="xtick_5">
     <g id="line2d_5">
      <path clip-path="url(#p6d65bd6e0d)" d="M 342.954154 273.312 
L 342.954154 7.2 
" style="fill:none;stroke:#cccccc;stroke-linecap:round;stroke-width:0.8;"/>
     </g>
     <g id="text_5">
      <!-- 8 -->
      <defs>
       <path d="M 31.78125 34.625 
Q 24.75 34.625 20.71875 30.859375 
Q 16.703125 27.09375 16.703125 20.515625 
Q 16.703125 13.921875 20.71875 10.15625 
Q 24.75 6.390625 31.78125 6.390625 
Q 38.8125 6.390625 42.859375 10.171875 
Q 46.921875 13.96875 46.921875 20.515625 
Q 46.921875 27.09375 42.890625 30.859375 
Q 38.875 34.625 31.78125 34.625 
z
M 21.921875 38.8125 
Q 15.578125 40.375 12.03125 44.71875 
Q 8.5 49.078125 8.5 55.328125 
Q 8.5 64.0625 14.71875 69.140625 
Q 20.953125 74.21875 31.78125 74.21875 
Q 42.671875 74.21875 48.875 69.140625 
Q 55.078125 64.0625 55.078125 55.328125 
Q 55.078125 49.078125 51.53125 44.71875 
Q 48 40.375 41.703125 38.8125 
Q 48.828125 37.15625 52.796875 32.3125 
Q 56.78125 27.484375 56.78125 20.515625 
Q 56.78125 9.90625 50.3125 4.234375 
Q 43.84375 -1.421875 31.78125 -1.421875 
Q 19.734375 -1.421875 13.25 4.234375 
Q 6.78125 9.90625 6.78125 20.515625 
Q 6.78125 27.484375 10.78125 32.3125 
Q 14.796875 37.15625 21.921875 38.8125 
z
M 18.3125 54.390625 
Q 18.3125 48.734375 21.84375 45.5625 
Q 25.390625 42.390625 31.78125 42.390625 
Q 38.140625 42.390625 41.71875 45.5625 
Q 45.3125 48.734375 45.3125 54.390625 
Q 45.3125 60.0625 41.71875 63.234375 
Q 38.140625 66.40625 31.78125 66.40625 
Q 25.390625 66.40625 21.84375 63.234375 
Q 18.3125 60.0625 18.3125 54.390625 
z
" id="DejaVuSans-56"/>
      </defs>
      <g style="fill:#262626;" transform="translate(339.772904 287.910437)scale(0.1 -0.1)">
       <use xlink:href="#DejaVuSans-56"/>
      </g>
     </g>
    </g>
    <g id="text_6">
     <!-- time (days) -->
     <defs>
      <path d="M 18.3125 70.21875 
L 18.3125 54.6875 
L 36.8125 54.6875 
L 36.8125 47.703125 
L 18.3125 47.703125 
L 18.3125 18.015625 
Q 18.3125 11.328125 20.140625 9.421875 
Q 21.96875 7.515625 27.59375 7.515625 
L 36.8125 7.515625 
L 36.8125 0 
L 27.59375 0 
Q 17.1875 0 13.234375 3.875 
Q 9.28125 7.765625 9.28125 18.015625 
L 9.28125 47.703125 
L 2.6875 47.703125 
L 2.6875 54.6875 
L 9.28125 54.6875 
L 9.28125 70.21875 
z
" id="DejaVuSans-116"/>
      <path d="M 9.421875 54.6875 
L 18.40625 54.6875 
L 18.40625 0 
L 9.421875 0 
z
M 9.421875 75.984375 
L 18.40625 75.984375 
L 18.40625 64.59375 
L 9.421875 64.59375 
z
" id="DejaVuSans-105"/>
      <path d="M 52 44.1875 
Q 55.375 50.25 60.0625 53.125 
Q 64.75 56 71.09375 56 
Q 79.640625 56 84.28125 50.015625 
Q 88.921875 44.046875 88.921875 33.015625 
L 88.921875 0 
L 79.890625 0 
L 79.890625 32.71875 
Q 79.890625 40.578125 77.09375 44.375 
Q 74.3125 48.1875 68.609375 48.1875 
Q 61.625 48.1875 57.5625 43.546875 
Q 53.515625 38.921875 53.515625 30.90625 
L 53.515625 0 
L 44.484375 0 
L 44.484375 32.71875 
Q 44.484375 40.625 41.703125 44.40625 
Q 38.921875 48.1875 33.109375 48.1875 
Q 26.21875 48.1875 22.15625 43.53125 
Q 18.109375 38.875 18.109375 30.90625 
L 18.109375 0 
L 9.078125 0 
L 9.078125 54.6875 
L 18.109375 54.6875 
L 18.109375 46.1875 
Q 21.1875 51.21875 25.484375 53.609375 
Q 29.78125 56 35.6875 56 
Q 41.65625 56 45.828125 52.96875 
Q 50 49.953125 52 44.1875 
z
" id="DejaVuSans-109"/>
      <path d="M 56.203125 29.59375 
L 56.203125 25.203125 
L 14.890625 25.203125 
Q 15.484375 15.921875 20.484375 11.0625 
Q 25.484375 6.203125 34.421875 6.203125 
Q 39.59375 6.203125 44.453125 7.46875 
Q 49.3125 8.734375 54.109375 11.28125 
L 54.109375 2.78125 
Q 49.265625 0.734375 44.1875 -0.34375 
Q 39.109375 -1.421875 33.890625 -1.421875 
Q 20.796875 -1.421875 13.15625 6.1875 
Q 5.515625 13.8125 5.515625 26.8125 
Q 5.515625 40.234375 12.765625 48.109375 
Q 20.015625 56 32.328125 56 
Q 43.359375 56 49.78125 48.890625 
Q 56.203125 41.796875 56.203125 29.59375 
z
M 47.21875 32.234375 
Q 47.125 39.59375 43.09375 43.984375 
Q 39.0625 48.390625 32.421875 48.390625 
Q 24.90625 48.390625 20.390625 44.140625 
Q 15.875 39.890625 15.1875 32.171875 
z
" id="DejaVuSans-101"/>
      <path id="DejaVuSans-32"/>
      <path d="M 31 75.875 
Q 24.46875 64.65625 21.28125 53.65625 
Q 18.109375 42.671875 18.109375 31.390625 
Q 18.109375 20.125 21.3125 9.0625 
Q 24.515625 -2 31 -13.1875 
L 23.1875 -13.1875 
Q 15.875 -1.703125 12.234375 9.375 
Q 8.59375 20.453125 8.59375 31.390625 
Q 8.59375 42.28125 12.203125 53.3125 
Q 15.828125 64.359375 23.1875 75.875 
z
" id="DejaVuSans-40"/>
      <path d="M 45.40625 46.390625 
L 45.40625 75.984375 
L 54.390625 75.984375 
L 54.390625 0 
L 45.40625 0 
L 45.40625 8.203125 
Q 42.578125 3.328125 38.25 0.953125 
Q 33.9375 -1.421875 27.875 -1.421875 
Q 17.96875 -1.421875 11.734375 6.484375 
Q 5.515625 14.40625 5.515625 27.296875 
Q 5.515625 40.1875 11.734375 48.09375 
Q 17.96875 56 27.875 56 
Q 33.9375 56 38.25 53.625 
Q 42.578125 51.265625 45.40625 46.390625 
z
M 14.796875 27.296875 
Q 14.796875 17.390625 18.875 11.75 
Q 22.953125 6.109375 30.078125 6.109375 
Q 37.203125 6.109375 41.296875 11.75 
Q 45.40625 17.390625 45.40625 27.296875 
Q 45.40625 37.203125 41.296875 42.84375 
Q 37.203125 48.484375 30.078125 48.484375 
Q 22.953125 48.484375 18.875 42.84375 
Q 14.796875 37.203125 14.796875 27.296875 
z
" id="DejaVuSans-100"/>
      <path d="M 34.28125 27.484375 
Q 23.390625 27.484375 19.1875 25 
Q 14.984375 22.515625 14.984375 16.5 
Q 14.984375 11.71875 18.140625 8.90625 
Q 21.296875 6.109375 26.703125 6.109375 
Q 34.1875 6.109375 38.703125 11.40625 
Q 43.21875 16.703125 43.21875 25.484375 
L 43.21875 27.484375 
z
M 52.203125 31.203125 
L 52.203125 0 
L 43.21875 0 
L 43.21875 8.296875 
Q 40.140625 3.328125 35.546875 0.953125 
Q 30.953125 -1.421875 24.3125 -1.421875 
Q 15.921875 -1.421875 10.953125 3.296875 
Q 6 8.015625 6 15.921875 
Q 6 25.140625 12.171875 29.828125 
Q 18.359375 34.515625 30.609375 34.515625 
L 43.21875 34.515625 
L 43.21875 35.40625 
Q 43.21875 41.609375 39.140625 45 
Q 35.0625 48.390625 27.6875 48.390625 
Q 23 48.390625 18.546875 47.265625 
Q 14.109375 46.140625 10.015625 43.890625 
L 10.015625 52.203125 
Q 14.9375 54.109375 19.578125 55.046875 
Q 24.21875 56 28.609375 56 
Q 40.484375 56 46.34375 49.84375 
Q 52.203125 43.703125 52.203125 31.203125 
z
" id="DejaVuSans-97"/>
      <path d="M 32.171875 -5.078125 
Q 28.375 -14.84375 24.75 -17.8125 
Q 21.140625 -20.796875 15.09375 -20.796875 
L 7.90625 -20.796875 
L 7.90625 -13.28125 
L 13.1875 -13.28125 
Q 16.890625 -13.28125 18.9375 -11.515625 
Q 21 -9.765625 23.484375 -3.21875 
L 25.09375 0.875 
L 2.984375 54.6875 
L 12.5 54.6875 
L 29.59375 11.921875 
L 46.6875 54.6875 
L 56.203125 54.6875 
z
" id="DejaVuSans-121"/>
      <path d="M 44.28125 53.078125 
L 44.28125 44.578125 
Q 40.484375 46.53125 36.375 47.5 
Q 32.28125 48.484375 27.875 48.484375 
Q 21.1875 48.484375 17.84375 46.4375 
Q 14.5 44.390625 14.5 40.28125 
Q 14.5 37.15625 16.890625 35.375 
Q 19.28125 33.59375 26.515625 31.984375 
L 29.59375 31.296875 
Q 39.15625 29.25 43.1875 25.515625 
Q 47.21875 21.78125 47.21875 15.09375 
Q 47.21875 7.46875 41.1875 3.015625 
Q 35.15625 -1.421875 24.609375 -1.421875 
Q 20.21875 -1.421875 15.453125 -0.5625 
Q 10.6875 0.296875 5.421875 2 
L 5.421875 11.28125 
Q 10.40625 8.6875 15.234375 7.390625 
Q 20.0625 6.109375 24.8125 6.109375 
Q 31.15625 6.109375 34.5625 8.28125 
Q 37.984375 10.453125 37.984375 14.40625 
Q 37.984375 18.0625 35.515625 20.015625 
Q 33.0625 21.96875 24.703125 23.78125 
L 21.578125 24.515625 
Q 13.234375 26.265625 9.515625 29.90625 
Q 5.8125 33.546875 5.8125 39.890625 
Q 5.8125 47.609375 11.28125 51.796875 
Q 16.75 56 26.8125 56 
Q 31.78125 56 36.171875 55.265625 
Q 40.578125 54.546875 44.28125 53.078125 
z
" id="DejaVuSans-115"/>
      <path d="M 8.015625 75.875 
L 15.828125 75.875 
Q 23.140625 64.359375 26.78125 53.3125 
Q 30.421875 42.28125 30.421875 31.390625 
Q 30.421875 20.453125 26.78125 9.375 
Q 23.140625 -1.703125 15.828125 -13.1875 
L 8.015625 -13.1875 
Q 14.5 -2 17.703125 9.0625 
Q 20.90625 20.125 20.90625 31.390625 
Q 20.90625 42.671875 17.703125 53.65625 
Q 14.5 64.65625 8.015625 75.875 
z
" id="DejaVuSans-41"/>
     </defs>
     <g style="fill:#262626;" transform="translate(203.299063 301.588562)scale(0.1 -0.1)">
      <use xlink:href="#DejaVuSans-116"/>
      <use x="39.208984" xlink:href="#DejaVuSans-105"/>
      <use x="66.992188" xlink:href="#DejaVuSans-109"/>
      <use x="164.404297" xlink:href="#DejaVuSans-101"/>
      <use x="225.927734" xlink:href="#DejaVuSans-32"/>
      <use x="257.714844" xlink:href="#DejaVuSans-40"/>
      <use x="296.728516" xlink:href="#DejaVuSans-100"/>
      <use x="360.205078" xlink:href="#DejaVuSans-97"/>
      <use x="421.484375" xlink:href="#DejaVuSans-121"/>
      <use x="480.664062" xlink:href="#DejaVuSans-115"/>
      <use x="532.763672" xlink:href="#DejaVuSans-41"/>
     </g>
    </g>
   </g>
   <g id="matplotlib.axis_2">
    <g id="ytick_1">
     <g id="line2d_6">
      <path clip-path="url(#p6d65bd6e0d)" d="M 53.328125 262.563744 
L 410.448125 262.563744 
" style="fill:none;stroke:#cccccc;stroke-linecap:round;stroke-width:0.8;"/>
     </g>
     <g id="text_7">
      <!-- 0 -->
      <g style="fill:#262626;" transform="translate(39.965625 266.362962)scale(0.1 -0.1)">
       <use xlink:href="#DejaVuSans-48"/>
      </g>
     </g>
    </g>
    <g id="ytick_2">
     <g id="line2d_7">
      <path clip-path="url(#p6d65bd6e0d)" d="M 53.328125 206.407755 
L 410.448125 206.407755 
" style="fill:none;stroke:#cccccc;stroke-linecap:round;stroke-width:0.8;"/>
     </g>
     <g id="text_8">
      <!-- 500 -->
      <defs>
       <path d="M 10.796875 72.90625 
L 49.515625 72.90625 
L 49.515625 64.59375 
L 19.828125 64.59375 
L 19.828125 46.734375 
Q 21.96875 47.46875 24.109375 47.828125 
Q 26.265625 48.1875 28.421875 48.1875 
Q 40.625 48.1875 47.75 41.5 
Q 54.890625 34.8125 54.890625 23.390625 
Q 54.890625 11.625 47.5625 5.09375 
Q 40.234375 -1.421875 26.90625 -1.421875 
Q 22.3125 -1.421875 17.546875 -0.640625 
Q 12.796875 0.140625 7.71875 1.703125 
L 7.71875 11.625 
Q 12.109375 9.234375 16.796875 8.0625 
Q 21.484375 6.890625 26.703125 6.890625 
Q 35.15625 6.890625 40.078125 11.328125 
Q 45.015625 15.765625 45.015625 23.390625 
Q 45.015625 31 40.078125 35.4375 
Q 35.15625 39.890625 26.703125 39.890625 
Q 22.75 39.890625 18.8125 39.015625 
Q 14.890625 38.140625 10.796875 36.28125 
z
" id="DejaVuSans-53"/>
      </defs>
      <g style="fill:#262626;" transform="translate(27.240625 210.206974)scale(0.1 -0.1)">
       <use xlink:href="#DejaVuSans-53"/>
       <use x="63.623047" xlink:href="#DejaVuSans-48"/>
       <use x="127.246094" xlink:href="#DejaVuSans-48"/>
      </g>
     </g>
    </g>
    <g id="ytick_3">
     <g id="line2d_8">
      <path clip-path="url(#p6d65bd6e0d)" d="M 53.328125 150.251766 
L 410.448125 150.251766 
" style="fill:none;stroke:#cccccc;stroke-linecap:round;stroke-width:0.8;"/>
     </g>
     <g id="text_9">
      <!-- 1000 -->
      <defs>
       <path d="M 12.40625 8.296875 
L 28.515625 8.296875 
L 28.515625 63.921875 
L 10.984375 60.40625 
L 10.984375 69.390625 
L 28.421875 72.90625 
L 38.28125 72.90625 
L 38.28125 8.296875 
L 54.390625 8.296875 
L 54.390625 0 
L 12.40625 0 
z
" id="DejaVuSans-49"/>
      </defs>
      <g style="fill:#262626;" transform="translate(20.878125 154.050985)scale(0.1 -0.1)">
       <use xlink:href="#DejaVuSans-49"/>
       <use x="63.623047" xlink:href="#DejaVuSans-48"/>
       <use x="127.246094" xlink:href="#DejaVuSans-48"/>
       <use x="190.869141" xlink:href="#DejaVuSans-48"/>
      </g>
     </g>
    </g>
    <g id="ytick_4">
     <g id="line2d_9">
      <path clip-path="url(#p6d65bd6e0d)" d="M 53.328125 94.095777 
L 410.448125 94.095777 
" style="fill:none;stroke:#cccccc;stroke-linecap:round;stroke-width:0.8;"/>
     </g>
     <g id="text_10">
      <!-- 1500 -->
      <g style="fill:#262626;" transform="translate(20.878125 97.894996)scale(0.1 -0.1)">
       <use xlink:href="#DejaVuSans-49"/>
       <use x="63.623047" xlink:href="#DejaVuSans-53"/>
       <use x="127.246094" xlink:href="#DejaVuSans-48"/>
       <use x="190.869141" xlink:href="#DejaVuSans-48"/>
      </g>
     </g>
    </g>
    <g id="ytick_5">
     <g id="line2d_10">
      <path clip-path="url(#p6d65bd6e0d)" d="M 53.328125 37.939788 
L 410.448125 37.939788 
" style="fill:none;stroke:#cccccc;stroke-linecap:round;stroke-width:0.8;"/>
     </g>
     <g id="text_11">
      <!-- 2000 -->
      <g style="fill:#262626;" transform="translate(20.878125 41.739007)scale(0.1 -0.1)">
       <use xlink:href="#DejaVuSans-50"/>
       <use x="63.623047" xlink:href="#DejaVuSans-48"/>
       <use x="127.246094" xlink:href="#DejaVuSans-48"/>
       <use x="190.869141" xlink:href="#DejaVuSans-48"/>
      </g>
     </g>
    </g>
    <g id="text_12">
     <!-- cells number -->
     <defs>
      <path d="M 48.78125 52.59375 
L 48.78125 44.1875 
Q 44.96875 46.296875 41.140625 47.34375 
Q 37.3125 48.390625 33.40625 48.390625 
Q 24.65625 48.390625 19.8125 42.84375 
Q 14.984375 37.3125 14.984375 27.296875 
Q 14.984375 17.28125 19.8125 11.734375 
Q 24.65625 6.203125 33.40625 6.203125 
Q 37.3125 6.203125 41.140625 7.25 
Q 44.96875 8.296875 48.78125 10.40625 
L 48.78125 2.09375 
Q 45.015625 0.34375 40.984375 -0.53125 
Q 36.96875 -1.421875 32.421875 -1.421875 
Q 20.0625 -1.421875 12.78125 6.34375 
Q 5.515625 14.109375 5.515625 27.296875 
Q 5.515625 40.671875 12.859375 48.328125 
Q 20.21875 56 33.015625 56 
Q 37.15625 56 41.109375 55.140625 
Q 45.0625 54.296875 48.78125 52.59375 
z
" id="DejaVuSans-99"/>
      <path d="M 9.421875 75.984375 
L 18.40625 75.984375 
L 18.40625 0 
L 9.421875 0 
z
" id="DejaVuSans-108"/>
      <path d="M 54.890625 33.015625 
L 54.890625 0 
L 45.90625 0 
L 45.90625 32.71875 
Q 45.90625 40.484375 42.875 44.328125 
Q 39.84375 48.1875 33.796875 48.1875 
Q 26.515625 48.1875 22.3125 43.546875 
Q 18.109375 38.921875 18.109375 30.90625 
L 18.109375 0 
L 9.078125 0 
L 9.078125 54.6875 
L 18.109375 54.6875 
L 18.109375 46.1875 
Q 21.34375 51.125 25.703125 53.5625 
Q 30.078125 56 35.796875 56 
Q 45.21875 56 50.046875 50.171875 
Q 54.890625 44.34375 54.890625 33.015625 
z
" id="DejaVuSans-110"/>
      <path d="M 8.5 21.578125 
L 8.5 54.6875 
L 17.484375 54.6875 
L 17.484375 21.921875 
Q 17.484375 14.15625 20.5 10.265625 
Q 23.53125 6.390625 29.59375 6.390625 
Q 36.859375 6.390625 41.078125 11.03125 
Q 45.3125 15.671875 45.3125 23.6875 
L 45.3125 54.6875 
L 54.296875 54.6875 
L 54.296875 0 
L 45.3125 0 
L 45.3125 8.40625 
Q 42.046875 3.421875 37.71875 1 
Q 33.40625 -1.421875 27.6875 -1.421875 
Q 18.265625 -1.421875 13.375 4.4375 
Q 8.5 10.296875 8.5 21.578125 
z
M 31.109375 56 
z
" id="DejaVuSans-117"/>
      <path d="M 48.6875 27.296875 
Q 48.6875 37.203125 44.609375 42.84375 
Q 40.53125 48.484375 33.40625 48.484375 
Q 26.265625 48.484375 22.1875 42.84375 
Q 18.109375 37.203125 18.109375 27.296875 
Q 18.109375 17.390625 22.1875 11.75 
Q 26.265625 6.109375 33.40625 6.109375 
Q 40.53125 6.109375 44.609375 11.75 
Q 48.6875 17.390625 48.6875 27.296875 
z
M 18.109375 46.390625 
Q 20.953125 51.265625 25.265625 53.625 
Q 29.59375 56 35.59375 56 
Q 45.5625 56 51.78125 48.09375 
Q 58.015625 40.1875 58.015625 27.296875 
Q 58.015625 14.40625 51.78125 6.484375 
Q 45.5625 -1.421875 35.59375 -1.421875 
Q 29.59375 -1.421875 25.265625 0.953125 
Q 20.953125 3.328125 18.109375 8.203125 
L 18.109375 0 
L 9.078125 0 
L 9.078125 75.984375 
L 18.109375 75.984375 
z
" id="DejaVuSans-98"/>
      <path d="M 41.109375 46.296875 
Q 39.59375 47.171875 37.8125 47.578125 
Q 36.03125 48 33.890625 48 
Q 26.265625 48 22.1875 43.046875 
Q 18.109375 38.09375 18.109375 28.8125 
L 18.109375 0 
L 9.078125 0 
L 9.078125 54.6875 
L 18.109375 54.6875 
L 18.109375 46.1875 
Q 20.953125 51.171875 25.484375 53.578125 
Q 30.03125 56 36.53125 56 
Q 37.453125 56 38.578125 55.875 
Q 39.703125 55.765625 41.0625 55.515625 
z
" id="DejaVuSans-114"/>
     </defs>
     <g style="fill:#262626;" transform="translate(14.798438 172.567719)rotate(-90)scale(0.1 -0.1)">
      <use xlink:href="#DejaVuSans-99"/>
      <use x="54.980469" xlink:href="#DejaVuSans-101"/>
      <use x="116.503906" xlink:href="#DejaVuSans-108"/>
      <use x="144.287109" xlink:href="#DejaVuSans-108"/>
      <use x="172.070312" xlink:href="#DejaVuSans-115"/>
      <use x="224.169922" xlink:href="#DejaVuSans-32"/>
      <use x="255.957031" xlink:href="#DejaVuSans-110"/>
      <use x="319.335938" xlink:href="#DejaVuSans-117"/>
      <use x="382.714844" xlink:href="#DejaVuSans-109"/>
      <use x="480.126953" xlink:href="#DejaVuSans-98"/>
      <use x="543.603516" xlink:href="#DejaVuSans-101"/>
      <use x="605.126953" xlink:href="#DejaVuSans-114"/>
     </g>
    </g>
   </g>
   <g id="line2d_11">
    <path clip-path="url(#p6d65bd6e0d)" d="M 69.560852 260.65444 
L 72.978269 258.408201 
L 76.395685 256.161961 
L 79.813101 254.814217 
L 83.230517 252.455666 
L 86.647934 249.086306 
L 90.06535 246.278507 
L 93.482766 243.919955 
L 96.900182 241.449092 
L 100.317599 238.753604 
L 103.735015 235.945805 
L 107.152431 232.913382 
L 110.569847 231.228702 
L 113.987264 229.43171 
L 117.40468 227.522407 
L 120.822096 223.816111 
L 124.239513 221.232936 
L 127.656929 218.874384 
L 131.074345 216.515833 
L 134.491761 214.381905 
L 137.909178 211.911042 
L 141.326594 209.889426 
L 144.74401 207.530875 
L 148.161426 204.723075 
L 151.578843 202.1399 
L 154.996259 199.781348 
L 158.413675 197.198173 
L 161.831092 195.176557 
L 165.248508 193.04263 
L 168.665924 190.571766 
L 172.08334 188.213214 
L 175.500757 186.303911 
L 178.918173 184.506919 
L 182.335589 182.26068 
L 185.753005 179.228256 
L 189.170422 175.634273 
L 192.587838 173.163409 
L 196.005254 170.692546 
L 199.42267 167.772435 
L 202.840087 165.638507 
L 206.257503 163.055331 
L 209.674919 160.472156 
L 213.092336 158.675164 
L 216.509752 156.765861 
L 219.927168 153.958061 
L 223.344584 153.284189 
L 226.762001 149.91483 
L 230.179417 147.668591 
L 233.596833 145.871599 
L 237.014249 142.277616 
L 240.431666 139.69444 
L 243.849082 137.223577 
L 247.266498 134.191153 
L 250.683914 131.383354 
L 254.101331 128.35093 
L 257.518747 126.666251 
L 260.936163 123.409203 
L 264.35358 121.4999 
L 267.770996 118.916724 
L 271.188412 115.884301 
L 274.605828 113.188813 
L 278.023245 111.504134 
L 281.440661 108.808646 
L 284.858077 106.450095 
L 288.275493 103.080735 
L 291.69291 100.946808 
L 295.110326 98.588256 
L 298.527742 96.005081 
L 301.945158 93.983465 
L 305.362575 91.512602 
L 308.779991 88.929426 
L 312.197407 86.907811 
L 315.614824 83.987699 
L 319.03224 81.74146 
L 322.449656 78.709036 
L 325.867072 75.901237 
L 329.284489 73.654997 
L 332.701905 70.39795 
L 336.119321 68.039398 
L 339.536737 65.119287 
L 342.954154 63.322295 
L 346.37157 61.86224 
L 349.788986 59.616 
L 353.206403 57.482072 
L 356.623819 55.123521 
L 360.041235 52.989593 
L 363.458651 50.855666 
L 366.876068 48.384802 
L 370.293484 47.14937 
L 373.7109 45.015443 
L 377.128316 41.870708 
L 380.545733 39.062908 
L 383.963149 37.041292 
L 387.380565 34.233493 
L 390.797981 30.976446 
L 394.215398 29.067142 
" style="fill:none;stroke:#000080;stroke-linecap:round;stroke-width:1.5;"/>
   </g>
   <g id="line2d_12">
    <path clip-path="url(#p6d65bd6e0d)" d="M 69.560852 259.194384 
L 72.978269 256.498897 
L 76.395685 253.466474 
L 79.813101 250.883298 
L 83.230517 248.524747 
L 86.647934 246.840067 
L 90.06535 243.919955 
L 93.482766 240.77522 
L 96.900182 239.09054 
L 100.317599 236.956613 
L 103.735015 234.822685 
L 107.152431 231.453326 
L 110.569847 228.645526 
L 113.987264 225.725415 
L 117.40468 223.254552 
L 120.822096 221.345248 
L 124.239513 218.874384 
L 127.656929 215.280401 
L 131.074345 213.258786 
L 134.491761 210.11405 
L 137.909178 206.183131 
L 141.326594 202.252212 
L 144.74401 199.219788 
L 148.161426 197.872045 
L 151.578843 195.288869 
L 154.996259 193.379565 
L 158.413675 191.694886 
L 161.831092 189.67327 
L 165.248508 186.528535 
L 168.665924 183.945359 
L 172.08334 181.13756 
L 175.500757 178.217448 
L 178.918173 175.971209 
L 182.335589 173.275721 
L 185.753005 171.254106 
L 189.170422 168.221682 
L 192.587838 166.200067 
L 196.005254 163.616891 
L 199.42267 160.809092 
L 202.840087 158.45054 
L 206.257503 156.878173 
L 209.674919 153.733437 
L 213.092336 151.936446 
L 216.509752 149.91483 
L 219.927168 146.433159 
L 223.344584 144.523855 
L 226.762001 141.603744 
L 230.179417 139.13288 
L 233.596833 137.223577 
L 237.014249 135.538897 
L 240.431666 133.966529 
L 243.849082 131.15873 
L 247.266498 128.800178 
L 250.683914 126.217003 
L 254.101331 123.858451 
L 257.518747 121.949148 
L 260.936163 120.152156 
L 264.35358 118.6921 
L 267.770996 116.221237 
L 271.188412 114.536557 
L 274.605828 112.851877 
L 278.023245 110.268702 
L 281.440661 108.247086 
L 284.858077 105.439287 
L 288.275493 102.631487 
L 291.69291 100.946808 
L 295.110326 98.925192 
L 298.527742 96.454329 
L 301.945158 93.534217 
L 305.362575 89.940234 
L 308.779991 87.244747 
L 312.197407 86.233939 
L 315.614824 84.324635 
L 319.03224 82.415331 
L 322.449656 79.158284 
L 325.867072 76.912045 
L 329.284489 74.890429 
L 332.701905 72.419565 
L 336.119321 70.510262 
L 339.536737 67.477838 
L 342.954154 65.680847 
L 346.37157 63.771543 
L 349.788986 61.974552 
L 353.206403 58.942128 
L 356.623819 56.920513 
L 360.041235 54.561961 
L 363.458651 51.529538 
L 366.876068 49.732546 
L 370.293484 46.138563 
L 373.7109 44.341571 
L 377.128316 41.646084 
L 380.545733 39.512156 
L 383.963149 37.378228 
L 387.380565 36.592045 
L 390.797981 33.784245 
L 394.215398 32.211877 
" style="fill:none;stroke:#0000f1;stroke-linecap:round;stroke-width:1.5;"/>
   </g>
   <g id="line2d_13">
    <path clip-path="url(#p6d65bd6e0d)" d="M 69.560852 259.419008 
L 72.978269 256.161961 
L 76.395685 253.24185 
L 79.813101 250.546362 
L 83.230517 247.064691 
L 86.647934 244.481515 
L 90.06535 241.33678 
L 93.482766 237.967421 
L 96.900182 234.036501 
L 100.317599 231.67795 
L 103.735015 229.99327 
L 107.152431 226.848535 
L 110.569847 224.714607 
L 113.987264 221.682184 
L 117.40468 219.323632 
L 120.822096 216.515833 
L 124.239513 214.381905 
L 127.656929 211.686418 
L 131.074345 209.103242 
L 134.491761 205.621571 
L 137.909178 203.263019 
L 141.326594 201.466028 
L 144.74401 197.759733 
L 148.161426 195.513493 
L 151.578843 192.930318 
L 154.996259 189.897894 
L 158.413675 186.640847 
L 161.831092 182.934552 
L 165.248508 180.239064 
L 168.665924 177.880513 
L 172.08334 175.858897 
L 175.500757 172.938786 
L 178.918173 170.130986 
L 182.335589 168.221682 
L 185.753005 166.312379 
L 189.170422 163.167643 
L 192.587838 159.798284 
L 196.005254 158.001292 
L 199.42267 156.091989 
L 202.840087 153.284189 
L 206.257503 149.91483 
L 209.674919 147.443967 
L 213.092336 144.973103 
L 216.509752 142.052992 
L 219.927168 140.256 
L 223.344584 137.335889 
L 226.762001 135.201961 
L 230.179417 132.394162 
L 233.596833 130.260234 
L 237.014249 127.340123 
L 240.431666 125.543131 
L 243.849082 122.286084 
L 247.266498 119.590596 
L 250.683914 116.558173 
L 254.101331 114.536557 
L 257.518747 112.627253 
L 260.936163 110.493326 
L 264.35358 108.359398 
L 267.770996 105.439287 
L 271.188412 102.069928 
L 274.605828 99.936 
L 278.023245 97.128201 
L 281.440661 94.994273 
L 284.858077 92.298786 
L 288.275493 89.490986 
L 291.69291 87.132435 
L 295.110326 83.987699 
L 298.527742 81.629148 
L 301.945158 79.270596 
L 305.362575 77.361292 
L 308.779991 75.451989 
L 312.197407 73.093437 
L 315.614824 71.296446 
L 319.03224 68.937894 
L 322.449656 66.130095 
L 325.867072 63.434607 
L 329.284489 61.525304 
L 332.701905 59.952936 
L 336.119321 57.93132 
L 339.536737 55.572769 
L 342.954154 54.225025 
L 346.37157 52.540345 
L 349.788986 50.294106 
L 353.206403 48.047866 
L 356.623819 46.138563 
L 360.041235 44.341571 
L 363.458651 41.646084 
L 366.876068 39.287532 
L 370.293484 36.928981 
L 373.7109 34.682741 
L 377.128316 32.998061 
L 380.545733 30.414886 
L 383.963149 27.607086 
L 387.380565 24.462351 
L 390.797981 22.103799 
L 394.215398 19.296 
" style="fill:none;stroke:#004cff;stroke-linecap:round;stroke-width:1.5;"/>
   </g>
   <g id="line2d_14">
    <path clip-path="url(#p6d65bd6e0d)" d="M 69.560852 260.09288 
L 72.978269 257.285081 
L 76.395685 254.477281 
L 79.813101 250.43405 
L 83.230517 247.401627 
L 86.647934 244.818451 
L 90.06535 242.909148 
L 93.482766 240.550596 
L 96.900182 238.528981 
L 100.317599 235.945805 
L 103.735015 234.036501 
L 107.152431 231.453326 
L 110.569847 228.645526 
L 113.987264 225.276167 
L 117.40468 222.58068 
L 120.822096 219.997504 
L 124.239513 217.302017 
L 127.656929 214.606529 
L 131.074345 212.135666 
L 134.491761 209.777114 
L 137.909178 207.755499 
L 141.326594 205.621571 
L 144.74401 203.263019 
L 148.161426 200.45522 
L 151.578843 197.647421 
L 154.996259 193.941125 
L 158.413675 191.35795 
L 161.831092 188.100903 
L 165.248508 185.742351 
L 168.665924 182.709928 
L 172.08334 180.351376 
L 175.500757 178.32976 
L 178.918173 176.420457 
L 182.335589 174.398841 
L 185.753005 172.152602 
L 189.170422 170.018674 
L 192.587838 167.884747 
L 196.005254 165.076947 
L 199.42267 162.718396 
L 202.840087 160.921404 
L 206.257503 158.338228 
L 209.674919 155.979677 
L 213.092336 153.958061 
L 216.509752 150.47639 
L 219.927168 147.219343 
L 223.344584 145.197727 
L 226.762001 142.839175 
L 230.179417 141.042184 
L 233.596833 138.459008 
L 237.014249 136.100457 
L 240.431666 134.640401 
L 243.849082 132.731097 
L 247.266498 129.586362 
L 250.683914 127.452435 
L 254.101331 124.981571 
L 257.518747 122.173772 
L 260.936163 119.702908 
L 264.35358 116.895109 
L 267.770996 114.536557 
L 271.188412 112.065694 
L 274.605828 110.044078 
L 278.023245 107.91015 
L 281.440661 106.000847 
L 284.858077 103.193047 
L 288.275493 100.048312 
L 291.69291 97.914384 
L 295.110326 95.555833 
L 298.527742 92.523409 
L 301.945158 90.389482 
L 305.362575 87.244747 
L 308.779991 84.212323 
L 312.197407 81.966084 
L 315.614824 79.719844 
L 319.03224 78.484412 
L 322.449656 76.238173 
L 325.867072 73.991933 
L 329.284489 71.970318 
L 332.701905 69.724078 
L 336.119321 66.691655 
L 339.536737 64.220791 
L 342.954154 63.097671 
L 346.37157 60.065248 
L 349.788986 57.706696 
L 353.206403 55.011209 
L 356.623819 52.428033 
L 360.041235 49.507922 
L 363.458651 47.935554 
L 366.876068 46.026251 
L 370.293484 43.443075 
L 373.7109 41.084524 
L 377.128316 38.838284 
L 380.545733 36.367421 
L 383.963149 33.784245 
L 387.380565 31.088758 
L 390.797981 28.280958 
L 394.215398 25.697783 
" style="fill:none;stroke:#00b0ff;stroke-linecap:round;stroke-width:1.5;"/>
   </g>
   <g id="line2d_15">
    <path clip-path="url(#p6d65bd6e0d)" d="M 69.560852 260.542128 
L 72.978269 258.295889 
L 76.395685 256.835833 
L 79.813101 255.375777 
L 83.230517 253.578786 
L 86.647934 251.332546 
L 90.06535 249.31093 
L 93.482766 246.952379 
L 96.900182 244.481515 
L 100.317599 240.999844 
L 103.735015 238.753604 
L 107.152431 236.058117 
L 110.569847 234.373437 
L 113.987264 232.127198 
L 117.40468 229.99327 
L 120.822096 227.522407 
L 124.239513 224.489983 
L 127.656929 221.906808 
L 131.074345 219.997504 
L 134.491761 216.852769 
L 137.909178 215.392713 
L 141.326594 212.809538 
L 144.74401 210.001738 
L 148.161426 206.744691 
L 151.578843 204.161515 
L 154.996259 201.466028 
L 158.413675 199.89366 
L 161.831092 196.861237 
L 165.248508 194.614997 
L 168.665924 192.930318 
L 172.08334 190.571766 
L 175.500757 187.314719 
L 178.918173 184.169983 
L 182.335589 181.586808 
L 185.753005 179.115944 
L 189.170422 176.083521 
L 192.587838 174.061905 
L 196.005254 170.692546 
L 199.42267 168.67093 
L 202.840087 165.863131 
L 206.257503 162.718396 
L 209.674919 160.809092 
L 213.092336 158.338228 
L 216.509752 156.091989 
L 219.927168 153.508813 
L 223.344584 151.150262 
L 226.762001 149.465582 
L 230.179417 147.443967 
L 233.596833 144.860791 
L 237.014249 141.491432 
L 240.431666 138.57132 
L 243.849082 136.212769 
L 247.266498 133.966529 
L 250.683914 131.15873 
L 254.101331 128.575554 
L 257.518747 126.329315 
L 260.936163 124.083075 
L 264.35358 122.06146 
L 267.770996 119.81522 
L 271.188412 117.568981 
L 274.605828 114.761181 
L 278.023245 113.525749 
L 281.440661 109.819454 
L 284.858077 105.551599 
L 288.275493 103.417671 
L 291.69291 101.396056 
L 295.110326 99.599064 
L 298.527742 97.802072 
L 301.945158 95.780457 
L 305.362575 93.309593 
L 308.779991 91.40029 
L 312.197407 88.255554 
L 315.614824 86.233939 
L 319.03224 83.426139 
L 322.449656 80.169092 
L 325.867072 77.922852 
L 329.284489 76.125861 
L 332.701905 73.542685 
L 336.119321 70.95951 
L 339.536737 68.937894 
L 342.954154 66.579343 
L 346.37157 64.220791 
L 349.788986 62.536111 
L 353.206403 60.17756 
L 356.623819 57.36976 
L 360.041235 54.112713 
L 363.458651 51.64185 
L 366.876068 49.620234 
L 370.293484 47.14937 
L 373.7109 45.127755 
L 377.128316 43.443075 
L 380.545733 40.747588 
L 383.963149 38.61366 
L 387.380565 36.142797 
L 390.797981 34.233493 
L 394.215398 31.987253 
" style="fill:none;stroke:#29ffce;stroke-linecap:round;stroke-width:1.5;"/>
   </g>
   <g id="line2d_16">
    <path clip-path="url(#p6d65bd6e0d)" d="M 69.560852 260.205192 
L 72.978269 257.622017 
L 76.395685 255.488089 
L 79.813101 251.894106 
L 83.230517 249.535554 
L 86.647934 247.626251 
L 90.06535 244.593827 
L 93.482766 241.673716 
L 96.900182 239.764412 
L 100.317599 236.395053 
L 103.735015 233.138006 
L 107.152431 230.105582 
L 110.569847 227.747031 
L 113.987264 226.623911 
L 117.40468 223.479175 
L 120.822096 221.682184 
L 124.239513 219.099008 
L 127.656929 217.302017 
L 131.074345 214.606529 
L 134.491761 212.36029 
L 137.909178 210.11405 
L 141.326594 208.317058 
L 144.74401 206.520067 
L 148.161426 204.049203 
L 151.578843 202.252212 
L 154.996259 199.219788 
L 158.413675 197.085861 
L 161.831092 194.278061 
L 165.248508 191.245638 
L 168.665924 188.662462 
L 172.08334 186.640847 
L 175.500757 184.394607 
L 178.918173 182.372992 
L 182.335589 179.003632 
L 185.753005 177.431265 
L 189.170422 175.072713 
L 192.587838 173.163409 
L 196.005254 170.467922 
L 199.42267 167.997058 
L 202.840087 165.750819 
L 206.257503 163.279955 
L 209.674919 160.921404 
L 213.092336 159.236724 
L 216.509752 156.765861 
L 219.927168 153.396501 
L 223.344584 149.690206 
L 226.762001 147.331655 
L 230.179417 145.310039 
L 233.596833 142.389928 
L 237.014249 139.806752 
L 240.431666 137.785136 
L 243.849082 134.865025 
L 247.266498 132.843409 
L 250.683914 130.709482 
L 254.101331 127.227811 
L 257.518747 124.195387 
L 260.936163 121.275276 
L 264.35358 118.579788 
L 267.770996 116.333549 
L 271.188412 113.862685 
L 274.605828 111.953382 
L 278.023245 110.268702 
L 281.440661 108.022462 
L 284.858077 105.663911 
L 288.275493 102.856111 
L 291.69291 101.05912 
L 295.110326 98.588256 
L 298.527742 96.678953 
L 301.945158 94.432713 
L 305.362575 92.186474 
L 308.779991 89.71561 
L 312.197407 86.795499 
L 315.614824 84.661571 
L 319.03224 82.190708 
L 322.449656 79.944468 
L 325.867072 78.3721 
L 329.284489 76.013549 
L 332.701905 74.104245 
L 336.119321 71.52107 
L 339.536737 69.27483 
L 342.954154 67.927086 
L 346.37157 65.119287 
L 349.788986 63.209983 
L 353.206403 61.525304 
L 356.623819 58.942128 
L 360.041235 56.358953 
L 363.458651 54.674273 
L 366.876068 51.64185 
L 370.293484 49.170986 
L 373.7109 46.587811 
L 377.128316 43.780011 
L 380.545733 41.196836 
L 383.963149 37.602852 
L 387.380565 34.682741 
L 390.797981 31.650318 
L 394.215398 29.965638 
" style="fill:none;stroke:#7dff7a;stroke-linecap:round;stroke-width:1.5;"/>
   </g>
   <g id="line2d_17">
    <path clip-path="url(#p6d65bd6e0d)" d="M 69.560852 261.216 
L 72.978269 258.071265 
L 76.395685 255.825025 
L 79.813101 253.129538 
L 83.230517 251.220234 
L 86.647934 249.198618 
L 90.06535 247.513939 
L 93.482766 245.155387 
L 96.900182 241.449092 
L 100.317599 239.202852 
L 103.735015 237.181237 
L 107.152431 234.373437 
L 110.569847 232.127198 
L 113.987264 230.779454 
L 117.40468 228.87015 
L 120.822096 226.623911 
L 124.239513 224.826919 
L 127.656929 222.468368 
L 131.074345 219.323632 
L 134.491761 216.965081 
L 137.909178 214.494217 
L 141.326594 211.911042 
L 144.74401 210.226362 
L 148.161426 207.643187 
L 151.578843 205.396947 
L 154.996259 203.038396 
L 158.413675 200.567532 
L 161.831092 197.759733 
L 165.248508 195.738117 
L 168.665924 193.267253 
L 172.08334 190.684078 
L 175.500757 187.763967 
L 178.918173 184.843855 
L 182.335589 183.046864 
L 185.753005 180.126752 
L 189.170422 177.206641 
L 192.587838 174.061905 
L 196.005254 170.692546 
L 199.42267 168.558618 
L 202.840087 165.301571 
L 206.257503 162.493772 
L 209.674919 160.921404 
L 213.092336 158.562852 
L 216.509752 155.867365 
L 219.927168 154.294997 
L 223.344584 152.16107 
L 226.762001 150.251766 
L 230.179417 147.107031 
L 233.596833 143.625359 
L 237.014249 141.154496 
L 240.431666 138.683632 
L 243.849082 135.763521 
L 247.266498 133.629593 
L 250.683914 130.484858 
L 254.101331 128.687866 
L 257.518747 126.217003 
L 260.936163 123.970763 
L 264.35358 120.826028 
L 267.770996 117.568981 
L 271.188412 115.996613 
L 274.605828 114.199621 
L 278.023245 111.953382 
L 281.440661 110.044078 
L 284.858077 107.573214 
L 288.275493 105.102351 
L 291.69291 102.519175 
L 295.110326 100.160624 
L 298.527742 97.015889 
L 301.945158 94.881961 
L 305.362575 92.186474 
L 308.779991 89.490986 
L 312.197407 87.581682 
L 315.614824 85.784691 
L 319.03224 83.313827 
L 322.449656 79.944468 
L 325.867072 77.922852 
L 329.284489 75.002741 
L 332.701905 72.756501 
L 336.119321 70.847198 
L 339.536737 68.15171 
L 342.954154 66.467031 
L 346.37157 64.220791 
L 349.788986 62.199175 
L 353.206403 60.065248 
L 356.623819 57.482072 
L 360.041235 55.572769 
L 363.458651 53.326529 
L 366.876068 50.631042 
L 370.293484 48.946362 
L 373.7109 47.373994 
L 377.128316 45.464691 
L 380.545733 43.330763 
L 383.963149 41.758396 
L 387.380565 39.73678 
L 390.797981 38.164412 
L 394.215398 35.805861 
" style="fill:none;stroke:#ceff29;stroke-linecap:round;stroke-width:1.5;"/>
   </g>
   <g id="line2d_18">
    <path clip-path="url(#p6d65bd6e0d)" d="M 69.560852 259.755944 
L 72.978269 256.948145 
L 76.395685 255.038841 
L 79.813101 252.68029 
L 83.230517 249.760178 
L 86.647934 247.850875 
L 90.06535 246.053883 
L 93.482766 244.481515 
L 96.900182 242.122964 
L 100.317599 240.438284 
L 103.735015 238.416669 
L 107.152431 236.058117 
L 110.569847 233.811877 
L 113.987264 230.891766 
L 117.40468 228.645526 
L 120.822096 224.939231 
L 124.239513 223.029928 
L 127.656929 220.783688 
L 131.074345 218.312825 
L 134.491761 215.954273 
L 137.909178 214.157281 
L 141.326594 211.574106 
L 144.74401 209.215554 
L 148.161426 206.857003 
L 151.578843 205.172323 
L 154.996259 203.487643 
L 158.413675 201.802964 
L 161.831092 199.3321 
L 165.248508 197.535109 
L 168.665924 195.513493 
L 172.08334 193.828813 
L 175.500757 191.694886 
L 178.918173 189.448646 
L 182.335589 188.213214 
L 185.753005 186.416223 
L 189.170422 184.282295 
L 192.587838 181.025248 
L 196.005254 179.45288 
L 199.42267 176.083521 
L 202.840087 173.388033 
L 206.257503 171.366418 
L 209.674919 169.120178 
L 213.092336 165.750819 
L 216.509752 164.066139 
L 219.927168 161.482964 
L 223.344584 158.001292 
L 226.762001 156.091989 
L 230.179417 153.059565 
L 233.596833 150.588702 
L 237.014249 147.780903 
L 240.431666 145.085415 
L 243.849082 142.726864 
L 247.266498 140.256 
L 250.683914 138.122072 
L 254.101331 135.988145 
L 257.518747 133.517281 
L 260.936163 131.495666 
L 264.35358 126.778563 
L 267.770996 124.195387 
L 271.188412 121.724524 
L 274.605828 119.365972 
L 278.023245 116.558173 
L 281.440661 113.076501 
L 284.858077 110.15639 
L 288.275493 107.348591 
L 291.69291 104.877727 
L 295.110326 103.080735 
L 298.527742 101.957616 
L 301.945158 99.823688 
L 305.362575 96.903577 
L 308.779991 94.769649 
L 312.197407 92.860345 
L 315.614824 89.490986 
L 319.03224 87.357058 
L 322.449656 84.998507 
L 325.867072 83.089203 
L 329.284489 80.393716 
L 332.701905 77.922852 
L 336.119321 75.339677 
L 339.536737 73.879621 
L 342.954154 71.970318 
L 346.37157 69.611766 
L 349.788986 67.253214 
L 353.206403 63.771543 
L 356.623819 62.086864 
L 360.041235 59.952936 
L 363.458651 56.695889 
L 366.876068 53.101905 
L 370.293484 51.417226 
L 373.7109 48.721738 
L 377.128316 46.250875 
L 380.545733 43.218451 
L 383.963149 40.29834 
L 387.380565 38.501348 
L 390.797981 36.255109 
L 394.215398 33.447309 
" style="fill:none;stroke:#ffc400;stroke-linecap:round;stroke-width:1.5;"/>
   </g>
   <g id="line2d_19">
    <path clip-path="url(#p6d65bd6e0d)" d="M 69.560852 260.09288 
L 72.978269 257.172769 
L 76.395685 254.814217 
L 79.813101 252.006418 
L 83.230517 249.87249 
L 86.647934 246.390819 
L 90.06535 243.695331 
L 93.482766 241.224468 
L 96.900182 239.09054 
L 100.317599 236.282741 
L 103.735015 234.485749 
L 107.152431 232.23951 
L 110.569847 229.880958 
L 113.987264 227.410095 
L 117.40468 225.051543 
L 120.822096 222.131432 
L 124.239513 219.885192 
L 127.656929 217.077393 
L 131.074345 215.055777 
L 134.491761 213.371097 
L 137.909178 211.23717 
L 141.326594 209.440178 
L 144.74401 207.193939 
L 148.161426 204.273827 
L 151.578843 202.476836 
L 154.996259 200.342908 
L 158.413675 198.545916 
L 161.831092 196.636613 
L 165.248508 194.278061 
L 168.665924 192.144134 
L 172.08334 190.23483 
L 175.500757 188.662462 
L 178.918173 185.405415 
L 182.335589 183.159175 
L 185.753005 180.688312 
L 189.170422 176.532769 
L 192.587838 174.286529 
L 196.005254 171.591042 
L 199.42267 169.457114 
L 202.840087 166.761627 
L 206.257503 164.403075 
L 209.674919 161.370652 
L 213.092336 159.236724 
L 216.509752 156.653549 
L 219.927168 154.856557 
L 223.344584 151.936446 
L 226.762001 149.128646 
L 230.179417 146.320847 
L 233.596833 143.400735 
L 237.014249 141.042184 
L 240.431666 139.020568 
L 243.849082 135.538897 
L 247.266498 133.741905 
L 250.683914 132.057226 
L 254.101331 129.137114 
L 257.518747 127.452435 
L 260.936163 124.869259 
L 264.35358 122.959955 
L 267.770996 121.387588 
L 271.188412 119.25366 
L 274.605828 117.793604 
L 278.023245 115.884301 
L 281.440661 114.087309 
L 284.858077 112.627253 
L 288.275493 109.819454 
L 291.69291 108.247086 
L 295.110326 106.337783 
L 298.527742 104.203855 
L 301.945158 101.283744 
L 305.362575 99.037504 
L 308.779991 96.229705 
L 312.197407 93.758841 
L 315.614824 91.96185 
L 319.03224 89.603298 
L 322.449656 86.683187 
L 325.867072 83.987699 
L 329.284489 82.078396 
L 332.701905 80.169092 
L 336.119321 78.147476 
L 339.536737 76.350485 
L 342.954154 72.868813 
L 346.37157 69.387142 
L 349.788986 67.477838 
L 353.206403 65.793159 
L 356.623819 62.985359 
L 360.041235 60.514496 
L 363.458651 58.942128 
L 366.876068 56.920513 
L 370.293484 54.337337 
L 373.7109 51.754162 
L 377.128316 49.95717 
L 380.545733 47.037058 
L 383.963149 44.341571 
L 387.380565 41.758396 
L 390.797981 39.287532 
L 394.215398 38.164412 
" style="fill:none;stroke:#ff6800;stroke-linecap:round;stroke-width:1.5;"/>
   </g>
   <g id="line2d_20">
    <path clip-path="url(#p6d65bd6e0d)" d="M 69.560852 260.317504 
L 72.978269 258.071265 
L 76.395685 255.151153 
L 79.813101 252.455666 
L 83.230517 249.423242 
L 86.647934 246.615443 
L 90.06535 244.706139 
L 93.482766 242.122964 
L 96.900182 238.865916 
L 100.317599 236.619677 
L 103.735015 233.924189 
L 107.152431 232.014886 
L 110.569847 230.55483 
L 113.987264 227.410095 
L 117.40468 225.163855 
L 120.822096 222.243744 
L 124.239513 219.548256 
L 127.656929 216.628145 
L 131.074345 214.157281 
L 134.491761 212.472602 
L 137.909178 209.777114 
L 141.326594 207.755499 
L 144.74401 205.060011 
L 148.161426 202.589148 
L 151.578843 199.89366 
L 154.996259 197.759733 
L 158.413675 195.738117 
L 161.831092 192.48107 
L 165.248508 189.448646 
L 168.665924 187.090095 
L 172.08334 184.506919 
L 175.500757 181.69912 
L 178.918173 179.228256 
L 182.335589 175.971209 
L 185.753005 172.60185 
L 189.170422 169.681738 
L 192.587838 166.761627 
L 196.005254 164.403075 
L 199.42267 162.156836 
L 202.840087 160.247532 
L 206.257503 158.338228 
L 209.674919 155.642741 
L 213.092336 153.059565 
L 216.509752 150.251766 
L 219.927168 147.443967 
L 223.344584 145.085415 
L 226.762001 142.277616 
L 230.179417 139.69444 
L 233.596833 136.325081 
L 237.014249 133.741905 
L 240.431666 131.495666 
L 243.849082 129.47405 
L 247.266498 126.329315 
L 250.683914 124.195387 
L 254.101331 121.724524 
L 257.518747 119.029036 
L 260.936163 115.435053 
L 264.35358 113.750373 
L 267.770996 111.391822 
L 271.188412 110.15639 
L 274.605828 107.685526 
L 278.023245 105.214663 
L 281.440661 102.069928 
L 284.858077 99.936 
L 288.275493 97.240513 
L 291.69291 93.983465 
L 295.110326 91.737226 
L 298.527742 89.603298 
L 301.945158 86.570875 
L 305.362575 84.324635 
L 308.779991 82.190708 
L 312.197407 80.506028 
L 315.614824 78.259788 
L 319.03224 75.227365 
L 322.449656 72.981125 
L 325.867072 70.734886 
L 329.284489 68.15171 
L 332.701905 65.343911 
L 336.119321 62.086864 
L 339.536737 59.840624 
L 342.954154 58.043632 
L 346.37157 54.674273 
L 349.788986 51.417226 
L 353.206403 48.946362 
L 356.623819 47.486306 
L 360.041235 45.127755 
L 363.458651 43.218451 
L 366.876068 39.849092 
L 370.293484 36.816669 
L 373.7109 34.345805 
L 377.128316 32.661125 
L 380.545733 29.853326 
L 383.963149 27.719398 
L 387.380565 25.473159 
L 390.797981 23.451543 
L 394.215398 22.103799 
" style="fill:none;stroke:#f10800;stroke-linecap:round;stroke-width:1.5;"/>
   </g>
   <g id="patch_3">
    <path d="M 53.328125 273.312 
L 53.328125 7.2 
" style="fill:none;stroke:#cccccc;stroke-linecap:square;stroke-linejoin:miter;stroke-width:0.8;"/>
   </g>
   <g id="patch_4">
    <path d="M 410.448125 273.312 
L 410.448125 7.2 
" style="fill:none;stroke:#cccccc;stroke-linecap:square;stroke-linejoin:miter;stroke-width:0.8;"/>
   </g>
   <g id="patch_5">
    <path d="M 53.328125 273.312 
L 410.448125 273.312 
" style="fill:none;stroke:#cccccc;stroke-linecap:square;stroke-linejoin:miter;stroke-width:0.8;"/>
   </g>
   <g id="patch_6">
    <path d="M 53.328125 7.2 
L 410.448125 7.2 
" style="fill:none;stroke:#cccccc;stroke-linecap:square;stroke-linejoin:miter;stroke-width:0.8;"/>
   </g>
  </g>
 </g>
 <defs>
  <clipPath id="p6d65bd6e0d">
   <rect height="266.112" width="357.12" x="53.328125" y="7.2"/>
  </clipPath>
 </defs>
</svg>
