<?xml version="1.0" encoding="utf-8" standalone="no"?>
<!DOCTYPE svg PUBLIC "-//W3C//DTD SVG 1.1//EN"
  "http://www.w3.org/Graphics/SVG/1.1/DTD/svg11.dtd">
<!-- Created with matplotlib (https://matplotlib.org/) -->
<svg height="310.86825pt" version="1.1" viewBox="0 0 424.010625 310.86825" width="424.010625pt" xmlns="http://www.w3.org/2000/svg" xmlns:xlink="http://www.w3.org/1999/xlink">
 <defs>
  <style type="text/css">
*{stroke-linecap:butt;stroke-linejoin:round;white-space:pre;}
  </style>
 </defs>
 <g id="figure_1">
  <g id="patch_1">
   <path d="M 0 310.86825 
L 424.010625 310.86825 
L 424.010625 0 
L 0 0 
z
" style="fill:#ffffff;"/>
  </g>
  <g id="axes_1">
   <g id="patch_2">
    <path d="M 59.690625 273.312 
L 416.810625 273.312 
L 416.810625 7.2 
L 59.690625 7.2 
z
" style="fill:#ffffff;"/>
   </g>
   <g id="matplotlib.axis_1">
    <g id="xtick_1">
     <g id="line2d_1">
      <path clip-path="url(#pd3d4859a73)" d="M 75.923352 273.312 
L 75.923352 7.2 
" style="fill:none;stroke:#cccccc;stroke-linecap:round;stroke-width:0.8;"/>
     </g>
     <g id="text_1">
      <!-- 0 -->
      <defs>
       <path d="M 31.78125 66.40625 
Q 24.171875 66.40625 20.328125 58.90625 
Q 16.5 51.421875 16.5 36.375 
Q 16.5 21.390625 20.328125 13.890625 
Q 24.171875 6.390625 31.78125 6.390625 
Q 39.453125 6.390625 43.28125 13.890625 
Q 47.125 21.390625 47.125 36.375 
Q 47.125 51.421875 43.28125 58.90625 
Q 39.453125 66.40625 31.78125 66.40625 
z
M 31.78125 74.21875 
Q 44.046875 74.21875 50.515625 64.515625 
Q 56.984375 54.828125 56.984375 36.375 
Q 56.984375 17.96875 50.515625 8.265625 
Q 44.046875 -1.421875 31.78125 -1.421875 
Q 19.53125 -1.421875 13.0625 8.265625 
Q 6.59375 17.96875 6.59375 36.375 
Q 6.59375 54.828125 13.0625 64.515625 
Q 19.53125 74.21875 31.78125 74.21875 
z
" id="DejaVuSans-48"/>
      </defs>
      <g style="fill:#262626;" transform="translate(72.742102 287.910437)scale(0.1 -0.1)">
       <use xlink:href="#DejaVuSans-48"/>
      </g>
     </g>
    </g>
    <g id="xtick_2">
     <g id="line2d_2">
      <path clip-path="url(#pd3d4859a73)" d="M 116.606879 273.312 
L 116.606879 7.2 
" style="fill:none;stroke:#cccccc;stroke-linecap:round;stroke-width:0.8;"/>
     </g>
     <g id="text_2">
      <!-- 5 -->
      <defs>
       <path d="M 10.796875 72.90625 
L 49.515625 72.90625 
L 49.515625 64.59375 
L 19.828125 64.59375 
L 19.828125 46.734375 
Q 21.96875 47.46875 24.109375 47.828125 
Q 26.265625 48.1875 28.421875 48.1875 
Q 40.625 48.1875 47.75 41.5 
Q 54.890625 34.8125 54.890625 23.390625 
Q 54.890625 11.625 47.5625 5.09375 
Q 40.234375 -1.421875 26.90625 -1.421875 
Q 22.3125 -1.421875 17.546875 -0.640625 
Q 12.796875 0.140625 7.71875 1.703125 
L 7.71875 11.625 
Q 12.109375 9.234375 16.796875 8.0625 
Q 21.484375 6.890625 26.703125 6.890625 
Q 35.15625 6.890625 40.078125 11.328125 
Q 45.015625 15.765625 45.015625 23.390625 
Q 45.015625 31 40.078125 35.4375 
Q 35.15625 39.890625 26.703125 39.890625 
Q 22.75 39.890625 18.8125 39.015625 
Q 14.890625 38.140625 10.796875 36.28125 
z
" id="DejaVuSans-53"/>
      </defs>
      <g style="fill:#262626;" transform="translate(113.425629 287.910437)scale(0.1 -0.1)">
       <use xlink:href="#DejaVuSans-53"/>
      </g>
     </g>
    </g>
    <g id="xtick_3">
     <g id="line2d_3">
      <path clip-path="url(#pd3d4859a73)" d="M 157.290406 273.312 
L 157.290406 7.2 
" style="fill:none;stroke:#cccccc;stroke-linecap:round;stroke-width:0.8;"/>
     </g>
     <g id="text_3">
      <!-- 10 -->
      <defs>
       <path d="M 12.40625 8.296875 
L 28.515625 8.296875 
L 28.515625 63.921875 
L 10.984375 60.40625 
L 10.984375 69.390625 
L 28.421875 72.90625 
L 38.28125 72.90625 
L 38.28125 8.296875 
L 54.390625 8.296875 
L 54.390625 0 
L 12.40625 0 
z
" id="DejaVuSans-49"/>
      </defs>
      <g style="fill:#262626;" transform="translate(150.927906 287.910437)scale(0.1 -0.1)">
       <use xlink:href="#DejaVuSans-49"/>
       <use x="63.623047" xlink:href="#DejaVuSans-48"/>
      </g>
     </g>
    </g>
    <g id="xtick_4">
     <g id="line2d_4">
      <path clip-path="url(#pd3d4859a73)" d="M 197.973933 273.312 
L 197.973933 7.2 
" style="fill:none;stroke:#cccccc;stroke-linecap:round;stroke-width:0.8;"/>
     </g>
     <g id="text_4">
      <!-- 15 -->
      <g style="fill:#262626;" transform="translate(191.611433 287.910437)scale(0.1 -0.1)">
       <use xlink:href="#DejaVuSans-49"/>
       <use x="63.623047" xlink:href="#DejaVuSans-53"/>
      </g>
     </g>
    </g>
    <g id="xtick_5">
     <g id="line2d_5">
      <path clip-path="url(#pd3d4859a73)" d="M 238.65746 273.312 
L 238.65746 7.2 
" style="fill:none;stroke:#cccccc;stroke-linecap:round;stroke-width:0.8;"/>
     </g>
     <g id="text_5">
      <!-- 20 -->
      <defs>
       <path d="M 19.1875 8.296875 
L 53.609375 8.296875 
L 53.609375 0 
L 7.328125 0 
L 7.328125 8.296875 
Q 12.9375 14.109375 22.625 23.890625 
Q 32.328125 33.6875 34.8125 36.53125 
Q 39.546875 41.84375 41.421875 45.53125 
Q 43.3125 49.21875 43.3125 52.78125 
Q 43.3125 58.59375 39.234375 62.25 
Q 35.15625 65.921875 28.609375 65.921875 
Q 23.96875 65.921875 18.8125 64.3125 
Q 13.671875 62.703125 7.8125 59.421875 
L 7.8125 69.390625 
Q 13.765625 71.78125 18.9375 73 
Q 24.125 74.21875 28.421875 74.21875 
Q 39.75 74.21875 46.484375 68.546875 
Q 53.21875 62.890625 53.21875 53.421875 
Q 53.21875 48.921875 51.53125 44.890625 
Q 49.859375 40.875 45.40625 35.40625 
Q 44.1875 33.984375 37.640625 27.21875 
Q 31.109375 20.453125 19.1875 8.296875 
z
" id="DejaVuSans-50"/>
      </defs>
      <g style="fill:#262626;" transform="translate(232.29496 287.910437)scale(0.1 -0.1)">
       <use xlink:href="#DejaVuSans-50"/>
       <use x="63.623047" xlink:href="#DejaVuSans-48"/>
      </g>
     </g>
    </g>
    <g id="xtick_6">
     <g id="line2d_6">
      <path clip-path="url(#pd3d4859a73)" d="M 279.340987 273.312 
L 279.340987 7.2 
" style="fill:none;stroke:#cccccc;stroke-linecap:round;stroke-width:0.8;"/>
     </g>
     <g id="text_6">
      <!-- 25 -->
      <g style="fill:#262626;" transform="translate(272.978487 287.910437)scale(0.1 -0.1)">
       <use xlink:href="#DejaVuSans-50"/>
       <use x="63.623047" xlink:href="#DejaVuSans-53"/>
      </g>
     </g>
    </g>
    <g id="xtick_7">
     <g id="line2d_7">
      <path clip-path="url(#pd3d4859a73)" d="M 320.024514 273.312 
L 320.024514 7.2 
" style="fill:none;stroke:#cccccc;stroke-linecap:round;stroke-width:0.8;"/>
     </g>
     <g id="text_7">
      <!-- 30 -->
      <defs>
       <path d="M 40.578125 39.3125 
Q 47.65625 37.796875 51.625 33 
Q 55.609375 28.21875 55.609375 21.1875 
Q 55.609375 10.40625 48.1875 4.484375 
Q 40.765625 -1.421875 27.09375 -1.421875 
Q 22.515625 -1.421875 17.65625 -0.515625 
Q 12.796875 0.390625 7.625 2.203125 
L 7.625 11.71875 
Q 11.71875 9.328125 16.59375 8.109375 
Q 21.484375 6.890625 26.8125 6.890625 
Q 36.078125 6.890625 40.9375 10.546875 
Q 45.796875 14.203125 45.796875 21.1875 
Q 45.796875 27.640625 41.28125 31.265625 
Q 36.765625 34.90625 28.71875 34.90625 
L 20.21875 34.90625 
L 20.21875 43.015625 
L 29.109375 43.015625 
Q 36.375 43.015625 40.234375 45.921875 
Q 44.09375 48.828125 44.09375 54.296875 
Q 44.09375 59.90625 40.109375 62.90625 
Q 36.140625 65.921875 28.71875 65.921875 
Q 24.65625 65.921875 20.015625 65.03125 
Q 15.375 64.15625 9.8125 62.3125 
L 9.8125 71.09375 
Q 15.4375 72.65625 20.34375 73.4375 
Q 25.25 74.21875 29.59375 74.21875 
Q 40.828125 74.21875 47.359375 69.109375 
Q 53.90625 64.015625 53.90625 55.328125 
Q 53.90625 49.265625 50.4375 45.09375 
Q 46.96875 40.921875 40.578125 39.3125 
z
" id="DejaVuSans-51"/>
      </defs>
      <g style="fill:#262626;" transform="translate(313.662014 287.910437)scale(0.1 -0.1)">
       <use xlink:href="#DejaVuSans-51"/>
       <use x="63.623047" xlink:href="#DejaVuSans-48"/>
      </g>
     </g>
    </g>
    <g id="xtick_8">
     <g id="line2d_8">
      <path clip-path="url(#pd3d4859a73)" d="M 360.708041 273.312 
L 360.708041 7.2 
" style="fill:none;stroke:#cccccc;stroke-linecap:round;stroke-width:0.8;"/>
     </g>
     <g id="text_8">
      <!-- 35 -->
      <g style="fill:#262626;" transform="translate(354.345541 287.910437)scale(0.1 -0.1)">
       <use xlink:href="#DejaVuSans-51"/>
       <use x="63.623047" xlink:href="#DejaVuSans-53"/>
      </g>
     </g>
    </g>
    <g id="xtick_9">
     <g id="line2d_9">
      <path clip-path="url(#pd3d4859a73)" d="M 401.391568 273.312 
L 401.391568 7.2 
" style="fill:none;stroke:#cccccc;stroke-linecap:round;stroke-width:0.8;"/>
     </g>
     <g id="text_9">
      <!-- 40 -->
      <defs>
       <path d="M 37.796875 64.3125 
L 12.890625 25.390625 
L 37.796875 25.390625 
z
M 35.203125 72.90625 
L 47.609375 72.90625 
L 47.609375 25.390625 
L 58.015625 25.390625 
L 58.015625 17.1875 
L 47.609375 17.1875 
L 47.609375 0 
L 37.796875 0 
L 37.796875 17.1875 
L 4.890625 17.1875 
L 4.890625 26.703125 
z
" id="DejaVuSans-52"/>
      </defs>
      <g style="fill:#262626;" transform="translate(395.029068 287.910437)scale(0.1 -0.1)">
       <use xlink:href="#DejaVuSans-52"/>
       <use x="63.623047" xlink:href="#DejaVuSans-48"/>
      </g>
     </g>
    </g>
    <g id="text_10">
     <!-- time (days) -->
     <defs>
      <path d="M 18.3125 70.21875 
L 18.3125 54.6875 
L 36.8125 54.6875 
L 36.8125 47.703125 
L 18.3125 47.703125 
L 18.3125 18.015625 
Q 18.3125 11.328125 20.140625 9.421875 
Q 21.96875 7.515625 27.59375 7.515625 
L 36.8125 7.515625 
L 36.8125 0 
L 27.59375 0 
Q 17.1875 0 13.234375 3.875 
Q 9.28125 7.765625 9.28125 18.015625 
L 9.28125 47.703125 
L 2.6875 47.703125 
L 2.6875 54.6875 
L 9.28125 54.6875 
L 9.28125 70.21875 
z
" id="DejaVuSans-116"/>
      <path d="M 9.421875 54.6875 
L 18.40625 54.6875 
L 18.40625 0 
L 9.421875 0 
z
M 9.421875 75.984375 
L 18.40625 75.984375 
L 18.40625 64.59375 
L 9.421875 64.59375 
z
" id="DejaVuSans-105"/>
      <path d="M 52 44.1875 
Q 55.375 50.25 60.0625 53.125 
Q 64.75 56 71.09375 56 
Q 79.640625 56 84.28125 50.015625 
Q 88.921875 44.046875 88.921875 33.015625 
L 88.921875 0 
L 79.890625 0 
L 79.890625 32.71875 
Q 79.890625 40.578125 77.09375 44.375 
Q 74.3125 48.1875 68.609375 48.1875 
Q 61.625 48.1875 57.5625 43.546875 
Q 53.515625 38.921875 53.515625 30.90625 
L 53.515625 0 
L 44.484375 0 
L 44.484375 32.71875 
Q 44.484375 40.625 41.703125 44.40625 
Q 38.921875 48.1875 33.109375 48.1875 
Q 26.21875 48.1875 22.15625 43.53125 
Q 18.109375 38.875 18.109375 30.90625 
L 18.109375 0 
L 9.078125 0 
L 9.078125 54.6875 
L 18.109375 54.6875 
L 18.109375 46.1875 
Q 21.1875 51.21875 25.484375 53.609375 
Q 29.78125 56 35.6875 56 
Q 41.65625 56 45.828125 52.96875 
Q 50 49.953125 52 44.1875 
z
" id="DejaVuSans-109"/>
      <path d="M 56.203125 29.59375 
L 56.203125 25.203125 
L 14.890625 25.203125 
Q 15.484375 15.921875 20.484375 11.0625 
Q 25.484375 6.203125 34.421875 6.203125 
Q 39.59375 6.203125 44.453125 7.46875 
Q 49.3125 8.734375 54.109375 11.28125 
L 54.109375 2.78125 
Q 49.265625 0.734375 44.1875 -0.34375 
Q 39.109375 -1.421875 33.890625 -1.421875 
Q 20.796875 -1.421875 13.15625 6.1875 
Q 5.515625 13.8125 5.515625 26.8125 
Q 5.515625 40.234375 12.765625 48.109375 
Q 20.015625 56 32.328125 56 
Q 43.359375 56 49.78125 48.890625 
Q 56.203125 41.796875 56.203125 29.59375 
z
M 47.21875 32.234375 
Q 47.125 39.59375 43.09375 43.984375 
Q 39.0625 48.390625 32.421875 48.390625 
Q 24.90625 48.390625 20.390625 44.140625 
Q 15.875 39.890625 15.1875 32.171875 
z
" id="DejaVuSans-101"/>
      <path id="DejaVuSans-32"/>
      <path d="M 31 75.875 
Q 24.46875 64.65625 21.28125 53.65625 
Q 18.109375 42.671875 18.109375 31.390625 
Q 18.109375 20.125 21.3125 9.0625 
Q 24.515625 -2 31 -13.1875 
L 23.1875 -13.1875 
Q 15.875 -1.703125 12.234375 9.375 
Q 8.59375 20.453125 8.59375 31.390625 
Q 8.59375 42.28125 12.203125 53.3125 
Q 15.828125 64.359375 23.1875 75.875 
z
" id="DejaVuSans-40"/>
      <path d="M 45.40625 46.390625 
L 45.40625 75.984375 
L 54.390625 75.984375 
L 54.390625 0 
L 45.40625 0 
L 45.40625 8.203125 
Q 42.578125 3.328125 38.25 0.953125 
Q 33.9375 -1.421875 27.875 -1.421875 
Q 17.96875 -1.421875 11.734375 6.484375 
Q 5.515625 14.40625 5.515625 27.296875 
Q 5.515625 40.1875 11.734375 48.09375 
Q 17.96875 56 27.875 56 
Q 33.9375 56 38.25 53.625 
Q 42.578125 51.265625 45.40625 46.390625 
z
M 14.796875 27.296875 
Q 14.796875 17.390625 18.875 11.75 
Q 22.953125 6.109375 30.078125 6.109375 
Q 37.203125 6.109375 41.296875 11.75 
Q 45.40625 17.390625 45.40625 27.296875 
Q 45.40625 37.203125 41.296875 42.84375 
Q 37.203125 48.484375 30.078125 48.484375 
Q 22.953125 48.484375 18.875 42.84375 
Q 14.796875 37.203125 14.796875 27.296875 
z
" id="DejaVuSans-100"/>
      <path d="M 34.28125 27.484375 
Q 23.390625 27.484375 19.1875 25 
Q 14.984375 22.515625 14.984375 16.5 
Q 14.984375 11.71875 18.140625 8.90625 
Q 21.296875 6.109375 26.703125 6.109375 
Q 34.1875 6.109375 38.703125 11.40625 
Q 43.21875 16.703125 43.21875 25.484375 
L 43.21875 27.484375 
z
M 52.203125 31.203125 
L 52.203125 0 
L 43.21875 0 
L 43.21875 8.296875 
Q 40.140625 3.328125 35.546875 0.953125 
Q 30.953125 -1.421875 24.3125 -1.421875 
Q 15.921875 -1.421875 10.953125 3.296875 
Q 6 8.015625 6 15.921875 
Q 6 25.140625 12.171875 29.828125 
Q 18.359375 34.515625 30.609375 34.515625 
L 43.21875 34.515625 
L 43.21875 35.40625 
Q 43.21875 41.609375 39.140625 45 
Q 35.0625 48.390625 27.6875 48.390625 
Q 23 48.390625 18.546875 47.265625 
Q 14.109375 46.140625 10.015625 43.890625 
L 10.015625 52.203125 
Q 14.9375 54.109375 19.578125 55.046875 
Q 24.21875 56 28.609375 56 
Q 40.484375 56 46.34375 49.84375 
Q 52.203125 43.703125 52.203125 31.203125 
z
" id="DejaVuSans-97"/>
      <path d="M 32.171875 -5.078125 
Q 28.375 -14.84375 24.75 -17.8125 
Q 21.140625 -20.796875 15.09375 -20.796875 
L 7.90625 -20.796875 
L 7.90625 -13.28125 
L 13.1875 -13.28125 
Q 16.890625 -13.28125 18.9375 -11.515625 
Q 21 -9.765625 23.484375 -3.21875 
L 25.09375 0.875 
L 2.984375 54.6875 
L 12.5 54.6875 
L 29.59375 11.921875 
L 46.6875 54.6875 
L 56.203125 54.6875 
z
" id="DejaVuSans-121"/>
      <path d="M 44.28125 53.078125 
L 44.28125 44.578125 
Q 40.484375 46.53125 36.375 47.5 
Q 32.28125 48.484375 27.875 48.484375 
Q 21.1875 48.484375 17.84375 46.4375 
Q 14.5 44.390625 14.5 40.28125 
Q 14.5 37.15625 16.890625 35.375 
Q 19.28125 33.59375 26.515625 31.984375 
L 29.59375 31.296875 
Q 39.15625 29.25 43.1875 25.515625 
Q 47.21875 21.78125 47.21875 15.09375 
Q 47.21875 7.46875 41.1875 3.015625 
Q 35.15625 -1.421875 24.609375 -1.421875 
Q 20.21875 -1.421875 15.453125 -0.5625 
Q 10.6875 0.296875 5.421875 2 
L 5.421875 11.28125 
Q 10.40625 8.6875 15.234375 7.390625 
Q 20.0625 6.109375 24.8125 6.109375 
Q 31.15625 6.109375 34.5625 8.28125 
Q 37.984375 10.453125 37.984375 14.40625 
Q 37.984375 18.0625 35.515625 20.015625 
Q 33.0625 21.96875 24.703125 23.78125 
L 21.578125 24.515625 
Q 13.234375 26.265625 9.515625 29.90625 
Q 5.8125 33.546875 5.8125 39.890625 
Q 5.8125 47.609375 11.28125 51.796875 
Q 16.75 56 26.8125 56 
Q 31.78125 56 36.171875 55.265625 
Q 40.578125 54.546875 44.28125 53.078125 
z
" id="DejaVuSans-115"/>
      <path d="M 8.015625 75.875 
L 15.828125 75.875 
Q 23.140625 64.359375 26.78125 53.3125 
Q 30.421875 42.28125 30.421875 31.390625 
Q 30.421875 20.453125 26.78125 9.375 
Q 23.140625 -1.703125 15.828125 -13.1875 
L 8.015625 -13.1875 
Q 14.5 -2 17.703125 9.0625 
Q 20.90625 20.125 20.90625 31.390625 
Q 20.90625 42.671875 17.703125 53.65625 
Q 14.5 64.65625 8.015625 75.875 
z
" id="DejaVuSans-41"/>
     </defs>
     <g style="fill:#262626;" transform="translate(209.661563 301.588562)scale(0.1 -0.1)">
      <use xlink:href="#DejaVuSans-116"/>
      <use x="39.208984" xlink:href="#DejaVuSans-105"/>
      <use x="66.992188" xlink:href="#DejaVuSans-109"/>
      <use x="164.404297" xlink:href="#DejaVuSans-101"/>
      <use x="225.927734" xlink:href="#DejaVuSans-32"/>
      <use x="257.714844" xlink:href="#DejaVuSans-40"/>
      <use x="296.728516" xlink:href="#DejaVuSans-100"/>
      <use x="360.205078" xlink:href="#DejaVuSans-97"/>
      <use x="421.484375" xlink:href="#DejaVuSans-121"/>
      <use x="480.664062" xlink:href="#DejaVuSans-115"/>
      <use x="532.763672" xlink:href="#DejaVuSans-41"/>
     </g>
    </g>
   </g>
   <g id="matplotlib.axis_2">
    <g id="ytick_1">
     <g id="line2d_10">
      <path clip-path="url(#pd3d4859a73)" d="M 59.690625 261.216 
L 416.810625 261.216 
" style="fill:none;stroke:#cccccc;stroke-linecap:round;stroke-width:0.8;"/>
     </g>
     <g id="text_11">
      <!-- 0 -->
      <g style="fill:#262626;" transform="translate(46.328125 265.015219)scale(0.1 -0.1)">
       <use xlink:href="#DejaVuSans-48"/>
      </g>
     </g>
    </g>
    <g id="ytick_2">
     <g id="line2d_11">
      <path clip-path="url(#pd3d4859a73)" d="M 59.690625 217.266504 
L 416.810625 217.266504 
" style="fill:none;stroke:#cccccc;stroke-linecap:round;stroke-width:0.8;"/>
     </g>
     <g id="text_12">
      <!-- 2000 -->
      <g style="fill:#262626;" transform="translate(27.240625 221.065723)scale(0.1 -0.1)">
       <use xlink:href="#DejaVuSans-50"/>
       <use x="63.623047" xlink:href="#DejaVuSans-48"/>
       <use x="127.246094" xlink:href="#DejaVuSans-48"/>
       <use x="190.869141" xlink:href="#DejaVuSans-48"/>
      </g>
     </g>
    </g>
    <g id="ytick_3">
     <g id="line2d_12">
      <path clip-path="url(#pd3d4859a73)" d="M 59.690625 173.317008 
L 416.810625 173.317008 
" style="fill:none;stroke:#cccccc;stroke-linecap:round;stroke-width:0.8;"/>
     </g>
     <g id="text_13">
      <!-- 4000 -->
      <g style="fill:#262626;" transform="translate(27.240625 177.116227)scale(0.1 -0.1)">
       <use xlink:href="#DejaVuSans-52"/>
       <use x="63.623047" xlink:href="#DejaVuSans-48"/>
       <use x="127.246094" xlink:href="#DejaVuSans-48"/>
       <use x="190.869141" xlink:href="#DejaVuSans-48"/>
      </g>
     </g>
    </g>
    <g id="ytick_4">
     <g id="line2d_13">
      <path clip-path="url(#pd3d4859a73)" d="M 59.690625 129.367512 
L 416.810625 129.367512 
" style="fill:none;stroke:#cccccc;stroke-linecap:round;stroke-width:0.8;"/>
     </g>
     <g id="text_14">
      <!-- 6000 -->
      <defs>
       <path d="M 33.015625 40.375 
Q 26.375 40.375 22.484375 35.828125 
Q 18.609375 31.296875 18.609375 23.390625 
Q 18.609375 15.53125 22.484375 10.953125 
Q 26.375 6.390625 33.015625 6.390625 
Q 39.65625 6.390625 43.53125 10.953125 
Q 47.40625 15.53125 47.40625 23.390625 
Q 47.40625 31.296875 43.53125 35.828125 
Q 39.65625 40.375 33.015625 40.375 
z
M 52.59375 71.296875 
L 52.59375 62.3125 
Q 48.875 64.0625 45.09375 64.984375 
Q 41.3125 65.921875 37.59375 65.921875 
Q 27.828125 65.921875 22.671875 59.328125 
Q 17.53125 52.734375 16.796875 39.40625 
Q 19.671875 43.65625 24.015625 45.921875 
Q 28.375 48.1875 33.59375 48.1875 
Q 44.578125 48.1875 50.953125 41.515625 
Q 57.328125 34.859375 57.328125 23.390625 
Q 57.328125 12.15625 50.6875 5.359375 
Q 44.046875 -1.421875 33.015625 -1.421875 
Q 20.359375 -1.421875 13.671875 8.265625 
Q 6.984375 17.96875 6.984375 36.375 
Q 6.984375 53.65625 15.1875 63.9375 
Q 23.390625 74.21875 37.203125 74.21875 
Q 40.921875 74.21875 44.703125 73.484375 
Q 48.484375 72.75 52.59375 71.296875 
z
" id="DejaVuSans-54"/>
      </defs>
      <g style="fill:#262626;" transform="translate(27.240625 133.166731)scale(0.1 -0.1)">
       <use xlink:href="#DejaVuSans-54"/>
       <use x="63.623047" xlink:href="#DejaVuSans-48"/>
       <use x="127.246094" xlink:href="#DejaVuSans-48"/>
       <use x="190.869141" xlink:href="#DejaVuSans-48"/>
      </g>
     </g>
    </g>
    <g id="ytick_5">
     <g id="line2d_14">
      <path clip-path="url(#pd3d4859a73)" d="M 59.690625 85.418017 
L 416.810625 85.418017 
" style="fill:none;stroke:#cccccc;stroke-linecap:round;stroke-width:0.8;"/>
     </g>
     <g id="text_15">
      <!-- 8000 -->
      <defs>
       <path d="M 31.78125 34.625 
Q 24.75 34.625 20.71875 30.859375 
Q 16.703125 27.09375 16.703125 20.515625 
Q 16.703125 13.921875 20.71875 10.15625 
Q 24.75 6.390625 31.78125 6.390625 
Q 38.8125 6.390625 42.859375 10.171875 
Q 46.921875 13.96875 46.921875 20.515625 
Q 46.921875 27.09375 42.890625 30.859375 
Q 38.875 34.625 31.78125 34.625 
z
M 21.921875 38.8125 
Q 15.578125 40.375 12.03125 44.71875 
Q 8.5 49.078125 8.5 55.328125 
Q 8.5 64.0625 14.71875 69.140625 
Q 20.953125 74.21875 31.78125 74.21875 
Q 42.671875 74.21875 48.875 69.140625 
Q 55.078125 64.0625 55.078125 55.328125 
Q 55.078125 49.078125 51.53125 44.71875 
Q 48 40.375 41.703125 38.8125 
Q 48.828125 37.15625 52.796875 32.3125 
Q 56.78125 27.484375 56.78125 20.515625 
Q 56.78125 9.90625 50.3125 4.234375 
Q 43.84375 -1.421875 31.78125 -1.421875 
Q 19.734375 -1.421875 13.25 4.234375 
Q 6.78125 9.90625 6.78125 20.515625 
Q 6.78125 27.484375 10.78125 32.3125 
Q 14.796875 37.15625 21.921875 38.8125 
z
M 18.3125 54.390625 
Q 18.3125 48.734375 21.84375 45.5625 
Q 25.390625 42.390625 31.78125 42.390625 
Q 38.140625 42.390625 41.71875 45.5625 
Q 45.3125 48.734375 45.3125 54.390625 
Q 45.3125 60.0625 41.71875 63.234375 
Q 38.140625 66.40625 31.78125 66.40625 
Q 25.390625 66.40625 21.84375 63.234375 
Q 18.3125 60.0625 18.3125 54.390625 
z
" id="DejaVuSans-56"/>
      </defs>
      <g style="fill:#262626;" transform="translate(27.240625 89.217235)scale(0.1 -0.1)">
       <use xlink:href="#DejaVuSans-56"/>
       <use x="63.623047" xlink:href="#DejaVuSans-48"/>
       <use x="127.246094" xlink:href="#DejaVuSans-48"/>
       <use x="190.869141" xlink:href="#DejaVuSans-48"/>
      </g>
     </g>
    </g>
    <g id="ytick_6">
     <g id="line2d_15">
      <path clip-path="url(#pd3d4859a73)" d="M 59.690625 41.468521 
L 416.810625 41.468521 
" style="fill:none;stroke:#cccccc;stroke-linecap:round;stroke-width:0.8;"/>
     </g>
     <g id="text_16">
      <!-- 10000 -->
      <g style="fill:#262626;" transform="translate(20.878125 45.267739)scale(0.1 -0.1)">
       <use xlink:href="#DejaVuSans-49"/>
       <use x="63.623047" xlink:href="#DejaVuSans-48"/>
       <use x="127.246094" xlink:href="#DejaVuSans-48"/>
       <use x="190.869141" xlink:href="#DejaVuSans-48"/>
       <use x="254.492188" xlink:href="#DejaVuSans-48"/>
      </g>
     </g>
    </g>
    <g id="text_17">
     <!-- cells number -->
     <defs>
      <path d="M 48.78125 52.59375 
L 48.78125 44.1875 
Q 44.96875 46.296875 41.140625 47.34375 
Q 37.3125 48.390625 33.40625 48.390625 
Q 24.65625 48.390625 19.8125 42.84375 
Q 14.984375 37.3125 14.984375 27.296875 
Q 14.984375 17.28125 19.8125 11.734375 
Q 24.65625 6.203125 33.40625 6.203125 
Q 37.3125 6.203125 41.140625 7.25 
Q 44.96875 8.296875 48.78125 10.40625 
L 48.78125 2.09375 
Q 45.015625 0.34375 40.984375 -0.53125 
Q 36.96875 -1.421875 32.421875 -1.421875 
Q 20.0625 -1.421875 12.78125 6.34375 
Q 5.515625 14.109375 5.515625 27.296875 
Q 5.515625 40.671875 12.859375 48.328125 
Q 20.21875 56 33.015625 56 
Q 37.15625 56 41.109375 55.140625 
Q 45.0625 54.296875 48.78125 52.59375 
z
" id="DejaVuSans-99"/>
      <path d="M 9.421875 75.984375 
L 18.40625 75.984375 
L 18.40625 0 
L 9.421875 0 
z
" id="DejaVuSans-108"/>
      <path d="M 54.890625 33.015625 
L 54.890625 0 
L 45.90625 0 
L 45.90625 32.71875 
Q 45.90625 40.484375 42.875 44.328125 
Q 39.84375 48.1875 33.796875 48.1875 
Q 26.515625 48.1875 22.3125 43.546875 
Q 18.109375 38.921875 18.109375 30.90625 
L 18.109375 0 
L 9.078125 0 
L 9.078125 54.6875 
L 18.109375 54.6875 
L 18.109375 46.1875 
Q 21.34375 51.125 25.703125 53.5625 
Q 30.078125 56 35.796875 56 
Q 45.21875 56 50.046875 50.171875 
Q 54.890625 44.34375 54.890625 33.015625 
z
" id="DejaVuSans-110"/>
      <path d="M 8.5 21.578125 
L 8.5 54.6875 
L 17.484375 54.6875 
L 17.484375 21.921875 
Q 17.484375 14.15625 20.5 10.265625 
Q 23.53125 6.390625 29.59375 6.390625 
Q 36.859375 6.390625 41.078125 11.03125 
Q 45.3125 15.671875 45.3125 23.6875 
L 45.3125 54.6875 
L 54.296875 54.6875 
L 54.296875 0 
L 45.3125 0 
L 45.3125 8.40625 
Q 42.046875 3.421875 37.71875 1 
Q 33.40625 -1.421875 27.6875 -1.421875 
Q 18.265625 -1.421875 13.375 4.4375 
Q 8.5 10.296875 8.5 21.578125 
z
M 31.109375 56 
z
" id="DejaVuSans-117"/>
      <path d="M 48.6875 27.296875 
Q 48.6875 37.203125 44.609375 42.84375 
Q 40.53125 48.484375 33.40625 48.484375 
Q 26.265625 48.484375 22.1875 42.84375 
Q 18.109375 37.203125 18.109375 27.296875 
Q 18.109375 17.390625 22.1875 11.75 
Q 26.265625 6.109375 33.40625 6.109375 
Q 40.53125 6.109375 44.609375 11.75 
Q 48.6875 17.390625 48.6875 27.296875 
z
M 18.109375 46.390625 
Q 20.953125 51.265625 25.265625 53.625 
Q 29.59375 56 35.59375 56 
Q 45.5625 56 51.78125 48.09375 
Q 58.015625 40.1875 58.015625 27.296875 
Q 58.015625 14.40625 51.78125 6.484375 
Q 45.5625 -1.421875 35.59375 -1.421875 
Q 29.59375 -1.421875 25.265625 0.953125 
Q 20.953125 3.328125 18.109375 8.203125 
L 18.109375 0 
L 9.078125 0 
L 9.078125 75.984375 
L 18.109375 75.984375 
z
" id="DejaVuSans-98"/>
      <path d="M 41.109375 46.296875 
Q 39.59375 47.171875 37.8125 47.578125 
Q 36.03125 48 33.890625 48 
Q 26.265625 48 22.1875 43.046875 
Q 18.109375 38.09375 18.109375 28.8125 
L 18.109375 0 
L 9.078125 0 
L 9.078125 54.6875 
L 18.109375 54.6875 
L 18.109375 46.1875 
Q 20.953125 51.171875 25.484375 53.578125 
Q 30.03125 56 36.53125 56 
Q 37.453125 56 38.578125 55.875 
Q 39.703125 55.765625 41.0625 55.515625 
z
" id="DejaVuSans-114"/>
     </defs>
     <g style="fill:#262626;" transform="translate(14.798438 172.567719)rotate(-90)scale(0.1 -0.1)">
      <use xlink:href="#DejaVuSans-99"/>
      <use x="54.980469" xlink:href="#DejaVuSans-101"/>
      <use x="116.503906" xlink:href="#DejaVuSans-108"/>
      <use x="144.287109" xlink:href="#DejaVuSans-108"/>
      <use x="172.070312" xlink:href="#DejaVuSans-115"/>
      <use x="224.169922" xlink:href="#DejaVuSans-32"/>
      <use x="255.957031" xlink:href="#DejaVuSans-110"/>
      <use x="319.335938" xlink:href="#DejaVuSans-117"/>
      <use x="382.714844" xlink:href="#DejaVuSans-109"/>
      <use x="480.126953" xlink:href="#DejaVuSans-98"/>
      <use x="543.603516" xlink:href="#DejaVuSans-101"/>
      <use x="605.126953" xlink:href="#DejaVuSans-114"/>
     </g>
    </g>
   </g>
   <g id="line2d_16">
    <path clip-path="url(#pd3d4859a73)" d="M 75.923352 261.194025 
L 76.737023 261.194025 
L 78.364364 260.75453 
L 79.178034 260.183187 
L 81.619046 256.601303 
L 82.432717 255.15097 
L 83.246387 254.184081 
L 84.060058 252.492025 
L 84.873728 251.261439 
L 87.31474 245.438131 
L 88.942081 241.394777 
L 97.892457 217.068731 
L 98.706127 215.200878 
L 103.588151 201.97208 
L 108.470174 187.358872 
L 109.283844 185.578918 
L 111.724856 178.656872 
L 113.352197 173.60268 
L 117.42055 162.966902 
L 118.23422 160.439806 
L 119.047891 158.418129 
L 121.488903 151.166462 
L 124.743585 142.903957 
L 126.370926 138.179386 
L 127.184596 135.872038 
L 128.811937 132.290154 
L 129.625608 129.938856 
L 130.439278 128.224826 
L 134.507631 117.391275 
L 139.389654 104.755795 
L 141.016995 100.250971 
L 144.271678 93.350901 
L 145.085348 91.790693 
L 145.899019 89.615193 
L 146.712689 88.033012 
L 148.34003 84.077557 
L 149.153701 82.033905 
L 150.781042 79.133239 
L 154.035724 71.222329 
L 154.849395 68.980905 
L 156.476736 65.48692 
L 159.731418 59.070294 
L 160.545088 56.960718 
L 161.358759 55.246688 
L 162.9861 53.290935 
L 163.799771 51.840602 
L 164.613441 49.862874 
L 165.427112 48.478465 
L 166.240782 46.852334 
L 167.054453 45.577799 
L 168.681794 42.259612 
L 169.495464 41.490495 
L 170.309135 40.040162 
L 171.936476 37.886637 
L 172.750147 36.875798 
L 174.377488 35.645212 
L 175.191158 34.326728 
L 176.004829 33.953157 
L 176.818499 32.744546 
L 178.44584 31.250263 
L 180.073181 30.371273 
L 180.886852 30.041652 
L 181.700522 29.162662 
L 182.514193 28.701192 
L 183.327864 28.393546 
L 184.141534 28.371571 
L 185.768875 27.602455 
L 189.023557 26.261995 
L 190.650898 26.481743 
L 191.464569 26.218046 
L 192.278239 26.503717 
L 193.09191 26.108172 
L 193.905581 26.152121 
L 194.719251 25.932374 
L 195.532922 26.349894 
L 196.346592 26.349894 
L 197.973933 26.723465 
L 198.787604 27.140985 
L 199.601274 27.404682 
L 200.414945 27.426657 
L 201.228615 27.888126 
L 205.296968 29.426359 
L 206.110639 30.063626 
L 208.55165 31.228288 
L 212.620003 34.590425 
L 214.247344 35.82101 
L 215.061015 36.502228 
L 215.874685 36.809874 
L 217.502026 38.128359 
L 218.315697 39.029324 
L 219.943038 40.303859 
L 220.756708 40.985076 
L 222.384049 42.105788 
L 226.452402 45.885445 
L 227.266073 46.456788 
L 228.079743 47.20393 
L 228.893414 48.126869 
L 230.520755 49.643127 
L 231.334425 50.434218 
L 232.148096 51.049511 
L 232.961766 51.840602 
L 233.775437 52.917364 
L 235.402778 54.367698 
L 237.030119 56.32345 
L 237.84379 56.960718 
L 238.65746 57.378238 
L 248.421507 66.607632 
L 250.048848 67.838218 
L 250.862518 68.629309 
L 252.489859 69.859895 
L 253.30353 70.475188 
L 254.117201 71.288254 
L 254.930871 71.881572 
L 255.744542 72.716612 
L 257.371883 74.101021 
L 258.185553 74.870138 
L 258.999224 75.419506 
L 259.812894 76.386395 
L 260.626565 76.935764 
L 261.440235 77.836728 
L 262.253906 78.561895 
L 264.694918 81.308739 
L 267.9496 84.121506 
L 268.76327 84.539027 
L 276.086305 90.648007 
L 276.899976 91.153426 
L 282.595669 95.812072 
L 283.40934 96.251567 
L 285.850352 98.514966 
L 286.664022 99.174209 
L 287.477693 100.097148 
L 288.291363 100.822315 
L 290.732375 102.426471 
L 291.546045 103.129663 
L 292.359716 103.679032 
L 293.173386 104.514072 
L 298.05541 107.634487 
L 300.496421 109.326542 
L 302.123762 110.79885 
L 303.751103 112.095361 
L 304.564774 112.798552 
L 305.378445 113.281997 
L 307.005786 114.710356 
L 311.074138 117.896694 
L 311.887809 118.402113 
L 313.51515 119.808497 
L 314.32882 120.357866 
L 315.956162 121.632401 
L 316.769832 122.203745 
L 318.397173 123.01681 
L 320.838185 124.862689 
L 321.651855 125.346134 
L 322.465526 126.027351 
L 323.279196 126.378947 
L 324.092867 127.104113 
L 326.533879 128.730245 
L 328.16122 129.58726 
L 329.788561 130.642048 
L 330.602231 131.279315 
L 333.043243 132.64175 
L 336.297925 134.883174 
L 337.925266 135.959937 
L 341.179948 137.739891 
L 341.993619 138.33321 
L 343.62096 139.146275 
L 346.875642 140.970179 
L 347.689313 141.277826 
L 349.316654 142.266689 
L 351.757665 143.717023 
L 352.571336 144.090594 
L 355.826018 146.090296 
L 356.639689 146.332018 
L 357.453359 147.079159 
L 359.0807 148.068023 
L 360.708041 148.661341 
L 362.335382 149.782053 
L 363.149053 150.111674 
L 363.962723 150.573144 
L 367.217406 151.891629 
L 368.031076 152.397048 
L 369.658417 153.232089 
L 370.472088 153.869356 
L 372.099429 154.792296 
L 374.54044 156.15473 
L 377.795123 157.736912 
L 385.931828 162.087912 
L 388.37284 163.120725 
L 389.18651 163.538245 
L 390.000181 164.175513 
L 391.627522 164.966604 
L 396.509545 166.944331 
L 398.136886 167.95517 
L 400.577898 169.075882 
L 400.577898 169.075882 
" style="fill:none;stroke:#000080;stroke-linecap:round;stroke-width:1.5;"/>
   </g>
   <g id="line2d_17">
    <path clip-path="url(#pd3d4859a73)" d="M 75.923352 261.216 
L 77.550693 260.974278 
L 79.178034 259.941465 
L 79.991705 259.0405 
L 81.619046 256.601303 
L 82.432717 255.348742 
L 84.873728 250.250601 
L 85.687399 248.009176 
L 87.31474 244.669015 
L 91.383093 233.505843 
L 93.824104 226.100353 
L 96.265116 219.617802 
L 101.96081 203.949807 
L 102.77448 202.081953 
L 112.538527 176.151751 
L 113.352197 174.305872 
L 114.979538 170.020796 
L 115.793209 167.142104 
L 117.42055 162.593331 
L 118.23422 160.50573 
L 119.047891 158.088508 
L 120.675232 154.814271 
L 123.116244 147.826301 
L 125.557255 141.365725 
L 126.370926 138.926528 
L 127.998267 134.575528 
L 132.06662 123.258532 
L 133.693961 119.12728 
L 134.507631 117.457199 
L 136.134972 112.996325 
L 136.948643 110.754901 
L 137.762313 109.194694 
L 139.389654 105.085416 
L 141.016995 101.503532 
L 145.085348 91.548971 
L 145.899019 89.790991 
L 147.52636 85.242219 
L 148.34003 83.967683 
L 149.967371 79.770506 
L 153.222054 71.617875 
L 154.849395 68.321663 
L 156.476736 64.761753 
L 158.104077 60.938147 
L 158.917747 59.685587 
L 159.731418 58.147354 
L 161.358759 54.521521 
L 162.17243 53.400809 
L 163.799771 49.994723 
L 164.613441 49.203632 
L 165.427112 47.841198 
L 166.240782 46.017293 
L 167.054453 45.204228 
L 169.495464 41.490495 
L 170.309135 40.765329 
L 171.936476 38.721677 
L 172.750147 37.183445 
L 174.377488 35.513364 
L 175.191158 34.854122 
L 176.004829 33.623536 
L 176.818499 32.942318 
L 177.63217 31.887531 
L 178.44584 31.140389 
L 179.259511 30.63497 
L 180.073181 29.734005 
L 180.886852 29.33846 
L 182.514193 28.898965 
L 183.327864 28.855015 
L 184.141534 28.481445 
L 184.955205 27.844177 
L 185.768875 27.690354 
L 186.582546 27.294808 
L 187.396216 27.140985 
L 189.023557 27.228884 
L 189.837228 26.921238 
L 191.464569 27.448631 
L 192.278239 27.558505 
L 193.09191 27.206909 
L 193.905581 27.272833 
L 196.346592 28.019975 
L 197.160263 28.217748 
L 197.973933 28.195773 
L 202.042286 29.360435 
L 203.669627 30.261399 
L 205.296968 30.656945 
L 207.73798 32.305051 
L 208.55165 32.964293 
L 210.178991 33.909207 
L 210.992662 34.238829 
L 211.806332 34.854122 
L 212.620003 35.667187 
L 213.433674 36.304455 
L 214.247344 37.16147 
L 215.061015 37.557016 
L 215.874685 38.304157 
L 218.315697 41.029026 
L 219.943038 42.215662 
L 220.756708 42.765031 
L 221.570379 43.709945 
L 222.384049 44.347213 
L 223.19772 45.160278 
L 224.011391 45.577799 
L 224.825061 46.654561 
L 226.452402 48.126869 
L 227.266073 48.720187 
L 228.893414 50.25842 
L 229.707084 50.939637 
L 232.148096 53.356859 
L 232.961766 53.972152 
L 234.589108 55.466435 
L 236.216449 56.697021 
L 237.84379 58.345127 
L 238.65746 58.982395 
L 239.471131 59.773486 
L 240.284801 60.278905 
L 242.725813 62.827976 
L 244.353154 64.102511 
L 246.794166 66.497759 
L 248.421507 67.926117 
L 249.235177 68.431536 
L 250.862518 69.83792 
L 251.676189 70.826784 
L 254.930871 73.793375 
L 255.744542 74.23287 
L 256.558212 74.892112 
L 257.371883 75.397531 
L 258.999224 77.177486 
L 262.253906 79.92433 
L 263.881247 81.286764 
L 266.322259 83.462264 
L 267.135929 84.209405 
L 268.76327 85.264193 
L 271.204282 87.395744 
L 272.017952 87.835239 
L 272.831623 88.428557 
L 274.458964 89.834941 
L 276.086305 91.395148 
L 276.899976 92.449936 
L 277.713646 93.021279 
L 279.340987 94.427663 
L 280.968328 95.812072 
L 285.036681 98.690764 
L 285.850352 99.437906 
L 289.918704 102.426471 
L 290.732375 102.822017 
L 293.173386 104.514072 
L 293.987057 105.349113 
L 294.800728 105.854532 
L 295.614398 106.557724 
L 297.241739 107.568562 
L 298.05541 108.20583 
L 298.86908 108.645325 
L 302.123762 111.106497 
L 302.937433 111.831664 
L 306.192115 114.007164 
L 307.005786 114.666406 
L 307.819456 115.105901 
L 308.633127 115.875017 
L 311.074138 117.589048 
L 311.887809 118.028542 
L 315.142491 120.401815 
L 315.956162 120.951184 
L 316.769832 121.786224 
L 320.024514 124.269371 
L 320.838185 124.972563 
L 321.651855 125.456007 
L 327.347549 129.785033 
L 329.788561 131.323265 
L 331.415902 132.378053 
L 337.925266 136.399432 
L 338.738937 136.619179 
L 339.552607 137.234472 
L 341.179948 138.025563 
L 342.807289 139.1243 
L 345.248301 140.596609 
L 346.061972 141.277826 
L 347.689313 142.112866 
L 352.571336 144.727861 
L 355.012347 146.332018 
L 356.639689 147.232982 
L 358.26703 148.309745 
L 359.0807 148.683316 
L 359.894371 149.364533 
L 364.776394 152.2652 
L 366.403735 153.012341 
L 369.658417 154.990068 
L 371.285758 155.847084 
L 372.913099 156.835947 
L 373.72677 157.319392 
L 374.54044 157.539139 
L 376.167782 158.440104 
L 376.981452 158.703801 
L 378.608793 159.62674 
L 380.236134 160.54968 
L 384.304487 162.285685 
L 385.931828 163.362447 
L 387.559169 163.999715 
L 388.37284 164.746857 
L 390.000181 165.603872 
L 392.441192 166.636685 
L 393.254863 166.878407 
L 394.882204 167.603574 
L 400.577898 170.306468 
L 400.577898 170.306468 
" style="fill:none;stroke:#0000f1;stroke-linecap:round;stroke-width:1.5;"/>
   </g>
   <g id="line2d_18">
    <path clip-path="url(#pd3d4859a73)" d="M 75.923352 261.216 
L 76.737023 261.172051 
L 78.364364 260.490833 
L 79.178034 259.985414 
L 79.991705 259.062475 
L 83.246387 253.81051 
L 84.060058 251.788833 
L 85.687399 248.492621 
L 87.31474 244.712964 
L 91.383093 234.450757 
L 97.078786 219.068433 
L 101.96081 205.553963 
L 103.588151 200.543721 
L 105.215492 196.324569 
L 106.842833 191.5121 
L 108.470174 187.11715 
L 109.283844 185.183372 
L 110.911185 180.283003 
L 111.724856 178.261327 
L 114.165868 171.537054 
L 116.606879 165.450049 
L 118.23422 160.769427 
L 126.370926 138.135437 
L 127.184596 136.57523 
L 127.998267 134.201957 
L 129.625608 129.982805 
L 130.439278 127.741381 
L 132.06662 124.049623 
L 132.88029 121.324755 
L 137.762313 108.865073 
L 138.575984 106.95327 
L 140.203325 102.55832 
L 141.016995 100.976138 
L 144.271678 93.570648 
L 145.085348 91.373173 
L 147.52636 85.857511 
L 148.34003 83.462264 
L 149.153701 81.989956 
L 152.408383 74.474592 
L 154.035724 70.145567 
L 158.917747 60.103107 
L 160.545088 56.433324 
L 162.9861 51.752703 
L 164.613441 48.522415 
L 167.054453 44.544985 
L 167.868123 43.424273 
L 168.681794 41.97394 
L 170.309135 39.732516 
L 171.936476 37.710839 
L 173.563817 34.963995 
L 175.191158 32.76652 
L 176.004829 32.063329 
L 177.63217 30.1735 
L 178.44584 28.833041 
L 179.259511 28.613293 
L 180.073181 27.448631 
L 180.886852 26.921238 
L 182.514193 25.251157 
L 183.327864 24.767712 
L 184.141534 24.855611 
L 184.955205 24.789687 
L 187.396216 24.196369 
L 188.209887 23.625025 
L 190.650898 23.075657 
L 191.464569 23.295404 
L 192.278239 23.273429 
L 193.09191 23.383303 
L 193.905581 23.712924 
L 194.719251 23.581076 
L 195.532922 23.625025 
L 197.973933 24.56994 
L 198.787604 24.701788 
L 199.601274 25.031409 
L 200.414945 25.031409 
L 201.228615 25.668677 
L 202.042286 26.152121 
L 203.669627 26.635566 
L 204.483298 27.097036 
L 205.296968 27.338758 
L 206.110639 27.954051 
L 208.55165 29.118712 
L 209.365321 29.492283 
L 210.992662 30.612995 
L 212.620003 31.93148 
L 215.874685 34.019081 
L 222.384049 39.468819 
L 223.19772 40.347809 
L 227.266073 43.885743 
L 229.707084 46.368889 
L 231.334425 47.62145 
L 232.148096 48.258718 
L 236.216449 52.587743 
L 243.539484 58.608824 
L 245.980495 60.608526 
L 250.862518 65.684693 
L 251.676189 66.36591 
L 253.30353 68.07994 
L 257.371883 71.837622 
L 258.185553 72.365016 
L 258.999224 73.156107 
L 259.812894 73.661526 
L 261.440235 75.089885 
L 263.881247 76.803915 
L 265.508588 78.473996 
L 267.135929 79.704582 
L 270.390611 82.627224 
L 272.017952 83.901759 
L 272.831623 84.253355 
L 274.458964 85.593815 
L 275.272635 86.275032 
L 276.899976 88.011037 
L 277.713646 88.604355 
L 280.154658 90.867754 
L 280.968328 91.768719 
L 284.223011 94.427663 
L 285.036681 95.240729 
L 286.664022 96.229593 
L 287.477693 96.976734 
L 289.918704 98.822613 
L 290.732375 99.547779 
L 292.359716 101.195886 
L 293.987057 102.184749 
L 294.800728 102.97584 
L 297.241739 104.601971 
L 298.05541 105.261214 
L 298.86908 106.07428 
L 299.682751 106.645623 
L 302.937433 109.678138 
L 307.819456 113.260022 
L 308.633127 114.117037 
L 309.446797 114.77628 
L 310.260468 115.1938 
L 313.51515 117.501149 
L 314.32882 118.24829 
L 316.769832 119.632699 
L 318.397173 120.995133 
L 320.838185 122.775088 
L 322.465526 124.005674 
L 323.279196 124.533068 
L 324.092867 125.23626 
L 327.347549 127.257937 
L 328.16122 127.543608 
L 329.788561 128.642346 
L 330.602231 129.367512 
L 333.043243 130.751922 
L 335.484255 132.378053 
L 336.297925 133.169144 
L 337.111596 133.718512 
L 337.925266 134.048134 
L 341.993619 136.53128 
L 344.43463 137.82779 
L 346.875642 139.344048 
L 347.689313 139.695644 
L 348.502983 140.288962 
L 349.316654 140.728457 
L 350.130324 141.453624 
L 356.639689 145.123407 
L 357.453359 145.475003 
L 358.26703 146.090296 
L 360.708041 147.211008 
L 363.149053 148.661341 
L 363.962723 149.056887 
L 367.217406 151.122513 
L 370.472088 153.14419 
L 371.285758 153.51776 
L 372.099429 154.02318 
L 377.795123 156.704099 
L 380.236134 158.044558 
L 381.049805 158.352205 
L 381.863475 158.923548 
L 382.677146 159.25317 
L 384.304487 160.242033 
L 386.745499 161.38472 
L 388.37284 161.890139 
L 390.000181 162.483458 
L 390.813851 163.010851 
L 391.627522 163.230599 
L 392.441192 163.670094 
L 394.068533 164.219463 
L 394.882204 164.461185 
L 395.695874 164.90068 
L 398.136886 165.823619 
L 400.577898 167.054205 
L 400.577898 167.054205 
" style="fill:none;stroke:#004cff;stroke-linecap:round;stroke-width:1.5;"/>
   </g>
   <g id="line2d_19">
    <path clip-path="url(#pd3d4859a73)" d="M 75.923352 261.216 
L 76.737023 261.128101 
L 77.550693 260.908354 
L 79.178034 259.523944 
L 81.619046 256.491429 
L 83.246387 254.096182 
L 85.687399 248.668419 
L 86.501069 247.108212 
L 88.942081 241.240954 
L 92.196763 232.01156 
L 93.824104 227.924257 
L 96.265116 221.793302 
L 97.892457 217.991671 
L 102.77448 204.718923 
L 103.588151 201.950105 
L 106.842833 193.204155 
L 107.656503 191.358276 
L 109.283844 186.677655 
L 110.097515 184.743877 
L 112.538527 177.07469 
L 114.165868 172.174321 
L 115.793209 167.120129 
L 118.23422 160.285983 
L 119.047891 158.440104 
L 119.861561 156.176705 
L 120.675232 154.39675 
L 122.302573 149.562306 
L 124.743585 143.673073 
L 126.370926 138.926528 
L 127.184596 136.597204 
L 127.998267 135.080947 
L 129.625608 130.949694 
L 139.389654 104.162477 
L 141.016995 100.470719 
L 141.830666 98.866562 
L 144.271678 92.999305 
L 145.085348 91.021577 
L 145.899019 88.362633 
L 147.52636 84.758774 
L 148.34003 82.649198 
L 150.781042 77.551057 
L 152.408383 74.166946 
L 153.222054 72.01342 
L 160.545088 56.081728 
L 162.9861 51.55493 
L 164.613441 48.720187 
L 165.427112 47.709349 
L 167.054453 44.369187 
L 167.868123 43.446248 
L 169.495464 41.248773 
L 170.309135 39.710541 
L 171.122805 38.787601 
L 171.936476 37.644915 
L 172.750147 36.172606 
L 173.563817 35.40349 
L 175.191158 33.096142 
L 176.004829 32.39295 
L 178.44584 28.745142 
L 179.259511 27.602455 
L 180.073181 26.679515 
L 180.886852 26.196071 
L 182.514193 25.536828 
L 183.327864 24.833636 
L 184.955205 24.372167 
L 185.768875 23.515152 
L 186.582546 23.295404 
L 187.396216 22.724061 
L 188.209887 22.416414 
L 190.650898 22.724061 
L 192.278239 22.372465 
L 193.09191 22.570237 
L 193.905581 22.504313 
L 194.719251 22.086793 
L 196.346592 22.504313 
L 197.160263 22.482338 
L 197.973933 22.833934 
L 198.787604 22.855909 
L 201.228615 23.822798 
L 202.042286 24.086495 
L 203.669627 25.031409 
L 204.483298 25.273131 
L 206.924309 26.789389 
L 207.73798 27.075061 
L 208.55165 27.800227 
L 210.178991 28.679217 
L 211.806332 30.393248 
L 213.433674 31.338162 
L 214.247344 32.063329 
L 215.061015 32.480849 
L 218.315697 34.766223 
L 219.129367 35.557313 
L 219.943038 36.128657 
L 220.756708 36.414329 
L 223.19772 38.45798 
L 224.011391 39.402894 
L 226.452402 41.534445 
L 227.266073 42.193687 
L 230.520755 45.44595 
L 231.334425 46.061243 
L 232.148096 47.028132 
L 232.961766 47.687374 
L 233.775437 48.654263 
L 235.402778 50.016698 
L 237.030119 51.884551 
L 237.84379 52.455895 
L 238.65746 53.246986 
L 240.284801 55.180763 
L 241.912142 56.74097 
L 243.539484 58.015506 
L 248.421507 63.069698 
L 252.489859 66.893304 
L 254.117201 68.409562 
L 254.930871 69.046829 
L 256.558212 70.563087 
L 257.371883 71.17838 
L 260.626565 74.276819 
L 261.440235 74.826188 
L 263.067576 76.320471 
L 264.694918 77.814754 
L 265.508588 78.320173 
L 267.135929 79.858405 
L 268.76327 81.59441 
L 270.390611 83.132643 
L 271.204282 84.23138 
L 274.458964 87.527592 
L 276.086305 88.670279 
L 277.713646 89.900865 
L 279.340987 91.461072 
L 283.40934 95.372577 
L 285.036681 96.515264 
L 285.850352 97.064633 
L 286.664022 97.394254 
L 289.105034 99.240133 
L 290.732375 100.119123 
L 296.428069 104.887643 
L 297.241739 105.261214 
L 298.86908 106.513775 
L 303.751103 110.073684 
L 308.633127 113.303972 
L 309.446797 113.721492 
L 311.074138 114.952078 
L 315.956162 118.687785 
L 320.024514 121.676351 
L 322.465526 123.588154 
L 323.279196 123.961724 
L 324.092867 124.664916 
L 324.906538 125.19231 
L 326.533879 126.422896 
L 327.347549 126.95029 
L 328.16122 127.301886 
L 328.97489 127.961129 
L 331.415902 129.367512 
L 332.229572 130.026755 
L 334.670584 131.30129 
L 337.111596 132.839523 
L 337.925266 133.388891 
L 339.552607 134.861199 
L 341.179948 135.959937 
L 342.807289 136.860901 
L 344.43463 137.630018 
L 346.061972 138.596907 
L 348.502983 139.959341 
L 350.943995 141.475599 
L 351.757665 142.134841 
L 352.571336 142.64026 
L 353.385006 142.991856 
L 354.198677 143.497275 
L 355.012347 143.782947 
L 355.826018 144.244417 
L 356.639689 144.552063 
L 358.26703 145.650801 
L 359.0807 146.046346 
L 360.708041 147.276932 
L 362.335382 148.221846 
L 363.149053 148.859114 
L 365.590065 150.243523 
L 367.217406 151.188437 
L 372.913099 154.352801 
L 375.354111 156.000907 
L 376.981452 156.835947 
L 383.490816 160.813377 
L 385.931828 161.714341 
L 387.559169 162.68123 
L 389.18651 163.494296 
L 390.813851 164.175513 
L 392.441192 164.636983 
L 394.882204 165.889543 
L 395.695874 166.087316 
L 400.577898 168.482564 
L 400.577898 168.482564 
" style="fill:none;stroke:#00b0ff;stroke-linecap:round;stroke-width:1.5;"/>
   </g>
   <g id="line2d_20">
    <path clip-path="url(#pd3d4859a73)" d="M 75.923352 261.216 
L 77.550693 260.974278 
L 78.364364 260.534783 
L 79.991705 259.194323 
L 80.805376 258.447182 
L 81.619046 257.172646 
L 82.432717 255.612439 
L 84.060058 253.041394 
L 87.31474 246.053424 
L 88.12841 244.22952 
L 89.755751 239.636798 
L 90.569422 237.461297 
L 91.383093 234.934201 
L 92.196763 233.220171 
L 93.824104 228.781272 
L 94.637775 227.089216 
L 95.451445 224.650019 
L 99.519798 214.190039 
L 101.147139 209.882989 
L 101.96081 208.015135 
L 104.401821 201.576534 
L 105.215492 199.554857 
L 107.656503 192.698736 
L 110.097515 186.194211 
L 115.793209 170.306468 
L 118.23422 163.911816 
L 119.047891 161.714341 
L 119.861561 159.099346 
L 120.675232 157.275442 
L 131.252949 127.521634 
L 132.06662 125.763654 
L 132.88029 123.01681 
L 138.575984 108.293729 
L 139.389654 106.337977 
L 140.203325 104.030628 
L 141.016995 102.712143 
L 141.830666 100.404795 
L 142.644337 98.822613 
L 145.085348 92.97733 
L 145.899019 90.494183 
L 146.712689 88.9999 
L 148.34003 85.286168 
L 149.967371 81.660335 
L 150.781042 79.089289 
L 153.222054 74.320769 
L 154.035724 73.090183 
L 154.849395 71.332203 
L 155.663065 68.629309 
L 158.104077 62.344531 
L 158.917747 60.982097 
L 160.545088 58.015506 
L 161.358759 56.675046 
L 162.9861 53.159087 
L 164.613441 49.511278 
L 165.427112 47.643425 
L 167.868123 43.402298 
L 168.681794 42.281586 
L 169.495464 40.721379 
L 171.122805 38.392056 
L 171.936476 37.403192 
L 172.750147 36.106682 
L 173.563817 35.051894 
L 179.259511 29.602157 
L 180.886852 27.734303 
L 181.700522 26.987162 
L 184.955205 24.767712 
L 185.768875 23.932672 
L 186.582546 23.273429 
L 187.396216 23.317379 
L 188.209887 23.207505 
L 189.023557 22.899859 
L 190.650898 23.141581 
L 191.464569 22.724061 
L 192.278239 22.636162 
L 194.719251 21.867046 
L 196.346592 21.669273 
L 197.160263 21.493475 
L 198.787604 22.240616 
L 201.228615 23.009732 
L 202.855957 24.10847 
L 205.296968 24.789687 
L 206.110639 25.426955 
L 206.924309 25.844475 
L 208.55165 26.481743 
L 209.365321 27.140985 
L 210.178991 27.602455 
L 212.620003 28.613293 
L 213.433674 29.162662 
L 214.247344 30.129551 
L 215.061015 30.700894 
L 215.874685 31.09644 
L 216.688356 32.041354 
L 217.502026 32.678621 
L 218.315697 33.601561 
L 219.943038 34.832147 
L 220.756708 35.733111 
L 221.570379 36.128657 
L 224.825061 38.545879 
L 227.266073 40.699404 
L 228.079743 41.380622 
L 228.893414 42.259612 
L 231.334425 44.193389 
L 232.148096 44.523011 
L 232.961766 45.797546 
L 234.589108 46.720485 
L 235.402778 47.445652 
L 236.216449 48.390566 
L 239.471131 51.401107 
L 241.098472 52.609718 
L 242.725813 54.14795 
L 243.539484 54.807193 
L 245.166825 56.477274 
L 245.980495 57.114541 
L 246.794166 57.971556 
L 248.421507 59.333991 
L 250.862518 61.619365 
L 251.676189 62.322556 
L 255.744542 66.937254 
L 257.371883 68.343637 
L 262.253906 72.430941 
L 263.067576 73.002284 
L 263.881247 73.727451 
L 264.694918 74.716314 
L 267.9496 77.265385 
L 268.76327 78.188324 
L 269.576941 78.825592 
L 272.831623 81.989956 
L 274.458964 83.110668 
L 275.272635 83.791885 
L 276.899976 85.483941 
L 280.154658 88.362633 
L 280.968328 88.912001 
L 281.781999 89.812966 
L 285.036681 92.625734 
L 285.850352 93.065229 
L 286.664022 93.85632 
L 289.918704 96.427365 
L 294.800728 100.646517 
L 296.428069 102.09685 
L 299.682751 104.27235 
L 301.310092 105.349113 
L 302.937433 106.997219 
L 304.564774 108.183855 
L 305.378445 108.689275 
L 306.192115 109.568265 
L 308.633127 111.216371 
L 309.446797 111.655866 
L 311.887809 113.347921 
L 312.701479 113.831366 
L 314.32882 115.1938 
L 318.397173 117.918669 
L 320.024514 119.193204 
L 322.465526 121.192906 
L 324.906538 122.621265 
L 325.720208 123.390381 
L 327.347549 124.423194 
L 328.97489 125.434033 
L 329.788561 125.807603 
L 331.415902 126.99424 
L 335.484255 129.257639 
L 337.925266 130.839821 
L 339.552607 132.070406 
L 341.993619 133.652588 
L 343.62096 134.575528 
L 346.875642 136.245609 
L 347.689313 136.773002 
L 348.502983 137.058674 
L 349.316654 137.673967 
L 350.943995 138.530982 
L 352.571336 139.563795 
L 355.826018 141.453624 
L 358.26703 143.079755 
L 359.894371 143.826897 
L 363.149053 145.387104 
L 364.776394 146.375967 
L 366.403735 147.430755 
L 367.217406 147.672477 
L 368.031076 148.265796 
L 368.844747 148.573442 
L 370.472088 149.496382 
L 372.099429 150.221548 
L 372.913099 150.617094 
L 374.54044 151.84768 
L 376.167782 152.748644 
L 378.608793 153.935281 
L 383.490816 156.704099 
L 384.304487 156.989771 
L 387.559169 158.945523 
L 389.18651 159.802538 
L 390.813851 160.769427 
L 392.441192 161.582493 
L 393.254863 162.021988 
L 397.323216 163.296523 
L 400.577898 164.746857 
L 400.577898 164.746857 
" style="fill:none;stroke:#29ffce;stroke-linecap:round;stroke-width:1.5;"/>
   </g>
   <g id="line2d_21">
    <path clip-path="url(#pd3d4859a73)" d="M 75.923352 261.194025 
L 76.737023 261.128101 
L 77.550693 260.776505 
L 79.178034 259.721717 
L 79.991705 259.018525 
L 82.432717 255.634414 
L 84.060058 252.689798 
L 84.873728 251.503161 
L 85.687399 249.547409 
L 86.501069 247.899303 
L 87.31474 245.745777 
L 88.942081 241.043181 
L 90.569422 236.494409 
L 97.078786 218.03562 
L 98.706127 213.354999 
L 101.147139 206.27913 
L 102.77448 201.576534 
L 104.401821 196.895913 
L 106.842833 189.666221 
L 107.656503 187.908241 
L 108.470174 185.82064 
L 110.097515 180.920271 
L 111.724856 176.261624 
L 113.352197 171.537054 
L 115.793209 164.812781 
L 117.42055 159.714639 
L 119.861561 153.122215 
L 120.675232 151.408185 
L 121.488903 149.408483 
L 122.302573 147.057184 
L 123.929914 142.772109 
L 124.743585 140.640558 
L 125.557255 138.113462 
L 126.370926 136.091785 
L 127.998267 131.34524 
L 132.88029 119.105305 
L 133.693961 116.885856 
L 134.507631 115.105901 
L 135.321302 113.0183 
L 136.134972 110.557128 
L 139.389654 103.107689 
L 142.644337 94.999007 
L 144.271678 91.329224 
L 145.085348 88.846077 
L 145.899019 87.000198 
L 149.967371 76.474294 
L 150.781042 75.045936 
L 153.222054 69.706072 
L 154.035724 67.750319 
L 154.849395 66.541708 
L 155.663065 65.0694 
L 157.290406 62.608228 
L 158.104077 61.443567 
L 158.917747 60.037183 
L 159.731418 58.279203 
L 160.545088 57.114541 
L 161.358759 55.466435 
L 162.17243 54.323748 
L 165.427112 47.863172 
L 166.240782 47.181955 
L 168.681794 43.644021 
L 169.495464 43.160576 
L 170.309135 41.820117 
L 171.936476 39.75449 
L 174.377488 37.117521 
L 175.191158 35.908909 
L 177.63217 33.64551 
L 178.44584 33.535637 
L 180.073181 32.590722 
L 180.886852 31.953455 
L 181.700522 31.535935 
L 182.514193 30.876692 
L 183.327864 30.019677 
L 184.955205 29.558207 
L 189.023557 29.602157 
L 189.837228 29.734005 
L 191.464569 29.272536 
L 192.278239 29.272536 
L 193.905581 29.75598 
L 194.719251 29.843879 
L 195.532922 29.734005 
L 196.346592 30.041652 
L 197.160263 30.107576 
L 197.973933 30.876692 
L 198.787604 31.338162 
L 199.601274 32.085303 
L 201.228615 32.678621 
L 202.042286 33.425763 
L 202.855957 33.557611 
L 203.669627 33.953157 
L 204.483298 34.194879 
L 205.296968 34.56845 
L 208.55165 37.293319 
L 210.992662 39.095248 
L 212.620003 39.864364 
L 213.433674 40.391758 
L 214.247344 40.743354 
L 215.874685 41.97394 
L 216.688356 42.655157 
L 217.502026 43.094652 
L 218.315697 43.753894 
L 219.129367 44.171415 
L 220.756708 45.599773 
L 224.011391 48.96191 
L 224.825061 49.445354 
L 226.452402 50.697915 
L 228.079743 52.192198 
L 232.961766 56.125678 
L 233.775437 57.092566 
L 236.216449 58.784622 
L 238.65746 61.069996 
L 239.471131 61.59739 
L 240.284801 62.564279 
L 241.912142 64.124486 
L 243.539484 65.596794 
L 249.235177 70.563087 
L 250.048848 71.112456 
L 251.676189 72.738587 
L 252.489859 73.375855 
L 253.30353 74.254845 
L 255.744542 76.034799 
L 256.558212 76.781941 
L 257.371883 77.309335 
L 258.999224 78.737693 
L 259.812894 79.46286 
L 260.626565 79.990254 
L 263.067576 82.09983 
L 264.694918 83.418314 
L 265.508588 83.923734 
L 270.390611 88.274734 
L 271.204282 88.780153 
L 274.458964 91.922542 
L 276.899976 93.790395 
L 279.340987 95.482451 
L 286.664022 101.283785 
L 287.477693 101.701305 
L 291.546045 104.975542 
L 292.359716 105.502936 
L 293.173386 105.876507 
L 293.987057 106.579699 
L 296.428069 108.315704 
L 300.496421 111.72179 
L 301.310092 112.490906 
L 302.123762 112.864477 
L 302.937433 113.501744 
L 304.564774 114.534558 
L 306.192115 115.875017 
L 317.583503 123.676053 
L 318.397173 124.335295 
L 320.024514 125.434033 
L 326.533879 129.785033 
L 328.97489 131.037593 
L 330.602231 132.268179 
L 331.415902 132.663725 
L 335.484255 135.498467 
L 336.297925 135.894013 
L 339.552607 138.113462 
L 350.130324 143.717023 
L 352.571336 145.013533 
L 354.198677 145.980422 
L 355.012347 146.419917 
L 355.826018 147.057184 
L 356.639689 147.518654 
L 357.453359 147.826301 
L 359.894371 149.320584 
L 362.335382 150.902765 
L 363.962723 151.737806 
L 374.54044 157.363341 
L 375.354111 157.758887 
L 376.167782 157.956659 
L 377.795123 159.011447 
L 384.304487 162.373584 
L 385.118157 162.988877 
L 390.000181 165.406099 
L 390.813851 165.933493 
L 392.441192 166.61471 
L 393.254863 167.098155 
L 400.577898 170.218569 
L 400.577898 170.218569 
" style="fill:none;stroke:#7dff7a;stroke-linecap:round;stroke-width:1.5;"/>
   </g>
   <g id="line2d_22">
    <path clip-path="url(#pd3d4859a73)" d="M 75.923352 261.216 
L 76.737023 261.172051 
L 77.550693 260.974278 
L 79.178034 260.029364 
L 79.991705 259.172348 
L 80.805376 258.095586 
L 81.619046 256.799076 
L 82.432717 255.832187 
L 83.246387 254.052232 
L 84.060058 252.667823 
L 85.687399 248.712368 
L 87.31474 244.251495 
L 88.942081 240.318015 
L 91.383093 234.428782 
L 94.637775 225.638883 
L 95.451445 222.826115 
L 96.265116 220.914312 
L 97.892457 216.035918 
L 98.706127 214.014241 
L 101.96081 204.367327 
L 103.588151 199.444984 
L 104.401821 197.708978 
L 105.215492 195.247807 
L 106.029162 193.445877 
L 110.097515 182.019008 
L 110.911185 180.217079 
L 113.352197 172.877513 
L 114.979538 168.658362 
L 115.793209 165.867569 
L 117.42055 161.692367 
L 119.047891 157.055695 
L 120.675232 153.232089 
L 121.488903 150.814866 
L 123.116244 146.705589 
L 123.929914 143.98072 
L 127.998267 133.257043 
L 129.625608 128.422598 
L 135.321302 113.633593 
L 136.134972 111.809689 
L 136.948643 109.458391 
L 139.389654 103.920754 
L 142.644337 95.394552 
L 144.271678 91.658845 
L 145.085348 89.944815 
L 145.899019 88.494481 
L 146.712689 86.758476 
L 148.34003 82.495375 
L 149.153701 80.869244 
L 151.594712 75.089885 
L 154.035724 69.640148 
L 154.849395 67.728344 
L 157.290406 63.289445 
L 158.104077 61.663314 
L 159.731418 57.224415 
L 161.358759 53.77438 
L 162.17243 51.774677 
L 162.9861 50.478167 
L 163.799771 48.610314 
L 166.240782 44.259314 
L 167.054453 43.028728 
L 167.868123 40.941127 
L 169.495464 38.304157 
L 171.122805 36.150632 
L 172.750147 34.194879 
L 173.563817 33.359839 
L 175.191158 31.47001 
L 176.004829 30.085601 
L 177.63217 28.41552 
L 178.44584 27.778253 
L 179.259511 26.657541 
L 180.073181 26.327919 
L 181.700522 25.185232 
L 182.514193 24.701788 
L 183.327864 23.69095 
L 184.141534 23.756874 
L 184.955205 23.295404 
L 185.768875 22.680111 
L 187.396216 21.93297 
L 189.023557 22.372465 
L 190.650898 22.174692 
L 191.464569 22.152717 
L 192.278239 21.581374 
L 193.09191 21.647298 
L 193.905581 21.405576 
L 197.160263 21.4715 
L 197.973933 21.295702 
L 199.601274 21.493475 
L 200.414945 21.845071 
L 201.228615 22.372465 
L 202.042286 22.614187 
L 202.855957 23.339354 
L 204.483298 23.822798 
L 206.924309 24.965485 
L 207.73798 25.580778 
L 208.55165 25.800525 
L 209.365321 26.261995 
L 210.178991 26.855313 
L 210.992662 27.206909 
L 212.620003 28.393546 
L 215.061015 29.79993 
L 217.502026 32.063329 
L 218.315697 32.524798 
L 220.756708 34.832147 
L 222.384049 36.348404 
L 223.19772 37.117521 
L 224.825061 38.282182 
L 226.452402 39.710541 
L 228.893414 41.51247 
L 229.707084 42.215662 
L 230.520755 43.248475 
L 231.334425 43.709945 
L 232.148096 44.523011 
L 233.775437 45.687672 
L 236.216449 47.819223 
L 240.284801 52.082324 
L 241.098472 52.763541 
L 244.353154 55.971854 
L 245.980495 57.378238 
L 249.235177 60.872223 
L 252.489859 63.333395 
L 257.371883 67.618471 
L 258.185553 68.145865 
L 260.626565 70.782834 
L 261.440235 71.573925 
L 263.881247 73.441779 
L 265.508588 75.199759 
L 268.76327 77.880678 
L 271.204282 79.748532 
L 272.017952 80.319875 
L 272.831623 81.22084 
L 273.645293 81.682309 
L 274.458964 82.275628 
L 275.272635 83.110668 
L 276.899976 84.429153 
L 278.527317 85.901461 
L 281.781999 88.670279 
L 288.291363 94.032118 
L 289.105034 94.603461 
L 289.918704 95.482451 
L 290.732375 95.965896 
L 292.359716 97.28438 
L 293.173386 97.74585 
L 298.86908 102.338572 
L 300.496421 103.415335 
L 310.260468 111.699815 
L 311.074138 112.468931 
L 312.701479 113.457795 
L 313.51515 114.139012 
L 315.956162 115.809093 
L 316.769832 116.49031 
L 318.397173 117.391275 
L 320.838185 119.325053 
L 321.651855 119.676649 
L 322.465526 120.445765 
L 324.906538 122.247694 
L 325.720208 123.170633 
L 326.533879 123.566179 
L 327.347549 124.093573 
L 328.97489 124.906639 
L 329.788561 125.631805 
L 331.415902 126.466846 
L 332.229572 127.126088 
L 333.043243 127.565583 
L 333.856913 128.202851 
L 335.484255 129.213689 
L 337.111596 130.290452 
L 337.925266 130.817846 
L 339.552607 131.608937 
L 341.179948 132.553851 
L 341.993619 133.015321 
L 343.62096 134.136033 
L 344.43463 134.663427 
L 346.061972 135.454518 
L 346.875642 135.959937 
L 347.689313 136.311533 
L 351.757665 138.772705 
L 353.385006 139.453922 
L 354.198677 140.091189 
L 355.826018 140.860306 
L 358.26703 142.310639 
L 359.0807 142.574336 
L 359.894371 143.123705 
L 362.335382 144.068619 
L 363.149053 144.552063 
L 363.962723 145.321179 
L 368.031076 147.958149 
L 369.658417 148.727265 
L 370.472088 149.364533 
L 372.913099 150.639068 
L 374.54044 151.496084 
L 375.354111 151.693856 
L 376.167782 152.045452 
L 376.981452 152.594821 
L 383.490816 155.847084 
L 385.118157 156.704099 
L 388.37284 158.264306 
L 391.627522 159.934387 
L 392.441192 160.198084 
L 398.950557 163.472321 
L 400.577898 164.48316 
L 400.577898 164.48316 
" style="fill:none;stroke:#ceff29;stroke-linecap:round;stroke-width:1.5;"/>
   </g>
   <g id="line2d_23">
    <path clip-path="url(#pd3d4859a73)" d="M 75.923352 261.216 
L 78.364364 260.468859 
L 79.178034 259.809616 
L 81.619046 256.733151 
L 83.246387 254.052232 
L 84.060058 252.601899 
L 86.501069 247.020313 
L 88.12841 243.504353 
L 88.942081 241.6365 
L 89.755751 239.021505 
L 90.569422 237.153651 
L 91.383093 234.934201 
L 93.010434 231.396267 
L 95.451445 224.803843 
L 96.265116 222.584393 
L 97.892457 217.398353 
L 101.147139 208.300807 
L 107.656503 189.820044 
L 109.283844 186.216185 
L 110.911185 181.381741 
L 111.724856 179.162291 
L 112.538527 177.470236 
L 114.165868 172.943438 
L 115.793209 168.548488 
L 117.42055 164.087614 
L 118.23422 162.197786 
L 119.047891 159.824513 
L 121.488903 153.693558 
L 123.116244 149.21071 
L 124.743585 144.837735 
L 125.557255 143.123705 
L 126.370926 140.728457 
L 128.811937 134.443679 
L 132.88029 123.06076 
L 135.321302 116.885856 
L 136.134972 114.512583 
L 138.575984 108.909022 
L 140.203325 104.843694 
L 141.016995 102.997815 
L 142.644337 98.492992 
L 145.085348 93.328926 
L 145.899019 91.21935 
L 146.712689 89.615193 
L 147.52636 87.461668 
L 152.408383 76.935764 
L 153.222054 74.540516 
L 154.849395 70.343339 
L 156.476736 66.102213 
L 157.290406 64.476082 
L 158.917747 60.784324 
L 160.545088 57.290339 
L 162.9861 51.664804 
L 163.799771 50.016698 
L 164.613441 48.742162 
L 167.054453 44.325238 
L 167.868123 43.402298 
L 169.495464 40.721379 
L 172.750147 36.32643 
L 173.563817 34.810172 
L 176.004829 31.272238 
L 176.818499 29.865854 
L 177.63217 28.701192 
L 179.259511 27.075061 
L 181.700522 25.602753 
L 182.514193 25.075359 
L 184.141534 24.328217 
L 184.955205 23.800823 
L 187.396216 22.592212 
L 188.209887 22.086793 
L 189.023557 22.020869 
L 189.837228 22.130742 
L 191.464569 21.647298 
L 192.278239 21.998894 
L 193.905581 22.262591 
L 194.719251 22.482338 
L 196.346592 22.460364 
L 197.160263 23.097631 
L 197.973933 23.22948 
L 198.787604 23.69095 
L 199.601274 23.800823 
L 200.414945 24.10847 
L 201.228615 24.240318 
L 202.042286 24.613889 
L 203.669627 24.811662 
L 204.483298 25.273131 
L 205.296968 25.86645 
L 206.924309 26.349894 
L 207.73798 26.965187 
L 208.55165 27.184935 
L 209.365321 27.668379 
L 210.178991 27.998 
L 210.992662 28.657243 
L 211.806332 29.030813 
L 212.620003 29.558207 
L 214.247344 31.030515 
L 215.061015 31.97543 
L 217.502026 34.348702 
L 219.129367 35.952859 
L 220.756708 37.139495 
L 223.19772 39.666591 
L 224.011391 40.479657 
L 226.452402 42.325536 
L 229.707084 45.90742 
L 230.520755 46.434814 
L 232.148096 47.907122 
L 234.589108 50.67594 
L 237.84379 53.752405 
L 238.65746 54.367698 
L 239.471131 55.378536 
L 240.284801 56.059753 
L 241.912142 57.751809 
L 242.725813 58.608824 
L 244.353154 59.729536 
L 245.166825 60.806299 
L 245.980495 61.509491 
L 246.794166 62.542304 
L 247.607836 63.377344 
L 248.421507 64.036587 
L 249.235177 64.871627 
L 250.862518 66.190112 
L 251.676189 67.003178 
L 252.489859 67.640445 
L 254.117201 69.156703 
L 254.930871 69.815945 
L 256.558212 71.661824 
L 257.371883 72.233168 
L 268.76327 82.297602 
L 271.204282 84.27533 
L 275.272635 87.989062 
L 276.086305 88.384608 
L 277.713646 89.834941 
L 279.340987 90.955653 
L 280.154658 91.812668 
L 280.968328 92.471911 
L 281.781999 92.93338 
L 283.40934 94.27384 
L 284.223011 94.933082 
L 285.850352 95.98787 
L 289.918704 99.064335 
L 291.546045 100.734416 
L 293.173386 101.943027 
L 293.987057 102.404497 
L 299.682751 106.90932 
L 300.496421 107.678436 
L 307.005786 112.161285 
L 309.446797 113.89729 
L 310.260468 114.336785 
L 311.074138 115.018002 
L 312.701479 115.896992 
L 317.583503 119.610724 
L 318.397173 120.094169 
L 319.210844 120.797361 
L 320.838185 121.698325 
L 325.720208 124.730841 
L 327.347549 125.917477 
L 329.788561 127.455709 
L 330.602231 128.180876 
L 331.415902 128.466548 
L 333.043243 129.521336 
L 334.670584 130.554149 
L 335.484255 131.257341 
L 336.297925 131.652886 
L 340.366278 134.201957 
L 341.179948 134.531578 
L 351.757665 141.541523 
L 352.571336 141.827194 
L 359.894371 146.375967 
L 360.708041 147.057184 
L 361.521712 147.584578 
L 362.335382 147.87025 
L 363.149053 148.463568 
L 363.962723 148.815164 
L 364.776394 149.496382 
L 365.590065 149.847977 
L 366.403735 150.419321 
L 368.031076 151.254361 
L 369.658417 152.133351 
L 370.472088 152.836543 
L 372.099429 153.737508 
L 372.913099 154.242927 
L 373.72677 154.462675 
L 375.354111 155.297715 
L 376.167782 155.847084 
L 377.795123 156.550276 
L 379.422464 157.187543 
L 381.049805 157.824811 
L 381.863475 158.132457 
L 384.304487 159.406993 
L 392.441192 163.56022 
L 393.254863 163.845892 
L 394.882204 164.746857 
L 395.695874 164.966604 
L 397.323216 165.867569 
L 398.950557 166.372988 
L 400.577898 167.120129 
L 400.577898 167.120129 
" style="fill:none;stroke:#ffc400;stroke-linecap:round;stroke-width:1.5;"/>
   </g>
   <g id="line2d_24">
    <path clip-path="url(#pd3d4859a73)" d="M 75.923352 261.216 
L 76.737023 261.150076 
L 78.364364 260.688606 
L 79.991705 258.908651 
L 81.619046 256.755126 
L 83.246387 253.612737 
L 84.873728 250.184677 
L 85.687399 248.99804 
L 87.31474 245.921575 
L 91.383093 235.0221 
L 92.196763 232.582903 
L 93.010434 230.517277 
L 95.451445 223.045863 
L 98.706127 213.574746 
L 100.333468 209.069923 
L 101.147139 207.15812 
L 104.401821 197.730953 
L 110.911185 178.349226 
L 113.352197 172.064448 
L 114.979538 167.691473 
L 119.861561 154.067129 
L 121.488903 149.935876 
L 123.929914 143.321477 
L 124.743585 141.827194 
L 126.370926 136.707078 
L 127.184596 134.487629 
L 127.998267 132.861497 
L 128.811937 130.88377 
L 132.06662 121.456603 
L 133.693961 117.347325 
L 135.321302 112.886451 
L 141.016995 97.416229 
L 141.830666 95.702199 
L 143.458007 91.087501 
L 144.271678 89.637168 
L 145.899019 85.769612 
L 147.52636 81.59441 
L 150.781042 72.848461 
L 151.594712 71.068506 
L 152.408383 68.827082 
L 153.222054 67.135026 
L 155.663065 61.465541 
L 157.290406 58.389077 
L 158.104077 56.477274 
L 158.917747 55.004965 
L 159.731418 53.225011 
L 160.545088 52.060349 
L 161.358759 50.324344 
L 162.9861 47.247879 
L 165.427112 42.259612 
L 166.240782 40.985076 
L 168.681794 36.238531 
L 170.309135 33.469712 
L 171.122805 33.074167 
L 171.936476 32.041354 
L 174.377488 28.437495 
L 175.191158 27.734303 
L 176.004829 27.272833 
L 176.818499 26.327919 
L 177.63217 25.690652 
L 178.44584 25.40498 
L 179.259511 24.94351 
L 180.886852 23.273429 
L 181.700522 22.372465 
L 182.514193 22.152717 
L 183.327864 21.713222 
L 184.141534 21.119904 
L 185.768875 20.438687 
L 188.209887 19.296 
L 189.023557 19.339949 
L 191.464569 19.889318 
L 192.278239 19.493773 
L 193.09191 19.317975 
L 193.905581 19.647596 
L 194.719251 19.603646 
L 195.532922 19.405874 
L 196.346592 19.691545 
L 197.160263 19.845369 
L 197.973933 20.240914 
L 198.787604 20.350788 
L 200.414945 21.032005 
L 201.228615 21.207803 
L 202.042286 21.647298 
L 202.855957 21.954944 
L 205.296968 23.734899 
L 206.924309 24.196369 
L 208.55165 25.514854 
L 209.365321 25.888424 
L 210.992662 27.11901 
L 211.806332 27.602455 
L 213.433674 28.833041 
L 215.061015 30.393248 
L 215.874685 30.810768 
L 216.688356 31.733707 
L 217.502026 32.305051 
L 218.315697 33.074167 
L 219.943038 33.997106 
L 220.756708 34.854122 
L 221.570379 35.381515 
L 224.011391 37.600965 
L 224.825061 37.842687 
L 225.638732 38.326132 
L 226.452402 39.007349 
L 227.266073 39.512768 
L 228.893414 41.226798 
L 230.520755 42.830955 
L 231.334425 43.314399 
L 232.961766 44.808682 
L 236.216449 47.973046 
L 238.65746 50.653965 
L 239.471131 51.247283 
L 242.725813 54.169925 
L 243.539484 54.741268 
L 245.166825 56.301476 
L 245.980495 56.828869 
L 246.794166 57.773784 
L 248.421507 59.092269 
L 250.048848 61.004072 
L 250.862518 61.663314 
L 251.676189 62.498354 
L 253.30353 63.860789 
L 254.117201 64.717804 
L 254.930871 65.157299 
L 255.744542 66.014314 
L 257.371883 67.003178 
L 258.185553 67.882168 
L 258.999224 68.58536 
L 261.440235 71.090481 
L 263.881247 73.200057 
L 266.322259 75.705178 
L 267.135929 76.430345 
L 267.9496 77.001688 
L 269.576941 78.495971 
L 276.086305 84.165456 
L 280.154658 87.615491 
L 282.595669 90.032714 
L 283.40934 90.604057 
L 289.918704 96.273542 
L 290.732375 96.735012 
L 291.546045 97.482153 
L 292.359716 98.075471 
L 293.173386 98.954461 
L 294.800728 100.031224 
L 295.614398 100.778365 
L 296.428069 101.305759 
L 297.241739 102.118825 
L 298.86908 103.283487 
L 299.682751 104.184451 
L 301.310092 105.656759 
L 304.564774 107.546588 
L 307.819456 110.293431 
L 308.633127 110.776876 
L 309.446797 111.458093 
L 310.260468 112.293133 
L 313.51515 114.402709 
L 314.32882 114.886154 
L 315.142491 115.677244 
L 317.583503 117.237452 
L 324.092867 121.940048 
L 325.720208 122.797063 
L 327.347549 123.763952 
L 328.16122 124.247396 
L 328.97489 124.906639 
L 331.415902 126.291048 
L 333.856913 127.807305 
L 336.297925 129.213689 
L 337.111596 129.916881 
L 338.738937 130.905745 
L 341.179948 132.619775 
L 342.807289 133.828386 
L 343.62096 134.575528 
L 344.43463 135.124896 
L 345.248301 135.520442 
L 346.875642 136.794977 
L 348.502983 137.651992 
L 349.316654 138.113462 
L 350.130324 138.838629 
L 355.012347 141.783245 
L 355.826018 142.17879 
L 356.639689 142.794083 
L 359.0807 144.222442 
L 359.894371 144.749836 
L 360.708041 145.035508 
L 361.521712 145.496977 
L 362.335382 145.826599 
L 365.590065 147.958149 
L 366.403735 148.617392 
L 367.217406 148.903063 
L 368.031076 149.342558 
L 369.658417 150.529195 
L 371.285758 151.430159 
L 373.72677 152.990366 
L 374.54044 153.341962 
L 376.981452 154.902169 
L 381.863475 157.780861 
L 382.677146 158.110483 
L 383.490816 158.659851 
L 385.118157 159.341069 
L 386.745499 159.890437 
L 388.37284 160.901276 
L 394.068533 163.911816 
L 394.882204 164.197488 
L 400.577898 167.339877 
L 400.577898 167.339877 
" style="fill:none;stroke:#ff6800;stroke-linecap:round;stroke-width:1.5;"/>
   </g>
   <g id="line2d_25">
    <path clip-path="url(#pd3d4859a73)" d="M 75.923352 261.216 
L 77.550693 261.018227 
L 78.364364 260.534783 
L 79.178034 259.91949 
L 81.619046 256.865 
L 82.432717 255.612439 
L 83.246387 254.118156 
L 86.501069 247.020313 
L 88.12841 242.735237 
L 91.383093 235.52752 
L 92.196763 233.483868 
L 95.451445 224.056701 
L 96.265116 222.056999 
L 100.333468 210.21261 
L 101.147139 208.388706 
L 102.77448 203.68611 
L 110.097515 183.623165 
L 110.911185 181.667412 
L 111.724856 179.074392 
L 113.352197 174.459695 
L 114.979538 169.427478 
L 119.861561 156.528301 
L 120.675232 153.869356 
L 123.116244 147.716427 
L 123.929914 145.892523 
L 124.743585 143.651099 
L 125.557255 141.827194 
L 126.370926 139.673669 
L 127.184596 137.981614 
L 129.625608 131.235366 
L 132.88029 123.851851 
L 133.693961 121.632401 
L 134.507631 118.995431 
L 136.134972 115.127876 
L 139.389654 105.876507 
L 140.203325 104.206426 
L 141.830666 100.141098 
L 143.458007 96.493289 
L 144.271678 95.020981 
L 146.712689 88.296709 
L 147.52636 86.538729 
L 149.967371 80.122102 
L 150.781042 77.924627 
L 153.222054 73.200057 
L 154.035724 71.046531 
L 154.849395 69.376451 
L 158.104077 61.443567 
L 158.917747 59.79546 
L 159.731418 57.729834 
L 160.545088 56.103703 
L 161.358759 54.895092 
L 162.9861 52.0164 
L 165.427112 46.896283 
L 166.240782 45.665698 
L 167.054453 43.753894 
L 170.309135 38.567854 
L 171.936476 35.469414 
L 173.563817 33.22799 
L 174.377488 32.568748 
L 175.191158 31.404086 
L 176.004829 30.612995 
L 177.63217 28.679217 
L 178.44584 27.668379 
L 179.259511 27.16296 
L 180.073181 26.371869 
L 180.886852 25.163258 
L 181.700522 24.262293 
L 182.514193 23.756874 
L 183.327864 23.449227 
L 184.141534 22.987758 
L 184.955205 22.218641 
L 185.768875 21.801121 
L 186.582546 21.779147 
L 187.396216 21.4715 
L 188.209887 21.427551 
L 189.023557 21.141879 
L 189.837228 21.713222 
L 191.464569 21.361626 
L 192.278239 21.691248 
L 193.09191 21.559399 
L 193.905581 22.130742 
L 194.719251 21.867046 
L 197.160263 23.141581 
L 197.973933 23.361328 
L 198.787604 23.866748 
L 199.601274 23.954647 
L 201.228615 23.778849 
L 202.855957 24.416116 
L 203.669627 24.833636 
L 205.296968 26.218046 
L 206.110639 26.547667 
L 206.924309 27.11901 
L 207.73798 27.426657 
L 211.806332 29.931778 
L 212.620003 30.700894 
L 215.061015 32.656647 
L 216.688356 34.282778 
L 218.315697 35.535339 
L 219.943038 36.678026 
L 220.756708 37.425167 
L 222.384049 38.611803 
L 223.19772 38.985374 
L 224.011391 39.688566 
L 224.825061 40.237935 
L 227.266073 42.281586 
L 228.079743 42.962804 
L 231.334425 46.215066 
L 237.84379 52.148248 
L 238.65746 52.521819 
L 239.471131 53.334885 
L 240.284801 53.818329 
L 241.098472 54.675344 
L 241.912142 55.290637 
L 243.539484 57.026642 
L 245.166825 58.586849 
L 245.980495 59.224117 
L 246.794166 60.344829 
L 250.048848 63.531168 
L 250.862518 64.014612 
L 251.676189 64.695829 
L 253.30353 66.497759 
L 254.117201 67.66242 
L 256.558212 69.706072 
L 257.371883 70.453213 
L 258.999224 71.727749 
L 259.812894 72.540814 
L 262.253906 74.496567 
L 263.881247 75.859001 
L 265.508588 77.485133 
L 267.135929 78.627819 
L 268.76327 80.210001 
L 269.576941 80.671471 
L 271.204282 82.09983 
L 272.017952 82.781047 
L 272.831623 83.638062 
L 276.899976 86.736501 
L 277.713646 87.307845 
L 284.223011 93.021279 
L 285.036681 93.548673 
L 287.477693 95.6143 
L 291.546045 98.62484 
L 292.359716 99.328032 
L 293.173386 99.811476 
L 304.564774 108.601376 
L 305.378445 108.799148 
L 307.819456 110.161583 
L 308.633127 110.79885 
L 310.260468 111.67784 
L 312.701479 113.589643 
L 314.32882 114.908128 
L 316.769832 116.644133 
L 317.583503 117.501149 
L 319.210844 118.885558 
L 320.838185 119.698623 
L 335.484255 129.850957 
L 339.552607 132.509901 
L 341.179948 133.410866 
L 342.807289 134.509603 
L 343.62096 134.993048 
L 344.43463 135.344644 
L 349.316654 138.377159 
L 350.943995 139.256149 
L 351.757665 139.62972 
L 352.571336 140.179088 
L 353.385006 140.552659 
L 354.198677 141.102028 
L 357.453359 142.750134 
L 359.0807 143.738998 
L 363.962723 146.441892 
L 364.776394 146.61769 
L 365.590065 147.320881 
L 368.031076 148.419619 
L 371.285758 150.331422 
L 372.913099 151.144488 
L 375.354111 152.133351 
L 378.608793 153.715533 
L 380.236134 154.682422 
L 381.049805 154.990068 
L 386.745499 158.571952 
L 388.37284 159.297119 
L 389.18651 159.736614 
L 390.000181 160.044261 
L 390.813851 160.50573 
L 391.627522 160.791402 
L 392.441192 161.208922 
L 394.068533 162.351609 
L 396.509545 163.252574 
L 397.323216 163.670094 
L 398.136886 163.911816 
L 399.764227 164.834756 
L 400.577898 165.230301 
L 400.577898 165.230301 
" style="fill:none;stroke:#f10800;stroke-linecap:round;stroke-width:1.5;"/>
   </g>
   <g id="patch_3">
    <path d="M 59.690625 273.312 
L 59.690625 7.2 
" style="fill:none;stroke:#cccccc;stroke-linecap:square;stroke-linejoin:miter;stroke-width:0.8;"/>
   </g>
   <g id="patch_4">
    <path d="M 416.810625 273.312 
L 416.810625 7.2 
" style="fill:none;stroke:#cccccc;stroke-linecap:square;stroke-linejoin:miter;stroke-width:0.8;"/>
   </g>
   <g id="patch_5">
    <path d="M 59.690625 273.312 
L 416.810625 273.312 
" style="fill:none;stroke:#cccccc;stroke-linecap:square;stroke-linejoin:miter;stroke-width:0.8;"/>
   </g>
   <g id="patch_6">
    <path d="M 59.690625 7.2 
L 416.810625 7.2 
" style="fill:none;stroke:#cccccc;stroke-linecap:square;stroke-linejoin:miter;stroke-width:0.8;"/>
   </g>
  </g>
 </g>
 <defs>
  <clipPath id="pd3d4859a73">
   <rect height="266.112" width="357.12" x="59.690625" y="7.2"/>
  </clipPath>
 </defs>
</svg>
