<?xml version="1.0" encoding="utf-8" standalone="no"?>
<!DOCTYPE svg PUBLIC "-//W3C//DTD SVG 1.1//EN"
  "http://www.w3.org/Graphics/SVG/1.1/DTD/svg11.dtd">
<!-- Created with matplotlib (https://matplotlib.org/) -->
<svg height="310.86825pt" version="1.1" viewBox="0 0 417.648125 310.86825" width="417.648125pt" xmlns="http://www.w3.org/2000/svg" xmlns:xlink="http://www.w3.org/1999/xlink">
 <defs>
  <style type="text/css">
*{stroke-linecap:butt;stroke-linejoin:round;white-space:pre;}
  </style>
 </defs>
 <g id="figure_1">
  <g id="patch_1">
   <path d="M 0 310.86825 
L 417.648125 310.86825 
L 417.648125 0 
L 0 0 
z
" style="fill:#ffffff;"/>
  </g>
  <g id="axes_1">
   <g id="patch_2">
    <path d="M 53.328125 273.312 
L 410.448125 273.312 
L 410.448125 7.2 
L 53.328125 7.2 
z
" style="fill:#ffffff;"/>
   </g>
   <g id="matplotlib.axis_1">
    <g id="xtick_1">
     <g id="line2d_1">
      <path clip-path="url(#p3281b2ed9a)" d="M 69.560852 273.312 
L 69.560852 7.2 
" style="fill:none;stroke:#cccccc;stroke-linecap:round;stroke-width:0.8;"/>
     </g>
     <g id="text_1">
      <!-- 0 -->
      <defs>
       <path d="M 31.78125 66.40625 
Q 24.171875 66.40625 20.328125 58.90625 
Q 16.5 51.421875 16.5 36.375 
Q 16.5 21.390625 20.328125 13.890625 
Q 24.171875 6.390625 31.78125 6.390625 
Q 39.453125 6.390625 43.28125 13.890625 
Q 47.125 21.390625 47.125 36.375 
Q 47.125 51.421875 43.28125 58.90625 
Q 39.453125 66.40625 31.78125 66.40625 
z
M 31.78125 74.21875 
Q 44.046875 74.21875 50.515625 64.515625 
Q 56.984375 54.828125 56.984375 36.375 
Q 56.984375 17.96875 50.515625 8.265625 
Q 44.046875 -1.421875 31.78125 -1.421875 
Q 19.53125 -1.421875 13.0625 8.265625 
Q 6.59375 17.96875 6.59375 36.375 
Q 6.59375 54.828125 13.0625 64.515625 
Q 19.53125 74.21875 31.78125 74.21875 
z
" id="DejaVuSans-48"/>
      </defs>
      <g style="fill:#262626;" transform="translate(66.379602 287.910437)scale(0.1 -0.1)">
       <use xlink:href="#DejaVuSans-48"/>
      </g>
     </g>
    </g>
    <g id="xtick_2">
     <g id="line2d_2">
      <path clip-path="url(#p3281b2ed9a)" d="M 110.244379 273.312 
L 110.244379 7.2 
" style="fill:none;stroke:#cccccc;stroke-linecap:round;stroke-width:0.8;"/>
     </g>
     <g id="text_2">
      <!-- 5 -->
      <defs>
       <path d="M 10.796875 72.90625 
L 49.515625 72.90625 
L 49.515625 64.59375 
L 19.828125 64.59375 
L 19.828125 46.734375 
Q 21.96875 47.46875 24.109375 47.828125 
Q 26.265625 48.1875 28.421875 48.1875 
Q 40.625 48.1875 47.75 41.5 
Q 54.890625 34.8125 54.890625 23.390625 
Q 54.890625 11.625 47.5625 5.09375 
Q 40.234375 -1.421875 26.90625 -1.421875 
Q 22.3125 -1.421875 17.546875 -0.640625 
Q 12.796875 0.140625 7.71875 1.703125 
L 7.71875 11.625 
Q 12.109375 9.234375 16.796875 8.0625 
Q 21.484375 6.890625 26.703125 6.890625 
Q 35.15625 6.890625 40.078125 11.328125 
Q 45.015625 15.765625 45.015625 23.390625 
Q 45.015625 31 40.078125 35.4375 
Q 35.15625 39.890625 26.703125 39.890625 
Q 22.75 39.890625 18.8125 39.015625 
Q 14.890625 38.140625 10.796875 36.28125 
z
" id="DejaVuSans-53"/>
      </defs>
      <g style="fill:#262626;" transform="translate(107.063129 287.910437)scale(0.1 -0.1)">
       <use xlink:href="#DejaVuSans-53"/>
      </g>
     </g>
    </g>
    <g id="xtick_3">
     <g id="line2d_3">
      <path clip-path="url(#p3281b2ed9a)" d="M 150.927906 273.312 
L 150.927906 7.2 
" style="fill:none;stroke:#cccccc;stroke-linecap:round;stroke-width:0.8;"/>
     </g>
     <g id="text_3">
      <!-- 10 -->
      <defs>
       <path d="M 12.40625 8.296875 
L 28.515625 8.296875 
L 28.515625 63.921875 
L 10.984375 60.40625 
L 10.984375 69.390625 
L 28.421875 72.90625 
L 38.28125 72.90625 
L 38.28125 8.296875 
L 54.390625 8.296875 
L 54.390625 0 
L 12.40625 0 
z
" id="DejaVuSans-49"/>
      </defs>
      <g style="fill:#262626;" transform="translate(144.565406 287.910437)scale(0.1 -0.1)">
       <use xlink:href="#DejaVuSans-49"/>
       <use x="63.623047" xlink:href="#DejaVuSans-48"/>
      </g>
     </g>
    </g>
    <g id="xtick_4">
     <g id="line2d_4">
      <path clip-path="url(#p3281b2ed9a)" d="M 191.611433 273.312 
L 191.611433 7.2 
" style="fill:none;stroke:#cccccc;stroke-linecap:round;stroke-width:0.8;"/>
     </g>
     <g id="text_4">
      <!-- 15 -->
      <g style="fill:#262626;" transform="translate(185.248933 287.910437)scale(0.1 -0.1)">
       <use xlink:href="#DejaVuSans-49"/>
       <use x="63.623047" xlink:href="#DejaVuSans-53"/>
      </g>
     </g>
    </g>
    <g id="xtick_5">
     <g id="line2d_5">
      <path clip-path="url(#p3281b2ed9a)" d="M 232.29496 273.312 
L 232.29496 7.2 
" style="fill:none;stroke:#cccccc;stroke-linecap:round;stroke-width:0.8;"/>
     </g>
     <g id="text_5">
      <!-- 20 -->
      <defs>
       <path d="M 19.1875 8.296875 
L 53.609375 8.296875 
L 53.609375 0 
L 7.328125 0 
L 7.328125 8.296875 
Q 12.9375 14.109375 22.625 23.890625 
Q 32.328125 33.6875 34.8125 36.53125 
Q 39.546875 41.84375 41.421875 45.53125 
Q 43.3125 49.21875 43.3125 52.78125 
Q 43.3125 58.59375 39.234375 62.25 
Q 35.15625 65.921875 28.609375 65.921875 
Q 23.96875 65.921875 18.8125 64.3125 
Q 13.671875 62.703125 7.8125 59.421875 
L 7.8125 69.390625 
Q 13.765625 71.78125 18.9375 73 
Q 24.125 74.21875 28.421875 74.21875 
Q 39.75 74.21875 46.484375 68.546875 
Q 53.21875 62.890625 53.21875 53.421875 
Q 53.21875 48.921875 51.53125 44.890625 
Q 49.859375 40.875 45.40625 35.40625 
Q 44.1875 33.984375 37.640625 27.21875 
Q 31.109375 20.453125 19.1875 8.296875 
z
" id="DejaVuSans-50"/>
      </defs>
      <g style="fill:#262626;" transform="translate(225.93246 287.910437)scale(0.1 -0.1)">
       <use xlink:href="#DejaVuSans-50"/>
       <use x="63.623047" xlink:href="#DejaVuSans-48"/>
      </g>
     </g>
    </g>
    <g id="xtick_6">
     <g id="line2d_6">
      <path clip-path="url(#p3281b2ed9a)" d="M 272.978487 273.312 
L 272.978487 7.2 
" style="fill:none;stroke:#cccccc;stroke-linecap:round;stroke-width:0.8;"/>
     </g>
     <g id="text_6">
      <!-- 25 -->
      <g style="fill:#262626;" transform="translate(266.615987 287.910437)scale(0.1 -0.1)">
       <use xlink:href="#DejaVuSans-50"/>
       <use x="63.623047" xlink:href="#DejaVuSans-53"/>
      </g>
     </g>
    </g>
    <g id="xtick_7">
     <g id="line2d_7">
      <path clip-path="url(#p3281b2ed9a)" d="M 313.662014 273.312 
L 313.662014 7.2 
" style="fill:none;stroke:#cccccc;stroke-linecap:round;stroke-width:0.8;"/>
     </g>
     <g id="text_7">
      <!-- 30 -->
      <defs>
       <path d="M 40.578125 39.3125 
Q 47.65625 37.796875 51.625 33 
Q 55.609375 28.21875 55.609375 21.1875 
Q 55.609375 10.40625 48.1875 4.484375 
Q 40.765625 -1.421875 27.09375 -1.421875 
Q 22.515625 -1.421875 17.65625 -0.515625 
Q 12.796875 0.390625 7.625 2.203125 
L 7.625 11.71875 
Q 11.71875 9.328125 16.59375 8.109375 
Q 21.484375 6.890625 26.8125 6.890625 
Q 36.078125 6.890625 40.9375 10.546875 
Q 45.796875 14.203125 45.796875 21.1875 
Q 45.796875 27.640625 41.28125 31.265625 
Q 36.765625 34.90625 28.71875 34.90625 
L 20.21875 34.90625 
L 20.21875 43.015625 
L 29.109375 43.015625 
Q 36.375 43.015625 40.234375 45.921875 
Q 44.09375 48.828125 44.09375 54.296875 
Q 44.09375 59.90625 40.109375 62.90625 
Q 36.140625 65.921875 28.71875 65.921875 
Q 24.65625 65.921875 20.015625 65.03125 
Q 15.375 64.15625 9.8125 62.3125 
L 9.8125 71.09375 
Q 15.4375 72.65625 20.34375 73.4375 
Q 25.25 74.21875 29.59375 74.21875 
Q 40.828125 74.21875 47.359375 69.109375 
Q 53.90625 64.015625 53.90625 55.328125 
Q 53.90625 49.265625 50.4375 45.09375 
Q 46.96875 40.921875 40.578125 39.3125 
z
" id="DejaVuSans-51"/>
      </defs>
      <g style="fill:#262626;" transform="translate(307.299514 287.910437)scale(0.1 -0.1)">
       <use xlink:href="#DejaVuSans-51"/>
       <use x="63.623047" xlink:href="#DejaVuSans-48"/>
      </g>
     </g>
    </g>
    <g id="xtick_8">
     <g id="line2d_8">
      <path clip-path="url(#p3281b2ed9a)" d="M 354.345541 273.312 
L 354.345541 7.2 
" style="fill:none;stroke:#cccccc;stroke-linecap:round;stroke-width:0.8;"/>
     </g>
     <g id="text_8">
      <!-- 35 -->
      <g style="fill:#262626;" transform="translate(347.983041 287.910437)scale(0.1 -0.1)">
       <use xlink:href="#DejaVuSans-51"/>
       <use x="63.623047" xlink:href="#DejaVuSans-53"/>
      </g>
     </g>
    </g>
    <g id="xtick_9">
     <g id="line2d_9">
      <path clip-path="url(#p3281b2ed9a)" d="M 395.029068 273.312 
L 395.029068 7.2 
" style="fill:none;stroke:#cccccc;stroke-linecap:round;stroke-width:0.8;"/>
     </g>
     <g id="text_9">
      <!-- 40 -->
      <defs>
       <path d="M 37.796875 64.3125 
L 12.890625 25.390625 
L 37.796875 25.390625 
z
M 35.203125 72.90625 
L 47.609375 72.90625 
L 47.609375 25.390625 
L 58.015625 25.390625 
L 58.015625 17.1875 
L 47.609375 17.1875 
L 47.609375 0 
L 37.796875 0 
L 37.796875 17.1875 
L 4.890625 17.1875 
L 4.890625 26.703125 
z
" id="DejaVuSans-52"/>
      </defs>
      <g style="fill:#262626;" transform="translate(388.666568 287.910437)scale(0.1 -0.1)">
       <use xlink:href="#DejaVuSans-52"/>
       <use x="63.623047" xlink:href="#DejaVuSans-48"/>
      </g>
     </g>
    </g>
    <g id="text_10">
     <!-- time (days) -->
     <defs>
      <path d="M 18.3125 70.21875 
L 18.3125 54.6875 
L 36.8125 54.6875 
L 36.8125 47.703125 
L 18.3125 47.703125 
L 18.3125 18.015625 
Q 18.3125 11.328125 20.140625 9.421875 
Q 21.96875 7.515625 27.59375 7.515625 
L 36.8125 7.515625 
L 36.8125 0 
L 27.59375 0 
Q 17.1875 0 13.234375 3.875 
Q 9.28125 7.765625 9.28125 18.015625 
L 9.28125 47.703125 
L 2.6875 47.703125 
L 2.6875 54.6875 
L 9.28125 54.6875 
L 9.28125 70.21875 
z
" id="DejaVuSans-116"/>
      <path d="M 9.421875 54.6875 
L 18.40625 54.6875 
L 18.40625 0 
L 9.421875 0 
z
M 9.421875 75.984375 
L 18.40625 75.984375 
L 18.40625 64.59375 
L 9.421875 64.59375 
z
" id="DejaVuSans-105"/>
      <path d="M 52 44.1875 
Q 55.375 50.25 60.0625 53.125 
Q 64.75 56 71.09375 56 
Q 79.640625 56 84.28125 50.015625 
Q 88.921875 44.046875 88.921875 33.015625 
L 88.921875 0 
L 79.890625 0 
L 79.890625 32.71875 
Q 79.890625 40.578125 77.09375 44.375 
Q 74.3125 48.1875 68.609375 48.1875 
Q 61.625 48.1875 57.5625 43.546875 
Q 53.515625 38.921875 53.515625 30.90625 
L 53.515625 0 
L 44.484375 0 
L 44.484375 32.71875 
Q 44.484375 40.625 41.703125 44.40625 
Q 38.921875 48.1875 33.109375 48.1875 
Q 26.21875 48.1875 22.15625 43.53125 
Q 18.109375 38.875 18.109375 30.90625 
L 18.109375 0 
L 9.078125 0 
L 9.078125 54.6875 
L 18.109375 54.6875 
L 18.109375 46.1875 
Q 21.1875 51.21875 25.484375 53.609375 
Q 29.78125 56 35.6875 56 
Q 41.65625 56 45.828125 52.96875 
Q 50 49.953125 52 44.1875 
z
" id="DejaVuSans-109"/>
      <path d="M 56.203125 29.59375 
L 56.203125 25.203125 
L 14.890625 25.203125 
Q 15.484375 15.921875 20.484375 11.0625 
Q 25.484375 6.203125 34.421875 6.203125 
Q 39.59375 6.203125 44.453125 7.46875 
Q 49.3125 8.734375 54.109375 11.28125 
L 54.109375 2.78125 
Q 49.265625 0.734375 44.1875 -0.34375 
Q 39.109375 -1.421875 33.890625 -1.421875 
Q 20.796875 -1.421875 13.15625 6.1875 
Q 5.515625 13.8125 5.515625 26.8125 
Q 5.515625 40.234375 12.765625 48.109375 
Q 20.015625 56 32.328125 56 
Q 43.359375 56 49.78125 48.890625 
Q 56.203125 41.796875 56.203125 29.59375 
z
M 47.21875 32.234375 
Q 47.125 39.59375 43.09375 43.984375 
Q 39.0625 48.390625 32.421875 48.390625 
Q 24.90625 48.390625 20.390625 44.140625 
Q 15.875 39.890625 15.1875 32.171875 
z
" id="DejaVuSans-101"/>
      <path id="DejaVuSans-32"/>
      <path d="M 31 75.875 
Q 24.46875 64.65625 21.28125 53.65625 
Q 18.109375 42.671875 18.109375 31.390625 
Q 18.109375 20.125 21.3125 9.0625 
Q 24.515625 -2 31 -13.1875 
L 23.1875 -13.1875 
Q 15.875 -1.703125 12.234375 9.375 
Q 8.59375 20.453125 8.59375 31.390625 
Q 8.59375 42.28125 12.203125 53.3125 
Q 15.828125 64.359375 23.1875 75.875 
z
" id="DejaVuSans-40"/>
      <path d="M 45.40625 46.390625 
L 45.40625 75.984375 
L 54.390625 75.984375 
L 54.390625 0 
L 45.40625 0 
L 45.40625 8.203125 
Q 42.578125 3.328125 38.25 0.953125 
Q 33.9375 -1.421875 27.875 -1.421875 
Q 17.96875 -1.421875 11.734375 6.484375 
Q 5.515625 14.40625 5.515625 27.296875 
Q 5.515625 40.1875 11.734375 48.09375 
Q 17.96875 56 27.875 56 
Q 33.9375 56 38.25 53.625 
Q 42.578125 51.265625 45.40625 46.390625 
z
M 14.796875 27.296875 
Q 14.796875 17.390625 18.875 11.75 
Q 22.953125 6.109375 30.078125 6.109375 
Q 37.203125 6.109375 41.296875 11.75 
Q 45.40625 17.390625 45.40625 27.296875 
Q 45.40625 37.203125 41.296875 42.84375 
Q 37.203125 48.484375 30.078125 48.484375 
Q 22.953125 48.484375 18.875 42.84375 
Q 14.796875 37.203125 14.796875 27.296875 
z
" id="DejaVuSans-100"/>
      <path d="M 34.28125 27.484375 
Q 23.390625 27.484375 19.1875 25 
Q 14.984375 22.515625 14.984375 16.5 
Q 14.984375 11.71875 18.140625 8.90625 
Q 21.296875 6.109375 26.703125 6.109375 
Q 34.1875 6.109375 38.703125 11.40625 
Q 43.21875 16.703125 43.21875 25.484375 
L 43.21875 27.484375 
z
M 52.203125 31.203125 
L 52.203125 0 
L 43.21875 0 
L 43.21875 8.296875 
Q 40.140625 3.328125 35.546875 0.953125 
Q 30.953125 -1.421875 24.3125 -1.421875 
Q 15.921875 -1.421875 10.953125 3.296875 
Q 6 8.015625 6 15.921875 
Q 6 25.140625 12.171875 29.828125 
Q 18.359375 34.515625 30.609375 34.515625 
L 43.21875 34.515625 
L 43.21875 35.40625 
Q 43.21875 41.609375 39.140625 45 
Q 35.0625 48.390625 27.6875 48.390625 
Q 23 48.390625 18.546875 47.265625 
Q 14.109375 46.140625 10.015625 43.890625 
L 10.015625 52.203125 
Q 14.9375 54.109375 19.578125 55.046875 
Q 24.21875 56 28.609375 56 
Q 40.484375 56 46.34375 49.84375 
Q 52.203125 43.703125 52.203125 31.203125 
z
" id="DejaVuSans-97"/>
      <path d="M 32.171875 -5.078125 
Q 28.375 -14.84375 24.75 -17.8125 
Q 21.140625 -20.796875 15.09375 -20.796875 
L 7.90625 -20.796875 
L 7.90625 -13.28125 
L 13.1875 -13.28125 
Q 16.890625 -13.28125 18.9375 -11.515625 
Q 21 -9.765625 23.484375 -3.21875 
L 25.09375 0.875 
L 2.984375 54.6875 
L 12.5 54.6875 
L 29.59375 11.921875 
L 46.6875 54.6875 
L 56.203125 54.6875 
z
" id="DejaVuSans-121"/>
      <path d="M 44.28125 53.078125 
L 44.28125 44.578125 
Q 40.484375 46.53125 36.375 47.5 
Q 32.28125 48.484375 27.875 48.484375 
Q 21.1875 48.484375 17.84375 46.4375 
Q 14.5 44.390625 14.5 40.28125 
Q 14.5 37.15625 16.890625 35.375 
Q 19.28125 33.59375 26.515625 31.984375 
L 29.59375 31.296875 
Q 39.15625 29.25 43.1875 25.515625 
Q 47.21875 21.78125 47.21875 15.09375 
Q 47.21875 7.46875 41.1875 3.015625 
Q 35.15625 -1.421875 24.609375 -1.421875 
Q 20.21875 -1.421875 15.453125 -0.5625 
Q 10.6875 0.296875 5.421875 2 
L 5.421875 11.28125 
Q 10.40625 8.6875 15.234375 7.390625 
Q 20.0625 6.109375 24.8125 6.109375 
Q 31.15625 6.109375 34.5625 8.28125 
Q 37.984375 10.453125 37.984375 14.40625 
Q 37.984375 18.0625 35.515625 20.015625 
Q 33.0625 21.96875 24.703125 23.78125 
L 21.578125 24.515625 
Q 13.234375 26.265625 9.515625 29.90625 
Q 5.8125 33.546875 5.8125 39.890625 
Q 5.8125 47.609375 11.28125 51.796875 
Q 16.75 56 26.8125 56 
Q 31.78125 56 36.171875 55.265625 
Q 40.578125 54.546875 44.28125 53.078125 
z
" id="DejaVuSans-115"/>
      <path d="M 8.015625 75.875 
L 15.828125 75.875 
Q 23.140625 64.359375 26.78125 53.3125 
Q 30.421875 42.28125 30.421875 31.390625 
Q 30.421875 20.453125 26.78125 9.375 
Q 23.140625 -1.703125 15.828125 -13.1875 
L 8.015625 -13.1875 
Q 14.5 -2 17.703125 9.0625 
Q 20.90625 20.125 20.90625 31.390625 
Q 20.90625 42.671875 17.703125 53.65625 
Q 14.5 64.65625 8.015625 75.875 
z
" id="DejaVuSans-41"/>
     </defs>
     <g style="fill:#262626;" transform="translate(203.299063 301.588562)scale(0.1 -0.1)">
      <use xlink:href="#DejaVuSans-116"/>
      <use x="39.208984" xlink:href="#DejaVuSans-105"/>
      <use x="66.992188" xlink:href="#DejaVuSans-109"/>
      <use x="164.404297" xlink:href="#DejaVuSans-101"/>
      <use x="225.927734" xlink:href="#DejaVuSans-32"/>
      <use x="257.714844" xlink:href="#DejaVuSans-40"/>
      <use x="296.728516" xlink:href="#DejaVuSans-100"/>
      <use x="360.205078" xlink:href="#DejaVuSans-97"/>
      <use x="421.484375" xlink:href="#DejaVuSans-121"/>
      <use x="480.664062" xlink:href="#DejaVuSans-115"/>
      <use x="532.763672" xlink:href="#DejaVuSans-41"/>
     </g>
    </g>
   </g>
   <g id="matplotlib.axis_2">
    <g id="ytick_1">
     <g id="line2d_10">
      <path clip-path="url(#p3281b2ed9a)" d="M 53.328125 261.630767 
L 410.448125 261.630767 
" style="fill:none;stroke:#cccccc;stroke-linecap:round;stroke-width:0.8;"/>
     </g>
     <g id="text_11">
      <!-- 0 -->
      <g style="fill:#262626;" transform="translate(39.965625 265.429986)scale(0.1 -0.1)">
       <use xlink:href="#DejaVuSans-48"/>
      </g>
     </g>
    </g>
    <g id="ytick_2">
     <g id="line2d_11">
      <path clip-path="url(#p3281b2ed9a)" d="M 53.328125 206.328447 
L 410.448125 206.328447 
" style="fill:none;stroke:#cccccc;stroke-linecap:round;stroke-width:0.8;"/>
     </g>
     <g id="text_12">
      <!-- 2000 -->
      <g style="fill:#262626;" transform="translate(20.878125 210.127666)scale(0.1 -0.1)">
       <use xlink:href="#DejaVuSans-50"/>
       <use x="63.623047" xlink:href="#DejaVuSans-48"/>
       <use x="127.246094" xlink:href="#DejaVuSans-48"/>
       <use x="190.869141" xlink:href="#DejaVuSans-48"/>
      </g>
     </g>
    </g>
    <g id="ytick_3">
     <g id="line2d_12">
      <path clip-path="url(#p3281b2ed9a)" d="M 53.328125 151.026127 
L 410.448125 151.026127 
" style="fill:none;stroke:#cccccc;stroke-linecap:round;stroke-width:0.8;"/>
     </g>
     <g id="text_13">
      <!-- 4000 -->
      <g style="fill:#262626;" transform="translate(20.878125 154.825346)scale(0.1 -0.1)">
       <use xlink:href="#DejaVuSans-52"/>
       <use x="63.623047" xlink:href="#DejaVuSans-48"/>
       <use x="127.246094" xlink:href="#DejaVuSans-48"/>
       <use x="190.869141" xlink:href="#DejaVuSans-48"/>
      </g>
     </g>
    </g>
    <g id="ytick_4">
     <g id="line2d_13">
      <path clip-path="url(#p3281b2ed9a)" d="M 53.328125 95.723807 
L 410.448125 95.723807 
" style="fill:none;stroke:#cccccc;stroke-linecap:round;stroke-width:0.8;"/>
     </g>
     <g id="text_14">
      <!-- 6000 -->
      <defs>
       <path d="M 33.015625 40.375 
Q 26.375 40.375 22.484375 35.828125 
Q 18.609375 31.296875 18.609375 23.390625 
Q 18.609375 15.53125 22.484375 10.953125 
Q 26.375 6.390625 33.015625 6.390625 
Q 39.65625 6.390625 43.53125 10.953125 
Q 47.40625 15.53125 47.40625 23.390625 
Q 47.40625 31.296875 43.53125 35.828125 
Q 39.65625 40.375 33.015625 40.375 
z
M 52.59375 71.296875 
L 52.59375 62.3125 
Q 48.875 64.0625 45.09375 64.984375 
Q 41.3125 65.921875 37.59375 65.921875 
Q 27.828125 65.921875 22.671875 59.328125 
Q 17.53125 52.734375 16.796875 39.40625 
Q 19.671875 43.65625 24.015625 45.921875 
Q 28.375 48.1875 33.59375 48.1875 
Q 44.578125 48.1875 50.953125 41.515625 
Q 57.328125 34.859375 57.328125 23.390625 
Q 57.328125 12.15625 50.6875 5.359375 
Q 44.046875 -1.421875 33.015625 -1.421875 
Q 20.359375 -1.421875 13.671875 8.265625 
Q 6.984375 17.96875 6.984375 36.375 
Q 6.984375 53.65625 15.1875 63.9375 
Q 23.390625 74.21875 37.203125 74.21875 
Q 40.921875 74.21875 44.703125 73.484375 
Q 48.484375 72.75 52.59375 71.296875 
z
" id="DejaVuSans-54"/>
      </defs>
      <g style="fill:#262626;" transform="translate(20.878125 99.523025)scale(0.1 -0.1)">
       <use xlink:href="#DejaVuSans-54"/>
       <use x="63.623047" xlink:href="#DejaVuSans-48"/>
       <use x="127.246094" xlink:href="#DejaVuSans-48"/>
       <use x="190.869141" xlink:href="#DejaVuSans-48"/>
      </g>
     </g>
    </g>
    <g id="ytick_5">
     <g id="line2d_14">
      <path clip-path="url(#p3281b2ed9a)" d="M 53.328125 40.421486 
L 410.448125 40.421486 
" style="fill:none;stroke:#cccccc;stroke-linecap:round;stroke-width:0.8;"/>
     </g>
     <g id="text_15">
      <!-- 8000 -->
      <defs>
       <path d="M 31.78125 34.625 
Q 24.75 34.625 20.71875 30.859375 
Q 16.703125 27.09375 16.703125 20.515625 
Q 16.703125 13.921875 20.71875 10.15625 
Q 24.75 6.390625 31.78125 6.390625 
Q 38.8125 6.390625 42.859375 10.171875 
Q 46.921875 13.96875 46.921875 20.515625 
Q 46.921875 27.09375 42.890625 30.859375 
Q 38.875 34.625 31.78125 34.625 
z
M 21.921875 38.8125 
Q 15.578125 40.375 12.03125 44.71875 
Q 8.5 49.078125 8.5 55.328125 
Q 8.5 64.0625 14.71875 69.140625 
Q 20.953125 74.21875 31.78125 74.21875 
Q 42.671875 74.21875 48.875 69.140625 
Q 55.078125 64.0625 55.078125 55.328125 
Q 55.078125 49.078125 51.53125 44.71875 
Q 48 40.375 41.703125 38.8125 
Q 48.828125 37.15625 52.796875 32.3125 
Q 56.78125 27.484375 56.78125 20.515625 
Q 56.78125 9.90625 50.3125 4.234375 
Q 43.84375 -1.421875 31.78125 -1.421875 
Q 19.734375 -1.421875 13.25 4.234375 
Q 6.78125 9.90625 6.78125 20.515625 
Q 6.78125 27.484375 10.78125 32.3125 
Q 14.796875 37.15625 21.921875 38.8125 
z
M 18.3125 54.390625 
Q 18.3125 48.734375 21.84375 45.5625 
Q 25.390625 42.390625 31.78125 42.390625 
Q 38.140625 42.390625 41.71875 45.5625 
Q 45.3125 48.734375 45.3125 54.390625 
Q 45.3125 60.0625 41.71875 63.234375 
Q 38.140625 66.40625 31.78125 66.40625 
Q 25.390625 66.40625 21.84375 63.234375 
Q 18.3125 60.0625 18.3125 54.390625 
z
" id="DejaVuSans-56"/>
      </defs>
      <g style="fill:#262626;" transform="translate(20.878125 44.220705)scale(0.1 -0.1)">
       <use xlink:href="#DejaVuSans-56"/>
       <use x="63.623047" xlink:href="#DejaVuSans-48"/>
       <use x="127.246094" xlink:href="#DejaVuSans-48"/>
       <use x="190.869141" xlink:href="#DejaVuSans-48"/>
      </g>
     </g>
    </g>
    <g id="text_16">
     <!-- cells number -->
     <defs>
      <path d="M 48.78125 52.59375 
L 48.78125 44.1875 
Q 44.96875 46.296875 41.140625 47.34375 
Q 37.3125 48.390625 33.40625 48.390625 
Q 24.65625 48.390625 19.8125 42.84375 
Q 14.984375 37.3125 14.984375 27.296875 
Q 14.984375 17.28125 19.8125 11.734375 
Q 24.65625 6.203125 33.40625 6.203125 
Q 37.3125 6.203125 41.140625 7.25 
Q 44.96875 8.296875 48.78125 10.40625 
L 48.78125 2.09375 
Q 45.015625 0.34375 40.984375 -0.53125 
Q 36.96875 -1.421875 32.421875 -1.421875 
Q 20.0625 -1.421875 12.78125 6.34375 
Q 5.515625 14.109375 5.515625 27.296875 
Q 5.515625 40.671875 12.859375 48.328125 
Q 20.21875 56 33.015625 56 
Q 37.15625 56 41.109375 55.140625 
Q 45.0625 54.296875 48.78125 52.59375 
z
" id="DejaVuSans-99"/>
      <path d="M 9.421875 75.984375 
L 18.40625 75.984375 
L 18.40625 0 
L 9.421875 0 
z
" id="DejaVuSans-108"/>
      <path d="M 54.890625 33.015625 
L 54.890625 0 
L 45.90625 0 
L 45.90625 32.71875 
Q 45.90625 40.484375 42.875 44.328125 
Q 39.84375 48.1875 33.796875 48.1875 
Q 26.515625 48.1875 22.3125 43.546875 
Q 18.109375 38.921875 18.109375 30.90625 
L 18.109375 0 
L 9.078125 0 
L 9.078125 54.6875 
L 18.109375 54.6875 
L 18.109375 46.1875 
Q 21.34375 51.125 25.703125 53.5625 
Q 30.078125 56 35.796875 56 
Q 45.21875 56 50.046875 50.171875 
Q 54.890625 44.34375 54.890625 33.015625 
z
" id="DejaVuSans-110"/>
      <path d="M 8.5 21.578125 
L 8.5 54.6875 
L 17.484375 54.6875 
L 17.484375 21.921875 
Q 17.484375 14.15625 20.5 10.265625 
Q 23.53125 6.390625 29.59375 6.390625 
Q 36.859375 6.390625 41.078125 11.03125 
Q 45.3125 15.671875 45.3125 23.6875 
L 45.3125 54.6875 
L 54.296875 54.6875 
L 54.296875 0 
L 45.3125 0 
L 45.3125 8.40625 
Q 42.046875 3.421875 37.71875 1 
Q 33.40625 -1.421875 27.6875 -1.421875 
Q 18.265625 -1.421875 13.375 4.4375 
Q 8.5 10.296875 8.5 21.578125 
z
M 31.109375 56 
z
" id="DejaVuSans-117"/>
      <path d="M 48.6875 27.296875 
Q 48.6875 37.203125 44.609375 42.84375 
Q 40.53125 48.484375 33.40625 48.484375 
Q 26.265625 48.484375 22.1875 42.84375 
Q 18.109375 37.203125 18.109375 27.296875 
Q 18.109375 17.390625 22.1875 11.75 
Q 26.265625 6.109375 33.40625 6.109375 
Q 40.53125 6.109375 44.609375 11.75 
Q 48.6875 17.390625 48.6875 27.296875 
z
M 18.109375 46.390625 
Q 20.953125 51.265625 25.265625 53.625 
Q 29.59375 56 35.59375 56 
Q 45.5625 56 51.78125 48.09375 
Q 58.015625 40.1875 58.015625 27.296875 
Q 58.015625 14.40625 51.78125 6.484375 
Q 45.5625 -1.421875 35.59375 -1.421875 
Q 29.59375 -1.421875 25.265625 0.953125 
Q 20.953125 3.328125 18.109375 8.203125 
L 18.109375 0 
L 9.078125 0 
L 9.078125 75.984375 
L 18.109375 75.984375 
z
" id="DejaVuSans-98"/>
      <path d="M 41.109375 46.296875 
Q 39.59375 47.171875 37.8125 47.578125 
Q 36.03125 48 33.890625 48 
Q 26.265625 48 22.1875 43.046875 
Q 18.109375 38.09375 18.109375 28.8125 
L 18.109375 0 
L 9.078125 0 
L 9.078125 54.6875 
L 18.109375 54.6875 
L 18.109375 46.1875 
Q 20.953125 51.171875 25.484375 53.578125 
Q 30.03125 56 36.53125 56 
Q 37.453125 56 38.578125 55.875 
Q 39.703125 55.765625 41.0625 55.515625 
z
" id="DejaVuSans-114"/>
     </defs>
     <g style="fill:#262626;" transform="translate(14.798438 172.567719)rotate(-90)scale(0.1 -0.1)">
      <use xlink:href="#DejaVuSans-99"/>
      <use x="54.980469" xlink:href="#DejaVuSans-101"/>
      <use x="116.503906" xlink:href="#DejaVuSans-108"/>
      <use x="144.287109" xlink:href="#DejaVuSans-108"/>
      <use x="172.070312" xlink:href="#DejaVuSans-115"/>
      <use x="224.169922" xlink:href="#DejaVuSans-32"/>
      <use x="255.957031" xlink:href="#DejaVuSans-110"/>
      <use x="319.335938" xlink:href="#DejaVuSans-117"/>
      <use x="382.714844" xlink:href="#DejaVuSans-109"/>
      <use x="480.126953" xlink:href="#DejaVuSans-98"/>
      <use x="543.603516" xlink:href="#DejaVuSans-101"/>
      <use x="605.126953" xlink:href="#DejaVuSans-114"/>
     </g>
    </g>
   </g>
   <g id="line2d_15">
    <path clip-path="url(#p3281b2ed9a)" d="M 69.560852 261.188349 
L 70.374523 260.469419 
L 71.188193 259.916395 
L 72.001864 259.529279 
L 73.629205 258.146721 
L 74.442876 257.676652 
L 75.256546 256.847117 
L 76.070217 256.183489 
L 76.883887 255.685768 
L 77.697558 254.994489 
L 78.511228 254.55207 
L 80.138569 252.948303 
L 81.76591 251.980513 
L 82.579581 251.316885 
L 83.393251 250.929768 
L 84.206922 250.210838 
L 85.834263 249.326001 
L 86.647934 248.745327 
L 87.461604 248.441164 
L 89.902616 246.505583 
L 93.157298 244.265839 
L 94.784639 243.436304 
L 95.59831 242.938583 
L 97.225651 242.109048 
L 98.039321 241.279514 
L 100.480333 239.426886 
L 101.294003 238.901514 
L 103.735015 236.882979 
L 104.548685 236.385258 
L 106.176027 235.113305 
L 108.617038 233.288328 
L 110.244379 232.403491 
L 111.05805 231.712212 
L 112.685391 230.71677 
L 116.753744 227.896352 
L 117.567414 227.232724 
L 119.194755 226.209631 
L 120.008426 225.628957 
L 120.822096 224.799422 
L 122.449437 223.721027 
L 130.586143 217.665423 
L 132.213484 216.780586 
L 133.840825 215.425679 
L 136.281837 213.573051 
L 137.095507 212.743516 
L 137.909178 212.10754 
L 138.722848 211.250354 
L 141.97753 209.093563 
L 143.604871 207.876912 
L 145.232212 207.075028 
L 150.114236 203.397424 
L 151.741577 201.572448 
L 152.555247 200.68761 
L 153.368918 200.134587 
L 158.250941 195.793355 
L 162.319294 193.194146 
L 163.132964 192.779379 
L 165.573976 191.203263 
L 166.387647 190.401379 
L 168.014988 189.157077 
L 168.828658 188.797612 
L 171.26967 187.166193 
L 172.08334 186.502565 
L 172.897011 186.004844 
L 173.710681 185.147658 
L 174.524352 184.566984 
L 175.338022 184.152217 
L 178.592705 181.553008 
L 179.406375 181.110589 
L 180.220046 180.308705 
L 181.847387 179.036752 
L 182.661057 178.234868 
L 183.474728 177.79245 
L 184.288398 177.156473 
L 185.102069 176.686403 
L 190.797763 172.234567 
L 192.425104 170.464892 
L 194.866115 168.446358 
L 195.679786 168.059242 
L 197.307127 166.787288 
L 198.120798 166.400172 
L 198.934468 165.708893 
L 199.748139 165.294126 
L 200.561809 164.547544 
L 203.816491 162.446056 
L 204.630162 162.086591 
L 205.443832 161.201754 
L 210.325856 157.607103 
L 212.766867 155.616219 
L 213.580538 155.284406 
L 217.648891 152.51929 
L 220.089902 150.334848 
L 220.903573 149.615918 
L 222.530914 148.426918 
L 224.158255 147.182616 
L 224.971925 146.850802 
L 230.667619 142.481918 
L 231.48129 142.067151 
L 233.108631 140.795198 
L 234.735972 139.965663 
L 237.176984 137.75357 
L 237.990654 137.50471 
L 238.804325 137.089942 
L 241.245336 135.12671 
L 243.686348 133.827105 
L 245.313689 132.859315 
L 246.94103 131.725617 
L 250.195712 129.40292 
L 251.823053 128.407478 
L 252.636724 127.577943 
L 255.077735 126.223036 
L 256.705076 124.895781 
L 258.332418 123.817385 
L 259.146088 123.098455 
L 259.959759 122.600734 
L 260.773429 121.881804 
L 263.214441 120.250386 
L 268.096464 116.738688 
L 271.351146 114.858409 
L 272.164817 114.16713 
L 272.978487 113.226991 
L 280.301522 107.917968 
L 281.928863 106.590713 
L 282.742534 106.06534 
L 284.369875 104.544527 
L 285.183545 104.046806 
L 285.997216 102.940759 
L 286.810886 102.332434 
L 287.624557 101.475248 
L 290.065569 99.733225 
L 293.320251 97.687039 
L 294.133921 97.299923 
L 294.947592 96.553341 
L 297.388603 94.700714 
L 298.202274 93.815877 
L 301.456956 91.465528 
L 304.711638 89.308737 
L 305.525309 89.004575 
L 306.338979 88.368598 
L 307.15265 87.981482 
L 308.779991 86.681877 
L 311.221003 84.718645 
L 312.034673 84.331529 
L 313.662014 82.727761 
L 314.475685 82.147087 
L 315.289355 81.179296 
L 317.730367 79.050157 
L 318.544038 78.524785 
L 319.357708 77.667599 
L 321.79872 75.842622 
L 322.61239 75.455506 
L 324.239731 73.989995 
L 325.867072 72.773344 
L 326.680743 72.165018 
L 327.494413 71.7226 
L 329.121755 70.505949 
L 329.935425 69.952925 
L 331.562766 68.62567 
L 334.003778 66.9666 
L 334.817448 66.551833 
L 336.444789 65.224577 
L 338.07213 63.565507 
L 339.699472 62.487112 
L 340.513142 62.017042 
L 342.140483 60.662136 
L 342.954154 59.915554 
L 343.767824 59.362531 
L 347.022506 56.403857 
L 348.649847 55.270159 
L 350.277189 53.915252 
L 353.531871 52.062625 
L 355.972882 50.320602 
L 356.786553 49.988788 
L 359.227565 48.440323 
L 360.041235 47.527834 
L 362.482247 45.97937 
L 364.923258 43.877881 
L 366.550599 42.771835 
L 367.36427 42.384719 
L 368.991611 41.168068 
L 369.805282 40.476789 
L 371.432623 39.591952 
L 372.246293 38.817719 
L 380.382999 33.315138 
L 382.01034 31.987883 
L 382.82401 31.490162 
L 383.637681 30.798883 
L 384.451351 30.273511 
L 385.265022 29.388673 
L 390.147045 25.517511 
L 393.401727 23.554279 
L 394.215398 22.724744 
L 394.215398 22.724744 
" style="fill:none;stroke:#000080;stroke-linecap:round;stroke-width:1.5;"/>
   </g>
   <g id="line2d_16">
    <path clip-path="url(#p3281b2ed9a)" d="M 69.560852 261.077744 
L 71.188193 259.916395 
L 72.001864 259.031558 
L 72.815534 258.367931 
L 74.442876 257.566047 
L 76.070217 255.906977 
L 76.883887 255.409256 
L 78.511228 254.247908 
L 79.324899 253.667233 
L 80.95224 252.063466 
L 81.76591 251.178629 
L 82.579581 250.625606 
L 83.393251 249.879024 
L 84.206922 249.630164 
L 89.088945 246.118467 
L 92.343627 243.10449 
L 94.784639 241.003002 
L 95.59831 240.560583 
L 98.039321 238.542049 
L 100.480333 237.214793 
L 101.294003 236.606467 
L 102.107674 235.804584 
L 102.921344 235.362165 
L 104.548685 234.28377 
L 106.176027 233.315979 
L 106.989697 232.818259 
L 108.617038 231.463352 
L 111.87172 228.947096 
L 113.499061 228.172864 
L 114.312732 227.564538 
L 115.126403 227.12212 
L 116.753744 225.877817 
L 117.567414 225.518352 
L 120.822096 223.029748 
L 121.635767 222.172562 
L 124.890449 220.015771 
L 129.772472 216.365818 
L 130.586143 215.978702 
L 131.399813 215.066214 
L 133.840825 213.047679 
L 139.536519 208.927656 
L 140.350189 208.54054 
L 141.16386 207.987517 
L 142.791201 207.075028 
L 143.604871 206.577308 
L 144.418542 205.941331 
L 145.232212 205.637168 
L 146.859554 204.779982 
L 147.673224 204.448168 
L 148.486895 203.950447 
L 149.300565 203.259168 
L 150.114236 202.899703 
L 153.368918 200.549355 
L 154.182588 200.079285 
L 155.80993 198.77968 
L 157.437271 197.618332 
L 158.250941 197.231215 
L 161.505623 194.742611 
L 162.319294 193.885425 
L 169.642329 189.184728 
L 171.26967 188.410495 
L 172.897011 186.917333 
L 175.338022 185.009403 
L 176.151693 184.539333 
L 177.779034 183.018519 
L 179.406375 182.07838 
L 182.661057 179.423868 
L 183.474728 178.870845 
L 185.102069 177.32238 
L 186.72941 175.995124 
L 190.797763 173.561822 
L 191.611433 172.981148 
L 193.238774 171.681543 
L 199.748139 166.953195 
L 200.561809 166.455474 
L 201.37548 165.819498 
L 202.18915 165.377079 
L 204.630162 163.607405 
L 206.257503 162.446056 
L 207.071174 161.644172 
L 211.139526 158.464289 
L 212.766867 156.943475 
L 215.207879 155.118499 
L 216.83522 154.012452 
L 217.648891 153.210569 
L 218.462561 152.851103 
L 221.717243 150.251894 
L 222.530914 149.754174 
L 223.344584 149.090546 
L 225.785596 147.542081 
L 226.599266 146.684895 
L 229.040278 144.998174 
L 234.735972 140.684593 
L 235.549642 140.325128 
L 236.363313 139.772105 
L 238.804325 137.725919 
L 242.059007 135.513826 
L 243.686348 134.40778 
L 246.127359 132.914617 
L 248.568371 130.979036 
L 249.382042 130.536617 
L 251.009383 129.292315 
L 251.823053 128.849896 
L 256.705076 124.729874 
L 259.959759 121.798851 
L 263.214441 119.3932 
L 265.655452 117.844735 
L 267.282793 116.655735 
L 270.537476 113.641758 
L 271.351146 113.088735 
L 272.164817 112.2592 
L 272.978487 111.844433 
L 274.605828 110.627782 
L 275.419499 110.268317 
L 276.233169 109.494084 
L 279.487852 107.281992 
L 280.301522 106.977829 
L 281.115193 106.258899 
L 281.928863 105.733527 
L 283.556204 104.268015 
L 286.810886 102.111225 
L 287.624557 101.475248 
L 288.438228 100.618062 
L 291.69291 98.157109 
L 294.947592 96.221527 
L 295.761262 95.447295 
L 296.574933 94.977225 
L 297.388603 94.120039 
L 299.015945 92.737481 
L 299.829615 92.322714 
L 300.643286 91.631435 
L 301.456956 91.189016 
L 302.270627 90.414784 
L 303.084297 89.861761 
L 304.711638 88.617458 
L 305.525309 88.17504 
L 307.15265 87.068993 
L 307.96632 86.128854 
L 311.221003 83.972064 
L 312.034673 82.866017 
L 312.848344 82.534203 
L 314.475685 81.013389 
L 317.730367 78.801297 
L 320.985049 76.616855 
L 321.79872 75.78732 
L 322.61239 75.206646 
L 323.426061 74.266506 
L 325.053402 72.911599 
L 327.494413 70.865414 
L 330.749096 68.293856 
L 331.562766 67.353716 
L 332.376437 66.773042 
L 334.003778 65.30753 
L 336.444789 63.371949 
L 338.07213 62.210601 
L 338.885801 61.49167 
L 339.699472 61.132205 
L 340.513142 60.52388 
L 341.326813 59.749647 
L 345.395165 56.625066 
L 347.022506 55.104252 
L 347.836177 54.551229 
L 348.649847 54.191764 
L 349.463518 53.500485 
L 355.159212 49.933485 
L 356.786553 48.578579 
L 357.600223 47.914951 
L 361.668576 45.453997 
L 365.736929 42.467672 
L 366.550599 41.997602 
L 371.432623 38.458254 
L 377.941987 34.172324 
L 379.569328 32.789766 
L 380.382999 31.987883 
L 381.196669 31.545464 
L 382.01034 30.660627 
L 383.637681 29.361022 
L 384.451351 28.973906 
L 385.265022 28.254976 
L 386.078692 27.701953 
L 387.706033 26.817116 
L 390.147045 25.01979 
L 390.960716 24.522069 
L 394.215398 21.756953 
L 394.215398 21.756953 
" style="fill:none;stroke:#0000f1;stroke-linecap:round;stroke-width:1.5;"/>
   </g>
   <g id="line2d_17">
    <path clip-path="url(#p3281b2ed9a)" d="M 69.560852 261.022442 
L 70.374523 260.607674 
L 72.001864 259.197465 
L 74.442876 257.483093 
L 75.256546 256.736512 
L 76.070217 256.321745 
L 79.324899 253.280117 
L 80.95224 252.118768 
L 81.76591 251.482792 
L 83.393251 250.597955 
L 85.020593 249.464257 
L 85.834263 248.994187 
L 87.461604 247.694583 
L 89.902616 246.20142 
L 90.716286 245.537792 
L 91.529957 245.178327 
L 94.784639 242.772676 
L 95.59831 242.219653 
L 97.225651 241.417769 
L 98.039321 240.809444 
L 98.852992 239.841653 
L 99.666662 239.260979 
L 100.480333 239.012118 
L 101.294003 238.514398 
L 104.548685 235.970491 
L 106.176027 234.919747 
L 106.989697 234.339072 
L 107.803368 233.951956 
L 108.617038 233.426584 
L 110.244379 231.988724 
L 111.05805 231.629259 
L 112.685391 230.357305 
L 114.312732 229.195957 
L 115.126403 228.864143 
L 116.753744 227.647492 
L 118.381085 226.624399 
L 119.194755 225.988422 
L 120.822096 224.99298 
L 122.449437 223.444515 
L 125.70412 221.011213 
L 128.145131 219.849864 
L 131.399813 217.693074 
L 132.213484 217.278307 
L 133.027154 216.614679 
L 135.468166 215.038563 
L 137.909178 212.881772 
L 138.722848 212.439354 
L 139.536519 211.858679 
L 140.350189 211.139749 
L 144.418542 208.623493 
L 146.045883 207.738656 
L 147.673224 206.522005 
L 148.486895 206.190191 
L 149.300565 205.471261 
L 150.927906 204.503471 
L 152.555247 203.673936 
L 153.368918 202.955006 
L 154.996259 201.931913 
L 155.80993 201.544796 
L 157.437271 200.494052 
L 158.250941 200.023983 
L 162.319294 197.037657 
L 163.946635 196.097518 
L 164.760305 195.516844 
L 165.573976 195.157378 
L 166.387647 194.549053 
L 168.014988 193.691867 
L 168.828658 193.083541 
L 170.455999 191.673332 
L 172.08334 190.401379 
L 172.897011 190.097216 
L 173.710681 189.322984 
L 174.524352 188.908216 
L 175.338022 187.829821 
L 176.151693 187.138542 
L 176.965364 186.61317 
L 177.779034 186.36431 
L 179.406375 185.285914 
L 184.288398 181.746566 
L 187.543081 179.064403 
L 189.170422 178.345473 
L 192.425104 176.050427 
L 194.866115 174.557264 
L 195.679786 174.004241 
L 196.493457 173.644776 
L 203.816491 168.280451 
L 204.630162 167.810381 
L 205.443832 167.478567 
L 207.071174 166.234265 
L 207.884844 165.487684 
L 210.325856 164.160428 
L 211.139526 163.579754 
L 211.953197 163.192637 
L 221.717243 155.007894 
L 224.158255 153.01701 
L 224.971925 152.270429 
L 226.599266 151.10908 
L 227.412937 150.417801 
L 228.226608 150.030685 
L 229.040278 149.173499 
L 231.48129 147.486778 
L 232.29496 146.795499 
L 233.108631 146.32543 
L 235.549642 144.389848 
L 236.363313 144.002732 
L 237.990654 142.730779 
L 238.804325 142.233058 
L 239.617995 141.458825 
L 244.500018 138.030082 
L 247.754701 134.988454 
L 249.382042 133.93771 
L 250.195712 133.495291 
L 251.009383 132.693408 
L 253.450394 130.951385 
L 254.264065 130.508966 
L 255.077735 129.790036 
L 257.518747 128.352176 
L 260.773429 125.808269 
L 261.5871 125.504106 
L 263.214441 124.315106 
L 264.028111 123.430269 
L 265.655452 122.324223 
L 268.096464 120.250386 
L 269.723805 119.531455 
L 270.537476 118.92313 
L 271.351146 118.536014 
L 273.792158 116.849293 
L 274.605828 116.268619 
L 275.419499 115.549688 
L 276.233169 115.134921 
L 277.04684 114.333037 
L 281.115193 111.263759 
L 285.997216 108.028573 
L 287.624557 106.701317 
L 288.438228 106.258899 
L 289.251898 105.678224 
L 290.879239 104.793387 
L 294.133921 102.608945 
L 294.947592 101.862364 
L 295.761262 101.28169 
L 296.574933 100.839271 
L 297.388603 100.09269 
L 299.829615 98.240062 
L 303.084297 95.640853 
L 311.221003 90.304179 
L 312.848344 88.921621 
L 316.103026 86.211808 
L 316.916696 85.714087 
L 317.730367 85.022808 
L 320.171379 83.446692 
L 322.61239 81.289901 
L 323.426061 80.819831 
L 326.680743 78.248273 
L 327.494413 77.474041 
L 328.308084 76.948669 
L 329.121755 76.25739 
L 329.935425 75.732018 
L 331.562766 74.487716 
L 332.376437 74.072948 
L 333.190107 73.271065 
L 334.817448 72.165018 
L 335.631119 71.860855 
L 338.07213 70.035879 
L 338.885801 69.095739 
L 339.699472 68.376809 
L 342.140483 66.745391 
L 345.395165 63.897321 
L 348.649847 62.072345 
L 352.7182 59.168973 
L 354.345541 58.256485 
L 355.159212 57.592857 
L 355.972882 57.150438 
L 359.227565 54.495927 
L 361.668576 52.809206 
L 362.482247 51.813764 
L 364.923258 49.878183 
L 365.736929 49.214555 
L 367.36427 48.412672 
L 368.991611 47.278974 
L 369.805282 46.532393 
L 371.432623 45.5093 
L 372.246293 44.762718 
L 373.059964 44.458556 
L 377.128316 41.527533 
L 377.941987 40.587393 
L 379.569328 39.647254 
L 383.637681 37.020394 
L 384.451351 36.21851 
L 386.078692 35.057161 
L 386.892363 34.587092 
L 387.706033 33.757557 
L 388.519704 33.287487 
L 389.333374 32.596208 
L 390.147045 32.126138 
L 390.960716 31.296603 
L 391.774386 30.798883 
L 393.401727 29.167464 
L 394.215398 28.614441 
L 394.215398 28.614441 
" style="fill:none;stroke:#004cff;stroke-linecap:round;stroke-width:1.5;"/>
   </g>
   <g id="line2d_18">
    <path clip-path="url(#p3281b2ed9a)" d="M 69.560852 261.216 
L 73.629205 257.676652 
L 74.442876 256.874768 
L 78.511228 254.026698 
L 79.324899 253.556629 
L 80.95224 252.422931 
L 81.76591 251.952861 
L 82.579581 251.731652 
L 84.206922 250.763861 
L 85.020593 249.906676 
L 90.716286 245.924908 
L 92.343627 244.984769 
L 93.970968 243.629862 
L 94.784639 243.076839 
L 97.225651 240.920048 
L 99.666662 239.620444 
L 100.480333 239.012118 
L 101.294003 238.652653 
L 102.921344 237.353049 
L 104.548685 236.108747 
L 107.803368 233.592491 
L 108.617038 232.956514 
L 109.430709 232.652352 
L 110.244379 232.099328 
L 111.05805 231.214491 
L 111.87172 230.633817 
L 114.312732 228.532329 
L 119.194755 224.854724 
L 120.008426 224.467608 
L 125.70412 220.126376 
L 126.51779 219.379795 
L 127.331461 218.882074 
L 130.586143 216.338167 
L 132.213484 215.370377 
L 133.840825 214.485539 
L 134.654495 213.683656 
L 137.095507 212.024586 
L 137.909178 211.250354 
L 139.536519 210.171958 
L 140.350189 209.72954 
L 141.16386 208.927656 
L 141.97753 208.429935 
L 142.791201 207.793959 
L 144.418542 206.88147 
L 146.045883 205.526563 
L 146.859554 204.614075 
L 148.486895 203.563331 
L 150.927906 201.295936 
L 153.368918 199.747471 
L 158.250941 195.655099 
L 159.064612 194.71496 
L 163.946635 190.982053 
L 166.387647 189.433588 
L 168.014988 188.023379 
L 169.642329 186.917333 
L 172.897011 184.815845 
L 173.710681 184.290473 
L 174.524352 183.903356 
L 176.151693 182.548449 
L 178.592705 181.193543 
L 180.220046 180.308705 
L 181.033716 179.921589 
L 181.847387 179.23031 
L 183.474728 178.26252 
L 184.288398 177.460636 
L 185.915739 176.078078 
L 187.543081 174.419008 
L 190.797763 172.234567 
L 193.238774 170.326637 
L 194.052445 169.856567 
L 196.493457 167.506218 
L 197.307127 167.091451 
L 198.120798 166.483125 
L 198.934468 166.12366 
L 200.561809 164.851707 
L 201.37548 163.828614 
L 202.18915 163.137335 
L 203.816491 162.031289 
L 204.630162 161.505917 
L 205.443832 160.759335 
L 206.257503 160.178661 
L 207.071174 159.791545 
L 210.325856 157.385894 
L 212.766867 155.809778 
L 215.207879 153.874196 
L 219.276232 151.33029 
L 220.089902 150.583708 
L 220.903573 150.030685 
L 221.717243 149.698871 
L 227.412937 145.053476 
L 228.226608 144.66636 
L 229.040278 143.864476 
L 229.853949 143.394407 
L 230.667619 142.647825 
L 231.48129 142.205407 
L 232.29496 141.32057 
L 236.363313 138.113035 
L 238.804325 136.426314 
L 239.617995 135.735035 
L 240.431666 135.513826 
L 242.059007 134.463082 
L 242.872677 133.93771 
L 243.686348 133.578245 
L 244.500018 132.721059 
L 245.313689 132.168036 
L 246.127359 131.227896 
L 246.94103 130.896082 
L 248.568371 129.679431 
L 250.195712 128.296873 
L 251.009383 127.909757 
L 251.823053 127.246129 
L 252.636724 126.803711 
L 255.077735 125.061688 
L 255.891406 124.287455 
L 256.705076 123.706781 
L 257.518747 123.402618 
L 259.146088 122.185967 
L 259.959759 121.798851 
L 260.773429 121.107572 
L 261.5871 120.222734 
L 262.40077 119.780316 
L 264.028111 118.370107 
L 266.469123 116.462177 
L 267.282793 115.881502 
L 268.096464 115.522037 
L 269.723805 114.333037 
L 275.419499 109.798247 
L 277.04684 108.996363 
L 277.860511 108.166829 
L 279.487852 106.894875 
L 280.301522 106.424806 
L 281.115193 105.788829 
L 281.928863 105.401713 
L 282.742534 104.848689 
L 285.183545 103.493783 
L 285.997216 102.913108 
L 286.810886 102.553643 
L 287.624557 101.890015 
L 288.438228 101.447597 
L 289.251898 100.783969 
L 290.879239 99.15255 
L 294.133921 96.608644 
L 294.947592 95.80676 
L 295.761262 95.281388 
L 297.388603 94.009435 
L 298.202274 93.511714 
L 299.015945 92.70983 
L 300.643286 91.659086 
L 301.456956 90.912505 
L 303.084297 89.834109 
L 304.711638 88.451551 
L 307.15265 86.820133 
L 308.779991 85.879994 
L 310.407332 84.82925 
L 311.221003 84.082668 
L 315.289355 81.179296 
L 316.103026 80.432715 
L 317.730367 79.299017 
L 319.357708 77.556994 
L 325.867072 72.330925 
L 326.680743 71.529041 
L 327.494413 71.169576 
L 328.308084 70.395344 
L 329.935425 69.206344 
L 330.749096 68.432112 
L 332.376437 67.602577 
L 333.190107 66.800693 
L 335.631119 65.031019 
L 336.444789 64.201484 
L 342.140483 60.109112 
L 342.954154 59.279578 
L 345.395165 57.316345 
L 346.208836 56.459159 
L 347.022506 56.016741 
L 350.277189 53.279276 
L 351.90453 52.394439 
L 352.7182 51.730811 
L 353.531871 51.260741 
L 355.972882 49.242206 
L 361.668576 45.453997 
L 365.736929 42.605928 
L 366.550599 41.914649 
L 368.17794 40.97451 
L 368.991611 40.421486 
L 371.432623 38.292347 
L 375.500975 35.831394 
L 377.128316 34.55944 
L 377.941987 34.282929 
L 379.569328 33.038627 
L 383.637681 30.245859 
L 384.451351 29.692836 
L 385.265022 29.30572 
L 387.706033 27.231883 
L 388.519704 26.92772 
L 391.774386 24.30086 
L 392.588057 23.996697 
L 393.401727 23.471325 
L 394.215398 22.780046 
L 394.215398 22.780046 
" style="fill:none;stroke:#00b0ff;stroke-linecap:round;stroke-width:1.5;"/>
   </g>
   <g id="line2d_19">
    <path clip-path="url(#p3281b2ed9a)" d="M 69.560852 261.133047 
L 70.374523 260.303512 
L 72.001864 259.280419 
L 72.815534 258.423233 
L 73.629205 257.953163 
L 75.256546 256.68121 
L 76.883887 255.658117 
L 77.697558 255.049791 
L 78.511228 254.275559 
L 80.138569 253.169512 
L 80.95224 252.671792 
L 81.76591 251.648699 
L 82.579581 251.178629 
L 84.206922 249.851373 
L 85.020593 249.104792 
L 85.834263 248.607071 
L 86.647934 247.971094 
L 87.461604 247.694583 
L 89.088945 246.477932 
L 93.970968 243.629862 
L 96.41198 241.749583 
L 98.039321 240.754142 
L 98.852992 240.173467 
L 102.921344 236.634119 
L 106.989697 234.256119 
L 110.244379 231.933421 
L 115.940073 227.039166 
L 116.753744 226.486143 
L 117.567414 226.099027 
L 120.008426 224.163445 
L 121.635767 223.057399 
L 123.263108 221.868399 
L 124.076778 221.398329 
L 125.70412 219.877516 
L 126.51779 219.241539 
L 128.145131 218.273748 
L 128.958802 217.36126 
L 130.586143 216.531725 
L 131.399813 215.868097 
L 133.840825 214.513191 
L 134.654495 214.043121 
L 142.791201 208.042819 
L 143.604871 207.738656 
L 144.418542 207.296238 
L 145.232212 206.715563 
L 146.045883 206.466703 
L 146.859554 205.941331 
L 147.673224 205.277703 
L 150.114236 203.673936 
L 150.927906 203.148564 
L 152.555247 202.374331 
L 154.182588 201.019424 
L 155.80993 199.858076 
L 156.6236 199.139146 
L 157.437271 198.226657 
L 158.250941 197.81189 
L 159.878282 196.456983 
L 160.691953 196.014564 
L 162.319294 194.770262 
L 163.946635 193.77482 
L 167.201317 191.286216 
L 168.014988 190.567286 
L 169.642329 189.488891 
L 170.455999 188.714658 
L 172.08334 187.663914 
L 173.710681 186.474914 
L 175.338022 185.396519 
L 176.151693 185.120007 
L 176.965364 184.290473 
L 180.220046 182.520798 
L 182.661057 180.529915 
L 185.102069 178.953799 
L 186.72941 178.04131 
L 187.543081 177.267078 
L 189.170422 176.243985 
L 190.797763 174.750822 
L 191.611433 174.170148 
L 192.425104 173.25766 
L 193.238774 172.78759 
L 194.866115 171.377381 
L 195.679786 170.492544 
L 196.493457 170.077776 
L 197.307127 169.358846 
L 199.748139 167.755079 
L 201.37548 166.34487 
L 202.18915 165.40473 
L 204.630162 163.4968 
L 205.443832 162.584312 
L 208.698515 159.846847 
L 210.325856 158.96201 
L 211.139526 158.298382 
L 211.953197 157.828312 
L 212.766867 157.026429 
L 214.394208 155.892731 
L 216.83522 154.371917 
L 217.648891 153.846545 
L 220.089902 151.966266 
L 221.717243 150.694313 
L 222.530914 149.864778 
L 223.344584 149.42236 
L 224.158255 148.841685 
L 224.971925 148.454569 
L 225.785596 147.929197 
L 229.853949 144.721662 
L 231.48129 143.643267 
L 233.108631 142.703128 
L 243.686348 134.711942 
L 246.127359 132.555152 
L 246.94103 132.140385 
L 252.636724 128.241571 
L 255.077735 126.195385 
L 256.705076 125.310548 
L 257.518747 124.840478 
L 259.146088 123.568525 
L 261.5871 122.26892 
L 263.214441 120.996967 
L 264.841782 119.586758 
L 265.655452 119.144339 
L 266.469123 118.397758 
L 267.282793 117.982991 
L 268.910135 116.766339 
L 269.723805 116.240967 
L 271.351146 114.720154 
L 273.792158 113.061084 
L 275.419499 111.761479 
L 276.233169 111.180805 
L 278.674181 109.881201 
L 279.487852 109.189922 
L 281.115193 108.360387 
L 283.556204 106.784271 
L 284.369875 105.982387 
L 285.997216 105.069899 
L 287.624557 104.129759 
L 288.438228 103.466131 
L 289.251898 102.968411 
L 292.50658 100.479806 
L 296.574933 97.742341 
L 299.015945 95.972667 
L 299.829615 95.447295 
L 301.456956 94.230644 
L 302.270627 93.788225 
L 303.897968 92.571574 
L 304.711638 92.073853 
L 305.525309 91.354923 
L 308.779991 89.419342 
L 310.407332 88.147389 
L 315.289355 84.690994 
L 316.916696 83.142529 
L 319.357708 81.206948 
L 320.171379 80.764529 
L 320.985049 80.045599 
L 321.79872 79.520227 
L 322.61239 78.828948 
L 324.239731 77.69525 
L 325.053402 77.391087 
L 325.867072 76.865715 
L 327.494413 75.427855 
L 329.935425 74.072948 
L 330.749096 73.519925 
L 331.562766 72.69039 
L 334.003778 70.727158 
L 335.631119 69.178693 
L 340.513142 65.52874 
L 341.326813 64.671554 
L 342.140483 64.146182 
L 345.395165 61.629926 
L 348.649847 59.417833 
L 349.463518 59.113671 
L 350.277189 58.588299 
L 351.090859 57.814066 
L 351.90453 57.371648 
L 355.159212 54.274718 
L 355.972882 53.804648 
L 356.786553 53.002764 
L 357.600223 52.034974 
L 360.041235 50.182346 
L 361.668576 49.186904 
L 362.482247 48.523276 
L 364.109588 47.555486 
L 364.923258 46.808904 
L 365.736929 46.22823 
L 367.36427 44.707416 
L 368.17794 43.85023 
L 369.805282 42.716533 
L 371.432623 41.306323 
L 375.500975 38.319998 
L 376.314646 37.684021 
L 377.128316 36.854487 
L 380.382999 34.504138 
L 381.196669 33.702254 
L 382.82401 32.513255 
L 383.637681 31.739022 
L 386.078692 29.914045 
L 386.892363 29.084511 
L 388.519704 28.089069 
L 390.147045 26.844767 
L 390.960716 26.20879 
L 392.588057 24.715627 
L 394.215398 23.609581 
L 394.215398 23.609581 
" style="fill:none;stroke:#29ffce;stroke-linecap:round;stroke-width:1.5;"/>
   </g>
   <g id="line2d_20">
    <path clip-path="url(#p3281b2ed9a)" d="M 69.560852 261.050093 
L 70.374523 260.552372 
L 71.188193 259.77814 
L 72.001864 259.473977 
L 72.815534 258.616791 
L 76.070217 256.542954 
L 76.883887 255.96228 
L 77.697558 255.243349 
L 78.511228 254.856233 
L 80.138569 253.750187 
L 80.95224 253.003605 
L 81.76591 252.505885 
L 82.579581 251.814606 
L 83.393251 251.45514 
L 84.206922 250.680908 
L 85.834263 249.713117 
L 90.716286 246.007862 
L 91.529957 245.593095 
L 93.157298 244.459397 
L 94.784639 243.298048 
L 95.59831 242.606769 
L 96.41198 242.192002 
L 97.225651 241.556025 
L 98.852992 240.72649 
L 99.666662 240.035211 
L 100.480333 239.509839 
L 101.294003 238.680304 
L 102.107674 238.09963 
L 102.921344 237.3807 
L 104.548685 236.274654 
L 105.362356 235.583375 
L 106.989697 234.504979 
L 109.430709 232.790607 
L 113.499061 230.080794 
L 115.940073 228.034608 
L 116.753744 227.61984 
L 119.194755 225.850166 
L 120.008426 225.103585 
L 120.822096 224.578213 
L 125.70412 220.541143 
L 128.958802 217.886632 
L 130.586143 216.227562 
L 132.213484 215.038563 
L 133.027154 214.568493 
L 134.654495 213.324191 
L 135.468166 213.07533 
L 138.722848 210.973842 
L 140.350189 210.033703 
L 141.16386 209.25947 
L 142.791201 208.098121 
L 144.418542 207.10268 
L 146.045883 206.439052 
L 149.300565 204.226959 
L 150.114236 203.729238 
L 151.741577 202.484936 
L 152.555247 202.042517 
L 153.368918 201.461843 
L 154.996259 199.996331 
L 155.80993 199.526262 
L 156.6236 198.917936 
L 157.437271 198.143704 
L 159.064612 196.982355 
L 160.691953 195.489192 
L 162.319294 194.272541 
L 163.946635 193.221797 
L 165.573976 191.949844 
L 166.387647 191.590379 
L 168.014988 190.42903 
L 168.828658 189.737751 
L 169.642329 189.405937 
L 171.26967 188.410495 
L 172.08334 187.691565 
L 172.897011 187.3321 
L 173.710681 186.806728 
L 175.338022 185.396519 
L 176.965364 184.428728 
L 181.033716 181.829519 
L 181.847387 181.470054 
L 182.661057 180.972333 
L 185.102069 178.898496 
L 186.72941 177.820101 
L 189.984092 175.248543 
L 190.797763 174.723171 
L 191.611433 174.004241 
L 192.425104 173.50652 
L 194.052445 172.041009 
L 196.493457 169.884218 
L 197.307127 169.4418 
L 198.934468 168.169846 
L 202.18915 165.8748 
L 203.002821 164.962312 
L 205.443832 163.469149 
L 206.257503 162.667265 
L 207.884844 161.616521 
L 208.698515 161.035847 
L 209.512185 160.593428 
L 212.766867 158.270731 
L 213.580538 157.855963 
L 214.394208 157.192336 
L 215.207879 156.694615 
L 217.648891 154.20601 
L 218.462561 153.542382 
L 219.276232 153.23822 
L 220.089902 152.712848 
L 220.903573 151.993917 
L 221.717243 151.523848 
L 223.344584 150.168941 
L 224.158255 149.284104 
L 226.599266 147.569732 
L 227.412937 146.878453 
L 228.226608 146.463685 
L 229.040278 145.689453 
L 229.853949 145.191732 
L 234.735972 141.265267 
L 236.363313 139.938012 
L 237.990654 138.251291 
L 238.804325 137.670617 
L 239.617995 136.896384 
L 241.245336 135.900942 
L 242.059007 135.016105 
L 243.686348 133.661198 
L 244.500018 133.274082 
L 246.94103 131.725617 
L 248.568371 130.785478 
L 251.009383 128.988152 
L 251.823053 128.269222 
L 252.636724 127.965059 
L 255.077735 126.08478 
L 255.891406 125.282897 
L 257.518747 124.259804 
L 258.332418 123.374967 
L 259.146088 122.656037 
L 259.959759 122.185967 
L 260.773429 121.439386 
L 262.40077 120.5822 
L 263.214441 120.029176 
L 264.841782 118.591316 
L 265.655452 118.2042 
L 267.282793 116.655735 
L 268.096464 116.130363 
L 269.723805 114.830758 
L 271.351146 113.780014 
L 272.164817 113.033433 
L 272.978487 112.48041 
L 274.605828 111.180805 
L 277.04684 109.577038 
L 277.860511 108.802805 
L 278.674181 108.19448 
L 279.487852 107.392596 
L 280.301522 106.811922 
L 281.115193 106.092992 
L 281.928863 105.733527 
L 285.183545 103.106666 
L 287.624557 100.922225 
L 288.438228 100.424504 
L 290.065569 98.793085 
L 290.879239 98.43362 
L 299.829615 91.465528 
L 301.456956 90.497737 
L 302.270627 89.806458 
L 303.084297 89.308737 
L 303.897968 88.479203 
L 305.525309 87.428459 
L 307.15265 85.714087 
L 309.593662 84.027366 
L 310.407332 83.197831 
L 313.662014 80.460366 
L 314.475685 79.60318 
L 316.103026 78.63539 
L 318.544038 76.782762 
L 319.357708 76.340343 
L 320.171379 75.593762 
L 320.985049 75.040739 
L 322.61239 74.321809 
L 326.680743 71.390786 
L 327.494413 71.031321 
L 329.121755 69.952925 
L 329.935425 69.510507 
L 331.562766 68.044995 
L 332.376437 67.464321 
L 334.817448 65.390484 
L 335.631119 64.892763 
L 337.25846 63.703763 
L 338.885801 62.570066 
L 339.699472 61.878787 
L 340.513142 61.436368 
L 341.326813 60.717438 
L 342.140483 60.219717 
L 342.954154 59.528438 
L 343.767824 59.086019 
L 344.581495 58.367089 
L 347.022506 56.818624 
L 348.649847 55.76788 
L 350.277189 54.191764 
L 351.090859 53.472834 
L 355.159212 50.956578 
L 361.668576 45.951718 
L 362.482247 45.094532 
L 363.295917 44.513858 
L 365.736929 42.467672 
L 367.36427 41.527533 
L 368.17794 41.112765 
L 368.991611 40.200277 
L 369.805282 39.647254 
L 370.618952 38.873021 
L 371.432623 38.292347 
L 372.246293 37.518115 
L 373.059964 36.992742 
L 373.873634 36.080254 
L 376.314646 34.006417 
L 377.128316 33.59165 
L 379.569328 31.573115 
L 384.451351 28.365581 
L 388.519704 26.181139 
L 389.333374 25.572813 
L 390.147045 24.798581 
L 391.774386 23.692534 
L 394.215398 21.839907 
L 394.215398 21.839907 
" style="fill:none;stroke:#7dff7a;stroke-linecap:round;stroke-width:1.5;"/>
   </g>
   <g id="line2d_21">
    <path clip-path="url(#p3281b2ed9a)" d="M 69.560852 261.077744 
L 70.374523 260.303512 
L 72.815534 258.948605 
L 73.629205 258.395582 
L 76.070217 256.266442 
L 77.697558 255.02214 
L 79.324899 253.639582 
L 81.76591 251.538094 
L 82.579581 251.040373 
L 83.393251 250.376745 
L 84.206922 249.934327 
L 85.020593 249.657815 
L 85.834263 249.215397 
L 89.088945 246.782094 
L 89.902616 246.477932 
L 93.970968 243.546909 
L 94.784639 242.827979 
L 98.039321 240.505281 
L 100.480333 238.625002 
L 101.294003 237.906072 
L 102.107674 237.518956 
L 104.548685 235.666328 
L 109.430709 231.961073 
L 110.244379 231.463352 
L 111.05805 230.827375 
L 111.87172 230.412608 
L 114.312732 228.255817 
L 115.940073 227.481585 
L 116.753744 227.011515 
L 118.381085 225.905469 
L 120.008426 224.799422 
L 122.449437 223.029748 
L 124.076778 221.674841 
L 124.890449 221.398329 
L 126.51779 220.430539 
L 129.772472 217.886632 
L 131.399813 216.780586 
L 133.840825 215.232121 
L 134.654495 214.402586 
L 136.281837 213.517749 
L 140.350189 210.365517 
L 141.97753 209.25947 
L 142.791201 208.346982 
L 146.045883 205.609517 
L 146.859554 205.19475 
L 149.300565 203.176215 
L 150.927906 202.125471 
L 152.555247 201.130029 
L 154.182588 199.913378 
L 155.80993 198.890285 
L 156.6236 198.364913 
L 159.878282 195.738053 
L 162.319294 193.885425 
L 163.132964 193.415355 
L 164.760305 192.115751 
L 166.387647 190.982053 
L 168.014988 189.516542 
L 169.642329 188.355193 
L 170.455999 187.663914 
L 171.26967 187.276798 
L 172.08334 186.447263 
L 172.897011 185.977193 
L 174.524352 184.511682 
L 175.338022 183.98631 
L 177.779034 182.07838 
L 178.592705 181.580659 
L 179.406375 180.778775 
L 181.847387 179.23031 
L 182.661057 178.815543 
L 184.288398 177.571241 
L 185.102069 177.211776 
L 187.543081 175.359148 
L 189.984092 174.004241 
L 193.238774 171.322078 
L 194.866115 170.022474 
L 196.493457 168.722869 
L 198.934468 167.0638 
L 199.748139 166.372521 
L 202.18915 165.017614 
L 203.002821 164.409288 
L 203.816491 163.96687 
L 204.630162 163.358544 
L 205.443832 162.529009 
L 206.257503 162.003637 
L 207.884844 160.786986 
L 208.698515 160.261614 
L 209.512185 159.293824 
L 211.139526 158.132475 
L 211.953197 157.385894 
L 213.580538 156.33515 
L 215.207879 154.92494 
L 216.83522 153.763592 
L 223.344584 148.122755 
L 224.158255 147.735639 
L 224.971925 146.878453 
L 225.785596 146.297778 
L 226.599266 146.021267 
L 227.412937 145.495895 
L 233.922301 140.242174 
L 234.735972 139.855058 
L 237.176984 137.947128 
L 240.431666 135.956245 
L 241.245336 135.264966 
L 242.059007 134.380128 
L 243.686348 133.301733 
L 245.313689 131.946826 
L 246.127359 131.476757 
L 247.754701 130.204803 
L 250.195712 127.99271 
L 251.823053 126.914315 
L 253.450394 125.83592 
L 255.077735 124.536315 
L 256.705076 123.45792 
L 261.5871 119.282595 
L 267.282793 115.770898 
L 268.096464 115.10727 
L 268.910135 114.720154 
L 269.723805 114.001223 
L 270.537476 113.503503 
L 272.164817 112.342154 
L 276.233169 109.466433 
L 277.04684 108.66455 
L 277.860511 108.19448 
L 279.487852 106.839573 
L 280.301522 106.480108 
L 281.115193 105.788829 
L 284.369875 103.853248 
L 285.997216 102.664248 
L 287.624557 101.447597 
L 289.251898 100.175643 
L 290.065569 99.37376 
L 290.879239 99.041946 
L 296.574933 94.921923 
L 297.388603 94.451853 
L 298.202274 94.120039 
L 299.829615 93.124598 
L 301.456956 91.493179 
L 302.270627 91.078412 
L 303.084297 90.497737 
L 303.897968 89.723505 
L 311.221003 84.718645 
L 312.034673 84.027366 
L 313.662014 82.948971 
L 316.103026 81.096343 
L 316.916696 80.819831 
L 317.730367 80.100901 
L 321.79872 77.529343 
L 326.680743 72.994553 
L 328.308084 71.888507 
L 333.190107 68.653321 
L 334.003778 67.851437 
L 335.631119 66.71774 
L 337.25846 65.666996 
L 338.07213 65.086321 
L 338.885801 64.312089 
L 347.022506 58.367089 
L 348.649847 57.178089 
L 350.277189 55.629624 
L 351.90453 54.717136 
L 352.7182 53.915252 
L 355.159212 52.200881 
L 357.600223 51.039532 
L 359.227565 49.905834 
L 360.041235 49.242206 
L 360.854906 48.772137 
L 361.668576 48.13616 
L 362.482247 47.749044 
L 366.550599 44.513858 
L 368.17794 43.60137 
L 368.991611 42.937742 
L 369.805282 42.108207 
L 373.059964 39.508998 
L 378.755657 35.554882 
L 379.569328 34.891254 
L 380.382999 34.531789 
L 382.01034 33.093929 
L 385.265022 30.992441 
L 386.892363 29.582232 
L 387.706033 28.863301 
L 389.333374 27.812557 
L 392.588057 24.992139 
L 394.215398 23.996697 
L 394.215398 23.996697 
" style="fill:none;stroke:#ceff29;stroke-linecap:round;stroke-width:1.5;"/>
   </g>
   <g id="line2d_22">
    <path clip-path="url(#p3281b2ed9a)" d="M 69.560852 261.160698 
L 75.256546 256.985372 
L 76.070217 256.542954 
L 76.883887 255.796373 
L 77.697558 255.49221 
L 79.324899 254.137303 
L 80.138569 253.335419 
L 80.95224 252.367629 
L 88.275275 247.362769 
L 92.343627 244.016978 
L 93.157298 243.685164 
L 95.59831 242.053746 
L 96.41198 241.224211 
L 97.225651 240.201118 
L 99.666662 238.320839 
L 102.107674 236.634119 
L 109.430709 231.269794 
L 111.05805 230.302003 
L 111.87172 229.610724 
L 112.685391 229.140654 
L 114.312732 227.951654 
L 115.126403 227.481585 
L 115.940073 227.205073 
L 116.753744 226.569096 
L 117.567414 226.126678 
L 118.381085 225.407748 
L 120.008426 224.191097 
L 123.263108 221.674841 
L 124.890449 220.568795 
L 125.70412 220.043423 
L 126.51779 219.379795 
L 128.145131 217.858981 
L 128.958802 217.140051 
L 129.772472 216.199911 
L 130.586143 215.536283 
L 131.399813 214.540842 
L 132.213484 213.849563 
L 133.027154 213.434795 
L 134.654495 211.996935 
L 136.281837 210.91854 
L 137.095507 210.642028 
L 137.909178 209.950749 
L 139.536519 208.927656 
L 140.350189 208.264028 
L 141.97753 206.522005 
L 143.604871 205.415959 
L 144.418542 205.001191 
L 146.045883 203.812192 
L 146.859554 203.369773 
L 150.927906 200.355797 
L 151.741577 199.913378 
L 152.555247 199.222099 
L 153.368918 198.696727 
L 155.80993 196.788797 
L 158.250941 195.350937 
L 159.064612 194.797913 
L 160.691953 193.415355 
L 161.505623 192.945286 
L 162.319294 192.226355 
L 164.760305 191.037356 
L 167.201317 189.018821 
L 173.710681 184.041612 
L 175.338022 182.852612 
L 176.965364 181.497705 
L 177.779034 181.110589 
L 178.592705 180.585217 
L 181.033716 178.539031 
L 182.661057 177.488287 
L 183.474728 176.879962 
L 184.288398 176.050427 
L 187.543081 173.478869 
L 191.611433 170.630799 
L 193.238774 169.054683 
L 194.052445 168.584614 
L 194.866115 167.948637 
L 196.493457 166.400172 
L 198.120798 165.542986 
L 199.748139 164.381637 
L 202.18915 162.860823 
L 206.257503 160.482824 
L 207.071174 159.68094 
L 207.884844 159.266173 
L 209.512185 157.938917 
L 211.139526 156.666964 
L 216.021549 153.127615 
L 217.648891 152.29808 
L 218.462561 151.717406 
L 219.276232 151.274987 
L 220.903573 149.975383 
L 226.599266 145.468244 
L 228.226608 144.140988 
L 229.040278 143.753872 
L 229.853949 143.117895 
L 230.667619 142.316011 
L 231.48129 141.928895 
L 234.735972 139.772105 
L 235.549642 139.384988 
L 237.176984 137.974779 
L 237.990654 137.145244 
L 245.313689 131.421454 
L 246.94103 129.928292 
L 247.754701 129.375268 
L 249.382042 127.99271 
L 250.195712 126.997269 
L 255.077735 123.706781 
L 259.146088 121.522339 
L 259.959759 120.969316 
L 260.773429 120.637502 
L 263.214441 118.840176 
L 264.841782 117.374665 
L 266.469123 116.379223 
L 267.282793 115.798549 
L 268.096464 115.383781 
L 268.910135 114.692502 
L 271.351146 113.005782 
L 272.164817 112.397456 
L 272.978487 111.623224 
L 274.605828 110.35127 
L 275.419499 109.577038 
L 276.233169 109.16227 
L 277.04684 108.415689 
L 278.674181 107.392596 
L 281.115193 105.595271 
L 282.742534 104.793387 
L 284.369875 103.106666 
L 285.183545 102.304783 
L 285.997216 101.890015 
L 287.624557 100.535108 
L 290.065569 98.820737 
L 290.879239 98.18476 
L 291.69291 97.825295 
L 292.50658 97.161667 
L 293.320251 96.663946 
L 294.133921 96.000318 
L 294.947592 95.502597 
L 295.761262 94.700714 
L 299.829615 91.659086 
L 300.643286 90.8019 
L 303.897968 88.119738 
L 306.338979 86.156505 
L 307.96632 85.216366 
L 308.779991 84.580389 
L 309.593662 83.778505 
L 310.407332 83.253133 
L 311.221003 82.921319 
L 312.848344 81.898227 
L 313.662014 81.068692 
L 314.475685 80.709227 
L 316.103026 79.630831 
L 318.544038 77.612297 
L 319.357708 76.97632 
L 320.171379 76.533901 
L 321.79872 75.31725 
L 322.61239 74.791878 
L 324.239731 73.492274 
L 325.867072 72.330925 
L 329.121755 70.229437 
L 329.935425 69.538158 
L 331.562766 68.487414 
L 334.003778 66.275321 
L 334.817448 65.694647 
L 335.631119 65.279879 
L 336.444789 64.560949 
L 337.25846 64.118531 
L 338.885801 62.570066 
L 341.326813 61.270461 
L 343.767824 59.390182 
L 344.581495 58.560647 
L 345.395165 58.007624 
L 346.208836 57.648159 
L 347.022506 56.929229 
L 347.836177 56.569764 
L 351.90453 52.975113 
L 355.159212 50.707718 
L 355.972882 49.933485 
L 356.786553 49.463416 
L 357.600223 48.689183 
L 359.227565 47.555486 
L 360.041235 46.753602 
L 361.668576 45.619904 
L 362.482247 45.315742 
L 364.109588 44.209695 
L 364.923258 43.656672 
L 365.736929 42.688881 
L 367.36427 41.638137 
L 368.991611 40.532091 
L 369.805282 40.006719 
L 374.687305 36.024952 
L 376.314646 35.057161 
L 378.755657 32.789766 
L 381.196669 31.047743 
L 382.01034 30.245859 
L 383.637681 29.084511 
L 384.451351 28.752697 
L 389.333374 25.434558 
L 390.960716 23.886093 
L 393.401727 22.337628 
L 394.215398 21.756953 
L 394.215398 21.756953 
" style="fill:none;stroke:#ffc400;stroke-linecap:round;stroke-width:1.5;"/>
   </g>
   <g id="line2d_23">
    <path clip-path="url(#p3281b2ed9a)" d="M 69.560852 261.105395 
L 70.374523 260.524721 
L 71.188193 259.612233 
L 72.001864 259.225116 
L 72.815534 258.672093 
L 76.883887 255.298652 
L 77.697558 254.690326 
L 80.95224 252.893001 
L 83.393251 251.012722 
L 89.088945 247.030955 
L 91.529957 245.150676 
L 95.59831 242.551467 
L 97.225651 241.085955 
L 98.039321 240.615886 
L 99.666662 239.371583 
L 100.480333 238.846211 
L 102.107674 237.518956 
L 103.735015 236.357607 
L 105.362356 235.251561 
L 106.176027 234.809142 
L 107.803368 233.675445 
L 109.430709 232.514096 
L 111.05805 231.573956 
L 112.685391 230.495561 
L 115.126403 228.670585 
L 115.940073 228.034608 
L 116.753744 227.592189 
L 120.822096 224.799422 
L 124.076778 222.83619 
L 124.890449 222.061957 
L 127.331461 220.20933 
L 129.772472 219.02033 
L 131.399813 217.803679 
L 132.213484 217.36126 
L 133.027154 216.725283 
L 134.654495 215.729842 
L 136.281837 214.374935 
L 139.536519 211.748075 
L 140.350189 211.278005 
L 146.859554 206.522005 
L 148.486895 205.360657 
L 150.114236 204.116354 
L 150.927906 203.922796 
L 151.741577 203.148564 
L 153.368918 201.987215 
L 154.182588 201.434192 
L 156.6236 199.277401 
L 157.437271 198.752029 
L 158.250941 198.088401 
L 159.064612 197.590681 
L 159.878282 196.954704 
L 162.319294 195.489192 
L 163.946635 194.106634 
L 168.014988 190.982053 
L 168.828658 190.622588 
L 169.642329 189.765402 
L 171.26967 188.659356 
L 172.08334 188.189286 
L 173.710681 186.86203 
L 175.338022 185.866589 
L 176.151693 184.871147 
L 178.592705 183.295031 
L 179.406375 182.576101 
L 181.033716 181.442403 
L 181.847387 181.055287 
L 183.474728 179.783333 
L 185.102069 179.009101 
L 187.543081 177.184124 
L 189.170422 175.829218 
L 190.797763 174.640218 
L 203.002821 165.460032 
L 203.816491 164.713451 
L 205.443832 162.916126 
L 206.257503 162.556661 
L 207.071174 162.031289 
L 207.884844 161.312358 
L 211.139526 159.155568 
L 211.953197 158.768452 
L 215.207879 156.445754 
L 216.021549 155.782126 
L 216.83522 155.367359 
L 217.648891 154.648429 
L 219.276232 153.625336 
L 221.717243 151.689755 
L 223.344584 150.777266 
L 224.158255 149.92008 
L 226.599266 148.261011 
L 230.667619 144.942872 
L 232.29496 144.002732 
L 233.108631 143.145546 
L 234.735972 142.122453 
L 235.549642 141.403523 
L 237.176984 140.546337 
L 242.872677 136.205105 
L 244.500018 135.347919 
L 245.313689 134.573687 
L 248.568371 132.195687 
L 250.195712 130.730175 
L 251.823053 129.347617 
L 252.636724 128.877548 
L 254.264065 127.688548 
L 255.077735 126.803711 
L 255.891406 126.416594 
L 256.705076 125.780618 
L 257.518747 125.338199 
L 258.332418 124.591618 
L 259.959759 123.596176 
L 262.40077 121.715897 
L 263.214441 121.30113 
L 264.028111 120.692804 
L 264.841782 120.250386 
L 266.469123 119.116688 
L 267.282793 118.287153 
L 268.096464 117.789432 
L 269.723805 116.323921 
L 271.351146 115.273177 
L 272.978487 114.028875 
L 277.04684 110.848991 
L 282.742534 106.728968 
L 285.183545 104.848689 
L 285.997216 104.323317 
L 287.624557 103.051364 
L 290.879239 100.977527 
L 291.69291 100.286248 
L 292.50658 99.429062 
L 294.947592 97.825295 
L 295.761262 97.410527 
L 296.574933 96.553341 
L 299.015945 94.894272 
L 299.829615 94.092388 
L 300.643286 93.677621 
L 301.456956 93.069295 
L 302.270627 92.156807 
L 306.338979 89.640551 
L 307.15265 89.225784 
L 307.96632 88.396249 
L 308.779991 87.732621 
L 309.593662 87.262552 
L 310.407332 86.51597 
L 311.221003 85.935296 
L 312.034673 85.492877 
L 313.662014 84.137971 
L 317.730367 80.598622 
L 319.357708 79.686134 
L 320.985049 78.192971 
L 321.79872 77.252832 
L 326.680743 73.63053 
L 327.494413 73.243413 
L 328.308084 72.662739 
L 329.121755 72.22032 
L 333.190107 68.598019 
L 334.003778 68.100298 
L 334.817448 67.353716 
L 336.444789 66.385926 
L 338.07213 65.224577 
L 338.885801 64.671554 
L 339.699472 64.367391 
L 341.326813 63.316647 
L 342.140483 62.791275 
L 342.954154 61.906438 
L 343.767824 61.325763 
L 345.395165 60.52388 
L 346.208836 59.666694 
L 349.463518 56.95688 
L 350.277189 56.016741 
L 351.90453 54.855392 
L 353.531871 53.500485 
L 355.972882 51.537253 
L 356.786553 51.122485 
L 366.550599 43.629021 
L 368.17794 42.522975 
L 371.432623 40.006719 
L 372.246293 39.426045 
L 373.873634 38.458254 
L 376.314646 36.605626 
L 379.569328 34.587092 
L 381.196669 33.287487 
L 382.82401 32.209092 
L 383.637681 31.490162 
L 384.451351 30.96479 
L 386.078692 29.30572 
L 392.588057 23.969046 
L 393.401727 23.609581 
L 394.215398 23.11186 
L 394.215398 23.11186 
" style="fill:none;stroke:#ff6800;stroke-linecap:round;stroke-width:1.5;"/>
   </g>
   <g id="line2d_24">
    <path clip-path="url(#p3281b2ed9a)" d="M 69.560852 261.022442 
L 70.374523 260.303512 
L 72.001864 259.086861 
L 73.629205 257.87021 
L 74.442876 257.178931 
L 75.256546 256.294093 
L 76.070217 255.796373 
L 76.883887 255.132745 
L 77.697558 254.77328 
L 85.020593 248.57942 
L 85.834263 248.054048 
L 87.461604 246.809746 
L 89.088945 245.814304 
L 91.529957 243.878723 
L 92.343627 243.546909 
L 94.784639 241.777234 
L 95.59831 241.362467 
L 98.039321 239.675746 
L 98.852992 239.343932 
L 99.666662 238.680304 
L 100.480333 238.182584 
L 102.107674 236.66177 
L 104.548685 234.975049 
L 106.176027 233.426584 
L 107.803368 232.762956 
L 108.617038 232.209933 
L 109.430709 231.408049 
L 111.05805 230.274352 
L 112.685391 229.361864 
L 113.499061 228.449375 
L 115.126403 227.039166 
L 115.940073 226.735003 
L 120.822096 223.168004 
L 121.635767 222.697934 
L 122.449437 221.868399 
L 123.263108 221.204771 
L 124.076778 220.790004 
L 126.51779 218.826772 
L 127.331461 218.301399 
L 128.958802 217.057097 
L 131.399813 215.176818 
L 134.654495 212.411702 
L 135.468166 211.969284 
L 137.095507 210.44847 
L 140.350189 207.82161 
L 141.97753 206.356098 
L 142.791201 205.775424 
L 144.418542 205.001191 
L 146.859554 203.563331 
L 148.486895 202.319029 
L 150.927906 200.079285 
L 151.741577 199.498611 
L 152.555247 199.111494 
L 154.996259 197.424774 
L 157.437271 195.710402 
L 158.250941 195.43389 
L 160.691953 194.161937 
L 162.319294 192.80703 
L 163.946635 191.479774 
L 164.760305 190.816146 
L 165.573976 189.876007 
L 166.387647 189.184728 
L 167.201317 188.742309 
L 168.014988 187.940426 
L 169.642329 187.110891 
L 170.455999 186.530216 
L 171.26967 186.115449 
L 172.08334 185.534775 
L 172.897011 185.230612 
L 175.338022 183.295031 
L 176.151693 182.963217 
L 176.965364 181.912473 
L 178.592705 180.778775 
L 179.406375 180.032194 
L 181.033716 178.926147 
L 183.474728 177.045869 
L 184.288398 176.437543 
L 185.102069 176.050427 
L 185.915739 175.41445 
L 186.72941 175.110287 
L 187.543081 174.22545 
L 192.425104 170.990264 
L 193.238774 170.188381 
L 194.052445 169.69066 
L 195.679786 168.529311 
L 198.120798 167.285009 
L 198.934468 166.538428 
L 199.748139 166.096009 
L 203.002821 163.220288 
L 204.630162 161.727126 
L 207.071174 160.012754 
L 211.139526 156.722266 
L 211.953197 155.86508 
L 216.83522 152.491638 
L 217.648891 152.076871 
L 218.462561 151.523848 
L 219.276232 150.611359 
L 220.089902 150.168941 
L 221.717243 148.592825 
L 223.344584 147.51443 
L 224.971925 146.463685 
L 227.412937 144.445151 
L 229.040278 143.366756 
L 230.667619 142.620174 
L 231.48129 141.928895 
L 232.29496 141.486477 
L 234.735972 139.550895 
L 236.363313 137.698268 
L 238.804325 136.232756 
L 239.617995 135.790338 
L 241.245336 134.573687 
L 242.059007 134.020663 
L 245.313689 130.896082 
L 248.568371 128.683989 
L 249.382042 128.241571 
L 250.195712 127.49499 
L 253.450394 125.172292 
L 257.518747 122.103013 
L 258.332418 121.577641 
L 259.146088 120.914013 
L 259.959759 120.416293 
L 261.5871 119.089037 
L 262.40077 118.757223 
L 263.214441 118.093595 
L 264.028111 117.208758 
L 272.164817 111.484968 
L 272.978487 110.987247 
L 274.605828 109.217573 
L 277.04684 107.47555 
L 278.674181 106.397154 
L 279.487852 105.844131 
L 280.301522 105.09755 
L 281.115193 104.516876 
L 282.742534 103.632038 
L 284.369875 102.525992 
L 289.251898 98.544225 
L 290.065569 98.101806 
L 299.829615 90.718947 
L 300.643286 90.027668 
L 302.270627 88.976924 
L 306.338979 85.741738 
L 307.15265 84.939854 
L 309.593662 83.474343 
L 310.407332 82.783064 
L 311.221003 82.257692 
L 314.475685 79.492576 
L 317.730367 77.197529 
L 319.357708 75.870274 
L 320.985049 74.791878 
L 324.239731 72.026762 
L 329.121755 68.432112 
L 329.935425 67.768484 
L 330.749096 67.409019 
L 333.190107 65.611693 
L 334.003778 65.196926 
L 334.817448 64.284438 
L 338.07213 61.574624 
L 338.885801 61.021601 
L 339.699472 60.275019 
L 342.140483 58.643601 
L 343.767824 57.482252 
L 347.836177 54.302369 
L 348.649847 53.804648 
L 350.277189 52.394439 
L 351.90453 51.122485 
L 352.7182 50.597113 
L 353.531871 49.712276 
L 355.159212 48.689183 
L 356.786553 47.500183 
L 360.041235 45.785811 
L 361.668576 44.513858 
L 366.550599 40.725649 
L 367.36427 40.449138 
L 368.991611 39.232486 
L 369.805282 38.679463 
L 373.873634 35.084812 
L 374.687305 34.531789 
L 375.500975 33.812859 
L 376.314646 32.900371 
L 377.941987 31.573115 
L 378.755657 31.075394 
L 380.382999 29.77579 
L 382.82401 28.11672 
L 384.451351 27.010674 
L 386.892363 25.102744 
L 387.706033 24.217907 
L 388.519704 23.747837 
L 389.333374 22.918302 
L 390.147045 22.420581 
L 394.215398 19.296 
L 394.215398 19.296 
" style="fill:none;stroke:#f10800;stroke-linecap:round;stroke-width:1.5;"/>
   </g>
   <g id="patch_3">
    <path d="M 53.328125 273.312 
L 53.328125 7.2 
" style="fill:none;stroke:#cccccc;stroke-linecap:square;stroke-linejoin:miter;stroke-width:0.8;"/>
   </g>
   <g id="patch_4">
    <path d="M 410.448125 273.312 
L 410.448125 7.2 
" style="fill:none;stroke:#cccccc;stroke-linecap:square;stroke-linejoin:miter;stroke-width:0.8;"/>
   </g>
   <g id="patch_5">
    <path d="M 53.328125 273.312 
L 410.448125 273.312 
" style="fill:none;stroke:#cccccc;stroke-linecap:square;stroke-linejoin:miter;stroke-width:0.8;"/>
   </g>
   <g id="patch_6">
    <path d="M 53.328125 7.2 
L 410.448125 7.2 
" style="fill:none;stroke:#cccccc;stroke-linecap:square;stroke-linejoin:miter;stroke-width:0.8;"/>
   </g>
  </g>
 </g>
 <defs>
  <clipPath id="p3281b2ed9a">
   <rect height="266.112" width="357.12" x="53.328125" y="7.2"/>
  </clipPath>
 </defs>
</svg>
