<?xml version="1.0" encoding="utf-8" standalone="no"?>
<!DOCTYPE svg PUBLIC "-//W3C//DTD SVG 1.1//EN"
  "http://www.w3.org/Graphics/SVG/1.1/DTD/svg11.dtd">
<!-- Created with matplotlib (https://matplotlib.org/) -->
<svg height="310.86825pt" version="1.1" viewBox="0 0 430.373125 310.86825" width="430.373125pt" xmlns="http://www.w3.org/2000/svg" xmlns:xlink="http://www.w3.org/1999/xlink">
 <defs>
  <style type="text/css">
*{stroke-linecap:butt;stroke-linejoin:round;white-space:pre;}
  </style>
 </defs>
 <g id="figure_1">
  <g id="patch_1">
   <path d="M 0 310.86825 
L 430.373125 310.86825 
L 430.373125 0 
L 0 0 
z
" style="fill:#ffffff;"/>
  </g>
  <g id="axes_1">
   <g id="patch_2">
    <path d="M 66.053125 273.312 
L 423.173125 273.312 
L 423.173125 7.2 
L 66.053125 7.2 
z
" style="fill:#ffffff;"/>
   </g>
   <g id="matplotlib.axis_1">
    <g id="xtick_1">
     <g id="line2d_1">
      <path clip-path="url(#p4731a28940)" d="M 82.285852 273.312 
L 82.285852 7.2 
" style="fill:none;stroke:#cccccc;stroke-linecap:round;stroke-width:0.8;"/>
     </g>
     <g id="text_1">
      <!-- 0 -->
      <defs>
       <path d="M 31.78125 66.40625 
Q 24.171875 66.40625 20.328125 58.90625 
Q 16.5 51.421875 16.5 36.375 
Q 16.5 21.390625 20.328125 13.890625 
Q 24.171875 6.390625 31.78125 6.390625 
Q 39.453125 6.390625 43.28125 13.890625 
Q 47.125 21.390625 47.125 36.375 
Q 47.125 51.421875 43.28125 58.90625 
Q 39.453125 66.40625 31.78125 66.40625 
z
M 31.78125 74.21875 
Q 44.046875 74.21875 50.515625 64.515625 
Q 56.984375 54.828125 56.984375 36.375 
Q 56.984375 17.96875 50.515625 8.265625 
Q 44.046875 -1.421875 31.78125 -1.421875 
Q 19.53125 -1.421875 13.0625 8.265625 
Q 6.59375 17.96875 6.59375 36.375 
Q 6.59375 54.828125 13.0625 64.515625 
Q 19.53125 74.21875 31.78125 74.21875 
z
" id="DejaVuSans-48"/>
      </defs>
      <g style="fill:#262626;" transform="translate(79.104602 287.910437)scale(0.1 -0.1)">
       <use xlink:href="#DejaVuSans-48"/>
      </g>
     </g>
    </g>
    <g id="xtick_2">
     <g id="line2d_2">
      <path clip-path="url(#p4731a28940)" d="M 122.969379 273.312 
L 122.969379 7.2 
" style="fill:none;stroke:#cccccc;stroke-linecap:round;stroke-width:0.8;"/>
     </g>
     <g id="text_2">
      <!-- 5 -->
      <defs>
       <path d="M 10.796875 72.90625 
L 49.515625 72.90625 
L 49.515625 64.59375 
L 19.828125 64.59375 
L 19.828125 46.734375 
Q 21.96875 47.46875 24.109375 47.828125 
Q 26.265625 48.1875 28.421875 48.1875 
Q 40.625 48.1875 47.75 41.5 
Q 54.890625 34.8125 54.890625 23.390625 
Q 54.890625 11.625 47.5625 5.09375 
Q 40.234375 -1.421875 26.90625 -1.421875 
Q 22.3125 -1.421875 17.546875 -0.640625 
Q 12.796875 0.140625 7.71875 1.703125 
L 7.71875 11.625 
Q 12.109375 9.234375 16.796875 8.0625 
Q 21.484375 6.890625 26.703125 6.890625 
Q 35.15625 6.890625 40.078125 11.328125 
Q 45.015625 15.765625 45.015625 23.390625 
Q 45.015625 31 40.078125 35.4375 
Q 35.15625 39.890625 26.703125 39.890625 
Q 22.75 39.890625 18.8125 39.015625 
Q 14.890625 38.140625 10.796875 36.28125 
z
" id="DejaVuSans-53"/>
      </defs>
      <g style="fill:#262626;" transform="translate(119.788129 287.910437)scale(0.1 -0.1)">
       <use xlink:href="#DejaVuSans-53"/>
      </g>
     </g>
    </g>
    <g id="xtick_3">
     <g id="line2d_3">
      <path clip-path="url(#p4731a28940)" d="M 163.652906 273.312 
L 163.652906 7.2 
" style="fill:none;stroke:#cccccc;stroke-linecap:round;stroke-width:0.8;"/>
     </g>
     <g id="text_3">
      <!-- 10 -->
      <defs>
       <path d="M 12.40625 8.296875 
L 28.515625 8.296875 
L 28.515625 63.921875 
L 10.984375 60.40625 
L 10.984375 69.390625 
L 28.421875 72.90625 
L 38.28125 72.90625 
L 38.28125 8.296875 
L 54.390625 8.296875 
L 54.390625 0 
L 12.40625 0 
z
" id="DejaVuSans-49"/>
      </defs>
      <g style="fill:#262626;" transform="translate(157.290406 287.910437)scale(0.1 -0.1)">
       <use xlink:href="#DejaVuSans-49"/>
       <use x="63.623047" xlink:href="#DejaVuSans-48"/>
      </g>
     </g>
    </g>
    <g id="xtick_4">
     <g id="line2d_4">
      <path clip-path="url(#p4731a28940)" d="M 204.336433 273.312 
L 204.336433 7.2 
" style="fill:none;stroke:#cccccc;stroke-linecap:round;stroke-width:0.8;"/>
     </g>
     <g id="text_4">
      <!-- 15 -->
      <g style="fill:#262626;" transform="translate(197.973933 287.910437)scale(0.1 -0.1)">
       <use xlink:href="#DejaVuSans-49"/>
       <use x="63.623047" xlink:href="#DejaVuSans-53"/>
      </g>
     </g>
    </g>
    <g id="xtick_5">
     <g id="line2d_5">
      <path clip-path="url(#p4731a28940)" d="M 245.01996 273.312 
L 245.01996 7.2 
" style="fill:none;stroke:#cccccc;stroke-linecap:round;stroke-width:0.8;"/>
     </g>
     <g id="text_5">
      <!-- 20 -->
      <defs>
       <path d="M 19.1875 8.296875 
L 53.609375 8.296875 
L 53.609375 0 
L 7.328125 0 
L 7.328125 8.296875 
Q 12.9375 14.109375 22.625 23.890625 
Q 32.328125 33.6875 34.8125 36.53125 
Q 39.546875 41.84375 41.421875 45.53125 
Q 43.3125 49.21875 43.3125 52.78125 
Q 43.3125 58.59375 39.234375 62.25 
Q 35.15625 65.921875 28.609375 65.921875 
Q 23.96875 65.921875 18.8125 64.3125 
Q 13.671875 62.703125 7.8125 59.421875 
L 7.8125 69.390625 
Q 13.765625 71.78125 18.9375 73 
Q 24.125 74.21875 28.421875 74.21875 
Q 39.75 74.21875 46.484375 68.546875 
Q 53.21875 62.890625 53.21875 53.421875 
Q 53.21875 48.921875 51.53125 44.890625 
Q 49.859375 40.875 45.40625 35.40625 
Q 44.1875 33.984375 37.640625 27.21875 
Q 31.109375 20.453125 19.1875 8.296875 
z
" id="DejaVuSans-50"/>
      </defs>
      <g style="fill:#262626;" transform="translate(238.65746 287.910437)scale(0.1 -0.1)">
       <use xlink:href="#DejaVuSans-50"/>
       <use x="63.623047" xlink:href="#DejaVuSans-48"/>
      </g>
     </g>
    </g>
    <g id="xtick_6">
     <g id="line2d_6">
      <path clip-path="url(#p4731a28940)" d="M 285.703487 273.312 
L 285.703487 7.2 
" style="fill:none;stroke:#cccccc;stroke-linecap:round;stroke-width:0.8;"/>
     </g>
     <g id="text_6">
      <!-- 25 -->
      <g style="fill:#262626;" transform="translate(279.340987 287.910437)scale(0.1 -0.1)">
       <use xlink:href="#DejaVuSans-50"/>
       <use x="63.623047" xlink:href="#DejaVuSans-53"/>
      </g>
     </g>
    </g>
    <g id="xtick_7">
     <g id="line2d_7">
      <path clip-path="url(#p4731a28940)" d="M 326.387014 273.312 
L 326.387014 7.2 
" style="fill:none;stroke:#cccccc;stroke-linecap:round;stroke-width:0.8;"/>
     </g>
     <g id="text_7">
      <!-- 30 -->
      <defs>
       <path d="M 40.578125 39.3125 
Q 47.65625 37.796875 51.625 33 
Q 55.609375 28.21875 55.609375 21.1875 
Q 55.609375 10.40625 48.1875 4.484375 
Q 40.765625 -1.421875 27.09375 -1.421875 
Q 22.515625 -1.421875 17.65625 -0.515625 
Q 12.796875 0.390625 7.625 2.203125 
L 7.625 11.71875 
Q 11.71875 9.328125 16.59375 8.109375 
Q 21.484375 6.890625 26.8125 6.890625 
Q 36.078125 6.890625 40.9375 10.546875 
Q 45.796875 14.203125 45.796875 21.1875 
Q 45.796875 27.640625 41.28125 31.265625 
Q 36.765625 34.90625 28.71875 34.90625 
L 20.21875 34.90625 
L 20.21875 43.015625 
L 29.109375 43.015625 
Q 36.375 43.015625 40.234375 45.921875 
Q 44.09375 48.828125 44.09375 54.296875 
Q 44.09375 59.90625 40.109375 62.90625 
Q 36.140625 65.921875 28.71875 65.921875 
Q 24.65625 65.921875 20.015625 65.03125 
Q 15.375 64.15625 9.8125 62.3125 
L 9.8125 71.09375 
Q 15.4375 72.65625 20.34375 73.4375 
Q 25.25 74.21875 29.59375 74.21875 
Q 40.828125 74.21875 47.359375 69.109375 
Q 53.90625 64.015625 53.90625 55.328125 
Q 53.90625 49.265625 50.4375 45.09375 
Q 46.96875 40.921875 40.578125 39.3125 
z
" id="DejaVuSans-51"/>
      </defs>
      <g style="fill:#262626;" transform="translate(320.024514 287.910437)scale(0.1 -0.1)">
       <use xlink:href="#DejaVuSans-51"/>
       <use x="63.623047" xlink:href="#DejaVuSans-48"/>
      </g>
     </g>
    </g>
    <g id="xtick_8">
     <g id="line2d_8">
      <path clip-path="url(#p4731a28940)" d="M 367.070541 273.312 
L 367.070541 7.2 
" style="fill:none;stroke:#cccccc;stroke-linecap:round;stroke-width:0.8;"/>
     </g>
     <g id="text_8">
      <!-- 35 -->
      <g style="fill:#262626;" transform="translate(360.708041 287.910437)scale(0.1 -0.1)">
       <use xlink:href="#DejaVuSans-51"/>
       <use x="63.623047" xlink:href="#DejaVuSans-53"/>
      </g>
     </g>
    </g>
    <g id="xtick_9">
     <g id="line2d_9">
      <path clip-path="url(#p4731a28940)" d="M 407.754068 273.312 
L 407.754068 7.2 
" style="fill:none;stroke:#cccccc;stroke-linecap:round;stroke-width:0.8;"/>
     </g>
     <g id="text_9">
      <!-- 40 -->
      <defs>
       <path d="M 37.796875 64.3125 
L 12.890625 25.390625 
L 37.796875 25.390625 
z
M 35.203125 72.90625 
L 47.609375 72.90625 
L 47.609375 25.390625 
L 58.015625 25.390625 
L 58.015625 17.1875 
L 47.609375 17.1875 
L 47.609375 0 
L 37.796875 0 
L 37.796875 17.1875 
L 4.890625 17.1875 
L 4.890625 26.703125 
z
" id="DejaVuSans-52"/>
      </defs>
      <g style="fill:#262626;" transform="translate(401.391568 287.910437)scale(0.1 -0.1)">
       <use xlink:href="#DejaVuSans-52"/>
       <use x="63.623047" xlink:href="#DejaVuSans-48"/>
      </g>
     </g>
    </g>
    <g id="text_10">
     <!-- time (days) -->
     <defs>
      <path d="M 18.3125 70.21875 
L 18.3125 54.6875 
L 36.8125 54.6875 
L 36.8125 47.703125 
L 18.3125 47.703125 
L 18.3125 18.015625 
Q 18.3125 11.328125 20.140625 9.421875 
Q 21.96875 7.515625 27.59375 7.515625 
L 36.8125 7.515625 
L 36.8125 0 
L 27.59375 0 
Q 17.1875 0 13.234375 3.875 
Q 9.28125 7.765625 9.28125 18.015625 
L 9.28125 47.703125 
L 2.6875 47.703125 
L 2.6875 54.6875 
L 9.28125 54.6875 
L 9.28125 70.21875 
z
" id="DejaVuSans-116"/>
      <path d="M 9.421875 54.6875 
L 18.40625 54.6875 
L 18.40625 0 
L 9.421875 0 
z
M 9.421875 75.984375 
L 18.40625 75.984375 
L 18.40625 64.59375 
L 9.421875 64.59375 
z
" id="DejaVuSans-105"/>
      <path d="M 52 44.1875 
Q 55.375 50.25 60.0625 53.125 
Q 64.75 56 71.09375 56 
Q 79.640625 56 84.28125 50.015625 
Q 88.921875 44.046875 88.921875 33.015625 
L 88.921875 0 
L 79.890625 0 
L 79.890625 32.71875 
Q 79.890625 40.578125 77.09375 44.375 
Q 74.3125 48.1875 68.609375 48.1875 
Q 61.625 48.1875 57.5625 43.546875 
Q 53.515625 38.921875 53.515625 30.90625 
L 53.515625 0 
L 44.484375 0 
L 44.484375 32.71875 
Q 44.484375 40.625 41.703125 44.40625 
Q 38.921875 48.1875 33.109375 48.1875 
Q 26.21875 48.1875 22.15625 43.53125 
Q 18.109375 38.875 18.109375 30.90625 
L 18.109375 0 
L 9.078125 0 
L 9.078125 54.6875 
L 18.109375 54.6875 
L 18.109375 46.1875 
Q 21.1875 51.21875 25.484375 53.609375 
Q 29.78125 56 35.6875 56 
Q 41.65625 56 45.828125 52.96875 
Q 50 49.953125 52 44.1875 
z
" id="DejaVuSans-109"/>
      <path d="M 56.203125 29.59375 
L 56.203125 25.203125 
L 14.890625 25.203125 
Q 15.484375 15.921875 20.484375 11.0625 
Q 25.484375 6.203125 34.421875 6.203125 
Q 39.59375 6.203125 44.453125 7.46875 
Q 49.3125 8.734375 54.109375 11.28125 
L 54.109375 2.78125 
Q 49.265625 0.734375 44.1875 -0.34375 
Q 39.109375 -1.421875 33.890625 -1.421875 
Q 20.796875 -1.421875 13.15625 6.1875 
Q 5.515625 13.8125 5.515625 26.8125 
Q 5.515625 40.234375 12.765625 48.109375 
Q 20.015625 56 32.328125 56 
Q 43.359375 56 49.78125 48.890625 
Q 56.203125 41.796875 56.203125 29.59375 
z
M 47.21875 32.234375 
Q 47.125 39.59375 43.09375 43.984375 
Q 39.0625 48.390625 32.421875 48.390625 
Q 24.90625 48.390625 20.390625 44.140625 
Q 15.875 39.890625 15.1875 32.171875 
z
" id="DejaVuSans-101"/>
      <path id="DejaVuSans-32"/>
      <path d="M 31 75.875 
Q 24.46875 64.65625 21.28125 53.65625 
Q 18.109375 42.671875 18.109375 31.390625 
Q 18.109375 20.125 21.3125 9.0625 
Q 24.515625 -2 31 -13.1875 
L 23.1875 -13.1875 
Q 15.875 -1.703125 12.234375 9.375 
Q 8.59375 20.453125 8.59375 31.390625 
Q 8.59375 42.28125 12.203125 53.3125 
Q 15.828125 64.359375 23.1875 75.875 
z
" id="DejaVuSans-40"/>
      <path d="M 45.40625 46.390625 
L 45.40625 75.984375 
L 54.390625 75.984375 
L 54.390625 0 
L 45.40625 0 
L 45.40625 8.203125 
Q 42.578125 3.328125 38.25 0.953125 
Q 33.9375 -1.421875 27.875 -1.421875 
Q 17.96875 -1.421875 11.734375 6.484375 
Q 5.515625 14.40625 5.515625 27.296875 
Q 5.515625 40.1875 11.734375 48.09375 
Q 17.96875 56 27.875 56 
Q 33.9375 56 38.25 53.625 
Q 42.578125 51.265625 45.40625 46.390625 
z
M 14.796875 27.296875 
Q 14.796875 17.390625 18.875 11.75 
Q 22.953125 6.109375 30.078125 6.109375 
Q 37.203125 6.109375 41.296875 11.75 
Q 45.40625 17.390625 45.40625 27.296875 
Q 45.40625 37.203125 41.296875 42.84375 
Q 37.203125 48.484375 30.078125 48.484375 
Q 22.953125 48.484375 18.875 42.84375 
Q 14.796875 37.203125 14.796875 27.296875 
z
" id="DejaVuSans-100"/>
      <path d="M 34.28125 27.484375 
Q 23.390625 27.484375 19.1875 25 
Q 14.984375 22.515625 14.984375 16.5 
Q 14.984375 11.71875 18.140625 8.90625 
Q 21.296875 6.109375 26.703125 6.109375 
Q 34.1875 6.109375 38.703125 11.40625 
Q 43.21875 16.703125 43.21875 25.484375 
L 43.21875 27.484375 
z
M 52.203125 31.203125 
L 52.203125 0 
L 43.21875 0 
L 43.21875 8.296875 
Q 40.140625 3.328125 35.546875 0.953125 
Q 30.953125 -1.421875 24.3125 -1.421875 
Q 15.921875 -1.421875 10.953125 3.296875 
Q 6 8.015625 6 15.921875 
Q 6 25.140625 12.171875 29.828125 
Q 18.359375 34.515625 30.609375 34.515625 
L 43.21875 34.515625 
L 43.21875 35.40625 
Q 43.21875 41.609375 39.140625 45 
Q 35.0625 48.390625 27.6875 48.390625 
Q 23 48.390625 18.546875 47.265625 
Q 14.109375 46.140625 10.015625 43.890625 
L 10.015625 52.203125 
Q 14.9375 54.109375 19.578125 55.046875 
Q 24.21875 56 28.609375 56 
Q 40.484375 56 46.34375 49.84375 
Q 52.203125 43.703125 52.203125 31.203125 
z
" id="DejaVuSans-97"/>
      <path d="M 32.171875 -5.078125 
Q 28.375 -14.84375 24.75 -17.8125 
Q 21.140625 -20.796875 15.09375 -20.796875 
L 7.90625 -20.796875 
L 7.90625 -13.28125 
L 13.1875 -13.28125 
Q 16.890625 -13.28125 18.9375 -11.515625 
Q 21 -9.765625 23.484375 -3.21875 
L 25.09375 0.875 
L 2.984375 54.6875 
L 12.5 54.6875 
L 29.59375 11.921875 
L 46.6875 54.6875 
L 56.203125 54.6875 
z
" id="DejaVuSans-121"/>
      <path d="M 44.28125 53.078125 
L 44.28125 44.578125 
Q 40.484375 46.53125 36.375 47.5 
Q 32.28125 48.484375 27.875 48.484375 
Q 21.1875 48.484375 17.84375 46.4375 
Q 14.5 44.390625 14.5 40.28125 
Q 14.5 37.15625 16.890625 35.375 
Q 19.28125 33.59375 26.515625 31.984375 
L 29.59375 31.296875 
Q 39.15625 29.25 43.1875 25.515625 
Q 47.21875 21.78125 47.21875 15.09375 
Q 47.21875 7.46875 41.1875 3.015625 
Q 35.15625 -1.421875 24.609375 -1.421875 
Q 20.21875 -1.421875 15.453125 -0.5625 
Q 10.6875 0.296875 5.421875 2 
L 5.421875 11.28125 
Q 10.40625 8.6875 15.234375 7.390625 
Q 20.0625 6.109375 24.8125 6.109375 
Q 31.15625 6.109375 34.5625 8.28125 
Q 37.984375 10.453125 37.984375 14.40625 
Q 37.984375 18.0625 35.515625 20.015625 
Q 33.0625 21.96875 24.703125 23.78125 
L 21.578125 24.515625 
Q 13.234375 26.265625 9.515625 29.90625 
Q 5.8125 33.546875 5.8125 39.890625 
Q 5.8125 47.609375 11.28125 51.796875 
Q 16.75 56 26.8125 56 
Q 31.78125 56 36.171875 55.265625 
Q 40.578125 54.546875 44.28125 53.078125 
z
" id="DejaVuSans-115"/>
      <path d="M 8.015625 75.875 
L 15.828125 75.875 
Q 23.140625 64.359375 26.78125 53.3125 
Q 30.421875 42.28125 30.421875 31.390625 
Q 30.421875 20.453125 26.78125 9.375 
Q 23.140625 -1.703125 15.828125 -13.1875 
L 8.015625 -13.1875 
Q 14.5 -2 17.703125 9.0625 
Q 20.90625 20.125 20.90625 31.390625 
Q 20.90625 42.671875 17.703125 53.65625 
Q 14.5 64.65625 8.015625 75.875 
z
" id="DejaVuSans-41"/>
     </defs>
     <g style="fill:#262626;" transform="translate(216.024063 301.588562)scale(0.1 -0.1)">
      <use xlink:href="#DejaVuSans-116"/>
      <use x="39.208984" xlink:href="#DejaVuSans-105"/>
      <use x="66.992188" xlink:href="#DejaVuSans-109"/>
      <use x="164.404297" xlink:href="#DejaVuSans-101"/>
      <use x="225.927734" xlink:href="#DejaVuSans-32"/>
      <use x="257.714844" xlink:href="#DejaVuSans-40"/>
      <use x="296.728516" xlink:href="#DejaVuSans-100"/>
      <use x="360.205078" xlink:href="#DejaVuSans-97"/>
      <use x="421.484375" xlink:href="#DejaVuSans-121"/>
      <use x="480.664062" xlink:href="#DejaVuSans-115"/>
      <use x="532.763672" xlink:href="#DejaVuSans-41"/>
     </g>
    </g>
   </g>
   <g id="matplotlib.axis_2">
    <g id="ytick_1">
     <g id="line2d_10">
      <path clip-path="url(#p4731a28940)" d="M 66.053125 267.636088 
L 423.173125 267.636088 
" style="fill:none;stroke:#cccccc;stroke-linecap:round;stroke-width:0.8;"/>
     </g>
     <g id="text_11">
      <!-- 0 -->
      <g style="fill:#262626;" transform="translate(52.690625 271.435307)scale(0.1 -0.1)">
       <use xlink:href="#DejaVuSans-48"/>
      </g>
     </g>
    </g>
    <g id="ytick_2">
     <g id="line2d_11">
      <path clip-path="url(#p4731a28940)" d="M 66.053125 217.96807 
L 423.173125 217.96807 
" style="fill:none;stroke:#cccccc;stroke-linecap:round;stroke-width:0.8;"/>
     </g>
     <g id="text_12">
      <!-- 50000 -->
      <g style="fill:#262626;" transform="translate(27.240625 221.767289)scale(0.1 -0.1)">
       <use xlink:href="#DejaVuSans-53"/>
       <use x="63.623047" xlink:href="#DejaVuSans-48"/>
       <use x="127.246094" xlink:href="#DejaVuSans-48"/>
       <use x="190.869141" xlink:href="#DejaVuSans-48"/>
       <use x="254.492188" xlink:href="#DejaVuSans-48"/>
      </g>
     </g>
    </g>
    <g id="ytick_3">
     <g id="line2d_12">
      <path clip-path="url(#p4731a28940)" d="M 66.053125 168.300053 
L 423.173125 168.300053 
" style="fill:none;stroke:#cccccc;stroke-linecap:round;stroke-width:0.8;"/>
     </g>
     <g id="text_13">
      <!-- 100000 -->
      <g style="fill:#262626;" transform="translate(20.878125 172.099272)scale(0.1 -0.1)">
       <use xlink:href="#DejaVuSans-49"/>
       <use x="63.623047" xlink:href="#DejaVuSans-48"/>
       <use x="127.246094" xlink:href="#DejaVuSans-48"/>
       <use x="190.869141" xlink:href="#DejaVuSans-48"/>
       <use x="254.492188" xlink:href="#DejaVuSans-48"/>
       <use x="318.115234" xlink:href="#DejaVuSans-48"/>
      </g>
     </g>
    </g>
    <g id="ytick_4">
     <g id="line2d_13">
      <path clip-path="url(#p4731a28940)" d="M 66.053125 118.632035 
L 423.173125 118.632035 
" style="fill:none;stroke:#cccccc;stroke-linecap:round;stroke-width:0.8;"/>
     </g>
     <g id="text_14">
      <!-- 150000 -->
      <g style="fill:#262626;" transform="translate(20.878125 122.431254)scale(0.1 -0.1)">
       <use xlink:href="#DejaVuSans-49"/>
       <use x="63.623047" xlink:href="#DejaVuSans-53"/>
       <use x="127.246094" xlink:href="#DejaVuSans-48"/>
       <use x="190.869141" xlink:href="#DejaVuSans-48"/>
       <use x="254.492188" xlink:href="#DejaVuSans-48"/>
       <use x="318.115234" xlink:href="#DejaVuSans-48"/>
      </g>
     </g>
    </g>
    <g id="ytick_5">
     <g id="line2d_14">
      <path clip-path="url(#p4731a28940)" d="M 66.053125 68.964018 
L 423.173125 68.964018 
" style="fill:none;stroke:#cccccc;stroke-linecap:round;stroke-width:0.8;"/>
     </g>
     <g id="text_15">
      <!-- 200000 -->
      <g style="fill:#262626;" transform="translate(20.878125 72.763236)scale(0.1 -0.1)">
       <use xlink:href="#DejaVuSans-50"/>
       <use x="63.623047" xlink:href="#DejaVuSans-48"/>
       <use x="127.246094" xlink:href="#DejaVuSans-48"/>
       <use x="190.869141" xlink:href="#DejaVuSans-48"/>
       <use x="254.492188" xlink:href="#DejaVuSans-48"/>
       <use x="318.115234" xlink:href="#DejaVuSans-48"/>
      </g>
     </g>
    </g>
    <g id="ytick_6">
     <g id="line2d_15">
      <path clip-path="url(#p4731a28940)" d="M 66.053125 19.296 
L 423.173125 19.296 
" style="fill:none;stroke:#cccccc;stroke-linecap:round;stroke-width:0.8;"/>
     </g>
     <g id="text_16">
      <!-- 250000 -->
      <g style="fill:#262626;" transform="translate(20.878125 23.095219)scale(0.1 -0.1)">
       <use xlink:href="#DejaVuSans-50"/>
       <use x="63.623047" xlink:href="#DejaVuSans-53"/>
       <use x="127.246094" xlink:href="#DejaVuSans-48"/>
       <use x="190.869141" xlink:href="#DejaVuSans-48"/>
       <use x="254.492188" xlink:href="#DejaVuSans-48"/>
       <use x="318.115234" xlink:href="#DejaVuSans-48"/>
      </g>
     </g>
    </g>
    <g id="text_17">
     <!-- cells number -->
     <defs>
      <path d="M 48.78125 52.59375 
L 48.78125 44.1875 
Q 44.96875 46.296875 41.140625 47.34375 
Q 37.3125 48.390625 33.40625 48.390625 
Q 24.65625 48.390625 19.8125 42.84375 
Q 14.984375 37.3125 14.984375 27.296875 
Q 14.984375 17.28125 19.8125 11.734375 
Q 24.65625 6.203125 33.40625 6.203125 
Q 37.3125 6.203125 41.140625 7.25 
Q 44.96875 8.296875 48.78125 10.40625 
L 48.78125 2.09375 
Q 45.015625 0.34375 40.984375 -0.53125 
Q 36.96875 -1.421875 32.421875 -1.421875 
Q 20.0625 -1.421875 12.78125 6.34375 
Q 5.515625 14.109375 5.515625 27.296875 
Q 5.515625 40.671875 12.859375 48.328125 
Q 20.21875 56 33.015625 56 
Q 37.15625 56 41.109375 55.140625 
Q 45.0625 54.296875 48.78125 52.59375 
z
" id="DejaVuSans-99"/>
      <path d="M 9.421875 75.984375 
L 18.40625 75.984375 
L 18.40625 0 
L 9.421875 0 
z
" id="DejaVuSans-108"/>
      <path d="M 54.890625 33.015625 
L 54.890625 0 
L 45.90625 0 
L 45.90625 32.71875 
Q 45.90625 40.484375 42.875 44.328125 
Q 39.84375 48.1875 33.796875 48.1875 
Q 26.515625 48.1875 22.3125 43.546875 
Q 18.109375 38.921875 18.109375 30.90625 
L 18.109375 0 
L 9.078125 0 
L 9.078125 54.6875 
L 18.109375 54.6875 
L 18.109375 46.1875 
Q 21.34375 51.125 25.703125 53.5625 
Q 30.078125 56 35.796875 56 
Q 45.21875 56 50.046875 50.171875 
Q 54.890625 44.34375 54.890625 33.015625 
z
" id="DejaVuSans-110"/>
      <path d="M 8.5 21.578125 
L 8.5 54.6875 
L 17.484375 54.6875 
L 17.484375 21.921875 
Q 17.484375 14.15625 20.5 10.265625 
Q 23.53125 6.390625 29.59375 6.390625 
Q 36.859375 6.390625 41.078125 11.03125 
Q 45.3125 15.671875 45.3125 23.6875 
L 45.3125 54.6875 
L 54.296875 54.6875 
L 54.296875 0 
L 45.3125 0 
L 45.3125 8.40625 
Q 42.046875 3.421875 37.71875 1 
Q 33.40625 -1.421875 27.6875 -1.421875 
Q 18.265625 -1.421875 13.375 4.4375 
Q 8.5 10.296875 8.5 21.578125 
z
M 31.109375 56 
z
" id="DejaVuSans-117"/>
      <path d="M 48.6875 27.296875 
Q 48.6875 37.203125 44.609375 42.84375 
Q 40.53125 48.484375 33.40625 48.484375 
Q 26.265625 48.484375 22.1875 42.84375 
Q 18.109375 37.203125 18.109375 27.296875 
Q 18.109375 17.390625 22.1875 11.75 
Q 26.265625 6.109375 33.40625 6.109375 
Q 40.53125 6.109375 44.609375 11.75 
Q 48.6875 17.390625 48.6875 27.296875 
z
M 18.109375 46.390625 
Q 20.953125 51.265625 25.265625 53.625 
Q 29.59375 56 35.59375 56 
Q 45.5625 56 51.78125 48.09375 
Q 58.015625 40.1875 58.015625 27.296875 
Q 58.015625 14.40625 51.78125 6.484375 
Q 45.5625 -1.421875 35.59375 -1.421875 
Q 29.59375 -1.421875 25.265625 0.953125 
Q 20.953125 3.328125 18.109375 8.203125 
L 18.109375 0 
L 9.078125 0 
L 9.078125 75.984375 
L 18.109375 75.984375 
z
" id="DejaVuSans-98"/>
      <path d="M 41.109375 46.296875 
Q 39.59375 47.171875 37.8125 47.578125 
Q 36.03125 48 33.890625 48 
Q 26.265625 48 22.1875 43.046875 
Q 18.109375 38.09375 18.109375 28.8125 
L 18.109375 0 
L 9.078125 0 
L 9.078125 54.6875 
L 18.109375 54.6875 
L 18.109375 46.1875 
Q 20.953125 51.171875 25.484375 53.578125 
Q 30.03125 56 36.53125 56 
Q 37.453125 56 38.578125 55.875 
Q 39.703125 55.765625 41.0625 55.515625 
z
" id="DejaVuSans-114"/>
     </defs>
     <g style="fill:#262626;" transform="translate(14.798438 172.567719)rotate(-90)scale(0.1 -0.1)">
      <use xlink:href="#DejaVuSans-99"/>
      <use x="54.980469" xlink:href="#DejaVuSans-101"/>
      <use x="116.503906" xlink:href="#DejaVuSans-108"/>
      <use x="144.287109" xlink:href="#DejaVuSans-108"/>
      <use x="172.070312" xlink:href="#DejaVuSans-115"/>
      <use x="224.169922" xlink:href="#DejaVuSans-32"/>
      <use x="255.957031" xlink:href="#DejaVuSans-110"/>
      <use x="319.335938" xlink:href="#DejaVuSans-117"/>
      <use x="382.714844" xlink:href="#DejaVuSans-109"/>
      <use x="480.126953" xlink:href="#DejaVuSans-98"/>
      <use x="543.603516" xlink:href="#DejaVuSans-101"/>
      <use x="605.126953" xlink:href="#DejaVuSans-114"/>
     </g>
    </g>
   </g>
   <g id="line2d_16">
    <path clip-path="url(#p4731a28940)" d="M 82.285852 213.842645 
L 83.099523 238.43924 
L 83.913193 248.006294 
L 84.726864 252.215162 
L 85.540534 254.669755 
L 86.354205 256.343567 
L 87.981546 258.39585 
L 88.795217 258.786241 
L 89.608887 259.444838 
L 90.422558 259.85609 
L 92.863569 260.540515 
L 93.67724 260.777928 
L 96.118251 260.998454 
L 96.931922 260.933886 
L 98.559263 261.120637 
L 99.372934 261.032228 
L 100.186604 261.159378 
L 101.000275 260.997461 
L 101.813945 260.96766 
L 102.627616 260.804749 
L 103.441286 260.775941 
L 104.254957 260.621971 
L 105.068627 260.645811 
L 106.695968 260.37363 
L 107.509639 260.436212 
L 108.32331 260.088536 
L 109.13698 260.075622 
L 114.019003 258.899484 
L 114.832674 258.749486 
L 115.646344 258.237906 
L 116.460015 258.099829 
L 118.087356 257.341895 
L 119.714697 256.642569 
L 120.528368 256.346548 
L 121.342038 255.610468 
L 122.155709 255.377028 
L 122.969379 254.745251 
L 123.78305 254.593267 
L 124.59672 253.531364 
L 127.851403 251.255576 
L 130.292414 248.651978 
L 131.106085 247.428158 
L 131.919755 246.759627 
L 132.733426 245.825868 
L 133.547096 244.499732 
L 134.360767 243.426903 
L 135.174437 241.780905 
L 135.988108 241.178928 
L 136.801778 239.561738 
L 138.42912 237.096217 
L 141.683802 230.997978 
L 143.311143 227.379166 
L 144.124813 225.772903 
L 144.938484 223.516981 
L 146.565825 220.04618 
L 152.261519 203.793812 
L 153.88886 199.007801 
L 154.70253 195.695938 
L 157.957212 184.955726 
L 159.584554 178.439282 
L 160.398224 176.025416 
L 164.466577 160.372044 
L 166.093918 153.963876 
L 167.721259 147.824909 
L 170.162271 137.838658 
L 171.789612 131.481151 
L 173.416953 124.854444 
L 176.671635 112.800017 
L 177.485305 109.283521 
L 183.180999 88.952415 
L 183.99467 86.603117 
L 184.80834 83.902171 
L 188.876693 72.598723 
L 189.690364 70.603062 
L 190.504034 68.144495 
L 192.945046 62.643266 
L 193.758716 61.20488 
L 196.199728 55.914243 
L 201.081751 46.900491 
L 201.895422 46.226992 
L 204.336433 42.487984 
L 205.150104 41.555219 
L 206.777445 39.299297 
L 209.218457 36.4712 
L 210.845798 34.72984 
L 211.659468 34.089122 
L 212.473139 33.224899 
L 215.727821 30.910369 
L 217.355162 30.153429 
L 218.982503 28.885901 
L 220.609844 28.257104 
L 223.864526 26.604152 
L 228.746549 24.350217 
L 230.373891 23.682679 
L 232.001232 23.146265 
L 233.628573 22.835343 
L 235.255914 22.544288 
L 239.324266 22.018801 
L 240.137937 21.841983 
L 241.765278 21.354243 
L 244.20629 20.972792 
L 252.342995 20.285387 
L 254.784007 20.181084 
L 257.225018 20.004266 
L 262.920712 19.729105 
L 289.77184 19.369509 
L 295.467534 19.351628 
L 310.927274 19.329774 
L 318.250309 19.296993 
L 406.940398 19.296 
L 406.940398 19.296 
" style="fill:none;stroke:#000080;stroke-linecap:round;stroke-width:1.5;"/>
   </g>
   <g id="line2d_17">
    <path clip-path="url(#p4731a28940)" d="M 82.285852 213.18802 
L 83.099523 238.374672 
L 83.913193 248.050002 
L 84.726864 252.253903 
L 85.540534 254.764125 
L 87.167876 257.495865 
L 88.795217 258.881603 
L 89.608887 259.544175 
L 90.422558 259.883904 
L 91.236228 260.011054 
L 93.67724 260.759054 
L 97.745593 261.128584 
L 98.559263 260.935872 
L 101.000275 261.047129 
L 101.813945 261.035208 
L 102.627616 260.845477 
L 103.441286 260.859384 
L 105.068627 260.568329 
L 106.695968 260.501774 
L 109.13698 260.045822 
L 109.950651 259.846156 
L 110.764321 259.829269 
L 112.391662 259.230273 
L 113.205333 259.25312 
L 114.019003 258.997826 
L 114.832674 258.625316 
L 116.460015 258.177311 
L 118.087356 257.510766 
L 118.901027 256.945544 
L 120.528368 256.531313 
L 122.155709 255.410802 
L 124.59672 253.718116 
L 127.037732 251.878413 
L 128.665073 250.156919 
L 129.478744 249.541036 
L 131.106085 247.315909 
L 131.919755 246.212285 
L 133.547096 244.346755 
L 134.360767 243.333527 
L 137.615449 238.056797 
L 138.42912 236.267755 
L 139.24279 234.938639 
L 141.683802 230.155609 
L 143.311143 226.510969 
L 144.124813 224.93252 
L 145.752154 220.750473 
L 146.565825 218.81044 
L 147.379495 216.197902 
L 148.193166 214.777397 
L 151.447848 205.265972 
L 152.261519 202.37728 
L 153.88886 197.858483 
L 154.70253 194.493972 
L 156.329871 189.656307 
L 157.957212 183.624623 
L 160.398224 174.639679 
L 162.839236 165.051764 
L 163.652906 162.323004 
L 165.280247 155.274118 
L 166.907588 149.613951 
L 167.721259 145.684218 
L 169.3486 139.061484 
L 170.162271 135.348303 
L 170.975941 132.482459 
L 171.789612 128.398754 
L 172.603282 125.476288 
L 173.416953 121.955819 
L 174.230623 119.280699 
L 176.671635 109.220939 
L 178.298976 103.71971 
L 180.739988 94.617549 
L 182.367329 89.200755 
L 183.180999 86.177959 
L 188.876693 69.612682 
L 190.504034 65.664075 
L 192.131375 62.048243 
L 193.758716 58.080762 
L 195.386057 54.84638 
L 197.013398 52.148414 
L 197.827069 50.41798 
L 198.640739 49.267669 
L 202.709092 42.427389 
L 205.150104 39.138373 
L 205.963774 38.347658 
L 206.777445 37.726808 
L 210.032127 33.652044 
L 210.845798 32.855369 
L 212.473139 31.544133 
L 213.286809 30.753418 
L 214.10048 30.231904 
L 214.91415 29.900122 
L 215.727821 29.440196 
L 216.541491 28.763718 
L 217.355162 28.285911 
L 218.168832 27.946182 
L 218.982503 27.303478 
L 220.609844 26.403493 
L 221.423515 26.192901 
L 222.237185 25.794563 
L 228.746549 23.961814 
L 230.373891 23.263481 
L 235.255914 22.084363 
L 239.324266 21.450599 
L 240.137937 21.384043 
L 241.765278 21.102922 
L 243.392619 20.946965 
L 245.833631 20.653924 
L 247.460972 20.551607 
L 249.088313 20.427437 
L 253.970336 20.120489 
L 258.852359 19.836388 
L 271.871088 19.565201 
L 279.194123 19.500632 
L 286.517158 19.484738 
L 297.908545 19.412223 
L 318.250309 19.296993 
L 406.940398 19.296 
L 406.940398 19.296 
" style="fill:none;stroke:#0000f1;stroke-linecap:round;stroke-width:1.5;"/>
   </g>
   <g id="line2d_18">
    <path clip-path="url(#p4731a28940)" d="M 82.285852 213.579404 
L 83.099523 238.518709 
L 83.913193 247.743054 
L 84.726864 252.116819 
L 85.540534 254.909155 
L 86.354205 256.389262 
L 87.167876 257.53262 
L 87.981546 258.434591 
L 89.608887 259.51338 
L 90.422558 259.829269 
L 91.236228 260.287208 
L 92.049899 260.554422 
L 92.863569 260.523628 
L 93.67724 260.698459 
L 94.49091 260.709386 
L 95.304581 261.039182 
L 98.559263 261.002428 
L 99.372934 261.095803 
L 100.186604 260.948786 
L 101.000275 261.098783 
L 101.813945 261.078916 
L 102.627616 260.769981 
L 103.441286 260.727267 
L 104.254957 260.804749 
L 107.509639 260.333896 
L 108.32331 260.09847 
L 109.950651 259.896817 
L 111.577992 259.428945 
L 112.391662 259.37431 
L 113.205333 259.082262 
L 114.019003 258.934251 
L 114.832674 258.594522 
L 116.460015 258.248833 
L 117.273685 257.937911 
L 118.901027 257.115408 
L 119.714697 256.862102 
L 120.528368 256.358468 
L 121.342038 256.105161 
L 122.155709 255.369081 
L 122.969379 255.158489 
L 123.78305 254.592273 
L 124.59672 253.871094 
L 125.410391 253.453882 
L 126.224061 252.553898 
L 127.851403 251.048957 
L 128.665073 250.191687 
L 129.478744 249.517195 
L 130.292414 248.346023 
L 131.106085 247.526501 
L 132.733426 245.509979 
L 133.547096 244.121262 
L 134.360767 243.679216 
L 135.988108 240.60874 
L 137.615449 238.377652 
L 139.24279 235.537635 
L 140.056461 233.680051 
L 141.683802 230.660236 
L 142.497472 228.658614 
L 144.124813 225.402379 
L 147.379495 217.267751 
L 149.006837 212.897959 
L 149.820507 210.850643 
L 150.634178 208.356316 
L 151.447848 206.267279 
L 153.88886 198.301522 
L 157.957212 184.600103 
L 160.398224 175.012189 
L 161.211895 172.50296 
L 166.907588 149.892092 
L 168.53493 144.064047 
L 172.603282 127.175928 
L 173.416953 124.509748 
L 175.044294 117.917809 
L 175.857964 114.679454 
L 177.485305 108.99048 
L 178.298976 106.025299 
L 179.112647 103.485277 
L 180.739988 97.01254 
L 181.553658 94.818207 
L 186.435681 79.22841 
L 188.063022 75.156626 
L 189.690364 70.913984 
L 192.131375 65.223023 
L 192.945046 62.91048 
L 196.199728 56.354301 
L 197.013398 55.109621 
L 198.640739 51.441141 
L 200.268081 48.81867 
L 201.081751 47.71008 
L 204.336433 42.455203 
L 205.150104 41.260191 
L 208.404786 37.429793 
L 210.845798 34.483486 
L 216.541491 29.59218 
L 218.982503 28.084259 
L 226.305538 24.622398 
L 227.932879 24.07307 
L 229.56022 23.82175 
L 231.187561 23.316129 
L 234.442243 22.451906 
L 240.137937 21.470466 
L 240.951608 21.418811 
L 241.765278 21.216166 
L 243.392619 21.027427 
L 244.20629 20.851602 
L 245.01996 20.802928 
L 247.460972 20.419491 
L 250.715654 20.213865 
L 253.970336 20.011219 
L 262.107042 19.622816 
L 266.989065 19.534406 
L 273.498429 19.445004 
L 276.753111 19.365535 
L 289.77184 19.330768 
L 319.063979 19.296 
L 406.940398 19.296 
L 406.940398 19.296 
" style="fill:none;stroke:#004cff;stroke-linecap:round;stroke-width:1.5;"/>
   </g>
   <g id="line2d_19">
    <path clip-path="url(#p4731a28940)" d="M 82.285852 213.356892 
L 83.099523 238.471028 
L 83.913193 247.902985 
L 84.726864 252.230062 
L 85.540534 254.523731 
L 86.354205 256.433963 
L 87.981546 258.352142 
L 88.795217 258.810081 
L 89.608887 259.424971 
L 90.422558 259.835229 
L 91.236228 259.877944 
L 92.049899 260.396478 
L 96.118251 261.052096 
L 96.931922 260.986534 
L 99.372934 261.132558 
L 101.000275 260.848457 
L 101.813945 261.067989 
L 102.627616 260.741174 
L 104.254957 260.820643 
L 107.509639 260.239527 
L 108.32331 260.206746 
L 109.13698 260.022974 
L 110.764321 259.823309 
L 111.577992 259.518347 
L 112.391662 259.463712 
L 113.205333 259.103123 
L 114.019003 258.976966 
L 114.832674 258.547834 
L 115.646344 258.427637 
L 117.273685 257.790894 
L 118.087356 257.652816 
L 120.528368 256.295886 
L 121.342038 256.017745 
L 122.969379 254.977697 
L 123.78305 254.635981 
L 124.59672 253.735003 
L 126.224061 252.38304 
L 127.851403 250.741015 
L 128.665073 250.209567 
L 132.733426 245.182171 
L 134.360767 242.71963 
L 136.801778 239.146513 
L 137.615449 237.622698 
L 138.42912 236.530995 
L 142.497472 228.342726 
L 143.311143 227.102019 
L 144.124813 224.83219 
L 144.938484 223.043148 
L 150.634178 208.022547 
L 151.447848 205.579873 
L 152.261519 202.700122 
L 153.88886 197.756167 
L 157.957212 183.970312 
L 159.584554 177.739956 
L 161.211895 171.771847 
L 166.907588 148.476554 
L 167.721259 145.653423 
L 171.789612 128.59544 
L 173.416953 122.646204 
L 175.857964 113.457621 
L 178.298976 103.983943 
L 180.739988 96.050968 
L 184.80834 82.461798 
L 185.622011 80.430376 
L 187.249352 75.280796 
L 189.690364 68.465351 
L 191.317705 64.127346 
L 192.945046 60.408205 
L 193.758716 58.406584 
L 196.199728 53.496404 
L 197.827069 50.66334 
L 200.268081 46.12269 
L 202.709092 42.342954 
L 203.522763 41.421115 
L 204.336433 40.290671 
L 205.963774 38.417193 
L 206.777445 37.280789 
L 210.032127 33.825882 
L 211.659468 32.280213 
L 215.727821 28.807425 
L 218.982503 27.073018 
L 223.864526 24.898552 
L 225.491867 24.346244 
L 227.932879 23.84261 
L 230.373891 23.131364 
L 231.187561 22.929712 
L 232.814902 22.723093 
L 235.255914 22.190652 
L 239.324266 21.679071 
L 243.392619 21.120803 
L 247.460972 20.740346 
L 249.088313 20.484059 
L 253.156666 20.183071 
L 254.784007 20.03506 
L 258.038689 19.943671 
L 262.920712 19.688377 
L 271.057418 19.568181 
L 323.132332 19.296 
L 406.940398 19.296 
L 406.940398 19.296 
" style="fill:none;stroke:#00b0ff;stroke-linecap:round;stroke-width:1.5;"/>
   </g>
   <g id="line2d_20">
    <path clip-path="url(#p4731a28940)" d="M 82.285852 213.783043 
L 83.099523 238.42136 
L 83.913193 248.073843 
L 84.726864 252.292644 
L 85.540534 254.610154 
L 86.354205 256.277012 
L 87.167876 257.592221 
L 88.795217 259.107096 
L 90.422558 259.843176 
L 92.863569 260.550449 
L 93.67724 260.943819 
L 94.49091 260.820643 
L 95.304581 260.978587 
L 96.118251 260.867331 
L 96.931922 261.072956 
L 98.559263 260.97064 
L 99.372934 261.105737 
L 100.186604 260.986534 
L 101.000275 261.133551 
L 101.813945 260.83753 
L 104.254957 260.812696 
L 105.068627 260.547468 
L 105.882298 260.59813 
L 107.509639 260.239527 
L 108.32331 260.35575 
L 109.950651 259.807415 
L 110.764321 259.74682 
L 115.646344 258.553794 
L 119.714697 256.825347 
L 120.528368 256.309793 
L 121.342038 255.96311 
L 122.969379 254.660815 
L 124.59672 253.756857 
L 126.224061 252.3741 
L 127.851403 251.045977 
L 128.665073 249.94732 
L 130.292414 248.33907 
L 131.919755 246.014607 
L 132.733426 244.92489 
L 133.547096 244.129209 
L 134.360767 242.961017 
L 140.870131 231.948624 
L 141.683802 229.979784 
L 142.497472 228.313918 
L 144.124813 224.339484 
L 144.938484 222.595143 
L 146.565825 218.663423 
L 147.379495 216.211809 
L 148.193166 214.497269 
L 150.634178 207.638116 
L 151.447848 204.530885 
L 153.88886 197.422398 
L 162.025565 167.59278 
L 162.839236 164.229262 
L 164.466577 158.331682 
L 165.280247 155.253258 
L 166.093918 151.343392 
L 169.3486 138.622419 
L 170.162271 134.742353 
L 170.975941 131.643069 
L 172.603282 124.526636 
L 173.416953 121.13431 
L 174.230623 118.690643 
L 176.671635 109.049088 
L 180.739988 94.278813 
L 183.99467 83.86343 
L 184.80834 80.68269 
L 188.876693 69.613675 
L 189.690364 67.031932 
L 191.317705 62.755515 
L 194.572387 55.33412 
L 195.386057 53.84408 
L 196.199728 52.049078 
L 197.013398 50.715988 
L 197.827069 48.984561 
L 200.268081 45.013106 
L 201.081751 43.658163 
L 204.336433 39.632073 
L 206.777445 36.685766 
L 208.404786 35.361617 
L 212.473139 31.735852 
L 214.10048 30.768319 
L 214.91415 29.990518 
L 217.355162 28.35048 
L 218.168832 28.062405 
L 218.982503 27.522017 
L 220.609844 26.856466 
L 225.491867 24.549883 
L 227.119208 23.993601 
L 227.932879 23.670759 
L 228.746549 23.538642 
L 230.373891 22.977393 
L 232.001232 22.73104 
L 235.255914 21.877744 
L 236.069584 21.782381 
L 237.696925 21.415831 
L 244.20629 20.767167 
L 251.529325 20.126449 
L 258.852359 19.973472 
L 261.293371 19.858242 
L 263.734383 19.80162 
L 270.243747 19.649636 
L 272.684759 19.608909 
L 284.889817 19.425137 
L 349.98346 19.296 
L 406.940398 19.296 
L 406.940398 19.296 
" style="fill:none;stroke:#29ffce;stroke-linecap:round;stroke-width:1.5;"/>
   </g>
   <g id="line2d_21">
    <path clip-path="url(#p4731a28940)" d="M 82.285852 213.839665 
L 83.099523 238.435267 
L 83.913193 248.003314 
L 84.726864 252.312511 
L 85.540534 254.717437 
L 86.354205 256.294893 
L 87.167876 257.463085 
L 87.981546 258.435584 
L 88.795217 258.775314 
L 89.608887 259.419011 
L 90.422558 259.75576 
L 91.236228 260.337869 
L 92.049899 260.301115 
L 92.863569 260.625944 
L 96.118251 261.111697 
L 97.745593 261.016335 
L 98.559263 261.099777 
L 101.000275 260.893158 
L 101.813945 261.003421 
L 102.627616 260.860377 
L 103.441286 260.84349 
L 105.068627 260.47992 
L 105.882298 260.612037 
L 106.695968 260.35575 
L 109.13698 260.137211 
L 109.950651 259.86801 
L 112.391662 259.505433 
L 113.205333 259.163718 
L 114.019003 259.091202 
L 114.832674 258.64717 
L 115.646344 258.519027 
L 118.087356 257.585268 
L 118.901027 257.16905 
L 119.714697 256.887929 
L 120.528368 256.425023 
L 121.342038 256.179663 
L 122.155709 255.46643 
L 122.969379 255.306499 
L 123.78305 254.590286 
L 126.224061 253.117133 
L 127.037732 252.719789 
L 127.851403 251.712522 
L 129.478744 250.378439 
L 130.292414 249.511235 
L 131.106085 249.110911 
L 132.733426 247.168891 
L 133.547096 246.658304 
L 135.174437 244.712311 
L 135.988108 243.846101 
L 136.801778 242.150435 
L 138.42912 240.221329 
L 139.24279 238.901153 
L 140.056461 237.339591 
L 140.870131 236.412785 
L 141.683802 234.278054 
L 143.311143 231.154929 
L 144.124813 229.962897 
L 144.938484 227.804325 
L 145.752154 226.454348 
L 149.006837 218.007805 
L 152.261519 209.150011 
L 153.075189 206.276219 
L 153.88886 204.384861 
L 154.70253 201.885566 
L 157.143542 193.314853 
L 157.957212 190.916881 
L 161.211895 179.22503 
L 162.839236 173.502281 
L 165.280247 163.050143 
L 167.721259 153.336072 
L 168.53493 150.727508 
L 169.3486 146.756053 
L 170.975941 140.685628 
L 171.789612 136.811523 
L 176.671635 117.436029 
L 177.485305 114.790711 
L 178.298976 111.327857 
L 179.112647 109.13849 
L 179.926317 106.283573 
L 180.739988 102.6439 
L 182.367329 96.618176 
L 185.622011 86.525635 
L 188.876693 77.200962 
L 191.317705 70.497766 
L 192.131375 68.183236 
L 193.758716 64.340919 
L 194.572387 62.749555 
L 197.013398 57.492692 
L 197.827069 56.192384 
L 202.709092 46.557781 
L 205.150104 42.474077 
L 208.404786 38.435074 
L 210.032127 36.590404 
L 211.659468 34.829176 
L 214.10048 32.77888 
L 214.91415 32.240479 
L 217.355162 30.185216 
L 218.982503 29.125301 
L 220.609844 27.959096 
L 225.491867 25.534303 
L 227.932879 24.57273 
L 229.56022 24.036316 
L 231.187561 23.705527 
L 236.883255 22.365483 
L 245.833631 20.99862 
L 246.647301 20.947958 
L 248.274642 20.610216 
L 249.901984 20.457238 
L 254.784007 20.129429 
L 257.225018 20.098635 
L 268.616406 19.644669 
L 275.939441 19.571161 
L 278.380452 19.466858 
L 284.076146 19.425137 
L 297.094875 19.327788 
L 406.940398 19.296 
L 406.940398 19.296 
" style="fill:none;stroke:#7dff7a;stroke-linecap:round;stroke-width:1.5;"/>
   </g>
   <g id="line2d_22">
    <path clip-path="url(#p4731a28940)" d="M 82.285852 213.905227 
L 83.099523 238.869366 
L 83.913193 247.903978 
L 84.726864 252.27675 
L 85.540534 254.83962 
L 86.354205 256.425023 
L 87.981546 258.437571 
L 88.795217 258.952132 
L 89.608887 259.317688 
L 90.422558 259.881917 
L 91.236228 260.187872 
L 92.049899 260.632897 
L 94.49091 260.764021 
L 95.304581 260.95574 
L 97.745593 261.139511 
L 98.559263 260.839516 
L 99.372934 260.889184 
L 100.186604 261.090837 
L 101.813945 260.936866 
L 105.068627 260.676605 
L 107.509639 260.330916 
L 109.13698 259.825296 
L 110.764321 259.784568 
L 111.577992 259.408084 
L 112.391662 259.285901 
L 113.205333 258.897497 
L 114.019003 258.983919 
L 114.832674 258.5379 
L 116.460015 258.25678 
L 118.901027 257.192891 
L 119.714697 257.091568 
L 120.528368 256.637602 
L 121.342038 255.875695 
L 122.155709 255.506165 
L 122.969379 255.374048 
L 124.59672 254.087646 
L 126.224061 252.664161 
L 127.037732 251.900267 
L 127.851403 251.321138 
L 131.106085 247.586103 
L 134.360767 243.406042 
L 135.988108 240.815358 
L 136.801778 239.78127 
L 137.615449 238.153153 
L 138.42912 236.874698 
L 139.24279 235.312142 
L 140.056461 234.051568 
L 140.870131 232.068821 
L 141.683802 230.709904 
L 143.311143 227.094072 
L 144.938484 223.418639 
L 145.752154 221.788534 
L 150.634178 208.172544 
L 152.261519 202.8978 
L 153.075189 200.913066 
L 153.88886 198.118744 
L 154.70253 195.750573 
L 161.211895 172.094689 
L 162.025565 168.342767 
L 162.839236 165.576259 
L 166.907588 149.46296 
L 167.721259 145.550114 
L 169.3486 139.643593 
L 170.162271 135.642338 
L 170.975941 132.650336 
L 172.603282 125.895486 
L 178.298976 102.996543 
L 179.112647 100.242948 
L 179.926317 96.850623 
L 181.553658 91.59078 
L 182.367329 88.368319 
L 183.180999 86.415372 
L 184.80834 81.295593 
L 187.249352 73.988434 
L 189.690364 67.146168 
L 192.131375 61.115477 
L 192.945046 59.371137 
L 195.386057 54.927836 
L 197.013398 51.879213 
L 198.640739 49.595477 
L 201.081751 44.852182 
L 202.709092 42.351894 
L 204.336433 39.860546 
L 207.591115 36.008295 
L 208.404786 35.540422 
L 209.218457 34.677192 
L 210.032127 34.067268 
L 211.659468 32.625903 
L 212.473139 32.05174 
L 214.91415 30.787193 
L 215.727821 30.221971 
L 216.541491 29.84946 
L 218.168832 28.547165 
L 220.609844 27.155467 
L 221.423515 26.78693 
L 223.050856 25.811451 
L 225.491867 24.901532 
L 227.119208 24.413793 
L 229.56022 23.542616 
L 233.628573 22.676405 
L 236.069584 22.064495 
L 239.324266 21.572782 
L 240.951608 21.166498 
L 250.715654 20.463198 
L 253.156666 20.284394 
L 256.411348 19.981419 
L 262.107042 19.880096 
L 264.548053 19.889036 
L 266.989065 19.689371 
L 279.194123 19.406263 
L 406.940398 19.296 
L 406.940398 19.296 
" style="fill:none;stroke:#ceff29;stroke-linecap:round;stroke-width:1.5;"/>
   </g>
   <g id="line2d_23">
    <path clip-path="url(#p4731a28940)" d="M 82.285852 213.636026 
L 83.099523 238.357785 
L 83.913193 247.910931 
L 84.726864 252.223109 
L 85.540534 254.752204 
L 86.354205 256.020725 
L 87.167876 257.65977 
L 88.795217 259.026634 
L 89.608887 259.349476 
L 90.422558 259.814369 
L 92.049899 260.4978 
L 93.67724 260.702433 
L 95.304581 260.997461 
L 97.745593 260.934879 
L 98.559263 261.2011 
L 99.372934 260.950773 
L 102.627616 260.910045 
L 109.13698 260.071649 
L 110.764321 259.552121 
L 111.577992 259.614703 
L 112.391662 259.540201 
L 114.019003 258.851802 
L 115.646344 258.284594 
L 121.342038 255.68497 
L 122.155709 254.98167 
L 123.78305 253.788645 
L 125.410391 252.136686 
L 126.224061 251.633053 
L 127.851403 249.80229 
L 128.665073 248.701646 
L 129.478744 247.935765 
L 131.106085 246.075202 
L 131.919755 244.477878 
L 132.733426 243.8163 
L 133.547096 242.762345 
L 136.801778 237.351511 
L 137.615449 235.509821 
L 138.42912 234.164811 
L 141.683802 227.817238 
L 142.497472 225.718268 
L 143.311143 223.95108 
L 145.752154 217.912442 
L 147.379495 213.846618 
L 148.193166 211.227127 
L 149.006837 209.073522 
L 149.820507 206.475884 
L 150.634178 204.378901 
L 151.447848 201.294517 
L 153.88886 193.782726 
L 155.516201 188.151366 
L 156.329871 185.427572 
L 158.770883 176.399913 
L 159.584554 173.738701 
L 162.839236 160.60747 
L 163.652906 156.634029 
L 165.280247 150.746382 
L 167.721259 140.552518 
L 171.789612 124.44518 
L 172.603282 121.467086 
L 173.416953 117.742978 
L 175.044294 112.196053 
L 175.857964 108.28122 
L 178.298976 99.379718 
L 180.739988 91.780512 
L 184.80834 79.024771 
L 185.622011 76.707262 
L 186.435681 73.716254 
L 188.063022 70.270286 
L 188.876693 67.877281 
L 192.131375 60.35059 
L 193.758716 56.980118 
L 194.572387 55.22187 
L 200.268081 45.452171 
L 201.081751 44.501526 
L 204.336433 39.605252 
L 207.591115 35.874191 
L 214.91415 29.918996 
L 215.727821 29.364701 
L 216.541491 28.638554 
L 218.168832 27.565725 
L 218.982503 26.960768 
L 222.237185 25.398213 
L 223.864526 24.618425 
L 227.119208 23.69162 
L 228.746549 23.166132 
L 232.001232 22.503561 
L 237.696925 21.678078 
L 240.951608 21.477419 
L 249.088313 20.627103 
L 266.175394 19.762879 
L 269.430076 19.592021 
L 273.498429 19.555267 
L 278.380452 19.466858 
L 393.107999 19.296 
L 406.940398 19.296 
L 406.940398 19.296 
" style="fill:none;stroke:#ffc400;stroke-linecap:round;stroke-width:1.5;"/>
   </g>
   <g id="line2d_24">
    <path clip-path="url(#p4731a28940)" d="M 82.285852 213.638013 
L 83.099523 238.513743 
L 83.913193 247.769874 
L 84.726864 252.346285 
L 85.540534 254.590286 
L 86.354205 256.446877 
L 87.167876 257.320041 
L 87.981546 258.40181 
L 89.608887 259.587882 
L 92.049899 260.374624 
L 92.863569 260.730247 
L 93.67724 260.758061 
L 94.49091 261.025275 
L 95.304581 260.84945 
L 97.745593 261.104744 
L 98.559263 260.963686 
L 99.372934 261.072956 
L 100.186604 260.919979 
L 102.627616 260.897131 
L 104.254957 260.651771 
L 105.882298 260.642831 
L 106.695968 260.287208 
L 107.509639 260.297142 
L 109.950651 259.73788 
L 110.764321 259.836222 
L 111.577992 259.464706 
L 114.019003 258.78028 
L 114.832674 258.7624 
L 116.460015 257.846522 
L 117.273685 257.720365 
L 120.528368 256.214431 
L 122.155709 254.820746 
L 122.969379 254.607174 
L 123.78305 253.672421 
L 125.410391 252.772437 
L 126.224061 251.725435 
L 127.037732 251.125446 
L 127.851403 250.249302 
L 128.665073 249.600637 
L 130.292414 247.904971 
L 131.106085 247.062602 
L 131.919755 245.711632 
L 132.733426 244.817607 
L 133.547096 243.527232 
L 135.174437 241.35376 
L 135.988108 239.89352 
L 136.801778 238.739235 
L 137.615449 237.218401 
L 138.42912 236.08001 
L 139.24279 234.74692 
L 140.056461 232.850595 
L 140.870131 231.507572 
L 142.497472 227.673201 
L 143.311143 226.104685 
L 146.565825 218.130981 
L 151.447848 204.212016 
L 154.70253 193.780739 
L 158.770883 179.446549 
L 159.584554 176.190314 
L 160.398224 173.728767 
L 162.025565 167.252058 
L 162.839236 164.358399 
L 163.652906 160.606477 
L 165.280247 154.783398 
L 166.093918 151.469548 
L 166.907588 148.705026 
L 171.789612 128.335179 
L 174.230623 118.55058 
L 181.553658 91.998057 
L 190.504034 66.912728 
L 192.945046 61.042962 
L 195.386057 55.669876 
L 197.827069 51.077571 
L 198.640739 49.998782 
L 199.45441 48.199806 
L 201.895422 44.303847 
L 203.522763 41.959516 
L 205.150104 39.829752 
L 205.963774 38.937714 
L 206.777445 37.639392 
L 207.591115 37.113905 
L 210.032127 35.015928 
L 211.659468 33.232846 
L 212.473139 32.54842 
L 213.286809 32.056707 
L 214.10048 31.317647 
L 216.541491 29.712377 
L 217.355162 29.35278 
L 219.796174 28.003797 
L 220.609844 27.785258 
L 222.237185 26.678654 
L 223.050856 26.109459 
L 227.119208 24.216114 
L 229.56022 23.33401 
L 232.001232 22.580049 
L 232.814902 22.528395 
L 237.696925 21.598609 
L 240.137937 21.260867 
L 245.833631 20.720479 
L 249.901984 20.15625 
L 260.479701 19.580101 
L 263.734383 19.563214 
L 266.175394 19.494672 
L 271.871088 19.438051 
L 301.163228 19.297987 
L 346.728778 19.296 
L 406.940398 19.296 
L 406.940398 19.296 
" style="fill:none;stroke:#ff6800;stroke-linecap:round;stroke-width:1.5;"/>
   </g>
   <g id="line2d_25">
    <path clip-path="url(#p4731a28940)" d="M 82.285852 213.490002 
L 83.099523 238.28825 
L 83.913193 247.820536 
L 84.726864 252.195295 
L 85.540534 254.780018 
L 87.167876 257.639903 
L 88.795217 259.068355 
L 89.608887 259.423978 
L 90.422558 259.993173 
L 92.049899 260.389524 
L 97.745593 261.216 
L 98.559263 261.045142 
L 99.372934 261.092823 
L 101.000275 261.011368 
L 102.627616 260.98852 
L 104.254957 260.623957 
L 107.509639 260.325949 
L 108.32331 260.147144 
L 109.13698 260.093503 
L 109.950651 259.762714 
L 110.764321 259.817349 
L 112.391662 259.181598 
L 114.019003 258.818028 
L 116.460015 257.961751 
L 117.273685 257.473018 
L 118.087356 257.29322 
L 119.714697 256.408136 
L 120.528368 256.105161 
L 121.342038 255.428683 
L 122.969379 254.73631 
L 123.78305 254.053872 
L 124.59672 253.201569 
L 125.410391 252.716809 
L 126.224061 251.935034 
L 127.037732 250.90492 
L 128.665073 249.303623 
L 129.478744 248.198013 
L 130.292414 247.448026 
L 133.547096 242.937176 
L 134.360767 242.097787 
L 135.174437 240.327619 
L 136.801778 238.17898 
L 137.615449 236.336297 
L 139.24279 233.419791 
L 140.056461 231.395322 
L 140.870131 230.432756 
L 141.683802 228.527491 
L 142.497472 226.937121 
L 143.311143 224.746761 
L 144.124813 223.202086 
L 144.938484 220.689878 
L 146.565825 217.052192 
L 148.193166 212.44002 
L 149.820507 208.143736 
L 150.634178 205.307693 
L 151.447848 203.247463 
L 153.075189 197.61809 
L 153.88886 195.090981 
L 157.957212 180.416069 
L 158.770883 177.762803 
L 160.398224 171.028814 
L 162.025565 165.397454 
L 165.280247 152.163907 
L 166.093918 149.754015 
L 166.907588 146.572282 
L 168.53493 139.486642 
L 169.3486 135.817169 
L 170.162271 133.108276 
L 171.789612 126.407067 
L 172.603282 122.652165 
L 175.044294 113.278816 
L 175.857964 109.62325 
L 178.298976 101.227368 
L 179.112647 98.535362 
L 179.926317 95.316874 
L 181.553658 90.400734 
L 186.435681 75.830124 
L 187.249352 73.479834 
L 188.063022 71.692778 
L 188.876693 69.511359 
L 189.690364 66.798492 
L 192.131375 61.036009 
L 193.758716 57.668517 
L 194.572387 56.190397 
L 195.386057 54.23447 
L 197.827069 49.616338 
L 199.45441 46.954132 
L 201.895422 42.986651 
L 202.709092 41.583033 
L 207.591115 35.261288 
L 210.845798 32.233525 
L 211.659468 31.744792 
L 212.473139 31.115995 
L 214.10048 30.163362 
L 214.91415 29.505758 
L 215.727821 29.060732 
L 216.541491 28.481603 
L 218.168832 27.582612 
L 218.982503 27.109773 
L 221.423515 26.312104 
L 224.678197 24.861798 
L 226.305538 24.534982 
L 229.56022 23.430366 
L 236.069584 22.266147 
L 242.578949 21.248946 
L 244.20629 21.154577 
L 249.901984 20.566508 
L 253.156666 20.409557 
L 254.784007 20.228765 
L 258.038689 20.066848 
L 259.66603 19.926784 
L 262.107042 19.800627 
L 267.802735 19.632749 
L 271.057418 19.578114 
L 290.585511 19.448977 
L 309.299933 19.345668 
L 358.933836 19.296 
L 406.940398 19.296 
L 406.940398 19.296 
" style="fill:none;stroke:#f10800;stroke-linecap:round;stroke-width:1.5;"/>
   </g>
   <g id="patch_3">
    <path d="M 66.053125 273.312 
L 66.053125 7.2 
" style="fill:none;stroke:#cccccc;stroke-linecap:square;stroke-linejoin:miter;stroke-width:0.8;"/>
   </g>
   <g id="patch_4">
    <path d="M 423.173125 273.312 
L 423.173125 7.2 
" style="fill:none;stroke:#cccccc;stroke-linecap:square;stroke-linejoin:miter;stroke-width:0.8;"/>
   </g>
   <g id="patch_5">
    <path d="M 66.053125 273.312 
L 423.173125 273.312 
" style="fill:none;stroke:#cccccc;stroke-linecap:square;stroke-linejoin:miter;stroke-width:0.8;"/>
   </g>
   <g id="patch_6">
    <path d="M 66.053125 7.2 
L 423.173125 7.2 
" style="fill:none;stroke:#cccccc;stroke-linecap:square;stroke-linejoin:miter;stroke-width:0.8;"/>
   </g>
  </g>
 </g>
 <defs>
  <clipPath id="p4731a28940">
   <rect height="266.112" width="357.12" x="66.053125" y="7.2"/>
  </clipPath>
 </defs>
</svg>
