<?xml version="1.0" encoding="utf-8" standalone="no"?>
<!DOCTYPE svg PUBLIC "-//W3C//DTD SVG 1.1//EN"
  "http://www.w3.org/Graphics/SVG/1.1/DTD/svg11.dtd">
<!-- Created with matplotlib (https://matplotlib.org/) -->
<svg height="325.986375pt" version="1.1" viewBox="0 0 430.373125 325.986375" width="430.373125pt" xmlns="http://www.w3.org/2000/svg" xmlns:xlink="http://www.w3.org/1999/xlink">
 <defs>
  <style type="text/css">
*{stroke-linecap:butt;stroke-linejoin:round;white-space:pre;}
  </style>
 </defs>
 <g id="figure_1">
  <g id="patch_1">
   <path d="M 0 325.986375 
L 430.373125 325.986375 
L 430.373125 0 
L 0 0 
z
" style="fill:#ffffff;"/>
  </g>
  <g id="axes_1">
   <g id="patch_2">
    <path d="M 66.053125 288.430125 
L 423.173125 288.430125 
L 423.173125 22.318125 
L 66.053125 22.318125 
z
" style="fill:#ffffff;"/>
   </g>
   <g id="matplotlib.axis_1">
    <g id="xtick_1">
     <g id="line2d_1">
      <path clip-path="url(#pabfd6e2235)" d="M 82.285852 288.430125 
L 82.285852 22.318125 
" style="fill:none;stroke:#cccccc;stroke-linecap:round;stroke-width:0.8;"/>
     </g>
     <g id="text_1">
      <!-- 0 -->
      <defs>
       <path d="M 31.78125 66.40625 
Q 24.171875 66.40625 20.328125 58.90625 
Q 16.5 51.421875 16.5 36.375 
Q 16.5 21.390625 20.328125 13.890625 
Q 24.171875 6.390625 31.78125 6.390625 
Q 39.453125 6.390625 43.28125 13.890625 
Q 47.125 21.390625 47.125 36.375 
Q 47.125 51.421875 43.28125 58.90625 
Q 39.453125 66.40625 31.78125 66.40625 
z
M 31.78125 74.21875 
Q 44.046875 74.21875 50.515625 64.515625 
Q 56.984375 54.828125 56.984375 36.375 
Q 56.984375 17.96875 50.515625 8.265625 
Q 44.046875 -1.421875 31.78125 -1.421875 
Q 19.53125 -1.421875 13.0625 8.265625 
Q 6.59375 17.96875 6.59375 36.375 
Q 6.59375 54.828125 13.0625 64.515625 
Q 19.53125 74.21875 31.78125 74.21875 
z
" id="DejaVuSans-48"/>
      </defs>
      <g style="fill:#262626;" transform="translate(79.104602 303.028562)scale(0.1 -0.1)">
       <use xlink:href="#DejaVuSans-48"/>
      </g>
     </g>
    </g>
    <g id="xtick_2">
     <g id="line2d_2">
      <path clip-path="url(#pabfd6e2235)" d="M 136.394943 288.430125 
L 136.394943 22.318125 
" style="fill:none;stroke:#cccccc;stroke-linecap:round;stroke-width:0.8;"/>
     </g>
     <g id="text_2">
      <!-- 10 -->
      <defs>
       <path d="M 12.40625 8.296875 
L 28.515625 8.296875 
L 28.515625 63.921875 
L 10.984375 60.40625 
L 10.984375 69.390625 
L 28.421875 72.90625 
L 38.28125 72.90625 
L 38.28125 8.296875 
L 54.390625 8.296875 
L 54.390625 0 
L 12.40625 0 
z
" id="DejaVuSans-49"/>
      </defs>
      <g style="fill:#262626;" transform="translate(130.032443 303.028562)scale(0.1 -0.1)">
       <use xlink:href="#DejaVuSans-49"/>
       <use x="63.623047" xlink:href="#DejaVuSans-48"/>
      </g>
     </g>
    </g>
    <g id="xtick_3">
     <g id="line2d_3">
      <path clip-path="url(#pabfd6e2235)" d="M 190.504034 288.430125 
L 190.504034 22.318125 
" style="fill:none;stroke:#cccccc;stroke-linecap:round;stroke-width:0.8;"/>
     </g>
     <g id="text_3">
      <!-- 20 -->
      <defs>
       <path d="M 19.1875 8.296875 
L 53.609375 8.296875 
L 53.609375 0 
L 7.328125 0 
L 7.328125 8.296875 
Q 12.9375 14.109375 22.625 23.890625 
Q 32.328125 33.6875 34.8125 36.53125 
Q 39.546875 41.84375 41.421875 45.53125 
Q 43.3125 49.21875 43.3125 52.78125 
Q 43.3125 58.59375 39.234375 62.25 
Q 35.15625 65.921875 28.609375 65.921875 
Q 23.96875 65.921875 18.8125 64.3125 
Q 13.671875 62.703125 7.8125 59.421875 
L 7.8125 69.390625 
Q 13.765625 71.78125 18.9375 73 
Q 24.125 74.21875 28.421875 74.21875 
Q 39.75 74.21875 46.484375 68.546875 
Q 53.21875 62.890625 53.21875 53.421875 
Q 53.21875 48.921875 51.53125 44.890625 
Q 49.859375 40.875 45.40625 35.40625 
Q 44.1875 33.984375 37.640625 27.21875 
Q 31.109375 20.453125 19.1875 8.296875 
z
" id="DejaVuSans-50"/>
      </defs>
      <g style="fill:#262626;" transform="translate(184.141534 303.028562)scale(0.1 -0.1)">
       <use xlink:href="#DejaVuSans-50"/>
       <use x="63.623047" xlink:href="#DejaVuSans-48"/>
      </g>
     </g>
    </g>
    <g id="xtick_4">
     <g id="line2d_4">
      <path clip-path="url(#pabfd6e2235)" d="M 244.613125 288.430125 
L 244.613125 22.318125 
" style="fill:none;stroke:#cccccc;stroke-linecap:round;stroke-width:0.8;"/>
     </g>
     <g id="text_4">
      <!-- 30 -->
      <defs>
       <path d="M 40.578125 39.3125 
Q 47.65625 37.796875 51.625 33 
Q 55.609375 28.21875 55.609375 21.1875 
Q 55.609375 10.40625 48.1875 4.484375 
Q 40.765625 -1.421875 27.09375 -1.421875 
Q 22.515625 -1.421875 17.65625 -0.515625 
Q 12.796875 0.390625 7.625 2.203125 
L 7.625 11.71875 
Q 11.71875 9.328125 16.59375 8.109375 
Q 21.484375 6.890625 26.8125 6.890625 
Q 36.078125 6.890625 40.9375 10.546875 
Q 45.796875 14.203125 45.796875 21.1875 
Q 45.796875 27.640625 41.28125 31.265625 
Q 36.765625 34.90625 28.71875 34.90625 
L 20.21875 34.90625 
L 20.21875 43.015625 
L 29.109375 43.015625 
Q 36.375 43.015625 40.234375 45.921875 
Q 44.09375 48.828125 44.09375 54.296875 
Q 44.09375 59.90625 40.109375 62.90625 
Q 36.140625 65.921875 28.71875 65.921875 
Q 24.65625 65.921875 20.015625 65.03125 
Q 15.375 64.15625 9.8125 62.3125 
L 9.8125 71.09375 
Q 15.4375 72.65625 20.34375 73.4375 
Q 25.25 74.21875 29.59375 74.21875 
Q 40.828125 74.21875 47.359375 69.109375 
Q 53.90625 64.015625 53.90625 55.328125 
Q 53.90625 49.265625 50.4375 45.09375 
Q 46.96875 40.921875 40.578125 39.3125 
z
" id="DejaVuSans-51"/>
      </defs>
      <g style="fill:#262626;" transform="translate(238.250625 303.028562)scale(0.1 -0.1)">
       <use xlink:href="#DejaVuSans-51"/>
       <use x="63.623047" xlink:href="#DejaVuSans-48"/>
      </g>
     </g>
    </g>
    <g id="xtick_5">
     <g id="line2d_5">
      <path clip-path="url(#pabfd6e2235)" d="M 298.722216 288.430125 
L 298.722216 22.318125 
" style="fill:none;stroke:#cccccc;stroke-linecap:round;stroke-width:0.8;"/>
     </g>
     <g id="text_5">
      <!-- 40 -->
      <defs>
       <path d="M 37.796875 64.3125 
L 12.890625 25.390625 
L 37.796875 25.390625 
z
M 35.203125 72.90625 
L 47.609375 72.90625 
L 47.609375 25.390625 
L 58.015625 25.390625 
L 58.015625 17.1875 
L 47.609375 17.1875 
L 47.609375 0 
L 37.796875 0 
L 37.796875 17.1875 
L 4.890625 17.1875 
L 4.890625 26.703125 
z
" id="DejaVuSans-52"/>
      </defs>
      <g style="fill:#262626;" transform="translate(292.359716 303.028562)scale(0.1 -0.1)">
       <use xlink:href="#DejaVuSans-52"/>
       <use x="63.623047" xlink:href="#DejaVuSans-48"/>
      </g>
     </g>
    </g>
    <g id="xtick_6">
     <g id="line2d_6">
      <path clip-path="url(#pabfd6e2235)" d="M 352.831307 288.430125 
L 352.831307 22.318125 
" style="fill:none;stroke:#cccccc;stroke-linecap:round;stroke-width:0.8;"/>
     </g>
     <g id="text_6">
      <!-- 50 -->
      <defs>
       <path d="M 10.796875 72.90625 
L 49.515625 72.90625 
L 49.515625 64.59375 
L 19.828125 64.59375 
L 19.828125 46.734375 
Q 21.96875 47.46875 24.109375 47.828125 
Q 26.265625 48.1875 28.421875 48.1875 
Q 40.625 48.1875 47.75 41.5 
Q 54.890625 34.8125 54.890625 23.390625 
Q 54.890625 11.625 47.5625 5.09375 
Q 40.234375 -1.421875 26.90625 -1.421875 
Q 22.3125 -1.421875 17.546875 -0.640625 
Q 12.796875 0.140625 7.71875 1.703125 
L 7.71875 11.625 
Q 12.109375 9.234375 16.796875 8.0625 
Q 21.484375 6.890625 26.703125 6.890625 
Q 35.15625 6.890625 40.078125 11.328125 
Q 45.015625 15.765625 45.015625 23.390625 
Q 45.015625 31 40.078125 35.4375 
Q 35.15625 39.890625 26.703125 39.890625 
Q 22.75 39.890625 18.8125 39.015625 
Q 14.890625 38.140625 10.796875 36.28125 
z
" id="DejaVuSans-53"/>
      </defs>
      <g style="fill:#262626;" transform="translate(346.468807 303.028562)scale(0.1 -0.1)">
       <use xlink:href="#DejaVuSans-53"/>
       <use x="63.623047" xlink:href="#DejaVuSans-48"/>
      </g>
     </g>
    </g>
    <g id="xtick_7">
     <g id="line2d_7">
      <path clip-path="url(#pabfd6e2235)" d="M 406.940398 288.430125 
L 406.940398 22.318125 
" style="fill:none;stroke:#cccccc;stroke-linecap:round;stroke-width:0.8;"/>
     </g>
     <g id="text_7">
      <!-- 60 -->
      <defs>
       <path d="M 33.015625 40.375 
Q 26.375 40.375 22.484375 35.828125 
Q 18.609375 31.296875 18.609375 23.390625 
Q 18.609375 15.53125 22.484375 10.953125 
Q 26.375 6.390625 33.015625 6.390625 
Q 39.65625 6.390625 43.53125 10.953125 
Q 47.40625 15.53125 47.40625 23.390625 
Q 47.40625 31.296875 43.53125 35.828125 
Q 39.65625 40.375 33.015625 40.375 
z
M 52.59375 71.296875 
L 52.59375 62.3125 
Q 48.875 64.0625 45.09375 64.984375 
Q 41.3125 65.921875 37.59375 65.921875 
Q 27.828125 65.921875 22.671875 59.328125 
Q 17.53125 52.734375 16.796875 39.40625 
Q 19.671875 43.65625 24.015625 45.921875 
Q 28.375 48.1875 33.59375 48.1875 
Q 44.578125 48.1875 50.953125 41.515625 
Q 57.328125 34.859375 57.328125 23.390625 
Q 57.328125 12.15625 50.6875 5.359375 
Q 44.046875 -1.421875 33.015625 -1.421875 
Q 20.359375 -1.421875 13.671875 8.265625 
Q 6.984375 17.96875 6.984375 36.375 
Q 6.984375 53.65625 15.1875 63.9375 
Q 23.390625 74.21875 37.203125 74.21875 
Q 40.921875 74.21875 44.703125 73.484375 
Q 48.484375 72.75 52.59375 71.296875 
z
" id="DejaVuSans-54"/>
      </defs>
      <g style="fill:#262626;" transform="translate(400.577898 303.028562)scale(0.1 -0.1)">
       <use xlink:href="#DejaVuSans-54"/>
       <use x="63.623047" xlink:href="#DejaVuSans-48"/>
      </g>
     </g>
    </g>
    <g id="text_8">
     <!-- time (days) -->
     <defs>
      <path d="M 18.3125 70.21875 
L 18.3125 54.6875 
L 36.8125 54.6875 
L 36.8125 47.703125 
L 18.3125 47.703125 
L 18.3125 18.015625 
Q 18.3125 11.328125 20.140625 9.421875 
Q 21.96875 7.515625 27.59375 7.515625 
L 36.8125 7.515625 
L 36.8125 0 
L 27.59375 0 
Q 17.1875 0 13.234375 3.875 
Q 9.28125 7.765625 9.28125 18.015625 
L 9.28125 47.703125 
L 2.6875 47.703125 
L 2.6875 54.6875 
L 9.28125 54.6875 
L 9.28125 70.21875 
z
" id="DejaVuSans-116"/>
      <path d="M 9.421875 54.6875 
L 18.40625 54.6875 
L 18.40625 0 
L 9.421875 0 
z
M 9.421875 75.984375 
L 18.40625 75.984375 
L 18.40625 64.59375 
L 9.421875 64.59375 
z
" id="DejaVuSans-105"/>
      <path d="M 52 44.1875 
Q 55.375 50.25 60.0625 53.125 
Q 64.75 56 71.09375 56 
Q 79.640625 56 84.28125 50.015625 
Q 88.921875 44.046875 88.921875 33.015625 
L 88.921875 0 
L 79.890625 0 
L 79.890625 32.71875 
Q 79.890625 40.578125 77.09375 44.375 
Q 74.3125 48.1875 68.609375 48.1875 
Q 61.625 48.1875 57.5625 43.546875 
Q 53.515625 38.921875 53.515625 30.90625 
L 53.515625 0 
L 44.484375 0 
L 44.484375 32.71875 
Q 44.484375 40.625 41.703125 44.40625 
Q 38.921875 48.1875 33.109375 48.1875 
Q 26.21875 48.1875 22.15625 43.53125 
Q 18.109375 38.875 18.109375 30.90625 
L 18.109375 0 
L 9.078125 0 
L 9.078125 54.6875 
L 18.109375 54.6875 
L 18.109375 46.1875 
Q 21.1875 51.21875 25.484375 53.609375 
Q 29.78125 56 35.6875 56 
Q 41.65625 56 45.828125 52.96875 
Q 50 49.953125 52 44.1875 
z
" id="DejaVuSans-109"/>
      <path d="M 56.203125 29.59375 
L 56.203125 25.203125 
L 14.890625 25.203125 
Q 15.484375 15.921875 20.484375 11.0625 
Q 25.484375 6.203125 34.421875 6.203125 
Q 39.59375 6.203125 44.453125 7.46875 
Q 49.3125 8.734375 54.109375 11.28125 
L 54.109375 2.78125 
Q 49.265625 0.734375 44.1875 -0.34375 
Q 39.109375 -1.421875 33.890625 -1.421875 
Q 20.796875 -1.421875 13.15625 6.1875 
Q 5.515625 13.8125 5.515625 26.8125 
Q 5.515625 40.234375 12.765625 48.109375 
Q 20.015625 56 32.328125 56 
Q 43.359375 56 49.78125 48.890625 
Q 56.203125 41.796875 56.203125 29.59375 
z
M 47.21875 32.234375 
Q 47.125 39.59375 43.09375 43.984375 
Q 39.0625 48.390625 32.421875 48.390625 
Q 24.90625 48.390625 20.390625 44.140625 
Q 15.875 39.890625 15.1875 32.171875 
z
" id="DejaVuSans-101"/>
      <path id="DejaVuSans-32"/>
      <path d="M 31 75.875 
Q 24.46875 64.65625 21.28125 53.65625 
Q 18.109375 42.671875 18.109375 31.390625 
Q 18.109375 20.125 21.3125 9.0625 
Q 24.515625 -2 31 -13.1875 
L 23.1875 -13.1875 
Q 15.875 -1.703125 12.234375 9.375 
Q 8.59375 20.453125 8.59375 31.390625 
Q 8.59375 42.28125 12.203125 53.3125 
Q 15.828125 64.359375 23.1875 75.875 
z
" id="DejaVuSans-40"/>
      <path d="M 45.40625 46.390625 
L 45.40625 75.984375 
L 54.390625 75.984375 
L 54.390625 0 
L 45.40625 0 
L 45.40625 8.203125 
Q 42.578125 3.328125 38.25 0.953125 
Q 33.9375 -1.421875 27.875 -1.421875 
Q 17.96875 -1.421875 11.734375 6.484375 
Q 5.515625 14.40625 5.515625 27.296875 
Q 5.515625 40.1875 11.734375 48.09375 
Q 17.96875 56 27.875 56 
Q 33.9375 56 38.25 53.625 
Q 42.578125 51.265625 45.40625 46.390625 
z
M 14.796875 27.296875 
Q 14.796875 17.390625 18.875 11.75 
Q 22.953125 6.109375 30.078125 6.109375 
Q 37.203125 6.109375 41.296875 11.75 
Q 45.40625 17.390625 45.40625 27.296875 
Q 45.40625 37.203125 41.296875 42.84375 
Q 37.203125 48.484375 30.078125 48.484375 
Q 22.953125 48.484375 18.875 42.84375 
Q 14.796875 37.203125 14.796875 27.296875 
z
" id="DejaVuSans-100"/>
      <path d="M 34.28125 27.484375 
Q 23.390625 27.484375 19.1875 25 
Q 14.984375 22.515625 14.984375 16.5 
Q 14.984375 11.71875 18.140625 8.90625 
Q 21.296875 6.109375 26.703125 6.109375 
Q 34.1875 6.109375 38.703125 11.40625 
Q 43.21875 16.703125 43.21875 25.484375 
L 43.21875 27.484375 
z
M 52.203125 31.203125 
L 52.203125 0 
L 43.21875 0 
L 43.21875 8.296875 
Q 40.140625 3.328125 35.546875 0.953125 
Q 30.953125 -1.421875 24.3125 -1.421875 
Q 15.921875 -1.421875 10.953125 3.296875 
Q 6 8.015625 6 15.921875 
Q 6 25.140625 12.171875 29.828125 
Q 18.359375 34.515625 30.609375 34.515625 
L 43.21875 34.515625 
L 43.21875 35.40625 
Q 43.21875 41.609375 39.140625 45 
Q 35.0625 48.390625 27.6875 48.390625 
Q 23 48.390625 18.546875 47.265625 
Q 14.109375 46.140625 10.015625 43.890625 
L 10.015625 52.203125 
Q 14.9375 54.109375 19.578125 55.046875 
Q 24.21875 56 28.609375 56 
Q 40.484375 56 46.34375 49.84375 
Q 52.203125 43.703125 52.203125 31.203125 
z
" id="DejaVuSans-97"/>
      <path d="M 32.171875 -5.078125 
Q 28.375 -14.84375 24.75 -17.8125 
Q 21.140625 -20.796875 15.09375 -20.796875 
L 7.90625 -20.796875 
L 7.90625 -13.28125 
L 13.1875 -13.28125 
Q 16.890625 -13.28125 18.9375 -11.515625 
Q 21 -9.765625 23.484375 -3.21875 
L 25.09375 0.875 
L 2.984375 54.6875 
L 12.5 54.6875 
L 29.59375 11.921875 
L 46.6875 54.6875 
L 56.203125 54.6875 
z
" id="DejaVuSans-121"/>
      <path d="M 44.28125 53.078125 
L 44.28125 44.578125 
Q 40.484375 46.53125 36.375 47.5 
Q 32.28125 48.484375 27.875 48.484375 
Q 21.1875 48.484375 17.84375 46.4375 
Q 14.5 44.390625 14.5 40.28125 
Q 14.5 37.15625 16.890625 35.375 
Q 19.28125 33.59375 26.515625 31.984375 
L 29.59375 31.296875 
Q 39.15625 29.25 43.1875 25.515625 
Q 47.21875 21.78125 47.21875 15.09375 
Q 47.21875 7.46875 41.1875 3.015625 
Q 35.15625 -1.421875 24.609375 -1.421875 
Q 20.21875 -1.421875 15.453125 -0.5625 
Q 10.6875 0.296875 5.421875 2 
L 5.421875 11.28125 
Q 10.40625 8.6875 15.234375 7.390625 
Q 20.0625 6.109375 24.8125 6.109375 
Q 31.15625 6.109375 34.5625 8.28125 
Q 37.984375 10.453125 37.984375 14.40625 
Q 37.984375 18.0625 35.515625 20.015625 
Q 33.0625 21.96875 24.703125 23.78125 
L 21.578125 24.515625 
Q 13.234375 26.265625 9.515625 29.90625 
Q 5.8125 33.546875 5.8125 39.890625 
Q 5.8125 47.609375 11.28125 51.796875 
Q 16.75 56 26.8125 56 
Q 31.78125 56 36.171875 55.265625 
Q 40.578125 54.546875 44.28125 53.078125 
z
" id="DejaVuSans-115"/>
      <path d="M 8.015625 75.875 
L 15.828125 75.875 
Q 23.140625 64.359375 26.78125 53.3125 
Q 30.421875 42.28125 30.421875 31.390625 
Q 30.421875 20.453125 26.78125 9.375 
Q 23.140625 -1.703125 15.828125 -13.1875 
L 8.015625 -13.1875 
Q 14.5 -2 17.703125 9.0625 
Q 20.90625 20.125 20.90625 31.390625 
Q 20.90625 42.671875 17.703125 53.65625 
Q 14.5 64.65625 8.015625 75.875 
z
" id="DejaVuSans-41"/>
     </defs>
     <g style="fill:#262626;" transform="translate(216.024063 316.706687)scale(0.1 -0.1)">
      <use xlink:href="#DejaVuSans-116"/>
      <use x="39.208984" xlink:href="#DejaVuSans-105"/>
      <use x="66.992188" xlink:href="#DejaVuSans-109"/>
      <use x="164.404297" xlink:href="#DejaVuSans-101"/>
      <use x="225.927734" xlink:href="#DejaVuSans-32"/>
      <use x="257.714844" xlink:href="#DejaVuSans-40"/>
      <use x="296.728516" xlink:href="#DejaVuSans-100"/>
      <use x="360.205078" xlink:href="#DejaVuSans-97"/>
      <use x="421.484375" xlink:href="#DejaVuSans-121"/>
      <use x="480.664062" xlink:href="#DejaVuSans-115"/>
      <use x="532.763672" xlink:href="#DejaVuSans-41"/>
     </g>
    </g>
   </g>
   <g id="matplotlib.axis_2">
    <g id="ytick_1">
     <g id="line2d_8">
      <path clip-path="url(#pabfd6e2235)" d="M 66.053125 276.334125 
L 423.173125 276.334125 
" style="fill:none;stroke:#cccccc;stroke-linecap:round;stroke-width:0.8;"/>
     </g>
     <g id="text_9">
      <!-- 0 -->
      <g style="fill:#262626;" transform="translate(52.690625 280.133344)scale(0.1 -0.1)">
       <use xlink:href="#DejaVuSans-48"/>
      </g>
     </g>
    </g>
    <g id="ytick_2">
     <g id="line2d_9">
      <path clip-path="url(#pabfd6e2235)" d="M 66.053125 221.052277 
L 423.173125 221.052277 
" style="fill:none;stroke:#cccccc;stroke-linecap:round;stroke-width:0.8;"/>
     </g>
     <g id="text_10">
      <!-- 50000 -->
      <g style="fill:#262626;" transform="translate(27.240625 224.851496)scale(0.1 -0.1)">
       <use xlink:href="#DejaVuSans-53"/>
       <use x="63.623047" xlink:href="#DejaVuSans-48"/>
       <use x="127.246094" xlink:href="#DejaVuSans-48"/>
       <use x="190.869141" xlink:href="#DejaVuSans-48"/>
       <use x="254.492188" xlink:href="#DejaVuSans-48"/>
      </g>
     </g>
    </g>
    <g id="ytick_3">
     <g id="line2d_10">
      <path clip-path="url(#pabfd6e2235)" d="M 66.053125 165.770429 
L 423.173125 165.770429 
" style="fill:none;stroke:#cccccc;stroke-linecap:round;stroke-width:0.8;"/>
     </g>
     <g id="text_11">
      <!-- 100000 -->
      <g style="fill:#262626;" transform="translate(20.878125 169.569648)scale(0.1 -0.1)">
       <use xlink:href="#DejaVuSans-49"/>
       <use x="63.623047" xlink:href="#DejaVuSans-48"/>
       <use x="127.246094" xlink:href="#DejaVuSans-48"/>
       <use x="190.869141" xlink:href="#DejaVuSans-48"/>
       <use x="254.492188" xlink:href="#DejaVuSans-48"/>
       <use x="318.115234" xlink:href="#DejaVuSans-48"/>
      </g>
     </g>
    </g>
    <g id="ytick_4">
     <g id="line2d_11">
      <path clip-path="url(#pabfd6e2235)" d="M 66.053125 110.488581 
L 423.173125 110.488581 
" style="fill:none;stroke:#cccccc;stroke-linecap:round;stroke-width:0.8;"/>
     </g>
     <g id="text_12">
      <!-- 150000 -->
      <g style="fill:#262626;" transform="translate(20.878125 114.2878)scale(0.1 -0.1)">
       <use xlink:href="#DejaVuSans-49"/>
       <use x="63.623047" xlink:href="#DejaVuSans-53"/>
       <use x="127.246094" xlink:href="#DejaVuSans-48"/>
       <use x="190.869141" xlink:href="#DejaVuSans-48"/>
       <use x="254.492188" xlink:href="#DejaVuSans-48"/>
       <use x="318.115234" xlink:href="#DejaVuSans-48"/>
      </g>
     </g>
    </g>
    <g id="ytick_5">
     <g id="line2d_12">
      <path clip-path="url(#pabfd6e2235)" d="M 66.053125 55.206734 
L 423.173125 55.206734 
" style="fill:none;stroke:#cccccc;stroke-linecap:round;stroke-width:0.8;"/>
     </g>
     <g id="text_13">
      <!-- 200000 -->
      <g style="fill:#262626;" transform="translate(20.878125 59.005952)scale(0.1 -0.1)">
       <use xlink:href="#DejaVuSans-50"/>
       <use x="63.623047" xlink:href="#DejaVuSans-48"/>
       <use x="127.246094" xlink:href="#DejaVuSans-48"/>
       <use x="190.869141" xlink:href="#DejaVuSans-48"/>
       <use x="254.492188" xlink:href="#DejaVuSans-48"/>
       <use x="318.115234" xlink:href="#DejaVuSans-48"/>
      </g>
     </g>
    </g>
    <g id="text_14">
     <!-- cells number -->
     <defs>
      <path d="M 48.78125 52.59375 
L 48.78125 44.1875 
Q 44.96875 46.296875 41.140625 47.34375 
Q 37.3125 48.390625 33.40625 48.390625 
Q 24.65625 48.390625 19.8125 42.84375 
Q 14.984375 37.3125 14.984375 27.296875 
Q 14.984375 17.28125 19.8125 11.734375 
Q 24.65625 6.203125 33.40625 6.203125 
Q 37.3125 6.203125 41.140625 7.25 
Q 44.96875 8.296875 48.78125 10.40625 
L 48.78125 2.09375 
Q 45.015625 0.34375 40.984375 -0.53125 
Q 36.96875 -1.421875 32.421875 -1.421875 
Q 20.0625 -1.421875 12.78125 6.34375 
Q 5.515625 14.109375 5.515625 27.296875 
Q 5.515625 40.671875 12.859375 48.328125 
Q 20.21875 56 33.015625 56 
Q 37.15625 56 41.109375 55.140625 
Q 45.0625 54.296875 48.78125 52.59375 
z
" id="DejaVuSans-99"/>
      <path d="M 9.421875 75.984375 
L 18.40625 75.984375 
L 18.40625 0 
L 9.421875 0 
z
" id="DejaVuSans-108"/>
      <path d="M 54.890625 33.015625 
L 54.890625 0 
L 45.90625 0 
L 45.90625 32.71875 
Q 45.90625 40.484375 42.875 44.328125 
Q 39.84375 48.1875 33.796875 48.1875 
Q 26.515625 48.1875 22.3125 43.546875 
Q 18.109375 38.921875 18.109375 30.90625 
L 18.109375 0 
L 9.078125 0 
L 9.078125 54.6875 
L 18.109375 54.6875 
L 18.109375 46.1875 
Q 21.34375 51.125 25.703125 53.5625 
Q 30.078125 56 35.796875 56 
Q 45.21875 56 50.046875 50.171875 
Q 54.890625 44.34375 54.890625 33.015625 
z
" id="DejaVuSans-110"/>
      <path d="M 8.5 21.578125 
L 8.5 54.6875 
L 17.484375 54.6875 
L 17.484375 21.921875 
Q 17.484375 14.15625 20.5 10.265625 
Q 23.53125 6.390625 29.59375 6.390625 
Q 36.859375 6.390625 41.078125 11.03125 
Q 45.3125 15.671875 45.3125 23.6875 
L 45.3125 54.6875 
L 54.296875 54.6875 
L 54.296875 0 
L 45.3125 0 
L 45.3125 8.40625 
Q 42.046875 3.421875 37.71875 1 
Q 33.40625 -1.421875 27.6875 -1.421875 
Q 18.265625 -1.421875 13.375 4.4375 
Q 8.5 10.296875 8.5 21.578125 
z
M 31.109375 56 
z
" id="DejaVuSans-117"/>
      <path d="M 48.6875 27.296875 
Q 48.6875 37.203125 44.609375 42.84375 
Q 40.53125 48.484375 33.40625 48.484375 
Q 26.265625 48.484375 22.1875 42.84375 
Q 18.109375 37.203125 18.109375 27.296875 
Q 18.109375 17.390625 22.1875 11.75 
Q 26.265625 6.109375 33.40625 6.109375 
Q 40.53125 6.109375 44.609375 11.75 
Q 48.6875 17.390625 48.6875 27.296875 
z
M 18.109375 46.390625 
Q 20.953125 51.265625 25.265625 53.625 
Q 29.59375 56 35.59375 56 
Q 45.5625 56 51.78125 48.09375 
Q 58.015625 40.1875 58.015625 27.296875 
Q 58.015625 14.40625 51.78125 6.484375 
Q 45.5625 -1.421875 35.59375 -1.421875 
Q 29.59375 -1.421875 25.265625 0.953125 
Q 20.953125 3.328125 18.109375 8.203125 
L 18.109375 0 
L 9.078125 0 
L 9.078125 75.984375 
L 18.109375 75.984375 
z
" id="DejaVuSans-98"/>
      <path d="M 41.109375 46.296875 
Q 39.59375 47.171875 37.8125 47.578125 
Q 36.03125 48 33.890625 48 
Q 26.265625 48 22.1875 43.046875 
Q 18.109375 38.09375 18.109375 28.8125 
L 18.109375 0 
L 9.078125 0 
L 9.078125 54.6875 
L 18.109375 54.6875 
L 18.109375 46.1875 
Q 20.953125 51.171875 25.484375 53.578125 
Q 30.03125 56 36.53125 56 
Q 37.453125 56 38.578125 55.875 
Q 39.703125 55.765625 41.0625 55.515625 
z
" id="DejaVuSans-114"/>
     </defs>
     <g style="fill:#262626;" transform="translate(14.798438 187.685844)rotate(-90)scale(0.1 -0.1)">
      <use xlink:href="#DejaVuSans-99"/>
      <use x="54.980469" xlink:href="#DejaVuSans-101"/>
      <use x="116.503906" xlink:href="#DejaVuSans-108"/>
      <use x="144.287109" xlink:href="#DejaVuSans-108"/>
      <use x="172.070312" xlink:href="#DejaVuSans-115"/>
      <use x="224.169922" xlink:href="#DejaVuSans-32"/>
      <use x="255.957031" xlink:href="#DejaVuSans-110"/>
      <use x="319.335938" xlink:href="#DejaVuSans-117"/>
      <use x="382.714844" xlink:href="#DejaVuSans-109"/>
      <use x="480.126953" xlink:href="#DejaVuSans-98"/>
      <use x="543.603516" xlink:href="#DejaVuSans-101"/>
      <use x="605.126953" xlink:href="#DejaVuSans-114"/>
     </g>
    </g>
   </g>
   <g id="line2d_13">
    <path clip-path="url(#pabfd6e2235)" d="M 82.285852 276.334125 
L 83.368034 195.271035 
L 84.450216 135.795506 
L 85.532398 94.431416 
L 86.61458 66.265314 
L 87.15567 55.980679 
L 87.696761 48.59613 
L 88.237852 42.870036 
L 88.778943 38.920701 
L 89.320034 36.21963 
L 89.861125 35.486593 
L 90.402216 35.467797 
L 90.943307 36.430807 
L 91.484398 38.305967 
L 92.56658 44.504168 
L 93.648761 53.338207 
L 94.730943 63.128622 
L 96.354216 79.508634 
L 99.05967 108.413301 
L 102.847307 145.530639 
L 105.552761 169.721976 
L 107.717125 187.323716 
L 111.504761 211.706328 
L 114.210216 226.30737 
L 115.833489 234.635027 
L 116.91567 239.294181 
L 117.997852 242.322521 
L 119.621125 246.448758 
L 123.949852 256.440399 
L 124.490943 257.434367 
L 127.196398 260.792186 
L 128.27858 261.877922 
L 128.81967 262.166493 
L 130.984034 262.625332 
L 131.525125 262.598797 
L 132.066216 262.440691 
L 134.23058 262.302486 
L 135.853852 262.630861 
L 136.936034 262.546832 
L 138.018216 262.696093 
L 139.100398 263.066482 
L 139.641489 263.39375 
L 140.72367 263.812786 
L 143.429125 265.109699 
L 145.052398 265.830574 
L 147.216761 266.496167 
L 150.463307 268.126982 
L 153.709852 269.944649 
L 158.03858 271.383083 
L 159.120761 271.826443 
L 162.367307 272.320663 
L 166.696034 272.073 
L 168.860398 271.778901 
L 169.94258 271.724725 
L 171.565852 271.369815 
L 174.812398 270.357052 
L 175.89458 270.072903 
L 178.058943 269.816395 
L 179.141125 269.865043 
L 180.223307 269.890473 
L 181.84658 269.991086 
L 185.634216 270.592552 
L 186.716398 270.842426 
L 189.962943 271.363181 
L 191.045125 271.606421 
L 194.832761 271.807647 
L 196.997125 271.81207 
L 201.866943 271.85519 
L 204.572398 271.835288 
L 207.277852 272.086268 
L 210.524398 272.172507 
L 211.60658 272.265381 
L 217.017489 272.474346 
L 219.181852 272.675572 
L 220.805125 272.67115 
L 222.428398 272.6811 
L 232.168034 273.15763 
L 235.41458 273.247187 
L 238.120034 273.310208 
L 240.284398 273.371018 
L 263.010216 273.683913 
L 265.71567 273.672857 
L 268.962216 273.631948 
L 270.044398 273.64411 
L 271.66767 273.664012 
L 277.61967 273.763519 
L 279.784034 273.606519 
L 283.03058 273.609836 
L 285.194943 273.54792 
L 287.900398 273.670646 
L 289.52367 273.647427 
L 294.393489 273.790054 
L 298.722216 273.710449 
L 300.88658 273.609836 
L 304.133125 273.698286 
L 306.83858 273.74804 
L 313.33167 273.842019 
L 325.23567 273.676174 
L 327.400034 273.689441 
L 329.023307 273.759097 
L 336.59858 273.818801 
L 338.762943 273.76573 
L 352.290216 273.770153 
L 354.45458 273.771259 
L 358.783307 273.724822 
L 363.112034 273.828752 
L 365.817489 273.812167 
L 372.85167 273.947055 
L 381.509125 273.886245 
L 383.673489 273.971379 
L 385.837852 274.000125 
L 388.002216 274.078626 
L 400.447307 273.937104 
L 402.07058 273.972484 
L 403.693852 273.968062 
L 406.940398 274.047668 
L 406.940398 274.047668 
" style="fill:none;stroke:#000080;stroke-linecap:round;stroke-width:1.5;"/>
   </g>
   <g id="line2d_14">
    <path clip-path="url(#pabfd6e2235)" d="M 82.285852 276.334125 
L 83.368034 195.188112 
L 84.450216 136.03764 
L 85.532398 94.396036 
L 86.61458 65.620728 
L 87.15567 55.514101 
L 87.696761 47.814445 
L 88.237852 42.166851 
L 88.778943 38.162234 
L 89.320034 35.946538 
L 89.861125 35.005641 
L 90.402216 34.903922 
L 90.943307 36.159926 
L 91.484398 38.506087 
L 92.025489 41.431603 
L 93.10767 48.96873 
L 95.272034 68.928794 
L 96.895307 85.134115 
L 101.224034 130.621125 
L 104.47058 160.858084 
L 106.093852 174.423144 
L 109.340398 198.392248 
L 110.96367 209.224173 
L 113.128034 221.362961 
L 114.751307 228.91999 
L 116.91567 237.053055 
L 119.621125 245.659333 
L 121.244398 250.027705 
L 124.490943 257.099359 
L 125.573125 258.56875 
L 127.737489 261.184687 
L 129.901852 263.159355 
L 130.984034 264.099146 
L 132.066216 265.042255 
L 133.689489 265.904652 
L 134.77167 265.991997 
L 135.312761 266.164476 
L 135.853852 266.205385 
L 137.477125 266.771471 
L 138.559307 266.5614 
L 139.641489 266.556977 
L 141.264761 266.66533 
L 142.346943 266.484005 
L 143.970216 266.028483 
L 145.593489 266.004159 
L 148.840034 266.98707 
L 149.922216 267.399473 
L 151.004398 267.673671 
L 152.62767 267.685833 
L 153.709852 267.608438 
L 155.333125 267.431536 
L 156.415307 267.579692 
L 159.120761 267.869368 
L 160.202943 268.217644 
L 161.285125 268.398969 
L 162.367307 268.70523 
L 163.99058 269.099942 
L 165.072761 269.206084 
L 167.237125 269.473648 
L 168.319307 269.659395 
L 169.94258 269.754479 
L 171.024761 269.904846 
L 179.682216 271.431731 
L 181.84658 271.519076 
L 187.79858 271.92595 
L 189.962943 271.943641 
L 191.045125 272.03762 
L 192.668398 272.073 
L 194.832761 272.13381 
L 195.914943 272.197937 
L 199.161489 272.451128 
L 200.784761 272.494248 
L 201.866943 272.494248 
L 207.277852 272.329508 
L 211.60658 272.264275 
L 213.770943 272.403586 
L 219.181852 272.613657 
L 220.264034 272.615868 
L 224.05167 272.76734 
L 225.133852 272.765129 
L 226.216034 272.876798 
L 229.46258 272.956404 
L 230.544761 273.059228 
L 239.202216 273.40087 
L 242.448761 273.364384 
L 243.530943 273.434039 
L 248.941852 273.40087 
L 252.188398 273.477159 
L 253.27058 273.455046 
L 260.304761 273.514751 
L 262.469125 273.463891 
L 271.66767 273.603202 
L 273.290943 273.714871 
L 274.914216 273.631948 
L 281.948398 273.5833 
L 285.194943 273.619786 
L 286.818216 273.654061 
L 294.393489 273.813273 
L 297.098943 273.724822 
L 298.181125 273.711554 
L 299.263307 273.707132 
L 302.509852 273.637476 
L 304.674216 273.723716 
L 305.756398 273.732561 
L 307.920761 273.672857 
L 312.79058 273.729244 
L 329.023307 273.82654 
L 330.105489 273.889562 
L 332.810943 273.835385 
L 334.434216 273.80885 
L 336.057489 273.824329 
L 340.386216 273.79116 
L 346.338216 273.866343 
L 354.99567 273.756885 
L 358.242216 273.83428 
L 359.865489 273.853076 
L 368.522943 273.922731 
L 369.605125 273.858604 
L 370.687307 273.924942 
L 391.789852 274.081943 
L 397.200761 274.531937 
L 404.776034 274.635867 
L 406.399307 274.670141 
L 406.940398 274.698888 
L 406.940398 274.698888 
" style="fill:none;stroke:#0000f1;stroke-linecap:round;stroke-width:1.5;"/>
   </g>
   <g id="line2d_15">
    <path clip-path="url(#pabfd6e2235)" d="M 82.285852 276.334125 
L 83.368034 195.348429 
L 84.450216 136.28862 
L 85.532398 94.381662 
L 86.073489 78.101158 
L 87.15567 55.696531 
L 88.237852 42.465373 
L 88.778943 38.648715 
L 89.320034 36.500462 
L 89.861125 35.645805 
L 90.402216 35.771847 
L 90.943307 37.110774 
L 91.484398 39.063328 
L 92.025489 41.758871 
L 92.56658 45.108951 
L 93.648761 53.947413 
L 96.895307 85.503398 
L 101.224034 131.050112 
L 103.388398 151.651445 
L 105.552761 170.715943 
L 108.258216 191.1846 
L 110.96367 209.348004 
L 113.669125 224.833556 
L 115.292398 232.20152 
L 117.456761 241.016764 
L 118.538943 244.459717 
L 119.080034 246.138074 
L 122.32658 253.728272 
L 123.949852 256.318779 
L 127.196398 259.646746 
L 130.984034 262.598797 
L 131.525125 262.791178 
L 132.607307 263.359475 
L 133.148398 263.474462 
L 133.689489 263.471145 
L 134.23058 263.665737 
L 134.77167 263.714385 
L 135.853852 263.59387 
L 137.477125 263.507631 
L 141.805852 263.390433 
L 149.381125 264.949381 
L 151.545489 265.672468 
L 154.250943 266.558083 
L 156.956398 267.690255 
L 157.497489 267.719002 
L 158.57967 268.058432 
L 161.285125 268.673167 
L 162.908398 268.857808 
L 165.072761 269.32107 
L 166.696034 269.673768 
L 169.401489 270.243171 
L 172.648034 270.496362 
L 174.271307 270.697588 
L 176.43567 270.88444 
L 178.600034 271.138737 
L 179.141125 271.111096 
L 181.305489 271.373132 
L 192.668398 272.315135 
L 195.914943 272.560586 
L 197.538216 272.679995 
L 217.55858 273.435145 
L 228.380398 273.459469 
L 231.626943 273.524701 
L 235.95567 273.714871 
L 239.202216 273.699392 
L 241.90767 273.631948 
L 244.613125 273.655167 
L 245.695307 273.603202 
L 254.352761 273.74804 
L 255.976034 273.766836 
L 257.599307 273.815484 
L 264.092398 273.824329 
L 268.421125 273.713765 
L 270.044398 273.656272 
L 272.208761 273.678385 
L 273.290943 273.719294 
L 275.455307 273.736984 
L 278.160761 273.800005 
L 280.325125 273.788949 
L 281.948398 273.835385 
L 315.496034 273.723716 
L 319.824761 273.795583 
L 337.13967 273.723716 
L 340.927307 273.821012 
L 346.879307 273.782315 
L 350.666943 273.827646 
L 352.831307 273.821012 
L 362.570943 273.79116 
L 363.653125 273.814378 
L 367.440761 273.750251 
L 369.605125 273.783421 
L 372.31058 273.739195 
L 378.80367 273.702709 
L 380.426943 273.784526 
L 381.509125 273.744723 
L 383.673489 273.850864 
L 386.920034 273.839808 
L 395.036398 273.798899 
L 406.940398 273.856393 
L 406.940398 273.856393 
" style="fill:none;stroke:#004cff;stroke-linecap:round;stroke-width:1.5;"/>
   </g>
   <g id="line2d_16">
    <path clip-path="url(#pabfd6e2235)" d="M 82.285852 276.334125 
L 83.368034 195.61931 
L 84.450216 136.727558 
L 85.532398 94.014591 
L 86.073489 78.137644 
L 87.15567 55.398009 
L 87.696761 47.856459 
L 88.237852 42.337119 
L 88.778943 38.469601 
L 89.320034 35.784009 
L 89.861125 34.414125 
L 90.402216 34.984634 
L 90.943307 36.196412 
L 91.484398 38.158917 
L 92.56658 44.449992 
L 93.648761 52.438219 
L 95.272034 67.858537 
L 97.436398 90.462179 
L 100.682943 124.557812 
L 103.388398 150.60883 
L 106.093852 173.968727 
L 108.799307 192.958042 
L 110.96367 206.319665 
L 112.586943 215.304071 
L 114.210216 223.03579 
L 116.91567 234.506773 
L 120.162216 246.165715 
L 122.32658 252.018957 
L 125.032034 258.249221 
L 126.655307 261.666745 
L 128.81967 265.053311 
L 130.984034 267.587431 
L 132.066216 268.476363 
L 134.23058 269.574261 
L 136.394943 269.848459 
L 138.018216 269.679296 
L 141.264761 270.270812 
L 143.429125 270.434446 
L 144.511307 270.720806 
L 148.298943 271.218343 
L 149.381125 270.937511 
L 150.463307 270.442186 
L 152.62767 269.378563 
L 154.792034 268.1502 
L 156.956398 267.482396 
L 157.497489 267.399473 
L 159.661852 266.632161 
L 167.778216 266.858816 
L 169.94258 267.119747 
L 171.024761 267.329818 
L 172.648034 267.818509 
L 173.730216 268.16789 
L 175.353489 268.839012 
L 178.058943 269.656078 
L 179.141125 269.938015 
L 181.305489 270.646728 
L 186.175307 271.27473 
L 188.33967 271.623006 
L 194.832761 272.23774 
L 201.866943 271.949169 
L 205.113489 272.005556 
L 206.19567 272.107275 
L 209.442216 272.291916 
L 216.476398 272.581593 
L 218.09967 272.557269 
L 218.640761 272.634664 
L 219.722943 272.634664 
L 222.428398 272.738594 
L 224.05167 272.815988 
L 231.626943 273.107876 
L 234.873489 273.093503 
L 236.496761 273.091292 
L 239.202216 273.241658 
L 240.825489 273.290306 
L 247.85967 273.407504 
L 251.647307 273.439567 
L 281.948398 273.658484 
L 283.57167 273.641899 
L 286.818216 273.686124 
L 291.146943 273.724822 
L 291.688034 273.785632 
L 292.770216 273.739195 
L 297.640034 273.710449 
L 304.133125 273.732561 
L 305.756398 273.735878 
L 309.544034 273.800005 
L 311.708398 273.822118 
L 324.153489 273.809956 
L 328.482216 273.893984 
L 331.18767 273.797794 
L 334.975307 273.80885 
L 338.762943 273.738089 
L 347.961489 273.868555 
L 349.584761 273.832069 
L 353.372398 273.761308 
L 354.45458 273.74804 
L 358.242216 273.848653 
L 391.789852 274.143858 
L 395.036398 274.237837 
L 402.61167 274.419162 
L 404.776034 274.557366 
L 406.940398 274.60712 
L 406.940398 274.60712 
" style="fill:none;stroke:#00b0ff;stroke-linecap:round;stroke-width:1.5;"/>
   </g>
   <g id="line2d_17">
    <path clip-path="url(#pabfd6e2235)" d="M 82.285852 276.334125 
L 83.368034 195.659113 
L 84.450216 135.86295 
L 85.532398 94.120732 
L 86.61458 65.677116 
L 87.15567 55.508573 
L 87.696761 47.677346 
L 88.237852 41.751132 
L 88.778943 37.921205 
L 89.320034 35.47222 
L 89.861125 34.719281 
L 90.402216 34.959204 
L 90.943307 36.214102 
L 92.025489 41.004827 
L 93.648761 53.077277 
L 95.272034 68.511969 
L 103.388398 151.874784 
L 106.093852 175.382837 
L 107.717125 188.51117 
L 109.340398 200.814698 
L 111.504761 214.41735 
L 114.210216 228.456728 
L 116.37458 237.139295 
L 117.997852 243.022389 
L 120.162216 250.099571 
L 121.244398 253.059361 
L 122.32658 255.213142 
L 126.655307 263.111813 
L 128.27858 265.201466 
L 129.360761 266.282779 
L 130.442943 267.077732 
L 133.148398 269.379669 
L 134.23058 269.984452 
L 134.77167 270.150297 
L 135.853852 270.22327 
L 136.394943 270.504101 
L 137.477125 270.636778 
L 139.641489 270.645623 
L 140.72367 270.69206 
L 143.429125 270.382481 
L 145.052398 270.515158 
L 147.757852 271.144265 
L 148.298943 271.144265 
L 149.381125 270.853483 
L 151.004398 269.915902 
L 154.250943 269.376352 
L 156.415307 269.452641 
L 158.57967 268.924146 
L 160.202943 268.798104 
L 161.285125 268.563708 
L 162.367307 268.716286 
L 163.449489 269.119844 
L 165.072761 269.894895 
L 166.154943 270.370319 
L 167.237125 270.746236 
L 168.319307 271.025962 
L 169.401489 271.208392 
L 170.48367 271.50802 
L 174.812398 273.1322 
L 178.058943 273.86966 
L 179.141125 274.091893 
L 180.764398 274.509824 
L 181.84658 274.657979 
L 185.093125 274.758592 
L 193.209489 274.217936 
L 199.70258 273.373229 
L 200.784761 273.270405 
L 204.572398 272.494248 
L 206.19567 271.671654 
L 206.736761 271.36097 
L 207.818943 270.470932 
L 211.065489 268.854491 
L 211.60658 268.525011 
L 212.688761 268.206588 
L 213.770943 268.238651 
L 217.55858 268.289511 
L 219.181852 268.631152 
L 220.805125 268.929674 
L 221.346216 269.122055 
L 222.969489 270.279657 
L 225.133852 271.917105 
L 227.298216 273.24387 
L 229.46258 274.172605 
L 233.791307 275.3092 
L 236.496761 275.716074 
L 239.743307 276.023441 
L 245.154216 276.234618 
L 270.585489 276.331914 
L 325.776761 276.334125 
L 406.940398 276.334125 
L 406.940398 276.334125 
" style="fill:none;stroke:#29ffce;stroke-linecap:round;stroke-width:1.5;"/>
   </g>
   <g id="line2d_18">
    <path clip-path="url(#pabfd6e2235)" d="M 82.285852 276.334125 
L 83.368034 195.267718 
L 84.450216 136.017739 
L 85.532398 94.054394 
L 86.61458 65.679327 
L 87.15567 55.892229 
L 87.696761 48.43913 
L 88.237852 42.680973 
L 88.778943 38.331397 
L 89.320034 36.281546 
L 89.861125 35.558459 
L 90.402216 36.052679 
L 90.943307 37.435831 
L 91.484398 39.284456 
L 92.025489 41.963414 
L 92.56658 45.262635 
L 94.189852 58.31689 
L 96.354216 79.729761 
L 100.682943 125.337286 
L 106.634943 180.646775 
L 108.799307 198.394459 
L 112.045852 221.836174 
L 114.210216 236.475913 
L 115.292398 242.207535 
L 116.91567 249.484837 
L 118.538943 255.099262 
L 120.162216 259.802641 
L 121.785489 263.675687 
L 123.408761 266.648745 
L 124.490943 268.260764 
L 125.573125 269.630648 
L 126.655307 270.68432 
L 129.901852 273.135517 
L 130.984034 273.766836 
L 133.148398 274.625916 
L 134.23058 274.95429 
L 138.018216 275.67406 
L 141.264761 275.967054 
L 146.67567 276.188181 
L 154.250943 276.296533 
L 171.565852 276.329702 
L 406.940398 276.334125 
L 406.940398 276.334125 
" style="fill:none;stroke:#7dff7a;stroke-linecap:round;stroke-width:1.5;"/>
   </g>
   <g id="line2d_19">
    <path clip-path="url(#pabfd6e2235)" d="M 82.285852 276.334125 
L 83.368034 196.016234 
L 84.450216 136.423508 
L 85.532398 94.319747 
L 86.61458 65.419502 
L 87.15567 55.467664 
L 87.696761 47.608796 
L 88.237852 42.097196 
L 88.778943 37.956586 
L 89.320034 35.61153 
L 89.861125 34.96031 
L 90.402216 34.710436 
L 90.943307 36.058207 
L 92.025489 41.128658 
L 93.648761 53.316094 
L 96.354216 79.718705 
L 98.51858 102.939292 
L 101.224034 130.615597 
L 105.552761 169.92873 
L 106.634943 178.475304 
L 110.42258 205.324591 
L 112.586943 218.582284 
L 114.751307 229.417526 
L 115.833489 233.973856 
L 119.080034 245.031331 
L 120.703307 250.109522 
L 122.32658 254.079864 
L 125.032034 258.321088 
L 127.196398 261.607041 
L 130.442943 264.787958 
L 133.148398 266.411033 
L 134.77167 267.008077 
L 136.936034 268.013101 
L 138.018216 267.848361 
L 138.559307 267.632762 
L 139.100398 267.545417 
L 140.72367 266.788056 
L 145.052398 264.866458 
L 146.13458 264.648648 
L 147.216761 264.79017 
L 148.298943 264.979233 
L 149.381125 265.218051 
L 150.463307 265.567432 
L 152.62767 266.050596 
L 153.709852 266.533759 
L 155.333125 266.947267 
L 158.03858 267.226993 
L 160.744034 267.693572 
L 163.449489 268.611251 
L 167.237125 269.298957 
L 168.319307 269.669345 
L 173.189125 270.296242 
L 178.058943 271.321167 
L 180.223307 271.630745 
L 181.84658 271.850767 
L 184.010943 271.956908 
L 191.045125 271.718091 
L 195.914943 271.495858 
L 196.997125 271.456055 
L 198.620398 271.394139 
L 200.24367 271.521287 
L 201.325852 271.536766 
L 202.949125 271.63959 
L 204.031307 271.694872 
L 205.65458 271.810964 
L 211.065489 272.120543 
L 212.688761 272.300761 
L 213.770943 272.331719 
L 214.853125 272.372628 
L 215.935307 272.412431 
L 217.55858 272.464396 
L 218.640761 272.472135 
L 223.51058 272.833678 
L 233.250216 273.02827 
L 234.873489 273.094609 
L 239.743307 273.205172 
L 241.36658 273.263771 
L 269.503307 273.671751 
L 272.208761 273.629737 
L 273.290943 273.636371 
L 275.455307 273.628631 
L 277.07858 273.703815 
L 283.57167 273.664012 
L 287.359307 273.71266 
L 288.98258 273.754674 
L 293.311307 273.686124 
L 301.968761 273.691653 
L 304.133125 273.693864 
L 307.37967 273.725927 
L 312.79058 273.754674 
L 314.413852 273.770153 
L 315.496034 273.739195 
L 320.365852 273.729244 
L 323.071307 273.668434 
L 331.728761 273.793371 
L 333.352034 273.823223 
L 339.304034 273.781209 
L 340.386216 273.881822 
L 345.797125 273.802216 
L 349.584761 273.777892 
L 350.666943 273.803322 
L 352.290216 273.821012 
L 356.618943 273.811061 
L 365.817489 273.900618 
L 367.440761 273.935998 
L 369.605125 273.896196 
L 372.31058 273.865238 
L 372.85167 273.907252 
L 373.933852 273.829857 
L 375.016034 273.879611 
L 382.591307 273.997914 
L 385.296761 274.07752 
L 386.920034 274.105161 
L 388.543307 274.135013 
L 406.399307 274.045456 
L 406.940398 274.116217 
L 406.940398 274.116217 
" style="fill:none;stroke:#ceff29;stroke-linecap:round;stroke-width:1.5;"/>
   </g>
   <g id="line2d_20">
    <path clip-path="url(#pabfd6e2235)" d="M 82.285852 276.334125 
L 83.368034 195.452359 
L 84.450216 136.077443 
L 85.532398 94.268887 
L 86.61458 66.113842 
L 87.15567 56.349962 
L 88.237852 43.086741 
L 88.778943 39.015786 
L 89.320034 36.510413 
L 89.861125 35.660178 
L 90.402216 35.747523 
L 90.943307 37.110774 
L 91.484398 38.963821 
L 92.025489 41.811942 
L 93.648761 54.335492 
L 95.272034 69.201886 
L 102.847307 146.428416 
L 106.634943 179.499123 
L 108.258216 192.091223 
L 110.96367 211.172305 
L 113.669125 228.399235 
L 116.91567 244.74276 
L 117.997852 249.3599 
L 119.621125 254.77531 
L 120.703307 257.909791 
L 122.86767 263.15051 
L 123.949852 265.098642 
L 125.573125 267.514459 
L 128.27858 270.608031 
L 129.360761 271.418463 
L 129.901852 271.564407 
L 136.394943 274.739797 
L 138.559307 275.295932 
L 142.888034 275.908455 
L 148.298943 276.199237 
L 155.333125 276.308695 
L 177.517852 276.334125 
L 406.940398 276.334125 
L 406.940398 276.334125 
" style="fill:none;stroke:#ffc400;stroke-linecap:round;stroke-width:1.5;"/>
   </g>
   <g id="line2d_21">
    <path clip-path="url(#pabfd6e2235)" d="M 82.285852 276.334125 
L 83.368034 194.779026 
L 84.450216 135.418484 
L 85.532398 93.539167 
L 86.61458 65.515693 
L 87.15567 55.710904 
L 87.696761 48.139502 
L 88.237852 42.399035 
L 88.778943 38.680778 
L 89.320034 36.126757 
L 89.861125 35.028859 
L 90.402216 34.762401 
L 90.943307 36.04494 
L 91.484398 37.993072 
L 92.56658 44.203435 
L 94.730943 63.075552 
L 97.436398 91.063646 
L 99.05967 107.871539 
L 103.929489 156.156916 
L 107.176034 183.184211 
L 109.340398 198.767059 
L 112.045852 215.047563 
L 114.210216 226.514124 
L 115.833489 233.5117 
L 116.91567 237.422338 
L 118.538943 242.844382 
L 120.703307 249.641838 
L 121.244398 251.029412 
L 122.86767 253.971512 
L 125.032034 257.410043 
L 127.196398 260.429537 
L 128.27858 261.540703 
L 130.984034 264.622113 
L 134.77167 267.476867 
L 137.477125 268.425504 
L 138.559307 268.534962 
L 139.641489 268.419976 
L 140.18258 268.337053 
L 140.72367 268.070594 
L 141.805852 267.775389 
L 142.888034 267.399473 
L 143.970216 267.071099 
L 145.052398 266.511646 
L 146.13458 266.248505 
L 147.216761 266.187695 
L 147.757852 266.123568 
L 148.840034 266.317054 
L 149.922216 266.377864 
L 151.004398 266.312632 
L 153.168761 266.624421 
L 154.792034 266.606731 
L 155.874216 266.867661 
L 157.497489 267.058937 
L 158.57967 267.397261 
L 159.120761 267.400578 
L 164.53167 268.975005 
L 166.696034 269.706937 
L 168.319307 270.420073 
L 171.024761 271.146476 
L 172.106943 271.331118 
L 173.730216 271.311216 
L 175.89458 271.501386 
L 178.600034 271.565513 
L 180.223307 271.480379 
L 182.928761 271.494752 
L 184.552034 271.426203 
L 187.257489 271.390822 
L 188.33967 271.453843 
L 189.962943 271.380871 
L 191.586216 271.425097 
L 198.079307 271.592048 
L 200.24367 271.650647 
L 200.784761 271.648436 
L 201.866943 271.825337 
L 207.277852 272.094007 
L 209.983307 272.068578 
L 212.688761 272.22005 
L 217.017489 272.475452 
L 219.181852 272.66341 
L 224.05167 272.722009 
L 225.133852 272.780608 
L 228.921489 272.873481 
L 238.661125 273.196327 
L 239.743307 273.133306 
L 251.106216 273.493744 
L 259.22258 273.570033 
L 263.010216 273.680596 
L 272.208761 273.643005 
L 274.373125 273.686124 
L 293.311307 273.798899 
L 294.93458 273.822118 
L 318.74258 273.727033 
L 326.858943 273.824329 
L 359.324398 273.929365 
L 363.112034 273.941527 
L 364.194216 273.937104 
L 365.276398 273.961428 
L 367.981852 273.914991 
L 373.392761 274.027766 
L 382.050216 273.97359 
L 384.75567 273.951477 
L 398.824034 274.387098 
L 403.152761 274.619282 
L 406.940398 274.603803 
L 406.940398 274.603803 
" style="fill:none;stroke:#ff6800;stroke-linecap:round;stroke-width:1.5;"/>
   </g>
   <g id="line2d_22">
    <path clip-path="url(#pabfd6e2235)" d="M 82.285852 276.334125 
L 83.368034 196.099157 
L 84.450216 136.729769 
L 85.532398 94.590628 
L 86.073489 78.713681 
L 87.15567 56.191856 
L 88.237852 42.84129 
L 88.778943 38.895272 
L 89.320034 36.546899 
L 89.861125 35.596051 
L 90.402216 35.607107 
L 90.943307 36.615448 
L 91.484398 38.668616 
L 92.025489 41.231482 
L 93.10767 48.88249 
L 94.189852 57.51862 
L 95.272034 67.68053 
L 99.05967 107.464664 
L 101.224034 130.417688 
L 103.929489 156.16355 
L 106.634943 179.027016 
L 109.881489 202.343794 
L 111.504761 212.851768 
L 113.128034 222.020815 
L 116.37458 237.494204 
L 118.538943 245.722355 
L 120.162216 250.971919 
L 121.244398 253.845469 
L 122.86767 257.338176 
L 126.114216 263.313039 
L 127.737489 265.302079 
L 130.442943 267.5421 
L 130.984034 267.838411 
L 131.525125 267.999834 
L 132.066216 267.999834 
L 133.148398 268.20106 
L 134.23058 268.034108 
L 136.394943 267.19493 
L 139.641489 266.857711 
L 140.72367 267.136331 
L 141.805852 267.207092 
L 142.346943 267.119747 
L 142.888034 267.191613 
L 143.970216 267.112007 
L 145.593489 267.197141 
L 146.67567 267.084366 
L 147.216761 266.915204 
L 149.381125 266.740513 
L 150.463307 266.725034 
L 152.08658 266.72614 
L 152.62767 266.791372 
L 155.874216 266.212019 
L 156.415307 266.205385 
L 163.99058 268.560392 
L 168.860398 268.641103 
L 171.565852 269.150802 
L 172.648034 269.505711 
L 173.730216 269.704726 
L 174.812398 269.975607 
L 179.141125 270.748447 
L 179.682216 270.934194 
L 180.764398 271.121047 
L 181.84658 271.316744 
L 182.928761 271.50028 
L 186.716398 271.945852 
L 188.880761 272.42791 
L 191.586216 272.619185 
L 194.29167 272.224472 
L 194.832761 272.22005 
L 196.456034 271.928162 
L 196.997125 271.921528 
L 198.079307 271.679393 
L 200.24367 271.596471 
L 201.325852 271.43947 
L 204.031307 271.05692 
L 207.818943 270.864539 
L 211.065489 271.309005 
L 212.14767 271.297949 
L 218.09967 271.795485 
L 219.722943 271.848556 
L 223.51058 272.067472 
L 224.592761 272.157029 
L 229.46258 272.566114 
L 230.544761 272.573854 
L 232.168034 272.64572 
L 233.250216 272.622502 
L 234.873489 272.62803 
L 235.95567 272.607023 
L 237.037852 272.623607 
L 240.284398 272.676678 
L 241.90767 272.801615 
L 245.695307 272.894488 
L 248.400761 273.094609 
L 251.647307 273.323476 
L 256.517125 273.437356 
L 258.140398 273.457258 
L 259.22258 273.445096 
L 260.845852 273.509223 
L 265.17458 273.491532 
L 268.421125 273.511434 
L 270.044398 273.493744 
L 278.701852 273.473842 
L 281.407307 273.493744 
L 284.112761 273.480476 
L 286.818216 273.457258 
L 290.605852 273.471631 
L 297.640034 273.623103 
L 298.722216 273.587723 
L 305.215307 273.681702 
L 307.37967 273.718188 
L 309.002943 273.751357 
L 324.69458 273.838702 
L 326.858943 273.805533 
L 330.105489 273.840914 
L 331.728761 273.813273 
L 332.810943 273.819907 
L 334.434216 273.809956 
L 337.13967 273.812167 
L 338.221852 273.878505 
L 340.927307 273.860815 
L 346.879307 273.853076 
L 354.45458 273.832069 
L 355.536761 273.837597 
L 357.701125 273.926048 
L 362.029852 274.035506 
L 369.064034 274.349507 
L 371.769489 274.347295 
L 373.933852 274.318549 
L 376.098216 274.370514 
L 382.591307 274.560683 
L 385.296761 274.471127 
L 386.920034 274.274323 
L 392.872034 274.304176 
L 396.11858 274.325183 
L 399.906216 274.091893 
L 402.61167 274.032189 
L 405.317125 274.056513 
L 406.940398 274.217936 
L 406.940398 274.217936 
" style="fill:none;stroke:#f10800;stroke-linecap:round;stroke-width:1.5;"/>
   </g>
   <g id="patch_3">
    <path d="M 66.053125 288.430125 
L 66.053125 22.318125 
" style="fill:none;stroke:#cccccc;stroke-linecap:square;stroke-linejoin:miter;stroke-width:0.8;"/>
   </g>
   <g id="patch_4">
    <path d="M 423.173125 288.430125 
L 423.173125 22.318125 
" style="fill:none;stroke:#cccccc;stroke-linecap:square;stroke-linejoin:miter;stroke-width:0.8;"/>
   </g>
   <g id="patch_5">
    <path d="M 66.053125 288.430125 
L 423.173125 288.430125 
" style="fill:none;stroke:#cccccc;stroke-linecap:square;stroke-linejoin:miter;stroke-width:0.8;"/>
   </g>
   <g id="patch_6">
    <path d="M 66.053125 22.318125 
L 423.173125 22.318125 
" style="fill:none;stroke:#cccccc;stroke-linecap:square;stroke-linejoin:miter;stroke-width:0.8;"/>
   </g>
   <g id="text_15">
    <!-- Mature APC -->
    <defs>
     <path d="M 9.8125 72.90625 
L 24.515625 72.90625 
L 43.109375 23.296875 
L 61.8125 72.90625 
L 76.515625 72.90625 
L 76.515625 0 
L 66.890625 0 
L 66.890625 64.015625 
L 48.09375 14.015625 
L 38.1875 14.015625 
L 19.390625 64.015625 
L 19.390625 0 
L 9.8125 0 
z
" id="DejaVuSans-77"/>
     <path d="M 34.1875 63.1875 
L 20.796875 26.90625 
L 47.609375 26.90625 
z
M 28.609375 72.90625 
L 39.796875 72.90625 
L 67.578125 0 
L 57.328125 0 
L 50.6875 18.703125 
L 17.828125 18.703125 
L 11.1875 0 
L 0.78125 0 
z
" id="DejaVuSans-65"/>
     <path d="M 19.671875 64.796875 
L 19.671875 37.40625 
L 32.078125 37.40625 
Q 38.96875 37.40625 42.71875 40.96875 
Q 46.484375 44.53125 46.484375 51.125 
Q 46.484375 57.671875 42.71875 61.234375 
Q 38.96875 64.796875 32.078125 64.796875 
z
M 9.8125 72.90625 
L 32.078125 72.90625 
Q 44.34375 72.90625 50.609375 67.359375 
Q 56.890625 61.8125 56.890625 51.125 
Q 56.890625 40.328125 50.609375 34.8125 
Q 44.34375 29.296875 32.078125 29.296875 
L 19.671875 29.296875 
L 19.671875 0 
L 9.8125 0 
z
" id="DejaVuSans-80"/>
     <path d="M 64.40625 67.28125 
L 64.40625 56.890625 
Q 59.421875 61.53125 53.78125 63.8125 
Q 48.140625 66.109375 41.796875 66.109375 
Q 29.296875 66.109375 22.65625 58.46875 
Q 16.015625 50.828125 16.015625 36.375 
Q 16.015625 21.96875 22.65625 14.328125 
Q 29.296875 6.6875 41.796875 6.6875 
Q 48.140625 6.6875 53.78125 8.984375 
Q 59.421875 11.28125 64.40625 15.921875 
L 64.40625 5.609375 
Q 59.234375 2.09375 53.4375 0.328125 
Q 47.65625 -1.421875 41.21875 -1.421875 
Q 24.65625 -1.421875 15.125 8.703125 
Q 5.609375 18.84375 5.609375 36.375 
Q 5.609375 53.953125 15.125 64.078125 
Q 24.65625 74.21875 41.21875 74.21875 
Q 47.75 74.21875 53.53125 72.484375 
Q 59.328125 70.75 64.40625 67.28125 
z
" id="DejaVuSans-67"/>
    </defs>
    <g style="fill:#262626;" transform="translate(209.629375 16.318125)scale(0.12 -0.12)">
     <use xlink:href="#DejaVuSans-77"/>
     <use x="86.279297" xlink:href="#DejaVuSans-97"/>
     <use x="147.558594" xlink:href="#DejaVuSans-116"/>
     <use x="186.767578" xlink:href="#DejaVuSans-117"/>
     <use x="250.146484" xlink:href="#DejaVuSans-114"/>
     <use x="291.228516" xlink:href="#DejaVuSans-101"/>
     <use x="352.751953" xlink:href="#DejaVuSans-32"/>
     <use x="384.539062" xlink:href="#DejaVuSans-65"/>
     <use x="452.947266" xlink:href="#DejaVuSans-80"/>
     <use x="513.25" xlink:href="#DejaVuSans-67"/>
    </g>
   </g>
  </g>
 </g>
 <defs>
  <clipPath id="pabfd6e2235">
   <rect height="266.112" width="357.12" x="66.053125" y="22.318125"/>
  </clipPath>
 </defs>
</svg>
