<?xml version="1.0" encoding="utf-8" standalone="no"?>
<!DOCTYPE svg PUBLIC "-//W3C//DTD SVG 1.1//EN"
  "http://www.w3.org/Graphics/SVG/1.1/DTD/svg11.dtd">
<!-- Created with matplotlib (https://matplotlib.org/) -->
<svg height="325.986375pt" version="1.1" viewBox="0 0 398.560625 325.986375" width="398.560625pt" xmlns="http://www.w3.org/2000/svg" xmlns:xlink="http://www.w3.org/1999/xlink">
 <defs>
  <style type="text/css">
*{stroke-linecap:butt;stroke-linejoin:round;white-space:pre;}
  </style>
 </defs>
 <g id="figure_1">
  <g id="patch_1">
   <path d="M 0 325.986375 
L 398.560625 325.986375 
L 398.560625 0 
L 0 0 
z
" style="fill:#ffffff;"/>
  </g>
  <g id="axes_1">
   <g id="patch_2">
    <path d="M 34.240625 288.430125 
L 391.360625 288.430125 
L 391.360625 22.318125 
L 34.240625 22.318125 
z
" style="fill:#ffffff;"/>
   </g>
   <g id="matplotlib.axis_1">
    <g id="xtick_1">
     <g id="line2d_1">
      <path clip-path="url(#pe1f97eb9dc)" d="M 90.343209 288.430125 
L 90.343209 22.318125 
" style="fill:none;stroke:#cccccc;stroke-linecap:round;stroke-width:0.8;"/>
     </g>
     <g id="text_1">
      <!-- 10 -->
      <defs>
       <path d="M 12.40625 8.296875 
L 28.515625 8.296875 
L 28.515625 63.921875 
L 10.984375 60.40625 
L 10.984375 69.390625 
L 28.421875 72.90625 
L 38.28125 72.90625 
L 38.28125 8.296875 
L 54.390625 8.296875 
L 54.390625 0 
L 12.40625 0 
z
" id="DejaVuSans-49"/>
       <path d="M 31.78125 66.40625 
Q 24.171875 66.40625 20.328125 58.90625 
Q 16.5 51.421875 16.5 36.375 
Q 16.5 21.390625 20.328125 13.890625 
Q 24.171875 6.390625 31.78125 6.390625 
Q 39.453125 6.390625 43.28125 13.890625 
Q 47.125 21.390625 47.125 36.375 
Q 47.125 51.421875 43.28125 58.90625 
Q 39.453125 66.40625 31.78125 66.40625 
z
M 31.78125 74.21875 
Q 44.046875 74.21875 50.515625 64.515625 
Q 56.984375 54.828125 56.984375 36.375 
Q 56.984375 17.96875 50.515625 8.265625 
Q 44.046875 -1.421875 31.78125 -1.421875 
Q 19.53125 -1.421875 13.0625 8.265625 
Q 6.59375 17.96875 6.59375 36.375 
Q 6.59375 54.828125 13.0625 64.515625 
Q 19.53125 74.21875 31.78125 74.21875 
z
" id="DejaVuSans-48"/>
      </defs>
      <g style="fill:#262626;" transform="translate(83.980709 303.028562)scale(0.1 -0.1)">
       <use xlink:href="#DejaVuSans-49"/>
       <use x="63.623047" xlink:href="#DejaVuSans-48"/>
      </g>
     </g>
    </g>
    <g id="xtick_2">
     <g id="line2d_2">
      <path clip-path="url(#pe1f97eb9dc)" d="M 147.300147 288.430125 
L 147.300147 22.318125 
" style="fill:none;stroke:#cccccc;stroke-linecap:round;stroke-width:0.8;"/>
     </g>
     <g id="text_2">
      <!-- 20 -->
      <defs>
       <path d="M 19.1875 8.296875 
L 53.609375 8.296875 
L 53.609375 0 
L 7.328125 0 
L 7.328125 8.296875 
Q 12.9375 14.109375 22.625 23.890625 
Q 32.328125 33.6875 34.8125 36.53125 
Q 39.546875 41.84375 41.421875 45.53125 
Q 43.3125 49.21875 43.3125 52.78125 
Q 43.3125 58.59375 39.234375 62.25 
Q 35.15625 65.921875 28.609375 65.921875 
Q 23.96875 65.921875 18.8125 64.3125 
Q 13.671875 62.703125 7.8125 59.421875 
L 7.8125 69.390625 
Q 13.765625 71.78125 18.9375 73 
Q 24.125 74.21875 28.421875 74.21875 
Q 39.75 74.21875 46.484375 68.546875 
Q 53.21875 62.890625 53.21875 53.421875 
Q 53.21875 48.921875 51.53125 44.890625 
Q 49.859375 40.875 45.40625 35.40625 
Q 44.1875 33.984375 37.640625 27.21875 
Q 31.109375 20.453125 19.1875 8.296875 
z
" id="DejaVuSans-50"/>
      </defs>
      <g style="fill:#262626;" transform="translate(140.937647 303.028562)scale(0.1 -0.1)">
       <use xlink:href="#DejaVuSans-50"/>
       <use x="63.623047" xlink:href="#DejaVuSans-48"/>
      </g>
     </g>
    </g>
    <g id="xtick_3">
     <g id="line2d_3">
      <path clip-path="url(#pe1f97eb9dc)" d="M 204.257084 288.430125 
L 204.257084 22.318125 
" style="fill:none;stroke:#cccccc;stroke-linecap:round;stroke-width:0.8;"/>
     </g>
     <g id="text_3">
      <!-- 30 -->
      <defs>
       <path d="M 40.578125 39.3125 
Q 47.65625 37.796875 51.625 33 
Q 55.609375 28.21875 55.609375 21.1875 
Q 55.609375 10.40625 48.1875 4.484375 
Q 40.765625 -1.421875 27.09375 -1.421875 
Q 22.515625 -1.421875 17.65625 -0.515625 
Q 12.796875 0.390625 7.625 2.203125 
L 7.625 11.71875 
Q 11.71875 9.328125 16.59375 8.109375 
Q 21.484375 6.890625 26.8125 6.890625 
Q 36.078125 6.890625 40.9375 10.546875 
Q 45.796875 14.203125 45.796875 21.1875 
Q 45.796875 27.640625 41.28125 31.265625 
Q 36.765625 34.90625 28.71875 34.90625 
L 20.21875 34.90625 
L 20.21875 43.015625 
L 29.109375 43.015625 
Q 36.375 43.015625 40.234375 45.921875 
Q 44.09375 48.828125 44.09375 54.296875 
Q 44.09375 59.90625 40.109375 62.90625 
Q 36.140625 65.921875 28.71875 65.921875 
Q 24.65625 65.921875 20.015625 65.03125 
Q 15.375 64.15625 9.8125 62.3125 
L 9.8125 71.09375 
Q 15.4375 72.65625 20.34375 73.4375 
Q 25.25 74.21875 29.59375 74.21875 
Q 40.828125 74.21875 47.359375 69.109375 
Q 53.90625 64.015625 53.90625 55.328125 
Q 53.90625 49.265625 50.4375 45.09375 
Q 46.96875 40.921875 40.578125 39.3125 
z
" id="DejaVuSans-51"/>
      </defs>
      <g style="fill:#262626;" transform="translate(197.894584 303.028562)scale(0.1 -0.1)">
       <use xlink:href="#DejaVuSans-51"/>
       <use x="63.623047" xlink:href="#DejaVuSans-48"/>
      </g>
     </g>
    </g>
    <g id="xtick_4">
     <g id="line2d_4">
      <path clip-path="url(#pe1f97eb9dc)" d="M 261.214022 288.430125 
L 261.214022 22.318125 
" style="fill:none;stroke:#cccccc;stroke-linecap:round;stroke-width:0.8;"/>
     </g>
     <g id="text_4">
      <!-- 40 -->
      <defs>
       <path d="M 37.796875 64.3125 
L 12.890625 25.390625 
L 37.796875 25.390625 
z
M 35.203125 72.90625 
L 47.609375 72.90625 
L 47.609375 25.390625 
L 58.015625 25.390625 
L 58.015625 17.1875 
L 47.609375 17.1875 
L 47.609375 0 
L 37.796875 0 
L 37.796875 17.1875 
L 4.890625 17.1875 
L 4.890625 26.703125 
z
" id="DejaVuSans-52"/>
      </defs>
      <g style="fill:#262626;" transform="translate(254.851522 303.028562)scale(0.1 -0.1)">
       <use xlink:href="#DejaVuSans-52"/>
       <use x="63.623047" xlink:href="#DejaVuSans-48"/>
      </g>
     </g>
    </g>
    <g id="xtick_5">
     <g id="line2d_5">
      <path clip-path="url(#pe1f97eb9dc)" d="M 318.17096 288.430125 
L 318.17096 22.318125 
" style="fill:none;stroke:#cccccc;stroke-linecap:round;stroke-width:0.8;"/>
     </g>
     <g id="text_5">
      <!-- 50 -->
      <defs>
       <path d="M 10.796875 72.90625 
L 49.515625 72.90625 
L 49.515625 64.59375 
L 19.828125 64.59375 
L 19.828125 46.734375 
Q 21.96875 47.46875 24.109375 47.828125 
Q 26.265625 48.1875 28.421875 48.1875 
Q 40.625 48.1875 47.75 41.5 
Q 54.890625 34.8125 54.890625 23.390625 
Q 54.890625 11.625 47.5625 5.09375 
Q 40.234375 -1.421875 26.90625 -1.421875 
Q 22.3125 -1.421875 17.546875 -0.640625 
Q 12.796875 0.140625 7.71875 1.703125 
L 7.71875 11.625 
Q 12.109375 9.234375 16.796875 8.0625 
Q 21.484375 6.890625 26.703125 6.890625 
Q 35.15625 6.890625 40.078125 11.328125 
Q 45.015625 15.765625 45.015625 23.390625 
Q 45.015625 31 40.078125 35.4375 
Q 35.15625 39.890625 26.703125 39.890625 
Q 22.75 39.890625 18.8125 39.015625 
Q 14.890625 38.140625 10.796875 36.28125 
z
" id="DejaVuSans-53"/>
      </defs>
      <g style="fill:#262626;" transform="translate(311.80846 303.028562)scale(0.1 -0.1)">
       <use xlink:href="#DejaVuSans-53"/>
       <use x="63.623047" xlink:href="#DejaVuSans-48"/>
      </g>
     </g>
    </g>
    <g id="xtick_6">
     <g id="line2d_6">
      <path clip-path="url(#pe1f97eb9dc)" d="M 375.127898 288.430125 
L 375.127898 22.318125 
" style="fill:none;stroke:#cccccc;stroke-linecap:round;stroke-width:0.8;"/>
     </g>
     <g id="text_6">
      <!-- 60 -->
      <defs>
       <path d="M 33.015625 40.375 
Q 26.375 40.375 22.484375 35.828125 
Q 18.609375 31.296875 18.609375 23.390625 
Q 18.609375 15.53125 22.484375 10.953125 
Q 26.375 6.390625 33.015625 6.390625 
Q 39.65625 6.390625 43.53125 10.953125 
Q 47.40625 15.53125 47.40625 23.390625 
Q 47.40625 31.296875 43.53125 35.828125 
Q 39.65625 40.375 33.015625 40.375 
z
M 52.59375 71.296875 
L 52.59375 62.3125 
Q 48.875 64.0625 45.09375 64.984375 
Q 41.3125 65.921875 37.59375 65.921875 
Q 27.828125 65.921875 22.671875 59.328125 
Q 17.53125 52.734375 16.796875 39.40625 
Q 19.671875 43.65625 24.015625 45.921875 
Q 28.375 48.1875 33.59375 48.1875 
Q 44.578125 48.1875 50.953125 41.515625 
Q 57.328125 34.859375 57.328125 23.390625 
Q 57.328125 12.15625 50.6875 5.359375 
Q 44.046875 -1.421875 33.015625 -1.421875 
Q 20.359375 -1.421875 13.671875 8.265625 
Q 6.984375 17.96875 6.984375 36.375 
Q 6.984375 53.65625 15.1875 63.9375 
Q 23.390625 74.21875 37.203125 74.21875 
Q 40.921875 74.21875 44.703125 73.484375 
Q 48.484375 72.75 52.59375 71.296875 
z
" id="DejaVuSans-54"/>
      </defs>
      <g style="fill:#262626;" transform="translate(368.765398 303.028562)scale(0.1 -0.1)">
       <use xlink:href="#DejaVuSans-54"/>
       <use x="63.623047" xlink:href="#DejaVuSans-48"/>
      </g>
     </g>
    </g>
    <g id="text_7">
     <!-- time (days) -->
     <defs>
      <path d="M 18.3125 70.21875 
L 18.3125 54.6875 
L 36.8125 54.6875 
L 36.8125 47.703125 
L 18.3125 47.703125 
L 18.3125 18.015625 
Q 18.3125 11.328125 20.140625 9.421875 
Q 21.96875 7.515625 27.59375 7.515625 
L 36.8125 7.515625 
L 36.8125 0 
L 27.59375 0 
Q 17.1875 0 13.234375 3.875 
Q 9.28125 7.765625 9.28125 18.015625 
L 9.28125 47.703125 
L 2.6875 47.703125 
L 2.6875 54.6875 
L 9.28125 54.6875 
L 9.28125 70.21875 
z
" id="DejaVuSans-116"/>
      <path d="M 9.421875 54.6875 
L 18.40625 54.6875 
L 18.40625 0 
L 9.421875 0 
z
M 9.421875 75.984375 
L 18.40625 75.984375 
L 18.40625 64.59375 
L 9.421875 64.59375 
z
" id="DejaVuSans-105"/>
      <path d="M 52 44.1875 
Q 55.375 50.25 60.0625 53.125 
Q 64.75 56 71.09375 56 
Q 79.640625 56 84.28125 50.015625 
Q 88.921875 44.046875 88.921875 33.015625 
L 88.921875 0 
L 79.890625 0 
L 79.890625 32.71875 
Q 79.890625 40.578125 77.09375 44.375 
Q 74.3125 48.1875 68.609375 48.1875 
Q 61.625 48.1875 57.5625 43.546875 
Q 53.515625 38.921875 53.515625 30.90625 
L 53.515625 0 
L 44.484375 0 
L 44.484375 32.71875 
Q 44.484375 40.625 41.703125 44.40625 
Q 38.921875 48.1875 33.109375 48.1875 
Q 26.21875 48.1875 22.15625 43.53125 
Q 18.109375 38.875 18.109375 30.90625 
L 18.109375 0 
L 9.078125 0 
L 9.078125 54.6875 
L 18.109375 54.6875 
L 18.109375 46.1875 
Q 21.1875 51.21875 25.484375 53.609375 
Q 29.78125 56 35.6875 56 
Q 41.65625 56 45.828125 52.96875 
Q 50 49.953125 52 44.1875 
z
" id="DejaVuSans-109"/>
      <path d="M 56.203125 29.59375 
L 56.203125 25.203125 
L 14.890625 25.203125 
Q 15.484375 15.921875 20.484375 11.0625 
Q 25.484375 6.203125 34.421875 6.203125 
Q 39.59375 6.203125 44.453125 7.46875 
Q 49.3125 8.734375 54.109375 11.28125 
L 54.109375 2.78125 
Q 49.265625 0.734375 44.1875 -0.34375 
Q 39.109375 -1.421875 33.890625 -1.421875 
Q 20.796875 -1.421875 13.15625 6.1875 
Q 5.515625 13.8125 5.515625 26.8125 
Q 5.515625 40.234375 12.765625 48.109375 
Q 20.015625 56 32.328125 56 
Q 43.359375 56 49.78125 48.890625 
Q 56.203125 41.796875 56.203125 29.59375 
z
M 47.21875 32.234375 
Q 47.125 39.59375 43.09375 43.984375 
Q 39.0625 48.390625 32.421875 48.390625 
Q 24.90625 48.390625 20.390625 44.140625 
Q 15.875 39.890625 15.1875 32.171875 
z
" id="DejaVuSans-101"/>
      <path id="DejaVuSans-32"/>
      <path d="M 31 75.875 
Q 24.46875 64.65625 21.28125 53.65625 
Q 18.109375 42.671875 18.109375 31.390625 
Q 18.109375 20.125 21.3125 9.0625 
Q 24.515625 -2 31 -13.1875 
L 23.1875 -13.1875 
Q 15.875 -1.703125 12.234375 9.375 
Q 8.59375 20.453125 8.59375 31.390625 
Q 8.59375 42.28125 12.203125 53.3125 
Q 15.828125 64.359375 23.1875 75.875 
z
" id="DejaVuSans-40"/>
      <path d="M 45.40625 46.390625 
L 45.40625 75.984375 
L 54.390625 75.984375 
L 54.390625 0 
L 45.40625 0 
L 45.40625 8.203125 
Q 42.578125 3.328125 38.25 0.953125 
Q 33.9375 -1.421875 27.875 -1.421875 
Q 17.96875 -1.421875 11.734375 6.484375 
Q 5.515625 14.40625 5.515625 27.296875 
Q 5.515625 40.1875 11.734375 48.09375 
Q 17.96875 56 27.875 56 
Q 33.9375 56 38.25 53.625 
Q 42.578125 51.265625 45.40625 46.390625 
z
M 14.796875 27.296875 
Q 14.796875 17.390625 18.875 11.75 
Q 22.953125 6.109375 30.078125 6.109375 
Q 37.203125 6.109375 41.296875 11.75 
Q 45.40625 17.390625 45.40625 27.296875 
Q 45.40625 37.203125 41.296875 42.84375 
Q 37.203125 48.484375 30.078125 48.484375 
Q 22.953125 48.484375 18.875 42.84375 
Q 14.796875 37.203125 14.796875 27.296875 
z
" id="DejaVuSans-100"/>
      <path d="M 34.28125 27.484375 
Q 23.390625 27.484375 19.1875 25 
Q 14.984375 22.515625 14.984375 16.5 
Q 14.984375 11.71875 18.140625 8.90625 
Q 21.296875 6.109375 26.703125 6.109375 
Q 34.1875 6.109375 38.703125 11.40625 
Q 43.21875 16.703125 43.21875 25.484375 
L 43.21875 27.484375 
z
M 52.203125 31.203125 
L 52.203125 0 
L 43.21875 0 
L 43.21875 8.296875 
Q 40.140625 3.328125 35.546875 0.953125 
Q 30.953125 -1.421875 24.3125 -1.421875 
Q 15.921875 -1.421875 10.953125 3.296875 
Q 6 8.015625 6 15.921875 
Q 6 25.140625 12.171875 29.828125 
Q 18.359375 34.515625 30.609375 34.515625 
L 43.21875 34.515625 
L 43.21875 35.40625 
Q 43.21875 41.609375 39.140625 45 
Q 35.0625 48.390625 27.6875 48.390625 
Q 23 48.390625 18.546875 47.265625 
Q 14.109375 46.140625 10.015625 43.890625 
L 10.015625 52.203125 
Q 14.9375 54.109375 19.578125 55.046875 
Q 24.21875 56 28.609375 56 
Q 40.484375 56 46.34375 49.84375 
Q 52.203125 43.703125 52.203125 31.203125 
z
" id="DejaVuSans-97"/>
      <path d="M 32.171875 -5.078125 
Q 28.375 -14.84375 24.75 -17.8125 
Q 21.140625 -20.796875 15.09375 -20.796875 
L 7.90625 -20.796875 
L 7.90625 -13.28125 
L 13.1875 -13.28125 
Q 16.890625 -13.28125 18.9375 -11.515625 
Q 21 -9.765625 23.484375 -3.21875 
L 25.09375 0.875 
L 2.984375 54.6875 
L 12.5 54.6875 
L 29.59375 11.921875 
L 46.6875 54.6875 
L 56.203125 54.6875 
z
" id="DejaVuSans-121"/>
      <path d="M 44.28125 53.078125 
L 44.28125 44.578125 
Q 40.484375 46.53125 36.375 47.5 
Q 32.28125 48.484375 27.875 48.484375 
Q 21.1875 48.484375 17.84375 46.4375 
Q 14.5 44.390625 14.5 40.28125 
Q 14.5 37.15625 16.890625 35.375 
Q 19.28125 33.59375 26.515625 31.984375 
L 29.59375 31.296875 
Q 39.15625 29.25 43.1875 25.515625 
Q 47.21875 21.78125 47.21875 15.09375 
Q 47.21875 7.46875 41.1875 3.015625 
Q 35.15625 -1.421875 24.609375 -1.421875 
Q 20.21875 -1.421875 15.453125 -0.5625 
Q 10.6875 0.296875 5.421875 2 
L 5.421875 11.28125 
Q 10.40625 8.6875 15.234375 7.390625 
Q 20.0625 6.109375 24.8125 6.109375 
Q 31.15625 6.109375 34.5625 8.28125 
Q 37.984375 10.453125 37.984375 14.40625 
Q 37.984375 18.0625 35.515625 20.015625 
Q 33.0625 21.96875 24.703125 23.78125 
L 21.578125 24.515625 
Q 13.234375 26.265625 9.515625 29.90625 
Q 5.8125 33.546875 5.8125 39.890625 
Q 5.8125 47.609375 11.28125 51.796875 
Q 16.75 56 26.8125 56 
Q 31.78125 56 36.171875 55.265625 
Q 40.578125 54.546875 44.28125 53.078125 
z
" id="DejaVuSans-115"/>
      <path d="M 8.015625 75.875 
L 15.828125 75.875 
Q 23.140625 64.359375 26.78125 53.3125 
Q 30.421875 42.28125 30.421875 31.390625 
Q 30.421875 20.453125 26.78125 9.375 
Q 23.140625 -1.703125 15.828125 -13.1875 
L 8.015625 -13.1875 
Q 14.5 -2 17.703125 9.0625 
Q 20.90625 20.125 20.90625 31.390625 
Q 20.90625 42.671875 17.703125 53.65625 
Q 14.5 64.65625 8.015625 75.875 
z
" id="DejaVuSans-41"/>
     </defs>
     <g style="fill:#262626;" transform="translate(184.211563 316.706687)scale(0.1 -0.1)">
      <use xlink:href="#DejaVuSans-116"/>
      <use x="39.208984" xlink:href="#DejaVuSans-105"/>
      <use x="66.992188" xlink:href="#DejaVuSans-109"/>
      <use x="164.404297" xlink:href="#DejaVuSans-101"/>
      <use x="225.927734" xlink:href="#DejaVuSans-32"/>
      <use x="257.714844" xlink:href="#DejaVuSans-40"/>
      <use x="296.728516" xlink:href="#DejaVuSans-100"/>
      <use x="360.205078" xlink:href="#DejaVuSans-97"/>
      <use x="421.484375" xlink:href="#DejaVuSans-121"/>
      <use x="480.664062" xlink:href="#DejaVuSans-115"/>
      <use x="532.763672" xlink:href="#DejaVuSans-41"/>
     </g>
    </g>
   </g>
   <g id="matplotlib.axis_2">
    <g id="ytick_1">
     <g id="line2d_7">
      <path clip-path="url(#pe1f97eb9dc)" d="M 34.240625 276.334125 
L 391.360625 276.334125 
" style="fill:none;stroke:#cccccc;stroke-linecap:round;stroke-width:0.8;"/>
     </g>
     <g id="text_8">
      <!-- 0 -->
      <g style="fill:#262626;" transform="translate(20.878125 280.133344)scale(0.1 -0.1)">
       <use xlink:href="#DejaVuSans-48"/>
      </g>
     </g>
    </g>
    <g id="ytick_2">
     <g id="line2d_8">
      <path clip-path="url(#pe1f97eb9dc)" d="M 34.240625 230.876916 
L 391.360625 230.876916 
" style="fill:none;stroke:#cccccc;stroke-linecap:round;stroke-width:0.8;"/>
     </g>
     <g id="text_9">
      <!-- 1 -->
      <g style="fill:#262626;" transform="translate(20.878125 234.676134)scale(0.1 -0.1)">
       <use xlink:href="#DejaVuSans-49"/>
      </g>
     </g>
    </g>
    <g id="ytick_3">
     <g id="line2d_9">
      <path clip-path="url(#pe1f97eb9dc)" d="M 34.240625 185.419706 
L 391.360625 185.419706 
" style="fill:none;stroke:#cccccc;stroke-linecap:round;stroke-width:0.8;"/>
     </g>
     <g id="text_10">
      <!-- 2 -->
      <g style="fill:#262626;" transform="translate(20.878125 189.218925)scale(0.1 -0.1)">
       <use xlink:href="#DejaVuSans-50"/>
      </g>
     </g>
    </g>
    <g id="ytick_4">
     <g id="line2d_10">
      <path clip-path="url(#pe1f97eb9dc)" d="M 34.240625 139.962497 
L 391.360625 139.962497 
" style="fill:none;stroke:#cccccc;stroke-linecap:round;stroke-width:0.8;"/>
     </g>
     <g id="text_11">
      <!-- 3 -->
      <g style="fill:#262626;" transform="translate(20.878125 143.761715)scale(0.1 -0.1)">
       <use xlink:href="#DejaVuSans-51"/>
      </g>
     </g>
    </g>
    <g id="ytick_5">
     <g id="line2d_11">
      <path clip-path="url(#pe1f97eb9dc)" d="M 34.240625 94.505287 
L 391.360625 94.505287 
" style="fill:none;stroke:#cccccc;stroke-linecap:round;stroke-width:0.8;"/>
     </g>
     <g id="text_12">
      <!-- 4 -->
      <g style="fill:#262626;" transform="translate(20.878125 98.304506)scale(0.1 -0.1)">
       <use xlink:href="#DejaVuSans-52"/>
      </g>
     </g>
    </g>
    <g id="ytick_6">
     <g id="line2d_12">
      <path clip-path="url(#pe1f97eb9dc)" d="M 34.240625 49.048078 
L 391.360625 49.048078 
" style="fill:none;stroke:#cccccc;stroke-linecap:round;stroke-width:0.8;"/>
     </g>
     <g id="text_13">
      <!-- 5 -->
      <g style="fill:#262626;" transform="translate(20.878125 52.847297)scale(0.1 -0.1)">
       <use xlink:href="#DejaVuSans-53"/>
      </g>
     </g>
    </g>
    <g id="text_14">
     <!-- log2 (antibody level) -->
     <defs>
      <path d="M 9.421875 75.984375 
L 18.40625 75.984375 
L 18.40625 0 
L 9.421875 0 
z
" id="DejaVuSans-108"/>
      <path d="M 30.609375 48.390625 
Q 23.390625 48.390625 19.1875 42.75 
Q 14.984375 37.109375 14.984375 27.296875 
Q 14.984375 17.484375 19.15625 11.84375 
Q 23.34375 6.203125 30.609375 6.203125 
Q 37.796875 6.203125 41.984375 11.859375 
Q 46.1875 17.53125 46.1875 27.296875 
Q 46.1875 37.015625 41.984375 42.703125 
Q 37.796875 48.390625 30.609375 48.390625 
z
M 30.609375 56 
Q 42.328125 56 49.015625 48.375 
Q 55.71875 40.765625 55.71875 27.296875 
Q 55.71875 13.875 49.015625 6.21875 
Q 42.328125 -1.421875 30.609375 -1.421875 
Q 18.84375 -1.421875 12.171875 6.21875 
Q 5.515625 13.875 5.515625 27.296875 
Q 5.515625 40.765625 12.171875 48.375 
Q 18.84375 56 30.609375 56 
z
" id="DejaVuSans-111"/>
      <path d="M 45.40625 27.984375 
Q 45.40625 37.75 41.375 43.109375 
Q 37.359375 48.484375 30.078125 48.484375 
Q 22.859375 48.484375 18.828125 43.109375 
Q 14.796875 37.75 14.796875 27.984375 
Q 14.796875 18.265625 18.828125 12.890625 
Q 22.859375 7.515625 30.078125 7.515625 
Q 37.359375 7.515625 41.375 12.890625 
Q 45.40625 18.265625 45.40625 27.984375 
z
M 54.390625 6.78125 
Q 54.390625 -7.171875 48.1875 -13.984375 
Q 42 -20.796875 29.203125 -20.796875 
Q 24.46875 -20.796875 20.265625 -20.09375 
Q 16.0625 -19.390625 12.109375 -17.921875 
L 12.109375 -9.1875 
Q 16.0625 -11.328125 19.921875 -12.34375 
Q 23.78125 -13.375 27.78125 -13.375 
Q 36.625 -13.375 41.015625 -8.765625 
Q 45.40625 -4.15625 45.40625 5.171875 
L 45.40625 9.625 
Q 42.625 4.78125 38.28125 2.390625 
Q 33.9375 0 27.875 0 
Q 17.828125 0 11.671875 7.65625 
Q 5.515625 15.328125 5.515625 27.984375 
Q 5.515625 40.671875 11.671875 48.328125 
Q 17.828125 56 27.875 56 
Q 33.9375 56 38.28125 53.609375 
Q 42.625 51.21875 45.40625 46.390625 
L 45.40625 54.6875 
L 54.390625 54.6875 
z
" id="DejaVuSans-103"/>
      <path d="M 54.890625 33.015625 
L 54.890625 0 
L 45.90625 0 
L 45.90625 32.71875 
Q 45.90625 40.484375 42.875 44.328125 
Q 39.84375 48.1875 33.796875 48.1875 
Q 26.515625 48.1875 22.3125 43.546875 
Q 18.109375 38.921875 18.109375 30.90625 
L 18.109375 0 
L 9.078125 0 
L 9.078125 54.6875 
L 18.109375 54.6875 
L 18.109375 46.1875 
Q 21.34375 51.125 25.703125 53.5625 
Q 30.078125 56 35.796875 56 
Q 45.21875 56 50.046875 50.171875 
Q 54.890625 44.34375 54.890625 33.015625 
z
" id="DejaVuSans-110"/>
      <path d="M 48.6875 27.296875 
Q 48.6875 37.203125 44.609375 42.84375 
Q 40.53125 48.484375 33.40625 48.484375 
Q 26.265625 48.484375 22.1875 42.84375 
Q 18.109375 37.203125 18.109375 27.296875 
Q 18.109375 17.390625 22.1875 11.75 
Q 26.265625 6.109375 33.40625 6.109375 
Q 40.53125 6.109375 44.609375 11.75 
Q 48.6875 17.390625 48.6875 27.296875 
z
M 18.109375 46.390625 
Q 20.953125 51.265625 25.265625 53.625 
Q 29.59375 56 35.59375 56 
Q 45.5625 56 51.78125 48.09375 
Q 58.015625 40.1875 58.015625 27.296875 
Q 58.015625 14.40625 51.78125 6.484375 
Q 45.5625 -1.421875 35.59375 -1.421875 
Q 29.59375 -1.421875 25.265625 0.953125 
Q 20.953125 3.328125 18.109375 8.203125 
L 18.109375 0 
L 9.078125 0 
L 9.078125 75.984375 
L 18.109375 75.984375 
z
" id="DejaVuSans-98"/>
      <path d="M 2.984375 54.6875 
L 12.5 54.6875 
L 29.59375 8.796875 
L 46.6875 54.6875 
L 56.203125 54.6875 
L 35.6875 0 
L 23.484375 0 
z
" id="DejaVuSans-118"/>
     </defs>
     <g style="fill:#262626;" transform="translate(14.798438 207.097562)rotate(-90)scale(0.1 -0.1)">
      <use xlink:href="#DejaVuSans-108"/>
      <use x="27.783203" xlink:href="#DejaVuSans-111"/>
      <use x="88.964844" xlink:href="#DejaVuSans-103"/>
      <use x="152.441406" xlink:href="#DejaVuSans-50"/>
      <use x="216.064453" xlink:href="#DejaVuSans-32"/>
      <use x="247.851562" xlink:href="#DejaVuSans-40"/>
      <use x="286.865234" xlink:href="#DejaVuSans-97"/>
      <use x="348.144531" xlink:href="#DejaVuSans-110"/>
      <use x="411.523438" xlink:href="#DejaVuSans-116"/>
      <use x="450.732422" xlink:href="#DejaVuSans-105"/>
      <use x="478.515625" xlink:href="#DejaVuSans-98"/>
      <use x="541.992188" xlink:href="#DejaVuSans-111"/>
      <use x="603.173828" xlink:href="#DejaVuSans-100"/>
      <use x="666.650391" xlink:href="#DejaVuSans-121"/>
      <use x="725.830078" xlink:href="#DejaVuSans-32"/>
      <use x="757.617188" xlink:href="#DejaVuSans-108"/>
      <use x="785.400391" xlink:href="#DejaVuSans-101"/>
      <use x="846.923828" xlink:href="#DejaVuSans-118"/>
      <use x="906.103516" xlink:href="#DejaVuSans-101"/>
      <use x="967.626953" xlink:href="#DejaVuSans-108"/>
      <use x="995.410156" xlink:href="#DejaVuSans-41"/>
     </g>
    </g>
   </g>
   <g id="line2d_13">
    <path clip-path="url(#pe1f97eb9dc)" d="M 94.899764 276.334125 
L 96.038903 276.334125 
L 96.608472 230.876916 
L 104.012874 230.876916 
L 104.582443 276.334125 
L 111.986845 276.334125 
M 113.125984 276.334125 
L 122.239094 276.334125 
L 122.808663 230.876916 
L 123.947802 230.876916 
L 124.517371 204.286153 
L 127.934788 204.286153 
L 128.504357 185.419706 
L 139.326175 185.419706 
L 139.895745 170.785753 
L 145.021869 170.785753 
L 145.591438 158.828943 
L 160.400242 158.828943 
L 160.969812 170.785753 
L 165.526367 170.785753 
L 166.095936 158.828943 
L 171.22206 158.828943 
L 171.79163 170.785753 
L 177.487324 170.785753 
L 178.056893 185.419706 
L 178.626462 185.419706 
L 179.196032 170.785753 
L 193.435266 170.785753 
L 194.004836 158.828943 
L 194.574405 158.828943 
L 195.143974 170.785753 
L 199.700529 170.785753 
L 200.270099 185.419706 
L 200.839668 170.785753 
L 201.409237 185.419706 
L 205.396223 185.419706 
L 205.965792 170.785753 
L 207.104931 170.785753 
L 207.674501 158.828943 
L 211.091917 158.828943 
L 211.661486 148.719604 
L 212.231056 158.828943 
L 213.370194 139.962497 
L 213.939764 132.23818 
L 214.509333 139.962497 
L 215.648472 139.962497 
L 216.218041 148.719604 
L 219.635458 148.719604 
L 220.774596 170.785753 
L 221.344166 158.828943 
L 224.192013 158.828943 
L 224.761582 148.719604 
L 228.748568 148.719604 
L 229.318137 139.962497 
L 232.735553 139.962497 
L 233.305123 148.719604 
L 233.874692 139.962497 
L 236.722539 139.962497 
L 237.292108 148.719604 
L 240.139955 148.719604 
L 240.709525 139.962497 
L 241.279094 125.328544 
L 241.848663 125.328544 
L 242.418233 132.23818 
L 243.557371 119.078017 
L 244.69651 132.23818 
L 246.974788 132.23818 
L 247.544357 125.328544 
L 248.113926 125.328544 
L 248.683496 132.23818 
L 252.100912 132.23818 
L 252.670481 139.962497 
L 257.227036 139.962497 
L 257.796606 132.23818 
L 260.644453 132.23818 
L 261.214022 125.328544 
L 262.353161 125.328544 
L 262.92273 119.078017 
L 268.048855 119.078017 
L 268.618424 125.328544 
L 269.187993 125.328544 
L 269.757563 132.23818 
L 270.327132 132.23818 
L 270.896702 125.328544 
L 273.174979 125.328544 
L 274.314118 113.371734 
L 274.883687 113.371734 
L 275.453257 119.078017 
L 277.161965 119.078017 
L 277.731534 113.371734 
L 279.440242 113.371734 
L 280.009812 108.122462 
L 280.579381 108.122462 
L 281.14895 103.262395 
L 281.71852 108.122462 
L 282.288089 108.122462 
L 282.857658 103.262395 
L 285.135936 103.262395 
L 285.705505 108.122462 
L 289.122922 108.122462 
L 289.692491 113.371734 
L 290.83163 113.371734 
L 291.401199 119.078017 
L 291.970769 119.078017 
L 292.540338 113.371734 
L 294.818615 113.371734 
L 295.388185 108.122462 
L 295.957754 113.371734 
L 297.096893 113.371734 
L 298.236032 103.262395 
L 299.37517 103.262395 
L 299.94474 98.737781 
L 301.083879 98.737781 
L 301.653448 94.505287 
L 305.640434 94.505287 
L 306.210003 90.529471 
L 308.488281 90.529471 
L 309.627419 98.737781 
L 313.044836 98.737781 
L 313.614405 94.505287 
L 314.183974 94.505287 
L 314.753544 86.780971 
L 315.323113 83.235194 
L 316.462252 83.235194 
L 317.031821 90.529471 
L 319.310099 90.529471 
L 319.879668 98.737781 
L 320.449237 94.505287 
L 323.297084 94.505287 
L 323.866654 83.235194 
L 325.005792 83.235194 
L 325.575362 86.780971 
L 326.144931 86.780971 
L 326.714501 83.235194 
L 327.28407 86.780971 
L 328.423209 86.780971 
L 328.992778 83.235194 
L 330.131917 90.529471 
L 330.701486 90.529471 
L 331.271056 86.780971 
L 331.840625 86.780971 
L 332.410194 90.529471 
L 334.118903 90.529471 
L 335.258041 83.235194 
L 335.827611 83.235194 
L 336.966749 90.529471 
L 338.675458 90.529471 
L 339.245027 86.780971 
L 340.384166 86.780971 
L 340.953735 83.235194 
L 341.523304 73.620808 
L 342.092874 76.671632 
L 343.232013 76.671632 
L 343.801582 73.620808 
L 344.371151 67.914524 
L 344.940721 67.914524 
L 345.51029 65.237382 
L 346.079859 67.914524 
L 346.649429 67.914524 
L 347.788568 73.620808 
L 351.775553 73.620808 
L 352.345123 70.705622 
L 352.914692 73.620808 
L 354.6234 73.620808 
L 356.332108 65.237382 
L 357.471247 65.237382 
L 358.610386 70.705622 
L 361.458233 70.705622 
L 362.597371 65.237382 
L 363.166941 65.237382 
L 363.73651 62.665252 
L 365.445218 62.665252 
L 366.014788 65.237382 
L 367.723496 65.237382 
L 369.432204 57.805185 
L 370.001773 57.805185 
L 370.571343 60.190208 
L 371.140912 60.190208 
L 371.710481 57.805185 
L 373.41919 57.805185 
L 373.988759 55.503865 
L 375.127898 55.503865 
L 375.127898 55.503865 
" style="fill:none;stroke:#000080;stroke-linecap:round;stroke-width:1.5;"/>
   </g>
   <g id="line2d_14">
    <path clip-path="url(#pe1f97eb9dc)" d="M 57.877754 276.334125 
L 74.395266 276.334125 
L 74.964836 230.876916 
L 105.152013 230.876916 
L 105.721582 204.286153 
L 111.986845 204.286153 
L 112.556414 170.785753 
L 123.947802 170.785753 
L 124.517371 185.419706 
L 125.086941 185.419706 
L 125.65651 170.785753 
L 126.795649 170.785753 
L 127.365218 158.828943 
L 132.491343 158.828943 
L 133.060912 185.419706 
L 133.630481 170.785753 
L 135.33919 170.785753 
L 135.908759 185.419706 
L 139.895745 185.419706 
L 140.465314 170.785753 
L 142.743592 170.785753 
L 143.313161 158.828943 
L 149.008855 158.828943 
L 149.578424 148.719604 
L 154.704548 148.719604 
L 155.843687 170.785753 
L 159.830673 170.785753 
L 160.400242 185.419706 
L 164.956797 185.419706 
L 165.526367 170.785753 
L 166.665505 170.785753 
L 167.235075 158.828943 
L 168.943783 158.828943 
L 169.513352 148.719604 
L 170.652491 148.719604 
L 171.79163 132.23818 
L 173.500338 132.23818 
L 174.069907 125.328544 
L 175.209046 125.328544 
L 175.778615 132.23818 
L 176.348185 132.23818 
L 176.917754 139.962497 
L 179.765601 139.962497 
L 180.90474 125.328544 
L 183.183017 125.328544 
L 183.752587 132.23818 
L 186.600434 132.23818 
L 187.170003 125.328544 
L 187.739572 125.328544 
L 188.309142 119.078017 
L 188.878711 119.078017 
L 189.448281 113.371734 
L 191.156989 113.371734 
L 191.726558 119.078017 
L 192.865697 119.078017 
L 194.004836 108.122462 
L 194.574405 108.122462 
L 195.143974 113.371734 
L 195.713544 113.371734 
L 196.283113 108.122462 
L 204.826654 108.122462 
L 205.396223 103.262395 
L 205.965792 103.262395 
L 206.535362 94.505287 
L 207.104931 94.505287 
L 207.674501 98.737781 
L 208.24407 94.505287 
L 212.800625 94.505287 
L 213.370194 98.737781 
L 213.939764 94.505287 
L 222.483304 94.505287 
L 223.052874 98.737781 
L 225.900721 98.737781 
L 226.47029 103.262395 
L 232.735553 103.262395 
L 233.305123 98.737781 
L 233.874692 103.262395 
L 234.444261 98.737781 
L 235.013831 103.262395 
L 235.5834 103.262395 
L 236.152969 108.122462 
L 237.292108 108.122462 
L 237.861678 103.262395 
L 240.139955 103.262395 
L 240.709525 108.122462 
L 241.279094 103.262395 
L 242.987802 103.262395 
L 244.126941 113.371734 
L 249.253065 113.371734 
L 249.822635 108.122462 
L 253.240051 108.122462 
L 253.80962 113.371734 
L 254.37919 113.371734 
L 254.948759 119.078017 
L 258.935745 119.078017 
L 259.505314 113.371734 
L 261.214022 113.371734 
L 261.783592 119.078017 
L 264.061869 119.078017 
L 265.201008 98.737781 
L 265.770577 94.505287 
L 272.03584 94.505287 
L 272.60541 90.529471 
L 275.453257 90.529471 
L 276.022826 86.780971 
L 276.592395 90.529471 
L 278.301103 90.529471 
L 278.870673 94.505287 
L 281.71852 94.505287 
L 282.288089 98.737781 
L 282.857658 94.505287 
L 284.566367 94.505287 
L 285.135936 103.262395 
L 285.705505 103.262395 
L 286.275075 98.737781 
L 289.692491 98.737781 
L 290.26206 94.505287 
L 290.83163 94.505287 
L 291.401199 90.529471 
L 293.679477 90.529471 
L 294.249046 94.505287 
L 295.388185 94.505287 
L 295.957754 98.737781 
L 296.527324 98.737781 
L 297.096893 94.505287 
L 302.792587 94.505287 
L 303.362156 98.737781 
L 303.931725 98.737781 
L 304.501295 94.505287 
L 306.779572 94.505287 
L 307.349142 98.737781 
L 308.488281 98.737781 
L 309.05785 94.505287 
L 310.766558 94.505287 
L 311.336127 98.737781 
L 313.044836 98.737781 
L 313.614405 103.262395 
L 314.753544 103.262395 
L 315.323113 108.122462 
L 315.892682 108.122462 
L 316.462252 98.737781 
L 317.031821 98.737781 
L 317.601391 103.262395 
L 318.17096 103.262395 
L 318.740529 98.737781 
L 326.714501 98.737781 
L 327.28407 103.262395 
L 331.840625 103.262395 
L 332.410194 98.737781 
L 335.827611 98.737781 
L 336.39718 90.529471 
L 336.966749 94.505287 
L 338.105888 94.505287 
L 338.675458 90.529471 
L 339.245027 90.529471 
L 339.814596 94.505287 
L 340.953735 94.505287 
L 341.523304 90.529471 
L 342.662443 90.529471 
L 343.232013 86.780971 
L 343.801582 79.871334 
L 346.079859 79.871334 
L 346.649429 76.671632 
L 347.788568 83.235194 
L 350.636414 83.235194 
L 351.205984 86.780971 
L 353.484261 86.780971 
L 354.053831 90.529471 
L 359.749525 90.529471 
L 360.319094 94.505287 
L 362.027802 94.505287 
L 362.597371 90.529471 
L 363.166941 90.529471 
L 364.30608 83.235194 
L 366.014788 83.235194 
L 366.584357 86.780971 
L 367.723496 86.780971 
L 368.293065 83.235194 
L 368.862635 83.235194 
L 369.432204 86.780971 
L 370.001773 83.235194 
L 373.41919 83.235194 
L 373.988759 86.780971 
L 374.558328 86.780971 
L 375.127898 83.235194 
L 375.127898 83.235194 
" style="fill:none;stroke:#0000f1;stroke-linecap:round;stroke-width:1.5;"/>
   </g>
   <g id="line2d_15">
    <path clip-path="url(#pe1f97eb9dc)" d="M 50.473352 276.334125 
L 94.899764 276.334125 
L 95.469333 230.876916 
L 101.734596 230.876916 
L 102.304166 204.286153 
L 109.138998 204.286153 
L 109.708568 185.419706 
L 119.391247 185.419706 
L 119.960816 170.785753 
L 120.530386 170.785753 
L 121.099955 185.419706 
L 128.504357 185.419706 
L 129.073926 170.785753 
L 142.743592 170.785753 
L 143.313161 185.419706 
L 143.88273 170.785753 
L 146.161008 170.785753 
L 146.730577 158.828943 
L 148.439285 158.828943 
L 149.578424 139.962497 
L 153.56541 139.962497 
L 154.134979 132.23818 
L 154.704548 139.962497 
L 159.261103 139.962497 
L 159.830673 132.23818 
L 160.400242 132.23818 
L 160.969812 139.962497 
L 164.956797 139.962497 
L 165.526367 132.23818 
L 166.095936 132.23818 
L 167.235075 148.719604 
L 168.374214 148.719604 
L 168.943783 139.962497 
L 174.069907 139.962497 
L 175.209046 125.328544 
L 177.487324 125.328544 
L 178.056893 119.078017 
L 184.891725 119.078017 
L 185.461295 113.371734 
L 186.030864 113.371734 
L 186.600434 108.122462 
L 191.156989 108.122462 
L 191.726558 103.262395 
L 196.283113 103.262395 
L 196.852682 98.737781 
L 197.422252 103.262395 
L 200.839668 103.262395 
L 201.409237 98.737781 
L 201.978807 103.262395 
L 204.257084 103.262395 
L 204.826654 98.737781 
L 205.396223 98.737781 
L 205.965792 94.505287 
L 209.952778 94.505287 
L 210.522347 90.529471 
L 211.661486 90.529471 
L 212.231056 86.780971 
L 212.800625 86.780971 
L 213.370194 83.235194 
L 213.939764 86.780971 
L 214.509333 86.780971 
L 215.078903 90.529471 
L 219.065888 90.529471 
L 219.635458 94.505287 
L 220.205027 94.505287 
L 221.344166 103.262395 
L 226.47029 103.262395 
L 227.039859 98.737781 
L 229.318137 98.737781 
L 229.887706 103.262395 
L 231.026845 103.262395 
L 231.596414 108.122462 
L 232.735553 108.122462 
L 233.305123 103.262395 
L 236.722539 103.262395 
L 237.292108 98.737781 
L 240.139955 98.737781 
L 240.709525 103.262395 
L 248.683496 103.262395 
L 249.253065 98.737781 
L 250.392204 98.737781 
L 250.961773 103.262395 
L 252.670481 103.262395 
L 253.240051 98.737781 
L 254.948759 98.737781 
L 255.518328 94.505287 
L 256.087898 98.737781 
L 257.796606 98.737781 
L 258.935745 90.529471 
L 260.074883 90.529471 
L 260.644453 94.505287 
L 264.061869 94.505287 
L 264.631438 90.529471 
L 265.201008 94.505287 
L 265.770577 94.505287 
L 266.909716 86.780971 
L 268.048855 86.780971 
L 268.618424 83.235194 
L 269.757563 83.235194 
L 270.327132 86.780971 
L 271.466271 86.780971 
L 272.03584 83.235194 
L 272.60541 83.235194 
L 273.174979 79.871334 
L 273.744548 83.235194 
L 275.453257 73.620808 
L 276.592395 73.620808 
L 277.161965 83.235194 
L 277.731534 86.780971 
L 278.870673 86.780971 
L 279.440242 83.235194 
L 280.579381 83.235194 
L 281.14895 79.871334 
L 281.71852 79.871334 
L 282.288089 76.671632 
L 283.996797 76.671632 
L 285.705505 67.914524 
L 287.414214 67.914524 
L 287.983783 70.705622 
L 290.26206 70.705622 
L 290.83163 67.914524 
L 292.540338 67.914524 
L 293.679477 62.665252 
L 294.249046 62.665252 
L 295.957754 55.503865 
L 297.096893 60.190208 
L 297.666462 57.805185 
L 298.805601 57.805185 
L 299.37517 60.190208 
L 299.94474 60.190208 
L 300.514309 57.805185 
L 302.223017 57.805185 
L 302.792587 60.190208 
L 307.349142 60.190208 
L 307.918711 57.805185 
L 310.766558 57.805185 
L 311.336127 55.503865 
L 312.475266 55.503865 
L 313.044836 57.805185 
L 316.462252 57.805185 
L 317.601391 62.665252 
L 322.727515 62.665252 
L 323.297084 65.237382 
L 323.866654 65.237382 
L 324.436223 62.665252 
L 326.144931 62.665252 
L 326.714501 60.190208 
L 327.28407 60.190208 
L 327.853639 62.665252 
L 328.423209 62.665252 
L 328.992778 60.190208 
L 329.562347 60.190208 
L 330.131917 57.805185 
L 331.840625 57.805185 
L 332.410194 62.665252 
L 332.979764 62.665252 
L 333.549333 65.237382 
L 335.258041 65.237382 
L 335.827611 67.914524 
L 336.39718 67.914524 
L 336.966749 65.237382 
L 337.536319 67.914524 
L 338.105888 65.237382 
L 339.245027 65.237382 
L 339.814596 62.665252 
L 340.953735 67.914524 
L 344.371151 67.914524 
L 344.940721 70.705622 
L 347.788568 70.705622 
L 348.358137 67.914524 
L 350.066845 67.914524 
L 350.636414 70.705622 
L 351.205984 65.237382 
L 352.345123 60.190208 
L 354.6234 60.190208 
L 355.192969 57.805185 
L 356.901678 57.805185 
L 358.040816 53.280572 
L 360.888663 53.280572 
L 362.597371 47.030045 
L 365.445218 47.030045 
L 366.014788 49.048078 
L 366.584357 49.048078 
L 367.723496 45.072261 
L 368.293065 45.072261 
L 368.862635 49.048078 
L 369.432204 47.030045 
L 371.140912 47.030045 
L 372.280051 43.171233 
L 375.127898 43.171233 
L 375.127898 43.171233 
" style="fill:none;stroke:#004cff;stroke-linecap:round;stroke-width:1.5;"/>
   </g>
   <g id="line2d_16">
    <path clip-path="url(#pe1f97eb9dc)" d="M 77.812682 276.334125 
L 90.343209 276.334125 
L 90.912778 230.876916 
L 92.051917 230.876916 
L 92.621486 204.286153 
L 96.038903 204.286153 
L 96.608472 185.419706 
L 102.304166 185.419706 
L 102.873735 170.785753 
L 106.291151 170.785753 
L 106.860721 158.828943 
L 128.504357 158.828943 
L 129.073926 148.719604 
L 132.491343 148.719604 
L 133.060912 139.962497 
L 135.33919 139.962497 
L 135.908759 132.23818 
L 138.187036 132.23818 
L 138.756606 125.328544 
L 141.604453 125.328544 
L 142.174022 132.23818 
L 144.4523 132.23818 
L 145.021869 125.328544 
L 146.730577 125.328544 
L 147.300147 119.078017 
L 152.426271 119.078017 
L 152.99584 125.328544 
L 153.56541 125.328544 
L 154.134979 119.078017 
L 156.982826 119.078017 
L 157.552395 125.328544 
L 158.121965 125.328544 
L 158.691534 119.078017 
L 163.248089 119.078017 
L 163.817658 113.371734 
L 164.956797 113.371734 
L 165.526367 108.122462 
L 175.209046 108.122462 
L 175.778615 103.262395 
L 176.348185 103.262395 
L 176.917754 94.505287 
L 178.626462 94.505287 
L 179.196032 90.529471 
L 180.90474 90.529471 
L 181.474309 86.780971 
L 182.043879 86.780971 
L 182.613448 90.529471 
L 183.183017 86.780971 
L 183.752587 86.780971 
L 184.322156 83.235194 
L 187.170003 83.235194 
L 187.739572 79.871334 
L 190.587419 79.871334 
L 191.156989 83.235194 
L 192.865697 83.235194 
L 193.435266 86.780971 
L 195.713544 86.780971 
L 196.283113 83.235194 
L 198.561391 83.235194 
L 199.700529 90.529471 
L 201.978807 90.529471 
L 202.548376 86.780971 
L 207.104931 86.780971 
L 207.674501 83.235194 
L 208.24407 83.235194 
L 208.813639 86.780971 
L 211.091917 86.780971 
L 211.661486 90.529471 
L 212.231056 90.529471 
L 212.800625 94.505287 
L 219.635458 94.505287 
L 220.205027 90.529471 
L 220.774596 90.529471 
L 221.344166 86.780971 
L 222.483304 86.780971 
L 223.052874 79.871334 
L 223.622443 70.705622 
L 224.192013 67.914524 
L 226.47029 67.914524 
L 227.039859 65.237382 
L 229.318137 65.237382 
L 230.457276 60.190208 
L 231.596414 60.190208 
L 232.165984 57.805185 
L 232.735553 57.805185 
L 233.305123 55.503865 
L 233.874692 55.503865 
L 234.444261 53.280572 
L 235.5834 57.805185 
L 236.152969 57.805185 
L 236.722539 55.503865 
L 238.431247 55.503865 
L 239.000816 53.280572 
L 240.709525 53.280572 
L 241.279094 51.130186 
L 243.557371 51.130186 
L 245.26608 57.805185 
L 248.683496 57.805185 
L 249.253065 55.503865 
L 250.392204 55.503865 
L 250.961773 53.280572 
L 253.240051 53.280572 
L 253.80962 55.503865 
L 254.948759 55.503865 
L 255.518328 57.805185 
L 257.227036 57.805185 
L 257.796606 55.503865 
L 261.783592 55.503865 
L 262.353161 53.280572 
L 262.92273 49.048078 
L 264.061869 45.072261 
L 265.201008 45.072261 
L 265.770577 43.171233 
L 266.909716 43.171233 
L 267.479285 41.323761 
L 272.03584 41.323761 
L 273.174979 49.048078 
L 273.744548 49.048078 
L 274.314118 51.130186 
L 277.731534 51.130186 
L 278.301103 53.280572 
L 278.870673 53.280572 
L 280.009812 57.805185 
L 284.566367 57.805185 
L 285.135936 55.503865 
L 286.844644 55.503865 
L 288.553352 49.048078 
L 289.122922 49.048078 
L 289.692491 47.030045 
L 290.26206 47.030045 
L 290.83163 43.171233 
L 291.970769 43.171233 
L 292.540338 39.526912 
L 293.109907 39.526912 
L 293.679477 43.171233 
L 294.249046 43.171233 
L 294.818615 41.323761 
L 297.096893 41.323761 
L 297.666462 45.072261 
L 298.236032 47.030045 
L 299.37517 43.171233 
L 299.94474 43.171233 
L 300.514309 47.030045 
L 301.083879 49.048078 
L 301.653448 49.048078 
L 302.223017 51.130186 
L 303.931725 51.130186 
L 304.501295 49.048078 
L 305.070864 51.130186 
L 305.640434 51.130186 
L 306.210003 55.503865 
L 308.488281 55.503865 
L 309.05785 57.805185 
L 309.627419 57.805185 
L 311.336127 51.130186 
L 311.905697 57.805185 
L 312.475266 60.190208 
L 313.044836 60.190208 
L 313.614405 62.665252 
L 317.031821 62.665252 
L 317.601391 65.237382 
L 318.17096 62.665252 
L 318.740529 67.914524 
L 323.297084 67.914524 
L 324.436223 73.620808 
L 326.144931 73.620808 
L 326.714501 76.671632 
L 329.562347 76.671632 
L 330.131917 73.620808 
L 331.840625 73.620808 
L 332.410194 65.237382 
L 332.979764 65.237382 
L 334.118903 60.190208 
L 335.258041 60.190208 
L 335.827611 62.665252 
L 336.39718 60.190208 
L 336.966749 60.190208 
L 337.536319 57.805185 
L 338.675458 57.805185 
L 339.245027 55.503865 
L 340.384166 55.503865 
L 340.953735 53.280572 
L 342.662443 53.280572 
L 343.232013 57.805185 
L 343.801582 57.805185 
L 344.371151 55.503865 
L 345.51029 55.503865 
L 346.079859 53.280572 
L 347.788568 53.280572 
L 348.927706 49.048078 
L 350.636414 49.048078 
L 351.205984 51.130186 
L 352.345123 51.130186 
L 352.914692 49.048078 
L 353.484261 45.072261 
L 354.053831 45.072261 
L 354.6234 43.171233 
L 355.192969 43.171233 
L 355.762539 41.323761 
L 356.332108 43.171233 
L 357.471247 39.526912 
L 358.040816 39.526912 
L 358.610386 37.777985 
L 359.749525 37.777985 
L 360.319094 39.526912 
L 362.027802 39.526912 
L 362.597371 37.777985 
L 363.73651 37.777985 
L 364.30608 34.414125 
L 365.445218 37.777985 
L 366.014788 37.777985 
L 366.584357 39.526912 
L 367.723496 39.526912 
L 368.293065 41.323761 
L 370.001773 41.323761 
L 370.571343 43.171233 
L 372.84962 43.171233 
L 373.41919 39.526912 
L 373.988759 39.526912 
L 374.558328 41.323761 
L 375.127898 39.526912 
L 375.127898 39.526912 
" style="fill:none;stroke:#00b0ff;stroke-linecap:round;stroke-width:1.5;"/>
   </g>
   <g id="line2d_17">
    <path clip-path="url(#pe1f97eb9dc)" d="M 113.695553 276.334125 
L 118.821678 276.334125 
L 119.391247 230.876916 
L 123.947802 230.876916 
L 124.517371 204.286153 
L 131.352204 204.286153 
L 131.921773 170.785753 
L 135.33919 170.785753 
L 135.908759 158.828943 
L 148.439285 158.828943 
L 149.008855 170.785753 
L 160.400242 170.785753 
L 160.969812 185.419706 
L 166.095936 185.419706 
L 166.665505 170.785753 
L 167.235075 170.785753 
L 167.804644 185.419706 
L 168.374214 185.419706 
L 168.943783 158.828943 
L 170.082922 158.828943 
L 170.652491 139.962497 
L 176.917754 139.962497 
L 177.487324 132.23818 
L 178.626462 132.23818 
L 179.196032 119.078017 
L 188.309142 119.078017 
L 188.878711 125.328544 
L 190.587419 125.328544 
L 191.156989 132.23818 
L 193.435266 132.23818 
L 194.004836 125.328544 
L 194.574405 125.328544 
L 195.143974 119.078017 
L 196.283113 119.078017 
L 196.852682 113.371734 
L 200.270099 113.371734 
L 200.839668 119.078017 
L 203.117946 119.078017 
L 203.687515 113.371734 
L 204.257084 113.371734 
L 204.826654 108.122462 
L 206.535362 108.122462 
L 207.104931 103.262395 
L 208.24407 103.262395 
L 208.813639 108.122462 
L 209.383209 103.262395 
L 213.370194 103.262395 
L 213.939764 98.737781 
L 214.509333 98.737781 
L 215.078903 94.505287 
L 218.496319 94.505287 
L 219.065888 98.737781 
L 219.635458 90.529471 
L 220.774596 90.529471 
L 221.344166 94.505287 
L 221.913735 94.505287 
L 222.483304 90.529471 
L 223.052874 90.529471 
L 224.192013 83.235194 
L 224.761582 83.235194 
L 225.331151 86.780971 
L 228.748568 86.780971 
L 229.318137 83.235194 
L 231.596414 83.235194 
L 232.165984 86.780971 
L 236.152969 86.780971 
L 236.722539 90.529471 
L 240.709525 90.529471 
L 241.279094 86.780971 
L 242.418233 86.780971 
L 242.987802 90.529471 
L 244.126941 90.529471 
L 244.69651 86.780971 
L 248.683496 86.780971 
L 249.822635 79.871334 
L 250.392204 79.871334 
L 251.531343 73.620808 
L 252.670481 79.871334 
L 253.240051 79.871334 
L 254.37919 86.780971 
L 254.948759 86.780971 
L 255.518328 90.529471 
L 256.087898 90.529471 
L 257.227036 83.235194 
L 257.796606 86.780971 
L 258.366175 83.235194 
L 258.935745 83.235194 
L 259.505314 86.780971 
L 260.074883 83.235194 
L 260.644453 86.780971 
L 264.061869 86.780971 
L 264.631438 83.235194 
L 265.201008 90.529471 
L 269.187993 90.529471 
L 269.757563 94.505287 
L 273.744548 94.505287 
L 274.314118 98.737781 
L 274.883687 98.737781 
L 275.453257 103.262395 
L 277.731534 103.262395 
L 278.870673 94.505287 
L 280.009812 94.505287 
L 280.579381 90.529471 
L 283.996797 90.529471 
L 284.566367 86.780971 
L 287.983783 86.780971 
L 288.553352 83.235194 
L 289.692491 90.529471 
L 291.970769 90.529471 
L 292.540338 83.235194 
L 294.818615 83.235194 
L 295.388185 86.780971 
L 297.096893 86.780971 
L 298.236032 94.505287 
L 299.37517 94.505287 
L 299.94474 90.529471 
L 300.514309 90.529471 
L 301.083879 83.235194 
L 301.653448 83.235194 
L 302.223017 79.871334 
L 303.931725 79.871334 
L 304.501295 83.235194 
L 305.640434 83.235194 
L 306.779572 90.529471 
L 307.349142 86.780971 
L 308.488281 86.780971 
L 309.05785 83.235194 
L 309.627419 86.780971 
L 321.588376 86.780971 
L 322.157946 90.529471 
L 323.866654 90.529471 
L 324.436223 86.780971 
L 325.005792 86.780971 
L 325.575362 79.871334 
L 327.853639 79.871334 
L 328.423209 73.620808 
L 328.992778 70.705622 
L 330.131917 70.705622 
L 330.701486 73.620808 
L 331.840625 73.620808 
L 332.979764 67.914524 
L 334.118903 67.914524 
L 334.688472 65.237382 
L 336.966749 65.237382 
L 337.536319 62.665252 
L 340.384166 62.665252 
L 340.953735 65.237382 
L 343.232013 65.237382 
L 344.371151 70.705622 
L 345.51029 70.705622 
L 346.649429 65.237382 
L 347.788568 70.705622 
L 348.358137 70.705622 
L 348.927706 67.914524 
L 350.066845 67.914524 
L 350.636414 70.705622 
L 351.205984 70.705622 
L 351.775553 73.620808 
L 353.484261 73.620808 
L 354.053831 70.705622 
L 357.471247 70.705622 
L 358.040816 73.620808 
L 358.610386 70.705622 
L 363.73651 70.705622 
L 364.30608 67.914524 
L 364.875649 67.914524 
L 365.445218 65.237382 
L 366.584357 65.237382 
L 367.153926 62.665252 
L 368.293065 67.914524 
L 369.432204 67.914524 
L 370.001773 70.705622 
L 372.280051 70.705622 
L 372.84962 73.620808 
L 373.41919 70.705622 
L 374.558328 70.705622 
L 375.127898 67.914524 
L 375.127898 67.914524 
" style="fill:none;stroke:#29ffce;stroke-linecap:round;stroke-width:1.5;"/>
   </g>
   <g id="line2d_18">
    <path clip-path="url(#pe1f97eb9dc)" d="M 72.686558 276.334125 
L 82.369237 276.334125 
L 82.938807 230.876916 
L 88.064931 230.876916 
L 88.634501 204.286153 
L 111.417276 204.286153 
L 111.986845 185.419706 
L 112.556414 170.785753 
L 113.125984 170.785753 
L 113.695553 158.828943 
L 119.391247 158.828943 
L 119.960816 148.719604 
L 126.795649 148.719604 
L 127.365218 139.962497 
L 128.504357 139.962497 
L 129.073926 148.719604 
L 137.047898 148.719604 
L 137.617467 132.23818 
L 139.326175 132.23818 
L 139.895745 139.962497 
L 142.174022 139.962497 
L 142.743592 132.23818 
L 143.313161 132.23818 
L 143.88273 139.962497 
L 145.591438 139.962497 
L 146.730577 125.328544 
L 149.578424 125.328544 
L 150.147993 119.078017 
L 151.287132 119.078017 
L 151.856702 113.371734 
L 160.400242 113.371734 
L 160.969812 119.078017 
L 165.526367 119.078017 
L 166.095936 113.371734 
L 168.943783 113.371734 
L 169.513352 119.078017 
L 171.22206 119.078017 
L 171.79163 113.371734 
L 178.626462 113.371734 
L 179.196032 119.078017 
L 179.765601 119.078017 
L 180.33517 125.328544 
L 180.90474 119.078017 
L 182.613448 119.078017 
L 183.183017 113.371734 
L 184.322156 113.371734 
L 184.891725 108.122462 
L 185.461295 108.122462 
L 186.030864 113.371734 
L 186.600434 113.371734 
L 187.170003 108.122462 
L 190.01785 108.122462 
L 190.587419 113.371734 
L 204.257084 113.371734 
L 204.826654 108.122462 
L 208.24407 108.122462 
L 208.813639 103.262395 
L 209.383209 103.262395 
L 209.952778 108.122462 
L 213.939764 108.122462 
L 214.509333 103.262395 
L 215.648472 103.262395 
L 216.787611 113.371734 
L 217.35718 113.371734 
L 218.496319 103.262395 
L 219.065888 98.737781 
L 219.635458 98.737781 
L 220.774596 108.122462 
L 222.483304 108.122462 
L 223.052874 113.371734 
L 224.761582 113.371734 
L 225.331151 108.122462 
L 227.039859 108.122462 
L 227.609429 113.371734 
L 231.596414 113.371734 
L 232.165984 119.078017 
L 232.735553 113.371734 
L 233.305123 119.078017 
L 233.874692 113.371734 
L 234.444261 119.078017 
L 244.69651 119.078017 
L 245.26608 125.328544 
L 248.113926 125.328544 
L 248.683496 132.23818 
L 251.531343 132.23818 
L 252.100912 125.328544 
L 252.670481 132.23818 
L 253.80962 132.23818 
L 254.37919 125.328544 
L 254.948759 125.328544 
L 255.518328 119.078017 
L 256.657467 119.078017 
L 257.227036 103.262395 
L 259.505314 103.262395 
L 260.074883 108.122462 
L 263.4923 108.122462 
L 264.061869 103.262395 
L 264.631438 108.122462 
L 265.201008 108.122462 
L 265.770577 113.371734 
L 266.340147 113.371734 
L 267.479285 125.328544 
L 270.896702 125.328544 
L 271.466271 119.078017 
L 272.03584 119.078017 
L 272.60541 125.328544 
L 274.883687 125.328544 
L 275.453257 119.078017 
L 277.161965 119.078017 
L 278.301103 108.122462 
L 278.870673 113.371734 
L 282.288089 113.371734 
L 282.857658 119.078017 
L 301.653448 119.078017 
L 302.223017 108.122462 
L 303.362156 108.122462 
L 303.931725 103.262395 
L 310.196989 103.262395 
L 310.766558 108.122462 
L 312.475266 108.122462 
L 313.044836 119.078017 
L 315.323113 119.078017 
L 316.462252 108.122462 
L 317.601391 108.122462 
L 318.17096 103.262395 
L 332.410194 103.262395 
L 332.979764 113.371734 
L 338.105888 113.371734 
L 338.675458 108.122462 
L 339.245027 113.371734 
L 339.814596 113.371734 
L 340.953735 103.262395 
L 342.092874 113.371734 
L 342.662443 125.328544 
L 343.801582 125.328544 
L 344.371151 119.078017 
L 344.940721 125.328544 
L 346.649429 125.328544 
L 347.218998 132.23818 
L 348.358137 132.23818 
L 348.927706 125.328544 
L 349.497276 125.328544 
L 350.066845 132.23818 
L 350.636414 132.23818 
L 351.205984 139.962497 
L 354.6234 139.962497 
L 355.192969 132.23818 
L 356.332108 132.23818 
L 356.901678 125.328544 
L 358.610386 125.328544 
L 359.179955 119.078017 
L 359.749525 119.078017 
L 360.319094 113.371734 
L 363.166941 113.371734 
L 363.73651 119.078017 
L 365.445218 119.078017 
L 366.014788 125.328544 
L 375.127898 125.328544 
L 375.127898 125.328544 
" style="fill:none;stroke:#7dff7a;stroke-linecap:round;stroke-width:1.5;"/>
   </g>
   <g id="line2d_19">
    <path clip-path="url(#pe1f97eb9dc)" d="M 80.660529 276.334125 
L 88.634501 276.334125 
L 89.20407 230.876916 
L 94.899764 230.876916 
L 95.469333 204.286153 
L 99.456319 204.286153 
L 100.025888 230.876916 
L 109.708568 230.876916 
L 110.278137 276.334125 
L 118.821678 276.334125 
L 119.391247 204.286153 
L 123.378233 204.286153 
L 123.947802 185.419706 
L 124.517371 185.419706 
L 125.086941 204.286153 
L 126.795649 204.286153 
L 127.365218 185.419706 
L 140.465314 185.419706 
L 141.034883 170.785753 
L 141.604453 170.785753 
L 142.174022 185.419706 
L 142.743592 185.419706 
L 143.313161 170.785753 
L 146.161008 170.785753 
L 146.730577 185.419706 
L 148.439285 185.419706 
L 149.008855 170.785753 
L 152.99584 170.785753 
L 153.56541 158.828943 
L 155.843687 158.828943 
L 156.413257 148.719604 
L 160.400242 148.719604 
L 160.969812 139.962497 
L 163.817658 139.962497 
L 164.387228 125.328544 
L 164.956797 119.078017 
L 170.082922 119.078017 
L 170.652491 113.371734 
L 172.930769 113.371734 
L 173.500338 108.122462 
L 174.069907 108.122462 
L 174.639477 113.371734 
L 177.487324 113.371734 
L 178.056893 119.078017 
L 182.613448 119.078017 
L 183.183017 113.371734 
L 184.322156 113.371734 
L 184.891725 103.262395 
L 186.030864 94.505287 
L 186.600434 98.737781 
L 187.170003 94.505287 
L 190.587419 94.505287 
L 191.156989 98.737781 
L 192.296127 98.737781 
L 192.865697 103.262395 
L 194.004836 103.262395 
L 194.574405 108.122462 
L 195.143974 103.262395 
L 195.713544 108.122462 
L 196.283113 108.122462 
L 196.852682 113.371734 
L 197.422252 113.371734 
L 197.991821 108.122462 
L 198.561391 113.371734 
L 203.687515 113.371734 
L 204.257084 108.122462 
L 205.396223 108.122462 
L 205.965792 103.262395 
L 207.104931 103.262395 
L 207.674501 98.737781 
L 209.383209 98.737781 
L 209.952778 103.262395 
L 212.231056 103.262395 
L 212.800625 108.122462 
L 217.35718 108.122462 
L 217.926749 113.371734 
L 218.496319 108.122462 
L 223.052874 108.122462 
L 223.622443 113.371734 
L 227.609429 113.371734 
L 228.178998 108.122462 
L 229.887706 108.122462 
L 230.457276 113.371734 
L 233.305123 113.371734 
L 233.874692 108.122462 
L 235.5834 108.122462 
L 236.722539 98.737781 
L 237.861678 98.737781 
L 239.000816 108.122462 
L 239.570386 108.122462 
L 240.139955 103.262395 
L 241.279094 103.262395 
L 241.848663 98.737781 
L 245.835649 98.737781 
L 246.405218 94.505287 
L 247.544357 103.262395 
L 248.683496 103.262395 
L 249.253065 98.737781 
L 250.392204 98.737781 
L 250.961773 94.505287 
L 251.531343 94.505287 
L 252.100912 98.737781 
L 254.37919 98.737781 
L 254.948759 103.262395 
L 260.644453 103.262395 
L 261.783592 94.505287 
L 262.92273 94.505287 
L 263.4923 98.737781 
L 264.061869 98.737781 
L 264.631438 94.505287 
L 265.201008 98.737781 
L 266.340147 98.737781 
L 266.909716 94.505287 
L 267.479285 94.505287 
L 268.048855 98.737781 
L 269.187993 98.737781 
L 269.757563 103.262395 
L 270.327132 98.737781 
L 270.896702 103.262395 
L 272.03584 103.262395 
L 272.60541 98.737781 
L 273.744548 108.122462 
L 275.453257 108.122462 
L 276.592395 98.737781 
L 278.870673 98.737781 
L 279.440242 94.505287 
L 282.857658 94.505287 
L 283.427228 90.529471 
L 283.996797 94.505287 
L 286.844644 94.505287 
L 287.983783 103.262395 
L 288.553352 103.262395 
L 289.122922 108.122462 
L 289.692491 103.262395 
L 290.26206 103.262395 
L 290.83163 98.737781 
L 291.401199 98.737781 
L 293.109907 86.780971 
L 293.679477 83.235194 
L 294.818615 83.235194 
L 295.388185 90.529471 
L 295.957754 90.529471 
L 296.527324 86.780971 
L 297.096893 90.529471 
L 298.805601 90.529471 
L 299.37517 86.780971 
L 301.083879 86.780971 
L 301.653448 90.529471 
L 302.223017 90.529471 
L 302.792587 86.780971 
L 303.362156 86.780971 
L 303.931725 83.235194 
L 305.070864 83.235194 
L 305.640434 79.871334 
L 306.210003 83.235194 
L 308.488281 83.235194 
L 309.05785 79.871334 
L 311.336127 79.871334 
L 311.905697 83.235194 
L 312.475266 83.235194 
L 313.044836 86.780971 
L 314.183974 86.780971 
L 314.753544 90.529471 
L 315.323113 86.780971 
L 315.892682 86.780971 
L 316.462252 83.235194 
L 317.031821 83.235194 
L 317.601391 86.780971 
L 318.740529 86.780971 
L 319.310099 83.235194 
L 320.449237 83.235194 
L 321.018807 79.871334 
L 322.157946 79.871334 
L 322.727515 83.235194 
L 323.297084 79.871334 
L 323.866654 79.871334 
L 325.005792 86.780971 
L 325.575362 86.780971 
L 326.144931 83.235194 
L 327.28407 83.235194 
L 328.423209 76.671632 
L 329.562347 76.671632 
L 330.131917 73.620808 
L 332.410194 73.620808 
L 332.979764 76.671632 
L 333.549333 73.620808 
L 335.827611 73.620808 
L 336.39718 70.705622 
L 336.966749 70.705622 
L 337.536319 65.237382 
L 338.105888 62.665252 
L 339.245027 62.665252 
L 339.814596 60.190208 
L 340.953735 65.237382 
L 342.092874 65.237382 
L 342.662443 62.665252 
L 343.232013 65.237382 
L 344.371151 60.190208 
L 346.079859 60.190208 
L 346.649429 62.665252 
L 347.788568 57.805185 
L 348.358137 60.190208 
L 348.927706 60.190208 
L 349.497276 62.665252 
L 351.775553 62.665252 
L 352.345123 65.237382 
L 352.914692 62.665252 
L 354.6234 62.665252 
L 355.192969 60.190208 
L 356.332108 60.190208 
L 356.901678 57.805185 
L 357.471247 57.805185 
L 358.040816 55.503865 
L 358.610386 57.805185 
L 359.179955 55.503865 
L 360.319094 55.503865 
L 360.888663 60.190208 
L 361.458233 60.190208 
L 362.027802 57.805185 
L 362.597371 60.190208 
L 363.166941 57.805185 
L 367.153926 57.805185 
L 367.723496 60.190208 
L 369.432204 60.190208 
L 370.001773 57.805185 
L 371.140912 57.805185 
L 371.710481 53.280572 
L 372.280051 51.130186 
L 372.84962 51.130186 
L 373.41919 53.280572 
L 373.988759 53.280572 
L 375.127898 49.048078 
L 375.127898 49.048078 
" style="fill:none;stroke:#ceff29;stroke-linecap:round;stroke-width:1.5;"/>
   </g>
   <g id="line2d_20">
    <path clip-path="url(#pe1f97eb9dc)" d="M 73.256127 276.334125 
L 84.647515 276.334125 
M 88.064931 276.334125 
L 90.912778 276.334125 
L 91.482347 230.876916 
L 92.051917 204.286153 
L 107.999859 204.286153 
L 108.569429 170.785753 
L 113.125984 170.785753 
L 113.695553 158.828943 
L 114.834692 158.828943 
L 115.404261 170.785753 
L 116.5434 170.785753 
L 117.112969 158.828943 
L 121.099955 158.828943 
L 121.669525 148.719604 
L 122.239094 148.719604 
L 122.808663 139.962497 
L 124.517371 139.962497 
L 125.086941 132.23818 
L 126.22608 132.23818 
L 126.795649 139.962497 
L 127.365218 132.23818 
L 128.504357 132.23818 
L 129.643496 119.078017 
L 132.491343 119.078017 
L 133.630481 132.23818 
L 134.200051 132.23818 
L 134.76962 139.962497 
L 140.465314 139.962497 
L 141.034883 132.23818 
L 144.4523 132.23818 
L 145.021869 139.962497 
L 146.730577 139.962497 
L 147.300147 125.328544 
L 147.869716 125.328544 
L 148.439285 132.23818 
L 150.147993 132.23818 
L 150.717563 125.328544 
L 152.99584 125.328544 
L 153.56541 119.078017 
L 160.400242 119.078017 
L 160.969812 125.328544 
L 164.387228 125.328544 
L 164.956797 119.078017 
L 165.526367 119.078017 
L 166.095936 113.371734 
L 167.235075 113.371734 
L 167.804644 108.122462 
L 168.374214 113.371734 
L 174.069907 113.371734 
L 174.639477 108.122462 
L 177.487324 108.122462 
L 178.056893 103.262395 
L 178.626462 103.262395 
L 179.196032 98.737781 
L 181.474309 98.737781 
L 182.043879 103.262395 
L 183.752587 103.262395 
L 184.322156 98.737781 
L 184.891725 103.262395 
L 187.739572 103.262395 
L 188.309142 98.737781 
L 190.01785 98.737781 
L 190.587419 94.505287 
L 195.713544 94.505287 
L 196.283113 98.737781 
L 197.422252 98.737781 
L 197.991821 94.505287 
L 198.561391 94.505287 
L 199.13096 90.529471 
L 200.270099 90.529471 
L 200.839668 94.505287 
L 202.548376 94.505287 
L 203.117946 103.262395 
L 204.826654 103.262395 
L 205.396223 108.122462 
L 206.535362 108.122462 
L 207.104931 103.262395 
L 215.648472 103.262395 
L 216.218041 98.737781 
L 216.787611 103.262395 
L 218.496319 103.262395 
L 219.635458 113.371734 
L 221.344166 113.371734 
L 221.913735 119.078017 
L 225.900721 119.078017 
L 226.47029 125.328544 
L 231.596414 125.328544 
L 232.165984 119.078017 
L 233.305123 119.078017 
L 233.874692 125.328544 
L 236.722539 125.328544 
L 237.292108 119.078017 
L 239.000816 119.078017 
L 239.570386 125.328544 
L 245.26608 125.328544 
L 245.835649 132.23818 
L 248.113926 132.23818 
L 248.683496 125.328544 
L 249.253065 125.328544 
L 249.822635 119.078017 
L 251.531343 119.078017 
L 252.100912 132.23818 
L 262.353161 132.23818 
L 262.92273 139.962497 
L 264.631438 139.962497 
L 265.201008 132.23818 
L 266.340147 132.23818 
L 266.909716 139.962497 
L 267.479285 139.962497 
L 268.048855 125.328544 
L 268.618424 119.078017 
L 269.757563 132.23818 
L 277.731534 132.23818 
L 278.301103 125.328544 
L 279.440242 125.328544 
L 280.009812 119.078017 
L 281.14895 119.078017 
L 281.71852 113.371734 
L 282.857658 113.371734 
L 283.427228 103.262395 
L 283.996797 108.122462 
L 284.566367 103.262395 
L 289.692491 103.262395 
L 290.26206 98.737781 
L 290.83163 98.737781 
L 291.401199 103.262395 
L 291.970769 98.737781 
L 292.540338 98.737781 
L 293.109907 103.262395 
L 295.388185 103.262395 
L 295.957754 98.737781 
L 297.096893 98.737781 
L 297.666462 94.505287 
L 299.37517 94.505287 
L 299.94474 90.529471 
L 301.653448 90.529471 
L 302.223017 94.505287 
L 302.792587 94.505287 
L 303.362156 98.737781 
L 305.640434 98.737781 
L 306.210003 108.122462 
L 308.488281 108.122462 
L 309.05785 103.262395 
L 310.766558 103.262395 
L 311.336127 98.737781 
L 311.905697 98.737781 
L 312.475266 108.122462 
L 323.297084 108.122462 
L 323.866654 113.371734 
L 339.245027 113.371734 
L 339.814596 119.078017 
L 344.940721 119.078017 
L 345.51029 125.328544 
L 348.927706 125.328544 
L 349.497276 119.078017 
L 350.066845 132.23818 
L 351.205984 132.23818 
L 351.775553 139.962497 
L 354.053831 139.962497 
L 354.6234 148.719604 
L 355.192969 148.719604 
L 355.762539 158.828943 
L 356.332108 158.828943 
L 356.901678 170.785753 
L 358.610386 170.785753 
L 359.179955 158.828943 
L 364.875649 158.828943 
L 365.445218 148.719604 
L 368.293065 148.719604 
L 368.862635 139.962497 
L 370.571343 139.962497 
L 371.140912 132.23818 
L 371.710481 132.23818 
L 372.84962 119.078017 
L 375.127898 119.078017 
L 375.127898 119.078017 
" style="fill:none;stroke:#ffc400;stroke-linecap:round;stroke-width:1.5;"/>
   </g>
   <g id="line2d_21">
    <path clip-path="url(#pe1f97eb9dc)" d="M 90.343209 276.334125 
L 90.912778 230.876916 
L 98.31718 230.876916 
L 98.886749 276.334125 
L 114.834692 276.334125 
L 115.404261 230.876916 
L 125.086941 230.876916 
L 125.65651 204.286153 
L 126.22608 170.785753 
L 129.073926 170.785753 
L 129.643496 185.419706 
L 131.352204 185.419706 
L 131.921773 170.785753 
L 136.478328 170.785753 
L 137.047898 185.419706 
L 137.617467 158.828943 
L 140.465314 158.828943 
L 141.034883 170.785753 
L 141.604453 185.419706 
L 144.4523 185.419706 
L 145.021869 204.286153 
L 149.578424 204.286153 
L 150.147993 185.419706 
L 151.287132 185.419706 
L 151.856702 170.785753 
L 152.99584 170.785753 
L 153.56541 158.828943 
L 155.843687 158.828943 
L 156.413257 148.719604 
L 159.261103 148.719604 
L 159.830673 158.828943 
L 169.513352 158.828943 
L 170.082922 148.719604 
L 174.069907 148.719604 
L 174.639477 158.828943 
L 175.209046 148.719604 
L 176.917754 148.719604 
L 177.487324 139.962497 
L 189.448281 139.962497 
L 190.01785 132.23818 
L 200.839668 132.23818 
L 201.409237 125.328544 
L 203.687515 125.328544 
L 204.826654 113.371734 
L 205.396223 108.122462 
L 206.535362 108.122462 
L 207.104931 103.262395 
L 207.674501 94.505287 
L 208.24407 98.737781 
L 208.813639 94.505287 
L 209.383209 94.505287 
L 209.952778 98.737781 
L 211.091917 98.737781 
L 212.231056 108.122462 
L 213.370194 108.122462 
L 214.509333 119.078017 
L 215.078903 119.078017 
L 215.648472 125.328544 
L 219.065888 125.328544 
L 219.635458 139.962497 
L 221.344166 139.962497 
L 222.483304 125.328544 
L 223.052874 125.328544 
L 223.622443 113.371734 
L 224.761582 113.371734 
L 225.331151 108.122462 
L 225.900721 113.371734 
L 227.039859 103.262395 
L 227.609429 103.262395 
L 228.178998 98.737781 
L 228.748568 98.737781 
L 229.318137 103.262395 
L 236.722539 103.262395 
L 237.292108 108.122462 
L 237.861678 108.122462 
L 238.431247 103.262395 
L 240.139955 103.262395 
L 240.709525 108.122462 
L 241.848663 98.737781 
L 242.418233 98.737781 
L 242.987802 94.505287 
L 245.835649 94.505287 
L 246.405218 98.737781 
L 246.974788 94.505287 
L 249.253065 94.505287 
L 249.822635 90.529471 
L 250.392204 94.505287 
L 250.961773 90.529471 
L 251.531343 90.529471 
L 252.100912 86.780971 
L 254.37919 86.780971 
L 255.518328 79.871334 
L 256.087898 83.235194 
L 256.657467 79.871334 
L 257.227036 79.871334 
L 257.796606 76.671632 
L 258.935745 83.235194 
L 260.074883 83.235194 
L 260.644453 79.871334 
L 261.214022 79.871334 
L 261.783592 76.671632 
L 262.353161 70.705622 
L 262.92273 73.620808 
L 265.201008 73.620808 
L 266.340147 67.914524 
L 266.909716 70.705622 
L 269.187993 70.705622 
L 269.757563 67.914524 
L 271.466271 67.914524 
L 272.03584 70.705622 
L 272.60541 65.237382 
L 273.744548 60.190208 
L 274.314118 60.190208 
L 274.883687 62.665252 
L 276.022826 62.665252 
L 277.731534 55.503865 
L 278.301103 53.280572 
L 278.870673 53.280572 
L 279.440242 51.130186 
L 280.009812 51.130186 
L 280.579381 57.805185 
L 281.14895 55.503865 
L 281.71852 57.805185 
L 282.288089 57.805185 
L 282.857658 53.280572 
L 283.427228 53.280572 
L 283.996797 55.503865 
L 285.135936 51.130186 
L 285.705505 51.130186 
L 286.275075 53.280572 
L 287.983783 53.280572 
L 288.553352 55.503865 
L 290.83163 55.503865 
L 291.970769 60.190208 
L 292.540338 60.190208 
L 293.109907 62.665252 
L 293.679477 60.190208 
L 294.249046 62.665252 
L 295.957754 62.665252 
L 296.527324 65.237382 
L 297.666462 65.237382 
L 298.236032 67.914524 
L 298.805601 65.237382 
L 300.514309 65.237382 
L 301.083879 70.705622 
L 301.653448 70.705622 
L 302.223017 67.914524 
L 303.362156 67.914524 
L 303.931725 70.705622 
L 306.779572 70.705622 
L 307.349142 67.914524 
L 307.918711 67.914524 
L 308.488281 65.237382 
L 309.05785 70.705622 
L 309.627419 73.620808 
L 310.196989 73.620808 
L 310.766558 70.705622 
L 312.475266 70.705622 
L 313.044836 67.914524 
L 314.753544 67.914524 
L 315.323113 70.705622 
L 315.892682 67.914524 
L 316.462252 70.705622 
L 317.601391 70.705622 
L 318.740529 65.237382 
L 319.310099 65.237382 
L 321.018807 73.620808 
L 321.588376 73.620808 
L 322.727515 67.914524 
L 323.297084 67.914524 
L 323.866654 70.705622 
L 325.005792 70.705622 
L 325.575362 67.914524 
L 327.853639 67.914524 
L 328.423209 65.237382 
L 330.131917 65.237382 
L 330.701486 62.665252 
L 331.840625 62.665252 
L 332.410194 65.237382 
L 332.979764 65.237382 
L 333.549333 67.914524 
L 334.118903 65.237382 
L 336.966749 65.237382 
L 337.536319 62.665252 
L 340.384166 62.665252 
L 340.953735 65.237382 
L 342.092874 65.237382 
L 342.662443 67.914524 
L 343.232013 65.237382 
L 344.371151 70.705622 
L 344.940721 65.237382 
L 346.649429 65.237382 
L 347.218998 67.914524 
L 349.497276 67.914524 
L 350.636414 73.620808 
L 352.345123 73.620808 
L 352.914692 70.705622 
L 354.053831 70.705622 
L 354.6234 73.620808 
L 356.901678 73.620808 
L 358.040816 79.871334 
L 359.179955 79.871334 
L 359.749525 73.620808 
L 361.458233 73.620808 
L 362.597371 67.914524 
L 364.875649 67.914524 
L 365.445218 65.237382 
L 370.001773 65.237382 
L 370.571343 67.914524 
L 371.140912 65.237382 
L 371.710481 67.914524 
L 372.280051 67.914524 
L 372.84962 65.237382 
L 373.41919 60.190208 
L 373.988759 57.805185 
L 375.127898 57.805185 
L 375.127898 57.805185 
" style="fill:none;stroke:#ff6800;stroke-linecap:round;stroke-width:1.5;"/>
   </g>
   <g id="line2d_22">
    <path clip-path="url(#pe1f97eb9dc)" d="M 80.09096 276.334125 
L 96.038903 276.334125 
L 96.608472 230.876916 
L 111.986845 230.876916 
L 112.556414 276.334125 
L 113.695553 276.334125 
L 114.265123 230.876916 
L 124.517371 230.876916 
L 125.086941 204.286153 
L 139.326175 204.286153 
L 139.895745 185.419706 
L 147.300147 185.419706 
L 147.869716 170.785753 
L 158.121965 170.785753 
L 159.261103 148.719604 
L 159.830673 139.962497 
L 166.095936 139.962497 
L 166.665505 132.23818 
L 176.348185 132.23818 
L 176.917754 125.328544 
L 178.626462 125.328544 
L 179.196032 119.078017 
L 180.33517 119.078017 
L 181.474309 108.122462 
L 182.043879 113.371734 
L 183.183017 113.371734 
L 183.752587 108.122462 
L 186.030864 108.122462 
L 186.600434 103.262395 
L 187.739572 113.371734 
L 189.448281 113.371734 
L 190.01785 119.078017 
L 198.561391 119.078017 
L 199.13096 113.371734 
L 199.700529 113.371734 
L 200.839668 103.262395 
L 204.257084 103.262395 
L 204.826654 108.122462 
L 208.813639 108.122462 
L 209.383209 113.371734 
L 211.091917 113.371734 
L 211.661486 119.078017 
L 214.509333 119.078017 
L 215.078903 113.371734 
L 221.913735 113.371734 
L 222.483304 108.122462 
L 224.761582 108.122462 
L 225.331151 103.262395 
L 226.47029 103.262395 
L 227.039859 98.737781 
L 228.178998 98.737781 
L 229.318137 90.529471 
L 230.457276 90.529471 
L 231.026845 86.780971 
L 233.305123 86.780971 
L 233.874692 83.235194 
L 235.013831 83.235194 
L 235.5834 90.529471 
L 236.152969 90.529471 
L 237.292108 83.235194 
L 240.709525 83.235194 
L 241.279094 79.871334 
L 244.126941 79.871334 
L 244.69651 76.671632 
L 246.974788 76.671632 
L 247.544357 73.620808 
L 248.113926 76.671632 
L 248.683496 73.620808 
L 249.253065 76.671632 
L 250.392204 76.671632 
L 250.961773 83.235194 
L 251.531343 83.235194 
L 252.100912 76.671632 
L 257.796606 76.671632 
L 258.366175 70.705622 
L 258.935745 67.914524 
L 261.783592 67.914524 
L 262.353161 70.705622 
L 266.340147 70.705622 
L 266.909716 73.620808 
L 269.187993 73.620808 
L 269.757563 76.671632 
L 270.327132 76.671632 
L 270.896702 73.620808 
L 272.60541 73.620808 
L 273.174979 70.705622 
L 273.744548 70.705622 
L 274.883687 76.671632 
L 276.022826 76.671632 
L 276.592395 79.871334 
L 277.161965 76.671632 
L 282.288089 76.671632 
L 282.857658 73.620808 
L 283.427228 76.671632 
L 283.996797 76.671632 
L 285.135936 70.705622 
L 285.705505 70.705622 
L 286.275075 67.914524 
L 286.844644 67.914524 
L 287.983783 73.620808 
L 288.553352 73.620808 
L 289.122922 70.705622 
L 289.692491 73.620808 
L 290.26206 73.620808 
L 290.83163 76.671632 
L 292.540338 76.671632 
L 293.679477 70.705622 
L 295.388185 70.705622 
L 295.957754 73.620808 
L 297.096893 73.620808 
L 297.666462 70.705622 
L 300.514309 70.705622 
L 301.083879 67.914524 
L 303.931725 67.914524 
L 304.501295 62.665252 
L 307.349142 62.665252 
L 307.918711 60.190208 
L 310.196989 60.190208 
L 310.766558 57.805185 
L 311.336127 57.805185 
L 311.905697 60.190208 
L 312.475266 60.190208 
L 313.044836 57.805185 
L 314.753544 57.805185 
L 315.323113 55.503865 
L 316.462252 60.190208 
L 317.601391 60.190208 
L 318.17096 62.665252 
L 318.740529 62.665252 
L 319.310099 60.190208 
L 319.879668 60.190208 
L 321.018807 55.503865 
L 321.588376 55.503865 
L 322.157946 60.190208 
L 323.297084 60.190208 
L 323.866654 62.665252 
L 327.28407 62.665252 
L 327.853639 60.190208 
L 328.992778 60.190208 
L 329.562347 62.665252 
L 330.131917 62.665252 
L 330.701486 60.190208 
L 339.245027 60.190208 
L 339.814596 57.805185 
L 340.384166 57.805185 
L 340.953735 55.503865 
L 341.523304 55.503865 
L 342.092874 53.280572 
L 343.232013 53.280572 
L 343.801582 57.805185 
L 347.788568 57.805185 
L 348.358137 55.503865 
L 348.927706 57.805185 
L 349.497276 62.665252 
L 350.066845 60.190208 
L 350.636414 60.190208 
L 351.205984 57.805185 
L 352.345123 57.805185 
L 352.914692 55.503865 
L 354.053831 55.503865 
L 355.762539 49.048078 
L 356.332108 49.048078 
L 356.901678 47.030045 
L 357.471247 49.048078 
L 358.040816 49.048078 
L 358.610386 47.030045 
L 359.179955 47.030045 
L 360.319094 51.130186 
L 360.888663 49.048078 
L 362.597371 49.048078 
L 363.166941 47.030045 
L 364.30608 51.130186 
L 367.723496 51.130186 
L 368.293065 57.805185 
L 370.001773 57.805185 
L 370.571343 62.665252 
L 371.140912 65.237382 
L 373.41919 65.237382 
L 373.988759 60.190208 
L 375.127898 60.190208 
L 375.127898 60.190208 
" style="fill:none;stroke:#f10800;stroke-linecap:round;stroke-width:1.5;"/>
   </g>
   <g id="patch_3">
    <path d="M 34.240625 288.430125 
L 34.240625 22.318125 
" style="fill:none;stroke:#cccccc;stroke-linecap:square;stroke-linejoin:miter;stroke-width:0.8;"/>
   </g>
   <g id="patch_4">
    <path d="M 391.360625 288.430125 
L 391.360625 22.318125 
" style="fill:none;stroke:#cccccc;stroke-linecap:square;stroke-linejoin:miter;stroke-width:0.8;"/>
   </g>
   <g id="patch_5">
    <path d="M 34.240625 288.430125 
L 391.360625 288.430125 
" style="fill:none;stroke:#cccccc;stroke-linecap:square;stroke-linejoin:miter;stroke-width:0.8;"/>
   </g>
   <g id="patch_6">
    <path d="M 34.240625 22.318125 
L 391.360625 22.318125 
" style="fill:none;stroke:#cccccc;stroke-linecap:square;stroke-linejoin:miter;stroke-width:0.8;"/>
   </g>
   <g id="text_15">
    <!-- IgG -->
    <defs>
     <path d="M 9.8125 72.90625 
L 19.671875 72.90625 
L 19.671875 0 
L 9.8125 0 
z
" id="DejaVuSans-73"/>
     <path d="M 59.515625 10.40625 
L 59.515625 29.984375 
L 43.40625 29.984375 
L 43.40625 38.09375 
L 69.28125 38.09375 
L 69.28125 6.78125 
Q 63.578125 2.734375 56.6875 0.65625 
Q 49.8125 -1.421875 42 -1.421875 
Q 24.90625 -1.421875 15.25 8.5625 
Q 5.609375 18.5625 5.609375 36.375 
Q 5.609375 54.25 15.25 64.234375 
Q 24.90625 74.21875 42 74.21875 
Q 49.125 74.21875 55.546875 72.453125 
Q 61.96875 70.703125 67.390625 67.28125 
L 67.390625 56.78125 
Q 61.921875 61.421875 55.765625 63.765625 
Q 49.609375 66.109375 42.828125 66.109375 
Q 29.4375 66.109375 22.71875 58.640625 
Q 16.015625 51.171875 16.015625 36.375 
Q 16.015625 21.625 22.71875 14.15625 
Q 29.4375 6.6875 42.828125 6.6875 
Q 48.046875 6.6875 52.140625 7.59375 
Q 56.25 8.5 59.515625 10.40625 
z
" id="DejaVuSans-71"/>
    </defs>
    <g style="fill:#262626;" transform="translate(202.5725 16.318125)scale(0.12 -0.12)">
     <use xlink:href="#DejaVuSans-73"/>
     <use x="29.492188" xlink:href="#DejaVuSans-103"/>
     <use x="92.96875" xlink:href="#DejaVuSans-71"/>
    </g>
   </g>
  </g>
 </g>
 <defs>
  <clipPath id="pe1f97eb9dc">
   <rect height="266.112" width="357.12" x="34.240625" y="22.318125"/>
  </clipPath>
 </defs>
</svg>
