<?xml version="1.0" encoding="utf-8" standalone="no"?>
<!DOCTYPE svg PUBLIC "-//W3C//DTD SVG 1.1//EN"
  "http://www.w3.org/Graphics/SVG/1.1/DTD/svg11.dtd">
<!-- Created with matplotlib (https://matplotlib.org/) -->
<svg height="325.986375pt" version="1.1" viewBox="0 0 424.010625 325.986375" width="424.010625pt" xmlns="http://www.w3.org/2000/svg" xmlns:xlink="http://www.w3.org/1999/xlink">
 <defs>
  <style type="text/css">
*{stroke-linecap:butt;stroke-linejoin:round;white-space:pre;}
  </style>
 </defs>
 <g id="figure_1">
  <g id="patch_1">
   <path d="M 0 325.986375 
L 424.010625 325.986375 
L 424.010625 0 
L 0 0 
z
" style="fill:#ffffff;"/>
  </g>
  <g id="axes_1">
   <g id="patch_2">
    <path d="M 59.690625 288.430125 
L 416.810625 288.430125 
L 416.810625 22.318125 
L 59.690625 22.318125 
z
" style="fill:#ffffff;"/>
   </g>
   <g id="matplotlib.axis_1">
    <g id="xtick_1">
     <g id="line2d_1">
      <path clip-path="url(#p358d260417)" d="M 75.923352 288.430125 
L 75.923352 22.318125 
" style="fill:none;stroke:#cccccc;stroke-linecap:round;stroke-width:0.8;"/>
     </g>
     <g id="text_1">
      <!-- 0 -->
      <defs>
       <path d="M 31.78125 66.40625 
Q 24.171875 66.40625 20.328125 58.90625 
Q 16.5 51.421875 16.5 36.375 
Q 16.5 21.390625 20.328125 13.890625 
Q 24.171875 6.390625 31.78125 6.390625 
Q 39.453125 6.390625 43.28125 13.890625 
Q 47.125 21.390625 47.125 36.375 
Q 47.125 51.421875 43.28125 58.90625 
Q 39.453125 66.40625 31.78125 66.40625 
z
M 31.78125 74.21875 
Q 44.046875 74.21875 50.515625 64.515625 
Q 56.984375 54.828125 56.984375 36.375 
Q 56.984375 17.96875 50.515625 8.265625 
Q 44.046875 -1.421875 31.78125 -1.421875 
Q 19.53125 -1.421875 13.0625 8.265625 
Q 6.59375 17.96875 6.59375 36.375 
Q 6.59375 54.828125 13.0625 64.515625 
Q 19.53125 74.21875 31.78125 74.21875 
z
" id="DejaVuSans-48"/>
      </defs>
      <g style="fill:#262626;" transform="translate(72.742102 303.028562)scale(0.1 -0.1)">
       <use xlink:href="#DejaVuSans-48"/>
      </g>
     </g>
    </g>
    <g id="xtick_2">
     <g id="line2d_2">
      <path clip-path="url(#p358d260417)" d="M 130.032443 288.430125 
L 130.032443 22.318125 
" style="fill:none;stroke:#cccccc;stroke-linecap:round;stroke-width:0.8;"/>
     </g>
     <g id="text_2">
      <!-- 10 -->
      <defs>
       <path d="M 12.40625 8.296875 
L 28.515625 8.296875 
L 28.515625 63.921875 
L 10.984375 60.40625 
L 10.984375 69.390625 
L 28.421875 72.90625 
L 38.28125 72.90625 
L 38.28125 8.296875 
L 54.390625 8.296875 
L 54.390625 0 
L 12.40625 0 
z
" id="DejaVuSans-49"/>
      </defs>
      <g style="fill:#262626;" transform="translate(123.669943 303.028562)scale(0.1 -0.1)">
       <use xlink:href="#DejaVuSans-49"/>
       <use x="63.623047" xlink:href="#DejaVuSans-48"/>
      </g>
     </g>
    </g>
    <g id="xtick_3">
     <g id="line2d_3">
      <path clip-path="url(#p358d260417)" d="M 184.141534 288.430125 
L 184.141534 22.318125 
" style="fill:none;stroke:#cccccc;stroke-linecap:round;stroke-width:0.8;"/>
     </g>
     <g id="text_3">
      <!-- 20 -->
      <defs>
       <path d="M 19.1875 8.296875 
L 53.609375 8.296875 
L 53.609375 0 
L 7.328125 0 
L 7.328125 8.296875 
Q 12.9375 14.109375 22.625 23.890625 
Q 32.328125 33.6875 34.8125 36.53125 
Q 39.546875 41.84375 41.421875 45.53125 
Q 43.3125 49.21875 43.3125 52.78125 
Q 43.3125 58.59375 39.234375 62.25 
Q 35.15625 65.921875 28.609375 65.921875 
Q 23.96875 65.921875 18.8125 64.3125 
Q 13.671875 62.703125 7.8125 59.421875 
L 7.8125 69.390625 
Q 13.765625 71.78125 18.9375 73 
Q 24.125 74.21875 28.421875 74.21875 
Q 39.75 74.21875 46.484375 68.546875 
Q 53.21875 62.890625 53.21875 53.421875 
Q 53.21875 48.921875 51.53125 44.890625 
Q 49.859375 40.875 45.40625 35.40625 
Q 44.1875 33.984375 37.640625 27.21875 
Q 31.109375 20.453125 19.1875 8.296875 
z
" id="DejaVuSans-50"/>
      </defs>
      <g style="fill:#262626;" transform="translate(177.779034 303.028562)scale(0.1 -0.1)">
       <use xlink:href="#DejaVuSans-50"/>
       <use x="63.623047" xlink:href="#DejaVuSans-48"/>
      </g>
     </g>
    </g>
    <g id="xtick_4">
     <g id="line2d_4">
      <path clip-path="url(#p358d260417)" d="M 238.250625 288.430125 
L 238.250625 22.318125 
" style="fill:none;stroke:#cccccc;stroke-linecap:round;stroke-width:0.8;"/>
     </g>
     <g id="text_4">
      <!-- 30 -->
      <defs>
       <path d="M 40.578125 39.3125 
Q 47.65625 37.796875 51.625 33 
Q 55.609375 28.21875 55.609375 21.1875 
Q 55.609375 10.40625 48.1875 4.484375 
Q 40.765625 -1.421875 27.09375 -1.421875 
Q 22.515625 -1.421875 17.65625 -0.515625 
Q 12.796875 0.390625 7.625 2.203125 
L 7.625 11.71875 
Q 11.71875 9.328125 16.59375 8.109375 
Q 21.484375 6.890625 26.8125 6.890625 
Q 36.078125 6.890625 40.9375 10.546875 
Q 45.796875 14.203125 45.796875 21.1875 
Q 45.796875 27.640625 41.28125 31.265625 
Q 36.765625 34.90625 28.71875 34.90625 
L 20.21875 34.90625 
L 20.21875 43.015625 
L 29.109375 43.015625 
Q 36.375 43.015625 40.234375 45.921875 
Q 44.09375 48.828125 44.09375 54.296875 
Q 44.09375 59.90625 40.109375 62.90625 
Q 36.140625 65.921875 28.71875 65.921875 
Q 24.65625 65.921875 20.015625 65.03125 
Q 15.375 64.15625 9.8125 62.3125 
L 9.8125 71.09375 
Q 15.4375 72.65625 20.34375 73.4375 
Q 25.25 74.21875 29.59375 74.21875 
Q 40.828125 74.21875 47.359375 69.109375 
Q 53.90625 64.015625 53.90625 55.328125 
Q 53.90625 49.265625 50.4375 45.09375 
Q 46.96875 40.921875 40.578125 39.3125 
z
" id="DejaVuSans-51"/>
      </defs>
      <g style="fill:#262626;" transform="translate(231.888125 303.028562)scale(0.1 -0.1)">
       <use xlink:href="#DejaVuSans-51"/>
       <use x="63.623047" xlink:href="#DejaVuSans-48"/>
      </g>
     </g>
    </g>
    <g id="xtick_5">
     <g id="line2d_5">
      <path clip-path="url(#p358d260417)" d="M 292.359716 288.430125 
L 292.359716 22.318125 
" style="fill:none;stroke:#cccccc;stroke-linecap:round;stroke-width:0.8;"/>
     </g>
     <g id="text_5">
      <!-- 40 -->
      <defs>
       <path d="M 37.796875 64.3125 
L 12.890625 25.390625 
L 37.796875 25.390625 
z
M 35.203125 72.90625 
L 47.609375 72.90625 
L 47.609375 25.390625 
L 58.015625 25.390625 
L 58.015625 17.1875 
L 47.609375 17.1875 
L 47.609375 0 
L 37.796875 0 
L 37.796875 17.1875 
L 4.890625 17.1875 
L 4.890625 26.703125 
z
" id="DejaVuSans-52"/>
      </defs>
      <g style="fill:#262626;" transform="translate(285.997216 303.028562)scale(0.1 -0.1)">
       <use xlink:href="#DejaVuSans-52"/>
       <use x="63.623047" xlink:href="#DejaVuSans-48"/>
      </g>
     </g>
    </g>
    <g id="xtick_6">
     <g id="line2d_6">
      <path clip-path="url(#p358d260417)" d="M 346.468807 288.430125 
L 346.468807 22.318125 
" style="fill:none;stroke:#cccccc;stroke-linecap:round;stroke-width:0.8;"/>
     </g>
     <g id="text_6">
      <!-- 50 -->
      <defs>
       <path d="M 10.796875 72.90625 
L 49.515625 72.90625 
L 49.515625 64.59375 
L 19.828125 64.59375 
L 19.828125 46.734375 
Q 21.96875 47.46875 24.109375 47.828125 
Q 26.265625 48.1875 28.421875 48.1875 
Q 40.625 48.1875 47.75 41.5 
Q 54.890625 34.8125 54.890625 23.390625 
Q 54.890625 11.625 47.5625 5.09375 
Q 40.234375 -1.421875 26.90625 -1.421875 
Q 22.3125 -1.421875 17.546875 -0.640625 
Q 12.796875 0.140625 7.71875 1.703125 
L 7.71875 11.625 
Q 12.109375 9.234375 16.796875 8.0625 
Q 21.484375 6.890625 26.703125 6.890625 
Q 35.15625 6.890625 40.078125 11.328125 
Q 45.015625 15.765625 45.015625 23.390625 
Q 45.015625 31 40.078125 35.4375 
Q 35.15625 39.890625 26.703125 39.890625 
Q 22.75 39.890625 18.8125 39.015625 
Q 14.890625 38.140625 10.796875 36.28125 
z
" id="DejaVuSans-53"/>
      </defs>
      <g style="fill:#262626;" transform="translate(340.106307 303.028562)scale(0.1 -0.1)">
       <use xlink:href="#DejaVuSans-53"/>
       <use x="63.623047" xlink:href="#DejaVuSans-48"/>
      </g>
     </g>
    </g>
    <g id="xtick_7">
     <g id="line2d_7">
      <path clip-path="url(#p358d260417)" d="M 400.577898 288.430125 
L 400.577898 22.318125 
" style="fill:none;stroke:#cccccc;stroke-linecap:round;stroke-width:0.8;"/>
     </g>
     <g id="text_7">
      <!-- 60 -->
      <defs>
       <path d="M 33.015625 40.375 
Q 26.375 40.375 22.484375 35.828125 
Q 18.609375 31.296875 18.609375 23.390625 
Q 18.609375 15.53125 22.484375 10.953125 
Q 26.375 6.390625 33.015625 6.390625 
Q 39.65625 6.390625 43.53125 10.953125 
Q 47.40625 15.53125 47.40625 23.390625 
Q 47.40625 31.296875 43.53125 35.828125 
Q 39.65625 40.375 33.015625 40.375 
z
M 52.59375 71.296875 
L 52.59375 62.3125 
Q 48.875 64.0625 45.09375 64.984375 
Q 41.3125 65.921875 37.59375 65.921875 
Q 27.828125 65.921875 22.671875 59.328125 
Q 17.53125 52.734375 16.796875 39.40625 
Q 19.671875 43.65625 24.015625 45.921875 
Q 28.375 48.1875 33.59375 48.1875 
Q 44.578125 48.1875 50.953125 41.515625 
Q 57.328125 34.859375 57.328125 23.390625 
Q 57.328125 12.15625 50.6875 5.359375 
Q 44.046875 -1.421875 33.015625 -1.421875 
Q 20.359375 -1.421875 13.671875 8.265625 
Q 6.984375 17.96875 6.984375 36.375 
Q 6.984375 53.65625 15.1875 63.9375 
Q 23.390625 74.21875 37.203125 74.21875 
Q 40.921875 74.21875 44.703125 73.484375 
Q 48.484375 72.75 52.59375 71.296875 
z
" id="DejaVuSans-54"/>
      </defs>
      <g style="fill:#262626;" transform="translate(394.215398 303.028562)scale(0.1 -0.1)">
       <use xlink:href="#DejaVuSans-54"/>
       <use x="63.623047" xlink:href="#DejaVuSans-48"/>
      </g>
     </g>
    </g>
    <g id="text_8">
     <!-- time (days) -->
     <defs>
      <path d="M 18.3125 70.21875 
L 18.3125 54.6875 
L 36.8125 54.6875 
L 36.8125 47.703125 
L 18.3125 47.703125 
L 18.3125 18.015625 
Q 18.3125 11.328125 20.140625 9.421875 
Q 21.96875 7.515625 27.59375 7.515625 
L 36.8125 7.515625 
L 36.8125 0 
L 27.59375 0 
Q 17.1875 0 13.234375 3.875 
Q 9.28125 7.765625 9.28125 18.015625 
L 9.28125 47.703125 
L 2.6875 47.703125 
L 2.6875 54.6875 
L 9.28125 54.6875 
L 9.28125 70.21875 
z
" id="DejaVuSans-116"/>
      <path d="M 9.421875 54.6875 
L 18.40625 54.6875 
L 18.40625 0 
L 9.421875 0 
z
M 9.421875 75.984375 
L 18.40625 75.984375 
L 18.40625 64.59375 
L 9.421875 64.59375 
z
" id="DejaVuSans-105"/>
      <path d="M 52 44.1875 
Q 55.375 50.25 60.0625 53.125 
Q 64.75 56 71.09375 56 
Q 79.640625 56 84.28125 50.015625 
Q 88.921875 44.046875 88.921875 33.015625 
L 88.921875 0 
L 79.890625 0 
L 79.890625 32.71875 
Q 79.890625 40.578125 77.09375 44.375 
Q 74.3125 48.1875 68.609375 48.1875 
Q 61.625 48.1875 57.5625 43.546875 
Q 53.515625 38.921875 53.515625 30.90625 
L 53.515625 0 
L 44.484375 0 
L 44.484375 32.71875 
Q 44.484375 40.625 41.703125 44.40625 
Q 38.921875 48.1875 33.109375 48.1875 
Q 26.21875 48.1875 22.15625 43.53125 
Q 18.109375 38.875 18.109375 30.90625 
L 18.109375 0 
L 9.078125 0 
L 9.078125 54.6875 
L 18.109375 54.6875 
L 18.109375 46.1875 
Q 21.1875 51.21875 25.484375 53.609375 
Q 29.78125 56 35.6875 56 
Q 41.65625 56 45.828125 52.96875 
Q 50 49.953125 52 44.1875 
z
" id="DejaVuSans-109"/>
      <path d="M 56.203125 29.59375 
L 56.203125 25.203125 
L 14.890625 25.203125 
Q 15.484375 15.921875 20.484375 11.0625 
Q 25.484375 6.203125 34.421875 6.203125 
Q 39.59375 6.203125 44.453125 7.46875 
Q 49.3125 8.734375 54.109375 11.28125 
L 54.109375 2.78125 
Q 49.265625 0.734375 44.1875 -0.34375 
Q 39.109375 -1.421875 33.890625 -1.421875 
Q 20.796875 -1.421875 13.15625 6.1875 
Q 5.515625 13.8125 5.515625 26.8125 
Q 5.515625 40.234375 12.765625 48.109375 
Q 20.015625 56 32.328125 56 
Q 43.359375 56 49.78125 48.890625 
Q 56.203125 41.796875 56.203125 29.59375 
z
M 47.21875 32.234375 
Q 47.125 39.59375 43.09375 43.984375 
Q 39.0625 48.390625 32.421875 48.390625 
Q 24.90625 48.390625 20.390625 44.140625 
Q 15.875 39.890625 15.1875 32.171875 
z
" id="DejaVuSans-101"/>
      <path id="DejaVuSans-32"/>
      <path d="M 31 75.875 
Q 24.46875 64.65625 21.28125 53.65625 
Q 18.109375 42.671875 18.109375 31.390625 
Q 18.109375 20.125 21.3125 9.0625 
Q 24.515625 -2 31 -13.1875 
L 23.1875 -13.1875 
Q 15.875 -1.703125 12.234375 9.375 
Q 8.59375 20.453125 8.59375 31.390625 
Q 8.59375 42.28125 12.203125 53.3125 
Q 15.828125 64.359375 23.1875 75.875 
z
" id="DejaVuSans-40"/>
      <path d="M 45.40625 46.390625 
L 45.40625 75.984375 
L 54.390625 75.984375 
L 54.390625 0 
L 45.40625 0 
L 45.40625 8.203125 
Q 42.578125 3.328125 38.25 0.953125 
Q 33.9375 -1.421875 27.875 -1.421875 
Q 17.96875 -1.421875 11.734375 6.484375 
Q 5.515625 14.40625 5.515625 27.296875 
Q 5.515625 40.1875 11.734375 48.09375 
Q 17.96875 56 27.875 56 
Q 33.9375 56 38.25 53.625 
Q 42.578125 51.265625 45.40625 46.390625 
z
M 14.796875 27.296875 
Q 14.796875 17.390625 18.875 11.75 
Q 22.953125 6.109375 30.078125 6.109375 
Q 37.203125 6.109375 41.296875 11.75 
Q 45.40625 17.390625 45.40625 27.296875 
Q 45.40625 37.203125 41.296875 42.84375 
Q 37.203125 48.484375 30.078125 48.484375 
Q 22.953125 48.484375 18.875 42.84375 
Q 14.796875 37.203125 14.796875 27.296875 
z
" id="DejaVuSans-100"/>
      <path d="M 34.28125 27.484375 
Q 23.390625 27.484375 19.1875 25 
Q 14.984375 22.515625 14.984375 16.5 
Q 14.984375 11.71875 18.140625 8.90625 
Q 21.296875 6.109375 26.703125 6.109375 
Q 34.1875 6.109375 38.703125 11.40625 
Q 43.21875 16.703125 43.21875 25.484375 
L 43.21875 27.484375 
z
M 52.203125 31.203125 
L 52.203125 0 
L 43.21875 0 
L 43.21875 8.296875 
Q 40.140625 3.328125 35.546875 0.953125 
Q 30.953125 -1.421875 24.3125 -1.421875 
Q 15.921875 -1.421875 10.953125 3.296875 
Q 6 8.015625 6 15.921875 
Q 6 25.140625 12.171875 29.828125 
Q 18.359375 34.515625 30.609375 34.515625 
L 43.21875 34.515625 
L 43.21875 35.40625 
Q 43.21875 41.609375 39.140625 45 
Q 35.0625 48.390625 27.6875 48.390625 
Q 23 48.390625 18.546875 47.265625 
Q 14.109375 46.140625 10.015625 43.890625 
L 10.015625 52.203125 
Q 14.9375 54.109375 19.578125 55.046875 
Q 24.21875 56 28.609375 56 
Q 40.484375 56 46.34375 49.84375 
Q 52.203125 43.703125 52.203125 31.203125 
z
" id="DejaVuSans-97"/>
      <path d="M 32.171875 -5.078125 
Q 28.375 -14.84375 24.75 -17.8125 
Q 21.140625 -20.796875 15.09375 -20.796875 
L 7.90625 -20.796875 
L 7.90625 -13.28125 
L 13.1875 -13.28125 
Q 16.890625 -13.28125 18.9375 -11.515625 
Q 21 -9.765625 23.484375 -3.21875 
L 25.09375 0.875 
L 2.984375 54.6875 
L 12.5 54.6875 
L 29.59375 11.921875 
L 46.6875 54.6875 
L 56.203125 54.6875 
z
" id="DejaVuSans-121"/>
      <path d="M 44.28125 53.078125 
L 44.28125 44.578125 
Q 40.484375 46.53125 36.375 47.5 
Q 32.28125 48.484375 27.875 48.484375 
Q 21.1875 48.484375 17.84375 46.4375 
Q 14.5 44.390625 14.5 40.28125 
Q 14.5 37.15625 16.890625 35.375 
Q 19.28125 33.59375 26.515625 31.984375 
L 29.59375 31.296875 
Q 39.15625 29.25 43.1875 25.515625 
Q 47.21875 21.78125 47.21875 15.09375 
Q 47.21875 7.46875 41.1875 3.015625 
Q 35.15625 -1.421875 24.609375 -1.421875 
Q 20.21875 -1.421875 15.453125 -0.5625 
Q 10.6875 0.296875 5.421875 2 
L 5.421875 11.28125 
Q 10.40625 8.6875 15.234375 7.390625 
Q 20.0625 6.109375 24.8125 6.109375 
Q 31.15625 6.109375 34.5625 8.28125 
Q 37.984375 10.453125 37.984375 14.40625 
Q 37.984375 18.0625 35.515625 20.015625 
Q 33.0625 21.96875 24.703125 23.78125 
L 21.578125 24.515625 
Q 13.234375 26.265625 9.515625 29.90625 
Q 5.8125 33.546875 5.8125 39.890625 
Q 5.8125 47.609375 11.28125 51.796875 
Q 16.75 56 26.8125 56 
Q 31.78125 56 36.171875 55.265625 
Q 40.578125 54.546875 44.28125 53.078125 
z
" id="DejaVuSans-115"/>
      <path d="M 8.015625 75.875 
L 15.828125 75.875 
Q 23.140625 64.359375 26.78125 53.3125 
Q 30.421875 42.28125 30.421875 31.390625 
Q 30.421875 20.453125 26.78125 9.375 
Q 23.140625 -1.703125 15.828125 -13.1875 
L 8.015625 -13.1875 
Q 14.5 -2 17.703125 9.0625 
Q 20.90625 20.125 20.90625 31.390625 
Q 20.90625 42.671875 17.703125 53.65625 
Q 14.5 64.65625 8.015625 75.875 
z
" id="DejaVuSans-41"/>
     </defs>
     <g style="fill:#262626;" transform="translate(209.661563 316.706687)scale(0.1 -0.1)">
      <use xlink:href="#DejaVuSans-116"/>
      <use x="39.208984" xlink:href="#DejaVuSans-105"/>
      <use x="66.992188" xlink:href="#DejaVuSans-109"/>
      <use x="164.404297" xlink:href="#DejaVuSans-101"/>
      <use x="225.927734" xlink:href="#DejaVuSans-32"/>
      <use x="257.714844" xlink:href="#DejaVuSans-40"/>
      <use x="296.728516" xlink:href="#DejaVuSans-100"/>
      <use x="360.205078" xlink:href="#DejaVuSans-97"/>
      <use x="421.484375" xlink:href="#DejaVuSans-121"/>
      <use x="480.664062" xlink:href="#DejaVuSans-115"/>
      <use x="532.763672" xlink:href="#DejaVuSans-41"/>
     </g>
    </g>
   </g>
   <g id="matplotlib.axis_2">
    <g id="ytick_1">
     <g id="line2d_8">
      <path clip-path="url(#p358d260417)" d="M 59.690625 276.334125 
L 416.810625 276.334125 
" style="fill:none;stroke:#cccccc;stroke-linecap:round;stroke-width:0.8;"/>
     </g>
     <g id="text_9">
      <!-- 0 -->
      <g style="fill:#262626;" transform="translate(46.328125 280.133344)scale(0.1 -0.1)">
       <use xlink:href="#DejaVuSans-48"/>
      </g>
     </g>
    </g>
    <g id="ytick_2">
     <g id="line2d_9">
      <path clip-path="url(#p358d260417)" d="M 59.690625 232.945851 
L 416.810625 232.945851 
" style="fill:none;stroke:#cccccc;stroke-linecap:round;stroke-width:0.8;"/>
     </g>
     <g id="text_10">
      <!-- 10000 -->
      <g style="fill:#262626;" transform="translate(20.878125 236.74507)scale(0.1 -0.1)">
       <use xlink:href="#DejaVuSans-49"/>
       <use x="63.623047" xlink:href="#DejaVuSans-48"/>
       <use x="127.246094" xlink:href="#DejaVuSans-48"/>
       <use x="190.869141" xlink:href="#DejaVuSans-48"/>
       <use x="254.492188" xlink:href="#DejaVuSans-48"/>
      </g>
     </g>
    </g>
    <g id="ytick_3">
     <g id="line2d_10">
      <path clip-path="url(#p358d260417)" d="M 59.690625 189.557577 
L 416.810625 189.557577 
" style="fill:none;stroke:#cccccc;stroke-linecap:round;stroke-width:0.8;"/>
     </g>
     <g id="text_11">
      <!-- 20000 -->
      <g style="fill:#262626;" transform="translate(20.878125 193.356796)scale(0.1 -0.1)">
       <use xlink:href="#DejaVuSans-50"/>
       <use x="63.623047" xlink:href="#DejaVuSans-48"/>
       <use x="127.246094" xlink:href="#DejaVuSans-48"/>
       <use x="190.869141" xlink:href="#DejaVuSans-48"/>
       <use x="254.492188" xlink:href="#DejaVuSans-48"/>
      </g>
     </g>
    </g>
    <g id="ytick_4">
     <g id="line2d_11">
      <path clip-path="url(#p358d260417)" d="M 59.690625 146.169303 
L 416.810625 146.169303 
" style="fill:none;stroke:#cccccc;stroke-linecap:round;stroke-width:0.8;"/>
     </g>
     <g id="text_12">
      <!-- 30000 -->
      <g style="fill:#262626;" transform="translate(20.878125 149.968521)scale(0.1 -0.1)">
       <use xlink:href="#DejaVuSans-51"/>
       <use x="63.623047" xlink:href="#DejaVuSans-48"/>
       <use x="127.246094" xlink:href="#DejaVuSans-48"/>
       <use x="190.869141" xlink:href="#DejaVuSans-48"/>
       <use x="254.492188" xlink:href="#DejaVuSans-48"/>
      </g>
     </g>
    </g>
    <g id="ytick_5">
     <g id="line2d_12">
      <path clip-path="url(#p358d260417)" d="M 59.690625 102.781029 
L 416.810625 102.781029 
" style="fill:none;stroke:#cccccc;stroke-linecap:round;stroke-width:0.8;"/>
     </g>
     <g id="text_13">
      <!-- 40000 -->
      <g style="fill:#262626;" transform="translate(20.878125 106.580247)scale(0.1 -0.1)">
       <use xlink:href="#DejaVuSans-52"/>
       <use x="63.623047" xlink:href="#DejaVuSans-48"/>
       <use x="127.246094" xlink:href="#DejaVuSans-48"/>
       <use x="190.869141" xlink:href="#DejaVuSans-48"/>
       <use x="254.492188" xlink:href="#DejaVuSans-48"/>
      </g>
     </g>
    </g>
    <g id="ytick_6">
     <g id="line2d_13">
      <path clip-path="url(#p358d260417)" d="M 59.690625 59.392754 
L 416.810625 59.392754 
" style="fill:none;stroke:#cccccc;stroke-linecap:round;stroke-width:0.8;"/>
     </g>
     <g id="text_14">
      <!-- 50000 -->
      <g style="fill:#262626;" transform="translate(20.878125 63.191973)scale(0.1 -0.1)">
       <use xlink:href="#DejaVuSans-53"/>
       <use x="63.623047" xlink:href="#DejaVuSans-48"/>
       <use x="127.246094" xlink:href="#DejaVuSans-48"/>
       <use x="190.869141" xlink:href="#DejaVuSans-48"/>
       <use x="254.492188" xlink:href="#DejaVuSans-48"/>
      </g>
     </g>
    </g>
    <g id="text_15">
     <!-- cells number -->
     <defs>
      <path d="M 48.78125 52.59375 
L 48.78125 44.1875 
Q 44.96875 46.296875 41.140625 47.34375 
Q 37.3125 48.390625 33.40625 48.390625 
Q 24.65625 48.390625 19.8125 42.84375 
Q 14.984375 37.3125 14.984375 27.296875 
Q 14.984375 17.28125 19.8125 11.734375 
Q 24.65625 6.203125 33.40625 6.203125 
Q 37.3125 6.203125 41.140625 7.25 
Q 44.96875 8.296875 48.78125 10.40625 
L 48.78125 2.09375 
Q 45.015625 0.34375 40.984375 -0.53125 
Q 36.96875 -1.421875 32.421875 -1.421875 
Q 20.0625 -1.421875 12.78125 6.34375 
Q 5.515625 14.109375 5.515625 27.296875 
Q 5.515625 40.671875 12.859375 48.328125 
Q 20.21875 56 33.015625 56 
Q 37.15625 56 41.109375 55.140625 
Q 45.0625 54.296875 48.78125 52.59375 
z
" id="DejaVuSans-99"/>
      <path d="M 9.421875 75.984375 
L 18.40625 75.984375 
L 18.40625 0 
L 9.421875 0 
z
" id="DejaVuSans-108"/>
      <path d="M 54.890625 33.015625 
L 54.890625 0 
L 45.90625 0 
L 45.90625 32.71875 
Q 45.90625 40.484375 42.875 44.328125 
Q 39.84375 48.1875 33.796875 48.1875 
Q 26.515625 48.1875 22.3125 43.546875 
Q 18.109375 38.921875 18.109375 30.90625 
L 18.109375 0 
L 9.078125 0 
L 9.078125 54.6875 
L 18.109375 54.6875 
L 18.109375 46.1875 
Q 21.34375 51.125 25.703125 53.5625 
Q 30.078125 56 35.796875 56 
Q 45.21875 56 50.046875 50.171875 
Q 54.890625 44.34375 54.890625 33.015625 
z
" id="DejaVuSans-110"/>
      <path d="M 8.5 21.578125 
L 8.5 54.6875 
L 17.484375 54.6875 
L 17.484375 21.921875 
Q 17.484375 14.15625 20.5 10.265625 
Q 23.53125 6.390625 29.59375 6.390625 
Q 36.859375 6.390625 41.078125 11.03125 
Q 45.3125 15.671875 45.3125 23.6875 
L 45.3125 54.6875 
L 54.296875 54.6875 
L 54.296875 0 
L 45.3125 0 
L 45.3125 8.40625 
Q 42.046875 3.421875 37.71875 1 
Q 33.40625 -1.421875 27.6875 -1.421875 
Q 18.265625 -1.421875 13.375 4.4375 
Q 8.5 10.296875 8.5 21.578125 
z
M 31.109375 56 
z
" id="DejaVuSans-117"/>
      <path d="M 48.6875 27.296875 
Q 48.6875 37.203125 44.609375 42.84375 
Q 40.53125 48.484375 33.40625 48.484375 
Q 26.265625 48.484375 22.1875 42.84375 
Q 18.109375 37.203125 18.109375 27.296875 
Q 18.109375 17.390625 22.1875 11.75 
Q 26.265625 6.109375 33.40625 6.109375 
Q 40.53125 6.109375 44.609375 11.75 
Q 48.6875 17.390625 48.6875 27.296875 
z
M 18.109375 46.390625 
Q 20.953125 51.265625 25.265625 53.625 
Q 29.59375 56 35.59375 56 
Q 45.5625 56 51.78125 48.09375 
Q 58.015625 40.1875 58.015625 27.296875 
Q 58.015625 14.40625 51.78125 6.484375 
Q 45.5625 -1.421875 35.59375 -1.421875 
Q 29.59375 -1.421875 25.265625 0.953125 
Q 20.953125 3.328125 18.109375 8.203125 
L 18.109375 0 
L 9.078125 0 
L 9.078125 75.984375 
L 18.109375 75.984375 
z
" id="DejaVuSans-98"/>
      <path d="M 41.109375 46.296875 
Q 39.59375 47.171875 37.8125 47.578125 
Q 36.03125 48 33.890625 48 
Q 26.265625 48 22.1875 43.046875 
Q 18.109375 38.09375 18.109375 28.8125 
L 18.109375 0 
L 9.078125 0 
L 9.078125 54.6875 
L 18.109375 54.6875 
L 18.109375 46.1875 
Q 20.953125 51.171875 25.484375 53.578125 
Q 30.03125 56 36.53125 56 
Q 37.453125 56 38.578125 55.875 
Q 39.703125 55.765625 41.0625 55.515625 
z
" id="DejaVuSans-114"/>
     </defs>
     <g style="fill:#262626;" transform="translate(14.798438 187.685844)rotate(-90)scale(0.1 -0.1)">
      <use xlink:href="#DejaVuSans-99"/>
      <use x="54.980469" xlink:href="#DejaVuSans-101"/>
      <use x="116.503906" xlink:href="#DejaVuSans-108"/>
      <use x="144.287109" xlink:href="#DejaVuSans-108"/>
      <use x="172.070312" xlink:href="#DejaVuSans-115"/>
      <use x="224.169922" xlink:href="#DejaVuSans-32"/>
      <use x="255.957031" xlink:href="#DejaVuSans-110"/>
      <use x="319.335938" xlink:href="#DejaVuSans-117"/>
      <use x="382.714844" xlink:href="#DejaVuSans-109"/>
      <use x="480.126953" xlink:href="#DejaVuSans-98"/>
      <use x="543.603516" xlink:href="#DejaVuSans-101"/>
      <use x="605.126953" xlink:href="#DejaVuSans-114"/>
     </g>
    </g>
   </g>
   <g id="line2d_14">
    <path clip-path="url(#p358d260417)" d="M 75.923352 276.334125 
L 77.546625 275.123592 
L 78.087716 274.772147 
L 78.628807 274.65066 
L 79.169898 274.403347 
L 80.25208 274.229794 
L 80.79317 274.35562 
L 82.957534 274.342603 
L 86.20408 274.581239 
L 86.74517 274.494462 
L 87.286261 274.572561 
L 87.827352 274.481446 
L 89.450625 274.555206 
L 94.320443 274.09529 
L 95.402625 273.952109 
L 97.025898 273.548598 
L 98.10808 273.448805 
L 101.895716 272.455213 
L 103.518989 271.921538 
L 108.929898 270.24675 
L 113.258625 268.446137 
L 117.587352 266.39821 
L 119.751716 265.261437 
L 121.374989 264.432721 
L 124.621534 262.653802 
L 126.785898 261.408559 
L 128.40917 260.644925 
L 131.655716 258.866006 
L 132.737898 258.375718 
L 133.82008 257.829026 
L 134.36117 257.685845 
L 136.525534 256.635849 
L 137.066625 256.488328 
L 138.689898 255.572836 
L 139.77208 255.173664 
L 141.395352 254.318915 
L 143.559716 253.143092 
L 146.26517 251.680908 
L 154.381534 246.574108 
L 155.463716 245.702003 
L 156.545898 245.064196 
L 158.16917 244.113993 
L 163.58008 240.738385 
L 164.12117 240.521444 
L 166.285534 239.280539 
L 170.614261 237.098109 
L 171.696443 236.681581 
L 172.778625 236.147906 
L 173.319716 235.974352 
L 174.401898 235.436338 
L 174.942989 235.210719 
L 175.48408 235.110926 
L 177.107352 234.416713 
L 177.648443 234.069607 
L 178.189534 233.952459 
L 180.894989 232.459902 
L 181.97717 232.091102 
L 192.257898 227.188227 
L 194.963352 225.856207 
L 199.29208 224.051255 
L 200.915352 223.226877 
L 202.538625 222.610764 
L 205.24408 221.239695 
L 205.78517 221.139901 
L 209.031716 219.62999 
L 214.442625 217.14818 
L 217.14808 215.876904 
L 217.68917 215.486409 
L 218.771352 215.182691 
L 219.312443 214.805213 
L 220.394625 214.345298 
L 221.476807 213.755217 
L 222.558989 213.269269 
L 224.182261 212.509974 
L 225.264443 211.937249 
L 225.805534 211.616175 
L 226.887716 211.217003 
L 232.298625 208.331683 
L 233.921898 207.398835 
L 236.627352 206.110203 
L 238.791716 205.090579 
L 239.873898 204.595953 
L 257.729898 195.944331 
L 258.270989 195.749083 
L 259.35317 195.176358 
L 270.71608 190.225756 
L 271.798261 189.87865 
L 272.880443 189.379685 
L 273.962625 188.88072 
L 274.503716 188.720183 
L 275.585898 188.091053 
L 276.66808 187.717914 
L 278.291352 187.06709 
L 280.455716 186.108209 
L 280.996807 185.999738 
L 282.62008 185.25346 
L 283.16117 185.101601 
L 284.243352 184.55057 
L 286.948807 183.387764 
L 289.11317 182.389834 
L 295.606261 179.469803 
L 297.229534 178.727864 
L 297.770625 178.40679 
L 299.393898 177.799354 
L 302.099352 176.766714 
L 304.804807 175.803494 
L 305.886989 175.304529 
L 307.510261 174.649366 
L 308.592443 174.124368 
L 309.674625 173.738212 
L 310.756807 173.109082 
L 311.838989 172.649166 
L 313.462261 171.881194 
L 316.708807 170.583884 
L 317.790989 170.132646 
L 327.530625 166.53142 
L 328.071716 166.232041 
L 329.153898 165.941339 
L 330.77717 165.30787 
L 331.859352 165.073574 
L 333.482625 164.45746 
L 334.023716 164.140726 
L 335.646989 163.594034 
L 336.18808 163.585356 
L 337.270261 163.233911 
L 338.893534 162.53536 
L 339.975716 162.149204 
L 341.057898 161.884536 
L 342.68117 161.628545 
L 343.763352 161.220695 
L 344.845534 160.782473 
L 345.927716 160.305202 
L 348.09208 159.641362 
L 348.63317 159.506858 
L 350.256443 158.756241 
L 351.338625 158.46554 
L 357.831716 156.200672 
L 358.913898 156.044474 
L 361.078261 155.115965 
L 361.619352 155.081254 
L 364.324807 154.183117 
L 364.865898 154.113696 
L 367.571352 152.968245 
L 368.653534 152.660188 
L 372.982261 151.436639 
L 373.523352 151.198004 
L 374.064443 151.106888 
L 374.605534 150.837881 
L 375.687716 150.642634 
L 376.769898 150.217429 
L 381.639716 148.73355 
L 382.180807 148.442848 
L 382.721898 148.334378 
L 383.80408 147.835412 
L 384.886261 147.579422 
L 386.509534 147.084795 
L 390.29717 146.138931 
L 392.461534 145.258149 
L 393.002625 145.145339 
L 394.625898 144.511871 
L 396.24917 144.151748 
L 396.790261 144.082327 
L 397.872443 143.730882 
L 398.413534 143.596378 
L 398.954625 143.33171 
L 400.036807 143.058363 
L 400.577898 142.932537 
L 400.577898 142.932537 
" style="fill:none;stroke:#000080;stroke-linecap:round;stroke-width:1.5;"/>
   </g>
   <g id="line2d_15">
    <path clip-path="url(#p358d260417)" d="M 75.923352 276.334125 
L 77.005534 275.392599 
L 78.087716 274.702726 
L 81.334261 274.399008 
L 82.416443 274.490123 
L 83.498625 274.572561 
L 87.286261 274.694048 
L 89.991716 274.468429 
L 92.15608 274.173389 
L 96.484807 273.691779 
L 99.190261 273.362028 
L 99.731352 273.214508 
L 100.813534 273.066988 
L 106.224443 271.101499 
L 107.306625 270.823814 
L 109.470989 269.969065 
L 112.176443 268.997168 
L 114.340807 268.003576 
L 115.422989 267.613082 
L 116.50517 267.005646 
L 117.587352 266.454615 
L 120.292807 265.13995 
L 120.833898 264.823216 
L 121.374989 264.649663 
L 126.785898 261.2567 
L 127.86808 260.753396 
L 128.950261 260.137282 
L 130.032443 259.486458 
L 133.278989 257.789977 
L 134.902261 256.752997 
L 135.984443 256.158578 
L 138.689898 254.887301 
L 139.77208 254.323254 
L 140.854261 253.92842 
L 145.72408 251.459627 
L 147.888443 250.322855 
L 148.429534 249.962732 
L 149.511716 249.472444 
L 151.67608 248.361705 
L 154.381534 247.016668 
L 158.710261 245.038163 
L 159.251352 244.747461 
L 160.874625 244.192092 
L 163.038989 243.05098 
L 167.367716 240.898922 
L 168.449898 240.31318 
L 168.990989 240.148304 
L 173.319716 237.974552 
L 174.942989 237.150175 
L 176.02517 236.39088 
L 188.470261 230.004126 
L 189.552443 229.344624 
L 191.716807 228.364049 
L 192.798989 227.795663 
L 197.127716 225.791124 
L 198.209898 225.166333 
L 198.750989 224.940714 
L 199.83317 224.333278 
L 201.456443 223.504562 
L 202.538625 222.910143 
L 203.079716 222.523987 
L 204.161898 222.077088 
L 206.867352 220.649614 
L 207.949534 220.189698 
L 218.771352 215.508104 
L 219.853534 215.174014 
L 223.64117 213.173814 
L 224.182261 212.813692 
L 224.723352 212.609767 
L 226.346625 211.676919 
L 227.969898 210.891591 
L 231.216443 209.277547 
L 232.298625 208.626723 
L 235.54517 207.082101 
L 240.95608 204.582936 
L 242.038261 204.127359 
L 243.120443 203.585006 
L 245.825898 202.114143 
L 247.44917 201.402576 
L 248.531352 200.790801 
L 250.154625 199.962085 
L 254.483352 197.90982 
L 256.106625 197.141847 
L 258.81208 196.235032 
L 259.894261 195.805488 
L 260.976443 195.336895 
L 262.599716 194.560245 
L 266.387352 192.842069 
L 267.469534 192.234633 
L 268.551716 191.774718 
L 273.421534 189.414395 
L 273.962625 189.17576 
L 274.503716 188.793943 
L 275.044807 188.616051 
L 275.585898 188.316672 
L 276.66808 187.986921 
L 277.20917 187.865434 
L 279.373534 186.824115 
L 282.62008 185.470401 
L 284.243352 184.711107 
L 284.784443 184.602636 
L 285.866625 184.129704 
L 289.654261 182.58942 
L 290.736443 182.03405 
L 292.900807 181.122896 
L 295.606261 180.216081 
L 297.229534 179.543563 
L 297.770625 179.352655 
L 298.852807 178.779929 
L 299.934989 178.341708 
L 301.558261 177.682206 
L 303.181534 176.974977 
L 307.510261 175.343578 
L 308.051352 175.087587 
L 309.133534 174.766514 
L 310.215716 174.289243 
L 312.38008 173.547304 
L 314.003352 172.827058 
L 314.544443 172.453919 
L 318.33208 171.08285 
L 319.955352 170.327894 
L 321.578625 169.828929 
L 322.119716 169.707441 
L 323.201898 169.256203 
L 325.366261 168.462198 
L 327.530625 167.525011 
L 328.612807 167.112823 
L 330.77717 166.101876 
L 334.564807 164.930392 
L 336.18808 164.266552 
L 337.270261 163.810975 
L 340.516807 162.57007 
L 342.14008 162.114493 
L 343.763352 161.515735 
L 344.845534 161.233711 
L 351.338625 159.68475 
L 352.961898 159.090331 
L 354.58517 158.387441 
L 357.831716 157.415543 
L 358.913898 157.220296 
L 359.99608 156.72567 
L 361.619352 156.1703 
L 362.160443 156.070507 
L 363.242625 155.732078 
L 371.90008 152.929196 
L 374.064443 152.269694 
L 375.146625 151.848828 
L 377.310989 151.219698 
L 378.39317 150.76846 
L 379.475352 150.373626 
L 380.557534 149.961438 
L 381.639716 149.562266 
L 382.721898 149.280242 
L 388.673898 147.232315 
L 391.379352 146.008766 
L 392.461534 145.557528 
L 394.625898 144.594308 
L 395.70808 144.169103 
L 397.331352 143.457536 
L 398.413534 142.915182 
L 400.577898 142.103821 
L 400.577898 142.103821 
" style="fill:none;stroke:#0000f1;stroke-linecap:round;stroke-width:1.5;"/>
   </g>
   <g id="line2d_16">
    <path clip-path="url(#p358d260417)" d="M 75.923352 276.334125 
L 77.005534 275.396938 
L 78.628807 274.524834 
L 81.875352 274.247149 
L 84.039716 274.533512 
L 86.20408 274.65066 
L 87.827352 274.53785 
L 88.368443 274.581239 
L 89.450625 274.407686 
L 89.991716 274.50314 
L 90.532807 274.416363 
L 91.614989 274.385991 
L 93.779352 273.973803 
L 94.861534 273.830622 
L 97.025898 273.50521 
L 97.566989 273.548598 
L 98.64917 273.322979 
L 99.731352 273.062649 
L 100.272443 273.084343 
L 102.977898 272.242611 
L 104.60117 271.557076 
L 110.55317 269.569893 
L 112.717534 268.563285 
L 113.799716 268.185807 
L 114.881898 267.634776 
L 115.96408 267.114117 
L 118.128443 265.834163 
L 118.669534 265.526106 
L 119.210625 265.356892 
L 120.833898 264.380655 
L 121.91608 263.84698 
L 122.998261 263.308965 
L 124.080443 262.844711 
L 125.162625 262.102771 
L 126.785898 261.347815 
L 128.40917 260.297819 
L 129.491352 259.690383 
L 131.114625 258.922411 
L 134.36117 257.44287 
L 134.902261 257.282334 
L 137.066625 256.201966 
L 141.395352 254.696393 
L 142.477534 254.206105 
L 149.511716 251.047439 
L 151.134989 250.210045 
L 153.840443 249.251164 
L 154.922625 248.635051 
L 158.710261 246.851793 
L 162.497898 245.094568 
L 163.038989 244.673701 
L 164.12117 244.170397 
L 165.744443 243.202839 
L 167.367716 242.408833 
L 172.778625 239.562563 
L 173.860807 238.924755 
L 176.02517 237.774966 
L 177.107352 237.223935 
L 181.97717 234.581589 
L 184.141534 233.206181 
L 189.011352 230.442347 
L 191.175716 229.088633 
L 193.88117 227.544011 
L 194.963352 226.932236 
L 204.702989 221.152918 
L 205.24408 220.975026 
L 206.326261 220.237425 
L 207.408443 219.695072 
L 207.949534 219.512841 
L 211.73717 217.438882 
L 212.819352 216.909545 
L 214.442625 215.92897 
L 214.983716 215.798805 
L 216.065898 215.178353 
L 218.230261 214.184761 
L 220.935716 212.479602 
L 226.346625 209.63767 
L 227.969898 208.830648 
L 229.05208 208.249245 
L 230.675352 207.429207 
L 234.462989 205.324876 
L 236.086261 204.64368 
L 239.873898 202.860422 
L 241.49717 201.892863 
L 247.44917 198.890395 
L 247.990261 198.482545 
L 249.072443 198.009613 
L 255.565534 194.568922 
L 258.270989 193.43215 
L 260.435352 192.360459 
L 262.599716 191.497033 
L 264.222989 190.703027 
L 265.846261 190.134641 
L 266.928443 189.666047 
L 270.71608 187.774319 
L 271.798261 187.145189 
L 273.962625 186.277423 
L 275.585898 185.717715 
L 276.126989 185.353253 
L 277.20917 184.928048 
L 279.373534 184.003878 
L 280.996807 183.279293 
L 281.537898 183.101402 
L 282.078989 182.77599 
L 283.702261 182.233636 
L 292.359716 178.250593 
L 293.441898 177.599768 
L 297.229534 176.115889 
L 302.099352 174.154739 
L 303.181534 173.838005 
L 305.345898 172.740282 
L 306.42808 172.41487 
L 307.510261 171.941937 
L 309.674625 171.078511 
L 310.756807 170.575207 
L 311.297898 170.475414 
L 315.085534 169.030584 
L 322.660807 166.427288 
L 325.907352 165.572539 
L 334.564807 162.860772 
L 335.105898 162.613459 
L 336.18808 162.296724 
L 337.811352 161.728338 
L 338.893534 161.376893 
L 339.975716 160.973382 
L 341.598989 160.604581 
L 342.14008 160.305202 
L 343.763352 159.806237 
L 344.845534 159.385371 
L 347.009898 158.478556 
L 348.63317 158.083723 
L 349.715352 157.524014 
L 350.797534 157.090131 
L 351.879716 156.703976 
L 361.619352 153.567003 
L 362.160443 153.54097 
L 365.94808 152.356471 
L 367.030261 151.948621 
L 368.112443 151.462672 
L 369.194625 151.232714 
L 370.276807 150.942013 
L 371.358989 150.599245 
L 372.44117 150.334577 
L 374.064443 149.792224 
L 377.310989 148.681484 
L 379.475352 147.9569 
L 380.557534 147.692231 
L 392.461534 144.251541 
L 393.543716 143.956501 
L 394.625898 143.631089 
L 395.166989 143.570345 
L 396.24917 143.149479 
L 400.577898 142.155887 
L 400.577898 142.155887 
" style="fill:none;stroke:#004cff;stroke-linecap:round;stroke-width:1.5;"/>
   </g>
   <g id="line2d_17">
    <path clip-path="url(#p358d260417)" d="M 75.923352 276.334125 
L 77.005534 275.561814 
L 77.546625 275.162642 
L 79.169898 274.563883 
L 79.710989 274.446735 
L 81.334261 274.420702 
L 82.416443 274.459752 
L 83.498625 274.602933 
L 84.580807 274.581239 
L 85.662989 274.663676 
L 87.827352 274.511817 
L 88.368443 274.559545 
L 89.450625 274.425041 
L 91.073898 274.31657 
L 91.614989 274.160372 
L 92.15608 274.195083 
L 93.238261 274.034546 
L 94.861534 273.860993 
L 97.566989 273.409755 
L 100.813534 272.711204 
L 108.388807 270.502741 
L 115.422989 267.80399 
L 119.210625 266.055443 
L 120.833898 265.074868 
L 130.032443 259.191418 
L 133.278989 257.026343 
L 134.902261 256.132545 
L 135.984443 255.412299 
L 137.607716 254.288543 
L 139.230989 253.377389 
L 139.77208 252.934829 
L 140.854261 252.275327 
L 141.936443 251.507355 
L 144.641898 249.810873 
L 148.429534 247.728236 
L 150.052807 246.960263 
L 151.67608 246.292084 
L 153.840443 245.632582 
L 154.922625 245.155311 
L 156.004807 244.903659 
L 157.086989 244.526181 
L 158.710261 243.992505 
L 163.58008 242.530321 
L 167.908807 240.872889 
L 169.53208 240.27413 
L 171.155352 239.501819 
L 176.02517 237.3541 
L 179.812807 235.431999 
L 185.764807 232.590067 
L 186.305898 232.386142 
L 190.093534 230.008465 
L 191.716807 229.184088 
L 196.045534 226.940914 
L 197.127716 226.498353 
L 199.29208 225.274804 
L 200.915352 224.47646 
L 201.456443 224.298568 
L 202.538625 223.795264 
L 205.78517 222.163865 
L 212.278261 218.849001 
L 213.360443 218.29797 
L 214.442625 217.686195 
L 219.312443 215.195708 
L 220.935716 214.301909 
L 222.558989 213.425466 
L 224.723352 212.158529 
L 227.428807 210.800476 
L 228.510989 210.262461 
L 229.59317 209.707091 
L 230.134261 209.602959 
L 233.921898 207.780652 
L 253.40117 198.595354 
L 253.942261 198.456512 
L 256.106625 197.419532 
L 257.729898 196.68627 
L 258.270989 196.248049 
L 258.81208 196.052801 
L 259.894261 195.462721 
L 260.976443 195.007144 
L 262.058625 194.495162 
L 267.469534 192.147857 
L 275.044807 188.455515 
L 277.20917 187.644154 
L 278.291352 187.088784 
L 279.373534 186.581141 
L 280.996807 185.765442 
L 282.078989 185.348914 
L 285.866625 183.795614 
L 286.948807 183.257599 
L 288.030989 183.001609 
L 293.982989 180.402651 
L 303.181534 176.762375 
L 304.263716 176.306798 
L 305.886989 175.81651 
L 311.297898 173.508254 
L 314.003352 172.393176 
L 314.544443 172.119829 
L 315.626625 171.946276 
L 318.33208 170.974379 
L 323.742989 168.74856 
L 325.366261 168.019637 
L 325.907352 167.941539 
L 326.448443 167.655176 
L 326.989534 167.60311 
L 328.612807 166.869848 
L 330.23608 166.396916 
L 333.482625 164.960764 
L 334.564807 164.635352 
L 336.18808 163.949817 
L 339.434625 162.691557 
L 340.516807 162.34879 
L 345.927716 160.404995 
L 347.009898 160.162021 
L 348.09208 159.788882 
L 351.338625 158.751902 
L 352.961898 158.361408 
L 354.58517 157.641162 
L 357.290625 156.552117 
L 359.99608 155.896954 
L 363.242625 154.781875 
L 364.324807 154.439108 
L 367.030261 153.354401 
L 372.982261 151.384573 
L 375.146625 150.443048 
L 376.228807 150.187057 
L 377.310989 149.58396 
L 378.39317 149.271564 
L 378.934261 149.054623 
L 379.475352 148.967846 
L 383.262989 147.631487 
L 384.886261 147.154216 
L 388.673898 146.013105 
L 389.75608 145.665999 
L 391.920443 144.650713 
L 395.70808 143.5877 
L 398.413534 142.507332 
L 400.577898 141.55279 
L 400.577898 141.55279 
" style="fill:none;stroke:#00b0ff;stroke-linecap:round;stroke-width:1.5;"/>
   </g>
   <g id="line2d_18">
    <path clip-path="url(#p358d260417)" d="M 75.923352 276.334125 
L 77.546625 275.09322 
L 79.169898 274.455413 
L 81.334261 274.320909 
L 82.416443 274.442396 
L 85.662989 274.533512 
L 86.74517 274.529173 
L 92.15608 274.229794 
L 95.402625 273.787233 
L 95.943716 273.787233 
L 97.566989 273.444466 
L 98.64917 273.223186 
L 99.731352 272.988889 
L 100.272443 272.954178 
L 102.436807 272.307693 
L 104.06008 271.882488 
L 106.765534 271.010384 
L 111.094261 269.261836 
L 120.292807 264.545531 
L 127.86808 259.829226 
L 130.573534 257.92448 
L 133.278989 256.154239 
L 136.525534 253.89371 
L 138.148807 252.869746 
L 139.230989 252.140823 
L 140.31317 251.463966 
L 143.018625 249.884633 
L 146.26517 247.962533 
L 149.511716 246.339811 
L 151.67608 245.341881 
L 152.758261 244.712751 
L 153.299352 244.573908 
L 154.922625 243.714821 
L 156.545898 242.959865 
L 160.333534 241.024748 
L 161.415716 240.317519 
L 165.744443 237.922486 
L 166.826625 237.479926 
L 168.990989 236.035096 
L 171.155352 234.859274 
L 173.319716 233.279941 
L 174.942989 232.195234 
L 181.97717 227.392152 
L 185.223716 225.118606 
L 191.175716 221.443619 
L 192.798989 220.523788 
L 196.045534 218.883711 
L 196.586625 218.692803 
L 197.668807 218.115739 
L 199.83317 217.169874 
L 200.374261 216.978966 
L 200.915352 216.662232 
L 201.997534 216.401902 
L 203.079716 216.22401 
L 203.620807 216.15025 
L 204.161898 216.206655 
L 205.78517 216.00273 
L 210.654989 215.40831 
L 211.73717 215.213063 
L 212.819352 215.061204 
L 213.901534 214.996122 
L 214.983716 215.022155 
L 217.14808 214.783519 
L 217.68917 214.675049 
L 219.312443 213.885382 
L 220.394625 213.303979 
L 221.476807 212.518651 
L 223.10008 211.577126 
L 226.346625 209.316597 
L 227.969898 208.214535 
L 230.675352 206.092848 
L 231.757534 205.281487 
L 233.921898 203.585006 
L 256.106625 185.014824 
L 262.058625 180.354924 
L 268.010625 175.421677 
L 269.092807 174.549573 
L 272.339352 171.794417 
L 273.962625 170.553513 
L 275.585898 169.095667 
L 280.455716 164.947748 
L 284.243352 161.988667 
L 285.325534 160.977721 
L 329.694989 124.466488 
L 338.893534 116.973333 
L 342.14008 114.28326 
L 349.174261 108.851048 
L 350.797534 107.501673 
L 355.126261 104.139082 
L 357.290625 102.399212 
L 358.913898 101.084547 
L 360.53717 99.92608 
L 364.324807 96.858529 
L 365.94808 95.569897 
L 368.653534 93.400484 
L 369.735716 92.524041 
L 371.90008 90.710411 
L 374.605534 88.688517 
L 375.687716 87.79038 
L 377.310989 86.610219 
L 384.34517 80.974082 
L 387.050625 78.817685 
L 388.673898 77.416243 
L 390.29717 76.288148 
L 399.495716 69.050984 
L 400.577898 68.235285 
L 400.577898 68.235285 
" style="fill:none;stroke:#29ffce;stroke-linecap:round;stroke-width:1.5;"/>
   </g>
   <g id="line2d_19">
    <path clip-path="url(#p358d260417)" d="M 75.923352 276.334125 
L 77.005534 275.362228 
L 78.087716 274.79818 
L 79.169898 274.377314 
L 81.334261 274.234133 
L 83.498625 274.425041 
L 84.039716 274.364297 
L 86.20408 274.694048 
L 87.286261 274.741775 
L 91.073898 274.195083 
L 91.614989 274.286198 
L 93.238261 273.991158 
L 94.320443 273.904382 
L 95.943716 273.769878 
L 97.025898 273.366367 
L 98.10808 273.266574 
L 99.731352 273.006244 
L 101.354625 272.507279 
L 102.436807 272.233933 
L 102.977898 271.964926 
L 107.306625 270.780426 
L 110.01208 269.621959 
L 113.799716 267.413496 
L 114.881898 266.788705 
L 118.669534 264.545531 
L 119.751716 263.69946 
L 125.703716 259.056914 
L 127.86808 257.299689 
L 129.491352 255.993702 
L 130.573534 255.108581 
L 132.196807 253.650735 
L 134.902261 251.242686 
L 137.607716 249.147032 
L 139.230989 247.741252 
L 143.559716 244.135687 
L 145.182989 242.79065 
L 147.347352 240.968343 
L 148.429534 240.022478 
L 148.970625 239.636323 
L 150.052807 238.616698 
L 158.16917 231.8004 
L 159.792443 230.151646 
L 161.415716 228.80661 
L 176.566261 216.284754 
L 179.812807 213.421128 
L 181.97717 211.407912 
L 186.846989 207.155861 
L 189.011352 205.216405 
L 191.175716 203.177156 
L 204.161898 192.269344 
L 205.24408 191.362529 
L 212.819352 185.249121 
L 214.442625 183.830325 
L 218.771352 180.142321 
L 219.853534 179.343977 
L 220.935716 178.320014 
L 223.10008 176.523739 
L 226.346625 173.616725 
L 227.969898 172.297721 
L 229.05208 171.464666 
L 234.462989 167.169227 
L 235.54517 166.192991 
L 240.414989 162.244658 
L 243.661534 159.545908 
L 246.366989 157.324428 
L 247.990261 155.962036 
L 253.942261 150.87693 
L 255.024443 149.944082 
L 257.729898 147.605455 
L 258.81208 146.759383 
L 262.058625 144.225508 
L 263.681898 142.789356 
L 264.76408 141.921591 
L 290.195352 121.212367 
L 291.277534 120.218776 
L 293.441898 118.448534 
L 295.606261 116.769408 
L 312.38008 103.154168 
L 318.33208 98.63311 
L 322.119716 95.608947 
L 323.201898 94.667421 
L 326.448443 92.320116 
L 329.153898 90.3069 
L 331.318261 88.597402 
L 332.400443 87.647199 
L 333.482625 86.809805 
L 335.646989 84.913737 
L 337.811352 83.113124 
L 339.434625 81.876558 
L 341.598989 80.132349 
L 345.927716 76.860874 
L 347.009898 76.006125 
L 347.550989 75.632985 
L 348.63317 74.730509 
L 352.420807 71.931966 
L 357.290625 67.740658 
L 358.913898 66.595208 
L 360.53717 65.267527 
L 363.242625 63.015675 
L 381.639716 49.040312 
L 384.886261 46.45871 
L 386.509534 45.256855 
L 388.132807 43.959545 
L 391.379352 41.577529 
L 394.084807 39.39076 
L 395.166989 38.648821 
L 400.036807 34.834991 
L 400.577898 34.414125 
L 400.577898 34.414125 
" style="fill:none;stroke:#7dff7a;stroke-linecap:round;stroke-width:1.5;"/>
   </g>
   <g id="line2d_20">
    <path clip-path="url(#p358d260417)" d="M 75.923352 276.334125 
L 77.005534 275.470698 
L 78.087716 274.841568 
L 79.169898 274.42938 
L 80.25208 274.42938 
L 80.79317 274.31657 
L 81.875352 274.420702 
L 82.957534 274.542189 
L 87.286261 274.607272 
L 91.614989 274.290537 
L 93.779352 273.882688 
L 95.943716 273.691779 
L 97.025898 273.483515 
L 97.566989 273.414094 
L 99.190261 272.971534 
L 101.354625 272.559345 
L 106.224443 271.001706 
L 107.306625 270.585179 
L 108.388807 270.159974 
L 109.470989 269.812867 
L 111.635352 269.079606 
L 112.176443 269.005846 
L 113.799716 268.268245 
L 117.046261 266.606474 
L 120.833898 264.58458 
L 121.91608 264.011855 
L 135.984443 255.321184 
L 136.525534 255.147631 
L 138.148807 254.33627 
L 140.31317 253.420777 
L 140.854261 253.286274 
L 143.559716 252.101774 
L 146.26517 251.056116 
L 147.347352 250.357565 
L 151.134989 248.535258 
L 154.381534 247.242287 
L 155.463716 246.669562 
L 157.086989 245.728036 
L 158.16917 245.237749 
L 159.251352 244.712751 
L 161.956807 243.441474 
L 163.038989 242.808006 
L 166.285534 241.137557 
L 181.43608 232.941512 
L 185.223716 231.271064 
L 193.88117 227.283681 
L 195.504443 226.541742 
L 197.668807 225.47439 
L 198.750989 224.788855 
L 202.538625 223.296299 
L 203.620807 222.727912 
L 204.702989 222.228947 
L 205.78517 221.621511 
L 213.360443 218.089706 
L 213.901534 217.916153 
L 214.983716 217.22194 
L 216.606989 216.362853 
L 218.230261 215.538475 
L 218.771352 215.295501 
L 219.853534 214.614305 
L 222.558989 213.538276 
L 225.264443 212.158529 
L 229.05208 210.626923 
L 230.134261 209.993454 
L 233.921898 208.275278 
L 236.086261 207.407513 
L 238.250625 206.288095 
L 244.743716 203.394097 
L 245.825898 202.769306 
L 247.990261 201.6065 
L 250.154625 200.634603 
L 251.236807 200.257125 
L 254.483352 198.742874 
L 255.024443 198.569321 
L 257.729898 197.206929 
L 258.270989 197.016021 
L 259.35317 196.460651 
L 261.517534 195.35425 
L 262.058625 195.098259 
L 263.140807 194.768508 
L 265.30517 193.72719 
L 265.846261 193.501571 
L 266.387352 193.128432 
L 268.010625 192.364798 
L 269.633898 191.596826 
L 271.25717 190.867903 
L 273.421534 189.826584 
L 275.044807 189.002207 
L 280.455716 186.667918 
L 280.996807 186.51172 
L 282.078989 185.84354 
L 283.16117 185.361931 
L 284.243352 185.118956 
L 286.948807 183.930118 
L 289.654261 182.572065 
L 291.277534 181.851819 
L 293.982989 180.966698 
L 298.311716 179.192118 
L 300.47608 178.536955 
L 302.099352 177.894809 
L 303.181534 177.469604 
L 306.96917 175.92932 
L 307.510261 175.803494 
L 308.051352 175.534487 
L 308.592443 175.399983 
L 309.674625 174.927051 
L 311.297898 174.354326 
L 315.085534 172.718588 
L 317.249898 171.889872 
L 318.33208 171.408262 
L 322.119716 170.219423 
L 323.201898 169.872317 
L 324.28408 169.494839 
L 331.859352 166.626874 
L 332.400443 166.56613 
L 339.434625 164.08866 
L 340.516807 163.507257 
L 343.763352 162.452922 
L 347.550989 161.012431 
L 348.09208 160.72173 
L 349.174261 160.365946 
L 351.338625 159.654378 
L 355.126261 158.101078 
L 357.290625 157.515336 
L 359.454989 156.743025 
L 362.701534 155.771128 
L 363.783716 155.50212 
L 365.406989 154.903362 
L 373.523352 152.412875 
L 376.228807 151.423623 
L 379.475352 150.447386 
L 385.427352 148.39946 
L 386.509534 148.052354 
L 388.673898 147.427563 
L 389.75608 146.833143 
L 390.838261 146.603185 
L 391.379352 146.433971 
L 391.920443 146.386244 
L 392.461534 146.151947 
L 394.084807 145.796163 
L 395.70808 145.314554 
L 396.24917 145.240794 
L 396.790261 145.03253 
L 397.872443 144.789556 
L 398.954625 144.459805 
L 400.036807 143.952162 
L 400.577898 143.835013 
L 400.577898 143.835013 
" style="fill:none;stroke:#ceff29;stroke-linecap:round;stroke-width:1.5;"/>
   </g>
   <g id="line2d_21">
    <path clip-path="url(#p358d260417)" d="M 75.923352 276.334125 
L 77.546625 275.041154 
L 78.628807 274.533512 
L 79.710989 274.320909 
L 80.25208 274.394669 
L 81.334261 274.31657 
L 83.498625 274.668015 
L 84.039716 274.5769 
L 84.580807 274.728759 
L 85.121898 274.737437 
L 85.662989 274.624627 
L 87.286261 274.654999 
L 88.368443 274.598594 
L 94.320443 274.064918 
L 94.861534 273.804589 
L 96.484807 273.531242 
L 98.10808 273.231863 
L 99.731352 273.084343 
L 101.895716 272.476907 
L 105.142261 271.366168 
L 106.224443 271.058111 
L 106.765534 270.836831 
L 107.306625 270.737038 
L 109.470989 269.756463 
L 114.340807 267.439529 
L 117.587352 265.183339 
L 118.128443 264.667018 
L 120.292807 263.200494 
L 122.998261 261.29141 
L 124.621534 260.167654 
L 125.703716 259.18274 
L 127.326989 257.946174 
L 130.032443 255.59453 
L 131.114625 254.878623 
L 133.278989 252.913135 
L 136.525534 250.075542 
L 139.230989 248.105714 
L 143.559716 244.513165 
L 144.641898 243.75387 
L 148.429534 240.395618 
L 149.511716 239.34996 
L 150.052807 238.963805 
L 151.134989 237.970213 
L 155.463716 234.360309 
L 157.086989 232.915479 
L 160.333534 230.268794 
L 161.956807 229.049584 
L 163.58008 227.530994 
L 164.662261 226.758683 
L 168.449898 223.257249 
L 171.155352 221.07048 
L 190.093534 205.298843 
L 191.175716 204.365995 
L 192.257898 203.56765 
L 193.34008 202.530671 
L 194.963352 201.103197 
L 198.750989 198.05734 
L 200.374261 196.5778 
L 202.538625 194.686071 
L 213.901534 184.88466 
L 216.606989 182.832394 
L 217.68917 181.708638 
L 218.771352 180.758435 
L 220.394625 179.396043 
L 222.017898 178.133444 
L 223.10008 177.200596 
L 225.805534 174.762175 
L 226.887716 173.742551 
L 229.05208 172.033053 
L 230.675352 170.731405 
L 234.462989 167.624804 
L 236.086261 166.284107 
L 238.791716 164.158081 
L 257.188807 149.314953 
L 258.81208 147.84409 
L 263.681898 143.765592 
L 265.846261 141.891219 
L 268.010625 140.160027 
L 271.25717 137.387516 
L 275.585898 134.068313 
L 276.66808 133.352406 
L 278.832443 131.521421 
L 280.455716 130.241467 
L 281.537898 129.308619 
L 283.702261 127.629493 
L 285.866625 125.759459 
L 286.948807 124.909048 
L 304.804807 110.417365 
L 305.886989 109.549599 
L 307.510261 108.230596 
L 308.051352 107.9182 
L 317.249898 100.138683 
L 323.201898 95.504815 
L 325.366261 93.890771 
L 329.153898 90.584585 
L 332.400443 88.037693 
L 336.18808 85.130679 
L 343.222261 79.529252 
L 344.845534 78.110456 
L 346.468807 76.72637 
L 347.550989 75.915009 
L 352.961898 71.584859 
L 354.58517 70.335277 
L 356.749534 68.638796 
L 360.53717 65.73612 
L 365.406989 62.165265 
L 376.228807 54.138434 
L 377.310989 53.261991 
L 378.39317 52.459308 
L 385.968443 46.575858 
L 386.509534 46.23743 
L 388.132807 44.909749 
L 391.379352 42.445295 
L 393.002625 41.043853 
L 396.24917 38.453573 
L 398.954625 36.518456 
L 400.577898 35.28189 
L 400.577898 35.28189 
" style="fill:none;stroke:#ffc400;stroke-linecap:round;stroke-width:1.5;"/>
   </g>
   <g id="line2d_22">
    <path clip-path="url(#p358d260417)" d="M 75.923352 276.334125 
L 77.546625 275.140947 
L 78.087716 274.83723 
L 80.79317 274.42938 
L 82.957534 274.672354 
L 86.20408 274.520495 
L 86.74517 274.581239 
L 87.827352 274.385991 
L 88.368443 274.28186 
L 89.450625 274.31657 
L 89.991716 274.247149 
L 91.073898 274.312231 
L 93.779352 274.025869 
L 94.861534 273.678763 
L 95.943716 273.483515 
L 96.484807 273.461821 
L 99.190261 272.893435 
L 100.272443 272.719882 
L 102.436807 272.025669 
L 103.518989 271.882488 
L 104.60117 271.557076 
L 105.683352 271.196953 
L 106.765534 270.832492 
L 110.55317 269.608943 
L 111.094261 269.422373 
L 112.176443 268.793243 
L 117.587352 265.99036 
L 119.751716 264.831894 
L 121.374989 263.873013 
L 122.45717 263.209172 
L 131.655716 257.590391 
L 132.196807 257.134814 
L 134.36117 255.850521 
L 135.443352 255.108581 
L 138.689898 253.555281 
L 140.854261 252.305699 
L 142.477534 251.550743 
L 144.641898 250.622234 
L 146.806261 249.780501 
L 148.429534 248.956124 
L 151.67608 247.532989 
L 154.922625 246.326795 
L 155.463716 245.962333 
L 156.004807 245.78878 
L 158.16917 244.695396 
L 158.710261 244.565231 
L 160.874625 243.528251 
L 161.956807 242.890443 
L 163.58008 242.187553 
L 164.12117 241.983628 
L 167.908807 239.775165 
L 172.778625 237.076415 
L 174.401898 236.017741 
L 176.566261 234.902662 
L 177.648443 234.277871 
L 182.518261 232.013003 
L 183.600443 231.318791 
L 184.682625 230.867553 
L 191.175716 227.800002 
L 192.798989 227.040707 
L 193.34008 226.689262 
L 194.422261 226.207652 
L 199.83317 223.630388 
L 200.374261 223.474191 
L 201.456443 222.762623 
L 209.572807 219.33061 
L 210.654989 218.579993 
L 212.278261 217.751277 
L 213.360443 217.130825 
L 214.442625 216.701281 
L 215.524807 216.128556 
L 216.065898 215.985375 
L 217.14808 215.451699 
L 217.68917 215.286823 
L 218.771352 214.796536 
L 223.64117 212.527329 
L 224.723352 211.971959 
L 225.805534 211.30378 
L 226.887716 210.913285 
L 227.969898 210.37961 
L 232.298625 208.257923 
L 233.380807 207.737264 
L 239.873898 204.925703 
L 242.579352 203.641411 
L 243.661534 203.151123 
L 244.743716 202.613108 
L 245.825898 202.257325 
L 248.531352 200.899272 
L 262.599716 194.126362 
L 263.681898 193.696818 
L 265.30517 192.83773 
L 267.469534 191.857155 
L 268.551716 191.267075 
L 274.503716 188.572663 
L 278.291352 186.837132 
L 278.832443 186.516059 
L 279.373534 186.442299 
L 281.537898 185.591889 
L 282.078989 185.32722 
L 282.62008 185.205733 
L 293.982989 180.090255 
L 294.52408 179.721455 
L 297.229534 178.684475 
L 297.770625 178.320014 
L 298.852807 177.985924 
L 305.345898 175.482421 
L 307.510261 174.354326 
L 310.756807 173.430155 
L 312.38008 172.827058 
L 312.92117 172.675199 
L 313.462261 172.406192 
L 314.544443 172.020036 
L 315.626625 171.547104 
L 316.708807 171.169626 
L 317.249898 170.900619 
L 318.87317 170.392976 
L 319.414261 170.167357 
L 319.955352 170.071903 
L 321.037534 169.555582 
L 322.119716 169.169427 
L 323.742989 168.314678 
L 324.82517 168.028315 
L 325.907352 167.555383 
L 328.612807 166.41861 
L 329.694989 166.119231 
L 331.318261 165.385969 
L 337.811352 163.112424 
L 339.434625 162.344451 
L 339.975716 162.279369 
L 348.09208 159.398387 
L 350.256443 158.764919 
L 351.879716 157.992607 
L 352.961898 157.693228 
L 355.667352 156.699637 
L 356.749534 156.252738 
L 358.372807 155.706045 
L 361.078261 154.564934 
L 362.701534 154.065969 
L 364.865898 153.189525 
L 365.406989 152.851097 
L 368.653534 151.731679 
L 369.194625 151.675275 
L 372.44117 150.712055 
L 373.523352 150.43437 
L 374.605534 149.931066 
L 377.310989 149.02859 
L 378.39317 148.781277 
L 381.098625 147.900495 
L 381.639716 147.674876 
L 383.262989 147.375497 
L 391.920443 144.273235 
L 392.461534 143.986872 
L 394.084807 143.44018 
L 399.495716 141.214362 
L 400.577898 140.711058 
L 400.577898 140.711058 
" style="fill:none;stroke:#ff6800;stroke-linecap:round;stroke-width:1.5;"/>
   </g>
   <g id="line2d_23">
    <path clip-path="url(#p358d260417)" d="M 75.923352 276.334125 
L 77.005534 275.444665 
L 78.628807 274.472768 
L 81.875352 274.351281 
L 82.957534 274.481446 
L 85.121898 274.507479 
L 85.662989 274.53785 
L 86.74517 274.767808 
L 88.368443 274.607272 
L 89.450625 274.425041 
L 92.15608 274.190744 
L 93.779352 273.973803 
L 94.861534 273.644052 
L 95.943716 273.639713 
L 96.484807 273.474838 
L 97.025898 273.479177 
L 97.566989 273.270913 
L 98.64917 273.136409 
L 99.190261 273.127732 
L 104.06008 271.899843 
L 104.60117 271.57877 
L 106.224443 271.092821 
L 110.55317 269.474439 
L 111.094261 269.370307 
L 111.635352 269.036217 
L 113.799716 268.151097 
L 114.881898 267.678164 
L 115.96408 267.083745 
L 117.587352 266.298417 
L 119.210625 265.113917 
L 120.292807 264.627969 
L 122.998261 262.948842 
L 128.950261 259.165385 
L 129.491352 258.770552 
L 130.573534 258.323652 
L 132.196807 257.343077 
L 134.36117 256.028413 
L 135.443352 255.347217 
L 136.525534 254.89164 
L 139.77208 253.143092 
L 143.559716 251.234008 
L 145.182989 250.570168 
L 146.806261 249.862939 
L 151.67608 248.040631 
L 152.758261 247.550344 
L 154.381534 246.97328 
L 155.463716 246.49167 
L 156.004807 246.331133 
L 156.545898 245.966672 
L 159.251352 244.777833 
L 160.874625 244.079282 
L 161.415716 243.94044 
L 162.497898 243.402425 
L 167.908807 240.994376 
L 170.07317 239.870619 
L 171.155352 239.410704 
L 177.648443 236.208649 
L 179.812807 234.998116 
L 180.894989 234.329937 
L 183.600443 232.789653 
L 188.470261 230.255778 
L 189.011352 229.817556 
L 193.34008 227.626448 
L 194.422261 227.123144 
L 195.504443 226.494015 
L 196.586625 225.947322 
L 198.209898 225.287821 
L 203.079716 223.374398 
L 203.620807 222.962209 
L 212.278261 219.078958 
L 213.360443 218.853339 
L 219.853534 216.00273 
L 220.935716 215.525459 
L 222.558989 214.900668 
L 223.64117 214.401703 
L 224.723352 213.941787 
L 225.805534 213.360384 
L 227.428807 212.553362 
L 227.969898 212.379809 
L 229.05208 211.854811 
L 229.59317 211.707291 
L 231.757534 210.731055 
L 233.380807 210.019487 
L 234.462989 209.455439 
L 236.627352 208.535608 
L 254.483352 200.044523 
L 255.565534 199.402376 
L 256.647716 199.016221 
L 259.35317 197.658168 
L 268.010625 193.380084 
L 269.092807 192.850747 
L 271.25717 191.753023 
L 271.798261 191.423273 
L 273.962625 190.637945 
L 275.044807 190.147657 
L 278.832443 188.598696 
L 280.455716 187.765641 
L 283.16117 186.798083 
L 284.784443 186.247051 
L 285.866625 185.656971 
L 288.030989 184.893337 
L 290.195352 184.186108 
L 293.982989 182.624131 
L 294.52408 182.454916 
L 296.688443 181.417937 
L 299.934989 180.263808 
L 301.558261 179.721455 
L 303.181534 179.087986 
L 304.263716 178.762574 
L 305.345898 178.159477 
L 305.886989 177.994602 
L 306.96917 177.434893 
L 310.215716 175.911965 
L 311.297898 175.339239 
L 312.38008 174.970439 
L 313.462261 174.514862 
L 316.167716 173.378089 
L 317.249898 172.879124 
L 322.119716 170.922313 
L 323.201898 170.566529 
L 324.28408 170.058886 
L 325.907352 169.360335 
L 327.530625 168.692156 
L 328.612807 168.457859 
L 330.77717 167.685548 
L 333.482625 166.791749 
L 334.564807 166.405594 
L 336.72917 165.659315 
L 337.811352 165.34692 
L 341.057898 164.153742 
L 343.763352 163.147134 
L 345.927716 162.57007 
L 348.09208 161.680611 
L 349.174261 161.103547 
L 350.256443 160.851895 
L 351.338625 160.504788 
L 352.961898 159.888675 
L 355.126261 159.112025 
L 357.831716 158.235582 
L 359.454989 157.541369 
L 364.324807 155.684351 
L 364.865898 155.324228 
L 367.030261 154.556256 
L 368.112443 154.06163 
L 369.194625 153.679813 
L 370.276807 153.189525 
L 375.146625 151.258747 
L 376.769898 150.525485 
L 378.39317 149.774868 
L 380.016443 148.911442 
L 380.557534 148.820326 
L 382.180807 148.217229 
L 384.34517 147.661859 
L 385.968443 146.967647 
L 386.509534 146.837482 
L 387.050625 146.503392 
L 388.132807 146.095543 
L 390.29717 145.219099 
L 390.838261 145.114968 
L 391.920443 144.69844 
L 393.002625 144.312285 
L 394.084807 143.917451 
L 398.413534 142.689563 
L 400.577898 141.808781 
L 400.577898 141.808781 
" style="fill:none;stroke:#f10800;stroke-linecap:round;stroke-width:1.5;"/>
   </g>
   <g id="patch_3">
    <path d="M 59.690625 288.430125 
L 59.690625 22.318125 
" style="fill:none;stroke:#cccccc;stroke-linecap:square;stroke-linejoin:miter;stroke-width:0.8;"/>
   </g>
   <g id="patch_4">
    <path d="M 416.810625 288.430125 
L 416.810625 22.318125 
" style="fill:none;stroke:#cccccc;stroke-linecap:square;stroke-linejoin:miter;stroke-width:0.8;"/>
   </g>
   <g id="patch_5">
    <path d="M 59.690625 288.430125 
L 416.810625 288.430125 
" style="fill:none;stroke:#cccccc;stroke-linecap:square;stroke-linejoin:miter;stroke-width:0.8;"/>
   </g>
   <g id="patch_6">
    <path d="M 59.690625 22.318125 
L 416.810625 22.318125 
" style="fill:none;stroke:#cccccc;stroke-linecap:square;stroke-linejoin:miter;stroke-width:0.8;"/>
   </g>
   <g id="text_16">
    <!-- Naive T CD8 -->
    <defs>
     <path d="M 9.8125 72.90625 
L 23.09375 72.90625 
L 55.421875 11.921875 
L 55.421875 72.90625 
L 64.984375 72.90625 
L 64.984375 0 
L 51.703125 0 
L 19.390625 60.984375 
L 19.390625 0 
L 9.8125 0 
z
" id="DejaVuSans-78"/>
     <path d="M 2.984375 54.6875 
L 12.5 54.6875 
L 29.59375 8.796875 
L 46.6875 54.6875 
L 56.203125 54.6875 
L 35.6875 0 
L 23.484375 0 
z
" id="DejaVuSans-118"/>
     <path d="M -0.296875 72.90625 
L 61.375 72.90625 
L 61.375 64.59375 
L 35.5 64.59375 
L 35.5 0 
L 25.59375 0 
L 25.59375 64.59375 
L -0.296875 64.59375 
z
" id="DejaVuSans-84"/>
     <path d="M 64.40625 67.28125 
L 64.40625 56.890625 
Q 59.421875 61.53125 53.78125 63.8125 
Q 48.140625 66.109375 41.796875 66.109375 
Q 29.296875 66.109375 22.65625 58.46875 
Q 16.015625 50.828125 16.015625 36.375 
Q 16.015625 21.96875 22.65625 14.328125 
Q 29.296875 6.6875 41.796875 6.6875 
Q 48.140625 6.6875 53.78125 8.984375 
Q 59.421875 11.28125 64.40625 15.921875 
L 64.40625 5.609375 
Q 59.234375 2.09375 53.4375 0.328125 
Q 47.65625 -1.421875 41.21875 -1.421875 
Q 24.65625 -1.421875 15.125 8.703125 
Q 5.609375 18.84375 5.609375 36.375 
Q 5.609375 53.953125 15.125 64.078125 
Q 24.65625 74.21875 41.21875 74.21875 
Q 47.75 74.21875 53.53125 72.484375 
Q 59.328125 70.75 64.40625 67.28125 
z
" id="DejaVuSans-67"/>
     <path d="M 19.671875 64.796875 
L 19.671875 8.109375 
L 31.59375 8.109375 
Q 46.6875 8.109375 53.6875 14.9375 
Q 60.6875 21.78125 60.6875 36.53125 
Q 60.6875 51.171875 53.6875 57.984375 
Q 46.6875 64.796875 31.59375 64.796875 
z
M 9.8125 72.90625 
L 30.078125 72.90625 
Q 51.265625 72.90625 61.171875 64.09375 
Q 71.09375 55.28125 71.09375 36.53125 
Q 71.09375 17.671875 61.125 8.828125 
Q 51.171875 0 30.078125 0 
L 9.8125 0 
z
" id="DejaVuSans-68"/>
     <path d="M 31.78125 34.625 
Q 24.75 34.625 20.71875 30.859375 
Q 16.703125 27.09375 16.703125 20.515625 
Q 16.703125 13.921875 20.71875 10.15625 
Q 24.75 6.390625 31.78125 6.390625 
Q 38.8125 6.390625 42.859375 10.171875 
Q 46.921875 13.96875 46.921875 20.515625 
Q 46.921875 27.09375 42.890625 30.859375 
Q 38.875 34.625 31.78125 34.625 
z
M 21.921875 38.8125 
Q 15.578125 40.375 12.03125 44.71875 
Q 8.5 49.078125 8.5 55.328125 
Q 8.5 64.0625 14.71875 69.140625 
Q 20.953125 74.21875 31.78125 74.21875 
Q 42.671875 74.21875 48.875 69.140625 
Q 55.078125 64.0625 55.078125 55.328125 
Q 55.078125 49.078125 51.53125 44.71875 
Q 48 40.375 41.703125 38.8125 
Q 48.828125 37.15625 52.796875 32.3125 
Q 56.78125 27.484375 56.78125 20.515625 
Q 56.78125 9.90625 50.3125 4.234375 
Q 43.84375 -1.421875 31.78125 -1.421875 
Q 19.734375 -1.421875 13.25 4.234375 
Q 6.78125 9.90625 6.78125 20.515625 
Q 6.78125 27.484375 10.78125 32.3125 
Q 14.796875 37.15625 21.921875 38.8125 
z
M 18.3125 54.390625 
Q 18.3125 48.734375 21.84375 45.5625 
Q 25.390625 42.390625 31.78125 42.390625 
Q 38.140625 42.390625 41.71875 45.5625 
Q 45.3125 48.734375 45.3125 54.390625 
Q 45.3125 60.0625 41.71875 63.234375 
Q 38.140625 66.40625 31.78125 66.40625 
Q 25.390625 66.40625 21.84375 63.234375 
Q 18.3125 60.0625 18.3125 54.390625 
z
" id="DejaVuSans-56"/>
    </defs>
    <g style="fill:#262626;" transform="translate(201.069375 16.318125)scale(0.12 -0.12)">
     <use xlink:href="#DejaVuSans-78"/>
     <use x="74.804688" xlink:href="#DejaVuSans-97"/>
     <use x="136.083984" xlink:href="#DejaVuSans-105"/>
     <use x="163.867188" xlink:href="#DejaVuSans-118"/>
     <use x="223.046875" xlink:href="#DejaVuSans-101"/>
     <use x="284.570312" xlink:href="#DejaVuSans-32"/>
     <use x="316.357422" xlink:href="#DejaVuSans-84"/>
     <use x="377.441406" xlink:href="#DejaVuSans-32"/>
     <use x="409.228516" xlink:href="#DejaVuSans-67"/>
     <use x="479.052734" xlink:href="#DejaVuSans-68"/>
     <use x="556.054688" xlink:href="#DejaVuSans-56"/>
    </g>
   </g>
  </g>
 </g>
 <defs>
  <clipPath id="p358d260417">
   <rect height="266.112" width="357.12" x="59.690625" y="22.318125"/>
  </clipPath>
 </defs>
</svg>
