<?xml version="1.0" encoding="utf-8" standalone="no"?>
<!DOCTYPE svg PUBLIC "-//W3C//DTD SVG 1.1//EN"
  "http://www.w3.org/Graphics/SVG/1.1/DTD/svg11.dtd">
<!-- Created with matplotlib (https://matplotlib.org/) -->
<svg height="325.986375pt" version="1.1" viewBox="0 0 424.010625 325.986375" width="424.010625pt" xmlns="http://www.w3.org/2000/svg" xmlns:xlink="http://www.w3.org/1999/xlink">
 <defs>
  <style type="text/css">
*{stroke-linecap:butt;stroke-linejoin:round;white-space:pre;}
  </style>
 </defs>
 <g id="figure_1">
  <g id="patch_1">
   <path d="M 0 325.986375 
L 424.010625 325.986375 
L 424.010625 0 
L 0 0 
z
" style="fill:#ffffff;"/>
  </g>
  <g id="axes_1">
   <g id="patch_2">
    <path d="M 59.690625 288.430125 
L 416.810625 288.430125 
L 416.810625 22.318125 
L 59.690625 22.318125 
z
" style="fill:#ffffff;"/>
   </g>
   <g id="matplotlib.axis_1">
    <g id="xtick_1">
     <g id="line2d_1">
      <path clip-path="url(#p8f689484de)" d="M 75.923352 288.430125 
L 75.923352 22.318125 
" style="fill:none;stroke:#cccccc;stroke-linecap:round;stroke-width:0.8;"/>
     </g>
     <g id="text_1">
      <!-- 0 -->
      <defs>
       <path d="M 31.78125 66.40625 
Q 24.171875 66.40625 20.328125 58.90625 
Q 16.5 51.421875 16.5 36.375 
Q 16.5 21.390625 20.328125 13.890625 
Q 24.171875 6.390625 31.78125 6.390625 
Q 39.453125 6.390625 43.28125 13.890625 
Q 47.125 21.390625 47.125 36.375 
Q 47.125 51.421875 43.28125 58.90625 
Q 39.453125 66.40625 31.78125 66.40625 
z
M 31.78125 74.21875 
Q 44.046875 74.21875 50.515625 64.515625 
Q 56.984375 54.828125 56.984375 36.375 
Q 56.984375 17.96875 50.515625 8.265625 
Q 44.046875 -1.421875 31.78125 -1.421875 
Q 19.53125 -1.421875 13.0625 8.265625 
Q 6.59375 17.96875 6.59375 36.375 
Q 6.59375 54.828125 13.0625 64.515625 
Q 19.53125 74.21875 31.78125 74.21875 
z
" id="DejaVuSans-48"/>
      </defs>
      <g style="fill:#262626;" transform="translate(72.742102 303.028562)scale(0.1 -0.1)">
       <use xlink:href="#DejaVuSans-48"/>
      </g>
     </g>
    </g>
    <g id="xtick_2">
     <g id="line2d_2">
      <path clip-path="url(#p8f689484de)" d="M 130.032443 288.430125 
L 130.032443 22.318125 
" style="fill:none;stroke:#cccccc;stroke-linecap:round;stroke-width:0.8;"/>
     </g>
     <g id="text_2">
      <!-- 10 -->
      <defs>
       <path d="M 12.40625 8.296875 
L 28.515625 8.296875 
L 28.515625 63.921875 
L 10.984375 60.40625 
L 10.984375 69.390625 
L 28.421875 72.90625 
L 38.28125 72.90625 
L 38.28125 8.296875 
L 54.390625 8.296875 
L 54.390625 0 
L 12.40625 0 
z
" id="DejaVuSans-49"/>
      </defs>
      <g style="fill:#262626;" transform="translate(123.669943 303.028562)scale(0.1 -0.1)">
       <use xlink:href="#DejaVuSans-49"/>
       <use x="63.623047" xlink:href="#DejaVuSans-48"/>
      </g>
     </g>
    </g>
    <g id="xtick_3">
     <g id="line2d_3">
      <path clip-path="url(#p8f689484de)" d="M 184.141534 288.430125 
L 184.141534 22.318125 
" style="fill:none;stroke:#cccccc;stroke-linecap:round;stroke-width:0.8;"/>
     </g>
     <g id="text_3">
      <!-- 20 -->
      <defs>
       <path d="M 19.1875 8.296875 
L 53.609375 8.296875 
L 53.609375 0 
L 7.328125 0 
L 7.328125 8.296875 
Q 12.9375 14.109375 22.625 23.890625 
Q 32.328125 33.6875 34.8125 36.53125 
Q 39.546875 41.84375 41.421875 45.53125 
Q 43.3125 49.21875 43.3125 52.78125 
Q 43.3125 58.59375 39.234375 62.25 
Q 35.15625 65.921875 28.609375 65.921875 
Q 23.96875 65.921875 18.8125 64.3125 
Q 13.671875 62.703125 7.8125 59.421875 
L 7.8125 69.390625 
Q 13.765625 71.78125 18.9375 73 
Q 24.125 74.21875 28.421875 74.21875 
Q 39.75 74.21875 46.484375 68.546875 
Q 53.21875 62.890625 53.21875 53.421875 
Q 53.21875 48.921875 51.53125 44.890625 
Q 49.859375 40.875 45.40625 35.40625 
Q 44.1875 33.984375 37.640625 27.21875 
Q 31.109375 20.453125 19.1875 8.296875 
z
" id="DejaVuSans-50"/>
      </defs>
      <g style="fill:#262626;" transform="translate(177.779034 303.028562)scale(0.1 -0.1)">
       <use xlink:href="#DejaVuSans-50"/>
       <use x="63.623047" xlink:href="#DejaVuSans-48"/>
      </g>
     </g>
    </g>
    <g id="xtick_4">
     <g id="line2d_4">
      <path clip-path="url(#p8f689484de)" d="M 238.250625 288.430125 
L 238.250625 22.318125 
" style="fill:none;stroke:#cccccc;stroke-linecap:round;stroke-width:0.8;"/>
     </g>
     <g id="text_4">
      <!-- 30 -->
      <defs>
       <path d="M 40.578125 39.3125 
Q 47.65625 37.796875 51.625 33 
Q 55.609375 28.21875 55.609375 21.1875 
Q 55.609375 10.40625 48.1875 4.484375 
Q 40.765625 -1.421875 27.09375 -1.421875 
Q 22.515625 -1.421875 17.65625 -0.515625 
Q 12.796875 0.390625 7.625 2.203125 
L 7.625 11.71875 
Q 11.71875 9.328125 16.59375 8.109375 
Q 21.484375 6.890625 26.8125 6.890625 
Q 36.078125 6.890625 40.9375 10.546875 
Q 45.796875 14.203125 45.796875 21.1875 
Q 45.796875 27.640625 41.28125 31.265625 
Q 36.765625 34.90625 28.71875 34.90625 
L 20.21875 34.90625 
L 20.21875 43.015625 
L 29.109375 43.015625 
Q 36.375 43.015625 40.234375 45.921875 
Q 44.09375 48.828125 44.09375 54.296875 
Q 44.09375 59.90625 40.109375 62.90625 
Q 36.140625 65.921875 28.71875 65.921875 
Q 24.65625 65.921875 20.015625 65.03125 
Q 15.375 64.15625 9.8125 62.3125 
L 9.8125 71.09375 
Q 15.4375 72.65625 20.34375 73.4375 
Q 25.25 74.21875 29.59375 74.21875 
Q 40.828125 74.21875 47.359375 69.109375 
Q 53.90625 64.015625 53.90625 55.328125 
Q 53.90625 49.265625 50.4375 45.09375 
Q 46.96875 40.921875 40.578125 39.3125 
z
" id="DejaVuSans-51"/>
      </defs>
      <g style="fill:#262626;" transform="translate(231.888125 303.028562)scale(0.1 -0.1)">
       <use xlink:href="#DejaVuSans-51"/>
       <use x="63.623047" xlink:href="#DejaVuSans-48"/>
      </g>
     </g>
    </g>
    <g id="xtick_5">
     <g id="line2d_5">
      <path clip-path="url(#p8f689484de)" d="M 292.359716 288.430125 
L 292.359716 22.318125 
" style="fill:none;stroke:#cccccc;stroke-linecap:round;stroke-width:0.8;"/>
     </g>
     <g id="text_5">
      <!-- 40 -->
      <defs>
       <path d="M 37.796875 64.3125 
L 12.890625 25.390625 
L 37.796875 25.390625 
z
M 35.203125 72.90625 
L 47.609375 72.90625 
L 47.609375 25.390625 
L 58.015625 25.390625 
L 58.015625 17.1875 
L 47.609375 17.1875 
L 47.609375 0 
L 37.796875 0 
L 37.796875 17.1875 
L 4.890625 17.1875 
L 4.890625 26.703125 
z
" id="DejaVuSans-52"/>
      </defs>
      <g style="fill:#262626;" transform="translate(285.997216 303.028562)scale(0.1 -0.1)">
       <use xlink:href="#DejaVuSans-52"/>
       <use x="63.623047" xlink:href="#DejaVuSans-48"/>
      </g>
     </g>
    </g>
    <g id="xtick_6">
     <g id="line2d_6">
      <path clip-path="url(#p8f689484de)" d="M 346.468807 288.430125 
L 346.468807 22.318125 
" style="fill:none;stroke:#cccccc;stroke-linecap:round;stroke-width:0.8;"/>
     </g>
     <g id="text_6">
      <!-- 50 -->
      <defs>
       <path d="M 10.796875 72.90625 
L 49.515625 72.90625 
L 49.515625 64.59375 
L 19.828125 64.59375 
L 19.828125 46.734375 
Q 21.96875 47.46875 24.109375 47.828125 
Q 26.265625 48.1875 28.421875 48.1875 
Q 40.625 48.1875 47.75 41.5 
Q 54.890625 34.8125 54.890625 23.390625 
Q 54.890625 11.625 47.5625 5.09375 
Q 40.234375 -1.421875 26.90625 -1.421875 
Q 22.3125 -1.421875 17.546875 -0.640625 
Q 12.796875 0.140625 7.71875 1.703125 
L 7.71875 11.625 
Q 12.109375 9.234375 16.796875 8.0625 
Q 21.484375 6.890625 26.703125 6.890625 
Q 35.15625 6.890625 40.078125 11.328125 
Q 45.015625 15.765625 45.015625 23.390625 
Q 45.015625 31 40.078125 35.4375 
Q 35.15625 39.890625 26.703125 39.890625 
Q 22.75 39.890625 18.8125 39.015625 
Q 14.890625 38.140625 10.796875 36.28125 
z
" id="DejaVuSans-53"/>
      </defs>
      <g style="fill:#262626;" transform="translate(340.106307 303.028562)scale(0.1 -0.1)">
       <use xlink:href="#DejaVuSans-53"/>
       <use x="63.623047" xlink:href="#DejaVuSans-48"/>
      </g>
     </g>
    </g>
    <g id="xtick_7">
     <g id="line2d_7">
      <path clip-path="url(#p8f689484de)" d="M 400.577898 288.430125 
L 400.577898 22.318125 
" style="fill:none;stroke:#cccccc;stroke-linecap:round;stroke-width:0.8;"/>
     </g>
     <g id="text_7">
      <!-- 60 -->
      <defs>
       <path d="M 33.015625 40.375 
Q 26.375 40.375 22.484375 35.828125 
Q 18.609375 31.296875 18.609375 23.390625 
Q 18.609375 15.53125 22.484375 10.953125 
Q 26.375 6.390625 33.015625 6.390625 
Q 39.65625 6.390625 43.53125 10.953125 
Q 47.40625 15.53125 47.40625 23.390625 
Q 47.40625 31.296875 43.53125 35.828125 
Q 39.65625 40.375 33.015625 40.375 
z
M 52.59375 71.296875 
L 52.59375 62.3125 
Q 48.875 64.0625 45.09375 64.984375 
Q 41.3125 65.921875 37.59375 65.921875 
Q 27.828125 65.921875 22.671875 59.328125 
Q 17.53125 52.734375 16.796875 39.40625 
Q 19.671875 43.65625 24.015625 45.921875 
Q 28.375 48.1875 33.59375 48.1875 
Q 44.578125 48.1875 50.953125 41.515625 
Q 57.328125 34.859375 57.328125 23.390625 
Q 57.328125 12.15625 50.6875 5.359375 
Q 44.046875 -1.421875 33.015625 -1.421875 
Q 20.359375 -1.421875 13.671875 8.265625 
Q 6.984375 17.96875 6.984375 36.375 
Q 6.984375 53.65625 15.1875 63.9375 
Q 23.390625 74.21875 37.203125 74.21875 
Q 40.921875 74.21875 44.703125 73.484375 
Q 48.484375 72.75 52.59375 71.296875 
z
" id="DejaVuSans-54"/>
      </defs>
      <g style="fill:#262626;" transform="translate(394.215398 303.028562)scale(0.1 -0.1)">
       <use xlink:href="#DejaVuSans-54"/>
       <use x="63.623047" xlink:href="#DejaVuSans-48"/>
      </g>
     </g>
    </g>
    <g id="text_8">
     <!-- time (days) -->
     <defs>
      <path d="M 18.3125 70.21875 
L 18.3125 54.6875 
L 36.8125 54.6875 
L 36.8125 47.703125 
L 18.3125 47.703125 
L 18.3125 18.015625 
Q 18.3125 11.328125 20.140625 9.421875 
Q 21.96875 7.515625 27.59375 7.515625 
L 36.8125 7.515625 
L 36.8125 0 
L 27.59375 0 
Q 17.1875 0 13.234375 3.875 
Q 9.28125 7.765625 9.28125 18.015625 
L 9.28125 47.703125 
L 2.6875 47.703125 
L 2.6875 54.6875 
L 9.28125 54.6875 
L 9.28125 70.21875 
z
" id="DejaVuSans-116"/>
      <path d="M 9.421875 54.6875 
L 18.40625 54.6875 
L 18.40625 0 
L 9.421875 0 
z
M 9.421875 75.984375 
L 18.40625 75.984375 
L 18.40625 64.59375 
L 9.421875 64.59375 
z
" id="DejaVuSans-105"/>
      <path d="M 52 44.1875 
Q 55.375 50.25 60.0625 53.125 
Q 64.75 56 71.09375 56 
Q 79.640625 56 84.28125 50.015625 
Q 88.921875 44.046875 88.921875 33.015625 
L 88.921875 0 
L 79.890625 0 
L 79.890625 32.71875 
Q 79.890625 40.578125 77.09375 44.375 
Q 74.3125 48.1875 68.609375 48.1875 
Q 61.625 48.1875 57.5625 43.546875 
Q 53.515625 38.921875 53.515625 30.90625 
L 53.515625 0 
L 44.484375 0 
L 44.484375 32.71875 
Q 44.484375 40.625 41.703125 44.40625 
Q 38.921875 48.1875 33.109375 48.1875 
Q 26.21875 48.1875 22.15625 43.53125 
Q 18.109375 38.875 18.109375 30.90625 
L 18.109375 0 
L 9.078125 0 
L 9.078125 54.6875 
L 18.109375 54.6875 
L 18.109375 46.1875 
Q 21.1875 51.21875 25.484375 53.609375 
Q 29.78125 56 35.6875 56 
Q 41.65625 56 45.828125 52.96875 
Q 50 49.953125 52 44.1875 
z
" id="DejaVuSans-109"/>
      <path d="M 56.203125 29.59375 
L 56.203125 25.203125 
L 14.890625 25.203125 
Q 15.484375 15.921875 20.484375 11.0625 
Q 25.484375 6.203125 34.421875 6.203125 
Q 39.59375 6.203125 44.453125 7.46875 
Q 49.3125 8.734375 54.109375 11.28125 
L 54.109375 2.78125 
Q 49.265625 0.734375 44.1875 -0.34375 
Q 39.109375 -1.421875 33.890625 -1.421875 
Q 20.796875 -1.421875 13.15625 6.1875 
Q 5.515625 13.8125 5.515625 26.8125 
Q 5.515625 40.234375 12.765625 48.109375 
Q 20.015625 56 32.328125 56 
Q 43.359375 56 49.78125 48.890625 
Q 56.203125 41.796875 56.203125 29.59375 
z
M 47.21875 32.234375 
Q 47.125 39.59375 43.09375 43.984375 
Q 39.0625 48.390625 32.421875 48.390625 
Q 24.90625 48.390625 20.390625 44.140625 
Q 15.875 39.890625 15.1875 32.171875 
z
" id="DejaVuSans-101"/>
      <path id="DejaVuSans-32"/>
      <path d="M 31 75.875 
Q 24.46875 64.65625 21.28125 53.65625 
Q 18.109375 42.671875 18.109375 31.390625 
Q 18.109375 20.125 21.3125 9.0625 
Q 24.515625 -2 31 -13.1875 
L 23.1875 -13.1875 
Q 15.875 -1.703125 12.234375 9.375 
Q 8.59375 20.453125 8.59375 31.390625 
Q 8.59375 42.28125 12.203125 53.3125 
Q 15.828125 64.359375 23.1875 75.875 
z
" id="DejaVuSans-40"/>
      <path d="M 45.40625 46.390625 
L 45.40625 75.984375 
L 54.390625 75.984375 
L 54.390625 0 
L 45.40625 0 
L 45.40625 8.203125 
Q 42.578125 3.328125 38.25 0.953125 
Q 33.9375 -1.421875 27.875 -1.421875 
Q 17.96875 -1.421875 11.734375 6.484375 
Q 5.515625 14.40625 5.515625 27.296875 
Q 5.515625 40.1875 11.734375 48.09375 
Q 17.96875 56 27.875 56 
Q 33.9375 56 38.25 53.625 
Q 42.578125 51.265625 45.40625 46.390625 
z
M 14.796875 27.296875 
Q 14.796875 17.390625 18.875 11.75 
Q 22.953125 6.109375 30.078125 6.109375 
Q 37.203125 6.109375 41.296875 11.75 
Q 45.40625 17.390625 45.40625 27.296875 
Q 45.40625 37.203125 41.296875 42.84375 
Q 37.203125 48.484375 30.078125 48.484375 
Q 22.953125 48.484375 18.875 42.84375 
Q 14.796875 37.203125 14.796875 27.296875 
z
" id="DejaVuSans-100"/>
      <path d="M 34.28125 27.484375 
Q 23.390625 27.484375 19.1875 25 
Q 14.984375 22.515625 14.984375 16.5 
Q 14.984375 11.71875 18.140625 8.90625 
Q 21.296875 6.109375 26.703125 6.109375 
Q 34.1875 6.109375 38.703125 11.40625 
Q 43.21875 16.703125 43.21875 25.484375 
L 43.21875 27.484375 
z
M 52.203125 31.203125 
L 52.203125 0 
L 43.21875 0 
L 43.21875 8.296875 
Q 40.140625 3.328125 35.546875 0.953125 
Q 30.953125 -1.421875 24.3125 -1.421875 
Q 15.921875 -1.421875 10.953125 3.296875 
Q 6 8.015625 6 15.921875 
Q 6 25.140625 12.171875 29.828125 
Q 18.359375 34.515625 30.609375 34.515625 
L 43.21875 34.515625 
L 43.21875 35.40625 
Q 43.21875 41.609375 39.140625 45 
Q 35.0625 48.390625 27.6875 48.390625 
Q 23 48.390625 18.546875 47.265625 
Q 14.109375 46.140625 10.015625 43.890625 
L 10.015625 52.203125 
Q 14.9375 54.109375 19.578125 55.046875 
Q 24.21875 56 28.609375 56 
Q 40.484375 56 46.34375 49.84375 
Q 52.203125 43.703125 52.203125 31.203125 
z
" id="DejaVuSans-97"/>
      <path d="M 32.171875 -5.078125 
Q 28.375 -14.84375 24.75 -17.8125 
Q 21.140625 -20.796875 15.09375 -20.796875 
L 7.90625 -20.796875 
L 7.90625 -13.28125 
L 13.1875 -13.28125 
Q 16.890625 -13.28125 18.9375 -11.515625 
Q 21 -9.765625 23.484375 -3.21875 
L 25.09375 0.875 
L 2.984375 54.6875 
L 12.5 54.6875 
L 29.59375 11.921875 
L 46.6875 54.6875 
L 56.203125 54.6875 
z
" id="DejaVuSans-121"/>
      <path d="M 44.28125 53.078125 
L 44.28125 44.578125 
Q 40.484375 46.53125 36.375 47.5 
Q 32.28125 48.484375 27.875 48.484375 
Q 21.1875 48.484375 17.84375 46.4375 
Q 14.5 44.390625 14.5 40.28125 
Q 14.5 37.15625 16.890625 35.375 
Q 19.28125 33.59375 26.515625 31.984375 
L 29.59375 31.296875 
Q 39.15625 29.25 43.1875 25.515625 
Q 47.21875 21.78125 47.21875 15.09375 
Q 47.21875 7.46875 41.1875 3.015625 
Q 35.15625 -1.421875 24.609375 -1.421875 
Q 20.21875 -1.421875 15.453125 -0.5625 
Q 10.6875 0.296875 5.421875 2 
L 5.421875 11.28125 
Q 10.40625 8.6875 15.234375 7.390625 
Q 20.0625 6.109375 24.8125 6.109375 
Q 31.15625 6.109375 34.5625 8.28125 
Q 37.984375 10.453125 37.984375 14.40625 
Q 37.984375 18.0625 35.515625 20.015625 
Q 33.0625 21.96875 24.703125 23.78125 
L 21.578125 24.515625 
Q 13.234375 26.265625 9.515625 29.90625 
Q 5.8125 33.546875 5.8125 39.890625 
Q 5.8125 47.609375 11.28125 51.796875 
Q 16.75 56 26.8125 56 
Q 31.78125 56 36.171875 55.265625 
Q 40.578125 54.546875 44.28125 53.078125 
z
" id="DejaVuSans-115"/>
      <path d="M 8.015625 75.875 
L 15.828125 75.875 
Q 23.140625 64.359375 26.78125 53.3125 
Q 30.421875 42.28125 30.421875 31.390625 
Q 30.421875 20.453125 26.78125 9.375 
Q 23.140625 -1.703125 15.828125 -13.1875 
L 8.015625 -13.1875 
Q 14.5 -2 17.703125 9.0625 
Q 20.90625 20.125 20.90625 31.390625 
Q 20.90625 42.671875 17.703125 53.65625 
Q 14.5 64.65625 8.015625 75.875 
z
" id="DejaVuSans-41"/>
     </defs>
     <g style="fill:#262626;" transform="translate(209.661563 316.706687)scale(0.1 -0.1)">
      <use xlink:href="#DejaVuSans-116"/>
      <use x="39.208984" xlink:href="#DejaVuSans-105"/>
      <use x="66.992188" xlink:href="#DejaVuSans-109"/>
      <use x="164.404297" xlink:href="#DejaVuSans-101"/>
      <use x="225.927734" xlink:href="#DejaVuSans-32"/>
      <use x="257.714844" xlink:href="#DejaVuSans-40"/>
      <use x="296.728516" xlink:href="#DejaVuSans-100"/>
      <use x="360.205078" xlink:href="#DejaVuSans-97"/>
      <use x="421.484375" xlink:href="#DejaVuSans-121"/>
      <use x="480.664062" xlink:href="#DejaVuSans-115"/>
      <use x="532.763672" xlink:href="#DejaVuSans-41"/>
     </g>
    </g>
   </g>
   <g id="matplotlib.axis_2">
    <g id="ytick_1">
     <g id="line2d_8">
      <path clip-path="url(#p8f689484de)" d="M 59.690625 276.334125 
L 416.810625 276.334125 
" style="fill:none;stroke:#cccccc;stroke-linecap:round;stroke-width:0.8;"/>
     </g>
     <g id="text_9">
      <!-- 0 -->
      <g style="fill:#262626;" transform="translate(46.328125 280.133344)scale(0.1 -0.1)">
       <use xlink:href="#DejaVuSans-48"/>
      </g>
     </g>
    </g>
    <g id="ytick_2">
     <g id="line2d_9">
      <path clip-path="url(#p8f689484de)" d="M 59.690625 235.856261 
L 416.810625 235.856261 
" style="fill:none;stroke:#cccccc;stroke-linecap:round;stroke-width:0.8;"/>
     </g>
     <g id="text_10">
      <!-- 10000 -->
      <g style="fill:#262626;" transform="translate(20.878125 239.65548)scale(0.1 -0.1)">
       <use xlink:href="#DejaVuSans-49"/>
       <use x="63.623047" xlink:href="#DejaVuSans-48"/>
       <use x="127.246094" xlink:href="#DejaVuSans-48"/>
       <use x="190.869141" xlink:href="#DejaVuSans-48"/>
       <use x="254.492188" xlink:href="#DejaVuSans-48"/>
      </g>
     </g>
    </g>
    <g id="ytick_3">
     <g id="line2d_10">
      <path clip-path="url(#p8f689484de)" d="M 59.690625 195.378398 
L 416.810625 195.378398 
" style="fill:none;stroke:#cccccc;stroke-linecap:round;stroke-width:0.8;"/>
     </g>
     <g id="text_11">
      <!-- 20000 -->
      <g style="fill:#262626;" transform="translate(20.878125 199.177616)scale(0.1 -0.1)">
       <use xlink:href="#DejaVuSans-50"/>
       <use x="63.623047" xlink:href="#DejaVuSans-48"/>
       <use x="127.246094" xlink:href="#DejaVuSans-48"/>
       <use x="190.869141" xlink:href="#DejaVuSans-48"/>
       <use x="254.492188" xlink:href="#DejaVuSans-48"/>
      </g>
     </g>
    </g>
    <g id="ytick_4">
     <g id="line2d_11">
      <path clip-path="url(#p8f689484de)" d="M 59.690625 154.900534 
L 416.810625 154.900534 
" style="fill:none;stroke:#cccccc;stroke-linecap:round;stroke-width:0.8;"/>
     </g>
     <g id="text_12">
      <!-- 30000 -->
      <g style="fill:#262626;" transform="translate(20.878125 158.699753)scale(0.1 -0.1)">
       <use xlink:href="#DejaVuSans-51"/>
       <use x="63.623047" xlink:href="#DejaVuSans-48"/>
       <use x="127.246094" xlink:href="#DejaVuSans-48"/>
       <use x="190.869141" xlink:href="#DejaVuSans-48"/>
       <use x="254.492188" xlink:href="#DejaVuSans-48"/>
      </g>
     </g>
    </g>
    <g id="ytick_5">
     <g id="line2d_12">
      <path clip-path="url(#p8f689484de)" d="M 59.690625 114.42267 
L 416.810625 114.42267 
" style="fill:none;stroke:#cccccc;stroke-linecap:round;stroke-width:0.8;"/>
     </g>
     <g id="text_13">
      <!-- 40000 -->
      <g style="fill:#262626;" transform="translate(20.878125 118.221889)scale(0.1 -0.1)">
       <use xlink:href="#DejaVuSans-52"/>
       <use x="63.623047" xlink:href="#DejaVuSans-48"/>
       <use x="127.246094" xlink:href="#DejaVuSans-48"/>
       <use x="190.869141" xlink:href="#DejaVuSans-48"/>
       <use x="254.492188" xlink:href="#DejaVuSans-48"/>
      </g>
     </g>
    </g>
    <g id="ytick_6">
     <g id="line2d_13">
      <path clip-path="url(#p8f689484de)" d="M 59.690625 73.944807 
L 416.810625 73.944807 
" style="fill:none;stroke:#cccccc;stroke-linecap:round;stroke-width:0.8;"/>
     </g>
     <g id="text_14">
      <!-- 50000 -->
      <g style="fill:#262626;" transform="translate(20.878125 77.744025)scale(0.1 -0.1)">
       <use xlink:href="#DejaVuSans-53"/>
       <use x="63.623047" xlink:href="#DejaVuSans-48"/>
       <use x="127.246094" xlink:href="#DejaVuSans-48"/>
       <use x="190.869141" xlink:href="#DejaVuSans-48"/>
       <use x="254.492188" xlink:href="#DejaVuSans-48"/>
      </g>
     </g>
    </g>
    <g id="ytick_7">
     <g id="line2d_14">
      <path clip-path="url(#p8f689484de)" d="M 59.690625 33.466943 
L 416.810625 33.466943 
" style="fill:none;stroke:#cccccc;stroke-linecap:round;stroke-width:0.8;"/>
     </g>
     <g id="text_15">
      <!-- 60000 -->
      <g style="fill:#262626;" transform="translate(20.878125 37.266162)scale(0.1 -0.1)">
       <use xlink:href="#DejaVuSans-54"/>
       <use x="63.623047" xlink:href="#DejaVuSans-48"/>
       <use x="127.246094" xlink:href="#DejaVuSans-48"/>
       <use x="190.869141" xlink:href="#DejaVuSans-48"/>
       <use x="254.492188" xlink:href="#DejaVuSans-48"/>
      </g>
     </g>
    </g>
    <g id="text_16">
     <!-- viremia -->
     <defs>
      <path d="M 2.984375 54.6875 
L 12.5 54.6875 
L 29.59375 8.796875 
L 46.6875 54.6875 
L 56.203125 54.6875 
L 35.6875 0 
L 23.484375 0 
z
" id="DejaVuSans-118"/>
      <path d="M 41.109375 46.296875 
Q 39.59375 47.171875 37.8125 47.578125 
Q 36.03125 48 33.890625 48 
Q 26.265625 48 22.1875 43.046875 
Q 18.109375 38.09375 18.109375 28.8125 
L 18.109375 0 
L 9.078125 0 
L 9.078125 54.6875 
L 18.109375 54.6875 
L 18.109375 46.1875 
Q 20.953125 51.171875 25.484375 53.578125 
Q 30.03125 56 36.53125 56 
Q 37.453125 56 38.578125 55.875 
Q 39.703125 55.765625 41.0625 55.515625 
z
" id="DejaVuSans-114"/>
     </defs>
     <g style="fill:#262626;" transform="translate(14.798438 174.176469)rotate(-90)scale(0.1 -0.1)">
      <use xlink:href="#DejaVuSans-118"/>
      <use x="59.179688" xlink:href="#DejaVuSans-105"/>
      <use x="86.962891" xlink:href="#DejaVuSans-114"/>
      <use x="128.044922" xlink:href="#DejaVuSans-101"/>
      <use x="189.568359" xlink:href="#DejaVuSans-109"/>
      <use x="286.980469" xlink:href="#DejaVuSans-105"/>
      <use x="314.763672" xlink:href="#DejaVuSans-97"/>
     </g>
    </g>
   </g>
   <g id="line2d_15">
    <path clip-path="url(#p8f689484de)" d="M 75.923352 272.286339 
L 77.005534 271.250105 
L 78.087716 269.788854 
L 80.25208 266.291567 
L 81.875352 264.393155 
L 82.957534 263.628124 
L 83.498625 263.68884 
L 84.580807 264.093619 
L 86.20408 265.55487 
L 87.286261 266.769206 
L 87.827352 267.202319 
L 88.909534 268.412607 
L 89.991716 269.408363 
L 90.532807 270.104582 
L 91.073898 270.60246 
L 91.614989 271.262249 
L 94.320443 273.520913 
L 95.402625 273.958074 
L 97.566989 274.824301 
L 98.64917 275.17241 
L 99.190261 275.20884 
L 100.272443 275.467899 
L 101.895716 275.66624 
L 110.55317 276.204596 
L 114.340807 276.212691 
L 119.210625 276.253169 
L 132.737898 276.16007 
L 160.333534 276.261265 
L 172.778625 276.08721 
L 188.470261 276.099353 
L 193.88117 275.949585 
L 196.586625 275.896964 
L 205.78517 275.807913 
L 209.572807 275.698623 
L 210.654989 275.70267 
L 211.73717 275.625762 
L 213.360443 275.577189 
L 235.00408 275.006451 
L 236.086261 274.901209 
L 239.332807 274.634055 
L 240.414989 274.540956 
L 243.120443 274.504526 
L 244.202625 274.253563 
L 251.777898 274.095699 
L 253.942261 273.901405 
L 255.565534 273.885214 
L 257.729898 273.634251 
L 265.846261 273.269951 
L 267.469534 273.095896 
L 271.25717 272.998749 
L 271.798261 272.808503 
L 273.421534 272.824694 
L 274.503716 272.715404 
L 276.66808 272.533254 
L 277.20917 272.549445 
L 277.750261 272.44825 
L 278.832443 272.480632 
L 279.914625 272.460393 
L 280.996807 272.577779 
L 282.62008 272.407772 
L 283.702261 272.189192 
L 284.784443 272.116332 
L 285.325534 272.124427 
L 285.866625 272.011089 
L 287.489898 272.144666 
L 288.57208 272.079902 
L 289.11317 272.132523 
L 290.195352 272.007041 
L 290.736443 272.124427 
L 292.359716 271.946325 
L 293.441898 271.667027 
L 293.982989 271.683218 
L 294.52408 271.577976 
L 296.147352 271.739887 
L 296.688443 271.602263 
L 298.311716 271.594167 
L 300.47608 271.873464 
L 302.099352 271.966564 
L 302.640443 271.88156 
L 304.804807 272.007041 
L 305.886989 271.994898 
L 306.42808 271.893703 
L 309.674625 272.051567 
L 311.297898 272.33896 
L 316.708807 272.071806 
L 318.87317 272.116332 
L 319.414261 271.998946 
L 322.119716 272.419916 
L 323.201898 272.415868 
L 323.742989 272.387533 
L 324.82517 272.549445 
L 325.907352 272.606114 
L 331.318261 272.707308 
L 332.400443 272.816599 
L 334.564807 273.156613 
L 336.72917 273.278046 
L 339.975716 273.686873 
L 341.598989 273.731398 
L 342.68117 273.792115 
L 344.304443 273.771876 
L 345.386625 273.852832 
L 345.927716 273.970218 
L 348.63317 274.030935 
L 350.256443 274.200942 
L 352.420807 274.366901 
L 354.58517 274.427618 
L 356.208443 274.621911 
L 357.290625 274.751441 
L 357.831716 274.686676 
L 361.619352 274.986212 
L 362.701534 275.071216 
L 363.783716 275.241223 
L 365.406989 275.229079 
L 369.194625 275.269557 
L 371.358989 275.334322 
L 374.605534 275.492185 
L 377.310989 275.682431 
L 378.39317 275.650049 
L 380.016443 275.7391 
L 383.80408 275.852438 
L 386.509534 275.820056 
L 394.625898 275.929346 
L 398.954625 276.079114 
L 400.577898 276.08721 
L 400.577898 276.08721 
" style="fill:none;stroke:#000080;stroke-linecap:round;stroke-width:1.5;"/>
   </g>
   <g id="line2d_16">
    <path clip-path="url(#p8f689484de)" d="M 75.923352 272.286339 
L 76.464443 271.828939 
L 77.546625 270.50936 
L 80.79317 265.567013 
L 81.875352 264.56721 
L 82.957534 264.130049 
L 84.039716 264.433633 
L 84.580807 264.801982 
L 85.662989 265.951553 
L 86.74517 267.250892 
L 87.286261 267.914729 
L 88.368443 268.760717 
L 89.450625 269.962909 
L 92.69717 272.7235 
L 94.320443 273.735446 
L 96.484807 274.480239 
L 98.64917 275.204793 
L 101.895716 275.803865 
L 107.847716 276.107449 
L 118.669534 276.261265 
L 123.539352 276.261265 
L 134.36117 276.23293 
L 140.31317 276.208644 
L 145.72408 276.192452 
L 151.67608 276.151975 
L 156.545898 276.192452 
L 160.874625 276.172214 
L 166.285534 276.1965 
L 197.127716 276.107449 
L 200.374261 276.002207 
L 218.771352 275.820056 
L 225.264443 275.872677 
L 229.05208 275.836247 
L 231.757534 275.807913 
L 233.921898 275.77553 
L 237.709534 275.710766 
L 239.873898 275.662192 
L 240.95608 275.662192 
L 250.695716 275.277653 
L 253.942261 275.087407 
L 255.024443 275.071216 
L 256.106625 274.913352 
L 262.599716 274.650246 
L 266.387352 274.634055 
L 269.092807 274.42357 
L 270.71608 274.476191 
L 271.25717 274.374996 
L 272.880443 274.366901 
L 277.750261 274.087604 
L 278.832443 274.119986 
L 279.914625 274.055221 
L 281.537898 274.188798 
L 283.16117 274.221181 
L 283.702261 274.249515 
L 284.243352 274.144273 
L 285.325534 274.07546 
L 289.11317 273.715207 
L 291.277534 273.670682 
L 292.900807 273.456149 
L 298.311716 273.727351 
L 298.852807 273.844736 
L 299.934989 273.85688 
L 300.47608 273.921644 
L 302.099352 273.792115 
L 303.181534 273.812354 
L 306.96917 273.65449 
L 308.051352 273.727351 
L 311.838989 273.828545 
L 312.92117 273.96617 
L 314.003352 273.974266 
L 316.167716 274.115938 
L 317.249898 274.071412 
L 318.87317 274.095699 
L 321.037534 274.071412 
L 321.578625 274.180703 
L 323.201898 274.168559 
L 324.82517 274.318327 
L 332.941534 274.889065 
L 334.023716 274.80811 
L 335.646989 274.868826 
L 336.72917 274.893113 
L 347.550989 275.160267 
L 351.879716 275.459803 
L 354.58517 275.423373 
L 362.160443 275.751244 
L 364.324807 275.759339 
L 371.358989 275.828152 
L 374.064443 275.795769 
L 388.132807 276.212691 
L 395.166989 276.216739 
L 400.577898 276.249121 
L 400.577898 276.249121 
" style="fill:none;stroke:#0000f1;stroke-linecap:round;stroke-width:1.5;"/>
   </g>
   <g id="line2d_17">
    <path clip-path="url(#p8f689484de)" d="M 75.923352 272.286339 
L 77.546625 270.521504 
L 78.087716 269.873858 
L 80.25208 266.530386 
L 81.875352 264.84246 
L 82.416443 264.506493 
L 82.957534 264.372916 
L 84.580807 264.745313 
L 85.662989 265.542727 
L 91.073898 271.294631 
L 92.15608 272.298482 
L 92.69717 272.877315 
L 94.320443 273.844736 
L 97.566989 275.038833 
L 98.10808 275.24527 
L 99.190261 275.370752 
L 100.272443 275.52052 
L 102.977898 275.86863 
L 104.60117 276.034589 
L 107.306625 276.139831 
L 111.094261 276.220787 
L 126.244807 276.224835 
L 134.902261 276.131736 
L 153.840443 276.026493 
L 156.004807 275.981968 
L 157.62808 276.006254 
L 160.874625 276.042684 
L 163.038989 275.973872 
L 168.449898 275.791722 
L 173.319716 275.718861 
L 189.011352 275.02669 
L 191.175716 274.804062 
L 192.798989 274.597625 
L 195.504443 274.524764 
L 196.586625 274.281897 
L 198.209898 274.192846 
L 199.29208 274.099747 
L 200.374261 273.743542 
L 201.456443 273.626156 
L 205.78517 272.177048 
L 206.326261 272.087997 
L 207.949534 271.347252 
L 209.031716 271.116528 
L 210.113898 270.679367 
L 211.73717 269.987196 
L 214.983716 268.129262 
L 215.524807 267.930921 
L 217.68917 266.364427 
L 218.230261 266.182277 
L 220.394625 263.915516 
L 222.017898 262.235685 
L 223.64117 260.681335 
L 224.723352 259.48319 
L 225.264443 259.313183 
L 225.805534 258.531961 
L 227.428807 256.767126 
L 229.59317 253.460084 
L 230.134261 252.796247 
L 238.791716 238.276838 
L 240.414989 234.884793 
L 240.95608 233.407351 
L 241.49717 232.257779 
L 242.038261 230.642712 
L 242.579352 229.703626 
L 243.120443 228.497386 
L 243.661534 226.582783 
L 244.743716 223.457892 
L 246.90808 216.762853 
L 247.44917 215.495896 
L 247.990261 213.447716 
L 249.072443 210.326873 
L 250.154625 206.805299 
L 250.695716 205.441195 
L 251.777898 201.668658 
L 253.40117 196.61702 
L 255.024443 190.553436 
L 256.647716 183.137892 
L 259.35317 170.913577 
L 264.222989 139.948011 
L 264.76408 136.904076 
L 265.30517 132.751047 
L 268.010625 120.49435 
L 269.633898 112.512115 
L 270.174989 109.970105 
L 271.25717 103.951047 
L 272.339352 98.361054 
L 275.044807 84.558103 
L 275.585898 80.975812 
L 276.66808 75.916079 
L 277.750261 69.941546 
L 279.373534 61.615249 
L 282.078989 51.949136 
L 283.702261 47.945875 
L 284.243352 47.31442 
L 284.784443 46.116275 
L 285.325534 45.26624 
L 285.866625 43.6026 
L 286.407716 43.161391 
L 286.948807 41.659663 
L 287.489898 40.73272 
L 288.030989 40.20246 
L 288.57208 39.96364 
L 289.11317 38.474055 
L 289.654261 37.340675 
L 290.195352 36.506831 
L 290.736443 36.089909 
L 291.277534 36.458257 
L 291.818625 36.502783 
L 292.900807 35.260112 
L 293.441898 34.450555 
L 293.982989 34.414125 
L 294.52408 35.090105 
L 295.06517 35.134631 
L 295.606261 35.53941 
L 296.147352 36.5635 
L 296.688443 37.984273 
L 297.229534 38.915263 
L 297.770625 39.060984 
L 298.852807 43.023767 
L 299.934989 48.152312 
L 300.47608 50.439311 
L 301.01717 51.503879 
L 304.263716 66.747842 
L 304.804807 69.767491 
L 306.42808 76.53539 
L 307.510261 82.987561 
L 309.133534 90.702642 
L 311.297898 100.097554 
L 312.38008 104.185819 
L 313.462261 109.330555 
L 314.003352 113.151665 
L 315.085534 117.199452 
L 316.167716 122.890639 
L 317.249898 126.67532 
L 317.790989 128.929937 
L 318.33208 130.338566 
L 319.414261 134.944947 
L 322.660807 146.388039 
L 323.201898 149.33078 
L 323.742989 151.520632 
L 326.448443 165.003809 
L 326.989534 167.45272 
L 328.071716 171.581462 
L 329.153898 176.021883 
L 332.941534 190.82059 
L 334.023716 194.034533 
L 335.646989 199.061883 
L 336.18808 201.049346 
L 337.270261 203.591356 
L 338.893534 207.452944 
L 339.975716 210.832846 
L 340.516807 212.893169 
L 341.598989 215.410892 
L 342.68117 218.317203 
L 343.222261 219.341293 
L 344.304443 221.919733 
L 344.845534 222.773816 
L 345.386625 224.222923 
L 347.550989 228.331426 
L 349.174261 230.889627 
L 350.256443 233.249487 
L 351.338625 235.155994 
L 351.879716 235.900787 
L 352.961898 238.584469 
L 353.502989 239.074251 
L 354.04408 239.980956 
L 354.58517 241.377442 
L 355.126261 242.308433 
L 355.667352 242.773928 
L 357.831716 246.145734 
L 358.372807 246.841954 
L 359.454989 248.691792 
L 359.99608 249.185622 
L 362.701534 253.19293 
L 364.324807 255.026578 
L 364.865898 255.318018 
L 365.406989 255.860422 
L 366.48917 257.645495 
L 367.030261 258.224329 
L 367.571352 259.086507 
L 368.653534 259.896065 
L 369.194625 260.491089 
L 370.276807 262.118299 
L 371.358989 263.045242 
L 372.44117 263.915516 
L 373.523352 264.923415 
L 375.687716 265.947505 
L 376.228807 266.445383 
L 378.934261 268.145453 
L 380.016443 268.574519 
L 382.180807 269.554083 
L 383.262989 270.278637 
L 384.886261 270.918187 
L 386.509534 271.667027 
L 387.050625 271.747983 
L 388.673898 272.423963 
L 389.214989 272.517062 
L 390.838261 273.095896 
L 393.002625 273.609965 
L 394.625898 273.986409 
L 396.790261 274.492382 
L 398.413534 274.840492 
L 400.577898 275.059072 
L 400.577898 275.059072 
" style="fill:none;stroke:#004cff;stroke-linecap:round;stroke-width:1.5;"/>
   </g>
   <g id="line2d_18">
    <path clip-path="url(#p8f689484de)" d="M 75.923352 272.286339 
L 77.005534 271.246058 
L 78.087716 269.857667 
L 80.79317 265.567013 
L 81.334261 264.810077 
L 82.416443 263.757653 
L 82.957534 263.401448 
L 84.039716 263.271918 
L 84.580807 263.101911 
L 85.121898 263.162628 
L 86.20408 263.96409 
L 86.74517 264.502445 
L 87.827352 266.089178 
L 88.368443 266.639677 
L 88.909534 267.388517 
L 89.991716 268.521897 
L 91.073898 270.056008 
L 93.779352 272.367294 
L 94.320443 272.79636 
L 98.64917 274.767632 
L 101.354625 275.297892 
L 102.436807 275.395039 
L 102.977898 275.552902 
L 103.518989 275.548854 
L 104.60117 275.722909 
L 114.340807 276.212691 
L 140.854261 276.301743 
L 153.840443 276.111497 
L 156.004807 276.103401 
L 164.12117 276.030541 
L 188.470261 276.143879 
L 191.175716 276.010302 
L 196.586625 275.986015 
L 209.031716 275.803865 
L 214.442625 275.605523 
L 217.14808 275.552902 
L 219.853534 275.471947 
L 222.017898 275.431469 
L 223.64117 275.390991 
L 226.346625 275.350513 
L 228.510989 275.285748 
L 233.380807 275.192649 
L 236.627352 274.970021 
L 237.168443 275.010499 
L 238.791716 274.872874 
L 242.038261 274.658341 
L 244.743716 274.662389 
L 246.366989 274.472143 
L 247.44917 274.464048 
L 247.990261 274.326423 
L 249.072443 274.346662 
L 250.154625 274.241419 
L 251.236807 274.213085 
L 252.318989 274.233324 
L 257.188807 273.994504 
L 258.270989 273.771876 
L 259.894261 273.492579 
L 260.435352 273.537105 
L 263.140807 273.079705 
L 264.222989 272.889459 
L 265.846261 272.561588 
L 266.387352 272.573731 
L 270.174989 271.922038 
L 271.25717 271.861321 
L 271.798261 271.788461 
L 272.339352 271.873464 
L 273.421534 271.582024 
L 273.962625 271.654884 
L 275.044807 271.561785 
L 276.66808 271.687266 
L 278.291352 271.598215 
L 279.373534 271.38773 
L 280.996807 271.282488 
L 281.537898 271.420112 
L 283.702261 271.20558 
L 285.866625 271.161054 
L 286.948807 271.193436 
L 287.489898 271.084146 
L 288.030989 271.262249 
L 288.57208 271.193436 
L 290.195352 271.286535 
L 293.441898 270.934378 
L 295.06517 270.691511 
L 299.934989 271.165102 
L 301.01717 271.347252 
L 301.558261 271.229866 
L 302.099352 271.27844 
L 302.640443 271.213675 
L 303.722625 271.379634 
L 306.96917 271.38773 
L 307.510261 271.306774 
L 308.051352 271.488925 
L 309.674625 271.545594 
L 310.756807 271.719649 
L 314.544443 271.901799 
L 315.626625 271.893703 
L 318.33208 271.99085 
L 318.87317 271.938229 
L 323.201898 272.399677 
L 323.742989 272.371342 
L 324.28408 272.488728 
L 325.366261 272.419916 
L 326.448443 272.428011 
L 326.989534 272.2661 
L 328.071716 272.351103 
L 331.859352 272.751834 
L 332.941534 272.90565 
L 333.482625 272.982558 
L 334.564807 272.917793 
L 335.646989 273.112087 
L 337.811352 273.427814 
L 338.893534 273.47234 
L 340.516807 273.699016 
L 342.14008 273.824497 
L 345.927716 274.225228 
L 347.009898 274.435713 
L 348.09208 274.447857 
L 348.63317 274.573338 
L 350.256443 274.565242 
L 352.420807 274.771679 
L 352.961898 274.812157 
L 354.04408 275.014547 
L 362.701534 275.382895 
L 364.865898 275.569093 
L 367.030261 275.658145 
L 368.653534 275.625762 
L 371.90008 275.803865 
L 378.934261 275.791722 
L 382.721898 276.054828 
L 385.968443 276.042684 
L 390.838261 276.131736 
L 395.70808 276.200548 
L 398.413534 276.23293 
L 400.577898 276.224835 
L 400.577898 276.224835 
" style="fill:none;stroke:#00b0ff;stroke-linecap:round;stroke-width:1.5;"/>
   </g>
   <g id="line2d_19">
    <path clip-path="url(#p8f689484de)" d="M 75.923352 272.286339 
L 77.546625 270.40007 
L 80.25208 266.327997 
L 82.416443 264.158384 
L 84.039716 264.174575 
L 84.580807 264.372916 
L 86.74517 266.498004 
L 87.286261 267.246845 
L 87.827352 267.692101 
L 88.909534 269.092635 
L 91.614989 271.691314 
L 92.69717 272.699213 
L 93.779352 273.444006 
L 95.402625 274.306184 
L 97.025898 274.868826 
L 100.272443 275.751244 
L 102.977898 275.965776 
L 104.60117 276.071019 
L 106.224443 276.107449 
L 108.929898 276.184357 
L 114.881898 276.265313 
L 119.210625 276.30579 
L 204.161898 276.1965 
L 212.278261 276.228883 
L 218.771352 276.326029 
L 400.577898 276.334125 
L 400.577898 276.334125 
" style="fill:none;stroke:#29ffce;stroke-linecap:round;stroke-width:1.5;"/>
   </g>
   <g id="line2d_20">
    <path clip-path="url(#p8f689484de)" d="M 75.923352 272.286339 
L 77.005534 271.063907 
L 78.628807 268.793099 
L 79.169898 267.955207 
L 79.710989 267.360183 
L 80.25208 266.5061 
L 80.79317 265.862502 
L 81.334261 265.397006 
L 81.875352 265.085327 
L 82.957534 264.818173 
L 83.498625 264.919367 
L 84.039716 265.263429 
L 84.580807 265.344385 
L 85.121898 266.141799 
L 86.74517 267.805439 
L 87.827352 269.197878 
L 89.450625 270.598412 
L 89.991716 271.16915 
L 90.532807 271.452495 
L 92.69717 273.318524 
L 96.484807 275.220984 
L 100.272443 275.880773 
L 103.518989 276.151975 
L 115.96408 276.326029 
L 131.655716 276.334125 
L 400.577898 276.334125 
L 400.577898 276.334125 
" style="fill:none;stroke:#7dff7a;stroke-linecap:round;stroke-width:1.5;"/>
   </g>
   <g id="line2d_21">
    <path clip-path="url(#p8f689484de)" d="M 75.923352 272.286339 
L 77.005534 271.136767 
L 78.628807 268.930724 
L 80.79317 266.08513 
L 81.334261 265.579157 
L 82.416443 264.996275 
L 82.957534 265.117709 
L 83.498625 264.903176 
L 85.121898 265.522488 
L 86.74517 267.10922 
L 89.450625 270.315067 
L 90.532807 271.343204 
L 91.073898 271.598215 
L 92.69717 272.889459 
L 94.320443 273.74759 
L 97.025898 274.937639 
L 100.272443 275.508377 
L 107.847716 276.143879 
L 113.799716 276.253169 
L 130.573534 276.277456 
L 138.148807 276.139831 
L 143.018625 276.184357 
L 152.21717 276.143879 
L 162.497898 276.1965 
L 165.203352 276.180309 
L 175.48408 276.228883 
L 189.011352 276.034589 
L 190.634625 275.965776 
L 192.798989 275.97792 
L 197.127716 275.909107 
L 217.14808 275.52052 
L 220.394625 275.322178 
L 226.887716 275.083359 
L 230.675352 274.941686 
L 234.462989 274.419522 
L 235.54517 274.310232 
L 236.627352 274.374996 
L 239.873898 274.160464 
L 240.95608 274.030935 
L 242.579352 273.917597 
L 244.743716 273.844736 
L 246.366989 273.719255 
L 247.990261 273.775924 
L 249.072443 273.727351 
L 250.154625 273.609965 
L 253.942261 273.460197 
L 255.024443 273.464244 
L 255.565534 273.314476 
L 256.647716 273.205186 
L 257.729898 272.962319 
L 258.81208 272.94208 
L 260.435352 272.917793 
L 261.517534 272.804455 
L 264.222989 272.367294 
L 265.30517 272.383486 
L 268.551716 271.671075 
L 270.174989 271.630597 
L 270.71608 271.606311 
L 271.798261 271.343204 
L 272.880443 271.217723 
L 273.421534 271.015334 
L 273.962625 271.043668 
L 276.66808 270.485074 
L 277.20917 270.541743 
L 278.291352 270.035769 
L 278.832443 270.047913 
L 280.455716 269.456936 
L 281.537898 269.323359 
L 283.16117 268.926676 
L 284.243352 268.813338 
L 285.866625 268.453085 
L 286.948807 268.291173 
L 288.030989 268.469276 
L 288.57208 268.493563 
L 289.11317 268.291173 
L 289.654261 268.31546 
L 290.195352 268.13331 
L 290.736443 268.198074 
L 291.277534 268.080689 
L 291.818625 268.100928 
L 292.359716 267.906634 
L 292.900807 267.930921 
L 293.441898 267.7852 
L 293.982989 267.995685 
L 294.52408 267.870204 
L 298.852807 268.493563 
L 299.393898 268.359986 
L 300.47608 268.440942 
L 301.01717 268.485467 
L 302.640443 268.995488 
L 303.181534 269.092635 
L 306.42808 269.031918 
L 307.510261 269.509557 
L 308.592443 269.594561 
L 309.674625 269.606704 
L 310.756807 269.910288 
L 313.462261 270.153155 
L 316.708807 270.464835 
L 318.33208 270.954617 
L 321.578625 271.582024 
L 322.660807 271.792509 
L 323.201898 271.930133 
L 326.448443 272.112284 
L 327.530625 272.136571 
L 328.071716 272.128475 
L 328.612807 272.318721 
L 329.153898 272.278243 
L 330.23608 272.419916 
L 331.859352 272.513015 
L 336.72917 272.94208 
L 337.270261 273.079705 
L 338.352443 273.152565 
L 339.434625 273.257807 
L 340.516807 273.282094 
L 341.057898 273.500675 
L 342.14008 273.626156 
L 343.763352 273.937835 
L 344.304443 274.107842 
L 345.927716 274.103795 
L 347.009898 274.261658 
L 348.09208 274.245467 
L 349.715352 274.439761 
L 351.338625 274.561195 
L 355.126261 274.710963 
L 355.667352 274.856683 
L 365.406989 275.269557 
L 368.653534 275.350513 
L 372.982261 275.569093 
L 380.016443 275.90506 
L 387.591716 275.953633 
L 390.838261 276.002207 
L 392.461534 275.94149 
L 397.872443 276.030541 
L 400.036807 276.095306 
L 400.577898 276.107449 
L 400.577898 276.107449 
" style="fill:none;stroke:#ceff29;stroke-linecap:round;stroke-width:1.5;"/>
   </g>
   <g id="line2d_22">
    <path clip-path="url(#p8f689484de)" d="M 75.923352 272.286339 
L 77.546625 270.40007 
L 78.087716 269.72409 
L 79.169898 267.837821 
L 81.334261 265.380815 
L 81.875352 265.028658 
L 82.957534 264.737217 
L 84.580807 264.797934 
L 85.662989 265.453675 
L 86.20408 265.862502 
L 88.368443 268.42475 
L 90.532807 270.67532 
L 91.614989 271.780365 
L 92.69717 272.525158 
L 93.238261 273.083753 
L 94.861534 274.160464 
L 100.272443 275.7391 
L 108.388807 276.257217 
L 116.50517 276.330077 
L 124.080443 276.326029 
L 400.577898 276.334125 
L 400.577898 276.334125 
" style="fill:none;stroke:#ffc400;stroke-linecap:round;stroke-width:1.5;"/>
   </g>
   <g id="line2d_23">
    <path clip-path="url(#p8f689484de)" d="M 75.923352 272.286339 
L 77.005534 271.023429 
L 78.087716 269.610752 
L 79.710989 267.024216 
L 81.334261 265.073183 
L 82.416443 263.951947 
L 83.498625 263.624076 
L 84.039716 263.620028 
L 85.121898 264.016711 
L 86.20408 264.84246 
L 87.286261 265.874645 
L 88.368443 267.263036 
L 89.450625 268.55428 
L 90.532807 269.792902 
L 92.69717 271.958468 
L 94.320443 273.334715 
L 95.943716 274.217133 
L 97.025898 274.71501 
L 98.64917 275.168363 
L 101.895716 275.698623 
L 106.224443 276.058876 
L 108.929898 276.143879 
L 119.210625 276.253169 
L 133.82008 276.253169 
L 139.230989 276.192452 
L 146.806261 276.151975 
L 149.511716 276.16007 
L 157.086989 276.200548 
L 160.874625 276.261265 
L 201.997534 275.860534 
L 203.079716 275.824104 
L 210.654989 275.864582 
L 212.819352 275.860534 
L 213.901534 275.803865 
L 218.230261 275.726957 
L 230.134261 275.3748 
L 232.839716 275.249318 
L 235.00408 275.20884 
L 236.086261 275.180506 
L 238.250625 275.160267 
L 240.95608 275.176458 
L 245.825898 275.180506 
L 246.90808 275.022642 
L 247.990261 274.986212 
L 256.106625 274.654294 
L 257.188807 274.662389 
L 258.270989 274.488334 
L 259.35317 274.35071 
L 259.894261 274.383092 
L 260.435352 274.302136 
L 261.517534 274.289993 
L 262.599716 274.257611 
L 263.681898 274.229276 
L 264.76408 274.269754 
L 265.846261 274.306184 
L 268.551716 274.115938 
L 269.092807 274.192846 
L 270.174989 274.067365 
L 278.291352 273.840689 
L 279.914625 273.694968 
L 285.325534 273.808306 
L 286.948807 273.662586 
L 288.030989 273.448053 
L 288.57208 273.565439 
L 289.654261 273.553296 
L 290.736443 273.699016 
L 291.818625 273.573535 
L 295.06517 273.5452 
L 296.147352 273.504722 
L 302.640443 273.452101 
L 303.722625 273.516866 
L 304.804807 273.601869 
L 308.051352 273.407575 
L 309.674625 273.415671 
L 310.756807 273.322572 
L 314.003352 273.395432 
L 315.085534 273.516866 
L 316.167716 273.520913 
L 318.33208 273.553296 
L 318.87317 273.609965 
L 319.414261 273.553296 
L 321.037534 273.711159 
L 321.578625 273.662586 
L 322.119716 273.779972 
L 323.742989 273.804259 
L 324.82517 273.889262 
L 329.153898 274.103795 
L 332.400443 274.354757 
L 332.941534 274.476191 
L 334.023716 274.528812 
L 335.646989 274.609768 
L 339.975716 274.937639 
L 341.057898 275.095502 
L 344.304443 275.17241 
L 347.009898 275.386943 
L 349.715352 275.415277 
L 350.797534 275.480042 
L 374.605534 275.90506 
L 378.39317 276.042684 
L 382.180807 276.058876 
L 386.509534 276.131736 
L 391.379352 276.204596 
L 397.331352 276.23293 
L 400.577898 276.236978 
L 400.577898 276.236978 
" style="fill:none;stroke:#ff6800;stroke-linecap:round;stroke-width:1.5;"/>
   </g>
   <g id="line2d_24">
    <path clip-path="url(#p8f689484de)" d="M 75.923352 272.286339 
L 77.546625 270.485074 
L 80.79317 265.51844 
L 81.875352 264.283865 
L 82.416443 264.03695 
L 84.039716 263.883134 
L 85.121898 264.239339 
L 85.662989 264.652214 
L 86.20408 265.235095 
L 87.286261 266.145847 
L 87.827352 266.619438 
L 89.450625 268.805242 
L 90.532807 269.954814 
L 91.073898 270.703654 
L 91.614989 271.120576 
L 92.69717 272.173001 
L 93.238261 272.399677 
L 95.402625 273.925692 
L 97.025898 274.743345 
L 98.64917 275.293844 
L 99.731352 275.439564 
L 101.354625 275.690527 
L 104.06008 276.034589 
L 107.847716 276.168166 
L 112.176443 276.26936 
L 127.326989 276.281504 
L 135.443352 276.253169 
L 139.230989 276.249121 
L 144.641898 276.236978 
L 162.497898 276.204596 
L 165.744443 276.249121 
L 167.908807 276.245074 
L 179.271716 276.265313 
L 184.141534 276.277456 
L 190.093534 276.200548 
L 198.209898 276.103401 
L 200.915352 276.095306 
L 204.702989 276.119592 
L 208.490625 276.079114 
L 210.654989 276.103401 
L 212.819352 276.083162 
L 236.086261 275.998159 
L 238.250625 275.953633 
L 241.49717 276.054828 
L 245.825898 276.030541 
L 280.455716 275.670288 
L 280.996807 275.621715 
L 282.078989 275.694575 
L 288.030989 275.714814 
L 291.277534 275.726957 
L 292.359716 275.70267 
L 295.06517 275.658145 
L 339.434625 275.901012 
L 341.598989 275.896964 
L 343.222261 275.852438 
L 344.304443 275.783626 
L 345.927716 275.856486 
L 348.63317 275.896964 
L 350.256443 275.961729 
L 354.04408 276.062923 
L 362.160443 276.1965 
L 368.653534 276.200548 
L 376.769898 276.228883 
L 382.180807 276.204596 
L 384.886261 276.236978 
L 387.050625 276.23293 
L 398.954625 276.245074 
L 400.577898 276.281504 
L 400.577898 276.281504 
" style="fill:none;stroke:#f10800;stroke-linecap:round;stroke-width:1.5;"/>
   </g>
   <g id="patch_3">
    <path d="M 59.690625 288.430125 
L 59.690625 22.318125 
" style="fill:none;stroke:#cccccc;stroke-linecap:square;stroke-linejoin:miter;stroke-width:0.8;"/>
   </g>
   <g id="patch_4">
    <path d="M 416.810625 288.430125 
L 416.810625 22.318125 
" style="fill:none;stroke:#cccccc;stroke-linecap:square;stroke-linejoin:miter;stroke-width:0.8;"/>
   </g>
   <g id="patch_5">
    <path d="M 59.690625 288.430125 
L 416.810625 288.430125 
" style="fill:none;stroke:#cccccc;stroke-linecap:square;stroke-linejoin:miter;stroke-width:0.8;"/>
   </g>
   <g id="patch_6">
    <path d="M 59.690625 22.318125 
L 416.810625 22.318125 
" style="fill:none;stroke:#cccccc;stroke-linecap:square;stroke-linejoin:miter;stroke-width:0.8;"/>
   </g>
   <g id="text_17">
    <!-- Sars-Cov-2 -->
    <defs>
     <path d="M 53.515625 70.515625 
L 53.515625 60.890625 
Q 47.90625 63.578125 42.921875 64.890625 
Q 37.9375 66.21875 33.296875 66.21875 
Q 25.25 66.21875 20.875 63.09375 
Q 16.5 59.96875 16.5 54.203125 
Q 16.5 49.359375 19.40625 46.890625 
Q 22.3125 44.4375 30.421875 42.921875 
L 36.375 41.703125 
Q 47.40625 39.59375 52.65625 34.296875 
Q 57.90625 29 57.90625 20.125 
Q 57.90625 9.515625 50.796875 4.046875 
Q 43.703125 -1.421875 29.984375 -1.421875 
Q 24.8125 -1.421875 18.96875 -0.25 
Q 13.140625 0.921875 6.890625 3.21875 
L 6.890625 13.375 
Q 12.890625 10.015625 18.65625 8.296875 
Q 24.421875 6.59375 29.984375 6.59375 
Q 38.421875 6.59375 43.015625 9.90625 
Q 47.609375 13.234375 47.609375 19.390625 
Q 47.609375 24.75 44.3125 27.78125 
Q 41.015625 30.8125 33.5 32.328125 
L 27.484375 33.5 
Q 16.453125 35.6875 11.515625 40.375 
Q 6.59375 45.0625 6.59375 53.421875 
Q 6.59375 63.09375 13.40625 68.65625 
Q 20.21875 74.21875 32.171875 74.21875 
Q 37.3125 74.21875 42.625 73.28125 
Q 47.953125 72.359375 53.515625 70.515625 
z
" id="DejaVuSans-83"/>
     <path d="M 4.890625 31.390625 
L 31.203125 31.390625 
L 31.203125 23.390625 
L 4.890625 23.390625 
z
" id="DejaVuSans-45"/>
     <path d="M 64.40625 67.28125 
L 64.40625 56.890625 
Q 59.421875 61.53125 53.78125 63.8125 
Q 48.140625 66.109375 41.796875 66.109375 
Q 29.296875 66.109375 22.65625 58.46875 
Q 16.015625 50.828125 16.015625 36.375 
Q 16.015625 21.96875 22.65625 14.328125 
Q 29.296875 6.6875 41.796875 6.6875 
Q 48.140625 6.6875 53.78125 8.984375 
Q 59.421875 11.28125 64.40625 15.921875 
L 64.40625 5.609375 
Q 59.234375 2.09375 53.4375 0.328125 
Q 47.65625 -1.421875 41.21875 -1.421875 
Q 24.65625 -1.421875 15.125 8.703125 
Q 5.609375 18.84375 5.609375 36.375 
Q 5.609375 53.953125 15.125 64.078125 
Q 24.65625 74.21875 41.21875 74.21875 
Q 47.75 74.21875 53.53125 72.484375 
Q 59.328125 70.75 64.40625 67.28125 
z
" id="DejaVuSans-67"/>
     <path d="M 30.609375 48.390625 
Q 23.390625 48.390625 19.1875 42.75 
Q 14.984375 37.109375 14.984375 27.296875 
Q 14.984375 17.484375 19.15625 11.84375 
Q 23.34375 6.203125 30.609375 6.203125 
Q 37.796875 6.203125 41.984375 11.859375 
Q 46.1875 17.53125 46.1875 27.296875 
Q 46.1875 37.015625 41.984375 42.703125 
Q 37.796875 48.390625 30.609375 48.390625 
z
M 30.609375 56 
Q 42.328125 56 49.015625 48.375 
Q 55.71875 40.765625 55.71875 27.296875 
Q 55.71875 13.875 49.015625 6.21875 
Q 42.328125 -1.421875 30.609375 -1.421875 
Q 18.84375 -1.421875 12.171875 6.21875 
Q 5.515625 13.875 5.515625 27.296875 
Q 5.515625 40.765625 12.171875 48.375 
Q 18.84375 56 30.609375 56 
z
" id="DejaVuSans-111"/>
    </defs>
    <g style="fill:#262626;" transform="translate(205.615313 16.318125)scale(0.12 -0.12)">
     <use xlink:href="#DejaVuSans-83"/>
     <use x="63.476562" xlink:href="#DejaVuSans-97"/>
     <use x="124.755859" xlink:href="#DejaVuSans-114"/>
     <use x="165.869141" xlink:href="#DejaVuSans-115"/>
     <use x="217.96875" xlink:href="#DejaVuSans-45"/>
     <use x="254.052734" xlink:href="#DejaVuSans-67"/>
     <use x="323.876953" xlink:href="#DejaVuSans-111"/>
     <use x="385.058594" xlink:href="#DejaVuSans-118"/>
     <use x="444.207031" xlink:href="#DejaVuSans-45"/>
     <use x="480.291016" xlink:href="#DejaVuSans-50"/>
    </g>
   </g>
  </g>
 </g>
 <defs>
  <clipPath id="p8f689484de">
   <rect height="266.112" width="357.12" x="59.690625" y="22.318125"/>
  </clipPath>
 </defs>
</svg>
