<?xml version="1.0" encoding="utf-8" standalone="no"?>
<!DOCTYPE svg PUBLIC "-//W3C//DTD SVG 1.1//EN"
  "http://www.w3.org/Graphics/SVG/1.1/DTD/svg11.dtd">
<!-- Created with matplotlib (https://matplotlib.org/) -->
<svg height="325.986375pt" version="1.1" viewBox="0 0 404.923125 325.986375" width="404.923125pt" xmlns="http://www.w3.org/2000/svg" xmlns:xlink="http://www.w3.org/1999/xlink">
 <defs>
  <style type="text/css">
*{stroke-linecap:butt;stroke-linejoin:round;white-space:pre;}
  </style>
 </defs>
 <g id="figure_1">
  <g id="patch_1">
   <path d="M 0 325.986375 
L 404.923125 325.986375 
L 404.923125 0 
L 0 0 
z
" style="fill:#ffffff;"/>
  </g>
  <g id="axes_1">
   <g id="patch_2">
    <path d="M 40.603125 288.430125 
L 397.723125 288.430125 
L 397.723125 22.318125 
L 40.603125 22.318125 
z
" style="fill:#ffffff;"/>
   </g>
   <g id="matplotlib.axis_1">
    <g id="xtick_1">
     <g id="line2d_1">
      <path clip-path="url(#p7f42ef577b)" d="M 56.835852 288.430125 
L 56.835852 22.318125 
" style="fill:none;stroke:#cccccc;stroke-linecap:round;stroke-width:0.8;"/>
     </g>
     <g id="text_1">
      <!-- 0 -->
      <defs>
       <path d="M 31.78125 66.40625 
Q 24.171875 66.40625 20.328125 58.90625 
Q 16.5 51.421875 16.5 36.375 
Q 16.5 21.390625 20.328125 13.890625 
Q 24.171875 6.390625 31.78125 6.390625 
Q 39.453125 6.390625 43.28125 13.890625 
Q 47.125 21.390625 47.125 36.375 
Q 47.125 51.421875 43.28125 58.90625 
Q 39.453125 66.40625 31.78125 66.40625 
z
M 31.78125 74.21875 
Q 44.046875 74.21875 50.515625 64.515625 
Q 56.984375 54.828125 56.984375 36.375 
Q 56.984375 17.96875 50.515625 8.265625 
Q 44.046875 -1.421875 31.78125 -1.421875 
Q 19.53125 -1.421875 13.0625 8.265625 
Q 6.59375 17.96875 6.59375 36.375 
Q 6.59375 54.828125 13.0625 64.515625 
Q 19.53125 74.21875 31.78125 74.21875 
z
" id="DejaVuSans-48"/>
      </defs>
      <g style="fill:#262626;" transform="translate(53.654602 303.028562)scale(0.1 -0.1)">
       <use xlink:href="#DejaVuSans-48"/>
      </g>
     </g>
    </g>
    <g id="xtick_2">
     <g id="line2d_2">
      <path clip-path="url(#p7f42ef577b)" d="M 97.519379 288.430125 
L 97.519379 22.318125 
" style="fill:none;stroke:#cccccc;stroke-linecap:round;stroke-width:0.8;"/>
     </g>
     <g id="text_2">
      <!-- 5 -->
      <defs>
       <path d="M 10.796875 72.90625 
L 49.515625 72.90625 
L 49.515625 64.59375 
L 19.828125 64.59375 
L 19.828125 46.734375 
Q 21.96875 47.46875 24.109375 47.828125 
Q 26.265625 48.1875 28.421875 48.1875 
Q 40.625 48.1875 47.75 41.5 
Q 54.890625 34.8125 54.890625 23.390625 
Q 54.890625 11.625 47.5625 5.09375 
Q 40.234375 -1.421875 26.90625 -1.421875 
Q 22.3125 -1.421875 17.546875 -0.640625 
Q 12.796875 0.140625 7.71875 1.703125 
L 7.71875 11.625 
Q 12.109375 9.234375 16.796875 8.0625 
Q 21.484375 6.890625 26.703125 6.890625 
Q 35.15625 6.890625 40.078125 11.328125 
Q 45.015625 15.765625 45.015625 23.390625 
Q 45.015625 31 40.078125 35.4375 
Q 35.15625 39.890625 26.703125 39.890625 
Q 22.75 39.890625 18.8125 39.015625 
Q 14.890625 38.140625 10.796875 36.28125 
z
" id="DejaVuSans-53"/>
      </defs>
      <g style="fill:#262626;" transform="translate(94.338129 303.028562)scale(0.1 -0.1)">
       <use xlink:href="#DejaVuSans-53"/>
      </g>
     </g>
    </g>
    <g id="xtick_3">
     <g id="line2d_3">
      <path clip-path="url(#p7f42ef577b)" d="M 138.202906 288.430125 
L 138.202906 22.318125 
" style="fill:none;stroke:#cccccc;stroke-linecap:round;stroke-width:0.8;"/>
     </g>
     <g id="text_3">
      <!-- 10 -->
      <defs>
       <path d="M 12.40625 8.296875 
L 28.515625 8.296875 
L 28.515625 63.921875 
L 10.984375 60.40625 
L 10.984375 69.390625 
L 28.421875 72.90625 
L 38.28125 72.90625 
L 38.28125 8.296875 
L 54.390625 8.296875 
L 54.390625 0 
L 12.40625 0 
z
" id="DejaVuSans-49"/>
      </defs>
      <g style="fill:#262626;" transform="translate(131.840406 303.028562)scale(0.1 -0.1)">
       <use xlink:href="#DejaVuSans-49"/>
       <use x="63.623047" xlink:href="#DejaVuSans-48"/>
      </g>
     </g>
    </g>
    <g id="xtick_4">
     <g id="line2d_4">
      <path clip-path="url(#p7f42ef577b)" d="M 178.886433 288.430125 
L 178.886433 22.318125 
" style="fill:none;stroke:#cccccc;stroke-linecap:round;stroke-width:0.8;"/>
     </g>
     <g id="text_4">
      <!-- 15 -->
      <g style="fill:#262626;" transform="translate(172.523933 303.028562)scale(0.1 -0.1)">
       <use xlink:href="#DejaVuSans-49"/>
       <use x="63.623047" xlink:href="#DejaVuSans-53"/>
      </g>
     </g>
    </g>
    <g id="xtick_5">
     <g id="line2d_5">
      <path clip-path="url(#p7f42ef577b)" d="M 219.56996 288.430125 
L 219.56996 22.318125 
" style="fill:none;stroke:#cccccc;stroke-linecap:round;stroke-width:0.8;"/>
     </g>
     <g id="text_5">
      <!-- 20 -->
      <defs>
       <path d="M 19.1875 8.296875 
L 53.609375 8.296875 
L 53.609375 0 
L 7.328125 0 
L 7.328125 8.296875 
Q 12.9375 14.109375 22.625 23.890625 
Q 32.328125 33.6875 34.8125 36.53125 
Q 39.546875 41.84375 41.421875 45.53125 
Q 43.3125 49.21875 43.3125 52.78125 
Q 43.3125 58.59375 39.234375 62.25 
Q 35.15625 65.921875 28.609375 65.921875 
Q 23.96875 65.921875 18.8125 64.3125 
Q 13.671875 62.703125 7.8125 59.421875 
L 7.8125 69.390625 
Q 13.765625 71.78125 18.9375 73 
Q 24.125 74.21875 28.421875 74.21875 
Q 39.75 74.21875 46.484375 68.546875 
Q 53.21875 62.890625 53.21875 53.421875 
Q 53.21875 48.921875 51.53125 44.890625 
Q 49.859375 40.875 45.40625 35.40625 
Q 44.1875 33.984375 37.640625 27.21875 
Q 31.109375 20.453125 19.1875 8.296875 
z
" id="DejaVuSans-50"/>
      </defs>
      <g style="fill:#262626;" transform="translate(213.20746 303.028562)scale(0.1 -0.1)">
       <use xlink:href="#DejaVuSans-50"/>
       <use x="63.623047" xlink:href="#DejaVuSans-48"/>
      </g>
     </g>
    </g>
    <g id="xtick_6">
     <g id="line2d_6">
      <path clip-path="url(#p7f42ef577b)" d="M 260.253487 288.430125 
L 260.253487 22.318125 
" style="fill:none;stroke:#cccccc;stroke-linecap:round;stroke-width:0.8;"/>
     </g>
     <g id="text_6">
      <!-- 25 -->
      <g style="fill:#262626;" transform="translate(253.890987 303.028562)scale(0.1 -0.1)">
       <use xlink:href="#DejaVuSans-50"/>
       <use x="63.623047" xlink:href="#DejaVuSans-53"/>
      </g>
     </g>
    </g>
    <g id="xtick_7">
     <g id="line2d_7">
      <path clip-path="url(#p7f42ef577b)" d="M 300.937014 288.430125 
L 300.937014 22.318125 
" style="fill:none;stroke:#cccccc;stroke-linecap:round;stroke-width:0.8;"/>
     </g>
     <g id="text_7">
      <!-- 30 -->
      <defs>
       <path d="M 40.578125 39.3125 
Q 47.65625 37.796875 51.625 33 
Q 55.609375 28.21875 55.609375 21.1875 
Q 55.609375 10.40625 48.1875 4.484375 
Q 40.765625 -1.421875 27.09375 -1.421875 
Q 22.515625 -1.421875 17.65625 -0.515625 
Q 12.796875 0.390625 7.625 2.203125 
L 7.625 11.71875 
Q 11.71875 9.328125 16.59375 8.109375 
Q 21.484375 6.890625 26.8125 6.890625 
Q 36.078125 6.890625 40.9375 10.546875 
Q 45.796875 14.203125 45.796875 21.1875 
Q 45.796875 27.640625 41.28125 31.265625 
Q 36.765625 34.90625 28.71875 34.90625 
L 20.21875 34.90625 
L 20.21875 43.015625 
L 29.109375 43.015625 
Q 36.375 43.015625 40.234375 45.921875 
Q 44.09375 48.828125 44.09375 54.296875 
Q 44.09375 59.90625 40.109375 62.90625 
Q 36.140625 65.921875 28.71875 65.921875 
Q 24.65625 65.921875 20.015625 65.03125 
Q 15.375 64.15625 9.8125 62.3125 
L 9.8125 71.09375 
Q 15.4375 72.65625 20.34375 73.4375 
Q 25.25 74.21875 29.59375 74.21875 
Q 40.828125 74.21875 47.359375 69.109375 
Q 53.90625 64.015625 53.90625 55.328125 
Q 53.90625 49.265625 50.4375 45.09375 
Q 46.96875 40.921875 40.578125 39.3125 
z
" id="DejaVuSans-51"/>
      </defs>
      <g style="fill:#262626;" transform="translate(294.574514 303.028562)scale(0.1 -0.1)">
       <use xlink:href="#DejaVuSans-51"/>
       <use x="63.623047" xlink:href="#DejaVuSans-48"/>
      </g>
     </g>
    </g>
    <g id="xtick_8">
     <g id="line2d_8">
      <path clip-path="url(#p7f42ef577b)" d="M 341.620541 288.430125 
L 341.620541 22.318125 
" style="fill:none;stroke:#cccccc;stroke-linecap:round;stroke-width:0.8;"/>
     </g>
     <g id="text_8">
      <!-- 35 -->
      <g style="fill:#262626;" transform="translate(335.258041 303.028562)scale(0.1 -0.1)">
       <use xlink:href="#DejaVuSans-51"/>
       <use x="63.623047" xlink:href="#DejaVuSans-53"/>
      </g>
     </g>
    </g>
    <g id="xtick_9">
     <g id="line2d_9">
      <path clip-path="url(#p7f42ef577b)" d="M 382.304068 288.430125 
L 382.304068 22.318125 
" style="fill:none;stroke:#cccccc;stroke-linecap:round;stroke-width:0.8;"/>
     </g>
     <g id="text_9">
      <!-- 40 -->
      <defs>
       <path d="M 37.796875 64.3125 
L 12.890625 25.390625 
L 37.796875 25.390625 
z
M 35.203125 72.90625 
L 47.609375 72.90625 
L 47.609375 25.390625 
L 58.015625 25.390625 
L 58.015625 17.1875 
L 47.609375 17.1875 
L 47.609375 0 
L 37.796875 0 
L 37.796875 17.1875 
L 4.890625 17.1875 
L 4.890625 26.703125 
z
" id="DejaVuSans-52"/>
      </defs>
      <g style="fill:#262626;" transform="translate(375.941568 303.028562)scale(0.1 -0.1)">
       <use xlink:href="#DejaVuSans-52"/>
       <use x="63.623047" xlink:href="#DejaVuSans-48"/>
      </g>
     </g>
    </g>
    <g id="text_10">
     <!-- time (days) -->
     <defs>
      <path d="M 18.3125 70.21875 
L 18.3125 54.6875 
L 36.8125 54.6875 
L 36.8125 47.703125 
L 18.3125 47.703125 
L 18.3125 18.015625 
Q 18.3125 11.328125 20.140625 9.421875 
Q 21.96875 7.515625 27.59375 7.515625 
L 36.8125 7.515625 
L 36.8125 0 
L 27.59375 0 
Q 17.1875 0 13.234375 3.875 
Q 9.28125 7.765625 9.28125 18.015625 
L 9.28125 47.703125 
L 2.6875 47.703125 
L 2.6875 54.6875 
L 9.28125 54.6875 
L 9.28125 70.21875 
z
" id="DejaVuSans-116"/>
      <path d="M 9.421875 54.6875 
L 18.40625 54.6875 
L 18.40625 0 
L 9.421875 0 
z
M 9.421875 75.984375 
L 18.40625 75.984375 
L 18.40625 64.59375 
L 9.421875 64.59375 
z
" id="DejaVuSans-105"/>
      <path d="M 52 44.1875 
Q 55.375 50.25 60.0625 53.125 
Q 64.75 56 71.09375 56 
Q 79.640625 56 84.28125 50.015625 
Q 88.921875 44.046875 88.921875 33.015625 
L 88.921875 0 
L 79.890625 0 
L 79.890625 32.71875 
Q 79.890625 40.578125 77.09375 44.375 
Q 74.3125 48.1875 68.609375 48.1875 
Q 61.625 48.1875 57.5625 43.546875 
Q 53.515625 38.921875 53.515625 30.90625 
L 53.515625 0 
L 44.484375 0 
L 44.484375 32.71875 
Q 44.484375 40.625 41.703125 44.40625 
Q 38.921875 48.1875 33.109375 48.1875 
Q 26.21875 48.1875 22.15625 43.53125 
Q 18.109375 38.875 18.109375 30.90625 
L 18.109375 0 
L 9.078125 0 
L 9.078125 54.6875 
L 18.109375 54.6875 
L 18.109375 46.1875 
Q 21.1875 51.21875 25.484375 53.609375 
Q 29.78125 56 35.6875 56 
Q 41.65625 56 45.828125 52.96875 
Q 50 49.953125 52 44.1875 
z
" id="DejaVuSans-109"/>
      <path d="M 56.203125 29.59375 
L 56.203125 25.203125 
L 14.890625 25.203125 
Q 15.484375 15.921875 20.484375 11.0625 
Q 25.484375 6.203125 34.421875 6.203125 
Q 39.59375 6.203125 44.453125 7.46875 
Q 49.3125 8.734375 54.109375 11.28125 
L 54.109375 2.78125 
Q 49.265625 0.734375 44.1875 -0.34375 
Q 39.109375 -1.421875 33.890625 -1.421875 
Q 20.796875 -1.421875 13.15625 6.1875 
Q 5.515625 13.8125 5.515625 26.8125 
Q 5.515625 40.234375 12.765625 48.109375 
Q 20.015625 56 32.328125 56 
Q 43.359375 56 49.78125 48.890625 
Q 56.203125 41.796875 56.203125 29.59375 
z
M 47.21875 32.234375 
Q 47.125 39.59375 43.09375 43.984375 
Q 39.0625 48.390625 32.421875 48.390625 
Q 24.90625 48.390625 20.390625 44.140625 
Q 15.875 39.890625 15.1875 32.171875 
z
" id="DejaVuSans-101"/>
      <path id="DejaVuSans-32"/>
      <path d="M 31 75.875 
Q 24.46875 64.65625 21.28125 53.65625 
Q 18.109375 42.671875 18.109375 31.390625 
Q 18.109375 20.125 21.3125 9.0625 
Q 24.515625 -2 31 -13.1875 
L 23.1875 -13.1875 
Q 15.875 -1.703125 12.234375 9.375 
Q 8.59375 20.453125 8.59375 31.390625 
Q 8.59375 42.28125 12.203125 53.3125 
Q 15.828125 64.359375 23.1875 75.875 
z
" id="DejaVuSans-40"/>
      <path d="M 45.40625 46.390625 
L 45.40625 75.984375 
L 54.390625 75.984375 
L 54.390625 0 
L 45.40625 0 
L 45.40625 8.203125 
Q 42.578125 3.328125 38.25 0.953125 
Q 33.9375 -1.421875 27.875 -1.421875 
Q 17.96875 -1.421875 11.734375 6.484375 
Q 5.515625 14.40625 5.515625 27.296875 
Q 5.515625 40.1875 11.734375 48.09375 
Q 17.96875 56 27.875 56 
Q 33.9375 56 38.25 53.625 
Q 42.578125 51.265625 45.40625 46.390625 
z
M 14.796875 27.296875 
Q 14.796875 17.390625 18.875 11.75 
Q 22.953125 6.109375 30.078125 6.109375 
Q 37.203125 6.109375 41.296875 11.75 
Q 45.40625 17.390625 45.40625 27.296875 
Q 45.40625 37.203125 41.296875 42.84375 
Q 37.203125 48.484375 30.078125 48.484375 
Q 22.953125 48.484375 18.875 42.84375 
Q 14.796875 37.203125 14.796875 27.296875 
z
" id="DejaVuSans-100"/>
      <path d="M 34.28125 27.484375 
Q 23.390625 27.484375 19.1875 25 
Q 14.984375 22.515625 14.984375 16.5 
Q 14.984375 11.71875 18.140625 8.90625 
Q 21.296875 6.109375 26.703125 6.109375 
Q 34.1875 6.109375 38.703125 11.40625 
Q 43.21875 16.703125 43.21875 25.484375 
L 43.21875 27.484375 
z
M 52.203125 31.203125 
L 52.203125 0 
L 43.21875 0 
L 43.21875 8.296875 
Q 40.140625 3.328125 35.546875 0.953125 
Q 30.953125 -1.421875 24.3125 -1.421875 
Q 15.921875 -1.421875 10.953125 3.296875 
Q 6 8.015625 6 15.921875 
Q 6 25.140625 12.171875 29.828125 
Q 18.359375 34.515625 30.609375 34.515625 
L 43.21875 34.515625 
L 43.21875 35.40625 
Q 43.21875 41.609375 39.140625 45 
Q 35.0625 48.390625 27.6875 48.390625 
Q 23 48.390625 18.546875 47.265625 
Q 14.109375 46.140625 10.015625 43.890625 
L 10.015625 52.203125 
Q 14.9375 54.109375 19.578125 55.046875 
Q 24.21875 56 28.609375 56 
Q 40.484375 56 46.34375 49.84375 
Q 52.203125 43.703125 52.203125 31.203125 
z
" id="DejaVuSans-97"/>
      <path d="M 32.171875 -5.078125 
Q 28.375 -14.84375 24.75 -17.8125 
Q 21.140625 -20.796875 15.09375 -20.796875 
L 7.90625 -20.796875 
L 7.90625 -13.28125 
L 13.1875 -13.28125 
Q 16.890625 -13.28125 18.9375 -11.515625 
Q 21 -9.765625 23.484375 -3.21875 
L 25.09375 0.875 
L 2.984375 54.6875 
L 12.5 54.6875 
L 29.59375 11.921875 
L 46.6875 54.6875 
L 56.203125 54.6875 
z
" id="DejaVuSans-121"/>
      <path d="M 44.28125 53.078125 
L 44.28125 44.578125 
Q 40.484375 46.53125 36.375 47.5 
Q 32.28125 48.484375 27.875 48.484375 
Q 21.1875 48.484375 17.84375 46.4375 
Q 14.5 44.390625 14.5 40.28125 
Q 14.5 37.15625 16.890625 35.375 
Q 19.28125 33.59375 26.515625 31.984375 
L 29.59375 31.296875 
Q 39.15625 29.25 43.1875 25.515625 
Q 47.21875 21.78125 47.21875 15.09375 
Q 47.21875 7.46875 41.1875 3.015625 
Q 35.15625 -1.421875 24.609375 -1.421875 
Q 20.21875 -1.421875 15.453125 -0.5625 
Q 10.6875 0.296875 5.421875 2 
L 5.421875 11.28125 
Q 10.40625 8.6875 15.234375 7.390625 
Q 20.0625 6.109375 24.8125 6.109375 
Q 31.15625 6.109375 34.5625 8.28125 
Q 37.984375 10.453125 37.984375 14.40625 
Q 37.984375 18.0625 35.515625 20.015625 
Q 33.0625 21.96875 24.703125 23.78125 
L 21.578125 24.515625 
Q 13.234375 26.265625 9.515625 29.90625 
Q 5.8125 33.546875 5.8125 39.890625 
Q 5.8125 47.609375 11.28125 51.796875 
Q 16.75 56 26.8125 56 
Q 31.78125 56 36.171875 55.265625 
Q 40.578125 54.546875 44.28125 53.078125 
z
" id="DejaVuSans-115"/>
      <path d="M 8.015625 75.875 
L 15.828125 75.875 
Q 23.140625 64.359375 26.78125 53.3125 
Q 30.421875 42.28125 30.421875 31.390625 
Q 30.421875 20.453125 26.78125 9.375 
Q 23.140625 -1.703125 15.828125 -13.1875 
L 8.015625 -13.1875 
Q 14.5 -2 17.703125 9.0625 
Q 20.90625 20.125 20.90625 31.390625 
Q 20.90625 42.671875 17.703125 53.65625 
Q 14.5 64.65625 8.015625 75.875 
z
" id="DejaVuSans-41"/>
     </defs>
     <g style="fill:#262626;" transform="translate(190.574062 316.706687)scale(0.1 -0.1)">
      <use xlink:href="#DejaVuSans-116"/>
      <use x="39.208984" xlink:href="#DejaVuSans-105"/>
      <use x="66.992188" xlink:href="#DejaVuSans-109"/>
      <use x="164.404297" xlink:href="#DejaVuSans-101"/>
      <use x="225.927734" xlink:href="#DejaVuSans-32"/>
      <use x="257.714844" xlink:href="#DejaVuSans-40"/>
      <use x="296.728516" xlink:href="#DejaVuSans-100"/>
      <use x="360.205078" xlink:href="#DejaVuSans-97"/>
      <use x="421.484375" xlink:href="#DejaVuSans-121"/>
      <use x="480.664062" xlink:href="#DejaVuSans-115"/>
      <use x="532.763672" xlink:href="#DejaVuSans-41"/>
     </g>
    </g>
   </g>
   <g id="matplotlib.axis_2">
    <g id="ytick_1">
     <g id="line2d_10">
      <path clip-path="url(#p7f42ef577b)" d="M 40.603125 276.334125 
L 397.723125 276.334125 
" style="fill:none;stroke:#cccccc;stroke-linecap:round;stroke-width:0.8;"/>
     </g>
     <g id="text_11">
      <!-- 0 -->
      <g style="fill:#262626;" transform="translate(27.240625 280.133344)scale(0.1 -0.1)">
       <use xlink:href="#DejaVuSans-48"/>
      </g>
     </g>
    </g>
    <g id="ytick_2">
     <g id="line2d_11">
      <path clip-path="url(#p7f42ef577b)" d="M 40.603125 245.31874 
L 397.723125 245.31874 
" style="fill:none;stroke:#cccccc;stroke-linecap:round;stroke-width:0.8;"/>
     </g>
     <g id="text_12">
      <!-- 10 -->
      <g style="fill:#262626;" transform="translate(20.878125 249.117959)scale(0.1 -0.1)">
       <use xlink:href="#DejaVuSans-49"/>
       <use x="63.623047" xlink:href="#DejaVuSans-48"/>
      </g>
     </g>
    </g>
    <g id="ytick_3">
     <g id="line2d_12">
      <path clip-path="url(#p7f42ef577b)" d="M 40.603125 214.303356 
L 397.723125 214.303356 
" style="fill:none;stroke:#cccccc;stroke-linecap:round;stroke-width:0.8;"/>
     </g>
     <g id="text_13">
      <!-- 20 -->
      <g style="fill:#262626;" transform="translate(20.878125 218.102575)scale(0.1 -0.1)">
       <use xlink:href="#DejaVuSans-50"/>
       <use x="63.623047" xlink:href="#DejaVuSans-48"/>
      </g>
     </g>
    </g>
    <g id="ytick_4">
     <g id="line2d_13">
      <path clip-path="url(#p7f42ef577b)" d="M 40.603125 183.287971 
L 397.723125 183.287971 
" style="fill:none;stroke:#cccccc;stroke-linecap:round;stroke-width:0.8;"/>
     </g>
     <g id="text_14">
      <!-- 30 -->
      <g style="fill:#262626;" transform="translate(20.878125 187.08719)scale(0.1 -0.1)">
       <use xlink:href="#DejaVuSans-51"/>
       <use x="63.623047" xlink:href="#DejaVuSans-48"/>
      </g>
     </g>
    </g>
    <g id="ytick_5">
     <g id="line2d_14">
      <path clip-path="url(#p7f42ef577b)" d="M 40.603125 152.272587 
L 397.723125 152.272587 
" style="fill:none;stroke:#cccccc;stroke-linecap:round;stroke-width:0.8;"/>
     </g>
     <g id="text_15">
      <!-- 40 -->
      <g style="fill:#262626;" transform="translate(20.878125 156.071805)scale(0.1 -0.1)">
       <use xlink:href="#DejaVuSans-52"/>
       <use x="63.623047" xlink:href="#DejaVuSans-48"/>
      </g>
     </g>
    </g>
    <g id="ytick_6">
     <g id="line2d_15">
      <path clip-path="url(#p7f42ef577b)" d="M 40.603125 121.257202 
L 397.723125 121.257202 
" style="fill:none;stroke:#cccccc;stroke-linecap:round;stroke-width:0.8;"/>
     </g>
     <g id="text_16">
      <!-- 50 -->
      <g style="fill:#262626;" transform="translate(20.878125 125.056421)scale(0.1 -0.1)">
       <use xlink:href="#DejaVuSans-53"/>
       <use x="63.623047" xlink:href="#DejaVuSans-48"/>
      </g>
     </g>
    </g>
    <g id="ytick_7">
     <g id="line2d_16">
      <path clip-path="url(#p7f42ef577b)" d="M 40.603125 90.241817 
L 397.723125 90.241817 
" style="fill:none;stroke:#cccccc;stroke-linecap:round;stroke-width:0.8;"/>
     </g>
     <g id="text_17">
      <!-- 60 -->
      <defs>
       <path d="M 33.015625 40.375 
Q 26.375 40.375 22.484375 35.828125 
Q 18.609375 31.296875 18.609375 23.390625 
Q 18.609375 15.53125 22.484375 10.953125 
Q 26.375 6.390625 33.015625 6.390625 
Q 39.65625 6.390625 43.53125 10.953125 
Q 47.40625 15.53125 47.40625 23.390625 
Q 47.40625 31.296875 43.53125 35.828125 
Q 39.65625 40.375 33.015625 40.375 
z
M 52.59375 71.296875 
L 52.59375 62.3125 
Q 48.875 64.0625 45.09375 64.984375 
Q 41.3125 65.921875 37.59375 65.921875 
Q 27.828125 65.921875 22.671875 59.328125 
Q 17.53125 52.734375 16.796875 39.40625 
Q 19.671875 43.65625 24.015625 45.921875 
Q 28.375 48.1875 33.59375 48.1875 
Q 44.578125 48.1875 50.953125 41.515625 
Q 57.328125 34.859375 57.328125 23.390625 
Q 57.328125 12.15625 50.6875 5.359375 
Q 44.046875 -1.421875 33.015625 -1.421875 
Q 20.359375 -1.421875 13.671875 8.265625 
Q 6.984375 17.96875 6.984375 36.375 
Q 6.984375 53.65625 15.1875 63.9375 
Q 23.390625 74.21875 37.203125 74.21875 
Q 40.921875 74.21875 44.703125 73.484375 
Q 48.484375 72.75 52.59375 71.296875 
z
" id="DejaVuSans-54"/>
      </defs>
      <g style="fill:#262626;" transform="translate(20.878125 94.041036)scale(0.1 -0.1)">
       <use xlink:href="#DejaVuSans-54"/>
       <use x="63.623047" xlink:href="#DejaVuSans-48"/>
      </g>
     </g>
    </g>
    <g id="ytick_8">
     <g id="line2d_17">
      <path clip-path="url(#p7f42ef577b)" d="M 40.603125 59.226433 
L 397.723125 59.226433 
" style="fill:none;stroke:#cccccc;stroke-linecap:round;stroke-width:0.8;"/>
     </g>
     <g id="text_18">
      <!-- 70 -->
      <defs>
       <path d="M 8.203125 72.90625 
L 55.078125 72.90625 
L 55.078125 68.703125 
L 28.609375 0 
L 18.3125 0 
L 43.21875 64.59375 
L 8.203125 64.59375 
z
" id="DejaVuSans-55"/>
      </defs>
      <g style="fill:#262626;" transform="translate(20.878125 63.025651)scale(0.1 -0.1)">
       <use xlink:href="#DejaVuSans-55"/>
       <use x="63.623047" xlink:href="#DejaVuSans-48"/>
      </g>
     </g>
    </g>
    <g id="ytick_9">
     <g id="line2d_18">
      <path clip-path="url(#p7f42ef577b)" d="M 40.603125 28.211048 
L 397.723125 28.211048 
" style="fill:none;stroke:#cccccc;stroke-linecap:round;stroke-width:0.8;"/>
     </g>
     <g id="text_19">
      <!-- 80 -->
      <defs>
       <path d="M 31.78125 34.625 
Q 24.75 34.625 20.71875 30.859375 
Q 16.703125 27.09375 16.703125 20.515625 
Q 16.703125 13.921875 20.71875 10.15625 
Q 24.75 6.390625 31.78125 6.390625 
Q 38.8125 6.390625 42.859375 10.171875 
Q 46.921875 13.96875 46.921875 20.515625 
Q 46.921875 27.09375 42.890625 30.859375 
Q 38.875 34.625 31.78125 34.625 
z
M 21.921875 38.8125 
Q 15.578125 40.375 12.03125 44.71875 
Q 8.5 49.078125 8.5 55.328125 
Q 8.5 64.0625 14.71875 69.140625 
Q 20.953125 74.21875 31.78125 74.21875 
Q 42.671875 74.21875 48.875 69.140625 
Q 55.078125 64.0625 55.078125 55.328125 
Q 55.078125 49.078125 51.53125 44.71875 
Q 48 40.375 41.703125 38.8125 
Q 48.828125 37.15625 52.796875 32.3125 
Q 56.78125 27.484375 56.78125 20.515625 
Q 56.78125 9.90625 50.3125 4.234375 
Q 43.84375 -1.421875 31.78125 -1.421875 
Q 19.734375 -1.421875 13.25 4.234375 
Q 6.78125 9.90625 6.78125 20.515625 
Q 6.78125 27.484375 10.78125 32.3125 
Q 14.796875 37.15625 21.921875 38.8125 
z
M 18.3125 54.390625 
Q 18.3125 48.734375 21.84375 45.5625 
Q 25.390625 42.390625 31.78125 42.390625 
Q 38.140625 42.390625 41.71875 45.5625 
Q 45.3125 48.734375 45.3125 54.390625 
Q 45.3125 60.0625 41.71875 63.234375 
Q 38.140625 66.40625 31.78125 66.40625 
Q 25.390625 66.40625 21.84375 63.234375 
Q 18.3125 60.0625 18.3125 54.390625 
z
" id="DejaVuSans-56"/>
      </defs>
      <g style="fill:#262626;" transform="translate(20.878125 32.010267)scale(0.1 -0.1)">
       <use xlink:href="#DejaVuSans-56"/>
       <use x="63.623047" xlink:href="#DejaVuSans-48"/>
      </g>
     </g>
    </g>
    <g id="text_20">
     <!-- cells number -->
     <defs>
      <path d="M 48.78125 52.59375 
L 48.78125 44.1875 
Q 44.96875 46.296875 41.140625 47.34375 
Q 37.3125 48.390625 33.40625 48.390625 
Q 24.65625 48.390625 19.8125 42.84375 
Q 14.984375 37.3125 14.984375 27.296875 
Q 14.984375 17.28125 19.8125 11.734375 
Q 24.65625 6.203125 33.40625 6.203125 
Q 37.3125 6.203125 41.140625 7.25 
Q 44.96875 8.296875 48.78125 10.40625 
L 48.78125 2.09375 
Q 45.015625 0.34375 40.984375 -0.53125 
Q 36.96875 -1.421875 32.421875 -1.421875 
Q 20.0625 -1.421875 12.78125 6.34375 
Q 5.515625 14.109375 5.515625 27.296875 
Q 5.515625 40.671875 12.859375 48.328125 
Q 20.21875 56 33.015625 56 
Q 37.15625 56 41.109375 55.140625 
Q 45.0625 54.296875 48.78125 52.59375 
z
" id="DejaVuSans-99"/>
      <path d="M 9.421875 75.984375 
L 18.40625 75.984375 
L 18.40625 0 
L 9.421875 0 
z
" id="DejaVuSans-108"/>
      <path d="M 54.890625 33.015625 
L 54.890625 0 
L 45.90625 0 
L 45.90625 32.71875 
Q 45.90625 40.484375 42.875 44.328125 
Q 39.84375 48.1875 33.796875 48.1875 
Q 26.515625 48.1875 22.3125 43.546875 
Q 18.109375 38.921875 18.109375 30.90625 
L 18.109375 0 
L 9.078125 0 
L 9.078125 54.6875 
L 18.109375 54.6875 
L 18.109375 46.1875 
Q 21.34375 51.125 25.703125 53.5625 
Q 30.078125 56 35.796875 56 
Q 45.21875 56 50.046875 50.171875 
Q 54.890625 44.34375 54.890625 33.015625 
z
" id="DejaVuSans-110"/>
      <path d="M 8.5 21.578125 
L 8.5 54.6875 
L 17.484375 54.6875 
L 17.484375 21.921875 
Q 17.484375 14.15625 20.5 10.265625 
Q 23.53125 6.390625 29.59375 6.390625 
Q 36.859375 6.390625 41.078125 11.03125 
Q 45.3125 15.671875 45.3125 23.6875 
L 45.3125 54.6875 
L 54.296875 54.6875 
L 54.296875 0 
L 45.3125 0 
L 45.3125 8.40625 
Q 42.046875 3.421875 37.71875 1 
Q 33.40625 -1.421875 27.6875 -1.421875 
Q 18.265625 -1.421875 13.375 4.4375 
Q 8.5 10.296875 8.5 21.578125 
z
M 31.109375 56 
z
" id="DejaVuSans-117"/>
      <path d="M 48.6875 27.296875 
Q 48.6875 37.203125 44.609375 42.84375 
Q 40.53125 48.484375 33.40625 48.484375 
Q 26.265625 48.484375 22.1875 42.84375 
Q 18.109375 37.203125 18.109375 27.296875 
Q 18.109375 17.390625 22.1875 11.75 
Q 26.265625 6.109375 33.40625 6.109375 
Q 40.53125 6.109375 44.609375 11.75 
Q 48.6875 17.390625 48.6875 27.296875 
z
M 18.109375 46.390625 
Q 20.953125 51.265625 25.265625 53.625 
Q 29.59375 56 35.59375 56 
Q 45.5625 56 51.78125 48.09375 
Q 58.015625 40.1875 58.015625 27.296875 
Q 58.015625 14.40625 51.78125 6.484375 
Q 45.5625 -1.421875 35.59375 -1.421875 
Q 29.59375 -1.421875 25.265625 0.953125 
Q 20.953125 3.328125 18.109375 8.203125 
L 18.109375 0 
L 9.078125 0 
L 9.078125 75.984375 
L 18.109375 75.984375 
z
" id="DejaVuSans-98"/>
      <path d="M 41.109375 46.296875 
Q 39.59375 47.171875 37.8125 47.578125 
Q 36.03125 48 33.890625 48 
Q 26.265625 48 22.1875 43.046875 
Q 18.109375 38.09375 18.109375 28.8125 
L 18.109375 0 
L 9.078125 0 
L 9.078125 54.6875 
L 18.109375 54.6875 
L 18.109375 46.1875 
Q 20.953125 51.171875 25.484375 53.578125 
Q 30.03125 56 36.53125 56 
Q 37.453125 56 38.578125 55.875 
Q 39.703125 55.765625 41.0625 55.515625 
z
" id="DejaVuSans-114"/>
     </defs>
     <g style="fill:#262626;" transform="translate(14.798438 187.685844)rotate(-90)scale(0.1 -0.1)">
      <use xlink:href="#DejaVuSans-99"/>
      <use x="54.980469" xlink:href="#DejaVuSans-101"/>
      <use x="116.503906" xlink:href="#DejaVuSans-108"/>
      <use x="144.287109" xlink:href="#DejaVuSans-108"/>
      <use x="172.070312" xlink:href="#DejaVuSans-115"/>
      <use x="224.169922" xlink:href="#DejaVuSans-32"/>
      <use x="255.957031" xlink:href="#DejaVuSans-110"/>
      <use x="319.335938" xlink:href="#DejaVuSans-117"/>
      <use x="382.714844" xlink:href="#DejaVuSans-109"/>
      <use x="480.126953" xlink:href="#DejaVuSans-98"/>
      <use x="543.603516" xlink:href="#DejaVuSans-101"/>
      <use x="605.126953" xlink:href="#DejaVuSans-114"/>
     </g>
    </g>
   </g>
   <g id="line2d_19">
    <path clip-path="url(#p7f42ef577b)" d="M 56.835852 276.334125 
L 57.649523 276.334125 
L 58.463193 273.232587 
L 63.345217 273.232587 
L 64.158887 270.131048 
L 65.786228 270.131048 
L 68.22724 260.826433 
L 69.04091 260.826433 
L 70.668251 254.623356 
L 71.481922 254.623356 
L 72.295593 242.217202 
L 73.109263 242.217202 
L 73.922934 239.115663 
L 74.736604 226.70951 
L 77.991286 201.897202 
L 78.804957 201.897202 
L 79.618627 198.795663 
L 80.432298 192.592587 
L 81.245968 198.795663 
L 82.059639 195.694125 
L 82.87331 189.491048 
L 83.68698 180.186433 
L 85.314321 173.983356 
L 86.127992 167.780279 
L 86.941662 158.475663 
L 87.755333 161.577202 
L 89.382674 155.374125 
L 90.196344 149.171048 
L 91.010015 139.866433 
L 91.823685 146.06951 
L 92.637356 146.06951 
L 93.451027 149.171048 
L 94.264697 142.967971 
L 95.078368 139.866433 
L 95.892038 133.663356 
L 96.705709 130.561817 
L 98.33305 130.561817 
L 99.14672 127.460279 
L 99.960391 121.257202 
L 101.587732 121.257202 
L 102.401403 118.155663 
L 103.215073 111.952587 
L 104.028744 115.054125 
L 104.842414 108.851048 
L 106.469755 90.241817 
L 107.283426 84.03874 
L 108.910767 77.835663 
L 109.724437 77.835663 
L 110.538108 71.632587 
L 111.351778 68.531048 
L 112.165449 71.632587 
L 112.97912 71.632587 
L 113.79279 74.734125 
L 114.606461 74.734125 
L 116.233802 80.937202 
L 117.047472 80.937202 
L 119.488484 71.632587 
L 120.302154 71.632587 
L 121.115825 87.140279 
L 121.929495 77.835663 
L 122.743166 80.937202 
L 123.556837 80.937202 
L 124.370507 84.03874 
L 125.184178 84.03874 
L 125.997848 93.343356 
L 126.811519 87.140279 
L 127.625189 96.444894 
L 128.43886 96.444894 
L 130.066201 108.851048 
L 130.879871 102.647971 
L 131.693542 102.647971 
L 132.507212 105.74951 
L 133.320883 115.054125 
L 134.134554 118.155663 
L 134.948224 118.155663 
L 135.761895 121.257202 
L 136.575565 121.257202 
L 137.389236 124.35874 
L 138.202906 121.257202 
L 139.016577 115.054125 
L 139.830247 118.155663 
L 140.643918 124.35874 
L 141.457588 124.35874 
L 143.8986 115.054125 
L 145.525941 121.257202 
L 146.339612 130.561817 
L 147.153282 133.663356 
L 147.966953 127.460279 
L 151.221635 127.460279 
L 152.035305 130.561817 
L 152.848976 136.764894 
L 153.662647 136.764894 
L 154.476317 146.06951 
L 155.289988 149.171048 
L 156.103658 155.374125 
L 156.917329 155.374125 
L 157.730999 158.475663 
L 158.54467 155.374125 
L 159.35834 158.475663 
L 160.172011 164.67874 
L 160.985681 167.780279 
L 161.799352 167.780279 
L 162.613022 173.983356 
L 165.867705 161.577202 
L 166.681375 164.67874 
L 167.495046 164.67874 
L 168.308716 167.780279 
L 169.122387 161.577202 
L 169.936057 161.577202 
L 172.377069 170.881817 
L 173.190739 167.780279 
L 174.00441 173.983356 
L 174.818081 177.084894 
L 175.631751 173.983356 
L 180.513774 173.983356 
L 182.954786 164.67874 
L 185.395798 173.983356 
L 186.209468 173.983356 
L 189.46415 186.38951 
L 191.091491 186.38951 
L 191.905162 192.592587 
L 192.718832 192.592587 
L 193.532503 189.491048 
L 194.346174 189.491048 
L 195.159844 186.38951 
L 196.787185 192.592587 
L 197.600856 192.592587 
L 198.414526 195.694125 
L 199.228197 195.694125 
L 200.041867 192.592587 
L 200.855538 192.592587 
L 201.669208 198.795663 
L 202.482879 198.795663 
L 203.296549 204.99874 
L 204.11022 201.897202 
L 206.551232 201.897202 
L 208.178573 208.100279 
L 208.992243 204.99874 
L 209.805914 204.99874 
L 210.619584 201.897202 
L 211.433255 195.694125 
L 212.246925 195.694125 
L 213.060596 198.795663 
L 213.874266 198.795663 
L 214.687937 201.897202 
L 217.128949 201.897202 
L 217.942619 204.99874 
L 219.56996 204.99874 
L 220.383631 208.100279 
L 221.197301 214.303356 
L 222.010972 211.201817 
L 222.824642 214.303356 
L 223.638313 214.303356 
L 224.451984 208.100279 
L 226.892995 208.100279 
L 227.706666 211.201817 
L 228.520336 211.201817 
L 231.775018 223.607971 
L 241.539065 223.607971 
L 242.352735 226.70951 
L 247.234759 226.70951 
L 248.048429 229.811048 
L 248.8621 229.811048 
L 249.67577 226.70951 
L 250.489441 226.70951 
L 251.303111 229.811048 
L 252.116782 229.811048 
L 252.930452 226.70951 
L 253.744123 226.70951 
L 254.557793 229.811048 
L 255.371464 229.811048 
L 256.185135 223.607971 
L 258.626146 223.607971 
L 259.439817 220.506433 
L 261.880828 220.506433 
L 262.694499 217.404894 
L 263.508169 220.506433 
L 265.135511 220.506433 
L 265.949181 217.404894 
L 266.762852 223.607971 
L 267.576522 223.607971 
L 268.390193 226.70951 
L 270.017534 226.70951 
L 270.831204 229.811048 
L 271.644875 229.811048 
L 272.458545 232.912587 
L 273.272216 232.912587 
L 274.085886 236.014125 
L 276.526898 236.014125 
L 277.340569 232.912587 
L 278.154239 232.912587 
L 278.96791 226.70951 
L 280.595251 220.506433 
L 282.222592 220.506433 
L 283.036262 223.607971 
L 290.359297 223.607971 
L 291.986638 217.404894 
L 294.42765 217.404894 
L 295.24132 220.506433 
L 297.682332 220.506433 
L 298.496003 223.607971 
L 299.309673 223.607971 
L 300.123344 217.404894 
L 303.378026 217.404894 
L 304.191696 223.607971 
L 305.819038 223.607971 
L 306.632708 220.506433 
L 307.446379 223.607971 
L 308.260049 223.607971 
L 309.07372 220.506433 
L 309.88739 220.506433 
L 311.514731 232.912587 
L 312.328402 232.912587 
L 313.142072 229.811048 
L 314.769413 229.811048 
L 315.583084 232.912587 
L 316.396755 226.70951 
L 320.465107 226.70951 
L 321.278778 229.811048 
L 322.092448 236.014125 
L 322.906119 236.014125 
L 323.719789 239.115663 
L 326.160801 239.115663 
L 326.974472 242.217202 
L 327.788142 239.115663 
L 331.042824 239.115663 
L 331.856495 242.217202 
L 332.670165 242.217202 
L 333.483836 248.420279 
L 334.297506 248.420279 
L 335.111177 245.31874 
L 335.924847 245.31874 
L 336.738518 242.217202 
L 337.552189 242.217202 
L 338.365859 245.31874 
L 339.17953 242.217202 
L 344.061553 242.217202 
L 344.875223 239.115663 
L 345.688894 239.115663 
L 346.502565 232.912587 
L 349.757247 232.912587 
L 350.570917 236.014125 
L 352.198258 236.014125 
L 353.011929 232.912587 
L 353.825599 232.912587 
L 354.63927 236.014125 
L 355.45294 232.912587 
L 357.893952 232.912587 
L 358.707623 229.811048 
L 359.521293 229.811048 
L 360.334964 236.014125 
L 361.148634 232.912587 
L 361.962305 232.912587 
L 362.775975 229.811048 
L 365.216987 229.811048 
L 366.030657 226.70951 
L 367.657999 226.70951 
L 370.09901 236.014125 
L 370.912681 236.014125 
L 371.726351 229.811048 
L 373.353692 229.811048 
L 374.167363 232.912587 
L 374.981033 232.912587 
L 375.794704 236.014125 
L 376.608374 236.014125 
L 378.235716 242.217202 
L 380.676727 242.217202 
L 381.490398 245.31874 
L 381.490398 245.31874 
" style="fill:none;stroke:#000080;stroke-linecap:round;stroke-width:1.5;"/>
   </g>
   <g id="line2d_20">
    <path clip-path="url(#p7f42ef577b)" d="M 56.835852 276.334125 
L 60.904205 276.334125 
L 61.717876 273.232587 
L 64.972558 273.232587 
L 65.786228 270.131048 
L 66.599899 270.131048 
L 67.413569 260.826433 
L 69.04091 254.623356 
L 69.854581 254.623356 
L 70.668251 251.521817 
L 71.481922 236.014125 
L 73.109263 236.014125 
L 73.922934 232.912587 
L 75.550275 220.506433 
L 76.363945 217.404894 
L 77.177616 208.100279 
L 77.991286 208.100279 
L 78.804957 211.201817 
L 79.618627 208.100279 
L 80.432298 214.303356 
L 81.245968 214.303356 
L 82.87331 195.694125 
L 83.68698 192.592587 
L 84.500651 177.084894 
L 85.314321 177.084894 
L 86.127992 164.67874 
L 86.941662 155.374125 
L 87.755333 152.272587 
L 88.569003 155.374125 
L 90.196344 142.967971 
L 91.010015 142.967971 
L 91.823685 136.764894 
L 92.637356 127.460279 
L 93.451027 124.35874 
L 94.264697 108.851048 
L 95.078368 115.054125 
L 95.892038 115.054125 
L 96.705709 111.952587 
L 97.519379 102.647971 
L 98.33305 102.647971 
L 99.14672 105.74951 
L 99.960391 96.444894 
L 100.774061 90.241817 
L 101.587732 93.343356 
L 102.401403 90.241817 
L 103.215073 90.241817 
L 104.028744 87.140279 
L 104.842414 93.343356 
L 105.656085 90.241817 
L 106.469755 84.03874 
L 107.283426 84.03874 
L 109.724437 65.42951 
L 110.538108 65.42951 
L 111.351778 62.327971 
L 112.165449 56.124894 
L 112.97912 62.327971 
L 113.79279 59.226433 
L 114.606461 59.226433 
L 115.420131 68.531048 
L 117.861143 68.531048 
L 118.674813 62.327971 
L 119.488484 62.327971 
L 120.302154 53.023356 
L 121.115825 56.124894 
L 121.929495 62.327971 
L 123.556837 56.124894 
L 124.370507 59.226433 
L 125.997848 53.023356 
L 126.811519 71.632587 
L 128.43886 65.42951 
L 129.25253 71.632587 
L 130.879871 77.835663 
L 131.693542 84.03874 
L 132.507212 87.140279 
L 134.134554 87.140279 
L 135.761895 93.343356 
L 136.575565 93.343356 
L 137.389236 87.140279 
L 139.016577 87.140279 
L 139.830247 96.444894 
L 141.457588 108.851048 
L 142.271259 108.851048 
L 143.08493 105.74951 
L 143.8986 105.74951 
L 146.339612 115.054125 
L 147.153282 111.952587 
L 147.966953 111.952587 
L 148.780623 115.054125 
L 149.594294 115.054125 
L 150.407964 111.952587 
L 152.848976 121.257202 
L 153.662647 127.460279 
L 154.476317 130.561817 
L 155.289988 130.561817 
L 156.103658 139.866433 
L 156.917329 139.866433 
L 158.54467 146.06951 
L 160.172011 139.866433 
L 160.985681 133.663356 
L 162.613022 139.866433 
L 164.240364 139.866433 
L 165.054034 142.967971 
L 165.867705 142.967971 
L 166.681375 146.06951 
L 168.308716 146.06951 
L 171.563398 158.475663 
L 172.377069 170.881817 
L 174.00441 164.67874 
L 174.818081 164.67874 
L 175.631751 167.780279 
L 176.445422 164.67874 
L 177.259092 170.881817 
L 178.886433 170.881817 
L 179.700104 173.983356 
L 182.954786 173.983356 
L 185.395798 183.287971 
L 186.209468 183.287971 
L 187.023139 180.186433 
L 187.836809 186.38951 
L 188.65048 183.287971 
L 193.532503 183.287971 
L 195.159844 189.491048 
L 195.973515 186.38951 
L 196.787185 189.491048 
L 197.600856 186.38951 
L 200.041867 186.38951 
L 200.855538 192.592587 
L 202.482879 192.592587 
L 203.296549 195.694125 
L 205.737561 195.694125 
L 206.551232 201.897202 
L 207.364902 204.99874 
L 208.178573 204.99874 
L 209.805914 211.201817 
L 211.433255 204.99874 
L 214.687937 204.99874 
L 215.501608 195.694125 
L 216.315278 198.795663 
L 217.942619 198.795663 
L 218.75629 195.694125 
L 220.383631 195.694125 
L 221.197301 198.795663 
L 222.824642 198.795663 
L 224.451984 204.99874 
L 225.265654 201.897202 
L 226.079325 204.99874 
L 226.892995 211.201817 
L 228.520336 211.201817 
L 229.334007 214.303356 
L 230.147677 211.201817 
L 230.961348 211.201817 
L 231.775018 208.100279 
L 234.21603 208.100279 
L 235.029701 211.201817 
L 235.843371 211.201817 
L 236.657042 208.100279 
L 237.470712 208.100279 
L 238.284383 214.303356 
L 239.911724 214.303356 
L 240.725394 217.404894 
L 241.539065 217.404894 
L 242.352735 214.303356 
L 243.980076 220.506433 
L 244.793747 217.404894 
L 247.234759 217.404894 
L 249.67577 226.70951 
L 250.489441 226.70951 
L 251.303111 229.811048 
L 254.557793 229.811048 
L 256.185135 223.607971 
L 256.998805 223.607971 
L 257.812476 226.70951 
L 258.626146 226.70951 
L 260.253487 232.912587 
L 265.135511 232.912587 
L 265.949181 239.115663 
L 270.017534 239.115663 
L 270.831204 242.217202 
L 271.644875 242.217202 
L 272.458545 245.31874 
L 274.899557 245.31874 
L 275.713228 242.217202 
L 278.96791 242.217202 
L 279.78158 239.115663 
L 281.408921 239.115663 
L 282.222592 232.912587 
L 283.036262 232.912587 
L 283.849933 229.811048 
L 284.663603 229.811048 
L 285.477274 232.912587 
L 286.290945 229.811048 
L 287.104615 236.014125 
L 287.918286 236.014125 
L 288.731956 239.115663 
L 290.359297 239.115663 
L 291.172968 236.014125 
L 294.42765 236.014125 
L 295.24132 232.912587 
L 296.054991 232.912587 
L 296.868662 239.115663 
L 297.682332 236.014125 
L 301.750685 236.014125 
L 302.564355 239.115663 
L 306.632708 239.115663 
L 307.446379 245.31874 
L 309.07372 251.521817 
L 310.701061 245.31874 
L 311.514731 245.31874 
L 312.328402 242.217202 
L 313.142072 245.31874 
L 318.837766 245.31874 
L 319.651437 248.420279 
L 320.465107 248.420279 
L 321.278778 245.31874 
L 325.34713 245.31874 
L 326.160801 248.420279 
L 335.924847 248.420279 
L 337.552189 242.217202 
L 338.365859 245.31874 
L 339.17953 245.31874 
L 339.9932 251.521817 
L 340.806871 251.521817 
L 341.620541 248.420279 
L 342.434212 248.420279 
L 343.247882 245.31874 
L 348.129906 245.31874 
L 348.943576 242.217202 
L 349.757247 236.014125 
L 350.570917 232.912587 
L 353.011929 232.912587 
L 353.825599 239.115663 
L 355.45294 239.115663 
L 356.266611 242.217202 
L 361.148634 242.217202 
L 362.775975 248.420279 
L 366.030657 248.420279 
L 366.844328 245.31874 
L 370.912681 245.31874 
L 372.540022 251.521817 
L 377.422045 251.521817 
L 378.235716 248.420279 
L 380.676727 248.420279 
L 381.490398 251.521817 
L 381.490398 251.521817 
" style="fill:none;stroke:#0000f1;stroke-linecap:round;stroke-width:1.5;"/>
   </g>
   <g id="line2d_21">
    <path clip-path="url(#p7f42ef577b)" d="M 56.835852 276.334125 
L 62.531546 276.334125 
L 63.345217 273.232587 
L 64.972558 273.232587 
L 65.786228 270.131048 
L 66.599899 270.131048 
L 67.413569 267.02951 
L 69.854581 267.02951 
L 70.668251 263.927971 
L 72.295593 263.927971 
L 73.109263 254.623356 
L 73.922934 254.623356 
L 75.550275 242.217202 
L 76.363945 232.912587 
L 77.177616 217.404894 
L 77.991286 214.303356 
L 78.804957 208.100279 
L 81.245968 208.100279 
L 82.059639 201.897202 
L 83.68698 195.694125 
L 84.500651 186.38951 
L 85.314321 186.38951 
L 86.127992 177.084894 
L 86.941662 173.983356 
L 87.755333 177.084894 
L 88.569003 170.881817 
L 91.010015 180.186433 
L 92.637356 173.983356 
L 93.451027 173.983356 
L 94.264697 170.881817 
L 95.078368 170.881817 
L 95.892038 164.67874 
L 97.519379 158.475663 
L 98.33305 142.967971 
L 99.14672 136.764894 
L 99.960391 133.663356 
L 100.774061 133.663356 
L 101.587732 130.561817 
L 102.401403 124.35874 
L 103.215073 124.35874 
L 104.842414 105.74951 
L 106.469755 105.74951 
L 107.283426 115.054125 
L 108.097096 99.546433 
L 108.910767 93.343356 
L 109.724437 93.343356 
L 111.351778 99.546433 
L 112.165449 96.444894 
L 112.97912 90.241817 
L 113.79279 90.241817 
L 114.606461 84.03874 
L 115.420131 87.140279 
L 117.047472 87.140279 
L 117.861143 74.734125 
L 119.488484 74.734125 
L 120.302154 77.835663 
L 121.115825 74.734125 
L 121.929495 77.835663 
L 122.743166 84.03874 
L 123.556837 80.937202 
L 125.184178 87.140279 
L 125.997848 96.444894 
L 126.811519 102.647971 
L 127.625189 105.74951 
L 128.43886 99.546433 
L 130.066201 99.546433 
L 131.693542 93.343356 
L 132.507212 96.444894 
L 133.320883 93.343356 
L 134.134554 93.343356 
L 134.948224 99.546433 
L 135.761895 96.444894 
L 136.575565 96.444894 
L 137.389236 99.546433 
L 138.202906 96.444894 
L 139.016577 99.546433 
L 139.830247 105.74951 
L 140.643918 105.74951 
L 141.457588 102.647971 
L 142.271259 102.647971 
L 143.08493 99.546433 
L 144.712271 105.74951 
L 145.525941 99.546433 
L 146.339612 96.444894 
L 147.153282 96.444894 
L 148.780623 102.647971 
L 149.594294 102.647971 
L 150.407964 105.74951 
L 152.035305 118.155663 
L 152.848976 127.460279 
L 153.662647 133.663356 
L 157.730999 133.663356 
L 159.35834 139.866433 
L 160.985681 139.866433 
L 161.799352 149.171048 
L 162.613022 149.171048 
L 163.426693 161.577202 
L 165.054034 167.780279 
L 165.867705 173.983356 
L 166.681375 173.983356 
L 167.495046 177.084894 
L 168.308716 177.084894 
L 169.122387 180.186433 
L 169.936057 177.084894 
L 170.749728 177.084894 
L 171.563398 180.186433 
L 172.377069 180.186433 
L 173.190739 183.287971 
L 174.00441 183.287971 
L 174.818081 186.38951 
L 177.259092 186.38951 
L 179.700104 195.694125 
L 180.513774 195.694125 
L 181.327445 201.897202 
L 183.768457 201.897202 
L 184.582127 204.99874 
L 185.395798 201.897202 
L 187.023139 201.897202 
L 187.836809 208.100279 
L 188.65048 204.99874 
L 189.46415 208.100279 
L 191.091491 208.100279 
L 191.905162 211.201817 
L 192.718832 208.100279 
L 195.973515 208.100279 
L 196.787185 217.404894 
L 197.600856 220.506433 
L 198.414526 217.404894 
L 200.041867 223.607971 
L 200.855538 220.506433 
L 203.296549 220.506433 
L 204.923891 226.70951 
L 209.805914 226.70951 
L 211.433255 220.506433 
L 212.246925 220.506433 
L 213.874266 226.70951 
L 214.687937 226.70951 
L 215.501608 223.607971 
L 216.315278 226.70951 
L 226.892995 226.70951 
L 227.706666 229.811048 
L 229.334007 229.811048 
L 230.147677 236.014125 
L 230.961348 236.014125 
L 231.775018 242.217202 
L 235.843371 242.217202 
L 236.657042 239.115663 
L 240.725394 239.115663 
L 241.539065 236.014125 
L 242.352735 236.014125 
L 243.166406 239.115663 
L 243.980076 239.115663 
L 244.793747 236.014125 
L 245.607418 239.115663 
L 246.421088 236.014125 
L 248.8621 236.014125 
L 249.67577 239.115663 
L 250.489441 236.014125 
L 251.303111 239.115663 
L 252.116782 239.115663 
L 252.930452 242.217202 
L 253.744123 242.217202 
L 254.557793 239.115663 
L 255.371464 242.217202 
L 257.812476 242.217202 
L 258.626146 245.31874 
L 259.439817 242.217202 
L 260.253487 242.217202 
L 261.067158 245.31874 
L 264.32184 245.31874 
L 265.135511 242.217202 
L 265.949181 242.217202 
L 266.762852 239.115663 
L 267.576522 232.912587 
L 269.203863 239.115663 
L 275.713228 239.115663 
L 276.526898 236.014125 
L 277.340569 236.014125 
L 278.154239 239.115663 
L 278.96791 236.014125 
L 280.595251 236.014125 
L 281.408921 239.115663 
L 283.036262 239.115663 
L 283.849933 242.217202 
L 284.663603 242.217202 
L 285.477274 248.420279 
L 288.731956 248.420279 
L 289.545627 254.623356 
L 290.359297 251.521817 
L 291.172968 251.521817 
L 291.986638 248.420279 
L 292.800309 248.420279 
L 293.613979 251.521817 
L 296.054991 251.521817 
L 296.868662 248.420279 
L 297.682332 254.623356 
L 300.123344 254.623356 
L 300.937014 257.724894 
L 301.750685 257.724894 
L 302.564355 254.623356 
L 304.191696 254.623356 
L 305.005367 260.826433 
L 307.446379 251.521817 
L 309.07372 251.521817 
L 309.88739 248.420279 
L 313.142072 248.420279 
L 313.955743 245.31874 
L 314.769413 245.31874 
L 315.583084 242.217202 
L 317.210425 242.217202 
L 318.024096 248.420279 
L 318.837766 245.31874 
L 322.092448 245.31874 
L 322.906119 251.521817 
L 324.53346 245.31874 
L 328.601813 245.31874 
L 330.229154 251.521817 
L 331.856495 251.521817 
L 332.670165 254.623356 
L 333.483836 251.521817 
L 336.738518 251.521817 
L 337.552189 245.31874 
L 339.17953 245.31874 
L 339.9932 248.420279 
L 340.806871 245.31874 
L 341.620541 248.420279 
L 342.434212 245.31874 
L 343.247882 248.420279 
L 345.688894 248.420279 
L 346.502565 245.31874 
L 350.570917 245.31874 
L 351.384588 248.420279 
L 353.011929 248.420279 
L 353.825599 251.521817 
L 355.45294 245.31874 
L 356.266611 245.31874 
L 357.080282 248.420279 
L 358.707623 248.420279 
L 359.521293 245.31874 
L 362.775975 245.31874 
L 363.589646 242.217202 
L 366.030657 242.217202 
L 366.844328 239.115663 
L 367.657999 239.115663 
L 368.471669 236.014125 
L 370.09901 242.217202 
L 370.912681 239.115663 
L 372.540022 239.115663 
L 373.353692 242.217202 
L 378.235716 242.217202 
L 379.049386 245.31874 
L 379.863057 245.31874 
L 380.676727 251.521817 
L 381.490398 251.521817 
L 381.490398 251.521817 
" style="fill:none;stroke:#004cff;stroke-linecap:round;stroke-width:1.5;"/>
   </g>
   <g id="line2d_22">
    <path clip-path="url(#p7f42ef577b)" d="M 56.835852 276.334125 
L 61.717876 276.334125 
L 64.158887 267.02951 
L 64.972558 267.02951 
L 65.786228 257.724894 
L 67.413569 251.521817 
L 68.22724 251.521817 
L 69.854581 239.115663 
L 70.668251 236.014125 
L 71.481922 236.014125 
L 72.295593 239.115663 
L 73.109263 239.115663 
L 74.736604 232.912587 
L 75.550275 232.912587 
L 77.177616 226.70951 
L 77.991286 214.303356 
L 79.618627 208.100279 
L 80.432298 208.100279 
L 81.245968 198.795663 
L 82.059639 198.795663 
L 82.87331 195.694125 
L 83.68698 186.38951 
L 84.500651 180.186433 
L 85.314321 177.084894 
L 86.127992 167.780279 
L 86.941662 164.67874 
L 87.755333 152.272587 
L 88.569003 152.272587 
L 89.382674 149.171048 
L 90.196344 139.866433 
L 91.010015 133.663356 
L 91.823685 136.764894 
L 92.637356 136.764894 
L 93.451027 127.460279 
L 94.264697 124.35874 
L 95.078368 111.952587 
L 95.892038 105.74951 
L 96.705709 108.851048 
L 97.519379 115.054125 
L 98.33305 111.952587 
L 99.14672 115.054125 
L 100.774061 115.054125 
L 102.401403 102.647971 
L 103.215073 99.546433 
L 104.028744 90.241817 
L 104.842414 90.241817 
L 106.469755 84.03874 
L 107.283426 93.343356 
L 108.097096 90.241817 
L 109.724437 90.241817 
L 110.538108 96.444894 
L 111.351778 93.343356 
L 112.97912 80.937202 
L 113.79279 77.835663 
L 114.606461 80.937202 
L 115.420131 74.734125 
L 116.233802 77.835663 
L 117.047472 77.835663 
L 117.861143 74.734125 
L 118.674813 74.734125 
L 119.488484 80.937202 
L 120.302154 90.241817 
L 121.115825 90.241817 
L 121.929495 93.343356 
L 122.743166 93.343356 
L 123.556837 99.546433 
L 124.370507 93.343356 
L 125.184178 93.343356 
L 125.997848 96.444894 
L 126.811519 87.140279 
L 127.625189 96.444894 
L 128.43886 93.343356 
L 129.25253 102.647971 
L 130.066201 105.74951 
L 130.879871 105.74951 
L 131.693542 111.952587 
L 132.507212 111.952587 
L 133.320883 115.054125 
L 134.134554 108.851048 
L 134.948224 118.155663 
L 135.761895 121.257202 
L 136.575565 115.054125 
L 138.202906 115.054125 
L 139.016577 111.952587 
L 140.643918 99.546433 
L 141.457588 111.952587 
L 142.271259 121.257202 
L 143.08493 127.460279 
L 143.8986 139.866433 
L 146.339612 139.866433 
L 148.780623 158.475663 
L 149.594294 161.577202 
L 150.407964 158.475663 
L 152.035305 164.67874 
L 152.848976 164.67874 
L 153.662647 161.577202 
L 154.476317 161.577202 
L 155.289988 164.67874 
L 156.103658 170.881817 
L 157.730999 170.881817 
L 158.54467 173.983356 
L 159.35834 173.983356 
L 160.985681 180.186433 
L 161.799352 180.186433 
L 162.613022 177.084894 
L 163.426693 180.186433 
L 164.240364 177.084894 
L 165.054034 177.084894 
L 165.867705 173.983356 
L 166.681375 177.084894 
L 167.495046 177.084894 
L 168.308716 180.186433 
L 169.936057 173.983356 
L 170.749728 173.983356 
L 171.563398 177.084894 
L 174.818081 177.084894 
L 175.631751 180.186433 
L 176.445422 180.186433 
L 177.259092 170.881817 
L 178.072763 167.780279 
L 179.700104 167.780279 
L 182.141115 177.084894 
L 182.954786 177.084894 
L 183.768457 180.186433 
L 186.209468 180.186433 
L 187.023139 177.084894 
L 188.65048 177.084894 
L 189.46415 180.186433 
L 190.277821 186.38951 
L 191.091491 189.491048 
L 191.905162 189.491048 
L 193.532503 195.694125 
L 194.346174 195.694125 
L 195.159844 198.795663 
L 195.973515 195.694125 
L 196.787185 195.694125 
L 199.228197 204.99874 
L 201.669208 204.99874 
L 202.482879 201.897202 
L 203.296549 201.897202 
L 204.11022 198.795663 
L 204.923891 192.592587 
L 205.737561 192.592587 
L 206.551232 195.694125 
L 207.364902 195.694125 
L 209.805914 204.99874 
L 210.619584 204.99874 
L 211.433255 208.100279 
L 213.060596 208.100279 
L 213.874266 204.99874 
L 214.687937 211.201817 
L 217.128949 211.201817 
L 217.942619 204.99874 
L 218.75629 208.100279 
L 219.56996 204.99874 
L 220.383631 208.100279 
L 221.197301 208.100279 
L 222.010972 204.99874 
L 223.638313 204.99874 
L 224.451984 201.897202 
L 226.079325 201.897202 
L 226.892995 198.795663 
L 227.706666 198.795663 
L 229.334007 204.99874 
L 230.961348 198.795663 
L 232.588689 198.795663 
L 233.402359 201.897202 
L 239.098053 201.897202 
L 239.911724 208.100279 
L 242.352735 208.100279 
L 243.980076 214.303356 
L 244.793747 214.303356 
L 245.607418 217.404894 
L 246.421088 217.404894 
L 247.234759 223.607971 
L 251.303111 223.607971 
L 252.930452 229.811048 
L 253.744123 229.811048 
L 254.557793 232.912587 
L 255.371464 232.912587 
L 256.185135 229.811048 
L 258.626146 229.811048 
L 259.439817 232.912587 
L 261.880828 232.912587 
L 262.694499 236.014125 
L 265.949181 236.014125 
L 267.576522 242.217202 
L 270.017534 242.217202 
L 271.644875 236.014125 
L 274.899557 236.014125 
L 275.713228 239.115663 
L 277.340569 239.115663 
L 278.154239 236.014125 
L 278.96791 236.014125 
L 279.78158 226.70951 
L 280.595251 229.811048 
L 281.408921 226.70951 
L 283.849933 226.70951 
L 284.663603 223.607971 
L 286.290945 223.607971 
L 287.104615 220.506433 
L 287.918286 223.607971 
L 288.731956 217.404894 
L 290.359297 217.404894 
L 291.172968 214.303356 
L 291.986638 220.506433 
L 292.800309 223.607971 
L 293.613979 229.811048 
L 295.24132 236.014125 
L 296.054991 236.014125 
L 296.868662 232.912587 
L 297.682332 232.912587 
L 300.123344 242.217202 
L 302.564355 242.217202 
L 303.378026 239.115663 
L 305.005367 239.115663 
L 305.819038 242.217202 
L 306.632708 251.521817 
L 309.07372 251.521817 
L 310.701061 245.31874 
L 311.514731 245.31874 
L 312.328402 242.217202 
L 313.142072 242.217202 
L 313.955743 239.115663 
L 314.769413 242.217202 
L 315.583084 242.217202 
L 316.396755 245.31874 
L 318.024096 245.31874 
L 318.837766 239.115663 
L 319.651437 239.115663 
L 320.465107 242.217202 
L 321.278778 239.115663 
L 322.092448 245.31874 
L 324.53346 245.31874 
L 325.34713 242.217202 
L 329.415483 242.217202 
L 330.229154 245.31874 
L 331.042824 245.31874 
L 332.670165 239.115663 
L 333.483836 229.811048 
L 335.111177 229.811048 
L 335.924847 226.70951 
L 336.738518 226.70951 
L 337.552189 223.607971 
L 340.806871 223.607971 
L 341.620541 220.506433 
L 342.434212 223.607971 
L 343.247882 223.607971 
L 344.061553 226.70951 
L 344.875223 232.912587 
L 346.502565 232.912587 
L 348.129906 239.115663 
L 350.570917 239.115663 
L 351.384588 236.014125 
L 353.011929 236.014125 
L 353.825599 239.115663 
L 354.63927 239.115663 
L 355.45294 242.217202 
L 356.266611 242.217202 
L 357.893952 248.420279 
L 358.707623 248.420279 
L 359.521293 251.521817 
L 361.148634 251.521817 
L 361.962305 254.623356 
L 370.912681 254.623356 
L 371.726351 257.724894 
L 378.235716 257.724894 
L 379.049386 254.623356 
L 379.863057 254.623356 
L 380.676727 260.826433 
L 381.490398 260.826433 
L 381.490398 260.826433 
" style="fill:none;stroke:#00b0ff;stroke-linecap:round;stroke-width:1.5;"/>
   </g>
   <g id="line2d_23">
    <path clip-path="url(#p7f42ef577b)" d="M 56.835852 276.334125 
L 61.717876 276.334125 
L 64.158887 267.02951 
L 64.972558 257.724894 
L 65.786228 257.724894 
L 66.599899 251.521817 
L 69.04091 242.217202 
L 70.668251 242.217202 
L 72.295593 248.420279 
L 75.550275 236.014125 
L 76.363945 226.70951 
L 77.177616 226.70951 
L 77.991286 208.100279 
L 78.804957 211.201817 
L 79.618627 198.795663 
L 80.432298 195.694125 
L 81.245968 186.38951 
L 82.87331 180.186433 
L 84.500651 167.780279 
L 85.314321 152.272587 
L 86.127992 146.06951 
L 86.941662 142.967971 
L 87.755333 136.764894 
L 88.569003 142.967971 
L 89.382674 146.06951 
L 91.010015 139.866433 
L 91.823685 139.866433 
L 92.637356 127.460279 
L 93.451027 118.155663 
L 94.264697 111.952587 
L 95.078368 102.647971 
L 96.705709 90.241817 
L 97.519379 93.343356 
L 98.33305 90.241817 
L 99.14672 80.937202 
L 99.960391 77.835663 
L 100.774061 80.937202 
L 101.587732 80.937202 
L 102.401403 90.241817 
L 103.215073 84.03874 
L 104.028744 84.03874 
L 104.842414 77.835663 
L 105.656085 80.937202 
L 106.469755 80.937202 
L 107.283426 84.03874 
L 108.097096 80.937202 
L 108.910767 74.734125 
L 110.538108 74.734125 
L 111.351778 77.835663 
L 112.165449 90.241817 
L 112.97912 84.03874 
L 113.79279 87.140279 
L 114.606461 84.03874 
L 115.420131 90.241817 
L 116.233802 99.546433 
L 117.047472 102.647971 
L 118.674813 96.444894 
L 120.302154 96.444894 
L 121.115825 99.546433 
L 121.929495 96.444894 
L 122.743166 96.444894 
L 123.556837 99.546433 
L 124.370507 105.74951 
L 125.184178 115.054125 
L 125.997848 115.054125 
L 127.625189 108.851048 
L 128.43886 99.546433 
L 129.25253 99.546433 
L 130.066201 96.444894 
L 130.879871 87.140279 
L 134.134554 99.546433 
L 134.948224 99.546433 
L 135.761895 108.851048 
L 136.575565 115.054125 
L 137.389236 118.155663 
L 138.202906 118.155663 
L 139.016577 121.257202 
L 140.643918 121.257202 
L 141.457588 115.054125 
L 142.271259 127.460279 
L 143.08493 124.35874 
L 143.8986 124.35874 
L 146.339612 133.663356 
L 147.153282 130.561817 
L 147.966953 130.561817 
L 149.594294 124.35874 
L 150.407964 124.35874 
L 151.221635 130.561817 
L 152.035305 130.561817 
L 152.848976 127.460279 
L 153.662647 133.663356 
L 154.476317 127.460279 
L 155.289988 127.460279 
L 156.103658 136.764894 
L 156.917329 142.967971 
L 157.730999 146.06951 
L 158.54467 152.272587 
L 159.35834 152.272587 
L 160.172011 155.374125 
L 161.799352 155.374125 
L 162.613022 158.475663 
L 163.426693 158.475663 
L 164.240364 164.67874 
L 165.054034 167.780279 
L 165.867705 173.983356 
L 166.681375 173.983356 
L 168.308716 180.186433 
L 169.122387 180.186433 
L 169.936057 170.881817 
L 170.749728 173.983356 
L 171.563398 173.983356 
L 172.377069 177.084894 
L 173.190739 183.287971 
L 174.818081 183.287971 
L 175.631751 189.491048 
L 176.445422 192.592587 
L 177.259092 189.491048 
L 178.072763 195.694125 
L 179.700104 201.897202 
L 180.513774 201.897202 
L 181.327445 204.99874 
L 183.768457 204.99874 
L 184.582127 211.201817 
L 185.395798 211.201817 
L 186.209468 214.303356 
L 187.023139 214.303356 
L 187.836809 211.201817 
L 188.65048 214.303356 
L 189.46415 214.303356 
L 190.277821 217.404894 
L 191.091491 217.404894 
L 192.718832 223.607971 
L 196.787185 223.607971 
L 197.600856 226.70951 
L 200.041867 226.70951 
L 201.669208 220.506433 
L 204.923891 220.506433 
L 205.737561 223.607971 
L 206.551232 223.607971 
L 207.364902 232.912587 
L 209.805914 232.912587 
L 210.619584 229.811048 
L 212.246925 229.811048 
L 213.060596 232.912587 
L 218.75629 232.912587 
L 219.56996 236.014125 
L 220.383631 232.912587 
L 221.197301 232.912587 
L 222.010972 236.014125 
L 223.638313 236.014125 
L 224.451984 232.912587 
L 226.079325 232.912587 
L 226.892995 236.014125 
L 227.706666 236.014125 
L 228.520336 232.912587 
L 232.588689 232.912587 
L 233.402359 239.115663 
L 234.21603 239.115663 
L 235.029701 236.014125 
L 238.284383 236.014125 
L 239.098053 239.115663 
L 243.980076 239.115663 
L 244.793747 242.217202 
L 248.048429 242.217202 
L 248.8621 245.31874 
L 249.67577 242.217202 
L 253.744123 242.217202 
L 255.371464 248.420279 
L 256.185135 248.420279 
L 256.998805 254.623356 
L 259.439817 254.623356 
L 260.253487 257.724894 
L 261.067158 257.724894 
L 261.880828 254.623356 
L 262.694499 257.724894 
L 265.135511 257.724894 
L 267.576522 248.420279 
L 268.390193 248.420279 
L 269.203863 245.31874 
L 272.458545 245.31874 
L 273.272216 242.217202 
L 274.085886 242.217202 
L 274.899557 239.115663 
L 275.713228 239.115663 
L 276.526898 242.217202 
L 277.340569 239.115663 
L 287.104615 239.115663 
L 287.918286 236.014125 
L 291.172968 236.014125 
L 293.613979 226.70951 
L 294.42765 229.811048 
L 295.24132 229.811048 
L 296.054991 226.70951 
L 297.682332 226.70951 
L 298.496003 220.506433 
L 300.937014 220.506433 
L 301.750685 223.607971 
L 304.191696 223.607971 
L 305.005367 214.303356 
L 305.819038 217.404894 
L 309.07372 217.404894 
L 309.88739 220.506433 
L 313.142072 220.506433 
L 313.955743 226.70951 
L 314.769413 226.70951 
L 315.583084 229.811048 
L 316.396755 223.607971 
L 318.024096 223.607971 
L 318.837766 226.70951 
L 320.465107 226.70951 
L 321.278778 232.912587 
L 322.092448 232.912587 
L 322.906119 229.811048 
L 323.719789 229.811048 
L 324.53346 232.912587 
L 327.788142 232.912587 
L 328.601813 229.811048 
L 329.415483 232.912587 
L 331.856495 232.912587 
L 332.670165 239.115663 
L 335.111177 239.115663 
L 335.924847 242.217202 
L 342.434212 242.217202 
L 343.247882 239.115663 
L 344.061553 239.115663 
L 344.875223 242.217202 
L 346.502565 242.217202 
L 347.316235 239.115663 
L 348.943576 239.115663 
L 349.757247 242.217202 
L 353.011929 242.217202 
L 353.825599 245.31874 
L 356.266611 245.31874 
L 357.080282 251.521817 
L 359.521293 251.521817 
L 360.334964 248.420279 
L 361.148634 248.420279 
L 361.962305 245.31874 
L 363.589646 251.521817 
L 365.216987 251.521817 
L 366.030657 254.623356 
L 366.844328 251.521817 
L 368.471669 257.724894 
L 377.422045 257.724894 
L 378.235716 263.927971 
L 381.490398 263.927971 
L 381.490398 263.927971 
" style="fill:none;stroke:#29ffce;stroke-linecap:round;stroke-width:1.5;"/>
   </g>
   <g id="line2d_24">
    <path clip-path="url(#p7f42ef577b)" d="M 56.835852 276.334125 
L 58.463193 276.334125 
L 59.276864 273.232587 
L 64.158887 273.232587 
L 64.972558 270.131048 
L 65.786228 270.131048 
L 66.599899 267.02951 
L 67.413569 267.02951 
L 68.22724 263.927971 
L 69.04091 257.724894 
L 69.854581 254.623356 
L 70.668251 257.724894 
L 72.295593 257.724894 
L 73.922934 251.521817 
L 74.736604 245.31874 
L 75.550275 236.014125 
L 76.363945 223.607971 
L 77.177616 220.506433 
L 78.804957 201.897202 
L 79.618627 204.99874 
L 81.245968 204.99874 
L 82.87331 192.592587 
L 83.68698 192.592587 
L 84.500651 177.084894 
L 85.314321 173.983356 
L 86.127992 177.084894 
L 86.941662 164.67874 
L 87.755333 161.577202 
L 89.382674 149.171048 
L 90.196344 149.171048 
L 91.010015 146.06951 
L 91.823685 133.663356 
L 92.637356 127.460279 
L 93.451027 124.35874 
L 94.264697 124.35874 
L 95.078368 127.460279 
L 95.892038 127.460279 
L 96.705709 121.257202 
L 97.519379 102.647971 
L 98.33305 102.647971 
L 99.14672 105.74951 
L 100.774061 99.546433 
L 101.587732 99.546433 
L 102.401403 96.444894 
L 103.215073 87.140279 
L 105.656085 87.140279 
L 106.469755 84.03874 
L 107.283426 90.241817 
L 108.097096 77.835663 
L 108.910767 71.632587 
L 109.724437 74.734125 
L 110.538108 80.937202 
L 111.351778 71.632587 
L 112.165449 74.734125 
L 112.97912 74.734125 
L 113.79279 77.835663 
L 114.606461 84.03874 
L 115.420131 87.140279 
L 116.233802 84.03874 
L 117.047472 90.241817 
L 117.861143 99.546433 
L 118.674813 102.647971 
L 119.488484 102.647971 
L 120.302154 96.444894 
L 121.115825 96.444894 
L 121.929495 102.647971 
L 122.743166 102.647971 
L 123.556837 99.546433 
L 124.370507 105.74951 
L 125.184178 99.546433 
L 127.625189 108.851048 
L 128.43886 99.546433 
L 129.25253 96.444894 
L 130.066201 96.444894 
L 131.693542 108.851048 
L 133.320883 108.851048 
L 134.134554 105.74951 
L 135.761895 111.952587 
L 136.575565 118.155663 
L 137.389236 115.054125 
L 138.202906 115.054125 
L 139.016577 111.952587 
L 140.643918 111.952587 
L 142.271259 118.155663 
L 143.08493 115.054125 
L 143.8986 118.155663 
L 144.712271 124.35874 
L 145.525941 121.257202 
L 147.966953 130.561817 
L 149.594294 130.561817 
L 150.407964 139.866433 
L 151.221635 139.866433 
L 152.035305 149.171048 
L 154.476317 149.171048 
L 158.54467 164.67874 
L 159.35834 164.67874 
L 160.172011 167.780279 
L 160.985681 164.67874 
L 162.613022 170.881817 
L 163.426693 167.780279 
L 165.054034 167.780279 
L 165.867705 173.983356 
L 166.681375 177.084894 
L 167.495046 177.084894 
L 168.308716 183.287971 
L 169.122387 180.186433 
L 170.749728 186.38951 
L 171.563398 186.38951 
L 172.377069 192.592587 
L 174.818081 192.592587 
L 175.631751 195.694125 
L 176.445422 195.694125 
L 178.072763 189.491048 
L 180.513774 189.491048 
L 181.327445 195.694125 
L 182.141115 204.99874 
L 182.954786 208.100279 
L 183.768457 214.303356 
L 184.582127 217.404894 
L 186.209468 217.404894 
L 187.023139 214.303356 
L 188.65048 214.303356 
L 189.46415 211.201817 
L 190.277821 211.201817 
L 191.091491 214.303356 
L 191.905162 211.201817 
L 192.718832 214.303356 
L 194.346174 214.303356 
L 195.159844 211.201817 
L 199.228197 211.201817 
L 200.041867 214.303356 
L 204.11022 214.303356 
L 204.923891 217.404894 
L 208.178573 217.404894 
L 208.992243 220.506433 
L 213.874266 220.506433 
L 214.687937 223.607971 
L 215.501608 220.506433 
L 216.315278 223.607971 
L 219.56996 223.607971 
L 220.383631 226.70951 
L 222.010972 226.70951 
L 222.824642 229.811048 
L 224.451984 229.811048 
L 225.265654 232.912587 
L 226.079325 239.115663 
L 227.706666 239.115663 
L 228.520336 242.217202 
L 229.334007 242.217202 
L 230.147677 245.31874 
L 235.029701 245.31874 
L 236.657042 251.521817 
L 239.098053 251.521817 
L 239.911724 245.31874 
L 240.725394 242.217202 
L 241.539065 242.217202 
L 242.352735 239.115663 
L 243.980076 239.115663 
L 244.793747 236.014125 
L 247.234759 236.014125 
L 248.048429 239.115663 
L 248.8621 232.912587 
L 249.67577 232.912587 
L 250.489441 239.115663 
L 251.303111 236.014125 
L 252.116782 236.014125 
L 252.930452 242.217202 
L 256.185135 242.217202 
L 256.998805 239.115663 
L 258.626146 239.115663 
L 260.253487 232.912587 
L 261.880828 239.115663 
L 262.694499 236.014125 
L 263.508169 236.014125 
L 264.32184 239.115663 
L 265.135511 239.115663 
L 265.949181 242.217202 
L 266.762852 236.014125 
L 267.576522 232.912587 
L 269.203863 232.912587 
L 270.017534 229.811048 
L 270.831204 229.811048 
L 271.644875 226.70951 
L 272.458545 226.70951 
L 273.272216 223.607971 
L 278.154239 223.607971 
L 278.96791 220.506433 
L 280.595251 226.70951 
L 281.408921 226.70951 
L 283.036262 232.912587 
L 283.849933 232.912587 
L 284.663603 236.014125 
L 286.290945 236.014125 
L 287.104615 232.912587 
L 289.545627 232.912587 
L 291.172968 226.70951 
L 291.986638 226.70951 
L 292.800309 223.607971 
L 299.309673 223.607971 
L 300.937014 217.404894 
L 301.750685 217.404894 
L 302.564355 220.506433 
L 303.378026 220.506433 
L 304.191696 217.404894 
L 306.632708 217.404894 
L 307.446379 214.303356 
L 308.260049 217.404894 
L 309.88739 217.404894 
L 310.701061 214.303356 
L 311.514731 214.303356 
L 312.328402 217.404894 
L 315.583084 217.404894 
L 317.210425 223.607971 
L 318.024096 220.506433 
L 319.651437 220.506433 
L 320.465107 223.607971 
L 322.092448 223.607971 
L 322.906119 220.506433 
L 323.719789 220.506433 
L 324.53346 214.303356 
L 325.34713 214.303356 
L 326.974472 208.100279 
L 327.788142 208.100279 
L 328.601813 201.897202 
L 329.415483 201.897202 
L 330.229154 198.795663 
L 331.042824 198.795663 
L 331.856495 201.897202 
L 335.924847 201.897202 
L 336.738518 204.99874 
L 337.552189 204.99874 
L 338.365859 208.100279 
L 340.806871 208.100279 
L 341.620541 214.303356 
L 343.247882 214.303356 
L 344.061553 217.404894 
L 344.875223 211.201817 
L 346.502565 211.201817 
L 347.316235 208.100279 
L 348.129906 217.404894 
L 348.943576 220.506433 
L 349.757247 220.506433 
L 350.570917 223.607971 
L 351.384588 229.811048 
L 352.198258 232.912587 
L 353.011929 239.115663 
L 356.266611 239.115663 
L 357.080282 242.217202 
L 357.893952 242.217202 
L 358.707623 239.115663 
L 361.148634 239.115663 
L 363.589646 229.811048 
L 364.403316 232.912587 
L 365.216987 226.70951 
L 366.844328 226.70951 
L 367.657999 229.811048 
L 372.540022 229.811048 
L 373.353692 236.014125 
L 375.794704 226.70951 
L 380.676727 226.70951 
L 381.490398 223.607971 
L 381.490398 223.607971 
" style="fill:none;stroke:#7dff7a;stroke-linecap:round;stroke-width:1.5;"/>
   </g>
   <g id="line2d_25">
    <path clip-path="url(#p7f42ef577b)" d="M 56.835852 276.334125 
L 59.276864 276.334125 
L 60.090534 273.232587 
L 61.717876 273.232587 
L 62.531546 276.334125 
L 63.345217 273.232587 
L 64.158887 273.232587 
L 64.972558 270.131048 
L 66.599899 270.131048 
L 67.413569 267.02951 
L 68.22724 257.724894 
L 69.04091 257.724894 
L 69.854581 254.623356 
L 71.481922 254.623356 
L 72.295593 248.420279 
L 73.109263 245.31874 
L 73.922934 236.014125 
L 75.550275 223.607971 
L 76.363945 223.607971 
L 77.991286 217.404894 
L 78.804957 220.506433 
L 79.618627 208.100279 
L 80.432298 201.897202 
L 81.245968 192.592587 
L 82.87331 180.186433 
L 83.68698 186.38951 
L 84.500651 183.287971 
L 85.314321 183.287971 
L 87.755333 173.983356 
L 88.569003 164.67874 
L 90.196344 158.475663 
L 91.010015 149.171048 
L 91.823685 158.475663 
L 92.637356 149.171048 
L 93.451027 146.06951 
L 95.078368 133.663356 
L 95.892038 121.257202 
L 96.705709 127.460279 
L 97.519379 111.952587 
L 98.33305 102.647971 
L 99.14672 102.647971 
L 99.960391 87.140279 
L 100.774061 62.327971 
L 101.587732 62.327971 
L 102.401403 59.226433 
L 103.215073 62.327971 
L 104.028744 62.327971 
L 104.842414 65.42951 
L 106.469755 59.226433 
L 107.283426 59.226433 
L 108.910767 71.632587 
L 109.724437 71.632587 
L 110.538108 68.531048 
L 111.351778 68.531048 
L 112.97912 74.734125 
L 113.79279 80.937202 
L 114.606461 80.937202 
L 116.233802 87.140279 
L 117.861143 74.734125 
L 118.674813 74.734125 
L 119.488484 77.835663 
L 120.302154 77.835663 
L 121.115825 74.734125 
L 121.929495 74.734125 
L 124.370507 84.03874 
L 125.184178 74.734125 
L 125.997848 71.632587 
L 126.811519 65.42951 
L 127.625189 65.42951 
L 130.066201 56.124894 
L 131.693542 56.124894 
L 132.507212 59.226433 
L 133.320883 59.226433 
L 134.134554 68.531048 
L 134.948224 68.531048 
L 135.761895 80.937202 
L 137.389236 87.140279 
L 138.202906 93.343356 
L 139.016577 87.140279 
L 139.830247 90.241817 
L 140.643918 87.140279 
L 141.457588 96.444894 
L 142.271259 99.546433 
L 143.08493 99.546433 
L 145.525941 108.851048 
L 146.339612 108.851048 
L 147.153282 111.952587 
L 147.966953 108.851048 
L 148.780623 115.054125 
L 150.407964 115.054125 
L 151.221635 121.257202 
L 152.848976 121.257202 
L 154.476317 115.054125 
L 156.917329 115.054125 
L 157.730999 111.952587 
L 158.54467 118.155663 
L 159.35834 121.257202 
L 160.985681 121.257202 
L 161.799352 133.663356 
L 162.613022 133.663356 
L 163.426693 136.764894 
L 165.867705 136.764894 
L 166.681375 142.967971 
L 167.495046 139.866433 
L 168.308716 146.06951 
L 169.122387 149.171048 
L 170.749728 142.967971 
L 171.563398 142.967971 
L 173.190739 149.171048 
L 174.818081 149.171048 
L 177.259092 158.475663 
L 178.072763 164.67874 
L 178.886433 164.67874 
L 179.700104 170.881817 
L 180.513774 170.881817 
L 181.327445 167.780279 
L 182.141115 173.983356 
L 182.954786 177.084894 
L 183.768457 183.287971 
L 186.209468 183.287971 
L 187.023139 189.491048 
L 187.836809 189.491048 
L 188.65048 195.694125 
L 190.277821 195.694125 
L 191.091491 198.795663 
L 191.905162 198.795663 
L 192.718832 201.897202 
L 193.532503 198.795663 
L 194.346174 201.897202 
L 195.159844 201.897202 
L 196.787185 208.100279 
L 200.041867 208.100279 
L 200.855538 211.201817 
L 201.669208 211.201817 
L 202.482879 214.303356 
L 203.296549 214.303356 
L 204.11022 220.506433 
L 208.992243 220.506433 
L 209.805914 223.607971 
L 210.619584 223.607971 
L 211.433255 217.404894 
L 213.060596 217.404894 
L 213.874266 220.506433 
L 214.687937 217.404894 
L 215.501608 217.404894 
L 216.315278 214.303356 
L 217.128949 220.506433 
L 221.197301 220.506433 
L 222.010972 223.607971 
L 223.638313 223.607971 
L 224.451984 226.70951 
L 225.265654 223.607971 
L 226.892995 223.607971 
L 228.520336 229.811048 
L 231.775018 229.811048 
L 232.588689 232.912587 
L 235.843371 232.912587 
L 236.657042 226.70951 
L 237.470712 229.811048 
L 241.539065 229.811048 
L 242.352735 232.912587 
L 243.980076 226.70951 
L 244.793747 229.811048 
L 245.607418 226.70951 
L 246.421088 229.811048 
L 247.234759 226.70951 
L 248.048429 226.70951 
L 248.8621 223.607971 
L 250.489441 223.607971 
L 251.303111 226.70951 
L 252.116782 236.014125 
L 252.930452 232.912587 
L 254.557793 232.912587 
L 255.371464 229.811048 
L 256.185135 232.912587 
L 256.998805 229.811048 
L 257.812476 229.811048 
L 258.626146 232.912587 
L 260.253487 232.912587 
L 261.880828 226.70951 
L 269.203863 226.70951 
L 270.017534 229.811048 
L 271.644875 229.811048 
L 272.458545 226.70951 
L 278.154239 226.70951 
L 278.96791 223.607971 
L 279.78158 226.70951 
L 280.595251 223.607971 
L 283.036262 223.607971 
L 283.849933 226.70951 
L 285.477274 226.70951 
L 286.290945 223.607971 
L 290.359297 223.607971 
L 291.172968 220.506433 
L 294.42765 220.506433 
L 295.24132 214.303356 
L 297.682332 214.303356 
L 298.496003 208.100279 
L 300.123344 214.303356 
L 309.88739 214.303356 
L 310.701061 204.99874 
L 311.514731 208.100279 
L 313.955743 208.100279 
L 314.769413 214.303356 
L 315.583084 217.404894 
L 316.396755 214.303356 
L 317.210425 220.506433 
L 319.651437 211.201817 
L 320.465107 217.404894 
L 322.906119 217.404894 
L 323.719789 214.303356 
L 324.53346 214.303356 
L 325.34713 217.404894 
L 326.160801 217.404894 
L 326.974472 220.506433 
L 327.788142 217.404894 
L 328.601813 223.607971 
L 329.415483 223.607971 
L 330.229154 226.70951 
L 331.042824 223.607971 
L 334.297506 223.607971 
L 335.111177 226.70951 
L 335.924847 223.607971 
L 337.552189 223.607971 
L 338.365859 226.70951 
L 341.620541 226.70951 
L 342.434212 229.811048 
L 344.061553 229.811048 
L 344.875223 232.912587 
L 345.688894 229.811048 
L 346.502565 232.912587 
L 347.316235 232.912587 
L 348.129906 229.811048 
L 348.943576 229.811048 
L 350.570917 236.014125 
L 351.384588 236.014125 
L 353.011929 229.811048 
L 353.825599 229.811048 
L 354.63927 226.70951 
L 355.45294 226.70951 
L 356.266611 223.607971 
L 357.080282 226.70951 
L 361.148634 226.70951 
L 361.962305 223.607971 
L 363.589646 223.607971 
L 364.403316 220.506433 
L 366.844328 220.506433 
L 367.657999 229.811048 
L 373.353692 229.811048 
L 374.167363 232.912587 
L 375.794704 226.70951 
L 376.608374 226.70951 
L 377.422045 229.811048 
L 378.235716 229.811048 
L 379.049386 236.014125 
L 379.863057 236.014125 
L 380.676727 232.912587 
L 381.490398 232.912587 
L 381.490398 232.912587 
" style="fill:none;stroke:#ceff29;stroke-linecap:round;stroke-width:1.5;"/>
   </g>
   <g id="line2d_26">
    <path clip-path="url(#p7f42ef577b)" d="M 56.835852 276.334125 
L 64.972558 276.334125 
L 67.413569 267.02951 
L 68.22724 260.826433 
L 69.04091 260.826433 
L 69.854581 251.521817 
L 70.668251 248.420279 
L 71.481922 239.115663 
L 72.295593 232.912587 
L 73.109263 229.811048 
L 73.922934 223.607971 
L 74.736604 214.303356 
L 75.550275 214.303356 
L 76.363945 220.506433 
L 77.177616 201.897202 
L 77.991286 195.694125 
L 78.804957 192.592587 
L 79.618627 192.592587 
L 80.432298 180.186433 
L 81.245968 177.084894 
L 82.059639 164.67874 
L 82.87331 155.374125 
L 83.68698 155.374125 
L 84.500651 142.967971 
L 86.127992 124.35874 
L 87.755333 130.561817 
L 88.569003 124.35874 
L 90.196344 124.35874 
L 91.823685 130.561817 
L 92.637356 124.35874 
L 95.078368 124.35874 
L 95.892038 118.155663 
L 96.705709 118.155663 
L 97.519379 105.74951 
L 99.14672 93.343356 
L 99.960391 90.241817 
L 100.774061 93.343356 
L 101.587732 93.343356 
L 103.215073 74.734125 
L 104.028744 80.937202 
L 104.842414 80.937202 
L 105.656085 77.835663 
L 106.469755 77.835663 
L 107.283426 68.531048 
L 108.097096 74.734125 
L 109.724437 80.937202 
L 110.538108 80.937202 
L 111.351778 84.03874 
L 112.165449 77.835663 
L 113.79279 77.835663 
L 114.606461 71.632587 
L 115.420131 68.531048 
L 116.233802 59.226433 
L 117.047472 62.327971 
L 119.488484 62.327971 
L 121.115825 74.734125 
L 122.743166 68.531048 
L 123.556837 77.835663 
L 124.370507 77.835663 
L 125.184178 74.734125 
L 127.625189 84.03874 
L 128.43886 84.03874 
L 129.25253 77.835663 
L 130.066201 74.734125 
L 130.879871 74.734125 
L 131.693542 77.835663 
L 134.134554 96.444894 
L 134.948224 105.74951 
L 135.761895 102.647971 
L 136.575565 111.952587 
L 137.389236 115.054125 
L 138.202906 111.952587 
L 139.016577 118.155663 
L 139.830247 118.155663 
L 140.643918 115.054125 
L 141.457588 115.054125 
L 143.08493 108.851048 
L 144.712271 121.257202 
L 145.525941 124.35874 
L 146.339612 121.257202 
L 147.153282 121.257202 
L 148.780623 127.460279 
L 149.594294 124.35874 
L 150.407964 118.155663 
L 151.221635 124.35874 
L 152.848976 130.561817 
L 153.662647 130.561817 
L 155.289988 124.35874 
L 156.103658 130.561817 
L 156.917329 130.561817 
L 157.730999 133.663356 
L 160.172011 133.663356 
L 160.985681 136.764894 
L 161.799352 146.06951 
L 162.613022 139.866433 
L 165.054034 139.866433 
L 165.867705 142.967971 
L 166.681375 149.171048 
L 168.308716 155.374125 
L 169.936057 155.374125 
L 170.749728 158.475663 
L 171.563398 164.67874 
L 172.377069 161.577202 
L 174.818081 170.881817 
L 177.259092 170.881817 
L 178.072763 177.084894 
L 178.886433 180.186433 
L 179.700104 180.186433 
L 180.513774 183.287971 
L 181.327445 183.287971 
L 182.141115 180.186433 
L 182.954786 180.186433 
L 184.582127 186.38951 
L 185.395798 192.592587 
L 186.209468 192.592587 
L 187.023139 195.694125 
L 187.836809 201.897202 
L 188.65048 211.201817 
L 193.532503 211.201817 
L 194.346174 208.100279 
L 195.973515 208.100279 
L 196.787185 214.303356 
L 199.228197 214.303356 
L 201.669208 223.607971 
L 204.923891 223.607971 
L 206.551232 229.811048 
L 207.364902 229.811048 
L 208.178573 236.014125 
L 208.992243 236.014125 
L 209.805914 239.115663 
L 213.874266 239.115663 
L 214.687937 236.014125 
L 215.501608 239.115663 
L 217.128949 239.115663 
L 218.75629 232.912587 
L 221.197301 232.912587 
L 222.010972 236.014125 
L 227.706666 236.014125 
L 228.520336 242.217202 
L 229.334007 242.217202 
L 230.147677 245.31874 
L 231.775018 245.31874 
L 233.402359 239.115663 
L 234.21603 242.217202 
L 235.843371 242.217202 
L 236.657042 239.115663 
L 237.470712 242.217202 
L 238.284383 242.217202 
L 239.098053 245.31874 
L 240.725394 245.31874 
L 241.539065 251.521817 
L 243.166406 257.724894 
L 245.607418 257.724894 
L 246.421088 251.521817 
L 250.489441 251.521817 
L 251.303111 248.420279 
L 254.557793 248.420279 
L 255.371464 245.31874 
L 256.185135 248.420279 
L 257.812476 248.420279 
L 258.626146 242.217202 
L 263.508169 242.217202 
L 264.32184 245.31874 
L 265.135511 245.31874 
L 265.949181 248.420279 
L 266.762852 245.31874 
L 278.154239 245.31874 
L 280.595251 236.014125 
L 283.036262 236.014125 
L 283.849933 242.217202 
L 284.663603 245.31874 
L 285.477274 242.217202 
L 286.290945 242.217202 
L 287.104615 245.31874 
L 288.731956 245.31874 
L 289.545627 248.420279 
L 290.359297 248.420279 
L 291.986638 254.623356 
L 292.800309 251.521817 
L 294.42765 251.521817 
L 296.868662 242.217202 
L 300.937014 242.217202 
L 301.750685 245.31874 
L 313.955743 245.31874 
L 314.769413 248.420279 
L 321.278778 248.420279 
L 322.092448 245.31874 
L 323.719789 245.31874 
L 324.53346 248.420279 
L 325.34713 245.31874 
L 330.229154 245.31874 
L 331.042824 242.217202 
L 336.738518 242.217202 
L 337.552189 239.115663 
L 338.365859 242.217202 
L 339.17953 242.217202 
L 339.9932 245.31874 
L 345.688894 245.31874 
L 348.129906 254.623356 
L 348.943576 254.623356 
L 349.757247 257.724894 
L 350.570917 254.623356 
L 352.198258 254.623356 
L 353.825599 248.420279 
L 356.266611 248.420279 
L 357.080282 251.521817 
L 357.893952 245.31874 
L 361.962305 245.31874 
L 362.775975 242.217202 
L 370.09901 242.217202 
L 370.912681 248.420279 
L 381.490398 248.420279 
L 381.490398 248.420279 
" style="fill:none;stroke:#ffc400;stroke-linecap:round;stroke-width:1.5;"/>
   </g>
   <g id="line2d_27">
    <path clip-path="url(#p7f42ef577b)" d="M 56.835852 276.334125 
L 60.090534 276.334125 
L 60.904205 273.232587 
L 64.158887 273.232587 
L 65.786228 267.02951 
L 66.599899 260.826433 
L 69.04091 260.826433 
L 69.854581 257.724894 
L 70.668251 257.724894 
L 71.481922 251.521817 
L 72.295593 251.521817 
L 73.109263 248.420279 
L 73.922934 239.115663 
L 74.736604 226.70951 
L 76.363945 220.506433 
L 77.177616 208.100279 
L 77.991286 201.897202 
L 78.804957 189.491048 
L 79.618627 183.287971 
L 80.432298 180.186433 
L 81.245968 183.287971 
L 82.059639 173.983356 
L 82.87331 170.881817 
L 83.68698 170.881817 
L 84.500651 161.577202 
L 85.314321 155.374125 
L 86.127992 164.67874 
L 86.941662 161.577202 
L 87.755333 161.577202 
L 89.382674 136.764894 
L 90.196344 136.764894 
L 91.010015 142.967971 
L 92.637356 136.764894 
L 93.451027 130.561817 
L 94.264697 121.257202 
L 95.078368 121.257202 
L 96.705709 115.054125 
L 97.519379 118.155663 
L 98.33305 118.155663 
L 99.14672 115.054125 
L 99.960391 105.74951 
L 100.774061 105.74951 
L 101.587732 108.851048 
L 103.215073 108.851048 
L 104.028744 102.647971 
L 104.842414 102.647971 
L 105.656085 99.546433 
L 106.469755 93.343356 
L 107.283426 84.03874 
L 108.097096 84.03874 
L 108.910767 87.140279 
L 109.724437 93.343356 
L 110.538108 87.140279 
L 111.351778 77.835663 
L 112.165449 77.835663 
L 112.97912 74.734125 
L 113.79279 84.03874 
L 114.606461 84.03874 
L 115.420131 77.835663 
L 116.233802 80.937202 
L 117.861143 74.734125 
L 118.674813 68.531048 
L 119.488484 68.531048 
L 121.115825 80.937202 
L 121.929495 77.835663 
L 122.743166 87.140279 
L 123.556837 80.937202 
L 124.370507 80.937202 
L 125.184178 84.03874 
L 125.997848 90.241817 
L 126.811519 93.343356 
L 128.43886 87.140279 
L 129.25253 87.140279 
L 130.066201 84.03874 
L 130.879871 90.241817 
L 131.693542 87.140279 
L 132.507212 96.444894 
L 133.320883 99.546433 
L 134.948224 111.952587 
L 135.761895 105.74951 
L 136.575565 105.74951 
L 138.202906 99.546433 
L 139.830247 105.74951 
L 140.643918 105.74951 
L 141.457588 102.647971 
L 142.271259 105.74951 
L 143.08493 111.952587 
L 143.8986 115.054125 
L 144.712271 121.257202 
L 145.525941 121.257202 
L 146.339612 115.054125 
L 147.966953 133.663356 
L 149.594294 139.866433 
L 151.221635 139.866433 
L 152.035305 142.967971 
L 152.848976 139.866433 
L 154.476317 139.866433 
L 156.103658 146.06951 
L 156.917329 146.06951 
L 157.730999 149.171048 
L 158.54467 146.06951 
L 159.35834 152.272587 
L 160.172011 146.06951 
L 160.985681 149.171048 
L 161.799352 155.374125 
L 164.240364 164.67874 
L 165.054034 164.67874 
L 165.867705 167.780279 
L 166.681375 164.67874 
L 167.495046 167.780279 
L 168.308716 167.780279 
L 169.122387 177.084894 
L 170.749728 177.084894 
L 171.563398 173.983356 
L 173.190739 180.186433 
L 174.00441 177.084894 
L 174.818081 180.186433 
L 175.631751 186.38951 
L 179.700104 186.38951 
L 180.513774 189.491048 
L 181.327445 189.491048 
L 182.141115 186.38951 
L 182.954786 186.38951 
L 183.768457 183.287971 
L 184.582127 183.287971 
L 185.395798 180.186433 
L 186.209468 183.287971 
L 188.65048 173.983356 
L 189.46415 177.084894 
L 190.277821 183.287971 
L 193.532503 183.287971 
L 194.346174 180.186433 
L 195.159844 183.287971 
L 195.973515 183.287971 
L 196.787185 189.491048 
L 197.600856 186.38951 
L 198.414526 189.491048 
L 200.041867 189.491048 
L 201.669208 201.897202 
L 203.296549 201.897202 
L 204.11022 198.795663 
L 204.923891 201.897202 
L 206.551232 201.897202 
L 207.364902 198.795663 
L 208.178573 204.99874 
L 208.992243 204.99874 
L 209.805914 208.100279 
L 211.433255 208.100279 
L 212.246925 211.201817 
L 213.060596 217.404894 
L 213.874266 217.404894 
L 214.687937 214.303356 
L 215.501608 220.506433 
L 216.315278 223.607971 
L 218.75629 214.303356 
L 219.56996 214.303356 
L 220.383631 211.201817 
L 221.197301 211.201817 
L 222.010972 214.303356 
L 222.824642 214.303356 
L 223.638313 211.201817 
L 226.079325 211.201817 
L 226.892995 214.303356 
L 229.334007 214.303356 
L 230.147677 217.404894 
L 230.961348 217.404894 
L 231.775018 214.303356 
L 232.588689 214.303356 
L 233.402359 211.201817 
L 234.21603 214.303356 
L 235.029701 220.506433 
L 236.657042 220.506433 
L 237.470712 226.70951 
L 239.098053 226.70951 
L 239.911724 223.607971 
L 240.725394 226.70951 
L 243.166406 226.70951 
L 243.980076 223.607971 
L 248.048429 223.607971 
L 248.8621 220.506433 
L 249.67577 220.506433 
L 251.303111 214.303356 
L 252.116782 217.404894 
L 254.557793 217.404894 
L 256.185135 223.607971 
L 257.812476 223.607971 
L 258.626146 220.506433 
L 259.439817 226.70951 
L 260.253487 226.70951 
L 261.067158 223.607971 
L 263.508169 223.607971 
L 264.32184 217.404894 
L 265.949181 223.607971 
L 266.762852 223.607971 
L 269.203863 232.912587 
L 270.017534 232.912587 
L 270.831204 236.014125 
L 275.713228 236.014125 
L 276.526898 232.912587 
L 277.340569 236.014125 
L 282.222592 236.014125 
L 283.849933 242.217202 
L 285.477274 242.217202 
L 287.104615 236.014125 
L 287.918286 236.014125 
L 288.731956 232.912587 
L 289.545627 232.912587 
L 290.359297 236.014125 
L 291.172968 232.912587 
L 291.986638 232.912587 
L 292.800309 229.811048 
L 295.24132 229.811048 
L 296.868662 236.014125 
L 302.564355 236.014125 
L 303.378026 239.115663 
L 307.446379 239.115663 
L 308.260049 232.912587 
L 309.07372 229.811048 
L 309.88739 232.912587 
L 310.701061 232.912587 
L 311.514731 236.014125 
L 313.955743 236.014125 
L 314.769413 229.811048 
L 316.396755 229.811048 
L 317.210425 226.70951 
L 321.278778 226.70951 
L 322.092448 223.607971 
L 322.906119 223.607971 
L 323.719789 226.70951 
L 324.53346 232.912587 
L 325.34713 229.811048 
L 326.974472 229.811048 
L 327.788142 236.014125 
L 329.415483 236.014125 
L 330.229154 232.912587 
L 331.042824 239.115663 
L 331.856495 239.115663 
L 332.670165 236.014125 
L 337.552189 236.014125 
L 338.365859 232.912587 
L 339.17953 232.912587 
L 339.9932 239.115663 
L 340.806871 239.115663 
L 341.620541 236.014125 
L 346.502565 236.014125 
L 347.316235 232.912587 
L 348.943576 232.912587 
L 349.757247 236.014125 
L 352.198258 236.014125 
L 353.011929 239.115663 
L 354.63927 239.115663 
L 355.45294 245.31874 
L 357.080282 245.31874 
L 358.707623 251.521817 
L 360.334964 245.31874 
L 361.148634 248.420279 
L 367.657999 248.420279 
L 368.471669 251.521817 
L 371.726351 251.521817 
L 372.540022 254.623356 
L 373.353692 251.521817 
L 376.608374 251.521817 
L 377.422045 254.623356 
L 378.235716 254.623356 
L 379.049386 257.724894 
L 381.490398 257.724894 
L 381.490398 257.724894 
" style="fill:none;stroke:#ff6800;stroke-linecap:round;stroke-width:1.5;"/>
   </g>
   <g id="line2d_28">
    <path clip-path="url(#p7f42ef577b)" d="M 56.835852 276.334125 
L 60.904205 276.334125 
L 61.717876 273.232587 
L 62.531546 273.232587 
L 63.345217 270.131048 
L 64.972558 270.131048 
L 65.786228 267.02951 
L 66.599899 267.02951 
L 67.413569 263.927971 
L 69.04091 263.927971 
L 69.854581 257.724894 
L 71.481922 257.724894 
L 72.295593 254.623356 
L 74.736604 254.623356 
L 75.550275 251.521817 
L 76.363945 245.31874 
L 77.177616 245.31874 
L 77.991286 242.217202 
L 78.804957 229.811048 
L 80.432298 217.404894 
L 81.245968 214.303356 
L 82.059639 208.100279 
L 82.87331 211.201817 
L 84.500651 198.795663 
L 86.127992 192.592587 
L 87.755333 180.186433 
L 88.569003 167.780279 
L 91.010015 158.475663 
L 91.823685 161.577202 
L 92.637356 152.272587 
L 93.451027 133.663356 
L 94.264697 133.663356 
L 95.078368 127.460279 
L 95.892038 127.460279 
L 96.705709 111.952587 
L 98.33305 105.74951 
L 99.14672 111.952587 
L 99.960391 96.444894 
L 100.774061 93.343356 
L 101.587732 80.937202 
L 102.401403 84.03874 
L 103.215073 93.343356 
L 104.028744 93.343356 
L 104.842414 96.444894 
L 105.656085 93.343356 
L 106.469755 93.343356 
L 108.910767 74.734125 
L 109.724437 80.937202 
L 111.351778 74.734125 
L 112.165449 77.835663 
L 112.97912 71.632587 
L 113.79279 74.734125 
L 114.606461 68.531048 
L 115.420131 65.42951 
L 116.233802 59.226433 
L 117.047472 49.921817 
L 117.861143 49.921817 
L 118.674813 34.414125 
L 119.488484 37.515663 
L 120.302154 37.515663 
L 121.115825 40.617202 
L 121.929495 49.921817 
L 123.556837 56.124894 
L 124.370507 68.531048 
L 125.184178 65.42951 
L 125.997848 68.531048 
L 126.811519 74.734125 
L 132.507212 74.734125 
L 134.134554 68.531048 
L 134.948224 77.835663 
L 136.575565 84.03874 
L 137.389236 84.03874 
L 138.202906 93.343356 
L 139.016577 93.343356 
L 139.830247 90.241817 
L 140.643918 99.546433 
L 141.457588 102.647971 
L 142.271259 102.647971 
L 143.08493 108.851048 
L 143.8986 108.851048 
L 144.712271 111.952587 
L 145.525941 108.851048 
L 146.339612 108.851048 
L 147.153282 96.444894 
L 147.966953 96.444894 
L 148.780623 102.647971 
L 150.407964 108.851048 
L 151.221635 108.851048 
L 152.035305 118.155663 
L 153.662647 124.35874 
L 154.476317 130.561817 
L 156.103658 130.561817 
L 156.917329 136.764894 
L 157.730999 136.764894 
L 158.54467 133.663356 
L 159.35834 136.764894 
L 160.172011 136.764894 
L 161.799352 142.967971 
L 162.613022 152.272587 
L 163.426693 155.374125 
L 164.240364 155.374125 
L 165.054034 152.272587 
L 165.867705 152.272587 
L 166.681375 155.374125 
L 168.308716 155.374125 
L 169.122387 152.272587 
L 170.749728 158.475663 
L 171.563398 164.67874 
L 172.377069 164.67874 
L 173.190739 170.881817 
L 174.00441 173.983356 
L 174.818081 173.983356 
L 175.631751 177.084894 
L 178.886433 177.084894 
L 179.700104 173.983356 
L 181.327445 180.186433 
L 184.582127 180.186433 
L 187.836809 192.592587 
L 188.65048 192.592587 
L 189.46415 195.694125 
L 190.277821 192.592587 
L 191.905162 198.795663 
L 193.532503 192.592587 
L 195.159844 198.795663 
L 195.973515 208.100279 
L 198.414526 208.100279 
L 199.228197 211.201817 
L 203.296549 211.201817 
L 204.11022 208.100279 
L 208.992243 208.100279 
L 209.805914 214.303356 
L 211.433255 214.303356 
L 212.246925 217.404894 
L 213.874266 217.404894 
L 214.687937 223.607971 
L 215.501608 220.506433 
L 217.128949 226.70951 
L 217.942619 226.70951 
L 218.75629 223.607971 
L 219.56996 223.607971 
L 220.383631 226.70951 
L 221.197301 226.70951 
L 222.010972 229.811048 
L 224.451984 229.811048 
L 225.265654 232.912587 
L 226.079325 229.811048 
L 227.706666 229.811048 
L 228.520336 226.70951 
L 229.334007 226.70951 
L 230.147677 229.811048 
L 235.029701 229.811048 
L 235.843371 236.014125 
L 236.657042 232.912587 
L 239.098053 232.912587 
L 239.911724 236.014125 
L 242.352735 236.014125 
L 243.166406 239.115663 
L 243.980076 236.014125 
L 244.793747 239.115663 
L 246.421088 239.115663 
L 247.234759 236.014125 
L 248.048429 239.115663 
L 248.8621 239.115663 
L 249.67577 236.014125 
L 250.489441 236.014125 
L 251.303111 232.912587 
L 256.185135 232.912587 
L 256.998805 236.014125 
L 257.812476 236.014125 
L 258.626146 239.115663 
L 260.253487 239.115663 
L 261.067158 242.217202 
L 266.762852 242.217202 
L 267.576522 245.31874 
L 270.017534 245.31874 
L 270.831204 248.420279 
L 274.899557 248.420279 
L 275.713228 251.521817 
L 278.96791 251.521817 
L 279.78158 248.420279 
L 280.595251 248.420279 
L 281.408921 251.521817 
L 283.036262 251.521817 
L 283.849933 248.420279 
L 286.290945 248.420279 
L 287.104615 245.31874 
L 287.918286 245.31874 
L 290.359297 254.623356 
L 293.613979 254.623356 
L 294.42765 251.521817 
L 297.682332 251.521817 
L 298.496003 245.31874 
L 299.309673 245.31874 
L 300.937014 251.521817 
L 301.750685 251.521817 
L 302.564355 254.623356 
L 310.701061 254.623356 
L 312.328402 260.826433 
L 313.142072 257.724894 
L 313.955743 260.826433 
L 315.583084 260.826433 
L 316.396755 254.623356 
L 317.210425 251.521817 
L 318.837766 257.724894 
L 326.160801 257.724894 
L 326.974472 260.826433 
L 331.042824 260.826433 
L 331.856495 254.623356 
L 333.483836 254.623356 
L 334.297506 251.521817 
L 336.738518 251.521817 
L 337.552189 254.623356 
L 338.365859 254.623356 
L 339.17953 257.724894 
L 341.620541 257.724894 
L 343.247882 251.521817 
L 347.316235 251.521817 
L 348.943576 245.31874 
L 352.198258 245.31874 
L 353.011929 248.420279 
L 353.825599 245.31874 
L 356.266611 245.31874 
L 357.080282 248.420279 
L 357.893952 248.420279 
L 358.707623 245.31874 
L 366.030657 245.31874 
L 366.844328 242.217202 
L 367.657999 242.217202 
L 368.471669 248.420279 
L 370.912681 248.420279 
L 371.726351 245.31874 
L 374.167363 245.31874 
L 374.981033 242.217202 
L 381.490398 242.217202 
L 381.490398 242.217202 
" style="fill:none;stroke:#f10800;stroke-linecap:round;stroke-width:1.5;"/>
   </g>
   <g id="patch_3">
    <path d="M 40.603125 288.430125 
L 40.603125 22.318125 
" style="fill:none;stroke:#cccccc;stroke-linecap:square;stroke-linejoin:miter;stroke-width:0.8;"/>
   </g>
   <g id="patch_4">
    <path d="M 397.723125 288.430125 
L 397.723125 22.318125 
" style="fill:none;stroke:#cccccc;stroke-linecap:square;stroke-linejoin:miter;stroke-width:0.8;"/>
   </g>
   <g id="patch_5">
    <path d="M 40.603125 288.430125 
L 397.723125 288.430125 
" style="fill:none;stroke:#cccccc;stroke-linecap:square;stroke-linejoin:miter;stroke-width:0.8;"/>
   </g>
   <g id="patch_6">
    <path d="M 40.603125 22.318125 
L 397.723125 22.318125 
" style="fill:none;stroke:#cccccc;stroke-linecap:square;stroke-linejoin:miter;stroke-width:0.8;"/>
   </g>
   <g id="text_21">
    <!-- Effector T CD4 -->
    <defs>
     <path d="M 9.8125 72.90625 
L 55.90625 72.90625 
L 55.90625 64.59375 
L 19.671875 64.59375 
L 19.671875 43.015625 
L 54.390625 43.015625 
L 54.390625 34.71875 
L 19.671875 34.71875 
L 19.671875 8.296875 
L 56.78125 8.296875 
L 56.78125 0 
L 9.8125 0 
z
" id="DejaVuSans-69"/>
     <path d="M 37.109375 75.984375 
L 37.109375 68.5 
L 28.515625 68.5 
Q 23.6875 68.5 21.796875 66.546875 
Q 19.921875 64.59375 19.921875 59.515625 
L 19.921875 54.6875 
L 34.71875 54.6875 
L 34.71875 47.703125 
L 19.921875 47.703125 
L 19.921875 0 
L 10.890625 0 
L 10.890625 47.703125 
L 2.296875 47.703125 
L 2.296875 54.6875 
L 10.890625 54.6875 
L 10.890625 58.5 
Q 10.890625 67.625 15.140625 71.796875 
Q 19.390625 75.984375 28.609375 75.984375 
z
" id="DejaVuSans-102"/>
     <path d="M 30.609375 48.390625 
Q 23.390625 48.390625 19.1875 42.75 
Q 14.984375 37.109375 14.984375 27.296875 
Q 14.984375 17.484375 19.15625 11.84375 
Q 23.34375 6.203125 30.609375 6.203125 
Q 37.796875 6.203125 41.984375 11.859375 
Q 46.1875 17.53125 46.1875 27.296875 
Q 46.1875 37.015625 41.984375 42.703125 
Q 37.796875 48.390625 30.609375 48.390625 
z
M 30.609375 56 
Q 42.328125 56 49.015625 48.375 
Q 55.71875 40.765625 55.71875 27.296875 
Q 55.71875 13.875 49.015625 6.21875 
Q 42.328125 -1.421875 30.609375 -1.421875 
Q 18.84375 -1.421875 12.171875 6.21875 
Q 5.515625 13.875 5.515625 27.296875 
Q 5.515625 40.765625 12.171875 48.375 
Q 18.84375 56 30.609375 56 
z
" id="DejaVuSans-111"/>
     <path d="M -0.296875 72.90625 
L 61.375 72.90625 
L 61.375 64.59375 
L 35.5 64.59375 
L 35.5 0 
L 25.59375 0 
L 25.59375 64.59375 
L -0.296875 64.59375 
z
" id="DejaVuSans-84"/>
     <path d="M 64.40625 67.28125 
L 64.40625 56.890625 
Q 59.421875 61.53125 53.78125 63.8125 
Q 48.140625 66.109375 41.796875 66.109375 
Q 29.296875 66.109375 22.65625 58.46875 
Q 16.015625 50.828125 16.015625 36.375 
Q 16.015625 21.96875 22.65625 14.328125 
Q 29.296875 6.6875 41.796875 6.6875 
Q 48.140625 6.6875 53.78125 8.984375 
Q 59.421875 11.28125 64.40625 15.921875 
L 64.40625 5.609375 
Q 59.234375 2.09375 53.4375 0.328125 
Q 47.65625 -1.421875 41.21875 -1.421875 
Q 24.65625 -1.421875 15.125 8.703125 
Q 5.609375 18.84375 5.609375 36.375 
Q 5.609375 53.953125 15.125 64.078125 
Q 24.65625 74.21875 41.21875 74.21875 
Q 47.75 74.21875 53.53125 72.484375 
Q 59.328125 70.75 64.40625 67.28125 
z
" id="DejaVuSans-67"/>
     <path d="M 19.671875 64.796875 
L 19.671875 8.109375 
L 31.59375 8.109375 
Q 46.6875 8.109375 53.6875 14.9375 
Q 60.6875 21.78125 60.6875 36.53125 
Q 60.6875 51.171875 53.6875 57.984375 
Q 46.6875 64.796875 31.59375 64.796875 
z
M 9.8125 72.90625 
L 30.078125 72.90625 
Q 51.265625 72.90625 61.171875 64.09375 
Q 71.09375 55.28125 71.09375 36.53125 
Q 71.09375 17.671875 61.125 8.828125 
Q 51.171875 0 30.078125 0 
L 9.8125 0 
z
" id="DejaVuSans-68"/>
    </defs>
    <g style="fill:#262626;" transform="translate(175.560938 16.318125)scale(0.12 -0.12)">
     <use xlink:href="#DejaVuSans-69"/>
     <use x="63.183594" xlink:href="#DejaVuSans-102"/>
     <use x="98.388672" xlink:href="#DejaVuSans-102"/>
     <use x="133.59375" xlink:href="#DejaVuSans-101"/>
     <use x="195.117188" xlink:href="#DejaVuSans-99"/>
     <use x="250.097656" xlink:href="#DejaVuSans-116"/>
     <use x="289.306641" xlink:href="#DejaVuSans-111"/>
     <use x="350.488281" xlink:href="#DejaVuSans-114"/>
     <use x="391.601562" xlink:href="#DejaVuSans-32"/>
     <use x="423.388672" xlink:href="#DejaVuSans-84"/>
     <use x="484.472656" xlink:href="#DejaVuSans-32"/>
     <use x="516.259766" xlink:href="#DejaVuSans-67"/>
     <use x="586.083984" xlink:href="#DejaVuSans-68"/>
     <use x="663.085938" xlink:href="#DejaVuSans-52"/>
    </g>
   </g>
  </g>
 </g>
 <defs>
  <clipPath id="p7f42ef577b">
   <rect height="266.112" width="357.12" x="40.603125" y="22.318125"/>
  </clipPath>
 </defs>
</svg>
