<?xml version="1.0" encoding="utf-8" standalone="no"?>
<!DOCTYPE svg PUBLIC "-//W3C//DTD SVG 1.1//EN"
  "http://www.w3.org/Graphics/SVG/1.1/DTD/svg11.dtd">
<!-- Created with matplotlib (https://matplotlib.org/) -->
<svg height="325.986375pt" version="1.1" viewBox="0 0 430.373125 325.986375" width="430.373125pt" xmlns="http://www.w3.org/2000/svg" xmlns:xlink="http://www.w3.org/1999/xlink">
 <defs>
  <style type="text/css">
*{stroke-linecap:butt;stroke-linejoin:round;white-space:pre;}
  </style>
 </defs>
 <g id="figure_1">
  <g id="patch_1">
   <path d="M 0 325.986375 
L 430.373125 325.986375 
L 430.373125 0 
L 0 0 
z
" style="fill:#ffffff;"/>
  </g>
  <g id="axes_1">
   <g id="patch_2">
    <path d="M 66.053125 288.430125 
L 423.173125 288.430125 
L 423.173125 22.318125 
L 66.053125 22.318125 
z
" style="fill:#ffffff;"/>
   </g>
   <g id="matplotlib.axis_1">
    <g id="xtick_1">
     <g id="line2d_1">
      <path clip-path="url(#pc1df1b31ae)" d="M 82.285852 288.430125 
L 82.285852 22.318125 
" style="fill:none;stroke:#cccccc;stroke-linecap:round;stroke-width:0.8;"/>
     </g>
     <g id="text_1">
      <!-- 0 -->
      <defs>
       <path d="M 31.78125 66.40625 
Q 24.171875 66.40625 20.328125 58.90625 
Q 16.5 51.421875 16.5 36.375 
Q 16.5 21.390625 20.328125 13.890625 
Q 24.171875 6.390625 31.78125 6.390625 
Q 39.453125 6.390625 43.28125 13.890625 
Q 47.125 21.390625 47.125 36.375 
Q 47.125 51.421875 43.28125 58.90625 
Q 39.453125 66.40625 31.78125 66.40625 
z
M 31.78125 74.21875 
Q 44.046875 74.21875 50.515625 64.515625 
Q 56.984375 54.828125 56.984375 36.375 
Q 56.984375 17.96875 50.515625 8.265625 
Q 44.046875 -1.421875 31.78125 -1.421875 
Q 19.53125 -1.421875 13.0625 8.265625 
Q 6.59375 17.96875 6.59375 36.375 
Q 6.59375 54.828125 13.0625 64.515625 
Q 19.53125 74.21875 31.78125 74.21875 
z
" id="DejaVuSans-48"/>
      </defs>
      <g style="fill:#262626;" transform="translate(79.104602 303.028562)scale(0.1 -0.1)">
       <use xlink:href="#DejaVuSans-48"/>
      </g>
     </g>
    </g>
    <g id="xtick_2">
     <g id="line2d_2">
      <path clip-path="url(#pc1df1b31ae)" d="M 122.969379 288.430125 
L 122.969379 22.318125 
" style="fill:none;stroke:#cccccc;stroke-linecap:round;stroke-width:0.8;"/>
     </g>
     <g id="text_2">
      <!-- 5 -->
      <defs>
       <path d="M 10.796875 72.90625 
L 49.515625 72.90625 
L 49.515625 64.59375 
L 19.828125 64.59375 
L 19.828125 46.734375 
Q 21.96875 47.46875 24.109375 47.828125 
Q 26.265625 48.1875 28.421875 48.1875 
Q 40.625 48.1875 47.75 41.5 
Q 54.890625 34.8125 54.890625 23.390625 
Q 54.890625 11.625 47.5625 5.09375 
Q 40.234375 -1.421875 26.90625 -1.421875 
Q 22.3125 -1.421875 17.546875 -0.640625 
Q 12.796875 0.140625 7.71875 1.703125 
L 7.71875 11.625 
Q 12.109375 9.234375 16.796875 8.0625 
Q 21.484375 6.890625 26.703125 6.890625 
Q 35.15625 6.890625 40.078125 11.328125 
Q 45.015625 15.765625 45.015625 23.390625 
Q 45.015625 31 40.078125 35.4375 
Q 35.15625 39.890625 26.703125 39.890625 
Q 22.75 39.890625 18.8125 39.015625 
Q 14.890625 38.140625 10.796875 36.28125 
z
" id="DejaVuSans-53"/>
      </defs>
      <g style="fill:#262626;" transform="translate(119.788129 303.028562)scale(0.1 -0.1)">
       <use xlink:href="#DejaVuSans-53"/>
      </g>
     </g>
    </g>
    <g id="xtick_3">
     <g id="line2d_3">
      <path clip-path="url(#pc1df1b31ae)" d="M 163.652906 288.430125 
L 163.652906 22.318125 
" style="fill:none;stroke:#cccccc;stroke-linecap:round;stroke-width:0.8;"/>
     </g>
     <g id="text_3">
      <!-- 10 -->
      <defs>
       <path d="M 12.40625 8.296875 
L 28.515625 8.296875 
L 28.515625 63.921875 
L 10.984375 60.40625 
L 10.984375 69.390625 
L 28.421875 72.90625 
L 38.28125 72.90625 
L 38.28125 8.296875 
L 54.390625 8.296875 
L 54.390625 0 
L 12.40625 0 
z
" id="DejaVuSans-49"/>
      </defs>
      <g style="fill:#262626;" transform="translate(157.290406 303.028562)scale(0.1 -0.1)">
       <use xlink:href="#DejaVuSans-49"/>
       <use x="63.623047" xlink:href="#DejaVuSans-48"/>
      </g>
     </g>
    </g>
    <g id="xtick_4">
     <g id="line2d_4">
      <path clip-path="url(#pc1df1b31ae)" d="M 204.336433 288.430125 
L 204.336433 22.318125 
" style="fill:none;stroke:#cccccc;stroke-linecap:round;stroke-width:0.8;"/>
     </g>
     <g id="text_4">
      <!-- 15 -->
      <g style="fill:#262626;" transform="translate(197.973933 303.028562)scale(0.1 -0.1)">
       <use xlink:href="#DejaVuSans-49"/>
       <use x="63.623047" xlink:href="#DejaVuSans-53"/>
      </g>
     </g>
    </g>
    <g id="xtick_5">
     <g id="line2d_5">
      <path clip-path="url(#pc1df1b31ae)" d="M 245.01996 288.430125 
L 245.01996 22.318125 
" style="fill:none;stroke:#cccccc;stroke-linecap:round;stroke-width:0.8;"/>
     </g>
     <g id="text_5">
      <!-- 20 -->
      <defs>
       <path d="M 19.1875 8.296875 
L 53.609375 8.296875 
L 53.609375 0 
L 7.328125 0 
L 7.328125 8.296875 
Q 12.9375 14.109375 22.625 23.890625 
Q 32.328125 33.6875 34.8125 36.53125 
Q 39.546875 41.84375 41.421875 45.53125 
Q 43.3125 49.21875 43.3125 52.78125 
Q 43.3125 58.59375 39.234375 62.25 
Q 35.15625 65.921875 28.609375 65.921875 
Q 23.96875 65.921875 18.8125 64.3125 
Q 13.671875 62.703125 7.8125 59.421875 
L 7.8125 69.390625 
Q 13.765625 71.78125 18.9375 73 
Q 24.125 74.21875 28.421875 74.21875 
Q 39.75 74.21875 46.484375 68.546875 
Q 53.21875 62.890625 53.21875 53.421875 
Q 53.21875 48.921875 51.53125 44.890625 
Q 49.859375 40.875 45.40625 35.40625 
Q 44.1875 33.984375 37.640625 27.21875 
Q 31.109375 20.453125 19.1875 8.296875 
z
" id="DejaVuSans-50"/>
      </defs>
      <g style="fill:#262626;" transform="translate(238.65746 303.028562)scale(0.1 -0.1)">
       <use xlink:href="#DejaVuSans-50"/>
       <use x="63.623047" xlink:href="#DejaVuSans-48"/>
      </g>
     </g>
    </g>
    <g id="xtick_6">
     <g id="line2d_6">
      <path clip-path="url(#pc1df1b31ae)" d="M 285.703487 288.430125 
L 285.703487 22.318125 
" style="fill:none;stroke:#cccccc;stroke-linecap:round;stroke-width:0.8;"/>
     </g>
     <g id="text_6">
      <!-- 25 -->
      <g style="fill:#262626;" transform="translate(279.340987 303.028562)scale(0.1 -0.1)">
       <use xlink:href="#DejaVuSans-50"/>
       <use x="63.623047" xlink:href="#DejaVuSans-53"/>
      </g>
     </g>
    </g>
    <g id="xtick_7">
     <g id="line2d_7">
      <path clip-path="url(#pc1df1b31ae)" d="M 326.387014 288.430125 
L 326.387014 22.318125 
" style="fill:none;stroke:#cccccc;stroke-linecap:round;stroke-width:0.8;"/>
     </g>
     <g id="text_7">
      <!-- 30 -->
      <defs>
       <path d="M 40.578125 39.3125 
Q 47.65625 37.796875 51.625 33 
Q 55.609375 28.21875 55.609375 21.1875 
Q 55.609375 10.40625 48.1875 4.484375 
Q 40.765625 -1.421875 27.09375 -1.421875 
Q 22.515625 -1.421875 17.65625 -0.515625 
Q 12.796875 0.390625 7.625 2.203125 
L 7.625 11.71875 
Q 11.71875 9.328125 16.59375 8.109375 
Q 21.484375 6.890625 26.8125 6.890625 
Q 36.078125 6.890625 40.9375 10.546875 
Q 45.796875 14.203125 45.796875 21.1875 
Q 45.796875 27.640625 41.28125 31.265625 
Q 36.765625 34.90625 28.71875 34.90625 
L 20.21875 34.90625 
L 20.21875 43.015625 
L 29.109375 43.015625 
Q 36.375 43.015625 40.234375 45.921875 
Q 44.09375 48.828125 44.09375 54.296875 
Q 44.09375 59.90625 40.109375 62.90625 
Q 36.140625 65.921875 28.71875 65.921875 
Q 24.65625 65.921875 20.015625 65.03125 
Q 15.375 64.15625 9.8125 62.3125 
L 9.8125 71.09375 
Q 15.4375 72.65625 20.34375 73.4375 
Q 25.25 74.21875 29.59375 74.21875 
Q 40.828125 74.21875 47.359375 69.109375 
Q 53.90625 64.015625 53.90625 55.328125 
Q 53.90625 49.265625 50.4375 45.09375 
Q 46.96875 40.921875 40.578125 39.3125 
z
" id="DejaVuSans-51"/>
      </defs>
      <g style="fill:#262626;" transform="translate(320.024514 303.028562)scale(0.1 -0.1)">
       <use xlink:href="#DejaVuSans-51"/>
       <use x="63.623047" xlink:href="#DejaVuSans-48"/>
      </g>
     </g>
    </g>
    <g id="xtick_8">
     <g id="line2d_8">
      <path clip-path="url(#pc1df1b31ae)" d="M 367.070541 288.430125 
L 367.070541 22.318125 
" style="fill:none;stroke:#cccccc;stroke-linecap:round;stroke-width:0.8;"/>
     </g>
     <g id="text_8">
      <!-- 35 -->
      <g style="fill:#262626;" transform="translate(360.708041 303.028562)scale(0.1 -0.1)">
       <use xlink:href="#DejaVuSans-51"/>
       <use x="63.623047" xlink:href="#DejaVuSans-53"/>
      </g>
     </g>
    </g>
    <g id="xtick_9">
     <g id="line2d_9">
      <path clip-path="url(#pc1df1b31ae)" d="M 407.754068 288.430125 
L 407.754068 22.318125 
" style="fill:none;stroke:#cccccc;stroke-linecap:round;stroke-width:0.8;"/>
     </g>
     <g id="text_9">
      <!-- 40 -->
      <defs>
       <path d="M 37.796875 64.3125 
L 12.890625 25.390625 
L 37.796875 25.390625 
z
M 35.203125 72.90625 
L 47.609375 72.90625 
L 47.609375 25.390625 
L 58.015625 25.390625 
L 58.015625 17.1875 
L 47.609375 17.1875 
L 47.609375 0 
L 37.796875 0 
L 37.796875 17.1875 
L 4.890625 17.1875 
L 4.890625 26.703125 
z
" id="DejaVuSans-52"/>
      </defs>
      <g style="fill:#262626;" transform="translate(401.391568 303.028562)scale(0.1 -0.1)">
       <use xlink:href="#DejaVuSans-52"/>
       <use x="63.623047" xlink:href="#DejaVuSans-48"/>
      </g>
     </g>
    </g>
    <g id="text_10">
     <!-- time (days) -->
     <defs>
      <path d="M 18.3125 70.21875 
L 18.3125 54.6875 
L 36.8125 54.6875 
L 36.8125 47.703125 
L 18.3125 47.703125 
L 18.3125 18.015625 
Q 18.3125 11.328125 20.140625 9.421875 
Q 21.96875 7.515625 27.59375 7.515625 
L 36.8125 7.515625 
L 36.8125 0 
L 27.59375 0 
Q 17.1875 0 13.234375 3.875 
Q 9.28125 7.765625 9.28125 18.015625 
L 9.28125 47.703125 
L 2.6875 47.703125 
L 2.6875 54.6875 
L 9.28125 54.6875 
L 9.28125 70.21875 
z
" id="DejaVuSans-116"/>
      <path d="M 9.421875 54.6875 
L 18.40625 54.6875 
L 18.40625 0 
L 9.421875 0 
z
M 9.421875 75.984375 
L 18.40625 75.984375 
L 18.40625 64.59375 
L 9.421875 64.59375 
z
" id="DejaVuSans-105"/>
      <path d="M 52 44.1875 
Q 55.375 50.25 60.0625 53.125 
Q 64.75 56 71.09375 56 
Q 79.640625 56 84.28125 50.015625 
Q 88.921875 44.046875 88.921875 33.015625 
L 88.921875 0 
L 79.890625 0 
L 79.890625 32.71875 
Q 79.890625 40.578125 77.09375 44.375 
Q 74.3125 48.1875 68.609375 48.1875 
Q 61.625 48.1875 57.5625 43.546875 
Q 53.515625 38.921875 53.515625 30.90625 
L 53.515625 0 
L 44.484375 0 
L 44.484375 32.71875 
Q 44.484375 40.625 41.703125 44.40625 
Q 38.921875 48.1875 33.109375 48.1875 
Q 26.21875 48.1875 22.15625 43.53125 
Q 18.109375 38.875 18.109375 30.90625 
L 18.109375 0 
L 9.078125 0 
L 9.078125 54.6875 
L 18.109375 54.6875 
L 18.109375 46.1875 
Q 21.1875 51.21875 25.484375 53.609375 
Q 29.78125 56 35.6875 56 
Q 41.65625 56 45.828125 52.96875 
Q 50 49.953125 52 44.1875 
z
" id="DejaVuSans-109"/>
      <path d="M 56.203125 29.59375 
L 56.203125 25.203125 
L 14.890625 25.203125 
Q 15.484375 15.921875 20.484375 11.0625 
Q 25.484375 6.203125 34.421875 6.203125 
Q 39.59375 6.203125 44.453125 7.46875 
Q 49.3125 8.734375 54.109375 11.28125 
L 54.109375 2.78125 
Q 49.265625 0.734375 44.1875 -0.34375 
Q 39.109375 -1.421875 33.890625 -1.421875 
Q 20.796875 -1.421875 13.15625 6.1875 
Q 5.515625 13.8125 5.515625 26.8125 
Q 5.515625 40.234375 12.765625 48.109375 
Q 20.015625 56 32.328125 56 
Q 43.359375 56 49.78125 48.890625 
Q 56.203125 41.796875 56.203125 29.59375 
z
M 47.21875 32.234375 
Q 47.125 39.59375 43.09375 43.984375 
Q 39.0625 48.390625 32.421875 48.390625 
Q 24.90625 48.390625 20.390625 44.140625 
Q 15.875 39.890625 15.1875 32.171875 
z
" id="DejaVuSans-101"/>
      <path id="DejaVuSans-32"/>
      <path d="M 31 75.875 
Q 24.46875 64.65625 21.28125 53.65625 
Q 18.109375 42.671875 18.109375 31.390625 
Q 18.109375 20.125 21.3125 9.0625 
Q 24.515625 -2 31 -13.1875 
L 23.1875 -13.1875 
Q 15.875 -1.703125 12.234375 9.375 
Q 8.59375 20.453125 8.59375 31.390625 
Q 8.59375 42.28125 12.203125 53.3125 
Q 15.828125 64.359375 23.1875 75.875 
z
" id="DejaVuSans-40"/>
      <path d="M 45.40625 46.390625 
L 45.40625 75.984375 
L 54.390625 75.984375 
L 54.390625 0 
L 45.40625 0 
L 45.40625 8.203125 
Q 42.578125 3.328125 38.25 0.953125 
Q 33.9375 -1.421875 27.875 -1.421875 
Q 17.96875 -1.421875 11.734375 6.484375 
Q 5.515625 14.40625 5.515625 27.296875 
Q 5.515625 40.1875 11.734375 48.09375 
Q 17.96875 56 27.875 56 
Q 33.9375 56 38.25 53.625 
Q 42.578125 51.265625 45.40625 46.390625 
z
M 14.796875 27.296875 
Q 14.796875 17.390625 18.875 11.75 
Q 22.953125 6.109375 30.078125 6.109375 
Q 37.203125 6.109375 41.296875 11.75 
Q 45.40625 17.390625 45.40625 27.296875 
Q 45.40625 37.203125 41.296875 42.84375 
Q 37.203125 48.484375 30.078125 48.484375 
Q 22.953125 48.484375 18.875 42.84375 
Q 14.796875 37.203125 14.796875 27.296875 
z
" id="DejaVuSans-100"/>
      <path d="M 34.28125 27.484375 
Q 23.390625 27.484375 19.1875 25 
Q 14.984375 22.515625 14.984375 16.5 
Q 14.984375 11.71875 18.140625 8.90625 
Q 21.296875 6.109375 26.703125 6.109375 
Q 34.1875 6.109375 38.703125 11.40625 
Q 43.21875 16.703125 43.21875 25.484375 
L 43.21875 27.484375 
z
M 52.203125 31.203125 
L 52.203125 0 
L 43.21875 0 
L 43.21875 8.296875 
Q 40.140625 3.328125 35.546875 0.953125 
Q 30.953125 -1.421875 24.3125 -1.421875 
Q 15.921875 -1.421875 10.953125 3.296875 
Q 6 8.015625 6 15.921875 
Q 6 25.140625 12.171875 29.828125 
Q 18.359375 34.515625 30.609375 34.515625 
L 43.21875 34.515625 
L 43.21875 35.40625 
Q 43.21875 41.609375 39.140625 45 
Q 35.0625 48.390625 27.6875 48.390625 
Q 23 48.390625 18.546875 47.265625 
Q 14.109375 46.140625 10.015625 43.890625 
L 10.015625 52.203125 
Q 14.9375 54.109375 19.578125 55.046875 
Q 24.21875 56 28.609375 56 
Q 40.484375 56 46.34375 49.84375 
Q 52.203125 43.703125 52.203125 31.203125 
z
" id="DejaVuSans-97"/>
      <path d="M 32.171875 -5.078125 
Q 28.375 -14.84375 24.75 -17.8125 
Q 21.140625 -20.796875 15.09375 -20.796875 
L 7.90625 -20.796875 
L 7.90625 -13.28125 
L 13.1875 -13.28125 
Q 16.890625 -13.28125 18.9375 -11.515625 
Q 21 -9.765625 23.484375 -3.21875 
L 25.09375 0.875 
L 2.984375 54.6875 
L 12.5 54.6875 
L 29.59375 11.921875 
L 46.6875 54.6875 
L 56.203125 54.6875 
z
" id="DejaVuSans-121"/>
      <path d="M 44.28125 53.078125 
L 44.28125 44.578125 
Q 40.484375 46.53125 36.375 47.5 
Q 32.28125 48.484375 27.875 48.484375 
Q 21.1875 48.484375 17.84375 46.4375 
Q 14.5 44.390625 14.5 40.28125 
Q 14.5 37.15625 16.890625 35.375 
Q 19.28125 33.59375 26.515625 31.984375 
L 29.59375 31.296875 
Q 39.15625 29.25 43.1875 25.515625 
Q 47.21875 21.78125 47.21875 15.09375 
Q 47.21875 7.46875 41.1875 3.015625 
Q 35.15625 -1.421875 24.609375 -1.421875 
Q 20.21875 -1.421875 15.453125 -0.5625 
Q 10.6875 0.296875 5.421875 2 
L 5.421875 11.28125 
Q 10.40625 8.6875 15.234375 7.390625 
Q 20.0625 6.109375 24.8125 6.109375 
Q 31.15625 6.109375 34.5625 8.28125 
Q 37.984375 10.453125 37.984375 14.40625 
Q 37.984375 18.0625 35.515625 20.015625 
Q 33.0625 21.96875 24.703125 23.78125 
L 21.578125 24.515625 
Q 13.234375 26.265625 9.515625 29.90625 
Q 5.8125 33.546875 5.8125 39.890625 
Q 5.8125 47.609375 11.28125 51.796875 
Q 16.75 56 26.8125 56 
Q 31.78125 56 36.171875 55.265625 
Q 40.578125 54.546875 44.28125 53.078125 
z
" id="DejaVuSans-115"/>
      <path d="M 8.015625 75.875 
L 15.828125 75.875 
Q 23.140625 64.359375 26.78125 53.3125 
Q 30.421875 42.28125 30.421875 31.390625 
Q 30.421875 20.453125 26.78125 9.375 
Q 23.140625 -1.703125 15.828125 -13.1875 
L 8.015625 -13.1875 
Q 14.5 -2 17.703125 9.0625 
Q 20.90625 20.125 20.90625 31.390625 
Q 20.90625 42.671875 17.703125 53.65625 
Q 14.5 64.65625 8.015625 75.875 
z
" id="DejaVuSans-41"/>
     </defs>
     <g style="fill:#262626;" transform="translate(216.024063 316.706687)scale(0.1 -0.1)">
      <use xlink:href="#DejaVuSans-116"/>
      <use x="39.208984" xlink:href="#DejaVuSans-105"/>
      <use x="66.992188" xlink:href="#DejaVuSans-109"/>
      <use x="164.404297" xlink:href="#DejaVuSans-101"/>
      <use x="225.927734" xlink:href="#DejaVuSans-32"/>
      <use x="257.714844" xlink:href="#DejaVuSans-40"/>
      <use x="296.728516" xlink:href="#DejaVuSans-100"/>
      <use x="360.205078" xlink:href="#DejaVuSans-97"/>
      <use x="421.484375" xlink:href="#DejaVuSans-121"/>
      <use x="480.664062" xlink:href="#DejaVuSans-115"/>
      <use x="532.763672" xlink:href="#DejaVuSans-41"/>
     </g>
    </g>
   </g>
   <g id="matplotlib.axis_2">
    <g id="ytick_1">
     <g id="line2d_10">
      <path clip-path="url(#pc1df1b31ae)" d="M 66.053125 276.929923 
L 423.173125 276.929923 
" style="fill:none;stroke:#cccccc;stroke-linecap:round;stroke-width:0.8;"/>
     </g>
     <g id="text_11">
      <!-- 0 -->
      <g style="fill:#262626;" transform="translate(52.690625 280.729141)scale(0.1 -0.1)">
       <use xlink:href="#DejaVuSans-48"/>
      </g>
     </g>
    </g>
    <g id="ytick_2">
     <g id="line2d_11">
      <path clip-path="url(#pc1df1b31ae)" d="M 66.053125 228.412208 
L 423.173125 228.412208 
" style="fill:none;stroke:#cccccc;stroke-linecap:round;stroke-width:0.8;"/>
     </g>
     <g id="text_12">
      <!-- 50000 -->
      <g style="fill:#262626;" transform="translate(27.240625 232.211426)scale(0.1 -0.1)">
       <use xlink:href="#DejaVuSans-53"/>
       <use x="63.623047" xlink:href="#DejaVuSans-48"/>
       <use x="127.246094" xlink:href="#DejaVuSans-48"/>
       <use x="190.869141" xlink:href="#DejaVuSans-48"/>
       <use x="254.492188" xlink:href="#DejaVuSans-48"/>
      </g>
     </g>
    </g>
    <g id="ytick_3">
     <g id="line2d_12">
      <path clip-path="url(#pc1df1b31ae)" d="M 66.053125 179.894493 
L 423.173125 179.894493 
" style="fill:none;stroke:#cccccc;stroke-linecap:round;stroke-width:0.8;"/>
     </g>
     <g id="text_13">
      <!-- 100000 -->
      <g style="fill:#262626;" transform="translate(20.878125 183.693712)scale(0.1 -0.1)">
       <use xlink:href="#DejaVuSans-49"/>
       <use x="63.623047" xlink:href="#DejaVuSans-48"/>
       <use x="127.246094" xlink:href="#DejaVuSans-48"/>
       <use x="190.869141" xlink:href="#DejaVuSans-48"/>
       <use x="254.492188" xlink:href="#DejaVuSans-48"/>
       <use x="318.115234" xlink:href="#DejaVuSans-48"/>
      </g>
     </g>
    </g>
    <g id="ytick_4">
     <g id="line2d_13">
      <path clip-path="url(#pc1df1b31ae)" d="M 66.053125 131.376778 
L 423.173125 131.376778 
" style="fill:none;stroke:#cccccc;stroke-linecap:round;stroke-width:0.8;"/>
     </g>
     <g id="text_14">
      <!-- 150000 -->
      <g style="fill:#262626;" transform="translate(20.878125 135.175997)scale(0.1 -0.1)">
       <use xlink:href="#DejaVuSans-49"/>
       <use x="63.623047" xlink:href="#DejaVuSans-53"/>
       <use x="127.246094" xlink:href="#DejaVuSans-48"/>
       <use x="190.869141" xlink:href="#DejaVuSans-48"/>
       <use x="254.492188" xlink:href="#DejaVuSans-48"/>
       <use x="318.115234" xlink:href="#DejaVuSans-48"/>
      </g>
     </g>
    </g>
    <g id="ytick_5">
     <g id="line2d_14">
      <path clip-path="url(#pc1df1b31ae)" d="M 66.053125 82.859063 
L 423.173125 82.859063 
" style="fill:none;stroke:#cccccc;stroke-linecap:round;stroke-width:0.8;"/>
     </g>
     <g id="text_15">
      <!-- 200000 -->
      <g style="fill:#262626;" transform="translate(20.878125 86.658282)scale(0.1 -0.1)">
       <use xlink:href="#DejaVuSans-50"/>
       <use x="63.623047" xlink:href="#DejaVuSans-48"/>
       <use x="127.246094" xlink:href="#DejaVuSans-48"/>
       <use x="190.869141" xlink:href="#DejaVuSans-48"/>
       <use x="254.492188" xlink:href="#DejaVuSans-48"/>
       <use x="318.115234" xlink:href="#DejaVuSans-48"/>
      </g>
     </g>
    </g>
    <g id="ytick_6">
     <g id="line2d_15">
      <path clip-path="url(#pc1df1b31ae)" d="M 66.053125 34.341348 
L 423.173125 34.341348 
" style="fill:none;stroke:#cccccc;stroke-linecap:round;stroke-width:0.8;"/>
     </g>
     <g id="text_16">
      <!-- 250000 -->
      <g style="fill:#262626;" transform="translate(20.878125 38.140567)scale(0.1 -0.1)">
       <use xlink:href="#DejaVuSans-50"/>
       <use x="63.623047" xlink:href="#DejaVuSans-53"/>
       <use x="127.246094" xlink:href="#DejaVuSans-48"/>
       <use x="190.869141" xlink:href="#DejaVuSans-48"/>
       <use x="254.492188" xlink:href="#DejaVuSans-48"/>
       <use x="318.115234" xlink:href="#DejaVuSans-48"/>
      </g>
     </g>
    </g>
    <g id="text_17">
     <!-- cells number -->
     <defs>
      <path d="M 48.78125 52.59375 
L 48.78125 44.1875 
Q 44.96875 46.296875 41.140625 47.34375 
Q 37.3125 48.390625 33.40625 48.390625 
Q 24.65625 48.390625 19.8125 42.84375 
Q 14.984375 37.3125 14.984375 27.296875 
Q 14.984375 17.28125 19.8125 11.734375 
Q 24.65625 6.203125 33.40625 6.203125 
Q 37.3125 6.203125 41.140625 7.25 
Q 44.96875 8.296875 48.78125 10.40625 
L 48.78125 2.09375 
Q 45.015625 0.34375 40.984375 -0.53125 
Q 36.96875 -1.421875 32.421875 -1.421875 
Q 20.0625 -1.421875 12.78125 6.34375 
Q 5.515625 14.109375 5.515625 27.296875 
Q 5.515625 40.671875 12.859375 48.328125 
Q 20.21875 56 33.015625 56 
Q 37.15625 56 41.109375 55.140625 
Q 45.0625 54.296875 48.78125 52.59375 
z
" id="DejaVuSans-99"/>
      <path d="M 9.421875 75.984375 
L 18.40625 75.984375 
L 18.40625 0 
L 9.421875 0 
z
" id="DejaVuSans-108"/>
      <path d="M 54.890625 33.015625 
L 54.890625 0 
L 45.90625 0 
L 45.90625 32.71875 
Q 45.90625 40.484375 42.875 44.328125 
Q 39.84375 48.1875 33.796875 48.1875 
Q 26.515625 48.1875 22.3125 43.546875 
Q 18.109375 38.921875 18.109375 30.90625 
L 18.109375 0 
L 9.078125 0 
L 9.078125 54.6875 
L 18.109375 54.6875 
L 18.109375 46.1875 
Q 21.34375 51.125 25.703125 53.5625 
Q 30.078125 56 35.796875 56 
Q 45.21875 56 50.046875 50.171875 
Q 54.890625 44.34375 54.890625 33.015625 
z
" id="DejaVuSans-110"/>
      <path d="M 8.5 21.578125 
L 8.5 54.6875 
L 17.484375 54.6875 
L 17.484375 21.921875 
Q 17.484375 14.15625 20.5 10.265625 
Q 23.53125 6.390625 29.59375 6.390625 
Q 36.859375 6.390625 41.078125 11.03125 
Q 45.3125 15.671875 45.3125 23.6875 
L 45.3125 54.6875 
L 54.296875 54.6875 
L 54.296875 0 
L 45.3125 0 
L 45.3125 8.40625 
Q 42.046875 3.421875 37.71875 1 
Q 33.40625 -1.421875 27.6875 -1.421875 
Q 18.265625 -1.421875 13.375 4.4375 
Q 8.5 10.296875 8.5 21.578125 
z
M 31.109375 56 
z
" id="DejaVuSans-117"/>
      <path d="M 48.6875 27.296875 
Q 48.6875 37.203125 44.609375 42.84375 
Q 40.53125 48.484375 33.40625 48.484375 
Q 26.265625 48.484375 22.1875 42.84375 
Q 18.109375 37.203125 18.109375 27.296875 
Q 18.109375 17.390625 22.1875 11.75 
Q 26.265625 6.109375 33.40625 6.109375 
Q 40.53125 6.109375 44.609375 11.75 
Q 48.6875 17.390625 48.6875 27.296875 
z
M 18.109375 46.390625 
Q 20.953125 51.265625 25.265625 53.625 
Q 29.59375 56 35.59375 56 
Q 45.5625 56 51.78125 48.09375 
Q 58.015625 40.1875 58.015625 27.296875 
Q 58.015625 14.40625 51.78125 6.484375 
Q 45.5625 -1.421875 35.59375 -1.421875 
Q 29.59375 -1.421875 25.265625 0.953125 
Q 20.953125 3.328125 18.109375 8.203125 
L 18.109375 0 
L 9.078125 0 
L 9.078125 75.984375 
L 18.109375 75.984375 
z
" id="DejaVuSans-98"/>
      <path d="M 41.109375 46.296875 
Q 39.59375 47.171875 37.8125 47.578125 
Q 36.03125 48 33.890625 48 
Q 26.265625 48 22.1875 43.046875 
Q 18.109375 38.09375 18.109375 28.8125 
L 18.109375 0 
L 9.078125 0 
L 9.078125 54.6875 
L 18.109375 54.6875 
L 18.109375 46.1875 
Q 20.953125 51.171875 25.484375 53.578125 
Q 30.03125 56 36.53125 56 
Q 37.453125 56 38.578125 55.875 
Q 39.703125 55.765625 41.0625 55.515625 
z
" id="DejaVuSans-114"/>
     </defs>
     <g style="fill:#262626;" transform="translate(14.798438 187.685844)rotate(-90)scale(0.1 -0.1)">
      <use xlink:href="#DejaVuSans-99"/>
      <use x="54.980469" xlink:href="#DejaVuSans-101"/>
      <use x="116.503906" xlink:href="#DejaVuSans-108"/>
      <use x="144.287109" xlink:href="#DejaVuSans-108"/>
      <use x="172.070312" xlink:href="#DejaVuSans-115"/>
      <use x="224.169922" xlink:href="#DejaVuSans-32"/>
      <use x="255.957031" xlink:href="#DejaVuSans-110"/>
      <use x="319.335938" xlink:href="#DejaVuSans-117"/>
      <use x="382.714844" xlink:href="#DejaVuSans-109"/>
      <use x="480.126953" xlink:href="#DejaVuSans-98"/>
      <use x="543.603516" xlink:href="#DejaVuSans-101"/>
      <use x="605.126953" xlink:href="#DejaVuSans-114"/>
     </g>
    </g>
   </g>
   <g id="line2d_16">
    <path clip-path="url(#pc1df1b31ae)" d="M 82.285852 270.598361 
L 83.099523 273.669532 
L 83.913193 274.819402 
L 84.726864 275.328838 
L 85.540534 275.600537 
L 89.608887 276.108032 
L 96.118251 276.275904 
L 101.000275 276.272993 
L 109.13698 276.174017 
L 112.391662 276.0469 
L 113.205333 276.124528 
L 118.087356 275.940161 
L 119.714697 275.957628 
L 125.410391 275.693691 
L 130.292414 275.521938 
L 131.919755 275.385118 
L 141.683802 274.708782 
L 143.311143 274.452608 
L 144.124813 274.331314 
L 145.752154 274.322581 
L 147.379495 274.071259 
L 149.006837 273.873307 
L 155.516201 273.056268 
L 157.143542 272.734111 
L 157.957212 272.655512 
L 158.770883 272.401279 
L 159.584554 272.351791 
L 161.211895 271.888932 
L 162.025565 271.867584 
L 166.907588 270.766232 
L 167.721259 270.40332 
L 169.3486 270.146176 
L 170.162271 269.787145 
L 170.975941 269.667791 
L 173.416953 268.744984 
L 174.230623 268.742073 
L 175.857964 268.162771 
L 177.485305 267.356407 
L 178.298976 267.130314 
L 179.112647 267.126433 
L 182.367329 265.883409 
L 183.180999 265.658287 
L 183.99467 265.204161 
L 187.249352 263.899035 
L 196.199728 259.721659 
L 197.013398 259.171469 
L 197.827069 258.943435 
L 199.45441 258.072057 
L 200.268081 257.824617 
L 201.081751 257.385046 
L 201.895422 256.716472 
L 203.522763 255.848005 
L 205.963774 254.976627 
L 206.777445 254.669995 
L 207.591115 254.173174 
L 209.218457 252.900069 
L 210.032127 252.653599 
L 210.845798 252.180066 
L 211.659468 251.920981 
L 212.473139 251.255318 
L 214.91415 249.667819 
L 215.727821 249.064258 
L 217.355162 248.298649 
L 219.796174 246.695623 
L 222.237185 245.537991 
L 223.050856 244.994592 
L 223.864526 244.693782 
L 227.932879 242.618195 
L 228.746549 241.943798 
L 235.255914 238.537855 
L 236.069584 237.970198 
L 237.696925 237.489872 
L 238.510596 236.777632 
L 239.324266 236.474882 
L 240.137937 235.905284 
L 240.951608 234.894174 
L 241.765278 234.2256 
L 246.647301 228.94008 
L 247.460972 228.306439 
L 248.274642 227.354522 
L 249.901984 225.900931 
L 251.529325 223.769062 
L 253.156666 222.197088 
L 253.970336 221.148135 
L 254.784007 220.320423 
L 258.852359 213.921907 
L 259.66603 212.547885 
L 264.548053 202.507629 
L 266.175394 198.81155 
L 268.616406 193.505653 
L 271.057418 187.468108 
L 275.12577 176.02569 
L 279.194123 163.463484 
L 288.958169 132.866272 
L 293.026522 120.725199 
L 299.535886 103.593594 
L 302.790569 95.66774 
L 306.858921 86.707488 
L 308.486262 83.298634 
L 310.927274 78.971824 
L 312.554615 75.97634 
L 319.063979 65.516891 
L 323.132332 59.748135 
L 323.946003 58.606028 
L 327.200685 54.900245 
L 331.269038 51.099367 
L 334.52372 48.593912 
L 336.964731 47.056871 
L 339.405743 45.645006 
L 342.660425 44.044891 
L 344.287766 43.304511 
L 349.98346 40.879596 
L 357.306495 38.442066 
L 361.374847 37.377587 
L 365.4432 36.574134 
L 370.325223 35.882271 
L 376.834588 35.247659 
L 387.412305 34.735312 
L 399.617363 34.499516 
L 406.940398 34.432562 
L 406.940398 34.432562 
" style="fill:none;stroke:#000080;stroke-linecap:round;stroke-width:1.5;"/>
   </g>
   <g id="line2d_17">
    <path clip-path="url(#pc1df1b31ae)" d="M 82.285852 270.425638 
L 83.099523 273.682147 
L 83.913193 274.876653 
L 84.726864 275.315253 
L 85.540534 275.587923 
L 87.981546 276.036226 
L 88.795217 275.994501 
L 89.608887 276.130351 
L 92.049899 276.174987 
L 96.118251 276.26523 
L 107.509639 276.23903 
L 110.764321 276.137143 
L 116.460015 276.025552 
L 117.273685 276.091536 
L 118.901027 275.946954 
L 119.714697 275.874177 
L 120.528368 275.952776 
L 121.342038 275.834393 
L 123.78305 275.832452 
L 124.59672 275.71698 
L 127.037732 275.654877 
L 127.851403 275.570456 
L 128.665073 275.6083 
L 129.478744 275.466628 
L 133.547096 275.352126 
L 135.174437 275.129915 
L 135.988108 275.075575 
L 136.801778 275.159026 
L 137.615449 274.92323 
L 140.056461 274.803876 
L 142.497472 274.572932 
L 143.311143 274.464252 
L 144.124813 274.550614 
L 146.565825 274.125599 
L 148.193166 274.033415 
L 149.820507 273.808293 
L 152.261519 273.524949 
L 153.075189 273.228991 
L 154.70253 273.176592 
L 155.516201 272.922359 
L 159.584554 272.360524 
L 162.025565 271.832651 
L 163.652906 271.47265 
L 164.466577 271.484294 
L 166.093918 270.895289 
L 169.3486 270.087954 
L 170.162271 270.117065 
L 170.975941 269.658087 
L 171.789612 269.520297 
L 172.603282 269.196199 
L 173.416953 269.250539 
L 174.230623 268.855604 
L 179.112647 267.349615 
L 180.739988 266.503466 
L 183.180999 265.692249 
L 183.99467 265.259471 
L 184.80834 265.029497 
L 185.622011 264.560816 
L 186.435681 264.280384 
L 187.249352 263.867983 
L 188.063022 263.793266 
L 188.876693 263.261512 
L 190.504034 262.659892 
L 191.317705 262.054391 
L 192.945046 261.50323 
L 194.572387 260.796812 
L 195.386057 260.6008 
L 197.827069 259.216105 
L 198.640739 258.95508 
L 200.268081 257.657716 
L 201.081751 257.308388 
L 201.895422 256.804774 
L 204.336433 255.7238 
L 205.150104 255.088218 
L 207.591115 253.837431 
L 210.845798 251.977262 
L 211.659468 251.211652 
L 212.473139 250.860384 
L 213.286809 250.347067 
L 214.10048 250.071486 
L 216.541491 248.469431 
L 217.355162 248.127866 
L 218.168832 247.383605 
L 219.796174 246.706297 
L 220.609844 246.16484 
L 223.864526 244.624887 
L 224.678197 243.958254 
L 227.119208 242.461968 
L 227.932879 241.859378 
L 228.746549 241.600293 
L 229.56022 241.088916 
L 230.373891 240.730856 
L 231.187561 239.868211 
L 232.001232 239.425729 
L 232.814902 238.636831 
L 234.442243 237.371489 
L 240.137937 233.312497 
L 240.951608 232.777832 
L 241.765278 232.396482 
L 245.833631 229.746445 
L 246.647301 229.464072 
L 249.901984 227.364225 
L 253.156666 223.931112 
L 255.597677 220.677514 
L 257.225018 218.056587 
L 258.038689 216.754371 
L 261.293371 210.371381 
L 264.548053 202.895771 
L 266.175394 198.582546 
L 269.430076 188.635444 
L 274.3121 173.985035 
L 276.753111 166.432768 
L 278.380452 161.136574 
L 280.821464 153.327163 
L 284.076146 142.368952 
L 292.212852 117.627828 
L 295.467534 108.799545 
L 297.094875 104.831766 
L 300.349557 96.699227 
L 303.604239 89.47785 
L 307.672592 81.056145 
L 310.927274 74.96232 
L 313.368286 70.835403 
L 316.622968 66.002068 
L 319.87765 61.650029 
L 321.504991 59.647218 
L 325.573344 54.871134 
L 328.828026 51.430258 
L 331.269038 49.296449 
L 335.33739 46.516384 
L 339.405743 44.393249 
L 342.660425 42.804779 
L 346.728778 41.241538 
L 351.610801 39.774362 
L 359.747506 38.07042 
L 366.256871 37.176724 
L 374.393576 36.20928 
L 377.648258 35.862864 
L 383.343952 35.435908 
L 391.480657 35.067173 
L 406.940398 34.767334 
L 406.940398 34.767334 
" style="fill:none;stroke:#0000f1;stroke-linecap:round;stroke-width:1.5;"/>
   </g>
   <g id="line2d_18">
    <path clip-path="url(#pc1df1b31ae)" d="M 82.285852 270.579924 
L 83.099523 273.522038 
L 83.913193 274.719455 
L 84.726864 275.347275 
L 86.354205 275.777142 
L 90.422558 276.151698 
L 91.236228 276.119677 
L 92.863569 276.213801 
L 96.118251 276.272993 
L 96.931922 276.216712 
L 97.745593 276.316659 
L 122.155709 275.872236 
L 122.969379 275.764527 
L 124.59672 275.767438 
L 127.851403 275.688839 
L 129.478744 275.487976 
L 131.106085 275.44431 
L 132.733426 275.338541 
L 138.42912 274.930993 
L 139.24279 274.836868 
L 140.056461 274.885386 
L 140.870131 274.674819 
L 143.311143 274.605924 
L 144.124813 274.432231 
L 144.938484 274.460371 
L 146.565825 274.152769 
L 147.379495 274.195464 
L 153.075189 273.318264 
L 155.516201 273.073735 
L 157.957212 272.552654 
L 158.770883 272.333354 
L 159.584554 272.389635 
L 161.211895 272.022841 
L 162.025565 271.866614 
L 162.839236 271.539604 
L 166.907588 270.891408 
L 167.721259 270.422727 
L 169.3486 270.184019 
L 172.603282 269.033179 
L 173.416953 269.08946 
L 174.230623 268.688703 
L 175.857964 268.357813 
L 182.367329 265.896024 
L 183.180999 265.780552 
L 183.99467 265.462275 
L 184.80834 265.019794 
L 185.622011 265.028527 
L 187.249352 264.117364 
L 188.063022 264.019359 
L 188.876693 263.614721 
L 189.690364 263.084907 
L 190.504034 262.876281 
L 192.945046 261.572125 
L 193.758716 261.391639 
L 195.386057 260.449425 
L 197.013398 259.679934 
L 197.827069 259.447049 
L 199.45441 258.638744 
L 200.268081 258.226343 
L 201.081751 257.582999 
L 201.895422 257.157013 
L 202.709092 256.547631 
L 204.336433 255.684986 
L 205.150104 255.364769 
L 207.591115 253.893712 
L 208.404786 253.648212 
L 209.218457 252.901039 
L 210.032127 252.765189 
L 210.845798 252.237317 
L 211.659468 252.077208 
L 213.286809 251.015641 
L 214.10048 250.584803 
L 214.91415 249.929814 
L 215.727821 249.544584 
L 216.541491 248.982748 
L 217.355162 248.758597 
L 218.982503 247.688296 
L 219.796174 246.889694 
L 221.423515 245.858208 
L 223.050856 244.653998 
L 224.678197 243.825315 
L 225.491867 242.98984 
L 226.305538 242.57841 
L 227.932879 241.164604 
L 228.746549 240.718241 
L 229.56022 239.817752 
L 235.255914 235.45795 
L 236.069584 234.667112 
L 236.883255 234.122743 
L 240.137937 230.694481 
L 240.951608 229.561107 
L 241.765278 228.758624 
L 243.392619 226.434626 
L 245.01996 224.677314 
L 248.274642 220.605707 
L 252.342995 213.276621 
L 255.597677 206.628724 
L 256.411348 204.637557 
L 258.038689 201.119052 
L 262.107042 192.371308 
L 266.175394 181.369431 
L 269.430076 171.91721 
L 271.871088 164.417342 
L 276.753111 149.290489 
L 280.007793 138.829099 
L 284.076146 127.022798 
L 287.330828 117.754944 
L 291.399181 106.428969 
L 293.840193 100.256545 
L 301.163228 83.519875 
L 304.41791 77.201898 
L 306.858921 73.084684 
L 308.486262 70.594755 
L 311.740945 66.017594 
L 314.181956 62.837743 
L 316.622968 59.944147 
L 320.69132 55.984131 
L 323.132332 53.951238 
L 326.387014 51.251713 
L 328.828026 49.49246 
L 334.52372 46.064199 
L 338.592072 44.255458 
L 345.101437 41.457927 
L 347.542448 40.626333 
L 350.79713 39.646275 
L 354.865483 38.578886 
L 357.306495 38.133493 
L 366.256871 36.642058 
L 371.138894 36.120978 
L 388.225975 34.942968 
L 393.921669 34.744045 
L 406.940398 34.485931 
L 406.940398 34.485931 
" style="fill:none;stroke:#004cff;stroke-linecap:round;stroke-width:1.5;"/>
   </g>
   <g id="line2d_19">
    <path clip-path="url(#pc1df1b31ae)" d="M 82.285852 270.681811 
L 83.099523 273.696702 
L 83.913193 274.799995 
L 84.726864 275.319134 
L 86.354205 275.71795 
L 87.981546 275.96539 
L 89.608887 276.088625 
L 101.000275 276.295311 
L 105.068627 276.225445 
L 109.13698 276.194394 
L 109.950651 276.095418 
L 111.577992 276.117736 
L 118.087356 276.009056 
L 118.901027 275.864474 
L 119.714697 275.922695 
L 121.342038 275.822748 
L 123.78305 275.782964 
L 128.665073 275.541346 
L 129.478744 275.559782 
L 131.919755 275.368622 
L 136.801778 275.172611 
L 138.42912 274.876653 
L 139.24279 274.967866 
L 144.124813 274.426408 
L 145.752154 274.212931 
L 146.565825 274.043119 
L 149.006837 273.99266 
L 151.447848 273.561823 
L 152.261519 273.537564 
L 153.075189 273.237724 
L 155.516201 273.048505 
L 161.211895 271.919983 
L 162.025565 271.904458 
L 168.53493 270.440193 
L 170.162271 270.0472 
L 170.975941 269.696902 
L 175.044294 268.546061 
L 175.857964 268.133661 
L 176.671635 267.918242 
L 178.298976 267.194358 
L 179.112647 267.006109 
L 179.926317 267.034249 
L 183.99467 265.193487 
L 187.249352 264.032944 
L 188.063022 263.462375 
L 189.690364 263.107226 
L 190.504034 262.564798 
L 191.317705 262.32609 
L 192.131375 261.728352 
L 193.758716 261.077244 
L 194.572387 260.451366 
L 195.386057 260.158319 
L 196.199728 259.690608 
L 197.013398 259.441227 
L 197.827069 258.935672 
L 198.640739 258.733839 
L 201.081751 257.20456 
L 205.150104 255.072692 
L 206.777445 254.476894 
L 208.404786 253.372631 
L 209.218457 252.899098 
L 210.032127 252.68465 
L 211.659468 251.547395 
L 212.473139 251.34265 
L 216.541491 248.873098 
L 218.168832 248.174443 
L 218.982503 247.677622 
L 219.796174 247.349642 
L 221.423515 246.292926 
L 227.932879 242.557062 
L 228.746549 242.050537 
L 229.56022 241.332475 
L 231.187561 240.553281 
L 232.001232 239.934195 
L 233.628573 238.453434 
L 234.442243 237.811059 
L 235.255914 237.608255 
L 239.324266 233.984952 
L 240.951608 231.960793 
L 242.578949 230.217067 
L 245.833631 226.574357 
L 247.460972 224.730684 
L 249.088313 222.25628 
L 251.529325 219.564517 
L 253.970336 217.174535 
L 254.784007 216.234261 
L 257.225018 213.896678 
L 258.038689 213.019478 
L 260.479701 211.094295 
L 262.107042 209.71348 
L 264.548053 207.773742 
L 266.989065 206.525867 
L 267.802735 206.235731 
L 268.616406 205.645755 
L 270.243747 204.031086 
L 276.753111 197.480224 
L 277.566782 196.84076 
L 279.194123 195.069864 
L 280.821464 192.287858 
L 283.262476 186.876192 
L 287.330828 176.113022 
L 290.585511 166.694763 
L 294.653863 154.380967 
L 297.908545 144.588152 
L 299.535886 139.778106 
L 306.858921 118.104272 
L 309.299933 111.243867 
L 310.927274 106.997597 
L 314.181956 98.458479 
L 317.436638 90.953759 
L 321.504991 82.38553 
L 323.946003 77.7288 
L 328.828026 69.335235 
L 332.896379 63.225885 
L 337.778402 56.976803 
L 340.219413 54.129784 
L 343.474096 50.867452 
L 346.728778 48.113587 
L 349.169789 46.34075 
L 350.79713 45.351959 
L 354.865483 43.351088 
L 358.120165 41.992592 
L 363.815859 40.165415 
L 367.884212 39.188268 
L 377.648258 37.282492 
L 386.598634 36.008417 
L 393.107999 35.481515 
L 401.244704 35.022537 
L 406.940398 34.798385 
L 406.940398 34.798385 
" style="fill:none;stroke:#00b0ff;stroke-linecap:round;stroke-width:1.5;"/>
   </g>
   <g id="line2d_20">
    <path clip-path="url(#pc1df1b31ae)" d="M 82.285852 270.702189 
L 83.099523 273.684087 
L 83.913193 274.799025 
L 84.726864 275.339512 
L 87.981546 275.952776 
L 88.795217 275.961509 
L 89.608887 276.120647 
L 101.813945 276.287548 
L 103.441286 276.268141 
L 110.764321 276.150728 
L 117.273685 275.974124 
L 119.714697 275.93822 
L 124.59672 275.707276 
L 125.410391 275.74512 
L 127.037732 275.545227 
L 130.292414 275.467599 
L 133.547096 275.221129 
L 134.360767 275.296816 
L 135.988108 275.083338 
L 138.42912 275.003769 
L 140.870131 274.730129 
L 141.683802 274.75827 
L 143.311143 274.583606 
L 144.938484 274.385654 
L 148.193166 274.003334 
L 149.006837 273.996541 
L 149.820507 273.768508 
L 151.447848 273.588022 
L 153.88886 273.25422 
L 155.516201 272.947589 
L 157.143542 272.768073 
L 158.770883 272.409042 
L 159.584554 272.148987 
L 161.211895 272.082032 
L 162.839236 271.590063 
L 165.280247 271.156314 
L 166.093918 271.021435 
L 167.721259 270.535288 
L 170.975941 269.681376 
L 171.789612 269.339811 
L 174.230623 268.769243 
L 175.044294 268.275333 
L 177.485305 267.710586 
L 178.298976 267.244816 
L 179.926317 266.895489 
L 180.739988 266.402549 
L 181.553658 266.189071 
L 183.180999 265.476831 
L 183.99467 265.258501 
L 184.80834 264.81796 
L 185.622011 264.565668 
L 186.435681 264.063025 
L 187.249352 263.854398 
L 188.063022 263.526419 
L 188.876693 263.075204 
L 189.690364 262.859785 
L 191.317705 261.965119 
L 192.131375 261.752611 
L 192.945046 261.22862 
L 193.758716 260.990883 
L 194.572387 260.629911 
L 197.013398 259.102573 
L 198.640739 258.674647 
L 200.268081 257.461704 
L 202.709092 256.68445 
L 205.150104 255.108595 
L 205.963774 254.866977 
L 210.032127 252.19268 
L 211.659468 251.359146 
L 214.10048 249.792024 
L 214.91415 249.465015 
L 218.168832 247.437944 
L 221.423515 244.997503 
L 222.237185 244.568607 
L 229.56022 238.365132 
L 232.001232 235.787871 
L 236.069584 231.563918 
L 236.883255 230.929307 
L 245.01996 222.937469 
L 246.647301 220.834711 
L 247.460972 219.632442 
L 248.274642 218.897884 
L 253.156666 211.694944 
L 256.411348 206.01546 
L 260.479701 196.942648 
L 262.107042 192.591579 
L 266.175394 180.377729 
L 267.802735 175.694799 
L 270.243747 168.621887 
L 271.871088 164.120413 
L 279.194123 141.712992 
L 280.821464 136.362458 
L 290.585511 107.321695 
L 297.908545 88.515258 
L 301.163228 81.441376 
L 303.604239 76.682758 
L 305.23158 73.797895 
L 310.113603 65.874952 
L 313.368286 61.152238 
L 317.436638 56.159765 
L 320.69132 52.634468 
L 323.132332 50.299795 
L 324.759673 48.987876 
L 327.200685 47.256764 
L 333.710049 43.681009 
L 337.778402 41.898468 
L 340.219413 40.97469 
L 343.474096 39.950967 
L 348.356119 38.740935 
L 356.492824 37.344595 
L 363.002189 36.483891 
L 381.716611 35.098225 
L 393.921669 34.633425 
L 400.431033 34.517953 
L 406.940398 34.452939 
L 406.940398 34.452939 
" style="fill:none;stroke:#29ffce;stroke-linecap:round;stroke-width:1.5;"/>
   </g>
   <g id="line2d_21">
    <path clip-path="url(#pc1df1b31ae)" d="M 82.285852 270.591568 
L 83.099523 273.66274 
L 83.913193 274.820372 
L 84.726864 275.310401 
L 86.354205 275.736387 
L 87.981546 275.979946 
L 91.236228 276.158491 
L 96.118251 276.281726 
L 96.931922 276.195364 
L 101.000275 276.290459 
L 101.813945 276.214771 
L 102.627616 276.286578 
L 105.068627 276.234179 
L 109.950651 276.162372 
L 118.901027 275.951805 
L 121.342038 275.883881 
L 122.155709 275.927547 
L 122.969379 275.749001 
L 123.78305 275.816926 
L 124.59672 275.733476 
L 125.410391 275.77229 
L 126.224061 275.620915 
L 128.665073 275.588893 
L 145.752154 274.277944 
L 153.075189 273.305649 
L 153.88886 273.131956 
L 154.70253 273.124193 
L 156.329871 272.843761 
L 157.957212 272.630283 
L 164.466577 271.3368 
L 165.280247 271.028228 
L 167.721259 270.696367 
L 168.53493 270.301432 
L 169.3486 270.193723 
L 172.603282 269.08946 
L 173.416953 269.06132 
L 174.230623 268.691615 
L 175.044294 268.644067 
L 183.99467 265.284701 
L 184.80834 264.879093 
L 186.435681 264.35219 
L 188.063022 263.455583 
L 188.876693 263.290623 
L 193.758716 261.259671 
L 194.572387 260.622148 
L 195.386057 260.385382 
L 197.827069 259.040471 
L 199.45441 258.314646 
L 200.268081 257.97114 
L 205.150104 255.198838 
L 205.963774 254.49242 
L 207.591115 253.77921 
L 208.404786 253.318291 
L 209.218457 252.681739 
L 210.845798 251.942329 
L 211.659468 251.34362 
L 212.473139 251.106854 
L 213.286809 250.54793 
L 214.10048 250.330571 
L 217.355162 248.772182 
L 218.168832 248.313204 
L 218.982503 248.046357 
L 219.796174 247.572824 
L 220.609844 247.323443 
L 221.423515 246.626728 
L 223.050856 246.120203 
L 223.864526 245.651522 
L 224.678197 245.049902 
L 226.305538 244.163969 
L 227.932879 243.596312 
L 228.746549 242.991781 
L 230.373891 242.224231 
L 231.187561 241.896251 
L 232.001232 241.360615 
L 234.442243 240.296137 
L 236.069584 238.764918 
L 236.883255 238.308851 
L 242.578949 233.096108 
L 244.20629 231.423217 
L 245.01996 231.128229 
L 245.833631 230.136527 
L 247.460972 228.782883 
L 249.901984 226.368642 
L 251.529325 224.934458 
L 253.156666 223.658442 
L 253.970336 222.671592 
L 255.597677 221.213149 
L 257.225018 219.149206 
L 258.852359 216.881488 
L 260.479701 214.86218 
L 262.107042 212.803089 
L 266.175394 205.857292 
L 266.989065 204.392057 
L 270.243747 197.231813 
L 273.498429 188.836308 
L 275.12577 184.078661 
L 278.380452 174.020938 
L 281.635135 164.346506 
L 283.262476 158.777643 
L 288.958169 140.633958 
L 292.212852 130.657746 
L 296.281204 118.248855 
L 300.349557 106.829725 
L 302.790569 100.887276 
L 308.486262 88.037844 
L 313.368286 77.899582 
L 317.436638 71.082844 
L 320.69132 66.339752 
L 324.759673 60.890242 
L 328.014355 57.149526 
L 330.455367 54.819705 
L 336.151061 49.98443 
L 341.033084 46.644471 
L 345.915107 43.883813 
L 349.98346 41.978037 
L 351.610801 41.367684 
L 358.933836 39.101907 
L 363.002189 38.250906 
L 364.62953 37.899638 
L 372.766235 36.774997 
L 377.648258 36.331545 
L 380.90294 36.064698 
L 384.157623 35.760006 
L 401.244704 34.802267 
L 406.940398 34.635366 
L 406.940398 34.635366 
" style="fill:none;stroke:#7dff7a;stroke-linecap:round;stroke-width:1.5;"/>
   </g>
   <g id="line2d_22">
    <path clip-path="url(#pc1df1b31ae)" d="M 82.285852 270.602242 
L 83.099523 273.716109 
L 83.913193 274.843661 
L 84.726864 275.290024 
L 85.540534 275.590834 
L 87.167876 275.930458 
L 95.304581 276.246793 
L 101.000275 276.231267 
L 102.627616 276.264259 
L 104.254957 276.200216 
L 105.068627 276.252615 
L 105.882298 276.165283 
L 107.509639 276.218653 
L 114.832674 276.034286 
L 115.646344 276.088625 
L 118.087356 275.915902 
L 119.714697 275.933369 
L 121.342038 275.891643 
L 128.665073 275.532612 
L 131.919755 275.392881 
L 133.547096 275.30652 
L 135.988108 275.11633 
L 141.683802 274.710722 
L 143.311143 274.555466 
L 146.565825 274.214871 
L 149.820507 273.77433 
L 154.70253 273.134867 
L 155.516201 272.908774 
L 156.329871 272.929152 
L 160.398224 272.135402 
L 165.280247 270.988443 
L 166.907588 270.680841 
L 169.3486 270.10348 
L 170.162271 269.810433 
L 171.789612 269.52709 
L 174.230623 268.803205 
L 175.044294 268.382072 
L 178.298976 267.403954 
L 179.926317 266.878993 
L 182.367329 265.838773 
L 183.180999 265.569014 
L 183.99467 265.44675 
L 184.80834 264.744213 
L 186.435681 264.195963 
L 187.249352 263.88739 
L 188.876693 262.943236 
L 189.690364 262.933532 
L 191.317705 262.251373 
L 192.131375 261.922423 
L 192.945046 261.292663 
L 193.758716 261.134495 
L 194.572387 260.507646 
L 195.386057 260.27185 
L 197.013398 259.523707 
L 197.827069 258.821171 
L 199.45441 258.619337 
L 201.081751 257.680034 
L 202.709092 256.839707 
L 204.336433 256.02655 
L 205.150104 255.747088 
L 205.963774 255.141587 
L 206.777445 254.73889 
L 207.591115 254.19161 
L 208.404786 254.084871 
L 209.218457 253.844223 
L 211.659468 252.321738 
L 212.473139 251.990847 
L 213.286809 251.508581 
L 214.10048 250.873969 
L 214.91415 250.676987 
L 215.727821 250.115152 
L 216.541491 249.75418 
L 218.982503 248.227813 
L 219.796174 248.044416 
L 220.609844 248.007542 
L 221.423515 247.722258 
L 223.050856 246.551041 
L 223.864526 246.133788 
L 225.491867 245.129472 
L 226.305538 244.682138 
L 227.932879 244.350277 
L 229.56022 243.802027 
L 230.373891 243.226607 
L 234.442243 241.343149 
L 235.255914 240.722122 
L 238.510596 239.634355 
L 239.324266 239.366537 
L 240.137937 238.90853 
L 240.951608 238.804702 
L 241.765278 238.272948 
L 245.01996 236.874668 
L 245.833631 236.347765 
L 248.274642 235.517142 
L 249.901984 234.734066 
L 250.715654 234.016004 
L 256.411348 231.616318 
L 257.225018 231.601762 
L 258.852359 231.329093 
L 261.293371 230.401434 
L 262.920712 229.834747 
L 269.430076 225.9543 
L 270.243747 225.304163 
L 271.871088 224.456073 
L 273.498429 223.294559 
L 275.12577 221.723556 
L 277.566782 219.16085 
L 279.194123 218.043972 
L 280.007793 217.346287 
L 280.821464 216.857229 
L 282.448805 215.150376 
L 283.262476 214.528378 
L 284.076146 213.717162 
L 285.703487 211.579472 
L 286.517158 210.532459 
L 288.958169 206.845113 
L 289.77184 205.764138 
L 290.585511 204.45513 
L 293.026522 199.664491 
L 295.467534 193.809374 
L 296.281204 191.77357 
L 301.976898 175.167897 
L 304.41791 167.48075 
L 306.858921 159.822714 
L 309.299933 151.725108 
L 315.809297 131.498072 
L 319.87765 119.793659 
L 322.318662 113.247649 
L 330.455367 93.136086 
L 333.710049 86.232985 
L 336.151061 81.350162 
L 338.592072 76.815697 
L 341.033084 72.755734 
L 343.474096 68.682187 
L 345.915107 64.864813 
L 347.542448 62.659198 
L 350.79713 58.351795 
L 352.424472 56.506181 
L 354.865483 54.25787 
L 358.120165 51.266268 
L 361.374847 48.774398 
L 367.070541 45.223872 
L 371.138894 43.023108 
L 374.393576 41.553992 
L 380.90294 39.316355 
L 384.157623 38.368319 
L 389.853316 37.152465 
L 392.294328 36.672139 
L 396.362681 36.07149 
L 402.872045 35.431056 
L 406.940398 35.144802 
L 406.940398 35.144802 
" style="fill:none;stroke:#ceff29;stroke-linecap:round;stroke-width:1.5;"/>
   </g>
   <g id="line2d_23">
    <path clip-path="url(#pc1df1b31ae)" d="M 82.285852 270.585746 
L 83.099523 273.577348 
L 83.913193 274.799995 
L 85.540534 275.617033 
L 91.236228 276.157521 
L 95.304581 276.236119 
L 106.695968 276.23709 
L 109.13698 276.18469 
L 109.950651 276.146847 
L 110.764321 276.249704 
L 112.391662 276.060485 
L 114.019003 276.095418 
L 115.646344 276.050782 
L 124.59672 275.765497 
L 127.037732 275.649055 
L 131.106085 275.506413 
L 131.919755 275.291964 
L 132.733426 275.414229 
L 133.547096 275.209484 
L 136.801778 275.106627 
L 138.42912 274.956222 
L 140.870131 274.78544 
L 143.311143 274.536058 
L 146.565825 274.173146 
L 147.379495 274.175087 
L 149.006837 273.829641 
L 150.634178 273.69088 
L 153.075189 273.261983 
L 153.88886 273.309531 
L 155.516201 272.881604 
L 156.329871 272.882575 
L 157.143542 272.65066 
L 161.211895 272.024782 
L 162.025565 271.751142 
L 162.839236 271.701654 
L 163.652906 271.39114 
L 165.280247 271.06122 
L 166.093918 271.002028 
L 166.907588 270.679871 
L 168.53493 270.37615 
L 169.3486 269.955016 
L 170.975941 269.684287 
L 173.416953 268.976899 
L 175.044294 268.429619 
L 175.857964 268.282125 
L 177.485305 267.546596 
L 178.298976 267.383577 
L 179.112647 267.043953 
L 179.926317 266.908103 
L 180.739988 266.557805 
L 181.553658 266.054192 
L 182.367329 266.014407 
L 184.80834 265.295375 
L 185.622011 264.732569 
L 187.249352 264.045558 
L 192.945046 261.50226 
L 193.758716 260.952069 
L 194.572387 260.549372 
L 195.386057 259.990448 
L 196.199728 259.856539 
L 197.827069 258.829904 
L 198.640739 258.607693 
L 199.45441 258.256424 
L 200.268081 257.506341 
L 202.709092 256.076038 
L 203.522763 255.678193 
L 204.336433 255.595713 
L 205.150104 255.128002 
L 206.777445 254.429347 
L 207.591115 253.722929 
L 208.404786 253.436675 
L 210.032127 252.380929 
L 212.473139 251.265022 
L 213.286809 250.73909 
L 214.10048 250.511056 
L 218.982503 247.869752 
L 220.609844 246.688831 
L 221.423515 246.067804 
L 222.237185 245.675781 
L 223.864526 244.669524 
L 225.491867 243.737013 
L 226.305538 243.486662 
L 228.746549 242.266926 
L 230.373891 241.37226 
L 232.001232 240.307781 
L 233.628573 238.949285 
L 234.442243 238.447612 
L 235.255914 237.56556 
L 236.883255 236.393372 
L 239.324266 234.259563 
L 240.137937 233.104841 
L 241.765278 231.24079 
L 242.578949 230.121972 
L 243.392619 229.283586 
L 244.20629 228.156034 
L 248.274642 223.875801 
L 249.901984 222.187385 
L 251.529325 220.465976 
L 252.342995 219.384031 
L 254.784007 215.212478 
L 258.038689 209.371916 
L 262.107042 199.713979 
L 265.361724 190.848823 
L 273.498429 165.435244 
L 276.753111 154.596386 
L 278.380452 149.362295 
L 281.635135 138.91352 
L 289.77184 113.82501 
L 293.840193 102.644587 
L 296.281204 96.579873 
L 298.722216 90.782006 
L 300.349557 87.175199 
L 302.790569 82.042995 
L 304.41791 79.082444 
L 306.045251 76.291705 
L 306.858921 75.079733 
L 309.299933 70.975134 
L 310.927274 68.439598 
L 314.181956 64.132196 
L 319.87765 58.072333 
L 323.132332 54.937118 
L 326.387014 51.813548 
L 328.828026 49.778715 
L 334.52372 45.791529 
L 338.592072 43.480145 
L 343.474096 41.118303 
L 346.728778 39.863635 
L 352.424472 38.091768 
L 357.306495 37.113651 
L 363.002189 36.164644 
L 367.884212 35.595046 
L 374.393576 35.107928 
L 385.784964 34.671269 
L 399.617363 34.467494 
L 406.940398 34.414125 
L 406.940398 34.414125 
" style="fill:none;stroke:#ffc400;stroke-linecap:round;stroke-width:1.5;"/>
   </g>
   <g id="line2d_24">
    <path clip-path="url(#pc1df1b31ae)" d="M 82.285852 270.504236 
L 83.099523 273.783064 
L 83.913193 274.822313 
L 85.540534 275.620915 
L 87.167876 275.8538 
L 88.795217 276.060485 
L 92.049899 276.151698 
L 93.67724 276.222534 
L 103.441286 276.272993 
L 104.254957 276.165283 
L 105.882298 276.251645 
L 109.13698 276.179839 
L 110.764321 276.144906 
L 115.646344 276.028463 
L 116.460015 276.034286 
L 117.273685 275.904258 
L 118.087356 275.96345 
L 119.714697 275.919784 
L 121.342038 275.892614 
L 126.224061 275.668462 
L 128.665073 275.565604 
L 131.106085 275.433636 
L 132.733426 275.351156 
L 133.547096 275.240536 
L 135.174437 275.241506 
L 136.801778 275.075575 
L 137.615449 275.049376 
L 138.42912 274.889267 
L 140.056461 274.89606 
L 140.870131 274.743714 
L 141.683802 274.734981 
L 145.752154 274.216812 
L 146.565825 274.213901 
L 147.379495 273.984897 
L 148.193166 274.094547 
L 149.820507 273.846137 
L 150.634178 273.822848 
L 151.447848 273.577348 
L 152.261519 273.544356 
L 153.075189 273.330878 
L 153.88886 273.30759 
L 154.70253 273.070824 
L 155.516201 273.054327 
L 156.329871 272.830176 
L 157.143542 272.864138 
L 162.025565 271.85594 
L 162.839236 271.864673 
L 166.093918 271.057338 
L 169.3486 270.170435 
L 170.162271 269.872536 
L 172.603282 269.277709 
L 173.416953 268.896359 
L 174.230623 268.883745 
L 175.044294 268.482988 
L 175.857964 268.281155 
L 177.485305 267.5563 
L 179.112647 267.218617 
L 179.926317 266.948858 
L 180.739988 266.820771 
L 181.553658 266.394786 
L 183.180999 265.96686 
L 183.99467 265.550578 
L 184.80834 264.950899 
L 185.622011 264.822812 
L 187.249352 264.095046 
L 188.063022 263.442968 
L 188.876693 263.540004 
L 190.504034 262.79186 
L 191.317705 262.271751 
L 192.131375 261.964148 
L 192.945046 261.482852 
L 193.758716 260.864737 
L 195.386057 260.053521 
L 197.013398 259.279178 
L 197.827069 259.130714 
L 199.45441 258.008014 
L 200.268081 257.721759 
L 201.081751 257.269574 
L 201.895422 257.082296 
L 203.522763 256.219651 
L 204.336433 256.051779 
L 206.777445 255.095981 
L 207.591115 254.329401 
L 210.032127 252.927239 
L 210.845798 252.57597 
L 212.473139 251.447448 
L 214.10048 250.403347 
L 214.91415 250.245179 
L 215.727821 249.571754 
L 216.541491 249.04291 
L 217.355162 248.776063 
L 221.423515 246.944034 
L 223.050856 245.750498 
L 224.678197 245.031466 
L 226.305538 244.210546 
L 227.119208 243.899062 
L 228.746549 242.983048 
L 233.628573 239.610096 
L 234.442243 239.225836 
L 235.255914 238.99101 
L 236.069584 238.537855 
L 236.883255 238.279741 
L 237.696925 237.695587 
L 238.510596 237.426799 
L 240.137937 236.57968 
L 240.951608 236.445771 
L 241.765278 235.961564 
L 243.392619 234.675845 
L 245.01996 234.022796 
L 245.833631 233.675409 
L 248.274642 231.746345 
L 249.088313 231.296101 
L 249.901984 230.490707 
L 251.529325 229.533937 
L 252.342995 228.738247 
L 253.156666 228.14342 
L 254.784007 226.366701 
L 255.597677 225.715593 
L 258.038689 222.805501 
L 258.852359 221.747814 
L 261.293371 219.516 
L 262.107042 218.952224 
L 263.734383 217.203645 
L 264.548053 216.471028 
L 265.361724 215.19016 
L 270.243747 209.956069 
L 271.057418 209.343775 
L 272.684759 208.419998 
L 274.3121 207.270128 
L 275.12577 206.841232 
L 275.939441 206.191094 
L 276.753111 205.730176 
L 278.380452 205.163489 
L 279.194123 205.126616 
L 280.007793 204.829687 
L 280.821464 204.655023 
L 282.448805 203.972864 
L 284.076146 202.624072 
L 285.703487 200.775547 
L 288.144499 198.967777 
L 288.958169 198.108043 
L 290.585511 195.888843 
L 291.399181 194.517732 
L 293.026522 192.337346 
L 297.908545 184.074779 
L 300.349557 178.673787 
L 301.976898 174.575011 
L 303.604239 170.226853 
L 306.045251 163.28979 
L 310.113603 151.287478 
L 314.995627 136.42262 
L 316.622968 131.669825 
L 319.063979 124.415456 
L 322.318662 114.78372 
L 323.946003 110.15707 
L 325.573344 106.02142 
L 328.014355 99.840263 
L 333.710049 85.895302 
L 338.592072 75.23693 
L 341.846755 69.222674 
L 345.101437 64.377695 
L 351.610801 55.842459 
L 354.051813 53.146815 
L 355.679154 51.525353 
L 357.306495 49.843729 
L 360.561177 47.075308 
L 363.815859 44.859989 
L 367.070541 43.048338 
L 369.511553 41.778144 
L 371.952565 40.722398 
L 376.834588 38.954413 
L 380.90294 37.820069 
L 383.343952 37.255322 
L 386.598634 36.610037 
L 391.480657 35.923996 
L 402.872045 35.014774 
L 406.940398 34.835259 
L 406.940398 34.835259 
" style="fill:none;stroke:#ff6800;stroke-linecap:round;stroke-width:1.5;"/>
   </g>
   <g id="line2d_25">
    <path clip-path="url(#pc1df1b31ae)" d="M 82.285852 270.505207 
L 83.099523 273.695732 
L 83.913193 274.831046 
L 84.726864 275.269646 
L 86.354205 275.808193 
L 90.422558 276.136173 
L 92.863569 276.190513 
L 96.118251 276.285607 
L 100.186604 276.203127 
L 101.000275 276.286578 
L 105.068627 276.192453 
L 108.32331 276.204098 
L 109.13698 276.130351 
L 110.764321 276.140054 
L 127.851403 275.640322 
L 129.478744 275.52485 
L 135.174437 275.184255 
L 136.801778 275.036761 
L 139.24279 274.938756 
L 140.870131 274.739833 
L 142.497472 274.635035 
L 144.938484 274.354602 
L 146.565825 274.298322 
L 148.193166 274.005275 
L 157.143542 272.784569 
L 160.398224 272.124728 
L 161.211895 271.840414 
L 162.025565 271.867584 
L 164.466577 271.355237 
L 168.53493 270.393616 
L 169.3486 270.093777 
L 170.975941 269.855069 
L 172.603282 269.03415 
L 173.416953 268.98175 
L 174.230623 268.630482 
L 175.044294 268.553824 
L 175.857964 268.169564 
L 176.671635 268.07641 
L 178.298976 267.409777 
L 179.112647 267.095382 
L 179.926317 267.001257 
L 180.739988 266.46077 
L 181.553658 266.256996 
L 188.876693 263.231431 
L 189.690364 262.704529 
L 192.131375 261.727382 
L 193.758716 261.131584 
L 196.199728 260.095246 
L 197.827069 258.985161 
L 201.081751 257.658686 
L 202.709092 256.370056 
L 203.522763 255.928545 
L 204.336433 255.736414 
L 205.150104 255.376413 
L 205.963774 254.799052 
L 208.404786 253.552147 
L 209.218457 253.262011 
L 210.032127 252.708909 
L 212.473139 251.56195 
L 213.286809 250.933161 
L 215.727821 249.604746 
L 216.541491 248.894446 
L 217.355162 248.84981 
L 218.982503 248.24819 
L 219.796174 248.08323 
L 220.609844 247.788242 
L 221.423515 247.28851 
L 223.050856 246.876109 
L 223.864526 246.486027 
L 224.678197 246.287104 
L 227.119208 244.787907 
L 227.932879 244.133888 
L 229.56022 243.321701 
L 232.001232 241.779809 
L 233.628573 241.054954 
L 234.442243 240.444601 
L 236.883255 238.964811 
L 237.696925 238.450523 
L 242.578949 236.393372 
L 243.392619 235.769434 
L 245.833631 234.639942 
L 248.274642 232.968021 
L 250.715654 231.040898 
L 251.529325 230.076365 
L 252.342995 229.384503 
L 253.156666 228.318083 
L 255.597677 226.234733 
L 257.225018 224.262002 
L 258.038689 223.2965 
L 258.852359 222.532831 
L 261.293371 219.537347 
L 263.734383 216.123641 
L 266.989065 209.16426 
L 268.616406 205.321657 
L 271.057418 198.89403 
L 275.939441 184.608474 
L 280.821464 169.602915 
L 291.399181 136.47502 
L 294.653863 126.94614 
L 297.094875 119.681098 
L 298.722216 115.201942 
L 301.163228 108.581215 
L 304.41791 99.947002 
L 307.672592 92.099747 
L 311.740945 83.606236 
L 314.181956 78.951446 
L 319.063979 70.462787 
L 322.318662 65.573172 
L 328.014355 58.424572 
L 330.455367 55.6251 
L 333.710049 52.564602 
L 335.33739 51.289557 
L 337.778402 49.486638 
L 341.033084 47.3276 
L 345.101437 45.079289 
L 349.169789 43.122084 
L 351.610801 41.997444 
L 354.051813 41.216309 
L 358.933836 39.765629 
L 362.188518 38.965087 
L 364.62953 38.325623 
L 368.697882 37.515377 
L 373.579906 36.794404 
L 378.461929 36.284968 
L 397.176351 35.072996 
L 406.126727 34.719787 
L 406.940398 34.683883 
L 406.940398 34.683883 
" style="fill:none;stroke:#f10800;stroke-linecap:round;stroke-width:1.5;"/>
   </g>
   <g id="patch_3">
    <path d="M 66.053125 288.430125 
L 66.053125 22.318125 
" style="fill:none;stroke:#cccccc;stroke-linecap:square;stroke-linejoin:miter;stroke-width:0.8;"/>
   </g>
   <g id="patch_4">
    <path d="M 423.173125 288.430125 
L 423.173125 22.318125 
" style="fill:none;stroke:#cccccc;stroke-linecap:square;stroke-linejoin:miter;stroke-width:0.8;"/>
   </g>
   <g id="patch_5">
    <path d="M 66.053125 288.430125 
L 423.173125 288.430125 
" style="fill:none;stroke:#cccccc;stroke-linecap:square;stroke-linejoin:miter;stroke-width:0.8;"/>
   </g>
   <g id="patch_6">
    <path d="M 66.053125 22.318125 
L 423.173125 22.318125 
" style="fill:none;stroke:#cccccc;stroke-linecap:square;stroke-linejoin:miter;stroke-width:0.8;"/>
   </g>
   <g id="text_18">
    <!-- B cell -->
    <defs>
     <path d="M 19.671875 34.8125 
L 19.671875 8.109375 
L 35.5 8.109375 
Q 43.453125 8.109375 47.28125 11.40625 
Q 51.125 14.703125 51.125 21.484375 
Q 51.125 28.328125 47.28125 31.5625 
Q 43.453125 34.8125 35.5 34.8125 
z
M 19.671875 64.796875 
L 19.671875 42.828125 
L 34.28125 42.828125 
Q 41.5 42.828125 45.03125 45.53125 
Q 48.578125 48.25 48.578125 53.8125 
Q 48.578125 59.328125 45.03125 62.0625 
Q 41.5 64.796875 34.28125 64.796875 
z
M 9.8125 72.90625 
L 35.015625 72.90625 
Q 46.296875 72.90625 52.390625 68.21875 
Q 58.5 63.53125 58.5 54.890625 
Q 58.5 48.1875 55.375 44.234375 
Q 52.25 40.28125 46.1875 39.3125 
Q 53.46875 37.75 57.5 32.78125 
Q 61.53125 27.828125 61.53125 20.40625 
Q 61.53125 10.640625 54.890625 5.3125 
Q 48.25 0 35.984375 0 
L 9.8125 0 
z
" id="DejaVuSans-66"/>
    </defs>
    <g style="fill:#262626;" transform="translate(228.265 16.318125)scale(0.12 -0.12)">
     <use xlink:href="#DejaVuSans-66"/>
     <use x="68.603516" xlink:href="#DejaVuSans-32"/>
     <use x="100.390625" xlink:href="#DejaVuSans-99"/>
     <use x="155.371094" xlink:href="#DejaVuSans-101"/>
     <use x="216.894531" xlink:href="#DejaVuSans-108"/>
     <use x="244.677734" xlink:href="#DejaVuSans-108"/>
    </g>
   </g>
  </g>
 </g>
 <defs>
  <clipPath id="pc1df1b31ae">
   <rect height="266.112" width="357.12" x="66.053125" y="22.318125"/>
  </clipPath>
 </defs>
</svg>
