<?xml version="1.0" encoding="utf-8" standalone="no"?>
<!DOCTYPE svg PUBLIC "-//W3C//DTD SVG 1.1//EN"
  "http://www.w3.org/Graphics/SVG/1.1/DTD/svg11.dtd">
<!-- Created with matplotlib (https://matplotlib.org/) -->
<svg height="325.986375pt" version="1.1" viewBox="0 0 417.648125 325.986375" width="417.648125pt" xmlns="http://www.w3.org/2000/svg" xmlns:xlink="http://www.w3.org/1999/xlink">
 <defs>
  <style type="text/css">
*{stroke-linecap:butt;stroke-linejoin:round;white-space:pre;}
  </style>
 </defs>
 <g id="figure_1">
  <g id="patch_1">
   <path d="M 0 325.986375 
L 417.648125 325.986375 
L 417.648125 0 
L 0 0 
z
" style="fill:#ffffff;"/>
  </g>
  <g id="axes_1">
   <g id="patch_2">
    <path d="M 53.328125 288.430125 
L 410.448125 288.430125 
L 410.448125 22.318125 
L 53.328125 22.318125 
z
" style="fill:#ffffff;"/>
   </g>
   <g id="matplotlib.axis_1">
    <g id="xtick_1">
     <g id="line2d_1">
      <path clip-path="url(#pf5a2417125)" d="M 69.560852 288.430125 
L 69.560852 22.318125 
" style="fill:none;stroke:#cccccc;stroke-linecap:round;stroke-width:0.8;"/>
     </g>
     <g id="text_1">
      <!-- 0 -->
      <defs>
       <path d="M 31.78125 66.40625 
Q 24.171875 66.40625 20.328125 58.90625 
Q 16.5 51.421875 16.5 36.375 
Q 16.5 21.390625 20.328125 13.890625 
Q 24.171875 6.390625 31.78125 6.390625 
Q 39.453125 6.390625 43.28125 13.890625 
Q 47.125 21.390625 47.125 36.375 
Q 47.125 51.421875 43.28125 58.90625 
Q 39.453125 66.40625 31.78125 66.40625 
z
M 31.78125 74.21875 
Q 44.046875 74.21875 50.515625 64.515625 
Q 56.984375 54.828125 56.984375 36.375 
Q 56.984375 17.96875 50.515625 8.265625 
Q 44.046875 -1.421875 31.78125 -1.421875 
Q 19.53125 -1.421875 13.0625 8.265625 
Q 6.59375 17.96875 6.59375 36.375 
Q 6.59375 54.828125 13.0625 64.515625 
Q 19.53125 74.21875 31.78125 74.21875 
z
" id="DejaVuSans-48"/>
      </defs>
      <g style="fill:#262626;" transform="translate(66.379602 303.028562)scale(0.1 -0.1)">
       <use xlink:href="#DejaVuSans-48"/>
      </g>
     </g>
    </g>
    <g id="xtick_2">
     <g id="line2d_2">
      <path clip-path="url(#pf5a2417125)" d="M 110.244379 288.430125 
L 110.244379 22.318125 
" style="fill:none;stroke:#cccccc;stroke-linecap:round;stroke-width:0.8;"/>
     </g>
     <g id="text_2">
      <!-- 5 -->
      <defs>
       <path d="M 10.796875 72.90625 
L 49.515625 72.90625 
L 49.515625 64.59375 
L 19.828125 64.59375 
L 19.828125 46.734375 
Q 21.96875 47.46875 24.109375 47.828125 
Q 26.265625 48.1875 28.421875 48.1875 
Q 40.625 48.1875 47.75 41.5 
Q 54.890625 34.8125 54.890625 23.390625 
Q 54.890625 11.625 47.5625 5.09375 
Q 40.234375 -1.421875 26.90625 -1.421875 
Q 22.3125 -1.421875 17.546875 -0.640625 
Q 12.796875 0.140625 7.71875 1.703125 
L 7.71875 11.625 
Q 12.109375 9.234375 16.796875 8.0625 
Q 21.484375 6.890625 26.703125 6.890625 
Q 35.15625 6.890625 40.078125 11.328125 
Q 45.015625 15.765625 45.015625 23.390625 
Q 45.015625 31 40.078125 35.4375 
Q 35.15625 39.890625 26.703125 39.890625 
Q 22.75 39.890625 18.8125 39.015625 
Q 14.890625 38.140625 10.796875 36.28125 
z
" id="DejaVuSans-53"/>
      </defs>
      <g style="fill:#262626;" transform="translate(107.063129 303.028562)scale(0.1 -0.1)">
       <use xlink:href="#DejaVuSans-53"/>
      </g>
     </g>
    </g>
    <g id="xtick_3">
     <g id="line2d_3">
      <path clip-path="url(#pf5a2417125)" d="M 150.927906 288.430125 
L 150.927906 22.318125 
" style="fill:none;stroke:#cccccc;stroke-linecap:round;stroke-width:0.8;"/>
     </g>
     <g id="text_3">
      <!-- 10 -->
      <defs>
       <path d="M 12.40625 8.296875 
L 28.515625 8.296875 
L 28.515625 63.921875 
L 10.984375 60.40625 
L 10.984375 69.390625 
L 28.421875 72.90625 
L 38.28125 72.90625 
L 38.28125 8.296875 
L 54.390625 8.296875 
L 54.390625 0 
L 12.40625 0 
z
" id="DejaVuSans-49"/>
      </defs>
      <g style="fill:#262626;" transform="translate(144.565406 303.028562)scale(0.1 -0.1)">
       <use xlink:href="#DejaVuSans-49"/>
       <use x="63.623047" xlink:href="#DejaVuSans-48"/>
      </g>
     </g>
    </g>
    <g id="xtick_4">
     <g id="line2d_4">
      <path clip-path="url(#pf5a2417125)" d="M 191.611433 288.430125 
L 191.611433 22.318125 
" style="fill:none;stroke:#cccccc;stroke-linecap:round;stroke-width:0.8;"/>
     </g>
     <g id="text_4">
      <!-- 15 -->
      <g style="fill:#262626;" transform="translate(185.248933 303.028562)scale(0.1 -0.1)">
       <use xlink:href="#DejaVuSans-49"/>
       <use x="63.623047" xlink:href="#DejaVuSans-53"/>
      </g>
     </g>
    </g>
    <g id="xtick_5">
     <g id="line2d_5">
      <path clip-path="url(#pf5a2417125)" d="M 232.29496 288.430125 
L 232.29496 22.318125 
" style="fill:none;stroke:#cccccc;stroke-linecap:round;stroke-width:0.8;"/>
     </g>
     <g id="text_5">
      <!-- 20 -->
      <defs>
       <path d="M 19.1875 8.296875 
L 53.609375 8.296875 
L 53.609375 0 
L 7.328125 0 
L 7.328125 8.296875 
Q 12.9375 14.109375 22.625 23.890625 
Q 32.328125 33.6875 34.8125 36.53125 
Q 39.546875 41.84375 41.421875 45.53125 
Q 43.3125 49.21875 43.3125 52.78125 
Q 43.3125 58.59375 39.234375 62.25 
Q 35.15625 65.921875 28.609375 65.921875 
Q 23.96875 65.921875 18.8125 64.3125 
Q 13.671875 62.703125 7.8125 59.421875 
L 7.8125 69.390625 
Q 13.765625 71.78125 18.9375 73 
Q 24.125 74.21875 28.421875 74.21875 
Q 39.75 74.21875 46.484375 68.546875 
Q 53.21875 62.890625 53.21875 53.421875 
Q 53.21875 48.921875 51.53125 44.890625 
Q 49.859375 40.875 45.40625 35.40625 
Q 44.1875 33.984375 37.640625 27.21875 
Q 31.109375 20.453125 19.1875 8.296875 
z
" id="DejaVuSans-50"/>
      </defs>
      <g style="fill:#262626;" transform="translate(225.93246 303.028562)scale(0.1 -0.1)">
       <use xlink:href="#DejaVuSans-50"/>
       <use x="63.623047" xlink:href="#DejaVuSans-48"/>
      </g>
     </g>
    </g>
    <g id="xtick_6">
     <g id="line2d_6">
      <path clip-path="url(#pf5a2417125)" d="M 272.978487 288.430125 
L 272.978487 22.318125 
" style="fill:none;stroke:#cccccc;stroke-linecap:round;stroke-width:0.8;"/>
     </g>
     <g id="text_6">
      <!-- 25 -->
      <g style="fill:#262626;" transform="translate(266.615987 303.028562)scale(0.1 -0.1)">
       <use xlink:href="#DejaVuSans-50"/>
       <use x="63.623047" xlink:href="#DejaVuSans-53"/>
      </g>
     </g>
    </g>
    <g id="xtick_7">
     <g id="line2d_7">
      <path clip-path="url(#pf5a2417125)" d="M 313.662014 288.430125 
L 313.662014 22.318125 
" style="fill:none;stroke:#cccccc;stroke-linecap:round;stroke-width:0.8;"/>
     </g>
     <g id="text_7">
      <!-- 30 -->
      <defs>
       <path d="M 40.578125 39.3125 
Q 47.65625 37.796875 51.625 33 
Q 55.609375 28.21875 55.609375 21.1875 
Q 55.609375 10.40625 48.1875 4.484375 
Q 40.765625 -1.421875 27.09375 -1.421875 
Q 22.515625 -1.421875 17.65625 -0.515625 
Q 12.796875 0.390625 7.625 2.203125 
L 7.625 11.71875 
Q 11.71875 9.328125 16.59375 8.109375 
Q 21.484375 6.890625 26.8125 6.890625 
Q 36.078125 6.890625 40.9375 10.546875 
Q 45.796875 14.203125 45.796875 21.1875 
Q 45.796875 27.640625 41.28125 31.265625 
Q 36.765625 34.90625 28.71875 34.90625 
L 20.21875 34.90625 
L 20.21875 43.015625 
L 29.109375 43.015625 
Q 36.375 43.015625 40.234375 45.921875 
Q 44.09375 48.828125 44.09375 54.296875 
Q 44.09375 59.90625 40.109375 62.90625 
Q 36.140625 65.921875 28.71875 65.921875 
Q 24.65625 65.921875 20.015625 65.03125 
Q 15.375 64.15625 9.8125 62.3125 
L 9.8125 71.09375 
Q 15.4375 72.65625 20.34375 73.4375 
Q 25.25 74.21875 29.59375 74.21875 
Q 40.828125 74.21875 47.359375 69.109375 
Q 53.90625 64.015625 53.90625 55.328125 
Q 53.90625 49.265625 50.4375 45.09375 
Q 46.96875 40.921875 40.578125 39.3125 
z
" id="DejaVuSans-51"/>
      </defs>
      <g style="fill:#262626;" transform="translate(307.299514 303.028562)scale(0.1 -0.1)">
       <use xlink:href="#DejaVuSans-51"/>
       <use x="63.623047" xlink:href="#DejaVuSans-48"/>
      </g>
     </g>
    </g>
    <g id="xtick_8">
     <g id="line2d_8">
      <path clip-path="url(#pf5a2417125)" d="M 354.345541 288.430125 
L 354.345541 22.318125 
" style="fill:none;stroke:#cccccc;stroke-linecap:round;stroke-width:0.8;"/>
     </g>
     <g id="text_8">
      <!-- 35 -->
      <g style="fill:#262626;" transform="translate(347.983041 303.028562)scale(0.1 -0.1)">
       <use xlink:href="#DejaVuSans-51"/>
       <use x="63.623047" xlink:href="#DejaVuSans-53"/>
      </g>
     </g>
    </g>
    <g id="xtick_9">
     <g id="line2d_9">
      <path clip-path="url(#pf5a2417125)" d="M 395.029068 288.430125 
L 395.029068 22.318125 
" style="fill:none;stroke:#cccccc;stroke-linecap:round;stroke-width:0.8;"/>
     </g>
     <g id="text_9">
      <!-- 40 -->
      <defs>
       <path d="M 37.796875 64.3125 
L 12.890625 25.390625 
L 37.796875 25.390625 
z
M 35.203125 72.90625 
L 47.609375 72.90625 
L 47.609375 25.390625 
L 58.015625 25.390625 
L 58.015625 17.1875 
L 47.609375 17.1875 
L 47.609375 0 
L 37.796875 0 
L 37.796875 17.1875 
L 4.890625 17.1875 
L 4.890625 26.703125 
z
" id="DejaVuSans-52"/>
      </defs>
      <g style="fill:#262626;" transform="translate(388.666568 303.028562)scale(0.1 -0.1)">
       <use xlink:href="#DejaVuSans-52"/>
       <use x="63.623047" xlink:href="#DejaVuSans-48"/>
      </g>
     </g>
    </g>
    <g id="text_10">
     <!-- time (days) -->
     <defs>
      <path d="M 18.3125 70.21875 
L 18.3125 54.6875 
L 36.8125 54.6875 
L 36.8125 47.703125 
L 18.3125 47.703125 
L 18.3125 18.015625 
Q 18.3125 11.328125 20.140625 9.421875 
Q 21.96875 7.515625 27.59375 7.515625 
L 36.8125 7.515625 
L 36.8125 0 
L 27.59375 0 
Q 17.1875 0 13.234375 3.875 
Q 9.28125 7.765625 9.28125 18.015625 
L 9.28125 47.703125 
L 2.6875 47.703125 
L 2.6875 54.6875 
L 9.28125 54.6875 
L 9.28125 70.21875 
z
" id="DejaVuSans-116"/>
      <path d="M 9.421875 54.6875 
L 18.40625 54.6875 
L 18.40625 0 
L 9.421875 0 
z
M 9.421875 75.984375 
L 18.40625 75.984375 
L 18.40625 64.59375 
L 9.421875 64.59375 
z
" id="DejaVuSans-105"/>
      <path d="M 52 44.1875 
Q 55.375 50.25 60.0625 53.125 
Q 64.75 56 71.09375 56 
Q 79.640625 56 84.28125 50.015625 
Q 88.921875 44.046875 88.921875 33.015625 
L 88.921875 0 
L 79.890625 0 
L 79.890625 32.71875 
Q 79.890625 40.578125 77.09375 44.375 
Q 74.3125 48.1875 68.609375 48.1875 
Q 61.625 48.1875 57.5625 43.546875 
Q 53.515625 38.921875 53.515625 30.90625 
L 53.515625 0 
L 44.484375 0 
L 44.484375 32.71875 
Q 44.484375 40.625 41.703125 44.40625 
Q 38.921875 48.1875 33.109375 48.1875 
Q 26.21875 48.1875 22.15625 43.53125 
Q 18.109375 38.875 18.109375 30.90625 
L 18.109375 0 
L 9.078125 0 
L 9.078125 54.6875 
L 18.109375 54.6875 
L 18.109375 46.1875 
Q 21.1875 51.21875 25.484375 53.609375 
Q 29.78125 56 35.6875 56 
Q 41.65625 56 45.828125 52.96875 
Q 50 49.953125 52 44.1875 
z
" id="DejaVuSans-109"/>
      <path d="M 56.203125 29.59375 
L 56.203125 25.203125 
L 14.890625 25.203125 
Q 15.484375 15.921875 20.484375 11.0625 
Q 25.484375 6.203125 34.421875 6.203125 
Q 39.59375 6.203125 44.453125 7.46875 
Q 49.3125 8.734375 54.109375 11.28125 
L 54.109375 2.78125 
Q 49.265625 0.734375 44.1875 -0.34375 
Q 39.109375 -1.421875 33.890625 -1.421875 
Q 20.796875 -1.421875 13.15625 6.1875 
Q 5.515625 13.8125 5.515625 26.8125 
Q 5.515625 40.234375 12.765625 48.109375 
Q 20.015625 56 32.328125 56 
Q 43.359375 56 49.78125 48.890625 
Q 56.203125 41.796875 56.203125 29.59375 
z
M 47.21875 32.234375 
Q 47.125 39.59375 43.09375 43.984375 
Q 39.0625 48.390625 32.421875 48.390625 
Q 24.90625 48.390625 20.390625 44.140625 
Q 15.875 39.890625 15.1875 32.171875 
z
" id="DejaVuSans-101"/>
      <path id="DejaVuSans-32"/>
      <path d="M 31 75.875 
Q 24.46875 64.65625 21.28125 53.65625 
Q 18.109375 42.671875 18.109375 31.390625 
Q 18.109375 20.125 21.3125 9.0625 
Q 24.515625 -2 31 -13.1875 
L 23.1875 -13.1875 
Q 15.875 -1.703125 12.234375 9.375 
Q 8.59375 20.453125 8.59375 31.390625 
Q 8.59375 42.28125 12.203125 53.3125 
Q 15.828125 64.359375 23.1875 75.875 
z
" id="DejaVuSans-40"/>
      <path d="M 45.40625 46.390625 
L 45.40625 75.984375 
L 54.390625 75.984375 
L 54.390625 0 
L 45.40625 0 
L 45.40625 8.203125 
Q 42.578125 3.328125 38.25 0.953125 
Q 33.9375 -1.421875 27.875 -1.421875 
Q 17.96875 -1.421875 11.734375 6.484375 
Q 5.515625 14.40625 5.515625 27.296875 
Q 5.515625 40.1875 11.734375 48.09375 
Q 17.96875 56 27.875 56 
Q 33.9375 56 38.25 53.625 
Q 42.578125 51.265625 45.40625 46.390625 
z
M 14.796875 27.296875 
Q 14.796875 17.390625 18.875 11.75 
Q 22.953125 6.109375 30.078125 6.109375 
Q 37.203125 6.109375 41.296875 11.75 
Q 45.40625 17.390625 45.40625 27.296875 
Q 45.40625 37.203125 41.296875 42.84375 
Q 37.203125 48.484375 30.078125 48.484375 
Q 22.953125 48.484375 18.875 42.84375 
Q 14.796875 37.203125 14.796875 27.296875 
z
" id="DejaVuSans-100"/>
      <path d="M 34.28125 27.484375 
Q 23.390625 27.484375 19.1875 25 
Q 14.984375 22.515625 14.984375 16.5 
Q 14.984375 11.71875 18.140625 8.90625 
Q 21.296875 6.109375 26.703125 6.109375 
Q 34.1875 6.109375 38.703125 11.40625 
Q 43.21875 16.703125 43.21875 25.484375 
L 43.21875 27.484375 
z
M 52.203125 31.203125 
L 52.203125 0 
L 43.21875 0 
L 43.21875 8.296875 
Q 40.140625 3.328125 35.546875 0.953125 
Q 30.953125 -1.421875 24.3125 -1.421875 
Q 15.921875 -1.421875 10.953125 3.296875 
Q 6 8.015625 6 15.921875 
Q 6 25.140625 12.171875 29.828125 
Q 18.359375 34.515625 30.609375 34.515625 
L 43.21875 34.515625 
L 43.21875 35.40625 
Q 43.21875 41.609375 39.140625 45 
Q 35.0625 48.390625 27.6875 48.390625 
Q 23 48.390625 18.546875 47.265625 
Q 14.109375 46.140625 10.015625 43.890625 
L 10.015625 52.203125 
Q 14.9375 54.109375 19.578125 55.046875 
Q 24.21875 56 28.609375 56 
Q 40.484375 56 46.34375 49.84375 
Q 52.203125 43.703125 52.203125 31.203125 
z
" id="DejaVuSans-97"/>
      <path d="M 32.171875 -5.078125 
Q 28.375 -14.84375 24.75 -17.8125 
Q 21.140625 -20.796875 15.09375 -20.796875 
L 7.90625 -20.796875 
L 7.90625 -13.28125 
L 13.1875 -13.28125 
Q 16.890625 -13.28125 18.9375 -11.515625 
Q 21 -9.765625 23.484375 -3.21875 
L 25.09375 0.875 
L 2.984375 54.6875 
L 12.5 54.6875 
L 29.59375 11.921875 
L 46.6875 54.6875 
L 56.203125 54.6875 
z
" id="DejaVuSans-121"/>
      <path d="M 44.28125 53.078125 
L 44.28125 44.578125 
Q 40.484375 46.53125 36.375 47.5 
Q 32.28125 48.484375 27.875 48.484375 
Q 21.1875 48.484375 17.84375 46.4375 
Q 14.5 44.390625 14.5 40.28125 
Q 14.5 37.15625 16.890625 35.375 
Q 19.28125 33.59375 26.515625 31.984375 
L 29.59375 31.296875 
Q 39.15625 29.25 43.1875 25.515625 
Q 47.21875 21.78125 47.21875 15.09375 
Q 47.21875 7.46875 41.1875 3.015625 
Q 35.15625 -1.421875 24.609375 -1.421875 
Q 20.21875 -1.421875 15.453125 -0.5625 
Q 10.6875 0.296875 5.421875 2 
L 5.421875 11.28125 
Q 10.40625 8.6875 15.234375 7.390625 
Q 20.0625 6.109375 24.8125 6.109375 
Q 31.15625 6.109375 34.5625 8.28125 
Q 37.984375 10.453125 37.984375 14.40625 
Q 37.984375 18.0625 35.515625 20.015625 
Q 33.0625 21.96875 24.703125 23.78125 
L 21.578125 24.515625 
Q 13.234375 26.265625 9.515625 29.90625 
Q 5.8125 33.546875 5.8125 39.890625 
Q 5.8125 47.609375 11.28125 51.796875 
Q 16.75 56 26.8125 56 
Q 31.78125 56 36.171875 55.265625 
Q 40.578125 54.546875 44.28125 53.078125 
z
" id="DejaVuSans-115"/>
      <path d="M 8.015625 75.875 
L 15.828125 75.875 
Q 23.140625 64.359375 26.78125 53.3125 
Q 30.421875 42.28125 30.421875 31.390625 
Q 30.421875 20.453125 26.78125 9.375 
Q 23.140625 -1.703125 15.828125 -13.1875 
L 8.015625 -13.1875 
Q 14.5 -2 17.703125 9.0625 
Q 20.90625 20.125 20.90625 31.390625 
Q 20.90625 42.671875 17.703125 53.65625 
Q 14.5 64.65625 8.015625 75.875 
z
" id="DejaVuSans-41"/>
     </defs>
     <g style="fill:#262626;" transform="translate(203.299063 316.706687)scale(0.1 -0.1)">
      <use xlink:href="#DejaVuSans-116"/>
      <use x="39.208984" xlink:href="#DejaVuSans-105"/>
      <use x="66.992188" xlink:href="#DejaVuSans-109"/>
      <use x="164.404297" xlink:href="#DejaVuSans-101"/>
      <use x="225.927734" xlink:href="#DejaVuSans-32"/>
      <use x="257.714844" xlink:href="#DejaVuSans-40"/>
      <use x="296.728516" xlink:href="#DejaVuSans-100"/>
      <use x="360.205078" xlink:href="#DejaVuSans-97"/>
      <use x="421.484375" xlink:href="#DejaVuSans-121"/>
      <use x="480.664062" xlink:href="#DejaVuSans-115"/>
      <use x="532.763672" xlink:href="#DejaVuSans-41"/>
     </g>
    </g>
   </g>
   <g id="matplotlib.axis_2">
    <g id="ytick_1">
     <g id="line2d_10">
      <path clip-path="url(#pf5a2417125)" d="M 53.328125 276.700841 
L 410.448125 276.700841 
" style="fill:none;stroke:#cccccc;stroke-linecap:round;stroke-width:0.8;"/>
     </g>
     <g id="text_11">
      <!-- 0 -->
      <g style="fill:#262626;" transform="translate(39.965625 280.50006)scale(0.1 -0.1)">
       <use xlink:href="#DejaVuSans-48"/>
      </g>
     </g>
    </g>
    <g id="ytick_2">
     <g id="line2d_11">
      <path clip-path="url(#pf5a2417125)" d="M 53.328125 220.282931 
L 410.448125 220.282931 
" style="fill:none;stroke:#cccccc;stroke-linecap:round;stroke-width:0.8;"/>
     </g>
     <g id="text_12">
      <!-- 2000 -->
      <g style="fill:#262626;" transform="translate(20.878125 224.08215)scale(0.1 -0.1)">
       <use xlink:href="#DejaVuSans-50"/>
       <use x="63.623047" xlink:href="#DejaVuSans-48"/>
       <use x="127.246094" xlink:href="#DejaVuSans-48"/>
       <use x="190.869141" xlink:href="#DejaVuSans-48"/>
      </g>
     </g>
    </g>
    <g id="ytick_3">
     <g id="line2d_12">
      <path clip-path="url(#pf5a2417125)" d="M 53.328125 163.865021 
L 410.448125 163.865021 
" style="fill:none;stroke:#cccccc;stroke-linecap:round;stroke-width:0.8;"/>
     </g>
     <g id="text_13">
      <!-- 4000 -->
      <g style="fill:#262626;" transform="translate(20.878125 167.664239)scale(0.1 -0.1)">
       <use xlink:href="#DejaVuSans-52"/>
       <use x="63.623047" xlink:href="#DejaVuSans-48"/>
       <use x="127.246094" xlink:href="#DejaVuSans-48"/>
       <use x="190.869141" xlink:href="#DejaVuSans-48"/>
      </g>
     </g>
    </g>
    <g id="ytick_4">
     <g id="line2d_13">
      <path clip-path="url(#pf5a2417125)" d="M 53.328125 107.44711 
L 410.448125 107.44711 
" style="fill:none;stroke:#cccccc;stroke-linecap:round;stroke-width:0.8;"/>
     </g>
     <g id="text_14">
      <!-- 6000 -->
      <defs>
       <path d="M 33.015625 40.375 
Q 26.375 40.375 22.484375 35.828125 
Q 18.609375 31.296875 18.609375 23.390625 
Q 18.609375 15.53125 22.484375 10.953125 
Q 26.375 6.390625 33.015625 6.390625 
Q 39.65625 6.390625 43.53125 10.953125 
Q 47.40625 15.53125 47.40625 23.390625 
Q 47.40625 31.296875 43.53125 35.828125 
Q 39.65625 40.375 33.015625 40.375 
z
M 52.59375 71.296875 
L 52.59375 62.3125 
Q 48.875 64.0625 45.09375 64.984375 
Q 41.3125 65.921875 37.59375 65.921875 
Q 27.828125 65.921875 22.671875 59.328125 
Q 17.53125 52.734375 16.796875 39.40625 
Q 19.671875 43.65625 24.015625 45.921875 
Q 28.375 48.1875 33.59375 48.1875 
Q 44.578125 48.1875 50.953125 41.515625 
Q 57.328125 34.859375 57.328125 23.390625 
Q 57.328125 12.15625 50.6875 5.359375 
Q 44.046875 -1.421875 33.015625 -1.421875 
Q 20.359375 -1.421875 13.671875 8.265625 
Q 6.984375 17.96875 6.984375 36.375 
Q 6.984375 53.65625 15.1875 63.9375 
Q 23.390625 74.21875 37.203125 74.21875 
Q 40.921875 74.21875 44.703125 73.484375 
Q 48.484375 72.75 52.59375 71.296875 
z
" id="DejaVuSans-54"/>
      </defs>
      <g style="fill:#262626;" transform="translate(20.878125 111.246329)scale(0.1 -0.1)">
       <use xlink:href="#DejaVuSans-54"/>
       <use x="63.623047" xlink:href="#DejaVuSans-48"/>
       <use x="127.246094" xlink:href="#DejaVuSans-48"/>
       <use x="190.869141" xlink:href="#DejaVuSans-48"/>
      </g>
     </g>
    </g>
    <g id="ytick_5">
     <g id="line2d_14">
      <path clip-path="url(#pf5a2417125)" d="M 53.328125 51.0292 
L 410.448125 51.0292 
" style="fill:none;stroke:#cccccc;stroke-linecap:round;stroke-width:0.8;"/>
     </g>
     <g id="text_15">
      <!-- 8000 -->
      <defs>
       <path d="M 31.78125 34.625 
Q 24.75 34.625 20.71875 30.859375 
Q 16.703125 27.09375 16.703125 20.515625 
Q 16.703125 13.921875 20.71875 10.15625 
Q 24.75 6.390625 31.78125 6.390625 
Q 38.8125 6.390625 42.859375 10.171875 
Q 46.921875 13.96875 46.921875 20.515625 
Q 46.921875 27.09375 42.890625 30.859375 
Q 38.875 34.625 31.78125 34.625 
z
M 21.921875 38.8125 
Q 15.578125 40.375 12.03125 44.71875 
Q 8.5 49.078125 8.5 55.328125 
Q 8.5 64.0625 14.71875 69.140625 
Q 20.953125 74.21875 31.78125 74.21875 
Q 42.671875 74.21875 48.875 69.140625 
Q 55.078125 64.0625 55.078125 55.328125 
Q 55.078125 49.078125 51.53125 44.71875 
Q 48 40.375 41.703125 38.8125 
Q 48.828125 37.15625 52.796875 32.3125 
Q 56.78125 27.484375 56.78125 20.515625 
Q 56.78125 9.90625 50.3125 4.234375 
Q 43.84375 -1.421875 31.78125 -1.421875 
Q 19.734375 -1.421875 13.25 4.234375 
Q 6.78125 9.90625 6.78125 20.515625 
Q 6.78125 27.484375 10.78125 32.3125 
Q 14.796875 37.15625 21.921875 38.8125 
z
M 18.3125 54.390625 
Q 18.3125 48.734375 21.84375 45.5625 
Q 25.390625 42.390625 31.78125 42.390625 
Q 38.140625 42.390625 41.71875 45.5625 
Q 45.3125 48.734375 45.3125 54.390625 
Q 45.3125 60.0625 41.71875 63.234375 
Q 38.140625 66.40625 31.78125 66.40625 
Q 25.390625 66.40625 21.84375 63.234375 
Q 18.3125 60.0625 18.3125 54.390625 
z
" id="DejaVuSans-56"/>
      </defs>
      <g style="fill:#262626;" transform="translate(20.878125 54.828418)scale(0.1 -0.1)">
       <use xlink:href="#DejaVuSans-56"/>
       <use x="63.623047" xlink:href="#DejaVuSans-48"/>
       <use x="127.246094" xlink:href="#DejaVuSans-48"/>
       <use x="190.869141" xlink:href="#DejaVuSans-48"/>
      </g>
     </g>
    </g>
    <g id="text_16">
     <!-- cells number -->
     <defs>
      <path d="M 48.78125 52.59375 
L 48.78125 44.1875 
Q 44.96875 46.296875 41.140625 47.34375 
Q 37.3125 48.390625 33.40625 48.390625 
Q 24.65625 48.390625 19.8125 42.84375 
Q 14.984375 37.3125 14.984375 27.296875 
Q 14.984375 17.28125 19.8125 11.734375 
Q 24.65625 6.203125 33.40625 6.203125 
Q 37.3125 6.203125 41.140625 7.25 
Q 44.96875 8.296875 48.78125 10.40625 
L 48.78125 2.09375 
Q 45.015625 0.34375 40.984375 -0.53125 
Q 36.96875 -1.421875 32.421875 -1.421875 
Q 20.0625 -1.421875 12.78125 6.34375 
Q 5.515625 14.109375 5.515625 27.296875 
Q 5.515625 40.671875 12.859375 48.328125 
Q 20.21875 56 33.015625 56 
Q 37.15625 56 41.109375 55.140625 
Q 45.0625 54.296875 48.78125 52.59375 
z
" id="DejaVuSans-99"/>
      <path d="M 9.421875 75.984375 
L 18.40625 75.984375 
L 18.40625 0 
L 9.421875 0 
z
" id="DejaVuSans-108"/>
      <path d="M 54.890625 33.015625 
L 54.890625 0 
L 45.90625 0 
L 45.90625 32.71875 
Q 45.90625 40.484375 42.875 44.328125 
Q 39.84375 48.1875 33.796875 48.1875 
Q 26.515625 48.1875 22.3125 43.546875 
Q 18.109375 38.921875 18.109375 30.90625 
L 18.109375 0 
L 9.078125 0 
L 9.078125 54.6875 
L 18.109375 54.6875 
L 18.109375 46.1875 
Q 21.34375 51.125 25.703125 53.5625 
Q 30.078125 56 35.796875 56 
Q 45.21875 56 50.046875 50.171875 
Q 54.890625 44.34375 54.890625 33.015625 
z
" id="DejaVuSans-110"/>
      <path d="M 8.5 21.578125 
L 8.5 54.6875 
L 17.484375 54.6875 
L 17.484375 21.921875 
Q 17.484375 14.15625 20.5 10.265625 
Q 23.53125 6.390625 29.59375 6.390625 
Q 36.859375 6.390625 41.078125 11.03125 
Q 45.3125 15.671875 45.3125 23.6875 
L 45.3125 54.6875 
L 54.296875 54.6875 
L 54.296875 0 
L 45.3125 0 
L 45.3125 8.40625 
Q 42.046875 3.421875 37.71875 1 
Q 33.40625 -1.421875 27.6875 -1.421875 
Q 18.265625 -1.421875 13.375 4.4375 
Q 8.5 10.296875 8.5 21.578125 
z
M 31.109375 56 
z
" id="DejaVuSans-117"/>
      <path d="M 48.6875 27.296875 
Q 48.6875 37.203125 44.609375 42.84375 
Q 40.53125 48.484375 33.40625 48.484375 
Q 26.265625 48.484375 22.1875 42.84375 
Q 18.109375 37.203125 18.109375 27.296875 
Q 18.109375 17.390625 22.1875 11.75 
Q 26.265625 6.109375 33.40625 6.109375 
Q 40.53125 6.109375 44.609375 11.75 
Q 48.6875 17.390625 48.6875 27.296875 
z
M 18.109375 46.390625 
Q 20.953125 51.265625 25.265625 53.625 
Q 29.59375 56 35.59375 56 
Q 45.5625 56 51.78125 48.09375 
Q 58.015625 40.1875 58.015625 27.296875 
Q 58.015625 14.40625 51.78125 6.484375 
Q 45.5625 -1.421875 35.59375 -1.421875 
Q 29.59375 -1.421875 25.265625 0.953125 
Q 20.953125 3.328125 18.109375 8.203125 
L 18.109375 0 
L 9.078125 0 
L 9.078125 75.984375 
L 18.109375 75.984375 
z
" id="DejaVuSans-98"/>
      <path d="M 41.109375 46.296875 
Q 39.59375 47.171875 37.8125 47.578125 
Q 36.03125 48 33.890625 48 
Q 26.265625 48 22.1875 43.046875 
Q 18.109375 38.09375 18.109375 28.8125 
L 18.109375 0 
L 9.078125 0 
L 9.078125 54.6875 
L 18.109375 54.6875 
L 18.109375 46.1875 
Q 20.953125 51.171875 25.484375 53.578125 
Q 30.03125 56 36.53125 56 
Q 37.453125 56 38.578125 55.875 
Q 39.703125 55.765625 41.0625 55.515625 
z
" id="DejaVuSans-114"/>
     </defs>
     <g style="fill:#262626;" transform="translate(14.798438 187.685844)rotate(-90)scale(0.1 -0.1)">
      <use xlink:href="#DejaVuSans-99"/>
      <use x="54.980469" xlink:href="#DejaVuSans-101"/>
      <use x="116.503906" xlink:href="#DejaVuSans-108"/>
      <use x="144.287109" xlink:href="#DejaVuSans-108"/>
      <use x="172.070312" xlink:href="#DejaVuSans-115"/>
      <use x="224.169922" xlink:href="#DejaVuSans-32"/>
      <use x="255.957031" xlink:href="#DejaVuSans-110"/>
      <use x="319.335938" xlink:href="#DejaVuSans-117"/>
      <use x="382.714844" xlink:href="#DejaVuSans-109"/>
      <use x="480.126953" xlink:href="#DejaVuSans-98"/>
      <use x="543.603516" xlink:href="#DejaVuSans-101"/>
      <use x="605.126953" xlink:href="#DejaVuSans-114"/>
     </g>
    </g>
   </g>
   <g id="line2d_15">
    <path clip-path="url(#pf5a2417125)" d="M 69.560852 275.910991 
L 70.374523 275.205767 
L 72.815534 273.485021 
L 74.442876 272.272035 
L 76.070217 271.228304 
L 78.511228 269.394722 
L 79.324899 268.858752 
L 80.138569 267.984274 
L 84.206922 265.332632 
L 85.834263 264.119647 
L 86.647934 263.49905 
L 87.461604 263.019498 
L 90.716286 260.396065 
L 93.970968 258.534274 
L 94.784639 257.970095 
L 95.59831 257.631588 
L 96.41198 256.954573 
L 98.852992 255.713379 
L 99.666662 254.951737 
L 100.480333 254.443976 
L 101.294003 253.654125 
L 102.921344 252.497558 
L 105.362356 250.776812 
L 108.617038 248.745767 
L 110.244379 247.476364 
L 111.05805 246.827558 
L 112.685391 245.981289 
L 113.499061 245.276065 
L 114.312732 244.937558 
L 115.940073 243.865618 
L 116.753744 243.301438 
L 119.194755 242.003826 
L 121.635767 239.888155 
L 122.449437 239.267558 
L 123.263108 238.92905 
L 124.076778 238.449498 
L 125.70412 237.236513 
L 126.51779 236.728752 
L 127.331461 235.938901 
L 128.958802 234.866961 
L 130.586143 233.795021 
L 131.399813 233.456513 
L 132.213484 232.835916 
L 133.027154 232.525618 
L 137.909178 228.40711 
L 141.97753 225.811886 
L 142.791201 224.9092 
L 149.300565 220.508603 
L 150.927906 219.154573 
L 151.741577 218.195468 
L 153.368918 217.06711 
L 154.996259 215.882334 
L 157.437271 214.528304 
L 159.878282 212.356215 
L 160.691953 211.256065 
L 161.505623 210.663677 
L 164.760305 208.745468 
L 166.387647 207.250394 
L 167.201317 206.714424 
L 168.828658 206.0092 
L 169.642329 205.303976 
L 171.26967 204.344871 
L 183.474728 195.769349 
L 184.288398 195.176961 
L 185.102069 194.782035 
L 185.915739 194.133229 
L 186.72941 193.174125 
L 189.170422 191.227707 
L 189.984092 190.437856 
L 190.797763 189.478752 
L 192.425104 188.293976 
L 193.238774 187.36308 
L 195.679786 185.388453 
L 198.934468 183.159946 
L 200.561809 181.664871 
L 201.37548 181.15711 
L 202.18915 180.367259 
L 204.630162 178.505468 
L 207.071174 176.55905 
L 208.698515 175.402483 
L 211.139526 173.935618 
L 211.953197 173.258603 
L 212.766867 172.77905 
L 213.580538 172.130244 
L 214.394208 171.70711 
L 215.207879 170.945468 
L 216.83522 169.845319 
L 217.648891 169.196513 
L 218.462561 168.716961 
L 220.089902 167.419349 
L 220.903573 166.968006 
L 221.717243 166.3192 
L 222.530914 165.952483 
L 225.785596 163.32905 
L 229.040278 161.18517 
L 236.363313 155.120244 
L 238.804325 153.512334 
L 239.617995 152.778901 
L 240.431666 152.327558 
L 242.059007 150.91711 
L 244.500018 149.422035 
L 246.127359 148.434722 
L 246.94103 147.616662 
L 249.382042 146.008752 
L 250.195712 145.190692 
L 251.009383 144.823976 
L 251.823053 144.090543 
L 253.450394 143.131438 
L 255.891406 141.213229 
L 259.959759 137.743528 
L 262.40077 136.163826 
L 263.214441 135.712483 
L 264.028111 135.063677 
L 264.841782 134.753379 
L 265.655452 134.1892 
L 266.469123 133.794274 
L 267.282793 133.060841 
L 268.096464 132.524871 
L 268.910135 131.706812 
L 270.537476 130.634871 
L 272.978487 128.970543 
L 274.605828 127.41905 
L 275.419499 126.911289 
L 276.233169 126.149647 
L 277.860511 125.021289 
L 278.674181 124.259647 
L 279.487852 123.667259 
L 280.301522 122.905618 
L 282.742534 121.241289 
L 286.810886 117.912632 
L 287.624557 117.517707 
L 292.50658 114.019797 
L 293.320251 113.540244 
L 294.947592 112.101588 
L 295.761262 111.452782 
L 296.574933 111.029647 
L 299.829615 108.490841 
L 301.456956 107.362483 
L 303.084297 106.008453 
L 305.525309 104.372334 
L 306.338979 103.66711 
L 307.96632 102.651588 
L 308.779991 101.918155 
L 310.407332 101.297558 
L 314.475685 98.166364 
L 316.916696 95.796812 
L 325.053402 90.211438 
L 325.867072 89.308752 
L 327.494413 88.236812 
L 328.308084 87.390543 
L 329.121755 87.052035 
L 330.749096 86.064722 
L 331.562766 85.218453 
L 332.376437 84.118304 
L 334.817448 82.764274 
L 335.631119 81.974424 
L 338.885801 79.576662 
L 340.513142 78.27905 
L 341.326813 77.799498 
L 342.140483 77.009647 
L 342.954154 76.417259 
L 343.767824 75.683826 
L 344.581495 75.176065 
L 346.208836 73.596364 
L 347.022506 73.173229 
L 347.836177 72.524424 
L 349.463518 71.649946 
L 351.090859 70.380543 
L 351.90453 69.64711 
L 353.531871 68.490543 
L 355.159212 67.249349 
L 357.600223 65.838901 
L 360.041235 63.723229 
L 360.854906 63.187259 
L 361.668576 62.340991 
L 363.295917 61.099797 
L 364.109588 60.225319 
L 364.923258 59.604722 
L 365.736929 58.617409 
L 366.550599 58.081438 
L 367.36427 57.263379 
L 368.17794 56.642782 
L 370.618952 55.260543 
L 371.432623 54.442483 
L 375.500975 51.706215 
L 377.128316 50.436812 
L 377.941987 49.92905 
L 378.755657 49.252035 
L 381.196669 47.841588 
L 382.01034 47.531289 
L 384.451351 45.782334 
L 387.706033 43.610244 
L 388.519704 42.848603 
L 393.401727 39.717409 
L 394.215398 39.125021 
L 394.215398 39.125021 
" style="fill:none;stroke:#000080;stroke-linecap:round;stroke-width:1.5;"/>
   </g>
   <g id="line2d_16">
    <path clip-path="url(#pf5a2417125)" d="M 69.560852 276.19308 
L 72.001864 274.472334 
L 72.815534 273.682483 
L 73.629205 273.23114 
L 74.442876 272.638752 
L 75.256546 271.736065 
L 78.511228 269.028006 
L 79.324899 268.576662 
L 82.579581 265.727558 
L 84.206922 264.937707 
L 85.020593 264.401737 
L 85.834263 263.611886 
L 86.647934 263.160543 
L 90.716286 260.00114 
L 91.529957 259.662632 
L 92.343627 259.098453 
L 93.157298 258.393229 
L 93.970968 257.970095 
L 96.41198 256.051886 
L 98.852992 254.443976 
L 99.666662 253.879797 
L 101.294003 252.948901 
L 102.107674 252.469349 
L 103.735015 251.256364 
L 104.548685 250.720394 
L 105.362356 249.986961 
L 106.176027 248.971438 
L 106.989697 248.604722 
L 109.430709 247.166065 
L 111.05805 246.432632 
L 118.381085 241.467856 
L 120.008426 240.621588 
L 120.822096 239.888155 
L 121.635767 239.577856 
L 122.449437 238.900841 
L 123.263108 238.505916 
L 124.076778 237.969946 
L 124.890449 237.603229 
L 125.70412 236.869797 
L 127.331461 235.854274 
L 129.772472 233.625767 
L 131.399813 232.384573 
L 132.213484 231.905021 
L 135.468166 228.971289 
L 136.281837 228.604573 
L 140.350189 225.868304 
L 141.16386 225.134871 
L 141.97753 224.203976 
L 142.791201 223.611588 
L 144.418542 222.652483 
L 150.927906 217.969797 
L 152.555247 217.06711 
L 153.368918 216.390095 
L 154.182588 216.023379 
L 154.996259 215.487409 
L 157.437271 213.5692 
L 158.250941 213.005021 
L 159.064612 212.75114 
L 159.878282 212.328006 
L 162.319294 210.099498 
L 164.760305 208.43517 
L 165.573976 207.645319 
L 168.014988 205.896364 
L 168.828658 205.078304 
L 169.642329 204.824424 
L 172.08334 202.849797 
L 172.897011 202.567707 
L 175.338022 200.59308 
L 176.151693 199.746812 
L 181.847387 195.882185 
L 183.474728 194.556364 
L 184.288398 194.217856 
L 185.102069 193.399797 
L 186.72941 192.102185 
L 187.543081 191.650841 
L 189.170422 190.522483 
L 189.984092 190.042931 
L 190.797763 189.168453 
L 192.425104 188.068304 
L 193.238774 187.165618 
L 194.052445 186.798901 
L 195.679786 185.303826 
L 196.493457 184.513976 
L 199.748139 182.680394 
L 200.561809 181.946961 
L 201.37548 181.4392 
L 205.443832 178.138752 
L 206.257503 177.828453 
L 208.698515 176.051289 
L 210.325856 174.753677 
L 211.139526 174.274125 
L 212.766867 173.484274 
L 214.394208 171.9892 
L 215.207879 171.001886 
L 216.021549 170.296662 
L 216.83522 169.901737 
L 219.276232 168.011737 
L 220.089902 167.193677 
L 220.903573 166.742334 
L 224.158255 164.259946 
L 224.971925 163.639349 
L 225.785596 163.216215 
L 229.853949 160.000394 
L 232.29496 158.025767 
L 234.735972 156.333229 
L 235.549642 155.938304 
L 237.990654 153.653379 
L 240.431666 152.158304 
L 242.872677 150.09905 
L 243.686348 149.647707 
L 245.313689 148.152632 
L 246.94103 147.080692 
L 251.009383 143.582782 
L 251.823053 143.272483 
L 253.450394 142.341588 
L 255.891406 140.620841 
L 256.705076 140.141289 
L 259.146088 138.194871 
L 260.773429 137.179349 
L 264.028111 134.838006 
L 264.841782 134.386662 
L 265.655452 133.625021 
L 268.910135 131.509349 
L 269.723805 130.888752 
L 270.537476 130.070692 
L 271.351146 129.506513 
L 272.164817 129.168006 
L 273.792158 127.983229 
L 275.419499 126.516364 
L 280.301522 123.328752 
L 281.928863 121.861886 
L 282.742534 121.523379 
L 283.556204 120.930991 
L 284.369875 120.536065 
L 285.183545 119.85905 
L 288.438228 117.743379 
L 290.065569 116.389349 
L 292.50658 114.978901 
L 293.320251 114.217259 
L 294.133921 113.765916 
L 294.947592 112.778603 
L 295.761262 112.383677 
L 296.574933 111.847707 
L 298.202274 111.001438 
L 299.015945 110.493677 
L 303.084297 107.306065 
L 304.711638 106.290543 
L 305.525309 105.528901 
L 306.338979 105.02114 
L 307.15265 104.033826 
L 307.96632 103.610692 
L 311.221003 101.043677 
L 316.103026 97.320095 
L 317.730367 95.796812 
L 322.61239 91.932185 
L 323.426061 91.452632 
L 324.239731 90.747409 
L 325.053402 90.211438 
L 325.867072 89.478006 
L 326.680743 89.054871 
L 329.121755 87.164871 
L 330.749096 85.782632 
L 331.562766 85.30308 
L 334.817448 82.764274 
L 335.631119 82.369349 
L 338.07213 80.479349 
L 338.885801 79.971588 
L 339.699472 79.125319 
L 341.326813 78.053379 
L 342.954154 77.066065 
L 343.767824 76.755767 
L 345.395165 75.260692 
L 346.208836 74.837558 
L 349.463518 72.35517 
L 351.090859 71.029349 
L 353.531871 69.280394 
L 354.345541 68.941886 
L 355.159212 68.236662 
L 356.786553 67.277558 
L 358.413894 66.008155 
L 359.227565 65.641438 
L 360.854906 64.372035 
L 363.295917 62.735916 
L 364.109588 61.946065 
L 366.550599 60.366364 
L 367.36427 60.056065 
L 368.991611 59.012334 
L 369.805282 58.532782 
L 370.618952 57.883976 
L 372.246293 56.981289 
L 376.314646 53.596215 
L 377.128316 53.285916 
L 379.569328 51.311289 
L 380.382999 51.000991 
L 381.196669 50.182931 
L 382.01034 49.618752 
L 383.637681 48.123677 
L 386.078692 46.233677 
L 387.706033 45.246364 
L 388.519704 44.738603 
L 389.333374 44.456513 
L 390.147045 43.892334 
L 391.774386 42.481886 
L 392.588057 42.030543 
L 394.215398 40.817558 
L 394.215398 40.817558 
" style="fill:none;stroke:#0000f1;stroke-linecap:round;stroke-width:1.5;"/>
   </g>
   <g id="line2d_17">
    <path clip-path="url(#pf5a2417125)" d="M 69.560852 276.164871 
L 71.188193 274.58517 
L 72.815534 273.569647 
L 74.442876 272.356662 
L 76.070217 271.115468 
L 76.883887 270.720543 
L 78.511228 269.648603 
L 80.95224 268.068901 
L 82.579581 266.771289 
L 83.393251 266.122483 
L 84.206922 265.727558 
L 85.020593 264.994125 
L 89.902616 261.919349 
L 91.529957 260.508901 
L 93.157298 259.606215 
L 94.784639 258.167558 
L 95.59831 257.857259 
L 96.41198 257.29308 
L 98.039321 255.910841 
L 101.294003 253.372035 
L 102.921344 252.497558 
L 106.989697 249.563826 
L 107.803368 249.394573 
L 109.430709 248.491886 
L 110.244379 247.645618 
L 111.87172 246.48905 
L 112.685391 245.755618 
L 113.499061 245.304274 
L 117.567414 242.229498 
L 118.381085 241.552483 
L 119.194755 241.157558 
L 120.008426 240.339498 
L 120.822096 240.057409 
L 121.635767 239.549647 
L 122.449437 238.900841 
L 127.331461 236.108155 
L 128.958802 234.754125 
L 129.772472 234.189946 
L 131.399813 233.371886 
L 133.840825 231.65114 
L 135.468166 230.438155 
L 136.281837 229.450841 
L 137.095507 229.084125 
L 141.16386 225.69905 
L 142.791201 224.429647 
L 143.604871 223.837259 
L 144.418542 223.103826 
L 146.859554 221.467707 
L 150.114236 218.562185 
L 150.927906 218.195468 
L 151.741577 217.405618 
L 153.368918 216.502931 
L 154.182588 216.023379 
L 155.80993 214.556513 
L 157.437271 213.343528 
L 158.250941 212.948603 
L 159.064612 212.271588 
L 159.878282 211.792035 
L 160.691953 211.481737 
L 161.505623 210.720095 
L 162.319294 210.268752 
L 163.132964 209.535319 
L 163.946635 209.083976 
L 166.387647 207.109349 
L 168.014988 206.234871 
L 168.828658 205.586065 
L 169.642329 205.134722 
L 170.455999 204.401289 
L 171.26967 204.062782 
L 172.08334 203.30114 
L 172.897011 202.821588 
L 173.710681 202.059946 
L 174.524352 201.608603 
L 177.779034 199.23905 
L 179.406375 197.997856 
L 181.033716 196.728453 
L 181.847387 196.305319 
L 185.102069 193.56905 
L 186.72941 192.49711 
L 187.543081 191.67905 
L 190.797763 189.112035 
L 191.611433 188.237558 
L 193.238774 187.052782 
L 194.866115 185.783379 
L 195.679786 185.275618 
L 196.493457 184.93711 
L 197.307127 184.11905 
L 198.120798 183.58308 
L 198.934468 183.244573 
L 202.18915 181.072483 
L 203.816491 180.08517 
L 204.630162 179.492782 
L 206.257503 178.646513 
L 207.884844 177.518155 
L 208.698515 176.756513 
L 209.512185 176.276961 
L 211.139526 175.007558 
L 211.953197 174.697259 
L 213.580538 173.427856 
L 214.394208 173.004722 
L 215.207879 172.384125 
L 216.021549 171.904573 
L 216.83522 171.227558 
L 217.648891 170.776215 
L 220.089902 168.46308 
L 223.344584 165.529349 
L 224.158255 165.049797 
L 226.599266 163.216215 
L 228.226608 161.975021 
L 229.853949 160.451737 
L 234.735972 156.671737 
L 237.990654 154.499647 
L 239.617995 153.230244 
L 241.245336 151.960841 
L 242.059007 151.594125 
L 242.872677 151.029946 
L 243.686348 150.606812 
L 244.500018 149.901588 
L 246.127359 148.942483 
L 247.754701 147.701289 
L 248.568371 147.13711 
L 249.382042 146.262632 
L 252.636724 144.485468 
L 259.146088 140.11308 
L 259.959759 139.379647 
L 260.773429 138.928304 
L 262.40077 137.489647 
L 264.841782 135.853528 
L 268.096464 133.568603 
L 269.723805 132.186364 
L 270.537476 131.706812 
L 272.978487 129.421886 
L 273.792158 129.05517 
L 275.419499 127.785767 
L 277.04684 126.826662 
L 280.301522 124.033976 
L 281.928863 122.933826 
L 285.183545 120.084722 
L 285.997216 119.633379 
L 288.438228 117.545916 
L 289.251898 117.094573 
L 290.879239 115.768752 
L 291.69291 115.373826 
L 292.50658 114.837856 
L 293.320251 114.47114 
L 294.133921 113.93517 
L 296.574933 111.791289 
L 298.202274 111.029647 
L 305.525309 105.500692 
L 307.96632 103.864573 
L 308.779991 103.074722 
L 309.593662 102.538752 
L 310.407332 101.805319 
L 316.103026 98.138155 
L 317.730367 96.445618 
L 319.357708 94.865916 
L 320.985049 93.511886 
L 322.61239 92.665618 
L 323.426061 91.875767 
L 324.239731 91.565468 
L 325.867072 90.324274 
L 327.494413 88.942035 
L 329.935425 87.108453 
L 333.190107 84.456812 
L 339.699472 80.028006 
L 342.140483 78.476513 
L 345.395165 76.332632 
L 346.208836 76.106961 
L 347.022506 75.5992 
L 347.836177 75.345319 
L 349.463518 74.216961 
L 351.090859 72.834722 
L 351.90453 72.298752 
L 354.345541 70.239498 
L 355.159212 69.844573 
L 356.786553 68.659797 
L 357.600223 68.29308 
L 358.413894 67.75711 
L 361.668576 64.964424 
L 363.295917 63.666812 
L 364.109588 63.187259 
L 364.923258 62.397409 
L 365.736929 61.833229 
L 366.550599 61.071588 
L 368.991611 59.209797 
L 372.246293 56.360692 
L 373.059964 55.542632 
L 373.873634 55.119498 
L 375.500975 53.652632 
L 377.941987 52.242185 
L 378.755657 51.593379 
L 380.382999 50.831737 
L 382.01034 49.562334 
L 382.82401 48.828901 
L 385.265022 47.192782 
L 386.892363 45.89517 
L 387.706033 45.020692 
L 389.333374 43.610244 
L 391.774386 42.397259 
L 394.215398 40.591886 
L 394.215398 40.591886 
" style="fill:none;stroke:#004cff;stroke-linecap:round;stroke-width:1.5;"/>
   </g>
   <g id="line2d_18">
    <path clip-path="url(#pf5a2417125)" d="M 69.560852 276.334125 
L 70.374523 275.967409 
L 71.188193 275.318603 
L 72.001864 274.472334 
L 72.815534 273.936364 
L 73.629205 273.259349 
L 74.442876 272.920841 
L 75.256546 272.441289 
L 77.697558 270.438453 
L 79.324899 269.140841 
L 80.138569 268.717707 
L 81.76591 267.56114 
L 82.579581 266.799498 
L 83.393251 266.348155 
L 84.206922 265.530095 
L 86.647934 263.865767 
L 87.461604 263.104125 
L 88.275275 262.652782 
L 89.088945 261.947558 
L 90.716286 260.988453 
L 91.529957 260.678155 
L 92.343627 260.029349 
L 93.157298 259.211289 
L 96.41198 257.377707 
L 97.225651 257.010991 
L 103.735015 252.582185 
L 104.548685 252.102632 
L 106.176027 250.776812 
L 106.989697 250.26905 
L 107.803368 250.043379 
L 110.244379 248.37905 
L 111.05805 247.955916 
L 112.685391 246.799349 
L 113.499061 246.460841 
L 114.312732 245.840244 
L 115.126403 245.445319 
L 115.940073 244.88114 
L 116.753744 243.978453 
L 117.567414 243.301438 
L 118.381085 242.962931 
L 120.822096 241.016513 
L 121.635767 240.536961 
L 122.449437 239.859946 
L 123.263108 239.408603 
L 124.076778 238.731588 
L 132.213484 233.964274 
L 133.840825 232.666662 
L 135.468166 231.284424 
L 136.281837 230.466364 
L 137.095507 230.156065 
L 137.909178 229.394424 
L 139.536519 228.209647 
L 140.350189 227.58905 
L 144.418542 225.219498 
L 145.232212 224.711737 
L 148.486895 222.003677 
L 149.300565 221.693379 
L 150.114236 220.84711 
L 151.741577 219.690543 
L 153.368918 218.618603 
L 155.80993 216.926065 
L 157.437271 216.051588 
L 158.250941 215.205319 
L 160.691953 213.146065 
L 162.319294 211.763826 
L 164.760305 210.014871 
L 166.387647 209.337856 
L 167.201317 208.773677 
L 168.014988 208.406961 
L 169.642329 207.052931 
L 170.455999 206.686215 
L 171.26967 206.093826 
L 172.08334 205.275767 
L 173.710681 204.147409 
L 174.524352 203.611438 
L 177.779034 200.87517 
L 178.592705 200.367409 
L 179.406375 199.662185 
L 181.033716 198.731289 
L 182.661057 197.151588 
L 186.72941 194.133229 
L 188.356751 192.553528 
L 189.170422 192.102185 
L 189.984092 191.509797 
L 190.797763 190.748155 
L 192.425104 189.732632 
L 193.238774 188.9992 
L 197.307127 186.29114 
L 198.120798 185.416662 
L 199.748139 184.147259 
L 201.37548 182.821438 
L 204.630162 180.451886 
L 205.443832 179.774871 
L 207.071174 178.872185 
L 208.698515 177.489946 
L 211.953197 175.599946 
L 214.394208 173.738155 
L 216.021549 172.694424 
L 216.83522 171.819946 
L 217.648891 171.312185 
L 218.462561 170.522334 
L 223.344584 166.968006 
L 224.971925 165.50114 
L 225.785596 165.078006 
L 226.599266 164.485618 
L 227.412937 163.554722 
L 229.040278 162.567409 
L 229.853949 161.805767 
L 233.108631 159.351588 
L 233.922301 158.47711 
L 236.363313 156.615319 
L 237.176984 155.656215 
L 238.804325 154.753528 
L 240.431666 153.399498 
L 242.872677 151.960841 
L 245.313689 149.760543 
L 246.94103 148.745021 
L 249.382042 146.855021 
L 251.009383 145.839498 
L 252.636724 144.767558 
L 253.450394 143.921289 
L 254.264065 143.385319 
L 255.077735 142.595468 
L 255.891406 142.00308 
L 257.518747 140.592632 
L 259.146088 139.295021 
L 259.959759 138.900095 
L 260.773429 138.251289 
L 261.5871 137.405021 
L 263.214441 136.445916 
L 264.028111 135.712483 
L 265.655452 134.809797 
L 267.282793 133.427558 
L 270.537476 131.029797 
L 271.351146 130.606662 
L 272.164817 130.014274 
L 272.978487 129.59114 
L 274.605828 128.152483 
L 279.487852 124.203229 
L 281.115193 123.018453 
L 281.928863 122.087558 
L 282.742534 121.382334 
L 283.556204 120.874573 
L 284.369875 120.056513 
L 286.810886 118.448603 
L 287.624557 117.743379 
L 288.438228 117.207409 
L 289.251898 116.473976 
L 290.065569 115.994424 
L 291.69291 114.555767 
L 293.320251 113.201737 
L 294.947592 112.016961 
L 296.574933 110.578304 
L 299.015945 108.942185 
L 300.643286 107.870244 
L 301.456956 107.080394 
L 302.270627 106.544424 
L 303.084297 105.698155 
L 304.711638 104.541588 
L 305.525309 104.033826 
L 307.15265 102.510543 
L 308.779991 101.24114 
L 310.407332 100.282035 
L 312.034673 98.928006 
L 313.662014 98.053528 
L 316.103026 95.994274 
L 316.916696 95.401886 
L 317.730367 94.612035 
L 320.171379 92.86308 
L 320.985049 92.298901 
L 322.61239 91.565468 
L 323.426061 91.114125 
L 325.867072 89.308752 
L 327.494413 88.293229 
L 329.121755 86.826364 
L 330.749096 85.218453 
L 332.376437 83.977259 
L 333.190107 83.41308 
L 334.003778 82.679647 
L 334.817448 81.692334 
L 335.631119 81.212782 
L 336.444789 80.338304 
L 337.25846 80.028006 
L 338.885801 78.843229 
L 344.581495 75.429946 
L 345.395165 74.555468 
L 346.208836 74.188752 
L 348.649847 72.468006 
L 350.277189 71.198603 
L 351.090859 70.352334 
L 352.7182 69.365021 
L 354.345541 67.926364 
L 355.972882 66.628752 
L 358.413894 64.654125 
L 359.227565 64.089946 
L 360.854906 62.679498 
L 362.482247 61.776812 
L 363.295917 60.902334 
L 368.991611 56.276065 
L 370.618952 54.752782 
L 371.432623 54.160394 
L 372.246293 53.737259 
L 373.873634 52.242185 
L 375.500975 51.254871 
L 377.128316 49.646961 
L 378.755657 48.716065 
L 380.382999 47.587707 
L 383.637681 44.907856 
L 384.451351 44.484722 
L 386.892363 42.735767 
L 387.706033 41.945916 
L 388.519704 41.607409 
L 390.147045 40.422632 
L 390.960716 39.660991 
L 391.774386 39.181438 
L 392.588057 38.306961 
L 394.215398 37.206812 
L 394.215398 37.206812 
" style="fill:none;stroke:#00b0ff;stroke-linecap:round;stroke-width:1.5;"/>
   </g>
   <g id="line2d_19">
    <path clip-path="url(#pf5a2417125)" d="M 69.560852 275.854573 
L 72.001864 274.331289 
L 74.442876 272.892632 
L 78.511228 269.761438 
L 79.324899 269.394722 
L 81.76591 267.758603 
L 82.579581 266.855916 
L 83.393251 266.122483 
L 85.834263 264.429946 
L 86.647934 264.147856 
L 88.275275 263.216961 
L 89.088945 262.539946 
L 89.902616 261.552632 
L 96.41198 257.377707 
L 97.225651 256.898155 
L 99.666662 255.008155 
L 102.107674 253.456662 
L 102.921344 252.807856 
L 104.548685 252.215468 
L 106.176027 251.030692 
L 107.803368 249.676662 
L 108.617038 249.112483 
L 109.430709 248.689349 
L 110.244379 247.899498 
L 111.05805 247.335319 
L 111.87172 247.025021 
L 113.499061 245.670991 
L 116.753744 243.780991 
L 120.822096 241.129349 
L 122.449437 239.944573 
L 123.263108 239.690692 
L 126.51779 237.659647 
L 128.145131 236.50308 
L 128.958802 236.220991 
L 132.213484 233.964274 
L 133.027154 233.25905 
L 133.840825 232.779498 
L 134.654495 232.074274 
L 136.281837 231.086961 
L 138.722848 229.084125 
L 140.350189 228.012185 
L 141.97753 226.573528 
L 145.232212 223.752632 
L 146.045883 223.075618 
L 146.859554 222.567856 
L 147.673224 222.257558 
L 150.114236 220.367558 
L 150.927906 220.000841 
L 152.555247 218.646812 
L 153.368918 217.913379 
L 154.996259 216.785021 
L 157.437271 214.443677 
L 161.505623 211.453528 
L 162.319294 210.720095 
L 163.946635 209.760991 
L 165.573976 208.124871 
L 166.387647 207.701737 
L 168.014988 206.54517 
L 171.26967 204.429498 
L 172.08334 204.090991 
L 173.710681 202.624125 
L 176.965364 200.536662 
L 177.779034 199.803229 
L 179.406375 198.731289 
L 182.661057 196.5592 
L 184.288398 195.712931 
L 185.915739 194.697409 
L 186.72941 193.85114 
L 188.356751 192.807409 
L 189.170422 192.581737 
L 189.984092 192.045767 
L 190.797763 191.368752 
L 191.611433 190.917409 
L 193.238774 189.394125 
L 195.679786 187.504125 
L 196.493457 186.939946 
L 197.307127 186.150095 
L 200.561809 184.11905 
L 201.37548 183.639498 
L 203.002821 182.341886 
L 203.816491 181.918752 
L 204.630162 181.072483 
L 205.443832 180.564722 
L 206.257503 179.887707 
L 207.071174 179.436364 
L 211.139526 176.333379 
L 212.766867 175.430692 
L 213.580538 174.66905 
L 215.207879 173.653528 
L 216.021549 173.06114 
L 216.83522 172.299498 
L 218.462561 171.283976 
L 219.276232 170.550543 
L 220.903573 169.365767 
L 222.530914 168.2092 
L 225.785596 166.57308 
L 227.412937 165.190841 
L 230.667619 162.821289 
L 231.48129 162.200692 
L 232.29496 161.410841 
L 233.922301 160.479946 
L 234.735972 159.718304 
L 237.176984 158.082185 
L 240.431666 155.007409 
L 241.245336 154.358603 
L 244.500018 150.888901 
L 245.313689 150.183677 
L 248.568371 148.519349 
L 250.195712 147.249946 
L 251.823053 146.234424 
L 252.636724 145.388155 
L 255.077735 143.723826 
L 255.891406 143.187856 
L 257.518747 141.890244 
L 258.332418 141.46711 
L 264.028111 136.784424 
L 266.469123 135.232931 
L 268.096464 134.048155 
L 268.910135 133.653229 
L 270.537476 132.186364 
L 272.164817 131.114424 
L 273.792158 129.675767 
L 276.233169 127.955021 
L 277.860511 126.516364 
L 278.674181 125.923976 
L 279.487852 125.472632 
L 280.301522 124.880244 
L 281.115193 124.146812 
L 281.928863 123.723677 
L 283.556204 122.56711 
L 284.369875 122.087558 
L 286.810886 120.282185 
L 287.624557 119.971886 
L 289.251898 118.928155 
L 291.69291 117.122782 
L 292.50658 116.502185 
L 293.320251 115.599498 
L 294.133921 115.00711 
L 294.947592 114.555767 
L 295.761262 114.273677 
L 298.202274 112.468304 
L 299.015945 112.073379 
L 300.643286 110.832185 
L 302.270627 109.675618 
L 306.338979 106.544424 
L 307.15265 106.149498 
L 307.96632 105.444274 
L 311.221003 103.356812 
L 312.034673 102.623379 
L 313.662014 101.720692 
L 316.916696 99.097259 
L 317.730367 98.758752 
L 323.426061 94.696662 
L 326.680743 91.678304 
L 327.494413 90.944871 
L 328.308084 90.521737 
L 329.121755 89.675468 
L 330.749096 88.603528 
L 331.562766 87.841886 
L 332.376437 86.910991 
L 334.003778 85.528752 
L 336.444789 83.977259 
L 340.513142 80.958901 
L 341.326813 80.197259 
L 342.140483 79.661289 
L 342.954154 78.984274 
L 343.767824 78.617558 
L 347.022506 76.163379 
L 348.649847 74.978603 
L 349.463518 74.329797 
L 350.277189 73.850244 
L 352.7182 72.07308 
L 354.345541 71.00114 
L 355.159212 70.352334 
L 356.786553 69.506065 
L 358.413894 68.264871 
L 359.227565 67.841737 
L 360.041235 67.051886 
L 360.854906 66.064573 
L 361.668576 65.472185 
L 362.482247 65.04905 
L 363.295917 64.343826 
L 364.109588 63.469349 
L 368.991611 60.168901 
L 369.805282 59.717558 
L 371.432623 58.560991 
L 373.059964 57.48905 
L 374.687305 56.106812 
L 375.500975 55.373379 
L 376.314646 55.006662 
L 377.941987 53.906513 
L 378.755657 53.483379 
L 381.196669 51.678006 
L 382.01034 51.170244 
L 382.82401 50.436812 
L 383.637681 50.098304 
L 384.451351 49.336662 
L 393.401727 43.779498 
L 394.215398 42.933229 
L 394.215398 42.933229 
" style="fill:none;stroke:#29ffce;stroke-linecap:round;stroke-width:1.5;"/>
   </g>
   <g id="line2d_20">
    <path clip-path="url(#pf5a2417125)" d="M 69.560852 275.995618 
L 70.374523 275.12114 
L 72.001864 273.795319 
L 74.442876 272.1592 
L 76.070217 271.425767 
L 76.883887 271.002632 
L 77.697558 270.2692 
L 79.324899 269.253677 
L 80.138569 268.830543 
L 82.579581 267.081588 
L 85.020593 265.445468 
L 85.834263 264.994125 
L 88.275275 262.765618 
L 92.343627 260.057558 
L 93.970968 259.267707 
L 95.59831 258.308603 
L 98.039321 256.277558 
L 98.852992 255.826215 
L 100.480333 254.161886 
L 101.294003 253.682334 
L 102.107674 252.892483 
L 104.548685 251.171737 
L 105.362356 250.663976 
L 106.176027 250.297259 
L 106.989697 249.704871 
L 107.803368 249.281737 
L 108.617038 248.463677 
L 109.430709 247.927707 
L 111.05805 247.222483 
L 112.685391 246.037707 
L 114.312732 245.304274 
L 119.194755 242.032035 
L 120.008426 241.411438 
L 120.822096 241.157558 
L 122.449437 239.74711 
L 123.263108 239.408603 
L 124.890449 238.39308 
L 127.331461 236.362035 
L 130.586143 234.641289 
L 132.213484 233.456513 
L 133.027154 232.751289 
L 134.654495 231.848603 
L 135.468166 231.228006 
L 136.281837 230.381737 
L 137.909178 229.253379 
L 138.722848 228.435319 
L 139.536519 227.927558 
L 141.16386 226.601737 
L 141.97753 226.235021 
L 144.418542 224.401438 
L 146.859554 223.075618 
L 148.486895 222.313976 
L 149.300565 221.580543 
L 150.114236 221.044573 
L 151.741577 219.662334 
L 152.555247 219.098155 
L 154.182588 218.308304 
L 155.80993 216.841438 
L 157.437271 215.854125 
L 158.250941 215.036065 
L 159.064612 214.64114 
L 161.505623 212.807558 
L 164.760305 210.804722 
L 168.014988 208.68905 
L 168.828658 208.406961 
L 169.642329 207.814573 
L 170.455999 207.447856 
L 172.08334 206.319498 
L 172.897011 205.924573 
L 177.779034 202.088155 
L 178.592705 201.665021 
L 182.661057 198.872334 
L 185.915739 195.769349 
L 188.356751 194.217856 
L 189.170422 193.597259 
L 189.984092 193.145916 
L 190.797763 192.356065 
L 193.238774 190.804573 
L 194.052445 190.466065 
L 194.866115 189.78905 
L 195.679786 188.942782 
L 196.493457 188.322185 
L 197.307127 187.278453 
L 207.071174 178.843976 
L 209.512185 177.320692 
L 212.766867 174.612632 
L 214.394208 173.540692 
L 215.207879 172.948304 
L 216.021549 172.52517 
L 218.462561 170.691588 
L 219.276232 170.268453 
L 222.530914 168.068155 
L 223.344584 167.278304 
L 224.971925 166.065319 
L 225.785596 165.388304 
L 226.599266 165.049797 
L 227.412937 164.485618 
L 228.226608 164.203528 
L 229.853949 162.79308 
L 233.108631 160.338901 
L 238.804325 156.333229 
L 239.617995 155.966513 
L 240.431666 155.176662 
L 242.872677 153.399498 
L 243.686348 152.891737 
L 245.313689 151.565916 
L 246.127359 151.029946 
L 247.754701 149.760543 
L 252.636724 146.290841 
L 253.450394 145.78308 
L 254.264065 144.823976 
L 255.077735 144.118752 
L 255.891406 143.582782 
L 256.705076 142.877558 
L 257.518747 142.708304 
L 258.332418 142.28517 
L 259.146088 141.523528 
L 260.773429 140.310543 
L 262.40077 139.012931 
L 268.096464 135.543229 
L 268.910135 134.668752 
L 269.723805 133.963528 
L 271.351146 133.004424 
L 272.164817 132.186364 
L 274.605828 130.888752 
L 275.419499 130.098901 
L 277.860511 128.462782 
L 278.674181 127.616513 
L 279.487852 127.136961 
L 280.301522 126.318901 
L 281.928863 125.077707 
L 283.556204 123.949349 
L 284.369875 123.272334 
L 285.183545 122.905618 
L 285.997216 122.369647 
L 287.624557 120.930991 
L 288.438228 119.943677 
L 293.320251 116.07905 
L 294.133921 115.655916 
L 300.643286 110.916812 
L 301.456956 110.493677 
L 303.084297 109.167856 
L 307.15265 106.177707 
L 309.593662 104.73905 
L 310.407332 104.231289 
L 312.034673 102.933677 
L 313.662014 101.974573 
L 317.730367 98.617707 
L 318.544038 98.138155 
L 320.171379 96.727707 
L 320.985049 96.3892 
L 322.61239 95.260841 
L 324.239731 93.906812 
L 325.053402 93.483677 
L 325.867072 92.750244 
L 326.680743 92.242483 
L 327.494413 91.452632 
L 328.308084 90.832035 
L 329.935425 90.013976 
L 335.631119 85.472334 
L 337.25846 84.456812 
L 338.07213 83.610543 
L 338.885801 83.130991 
L 341.326813 80.958901 
L 342.140483 80.197259 
L 342.954154 79.717707 
L 343.767824 78.956065 
L 344.581495 78.363677 
L 345.395165 77.573826 
L 346.208836 77.094274 
L 347.022506 76.219797 
L 350.277189 73.624573 
L 351.090859 72.834722 
L 351.90453 72.298752 
L 352.7182 71.565319 
L 353.531871 71.255021 
L 355.972882 69.421438 
L 356.786553 68.82905 
L 360.854906 66.515916 
L 363.295917 64.428453 
L 364.923258 63.44114 
L 365.736929 62.989797 
L 371.432623 58.504573 
L 372.246293 58.250692 
L 374.687305 56.106812 
L 375.500975 55.288752 
L 377.941987 53.426961 
L 378.755657 52.608901 
L 380.382999 51.395916 
L 381.196669 50.634274 
L 388.519704 45.246364 
L 390.960716 42.905021 
L 391.774386 42.340841 
L 392.588057 42.058752 
L 393.401727 41.325319 
L 394.215398 40.817558 
L 394.215398 40.817558 
" style="fill:none;stroke:#7dff7a;stroke-linecap:round;stroke-width:1.5;"/>
   </g>
   <g id="line2d_21">
    <path clip-path="url(#pf5a2417125)" d="M 69.560852 276.108453 
L 70.374523 275.65711 
L 71.188193 274.867259 
L 72.815534 274.020991 
L 74.442876 272.977259 
L 75.256546 272.469498 
L 76.070217 271.764274 
L 77.697558 271.030841 
L 78.511228 270.607707 
L 79.324899 270.015319 
L 80.95224 268.463826 
L 83.393251 266.573826 
L 85.834263 265.219797 
L 87.461604 263.922185 
L 88.275275 263.301588 
L 89.088945 262.822035 
L 90.716286 261.35517 
L 94.784639 259.013826 
L 95.59831 258.393229 
L 98.039321 257.067409 
L 98.852992 256.475021 
L 99.666662 256.080095 
L 102.107674 254.190095 
L 102.921344 253.766961 
L 106.176027 251.115319 
L 107.803368 249.394573 
L 108.617038 248.943229 
L 109.430709 248.322632 
L 111.05805 247.363528 
L 112.685391 246.150543 
L 114.312732 244.740095 
L 116.753744 242.70905 
L 118.381085 242.032035 
L 119.194755 241.63711 
L 120.008426 240.678006 
L 120.822096 240.0292 
L 121.635767 239.126513 
L 124.890449 236.728752 
L 125.70412 236.2492 
L 126.51779 235.487558 
L 128.145131 234.443826 
L 132.213484 231.481886 
L 133.027154 230.748453 
L 133.840825 230.381737 
L 135.468166 229.253379 
L 136.281837 228.576364 
L 137.909178 227.504424 
L 140.350189 225.473379 
L 141.16386 224.852782 
L 141.97753 224.373229 
L 145.232212 221.693379 
L 146.045883 221.242035 
L 148.486895 219.436662 
L 150.927906 217.941588 
L 152.555247 216.474722 
L 153.368918 215.938752 
L 154.182588 215.656662 
L 154.996259 214.923229 
L 159.064612 212.271588 
L 161.505623 210.184125 
L 163.132964 209.112185 
L 163.946635 208.43517 
L 164.760305 208.012035 
L 165.573976 207.447856 
L 168.014988 205.388603 
L 170.455999 203.978155 
L 171.26967 203.611438 
L 172.08334 203.047259 
L 173.710681 202.172782 
L 175.338022 201.12905 
L 176.151693 200.423826 
L 178.592705 198.900543 
L 179.406375 198.138901 
L 182.661057 195.910394 
L 183.474728 195.487259 
L 185.102069 194.020394 
L 191.611433 188.858155 
L 192.425104 188.576065 
L 193.238774 188.011886 
L 194.052445 187.701588 
L 194.866115 187.1092 
L 195.679786 186.262931 
L 203.002821 180.508304 
L 204.630162 179.379946 
L 206.257503 177.91308 
L 207.071174 177.038603 
L 207.884844 176.502632 
L 210.325856 174.499797 
L 211.139526 174.048453 
L 211.953197 173.089349 
L 212.766867 172.638006 
L 214.394208 171.481438 
L 216.83522 169.845319 
L 217.648891 169.027259 
L 218.462561 168.660543 
L 219.276232 167.92711 
L 221.717243 166.347409 
L 222.530914 165.924274 
L 224.158255 164.542035 
L 224.971925 163.667558 
L 225.785596 163.103379 
L 226.599266 162.200692 
L 229.853949 160.226065 
L 234.735972 156.671737 
L 236.363313 155.684424 
L 238.804325 153.87905 
L 239.617995 153.455916 
L 240.431666 152.637856 
L 241.245336 152.101886 
L 242.059007 151.424871 
L 242.872677 150.522185 
L 243.686348 149.788752 
L 244.500018 149.224573 
L 245.313689 148.434722 
L 247.754701 146.826812 
L 248.568371 146.431886 
L 249.382042 145.895916 
L 251.009383 145.049647 
L 252.636724 143.921289 
L 253.450394 143.469946 
L 254.264065 142.877558 
L 255.077735 142.031289 
L 256.705076 140.761886 
L 257.518747 140.028453 
L 259.146088 138.843677 
L 260.773429 137.461438 
L 261.5871 136.643379 
L 263.214441 135.712483 
L 264.028111 135.035468 
L 265.655452 134.048155 
L 266.469123 133.201886 
L 270.537476 130.606662 
L 271.351146 129.986065 
L 272.164817 129.59114 
L 272.978487 128.801289 
L 275.419499 127.278006 
L 276.233169 126.600991 
L 277.04684 126.121438 
L 279.487852 124.033976 
L 280.301522 123.498006 
L 281.928863 122.059349 
L 282.742534 121.382334 
L 284.369875 120.253976 
L 285.997216 118.871737 
L 286.810886 118.222931 
L 290.065569 116.473976 
L 290.879239 115.853379 
L 291.69291 115.373826 
L 294.133921 113.370991 
L 294.947592 112.919647 
L 295.761262 112.158006 
L 296.574933 111.565618 
L 299.829615 109.732035 
L 300.643286 109.111438 
L 302.270627 107.644573 
L 303.897968 106.346961 
L 304.711638 105.952035 
L 306.338979 104.400543 
L 309.593662 102.0592 
L 311.221003 100.479498 
L 312.848344 99.210095 
L 314.475685 97.630394 
L 316.103026 96.64308 
L 317.730367 95.458304 
L 319.357708 94.104274 
L 320.171379 93.596513 
L 320.985049 92.919498 
L 321.79872 92.073229 
L 323.426061 90.944871 
L 325.053402 89.506215 
L 327.494413 88.01114 
L 329.121755 86.600692 
L 332.376437 84.372185 
L 333.190107 83.69517 
L 334.817448 82.707856 
L 335.631119 82.087259 
L 336.444789 81.664125 
L 338.07213 80.507558 
L 341.326813 78.645767 
L 342.954154 77.517409 
L 343.767824 77.122483 
L 349.463518 72.411588 
L 350.277189 71.452483 
L 352.7182 69.703528 
L 355.159212 68.152035 
L 356.786553 66.854424 
L 363.295917 61.663976 
L 364.109588 61.212632 
L 367.36427 58.84308 
L 369.805282 57.545468 
L 375.500975 53.060244 
L 376.314646 52.552483 
L 377.941987 51.142035 
L 379.569328 49.92905 
L 380.382999 49.026364 
L 382.82401 47.136364 
L 383.637681 46.854274 
L 385.265022 45.61308 
L 390.147045 42.002334 
L 390.960716 41.29711 
L 391.774386 40.76114 
L 393.401727 39.378901 
L 394.215398 38.814722 
L 394.215398 38.814722 
" style="fill:none;stroke:#ceff29;stroke-linecap:round;stroke-width:1.5;"/>
   </g>
   <g id="line2d_22">
    <path clip-path="url(#pf5a2417125)" d="M 69.560852 276.136662 
L 70.374523 275.290394 
L 71.188193 274.782632 
L 73.629205 272.920841 
L 75.256546 271.200095 
L 76.883887 269.98711 
L 81.76591 266.686662 
L 82.579581 265.896812 
L 83.393251 265.445468 
L 88.275275 261.806513 
L 89.088945 261.439797 
L 90.716286 260.085767 
L 91.529957 259.408752 
L 92.343627 258.957409 
L 93.157298 258.336812 
L 93.970968 257.490543 
L 94.784639 257.123826 
L 95.59831 256.446812 
L 97.225651 255.544125 
L 99.666662 253.79517 
L 100.480333 253.118155 
L 101.294003 252.610394 
L 103.735015 250.55114 
L 104.548685 250.522931 
L 105.362356 249.817707 
L 108.617038 247.984125 
L 110.244379 246.742931 
L 111.05805 246.404424 
L 112.685391 245.219647 
L 113.499061 244.740095 
L 117.567414 241.63711 
L 122.449437 238.67517 
L 126.51779 235.656812 
L 127.331461 235.233677 
L 128.958802 233.992483 
L 129.772472 233.118006 
L 136.281837 228.717409 
L 137.909178 227.58905 
L 138.722848 227.194125 
L 139.536519 226.51711 
L 142.791201 224.457856 
L 145.232212 222.511438 
L 146.045883 222.060095 
L 148.486895 220.367558 
L 149.300565 219.944424 
L 150.114236 219.182782 
L 152.555247 217.574871 
L 154.182588 216.53114 
L 155.80993 214.923229 
L 157.437271 214.048752 
L 159.878282 212.186961 
L 160.691953 211.707409 
L 164.760305 208.406961 
L 166.387647 206.770841 
L 168.014988 205.811737 
L 173.710681 202.003528 
L 174.524352 201.354722 
L 176.151693 200.367409 
L 178.592705 198.618453 
L 179.406375 197.743976 
L 181.847387 195.769349 
L 183.474728 194.810244 
L 184.288398 194.076812 
L 185.102069 193.681886 
L 187.543081 192.045767 
L 189.170422 190.776364 
L 191.611433 189.309498 
L 192.425104 188.406812 
L 194.052445 187.222035 
L 195.679786 186.29114 
L 198.120798 184.655021 
L 200.561809 182.765021 
L 201.37548 182.003379 
L 202.18915 181.4392 
L 203.002821 181.016065 
L 205.443832 179.097856 
L 207.071174 177.828453 
L 208.698515 176.30517 
L 209.512185 175.740991 
L 213.580538 172.355916 
L 215.207879 171.481438 
L 216.021549 171.001886 
L 218.462561 169.027259 
L 219.276232 168.265618 
L 220.089902 167.814274 
L 221.717243 166.234573 
L 223.344584 165.275468 
L 224.971925 163.893229 
L 227.412937 162.087856 
L 228.226608 161.354424 
L 229.040278 160.874871 
L 229.853949 160.028603 
L 230.667619 159.54905 
L 232.29496 158.053976 
L 233.922301 156.8692 
L 234.735972 156.417856 
L 235.549642 155.656215 
L 237.176984 154.668901 
L 238.804325 153.399498 
L 241.245336 151.848006 
L 242.872677 150.465767 
L 244.500018 149.365618 
L 246.127359 148.237259 
L 246.94103 147.588453 
L 248.568371 146.629349 
L 249.382042 146.178006 
L 250.195712 145.416364 
L 252.636724 143.752035 
L 253.450394 143.272483 
L 254.264065 142.595468 
L 255.077735 142.144125 
L 255.891406 141.382483 
L 257.518747 140.310543 
L 259.959759 138.448752 
L 261.5871 137.235767 
L 264.841782 135.148304 
L 265.655452 134.527707 
L 267.282793 133.512185 
L 268.096464 132.778752 
L 268.910135 132.440244 
L 269.723805 131.876065 
L 270.537476 131.537558 
L 272.164817 130.4092 
L 272.978487 129.619349 
L 274.605828 128.490991 
L 275.419499 127.955021 
L 276.233169 127.16517 
L 278.674181 125.980394 
L 281.115193 123.751886 
L 281.928863 123.215916 
L 282.742534 122.228603 
L 284.369875 120.987409 
L 285.183545 120.67711 
L 285.997216 120.000095 
L 287.624557 118.956364 
L 288.438228 118.053677 
L 289.251898 117.658752 
L 290.065569 116.840692 
L 292.50658 115.176364 
L 294.133921 114.273677 
L 295.761262 113.145319 
L 296.574933 112.665767 
L 299.015945 110.493677 
L 300.643286 109.393528 
L 301.456956 108.885767 
L 307.96632 103.66711 
L 309.593662 102.764424 
L 311.221003 101.410394 
L 312.034673 100.930841 
L 316.916696 97.150841 
L 317.730367 96.784125 
L 319.357708 95.458304 
L 320.985049 94.527409 
L 322.61239 93.032334 
L 325.053402 91.875767 
L 328.308084 89.167707 
L 330.749096 87.72905 
L 332.376437 86.177558 
L 334.817448 84.259349 
L 336.444789 82.820692 
L 337.25846 81.776961 
L 338.885801 80.705021 
L 340.513142 79.492035 
L 341.326813 79.09711 
L 342.140483 78.307259 
L 344.581495 76.558304 
L 347.022506 74.837558 
L 347.836177 74.470841 
L 349.463518 73.257856 
L 350.277189 72.919349 
L 355.159212 69.11114 
L 355.972882 68.659797 
L 356.786553 67.926364 
L 358.413894 66.882632 
L 359.227565 66.036364 
L 360.041235 65.585021 
L 362.482247 63.695021 
L 364.923258 62.030692 
L 370.618952 58.391737 
L 371.432623 57.573677 
L 373.873634 55.796513 
L 374.687305 55.260543 
L 377.941987 52.665319 
L 378.755657 52.044722 
L 380.382999 51.000991 
L 384.451351 47.728752 
L 385.265022 47.277409 
L 386.078692 46.600394 
L 386.892363 45.697707 
L 388.519704 44.710394 
L 389.333374 44.315468 
L 390.147045 43.72308 
L 391.774386 42.763976 
L 392.588057 42.11517 
L 393.401727 41.692035 
L 394.215398 41.127856 
L 394.215398 41.127856 
" style="fill:none;stroke:#ffc400;stroke-linecap:round;stroke-width:1.5;"/>
   </g>
   <g id="line2d_23">
    <path clip-path="url(#pf5a2417125)" d="M 69.560852 276.023826 
L 73.629205 273.259349 
L 74.442876 272.610543 
L 75.256546 271.736065 
L 76.883887 270.664125 
L 77.697558 270.212782 
L 80.138569 268.153528 
L 80.95224 267.702185 
L 81.76591 266.74308 
L 83.393251 265.755767 
L 85.020593 264.063229 
L 88.275275 261.975767 
L 90.716286 260.198603 
L 92.343627 259.239498 
L 93.157298 258.618901 
L 93.970968 258.280394 
L 98.852992 254.923528 
L 99.666662 254.613229 
L 102.921344 252.300095 
L 103.735015 251.876961 
L 104.548685 251.284573 
L 105.362356 250.861438 
L 107.803368 249.140692 
L 108.617038 248.66114 
L 109.430709 248.350841 
L 110.244379 247.899498 
L 111.05805 247.278901 
L 111.87172 246.827558 
L 114.312732 245.022185 
L 115.940073 243.922035 
L 117.567414 243.160394 
L 118.381085 242.483379 
L 119.194755 242.257707 
L 120.822096 241.129349 
L 121.635767 240.254871 
L 123.263108 239.041886 
L 124.076778 238.788006 
L 124.890449 238.39308 
L 126.51779 237.236513 
L 128.145131 235.910692 
L 128.958802 235.487558 
L 129.772472 234.838752 
L 131.399813 233.936065 
L 134.654495 231.397259 
L 137.909178 229.394424 
L 141.16386 227.165916 
L 141.97753 226.827409 
L 142.791201 226.178603 
L 143.604871 225.332334 
L 144.418542 224.683528 
L 145.232212 223.865468 
L 146.045883 223.414125 
L 146.859554 222.765319 
L 150.114236 220.818901 
L 150.927906 219.888006 
L 151.741577 219.182782 
L 153.368918 218.13905 
L 157.437271 214.979647 
L 158.250941 214.556513 
L 159.064612 213.907707 
L 159.878282 212.976812 
L 160.691953 212.46905 
L 162.319294 210.889349 
L 163.132964 210.353379 
L 163.946635 210.04308 
L 166.387647 208.068453 
L 168.014988 206.911886 
L 170.455999 205.219349 
L 172.897011 202.934424 
L 173.710681 202.511289 
L 174.524352 201.806065 
L 175.338022 201.354722 
L 176.151693 200.649498 
L 177.779034 199.972483 
L 178.592705 199.295468 
L 179.406375 198.364573 
L 180.220046 197.856812 
L 186.72941 192.694573 
L 187.543081 192.327856 
L 188.356751 191.622632 
L 193.238774 188.71711 
L 194.052445 188.096513 
L 194.866115 187.278453 
L 195.679786 186.82711 
L 197.307127 185.529498 
L 198.934468 184.147259 
L 199.748139 183.724125 
L 201.37548 182.341886 
L 206.257503 178.561886 
L 208.698515 177.123229 
L 211.139526 175.261438 
L 211.953197 174.894722 
L 212.766867 174.104871 
L 214.394208 172.891886 
L 215.207879 172.045618 
L 216.83522 170.804424 
L 217.648891 170.183826 
L 218.462561 169.422185 
L 219.276232 168.829797 
L 220.089902 168.434871 
L 220.903573 167.842483 
L 224.158255 164.936961 
L 224.971925 164.542035 
L 225.785596 163.723976 
L 228.226608 162.003229 
L 229.040278 161.156961 
L 233.108631 157.800095 
L 234.735972 156.502483 
L 237.176984 155.063826 
L 241.245336 151.650543 
L 242.059007 151.086364 
L 243.686348 150.155468 
L 244.500018 149.393826 
L 246.127359 148.378304 
L 246.94103 147.532035 
L 247.754701 147.193528 
L 249.382042 145.924125 
L 250.195712 145.5292 
L 251.823053 144.513677 
L 254.264065 143.159647 
L 255.077735 142.510841 
L 255.891406 142.115916 
L 263.214441 137.15114 
L 264.028111 136.699797 
L 271.351146 131.001588 
L 273.792158 129.168006 
L 276.233169 127.193379 
L 277.04684 126.657409 
L 278.674181 125.303379 
L 279.487852 124.99308 
L 280.301522 124.485319 
L 281.115193 123.63905 
L 284.369875 121.523379 
L 285.183545 120.818155 
L 285.997216 120.338603 
L 286.810886 119.689797 
L 287.624557 118.871737 
L 288.438228 118.222931 
L 290.065569 116.643229 
L 290.879239 115.853379 
L 291.69291 115.373826 
L 292.50658 114.640394 
L 294.133921 113.709498 
L 295.761262 112.440095 
L 296.574933 111.960543 
L 297.388603 111.22711 
L 299.829615 109.732035 
L 300.643286 108.885767 
L 301.456956 108.406215 
L 302.270627 107.672782 
L 303.897968 106.657259 
L 305.525309 105.923826 
L 307.15265 104.795468 
L 307.96632 104.287707 
L 312.034673 101.156513 
L 312.848344 100.70517 
L 313.662014 100.056364 
L 314.475685 99.605021 
L 316.103026 98.335618 
L 316.916696 97.912483 
L 318.544038 96.614871 
L 320.171379 95.486513 
L 320.985049 94.696662 
L 321.79872 94.386364 
L 322.61239 93.906812 
L 323.426061 93.229797 
L 325.053402 92.129647 
L 325.867072 91.339797 
L 327.494413 90.183229 
L 328.308084 89.675468 
L 330.749096 87.757259 
L 332.376437 86.713528 
L 333.190107 86.149349 
L 334.003778 85.387707 
L 334.817448 84.851737 
L 335.631119 84.118304 
L 338.07213 82.623229 
L 338.885801 82.143677 
L 339.699472 81.52308 
L 342.140483 79.125319 
L 343.767824 77.884125 
L 347.836177 75.204274 
L 348.649847 74.49905 
L 349.463518 73.596364 
L 352.7182 71.452483 
L 355.972882 69.026513 
L 357.600223 67.728901 
L 358.413894 67.22114 
L 359.227565 66.431289 
L 360.041235 66.064573 
L 361.668576 65.04905 
L 362.482247 64.118155 
L 363.295917 63.44114 
L 364.923258 62.538453 
L 368.17794 59.745767 
L 368.991611 59.294424 
L 370.618952 57.996812 
L 372.246293 57.094125 
L 373.059964 56.135021 
L 373.873634 55.542632 
L 374.687305 54.780991 
L 375.500975 54.329647 
L 376.314646 53.737259 
L 377.128316 52.947409 
L 377.941987 52.439647 
L 380.382999 50.408603 
L 382.82401 48.85711 
L 384.451351 47.869797 
L 385.265022 47.023528 
L 388.519704 44.597558 
L 390.147045 43.271737 
L 391.774386 42.256215 
L 393.401727 40.817558 
L 394.215398 40.338006 
L 394.215398 40.338006 
" style="fill:none;stroke:#ff6800;stroke-linecap:round;stroke-width:1.5;"/>
   </g>
   <g id="line2d_24">
    <path clip-path="url(#pf5a2417125)" d="M 69.560852 275.910991 
L 71.188193 274.754424 
L 73.629205 272.41308 
L 76.883887 269.98711 
L 77.697558 269.16905 
L 78.511228 268.802334 
L 79.324899 268.238155 
L 80.138569 267.843229 
L 84.206922 264.909498 
L 86.647934 263.132334 
L 87.461604 262.7092 
L 89.902616 260.903826 
L 90.716286 260.480692 
L 93.157298 258.703528 
L 93.970968 258.336812 
L 94.784639 257.631588 
L 95.59831 257.349498 
L 97.225651 256.305767 
L 98.852992 254.613229 
L 101.294003 253.287409 
L 102.107674 252.525767 
L 103.735015 251.651289 
L 104.548685 250.861438 
L 106.176027 249.789498 
L 108.617038 248.520095 
L 109.430709 247.645618 
L 110.244379 247.166065 
L 111.05805 246.404424 
L 111.87172 245.924871 
L 114.312732 244.175916 
L 115.940073 243.019349 
L 116.753744 242.257707 
L 117.567414 241.975618 
L 119.194755 240.875468 
L 120.008426 240.452334 
L 121.635767 239.380394 
L 122.449437 238.92905 
L 123.263108 238.308453 
L 125.70412 236.869797 
L 127.331461 235.543976 
L 128.958802 234.472035 
L 129.772472 233.936065 
L 131.399813 233.118006 
L 133.027154 231.905021 
L 133.840825 231.086961 
L 135.468166 230.240692 
L 137.095507 229.450841 
L 137.909178 228.858453 
L 139.536519 227.194125 
L 141.97753 225.078453 
L 143.604871 224.175767 
L 146.859554 221.721588 
L 149.300565 219.888006 
L 151.741577 218.280095 
L 153.368918 216.926065 
L 157.437271 213.230692 
L 158.250941 212.779349 
L 159.878282 211.453528 
L 161.505623 209.958453 
L 162.319294 209.450692 
L 163.132964 208.745468 
L 163.946635 208.209498 
L 165.573976 206.911886 
L 166.387647 206.488752 
L 169.642329 203.921737 
L 171.26967 202.849797 
L 172.08334 202.257409 
L 174.524352 200.113528 
L 177.779034 197.941438 
L 178.592705 197.038752 
L 180.220046 196.248901 
L 181.847387 195.092334 
L 183.474728 193.794722 
L 184.288398 193.145916 
L 185.102069 192.7792 
L 185.915739 191.989349 
L 186.72941 191.453379 
L 187.543081 190.691737 
L 189.170422 189.591588 
L 189.984092 188.688901 
L 191.611433 187.89905 
L 194.052445 185.952632 
L 194.866115 185.614125 
L 196.493457 184.570394 
L 197.307127 183.752334 
L 201.37548 181.072483 
L 203.002821 179.436364 
L 204.630162 178.590095 
L 206.257503 177.264274 
L 207.071174 176.925767 
L 207.884844 176.333379 
L 208.698515 176.02308 
L 210.325856 174.697259 
L 211.139526 174.189498 
L 211.953197 173.343229 
L 215.207879 171.086513 
L 216.021549 170.578752 
L 216.83522 169.365767 
L 218.462561 168.378453 
L 219.276232 167.588603 
L 220.089902 166.968006 
L 220.903573 166.488453 
L 222.530914 165.134424 
L 224.158255 163.893229 
L 224.971925 163.272632 
L 226.599266 162.285319 
L 228.226608 160.90308 
L 229.040278 160.197856 
L 230.667619 159.182334 
L 232.29496 157.884722 
L 233.108631 157.489797 
L 233.922301 156.699946 
L 235.549642 155.402334 
L 238.804325 152.835319 
L 240.431666 151.396662 
L 248.568371 145.275319 
L 250.195712 144.288006 
L 254.264065 141.579946 
L 255.077735 140.761886 
L 256.705076 139.802782 
L 257.518747 139.04114 
L 258.332418 138.533379 
L 259.959759 137.094722 
L 260.773429 136.220244 
L 262.40077 134.753379 
L 264.028111 133.37114 
L 267.282793 130.775916 
L 268.096464 130.098901 
L 268.910135 129.619349 
L 269.723805 128.829498 
L 271.351146 127.757558 
L 272.978487 126.290692 
L 276.233169 123.610841 
L 278.674181 121.297707 
L 279.487852 120.818155 
L 284.369875 116.699647 
L 287.624557 113.963379 
L 288.438228 113.286364 
L 289.251898 112.29905 
L 290.065569 111.678453 
L 290.879239 110.860394 
L 295.761262 108.095916 
L 298.202274 106.205916 
L 299.015945 105.923826 
L 299.829615 104.880095 
L 301.456956 103.526065 
L 303.084297 102.566961 
L 305.525309 100.648752 
L 306.338979 99.88711 
L 308.779991 98.420244 
L 309.593662 97.573976 
L 311.221003 96.502035 
L 312.034673 95.825021 
L 312.848344 95.401886 
L 317.730367 91.25517 
L 318.544038 90.916662 
L 319.357708 90.380692 
L 320.171379 89.985767 
L 321.79872 88.8292 
L 322.61239 88.377856 
L 323.426061 87.700841 
L 324.239731 87.277707 
L 325.053402 86.459647 
L 327.494413 84.738901 
L 328.308084 84.033677 
L 329.935425 82.989946 
L 331.562766 81.325618 
L 334.817448 78.645767 
L 335.631119 77.884125 
L 336.444789 77.319946 
L 338.07213 75.796662 
L 338.885801 75.232483 
L 340.513142 73.765618 
L 342.140483 72.665468 
L 342.954154 71.903826 
L 344.581495 70.888304 
L 347.022506 68.772632 
L 348.649847 67.700692 
L 350.277189 66.798006 
L 352.7182 64.766961 
L 354.345541 63.497558 
L 355.972882 62.228155 
L 357.600223 61.381886 
L 358.413894 60.450991 
L 359.227565 59.773976 
L 360.041235 59.322632 
L 360.854906 58.702035 
L 361.668576 58.278901 
L 362.482247 57.658304 
L 363.295917 56.896662 
L 364.923258 55.768304 
L 367.36427 54.470692 
L 368.991611 53.285916 
L 372.246293 51.057409 
L 374.687305 49.252035 
L 375.500975 48.546812 
L 378.755657 46.572185 
L 379.569328 45.61308 
L 381.196669 44.230841 
L 382.01034 43.948752 
L 383.637681 42.538304 
L 384.451351 42.030543 
L 385.265022 41.29711 
L 386.078692 40.902185 
L 388.519704 38.955767 
L 390.147045 37.488901 
L 391.774386 36.388752 
L 392.588057 35.486065 
L 394.215398 34.414125 
L 394.215398 34.414125 
" style="fill:none;stroke:#f10800;stroke-linecap:round;stroke-width:1.5;"/>
   </g>
   <g id="patch_3">
    <path d="M 53.328125 288.430125 
L 53.328125 22.318125 
" style="fill:none;stroke:#cccccc;stroke-linecap:square;stroke-linejoin:miter;stroke-width:0.8;"/>
   </g>
   <g id="patch_4">
    <path d="M 410.448125 288.430125 
L 410.448125 22.318125 
" style="fill:none;stroke:#cccccc;stroke-linecap:square;stroke-linejoin:miter;stroke-width:0.8;"/>
   </g>
   <g id="patch_5">
    <path d="M 53.328125 288.430125 
L 410.448125 288.430125 
" style="fill:none;stroke:#cccccc;stroke-linecap:square;stroke-linejoin:miter;stroke-width:0.8;"/>
   </g>
   <g id="patch_6">
    <path d="M 53.328125 22.318125 
L 410.448125 22.318125 
" style="fill:none;stroke:#cccccc;stroke-linecap:square;stroke-linejoin:miter;stroke-width:0.8;"/>
   </g>
   <g id="text_17">
    <!-- Naive T CD4 -->
    <defs>
     <path d="M 9.8125 72.90625 
L 23.09375 72.90625 
L 55.421875 11.921875 
L 55.421875 72.90625 
L 64.984375 72.90625 
L 64.984375 0 
L 51.703125 0 
L 19.390625 60.984375 
L 19.390625 0 
L 9.8125 0 
z
" id="DejaVuSans-78"/>
     <path d="M 2.984375 54.6875 
L 12.5 54.6875 
L 29.59375 8.796875 
L 46.6875 54.6875 
L 56.203125 54.6875 
L 35.6875 0 
L 23.484375 0 
z
" id="DejaVuSans-118"/>
     <path d="M -0.296875 72.90625 
L 61.375 72.90625 
L 61.375 64.59375 
L 35.5 64.59375 
L 35.5 0 
L 25.59375 0 
L 25.59375 64.59375 
L -0.296875 64.59375 
z
" id="DejaVuSans-84"/>
     <path d="M 64.40625 67.28125 
L 64.40625 56.890625 
Q 59.421875 61.53125 53.78125 63.8125 
Q 48.140625 66.109375 41.796875 66.109375 
Q 29.296875 66.109375 22.65625 58.46875 
Q 16.015625 50.828125 16.015625 36.375 
Q 16.015625 21.96875 22.65625 14.328125 
Q 29.296875 6.6875 41.796875 6.6875 
Q 48.140625 6.6875 53.78125 8.984375 
Q 59.421875 11.28125 64.40625 15.921875 
L 64.40625 5.609375 
Q 59.234375 2.09375 53.4375 0.328125 
Q 47.65625 -1.421875 41.21875 -1.421875 
Q 24.65625 -1.421875 15.125 8.703125 
Q 5.609375 18.84375 5.609375 36.375 
Q 5.609375 53.953125 15.125 64.078125 
Q 24.65625 74.21875 41.21875 74.21875 
Q 47.75 74.21875 53.53125 72.484375 
Q 59.328125 70.75 64.40625 67.28125 
z
" id="DejaVuSans-67"/>
     <path d="M 19.671875 64.796875 
L 19.671875 8.109375 
L 31.59375 8.109375 
Q 46.6875 8.109375 53.6875 14.9375 
Q 60.6875 21.78125 60.6875 36.53125 
Q 60.6875 51.171875 53.6875 57.984375 
Q 46.6875 64.796875 31.59375 64.796875 
z
M 9.8125 72.90625 
L 30.078125 72.90625 
Q 51.265625 72.90625 61.171875 64.09375 
Q 71.09375 55.28125 71.09375 36.53125 
Q 71.09375 17.671875 61.125 8.828125 
Q 51.171875 0 30.078125 0 
L 9.8125 0 
z
" id="DejaVuSans-68"/>
    </defs>
    <g style="fill:#262626;" transform="translate(194.706875 16.318125)scale(0.12 -0.12)">
     <use xlink:href="#DejaVuSans-78"/>
     <use x="74.804688" xlink:href="#DejaVuSans-97"/>
     <use x="136.083984" xlink:href="#DejaVuSans-105"/>
     <use x="163.867188" xlink:href="#DejaVuSans-118"/>
     <use x="223.046875" xlink:href="#DejaVuSans-101"/>
     <use x="284.570312" xlink:href="#DejaVuSans-32"/>
     <use x="316.357422" xlink:href="#DejaVuSans-84"/>
     <use x="377.441406" xlink:href="#DejaVuSans-32"/>
     <use x="409.228516" xlink:href="#DejaVuSans-67"/>
     <use x="479.052734" xlink:href="#DejaVuSans-68"/>
     <use x="556.054688" xlink:href="#DejaVuSans-52"/>
    </g>
   </g>
  </g>
 </g>
 <defs>
  <clipPath id="pf5a2417125">
   <rect height="266.112" width="357.12" x="53.328125" y="22.318125"/>
  </clipPath>
 </defs>
</svg>
