<?xml version="1.0" encoding="utf-8" standalone="no"?>
<!DOCTYPE svg PUBLIC "-//W3C//DTD SVG 1.1//EN"
  "http://www.w3.org/Graphics/SVG/1.1/DTD/svg11.dtd">
<!-- Created with matplotlib (https://matplotlib.org/) -->
<svg height="325.986375pt" version="1.1" viewBox="0 0 430.373125 325.986375" width="430.373125pt" xmlns="http://www.w3.org/2000/svg" xmlns:xlink="http://www.w3.org/1999/xlink">
 <defs>
  <style type="text/css">
*{stroke-linecap:butt;stroke-linejoin:round;white-space:pre;}
  </style>
 </defs>
 <g id="figure_1">
  <g id="patch_1">
   <path d="M 0 325.986375 
L 430.373125 325.986375 
L 430.373125 0 
L 0 0 
z
" style="fill:#ffffff;"/>
  </g>
  <g id="axes_1">
   <g id="patch_2">
    <path d="M 66.053125 288.430125 
L 423.173125 288.430125 
L 423.173125 22.318125 
L 66.053125 22.318125 
z
" style="fill:#ffffff;"/>
   </g>
   <g id="matplotlib.axis_1">
    <g id="xtick_1">
     <g id="line2d_1">
      <path clip-path="url(#p30deab00d9)" d="M 82.285852 288.430125 
L 82.285852 22.318125 
" style="fill:none;stroke:#cccccc;stroke-linecap:round;stroke-width:0.8;"/>
     </g>
     <g id="text_1">
      <!-- 0 -->
      <defs>
       <path d="M 31.78125 66.40625 
Q 24.171875 66.40625 20.328125 58.90625 
Q 16.5 51.421875 16.5 36.375 
Q 16.5 21.390625 20.328125 13.890625 
Q 24.171875 6.390625 31.78125 6.390625 
Q 39.453125 6.390625 43.28125 13.890625 
Q 47.125 21.390625 47.125 36.375 
Q 47.125 51.421875 43.28125 58.90625 
Q 39.453125 66.40625 31.78125 66.40625 
z
M 31.78125 74.21875 
Q 44.046875 74.21875 50.515625 64.515625 
Q 56.984375 54.828125 56.984375 36.375 
Q 56.984375 17.96875 50.515625 8.265625 
Q 44.046875 -1.421875 31.78125 -1.421875 
Q 19.53125 -1.421875 13.0625 8.265625 
Q 6.59375 17.96875 6.59375 36.375 
Q 6.59375 54.828125 13.0625 64.515625 
Q 19.53125 74.21875 31.78125 74.21875 
z
" id="DejaVuSans-48"/>
      </defs>
      <g style="fill:#262626;" transform="translate(79.104602 303.028562)scale(0.1 -0.1)">
       <use xlink:href="#DejaVuSans-48"/>
      </g>
     </g>
    </g>
    <g id="xtick_2">
     <g id="line2d_2">
      <path clip-path="url(#p30deab00d9)" d="M 136.394943 288.430125 
L 136.394943 22.318125 
" style="fill:none;stroke:#cccccc;stroke-linecap:round;stroke-width:0.8;"/>
     </g>
     <g id="text_2">
      <!-- 10 -->
      <defs>
       <path d="M 12.40625 8.296875 
L 28.515625 8.296875 
L 28.515625 63.921875 
L 10.984375 60.40625 
L 10.984375 69.390625 
L 28.421875 72.90625 
L 38.28125 72.90625 
L 38.28125 8.296875 
L 54.390625 8.296875 
L 54.390625 0 
L 12.40625 0 
z
" id="DejaVuSans-49"/>
      </defs>
      <g style="fill:#262626;" transform="translate(130.032443 303.028562)scale(0.1 -0.1)">
       <use xlink:href="#DejaVuSans-49"/>
       <use x="63.623047" xlink:href="#DejaVuSans-48"/>
      </g>
     </g>
    </g>
    <g id="xtick_3">
     <g id="line2d_3">
      <path clip-path="url(#p30deab00d9)" d="M 190.504034 288.430125 
L 190.504034 22.318125 
" style="fill:none;stroke:#cccccc;stroke-linecap:round;stroke-width:0.8;"/>
     </g>
     <g id="text_3">
      <!-- 20 -->
      <defs>
       <path d="M 19.1875 8.296875 
L 53.609375 8.296875 
L 53.609375 0 
L 7.328125 0 
L 7.328125 8.296875 
Q 12.9375 14.109375 22.625 23.890625 
Q 32.328125 33.6875 34.8125 36.53125 
Q 39.546875 41.84375 41.421875 45.53125 
Q 43.3125 49.21875 43.3125 52.78125 
Q 43.3125 58.59375 39.234375 62.25 
Q 35.15625 65.921875 28.609375 65.921875 
Q 23.96875 65.921875 18.8125 64.3125 
Q 13.671875 62.703125 7.8125 59.421875 
L 7.8125 69.390625 
Q 13.765625 71.78125 18.9375 73 
Q 24.125 74.21875 28.421875 74.21875 
Q 39.75 74.21875 46.484375 68.546875 
Q 53.21875 62.890625 53.21875 53.421875 
Q 53.21875 48.921875 51.53125 44.890625 
Q 49.859375 40.875 45.40625 35.40625 
Q 44.1875 33.984375 37.640625 27.21875 
Q 31.109375 20.453125 19.1875 8.296875 
z
" id="DejaVuSans-50"/>
      </defs>
      <g style="fill:#262626;" transform="translate(184.141534 303.028562)scale(0.1 -0.1)">
       <use xlink:href="#DejaVuSans-50"/>
       <use x="63.623047" xlink:href="#DejaVuSans-48"/>
      </g>
     </g>
    </g>
    <g id="xtick_4">
     <g id="line2d_4">
      <path clip-path="url(#p30deab00d9)" d="M 244.613125 288.430125 
L 244.613125 22.318125 
" style="fill:none;stroke:#cccccc;stroke-linecap:round;stroke-width:0.8;"/>
     </g>
     <g id="text_4">
      <!-- 30 -->
      <defs>
       <path d="M 40.578125 39.3125 
Q 47.65625 37.796875 51.625 33 
Q 55.609375 28.21875 55.609375 21.1875 
Q 55.609375 10.40625 48.1875 4.484375 
Q 40.765625 -1.421875 27.09375 -1.421875 
Q 22.515625 -1.421875 17.65625 -0.515625 
Q 12.796875 0.390625 7.625 2.203125 
L 7.625 11.71875 
Q 11.71875 9.328125 16.59375 8.109375 
Q 21.484375 6.890625 26.8125 6.890625 
Q 36.078125 6.890625 40.9375 10.546875 
Q 45.796875 14.203125 45.796875 21.1875 
Q 45.796875 27.640625 41.28125 31.265625 
Q 36.765625 34.90625 28.71875 34.90625 
L 20.21875 34.90625 
L 20.21875 43.015625 
L 29.109375 43.015625 
Q 36.375 43.015625 40.234375 45.921875 
Q 44.09375 48.828125 44.09375 54.296875 
Q 44.09375 59.90625 40.109375 62.90625 
Q 36.140625 65.921875 28.71875 65.921875 
Q 24.65625 65.921875 20.015625 65.03125 
Q 15.375 64.15625 9.8125 62.3125 
L 9.8125 71.09375 
Q 15.4375 72.65625 20.34375 73.4375 
Q 25.25 74.21875 29.59375 74.21875 
Q 40.828125 74.21875 47.359375 69.109375 
Q 53.90625 64.015625 53.90625 55.328125 
Q 53.90625 49.265625 50.4375 45.09375 
Q 46.96875 40.921875 40.578125 39.3125 
z
" id="DejaVuSans-51"/>
      </defs>
      <g style="fill:#262626;" transform="translate(238.250625 303.028562)scale(0.1 -0.1)">
       <use xlink:href="#DejaVuSans-51"/>
       <use x="63.623047" xlink:href="#DejaVuSans-48"/>
      </g>
     </g>
    </g>
    <g id="xtick_5">
     <g id="line2d_5">
      <path clip-path="url(#p30deab00d9)" d="M 298.722216 288.430125 
L 298.722216 22.318125 
" style="fill:none;stroke:#cccccc;stroke-linecap:round;stroke-width:0.8;"/>
     </g>
     <g id="text_5">
      <!-- 40 -->
      <defs>
       <path d="M 37.796875 64.3125 
L 12.890625 25.390625 
L 37.796875 25.390625 
z
M 35.203125 72.90625 
L 47.609375 72.90625 
L 47.609375 25.390625 
L 58.015625 25.390625 
L 58.015625 17.1875 
L 47.609375 17.1875 
L 47.609375 0 
L 37.796875 0 
L 37.796875 17.1875 
L 4.890625 17.1875 
L 4.890625 26.703125 
z
" id="DejaVuSans-52"/>
      </defs>
      <g style="fill:#262626;" transform="translate(292.359716 303.028562)scale(0.1 -0.1)">
       <use xlink:href="#DejaVuSans-52"/>
       <use x="63.623047" xlink:href="#DejaVuSans-48"/>
      </g>
     </g>
    </g>
    <g id="xtick_6">
     <g id="line2d_6">
      <path clip-path="url(#p30deab00d9)" d="M 352.831307 288.430125 
L 352.831307 22.318125 
" style="fill:none;stroke:#cccccc;stroke-linecap:round;stroke-width:0.8;"/>
     </g>
     <g id="text_6">
      <!-- 50 -->
      <defs>
       <path d="M 10.796875 72.90625 
L 49.515625 72.90625 
L 49.515625 64.59375 
L 19.828125 64.59375 
L 19.828125 46.734375 
Q 21.96875 47.46875 24.109375 47.828125 
Q 26.265625 48.1875 28.421875 48.1875 
Q 40.625 48.1875 47.75 41.5 
Q 54.890625 34.8125 54.890625 23.390625 
Q 54.890625 11.625 47.5625 5.09375 
Q 40.234375 -1.421875 26.90625 -1.421875 
Q 22.3125 -1.421875 17.546875 -0.640625 
Q 12.796875 0.140625 7.71875 1.703125 
L 7.71875 11.625 
Q 12.109375 9.234375 16.796875 8.0625 
Q 21.484375 6.890625 26.703125 6.890625 
Q 35.15625 6.890625 40.078125 11.328125 
Q 45.015625 15.765625 45.015625 23.390625 
Q 45.015625 31 40.078125 35.4375 
Q 35.15625 39.890625 26.703125 39.890625 
Q 22.75 39.890625 18.8125 39.015625 
Q 14.890625 38.140625 10.796875 36.28125 
z
" id="DejaVuSans-53"/>
      </defs>
      <g style="fill:#262626;" transform="translate(346.468807 303.028562)scale(0.1 -0.1)">
       <use xlink:href="#DejaVuSans-53"/>
       <use x="63.623047" xlink:href="#DejaVuSans-48"/>
      </g>
     </g>
    </g>
    <g id="xtick_7">
     <g id="line2d_7">
      <path clip-path="url(#p30deab00d9)" d="M 406.940398 288.430125 
L 406.940398 22.318125 
" style="fill:none;stroke:#cccccc;stroke-linecap:round;stroke-width:0.8;"/>
     </g>
     <g id="text_7">
      <!-- 60 -->
      <defs>
       <path d="M 33.015625 40.375 
Q 26.375 40.375 22.484375 35.828125 
Q 18.609375 31.296875 18.609375 23.390625 
Q 18.609375 15.53125 22.484375 10.953125 
Q 26.375 6.390625 33.015625 6.390625 
Q 39.65625 6.390625 43.53125 10.953125 
Q 47.40625 15.53125 47.40625 23.390625 
Q 47.40625 31.296875 43.53125 35.828125 
Q 39.65625 40.375 33.015625 40.375 
z
M 52.59375 71.296875 
L 52.59375 62.3125 
Q 48.875 64.0625 45.09375 64.984375 
Q 41.3125 65.921875 37.59375 65.921875 
Q 27.828125 65.921875 22.671875 59.328125 
Q 17.53125 52.734375 16.796875 39.40625 
Q 19.671875 43.65625 24.015625 45.921875 
Q 28.375 48.1875 33.59375 48.1875 
Q 44.578125 48.1875 50.953125 41.515625 
Q 57.328125 34.859375 57.328125 23.390625 
Q 57.328125 12.15625 50.6875 5.359375 
Q 44.046875 -1.421875 33.015625 -1.421875 
Q 20.359375 -1.421875 13.671875 8.265625 
Q 6.984375 17.96875 6.984375 36.375 
Q 6.984375 53.65625 15.1875 63.9375 
Q 23.390625 74.21875 37.203125 74.21875 
Q 40.921875 74.21875 44.703125 73.484375 
Q 48.484375 72.75 52.59375 71.296875 
z
" id="DejaVuSans-54"/>
      </defs>
      <g style="fill:#262626;" transform="translate(400.577898 303.028562)scale(0.1 -0.1)">
       <use xlink:href="#DejaVuSans-54"/>
       <use x="63.623047" xlink:href="#DejaVuSans-48"/>
      </g>
     </g>
    </g>
    <g id="text_8">
     <!-- time (days) -->
     <defs>
      <path d="M 18.3125 70.21875 
L 18.3125 54.6875 
L 36.8125 54.6875 
L 36.8125 47.703125 
L 18.3125 47.703125 
L 18.3125 18.015625 
Q 18.3125 11.328125 20.140625 9.421875 
Q 21.96875 7.515625 27.59375 7.515625 
L 36.8125 7.515625 
L 36.8125 0 
L 27.59375 0 
Q 17.1875 0 13.234375 3.875 
Q 9.28125 7.765625 9.28125 18.015625 
L 9.28125 47.703125 
L 2.6875 47.703125 
L 2.6875 54.6875 
L 9.28125 54.6875 
L 9.28125 70.21875 
z
" id="DejaVuSans-116"/>
      <path d="M 9.421875 54.6875 
L 18.40625 54.6875 
L 18.40625 0 
L 9.421875 0 
z
M 9.421875 75.984375 
L 18.40625 75.984375 
L 18.40625 64.59375 
L 9.421875 64.59375 
z
" id="DejaVuSans-105"/>
      <path d="M 52 44.1875 
Q 55.375 50.25 60.0625 53.125 
Q 64.75 56 71.09375 56 
Q 79.640625 56 84.28125 50.015625 
Q 88.921875 44.046875 88.921875 33.015625 
L 88.921875 0 
L 79.890625 0 
L 79.890625 32.71875 
Q 79.890625 40.578125 77.09375 44.375 
Q 74.3125 48.1875 68.609375 48.1875 
Q 61.625 48.1875 57.5625 43.546875 
Q 53.515625 38.921875 53.515625 30.90625 
L 53.515625 0 
L 44.484375 0 
L 44.484375 32.71875 
Q 44.484375 40.625 41.703125 44.40625 
Q 38.921875 48.1875 33.109375 48.1875 
Q 26.21875 48.1875 22.15625 43.53125 
Q 18.109375 38.875 18.109375 30.90625 
L 18.109375 0 
L 9.078125 0 
L 9.078125 54.6875 
L 18.109375 54.6875 
L 18.109375 46.1875 
Q 21.1875 51.21875 25.484375 53.609375 
Q 29.78125 56 35.6875 56 
Q 41.65625 56 45.828125 52.96875 
Q 50 49.953125 52 44.1875 
z
" id="DejaVuSans-109"/>
      <path d="M 56.203125 29.59375 
L 56.203125 25.203125 
L 14.890625 25.203125 
Q 15.484375 15.921875 20.484375 11.0625 
Q 25.484375 6.203125 34.421875 6.203125 
Q 39.59375 6.203125 44.453125 7.46875 
Q 49.3125 8.734375 54.109375 11.28125 
L 54.109375 2.78125 
Q 49.265625 0.734375 44.1875 -0.34375 
Q 39.109375 -1.421875 33.890625 -1.421875 
Q 20.796875 -1.421875 13.15625 6.1875 
Q 5.515625 13.8125 5.515625 26.8125 
Q 5.515625 40.234375 12.765625 48.109375 
Q 20.015625 56 32.328125 56 
Q 43.359375 56 49.78125 48.890625 
Q 56.203125 41.796875 56.203125 29.59375 
z
M 47.21875 32.234375 
Q 47.125 39.59375 43.09375 43.984375 
Q 39.0625 48.390625 32.421875 48.390625 
Q 24.90625 48.390625 20.390625 44.140625 
Q 15.875 39.890625 15.1875 32.171875 
z
" id="DejaVuSans-101"/>
      <path id="DejaVuSans-32"/>
      <path d="M 31 75.875 
Q 24.46875 64.65625 21.28125 53.65625 
Q 18.109375 42.671875 18.109375 31.390625 
Q 18.109375 20.125 21.3125 9.0625 
Q 24.515625 -2 31 -13.1875 
L 23.1875 -13.1875 
Q 15.875 -1.703125 12.234375 9.375 
Q 8.59375 20.453125 8.59375 31.390625 
Q 8.59375 42.28125 12.203125 53.3125 
Q 15.828125 64.359375 23.1875 75.875 
z
" id="DejaVuSans-40"/>
      <path d="M 45.40625 46.390625 
L 45.40625 75.984375 
L 54.390625 75.984375 
L 54.390625 0 
L 45.40625 0 
L 45.40625 8.203125 
Q 42.578125 3.328125 38.25 0.953125 
Q 33.9375 -1.421875 27.875 -1.421875 
Q 17.96875 -1.421875 11.734375 6.484375 
Q 5.515625 14.40625 5.515625 27.296875 
Q 5.515625 40.1875 11.734375 48.09375 
Q 17.96875 56 27.875 56 
Q 33.9375 56 38.25 53.625 
Q 42.578125 51.265625 45.40625 46.390625 
z
M 14.796875 27.296875 
Q 14.796875 17.390625 18.875 11.75 
Q 22.953125 6.109375 30.078125 6.109375 
Q 37.203125 6.109375 41.296875 11.75 
Q 45.40625 17.390625 45.40625 27.296875 
Q 45.40625 37.203125 41.296875 42.84375 
Q 37.203125 48.484375 30.078125 48.484375 
Q 22.953125 48.484375 18.875 42.84375 
Q 14.796875 37.203125 14.796875 27.296875 
z
" id="DejaVuSans-100"/>
      <path d="M 34.28125 27.484375 
Q 23.390625 27.484375 19.1875 25 
Q 14.984375 22.515625 14.984375 16.5 
Q 14.984375 11.71875 18.140625 8.90625 
Q 21.296875 6.109375 26.703125 6.109375 
Q 34.1875 6.109375 38.703125 11.40625 
Q 43.21875 16.703125 43.21875 25.484375 
L 43.21875 27.484375 
z
M 52.203125 31.203125 
L 52.203125 0 
L 43.21875 0 
L 43.21875 8.296875 
Q 40.140625 3.328125 35.546875 0.953125 
Q 30.953125 -1.421875 24.3125 -1.421875 
Q 15.921875 -1.421875 10.953125 3.296875 
Q 6 8.015625 6 15.921875 
Q 6 25.140625 12.171875 29.828125 
Q 18.359375 34.515625 30.609375 34.515625 
L 43.21875 34.515625 
L 43.21875 35.40625 
Q 43.21875 41.609375 39.140625 45 
Q 35.0625 48.390625 27.6875 48.390625 
Q 23 48.390625 18.546875 47.265625 
Q 14.109375 46.140625 10.015625 43.890625 
L 10.015625 52.203125 
Q 14.9375 54.109375 19.578125 55.046875 
Q 24.21875 56 28.609375 56 
Q 40.484375 56 46.34375 49.84375 
Q 52.203125 43.703125 52.203125 31.203125 
z
" id="DejaVuSans-97"/>
      <path d="M 32.171875 -5.078125 
Q 28.375 -14.84375 24.75 -17.8125 
Q 21.140625 -20.796875 15.09375 -20.796875 
L 7.90625 -20.796875 
L 7.90625 -13.28125 
L 13.1875 -13.28125 
Q 16.890625 -13.28125 18.9375 -11.515625 
Q 21 -9.765625 23.484375 -3.21875 
L 25.09375 0.875 
L 2.984375 54.6875 
L 12.5 54.6875 
L 29.59375 11.921875 
L 46.6875 54.6875 
L 56.203125 54.6875 
z
" id="DejaVuSans-121"/>
      <path d="M 44.28125 53.078125 
L 44.28125 44.578125 
Q 40.484375 46.53125 36.375 47.5 
Q 32.28125 48.484375 27.875 48.484375 
Q 21.1875 48.484375 17.84375 46.4375 
Q 14.5 44.390625 14.5 40.28125 
Q 14.5 37.15625 16.890625 35.375 
Q 19.28125 33.59375 26.515625 31.984375 
L 29.59375 31.296875 
Q 39.15625 29.25 43.1875 25.515625 
Q 47.21875 21.78125 47.21875 15.09375 
Q 47.21875 7.46875 41.1875 3.015625 
Q 35.15625 -1.421875 24.609375 -1.421875 
Q 20.21875 -1.421875 15.453125 -0.5625 
Q 10.6875 0.296875 5.421875 2 
L 5.421875 11.28125 
Q 10.40625 8.6875 15.234375 7.390625 
Q 20.0625 6.109375 24.8125 6.109375 
Q 31.15625 6.109375 34.5625 8.28125 
Q 37.984375 10.453125 37.984375 14.40625 
Q 37.984375 18.0625 35.515625 20.015625 
Q 33.0625 21.96875 24.703125 23.78125 
L 21.578125 24.515625 
Q 13.234375 26.265625 9.515625 29.90625 
Q 5.8125 33.546875 5.8125 39.890625 
Q 5.8125 47.609375 11.28125 51.796875 
Q 16.75 56 26.8125 56 
Q 31.78125 56 36.171875 55.265625 
Q 40.578125 54.546875 44.28125 53.078125 
z
" id="DejaVuSans-115"/>
      <path d="M 8.015625 75.875 
L 15.828125 75.875 
Q 23.140625 64.359375 26.78125 53.3125 
Q 30.421875 42.28125 30.421875 31.390625 
Q 30.421875 20.453125 26.78125 9.375 
Q 23.140625 -1.703125 15.828125 -13.1875 
L 8.015625 -13.1875 
Q 14.5 -2 17.703125 9.0625 
Q 20.90625 20.125 20.90625 31.390625 
Q 20.90625 42.671875 17.703125 53.65625 
Q 14.5 64.65625 8.015625 75.875 
z
" id="DejaVuSans-41"/>
     </defs>
     <g style="fill:#262626;" transform="translate(216.024063 316.706687)scale(0.1 -0.1)">
      <use xlink:href="#DejaVuSans-116"/>
      <use x="39.208984" xlink:href="#DejaVuSans-105"/>
      <use x="66.992188" xlink:href="#DejaVuSans-109"/>
      <use x="164.404297" xlink:href="#DejaVuSans-101"/>
      <use x="225.927734" xlink:href="#DejaVuSans-32"/>
      <use x="257.714844" xlink:href="#DejaVuSans-40"/>
      <use x="296.728516" xlink:href="#DejaVuSans-100"/>
      <use x="360.205078" xlink:href="#DejaVuSans-97"/>
      <use x="421.484375" xlink:href="#DejaVuSans-121"/>
      <use x="480.664062" xlink:href="#DejaVuSans-115"/>
      <use x="532.763672" xlink:href="#DejaVuSans-41"/>
     </g>
    </g>
   </g>
   <g id="matplotlib.axis_2">
    <g id="ytick_1">
     <g id="line2d_8">
      <path clip-path="url(#p30deab00d9)" d="M 66.053125 276.334125 
L 423.173125 276.334125 
" style="fill:none;stroke:#cccccc;stroke-linecap:round;stroke-width:0.8;"/>
     </g>
     <g id="text_9">
      <!-- 0 -->
      <g style="fill:#262626;" transform="translate(52.690625 280.133344)scale(0.1 -0.1)">
       <use xlink:href="#DejaVuSans-48"/>
      </g>
     </g>
    </g>
    <g id="ytick_2">
     <g id="line2d_9">
      <path clip-path="url(#p30deab00d9)" d="M 66.053125 220.956609 
L 423.173125 220.956609 
" style="fill:none;stroke:#cccccc;stroke-linecap:round;stroke-width:0.8;"/>
     </g>
     <g id="text_10">
      <!-- 50000 -->
      <g style="fill:#262626;" transform="translate(27.240625 224.755828)scale(0.1 -0.1)">
       <use xlink:href="#DejaVuSans-53"/>
       <use x="63.623047" xlink:href="#DejaVuSans-48"/>
       <use x="127.246094" xlink:href="#DejaVuSans-48"/>
       <use x="190.869141" xlink:href="#DejaVuSans-48"/>
       <use x="254.492188" xlink:href="#DejaVuSans-48"/>
      </g>
     </g>
    </g>
    <g id="ytick_3">
     <g id="line2d_10">
      <path clip-path="url(#p30deab00d9)" d="M 66.053125 165.579094 
L 423.173125 165.579094 
" style="fill:none;stroke:#cccccc;stroke-linecap:round;stroke-width:0.8;"/>
     </g>
     <g id="text_11">
      <!-- 100000 -->
      <g style="fill:#262626;" transform="translate(20.878125 169.378312)scale(0.1 -0.1)">
       <use xlink:href="#DejaVuSans-49"/>
       <use x="63.623047" xlink:href="#DejaVuSans-48"/>
       <use x="127.246094" xlink:href="#DejaVuSans-48"/>
       <use x="190.869141" xlink:href="#DejaVuSans-48"/>
       <use x="254.492188" xlink:href="#DejaVuSans-48"/>
       <use x="318.115234" xlink:href="#DejaVuSans-48"/>
      </g>
     </g>
    </g>
    <g id="ytick_4">
     <g id="line2d_11">
      <path clip-path="url(#p30deab00d9)" d="M 66.053125 110.201578 
L 423.173125 110.201578 
" style="fill:none;stroke:#cccccc;stroke-linecap:round;stroke-width:0.8;"/>
     </g>
     <g id="text_12">
      <!-- 150000 -->
      <g style="fill:#262626;" transform="translate(20.878125 114.000797)scale(0.1 -0.1)">
       <use xlink:href="#DejaVuSans-49"/>
       <use x="63.623047" xlink:href="#DejaVuSans-53"/>
       <use x="127.246094" xlink:href="#DejaVuSans-48"/>
       <use x="190.869141" xlink:href="#DejaVuSans-48"/>
       <use x="254.492188" xlink:href="#DejaVuSans-48"/>
       <use x="318.115234" xlink:href="#DejaVuSans-48"/>
      </g>
     </g>
    </g>
    <g id="ytick_5">
     <g id="line2d_12">
      <path clip-path="url(#p30deab00d9)" d="M 66.053125 54.824062 
L 423.173125 54.824062 
" style="fill:none;stroke:#cccccc;stroke-linecap:round;stroke-width:0.8;"/>
     </g>
     <g id="text_13">
      <!-- 200000 -->
      <g style="fill:#262626;" transform="translate(20.878125 58.623281)scale(0.1 -0.1)">
       <use xlink:href="#DejaVuSans-50"/>
       <use x="63.623047" xlink:href="#DejaVuSans-48"/>
       <use x="127.246094" xlink:href="#DejaVuSans-48"/>
       <use x="190.869141" xlink:href="#DejaVuSans-48"/>
       <use x="254.492188" xlink:href="#DejaVuSans-48"/>
       <use x="318.115234" xlink:href="#DejaVuSans-48"/>
      </g>
     </g>
    </g>
    <g id="text_14">
     <!-- cells number -->
     <defs>
      <path d="M 48.78125 52.59375 
L 48.78125 44.1875 
Q 44.96875 46.296875 41.140625 47.34375 
Q 37.3125 48.390625 33.40625 48.390625 
Q 24.65625 48.390625 19.8125 42.84375 
Q 14.984375 37.3125 14.984375 27.296875 
Q 14.984375 17.28125 19.8125 11.734375 
Q 24.65625 6.203125 33.40625 6.203125 
Q 37.3125 6.203125 41.140625 7.25 
Q 44.96875 8.296875 48.78125 10.40625 
L 48.78125 2.09375 
Q 45.015625 0.34375 40.984375 -0.53125 
Q 36.96875 -1.421875 32.421875 -1.421875 
Q 20.0625 -1.421875 12.78125 6.34375 
Q 5.515625 14.109375 5.515625 27.296875 
Q 5.515625 40.671875 12.859375 48.328125 
Q 20.21875 56 33.015625 56 
Q 37.15625 56 41.109375 55.140625 
Q 45.0625 54.296875 48.78125 52.59375 
z
" id="DejaVuSans-99"/>
      <path d="M 9.421875 75.984375 
L 18.40625 75.984375 
L 18.40625 0 
L 9.421875 0 
z
" id="DejaVuSans-108"/>
      <path d="M 54.890625 33.015625 
L 54.890625 0 
L 45.90625 0 
L 45.90625 32.71875 
Q 45.90625 40.484375 42.875 44.328125 
Q 39.84375 48.1875 33.796875 48.1875 
Q 26.515625 48.1875 22.3125 43.546875 
Q 18.109375 38.921875 18.109375 30.90625 
L 18.109375 0 
L 9.078125 0 
L 9.078125 54.6875 
L 18.109375 54.6875 
L 18.109375 46.1875 
Q 21.34375 51.125 25.703125 53.5625 
Q 30.078125 56 35.796875 56 
Q 45.21875 56 50.046875 50.171875 
Q 54.890625 44.34375 54.890625 33.015625 
z
" id="DejaVuSans-110"/>
      <path d="M 8.5 21.578125 
L 8.5 54.6875 
L 17.484375 54.6875 
L 17.484375 21.921875 
Q 17.484375 14.15625 20.5 10.265625 
Q 23.53125 6.390625 29.59375 6.390625 
Q 36.859375 6.390625 41.078125 11.03125 
Q 45.3125 15.671875 45.3125 23.6875 
L 45.3125 54.6875 
L 54.296875 54.6875 
L 54.296875 0 
L 45.3125 0 
L 45.3125 8.40625 
Q 42.046875 3.421875 37.71875 1 
Q 33.40625 -1.421875 27.6875 -1.421875 
Q 18.265625 -1.421875 13.375 4.4375 
Q 8.5 10.296875 8.5 21.578125 
z
M 31.109375 56 
z
" id="DejaVuSans-117"/>
      <path d="M 48.6875 27.296875 
Q 48.6875 37.203125 44.609375 42.84375 
Q 40.53125 48.484375 33.40625 48.484375 
Q 26.265625 48.484375 22.1875 42.84375 
Q 18.109375 37.203125 18.109375 27.296875 
Q 18.109375 17.390625 22.1875 11.75 
Q 26.265625 6.109375 33.40625 6.109375 
Q 40.53125 6.109375 44.609375 11.75 
Q 48.6875 17.390625 48.6875 27.296875 
z
M 18.109375 46.390625 
Q 20.953125 51.265625 25.265625 53.625 
Q 29.59375 56 35.59375 56 
Q 45.5625 56 51.78125 48.09375 
Q 58.015625 40.1875 58.015625 27.296875 
Q 58.015625 14.40625 51.78125 6.484375 
Q 45.5625 -1.421875 35.59375 -1.421875 
Q 29.59375 -1.421875 25.265625 0.953125 
Q 20.953125 3.328125 18.109375 8.203125 
L 18.109375 0 
L 9.078125 0 
L 9.078125 75.984375 
L 18.109375 75.984375 
z
" id="DejaVuSans-98"/>
      <path d="M 41.109375 46.296875 
Q 39.59375 47.171875 37.8125 47.578125 
Q 36.03125 48 33.890625 48 
Q 26.265625 48 22.1875 43.046875 
Q 18.109375 38.09375 18.109375 28.8125 
L 18.109375 0 
L 9.078125 0 
L 9.078125 54.6875 
L 18.109375 54.6875 
L 18.109375 46.1875 
Q 20.953125 51.171875 25.484375 53.578125 
Q 30.03125 56 36.53125 56 
Q 37.453125 56 38.578125 55.875 
Q 39.703125 55.765625 41.0625 55.515625 
z
" id="DejaVuSans-114"/>
     </defs>
     <g style="fill:#262626;" transform="translate(14.798438 187.685844)rotate(-90)scale(0.1 -0.1)">
      <use xlink:href="#DejaVuSans-99"/>
      <use x="54.980469" xlink:href="#DejaVuSans-101"/>
      <use x="116.503906" xlink:href="#DejaVuSans-108"/>
      <use x="144.287109" xlink:href="#DejaVuSans-108"/>
      <use x="172.070312" xlink:href="#DejaVuSans-115"/>
      <use x="224.169922" xlink:href="#DejaVuSans-32"/>
      <use x="255.957031" xlink:href="#DejaVuSans-110"/>
      <use x="319.335938" xlink:href="#DejaVuSans-117"/>
      <use x="382.714844" xlink:href="#DejaVuSans-109"/>
      <use x="480.126953" xlink:href="#DejaVuSans-98"/>
      <use x="543.603516" xlink:href="#DejaVuSans-101"/>
      <use x="605.126953" xlink:href="#DejaVuSans-114"/>
     </g>
    </g>
   </g>
   <g id="line2d_13">
    <path clip-path="url(#p30deab00d9)" d="M 82.285852 276.334125 
L 83.368034 195.604783 
L 84.450216 136.317614 
L 85.532398 93.671389 
L 86.61458 65.07001 
L 87.15567 55.428785 
L 87.696761 47.862001 
L 88.778943 39.102385 
L 89.320034 37.041234 
L 89.861125 35.918178 
L 90.402216 36.417684 
L 90.943307 37.453243 
L 91.484398 39.632902 
L 92.56658 46.313646 
L 93.648761 54.981334 
L 95.272034 70.50919 
L 97.977489 99.406285 
L 102.847307 157.52388 
L 105.01167 183.279963 
L 107.176034 206.218437 
L 108.799307 219.363952 
L 110.96367 234.048962 
L 112.045852 239.263308 
L 113.128034 243.69794 
L 114.210216 247.522311 
L 115.292398 250.605731 
L 115.833489 251.816284 
L 116.91567 254.733571 
L 118.538943 258.45051 
L 121.244398 262.696858 
L 121.785489 263.118835 
L 122.86767 263.255063 
L 123.949852 263.201901 
L 125.032034 263.403475 
L 126.655307 262.705718 
L 127.737489 261.610351 
L 128.27858 261.344539 
L 129.360761 261.142965 
L 129.901852 261.320173 
L 130.442943 261.378873 
L 130.984034 261.085372 
L 131.525125 261.080942 
L 132.066216 261.19059 
L 134.23058 260.804054 
L 135.312761 260.859432 
L 136.394943 261.597061 
L 137.477125 261.830754 
L 138.018216 261.926003 
L 138.559307 262.300355 
L 139.641489 263.444454 
L 141.264761 265.483455 
L 145.052398 269.468421 
L 146.13458 270.100832 
L 153.168761 274.045926 
L 155.333125 274.811243 
L 158.03858 275.453623 
L 160.744034 275.811361 
L 164.53167 276.089356 
L 178.058943 276.315297 
L 209.442216 276.334125 
L 406.940398 276.334125 
L 406.940398 276.334125 
" style="fill:none;stroke:#000080;stroke-linecap:round;stroke-width:1.5;"/>
   </g>
   <g id="line2d_14">
    <path clip-path="url(#p30deab00d9)" d="M 82.285852 276.334125 
L 83.368034 195.118568 
L 84.450216 135.730613 
L 85.532398 93.710154 
L 86.073489 77.467928 
L 87.15567 55.026744 
L 87.696761 47.228482 
L 88.237852 41.468113 
L 88.778943 37.705765 
L 89.320034 35.177227 
L 89.861125 34.591333 
L 90.402216 34.866006 
L 90.943307 36.439835 
L 91.484398 38.697022 
L 92.025489 41.440424 
L 92.56658 44.76972 
L 94.189852 58.791307 
L 95.813125 74.665826 
L 101.224034 136.621083 
L 103.388398 162.535545 
L 106.093852 190.780293 
L 109.881489 223.527234 
L 111.504761 235.711395 
L 113.128034 245.353728 
L 114.210216 250.25796 
L 114.751307 252.319112 
L 116.37458 256.640773 
L 117.997852 260.31784 
L 120.162216 263.862001 
L 123.949852 269.064165 
L 125.573125 270.477399 
L 126.114216 270.898268 
L 129.901852 272.623831 
L 131.525125 272.576207 
L 132.066216 272.737909 
L 134.77167 274.207628 
L 136.394943 274.814566 
L 138.018216 275.271984 
L 141.805852 275.876707 
L 145.593489 276.118153 
L 152.62767 276.276532 
L 193.75058 276.334125 
L 406.940398 276.334125 
L 406.940398 276.334125 
" style="fill:none;stroke:#0000f1;stroke-linecap:round;stroke-width:1.5;"/>
   </g>
   <g id="line2d_15">
    <path clip-path="url(#p30deab00d9)" d="M 82.285852 276.334125 
L 83.368034 195.386595 
L 84.450216 136.518081 
L 85.532398 94.469933 
L 86.61458 66.147657 
L 87.15567 55.890633 
L 87.696761 47.984939 
L 88.237852 42.323142 
L 88.778943 37.932812 
L 89.320034 35.559332 
L 89.861125 34.660001 
L 90.402216 34.857145 
L 90.943307 36.223862 
L 92.025489 41.241065 
L 93.10767 48.933002 
L 94.189852 58.539893 
L 95.813125 74.909487 
L 98.51858 105.863303 
L 102.306216 150.026872 
L 106.093852 194.417489 
L 108.258216 214.79863 
L 109.340398 223.404295 
L 110.42258 231.026457 
L 111.504761 237.152318 
L 112.586943 242.65795 
L 113.669125 246.659529 
L 114.751307 249.483783 
L 115.833489 250.90477 
L 116.91567 252.394425 
L 118.538943 254.838789 
L 119.621125 256.771464 
L 120.703307 258.551297 
L 127.737489 269.919194 
L 128.81967 271.167403 
L 130.442943 272.546303 
L 132.066216 273.612874 
L 133.689489 274.373761 
L 135.312761 274.913138 
L 138.559307 275.580991 
L 142.346943 275.984139 
L 148.298943 276.255489 
L 160.744034 276.326372 
L 218.640761 276.334125 
L 406.940398 276.334125 
L 406.940398 276.334125 
" style="fill:none;stroke:#004cff;stroke-linecap:round;stroke-width:1.5;"/>
   </g>
   <g id="line2d_16">
    <path clip-path="url(#p30deab00d9)" d="M 82.285852 276.334125 
L 83.368034 195.533899 
L 84.450216 136.004178 
L 85.532398 94.250638 
L 86.61458 65.338037 
L 87.15567 55.126423 
L 87.696761 47.50537 
L 88.237852 41.800378 
L 88.778943 37.93392 
L 89.320034 35.602526 
L 89.861125 34.947964 
L 90.402216 35.51503 
L 90.943307 36.4055 
L 91.484398 38.793379 
L 92.56658 45.526177 
L 93.648761 54.71663 
L 95.272034 70.411725 
L 97.977489 99.996609 
L 101.224034 139.280311 
L 105.552761 189.955168 
L 107.176034 205.000132 
L 109.340398 222.141688 
L 112.586943 243.402224 
L 113.669125 249.564634 
L 114.751307 254.76126 
L 115.833489 258.937832 
L 117.456761 263.699191 
L 118.538943 266.155738 
L 119.621125 268.093951 
L 121.244398 270.353353 
L 122.32658 271.48527 
L 123.949852 272.838696 
L 125.573125 273.807803 
L 127.196398 274.560937 
L 129.901852 275.306318 
L 133.689489 275.842373 
L 136.936034 276.066098 
L 142.346943 276.251059 
L 165.613852 276.333017 
L 220.264034 276.334125 
L 406.940398 276.334125 
L 406.940398 276.334125 
" style="fill:none;stroke:#00b0ff;stroke-linecap:round;stroke-width:1.5;"/>
   </g>
   <g id="line2d_17">
    <path clip-path="url(#p30deab00d9)" d="M 82.285852 276.334125 
L 83.368034 195.068728 
L 84.450216 135.881239 
L 85.532398 93.597184 
L 86.073489 77.572038 
L 87.15567 54.969151 
L 87.696761 47.333699 
L 88.237852 41.754968 
L 88.778943 37.874112 
L 89.320034 35.544934 
L 89.861125 35.142893 
L 90.402216 35.774197 
L 90.943307 37.207367 
L 91.484398 39.402532 
L 92.56658 45.795312 
L 93.648761 54.626918 
L 95.272034 69.97092 
L 97.436398 93.334694 
L 100.141852 124.794661 
L 101.224034 138.300129 
L 105.552761 194.609095 
L 107.717125 218.801316 
L 109.340398 233.580468 
L 110.42258 241.511636 
L 111.504761 248.154722 
L 112.586943 253.535202 
L 113.669125 258.019673 
L 114.751307 261.567157 
L 115.833489 264.44125 
L 116.91567 266.812515 
L 117.997852 268.68649 
L 119.621125 270.758717 
L 121.244398 272.332546 
L 122.86767 273.495474 
L 125.032034 274.508882 
L 126.655307 275.01171 
L 128.81967 275.464698 
L 131.525125 275.808039 
L 136.936034 276.154702 
L 142.346943 276.274317 
L 153.168761 276.325265 
L 406.940398 276.334125 
L 406.940398 276.334125 
" style="fill:none;stroke:#29ffce;stroke-linecap:round;stroke-width:1.5;"/>
   </g>
   <g id="line2d_18">
    <path clip-path="url(#p30deab00d9)" d="M 82.285852 276.334125 
L 83.368034 195.259227 
L 84.450216 136.395143 
L 85.532398 93.846382 
L 86.61458 65.283767 
L 87.696761 47.226267 
L 88.237852 41.575545 
L 88.778943 37.567321 
L 89.320034 35.241465 
L 89.861125 34.414125 
L 90.402216 34.921383 
L 91.484398 38.86094 
L 92.025489 41.874584 
L 93.648761 54.39544 
L 94.730943 64.508482 
L 97.436398 93.270456 
L 103.929489 169.997112 
L 106.093852 195.570449 
L 108.258216 218.349436 
L 109.881489 231.984488 
L 110.96367 238.950979 
L 113.128034 250.748605 
L 114.751307 257.630923 
L 115.833489 261.290269 
L 116.91567 264.182083 
L 117.997852 266.541165 
L 119.621125 269.23805 
L 121.244398 271.233856 
L 122.32658 272.214038 
L 123.949852 273.400224 
L 126.655307 274.62296 
L 129.901852 275.44587 
L 132.607307 275.832405 
L 138.559307 276.180176 
L 146.67567 276.297576 
L 406.940398 276.334125 
L 406.940398 276.334125 
" style="fill:none;stroke:#7dff7a;stroke-linecap:round;stroke-width:1.5;"/>
   </g>
   <g id="line2d_19">
    <path clip-path="url(#p30deab00d9)" d="M 82.285852 276.334125 
L 83.368034 195.168408 
L 84.450216 136.182493 
L 85.532398 93.740058 
L 86.61458 64.980299 
L 87.15567 54.981334 
L 87.696761 47.433379 
L 88.237852 41.705129 
L 88.778943 38.166505 
L 89.320034 35.917071 
L 89.861125 34.699873 
L 90.402216 35.275799 
L 90.943307 36.489674 
L 91.484398 38.577407 
L 92.56658 45.299129 
L 94.189852 58.84447 
L 96.354216 81.256858 
L 98.51858 105.491166 
L 107.176034 206.839773 
L 108.799307 219.503503 
L 109.881489 226.208613 
L 112.045852 237.257535 
L 113.128034 243.10097 
L 114.210216 248.759445 
L 115.292398 253.043449 
L 116.91567 258.334217 
L 119.621125 265.144544 
L 120.703307 267.279901 
L 122.32658 269.741986 
L 123.949852 271.587164 
L 125.032034 272.495356 
L 126.114216 273.256243 
L 127.196398 273.847675 
L 129.901852 274.927536 
L 131.525125 275.312964 
L 134.77167 275.799178 
L 138.559307 276.058345 
L 142.346943 276.207864 
L 156.415307 276.328587 
L 213.229852 276.334125 
L 406.940398 276.334125 
L 406.940398 276.334125 
" style="fill:none;stroke:#ceff29;stroke-linecap:round;stroke-width:1.5;"/>
   </g>
   <g id="line2d_20">
    <path clip-path="url(#p30deab00d9)" d="M 82.285852 276.334125 
L 83.368034 195.223785 
L 84.450216 135.84026 
L 85.532398 93.915051 
L 86.073489 77.928669 
L 87.15567 55.240501 
L 87.696761 47.94396 
L 88.237852 42.202419 
L 88.778943 38.363649 
L 89.320034 36.180668 
L 89.861125 35.18498 
L 90.402216 35.269154 
L 90.943307 36.566095 
L 91.484398 38.473297 
L 92.56658 45.105308 
L 94.189852 58.328351 
L 95.813125 74.509661 
L 97.977489 98.726249 
L 101.765125 142.925259 
L 106.634943 195.015566 
L 110.42258 230.409551 
L 112.045852 241.077476 
L 113.128034 247.277543 
L 114.210216 252.152979 
L 115.292398 255.753625 
L 116.37458 258.684203 
L 116.91567 259.692074 
L 118.538943 261.664621 
L 120.162216 263.523091 
L 121.244398 264.715922 
L 122.32658 265.752589 
L 123.408761 266.947636 
L 123.949852 267.442711 
L 124.490943 267.762793 
L 125.573125 268.047434 
L 126.655307 268.719717 
L 128.27858 269.049767 
L 128.81967 268.951195 
L 129.360761 269.147231 
L 129.901852 269.189318 
L 130.984034 269.521583 
L 131.525125 269.420796 
L 132.607307 268.829364 
L 133.148398 268.375268 
L 133.689489 267.656468 
L 134.23058 267.209018 
L 134.77167 267.075004 
L 136.936034 266.109221 
L 138.018216 265.857807 
L 139.641489 266.138017 
L 140.18258 266.099253 
L 140.72367 266.216653 
L 141.264761 266.187857 
L 142.346943 266.835774 
L 142.888034 267.065036 
L 143.429125 267.460432 
L 145.052398 269.107359 
L 147.216761 270.620273 
L 148.298943 271.185124 
L 149.922216 271.437645 
L 151.004398 270.700017 
L 152.08658 269.827267 
L 152.62767 269.579176 
L 155.333125 269.154984 
L 155.874216 269.207039 
L 156.415307 269.087423 
L 159.661852 267.686372 
L 161.826216 267.678619 
L 162.908398 267.940001 
L 163.449489 268.157081 
L 164.53167 268.8493 
L 165.613852 269.095176 
L 166.696034 269.161629 
L 167.237125 269.07524 
L 167.778216 269.225867 
L 168.860398 270.244813 
L 169.94258 271.405526 
L 172.106943 273.121122 
L 174.271307 274.227564 
L 175.89458 274.850008 
L 178.600034 275.482419 
L 180.764398 275.782565 
L 185.634216 276.11483 
L 189.962943 276.253274 
L 198.620398 276.324157 
L 227.839307 276.334125 
L 406.940398 276.334125 
L 406.940398 276.334125 
" style="fill:none;stroke:#ffc400;stroke-linecap:round;stroke-width:1.5;"/>
   </g>
   <g id="line2d_21">
    <path clip-path="url(#p30deab00d9)" d="M 82.285852 276.334125 
L 83.368034 194.845003 
L 84.450216 135.756086 
L 85.532398 93.78436 
L 86.073489 78.103662 
L 86.61458 65.672518 
L 87.15567 55.797599 
L 87.696761 48.211987 
L 88.237852 42.519178 
L 88.778943 38.64386 
L 89.320034 36.265949 
L 89.861125 35.173905 
L 90.402216 35.438609 
L 90.943307 36.779852 
L 91.484398 39.096848 
L 92.56658 45.907175 
L 94.189852 59.485741 
L 95.813125 75.905175 
L 101.224034 135.877917 
L 102.847307 154.470364 
L 107.717125 205.136361 
L 108.799307 214.448644 
L 110.42258 226.620622 
L 111.504761 233.467498 
L 113.128034 242.446408 
L 114.751307 249.716368 
L 115.833489 253.251669 
L 119.621125 263.741278 
L 121.244398 267.217878 
L 122.32658 268.992174 
L 123.408761 270.447495 
L 125.032034 272.102175 
L 126.114216 272.911795 
L 127.737489 273.855427 
L 129.360761 274.534356 
L 132.066216 275.280845 
L 134.77167 275.710574 
L 139.641489 276.068313 
L 145.593489 276.251059 
L 160.744034 276.329695 
L 217.017489 276.334125 
L 406.940398 276.334125 
L 406.940398 276.334125 
" style="fill:none;stroke:#ff6800;stroke-linecap:round;stroke-width:1.5;"/>
   </g>
   <g id="line2d_22">
    <path clip-path="url(#p30deab00d9)" d="M 82.285852 276.334125 
L 83.368034 194.845003 
L 84.450216 135.554512 
L 85.532398 93.741165 
L 86.61458 65.652582 
L 87.15567 55.922752 
L 87.696761 48.477799 
L 88.237852 42.793851 
L 88.778943 38.885306 
L 89.320034 36.737766 
L 89.861125 35.801886 
L 90.402216 35.909318 
L 90.943307 37.303724 
L 91.484398 39.443511 
L 92.56658 45.819678 
L 93.10767 49.718255 
L 95.272034 69.462555 
L 96.895307 86.863278 
L 107.717125 212.873707 
L 109.340398 227.305088 
L 110.96367 239.29875 
L 112.586943 249.407362 
L 113.669125 254.630569 
L 114.751307 258.856981 
L 115.833489 262.229472 
L 116.91567 265.033789 
L 117.997852 267.202373 
L 119.080034 268.925721 
L 120.703307 270.976904 
L 121.785489 272.068949 
L 123.408761 273.238522 
L 125.032034 274.082475 
L 128.27858 275.154584 
L 130.442943 275.576561 
L 134.77167 276.022903 
L 138.559307 276.194574 
L 155.333125 276.328587 
L 406.940398 276.334125 
L 406.940398 276.334125 
" style="fill:none;stroke:#f10800;stroke-linecap:round;stroke-width:1.5;"/>
   </g>
   <g id="patch_3">
    <path d="M 66.053125 288.430125 
L 66.053125 22.318125 
" style="fill:none;stroke:#cccccc;stroke-linecap:square;stroke-linejoin:miter;stroke-width:0.8;"/>
   </g>
   <g id="patch_4">
    <path d="M 423.173125 288.430125 
L 423.173125 22.318125 
" style="fill:none;stroke:#cccccc;stroke-linecap:square;stroke-linejoin:miter;stroke-width:0.8;"/>
   </g>
   <g id="patch_5">
    <path d="M 66.053125 288.430125 
L 423.173125 288.430125 
" style="fill:none;stroke:#cccccc;stroke-linecap:square;stroke-linejoin:miter;stroke-width:0.8;"/>
   </g>
   <g id="patch_6">
    <path d="M 66.053125 22.318125 
L 423.173125 22.318125 
" style="fill:none;stroke:#cccccc;stroke-linecap:square;stroke-linejoin:miter;stroke-width:0.8;"/>
   </g>
   <g id="text_15">
    <!-- Mature APC -->
    <defs>
     <path d="M 9.8125 72.90625 
L 24.515625 72.90625 
L 43.109375 23.296875 
L 61.8125 72.90625 
L 76.515625 72.90625 
L 76.515625 0 
L 66.890625 0 
L 66.890625 64.015625 
L 48.09375 14.015625 
L 38.1875 14.015625 
L 19.390625 64.015625 
L 19.390625 0 
L 9.8125 0 
z
" id="DejaVuSans-77"/>
     <path d="M 34.1875 63.1875 
L 20.796875 26.90625 
L 47.609375 26.90625 
z
M 28.609375 72.90625 
L 39.796875 72.90625 
L 67.578125 0 
L 57.328125 0 
L 50.6875 18.703125 
L 17.828125 18.703125 
L 11.1875 0 
L 0.78125 0 
z
" id="DejaVuSans-65"/>
     <path d="M 19.671875 64.796875 
L 19.671875 37.40625 
L 32.078125 37.40625 
Q 38.96875 37.40625 42.71875 40.96875 
Q 46.484375 44.53125 46.484375 51.125 
Q 46.484375 57.671875 42.71875 61.234375 
Q 38.96875 64.796875 32.078125 64.796875 
z
M 9.8125 72.90625 
L 32.078125 72.90625 
Q 44.34375 72.90625 50.609375 67.359375 
Q 56.890625 61.8125 56.890625 51.125 
Q 56.890625 40.328125 50.609375 34.8125 
Q 44.34375 29.296875 32.078125 29.296875 
L 19.671875 29.296875 
L 19.671875 0 
L 9.8125 0 
z
" id="DejaVuSans-80"/>
     <path d="M 64.40625 67.28125 
L 64.40625 56.890625 
Q 59.421875 61.53125 53.78125 63.8125 
Q 48.140625 66.109375 41.796875 66.109375 
Q 29.296875 66.109375 22.65625 58.46875 
Q 16.015625 50.828125 16.015625 36.375 
Q 16.015625 21.96875 22.65625 14.328125 
Q 29.296875 6.6875 41.796875 6.6875 
Q 48.140625 6.6875 53.78125 8.984375 
Q 59.421875 11.28125 64.40625 15.921875 
L 64.40625 5.609375 
Q 59.234375 2.09375 53.4375 0.328125 
Q 47.65625 -1.421875 41.21875 -1.421875 
Q 24.65625 -1.421875 15.125 8.703125 
Q 5.609375 18.84375 5.609375 36.375 
Q 5.609375 53.953125 15.125 64.078125 
Q 24.65625 74.21875 41.21875 74.21875 
Q 47.75 74.21875 53.53125 72.484375 
Q 59.328125 70.75 64.40625 67.28125 
z
" id="DejaVuSans-67"/>
    </defs>
    <g style="fill:#262626;" transform="translate(209.629375 16.318125)scale(0.12 -0.12)">
     <use xlink:href="#DejaVuSans-77"/>
     <use x="86.279297" xlink:href="#DejaVuSans-97"/>
     <use x="147.558594" xlink:href="#DejaVuSans-116"/>
     <use x="186.767578" xlink:href="#DejaVuSans-117"/>
     <use x="250.146484" xlink:href="#DejaVuSans-114"/>
     <use x="291.228516" xlink:href="#DejaVuSans-101"/>
     <use x="352.751953" xlink:href="#DejaVuSans-32"/>
     <use x="384.539062" xlink:href="#DejaVuSans-65"/>
     <use x="452.947266" xlink:href="#DejaVuSans-80"/>
     <use x="513.25" xlink:href="#DejaVuSans-67"/>
    </g>
   </g>
  </g>
 </g>
 <defs>
  <clipPath id="p30deab00d9">
   <rect height="266.112" width="357.12" x="66.053125" y="22.318125"/>
  </clipPath>
 </defs>
</svg>
