<?xml version="1.0" encoding="utf-8" standalone="no"?>
<!DOCTYPE svg PUBLIC "-//W3C//DTD SVG 1.1//EN"
  "http://www.w3.org/Graphics/SVG/1.1/DTD/svg11.dtd">
<!-- Created with matplotlib (https://matplotlib.org/) -->
<svg height="325.986375pt" version="1.1" viewBox="0 0 417.648125 325.986375" width="417.648125pt" xmlns="http://www.w3.org/2000/svg" xmlns:xlink="http://www.w3.org/1999/xlink">
 <defs>
  <style type="text/css">
*{stroke-linecap:butt;stroke-linejoin:round;white-space:pre;}
  </style>
 </defs>
 <g id="figure_1">
  <g id="patch_1">
   <path d="M 0 325.986375 
L 417.648125 325.986375 
L 417.648125 0 
L 0 0 
z
" style="fill:#ffffff;"/>
  </g>
  <g id="axes_1">
   <g id="patch_2">
    <path d="M 53.328125 288.430125 
L 410.448125 288.430125 
L 410.448125 22.318125 
L 53.328125 22.318125 
z
" style="fill:#ffffff;"/>
   </g>
   <g id="matplotlib.axis_1">
    <g id="xtick_1">
     <g id="line2d_1">
      <path clip-path="url(#p1877422036)" d="M 69.560852 288.430125 
L 69.560852 22.318125 
" style="fill:none;stroke:#cccccc;stroke-linecap:round;stroke-width:0.8;"/>
     </g>
     <g id="text_1">
      <!-- 0 -->
      <defs>
       <path d="M 31.78125 66.40625 
Q 24.171875 66.40625 20.328125 58.90625 
Q 16.5 51.421875 16.5 36.375 
Q 16.5 21.390625 20.328125 13.890625 
Q 24.171875 6.390625 31.78125 6.390625 
Q 39.453125 6.390625 43.28125 13.890625 
Q 47.125 21.390625 47.125 36.375 
Q 47.125 51.421875 43.28125 58.90625 
Q 39.453125 66.40625 31.78125 66.40625 
z
M 31.78125 74.21875 
Q 44.046875 74.21875 50.515625 64.515625 
Q 56.984375 54.828125 56.984375 36.375 
Q 56.984375 17.96875 50.515625 8.265625 
Q 44.046875 -1.421875 31.78125 -1.421875 
Q 19.53125 -1.421875 13.0625 8.265625 
Q 6.59375 17.96875 6.59375 36.375 
Q 6.59375 54.828125 13.0625 64.515625 
Q 19.53125 74.21875 31.78125 74.21875 
z
" id="DejaVuSans-48"/>
      </defs>
      <g style="fill:#262626;" transform="translate(66.379602 303.028562)scale(0.1 -0.1)">
       <use xlink:href="#DejaVuSans-48"/>
      </g>
     </g>
    </g>
    <g id="xtick_2">
     <g id="line2d_2">
      <path clip-path="url(#p1877422036)" d="M 123.669943 288.430125 
L 123.669943 22.318125 
" style="fill:none;stroke:#cccccc;stroke-linecap:round;stroke-width:0.8;"/>
     </g>
     <g id="text_2">
      <!-- 10 -->
      <defs>
       <path d="M 12.40625 8.296875 
L 28.515625 8.296875 
L 28.515625 63.921875 
L 10.984375 60.40625 
L 10.984375 69.390625 
L 28.421875 72.90625 
L 38.28125 72.90625 
L 38.28125 8.296875 
L 54.390625 8.296875 
L 54.390625 0 
L 12.40625 0 
z
" id="DejaVuSans-49"/>
      </defs>
      <g style="fill:#262626;" transform="translate(117.307443 303.028562)scale(0.1 -0.1)">
       <use xlink:href="#DejaVuSans-49"/>
       <use x="63.623047" xlink:href="#DejaVuSans-48"/>
      </g>
     </g>
    </g>
    <g id="xtick_3">
     <g id="line2d_3">
      <path clip-path="url(#p1877422036)" d="M 177.779034 288.430125 
L 177.779034 22.318125 
" style="fill:none;stroke:#cccccc;stroke-linecap:round;stroke-width:0.8;"/>
     </g>
     <g id="text_3">
      <!-- 20 -->
      <defs>
       <path d="M 19.1875 8.296875 
L 53.609375 8.296875 
L 53.609375 0 
L 7.328125 0 
L 7.328125 8.296875 
Q 12.9375 14.109375 22.625 23.890625 
Q 32.328125 33.6875 34.8125 36.53125 
Q 39.546875 41.84375 41.421875 45.53125 
Q 43.3125 49.21875 43.3125 52.78125 
Q 43.3125 58.59375 39.234375 62.25 
Q 35.15625 65.921875 28.609375 65.921875 
Q 23.96875 65.921875 18.8125 64.3125 
Q 13.671875 62.703125 7.8125 59.421875 
L 7.8125 69.390625 
Q 13.765625 71.78125 18.9375 73 
Q 24.125 74.21875 28.421875 74.21875 
Q 39.75 74.21875 46.484375 68.546875 
Q 53.21875 62.890625 53.21875 53.421875 
Q 53.21875 48.921875 51.53125 44.890625 
Q 49.859375 40.875 45.40625 35.40625 
Q 44.1875 33.984375 37.640625 27.21875 
Q 31.109375 20.453125 19.1875 8.296875 
z
" id="DejaVuSans-50"/>
      </defs>
      <g style="fill:#262626;" transform="translate(171.416534 303.028562)scale(0.1 -0.1)">
       <use xlink:href="#DejaVuSans-50"/>
       <use x="63.623047" xlink:href="#DejaVuSans-48"/>
      </g>
     </g>
    </g>
    <g id="xtick_4">
     <g id="line2d_4">
      <path clip-path="url(#p1877422036)" d="M 231.888125 288.430125 
L 231.888125 22.318125 
" style="fill:none;stroke:#cccccc;stroke-linecap:round;stroke-width:0.8;"/>
     </g>
     <g id="text_4">
      <!-- 30 -->
      <defs>
       <path d="M 40.578125 39.3125 
Q 47.65625 37.796875 51.625 33 
Q 55.609375 28.21875 55.609375 21.1875 
Q 55.609375 10.40625 48.1875 4.484375 
Q 40.765625 -1.421875 27.09375 -1.421875 
Q 22.515625 -1.421875 17.65625 -0.515625 
Q 12.796875 0.390625 7.625 2.203125 
L 7.625 11.71875 
Q 11.71875 9.328125 16.59375 8.109375 
Q 21.484375 6.890625 26.8125 6.890625 
Q 36.078125 6.890625 40.9375 10.546875 
Q 45.796875 14.203125 45.796875 21.1875 
Q 45.796875 27.640625 41.28125 31.265625 
Q 36.765625 34.90625 28.71875 34.90625 
L 20.21875 34.90625 
L 20.21875 43.015625 
L 29.109375 43.015625 
Q 36.375 43.015625 40.234375 45.921875 
Q 44.09375 48.828125 44.09375 54.296875 
Q 44.09375 59.90625 40.109375 62.90625 
Q 36.140625 65.921875 28.71875 65.921875 
Q 24.65625 65.921875 20.015625 65.03125 
Q 15.375 64.15625 9.8125 62.3125 
L 9.8125 71.09375 
Q 15.4375 72.65625 20.34375 73.4375 
Q 25.25 74.21875 29.59375 74.21875 
Q 40.828125 74.21875 47.359375 69.109375 
Q 53.90625 64.015625 53.90625 55.328125 
Q 53.90625 49.265625 50.4375 45.09375 
Q 46.96875 40.921875 40.578125 39.3125 
z
" id="DejaVuSans-51"/>
      </defs>
      <g style="fill:#262626;" transform="translate(225.525625 303.028562)scale(0.1 -0.1)">
       <use xlink:href="#DejaVuSans-51"/>
       <use x="63.623047" xlink:href="#DejaVuSans-48"/>
      </g>
     </g>
    </g>
    <g id="xtick_5">
     <g id="line2d_5">
      <path clip-path="url(#p1877422036)" d="M 285.997216 288.430125 
L 285.997216 22.318125 
" style="fill:none;stroke:#cccccc;stroke-linecap:round;stroke-width:0.8;"/>
     </g>
     <g id="text_5">
      <!-- 40 -->
      <defs>
       <path d="M 37.796875 64.3125 
L 12.890625 25.390625 
L 37.796875 25.390625 
z
M 35.203125 72.90625 
L 47.609375 72.90625 
L 47.609375 25.390625 
L 58.015625 25.390625 
L 58.015625 17.1875 
L 47.609375 17.1875 
L 47.609375 0 
L 37.796875 0 
L 37.796875 17.1875 
L 4.890625 17.1875 
L 4.890625 26.703125 
z
" id="DejaVuSans-52"/>
      </defs>
      <g style="fill:#262626;" transform="translate(279.634716 303.028562)scale(0.1 -0.1)">
       <use xlink:href="#DejaVuSans-52"/>
       <use x="63.623047" xlink:href="#DejaVuSans-48"/>
      </g>
     </g>
    </g>
    <g id="xtick_6">
     <g id="line2d_6">
      <path clip-path="url(#p1877422036)" d="M 340.106307 288.430125 
L 340.106307 22.318125 
" style="fill:none;stroke:#cccccc;stroke-linecap:round;stroke-width:0.8;"/>
     </g>
     <g id="text_6">
      <!-- 50 -->
      <defs>
       <path d="M 10.796875 72.90625 
L 49.515625 72.90625 
L 49.515625 64.59375 
L 19.828125 64.59375 
L 19.828125 46.734375 
Q 21.96875 47.46875 24.109375 47.828125 
Q 26.265625 48.1875 28.421875 48.1875 
Q 40.625 48.1875 47.75 41.5 
Q 54.890625 34.8125 54.890625 23.390625 
Q 54.890625 11.625 47.5625 5.09375 
Q 40.234375 -1.421875 26.90625 -1.421875 
Q 22.3125 -1.421875 17.546875 -0.640625 
Q 12.796875 0.140625 7.71875 1.703125 
L 7.71875 11.625 
Q 12.109375 9.234375 16.796875 8.0625 
Q 21.484375 6.890625 26.703125 6.890625 
Q 35.15625 6.890625 40.078125 11.328125 
Q 45.015625 15.765625 45.015625 23.390625 
Q 45.015625 31 40.078125 35.4375 
Q 35.15625 39.890625 26.703125 39.890625 
Q 22.75 39.890625 18.8125 39.015625 
Q 14.890625 38.140625 10.796875 36.28125 
z
" id="DejaVuSans-53"/>
      </defs>
      <g style="fill:#262626;" transform="translate(333.743807 303.028562)scale(0.1 -0.1)">
       <use xlink:href="#DejaVuSans-53"/>
       <use x="63.623047" xlink:href="#DejaVuSans-48"/>
      </g>
     </g>
    </g>
    <g id="xtick_7">
     <g id="line2d_7">
      <path clip-path="url(#p1877422036)" d="M 394.215398 288.430125 
L 394.215398 22.318125 
" style="fill:none;stroke:#cccccc;stroke-linecap:round;stroke-width:0.8;"/>
     </g>
     <g id="text_7">
      <!-- 60 -->
      <defs>
       <path d="M 33.015625 40.375 
Q 26.375 40.375 22.484375 35.828125 
Q 18.609375 31.296875 18.609375 23.390625 
Q 18.609375 15.53125 22.484375 10.953125 
Q 26.375 6.390625 33.015625 6.390625 
Q 39.65625 6.390625 43.53125 10.953125 
Q 47.40625 15.53125 47.40625 23.390625 
Q 47.40625 31.296875 43.53125 35.828125 
Q 39.65625 40.375 33.015625 40.375 
z
M 52.59375 71.296875 
L 52.59375 62.3125 
Q 48.875 64.0625 45.09375 64.984375 
Q 41.3125 65.921875 37.59375 65.921875 
Q 27.828125 65.921875 22.671875 59.328125 
Q 17.53125 52.734375 16.796875 39.40625 
Q 19.671875 43.65625 24.015625 45.921875 
Q 28.375 48.1875 33.59375 48.1875 
Q 44.578125 48.1875 50.953125 41.515625 
Q 57.328125 34.859375 57.328125 23.390625 
Q 57.328125 12.15625 50.6875 5.359375 
Q 44.046875 -1.421875 33.015625 -1.421875 
Q 20.359375 -1.421875 13.671875 8.265625 
Q 6.984375 17.96875 6.984375 36.375 
Q 6.984375 53.65625 15.1875 63.9375 
Q 23.390625 74.21875 37.203125 74.21875 
Q 40.921875 74.21875 44.703125 73.484375 
Q 48.484375 72.75 52.59375 71.296875 
z
" id="DejaVuSans-54"/>
      </defs>
      <g style="fill:#262626;" transform="translate(387.852898 303.028562)scale(0.1 -0.1)">
       <use xlink:href="#DejaVuSans-54"/>
       <use x="63.623047" xlink:href="#DejaVuSans-48"/>
      </g>
     </g>
    </g>
    <g id="text_8">
     <!-- time (days) -->
     <defs>
      <path d="M 18.3125 70.21875 
L 18.3125 54.6875 
L 36.8125 54.6875 
L 36.8125 47.703125 
L 18.3125 47.703125 
L 18.3125 18.015625 
Q 18.3125 11.328125 20.140625 9.421875 
Q 21.96875 7.515625 27.59375 7.515625 
L 36.8125 7.515625 
L 36.8125 0 
L 27.59375 0 
Q 17.1875 0 13.234375 3.875 
Q 9.28125 7.765625 9.28125 18.015625 
L 9.28125 47.703125 
L 2.6875 47.703125 
L 2.6875 54.6875 
L 9.28125 54.6875 
L 9.28125 70.21875 
z
" id="DejaVuSans-116"/>
      <path d="M 9.421875 54.6875 
L 18.40625 54.6875 
L 18.40625 0 
L 9.421875 0 
z
M 9.421875 75.984375 
L 18.40625 75.984375 
L 18.40625 64.59375 
L 9.421875 64.59375 
z
" id="DejaVuSans-105"/>
      <path d="M 52 44.1875 
Q 55.375 50.25 60.0625 53.125 
Q 64.75 56 71.09375 56 
Q 79.640625 56 84.28125 50.015625 
Q 88.921875 44.046875 88.921875 33.015625 
L 88.921875 0 
L 79.890625 0 
L 79.890625 32.71875 
Q 79.890625 40.578125 77.09375 44.375 
Q 74.3125 48.1875 68.609375 48.1875 
Q 61.625 48.1875 57.5625 43.546875 
Q 53.515625 38.921875 53.515625 30.90625 
L 53.515625 0 
L 44.484375 0 
L 44.484375 32.71875 
Q 44.484375 40.625 41.703125 44.40625 
Q 38.921875 48.1875 33.109375 48.1875 
Q 26.21875 48.1875 22.15625 43.53125 
Q 18.109375 38.875 18.109375 30.90625 
L 18.109375 0 
L 9.078125 0 
L 9.078125 54.6875 
L 18.109375 54.6875 
L 18.109375 46.1875 
Q 21.1875 51.21875 25.484375 53.609375 
Q 29.78125 56 35.6875 56 
Q 41.65625 56 45.828125 52.96875 
Q 50 49.953125 52 44.1875 
z
" id="DejaVuSans-109"/>
      <path d="M 56.203125 29.59375 
L 56.203125 25.203125 
L 14.890625 25.203125 
Q 15.484375 15.921875 20.484375 11.0625 
Q 25.484375 6.203125 34.421875 6.203125 
Q 39.59375 6.203125 44.453125 7.46875 
Q 49.3125 8.734375 54.109375 11.28125 
L 54.109375 2.78125 
Q 49.265625 0.734375 44.1875 -0.34375 
Q 39.109375 -1.421875 33.890625 -1.421875 
Q 20.796875 -1.421875 13.15625 6.1875 
Q 5.515625 13.8125 5.515625 26.8125 
Q 5.515625 40.234375 12.765625 48.109375 
Q 20.015625 56 32.328125 56 
Q 43.359375 56 49.78125 48.890625 
Q 56.203125 41.796875 56.203125 29.59375 
z
M 47.21875 32.234375 
Q 47.125 39.59375 43.09375 43.984375 
Q 39.0625 48.390625 32.421875 48.390625 
Q 24.90625 48.390625 20.390625 44.140625 
Q 15.875 39.890625 15.1875 32.171875 
z
" id="DejaVuSans-101"/>
      <path id="DejaVuSans-32"/>
      <path d="M 31 75.875 
Q 24.46875 64.65625 21.28125 53.65625 
Q 18.109375 42.671875 18.109375 31.390625 
Q 18.109375 20.125 21.3125 9.0625 
Q 24.515625 -2 31 -13.1875 
L 23.1875 -13.1875 
Q 15.875 -1.703125 12.234375 9.375 
Q 8.59375 20.453125 8.59375 31.390625 
Q 8.59375 42.28125 12.203125 53.3125 
Q 15.828125 64.359375 23.1875 75.875 
z
" id="DejaVuSans-40"/>
      <path d="M 45.40625 46.390625 
L 45.40625 75.984375 
L 54.390625 75.984375 
L 54.390625 0 
L 45.40625 0 
L 45.40625 8.203125 
Q 42.578125 3.328125 38.25 0.953125 
Q 33.9375 -1.421875 27.875 -1.421875 
Q 17.96875 -1.421875 11.734375 6.484375 
Q 5.515625 14.40625 5.515625 27.296875 
Q 5.515625 40.1875 11.734375 48.09375 
Q 17.96875 56 27.875 56 
Q 33.9375 56 38.25 53.625 
Q 42.578125 51.265625 45.40625 46.390625 
z
M 14.796875 27.296875 
Q 14.796875 17.390625 18.875 11.75 
Q 22.953125 6.109375 30.078125 6.109375 
Q 37.203125 6.109375 41.296875 11.75 
Q 45.40625 17.390625 45.40625 27.296875 
Q 45.40625 37.203125 41.296875 42.84375 
Q 37.203125 48.484375 30.078125 48.484375 
Q 22.953125 48.484375 18.875 42.84375 
Q 14.796875 37.203125 14.796875 27.296875 
z
" id="DejaVuSans-100"/>
      <path d="M 34.28125 27.484375 
Q 23.390625 27.484375 19.1875 25 
Q 14.984375 22.515625 14.984375 16.5 
Q 14.984375 11.71875 18.140625 8.90625 
Q 21.296875 6.109375 26.703125 6.109375 
Q 34.1875 6.109375 38.703125 11.40625 
Q 43.21875 16.703125 43.21875 25.484375 
L 43.21875 27.484375 
z
M 52.203125 31.203125 
L 52.203125 0 
L 43.21875 0 
L 43.21875 8.296875 
Q 40.140625 3.328125 35.546875 0.953125 
Q 30.953125 -1.421875 24.3125 -1.421875 
Q 15.921875 -1.421875 10.953125 3.296875 
Q 6 8.015625 6 15.921875 
Q 6 25.140625 12.171875 29.828125 
Q 18.359375 34.515625 30.609375 34.515625 
L 43.21875 34.515625 
L 43.21875 35.40625 
Q 43.21875 41.609375 39.140625 45 
Q 35.0625 48.390625 27.6875 48.390625 
Q 23 48.390625 18.546875 47.265625 
Q 14.109375 46.140625 10.015625 43.890625 
L 10.015625 52.203125 
Q 14.9375 54.109375 19.578125 55.046875 
Q 24.21875 56 28.609375 56 
Q 40.484375 56 46.34375 49.84375 
Q 52.203125 43.703125 52.203125 31.203125 
z
" id="DejaVuSans-97"/>
      <path d="M 32.171875 -5.078125 
Q 28.375 -14.84375 24.75 -17.8125 
Q 21.140625 -20.796875 15.09375 -20.796875 
L 7.90625 -20.796875 
L 7.90625 -13.28125 
L 13.1875 -13.28125 
Q 16.890625 -13.28125 18.9375 -11.515625 
Q 21 -9.765625 23.484375 -3.21875 
L 25.09375 0.875 
L 2.984375 54.6875 
L 12.5 54.6875 
L 29.59375 11.921875 
L 46.6875 54.6875 
L 56.203125 54.6875 
z
" id="DejaVuSans-121"/>
      <path d="M 44.28125 53.078125 
L 44.28125 44.578125 
Q 40.484375 46.53125 36.375 47.5 
Q 32.28125 48.484375 27.875 48.484375 
Q 21.1875 48.484375 17.84375 46.4375 
Q 14.5 44.390625 14.5 40.28125 
Q 14.5 37.15625 16.890625 35.375 
Q 19.28125 33.59375 26.515625 31.984375 
L 29.59375 31.296875 
Q 39.15625 29.25 43.1875 25.515625 
Q 47.21875 21.78125 47.21875 15.09375 
Q 47.21875 7.46875 41.1875 3.015625 
Q 35.15625 -1.421875 24.609375 -1.421875 
Q 20.21875 -1.421875 15.453125 -0.5625 
Q 10.6875 0.296875 5.421875 2 
L 5.421875 11.28125 
Q 10.40625 8.6875 15.234375 7.390625 
Q 20.0625 6.109375 24.8125 6.109375 
Q 31.15625 6.109375 34.5625 8.28125 
Q 37.984375 10.453125 37.984375 14.40625 
Q 37.984375 18.0625 35.515625 20.015625 
Q 33.0625 21.96875 24.703125 23.78125 
L 21.578125 24.515625 
Q 13.234375 26.265625 9.515625 29.90625 
Q 5.8125 33.546875 5.8125 39.890625 
Q 5.8125 47.609375 11.28125 51.796875 
Q 16.75 56 26.8125 56 
Q 31.78125 56 36.171875 55.265625 
Q 40.578125 54.546875 44.28125 53.078125 
z
" id="DejaVuSans-115"/>
      <path d="M 8.015625 75.875 
L 15.828125 75.875 
Q 23.140625 64.359375 26.78125 53.3125 
Q 30.421875 42.28125 30.421875 31.390625 
Q 30.421875 20.453125 26.78125 9.375 
Q 23.140625 -1.703125 15.828125 -13.1875 
L 8.015625 -13.1875 
Q 14.5 -2 17.703125 9.0625 
Q 20.90625 20.125 20.90625 31.390625 
Q 20.90625 42.671875 17.703125 53.65625 
Q 14.5 64.65625 8.015625 75.875 
z
" id="DejaVuSans-41"/>
     </defs>
     <g style="fill:#262626;" transform="translate(203.299063 316.706687)scale(0.1 -0.1)">
      <use xlink:href="#DejaVuSans-116"/>
      <use x="39.208984" xlink:href="#DejaVuSans-105"/>
      <use x="66.992188" xlink:href="#DejaVuSans-109"/>
      <use x="164.404297" xlink:href="#DejaVuSans-101"/>
      <use x="225.927734" xlink:href="#DejaVuSans-32"/>
      <use x="257.714844" xlink:href="#DejaVuSans-40"/>
      <use x="296.728516" xlink:href="#DejaVuSans-100"/>
      <use x="360.205078" xlink:href="#DejaVuSans-97"/>
      <use x="421.484375" xlink:href="#DejaVuSans-121"/>
      <use x="480.664062" xlink:href="#DejaVuSans-115"/>
      <use x="532.763672" xlink:href="#DejaVuSans-41"/>
     </g>
    </g>
   </g>
   <g id="matplotlib.axis_2">
    <g id="ytick_1">
     <g id="line2d_8">
      <path clip-path="url(#p1877422036)" d="M 53.328125 276.334125 
L 410.448125 276.334125 
" style="fill:none;stroke:#cccccc;stroke-linecap:round;stroke-width:0.8;"/>
     </g>
     <g id="text_9">
      <!-- 0 -->
      <g style="fill:#262626;" transform="translate(39.965625 280.133344)scale(0.1 -0.1)">
       <use xlink:href="#DejaVuSans-48"/>
      </g>
     </g>
    </g>
    <g id="ytick_2">
     <g id="line2d_9">
      <path clip-path="url(#p1877422036)" d="M 53.328125 242.678032 
L 410.448125 242.678032 
" style="fill:none;stroke:#cccccc;stroke-linecap:round;stroke-width:0.8;"/>
     </g>
     <g id="text_10">
      <!-- 500 -->
      <g style="fill:#262626;" transform="translate(27.240625 246.47725)scale(0.1 -0.1)">
       <use xlink:href="#DejaVuSans-53"/>
       <use x="63.623047" xlink:href="#DejaVuSans-48"/>
       <use x="127.246094" xlink:href="#DejaVuSans-48"/>
      </g>
     </g>
    </g>
    <g id="ytick_3">
     <g id="line2d_10">
      <path clip-path="url(#p1877422036)" d="M 53.328125 209.021938 
L 410.448125 209.021938 
" style="fill:none;stroke:#cccccc;stroke-linecap:round;stroke-width:0.8;"/>
     </g>
     <g id="text_11">
      <!-- 1000 -->
      <g style="fill:#262626;" transform="translate(20.878125 212.821157)scale(0.1 -0.1)">
       <use xlink:href="#DejaVuSans-49"/>
       <use x="63.623047" xlink:href="#DejaVuSans-48"/>
       <use x="127.246094" xlink:href="#DejaVuSans-48"/>
       <use x="190.869141" xlink:href="#DejaVuSans-48"/>
      </g>
     </g>
    </g>
    <g id="ytick_4">
     <g id="line2d_11">
      <path clip-path="url(#p1877422036)" d="M 53.328125 175.365845 
L 410.448125 175.365845 
" style="fill:none;stroke:#cccccc;stroke-linecap:round;stroke-width:0.8;"/>
     </g>
     <g id="text_12">
      <!-- 1500 -->
      <g style="fill:#262626;" transform="translate(20.878125 179.165063)scale(0.1 -0.1)">
       <use xlink:href="#DejaVuSans-49"/>
       <use x="63.623047" xlink:href="#DejaVuSans-53"/>
       <use x="127.246094" xlink:href="#DejaVuSans-48"/>
       <use x="190.869141" xlink:href="#DejaVuSans-48"/>
      </g>
     </g>
    </g>
    <g id="ytick_5">
     <g id="line2d_12">
      <path clip-path="url(#p1877422036)" d="M 53.328125 141.709751 
L 410.448125 141.709751 
" style="fill:none;stroke:#cccccc;stroke-linecap:round;stroke-width:0.8;"/>
     </g>
     <g id="text_13">
      <!-- 2000 -->
      <g style="fill:#262626;" transform="translate(20.878125 145.50897)scale(0.1 -0.1)">
       <use xlink:href="#DejaVuSans-50"/>
       <use x="63.623047" xlink:href="#DejaVuSans-48"/>
       <use x="127.246094" xlink:href="#DejaVuSans-48"/>
       <use x="190.869141" xlink:href="#DejaVuSans-48"/>
      </g>
     </g>
    </g>
    <g id="ytick_6">
     <g id="line2d_13">
      <path clip-path="url(#p1877422036)" d="M 53.328125 108.053658 
L 410.448125 108.053658 
" style="fill:none;stroke:#cccccc;stroke-linecap:round;stroke-width:0.8;"/>
     </g>
     <g id="text_14">
      <!-- 2500 -->
      <g style="fill:#262626;" transform="translate(20.878125 111.852876)scale(0.1 -0.1)">
       <use xlink:href="#DejaVuSans-50"/>
       <use x="63.623047" xlink:href="#DejaVuSans-53"/>
       <use x="127.246094" xlink:href="#DejaVuSans-48"/>
       <use x="190.869141" xlink:href="#DejaVuSans-48"/>
      </g>
     </g>
    </g>
    <g id="ytick_7">
     <g id="line2d_14">
      <path clip-path="url(#p1877422036)" d="M 53.328125 74.397564 
L 410.448125 74.397564 
" style="fill:none;stroke:#cccccc;stroke-linecap:round;stroke-width:0.8;"/>
     </g>
     <g id="text_15">
      <!-- 3000 -->
      <g style="fill:#262626;" transform="translate(20.878125 78.196783)scale(0.1 -0.1)">
       <use xlink:href="#DejaVuSans-51"/>
       <use x="63.623047" xlink:href="#DejaVuSans-48"/>
       <use x="127.246094" xlink:href="#DejaVuSans-48"/>
       <use x="190.869141" xlink:href="#DejaVuSans-48"/>
      </g>
     </g>
    </g>
    <g id="ytick_8">
     <g id="line2d_15">
      <path clip-path="url(#p1877422036)" d="M 53.328125 40.741471 
L 410.448125 40.741471 
" style="fill:none;stroke:#cccccc;stroke-linecap:round;stroke-width:0.8;"/>
     </g>
     <g id="text_16">
      <!-- 3500 -->
      <g style="fill:#262626;" transform="translate(20.878125 44.540689)scale(0.1 -0.1)">
       <use xlink:href="#DejaVuSans-51"/>
       <use x="63.623047" xlink:href="#DejaVuSans-53"/>
       <use x="127.246094" xlink:href="#DejaVuSans-48"/>
       <use x="190.869141" xlink:href="#DejaVuSans-48"/>
      </g>
     </g>
    </g>
    <g id="text_17">
     <!-- cells number -->
     <defs>
      <path d="M 48.78125 52.59375 
L 48.78125 44.1875 
Q 44.96875 46.296875 41.140625 47.34375 
Q 37.3125 48.390625 33.40625 48.390625 
Q 24.65625 48.390625 19.8125 42.84375 
Q 14.984375 37.3125 14.984375 27.296875 
Q 14.984375 17.28125 19.8125 11.734375 
Q 24.65625 6.203125 33.40625 6.203125 
Q 37.3125 6.203125 41.140625 7.25 
Q 44.96875 8.296875 48.78125 10.40625 
L 48.78125 2.09375 
Q 45.015625 0.34375 40.984375 -0.53125 
Q 36.96875 -1.421875 32.421875 -1.421875 
Q 20.0625 -1.421875 12.78125 6.34375 
Q 5.515625 14.109375 5.515625 27.296875 
Q 5.515625 40.671875 12.859375 48.328125 
Q 20.21875 56 33.015625 56 
Q 37.15625 56 41.109375 55.140625 
Q 45.0625 54.296875 48.78125 52.59375 
z
" id="DejaVuSans-99"/>
      <path d="M 9.421875 75.984375 
L 18.40625 75.984375 
L 18.40625 0 
L 9.421875 0 
z
" id="DejaVuSans-108"/>
      <path d="M 54.890625 33.015625 
L 54.890625 0 
L 45.90625 0 
L 45.90625 32.71875 
Q 45.90625 40.484375 42.875 44.328125 
Q 39.84375 48.1875 33.796875 48.1875 
Q 26.515625 48.1875 22.3125 43.546875 
Q 18.109375 38.921875 18.109375 30.90625 
L 18.109375 0 
L 9.078125 0 
L 9.078125 54.6875 
L 18.109375 54.6875 
L 18.109375 46.1875 
Q 21.34375 51.125 25.703125 53.5625 
Q 30.078125 56 35.796875 56 
Q 45.21875 56 50.046875 50.171875 
Q 54.890625 44.34375 54.890625 33.015625 
z
" id="DejaVuSans-110"/>
      <path d="M 8.5 21.578125 
L 8.5 54.6875 
L 17.484375 54.6875 
L 17.484375 21.921875 
Q 17.484375 14.15625 20.5 10.265625 
Q 23.53125 6.390625 29.59375 6.390625 
Q 36.859375 6.390625 41.078125 11.03125 
Q 45.3125 15.671875 45.3125 23.6875 
L 45.3125 54.6875 
L 54.296875 54.6875 
L 54.296875 0 
L 45.3125 0 
L 45.3125 8.40625 
Q 42.046875 3.421875 37.71875 1 
Q 33.40625 -1.421875 27.6875 -1.421875 
Q 18.265625 -1.421875 13.375 4.4375 
Q 8.5 10.296875 8.5 21.578125 
z
M 31.109375 56 
z
" id="DejaVuSans-117"/>
      <path d="M 48.6875 27.296875 
Q 48.6875 37.203125 44.609375 42.84375 
Q 40.53125 48.484375 33.40625 48.484375 
Q 26.265625 48.484375 22.1875 42.84375 
Q 18.109375 37.203125 18.109375 27.296875 
Q 18.109375 17.390625 22.1875 11.75 
Q 26.265625 6.109375 33.40625 6.109375 
Q 40.53125 6.109375 44.609375 11.75 
Q 48.6875 17.390625 48.6875 27.296875 
z
M 18.109375 46.390625 
Q 20.953125 51.265625 25.265625 53.625 
Q 29.59375 56 35.59375 56 
Q 45.5625 56 51.78125 48.09375 
Q 58.015625 40.1875 58.015625 27.296875 
Q 58.015625 14.40625 51.78125 6.484375 
Q 45.5625 -1.421875 35.59375 -1.421875 
Q 29.59375 -1.421875 25.265625 0.953125 
Q 20.953125 3.328125 18.109375 8.203125 
L 18.109375 0 
L 9.078125 0 
L 9.078125 75.984375 
L 18.109375 75.984375 
z
" id="DejaVuSans-98"/>
      <path d="M 41.109375 46.296875 
Q 39.59375 47.171875 37.8125 47.578125 
Q 36.03125 48 33.890625 48 
Q 26.265625 48 22.1875 43.046875 
Q 18.109375 38.09375 18.109375 28.8125 
L 18.109375 0 
L 9.078125 0 
L 9.078125 54.6875 
L 18.109375 54.6875 
L 18.109375 46.1875 
Q 20.953125 51.171875 25.484375 53.578125 
Q 30.03125 56 36.53125 56 
Q 37.453125 56 38.578125 55.875 
Q 39.703125 55.765625 41.0625 55.515625 
z
" id="DejaVuSans-114"/>
     </defs>
     <g style="fill:#262626;" transform="translate(14.798438 187.685844)rotate(-90)scale(0.1 -0.1)">
      <use xlink:href="#DejaVuSans-99"/>
      <use x="54.980469" xlink:href="#DejaVuSans-101"/>
      <use x="116.503906" xlink:href="#DejaVuSans-108"/>
      <use x="144.287109" xlink:href="#DejaVuSans-108"/>
      <use x="172.070312" xlink:href="#DejaVuSans-115"/>
      <use x="224.169922" xlink:href="#DejaVuSans-32"/>
      <use x="255.957031" xlink:href="#DejaVuSans-110"/>
      <use x="319.335938" xlink:href="#DejaVuSans-117"/>
      <use x="382.714844" xlink:href="#DejaVuSans-109"/>
      <use x="480.126953" xlink:href="#DejaVuSans-98"/>
      <use x="543.603516" xlink:href="#DejaVuSans-101"/>
      <use x="605.126953" xlink:href="#DejaVuSans-114"/>
     </g>
    </g>
   </g>
   <g id="line2d_16">
    <path clip-path="url(#p1877422036)" d="M 69.560852 276.334125 
L 73.88958 276.266813 
L 74.971761 276.199501 
L 77.677216 276.132188 
L 80.923761 275.728315 
L 81.464852 275.459067 
L 84.711398 274.718633 
L 85.252489 274.314759 
L 85.79358 274.180135 
L 86.33467 273.843574 
L 87.416852 273.507013 
L 87.957943 273.170452 
L 89.040125 272.699267 
L 91.74558 270.276028 
L 92.827761 268.997097 
L 93.909943 268.054726 
L 94.451034 267.179668 
L 94.992125 266.708482 
L 96.074307 264.958365 
L 97.156489 263.073624 
L 97.69758 261.256195 
L 98.23867 260.515761 
L 99.320852 258.361771 
L 100.403034 256.678966 
L 100.944125 255.803908 
L 101.485216 254.390352 
L 102.026307 252.640235 
L 102.567398 251.765177 
L 103.64958 248.803441 
L 104.731761 246.582138 
L 105.272852 244.832021 
L 106.896125 241.331788 
L 110.14267 231.504208 
L 110.683761 229.956028 
L 111.224852 229.013658 
L 111.765943 226.725043 
L 113.930307 219.8592 
L 115.012489 217.772522 
L 115.55358 216.695527 
L 116.09467 215.281971 
L 116.635761 214.541537 
L 118.259034 211.041304 
L 118.800125 210.368182 
L 122.04667 203.636963 
L 123.669943 200.675227 
L 124.211034 199.261671 
L 124.752125 198.521237 
L 126.375398 194.751754 
L 127.45758 193.001638 
L 129.080852 190.174526 
L 129.621943 189.232155 
L 130.163034 187.885911 
L 130.704125 186.876229 
L 131.786307 183.779868 
L 132.327398 182.433624 
L 132.868489 181.491254 
L 134.491761 177.789083 
L 135.032852 175.904342 
L 135.573943 174.760035 
L 136.656125 171.394426 
L 137.738307 169.173123 
L 138.279398 167.759567 
L 139.36158 163.788148 
L 140.443761 160.691788 
L 140.984852 159.816729 
L 141.525943 158.335861 
L 142.067034 157.191554 
L 143.690307 152.681638 
L 144.231398 151.604643 
L 144.772489 150.796896 
L 146.395761 146.354292 
L 149.101216 140.228883 
L 149.642307 139.488449 
L 150.183398 138.209517 
L 152.888852 133.430352 
L 153.429943 132.084108 
L 153.971034 131.410986 
L 155.594307 128.651187 
L 156.135398 127.910753 
L 156.676489 127.372255 
L 157.75867 125.689451 
L 158.840852 124.612456 
L 159.381943 123.468148 
L 162.087398 119.025544 
L 163.16958 118.083173 
L 163.71067 117.140803 
L 164.251761 116.534993 
L 165.875034 114.111754 
L 166.416125 113.034759 
L 166.957216 112.294325 
L 167.498307 112.159701 
L 169.66267 109.736462 
L 170.203761 109.534526 
L 171.285943 108.322906 
L 172.368125 107.111287 
L 172.909216 106.640102 
L 173.991398 105.226546 
L 174.532489 104.957297 
L 176.155761 103.476429 
L 177.237943 102.870619 
L 177.779034 102.60137 
L 178.320125 102.534058 
L 179.402307 101.659 
L 179.943398 101.659 
L 180.484489 101.120502 
L 181.02558 100.851254 
L 181.56667 100.44738 
L 183.189943 99.841571 
L 183.731034 99.774259 
L 184.813216 99.437698 
L 185.895398 98.697264 
L 188.059761 98.495327 
L 189.141943 98.024142 
L 191.847398 97.35102 
L 192.388489 97.081771 
L 193.47067 96.879835 
L 194.011761 96.677898 
L 195.635034 96.543274 
L 196.176125 96.274025 
L 196.717216 96.206713 
L 197.258307 95.870152 
L 197.799398 95.735527 
L 198.340489 95.735527 
L 198.88158 95.466279 
L 199.42267 95.331654 
L 199.963761 95.331654 
L 201.045943 94.995093 
L 202.128125 94.725845 
L 202.669216 94.725845 
L 203.751398 94.389284 
L 204.292489 94.120035 
L 205.915761 93.716162 
L 206.456852 93.446913 
L 208.080125 93.110352 
L 209.162307 92.908415 
L 210.244489 92.706479 
L 211.867761 92.639167 
L 212.949943 92.369918 
L 213.491034 92.100669 
L 214.573216 91.83142 
L 215.114307 91.83142 
L 216.196489 91.629484 
L 218.360852 91.427547 
L 221.066307 91.360235 
L 222.68958 91.225611 
L 224.853943 91.158299 
L 226.477216 91.023674 
L 227.018307 91.090986 
L 227.559398 90.956362 
L 228.64158 90.956362 
L 229.723761 90.754426 
L 230.264852 90.687113 
L 230.805943 90.485177 
L 232.429216 90.350552 
L 233.511398 90.417865 
L 234.59358 90.215928 
L 237.840125 89.879367 
L 240.54558 89.812055 
L 241.08667 89.677431 
L 241.627761 89.408182 
L 243.251034 89.34087 
L 243.792125 89.138933 
L 245.956489 88.936996 
L 246.49758 88.936996 
L 247.03867 88.802372 
L 252.99067 88.802372 
L 253.531761 88.667748 
L 259.483761 88.600436 
L 262.189216 88.331187 
L 284.915034 88.398499 
L 285.997216 88.465811 
L 301.688852 88.533123 
L 302.771034 88.600436 
L 307.640852 88.667748 
L 308.723034 88.73506 
L 329.82558 88.802372 
L 330.907761 88.869684 
L 339.024125 88.936996 
L 340.106307 89.004309 
L 355.797943 89.071621 
L 356.880125 89.138933 
L 375.818307 89.206245 
L 376.900489 89.273557 
L 394.215398 89.273557 
L 394.215398 89.273557 
" style="fill:none;stroke:#000080;stroke-linecap:round;stroke-width:1.5;"/>
   </g>
   <g id="line2d_17">
    <path clip-path="url(#p1877422036)" d="M 69.560852 276.334125 
L 76.053943 276.266813 
L 77.677216 276.132188 
L 79.84158 276.064876 
L 80.38267 275.997564 
L 80.923761 275.795628 
L 82.547034 275.526379 
L 83.629216 274.785945 
L 84.711398 274.449384 
L 85.252489 274.247447 
L 85.79358 274.180135 
L 86.875761 273.439701 
L 87.416852 272.901203 
L 88.499034 272.295394 
L 89.040125 271.756896 
L 90.663398 270.747213 
L 91.74558 269.602906 
L 92.28667 269.266345 
L 93.368852 268.323975 
L 93.909943 267.24698 
L 95.533216 265.227614 
L 96.615398 263.342873 
L 97.156489 262.063941 
L 97.69758 261.323507 
L 99.320852 258.294459 
L 100.403034 256.207781 
L 101.485216 253.447981 
L 102.026307 251.765177 
L 102.567398 250.890118 
L 103.108489 249.40925 
L 104.19067 246.110953 
L 104.731761 244.360836 
L 105.272852 243.081905 
L 106.355034 239.24511 
L 106.896125 237.831554 
L 109.60158 227.061604 
L 110.14267 225.648048 
L 113.930307 212.118299 
L 114.471398 210.031621 
L 115.012489 208.685377 
L 116.09467 204.646646 
L 117.176852 200.002105 
L 117.717943 198.3193 
L 119.341216 191.116896 
L 121.50558 184.318365 
L 122.587761 180.885444 
L 123.669943 177.923708 
L 126.916489 166.682572 
L 129.080852 158.941671 
L 132.868489 147.83516 
L 138.820489 132.891855 
L 140.443761 130.737865 
L 142.067034 126.699133 
L 143.149216 125.487514 
L 146.395761 119.83329 
L 148.019034 117.746612 
L 148.560125 116.804242 
L 149.642307 115.659935 
L 150.724489 114.111754 
L 151.80667 112.496262 
L 152.347761 111.755828 
L 152.888852 111.284643 
L 153.429943 110.140335 
L 155.053216 109.130653 
L 156.135398 107.447848 
L 156.676489 107.043975 
L 157.21758 106.303541 
L 157.75867 105.899668 
L 158.840852 104.486112 
L 159.381943 104.082239 
L 160.464125 102.60137 
L 162.087398 100.783941 
L 162.628489 100.44738 
L 163.16958 99.706946 
L 167.498307 95.937464 
L 168.580489 95.331654 
L 173.991398 91.427547 
L 175.07358 91.090986 
L 175.61467 90.754426 
L 178.861216 89.879367 
L 181.56667 88.936996 
L 182.648852 88.667748 
L 184.272125 87.927314 
L 184.813216 87.725377 
L 185.895398 87.523441 
L 186.436489 87.18688 
L 186.97758 87.052255 
L 187.51867 86.648382 
L 188.600852 86.513758 
L 189.683034 86.177197 
L 192.388489 85.773324 
L 193.47067 85.436763 
L 195.093943 85.234826 
L 195.635034 84.830953 
L 202.669216 83.955895 
L 203.210307 83.753958 
L 203.751398 83.753958 
L 204.83358 83.552021 
L 205.37467 83.484709 
L 206.456852 83.080836 
L 207.539034 83.013524 
L 208.080125 82.744275 
L 209.162307 82.676963 
L 211.32667 82.475027 
L 212.408852 82.407714 
L 214.032125 82.071153 
L 215.114307 82.071153 
L 215.655398 81.734592 
L 216.73758 81.66728 
L 217.819761 81.599968 
L 218.901943 81.66728 
L 221.066307 81.330719 
L 221.607398 81.465344 
L 222.148489 81.330719 
L 223.23067 81.330719 
L 223.771761 80.994158 
L 224.853943 80.926846 
L 229.18267 80.859534 
L 230.264852 80.657597 
L 230.805943 80.657597 
L 231.347034 80.522973 
L 232.429216 80.455661 
L 232.970307 80.321037 
L 234.052489 80.321037 
L 234.59358 80.186412 
L 240.004489 80.1191 
L 241.08667 80.051788 
L 245.415398 79.984476 
L 245.956489 79.849851 
L 249.744125 79.782539 
L 251.908489 79.580602 
L 258.40158 79.51329 
L 259.483761 79.445978 
L 265.435761 79.445978 
L 265.976852 79.311354 
L 269.223398 79.244042 
L 272.469943 78.907481 
L 277.880852 78.840168 
L 278.963034 78.772856 
L 290.867034 78.772856 
L 291.408125 78.638232 
L 295.195761 78.57092 
L 297.360125 78.368983 
L 300.06558 78.368983 
L 300.60667 78.57092 
L 321.168125 78.57092 
L 321.709216 78.705544 
L 322.791398 78.638232 
L 329.82558 78.705544 
L 330.907761 78.772856 
L 336.859761 78.840168 
L 337.941943 78.907481 
L 347.140489 78.840168 
L 348.22267 78.772856 
L 352.010307 78.705544 
L 353.092489 78.638232 
L 363.373216 78.705544 
L 364.455398 78.772856 
L 394.215398 78.772856 
L 394.215398 78.772856 
" style="fill:none;stroke:#0000f1;stroke-linecap:round;stroke-width:1.5;"/>
   </g>
   <g id="line2d_18">
    <path clip-path="url(#p1877422036)" d="M 69.560852 276.334125 
L 74.971761 276.266813 
L 76.053943 276.199501 
L 78.759398 276.132188 
L 80.38267 275.997564 
L 81.464852 275.997564 
L 82.547034 275.661003 
L 83.088125 275.526379 
L 83.629216 275.189818 
L 84.170307 275.189818 
L 84.711398 274.987881 
L 85.79358 274.247447 
L 86.875761 273.978198 
L 87.416852 273.574325 
L 87.957943 273.439701 
L 89.581216 272.295394 
L 90.663398 271.824208 
L 91.74558 270.814526 
L 93.909943 268.256663 
L 94.992125 266.910419 
L 95.533216 266.439234 
L 96.074307 266.169985 
L 96.615398 265.564175 
L 97.156489 264.621804 
L 97.69758 263.342873 
L 98.23867 262.467814 
L 98.779761 260.986946 
L 99.320852 260.111888 
L 100.403034 257.755961 
L 100.944125 257.08284 
L 102.026307 254.255728 
L 103.108489 252.236362 
L 103.64958 251.293991 
L 104.19067 249.880436 
L 104.731761 248.938065 
L 105.813943 246.178265 
L 106.355034 245.235895 
L 106.896125 243.55309 
L 108.519398 239.648983 
L 111.765943 229.754092 
L 112.307034 227.734726 
L 115.012489 220.195761 
L 115.55358 217.974459 
L 116.09467 216.426279 
L 116.635761 214.272289 
L 117.176852 213.195294 
L 119.341216 204.915895 
L 120.964489 199.261671 
L 122.587761 192.867013 
L 124.211034 187.54935 
L 126.916489 178.192956 
L 127.99867 175.163908 
L 129.080852 170.653991 
L 130.163034 168.298065 
L 130.704125 166.211387 
L 133.95067 156.787681 
L 134.491761 155.576062 
L 136.115034 150.056462 
L 136.656125 148.777531 
L 137.197216 147.094726 
L 137.738307 145.950419 
L 138.820489 143.190619 
L 139.36158 142.046312 
L 139.90267 141.171254 
L 140.984852 138.949951 
L 142.067034 137.199835 
L 142.608125 136.594025 
L 143.149216 134.91122 
L 144.772489 131.276362 
L 146.936852 127.237631 
L 147.477943 126.564509 
L 148.019034 125.35289 
L 149.101216 124.275895 
L 153.971034 116.333057 
L 155.053216 115.457998 
L 156.676489 113.37132 
L 157.75867 112.294325 
L 158.840852 111.150018 
L 159.381943 110.813457 
L 161.005216 109.534526 
L 161.546307 109.197965 
L 162.087398 108.592155 
L 162.628489 108.322906 
L 164.251761 107.043975 
L 164.792852 106.842038 
L 165.333943 106.438165 
L 166.416125 106.236229 
L 168.039398 104.957297 
L 169.12158 104.284175 
L 169.66267 104.149551 
L 170.203761 103.745678 
L 170.744852 103.678365 
L 171.827034 102.870619 
L 172.909216 102.332122 
L 173.450307 101.793624 
L 173.991398 101.659 
L 175.07358 101.05319 
L 175.61467 100.716629 
L 176.155761 100.514693 
L 177.779034 99.572322 
L 178.320125 99.437698 
L 178.861216 99.168449 
L 179.943398 98.29339 
L 180.484489 98.226078 
L 181.02558 97.889517 
L 182.107761 97.552956 
L 182.648852 97.485644 
L 183.731034 96.879835 
L 184.272125 96.74521 
L 185.354307 96.1394 
L 185.895398 96.072088 
L 186.436489 95.735527 
L 186.97758 95.870152 
L 188.059761 95.735527 
L 188.600852 95.533591 
L 189.141943 95.19703 
L 190.224125 95.19703 
L 191.847398 94.725845 
L 192.388489 94.793157 
L 192.92958 94.725845 
L 194.011761 94.321971 
L 194.552852 93.918098 
L 195.093943 93.918098 
L 196.176125 93.716162 
L 198.88158 93.379601 
L 199.42267 93.177664 
L 200.504852 93.04304 
L 201.587034 92.706479 
L 202.128125 92.706479 
L 202.669216 92.504542 
L 203.210307 92.504542 
L 204.292489 92.302606 
L 204.83358 91.764108 
L 208.621216 91.292923 
L 209.162307 91.090986 
L 209.703398 91.090986 
L 210.78558 90.821738 
L 211.32667 90.821738 
L 211.867761 90.687113 
L 213.491034 90.619801 
L 214.032125 90.417865 
L 217.819761 89.879367 
L 218.360852 89.744743 
L 219.984125 89.677431 
L 220.525216 89.542806 
L 225.936125 89.475494 
L 227.018307 89.408182 
L 228.100489 89.34087 
L 229.18267 89.273557 
L 231.888125 89.206245 
L 232.429216 89.071621 
L 236.757943 89.138933 
L 237.840125 89.206245 
L 276.25758 89.138933 
L 277.339761 89.071621 
L 283.832852 89.138933 
L 284.915034 89.206245 
L 293.031398 89.273557 
L 294.11358 89.34087 
L 300.06558 89.408182 
L 301.147761 89.475494 
L 355.256852 89.542806 
L 357.421216 89.744743 
L 387.181216 89.812055 
L 388.263398 89.879367 
L 394.215398 89.946679 
L 394.215398 89.946679 
" style="fill:none;stroke:#004cff;stroke-linecap:round;stroke-width:1.5;"/>
   </g>
   <g id="line2d_19">
    <path clip-path="url(#p1877422036)" d="M 69.560852 276.334125 
L 77.677216 276.266813 
L 78.759398 276.199501 
L 80.38267 276.132188 
L 81.464852 276.064876 
L 82.547034 275.997564 
L 84.170307 275.526379 
L 86.33467 274.65132 
L 87.416852 274.045511 
L 87.957943 273.776262 
L 89.040125 272.833891 
L 89.581216 272.362706 
L 90.663398 271.756896 
L 91.204489 271.218399 
L 91.74558 271.016462 
L 92.28667 270.679901 
L 92.827761 270.074092 
L 93.368852 269.266345 
L 94.451034 268.18935 
L 94.992125 267.650853 
L 95.533216 266.843107 
L 96.074307 266.304609 
L 97.156489 264.958365 
L 98.23867 262.669751 
L 98.779761 261.862005 
L 99.320852 260.717698 
L 101.485216 254.726913 
L 102.567398 253.11142 
L 103.108489 251.832489 
L 103.64958 249.947748 
L 104.19067 249.140001 
L 107.437216 238.168115 
L 107.978307 235.139067 
L 108.519398 233.38895 
L 110.14267 226.186546 
L 111.224852 220.734259 
L 111.765943 218.849517 
L 112.307034 216.224342 
L 112.848125 214.474225 
L 113.389216 212.320235 
L 113.930307 209.627748 
L 115.012489 205.521704 
L 116.09467 200.675227 
L 117.176852 196.703808 
L 117.717943 194.01132 
L 118.800125 190.039901 
L 119.341216 187.347414 
L 120.423398 183.375995 
L 120.964489 180.750819 
L 121.50558 179.068015 
L 122.04667 176.981337 
L 122.587761 175.433157 
L 124.211034 169.173123 
L 124.752125 166.278699 
L 125.293216 164.663207 
L 125.834307 162.239968 
L 127.45758 157.528115 
L 127.99867 156.383808 
L 128.539761 154.835628 
L 129.080852 153.69132 
L 129.621943 151.604643 
L 130.704125 148.575594 
L 132.327398 144.267614 
L 133.95067 140.565444 
L 134.491761 140.094259 
L 135.032852 138.344142 
L 135.573943 137.334459 
L 136.115034 136.728649 
L 136.656125 135.853591 
L 137.197216 134.709284 
L 137.738307 133.901537 
L 138.820489 131.612923 
L 139.36158 130.468616 
L 140.443761 128.718499 
L 140.984852 127.439567 
L 141.525943 126.699133 
L 142.608125 124.74708 
L 143.149216 123.939334 
L 144.231398 121.718032 
L 144.772489 121.112222 
L 145.31358 119.83329 
L 146.936852 117.477364 
L 147.477943 117.208115 
L 148.019034 116.534993 
L 148.560125 115.256062 
L 149.101216 115.054125 
L 149.642307 114.044442 
L 150.183398 113.640569 
L 151.26558 112.159701 
L 151.80667 111.486579 
L 152.347761 111.150018 
L 152.888852 110.476896 
L 153.429943 110.073023 
L 153.971034 109.332589 
L 155.594307 107.717097 
L 156.676489 106.976663 
L 158.840852 105.024609 
L 159.381943 103.947614 
L 159.923034 103.409117 
L 160.464125 103.072556 
L 161.546307 102.60137 
L 162.087398 102.264809 
L 162.628489 102.062873 
L 163.16958 101.659 
L 164.792852 100.985878 
L 165.333943 100.245444 
L 166.416125 99.370385 
L 166.957216 99.033824 
L 168.580489 98.629951 
L 169.12158 98.226078 
L 171.285943 97.687581 
L 171.827034 97.687581 
L 172.368125 97.35102 
L 172.909216 97.216395 
L 173.450307 96.947147 
L 174.532489 96.74521 
L 175.07358 96.677898 
L 175.61467 96.072088 
L 176.155761 95.937464 
L 177.237943 95.870152 
L 177.779034 95.600903 
L 178.320125 95.533591 
L 178.861216 95.264342 
L 179.402307 95.129718 
L 179.943398 94.860469 
L 181.02558 94.725845 
L 181.56667 94.523908 
L 182.648852 94.389284 
L 184.272125 93.850786 
L 186.436489 93.244976 
L 186.97758 92.975728 
L 188.059761 92.908415 
L 188.600852 92.706479 
L 189.141943 92.706479 
L 190.224125 92.369918 
L 191.847398 91.764108 
L 193.47067 91.696796 
L 194.011761 91.427547 
L 194.552852 91.292923 
L 197.799398 91.225611 
L 201.587034 90.821738 
L 202.128125 90.821738 
L 203.210307 90.619801 
L 206.997943 90.215928 
L 209.162307 90.215928 
L 209.703398 90.081304 
L 216.196489 90.013991 
L 217.819761 89.879367 
L 219.443034 89.812055 
L 220.525216 89.744743 
L 221.066307 89.812055 
L 222.68958 89.677431 
L 227.559398 89.610118 
L 229.723761 89.408182 
L 231.888125 89.34087 
L 237.299034 88.73506 
L 241.08667 88.667748 
L 242.168852 88.600436 
L 245.956489 88.667748 
L 247.03867 88.73506 
L 249.203034 88.667748 
L 250.285216 88.600436 
L 251.367398 88.667748 
L 258.40158 88.600436 
L 260.024852 88.465811 
L 265.435761 88.533123 
L 266.517943 88.600436 
L 284.915034 88.667748 
L 285.997216 88.73506 
L 322.791398 88.802372 
L 323.87358 88.869684 
L 332.531034 88.936996 
L 333.613216 89.004309 
L 348.22267 89.071621 
L 349.845943 89.206245 
L 372.571761 89.138933 
L 373.653943 89.071621 
L 387.181216 89.004309 
L 388.263398 88.936996 
L 390.427761 89.138933 
L 393.674307 89.206245 
L 394.215398 89.273557 
L 394.215398 89.273557 
" style="fill:none;stroke:#00b0ff;stroke-linecap:round;stroke-width:1.5;"/>
   </g>
   <g id="line2d_20">
    <path clip-path="url(#p1877422036)" d="M 69.560852 276.334125 
L 78.218307 276.266813 
L 79.300489 276.064876 
L 80.38267 275.86294 
L 81.464852 275.593691 
L 82.547034 275.593691 
L 83.088125 275.459067 
L 83.629216 275.055193 
L 84.170307 274.920569 
L 84.711398 274.65132 
L 85.252489 274.516696 
L 85.79358 274.516696 
L 87.957943 273.70895 
L 88.499034 273.372389 
L 90.122307 271.824208 
L 91.204489 271.487648 
L 92.28667 270.141404 
L 92.827761 269.872155 
L 93.368852 269.266345 
L 94.992125 266.910419 
L 95.533216 265.564175 
L 97.156489 262.669751 
L 98.23867 261.121571 
L 98.779761 259.640703 
L 99.320852 259.034893 
L 101.485216 253.380669 
L 102.026307 252.101738 
L 104.19067 244.562773 
L 104.731761 242.139534 
L 105.272852 240.322105 
L 105.813943 238.908549 
L 106.896125 233.860135 
L 107.437216 232.513891 
L 108.519398 227.936663 
L 109.060489 226.186546 
L 110.14267 220.46501 
L 112.848125 209.425811 
L 113.389216 206.666011 
L 113.930307 204.915895 
L 114.471398 202.694592 
L 115.55358 197.309617 
L 118.259034 186.539668 
L 118.800125 183.779868 
L 119.341216 182.366312 
L 120.423398 178.866078 
L 120.964489 176.712088 
L 122.587761 169.240436 
L 123.128852 167.22107 
L 123.669943 165.874826 
L 124.211034 163.316963 
L 124.752125 161.566846 
L 125.293216 158.874359 
L 125.834307 156.787681 
L 126.375398 155.306813 
L 126.916489 153.220135 
L 127.99867 150.258399 
L 129.621943 143.661804 
L 130.163034 142.248249 
L 130.704125 141.171254 
L 131.245216 139.353824 
L 133.95067 132.084108 
L 135.032852 129.05506 
L 135.573943 127.776128 
L 136.656125 124.275895 
L 137.197216 122.996963 
L 138.279398 121.448783 
L 138.820489 120.506412 
L 140.984852 115.929183 
L 142.067034 113.438633 
L 143.690307 109.534526 
L 145.31358 105.765043 
L 145.85467 104.889985 
L 146.395761 104.284175 
L 147.477943 102.60137 
L 150.183398 98.024142 
L 150.724489 97.754893 
L 151.26558 96.475961 
L 151.80667 95.80284 
L 152.888852 94.187347 
L 153.971034 92.571855 
L 154.512125 91.49486 
L 155.594307 89.879367 
L 157.21758 88.331187 
L 160.464125 84.965577 
L 161.005216 84.359768 
L 162.628489 83.080836 
L 163.16958 82.542339 
L 164.792852 81.465344 
L 165.333943 81.061471 
L 165.875034 80.859534 
L 166.416125 80.1191 
L 168.580489 78.974793 
L 169.66267 78.167047 
L 170.744852 77.830486 
L 171.285943 77.3593 
L 171.827034 77.224676 
L 172.368125 76.753491 
L 172.909216 76.618866 
L 174.532489 75.878432 
L 176.155761 75.20531 
L 176.696852 74.936062 
L 178.320125 73.724442 
L 178.861216 73.724442 
L 181.56667 73.118633 
L 182.648852 72.916696 
L 183.731034 72.714759 
L 185.895398 72.445511 
L 186.97758 71.907013 
L 187.51867 71.50314 
L 188.600852 71.233891 
L 189.141943 71.233891 
L 190.224125 70.628082 
L 191.847398 70.358833 
L 192.92958 70.089584 
L 193.47067 70.089584 
L 194.552852 69.685711 
L 195.635034 69.483774 
L 196.176125 69.281838 
L 198.340489 69.214526 
L 199.42267 69.147213 
L 199.963761 69.147213 
L 201.045943 68.810653 
L 201.587034 68.810653 
L 202.128125 68.676028 
L 202.669216 68.676028 
L 203.210307 68.541404 
L 204.292489 68.474092 
L 205.37467 68.406779 
L 206.997943 68.339467 
L 208.080125 68.070218 
L 208.621216 68.137531 
L 210.244489 68.002906 
L 211.32667 68.002906 
L 212.408852 67.80097 
L 213.491034 67.666345 
L 214.032125 67.464409 
L 215.114307 67.531721 
L 217.27867 67.329784 
L 218.901943 67.329784 
L 219.443034 67.19516 
L 223.23067 67.127848 
L 224.853943 66.993223 
L 226.477216 66.925911 
L 227.559398 66.858599 
L 228.64158 66.791287 
L 229.723761 66.723975 
L 231.888125 66.656663 
L 234.052489 66.454726 
L 243.251034 66.387414 
L 244.874307 66.252789 
L 248.120852 66.320102 
L 249.203034 66.387414 
L 279.504125 66.454726 
L 280.586307 66.522038 
L 295.195761 66.58935 
L 296.277943 66.656663 
L 309.805216 66.723975 
L 310.887398 66.791287 
L 372.03067 66.858599 
L 373.112852 66.925911 
L 394.215398 66.925911 
L 394.215398 66.925911 
" style="fill:none;stroke:#29ffce;stroke-linecap:round;stroke-width:1.5;"/>
   </g>
   <g id="line2d_21">
    <path clip-path="url(#p1877422036)" d="M 69.560852 276.334125 
L 75.512852 276.266813 
L 77.136125 276.132188 
L 78.759398 276.132188 
L 79.300489 275.930252 
L 80.923761 275.86294 
L 81.464852 275.728315 
L 82.005943 275.391754 
L 83.088125 274.987881 
L 83.629216 274.920569 
L 87.416852 272.968516 
L 87.957943 272.901203 
L 88.499034 272.564643 
L 89.040125 272.430018 
L 93.909943 267.448916 
L 94.992125 265.833424 
L 96.074307 263.814058 
L 96.615398 263.342873 
L 98.23867 260.313824 
L 99.320852 258.159835 
L 100.403034 255.87122 
L 101.485216 253.11142 
L 102.026307 251.361304 
L 103.64958 247.457197 
L 104.731761 243.418466 
L 105.813943 238.841237 
L 106.896125 235.273691 
L 107.437216 233.590886 
L 109.60158 224.840302 
L 111.224852 217.839835 
L 111.765943 215.887781 
L 113.389216 208.820001 
L 113.930307 206.93526 
L 117.717943 189.097531 
L 118.259034 185.933858 
L 118.800125 183.779868 
L 119.882307 178.394893 
L 120.423398 176.173591 
L 120.964489 174.490786 
L 121.50558 171.730986 
L 124.211034 161.566846 
L 125.293216 157.931988 
L 126.375398 153.152823 
L 126.916489 151.671955 
L 127.99867 147.902472 
L 128.539761 146.556229 
L 129.080852 144.873424 
L 129.621943 142.517497 
L 130.704125 139.2192 
L 131.245216 137.805644 
L 131.786307 135.651654 
L 132.327398 134.91122 
L 132.868489 133.834225 
L 133.95067 130.468616 
L 135.032852 127.978065 
L 135.573943 127.237631 
L 136.115034 125.622138 
L 136.656125 124.881704 
L 137.197216 122.929651 
L 137.738307 121.852656 
L 138.820489 120.237163 
L 139.36158 119.092856 
L 139.90267 118.352422 
L 141.525943 115.188749 
L 142.067034 114.717564 
L 143.690307 112.092389 
L 144.231398 111.486579 
L 145.31358 109.66915 
L 145.85467 109.130653 
L 146.936852 107.043975 
L 147.477943 106.370853 
L 148.019034 105.96698 
L 148.560125 105.226546 
L 149.101216 104.216863 
L 151.26558 101.457063 
L 152.347761 99.706946 
L 152.888852 98.8992 
L 155.053216 96.543274 
L 156.135398 96.004776 
L 157.21758 95.062405 
L 158.299761 94.120035 
L 158.840852 93.850786 
L 159.381943 93.177664 
L 159.923034 92.975728 
L 161.005216 92.235294 
L 162.628489 90.417865 
L 163.71067 89.946679 
L 164.251761 89.475494 
L 165.333943 89.004309 
L 165.875034 88.802372 
L 168.039398 87.321504 
L 168.580489 87.18688 
L 169.12158 86.783006 
L 172.368125 85.504075 
L 172.909216 85.234826 
L 174.532489 84.965577 
L 176.155761 83.686646 
L 176.696852 83.350085 
L 177.237943 83.215461 
L 177.779034 82.8789 
L 178.320125 82.676963 
L 179.943398 81.599968 
L 180.484489 81.599968 
L 183.189943 80.657597 
L 183.731034 80.1191 
L 184.813216 79.917163 
L 185.354307 79.917163 
L 186.436489 79.445978 
L 186.97758 79.109417 
L 188.059761 78.907481 
L 189.141943 78.57092 
L 189.683034 78.234359 
L 190.765216 77.897798 
L 191.847398 77.763173 
L 192.388489 77.561237 
L 194.011761 77.493925 
L 195.093943 77.291988 
L 196.176125 76.955427 
L 201.045943 75.743808 
L 201.587034 75.474559 
L 203.210307 75.339935 
L 205.37467 75.339935 
L 205.915761 75.20531 
L 206.456852 75.20531 
L 206.997943 75.070686 
L 207.539034 75.070686 
L 209.703398 74.599501 
L 210.78558 74.532188 
L 213.491034 73.926379 
L 215.114307 73.724442 
L 215.655398 73.455193 
L 216.196489 73.320569 
L 217.27867 73.253257 
L 224.312852 72.310886 
L 225.936125 71.974325 
L 227.018307 71.907013 
L 228.64158 71.772389 
L 229.723761 71.705077 
L 234.052489 71.166579 
L 234.59358 70.964643 
L 235.13467 70.964643 
L 235.675761 70.830018 
L 236.757943 70.830018 
L 237.299034 70.695394 
L 237.840125 70.695394 
L 238.381216 70.560769 
L 241.08667 70.493457 
L 241.627761 70.291521 
L 242.709943 70.224208 
L 243.792125 70.156896 
L 244.874307 69.95496 
L 246.49758 69.887648 
L 248.120852 69.753023 
L 250.285216 69.685711 
L 251.367398 69.483774 
L 252.44958 69.416462 
L 252.99067 69.416462 
L 253.531761 69.281838 
L 256.237216 69.214526 
L 257.860489 69.079901 
L 258.40158 69.079901 
L 259.483761 68.877965 
L 261.107034 68.810653 
L 262.730307 68.676028 
L 267.059034 68.608716 
L 267.600125 68.541404 
L 268.682307 68.608716 
L 269.764489 68.541404 
L 270.84667 68.474092 
L 274.634307 68.406779 
L 275.716489 68.339467 
L 276.25758 68.339467 
L 277.339761 68.137531 
L 278.421943 68.070218 
L 279.504125 68.002906 
L 288.16158 67.935594 
L 289.243761 67.868282 
L 313.051761 67.80097 
L 314.133943 67.733658 
L 318.46267 67.733658 
L 319.003761 67.599033 
L 321.168125 67.531721 
L 321.709216 67.464409 
L 322.791398 67.531721 
L 323.87358 67.464409 
L 324.955761 67.397097 
L 327.661216 67.329784 
L 329.82558 67.127848 
L 330.907761 67.127848 
L 331.448852 66.993223 
L 334.154307 66.925911 
L 335.236489 66.723975 
L 336.859761 66.858599 
L 352.551398 66.791287 
L 353.63358 66.723975 
L 384.475761 66.656663 
L 385.557943 66.58935 
L 390.968852 66.656663 
L 392.051034 66.723975 
L 394.215398 66.723975 
L 394.215398 66.723975 
" style="fill:none;stroke:#7dff7a;stroke-linecap:round;stroke-width:1.5;"/>
   </g>
   <g id="line2d_22">
    <path clip-path="url(#p1877422036)" d="M 69.560852 276.334125 
L 76.053943 276.266813 
L 78.759398 275.997564 
L 80.923761 275.930252 
L 82.005943 275.593691 
L 82.547034 275.324442 
L 83.629216 275.25713 
L 84.170307 275.189818 
L 84.711398 274.920569 
L 85.252489 274.920569 
L 85.79358 274.449384 
L 86.33467 274.180135 
L 86.875761 273.70895 
L 87.416852 273.641638 
L 90.122307 271.756896 
L 90.663398 271.420335 
L 91.204489 270.881838 
L 91.74558 270.141404 
L 92.28667 269.602906 
L 93.368852 269.131721 
L 93.909943 268.727848 
L 94.451034 267.718165 
L 97.69758 264.015995 
L 98.779761 262.265878 
L 99.320852 260.650385 
L 99.861943 259.640703 
L 100.403034 258.900269 
L 100.944125 257.890586 
L 102.567398 253.582606 
L 104.731761 248.130319 
L 106.896125 240.79329 
L 107.437216 239.447047 
L 109.60158 232.446579 
L 111.765943 223.224809 
L 112.848125 218.109083 
L 113.930307 214.00304 
L 114.471398 212.387547 
L 115.012489 209.964309 
L 116.09467 206.262138 
L 116.635761 204.377397 
L 117.717943 199.53092 
L 118.259034 197.780803 
L 122.587761 180.481571 
L 123.128852 178.93339 
L 123.669943 176.7794 
L 124.211034 174.086913 
L 124.752125 172.606045 
L 125.834307 169.038499 
L 126.916489 165.470953 
L 129.621943 157.9993 
L 130.163034 156.114559 
L 130.704125 154.90294 
L 131.245216 153.220135 
L 133.40958 148.171721 
L 135.032852 142.988683 
L 135.573943 141.642439 
L 136.656125 139.623073 
L 137.197216 138.142205 
L 138.279398 135.988215 
L 138.820489 135.113157 
L 139.90267 132.286045 
L 140.443761 131.612923 
L 140.984852 130.60324 
L 142.067034 128.180001 
L 143.149216 126.631821 
L 144.231398 124.073958 
L 144.772489 122.996963 
L 145.85467 121.583407 
L 146.936852 119.900602 
L 148.560125 117.813925 
L 149.101216 117.410052 
L 150.724489 115.659935 
L 151.80667 113.775193 
L 153.429943 112.227013 
L 155.594307 109.534526 
L 156.135398 109.130653 
L 156.676489 108.255594 
L 158.299761 107.043975 
L 158.840852 106.303541 
L 159.923034 105.36117 
L 161.005216 103.880302 
L 162.087398 103.409117 
L 162.628489 102.937931 
L 163.16958 102.803307 
L 163.71067 102.264809 
L 164.251761 101.995561 
L 165.333943 100.716629 
L 166.416125 99.908883 
L 166.957216 99.639634 
L 167.498307 99.639634 
L 168.039398 99.50501 
L 168.580489 99.50501 
L 169.12158 99.235761 
L 170.203761 98.360703 
L 170.744852 98.226078 
L 172.909216 97.149083 
L 173.450307 96.475961 
L 174.532489 96.072088 
L 175.07358 95.466279 
L 176.696852 94.927781 
L 177.779034 94.658532 
L 178.320125 94.658532 
L 178.861216 94.523908 
L 179.402307 94.120035 
L 180.484489 93.918098 
L 181.56667 93.716162 
L 182.107761 93.379601 
L 182.648852 93.379601 
L 183.731034 93.04304 
L 184.272125 93.04304 
L 185.354307 92.706479 
L 185.895398 92.43723 
L 186.436489 92.369918 
L 186.97758 92.033357 
L 188.600852 91.49486 
L 189.141943 91.49486 
L 191.306307 90.754426 
L 194.552852 90.28324 
L 195.635034 89.946679 
L 196.176125 89.879367 
L 196.717216 89.677431 
L 197.258307 89.610118 
L 197.799398 89.408182 
L 205.37467 88.533123 
L 206.997943 88.465811 
L 207.539034 88.398499 
L 208.621216 88.465811 
L 210.244489 88.398499 
L 211.32667 88.331187 
L 213.491034 88.263875 
L 216.73758 87.927314 
L 217.27867 87.927314 
L 217.819761 87.792689 
L 218.360852 87.792689 
L 218.901943 87.658065 
L 221.607398 87.590753 
L 224.312852 87.321504 
L 230.264852 87.388816 
L 232.970307 87.658065 
L 237.840125 87.590753 
L 241.627761 87.18688 
L 242.168852 87.18688 
L 243.251034 86.917631 
L 244.874307 86.850319 
L 245.415398 86.715694 
L 249.203034 86.648382 
L 251.367398 86.379133 
L 252.44958 86.446446 
L 253.531761 86.379133 
L 255.696125 86.311821 
L 256.778307 86.109885 
L 258.94267 86.042572 
L 260.024852 85.97526 
L 291.949216 86.042572 
L 293.031398 86.109885 
L 308.181943 86.177197 
L 309.264125 86.244509 
L 319.003761 86.311821 
L 320.085943 86.379133 
L 323.87358 86.446446 
L 324.955761 86.513758 
L 394.215398 86.58107 
L 394.215398 86.58107 
" style="fill:none;stroke:#ceff29;stroke-linecap:round;stroke-width:1.5;"/>
   </g>
   <g id="line2d_23">
    <path clip-path="url(#p1877422036)" d="M 69.560852 276.334125 
L 76.053943 276.266813 
L 77.136125 276.199501 
L 79.300489 276.132188 
L 79.84158 275.997564 
L 80.923761 275.930252 
L 82.005943 275.728315 
L 82.547034 275.661003 
L 84.711398 274.584008 
L 85.252489 274.449384 
L 85.79358 274.180135 
L 86.33467 274.112823 
L 87.416852 273.507013 
L 89.040125 272.430018 
L 89.581216 272.160769 
L 90.122307 271.55496 
L 91.204489 271.016462 
L 91.74558 270.410653 
L 92.827761 269.737531 
L 93.909943 268.593223 
L 94.451034 267.583541 
L 94.992125 266.843107 
L 95.533216 265.900736 
L 96.615398 265.227614 
L 97.156489 263.948683 
L 98.779761 261.458132 
L 99.861943 258.900269 
L 100.403034 257.284776 
L 100.944125 256.207781 
L 101.485216 254.592289 
L 102.026307 253.515294 
L 103.108489 250.822806 
L 103.64958 249.611187 
L 104.19067 247.524509 
L 104.731761 246.043641 
L 105.813943 242.543407 
L 106.896125 239.379734 
L 107.978307 236.417998 
L 109.060489 232.850452 
L 110.683761 226.253858 
L 111.224852 225.042239 
L 113.389216 217.974459 
L 114.471398 215.080035 
L 115.012489 213.531855 
L 115.55358 212.45486 
L 116.635761 208.887314 
L 117.176852 207.743006 
L 118.800125 202.088783 
L 119.341216 200.607915 
L 119.882307 199.665544 
L 120.964489 196.973057 
L 125.834307 185.126112 
L 126.916489 183.443307 
L 127.45758 182.972122 
L 129.080852 179.269951 
L 129.621943 178.664142 
L 130.704125 176.44284 
L 131.786307 174.961971 
L 135.573943 166.144075 
L 136.656125 164.393958 
L 137.197216 162.711153 
L 137.738307 161.701471 
L 138.279398 160.220602 
L 138.820489 159.143607 
L 139.36158 158.335861 
L 139.90267 157.326178 
L 140.443761 156.585744 
L 140.984852 155.172188 
L 142.608125 152.816262 
L 143.149216 152.345077 
L 144.772489 149.517965 
L 145.31358 148.575594 
L 146.936852 146.690853 
L 147.477943 146.28698 
L 148.019034 145.209985 
L 148.560125 144.402239 
L 149.101216 143.257931 
L 150.724489 141.37319 
L 151.26558 140.430819 
L 152.347761 137.872956 
L 152.888852 137.334459 
L 153.429943 136.257464 
L 155.594307 133.161103 
L 156.676489 131.074426 
L 157.75867 129.795494 
L 158.840852 127.708816 
L 159.381943 126.90107 
L 159.923034 125.756763 
L 161.005216 124.612456 
L 161.546307 123.400836 
L 162.628489 121.650719 
L 163.16958 121.179534 
L 163.71067 119.967915 
L 166.957216 115.659935 
L 169.66267 112.967447 
L 171.827034 109.803774 
L 172.909216 108.928716 
L 173.450307 108.322906 
L 174.532489 107.582472 
L 175.61467 106.101604 
L 176.155761 105.697731 
L 176.696852 105.024609 
L 177.237943 104.620736 
L 179.402307 102.130185 
L 179.943398 101.793624 
L 181.56667 100.312756 
L 182.107761 99.437698 
L 183.189943 98.629951 
L 184.272125 97.552956 
L 186.436489 95.533591 
L 186.97758 95.466279 
L 187.51867 94.860469 
L 189.141943 93.783474 
L 190.224125 92.841103 
L 191.847398 92.100669 
L 192.388489 91.898733 
L 193.47067 90.821738 
L 194.011761 90.754426 
L 194.552852 90.417865 
L 195.093943 90.350552 
L 196.717216 89.744743 
L 197.258307 89.408182 
L 197.799398 89.34087 
L 198.340489 88.936996 
L 198.88158 88.802372 
L 199.42267 88.465811 
L 199.963761 88.263875 
L 200.504852 87.927314 
L 203.210307 86.917631 
L 204.292489 86.244509 
L 204.83358 85.907948 
L 205.37467 85.907948 
L 205.915761 85.369451 
L 206.456852 85.234826 
L 208.080125 84.494392 
L 209.162307 84.42708 
L 209.703398 84.157831 
L 211.32667 83.686646 
L 211.867761 83.417397 
L 212.408852 83.350085 
L 214.573216 82.475027 
L 216.196489 81.734592 
L 216.73758 81.66728 
L 217.27867 81.465344 
L 217.819761 81.128783 
L 218.360852 80.994158 
L 218.901943 80.657597 
L 221.607398 80.388349 
L 222.148489 80.388349 
L 225.395034 79.580602 
L 225.936125 79.580602 
L 226.477216 79.311354 
L 229.18267 78.907481 
L 230.264852 78.705544 
L 232.429216 78.503607 
L 232.970307 78.503607 
L 233.511398 78.301671 
L 234.052489 78.301671 
L 234.59358 78.099734 
L 235.675761 78.032422 
L 236.757943 77.96511 
L 237.299034 77.695861 
L 239.463398 77.493925 
L 241.627761 77.426612 
L 242.709943 77.157364 
L 243.792125 77.090052 
L 247.579761 76.686178 
L 250.826307 76.618866 
L 251.367398 76.484242 
L 252.44958 76.41693 
L 254.072852 76.282305 
L 257.319398 76.214993 
L 259.483761 76.013057 
L 262.730307 76.080369 
L 263.812489 76.147681 
L 265.435761 76.013057 
L 268.141216 76.080369 
L 269.764489 76.214993 
L 277.339761 76.147681 
L 278.421943 76.080369 
L 280.045216 76.214993 
L 288.70267 76.282305 
L 289.784852 76.349617 
L 290.867034 76.282305 
L 295.736852 76.282305 
L 296.277943 76.147681 
L 304.935398 76.080369 
L 306.01758 76.013057 
L 314.675034 76.080369 
L 315.757216 76.147681 
L 316.839398 76.080369 
L 330.36667 76.147681 
L 331.448852 76.214993 
L 343.352852 76.282305 
L 344.435034 76.349617 
L 394.215398 76.282305 
L 394.215398 76.282305 
" style="fill:none;stroke:#ffc400;stroke-linecap:round;stroke-width:1.5;"/>
   </g>
   <g id="line2d_24">
    <path clip-path="url(#p1877422036)" d="M 69.560852 276.334125 
L 74.43067 276.266813 
L 76.053943 276.132188 
L 78.218307 276.064876 
L 78.759398 275.930252 
L 79.300489 275.661003 
L 79.84158 275.661003 
L 83.629216 274.718633 
L 84.711398 274.718633 
L 85.79358 274.112823 
L 87.416852 273.910886 
L 87.957943 273.70895 
L 88.499034 273.035828 
L 90.122307 271.622272 
L 91.204489 270.276028 
L 91.74558 269.939467 
L 92.28667 269.40097 
L 92.827761 268.660536 
L 93.368852 268.18935 
L 93.909943 267.045043 
L 94.451034 266.304609 
L 95.533216 265.227614 
L 97.156489 261.862005 
L 97.69758 260.246512 
L 98.23867 259.438766 
L 98.779761 258.294459 
L 99.320852 256.880903 
L 100.944125 253.784542 
L 101.485216 252.505611 
L 102.567398 248.938065 
L 103.64958 245.841704 
L 104.19067 244.1589 
L 105.813943 238.100803 
L 107.437216 232.715828 
L 108.519398 228.071287 
L 111.224852 214.474225 
L 111.765943 212.589484 
L 112.307034 210.166245 
L 112.848125 206.93526 
L 113.389216 205.185143 
L 117.176852 187.280102 
L 118.800125 177.452522 
L 125.293216 147.767848 
L 126.375398 143.796429 
L 127.45758 140.161571 
L 128.539761 134.91122 
L 129.080852 133.699601 
L 131.786307 123.535461 
L 132.327398 122.054592 
L 134.491761 113.97713 
L 135.032852 111.419267 
L 135.573943 110.005711 
L 136.115034 108.053658 
L 137.197216 104.957297 
L 137.738307 103.072556 
L 146.395761 83.955895 
L 148.560125 80.253724 
L 150.183398 78.234359 
L 153.429943 71.839701 
L 154.512125 70.426145 
L 155.053216 69.887648 
L 155.594307 69.079901 
L 156.135398 68.676028 
L 157.75867 66.185477 
L 159.923034 63.627614 
L 161.005216 62.28137 
L 162.087398 61.069751 
L 164.792852 57.838766 
L 165.333943 57.434893 
L 165.875034 56.694459 
L 166.416125 56.155961 
L 166.957216 55.8194 
L 168.039398 54.809718 
L 168.580489 54.203908 
L 169.12158 53.934659 
L 169.66267 53.261537 
L 170.744852 52.588415 
L 171.827034 52.11723 
L 172.368125 51.51142 
L 172.909216 51.242172 
L 173.450307 51.107547 
L 173.991398 50.501738 
L 174.532489 50.232489 
L 175.07358 49.693991 
L 177.779034 48.41506 
L 179.402307 48.011187 
L 180.484489 47.203441 
L 181.56667 46.934192 
L 182.107761 46.934192 
L 182.648852 46.463006 
L 183.189943 46.463006 
L 184.813216 46.059133 
L 185.354307 45.722572 
L 185.895398 45.587948 
L 186.97758 45.049451 
L 187.51867 45.049451 
L 189.683034 44.309016 
L 190.224125 44.309016 
L 190.765216 43.905143 
L 192.92958 43.635895 
L 194.011761 43.299334 
L 195.093943 43.232021 
L 197.799398 42.626212 
L 198.340489 42.5589 
L 198.88158 42.222339 
L 199.963761 41.95309 
L 200.504852 41.95309 
L 202.669216 41.481905 
L 203.210307 41.414592 
L 203.751398 41.078032 
L 205.915761 40.741471 
L 206.456852 40.606846 
L 207.539034 40.606846 
L 209.162307 40.270285 
L 211.32667 40.068349 
L 212.408852 40.001037 
L 212.949943 39.7991 
L 214.032125 39.597163 
L 215.114307 39.395227 
L 215.655398 39.395227 
L 216.196489 39.260602 
L 217.819761 39.260602 
L 218.360852 39.125978 
L 219.984125 39.058666 
L 221.607398 38.924042 
L 222.148489 38.991354 
L 222.68958 38.722105 
L 224.853943 38.183607 
L 226.477216 38.183607 
L 228.64158 37.577798 
L 229.18267 37.375861 
L 230.805943 37.308549 
L 233.511398 37.0393 
L 237.840125 37.106612 
L 238.922307 37.173925 
L 240.54558 37.106612 
L 244.874307 36.635427 
L 250.826307 36.568115 
L 251.908489 36.500803 
L 259.483761 36.500803 
L 260.565943 36.298866 
L 263.271398 36.029617 
L 264.89467 35.962305 
L 267.059034 35.760369 
L 269.223398 35.760369 
L 269.764489 35.625744 
L 273.552125 35.558432 
L 274.093216 35.423808 
L 275.175398 35.49112 
L 275.716489 35.423808 
L 276.25758 35.49112 
L 277.339761 35.423808 
L 279.504125 35.356496 
L 282.20958 35.087247 
L 286.538307 35.019935 
L 287.079398 34.817998 
L 288.70267 34.750686 
L 290.325943 34.616062 
L 293.572489 34.548749 
L 294.65467 34.481437 
L 319.544852 34.548749 
L 320.627034 34.616062 
L 322.250307 34.683374 
L 323.332489 34.750686 
L 335.236489 34.817998 
L 336.859761 34.952622 
L 345.517216 35.019935 
L 346.599398 35.087247 
L 388.263398 35.154559 
L 390.427761 35.356496 
L 394.215398 35.356496 
L 394.215398 35.356496 
" style="fill:none;stroke:#ff6800;stroke-linecap:round;stroke-width:1.5;"/>
   </g>
   <g id="line2d_25">
    <path clip-path="url(#p1877422036)" d="M 69.560852 276.334125 
L 74.971761 276.266813 
L 76.595034 276.132188 
L 79.300489 276.064876 
L 80.38267 275.728315 
L 83.088125 275.055193 
L 83.629216 274.785945 
L 84.170307 274.718633 
L 84.711398 274.516696 
L 85.252489 274.516696 
L 85.79358 274.045511 
L 87.957943 273.305077 
L 88.499034 272.699267 
L 91.204489 271.285711 
L 91.74558 270.612589 
L 92.28667 270.141404 
L 92.827761 269.468282 
L 93.909943 268.593223 
L 94.451034 268.054726 
L 94.992125 267.314292 
L 96.615398 264.689117 
L 97.156489 264.015995 
L 97.69758 262.939 
L 98.23867 262.131254 
L 100.944125 256.544342 
L 102.567398 252.909484 
L 103.108489 250.688182 
L 104.19067 247.793758 
L 110.14267 225.513424 
L 111.765943 218.31102 
L 112.848125 214.474225 
L 113.930307 209.762372 
L 115.012489 206.194826 
L 115.55358 204.915895 
L 116.09467 203.300402 
L 117.176852 199.127047 
L 119.341216 192.126579 
L 120.964489 186.135794 
L 124.752125 175.096596 
L 126.916489 168.028816 
L 127.45758 166.884509 
L 127.99867 165.134392 
L 128.539761 164.057397 
L 130.163034 159.816729 
L 130.704125 157.730052 
L 131.245216 156.383808 
L 131.786307 154.499067 
L 133.40958 151.133457 
L 134.491761 149.046779 
L 135.032852 147.363975 
L 137.738307 142.719434 
L 138.279398 141.979 
L 138.820489 140.969317 
L 139.36158 139.488449 
L 139.90267 138.344142 
L 140.443761 137.872956 
L 142.067034 135.180469 
L 142.608125 134.843908 
L 143.149216 134.103474 
L 143.690307 133.632289 
L 144.772489 132.15142 
L 145.31358 131.20905 
L 145.85467 130.872489 
L 146.936852 129.189684 
L 147.477943 128.853123 
L 148.560125 127.776128 
L 149.101216 127.50688 
L 149.642307 127.035694 
L 151.26558 125.083641 
L 151.80667 124.545143 
L 152.347761 124.275895 
L 152.888852 123.737397 
L 154.512125 122.996963 
L 155.594307 121.650719 
L 156.135398 121.04491 
L 156.676489 120.641037 
L 157.75867 120.169851 
L 159.381943 118.554359 
L 159.923034 118.419734 
L 160.464125 117.948549 
L 161.005216 117.813925 
L 162.087398 117.073491 
L 162.628489 116.400369 
L 163.16958 116.13112 
L 163.71067 115.457998 
L 164.251761 115.390686 
L 164.792852 115.121437 
L 165.333943 114.717564 
L 165.875034 114.58294 
L 166.957216 113.97713 
L 168.039398 113.775193 
L 169.12158 113.438633 
L 169.66267 112.967447 
L 171.827034 112.42895 
L 172.909216 111.755828 
L 173.450307 111.419267 
L 174.532489 111.21733 
L 175.07358 110.813457 
L 175.61467 110.746145 
L 176.155761 110.409584 
L 177.237943 110.342272 
L 179.402307 109.332589 
L 182.107761 108.726779 
L 182.648852 108.659467 
L 183.189943 108.457531 
L 184.813216 108.255594 
L 185.354307 107.919033 
L 185.895398 107.851721 
L 186.436489 107.582472 
L 187.51867 107.582472 
L 188.059761 107.447848 
L 189.141943 107.380536 
L 190.224125 107.313223 
L 192.388489 107.245911 
L 192.92958 106.976663 
L 193.47067 106.976663 
L 194.552852 106.707414 
L 195.635034 106.640102 
L 196.176125 106.438165 
L 200.504852 105.832355 
L 201.045943 105.697731 
L 202.669216 105.630419 
L 203.210307 105.495794 
L 204.292489 105.428482 
L 206.456852 105.226546 
L 207.539034 105.293858 
L 210.78558 105.226546 
L 211.867761 105.024609 
L 217.819761 104.957297 
L 218.901943 104.889985 
L 230.805943 104.822673 
L 232.970307 104.620736 
L 244.874307 104.688048 
L 245.956489 104.75536 
L 255.696125 104.822673 
L 256.778307 104.889985 
L 260.024852 104.957297 
L 261.107034 105.024609 
L 298.983398 105.091921 
L 300.06558 105.159234 
L 314.133943 105.226546 
L 315.216125 105.293858 
L 364.996489 105.226546 
L 366.07867 105.159234 
L 367.160852 105.226546 
L 377.98267 105.293858 
L 379.064852 105.36117 
L 394.215398 105.36117 
L 394.215398 105.36117 
" style="fill:none;stroke:#f10800;stroke-linecap:round;stroke-width:1.5;"/>
   </g>
   <g id="patch_3">
    <path d="M 53.328125 288.430125 
L 53.328125 22.318125 
" style="fill:none;stroke:#cccccc;stroke-linecap:square;stroke-linejoin:miter;stroke-width:0.8;"/>
   </g>
   <g id="patch_4">
    <path d="M 410.448125 288.430125 
L 410.448125 22.318125 
" style="fill:none;stroke:#cccccc;stroke-linecap:square;stroke-linejoin:miter;stroke-width:0.8;"/>
   </g>
   <g id="patch_5">
    <path d="M 53.328125 288.430125 
L 410.448125 288.430125 
" style="fill:none;stroke:#cccccc;stroke-linecap:square;stroke-linejoin:miter;stroke-width:0.8;"/>
   </g>
   <g id="patch_6">
    <path d="M 53.328125 22.318125 
L 410.448125 22.318125 
" style="fill:none;stroke:#cccccc;stroke-linecap:square;stroke-linejoin:miter;stroke-width:0.8;"/>
   </g>
   <g id="text_18">
    <!-- Long-lived Plasma cells -->
    <defs>
     <path d="M 9.8125 72.90625 
L 19.671875 72.90625 
L 19.671875 8.296875 
L 55.171875 8.296875 
L 55.171875 0 
L 9.8125 0 
z
" id="DejaVuSans-76"/>
     <path d="M 30.609375 48.390625 
Q 23.390625 48.390625 19.1875 42.75 
Q 14.984375 37.109375 14.984375 27.296875 
Q 14.984375 17.484375 19.15625 11.84375 
Q 23.34375 6.203125 30.609375 6.203125 
Q 37.796875 6.203125 41.984375 11.859375 
Q 46.1875 17.53125 46.1875 27.296875 
Q 46.1875 37.015625 41.984375 42.703125 
Q 37.796875 48.390625 30.609375 48.390625 
z
M 30.609375 56 
Q 42.328125 56 49.015625 48.375 
Q 55.71875 40.765625 55.71875 27.296875 
Q 55.71875 13.875 49.015625 6.21875 
Q 42.328125 -1.421875 30.609375 -1.421875 
Q 18.84375 -1.421875 12.171875 6.21875 
Q 5.515625 13.875 5.515625 27.296875 
Q 5.515625 40.765625 12.171875 48.375 
Q 18.84375 56 30.609375 56 
z
" id="DejaVuSans-111"/>
     <path d="M 45.40625 27.984375 
Q 45.40625 37.75 41.375 43.109375 
Q 37.359375 48.484375 30.078125 48.484375 
Q 22.859375 48.484375 18.828125 43.109375 
Q 14.796875 37.75 14.796875 27.984375 
Q 14.796875 18.265625 18.828125 12.890625 
Q 22.859375 7.515625 30.078125 7.515625 
Q 37.359375 7.515625 41.375 12.890625 
Q 45.40625 18.265625 45.40625 27.984375 
z
M 54.390625 6.78125 
Q 54.390625 -7.171875 48.1875 -13.984375 
Q 42 -20.796875 29.203125 -20.796875 
Q 24.46875 -20.796875 20.265625 -20.09375 
Q 16.0625 -19.390625 12.109375 -17.921875 
L 12.109375 -9.1875 
Q 16.0625 -11.328125 19.921875 -12.34375 
Q 23.78125 -13.375 27.78125 -13.375 
Q 36.625 -13.375 41.015625 -8.765625 
Q 45.40625 -4.15625 45.40625 5.171875 
L 45.40625 9.625 
Q 42.625 4.78125 38.28125 2.390625 
Q 33.9375 0 27.875 0 
Q 17.828125 0 11.671875 7.65625 
Q 5.515625 15.328125 5.515625 27.984375 
Q 5.515625 40.671875 11.671875 48.328125 
Q 17.828125 56 27.875 56 
Q 33.9375 56 38.28125 53.609375 
Q 42.625 51.21875 45.40625 46.390625 
L 45.40625 54.6875 
L 54.390625 54.6875 
z
" id="DejaVuSans-103"/>
     <path d="M 4.890625 31.390625 
L 31.203125 31.390625 
L 31.203125 23.390625 
L 4.890625 23.390625 
z
" id="DejaVuSans-45"/>
     <path d="M 2.984375 54.6875 
L 12.5 54.6875 
L 29.59375 8.796875 
L 46.6875 54.6875 
L 56.203125 54.6875 
L 35.6875 0 
L 23.484375 0 
z
" id="DejaVuSans-118"/>
     <path d="M 19.671875 64.796875 
L 19.671875 37.40625 
L 32.078125 37.40625 
Q 38.96875 37.40625 42.71875 40.96875 
Q 46.484375 44.53125 46.484375 51.125 
Q 46.484375 57.671875 42.71875 61.234375 
Q 38.96875 64.796875 32.078125 64.796875 
z
M 9.8125 72.90625 
L 32.078125 72.90625 
Q 44.34375 72.90625 50.609375 67.359375 
Q 56.890625 61.8125 56.890625 51.125 
Q 56.890625 40.328125 50.609375 34.8125 
Q 44.34375 29.296875 32.078125 29.296875 
L 19.671875 29.296875 
L 19.671875 0 
L 9.8125 0 
z
" id="DejaVuSans-80"/>
    </defs>
    <g style="fill:#262626;" transform="translate(161.84 16.318125)scale(0.12 -0.12)">
     <use xlink:href="#DejaVuSans-76"/>
     <use x="55.697266" xlink:href="#DejaVuSans-111"/>
     <use x="116.878906" xlink:href="#DejaVuSans-110"/>
     <use x="180.257812" xlink:href="#DejaVuSans-103"/>
     <use x="243.734375" xlink:href="#DejaVuSans-45"/>
     <use x="279.818359" xlink:href="#DejaVuSans-108"/>
     <use x="307.601562" xlink:href="#DejaVuSans-105"/>
     <use x="335.384766" xlink:href="#DejaVuSans-118"/>
     <use x="394.564453" xlink:href="#DejaVuSans-101"/>
     <use x="456.087891" xlink:href="#DejaVuSans-100"/>
     <use x="519.564453" xlink:href="#DejaVuSans-32"/>
     <use x="551.351562" xlink:href="#DejaVuSans-80"/>
     <use x="611.654297" xlink:href="#DejaVuSans-108"/>
     <use x="639.4375" xlink:href="#DejaVuSans-97"/>
     <use x="700.716797" xlink:href="#DejaVuSans-115"/>
     <use x="752.816406" xlink:href="#DejaVuSans-109"/>
     <use x="850.228516" xlink:href="#DejaVuSans-97"/>
     <use x="911.507812" xlink:href="#DejaVuSans-32"/>
     <use x="943.294922" xlink:href="#DejaVuSans-99"/>
     <use x="998.275391" xlink:href="#DejaVuSans-101"/>
     <use x="1059.798828" xlink:href="#DejaVuSans-108"/>
     <use x="1087.582031" xlink:href="#DejaVuSans-108"/>
     <use x="1115.365234" xlink:href="#DejaVuSans-115"/>
    </g>
   </g>
  </g>
 </g>
 <defs>
  <clipPath id="p1877422036">
   <rect height="266.112" width="357.12" x="53.328125" y="22.318125"/>
  </clipPath>
 </defs>
</svg>
