<?xml version="1.0" encoding="utf-8" standalone="no"?>
<!DOCTYPE svg PUBLIC "-//W3C//DTD SVG 1.1//EN"
  "http://www.w3.org/Graphics/SVG/1.1/DTD/svg11.dtd">
<!-- Created with matplotlib (https://matplotlib.org/) -->
<svg height="325.986375pt" version="1.1" viewBox="0 0 411.285625 325.986375" width="411.285625pt" xmlns="http://www.w3.org/2000/svg" xmlns:xlink="http://www.w3.org/1999/xlink">
 <defs>
  <style type="text/css">
*{stroke-linecap:butt;stroke-linejoin:round;white-space:pre;}
  </style>
 </defs>
 <g id="figure_1">
  <g id="patch_1">
   <path d="M 0 325.986375 
L 411.285625 325.986375 
L 411.285625 0 
L 0 0 
z
" style="fill:#ffffff;"/>
  </g>
  <g id="axes_1">
   <g id="patch_2">
    <path d="M 46.965625 288.430125 
L 404.085625 288.430125 
L 404.085625 22.318125 
L 46.965625 22.318125 
z
" style="fill:#ffffff;"/>
   </g>
   <g id="matplotlib.axis_1">
    <g id="xtick_1">
     <g id="line2d_1">
      <path clip-path="url(#pe3ed3269b3)" d="M 63.198352 288.430125 
L 63.198352 22.318125 
" style="fill:none;stroke:#cccccc;stroke-linecap:round;stroke-width:0.8;"/>
     </g>
     <g id="text_1">
      <!-- 0 -->
      <defs>
       <path d="M 31.78125 66.40625 
Q 24.171875 66.40625 20.328125 58.90625 
Q 16.5 51.421875 16.5 36.375 
Q 16.5 21.390625 20.328125 13.890625 
Q 24.171875 6.390625 31.78125 6.390625 
Q 39.453125 6.390625 43.28125 13.890625 
Q 47.125 21.390625 47.125 36.375 
Q 47.125 51.421875 43.28125 58.90625 
Q 39.453125 66.40625 31.78125 66.40625 
z
M 31.78125 74.21875 
Q 44.046875 74.21875 50.515625 64.515625 
Q 56.984375 54.828125 56.984375 36.375 
Q 56.984375 17.96875 50.515625 8.265625 
Q 44.046875 -1.421875 31.78125 -1.421875 
Q 19.53125 -1.421875 13.0625 8.265625 
Q 6.59375 17.96875 6.59375 36.375 
Q 6.59375 54.828125 13.0625 64.515625 
Q 19.53125 74.21875 31.78125 74.21875 
z
" id="DejaVuSans-48"/>
      </defs>
      <g style="fill:#262626;" transform="translate(60.017102 303.028562)scale(0.1 -0.1)">
       <use xlink:href="#DejaVuSans-48"/>
      </g>
     </g>
    </g>
    <g id="xtick_2">
     <g id="line2d_2">
      <path clip-path="url(#pe3ed3269b3)" d="M 117.307443 288.430125 
L 117.307443 22.318125 
" style="fill:none;stroke:#cccccc;stroke-linecap:round;stroke-width:0.8;"/>
     </g>
     <g id="text_2">
      <!-- 10 -->
      <defs>
       <path d="M 12.40625 8.296875 
L 28.515625 8.296875 
L 28.515625 63.921875 
L 10.984375 60.40625 
L 10.984375 69.390625 
L 28.421875 72.90625 
L 38.28125 72.90625 
L 38.28125 8.296875 
L 54.390625 8.296875 
L 54.390625 0 
L 12.40625 0 
z
" id="DejaVuSans-49"/>
      </defs>
      <g style="fill:#262626;" transform="translate(110.944943 303.028562)scale(0.1 -0.1)">
       <use xlink:href="#DejaVuSans-49"/>
       <use x="63.623047" xlink:href="#DejaVuSans-48"/>
      </g>
     </g>
    </g>
    <g id="xtick_3">
     <g id="line2d_3">
      <path clip-path="url(#pe3ed3269b3)" d="M 171.416534 288.430125 
L 171.416534 22.318125 
" style="fill:none;stroke:#cccccc;stroke-linecap:round;stroke-width:0.8;"/>
     </g>
     <g id="text_3">
      <!-- 20 -->
      <defs>
       <path d="M 19.1875 8.296875 
L 53.609375 8.296875 
L 53.609375 0 
L 7.328125 0 
L 7.328125 8.296875 
Q 12.9375 14.109375 22.625 23.890625 
Q 32.328125 33.6875 34.8125 36.53125 
Q 39.546875 41.84375 41.421875 45.53125 
Q 43.3125 49.21875 43.3125 52.78125 
Q 43.3125 58.59375 39.234375 62.25 
Q 35.15625 65.921875 28.609375 65.921875 
Q 23.96875 65.921875 18.8125 64.3125 
Q 13.671875 62.703125 7.8125 59.421875 
L 7.8125 69.390625 
Q 13.765625 71.78125 18.9375 73 
Q 24.125 74.21875 28.421875 74.21875 
Q 39.75 74.21875 46.484375 68.546875 
Q 53.21875 62.890625 53.21875 53.421875 
Q 53.21875 48.921875 51.53125 44.890625 
Q 49.859375 40.875 45.40625 35.40625 
Q 44.1875 33.984375 37.640625 27.21875 
Q 31.109375 20.453125 19.1875 8.296875 
z
" id="DejaVuSans-50"/>
      </defs>
      <g style="fill:#262626;" transform="translate(165.054034 303.028562)scale(0.1 -0.1)">
       <use xlink:href="#DejaVuSans-50"/>
       <use x="63.623047" xlink:href="#DejaVuSans-48"/>
      </g>
     </g>
    </g>
    <g id="xtick_4">
     <g id="line2d_4">
      <path clip-path="url(#pe3ed3269b3)" d="M 225.525625 288.430125 
L 225.525625 22.318125 
" style="fill:none;stroke:#cccccc;stroke-linecap:round;stroke-width:0.8;"/>
     </g>
     <g id="text_4">
      <!-- 30 -->
      <defs>
       <path d="M 40.578125 39.3125 
Q 47.65625 37.796875 51.625 33 
Q 55.609375 28.21875 55.609375 21.1875 
Q 55.609375 10.40625 48.1875 4.484375 
Q 40.765625 -1.421875 27.09375 -1.421875 
Q 22.515625 -1.421875 17.65625 -0.515625 
Q 12.796875 0.390625 7.625 2.203125 
L 7.625 11.71875 
Q 11.71875 9.328125 16.59375 8.109375 
Q 21.484375 6.890625 26.8125 6.890625 
Q 36.078125 6.890625 40.9375 10.546875 
Q 45.796875 14.203125 45.796875 21.1875 
Q 45.796875 27.640625 41.28125 31.265625 
Q 36.765625 34.90625 28.71875 34.90625 
L 20.21875 34.90625 
L 20.21875 43.015625 
L 29.109375 43.015625 
Q 36.375 43.015625 40.234375 45.921875 
Q 44.09375 48.828125 44.09375 54.296875 
Q 44.09375 59.90625 40.109375 62.90625 
Q 36.140625 65.921875 28.71875 65.921875 
Q 24.65625 65.921875 20.015625 65.03125 
Q 15.375 64.15625 9.8125 62.3125 
L 9.8125 71.09375 
Q 15.4375 72.65625 20.34375 73.4375 
Q 25.25 74.21875 29.59375 74.21875 
Q 40.828125 74.21875 47.359375 69.109375 
Q 53.90625 64.015625 53.90625 55.328125 
Q 53.90625 49.265625 50.4375 45.09375 
Q 46.96875 40.921875 40.578125 39.3125 
z
" id="DejaVuSans-51"/>
      </defs>
      <g style="fill:#262626;" transform="translate(219.163125 303.028562)scale(0.1 -0.1)">
       <use xlink:href="#DejaVuSans-51"/>
       <use x="63.623047" xlink:href="#DejaVuSans-48"/>
      </g>
     </g>
    </g>
    <g id="xtick_5">
     <g id="line2d_5">
      <path clip-path="url(#pe3ed3269b3)" d="M 279.634716 288.430125 
L 279.634716 22.318125 
" style="fill:none;stroke:#cccccc;stroke-linecap:round;stroke-width:0.8;"/>
     </g>
     <g id="text_5">
      <!-- 40 -->
      <defs>
       <path d="M 37.796875 64.3125 
L 12.890625 25.390625 
L 37.796875 25.390625 
z
M 35.203125 72.90625 
L 47.609375 72.90625 
L 47.609375 25.390625 
L 58.015625 25.390625 
L 58.015625 17.1875 
L 47.609375 17.1875 
L 47.609375 0 
L 37.796875 0 
L 37.796875 17.1875 
L 4.890625 17.1875 
L 4.890625 26.703125 
z
" id="DejaVuSans-52"/>
      </defs>
      <g style="fill:#262626;" transform="translate(273.272216 303.028562)scale(0.1 -0.1)">
       <use xlink:href="#DejaVuSans-52"/>
       <use x="63.623047" xlink:href="#DejaVuSans-48"/>
      </g>
     </g>
    </g>
    <g id="xtick_6">
     <g id="line2d_6">
      <path clip-path="url(#pe3ed3269b3)" d="M 333.743807 288.430125 
L 333.743807 22.318125 
" style="fill:none;stroke:#cccccc;stroke-linecap:round;stroke-width:0.8;"/>
     </g>
     <g id="text_6">
      <!-- 50 -->
      <defs>
       <path d="M 10.796875 72.90625 
L 49.515625 72.90625 
L 49.515625 64.59375 
L 19.828125 64.59375 
L 19.828125 46.734375 
Q 21.96875 47.46875 24.109375 47.828125 
Q 26.265625 48.1875 28.421875 48.1875 
Q 40.625 48.1875 47.75 41.5 
Q 54.890625 34.8125 54.890625 23.390625 
Q 54.890625 11.625 47.5625 5.09375 
Q 40.234375 -1.421875 26.90625 -1.421875 
Q 22.3125 -1.421875 17.546875 -0.640625 
Q 12.796875 0.140625 7.71875 1.703125 
L 7.71875 11.625 
Q 12.109375 9.234375 16.796875 8.0625 
Q 21.484375 6.890625 26.703125 6.890625 
Q 35.15625 6.890625 40.078125 11.328125 
Q 45.015625 15.765625 45.015625 23.390625 
Q 45.015625 31 40.078125 35.4375 
Q 35.15625 39.890625 26.703125 39.890625 
Q 22.75 39.890625 18.8125 39.015625 
Q 14.890625 38.140625 10.796875 36.28125 
z
" id="DejaVuSans-53"/>
      </defs>
      <g style="fill:#262626;" transform="translate(327.381307 303.028562)scale(0.1 -0.1)">
       <use xlink:href="#DejaVuSans-53"/>
       <use x="63.623047" xlink:href="#DejaVuSans-48"/>
      </g>
     </g>
    </g>
    <g id="xtick_7">
     <g id="line2d_7">
      <path clip-path="url(#pe3ed3269b3)" d="M 387.852898 288.430125 
L 387.852898 22.318125 
" style="fill:none;stroke:#cccccc;stroke-linecap:round;stroke-width:0.8;"/>
     </g>
     <g id="text_7">
      <!-- 60 -->
      <defs>
       <path d="M 33.015625 40.375 
Q 26.375 40.375 22.484375 35.828125 
Q 18.609375 31.296875 18.609375 23.390625 
Q 18.609375 15.53125 22.484375 10.953125 
Q 26.375 6.390625 33.015625 6.390625 
Q 39.65625 6.390625 43.53125 10.953125 
Q 47.40625 15.53125 47.40625 23.390625 
Q 47.40625 31.296875 43.53125 35.828125 
Q 39.65625 40.375 33.015625 40.375 
z
M 52.59375 71.296875 
L 52.59375 62.3125 
Q 48.875 64.0625 45.09375 64.984375 
Q 41.3125 65.921875 37.59375 65.921875 
Q 27.828125 65.921875 22.671875 59.328125 
Q 17.53125 52.734375 16.796875 39.40625 
Q 19.671875 43.65625 24.015625 45.921875 
Q 28.375 48.1875 33.59375 48.1875 
Q 44.578125 48.1875 50.953125 41.515625 
Q 57.328125 34.859375 57.328125 23.390625 
Q 57.328125 12.15625 50.6875 5.359375 
Q 44.046875 -1.421875 33.015625 -1.421875 
Q 20.359375 -1.421875 13.671875 8.265625 
Q 6.984375 17.96875 6.984375 36.375 
Q 6.984375 53.65625 15.1875 63.9375 
Q 23.390625 74.21875 37.203125 74.21875 
Q 40.921875 74.21875 44.703125 73.484375 
Q 48.484375 72.75 52.59375 71.296875 
z
" id="DejaVuSans-54"/>
      </defs>
      <g style="fill:#262626;" transform="translate(381.490398 303.028562)scale(0.1 -0.1)">
       <use xlink:href="#DejaVuSans-54"/>
       <use x="63.623047" xlink:href="#DejaVuSans-48"/>
      </g>
     </g>
    </g>
    <g id="text_8">
     <!-- time (days) -->
     <defs>
      <path d="M 18.3125 70.21875 
L 18.3125 54.6875 
L 36.8125 54.6875 
L 36.8125 47.703125 
L 18.3125 47.703125 
L 18.3125 18.015625 
Q 18.3125 11.328125 20.140625 9.421875 
Q 21.96875 7.515625 27.59375 7.515625 
L 36.8125 7.515625 
L 36.8125 0 
L 27.59375 0 
Q 17.1875 0 13.234375 3.875 
Q 9.28125 7.765625 9.28125 18.015625 
L 9.28125 47.703125 
L 2.6875 47.703125 
L 2.6875 54.6875 
L 9.28125 54.6875 
L 9.28125 70.21875 
z
" id="DejaVuSans-116"/>
      <path d="M 9.421875 54.6875 
L 18.40625 54.6875 
L 18.40625 0 
L 9.421875 0 
z
M 9.421875 75.984375 
L 18.40625 75.984375 
L 18.40625 64.59375 
L 9.421875 64.59375 
z
" id="DejaVuSans-105"/>
      <path d="M 52 44.1875 
Q 55.375 50.25 60.0625 53.125 
Q 64.75 56 71.09375 56 
Q 79.640625 56 84.28125 50.015625 
Q 88.921875 44.046875 88.921875 33.015625 
L 88.921875 0 
L 79.890625 0 
L 79.890625 32.71875 
Q 79.890625 40.578125 77.09375 44.375 
Q 74.3125 48.1875 68.609375 48.1875 
Q 61.625 48.1875 57.5625 43.546875 
Q 53.515625 38.921875 53.515625 30.90625 
L 53.515625 0 
L 44.484375 0 
L 44.484375 32.71875 
Q 44.484375 40.625 41.703125 44.40625 
Q 38.921875 48.1875 33.109375 48.1875 
Q 26.21875 48.1875 22.15625 43.53125 
Q 18.109375 38.875 18.109375 30.90625 
L 18.109375 0 
L 9.078125 0 
L 9.078125 54.6875 
L 18.109375 54.6875 
L 18.109375 46.1875 
Q 21.1875 51.21875 25.484375 53.609375 
Q 29.78125 56 35.6875 56 
Q 41.65625 56 45.828125 52.96875 
Q 50 49.953125 52 44.1875 
z
" id="DejaVuSans-109"/>
      <path d="M 56.203125 29.59375 
L 56.203125 25.203125 
L 14.890625 25.203125 
Q 15.484375 15.921875 20.484375 11.0625 
Q 25.484375 6.203125 34.421875 6.203125 
Q 39.59375 6.203125 44.453125 7.46875 
Q 49.3125 8.734375 54.109375 11.28125 
L 54.109375 2.78125 
Q 49.265625 0.734375 44.1875 -0.34375 
Q 39.109375 -1.421875 33.890625 -1.421875 
Q 20.796875 -1.421875 13.15625 6.1875 
Q 5.515625 13.8125 5.515625 26.8125 
Q 5.515625 40.234375 12.765625 48.109375 
Q 20.015625 56 32.328125 56 
Q 43.359375 56 49.78125 48.890625 
Q 56.203125 41.796875 56.203125 29.59375 
z
M 47.21875 32.234375 
Q 47.125 39.59375 43.09375 43.984375 
Q 39.0625 48.390625 32.421875 48.390625 
Q 24.90625 48.390625 20.390625 44.140625 
Q 15.875 39.890625 15.1875 32.171875 
z
" id="DejaVuSans-101"/>
      <path id="DejaVuSans-32"/>
      <path d="M 31 75.875 
Q 24.46875 64.65625 21.28125 53.65625 
Q 18.109375 42.671875 18.109375 31.390625 
Q 18.109375 20.125 21.3125 9.0625 
Q 24.515625 -2 31 -13.1875 
L 23.1875 -13.1875 
Q 15.875 -1.703125 12.234375 9.375 
Q 8.59375 20.453125 8.59375 31.390625 
Q 8.59375 42.28125 12.203125 53.3125 
Q 15.828125 64.359375 23.1875 75.875 
z
" id="DejaVuSans-40"/>
      <path d="M 45.40625 46.390625 
L 45.40625 75.984375 
L 54.390625 75.984375 
L 54.390625 0 
L 45.40625 0 
L 45.40625 8.203125 
Q 42.578125 3.328125 38.25 0.953125 
Q 33.9375 -1.421875 27.875 -1.421875 
Q 17.96875 -1.421875 11.734375 6.484375 
Q 5.515625 14.40625 5.515625 27.296875 
Q 5.515625 40.1875 11.734375 48.09375 
Q 17.96875 56 27.875 56 
Q 33.9375 56 38.25 53.625 
Q 42.578125 51.265625 45.40625 46.390625 
z
M 14.796875 27.296875 
Q 14.796875 17.390625 18.875 11.75 
Q 22.953125 6.109375 30.078125 6.109375 
Q 37.203125 6.109375 41.296875 11.75 
Q 45.40625 17.390625 45.40625 27.296875 
Q 45.40625 37.203125 41.296875 42.84375 
Q 37.203125 48.484375 30.078125 48.484375 
Q 22.953125 48.484375 18.875 42.84375 
Q 14.796875 37.203125 14.796875 27.296875 
z
" id="DejaVuSans-100"/>
      <path d="M 34.28125 27.484375 
Q 23.390625 27.484375 19.1875 25 
Q 14.984375 22.515625 14.984375 16.5 
Q 14.984375 11.71875 18.140625 8.90625 
Q 21.296875 6.109375 26.703125 6.109375 
Q 34.1875 6.109375 38.703125 11.40625 
Q 43.21875 16.703125 43.21875 25.484375 
L 43.21875 27.484375 
z
M 52.203125 31.203125 
L 52.203125 0 
L 43.21875 0 
L 43.21875 8.296875 
Q 40.140625 3.328125 35.546875 0.953125 
Q 30.953125 -1.421875 24.3125 -1.421875 
Q 15.921875 -1.421875 10.953125 3.296875 
Q 6 8.015625 6 15.921875 
Q 6 25.140625 12.171875 29.828125 
Q 18.359375 34.515625 30.609375 34.515625 
L 43.21875 34.515625 
L 43.21875 35.40625 
Q 43.21875 41.609375 39.140625 45 
Q 35.0625 48.390625 27.6875 48.390625 
Q 23 48.390625 18.546875 47.265625 
Q 14.109375 46.140625 10.015625 43.890625 
L 10.015625 52.203125 
Q 14.9375 54.109375 19.578125 55.046875 
Q 24.21875 56 28.609375 56 
Q 40.484375 56 46.34375 49.84375 
Q 52.203125 43.703125 52.203125 31.203125 
z
" id="DejaVuSans-97"/>
      <path d="M 32.171875 -5.078125 
Q 28.375 -14.84375 24.75 -17.8125 
Q 21.140625 -20.796875 15.09375 -20.796875 
L 7.90625 -20.796875 
L 7.90625 -13.28125 
L 13.1875 -13.28125 
Q 16.890625 -13.28125 18.9375 -11.515625 
Q 21 -9.765625 23.484375 -3.21875 
L 25.09375 0.875 
L 2.984375 54.6875 
L 12.5 54.6875 
L 29.59375 11.921875 
L 46.6875 54.6875 
L 56.203125 54.6875 
z
" id="DejaVuSans-121"/>
      <path d="M 44.28125 53.078125 
L 44.28125 44.578125 
Q 40.484375 46.53125 36.375 47.5 
Q 32.28125 48.484375 27.875 48.484375 
Q 21.1875 48.484375 17.84375 46.4375 
Q 14.5 44.390625 14.5 40.28125 
Q 14.5 37.15625 16.890625 35.375 
Q 19.28125 33.59375 26.515625 31.984375 
L 29.59375 31.296875 
Q 39.15625 29.25 43.1875 25.515625 
Q 47.21875 21.78125 47.21875 15.09375 
Q 47.21875 7.46875 41.1875 3.015625 
Q 35.15625 -1.421875 24.609375 -1.421875 
Q 20.21875 -1.421875 15.453125 -0.5625 
Q 10.6875 0.296875 5.421875 2 
L 5.421875 11.28125 
Q 10.40625 8.6875 15.234375 7.390625 
Q 20.0625 6.109375 24.8125 6.109375 
Q 31.15625 6.109375 34.5625 8.28125 
Q 37.984375 10.453125 37.984375 14.40625 
Q 37.984375 18.0625 35.515625 20.015625 
Q 33.0625 21.96875 24.703125 23.78125 
L 21.578125 24.515625 
Q 13.234375 26.265625 9.515625 29.90625 
Q 5.8125 33.546875 5.8125 39.890625 
Q 5.8125 47.609375 11.28125 51.796875 
Q 16.75 56 26.8125 56 
Q 31.78125 56 36.171875 55.265625 
Q 40.578125 54.546875 44.28125 53.078125 
z
" id="DejaVuSans-115"/>
      <path d="M 8.015625 75.875 
L 15.828125 75.875 
Q 23.140625 64.359375 26.78125 53.3125 
Q 30.421875 42.28125 30.421875 31.390625 
Q 30.421875 20.453125 26.78125 9.375 
Q 23.140625 -1.703125 15.828125 -13.1875 
L 8.015625 -13.1875 
Q 14.5 -2 17.703125 9.0625 
Q 20.90625 20.125 20.90625 31.390625 
Q 20.90625 42.671875 17.703125 53.65625 
Q 14.5 64.65625 8.015625 75.875 
z
" id="DejaVuSans-41"/>
     </defs>
     <g style="fill:#262626;" transform="translate(196.936563 316.706687)scale(0.1 -0.1)">
      <use xlink:href="#DejaVuSans-116"/>
      <use x="39.208984" xlink:href="#DejaVuSans-105"/>
      <use x="66.992188" xlink:href="#DejaVuSans-109"/>
      <use x="164.404297" xlink:href="#DejaVuSans-101"/>
      <use x="225.927734" xlink:href="#DejaVuSans-32"/>
      <use x="257.714844" xlink:href="#DejaVuSans-40"/>
      <use x="296.728516" xlink:href="#DejaVuSans-100"/>
      <use x="360.205078" xlink:href="#DejaVuSans-97"/>
      <use x="421.484375" xlink:href="#DejaVuSans-121"/>
      <use x="480.664062" xlink:href="#DejaVuSans-115"/>
      <use x="532.763672" xlink:href="#DejaVuSans-41"/>
     </g>
    </g>
   </g>
   <g id="matplotlib.axis_2">
    <g id="ytick_1">
     <g id="line2d_8">
      <path clip-path="url(#pe3ed3269b3)" d="M 46.965625 276.334125 
L 404.085625 276.334125 
" style="fill:none;stroke:#cccccc;stroke-linecap:round;stroke-width:0.8;"/>
     </g>
     <g id="text_9">
      <!-- 0 -->
      <g style="fill:#262626;" transform="translate(33.603125 280.133344)scale(0.1 -0.1)">
       <use xlink:href="#DejaVuSans-48"/>
      </g>
     </g>
    </g>
    <g id="ytick_2">
     <g id="line2d_9">
      <path clip-path="url(#pe3ed3269b3)" d="M 46.965625 238.534125 
L 404.085625 238.534125 
" style="fill:none;stroke:#cccccc;stroke-linecap:round;stroke-width:0.8;"/>
     </g>
     <g id="text_10">
      <!-- 100 -->
      <g style="fill:#262626;" transform="translate(20.878125 242.333344)scale(0.1 -0.1)">
       <use xlink:href="#DejaVuSans-49"/>
       <use x="63.623047" xlink:href="#DejaVuSans-48"/>
       <use x="127.246094" xlink:href="#DejaVuSans-48"/>
      </g>
     </g>
    </g>
    <g id="ytick_3">
     <g id="line2d_10">
      <path clip-path="url(#pe3ed3269b3)" d="M 46.965625 200.734125 
L 404.085625 200.734125 
" style="fill:none;stroke:#cccccc;stroke-linecap:round;stroke-width:0.8;"/>
     </g>
     <g id="text_11">
      <!-- 200 -->
      <g style="fill:#262626;" transform="translate(20.878125 204.533344)scale(0.1 -0.1)">
       <use xlink:href="#DejaVuSans-50"/>
       <use x="63.623047" xlink:href="#DejaVuSans-48"/>
       <use x="127.246094" xlink:href="#DejaVuSans-48"/>
      </g>
     </g>
    </g>
    <g id="ytick_4">
     <g id="line2d_11">
      <path clip-path="url(#pe3ed3269b3)" d="M 46.965625 162.934125 
L 404.085625 162.934125 
" style="fill:none;stroke:#cccccc;stroke-linecap:round;stroke-width:0.8;"/>
     </g>
     <g id="text_12">
      <!-- 300 -->
      <g style="fill:#262626;" transform="translate(20.878125 166.733344)scale(0.1 -0.1)">
       <use xlink:href="#DejaVuSans-51"/>
       <use x="63.623047" xlink:href="#DejaVuSans-48"/>
       <use x="127.246094" xlink:href="#DejaVuSans-48"/>
      </g>
     </g>
    </g>
    <g id="ytick_5">
     <g id="line2d_12">
      <path clip-path="url(#pe3ed3269b3)" d="M 46.965625 125.134125 
L 404.085625 125.134125 
" style="fill:none;stroke:#cccccc;stroke-linecap:round;stroke-width:0.8;"/>
     </g>
     <g id="text_13">
      <!-- 400 -->
      <g style="fill:#262626;" transform="translate(20.878125 128.933344)scale(0.1 -0.1)">
       <use xlink:href="#DejaVuSans-52"/>
       <use x="63.623047" xlink:href="#DejaVuSans-48"/>
       <use x="127.246094" xlink:href="#DejaVuSans-48"/>
      </g>
     </g>
    </g>
    <g id="ytick_6">
     <g id="line2d_13">
      <path clip-path="url(#pe3ed3269b3)" d="M 46.965625 87.334125 
L 404.085625 87.334125 
" style="fill:none;stroke:#cccccc;stroke-linecap:round;stroke-width:0.8;"/>
     </g>
     <g id="text_14">
      <!-- 500 -->
      <g style="fill:#262626;" transform="translate(20.878125 91.133344)scale(0.1 -0.1)">
       <use xlink:href="#DejaVuSans-53"/>
       <use x="63.623047" xlink:href="#DejaVuSans-48"/>
       <use x="127.246094" xlink:href="#DejaVuSans-48"/>
      </g>
     </g>
    </g>
    <g id="ytick_7">
     <g id="line2d_14">
      <path clip-path="url(#pe3ed3269b3)" d="M 46.965625 49.534125 
L 404.085625 49.534125 
" style="fill:none;stroke:#cccccc;stroke-linecap:round;stroke-width:0.8;"/>
     </g>
     <g id="text_15">
      <!-- 600 -->
      <g style="fill:#262626;" transform="translate(20.878125 53.333344)scale(0.1 -0.1)">
       <use xlink:href="#DejaVuSans-54"/>
       <use x="63.623047" xlink:href="#DejaVuSans-48"/>
       <use x="127.246094" xlink:href="#DejaVuSans-48"/>
      </g>
     </g>
    </g>
    <g id="text_16">
     <!-- cells number -->
     <defs>
      <path d="M 48.78125 52.59375 
L 48.78125 44.1875 
Q 44.96875 46.296875 41.140625 47.34375 
Q 37.3125 48.390625 33.40625 48.390625 
Q 24.65625 48.390625 19.8125 42.84375 
Q 14.984375 37.3125 14.984375 27.296875 
Q 14.984375 17.28125 19.8125 11.734375 
Q 24.65625 6.203125 33.40625 6.203125 
Q 37.3125 6.203125 41.140625 7.25 
Q 44.96875 8.296875 48.78125 10.40625 
L 48.78125 2.09375 
Q 45.015625 0.34375 40.984375 -0.53125 
Q 36.96875 -1.421875 32.421875 -1.421875 
Q 20.0625 -1.421875 12.78125 6.34375 
Q 5.515625 14.109375 5.515625 27.296875 
Q 5.515625 40.671875 12.859375 48.328125 
Q 20.21875 56 33.015625 56 
Q 37.15625 56 41.109375 55.140625 
Q 45.0625 54.296875 48.78125 52.59375 
z
" id="DejaVuSans-99"/>
      <path d="M 9.421875 75.984375 
L 18.40625 75.984375 
L 18.40625 0 
L 9.421875 0 
z
" id="DejaVuSans-108"/>
      <path d="M 54.890625 33.015625 
L 54.890625 0 
L 45.90625 0 
L 45.90625 32.71875 
Q 45.90625 40.484375 42.875 44.328125 
Q 39.84375 48.1875 33.796875 48.1875 
Q 26.515625 48.1875 22.3125 43.546875 
Q 18.109375 38.921875 18.109375 30.90625 
L 18.109375 0 
L 9.078125 0 
L 9.078125 54.6875 
L 18.109375 54.6875 
L 18.109375 46.1875 
Q 21.34375 51.125 25.703125 53.5625 
Q 30.078125 56 35.796875 56 
Q 45.21875 56 50.046875 50.171875 
Q 54.890625 44.34375 54.890625 33.015625 
z
" id="DejaVuSans-110"/>
      <path d="M 8.5 21.578125 
L 8.5 54.6875 
L 17.484375 54.6875 
L 17.484375 21.921875 
Q 17.484375 14.15625 20.5 10.265625 
Q 23.53125 6.390625 29.59375 6.390625 
Q 36.859375 6.390625 41.078125 11.03125 
Q 45.3125 15.671875 45.3125 23.6875 
L 45.3125 54.6875 
L 54.296875 54.6875 
L 54.296875 0 
L 45.3125 0 
L 45.3125 8.40625 
Q 42.046875 3.421875 37.71875 1 
Q 33.40625 -1.421875 27.6875 -1.421875 
Q 18.265625 -1.421875 13.375 4.4375 
Q 8.5 10.296875 8.5 21.578125 
z
M 31.109375 56 
z
" id="DejaVuSans-117"/>
      <path d="M 48.6875 27.296875 
Q 48.6875 37.203125 44.609375 42.84375 
Q 40.53125 48.484375 33.40625 48.484375 
Q 26.265625 48.484375 22.1875 42.84375 
Q 18.109375 37.203125 18.109375 27.296875 
Q 18.109375 17.390625 22.1875 11.75 
Q 26.265625 6.109375 33.40625 6.109375 
Q 40.53125 6.109375 44.609375 11.75 
Q 48.6875 17.390625 48.6875 27.296875 
z
M 18.109375 46.390625 
Q 20.953125 51.265625 25.265625 53.625 
Q 29.59375 56 35.59375 56 
Q 45.5625 56 51.78125 48.09375 
Q 58.015625 40.1875 58.015625 27.296875 
Q 58.015625 14.40625 51.78125 6.484375 
Q 45.5625 -1.421875 35.59375 -1.421875 
Q 29.59375 -1.421875 25.265625 0.953125 
Q 20.953125 3.328125 18.109375 8.203125 
L 18.109375 0 
L 9.078125 0 
L 9.078125 75.984375 
L 18.109375 75.984375 
z
" id="DejaVuSans-98"/>
      <path d="M 41.109375 46.296875 
Q 39.59375 47.171875 37.8125 47.578125 
Q 36.03125 48 33.890625 48 
Q 26.265625 48 22.1875 43.046875 
Q 18.109375 38.09375 18.109375 28.8125 
L 18.109375 0 
L 9.078125 0 
L 9.078125 54.6875 
L 18.109375 54.6875 
L 18.109375 46.1875 
Q 20.953125 51.171875 25.484375 53.578125 
Q 30.03125 56 36.53125 56 
Q 37.453125 56 38.578125 55.875 
Q 39.703125 55.765625 41.0625 55.515625 
z
" id="DejaVuSans-114"/>
     </defs>
     <g style="fill:#262626;" transform="translate(14.798438 187.685844)rotate(-90)scale(0.1 -0.1)">
      <use xlink:href="#DejaVuSans-99"/>
      <use x="54.980469" xlink:href="#DejaVuSans-101"/>
      <use x="116.503906" xlink:href="#DejaVuSans-108"/>
      <use x="144.287109" xlink:href="#DejaVuSans-108"/>
      <use x="172.070312" xlink:href="#DejaVuSans-115"/>
      <use x="224.169922" xlink:href="#DejaVuSans-32"/>
      <use x="255.957031" xlink:href="#DejaVuSans-110"/>
      <use x="319.335938" xlink:href="#DejaVuSans-117"/>
      <use x="382.714844" xlink:href="#DejaVuSans-109"/>
      <use x="480.126953" xlink:href="#DejaVuSans-98"/>
      <use x="543.603516" xlink:href="#DejaVuSans-101"/>
      <use x="605.126953" xlink:href="#DejaVuSans-114"/>
     </g>
    </g>
   </g>
   <g id="line2d_15">
    <path clip-path="url(#pe3ed3269b3)" d="M 63.198352 276.334125 
L 64.821625 276.334125 
L 65.362716 275.578125 
L 65.903807 273.688125 
L 66.444898 272.554125 
L 68.06817 262.348125 
L 69.691443 247.606125 
L 70.773625 235.888125 
L 71.314716 231.730125 
L 71.855807 221.524125 
L 72.396898 215.098125 
L 72.937989 206.782125 
L 73.47908 204.892125 
L 74.561261 185.992125 
L 75.102352 178.810125 
L 75.643443 173.518125 
L 76.184534 169.738125 
L 77.266716 153.106125 
L 78.348898 144.790125 
L 78.889989 136.852125 
L 79.43108 131.938125 
L 80.513261 114.928125 
L 81.054352 108.124125 
L 82.136534 99.808125 
L 82.677625 90.736125 
L 83.218716 88.090125 
L 83.759807 81.664125 
L 85.38308 68.812125 
L 86.465261 64.654125 
L 87.006352 66.922125 
L 87.547443 64.654125 
L 88.088534 63.898125 
L 88.629625 64.276125 
L 89.170716 65.788125 
L 89.711807 66.922125 
L 90.252898 66.922125 
L 90.793989 67.300125 
L 91.33508 68.434125 
L 91.87617 69.946125 
L 92.417261 72.214125 
L 92.958352 76.750125 
L 93.499443 78.640125 
L 94.040534 79.396125 
L 94.581625 81.286125 
L 95.122716 82.042125 
L 96.745989 94.894125 
L 97.28708 100.942125 
L 97.82817 103.588125 
L 98.369261 104.722125 
L 98.910352 106.612125 
L 99.451443 107.368125 
L 99.992534 111.526125 
L 100.533625 114.550125 
L 101.615807 122.866125 
L 102.156898 125.512125 
L 102.697989 130.048125 
L 103.23908 133.072125 
L 103.78017 134.584125 
L 104.321261 137.608125 
L 105.944534 143.278125 
L 107.026716 144.790125 
L 108.108898 148.192125 
L 108.649989 149.704125 
L 109.19108 150.082125 
L 110.273261 152.350125 
L 110.814352 156.130125 
L 111.355443 156.886125 
L 111.896534 159.532125 
L 112.437625 161.044125 
L 112.978716 161.800125 
L 113.519807 161.044125 
L 114.601989 161.800125 
L 115.14308 163.312125 
L 115.68417 165.202125 
L 116.225261 165.580125 
L 116.766352 167.092125 
L 117.307443 169.738125 
L 117.848534 170.494125 
L 118.389625 172.384125 
L 118.930716 172.384125 
L 119.471807 171.628125 
L 120.012898 173.896125 
L 120.553989 174.274125 
L 121.09508 175.408125 
L 121.63617 178.810125 
L 122.177261 180.700125 
L 122.718352 181.456125 
L 123.259443 183.346125 
L 123.800534 184.102125 
L 124.882716 188.260125 
L 125.964898 190.528125 
L 126.505989 192.040125 
L 127.04708 191.662125 
L 127.58817 190.528125 
L 128.129261 191.662125 
L 128.670352 191.662125 
L 129.211443 193.174125 
L 130.293625 197.710125 
L 130.834716 198.844125 
L 131.375807 198.466125 
L 132.457989 203.002125 
L 133.54017 206.026125 
L 134.622352 210.184125 
L 135.163443 210.940125 
L 136.245625 211.696125 
L 137.868898 217.744125 
L 138.409989 220.012125 
L 139.49217 222.280125 
L 140.033261 224.548125 
L 140.574352 224.926125 
L 141.115443 225.682125 
L 141.656534 227.194125 
L 142.197625 228.328125 
L 142.738716 229.084125 
L 143.279807 230.218125 
L 143.820898 230.974125 
L 145.44417 232.108125 
L 146.526352 235.132125 
L 148.149625 236.266125 
L 148.690716 236.266125 
L 149.231807 236.644125 
L 149.772898 237.400125 
L 150.313989 237.778125 
L 150.85508 238.912125 
L 151.39617 238.912125 
L 151.937261 240.046125 
L 152.478352 241.936125 
L 153.019443 242.692125 
L 153.560534 242.692125 
L 154.101625 243.448125 
L 154.642716 243.826125 
L 155.183807 244.582125 
L 155.724898 245.716125 
L 156.265989 246.094125 
L 156.80708 246.850125 
L 157.34817 247.984125 
L 157.889261 248.362125 
L 158.430352 249.118125 
L 160.053625 250.252125 
L 160.594716 251.008125 
L 161.135807 251.386125 
L 161.676898 251.386125 
L 162.217989 252.520125 
L 162.75908 253.276125 
L 163.30017 253.654125 
L 164.382352 255.922125 
L 164.923443 255.922125 
L 165.464534 257.056125 
L 166.005625 257.056125 
L 166.546716 258.568125 
L 167.628898 258.568125 
L 168.169989 258.946125 
L 169.793261 261.214125 
L 170.334352 261.214125 
L 171.416534 262.726125 
L 171.957625 263.104125 
L 173.039807 263.104125 
L 173.580898 263.482125 
L 174.121989 264.616125 
L 174.66308 264.994125 
L 175.20417 264.994125 
L 176.286352 265.750125 
L 177.368534 265.750125 
L 177.909625 266.128125 
L 180.61508 266.128125 
L 181.15617 266.506125 
L 181.697261 267.262125 
L 182.779443 268.018125 
L 183.320534 268.018125 
L 183.861625 268.396125 
L 187.10817 268.396125 
L 188.190352 269.152125 
L 188.731443 269.152125 
L 189.272534 269.908125 
L 193.601261 269.908125 
L 194.142352 270.286125 
L 195.765625 270.286125 
L 196.306716 270.664125 
L 197.388898 270.664125 
L 197.929989 271.042125 
L 199.553261 271.042125 
L 200.094352 271.420125 
L 200.635443 271.420125 
L 201.176534 271.798125 
L 205.505261 271.798125 
L 206.046352 272.554125 
L 206.587443 272.554125 
L 207.669625 273.310125 
L 208.751807 273.310125 
L 209.833989 274.066125 
L 211.457261 274.066125 
L 211.998352 274.444125 
L 216.32708 274.444125 
L 216.86817 274.822125 
L 240.67617 274.822125 
L 241.217261 275.200125 
L 241.758352 275.200125 
L 242.299443 275.578125 
L 255.826716 275.578125 
L 256.367807 275.956125 
L 263.94308 275.956125 
L 264.48417 276.334125 
L 387.852898 276.334125 
L 387.852898 276.334125 
" style="fill:none;stroke:#000080;stroke-linecap:round;stroke-width:1.5;"/>
   </g>
   <g id="line2d_16">
    <path clip-path="url(#pe3ed3269b3)" d="M 63.198352 276.334125 
L 64.280534 276.334125 
L 64.821625 275.956125 
L 65.362716 275.956125 
L 65.903807 273.688125 
L 66.444898 272.932125 
L 66.985989 270.664125 
L 67.52708 266.506125 
L 69.150352 250.630125 
L 69.691443 245.716125 
L 70.232534 239.668125 
L 70.773625 235.510125 
L 71.314716 229.084125 
L 72.396898 212.452125 
L 72.937989 207.160125 
L 74.561261 185.992125 
L 75.643443 176.164125 
L 76.725625 159.532125 
L 77.266716 154.618125 
L 78.348898 141.010125 
L 78.889989 131.182125 
L 80.513261 110.770125 
L 81.595443 98.296125 
L 82.136534 90.736125 
L 83.218716 82.042125 
L 83.759807 82.042125 
L 84.300898 78.640125 
L 85.38308 74.104125 
L 85.92417 75.238125 
L 86.465261 71.080125 
L 87.006352 69.568125 
L 87.547443 67.300125 
L 88.088534 67.300125 
L 88.629625 68.056125 
L 89.170716 69.568125 
L 89.711807 70.702125 
L 90.252898 71.080125 
L 90.793989 71.836125 
L 91.33508 72.214125 
L 91.87617 75.616125 
L 92.417261 74.482125 
L 92.958352 76.372125 
L 93.499443 80.152125 
L 94.040534 81.286125 
L 95.663807 88.468125 
L 96.204898 91.114125 
L 96.745989 92.626125 
L 97.82817 97.540125 
L 98.369261 99.808125 
L 98.910352 103.966125 
L 99.992534 110.392125 
L 100.533625 114.550125 
L 101.074716 117.574125 
L 101.615807 119.086125 
L 102.156898 122.110125 
L 102.697989 123.244125 
L 103.23908 125.512125 
L 104.321261 131.182125 
L 105.403443 134.584125 
L 105.944534 139.498125 
L 106.485625 142.900125 
L 107.026716 147.814125 
L 107.567807 151.216125 
L 108.108898 151.972125 
L 108.649989 155.374125 
L 109.19108 156.886125 
L 109.73217 159.910125 
L 110.273261 161.044125 
L 111.355443 165.958125 
L 111.896534 165.580125 
L 112.978716 169.738125 
L 113.519807 173.140125 
L 114.060898 173.518125 
L 114.601989 177.298125 
L 115.14308 179.566125 
L 115.68417 180.700125 
L 116.225261 181.456125 
L 118.930716 192.418125 
L 119.471807 193.930125 
L 120.012898 196.198125 
L 120.553989 196.954125 
L 121.09508 199.222125 
L 122.177261 204.892125 
L 122.718352 206.404125 
L 123.259443 208.294125 
L 123.800534 209.428125 
L 125.423807 213.964125 
L 125.964898 215.098125 
L 126.505989 215.854125 
L 127.04708 218.122125 
L 127.58817 218.878125 
L 128.129261 220.012125 
L 128.670352 220.768125 
L 129.211443 222.280125 
L 129.752534 223.414125 
L 130.834716 224.170125 
L 131.375807 226.438125 
L 131.916898 227.572125 
L 132.99908 229.084125 
L 133.54017 230.218125 
L 134.081261 230.974125 
L 134.622352 232.486125 
L 135.163443 233.620125 
L 135.704534 235.132125 
L 136.245625 237.400125 
L 136.786716 238.156125 
L 137.868898 241.558125 
L 138.409989 242.314125 
L 138.95108 243.448125 
L 139.49217 243.826125 
L 140.033261 243.826125 
L 140.574352 244.582125 
L 141.656534 244.582125 
L 142.197625 245.338125 
L 143.820898 246.472125 
L 145.44417 248.740125 
L 145.985261 248.740125 
L 146.526352 249.496125 
L 147.067443 249.496125 
L 147.608534 251.008125 
L 148.149625 251.386125 
L 148.690716 251.386125 
L 149.231807 251.764125 
L 149.772898 251.764125 
L 150.313989 252.142125 
L 150.85508 252.898125 
L 151.39617 252.898125 
L 154.642716 255.166125 
L 155.183807 255.922125 
L 155.724898 256.300125 
L 156.265989 257.434125 
L 157.34817 258.190125 
L 157.889261 258.946125 
L 158.430352 258.946125 
L 160.594716 260.458125 
L 161.135807 261.214125 
L 161.676898 261.592125 
L 162.217989 262.348125 
L 162.75908 263.482125 
L 163.30017 263.482125 
L 163.841261 263.860125 
L 164.382352 263.860125 
L 164.923443 264.238125 
L 165.464534 264.238125 
L 167.087807 265.372125 
L 168.169989 265.372125 
L 168.71108 265.750125 
L 169.793261 265.750125 
L 170.334352 266.506125 
L 171.957625 267.640125 
L 175.20417 267.640125 
L 176.827443 268.774125 
L 178.991807 268.774125 
L 179.532898 269.908125 
L 180.61508 269.908125 
L 181.15617 270.664125 
L 182.238352 270.664125 
L 182.779443 271.042125 
L 186.56708 271.042125 
L 187.10817 271.420125 
L 189.272534 271.420125 
L 189.813625 271.798125 
L 191.436898 271.798125 
L 191.977989 272.176125 
L 200.094352 272.176125 
L 200.635443 272.554125 
L 201.717625 272.554125 
L 202.258716 273.310125 
L 202.799807 273.310125 
L 203.340898 273.688125 
L 210.37508 273.688125 
L 210.91617 274.066125 
L 211.457261 274.066125 
L 211.998352 274.444125 
L 217.409261 274.444125 
L 217.950352 274.822125 
L 226.066716 274.822125 
L 226.607807 275.200125 
L 227.689989 275.200125 
L 228.23108 275.578125 
L 230.936534 275.578125 
L 231.477625 275.956125 
L 293.161989 275.956125 
L 293.70308 276.334125 
L 387.852898 276.334125 
L 387.852898 276.334125 
" style="fill:none;stroke:#0000f1;stroke-linecap:round;stroke-width:1.5;"/>
   </g>
   <g id="line2d_17">
    <path clip-path="url(#pe3ed3269b3)" d="M 63.198352 276.334125 
L 64.280534 276.334125 
L 64.821625 275.956125 
L 65.362716 272.932125 
L 67.52708 265.372125 
L 70.773625 229.084125 
L 71.855807 220.390125 
L 72.396898 210.184125 
L 72.937989 203.758125 
L 74.02017 185.614125 
L 74.561261 182.968125 
L 75.643443 161.800125 
L 76.184534 156.508125 
L 76.725625 149.326125 
L 78.348898 136.096125 
L 78.889989 127.024125 
L 79.97217 118.330125 
L 81.054352 105.100125 
L 81.595443 99.430125 
L 82.136534 92.248125 
L 83.218716 83.932125 
L 84.300898 78.640125 
L 84.841989 75.238125 
L 85.38308 74.104125 
L 85.92417 70.702125 
L 86.465261 68.056125 
L 87.006352 68.812125 
L 87.547443 69.946125 
L 88.088534 69.568125 
L 88.629625 68.434125 
L 89.170716 69.568125 
L 89.711807 69.190125 
L 91.33508 74.860125 
L 91.87617 77.506125 
L 92.958352 85.822125 
L 93.499443 87.334125 
L 94.040534 89.224125 
L 94.581625 92.626125 
L 95.122716 93.004125 
L 96.745989 99.808125 
L 97.82817 106.612125 
L 98.369261 106.990125 
L 98.910352 108.502125 
L 99.451443 108.502125 
L 100.533625 117.196125 
L 101.074716 119.464125 
L 101.615807 120.598125 
L 102.156898 122.488125 
L 102.697989 123.622125 
L 103.78017 130.048125 
L 104.321261 134.584125 
L 104.862352 136.474125 
L 105.944534 142.144125 
L 106.485625 145.924125 
L 108.108898 153.862125 
L 108.649989 155.374125 
L 109.19108 158.776125 
L 110.273261 162.934125 
L 110.814352 163.312125 
L 112.978716 172.762125 
L 113.519807 175.786125 
L 114.060898 179.944125 
L 117.307443 189.016125 
L 117.848534 192.040125 
L 118.930716 195.820125 
L 119.471807 196.954125 
L 120.012898 198.844125 
L 120.553989 199.600125 
L 121.63617 203.002125 
L 122.177261 204.514125 
L 122.718352 204.136125 
L 123.259443 204.892125 
L 123.800534 206.404125 
L 124.341625 207.160125 
L 124.882716 207.160125 
L 125.423807 207.538125 
L 125.964898 208.294125 
L 127.04708 212.452125 
L 128.129261 213.964125 
L 128.670352 215.098125 
L 129.211443 216.610125 
L 129.752534 217.744125 
L 130.293625 218.122125 
L 130.834716 219.256125 
L 131.375807 220.012125 
L 131.916898 221.146125 
L 132.457989 224.548125 
L 134.081261 227.950125 
L 135.163443 230.974125 
L 136.245625 231.730125 
L 136.786716 232.864125 
L 137.327807 234.376125 
L 137.868898 234.754125 
L 138.409989 235.888125 
L 138.95108 236.644125 
L 139.49217 238.912125 
L 140.033261 239.290125 
L 140.574352 241.180125 
L 141.115443 241.180125 
L 142.197625 241.936125 
L 142.738716 242.692125 
L 143.279807 243.826125 
L 143.820898 243.826125 
L 145.44417 246.094125 
L 145.985261 247.606125 
L 147.067443 249.118125 
L 147.608534 249.496125 
L 148.149625 251.008125 
L 148.690716 251.008125 
L 149.231807 252.142125 
L 149.772898 252.898125 
L 150.85508 253.654125 
L 151.39617 253.654125 
L 153.019443 254.788125 
L 153.560534 255.922125 
L 154.101625 255.922125 
L 154.642716 256.300125 
L 155.183807 257.812125 
L 156.265989 258.568125 
L 156.80708 259.702125 
L 157.34817 259.702125 
L 158.971443 260.836125 
L 159.512534 261.592125 
L 161.676898 261.592125 
L 162.75908 262.348125 
L 163.841261 262.348125 
L 164.382352 262.726125 
L 164.923443 263.482125 
L 166.546716 263.482125 
L 168.169989 264.616125 
L 168.71108 264.616125 
L 169.25217 264.994125 
L 170.875443 264.994125 
L 171.416534 265.372125 
L 172.498716 265.372125 
L 173.039807 266.506125 
L 173.580898 266.884125 
L 174.121989 266.884125 
L 174.66308 267.262125 
L 175.20417 268.396125 
L 177.368534 268.396125 
L 177.909625 268.774125 
L 178.450716 268.774125 
L 178.991807 269.152125 
L 181.697261 269.152125 
L 182.238352 269.530125 
L 182.779443 269.530125 
L 183.320534 269.908125 
L 183.861625 269.908125 
L 184.402716 270.664125 
L 188.190352 270.664125 
L 188.731443 271.420125 
L 189.272534 271.420125 
L 189.813625 272.176125 
L 191.436898 272.176125 
L 191.977989 272.554125 
L 192.51908 272.554125 
L 193.06017 272.932125 
L 202.799807 272.932125 
L 203.340898 273.310125 
L 203.881989 273.310125 
L 204.42308 273.688125 
L 205.505261 273.688125 
L 206.587443 274.444125 
L 212.539443 274.444125 
L 213.080534 274.822125 
L 213.621625 274.822125 
L 214.162716 275.200125 
L 222.82017 275.200125 
L 223.361261 275.578125 
L 227.689989 275.578125 
L 228.23108 275.956125 
L 256.908898 275.956125 
L 257.449989 276.334125 
L 387.852898 276.334125 
L 387.852898 276.334125 
" style="fill:none;stroke:#004cff;stroke-linecap:round;stroke-width:1.5;"/>
   </g>
   <g id="line2d_18">
    <path clip-path="url(#pe3ed3269b3)" d="M 63.198352 276.334125 
L 63.739443 276.334125 
L 64.280534 275.578125 
L 64.821625 275.578125 
L 65.362716 275.200125 
L 65.903807 274.066125 
L 66.985989 269.908125 
L 67.52708 266.128125 
L 68.06817 260.836125 
L 69.691443 250.630125 
L 71.314716 226.438125 
L 71.855807 217.744125 
L 72.396898 211.318125 
L 72.937989 203.002125 
L 74.02017 194.308125 
L 74.561261 187.126125 
L 75.102352 175.408125 
L 75.643443 169.738125 
L 76.184534 160.666125 
L 77.807807 138.742125 
L 78.348898 129.292125 
L 79.43108 116.062125 
L 79.97217 108.124125 
L 80.513261 105.100125 
L 81.054352 97.918125 
L 82.136534 86.200125 
L 82.677625 83.176125 
L 83.218716 84.310125 
L 84.300898 77.884125 
L 84.841989 71.458125 
L 86.465261 65.410125 
L 87.006352 62.386125 
L 87.547443 65.410125 
L 88.088534 63.898125 
L 88.629625 64.276125 
L 89.711807 69.190125 
L 90.252898 73.348125 
L 90.793989 74.482125 
L 91.33508 75.238125 
L 91.87617 76.372125 
L 92.417261 78.640125 
L 92.958352 82.042125 
L 93.499443 83.932125 
L 94.040534 84.688125 
L 95.122716 91.870125 
L 95.663807 94.138125 
L 96.204898 97.540125 
L 96.745989 99.430125 
L 97.28708 102.832125 
L 97.82817 104.344125 
L 98.369261 109.636125 
L 98.910352 111.148125 
L 99.451443 114.928125 
L 99.992534 116.818125 
L 100.533625 120.976125 
L 101.074716 121.732125 
L 101.615807 122.866125 
L 102.156898 129.670125 
L 103.23908 134.584125 
L 103.78017 139.498125 
L 104.862352 145.924125 
L 105.403443 147.436125 
L 105.944534 149.326125 
L 107.026716 154.996125 
L 107.567807 157.264125 
L 108.108898 162.178125 
L 109.19108 166.336125 
L 109.73217 168.604125 
L 110.273261 171.628125 
L 110.814352 173.140125 
L 111.355443 175.408125 
L 111.896534 178.810125 
L 112.437625 180.322125 
L 112.978716 181.078125 
L 113.519807 182.968125 
L 114.060898 183.724125 
L 114.601989 185.614125 
L 115.14308 189.016125 
L 115.68417 190.528125 
L 116.225261 193.174125 
L 116.766352 196.954125 
L 117.307443 198.088125 
L 117.848534 200.356125 
L 118.389625 200.734125 
L 118.930716 202.246125 
L 119.471807 204.892125 
L 120.012898 208.294125 
L 120.553989 210.184125 
L 121.63617 211.696125 
L 122.177261 213.586125 
L 122.718352 214.720125 
L 123.259443 216.232125 
L 123.800534 218.500125 
L 124.341625 219.256125 
L 124.882716 221.146125 
L 125.423807 221.902125 
L 125.964898 224.548125 
L 126.505989 226.438125 
L 127.04708 227.572125 
L 127.58817 228.328125 
L 128.129261 230.218125 
L 128.670352 230.974125 
L 129.211443 232.864125 
L 129.752534 232.864125 
L 130.293625 233.998125 
L 130.834716 233.998125 
L 131.375807 235.888125 
L 131.916898 236.644125 
L 132.457989 237.022125 
L 132.99908 237.022125 
L 133.54017 237.778125 
L 134.622352 238.534125 
L 135.163443 239.290125 
L 135.704534 241.936125 
L 136.245625 242.692125 
L 136.786716 243.070125 
L 137.327807 244.204125 
L 137.868898 246.094125 
L 138.409989 246.094125 
L 138.95108 246.850125 
L 139.49217 247.228125 
L 140.033261 249.118125 
L 140.574352 249.118125 
L 141.115443 250.252125 
L 142.738716 251.386125 
L 143.279807 252.142125 
L 143.820898 252.142125 
L 144.361989 252.898125 
L 145.985261 254.032125 
L 146.526352 254.032125 
L 147.608534 255.544125 
L 148.149625 255.544125 
L 148.690716 256.678125 
L 150.313989 256.678125 
L 150.85508 257.056125 
L 151.39617 258.190125 
L 151.937261 258.190125 
L 152.478352 258.568125 
L 153.019443 259.702125 
L 153.560534 260.080125 
L 154.101625 260.080125 
L 154.642716 260.836125 
L 155.183807 261.214125 
L 155.724898 261.214125 
L 156.265989 261.592125 
L 156.80708 261.592125 
L 157.34817 261.970125 
L 158.430352 261.970125 
L 159.512534 263.482125 
L 160.053625 263.482125 
L 160.594716 263.860125 
L 161.676898 266.128125 
L 162.217989 266.506125 
L 162.75908 267.640125 
L 163.30017 268.018125 
L 163.841261 268.018125 
L 164.382352 268.396125 
L 168.169989 268.396125 
L 168.71108 268.774125 
L 170.334352 268.774125 
L 170.875443 269.530125 
L 171.416534 269.908125 
L 173.039807 269.908125 
L 173.580898 270.286125 
L 174.121989 270.286125 
L 174.66308 270.664125 
L 177.368534 270.664125 
L 177.909625 271.042125 
L 178.450716 271.798125 
L 178.991807 271.798125 
L 179.532898 272.176125 
L 183.861625 272.176125 
L 184.402716 272.932125 
L 184.943807 272.932125 
L 185.484898 273.310125 
L 187.10817 273.310125 
L 187.649261 273.688125 
L 190.354716 273.688125 
L 191.436898 274.444125 
L 193.06017 274.444125 
L 193.601261 274.822125 
L 215.244898 274.822125 
L 215.785989 275.200125 
L 229.854352 275.200125 
L 230.395443 275.578125 
L 233.100898 275.578125 
L 233.641989 275.956125 
L 243.922716 275.956125 
L 244.463807 276.334125 
L 387.852898 276.334125 
L 387.852898 276.334125 
" style="fill:none;stroke:#00b0ff;stroke-linecap:round;stroke-width:1.5;"/>
   </g>
   <g id="line2d_19">
    <path clip-path="url(#pe3ed3269b3)" d="M 63.198352 276.334125 
L 64.821625 276.334125 
L 65.362716 275.956125 
L 65.903807 274.822125 
L 66.985989 270.664125 
L 67.52708 265.372125 
L 68.06817 261.592125 
L 69.691443 246.472125 
L 70.773625 233.620125 
L 71.314716 224.548125 
L 72.396898 213.964125 
L 73.47908 196.576125 
L 74.561261 184.102125 
L 75.643443 170.872125 
L 76.184534 162.556125 
L 77.266716 141.010125 
L 78.889989 119.842125 
L 80.513261 90.736125 
L 81.054352 86.956125 
L 82.136534 71.458125 
L 83.218716 63.898125 
L 83.759807 61.252125 
L 84.300898 62.764125 
L 84.841989 57.850125 
L 85.38308 58.606125 
L 85.92417 62.386125 
L 86.465261 63.520125 
L 87.006352 68.434125 
L 87.547443 69.946125 
L 88.088534 70.324125 
L 88.629625 71.836125 
L 89.170716 75.238125 
L 89.711807 77.128125 
L 90.252898 77.506125 
L 91.87617 86.200125 
L 94.040534 102.076125 
L 94.581625 104.344125 
L 95.122716 107.746125 
L 95.663807 110.392125 
L 96.204898 112.282125 
L 96.745989 115.306125 
L 97.28708 116.440125 
L 97.82817 117.952125 
L 98.369261 119.842125 
L 98.910352 125.134125 
L 99.992534 129.670125 
L 100.533625 135.340125 
L 101.074716 136.852125 
L 101.615807 137.608125 
L 102.697989 141.766125 
L 103.23908 145.546125 
L 103.78017 147.814125 
L 104.321261 148.192125 
L 105.944534 156.130125 
L 106.485625 161.422125 
L 107.026716 164.068125 
L 107.567807 165.580125 
L 108.108898 166.714125 
L 108.649989 168.982125 
L 109.19108 170.494125 
L 109.73217 172.762125 
L 110.273261 174.274125 
L 110.814352 176.164125 
L 111.355443 177.298125 
L 113.519807 185.236125 
L 114.601989 186.748125 
L 115.14308 187.882125 
L 116.225261 192.040125 
L 117.307443 195.064125 
L 118.389625 196.576125 
L 118.930716 197.710125 
L 119.471807 198.088125 
L 121.09508 203.758125 
L 121.63617 204.892125 
L 122.177261 208.294125 
L 122.718352 208.672125 
L 123.259443 209.428125 
L 123.800534 210.940125 
L 124.341625 212.074125 
L 124.882716 212.452125 
L 125.423807 213.208125 
L 125.964898 214.720125 
L 126.505989 216.610125 
L 127.04708 216.988125 
L 127.58817 218.500125 
L 128.129261 218.500125 
L 128.670352 220.012125 
L 129.211443 220.768125 
L 129.752534 223.792125 
L 130.293625 224.926125 
L 130.834716 227.572125 
L 131.375807 228.328125 
L 131.916898 229.462125 
L 132.457989 229.840125 
L 132.99908 230.974125 
L 133.54017 231.352125 
L 134.081261 231.352125 
L 134.622352 232.486125 
L 135.704534 233.998125 
L 136.245625 234.376125 
L 136.786716 234.376125 
L 137.327807 235.888125 
L 137.868898 236.644125 
L 138.409989 237.022125 
L 138.95108 238.912125 
L 139.49217 239.668125 
L 140.033261 240.046125 
L 140.574352 240.802125 
L 141.115443 241.936125 
L 141.656534 243.448125 
L 142.197625 243.448125 
L 142.738716 243.826125 
L 143.820898 245.338125 
L 144.361989 245.338125 
L 144.90308 245.716125 
L 145.44417 246.850125 
L 147.067443 246.850125 
L 147.608534 247.606125 
L 148.149625 249.118125 
L 148.690716 249.118125 
L 149.231807 250.630125 
L 149.772898 251.764125 
L 150.313989 252.520125 
L 150.85508 253.654125 
L 151.39617 254.410125 
L 151.937261 254.410125 
L 152.478352 255.166125 
L 153.560534 255.922125 
L 154.101625 258.190125 
L 155.724898 259.324125 
L 156.265989 259.324125 
L 157.34817 260.080125 
L 157.889261 261.214125 
L 158.971443 261.214125 
L 159.512534 261.592125 
L 161.135807 261.592125 
L 161.676898 262.348125 
L 162.75908 262.348125 
L 164.382352 263.482125 
L 164.923443 263.482125 
L 166.005625 264.238125 
L 166.546716 264.994125 
L 167.087807 265.372125 
L 168.71108 265.372125 
L 169.25217 265.750125 
L 169.793261 266.506125 
L 170.334352 266.884125 
L 170.875443 267.640125 
L 171.416534 267.640125 
L 171.957625 268.018125 
L 172.498716 268.018125 
L 173.039807 268.774125 
L 173.580898 268.774125 
L 174.121989 269.152125 
L 174.66308 269.152125 
L 175.20417 269.530125 
L 176.827443 269.530125 
L 177.368534 269.908125 
L 181.15617 269.908125 
L 182.779443 271.042125 
L 183.320534 271.042125 
L 184.402716 271.798125 
L 187.649261 271.798125 
L 188.190352 272.176125 
L 188.731443 272.176125 
L 189.272534 272.554125 
L 190.895807 272.554125 
L 191.436898 272.932125 
L 192.51908 272.932125 
L 193.06017 273.310125 
L 193.601261 273.310125 
L 194.142352 273.688125 
L 196.847807 273.688125 
L 197.388898 274.066125 
L 202.799807 274.066125 
L 203.340898 274.444125 
L 209.833989 274.444125 
L 210.37508 274.822125 
L 214.703807 274.822125 
L 215.244898 275.200125 
L 226.066716 275.200125 
L 226.607807 275.578125 
L 229.313261 275.578125 
L 229.854352 275.956125 
L 230.395443 275.956125 
L 230.936534 276.334125 
L 387.852898 276.334125 
L 387.852898 276.334125 
" style="fill:none;stroke:#29ffce;stroke-linecap:round;stroke-width:1.5;"/>
   </g>
   <g id="line2d_20">
    <path clip-path="url(#pe3ed3269b3)" d="M 63.198352 276.334125 
L 63.739443 276.334125 
L 64.280534 275.956125 
L 64.821625 275.956125 
L 65.362716 275.578125 
L 66.444898 270.664125 
L 66.985989 269.530125 
L 68.06817 262.726125 
L 68.609261 260.836125 
L 69.150352 254.032125 
L 69.691443 249.496125 
L 70.773625 236.266125 
L 72.396898 212.074125 
L 72.937989 205.648125 
L 73.47908 200.734125 
L 74.02017 193.930125 
L 76.184534 161.800125 
L 76.725625 154.996125 
L 77.807807 143.656125 
L 78.348898 140.254125 
L 78.889989 131.560125 
L 79.97217 119.086125 
L 80.513261 110.014125 
L 83.218716 77.506125 
L 83.759807 78.640125 
L 84.300898 73.348125 
L 84.841989 69.568125 
L 85.38308 66.922125 
L 85.92417 65.410125 
L 87.006352 63.898125 
L 87.547443 57.850125 
L 88.088534 55.960125 
L 88.629625 57.472125 
L 89.170716 59.740125 
L 91.33508 71.458125 
L 91.87617 72.214125 
L 92.417261 73.348125 
L 93.499443 78.640125 
L 94.581625 86.956125 
L 95.122716 87.712125 
L 95.663807 93.760125 
L 96.204898 96.406125 
L 97.28708 104.722125 
L 97.82817 108.124125 
L 98.369261 110.392125 
L 98.910352 114.550125 
L 99.451443 116.818125 
L 99.992534 120.220125 
L 100.533625 121.354125 
L 101.074716 125.512125 
L 101.615807 128.158125 
L 102.697989 134.584125 
L 103.78017 139.498125 
L 104.321261 141.766125 
L 104.862352 145.924125 
L 105.403443 148.570125 
L 105.944534 152.728125 
L 106.485625 154.618125 
L 107.026716 158.398125 
L 107.567807 159.154125 
L 108.108898 159.532125 
L 108.649989 161.044125 
L 109.19108 164.068125 
L 109.73217 165.958125 
L 110.814352 172.762125 
L 111.355443 175.030125 
L 111.896534 178.432125 
L 112.437625 178.810125 
L 113.519807 184.480125 
L 114.060898 185.236125 
L 115.14308 188.638125 
L 116.225261 191.662125 
L 117.307443 196.198125 
L 117.848534 196.954125 
L 118.389625 199.222125 
L 118.930716 200.356125 
L 119.471807 201.868125 
L 120.553989 204.136125 
L 121.09508 204.892125 
L 121.63617 206.404125 
L 122.718352 209.806125 
L 123.259443 211.318125 
L 123.800534 214.342125 
L 124.341625 216.232125 
L 124.882716 218.878125 
L 125.423807 220.012125 
L 125.964898 223.414125 
L 126.505989 224.170125 
L 127.04708 224.548125 
L 127.58817 227.572125 
L 128.129261 228.328125 
L 128.670352 230.218125 
L 129.211443 230.596125 
L 129.752534 231.730125 
L 130.293625 232.486125 
L 130.834716 232.864125 
L 131.375807 233.998125 
L 131.916898 234.754125 
L 132.457989 235.132125 
L 132.99908 235.888125 
L 133.54017 237.022125 
L 134.081261 238.534125 
L 135.163443 241.936125 
L 136.245625 242.692125 
L 136.786716 242.692125 
L 137.327807 244.204125 
L 137.868898 244.960125 
L 138.409989 246.094125 
L 139.49217 246.850125 
L 140.574352 246.850125 
L 141.115443 247.606125 
L 141.656534 248.740125 
L 142.197625 248.740125 
L 143.820898 249.874125 
L 144.361989 250.630125 
L 144.90308 251.008125 
L 145.44417 251.008125 
L 145.985261 251.386125 
L 146.526352 251.386125 
L 147.067443 252.142125 
L 148.149625 252.142125 
L 148.690716 252.898125 
L 149.231807 253.276125 
L 149.772898 254.032125 
L 150.313989 254.410125 
L 151.937261 256.678125 
L 152.478352 257.812125 
L 153.019443 258.190125 
L 153.560534 258.946125 
L 154.642716 258.946125 
L 155.724898 259.702125 
L 156.265989 260.836125 
L 156.80708 260.836125 
L 157.34817 261.592125 
L 158.430352 262.348125 
L 158.971443 262.348125 
L 160.594716 263.482125 
L 161.135807 263.482125 
L 162.217989 264.238125 
L 162.75908 264.238125 
L 163.30017 264.616125 
L 163.841261 264.616125 
L 164.923443 265.372125 
L 166.005625 265.372125 
L 166.546716 265.750125 
L 167.087807 265.750125 
L 167.628898 266.128125 
L 170.875443 266.128125 
L 171.957625 266.884125 
L 173.039807 266.884125 
L 173.580898 267.262125 
L 174.121989 267.262125 
L 174.66308 267.640125 
L 175.20417 269.152125 
L 175.745261 269.152125 
L 176.286352 269.530125 
L 177.909625 269.530125 
L 178.450716 269.908125 
L 182.779443 269.908125 
L 184.402716 271.042125 
L 190.354716 271.042125 
L 190.895807 271.420125 
L 192.51908 271.420125 
L 193.601261 272.176125 
L 194.142352 272.176125 
L 194.683443 272.554125 
L 196.306716 272.554125 
L 196.847807 273.310125 
L 214.162716 273.310125 
L 214.703807 273.688125 
L 221.737989 273.688125 
L 222.27908 274.066125 
L 232.018716 274.066125 
L 232.559807 274.444125 
L 246.08708 274.444125 
L 246.62817 274.822125 
L 253.662352 274.822125 
L 254.203443 275.200125 
L 260.696534 275.200125 
L 261.237625 275.578125 
L 272.600534 275.578125 
L 273.141625 275.956125 
L 331.579443 275.956125 
L 332.120534 276.334125 
L 387.852898 276.334125 
L 387.852898 276.334125 
" style="fill:none;stroke:#7dff7a;stroke-linecap:round;stroke-width:1.5;"/>
   </g>
   <g id="line2d_21">
    <path clip-path="url(#pe3ed3269b3)" d="M 63.198352 276.334125 
L 64.280534 276.334125 
L 64.821625 275.956125 
L 65.362716 275.200125 
L 65.903807 274.822125 
L 66.985989 269.152125 
L 67.52708 268.018125 
L 68.06817 265.372125 
L 69.150352 258.568125 
L 69.691443 252.520125 
L 70.232534 244.960125 
L 71.314716 234.754125 
L 71.855807 226.060125 
L 72.396898 221.902125 
L 73.47908 207.916125 
L 74.02017 199.600125 
L 75.102352 187.882125 
L 75.643443 177.676125 
L 76.184534 170.494125 
L 77.266716 159.532125 
L 77.807807 149.704125 
L 78.348898 142.900125 
L 79.43108 126.646125 
L 79.97217 119.086125 
L 80.513261 115.306125 
L 81.054352 109.636125 
L 81.595443 105.856125 
L 82.677625 95.650125 
L 83.218716 91.492125 
L 83.759807 92.626125 
L 84.300898 87.334125 
L 84.841989 86.200125 
L 85.38308 84.688125 
L 87.006352 77.506125 
L 87.547443 78.640125 
L 88.088534 76.372125 
L 88.629625 77.884125 
L 89.170716 79.018125 
L 89.711807 79.396125 
L 90.252898 81.286125 
L 90.793989 80.908125 
L 91.33508 82.420125 
L 91.87617 84.688125 
L 92.417261 89.224125 
L 92.958352 89.224125 
L 93.499443 88.468125 
L 94.040534 90.358125 
L 94.581625 93.760125 
L 95.122716 98.674125 
L 96.204898 105.478125 
L 96.745989 110.014125 
L 98.369261 116.062125 
L 99.451443 121.732125 
L 100.533625 130.426125 
L 101.074716 133.072125 
L 101.615807 134.206125 
L 102.156898 137.230125 
L 102.697989 139.498125 
L 104.321261 148.192125 
L 104.862352 148.948125 
L 105.403443 154.618125 
L 105.944534 156.130125 
L 106.485625 160.666125 
L 107.026716 163.690125 
L 108.108898 168.604125 
L 108.649989 172.006125 
L 109.19108 174.274125 
L 109.73217 175.408125 
L 110.273261 177.298125 
L 111.355443 182.590125 
L 113.519807 190.150125 
L 114.060898 190.528125 
L 114.601989 193.174125 
L 115.14308 195.064125 
L 115.68417 196.198125 
L 116.225261 196.198125 
L 116.766352 197.710125 
L 117.307443 197.710125 
L 118.389625 201.490125 
L 118.930716 201.868125 
L 119.471807 203.002125 
L 121.63617 212.074125 
L 122.718352 215.098125 
L 123.259443 216.232125 
L 123.800534 216.988125 
L 124.341625 218.878125 
L 124.882716 219.634125 
L 125.423807 220.012125 
L 126.505989 222.280125 
L 127.04708 224.926125 
L 127.58817 226.438125 
L 128.129261 226.816125 
L 129.752534 231.352125 
L 130.293625 232.108125 
L 130.834716 233.998125 
L 131.916898 234.754125 
L 132.457989 235.510125 
L 132.99908 235.888125 
L 134.081261 237.400125 
L 134.622352 239.290125 
L 135.163443 239.290125 
L 135.704534 240.424125 
L 136.245625 240.802125 
L 137.327807 240.802125 
L 137.868898 241.558125 
L 138.409989 241.558125 
L 138.95108 243.070125 
L 139.49217 243.448125 
L 140.033261 244.960125 
L 141.115443 246.472125 
L 141.656534 246.850125 
L 142.197625 248.740125 
L 142.738716 249.496125 
L 144.361989 250.630125 
L 144.90308 250.630125 
L 145.985261 251.386125 
L 146.526352 252.520125 
L 147.067443 253.276125 
L 147.608534 254.410125 
L 148.690716 255.922125 
L 149.772898 255.922125 
L 150.85508 256.678125 
L 151.937261 258.190125 
L 152.478352 258.568125 
L 153.019443 258.568125 
L 153.560534 258.946125 
L 154.642716 258.946125 
L 155.183807 260.080125 
L 155.724898 260.080125 
L 156.265989 260.458125 
L 157.34817 260.458125 
L 157.889261 260.836125 
L 158.430352 261.970125 
L 159.512534 262.726125 
L 160.053625 263.860125 
L 160.594716 263.860125 
L 161.135807 264.238125 
L 161.676898 264.238125 
L 162.217989 264.616125 
L 162.75908 264.616125 
L 163.30017 264.994125 
L 164.923443 264.994125 
L 166.005625 265.750125 
L 166.546716 265.750125 
L 167.087807 266.506125 
L 167.628898 266.506125 
L 168.169989 266.884125 
L 169.793261 266.884125 
L 170.334352 267.262125 
L 170.875443 267.262125 
L 171.416534 267.640125 
L 173.580898 267.640125 
L 174.121989 268.018125 
L 174.66308 268.018125 
L 175.20417 268.396125 
L 176.827443 268.396125 
L 177.909625 269.152125 
L 178.450716 269.908125 
L 178.991807 269.908125 
L 180.073989 270.664125 
L 180.61508 270.664125 
L 181.15617 271.042125 
L 183.320534 271.042125 
L 183.861625 271.798125 
L 184.943807 271.798125 
L 185.484898 272.176125 
L 189.272534 272.176125 
L 189.813625 272.932125 
L 190.354716 272.932125 
L 190.895807 273.688125 
L 191.436898 274.066125 
L 192.51908 274.066125 
L 193.06017 274.444125 
L 202.799807 274.444125 
L 203.340898 274.822125 
L 229.313261 274.822125 
L 229.854352 275.200125 
L 241.758352 275.200125 
L 242.299443 275.578125 
L 255.285625 275.578125 
L 255.826716 275.956125 
L 259.614352 275.956125 
L 260.155443 276.334125 
L 387.852898 276.334125 
L 387.852898 276.334125 
" style="fill:none;stroke:#ceff29;stroke-linecap:round;stroke-width:1.5;"/>
   </g>
   <g id="line2d_22">
    <path clip-path="url(#pe3ed3269b3)" d="M 63.198352 276.334125 
L 64.821625 276.334125 
L 65.362716 275.200125 
L 65.903807 273.310125 
L 66.985989 266.884125 
L 67.52708 263.482125 
L 68.06817 262.726125 
L 70.232534 244.204125 
L 72.937989 208.672125 
L 73.47908 202.624125 
L 74.02017 194.308125 
L 74.561261 184.102125 
L 75.102352 178.054125 
L 76.184534 161.044125 
L 76.725625 149.326125 
L 77.266716 144.034125 
L 78.348898 129.292125 
L 78.889989 119.842125 
L 79.43108 114.550125 
L 79.97217 106.234125 
L 80.513261 100.186125 
L 82.677625 83.554125 
L 83.218716 77.884125 
L 84.300898 72.970125 
L 84.841989 75.616125 
L 85.38308 73.348125 
L 85.92417 66.544125 
L 86.465261 64.276125 
L 87.006352 64.276125 
L 87.547443 63.898125 
L 88.088534 65.410125 
L 88.629625 63.898125 
L 89.711807 66.166125 
L 90.252898 63.520125 
L 91.33508 61.252125 
L 91.87617 62.764125 
L 94.040534 70.702125 
L 94.581625 74.104125 
L 95.122716 79.396125 
L 95.663807 82.042125 
L 96.204898 87.334125 
L 97.28708 92.248125 
L 97.82817 94.138125 
L 98.369261 97.918125 
L 98.910352 100.564125 
L 99.992534 110.770125 
L 101.074716 117.196125 
L 103.23908 128.914125 
L 103.78017 128.914125 
L 104.321261 131.938125 
L 104.862352 133.072125 
L 106.485625 138.364125 
L 107.567807 145.168125 
L 108.108898 147.814125 
L 108.649989 153.484125 
L 109.19108 156.886125 
L 109.73217 158.398125 
L 110.273261 159.532125 
L 110.814352 161.044125 
L 111.355443 163.312125 
L 111.896534 164.446125 
L 112.437625 165.202125 
L 112.978716 168.604125 
L 113.519807 173.140125 
L 114.060898 173.518125 
L 114.601989 175.030125 
L 115.14308 175.786125 
L 115.68417 178.810125 
L 116.225261 181.078125 
L 116.766352 181.834125 
L 117.307443 183.724125 
L 118.389625 185.236125 
L 118.930716 187.126125 
L 120.012898 187.126125 
L 120.553989 189.016125 
L 121.09508 189.394125 
L 121.63617 188.638125 
L 122.177261 190.150125 
L 122.718352 190.528125 
L 123.259443 190.150125 
L 123.800534 191.662125 
L 124.341625 193.552125 
L 124.882716 193.930125 
L 125.423807 193.174125 
L 125.964898 193.930125 
L 126.505989 197.332125 
L 127.04708 199.222125 
L 127.58817 200.356125 
L 128.129261 201.112125 
L 129.211443 205.270125 
L 129.752534 206.026125 
L 130.293625 207.916125 
L 130.834716 207.916125 
L 131.916898 210.940125 
L 132.457989 211.318125 
L 133.54017 214.720125 
L 134.081261 215.854125 
L 134.622352 216.610125 
L 135.163443 217.744125 
L 135.704534 217.744125 
L 136.245625 219.256125 
L 136.786716 219.634125 
L 137.327807 219.256125 
L 137.868898 220.390125 
L 138.409989 221.146125 
L 138.95108 222.280125 
L 139.49217 222.658125 
L 140.574352 224.170125 
L 141.115443 222.658125 
L 141.656534 222.280125 
L 142.197625 223.036125 
L 142.738716 222.658125 
L 143.279807 223.414125 
L 143.820898 224.926125 
L 144.361989 225.304125 
L 144.90308 224.926125 
L 145.44417 225.304125 
L 145.985261 226.438125 
L 146.526352 225.682125 
L 147.067443 226.816125 
L 148.149625 230.218125 
L 149.231807 230.218125 
L 149.772898 229.840125 
L 150.313989 229.084125 
L 150.85508 229.840125 
L 151.39617 230.218125 
L 151.937261 229.840125 
L 152.478352 231.352125 
L 153.019443 231.730125 
L 153.560534 231.730125 
L 154.101625 232.108125 
L 154.642716 233.242125 
L 155.183807 232.864125 
L 155.724898 233.620125 
L 156.265989 235.132125 
L 156.80708 235.510125 
L 157.34817 238.156125 
L 157.889261 238.912125 
L 158.430352 240.424125 
L 158.971443 240.802125 
L 159.512534 242.692125 
L 160.053625 243.448125 
L 160.594716 243.826125 
L 161.135807 244.582125 
L 161.676898 244.582125 
L 162.217989 245.338125 
L 165.464534 247.606125 
L 166.005625 248.740125 
L 166.546716 249.496125 
L 168.169989 250.630125 
L 169.25217 250.630125 
L 169.793261 252.142125 
L 170.334352 252.142125 
L 171.416534 252.898125 
L 171.957625 254.032125 
L 172.498716 254.410125 
L 173.580898 256.678125 
L 175.20417 257.812125 
L 175.745261 257.812125 
L 176.827443 258.568125 
L 177.909625 258.568125 
L 178.450716 258.946125 
L 178.991807 259.702125 
L 179.532898 260.080125 
L 180.073989 260.080125 
L 181.15617 261.592125 
L 181.697261 261.592125 
L 182.238352 262.348125 
L 183.320534 262.348125 
L 183.861625 263.104125 
L 184.402716 263.104125 
L 184.943807 263.482125 
L 185.484898 264.238125 
L 188.190352 264.238125 
L 188.731443 264.994125 
L 189.272534 265.372125 
L 189.813625 265.372125 
L 190.354716 265.750125 
L 192.51908 265.750125 
L 193.06017 266.128125 
L 193.601261 266.128125 
L 194.142352 266.506125 
L 195.224534 266.506125 
L 195.765625 267.262125 
L 196.306716 267.262125 
L 196.847807 268.018125 
L 197.388898 268.018125 
L 198.47108 268.774125 
L 200.094352 268.774125 
L 200.635443 269.530125 
L 202.258716 269.530125 
L 202.799807 269.908125 
L 203.881989 269.908125 
L 204.42308 270.286125 
L 205.505261 270.286125 
L 206.046352 270.664125 
L 206.587443 270.664125 
L 207.128534 271.042125 
L 213.621625 271.042125 
L 214.162716 271.420125 
L 216.32708 271.420125 
L 216.86817 271.798125 
L 222.27908 271.798125 
L 222.82017 272.176125 
L 228.23108 272.176125 
L 228.77217 272.554125 
L 231.477625 272.554125 
L 232.018716 272.932125 
L 234.18308 272.932125 
L 234.72417 273.310125 
L 235.265261 274.066125 
L 237.970716 274.066125 
L 238.511807 274.444125 
L 239.052898 274.444125 
L 239.593989 274.822125 
L 240.13508 274.822125 
L 240.67617 275.200125 
L 242.299443 275.200125 
L 242.840534 275.578125 
L 246.62817 275.578125 
L 247.169261 275.956125 
L 248.792534 275.956125 
L 249.333625 276.334125 
L 387.852898 276.334125 
L 387.852898 276.334125 
" style="fill:none;stroke:#ffc400;stroke-linecap:round;stroke-width:1.5;"/>
   </g>
   <g id="line2d_23">
    <path clip-path="url(#pe3ed3269b3)" d="M 63.198352 276.334125 
L 63.739443 276.334125 
L 64.280534 275.956125 
L 64.821625 275.200125 
L 66.985989 268.018125 
L 67.52708 266.884125 
L 68.06817 263.860125 
L 69.150352 256.300125 
L 70.773625 228.328125 
L 71.314716 222.280125 
L 74.561261 173.518125 
L 75.102352 164.824125 
L 75.643443 158.398125 
L 76.184534 147.436125 
L 77.266716 133.072125 
L 77.807807 127.780125 
L 78.348898 113.794125 
L 78.889989 108.502125 
L 79.43108 99.052125 
L 79.97217 91.870125 
L 81.054352 80.908125 
L 82.136534 68.056125 
L 83.218716 58.228125 
L 83.759807 52.180125 
L 84.300898 48.400125 
L 84.841989 48.022125 
L 85.38308 41.218125 
L 85.92417 41.218125 
L 86.465261 38.194125 
L 87.006352 38.950125 
L 87.547443 37.438125 
L 88.088534 34.414125 
L 88.629625 35.926125 
L 89.170716 35.548125 
L 90.252898 38.950125 
L 90.793989 40.462125 
L 91.33508 40.462125 
L 91.87617 42.352125 
L 92.417261 44.998125 
L 92.958352 46.132125 
L 93.499443 46.888125 
L 94.040534 48.778125 
L 94.581625 49.912125 
L 95.122716 53.314125 
L 95.663807 54.826125 
L 96.204898 57.472125 
L 96.745989 63.898125 
L 97.28708 67.678125 
L 97.82817 69.568125 
L 98.369261 70.324125 
L 98.910352 72.592125 
L 100.533625 85.822125 
L 101.074716 87.712125 
L 101.615807 91.114125 
L 102.156898 95.650125 
L 102.697989 97.162125 
L 104.321261 108.880125 
L 105.403443 113.794125 
L 105.944534 116.062125 
L 107.567807 125.890125 
L 109.19108 133.450125 
L 110.273261 137.986125 
L 110.814352 141.766125 
L 111.355443 144.412125 
L 111.896534 148.948125 
L 112.978716 154.618125 
L 113.519807 158.398125 
L 114.601989 162.178125 
L 115.14308 164.824125 
L 115.68417 166.336125 
L 116.766352 172.006125 
L 117.307443 173.896125 
L 118.389625 181.078125 
L 119.471807 184.480125 
L 120.012898 185.992125 
L 121.09508 189.394125 
L 121.63617 192.418125 
L 122.177261 193.930125 
L 122.718352 196.198125 
L 124.341625 199.600125 
L 124.882716 199.978125 
L 125.423807 203.002125 
L 125.964898 203.380125 
L 126.505989 204.136125 
L 127.04708 205.648125 
L 127.58817 206.026125 
L 128.129261 210.184125 
L 128.670352 210.940125 
L 129.211443 212.074125 
L 129.752534 213.964125 
L 130.293625 214.720125 
L 130.834716 215.098125 
L 131.916898 217.366125 
L 132.457989 217.366125 
L 132.99908 219.256125 
L 134.081261 221.524125 
L 134.622352 223.036125 
L 135.163443 223.414125 
L 136.245625 227.194125 
L 136.786716 227.572125 
L 138.95108 230.596125 
L 139.49217 231.730125 
L 140.574352 233.242125 
L 141.115443 233.242125 
L 141.656534 235.510125 
L 142.197625 237.022125 
L 143.279807 237.022125 
L 143.820898 238.156125 
L 144.361989 238.912125 
L 144.90308 239.290125 
L 145.44417 240.802125 
L 146.526352 243.070125 
L 147.067443 244.582125 
L 147.608534 245.716125 
L 148.690716 246.472125 
L 149.231807 247.606125 
L 150.313989 248.362125 
L 150.85508 249.118125 
L 152.478352 250.252125 
L 153.019443 250.252125 
L 154.101625 251.764125 
L 155.183807 251.764125 
L 155.724898 252.142125 
L 156.265989 252.898125 
L 157.34817 252.898125 
L 157.889261 254.032125 
L 158.971443 254.788125 
L 159.512534 255.544125 
L 160.053625 257.434125 
L 160.594716 257.434125 
L 162.75908 258.946125 
L 163.841261 258.946125 
L 166.005625 260.458125 
L 166.546716 261.214125 
L 167.628898 261.214125 
L 168.169989 262.348125 
L 168.71108 262.726125 
L 169.25217 263.482125 
L 169.793261 263.860125 
L 170.875443 263.860125 
L 171.416534 264.238125 
L 171.957625 264.238125 
L 173.039807 265.750125 
L 173.580898 265.750125 
L 174.121989 266.128125 
L 174.66308 266.884125 
L 175.20417 266.884125 
L 175.745261 267.262125 
L 177.368534 267.262125 
L 177.909625 268.018125 
L 178.991807 268.018125 
L 180.073989 268.774125 
L 180.61508 268.774125 
L 181.15617 269.152125 
L 181.697261 269.152125 
L 182.238352 269.530125 
L 182.779443 270.286125 
L 183.320534 270.664125 
L 188.731443 270.664125 
L 189.272534 271.042125 
L 193.06017 271.042125 
L 193.601261 271.420125 
L 196.306716 271.420125 
L 196.847807 272.176125 
L 197.388898 272.176125 
L 197.929989 272.554125 
L 202.258716 272.554125 
L 202.799807 272.932125 
L 204.96417 272.932125 
L 205.505261 273.310125 
L 206.587443 273.310125 
L 207.128534 274.066125 
L 220.655807 274.066125 
L 221.196898 274.444125 
L 223.361261 274.444125 
L 223.902352 274.822125 
L 231.477625 274.822125 
L 232.018716 275.200125 
L 235.806352 275.200125 
L 236.347443 275.578125 
L 283.422352 275.578125 
L 283.963443 275.956125 
L 289.374352 275.956125 
L 289.915443 276.334125 
L 387.852898 276.334125 
L 387.852898 276.334125 
" style="fill:none;stroke:#ff6800;stroke-linecap:round;stroke-width:1.5;"/>
   </g>
   <g id="line2d_24">
    <path clip-path="url(#pe3ed3269b3)" d="M 63.198352 276.334125 
L 64.821625 275.200125 
L 67.52708 265.750125 
L 68.609261 260.080125 
L 69.691443 249.874125 
L 71.314716 225.304125 
L 71.855807 222.280125 
L 72.937989 204.514125 
L 73.47908 199.600125 
L 74.561261 187.126125 
L 75.102352 178.810125 
L 75.643443 172.384125 
L 76.184534 167.470125 
L 76.725625 161.044125 
L 77.266716 156.130125 
L 79.97217 117.574125 
L 80.513261 113.416125 
L 81.054352 108.124125 
L 81.595443 104.722125 
L 82.677625 96.784125 
L 83.218716 93.760125 
L 83.759807 91.492125 
L 84.300898 87.712125 
L 84.841989 85.066125 
L 85.38308 86.578125 
L 85.92417 78.262125 
L 86.465261 74.482125 
L 87.006352 73.348125 
L 87.547443 74.104125 
L 88.088534 75.616125 
L 88.629625 71.080125 
L 89.170716 74.482125 
L 89.711807 75.994125 
L 90.252898 77.128125 
L 90.793989 77.884125 
L 91.33508 79.018125 
L 91.87617 83.176125 
L 92.417261 83.932125 
L 92.958352 88.846125 
L 93.499443 90.736125 
L 94.040534 95.650125 
L 94.581625 97.540125 
L 95.122716 102.076125 
L 95.663807 102.832125 
L 96.204898 106.234125 
L 96.745989 108.880125 
L 97.28708 113.038125 
L 98.369261 119.464125 
L 98.910352 124.000125 
L 99.451443 129.670125 
L 99.992534 133.450125 
L 100.533625 139.498125 
L 101.074716 142.900125 
L 102.697989 154.618125 
L 103.23908 156.508125 
L 103.78017 160.666125 
L 104.321261 162.178125 
L 104.862352 164.824125 
L 105.403443 165.958125 
L 105.944534 168.226125 
L 106.485625 172.762125 
L 107.026716 175.786125 
L 107.567807 177.298125 
L 108.108898 180.322125 
L 108.649989 184.480125 
L 109.19108 186.748125 
L 109.73217 187.504125 
L 110.273261 188.638125 
L 110.814352 190.906125 
L 111.355443 192.418125 
L 111.896534 193.552125 
L 112.437625 193.930125 
L 112.978716 196.198125 
L 113.519807 196.954125 
L 114.060898 199.600125 
L 114.601989 200.734125 
L 115.68417 203.758125 
L 117.307443 209.806125 
L 117.848534 212.074125 
L 118.389625 212.830125 
L 118.930716 213.208125 
L 119.471807 213.964125 
L 120.553989 216.988125 
L 121.09508 218.122125 
L 121.63617 220.012125 
L 122.718352 221.524125 
L 123.259443 221.524125 
L 123.800534 222.658125 
L 124.341625 223.036125 
L 124.882716 224.926125 
L 125.423807 225.304125 
L 125.964898 226.816125 
L 126.505989 227.572125 
L 127.58817 230.596125 
L 128.129261 231.352125 
L 128.670352 233.998125 
L 129.211443 235.510125 
L 130.293625 237.778125 
L 131.916898 240.046125 
L 132.99908 240.046125 
L 133.54017 241.180125 
L 134.081261 242.692125 
L 134.622352 243.070125 
L 135.163443 244.582125 
L 136.245625 246.094125 
L 136.786716 246.472125 
L 137.327807 247.606125 
L 138.409989 247.606125 
L 138.95108 248.740125 
L 140.033261 250.252125 
L 141.115443 251.008125 
L 141.656534 251.764125 
L 142.738716 251.764125 
L 143.279807 252.142125 
L 144.90308 254.410125 
L 147.067443 255.922125 
L 147.608534 257.056125 
L 148.149625 257.056125 
L 148.690716 257.434125 
L 149.231807 257.434125 
L 149.772898 257.812125 
L 150.85508 259.324125 
L 151.39617 259.702125 
L 151.937261 259.702125 
L 152.478352 260.458125 
L 153.019443 261.592125 
L 153.560534 261.592125 
L 154.101625 261.970125 
L 156.265989 261.970125 
L 156.80708 263.104125 
L 157.34817 263.104125 
L 160.053625 264.994125 
L 160.594716 264.994125 
L 161.676898 265.750125 
L 162.217989 265.750125 
L 162.75908 266.506125 
L 163.30017 266.884125 
L 166.546716 266.884125 
L 169.25217 268.774125 
L 171.416534 268.774125 
L 171.957625 269.908125 
L 172.498716 270.286125 
L 175.20417 270.286125 
L 175.745261 270.664125 
L 176.286352 270.664125 
L 177.368534 271.420125 
L 183.861625 271.420125 
L 184.402716 271.798125 
L 186.56708 271.798125 
L 187.10817 272.176125 
L 188.190352 272.176125 
L 188.731443 272.932125 
L 189.272534 272.932125 
L 189.813625 273.310125 
L 190.354716 273.310125 
L 190.895807 273.688125 
L 193.06017 273.688125 
L 193.601261 274.066125 
L 194.142352 274.066125 
L 194.683443 274.444125 
L 198.47108 274.444125 
L 199.01217 274.822125 
L 200.094352 274.822125 
L 200.635443 275.200125 
L 208.751807 275.200125 
L 209.292898 275.578125 
L 211.457261 275.578125 
L 211.998352 275.956125 
L 235.806352 275.956125 
L 236.347443 276.334125 
L 387.852898 276.334125 
L 387.852898 276.334125 
" style="fill:none;stroke:#f10800;stroke-linecap:round;stroke-width:1.5;"/>
   </g>
   <g id="patch_3">
    <path d="M 46.965625 288.430125 
L 46.965625 22.318125 
" style="fill:none;stroke:#cccccc;stroke-linecap:square;stroke-linejoin:miter;stroke-width:0.8;"/>
   </g>
   <g id="patch_4">
    <path d="M 404.085625 288.430125 
L 404.085625 22.318125 
" style="fill:none;stroke:#cccccc;stroke-linecap:square;stroke-linejoin:miter;stroke-width:0.8;"/>
   </g>
   <g id="patch_5">
    <path d="M 46.965625 288.430125 
L 404.085625 288.430125 
" style="fill:none;stroke:#cccccc;stroke-linecap:square;stroke-linejoin:miter;stroke-width:0.8;"/>
   </g>
   <g id="patch_6">
    <path d="M 46.965625 22.318125 
L 404.085625 22.318125 
" style="fill:none;stroke:#cccccc;stroke-linecap:square;stroke-linejoin:miter;stroke-width:0.8;"/>
   </g>
   <g id="text_17">
    <!-- Effector T CD4 -->
    <defs>
     <path d="M 9.8125 72.90625 
L 55.90625 72.90625 
L 55.90625 64.59375 
L 19.671875 64.59375 
L 19.671875 43.015625 
L 54.390625 43.015625 
L 54.390625 34.71875 
L 19.671875 34.71875 
L 19.671875 8.296875 
L 56.78125 8.296875 
L 56.78125 0 
L 9.8125 0 
z
" id="DejaVuSans-69"/>
     <path d="M 37.109375 75.984375 
L 37.109375 68.5 
L 28.515625 68.5 
Q 23.6875 68.5 21.796875 66.546875 
Q 19.921875 64.59375 19.921875 59.515625 
L 19.921875 54.6875 
L 34.71875 54.6875 
L 34.71875 47.703125 
L 19.921875 47.703125 
L 19.921875 0 
L 10.890625 0 
L 10.890625 47.703125 
L 2.296875 47.703125 
L 2.296875 54.6875 
L 10.890625 54.6875 
L 10.890625 58.5 
Q 10.890625 67.625 15.140625 71.796875 
Q 19.390625 75.984375 28.609375 75.984375 
z
" id="DejaVuSans-102"/>
     <path d="M 30.609375 48.390625 
Q 23.390625 48.390625 19.1875 42.75 
Q 14.984375 37.109375 14.984375 27.296875 
Q 14.984375 17.484375 19.15625 11.84375 
Q 23.34375 6.203125 30.609375 6.203125 
Q 37.796875 6.203125 41.984375 11.859375 
Q 46.1875 17.53125 46.1875 27.296875 
Q 46.1875 37.015625 41.984375 42.703125 
Q 37.796875 48.390625 30.609375 48.390625 
z
M 30.609375 56 
Q 42.328125 56 49.015625 48.375 
Q 55.71875 40.765625 55.71875 27.296875 
Q 55.71875 13.875 49.015625 6.21875 
Q 42.328125 -1.421875 30.609375 -1.421875 
Q 18.84375 -1.421875 12.171875 6.21875 
Q 5.515625 13.875 5.515625 27.296875 
Q 5.515625 40.765625 12.171875 48.375 
Q 18.84375 56 30.609375 56 
z
" id="DejaVuSans-111"/>
     <path d="M -0.296875 72.90625 
L 61.375 72.90625 
L 61.375 64.59375 
L 35.5 64.59375 
L 35.5 0 
L 25.59375 0 
L 25.59375 64.59375 
L -0.296875 64.59375 
z
" id="DejaVuSans-84"/>
     <path d="M 64.40625 67.28125 
L 64.40625 56.890625 
Q 59.421875 61.53125 53.78125 63.8125 
Q 48.140625 66.109375 41.796875 66.109375 
Q 29.296875 66.109375 22.65625 58.46875 
Q 16.015625 50.828125 16.015625 36.375 
Q 16.015625 21.96875 22.65625 14.328125 
Q 29.296875 6.6875 41.796875 6.6875 
Q 48.140625 6.6875 53.78125 8.984375 
Q 59.421875 11.28125 64.40625 15.921875 
L 64.40625 5.609375 
Q 59.234375 2.09375 53.4375 0.328125 
Q 47.65625 -1.421875 41.21875 -1.421875 
Q 24.65625 -1.421875 15.125 8.703125 
Q 5.609375 18.84375 5.609375 36.375 
Q 5.609375 53.953125 15.125 64.078125 
Q 24.65625 74.21875 41.21875 74.21875 
Q 47.75 74.21875 53.53125 72.484375 
Q 59.328125 70.75 64.40625 67.28125 
z
" id="DejaVuSans-67"/>
     <path d="M 19.671875 64.796875 
L 19.671875 8.109375 
L 31.59375 8.109375 
Q 46.6875 8.109375 53.6875 14.9375 
Q 60.6875 21.78125 60.6875 36.53125 
Q 60.6875 51.171875 53.6875 57.984375 
Q 46.6875 64.796875 31.59375 64.796875 
z
M 9.8125 72.90625 
L 30.078125 72.90625 
Q 51.265625 72.90625 61.171875 64.09375 
Q 71.09375 55.28125 71.09375 36.53125 
Q 71.09375 17.671875 61.125 8.828125 
Q 51.171875 0 30.078125 0 
L 9.8125 0 
z
" id="DejaVuSans-68"/>
    </defs>
    <g style="fill:#262626;" transform="translate(181.923438 16.318125)scale(0.12 -0.12)">
     <use xlink:href="#DejaVuSans-69"/>
     <use x="63.183594" xlink:href="#DejaVuSans-102"/>
     <use x="98.388672" xlink:href="#DejaVuSans-102"/>
     <use x="133.59375" xlink:href="#DejaVuSans-101"/>
     <use x="195.117188" xlink:href="#DejaVuSans-99"/>
     <use x="250.097656" xlink:href="#DejaVuSans-116"/>
     <use x="289.306641" xlink:href="#DejaVuSans-111"/>
     <use x="350.488281" xlink:href="#DejaVuSans-114"/>
     <use x="391.601562" xlink:href="#DejaVuSans-32"/>
     <use x="423.388672" xlink:href="#DejaVuSans-84"/>
     <use x="484.472656" xlink:href="#DejaVuSans-32"/>
     <use x="516.259766" xlink:href="#DejaVuSans-67"/>
     <use x="586.083984" xlink:href="#DejaVuSans-68"/>
     <use x="663.085938" xlink:href="#DejaVuSans-52"/>
    </g>
   </g>
  </g>
 </g>
 <defs>
  <clipPath id="pe3ed3269b3">
   <rect height="266.112" width="357.12" x="46.965625" y="22.318125"/>
  </clipPath>
 </defs>
</svg>
