<?xml version="1.0" encoding="utf-8" standalone="no"?>
<!DOCTYPE svg PUBLIC "-//W3C//DTD SVG 1.1//EN"
  "http://www.w3.org/Graphics/SVG/1.1/DTD/svg11.dtd">
<!-- Created with matplotlib (https://matplotlib.org/) -->
<svg height="325.986375pt" version="1.1" viewBox="0 0 417.648125 325.986375" width="417.648125pt" xmlns="http://www.w3.org/2000/svg" xmlns:xlink="http://www.w3.org/1999/xlink">
 <defs>
  <style type="text/css">
*{stroke-linecap:butt;stroke-linejoin:round;white-space:pre;}
  </style>
 </defs>
 <g id="figure_1">
  <g id="patch_1">
   <path d="M 0 325.986375 
L 417.648125 325.986375 
L 417.648125 0 
L 0 0 
z
" style="fill:#ffffff;"/>
  </g>
  <g id="axes_1">
   <g id="patch_2">
    <path d="M 53.328125 288.430125 
L 410.448125 288.430125 
L 410.448125 22.318125 
L 53.328125 22.318125 
z
" style="fill:#ffffff;"/>
   </g>
   <g id="matplotlib.axis_1">
    <g id="xtick_1">
     <g id="line2d_1">
      <path clip-path="url(#pf4c920461f)" d="M 69.560852 288.430125 
L 69.560852 22.318125 
" style="fill:none;stroke:#cccccc;stroke-linecap:round;stroke-width:0.8;"/>
     </g>
     <g id="text_1">
      <!-- 0 -->
      <defs>
       <path d="M 31.78125 66.40625 
Q 24.171875 66.40625 20.328125 58.90625 
Q 16.5 51.421875 16.5 36.375 
Q 16.5 21.390625 20.328125 13.890625 
Q 24.171875 6.390625 31.78125 6.390625 
Q 39.453125 6.390625 43.28125 13.890625 
Q 47.125 21.390625 47.125 36.375 
Q 47.125 51.421875 43.28125 58.90625 
Q 39.453125 66.40625 31.78125 66.40625 
z
M 31.78125 74.21875 
Q 44.046875 74.21875 50.515625 64.515625 
Q 56.984375 54.828125 56.984375 36.375 
Q 56.984375 17.96875 50.515625 8.265625 
Q 44.046875 -1.421875 31.78125 -1.421875 
Q 19.53125 -1.421875 13.0625 8.265625 
Q 6.59375 17.96875 6.59375 36.375 
Q 6.59375 54.828125 13.0625 64.515625 
Q 19.53125 74.21875 31.78125 74.21875 
z
" id="DejaVuSans-48"/>
      </defs>
      <g style="fill:#262626;" transform="translate(66.379602 303.028562)scale(0.1 -0.1)">
       <use xlink:href="#DejaVuSans-48"/>
      </g>
     </g>
    </g>
    <g id="xtick_2">
     <g id="line2d_2">
      <path clip-path="url(#pf4c920461f)" d="M 123.669943 288.430125 
L 123.669943 22.318125 
" style="fill:none;stroke:#cccccc;stroke-linecap:round;stroke-width:0.8;"/>
     </g>
     <g id="text_2">
      <!-- 10 -->
      <defs>
       <path d="M 12.40625 8.296875 
L 28.515625 8.296875 
L 28.515625 63.921875 
L 10.984375 60.40625 
L 10.984375 69.390625 
L 28.421875 72.90625 
L 38.28125 72.90625 
L 38.28125 8.296875 
L 54.390625 8.296875 
L 54.390625 0 
L 12.40625 0 
z
" id="DejaVuSans-49"/>
      </defs>
      <g style="fill:#262626;" transform="translate(117.307443 303.028562)scale(0.1 -0.1)">
       <use xlink:href="#DejaVuSans-49"/>
       <use x="63.623047" xlink:href="#DejaVuSans-48"/>
      </g>
     </g>
    </g>
    <g id="xtick_3">
     <g id="line2d_3">
      <path clip-path="url(#pf4c920461f)" d="M 177.779034 288.430125 
L 177.779034 22.318125 
" style="fill:none;stroke:#cccccc;stroke-linecap:round;stroke-width:0.8;"/>
     </g>
     <g id="text_3">
      <!-- 20 -->
      <defs>
       <path d="M 19.1875 8.296875 
L 53.609375 8.296875 
L 53.609375 0 
L 7.328125 0 
L 7.328125 8.296875 
Q 12.9375 14.109375 22.625 23.890625 
Q 32.328125 33.6875 34.8125 36.53125 
Q 39.546875 41.84375 41.421875 45.53125 
Q 43.3125 49.21875 43.3125 52.78125 
Q 43.3125 58.59375 39.234375 62.25 
Q 35.15625 65.921875 28.609375 65.921875 
Q 23.96875 65.921875 18.8125 64.3125 
Q 13.671875 62.703125 7.8125 59.421875 
L 7.8125 69.390625 
Q 13.765625 71.78125 18.9375 73 
Q 24.125 74.21875 28.421875 74.21875 
Q 39.75 74.21875 46.484375 68.546875 
Q 53.21875 62.890625 53.21875 53.421875 
Q 53.21875 48.921875 51.53125 44.890625 
Q 49.859375 40.875 45.40625 35.40625 
Q 44.1875 33.984375 37.640625 27.21875 
Q 31.109375 20.453125 19.1875 8.296875 
z
" id="DejaVuSans-50"/>
      </defs>
      <g style="fill:#262626;" transform="translate(171.416534 303.028562)scale(0.1 -0.1)">
       <use xlink:href="#DejaVuSans-50"/>
       <use x="63.623047" xlink:href="#DejaVuSans-48"/>
      </g>
     </g>
    </g>
    <g id="xtick_4">
     <g id="line2d_4">
      <path clip-path="url(#pf4c920461f)" d="M 231.888125 288.430125 
L 231.888125 22.318125 
" style="fill:none;stroke:#cccccc;stroke-linecap:round;stroke-width:0.8;"/>
     </g>
     <g id="text_4">
      <!-- 30 -->
      <defs>
       <path d="M 40.578125 39.3125 
Q 47.65625 37.796875 51.625 33 
Q 55.609375 28.21875 55.609375 21.1875 
Q 55.609375 10.40625 48.1875 4.484375 
Q 40.765625 -1.421875 27.09375 -1.421875 
Q 22.515625 -1.421875 17.65625 -0.515625 
Q 12.796875 0.390625 7.625 2.203125 
L 7.625 11.71875 
Q 11.71875 9.328125 16.59375 8.109375 
Q 21.484375 6.890625 26.8125 6.890625 
Q 36.078125 6.890625 40.9375 10.546875 
Q 45.796875 14.203125 45.796875 21.1875 
Q 45.796875 27.640625 41.28125 31.265625 
Q 36.765625 34.90625 28.71875 34.90625 
L 20.21875 34.90625 
L 20.21875 43.015625 
L 29.109375 43.015625 
Q 36.375 43.015625 40.234375 45.921875 
Q 44.09375 48.828125 44.09375 54.296875 
Q 44.09375 59.90625 40.109375 62.90625 
Q 36.140625 65.921875 28.71875 65.921875 
Q 24.65625 65.921875 20.015625 65.03125 
Q 15.375 64.15625 9.8125 62.3125 
L 9.8125 71.09375 
Q 15.4375 72.65625 20.34375 73.4375 
Q 25.25 74.21875 29.59375 74.21875 
Q 40.828125 74.21875 47.359375 69.109375 
Q 53.90625 64.015625 53.90625 55.328125 
Q 53.90625 49.265625 50.4375 45.09375 
Q 46.96875 40.921875 40.578125 39.3125 
z
" id="DejaVuSans-51"/>
      </defs>
      <g style="fill:#262626;" transform="translate(225.525625 303.028562)scale(0.1 -0.1)">
       <use xlink:href="#DejaVuSans-51"/>
       <use x="63.623047" xlink:href="#DejaVuSans-48"/>
      </g>
     </g>
    </g>
    <g id="xtick_5">
     <g id="line2d_5">
      <path clip-path="url(#pf4c920461f)" d="M 285.997216 288.430125 
L 285.997216 22.318125 
" style="fill:none;stroke:#cccccc;stroke-linecap:round;stroke-width:0.8;"/>
     </g>
     <g id="text_5">
      <!-- 40 -->
      <defs>
       <path d="M 37.796875 64.3125 
L 12.890625 25.390625 
L 37.796875 25.390625 
z
M 35.203125 72.90625 
L 47.609375 72.90625 
L 47.609375 25.390625 
L 58.015625 25.390625 
L 58.015625 17.1875 
L 47.609375 17.1875 
L 47.609375 0 
L 37.796875 0 
L 37.796875 17.1875 
L 4.890625 17.1875 
L 4.890625 26.703125 
z
" id="DejaVuSans-52"/>
      </defs>
      <g style="fill:#262626;" transform="translate(279.634716 303.028562)scale(0.1 -0.1)">
       <use xlink:href="#DejaVuSans-52"/>
       <use x="63.623047" xlink:href="#DejaVuSans-48"/>
      </g>
     </g>
    </g>
    <g id="xtick_6">
     <g id="line2d_6">
      <path clip-path="url(#pf4c920461f)" d="M 340.106307 288.430125 
L 340.106307 22.318125 
" style="fill:none;stroke:#cccccc;stroke-linecap:round;stroke-width:0.8;"/>
     </g>
     <g id="text_6">
      <!-- 50 -->
      <defs>
       <path d="M 10.796875 72.90625 
L 49.515625 72.90625 
L 49.515625 64.59375 
L 19.828125 64.59375 
L 19.828125 46.734375 
Q 21.96875 47.46875 24.109375 47.828125 
Q 26.265625 48.1875 28.421875 48.1875 
Q 40.625 48.1875 47.75 41.5 
Q 54.890625 34.8125 54.890625 23.390625 
Q 54.890625 11.625 47.5625 5.09375 
Q 40.234375 -1.421875 26.90625 -1.421875 
Q 22.3125 -1.421875 17.546875 -0.640625 
Q 12.796875 0.140625 7.71875 1.703125 
L 7.71875 11.625 
Q 12.109375 9.234375 16.796875 8.0625 
Q 21.484375 6.890625 26.703125 6.890625 
Q 35.15625 6.890625 40.078125 11.328125 
Q 45.015625 15.765625 45.015625 23.390625 
Q 45.015625 31 40.078125 35.4375 
Q 35.15625 39.890625 26.703125 39.890625 
Q 22.75 39.890625 18.8125 39.015625 
Q 14.890625 38.140625 10.796875 36.28125 
z
" id="DejaVuSans-53"/>
      </defs>
      <g style="fill:#262626;" transform="translate(333.743807 303.028562)scale(0.1 -0.1)">
       <use xlink:href="#DejaVuSans-53"/>
       <use x="63.623047" xlink:href="#DejaVuSans-48"/>
      </g>
     </g>
    </g>
    <g id="xtick_7">
     <g id="line2d_7">
      <path clip-path="url(#pf4c920461f)" d="M 394.215398 288.430125 
L 394.215398 22.318125 
" style="fill:none;stroke:#cccccc;stroke-linecap:round;stroke-width:0.8;"/>
     </g>
     <g id="text_7">
      <!-- 60 -->
      <defs>
       <path d="M 33.015625 40.375 
Q 26.375 40.375 22.484375 35.828125 
Q 18.609375 31.296875 18.609375 23.390625 
Q 18.609375 15.53125 22.484375 10.953125 
Q 26.375 6.390625 33.015625 6.390625 
Q 39.65625 6.390625 43.53125 10.953125 
Q 47.40625 15.53125 47.40625 23.390625 
Q 47.40625 31.296875 43.53125 35.828125 
Q 39.65625 40.375 33.015625 40.375 
z
M 52.59375 71.296875 
L 52.59375 62.3125 
Q 48.875 64.0625 45.09375 64.984375 
Q 41.3125 65.921875 37.59375 65.921875 
Q 27.828125 65.921875 22.671875 59.328125 
Q 17.53125 52.734375 16.796875 39.40625 
Q 19.671875 43.65625 24.015625 45.921875 
Q 28.375 48.1875 33.59375 48.1875 
Q 44.578125 48.1875 50.953125 41.515625 
Q 57.328125 34.859375 57.328125 23.390625 
Q 57.328125 12.15625 50.6875 5.359375 
Q 44.046875 -1.421875 33.015625 -1.421875 
Q 20.359375 -1.421875 13.671875 8.265625 
Q 6.984375 17.96875 6.984375 36.375 
Q 6.984375 53.65625 15.1875 63.9375 
Q 23.390625 74.21875 37.203125 74.21875 
Q 40.921875 74.21875 44.703125 73.484375 
Q 48.484375 72.75 52.59375 71.296875 
z
" id="DejaVuSans-54"/>
      </defs>
      <g style="fill:#262626;" transform="translate(387.852898 303.028562)scale(0.1 -0.1)">
       <use xlink:href="#DejaVuSans-54"/>
       <use x="63.623047" xlink:href="#DejaVuSans-48"/>
      </g>
     </g>
    </g>
    <g id="text_8">
     <!-- time (days) -->
     <defs>
      <path d="M 18.3125 70.21875 
L 18.3125 54.6875 
L 36.8125 54.6875 
L 36.8125 47.703125 
L 18.3125 47.703125 
L 18.3125 18.015625 
Q 18.3125 11.328125 20.140625 9.421875 
Q 21.96875 7.515625 27.59375 7.515625 
L 36.8125 7.515625 
L 36.8125 0 
L 27.59375 0 
Q 17.1875 0 13.234375 3.875 
Q 9.28125 7.765625 9.28125 18.015625 
L 9.28125 47.703125 
L 2.6875 47.703125 
L 2.6875 54.6875 
L 9.28125 54.6875 
L 9.28125 70.21875 
z
" id="DejaVuSans-116"/>
      <path d="M 9.421875 54.6875 
L 18.40625 54.6875 
L 18.40625 0 
L 9.421875 0 
z
M 9.421875 75.984375 
L 18.40625 75.984375 
L 18.40625 64.59375 
L 9.421875 64.59375 
z
" id="DejaVuSans-105"/>
      <path d="M 52 44.1875 
Q 55.375 50.25 60.0625 53.125 
Q 64.75 56 71.09375 56 
Q 79.640625 56 84.28125 50.015625 
Q 88.921875 44.046875 88.921875 33.015625 
L 88.921875 0 
L 79.890625 0 
L 79.890625 32.71875 
Q 79.890625 40.578125 77.09375 44.375 
Q 74.3125 48.1875 68.609375 48.1875 
Q 61.625 48.1875 57.5625 43.546875 
Q 53.515625 38.921875 53.515625 30.90625 
L 53.515625 0 
L 44.484375 0 
L 44.484375 32.71875 
Q 44.484375 40.625 41.703125 44.40625 
Q 38.921875 48.1875 33.109375 48.1875 
Q 26.21875 48.1875 22.15625 43.53125 
Q 18.109375 38.875 18.109375 30.90625 
L 18.109375 0 
L 9.078125 0 
L 9.078125 54.6875 
L 18.109375 54.6875 
L 18.109375 46.1875 
Q 21.1875 51.21875 25.484375 53.609375 
Q 29.78125 56 35.6875 56 
Q 41.65625 56 45.828125 52.96875 
Q 50 49.953125 52 44.1875 
z
" id="DejaVuSans-109"/>
      <path d="M 56.203125 29.59375 
L 56.203125 25.203125 
L 14.890625 25.203125 
Q 15.484375 15.921875 20.484375 11.0625 
Q 25.484375 6.203125 34.421875 6.203125 
Q 39.59375 6.203125 44.453125 7.46875 
Q 49.3125 8.734375 54.109375 11.28125 
L 54.109375 2.78125 
Q 49.265625 0.734375 44.1875 -0.34375 
Q 39.109375 -1.421875 33.890625 -1.421875 
Q 20.796875 -1.421875 13.15625 6.1875 
Q 5.515625 13.8125 5.515625 26.8125 
Q 5.515625 40.234375 12.765625 48.109375 
Q 20.015625 56 32.328125 56 
Q 43.359375 56 49.78125 48.890625 
Q 56.203125 41.796875 56.203125 29.59375 
z
M 47.21875 32.234375 
Q 47.125 39.59375 43.09375 43.984375 
Q 39.0625 48.390625 32.421875 48.390625 
Q 24.90625 48.390625 20.390625 44.140625 
Q 15.875 39.890625 15.1875 32.171875 
z
" id="DejaVuSans-101"/>
      <path id="DejaVuSans-32"/>
      <path d="M 31 75.875 
Q 24.46875 64.65625 21.28125 53.65625 
Q 18.109375 42.671875 18.109375 31.390625 
Q 18.109375 20.125 21.3125 9.0625 
Q 24.515625 -2 31 -13.1875 
L 23.1875 -13.1875 
Q 15.875 -1.703125 12.234375 9.375 
Q 8.59375 20.453125 8.59375 31.390625 
Q 8.59375 42.28125 12.203125 53.3125 
Q 15.828125 64.359375 23.1875 75.875 
z
" id="DejaVuSans-40"/>
      <path d="M 45.40625 46.390625 
L 45.40625 75.984375 
L 54.390625 75.984375 
L 54.390625 0 
L 45.40625 0 
L 45.40625 8.203125 
Q 42.578125 3.328125 38.25 0.953125 
Q 33.9375 -1.421875 27.875 -1.421875 
Q 17.96875 -1.421875 11.734375 6.484375 
Q 5.515625 14.40625 5.515625 27.296875 
Q 5.515625 40.1875 11.734375 48.09375 
Q 17.96875 56 27.875 56 
Q 33.9375 56 38.25 53.625 
Q 42.578125 51.265625 45.40625 46.390625 
z
M 14.796875 27.296875 
Q 14.796875 17.390625 18.875 11.75 
Q 22.953125 6.109375 30.078125 6.109375 
Q 37.203125 6.109375 41.296875 11.75 
Q 45.40625 17.390625 45.40625 27.296875 
Q 45.40625 37.203125 41.296875 42.84375 
Q 37.203125 48.484375 30.078125 48.484375 
Q 22.953125 48.484375 18.875 42.84375 
Q 14.796875 37.203125 14.796875 27.296875 
z
" id="DejaVuSans-100"/>
      <path d="M 34.28125 27.484375 
Q 23.390625 27.484375 19.1875 25 
Q 14.984375 22.515625 14.984375 16.5 
Q 14.984375 11.71875 18.140625 8.90625 
Q 21.296875 6.109375 26.703125 6.109375 
Q 34.1875 6.109375 38.703125 11.40625 
Q 43.21875 16.703125 43.21875 25.484375 
L 43.21875 27.484375 
z
M 52.203125 31.203125 
L 52.203125 0 
L 43.21875 0 
L 43.21875 8.296875 
Q 40.140625 3.328125 35.546875 0.953125 
Q 30.953125 -1.421875 24.3125 -1.421875 
Q 15.921875 -1.421875 10.953125 3.296875 
Q 6 8.015625 6 15.921875 
Q 6 25.140625 12.171875 29.828125 
Q 18.359375 34.515625 30.609375 34.515625 
L 43.21875 34.515625 
L 43.21875 35.40625 
Q 43.21875 41.609375 39.140625 45 
Q 35.0625 48.390625 27.6875 48.390625 
Q 23 48.390625 18.546875 47.265625 
Q 14.109375 46.140625 10.015625 43.890625 
L 10.015625 52.203125 
Q 14.9375 54.109375 19.578125 55.046875 
Q 24.21875 56 28.609375 56 
Q 40.484375 56 46.34375 49.84375 
Q 52.203125 43.703125 52.203125 31.203125 
z
" id="DejaVuSans-97"/>
      <path d="M 32.171875 -5.078125 
Q 28.375 -14.84375 24.75 -17.8125 
Q 21.140625 -20.796875 15.09375 -20.796875 
L 7.90625 -20.796875 
L 7.90625 -13.28125 
L 13.1875 -13.28125 
Q 16.890625 -13.28125 18.9375 -11.515625 
Q 21 -9.765625 23.484375 -3.21875 
L 25.09375 0.875 
L 2.984375 54.6875 
L 12.5 54.6875 
L 29.59375 11.921875 
L 46.6875 54.6875 
L 56.203125 54.6875 
z
" id="DejaVuSans-121"/>
      <path d="M 44.28125 53.078125 
L 44.28125 44.578125 
Q 40.484375 46.53125 36.375 47.5 
Q 32.28125 48.484375 27.875 48.484375 
Q 21.1875 48.484375 17.84375 46.4375 
Q 14.5 44.390625 14.5 40.28125 
Q 14.5 37.15625 16.890625 35.375 
Q 19.28125 33.59375 26.515625 31.984375 
L 29.59375 31.296875 
Q 39.15625 29.25 43.1875 25.515625 
Q 47.21875 21.78125 47.21875 15.09375 
Q 47.21875 7.46875 41.1875 3.015625 
Q 35.15625 -1.421875 24.609375 -1.421875 
Q 20.21875 -1.421875 15.453125 -0.5625 
Q 10.6875 0.296875 5.421875 2 
L 5.421875 11.28125 
Q 10.40625 8.6875 15.234375 7.390625 
Q 20.0625 6.109375 24.8125 6.109375 
Q 31.15625 6.109375 34.5625 8.28125 
Q 37.984375 10.453125 37.984375 14.40625 
Q 37.984375 18.0625 35.515625 20.015625 
Q 33.0625 21.96875 24.703125 23.78125 
L 21.578125 24.515625 
Q 13.234375 26.265625 9.515625 29.90625 
Q 5.8125 33.546875 5.8125 39.890625 
Q 5.8125 47.609375 11.28125 51.796875 
Q 16.75 56 26.8125 56 
Q 31.78125 56 36.171875 55.265625 
Q 40.578125 54.546875 44.28125 53.078125 
z
" id="DejaVuSans-115"/>
      <path d="M 8.015625 75.875 
L 15.828125 75.875 
Q 23.140625 64.359375 26.78125 53.3125 
Q 30.421875 42.28125 30.421875 31.390625 
Q 30.421875 20.453125 26.78125 9.375 
Q 23.140625 -1.703125 15.828125 -13.1875 
L 8.015625 -13.1875 
Q 14.5 -2 17.703125 9.0625 
Q 20.90625 20.125 20.90625 31.390625 
Q 20.90625 42.671875 17.703125 53.65625 
Q 14.5 64.65625 8.015625 75.875 
z
" id="DejaVuSans-41"/>
     </defs>
     <g style="fill:#262626;" transform="translate(203.299063 316.706687)scale(0.1 -0.1)">
      <use xlink:href="#DejaVuSans-116"/>
      <use x="39.208984" xlink:href="#DejaVuSans-105"/>
      <use x="66.992188" xlink:href="#DejaVuSans-109"/>
      <use x="164.404297" xlink:href="#DejaVuSans-101"/>
      <use x="225.927734" xlink:href="#DejaVuSans-32"/>
      <use x="257.714844" xlink:href="#DejaVuSans-40"/>
      <use x="296.728516" xlink:href="#DejaVuSans-100"/>
      <use x="360.205078" xlink:href="#DejaVuSans-97"/>
      <use x="421.484375" xlink:href="#DejaVuSans-121"/>
      <use x="480.664062" xlink:href="#DejaVuSans-115"/>
      <use x="532.763672" xlink:href="#DejaVuSans-41"/>
     </g>
    </g>
   </g>
   <g id="matplotlib.axis_2">
    <g id="ytick_1">
     <g id="line2d_8">
      <path clip-path="url(#pf4c920461f)" d="M 53.328125 276.334125 
L 410.448125 276.334125 
" style="fill:none;stroke:#cccccc;stroke-linecap:round;stroke-width:0.8;"/>
     </g>
     <g id="text_9">
      <!-- 0 -->
      <g style="fill:#262626;" transform="translate(39.965625 280.133344)scale(0.1 -0.1)">
       <use xlink:href="#DejaVuSans-48"/>
      </g>
     </g>
    </g>
    <g id="ytick_2">
     <g id="line2d_9">
      <path clip-path="url(#pf4c920461f)" d="M 53.328125 221.452092 
L 410.448125 221.452092 
" style="fill:none;stroke:#cccccc;stroke-linecap:round;stroke-width:0.8;"/>
     </g>
     <g id="text_10">
      <!-- 500 -->
      <g style="fill:#262626;" transform="translate(27.240625 225.251311)scale(0.1 -0.1)">
       <use xlink:href="#DejaVuSans-53"/>
       <use x="63.623047" xlink:href="#DejaVuSans-48"/>
       <use x="127.246094" xlink:href="#DejaVuSans-48"/>
      </g>
     </g>
    </g>
    <g id="ytick_3">
     <g id="line2d_10">
      <path clip-path="url(#pf4c920461f)" d="M 53.328125 166.57006 
L 410.448125 166.57006 
" style="fill:none;stroke:#cccccc;stroke-linecap:round;stroke-width:0.8;"/>
     </g>
     <g id="text_11">
      <!-- 1000 -->
      <g style="fill:#262626;" transform="translate(20.878125 170.369278)scale(0.1 -0.1)">
       <use xlink:href="#DejaVuSans-49"/>
       <use x="63.623047" xlink:href="#DejaVuSans-48"/>
       <use x="127.246094" xlink:href="#DejaVuSans-48"/>
       <use x="190.869141" xlink:href="#DejaVuSans-48"/>
      </g>
     </g>
    </g>
    <g id="ytick_4">
     <g id="line2d_11">
      <path clip-path="url(#pf4c920461f)" d="M 53.328125 111.688027 
L 410.448125 111.688027 
" style="fill:none;stroke:#cccccc;stroke-linecap:round;stroke-width:0.8;"/>
     </g>
     <g id="text_12">
      <!-- 1500 -->
      <g style="fill:#262626;" transform="translate(20.878125 115.487246)scale(0.1 -0.1)">
       <use xlink:href="#DejaVuSans-49"/>
       <use x="63.623047" xlink:href="#DejaVuSans-53"/>
       <use x="127.246094" xlink:href="#DejaVuSans-48"/>
       <use x="190.869141" xlink:href="#DejaVuSans-48"/>
      </g>
     </g>
    </g>
    <g id="ytick_5">
     <g id="line2d_12">
      <path clip-path="url(#pf4c920461f)" d="M 53.328125 56.805994 
L 410.448125 56.805994 
" style="fill:none;stroke:#cccccc;stroke-linecap:round;stroke-width:0.8;"/>
     </g>
     <g id="text_13">
      <!-- 2000 -->
      <g style="fill:#262626;" transform="translate(20.878125 60.605213)scale(0.1 -0.1)">
       <use xlink:href="#DejaVuSans-50"/>
       <use x="63.623047" xlink:href="#DejaVuSans-48"/>
       <use x="127.246094" xlink:href="#DejaVuSans-48"/>
       <use x="190.869141" xlink:href="#DejaVuSans-48"/>
      </g>
     </g>
    </g>
    <g id="text_14">
     <!-- cells number -->
     <defs>
      <path d="M 48.78125 52.59375 
L 48.78125 44.1875 
Q 44.96875 46.296875 41.140625 47.34375 
Q 37.3125 48.390625 33.40625 48.390625 
Q 24.65625 48.390625 19.8125 42.84375 
Q 14.984375 37.3125 14.984375 27.296875 
Q 14.984375 17.28125 19.8125 11.734375 
Q 24.65625 6.203125 33.40625 6.203125 
Q 37.3125 6.203125 41.140625 7.25 
Q 44.96875 8.296875 48.78125 10.40625 
L 48.78125 2.09375 
Q 45.015625 0.34375 40.984375 -0.53125 
Q 36.96875 -1.421875 32.421875 -1.421875 
Q 20.0625 -1.421875 12.78125 6.34375 
Q 5.515625 14.109375 5.515625 27.296875 
Q 5.515625 40.671875 12.859375 48.328125 
Q 20.21875 56 33.015625 56 
Q 37.15625 56 41.109375 55.140625 
Q 45.0625 54.296875 48.78125 52.59375 
z
" id="DejaVuSans-99"/>
      <path d="M 9.421875 75.984375 
L 18.40625 75.984375 
L 18.40625 0 
L 9.421875 0 
z
" id="DejaVuSans-108"/>
      <path d="M 54.890625 33.015625 
L 54.890625 0 
L 45.90625 0 
L 45.90625 32.71875 
Q 45.90625 40.484375 42.875 44.328125 
Q 39.84375 48.1875 33.796875 48.1875 
Q 26.515625 48.1875 22.3125 43.546875 
Q 18.109375 38.921875 18.109375 30.90625 
L 18.109375 0 
L 9.078125 0 
L 9.078125 54.6875 
L 18.109375 54.6875 
L 18.109375 46.1875 
Q 21.34375 51.125 25.703125 53.5625 
Q 30.078125 56 35.796875 56 
Q 45.21875 56 50.046875 50.171875 
Q 54.890625 44.34375 54.890625 33.015625 
z
" id="DejaVuSans-110"/>
      <path d="M 8.5 21.578125 
L 8.5 54.6875 
L 17.484375 54.6875 
L 17.484375 21.921875 
Q 17.484375 14.15625 20.5 10.265625 
Q 23.53125 6.390625 29.59375 6.390625 
Q 36.859375 6.390625 41.078125 11.03125 
Q 45.3125 15.671875 45.3125 23.6875 
L 45.3125 54.6875 
L 54.296875 54.6875 
L 54.296875 0 
L 45.3125 0 
L 45.3125 8.40625 
Q 42.046875 3.421875 37.71875 1 
Q 33.40625 -1.421875 27.6875 -1.421875 
Q 18.265625 -1.421875 13.375 4.4375 
Q 8.5 10.296875 8.5 21.578125 
z
M 31.109375 56 
z
" id="DejaVuSans-117"/>
      <path d="M 48.6875 27.296875 
Q 48.6875 37.203125 44.609375 42.84375 
Q 40.53125 48.484375 33.40625 48.484375 
Q 26.265625 48.484375 22.1875 42.84375 
Q 18.109375 37.203125 18.109375 27.296875 
Q 18.109375 17.390625 22.1875 11.75 
Q 26.265625 6.109375 33.40625 6.109375 
Q 40.53125 6.109375 44.609375 11.75 
Q 48.6875 17.390625 48.6875 27.296875 
z
M 18.109375 46.390625 
Q 20.953125 51.265625 25.265625 53.625 
Q 29.59375 56 35.59375 56 
Q 45.5625 56 51.78125 48.09375 
Q 58.015625 40.1875 58.015625 27.296875 
Q 58.015625 14.40625 51.78125 6.484375 
Q 45.5625 -1.421875 35.59375 -1.421875 
Q 29.59375 -1.421875 25.265625 0.953125 
Q 20.953125 3.328125 18.109375 8.203125 
L 18.109375 0 
L 9.078125 0 
L 9.078125 75.984375 
L 18.109375 75.984375 
z
" id="DejaVuSans-98"/>
      <path d="M 41.109375 46.296875 
Q 39.59375 47.171875 37.8125 47.578125 
Q 36.03125 48 33.890625 48 
Q 26.265625 48 22.1875 43.046875 
Q 18.109375 38.09375 18.109375 28.8125 
L 18.109375 0 
L 9.078125 0 
L 9.078125 54.6875 
L 18.109375 54.6875 
L 18.109375 46.1875 
Q 20.953125 51.171875 25.484375 53.578125 
Q 30.03125 56 36.53125 56 
Q 37.453125 56 38.578125 55.875 
Q 39.703125 55.765625 41.0625 55.515625 
z
" id="DejaVuSans-114"/>
     </defs>
     <g style="fill:#262626;" transform="translate(14.798438 187.685844)rotate(-90)scale(0.1 -0.1)">
      <use xlink:href="#DejaVuSans-99"/>
      <use x="54.980469" xlink:href="#DejaVuSans-101"/>
      <use x="116.503906" xlink:href="#DejaVuSans-108"/>
      <use x="144.287109" xlink:href="#DejaVuSans-108"/>
      <use x="172.070312" xlink:href="#DejaVuSans-115"/>
      <use x="224.169922" xlink:href="#DejaVuSans-32"/>
      <use x="255.957031" xlink:href="#DejaVuSans-110"/>
      <use x="319.335938" xlink:href="#DejaVuSans-117"/>
      <use x="382.714844" xlink:href="#DejaVuSans-109"/>
      <use x="480.126953" xlink:href="#DejaVuSans-98"/>
      <use x="543.603516" xlink:href="#DejaVuSans-101"/>
      <use x="605.126953" xlink:href="#DejaVuSans-114"/>
     </g>
    </g>
   </g>
   <g id="line2d_13">
    <path clip-path="url(#pf4c920461f)" d="M 69.560852 276.334125 
L 70.101943 275.456012 
L 70.643034 271.943562 
L 71.184125 265.357718 
L 74.43067 196.206357 
L 74.971761 188.742401 
L 75.512852 177.546466 
L 79.300489 116.62741 
L 79.84158 111.578263 
L 82.547034 78.539279 
L 83.088125 74.807301 
L 83.629216 71.953435 
L 84.170307 66.355468 
L 84.711398 64.269951 
L 85.252489 63.17231 
L 85.79358 63.17231 
L 86.33467 59.001276 
L 86.875761 58.342691 
L 87.416852 56.915758 
L 87.957943 54.610713 
L 88.499034 53.074016 
L 89.040125 50.329914 
L 89.581216 49.67133 
L 90.122307 50.439679 
L 90.663398 51.756847 
L 91.74558 54.720477 
L 92.28667 57.245051 
L 93.909943 67.123816 
L 95.533216 81.283381 
L 96.074307 84.795831 
L 96.615398 86.771584 
L 97.156489 90.723091 
L 98.23867 101.040913 
L 98.779761 104.004542 
L 99.320852 110.590386 
L 99.861943 114.322365 
L 100.403034 117.17623 
L 100.944125 122.225377 
L 102.026307 128.591693 
L 103.108489 136.05565 
L 103.64958 140.336448 
L 104.19067 142.641493 
L 104.731761 147.14182 
L 105.272852 149.666394 
L 105.813943 153.288608 
L 106.355034 155.922945 
L 107.437216 162.618553 
L 107.978307 164.265014 
L 108.519398 167.448172 
L 109.060489 168.765341 
L 109.60158 170.63133 
L 110.14267 170.741094 
L 110.683761 173.265668 
L 111.224852 175.021893 
L 111.765943 178.534343 
L 112.307034 178.863635 
L 112.848125 177.985522 
L 114.471398 184.351838 
L 115.012489 184.571366 
L 115.55358 184.022546 
L 116.09467 183.693254 
L 116.635761 182.924905 
L 117.176852 182.924905 
L 118.259034 179.302691 
L 118.800125 179.741748 
L 119.341216 180.400332 
L 119.882307 178.095287 
L 120.423398 177.65623 
L 120.964489 176.119533 
L 121.50558 175.351185 
L 122.04667 176.339061 
L 122.587761 174.14378 
L 123.128852 173.59496 
L 123.669943 173.814488 
L 124.211034 174.363308 
L 124.752125 173.155904 
L 125.293216 170.850858 
L 125.834307 170.08251 
L 126.375398 169.533689 
L 126.916489 169.643453 
L 127.45758 168.765341 
L 127.99867 170.411802 
L 128.539761 171.399679 
L 129.080852 173.59496 
L 129.621943 175.131657 
L 130.163034 175.790241 
L 130.704125 175.680477 
L 131.786307 181.937029 
L 132.868489 185.888535 
L 133.40958 188.961929 
L 135.032852 195.218481 
L 136.115034 200.0481 
L 136.656125 201.475032 
L 137.197216 202.572673 
L 137.738307 203.011729 
L 138.279398 205.646067 
L 138.820489 206.743708 
L 139.36158 209.048753 
L 139.90267 212.012383 
L 140.443761 213.768608 
L 141.525943 218.488463 
L 142.067034 221.232564 
L 142.608125 222.659497 
L 143.149216 224.525486 
L 143.690307 225.842655 
L 144.231398 227.818408 
L 144.772489 231.11133 
L 145.85467 236.160477 
L 146.395761 239.124107 
L 147.477943 242.307265 
L 148.019034 243.734198 
L 149.101216 247.57594 
L 150.183398 249.771221 
L 150.724489 250.649334 
L 152.347761 254.381312 
L 152.888852 255.14966 
L 155.053216 260.418336 
L 155.594307 261.406212 
L 156.135398 262.064797 
L 156.676489 262.942909 
L 157.21758 264.369842 
L 158.299761 266.235831 
L 159.923034 267.772528 
L 161.005216 268.540876 
L 161.546307 268.540876 
L 162.087398 268.870169 
L 162.628489 268.979933 
L 163.16958 269.528753 
L 165.333943 270.51663 
L 165.875034 270.845922 
L 166.957216 271.175214 
L 167.498307 271.61427 
L 168.039398 271.724034 
L 168.580489 272.602147 
L 169.66267 272.931439 
L 171.827034 273.480259 
L 172.368125 273.699787 
L 172.909216 273.699787 
L 173.991398 274.02908 
L 175.07358 274.138844 
L 176.696852 274.687664 
L 178.320125 274.907192 
L 179.402307 274.907192 
L 180.484489 275.675541 
L 183.189943 275.785305 
L 185.354307 276.114597 
L 201.045943 276.224361 
L 202.128125 276.334125 
L 394.215398 276.334125 
L 394.215398 276.334125 
" style="fill:none;stroke:#000080;stroke-linecap:round;stroke-width:1.5;"/>
   </g>
   <g id="line2d_14">
    <path clip-path="url(#pf4c920461f)" d="M 69.560852 276.334125 
L 70.101943 275.895069 
L 70.643034 273.260731 
L 71.725216 260.089043 
L 73.88958 215.415069 
L 74.43067 201.694561 
L 75.512852 180.510096 
L 76.053943 169.862982 
L 76.595034 162.838081 
L 78.218307 134.628717 
L 78.759398 125.847591 
L 79.300489 119.261748 
L 79.84158 114.761421 
L 80.38267 107.736521 
L 80.923761 98.077283 
L 82.547034 76.892818 
L 83.629216 63.611366 
L 84.170307 60.867265 
L 85.252489 48.354161 
L 85.79358 49.232274 
L 86.33467 46.817464 
L 86.875761 42.865958 
L 87.416852 42.426902 
L 88.499034 38.365631 
L 89.040125 38.475395 
L 89.581216 41.987846 
L 90.122307 40.890205 
L 90.663398 41.439025 
L 91.204489 43.085486 
L 91.74558 46.049116 
L 92.28667 50.549443 
L 92.827761 53.952129 
L 93.368852 54.500949 
L 93.909943 60.318444 
L 94.451034 61.306321 
L 94.992125 61.306321 
L 97.156489 78.539279 
L 98.779761 99.833508 
L 99.320852 104.992419 
L 99.861943 111.468499 
L 100.944125 118.932455 
L 102.567398 136.494706 
L 103.108489 140.555976 
L 104.19067 150.544506 
L 104.731761 154.935069 
L 105.272852 156.252238 
L 105.813943 158.776811 
L 106.896125 167.448172 
L 107.437216 170.741094 
L 108.519398 179.192927 
L 110.683761 190.498626 
L 111.224852 192.913435 
L 111.765943 196.206357 
L 112.307034 200.59692 
L 113.389216 207.731584 
L 113.930307 209.487809 
L 115.012489 214.64672 
L 115.55358 214.866248 
L 116.09467 216.293181 
L 116.635761 218.268934 
L 117.717943 223.53761 
L 119.882307 229.794161 
L 120.964489 233.52614 
L 121.50558 235.062836 
L 122.587761 237.03859 
L 123.128852 237.477646 
L 124.211034 240.441276 
L 124.752125 242.746321 
L 125.293216 243.953726 
L 126.375398 247.57594 
L 126.916489 248.454052 
L 127.45758 249.112637 
L 128.539761 252.844615 
L 129.080852 253.612963 
L 129.621943 253.832492 
L 130.704125 256.027773 
L 131.245216 256.905885 
L 131.786307 258.003526 
L 132.868489 259.430459 
L 133.95067 261.62574 
L 135.573943 262.833145 
L 136.656125 265.13819 
L 137.197216 266.016303 
L 137.738307 266.345595 
L 138.820489 267.333472 
L 139.36158 267.662764 
L 139.90267 268.431112 
L 140.443761 268.431112 
L 140.984852 268.760404 
L 141.525943 268.870169 
L 144.231398 270.626394 
L 144.772489 271.175214 
L 147.477943 272.711911 
L 148.560125 272.711911 
L 149.101216 273.041203 
L 150.183398 273.260731 
L 150.724489 273.809551 
L 151.26558 274.138844 
L 155.053216 274.797428 
L 155.594307 274.797428 
L 156.135398 275.016956 
L 157.75867 275.12672 
L 161.546307 275.785305 
L 168.039398 275.895069 
L 169.12158 276.004833 
L 171.827034 276.114597 
L 172.909216 276.224361 
L 394.215398 276.334125 
L 394.215398 276.334125 
" style="fill:none;stroke:#0000f1;stroke-linecap:round;stroke-width:1.5;"/>
   </g>
   <g id="line2d_15">
    <path clip-path="url(#pf4c920461f)" d="M 69.560852 276.334125 
L 70.101943 275.675541 
L 70.643034 272.272855 
L 71.184125 265.577247 
L 72.266307 246.588063 
L 76.053943 164.813835 
L 79.300489 114.761421 
L 82.005943 76.12447 
L 83.629216 59.769624 
L 84.711398 57.903635 
L 85.79358 49.781094 
L 86.33467 47.805341 
L 86.875761 43.963599 
L 87.416852 41.439025 
L 87.957943 41.219497 
L 88.499034 37.377755 
L 89.040125 41.109733 
L 89.581216 36.499642 
L 90.122307 36.828934 
L 91.204489 34.414125 
L 91.74558 38.255867 
L 92.28667 40.670677 
L 92.827761 44.183127 
L 93.909943 55.818118 
L 94.451034 58.781748 
L 94.992125 66.13594 
L 96.074307 76.453762 
L 96.615398 80.954089 
L 98.23867 100.931149 
L 98.779761 104.004542 
L 99.320852 109.492746 
L 99.861943 113.773544 
L 100.403034 120.030096 
L 100.944125 123.213254 
L 101.485216 127.384288 
L 102.567398 134.079896 
L 103.108489 135.397065 
L 103.64958 141.214561 
L 104.19067 144.727011 
L 104.731761 147.251584 
L 105.272852 152.190967 
L 105.813943 152.739787 
L 106.896125 156.910822 
L 107.978307 162.618553 
L 108.519398 166.899352 
L 109.060489 169.423925 
L 109.60158 173.155904 
L 110.14267 175.570713 
L 110.683761 178.863635 
L 111.224852 180.07104 
L 111.765943 184.242074 
L 112.848125 189.071693 
L 113.389216 190.718154 
L 113.930307 194.889189 
L 115.012489 199.499279 
L 115.55358 203.121493 
L 116.635761 207.841348 
L 117.176852 209.158517 
L 117.717943 213.000259 
L 118.800125 219.037283 
L 119.341216 222.659497 
L 120.423398 227.928172 
L 120.964489 228.696521 
L 122.04667 232.208971 
L 122.587761 233.087083 
L 124.752125 240.221748 
L 125.293216 241.09986 
L 125.834307 241.758444 
L 126.375398 243.404905 
L 126.916489 245.600187 
L 127.99867 248.234524 
L 128.539761 249.551693 
L 129.080852 250.210277 
L 129.621943 251.08839 
L 130.163034 251.63721 
L 130.704125 253.503199 
L 131.786307 255.698481 
L 133.95067 259.869515 
L 134.491761 261.186684 
L 135.032852 261.296448 
L 135.573943 262.174561 
L 136.115034 263.601493 
L 136.656125 263.930786 
L 137.738307 265.028426 
L 138.279398 265.357718 
L 138.820489 266.345595 
L 139.36158 266.455359 
L 139.90267 267.113944 
L 140.443761 267.113944 
L 140.984852 267.662764 
L 141.525943 268.540876 
L 142.067034 269.089697 
L 143.149216 269.638517 
L 144.772489 271.175214 
L 146.936852 272.163091 
L 148.019034 272.711911 
L 148.560125 272.711911 
L 149.101216 273.150967 
L 151.80667 273.699787 
L 152.347761 274.02908 
L 160.464125 275.565777 
L 163.16958 275.675541 
L 164.251761 275.785305 
L 168.580489 275.895069 
L 169.66267 276.004833 
L 192.388489 276.114597 
L 193.47067 276.224361 
L 394.215398 276.334125 
L 394.215398 276.334125 
" style="fill:none;stroke:#004cff;stroke-linecap:round;stroke-width:1.5;"/>
   </g>
   <g id="line2d_16">
    <path clip-path="url(#pf4c920461f)" d="M 69.560852 276.334125 
L 70.101943 275.785305 
L 70.643034 273.260731 
L 71.184125 267.223708 
L 72.266307 245.270895 
L 72.807398 234.953072 
L 74.43067 193.791548 
L 74.971761 183.363962 
L 75.512852 175.131657 
L 76.595034 154.715541 
L 77.677216 135.836121 
L 79.300489 113.883308 
L 79.84158 102.467846 
L 80.38267 97.089406 
L 80.923761 94.784361 
L 82.005943 83.917718 
L 82.547034 76.892818 
L 83.088125 72.282728 
L 83.629216 64.599243 
L 84.711398 56.366938 
L 85.252489 54.171657 
L 85.79358 50.329914 
L 86.875761 46.15888 
L 87.416852 44.951475 
L 87.957943 44.402655 
L 88.499034 43.19525 
L 89.040125 44.841711 
L 89.581216 44.731947 
L 90.122307 43.085486 
L 90.663398 45.061239 
L 91.204489 47.915105 
L 91.74558 51.537319 
L 92.28667 52.744724 
L 92.827761 55.488826 
L 93.368852 60.647737 
L 94.451034 67.672637 
L 94.992125 69.758154 
L 95.533216 73.051076 
L 96.615398 84.356775 
L 97.156489 87.649697 
L 97.69758 92.808608 
L 98.23867 96.321058 
L 98.779761 101.370205 
L 99.320852 107.736521 
L 99.861943 112.56614 
L 100.403034 118.493399 
L 100.944125 122.554669 
L 102.567398 138.909515 
L 103.64958 151.203091 
L 104.19067 154.935069 
L 104.731761 159.984216 
L 107.978307 183.144434 
L 108.519398 185.449479 
L 109.60158 192.584143 
L 110.14267 194.889189 
L 110.683761 199.060223 
L 112.307034 207.073 
L 112.848125 209.926865 
L 114.471398 220.354452 
L 116.09467 227.59888 
L 117.176852 233.306611 
L 119.341216 242.636557 
L 119.882307 244.392782 
L 120.423398 246.807591 
L 120.964489 248.563816 
L 121.50558 249.332165 
L 122.04667 250.320042 
L 123.128852 253.722728 
L 123.669943 254.710604 
L 124.752125 258.003526 
L 125.293216 258.552346 
L 126.916489 261.735504 
L 127.99867 263.162437 
L 128.539761 263.711257 
L 129.080852 264.04055 
L 129.621943 264.808898 
L 130.163034 265.357718 
L 130.704125 266.126067 
L 131.245216 266.674887 
L 131.786307 267.553 
L 132.327398 268.211584 
L 132.868489 268.431112 
L 133.95067 269.748281 
L 134.491761 269.967809 
L 135.032852 270.406865 
L 135.573943 270.626394 
L 136.656125 271.394742 
L 137.197216 271.61427 
L 137.738307 272.053326 
L 138.820489 272.382619 
L 142.608125 273.150967 
L 143.149216 273.590023 
L 143.690307 273.699787 
L 144.231398 274.02908 
L 144.772489 274.138844 
L 145.31358 274.468136 
L 146.936852 274.5779 
L 149.101216 274.907192 
L 149.642307 274.907192 
L 150.183398 275.12672 
L 153.429943 275.236484 
L 157.21758 275.895069 
L 159.381943 276.004833 
L 160.464125 276.114597 
L 170.203761 276.224361 
L 171.285943 276.334125 
L 394.215398 276.334125 
L 394.215398 276.334125 
" style="fill:none;stroke:#00b0ff;stroke-linecap:round;stroke-width:1.5;"/>
   </g>
   <g id="line2d_17">
    <path clip-path="url(#pf4c920461f)" d="M 69.560852 276.334125 
L 70.101943 276.224361 
L 70.643034 273.590023 
L 71.184125 267.553 
L 72.266307 249.551693 
L 73.348489 224.63525 
L 73.88958 213.329551 
L 74.43067 204.65819 
L 77.677216 137.482582 
L 79.300489 114.761421 
L 80.38267 97.418699 
L 80.923761 89.735214 
L 81.464852 86.991112 
L 82.005943 79.856448 
L 83.088125 70.746031 
L 83.629216 67.233581 
L 84.170307 61.306321 
L 84.711398 58.891512 
L 85.252489 51.537319 
L 85.79358 48.354161 
L 86.33467 47.695577 
L 86.875761 45.171003 
L 87.416852 44.073363 
L 87.957943 44.183127 
L 88.499034 45.61006 
L 89.040125 44.402655 
L 89.581216 45.500296 
L 90.122307 46.268644 
L 91.204489 51.756847 
L 91.74558 53.513072 
L 92.28667 57.354815 
L 92.827761 60.098916 
L 93.368852 61.196557 
L 93.909943 64.269951 
L 96.074307 86.552056 
L 98.23867 112.895432 
L 98.779761 118.822691 
L 99.861943 127.384288 
L 102.026307 145.166067 
L 102.567398 152.300731 
L 103.108489 157.240114 
L 103.64958 163.496666 
L 104.731761 171.619207 
L 105.272852 174.6926 
L 105.813943 178.644107 
L 106.355034 183.58349 
L 107.437216 191.15721 
L 107.978307 195.547773 
L 108.519398 198.401639 
L 109.60158 207.073 
L 110.14267 210.03663 
L 110.683761 212.231911 
L 111.224852 216.073653 
L 111.765943 218.927519 
L 112.307034 222.659497 
L 113.930307 229.574633 
L 114.471398 231.550386 
L 115.012489 232.757791 
L 116.09467 236.270241 
L 116.635761 238.245994 
L 117.176852 239.014343 
L 119.341216 249.002873 
L 120.423398 250.759098 
L 122.04667 254.930132 
L 122.587761 255.698481 
L 124.752125 259.869515 
L 125.293216 260.747628 
L 125.834307 261.845268 
L 126.375398 261.955032 
L 126.916489 262.284325 
L 127.45758 262.833145 
L 127.99867 263.601493 
L 128.539761 264.58937 
L 129.080852 264.918662 
L 130.163034 266.345595 
L 130.704125 267.004179 
L 131.245216 267.113944 
L 131.786307 267.553 
L 132.327398 268.431112 
L 132.868489 268.760404 
L 133.40958 269.309225 
L 133.95067 269.309225 
L 135.032852 270.077573 
L 135.573943 270.736158 
L 137.197216 272.053326 
L 139.36158 272.931439 
L 139.90267 272.931439 
L 140.984852 273.480259 
L 141.525943 273.370495 
L 142.608125 273.699787 
L 143.149216 274.138844 
L 144.231398 274.138844 
L 144.772489 274.5779 
L 146.936852 274.907192 
L 148.560125 275.016956 
L 151.26558 275.456012 
L 157.21758 275.565777 
L 158.299761 275.675541 
L 164.792852 275.785305 
L 165.875034 275.895069 
L 170.203761 276.004833 
L 171.285943 276.114597 
L 186.436489 276.224361 
L 187.51867 276.334125 
L 394.215398 276.334125 
L 394.215398 276.334125 
" style="fill:none;stroke:#29ffce;stroke-linecap:round;stroke-width:1.5;"/>
   </g>
   <g id="line2d_18">
    <path clip-path="url(#pf4c920461f)" d="M 69.560852 276.334125 
L 70.101943 276.224361 
L 70.643034 273.150967 
L 71.184125 267.113944 
L 71.725216 257.125414 
L 72.807398 234.62378 
L 73.88958 213.658844 
L 74.971761 190.05957 
L 76.595034 157.240114 
L 77.136125 144.287954 
L 78.759398 119.810568 
L 79.300489 114.102836 
L 79.84158 106.968172 
L 80.923761 95.442945 
L 81.464852 87.978989 
L 82.005943 84.795831 
L 82.547034 77.770931 
L 84.170307 65.038299 
L 84.711398 62.843018 
L 85.252489 58.013399 
L 85.79358 57.574343 
L 86.33467 53.403308 
L 86.875761 50.988499 
L 87.416852 51.756847 
L 89.040125 45.280767 
L 89.581216 47.256521 
L 90.122307 48.244397 
L 90.663398 50.22015 
L 91.204489 54.061893 
L 92.28667 54.610713 
L 92.827761 54.061893 
L 93.368852 58.891512 
L 93.909943 61.855141 
L 95.533216 75.465885 
L 96.615398 84.905595 
L 97.156489 91.052383 
L 97.69758 94.674597 
L 98.23867 100.492092 
L 98.779761 104.553363 
L 99.861943 115.310241 
L 100.403034 122.444905 
L 102.026307 139.677864 
L 102.567398 146.263708 
L 105.813943 173.485196 
L 106.355034 176.339061 
L 109.060489 196.974706 
L 109.60158 201.804325 
L 110.14267 205.536303 
L 110.683761 207.292528 
L 111.224852 209.597573 
L 112.307034 216.512709 
L 112.848125 218.049406 
L 113.389216 221.891149 
L 114.471398 225.732891 
L 115.012489 229.135577 
L 115.55358 231.440622 
L 116.09467 233.087083 
L 116.635761 235.721421 
L 117.717943 239.014343 
L 118.259034 241.538916 
L 118.800125 242.856085 
L 119.341216 245.051366 
L 119.882307 246.149007 
L 120.423398 247.57594 
L 120.964489 248.234524 
L 121.50558 249.332165 
L 122.04667 250.978626 
L 122.587761 251.966502 
L 123.128852 253.283671 
L 123.669943 255.369189 
L 124.752125 257.01565 
L 125.293216 258.11329 
L 125.834307 258.442582 
L 126.375398 259.320695 
L 126.916489 260.747628 
L 127.45758 261.845268 
L 128.539761 263.381965 
L 129.080852 263.930786 
L 131.245216 266.894415 
L 132.327398 267.772528 
L 132.868489 267.882292 
L 133.40958 268.431112 
L 133.95067 269.199461 
L 135.573943 270.736158 
L 137.197216 272.053326 
L 137.738307 272.053326 
L 138.820489 272.492383 
L 139.36158 272.931439 
L 139.90267 273.590023 
L 142.067034 274.468136 
L 144.231398 274.5779 
L 145.85467 274.797428 
L 147.477943 274.907192 
L 149.642307 275.236484 
L 151.26558 275.236484 
L 151.80667 275.456012 
L 154.512125 275.565777 
L 155.053216 275.785305 
L 158.299761 275.895069 
L 159.923034 276.114597 
L 185.895398 276.224361 
L 186.97758 276.334125 
L 394.215398 276.334125 
L 394.215398 276.334125 
" style="fill:none;stroke:#7dff7a;stroke-linecap:round;stroke-width:1.5;"/>
   </g>
   <g id="line2d_19">
    <path clip-path="url(#pf4c920461f)" d="M 69.560852 276.334125 
L 70.101943 276.114597 
L 70.643034 274.5779 
L 71.184125 267.553 
L 72.807398 232.757791 
L 73.88958 207.731584 
L 74.43067 194.779424 
L 75.512852 176.339061 
L 76.053943 168.655577 
L 77.136125 148.568753 
L 79.84158 106.748644 
L 80.38267 102.906902 
L 80.923761 100.053036 
L 81.464852 91.271911 
L 83.088125 79.63692 
L 83.629216 75.026829 
L 84.170307 68.660513 
L 84.711398 63.830895 
L 85.252489 62.184434 
L 85.79358 56.586466 
L 86.875761 52.744724 
L 87.416852 50.659207 
L 87.957943 49.67133 
L 89.040125 45.171003 
L 89.581216 45.61006 
L 90.122307 45.171003 
L 90.663398 47.805341 
L 91.204489 49.012746 
L 92.28667 50.549443 
L 92.827761 53.074016 
L 93.909943 58.891512 
L 94.451034 60.977029 
L 94.992125 65.257827 
L 95.533216 70.526502 
L 96.074307 73.270604 
L 96.615398 76.67329 
L 97.156489 79.307628 
L 98.23867 91.491439 
L 98.779761 97.747991 
L 99.320852 101.479969 
L 99.861943 108.724397 
L 100.403034 112.675904 
L 102.026307 130.67721 
L 102.567398 134.18966 
L 103.64958 143.848898 
L 104.19067 150.65427 
L 104.731761 154.496012 
L 106.896125 174.034016 
L 107.437216 176.997646 
L 108.519398 184.900659 
L 110.14267 196.974706 
L 110.683761 199.169987 
L 113.389216 215.305305 
L 113.930307 217.500586 
L 114.471398 219.147047 
L 116.09467 227.05006 
L 117.176852 230.672274 
L 117.717943 232.648027 
L 118.259034 235.392129 
L 119.341216 239.124107 
L 119.882307 240.331512 
L 122.587761 249.551693 
L 123.128852 250.759098 
L 124.211034 253.612963 
L 124.752125 254.381312 
L 129.621943 263.052673 
L 130.163034 263.821022 
L 130.704125 264.918662 
L 131.245216 265.467483 
L 132.327398 267.333472 
L 132.868489 267.553 
L 133.40958 267.553 
L 135.032852 268.540876 
L 135.573943 269.309225 
L 137.738307 270.077573 
L 138.820489 270.406865 
L 139.36158 270.845922 
L 140.984852 271.175214 
L 141.525943 271.61427 
L 143.149216 271.61427 
L 144.231398 272.163091 
L 144.772489 272.711911 
L 145.85467 272.931439 
L 146.395761 273.260731 
L 150.183398 274.138844 
L 150.724489 274.358372 
L 151.80667 274.468136 
L 156.135398 275.236484 
L 156.676489 275.236484 
L 157.75867 275.565777 
L 165.875034 275.675541 
L 166.416125 275.895069 
L 174.532489 276.004833 
L 175.61467 276.114597 
L 182.648852 276.224361 
L 183.731034 276.334125 
L 394.215398 276.334125 
L 394.215398 276.334125 
" style="fill:none;stroke:#ceff29;stroke-linecap:round;stroke-width:1.5;"/>
   </g>
   <g id="line2d_20">
    <path clip-path="url(#pf4c920461f)" d="M 69.560852 276.334125 
L 70.101943 276.224361 
L 71.184125 268.870169 
L 72.266307 251.198154 
L 73.88958 210.695214 
L 76.053943 170.741094 
L 77.136125 152.300731 
L 77.677216 145.056303 
L 78.759398 128.152637 
L 79.300489 120.359388 
L 79.84158 114.871185 
L 81.464852 91.930495 
L 82.005943 85.783708 
L 82.547034 80.954089 
L 83.088125 73.819424 
L 84.170307 64.489479 
L 84.711398 59.769624 
L 85.252489 56.805994 
L 85.79358 51.647083 
L 86.33467 50.000622 
L 86.875761 46.268644 
L 88.499034 40.999969 
L 89.581216 40.012092 
L 90.122307 42.317138 
L 90.663398 42.64643 
L 91.204489 44.073363 
L 91.74558 44.183127 
L 92.28667 45.280767 
L 92.827761 47.695577 
L 94.451034 59.220804 
L 94.992125 59.11104 
L 95.533216 61.086793 
L 96.074307 67.562873 
L 97.69758 80.405268 
L 98.23867 88.198517 
L 98.779761 93.1379 
L 100.403034 112.346611 
L 100.944125 117.615287 
L 102.026307 130.67721 
L 102.567398 135.945885 
L 103.108489 143.08055 
L 104.19067 152.630023 
L 105.272852 158.886575 
L 105.813943 164.15525 
L 107.978307 176.009769 
L 108.519398 178.753871 
L 109.060489 180.510096 
L 110.14267 186.54712 
L 110.683761 188.303345 
L 111.224852 189.181457 
L 111.765943 192.145087 
L 112.307034 192.693907 
L 112.848125 196.206357 
L 113.389216 198.621167 
L 113.930307 200.487156 
L 114.471398 201.914089 
L 115.012489 203.670314 
L 115.55358 204.438662 
L 116.635761 208.499933 
L 117.176852 211.353798 
L 117.717943 213.110023 
L 118.259034 214.0979 
L 118.800125 214.756484 
L 119.341216 216.512709 
L 119.882307 217.06153 
L 120.964489 217.720114 
L 122.587761 214.427192 
L 123.128852 213.658844 
L 124.211034 207.62182 
L 125.834307 204.328898 
L 126.375398 204.877718 
L 126.916489 202.901965 
L 127.99867 200.816448 
L 128.539761 200.157864 
L 129.080852 202.023853 
L 129.621943 201.804325 
L 130.163034 202.462909 
L 130.704125 201.255504 
L 131.786307 200.157864 
L 132.327398 202.243381 
L 132.868489 201.584797 
L 133.40958 200.706684 
L 133.95067 200.487156 
L 134.491761 200.59692 
L 135.032852 201.365268 
L 135.573943 203.231257 
L 136.115034 204.548426 
L 136.656125 206.633944 
L 137.197216 207.402292 
L 137.738307 207.731584 
L 138.279398 207.512056 
L 138.820489 206.743708 
L 139.36158 206.743708 
L 139.90267 207.62182 
L 140.443761 206.633944 
L 140.984852 205.097247 
L 141.525943 204.10937 
L 142.067034 203.999606 
L 142.608125 204.548426 
L 143.149216 202.353145 
L 143.690307 203.341022 
L 144.231398 202.023853 
L 145.31358 200.59692 
L 145.85467 201.035976 
L 146.395761 201.035976 
L 147.477943 196.53565 
L 148.019034 194.450132 
L 148.560125 190.718154 
L 149.101216 188.961929 
L 149.642307 185.229951 
L 150.183398 184.13231 
L 150.724489 184.351838 
L 151.26558 182.705377 
L 151.80667 181.937029 
L 152.347761 182.924905 
L 152.888852 182.924905 
L 153.429943 181.937029 
L 153.971034 181.717501 
L 154.512125 179.302691 
L 155.053216 178.973399 
L 155.594307 180.180804 
L 156.135398 179.192927 
L 157.21758 182.046793 
L 157.75867 184.13231 
L 158.299761 185.449479 
L 158.840852 188.961929 
L 159.923034 193.462256 
L 160.464125 196.864942 
L 161.546307 200.377392 
L 162.087398 201.694561 
L 162.628489 204.10937 
L 163.16958 209.158517 
L 165.333943 221.67162 
L 165.875034 224.196194 
L 166.957216 227.489116 
L 167.498307 228.586757 
L 168.039398 230.452746 
L 168.580489 232.867555 
L 169.12158 235.940949 
L 170.203761 238.685051 
L 170.744852 241.209624 
L 171.827034 244.831838 
L 172.368125 246.258771 
L 172.909216 247.246648 
L 173.450307 249.002873 
L 173.991398 250.320042 
L 175.07358 253.393435 
L 175.61467 254.381312 
L 176.155761 255.808245 
L 177.237943 257.56447 
L 177.779034 258.332818 
L 178.320125 259.759751 
L 178.861216 260.308571 
L 179.402307 261.62574 
L 179.943398 262.613617 
L 180.484489 263.930786 
L 181.02558 264.260078 
L 181.56667 264.369842 
L 182.107761 264.260078 
L 183.731034 266.894415 
L 184.272125 267.443236 
L 185.354307 268.211584 
L 185.895398 268.870169 
L 186.436489 268.979933 
L 186.97758 269.638517 
L 188.059761 270.626394 
L 191.306307 271.284978 
L 191.847398 271.724034 
L 193.47067 272.492383 
L 194.552852 273.041203 
L 195.093943 273.150967 
L 196.176125 273.809551 
L 198.340489 274.358372 
L 198.88158 274.797428 
L 199.42267 275.016956 
L 199.963761 275.016956 
L 200.504852 275.346248 
L 202.128125 275.565777 
L 204.83358 275.675541 
L 205.915761 275.785305 
L 207.539034 275.895069 
L 208.621216 276.004833 
L 215.114307 276.114597 
L 216.196489 276.224361 
L 394.215398 276.334125 
L 394.215398 276.334125 
" style="fill:none;stroke:#ffc400;stroke-linecap:round;stroke-width:1.5;"/>
   </g>
   <g id="line2d_21">
    <path clip-path="url(#pf4c920461f)" d="M 69.560852 276.334125 
L 70.101943 275.675541 
L 70.643034 271.724034 
L 71.184125 266.126067 
L 71.725216 257.125414 
L 73.348489 222.769261 
L 75.512852 177.10741 
L 76.595034 155.813181 
L 77.136125 148.898045 
L 78.218307 133.311548 
L 79.84158 109.60251 
L 80.38267 99.394452 
L 82.005943 77.770931 
L 82.547034 73.929189 
L 83.629216 64.709007 
L 84.170307 62.952782 
L 84.711398 58.013399 
L 85.252489 55.927882 
L 85.79358 52.08614 
L 86.33467 50.110386 
L 86.875761 47.256521 
L 87.416852 46.378408 
L 87.957943 42.756194 
L 88.499034 40.451149 
L 89.040125 41.329261 
L 89.581216 41.109733 
L 90.122307 37.377755 
L 90.663398 37.816811 
L 91.74558 42.207374 
L 92.28667 43.305014 
L 93.909943 50.659207 
L 94.451034 50.329914 
L 94.992125 57.793871 
L 95.533216 60.428208 
L 96.074307 65.148063 
L 97.69758 75.904942 
L 98.23867 80.075976 
L 99.861943 95.552709 
L 102.026307 119.810568 
L 102.567398 124.420659 
L 103.64958 136.714234 
L 104.19067 140.226684 
L 104.731761 142.751257 
L 105.813943 152.410495 
L 106.355034 155.154597 
L 107.437216 162.289261 
L 107.978307 165.252891 
L 108.519398 170.850858 
L 110.14267 183.363962 
L 110.683761 185.339715 
L 112.848125 200.157864 
L 115.55358 215.524833 
L 118.259034 228.257464 
L 120.423398 237.03859 
L 120.964489 239.563163 
L 121.50558 241.429152 
L 122.587761 244.283018 
L 123.128852 246.697827 
L 123.669943 247.02712 
L 124.752125 249.332165 
L 125.834307 253.064143 
L 126.375398 253.942256 
L 127.99867 257.56447 
L 128.539761 258.442582 
L 129.080852 259.101167 
L 131.245216 262.613617 
L 131.786307 263.162437 
L 132.327398 263.930786 
L 132.868489 265.247954 
L 133.95067 267.004179 
L 135.032852 267.772528 
L 135.573943 268.321348 
L 137.197216 269.418989 
L 137.738307 269.418989 
L 138.820489 270.736158 
L 139.36158 271.175214 
L 139.90267 271.394742 
L 140.443761 272.053326 
L 142.067034 272.492383 
L 142.608125 272.931439 
L 145.31358 273.919316 
L 145.85467 273.919316 
L 147.477943 274.907192 
L 148.019034 274.907192 
L 148.560125 275.12672 
L 152.347761 275.236484 
L 152.888852 275.456012 
L 156.676489 275.565777 
L 157.75867 275.675541 
L 158.840852 275.785305 
L 159.923034 275.895069 
L 163.71067 276.004833 
L 164.792852 276.114597 
L 177.779034 276.224361 
L 178.861216 276.334125 
L 394.215398 276.334125 
L 394.215398 276.334125 
" style="fill:none;stroke:#ff6800;stroke-linecap:round;stroke-width:1.5;"/>
   </g>
   <g id="line2d_22">
    <path clip-path="url(#pf4c920461f)" d="M 69.560852 276.334125 
L 70.101943 276.114597 
L 70.643034 272.931439 
L 71.184125 267.223708 
L 71.725216 257.674234 
L 74.971761 190.279098 
L 79.300489 112.675904 
L 79.84158 106.63888 
L 81.464852 82.051729 
L 82.005943 76.783054 
L 82.547034 73.380368 
L 83.629216 63.72113 
L 84.170307 58.671983 
L 85.79358 51.208027 
L 86.33467 50.659207 
L 86.875761 48.134633 
L 87.416852 46.927228 
L 87.957943 43.744071 
L 88.499034 41.439025 
L 89.040125 44.622183 
L 89.581216 43.963599 
L 90.122307 41.329261 
L 90.663398 43.524542 
L 91.204489 43.524542 
L 91.74558 43.963599 
L 92.28667 48.134633 
L 93.368852 55.269297 
L 93.909943 59.001276 
L 94.451034 64.379715 
L 94.992125 68.221457 
L 95.533216 75.246357 
L 96.074307 77.770931 
L 96.615398 84.356775 
L 97.156489 89.515686 
L 98.23867 101.260441 
L 99.320852 112.017319 
L 99.861943 118.932455 
L 100.403034 122.444905 
L 100.944125 127.054996 
L 102.567398 145.166067 
L 103.64958 157.788934 
L 106.896125 183.912782 
L 108.519398 196.755178 
L 109.060489 199.169987 
L 110.14267 206.853472 
L 111.224852 212.780731 
L 112.307034 216.732238 
L 113.389216 222.879025 
L 113.930307 225.293835 
L 114.471398 228.367228 
L 116.09467 233.855432 
L 117.176852 238.575287 
L 117.717943 240.002219 
L 118.259034 241.758444 
L 118.800125 244.06349 
L 120.423398 248.673581 
L 120.964489 249.661457 
L 122.04667 253.503199 
L 122.587761 254.710604 
L 123.128852 255.588717 
L 123.669943 257.235178 
L 124.211034 257.893762 
L 124.752125 259.320695 
L 125.293216 259.649987 
L 125.834307 261.07692 
L 126.916489 262.284325 
L 127.45758 262.723381 
L 127.99867 263.381965 
L 128.539761 264.808898 
L 129.080852 265.247954 
L 129.621943 265.467483 
L 130.163034 266.345595 
L 131.786307 267.113944 
L 132.327398 267.662764 
L 132.868489 267.882292 
L 133.95067 269.199461 
L 134.491761 269.418989 
L 135.032852 269.858045 
L 137.738307 270.955686 
L 138.279398 271.394742 
L 139.36158 271.833798 
L 139.90267 272.492383 
L 140.443761 272.711911 
L 140.984852 272.711911 
L 144.772489 274.138844 
L 145.31358 274.138844 
L 146.936852 274.797428 
L 147.477943 274.687664 
L 148.019034 275.016956 
L 149.101216 275.12672 
L 151.80667 275.236484 
L 152.888852 275.346248 
L 157.21758 275.456012 
L 158.299761 275.565777 
L 159.923034 275.565777 
L 160.464125 275.785305 
L 165.875034 275.785305 
L 166.416125 276.004833 
L 167.498307 276.114597 
L 169.12158 276.334125 
L 394.215398 276.334125 
L 394.215398 276.334125 
" style="fill:none;stroke:#f10800;stroke-linecap:round;stroke-width:1.5;"/>
   </g>
   <g id="patch_3">
    <path d="M 53.328125 288.430125 
L 53.328125 22.318125 
" style="fill:none;stroke:#cccccc;stroke-linecap:square;stroke-linejoin:miter;stroke-width:0.8;"/>
   </g>
   <g id="patch_4">
    <path d="M 410.448125 288.430125 
L 410.448125 22.318125 
" style="fill:none;stroke:#cccccc;stroke-linecap:square;stroke-linejoin:miter;stroke-width:0.8;"/>
   </g>
   <g id="patch_5">
    <path d="M 53.328125 288.430125 
L 410.448125 288.430125 
" style="fill:none;stroke:#cccccc;stroke-linecap:square;stroke-linejoin:miter;stroke-width:0.8;"/>
   </g>
   <g id="patch_6">
    <path d="M 53.328125 22.318125 
L 410.448125 22.318125 
" style="fill:none;stroke:#cccccc;stroke-linecap:square;stroke-linejoin:miter;stroke-width:0.8;"/>
   </g>
   <g id="text_15">
    <!-- Effector T CD8 -->
    <defs>
     <path d="M 9.8125 72.90625 
L 55.90625 72.90625 
L 55.90625 64.59375 
L 19.671875 64.59375 
L 19.671875 43.015625 
L 54.390625 43.015625 
L 54.390625 34.71875 
L 19.671875 34.71875 
L 19.671875 8.296875 
L 56.78125 8.296875 
L 56.78125 0 
L 9.8125 0 
z
" id="DejaVuSans-69"/>
     <path d="M 37.109375 75.984375 
L 37.109375 68.5 
L 28.515625 68.5 
Q 23.6875 68.5 21.796875 66.546875 
Q 19.921875 64.59375 19.921875 59.515625 
L 19.921875 54.6875 
L 34.71875 54.6875 
L 34.71875 47.703125 
L 19.921875 47.703125 
L 19.921875 0 
L 10.890625 0 
L 10.890625 47.703125 
L 2.296875 47.703125 
L 2.296875 54.6875 
L 10.890625 54.6875 
L 10.890625 58.5 
Q 10.890625 67.625 15.140625 71.796875 
Q 19.390625 75.984375 28.609375 75.984375 
z
" id="DejaVuSans-102"/>
     <path d="M 30.609375 48.390625 
Q 23.390625 48.390625 19.1875 42.75 
Q 14.984375 37.109375 14.984375 27.296875 
Q 14.984375 17.484375 19.15625 11.84375 
Q 23.34375 6.203125 30.609375 6.203125 
Q 37.796875 6.203125 41.984375 11.859375 
Q 46.1875 17.53125 46.1875 27.296875 
Q 46.1875 37.015625 41.984375 42.703125 
Q 37.796875 48.390625 30.609375 48.390625 
z
M 30.609375 56 
Q 42.328125 56 49.015625 48.375 
Q 55.71875 40.765625 55.71875 27.296875 
Q 55.71875 13.875 49.015625 6.21875 
Q 42.328125 -1.421875 30.609375 -1.421875 
Q 18.84375 -1.421875 12.171875 6.21875 
Q 5.515625 13.875 5.515625 27.296875 
Q 5.515625 40.765625 12.171875 48.375 
Q 18.84375 56 30.609375 56 
z
" id="DejaVuSans-111"/>
     <path d="M -0.296875 72.90625 
L 61.375 72.90625 
L 61.375 64.59375 
L 35.5 64.59375 
L 35.5 0 
L 25.59375 0 
L 25.59375 64.59375 
L -0.296875 64.59375 
z
" id="DejaVuSans-84"/>
     <path d="M 64.40625 67.28125 
L 64.40625 56.890625 
Q 59.421875 61.53125 53.78125 63.8125 
Q 48.140625 66.109375 41.796875 66.109375 
Q 29.296875 66.109375 22.65625 58.46875 
Q 16.015625 50.828125 16.015625 36.375 
Q 16.015625 21.96875 22.65625 14.328125 
Q 29.296875 6.6875 41.796875 6.6875 
Q 48.140625 6.6875 53.78125 8.984375 
Q 59.421875 11.28125 64.40625 15.921875 
L 64.40625 5.609375 
Q 59.234375 2.09375 53.4375 0.328125 
Q 47.65625 -1.421875 41.21875 -1.421875 
Q 24.65625 -1.421875 15.125 8.703125 
Q 5.609375 18.84375 5.609375 36.375 
Q 5.609375 53.953125 15.125 64.078125 
Q 24.65625 74.21875 41.21875 74.21875 
Q 47.75 74.21875 53.53125 72.484375 
Q 59.328125 70.75 64.40625 67.28125 
z
" id="DejaVuSans-67"/>
     <path d="M 19.671875 64.796875 
L 19.671875 8.109375 
L 31.59375 8.109375 
Q 46.6875 8.109375 53.6875 14.9375 
Q 60.6875 21.78125 60.6875 36.53125 
Q 60.6875 51.171875 53.6875 57.984375 
Q 46.6875 64.796875 31.59375 64.796875 
z
M 9.8125 72.90625 
L 30.078125 72.90625 
Q 51.265625 72.90625 61.171875 64.09375 
Q 71.09375 55.28125 71.09375 36.53125 
Q 71.09375 17.671875 61.125 8.828125 
Q 51.171875 0 30.078125 0 
L 9.8125 0 
z
" id="DejaVuSans-68"/>
     <path d="M 31.78125 34.625 
Q 24.75 34.625 20.71875 30.859375 
Q 16.703125 27.09375 16.703125 20.515625 
Q 16.703125 13.921875 20.71875 10.15625 
Q 24.75 6.390625 31.78125 6.390625 
Q 38.8125 6.390625 42.859375 10.171875 
Q 46.921875 13.96875 46.921875 20.515625 
Q 46.921875 27.09375 42.890625 30.859375 
Q 38.875 34.625 31.78125 34.625 
z
M 21.921875 38.8125 
Q 15.578125 40.375 12.03125 44.71875 
Q 8.5 49.078125 8.5 55.328125 
Q 8.5 64.0625 14.71875 69.140625 
Q 20.953125 74.21875 31.78125 74.21875 
Q 42.671875 74.21875 48.875 69.140625 
Q 55.078125 64.0625 55.078125 55.328125 
Q 55.078125 49.078125 51.53125 44.71875 
Q 48 40.375 41.703125 38.8125 
Q 48.828125 37.15625 52.796875 32.3125 
Q 56.78125 27.484375 56.78125 20.515625 
Q 56.78125 9.90625 50.3125 4.234375 
Q 43.84375 -1.421875 31.78125 -1.421875 
Q 19.734375 -1.421875 13.25 4.234375 
Q 6.78125 9.90625 6.78125 20.515625 
Q 6.78125 27.484375 10.78125 32.3125 
Q 14.796875 37.15625 21.921875 38.8125 
z
M 18.3125 54.390625 
Q 18.3125 48.734375 21.84375 45.5625 
Q 25.390625 42.390625 31.78125 42.390625 
Q 38.140625 42.390625 41.71875 45.5625 
Q 45.3125 48.734375 45.3125 54.390625 
Q 45.3125 60.0625 41.71875 63.234375 
Q 38.140625 66.40625 31.78125 66.40625 
Q 25.390625 66.40625 21.84375 63.234375 
Q 18.3125 60.0625 18.3125 54.390625 
z
" id="DejaVuSans-56"/>
    </defs>
    <g style="fill:#262626;" transform="translate(188.285938 16.318125)scale(0.12 -0.12)">
     <use xlink:href="#DejaVuSans-69"/>
     <use x="63.183594" xlink:href="#DejaVuSans-102"/>
     <use x="98.388672" xlink:href="#DejaVuSans-102"/>
     <use x="133.59375" xlink:href="#DejaVuSans-101"/>
     <use x="195.117188" xlink:href="#DejaVuSans-99"/>
     <use x="250.097656" xlink:href="#DejaVuSans-116"/>
     <use x="289.306641" xlink:href="#DejaVuSans-111"/>
     <use x="350.488281" xlink:href="#DejaVuSans-114"/>
     <use x="391.601562" xlink:href="#DejaVuSans-32"/>
     <use x="423.388672" xlink:href="#DejaVuSans-84"/>
     <use x="484.472656" xlink:href="#DejaVuSans-32"/>
     <use x="516.259766" xlink:href="#DejaVuSans-67"/>
     <use x="586.083984" xlink:href="#DejaVuSans-68"/>
     <use x="663.085938" xlink:href="#DejaVuSans-56"/>
    </g>
   </g>
  </g>
 </g>
 <defs>
  <clipPath id="pf4c920461f">
   <rect height="266.112" width="357.12" x="53.328125" y="22.318125"/>
  </clipPath>
 </defs>
</svg>
