<?xml version="1.0" encoding="utf-8" standalone="no"?>
<!DOCTYPE svg PUBLIC "-//W3C//DTD SVG 1.1//EN"
  "http://www.w3.org/Graphics/SVG/1.1/DTD/svg11.dtd">
<!-- Created with matplotlib (https://matplotlib.org/) -->
<svg height="325.986375pt" version="1.1" viewBox="0 0 424.010625 325.986375" width="424.010625pt" xmlns="http://www.w3.org/2000/svg" xmlns:xlink="http://www.w3.org/1999/xlink">
 <defs>
  <style type="text/css">
*{stroke-linecap:butt;stroke-linejoin:round;white-space:pre;}
  </style>
 </defs>
 <g id="figure_1">
  <g id="patch_1">
   <path d="M 0 325.986375 
L 424.010625 325.986375 
L 424.010625 0 
L 0 0 
z
" style="fill:#ffffff;"/>
  </g>
  <g id="axes_1">
   <g id="patch_2">
    <path d="M 59.690625 288.430125 
L 416.810625 288.430125 
L 416.810625 22.318125 
L 59.690625 22.318125 
z
" style="fill:#ffffff;"/>
   </g>
   <g id="matplotlib.axis_1">
    <g id="xtick_1">
     <g id="line2d_1">
      <path clip-path="url(#p3176b4c490)" d="M 75.923352 288.430125 
L 75.923352 22.318125 
" style="fill:none;stroke:#cccccc;stroke-linecap:round;stroke-width:0.8;"/>
     </g>
     <g id="text_1">
      <!-- 0 -->
      <defs>
       <path d="M 31.78125 66.40625 
Q 24.171875 66.40625 20.328125 58.90625 
Q 16.5 51.421875 16.5 36.375 
Q 16.5 21.390625 20.328125 13.890625 
Q 24.171875 6.390625 31.78125 6.390625 
Q 39.453125 6.390625 43.28125 13.890625 
Q 47.125 21.390625 47.125 36.375 
Q 47.125 51.421875 43.28125 58.90625 
Q 39.453125 66.40625 31.78125 66.40625 
z
M 31.78125 74.21875 
Q 44.046875 74.21875 50.515625 64.515625 
Q 56.984375 54.828125 56.984375 36.375 
Q 56.984375 17.96875 50.515625 8.265625 
Q 44.046875 -1.421875 31.78125 -1.421875 
Q 19.53125 -1.421875 13.0625 8.265625 
Q 6.59375 17.96875 6.59375 36.375 
Q 6.59375 54.828125 13.0625 64.515625 
Q 19.53125 74.21875 31.78125 74.21875 
z
" id="DejaVuSans-48"/>
      </defs>
      <g style="fill:#262626;" transform="translate(72.742102 303.028562)scale(0.1 -0.1)">
       <use xlink:href="#DejaVuSans-48"/>
      </g>
     </g>
    </g>
    <g id="xtick_2">
     <g id="line2d_2">
      <path clip-path="url(#p3176b4c490)" d="M 130.122776 288.430125 
L 130.122776 22.318125 
" style="fill:none;stroke:#cccccc;stroke-linecap:round;stroke-width:0.8;"/>
     </g>
     <g id="text_2">
      <!-- 10 -->
      <defs>
       <path d="M 12.40625 8.296875 
L 28.515625 8.296875 
L 28.515625 63.921875 
L 10.984375 60.40625 
L 10.984375 69.390625 
L 28.421875 72.90625 
L 38.28125 72.90625 
L 38.28125 8.296875 
L 54.390625 8.296875 
L 54.390625 0 
L 12.40625 0 
z
" id="DejaVuSans-49"/>
      </defs>
      <g style="fill:#262626;" transform="translate(123.760276 303.028562)scale(0.1 -0.1)">
       <use xlink:href="#DejaVuSans-49"/>
       <use x="63.623047" xlink:href="#DejaVuSans-48"/>
      </g>
     </g>
    </g>
    <g id="xtick_3">
     <g id="line2d_3">
      <path clip-path="url(#p3176b4c490)" d="M 184.322199 288.430125 
L 184.322199 22.318125 
" style="fill:none;stroke:#cccccc;stroke-linecap:round;stroke-width:0.8;"/>
     </g>
     <g id="text_3">
      <!-- 20 -->
      <defs>
       <path d="M 19.1875 8.296875 
L 53.609375 8.296875 
L 53.609375 0 
L 7.328125 0 
L 7.328125 8.296875 
Q 12.9375 14.109375 22.625 23.890625 
Q 32.328125 33.6875 34.8125 36.53125 
Q 39.546875 41.84375 41.421875 45.53125 
Q 43.3125 49.21875 43.3125 52.78125 
Q 43.3125 58.59375 39.234375 62.25 
Q 35.15625 65.921875 28.609375 65.921875 
Q 23.96875 65.921875 18.8125 64.3125 
Q 13.671875 62.703125 7.8125 59.421875 
L 7.8125 69.390625 
Q 13.765625 71.78125 18.9375 73 
Q 24.125 74.21875 28.421875 74.21875 
Q 39.75 74.21875 46.484375 68.546875 
Q 53.21875 62.890625 53.21875 53.421875 
Q 53.21875 48.921875 51.53125 44.890625 
Q 49.859375 40.875 45.40625 35.40625 
Q 44.1875 33.984375 37.640625 27.21875 
Q 31.109375 20.453125 19.1875 8.296875 
z
" id="DejaVuSans-50"/>
      </defs>
      <g style="fill:#262626;" transform="translate(177.959699 303.028562)scale(0.1 -0.1)">
       <use xlink:href="#DejaVuSans-50"/>
       <use x="63.623047" xlink:href="#DejaVuSans-48"/>
      </g>
     </g>
    </g>
    <g id="xtick_4">
     <g id="line2d_4">
      <path clip-path="url(#p3176b4c490)" d="M 238.521622 288.430125 
L 238.521622 22.318125 
" style="fill:none;stroke:#cccccc;stroke-linecap:round;stroke-width:0.8;"/>
     </g>
     <g id="text_4">
      <!-- 30 -->
      <defs>
       <path d="M 40.578125 39.3125 
Q 47.65625 37.796875 51.625 33 
Q 55.609375 28.21875 55.609375 21.1875 
Q 55.609375 10.40625 48.1875 4.484375 
Q 40.765625 -1.421875 27.09375 -1.421875 
Q 22.515625 -1.421875 17.65625 -0.515625 
Q 12.796875 0.390625 7.625 2.203125 
L 7.625 11.71875 
Q 11.71875 9.328125 16.59375 8.109375 
Q 21.484375 6.890625 26.8125 6.890625 
Q 36.078125 6.890625 40.9375 10.546875 
Q 45.796875 14.203125 45.796875 21.1875 
Q 45.796875 27.640625 41.28125 31.265625 
Q 36.765625 34.90625 28.71875 34.90625 
L 20.21875 34.90625 
L 20.21875 43.015625 
L 29.109375 43.015625 
Q 36.375 43.015625 40.234375 45.921875 
Q 44.09375 48.828125 44.09375 54.296875 
Q 44.09375 59.90625 40.109375 62.90625 
Q 36.140625 65.921875 28.71875 65.921875 
Q 24.65625 65.921875 20.015625 65.03125 
Q 15.375 64.15625 9.8125 62.3125 
L 9.8125 71.09375 
Q 15.4375 72.65625 20.34375 73.4375 
Q 25.25 74.21875 29.59375 74.21875 
Q 40.828125 74.21875 47.359375 69.109375 
Q 53.90625 64.015625 53.90625 55.328125 
Q 53.90625 49.265625 50.4375 45.09375 
Q 46.96875 40.921875 40.578125 39.3125 
z
" id="DejaVuSans-51"/>
      </defs>
      <g style="fill:#262626;" transform="translate(232.159122 303.028562)scale(0.1 -0.1)">
       <use xlink:href="#DejaVuSans-51"/>
       <use x="63.623047" xlink:href="#DejaVuSans-48"/>
      </g>
     </g>
    </g>
    <g id="xtick_5">
     <g id="line2d_5">
      <path clip-path="url(#p3176b4c490)" d="M 292.721045 288.430125 
L 292.721045 22.318125 
" style="fill:none;stroke:#cccccc;stroke-linecap:round;stroke-width:0.8;"/>
     </g>
     <g id="text_5">
      <!-- 40 -->
      <defs>
       <path d="M 37.796875 64.3125 
L 12.890625 25.390625 
L 37.796875 25.390625 
z
M 35.203125 72.90625 
L 47.609375 72.90625 
L 47.609375 25.390625 
L 58.015625 25.390625 
L 58.015625 17.1875 
L 47.609375 17.1875 
L 47.609375 0 
L 37.796875 0 
L 37.796875 17.1875 
L 4.890625 17.1875 
L 4.890625 26.703125 
z
" id="DejaVuSans-52"/>
      </defs>
      <g style="fill:#262626;" transform="translate(286.358545 303.028562)scale(0.1 -0.1)">
       <use xlink:href="#DejaVuSans-52"/>
       <use x="63.623047" xlink:href="#DejaVuSans-48"/>
      </g>
     </g>
    </g>
    <g id="xtick_6">
     <g id="line2d_6">
      <path clip-path="url(#p3176b4c490)" d="M 346.920469 288.430125 
L 346.920469 22.318125 
" style="fill:none;stroke:#cccccc;stroke-linecap:round;stroke-width:0.8;"/>
     </g>
     <g id="text_6">
      <!-- 50 -->
      <defs>
       <path d="M 10.796875 72.90625 
L 49.515625 72.90625 
L 49.515625 64.59375 
L 19.828125 64.59375 
L 19.828125 46.734375 
Q 21.96875 47.46875 24.109375 47.828125 
Q 26.265625 48.1875 28.421875 48.1875 
Q 40.625 48.1875 47.75 41.5 
Q 54.890625 34.8125 54.890625 23.390625 
Q 54.890625 11.625 47.5625 5.09375 
Q 40.234375 -1.421875 26.90625 -1.421875 
Q 22.3125 -1.421875 17.546875 -0.640625 
Q 12.796875 0.140625 7.71875 1.703125 
L 7.71875 11.625 
Q 12.109375 9.234375 16.796875 8.0625 
Q 21.484375 6.890625 26.703125 6.890625 
Q 35.15625 6.890625 40.078125 11.328125 
Q 45.015625 15.765625 45.015625 23.390625 
Q 45.015625 31 40.078125 35.4375 
Q 35.15625 39.890625 26.703125 39.890625 
Q 22.75 39.890625 18.8125 39.015625 
Q 14.890625 38.140625 10.796875 36.28125 
z
" id="DejaVuSans-53"/>
      </defs>
      <g style="fill:#262626;" transform="translate(340.557969 303.028562)scale(0.1 -0.1)">
       <use xlink:href="#DejaVuSans-53"/>
       <use x="63.623047" xlink:href="#DejaVuSans-48"/>
      </g>
     </g>
    </g>
    <g id="xtick_7">
     <g id="line2d_7">
      <path clip-path="url(#p3176b4c490)" d="M 401.119892 288.430125 
L 401.119892 22.318125 
" style="fill:none;stroke:#cccccc;stroke-linecap:round;stroke-width:0.8;"/>
     </g>
     <g id="text_7">
      <!-- 60 -->
      <defs>
       <path d="M 33.015625 40.375 
Q 26.375 40.375 22.484375 35.828125 
Q 18.609375 31.296875 18.609375 23.390625 
Q 18.609375 15.53125 22.484375 10.953125 
Q 26.375 6.390625 33.015625 6.390625 
Q 39.65625 6.390625 43.53125 10.953125 
Q 47.40625 15.53125 47.40625 23.390625 
Q 47.40625 31.296875 43.53125 35.828125 
Q 39.65625 40.375 33.015625 40.375 
z
M 52.59375 71.296875 
L 52.59375 62.3125 
Q 48.875 64.0625 45.09375 64.984375 
Q 41.3125 65.921875 37.59375 65.921875 
Q 27.828125 65.921875 22.671875 59.328125 
Q 17.53125 52.734375 16.796875 39.40625 
Q 19.671875 43.65625 24.015625 45.921875 
Q 28.375 48.1875 33.59375 48.1875 
Q 44.578125 48.1875 50.953125 41.515625 
Q 57.328125 34.859375 57.328125 23.390625 
Q 57.328125 12.15625 50.6875 5.359375 
Q 44.046875 -1.421875 33.015625 -1.421875 
Q 20.359375 -1.421875 13.671875 8.265625 
Q 6.984375 17.96875 6.984375 36.375 
Q 6.984375 53.65625 15.1875 63.9375 
Q 23.390625 74.21875 37.203125 74.21875 
Q 40.921875 74.21875 44.703125 73.484375 
Q 48.484375 72.75 52.59375 71.296875 
z
" id="DejaVuSans-54"/>
      </defs>
      <g style="fill:#262626;" transform="translate(394.757392 303.028562)scale(0.1 -0.1)">
       <use xlink:href="#DejaVuSans-54"/>
       <use x="63.623047" xlink:href="#DejaVuSans-48"/>
      </g>
     </g>
    </g>
    <g id="text_8">
     <!-- time (days) -->
     <defs>
      <path d="M 18.3125 70.21875 
L 18.3125 54.6875 
L 36.8125 54.6875 
L 36.8125 47.703125 
L 18.3125 47.703125 
L 18.3125 18.015625 
Q 18.3125 11.328125 20.140625 9.421875 
Q 21.96875 7.515625 27.59375 7.515625 
L 36.8125 7.515625 
L 36.8125 0 
L 27.59375 0 
Q 17.1875 0 13.234375 3.875 
Q 9.28125 7.765625 9.28125 18.015625 
L 9.28125 47.703125 
L 2.6875 47.703125 
L 2.6875 54.6875 
L 9.28125 54.6875 
L 9.28125 70.21875 
z
" id="DejaVuSans-116"/>
      <path d="M 9.421875 54.6875 
L 18.40625 54.6875 
L 18.40625 0 
L 9.421875 0 
z
M 9.421875 75.984375 
L 18.40625 75.984375 
L 18.40625 64.59375 
L 9.421875 64.59375 
z
" id="DejaVuSans-105"/>
      <path d="M 52 44.1875 
Q 55.375 50.25 60.0625 53.125 
Q 64.75 56 71.09375 56 
Q 79.640625 56 84.28125 50.015625 
Q 88.921875 44.046875 88.921875 33.015625 
L 88.921875 0 
L 79.890625 0 
L 79.890625 32.71875 
Q 79.890625 40.578125 77.09375 44.375 
Q 74.3125 48.1875 68.609375 48.1875 
Q 61.625 48.1875 57.5625 43.546875 
Q 53.515625 38.921875 53.515625 30.90625 
L 53.515625 0 
L 44.484375 0 
L 44.484375 32.71875 
Q 44.484375 40.625 41.703125 44.40625 
Q 38.921875 48.1875 33.109375 48.1875 
Q 26.21875 48.1875 22.15625 43.53125 
Q 18.109375 38.875 18.109375 30.90625 
L 18.109375 0 
L 9.078125 0 
L 9.078125 54.6875 
L 18.109375 54.6875 
L 18.109375 46.1875 
Q 21.1875 51.21875 25.484375 53.609375 
Q 29.78125 56 35.6875 56 
Q 41.65625 56 45.828125 52.96875 
Q 50 49.953125 52 44.1875 
z
" id="DejaVuSans-109"/>
      <path d="M 56.203125 29.59375 
L 56.203125 25.203125 
L 14.890625 25.203125 
Q 15.484375 15.921875 20.484375 11.0625 
Q 25.484375 6.203125 34.421875 6.203125 
Q 39.59375 6.203125 44.453125 7.46875 
Q 49.3125 8.734375 54.109375 11.28125 
L 54.109375 2.78125 
Q 49.265625 0.734375 44.1875 -0.34375 
Q 39.109375 -1.421875 33.890625 -1.421875 
Q 20.796875 -1.421875 13.15625 6.1875 
Q 5.515625 13.8125 5.515625 26.8125 
Q 5.515625 40.234375 12.765625 48.109375 
Q 20.015625 56 32.328125 56 
Q 43.359375 56 49.78125 48.890625 
Q 56.203125 41.796875 56.203125 29.59375 
z
M 47.21875 32.234375 
Q 47.125 39.59375 43.09375 43.984375 
Q 39.0625 48.390625 32.421875 48.390625 
Q 24.90625 48.390625 20.390625 44.140625 
Q 15.875 39.890625 15.1875 32.171875 
z
" id="DejaVuSans-101"/>
      <path id="DejaVuSans-32"/>
      <path d="M 31 75.875 
Q 24.46875 64.65625 21.28125 53.65625 
Q 18.109375 42.671875 18.109375 31.390625 
Q 18.109375 20.125 21.3125 9.0625 
Q 24.515625 -2 31 -13.1875 
L 23.1875 -13.1875 
Q 15.875 -1.703125 12.234375 9.375 
Q 8.59375 20.453125 8.59375 31.390625 
Q 8.59375 42.28125 12.203125 53.3125 
Q 15.828125 64.359375 23.1875 75.875 
z
" id="DejaVuSans-40"/>
      <path d="M 45.40625 46.390625 
L 45.40625 75.984375 
L 54.390625 75.984375 
L 54.390625 0 
L 45.40625 0 
L 45.40625 8.203125 
Q 42.578125 3.328125 38.25 0.953125 
Q 33.9375 -1.421875 27.875 -1.421875 
Q 17.96875 -1.421875 11.734375 6.484375 
Q 5.515625 14.40625 5.515625 27.296875 
Q 5.515625 40.1875 11.734375 48.09375 
Q 17.96875 56 27.875 56 
Q 33.9375 56 38.25 53.625 
Q 42.578125 51.265625 45.40625 46.390625 
z
M 14.796875 27.296875 
Q 14.796875 17.390625 18.875 11.75 
Q 22.953125 6.109375 30.078125 6.109375 
Q 37.203125 6.109375 41.296875 11.75 
Q 45.40625 17.390625 45.40625 27.296875 
Q 45.40625 37.203125 41.296875 42.84375 
Q 37.203125 48.484375 30.078125 48.484375 
Q 22.953125 48.484375 18.875 42.84375 
Q 14.796875 37.203125 14.796875 27.296875 
z
" id="DejaVuSans-100"/>
      <path d="M 34.28125 27.484375 
Q 23.390625 27.484375 19.1875 25 
Q 14.984375 22.515625 14.984375 16.5 
Q 14.984375 11.71875 18.140625 8.90625 
Q 21.296875 6.109375 26.703125 6.109375 
Q 34.1875 6.109375 38.703125 11.40625 
Q 43.21875 16.703125 43.21875 25.484375 
L 43.21875 27.484375 
z
M 52.203125 31.203125 
L 52.203125 0 
L 43.21875 0 
L 43.21875 8.296875 
Q 40.140625 3.328125 35.546875 0.953125 
Q 30.953125 -1.421875 24.3125 -1.421875 
Q 15.921875 -1.421875 10.953125 3.296875 
Q 6 8.015625 6 15.921875 
Q 6 25.140625 12.171875 29.828125 
Q 18.359375 34.515625 30.609375 34.515625 
L 43.21875 34.515625 
L 43.21875 35.40625 
Q 43.21875 41.609375 39.140625 45 
Q 35.0625 48.390625 27.6875 48.390625 
Q 23 48.390625 18.546875 47.265625 
Q 14.109375 46.140625 10.015625 43.890625 
L 10.015625 52.203125 
Q 14.9375 54.109375 19.578125 55.046875 
Q 24.21875 56 28.609375 56 
Q 40.484375 56 46.34375 49.84375 
Q 52.203125 43.703125 52.203125 31.203125 
z
" id="DejaVuSans-97"/>
      <path d="M 32.171875 -5.078125 
Q 28.375 -14.84375 24.75 -17.8125 
Q 21.140625 -20.796875 15.09375 -20.796875 
L 7.90625 -20.796875 
L 7.90625 -13.28125 
L 13.1875 -13.28125 
Q 16.890625 -13.28125 18.9375 -11.515625 
Q 21 -9.765625 23.484375 -3.21875 
L 25.09375 0.875 
L 2.984375 54.6875 
L 12.5 54.6875 
L 29.59375 11.921875 
L 46.6875 54.6875 
L 56.203125 54.6875 
z
" id="DejaVuSans-121"/>
      <path d="M 44.28125 53.078125 
L 44.28125 44.578125 
Q 40.484375 46.53125 36.375 47.5 
Q 32.28125 48.484375 27.875 48.484375 
Q 21.1875 48.484375 17.84375 46.4375 
Q 14.5 44.390625 14.5 40.28125 
Q 14.5 37.15625 16.890625 35.375 
Q 19.28125 33.59375 26.515625 31.984375 
L 29.59375 31.296875 
Q 39.15625 29.25 43.1875 25.515625 
Q 47.21875 21.78125 47.21875 15.09375 
Q 47.21875 7.46875 41.1875 3.015625 
Q 35.15625 -1.421875 24.609375 -1.421875 
Q 20.21875 -1.421875 15.453125 -0.5625 
Q 10.6875 0.296875 5.421875 2 
L 5.421875 11.28125 
Q 10.40625 8.6875 15.234375 7.390625 
Q 20.0625 6.109375 24.8125 6.109375 
Q 31.15625 6.109375 34.5625 8.28125 
Q 37.984375 10.453125 37.984375 14.40625 
Q 37.984375 18.0625 35.515625 20.015625 
Q 33.0625 21.96875 24.703125 23.78125 
L 21.578125 24.515625 
Q 13.234375 26.265625 9.515625 29.90625 
Q 5.8125 33.546875 5.8125 39.890625 
Q 5.8125 47.609375 11.28125 51.796875 
Q 16.75 56 26.8125 56 
Q 31.78125 56 36.171875 55.265625 
Q 40.578125 54.546875 44.28125 53.078125 
z
" id="DejaVuSans-115"/>
      <path d="M 8.015625 75.875 
L 15.828125 75.875 
Q 23.140625 64.359375 26.78125 53.3125 
Q 30.421875 42.28125 30.421875 31.390625 
Q 30.421875 20.453125 26.78125 9.375 
Q 23.140625 -1.703125 15.828125 -13.1875 
L 8.015625 -13.1875 
Q 14.5 -2 17.703125 9.0625 
Q 20.90625 20.125 20.90625 31.390625 
Q 20.90625 42.671875 17.703125 53.65625 
Q 14.5 64.65625 8.015625 75.875 
z
" id="DejaVuSans-41"/>
     </defs>
     <g style="fill:#262626;" transform="translate(209.661563 316.706687)scale(0.1 -0.1)">
      <use xlink:href="#DejaVuSans-116"/>
      <use x="39.208984" xlink:href="#DejaVuSans-105"/>
      <use x="66.992188" xlink:href="#DejaVuSans-109"/>
      <use x="164.404297" xlink:href="#DejaVuSans-101"/>
      <use x="225.927734" xlink:href="#DejaVuSans-32"/>
      <use x="257.714844" xlink:href="#DejaVuSans-40"/>
      <use x="296.728516" xlink:href="#DejaVuSans-100"/>
      <use x="360.205078" xlink:href="#DejaVuSans-97"/>
      <use x="421.484375" xlink:href="#DejaVuSans-121"/>
      <use x="480.664062" xlink:href="#DejaVuSans-115"/>
      <use x="532.763672" xlink:href="#DejaVuSans-41"/>
     </g>
    </g>
   </g>
   <g id="matplotlib.axis_2">
    <g id="ytick_1">
     <g id="line2d_8">
      <path clip-path="url(#p3176b4c490)" d="M 59.690625 276.334125 
L 416.810625 276.334125 
" style="fill:none;stroke:#cccccc;stroke-linecap:round;stroke-width:0.8;"/>
     </g>
     <g id="text_9">
      <!-- 0 -->
      <g style="fill:#262626;" transform="translate(46.328125 280.133344)scale(0.1 -0.1)">
       <use xlink:href="#DejaVuSans-48"/>
      </g>
     </g>
    </g>
    <g id="ytick_2">
     <g id="line2d_9">
      <path clip-path="url(#p3176b4c490)" d="M 59.690625 246.32966 
L 416.810625 246.32966 
" style="fill:none;stroke:#cccccc;stroke-linecap:round;stroke-width:0.8;"/>
     </g>
     <g id="text_10">
      <!-- 5000 -->
      <g style="fill:#262626;" transform="translate(27.240625 250.128879)scale(0.1 -0.1)">
       <use xlink:href="#DejaVuSans-53"/>
       <use x="63.623047" xlink:href="#DejaVuSans-48"/>
       <use x="127.246094" xlink:href="#DejaVuSans-48"/>
       <use x="190.869141" xlink:href="#DejaVuSans-48"/>
      </g>
     </g>
    </g>
    <g id="ytick_3">
     <g id="line2d_10">
      <path clip-path="url(#p3176b4c490)" d="M 59.690625 216.325195 
L 416.810625 216.325195 
" style="fill:none;stroke:#cccccc;stroke-linecap:round;stroke-width:0.8;"/>
     </g>
     <g id="text_11">
      <!-- 10000 -->
      <g style="fill:#262626;" transform="translate(20.878125 220.124414)scale(0.1 -0.1)">
       <use xlink:href="#DejaVuSans-49"/>
       <use x="63.623047" xlink:href="#DejaVuSans-48"/>
       <use x="127.246094" xlink:href="#DejaVuSans-48"/>
       <use x="190.869141" xlink:href="#DejaVuSans-48"/>
       <use x="254.492188" xlink:href="#DejaVuSans-48"/>
      </g>
     </g>
    </g>
    <g id="ytick_4">
     <g id="line2d_11">
      <path clip-path="url(#p3176b4c490)" d="M 59.690625 186.32073 
L 416.810625 186.32073 
" style="fill:none;stroke:#cccccc;stroke-linecap:round;stroke-width:0.8;"/>
     </g>
     <g id="text_12">
      <!-- 15000 -->
      <g style="fill:#262626;" transform="translate(20.878125 190.119949)scale(0.1 -0.1)">
       <use xlink:href="#DejaVuSans-49"/>
       <use x="63.623047" xlink:href="#DejaVuSans-53"/>
       <use x="127.246094" xlink:href="#DejaVuSans-48"/>
       <use x="190.869141" xlink:href="#DejaVuSans-48"/>
       <use x="254.492188" xlink:href="#DejaVuSans-48"/>
      </g>
     </g>
    </g>
    <g id="ytick_5">
     <g id="line2d_12">
      <path clip-path="url(#p3176b4c490)" d="M 59.690625 156.316265 
L 416.810625 156.316265 
" style="fill:none;stroke:#cccccc;stroke-linecap:round;stroke-width:0.8;"/>
     </g>
     <g id="text_13">
      <!-- 20000 -->
      <g style="fill:#262626;" transform="translate(20.878125 160.115484)scale(0.1 -0.1)">
       <use xlink:href="#DejaVuSans-50"/>
       <use x="63.623047" xlink:href="#DejaVuSans-48"/>
       <use x="127.246094" xlink:href="#DejaVuSans-48"/>
       <use x="190.869141" xlink:href="#DejaVuSans-48"/>
       <use x="254.492188" xlink:href="#DejaVuSans-48"/>
      </g>
     </g>
    </g>
    <g id="ytick_6">
     <g id="line2d_13">
      <path clip-path="url(#p3176b4c490)" d="M 59.690625 126.3118 
L 416.810625 126.3118 
" style="fill:none;stroke:#cccccc;stroke-linecap:round;stroke-width:0.8;"/>
     </g>
     <g id="text_14">
      <!-- 25000 -->
      <g style="fill:#262626;" transform="translate(20.878125 130.111019)scale(0.1 -0.1)">
       <use xlink:href="#DejaVuSans-50"/>
       <use x="63.623047" xlink:href="#DejaVuSans-53"/>
       <use x="127.246094" xlink:href="#DejaVuSans-48"/>
       <use x="190.869141" xlink:href="#DejaVuSans-48"/>
       <use x="254.492188" xlink:href="#DejaVuSans-48"/>
      </g>
     </g>
    </g>
    <g id="ytick_7">
     <g id="line2d_14">
      <path clip-path="url(#p3176b4c490)" d="M 59.690625 96.307335 
L 416.810625 96.307335 
" style="fill:none;stroke:#cccccc;stroke-linecap:round;stroke-width:0.8;"/>
     </g>
     <g id="text_15">
      <!-- 30000 -->
      <g style="fill:#262626;" transform="translate(20.878125 100.106554)scale(0.1 -0.1)">
       <use xlink:href="#DejaVuSans-51"/>
       <use x="63.623047" xlink:href="#DejaVuSans-48"/>
       <use x="127.246094" xlink:href="#DejaVuSans-48"/>
       <use x="190.869141" xlink:href="#DejaVuSans-48"/>
       <use x="254.492188" xlink:href="#DejaVuSans-48"/>
      </g>
     </g>
    </g>
    <g id="ytick_8">
     <g id="line2d_15">
      <path clip-path="url(#p3176b4c490)" d="M 59.690625 66.30287 
L 416.810625 66.30287 
" style="fill:none;stroke:#cccccc;stroke-linecap:round;stroke-width:0.8;"/>
     </g>
     <g id="text_16">
      <!-- 35000 -->
      <g style="fill:#262626;" transform="translate(20.878125 70.102089)scale(0.1 -0.1)">
       <use xlink:href="#DejaVuSans-51"/>
       <use x="63.623047" xlink:href="#DejaVuSans-53"/>
       <use x="127.246094" xlink:href="#DejaVuSans-48"/>
       <use x="190.869141" xlink:href="#DejaVuSans-48"/>
       <use x="254.492188" xlink:href="#DejaVuSans-48"/>
      </g>
     </g>
    </g>
    <g id="ytick_9">
     <g id="line2d_16">
      <path clip-path="url(#p3176b4c490)" d="M 59.690625 36.298405 
L 416.810625 36.298405 
" style="fill:none;stroke:#cccccc;stroke-linecap:round;stroke-width:0.8;"/>
     </g>
     <g id="text_17">
      <!-- 40000 -->
      <g style="fill:#262626;" transform="translate(20.878125 40.097624)scale(0.1 -0.1)">
       <use xlink:href="#DejaVuSans-52"/>
       <use x="63.623047" xlink:href="#DejaVuSans-48"/>
       <use x="127.246094" xlink:href="#DejaVuSans-48"/>
       <use x="190.869141" xlink:href="#DejaVuSans-48"/>
       <use x="254.492188" xlink:href="#DejaVuSans-48"/>
      </g>
     </g>
    </g>
    <g id="text_18">
     <!-- cells number -->
     <defs>
      <path d="M 48.78125 52.59375 
L 48.78125 44.1875 
Q 44.96875 46.296875 41.140625 47.34375 
Q 37.3125 48.390625 33.40625 48.390625 
Q 24.65625 48.390625 19.8125 42.84375 
Q 14.984375 37.3125 14.984375 27.296875 
Q 14.984375 17.28125 19.8125 11.734375 
Q 24.65625 6.203125 33.40625 6.203125 
Q 37.3125 6.203125 41.140625 7.25 
Q 44.96875 8.296875 48.78125 10.40625 
L 48.78125 2.09375 
Q 45.015625 0.34375 40.984375 -0.53125 
Q 36.96875 -1.421875 32.421875 -1.421875 
Q 20.0625 -1.421875 12.78125 6.34375 
Q 5.515625 14.109375 5.515625 27.296875 
Q 5.515625 40.671875 12.859375 48.328125 
Q 20.21875 56 33.015625 56 
Q 37.15625 56 41.109375 55.140625 
Q 45.0625 54.296875 48.78125 52.59375 
z
" id="DejaVuSans-99"/>
      <path d="M 9.421875 75.984375 
L 18.40625 75.984375 
L 18.40625 0 
L 9.421875 0 
z
" id="DejaVuSans-108"/>
      <path d="M 54.890625 33.015625 
L 54.890625 0 
L 45.90625 0 
L 45.90625 32.71875 
Q 45.90625 40.484375 42.875 44.328125 
Q 39.84375 48.1875 33.796875 48.1875 
Q 26.515625 48.1875 22.3125 43.546875 
Q 18.109375 38.921875 18.109375 30.90625 
L 18.109375 0 
L 9.078125 0 
L 9.078125 54.6875 
L 18.109375 54.6875 
L 18.109375 46.1875 
Q 21.34375 51.125 25.703125 53.5625 
Q 30.078125 56 35.796875 56 
Q 45.21875 56 50.046875 50.171875 
Q 54.890625 44.34375 54.890625 33.015625 
z
" id="DejaVuSans-110"/>
      <path d="M 8.5 21.578125 
L 8.5 54.6875 
L 17.484375 54.6875 
L 17.484375 21.921875 
Q 17.484375 14.15625 20.5 10.265625 
Q 23.53125 6.390625 29.59375 6.390625 
Q 36.859375 6.390625 41.078125 11.03125 
Q 45.3125 15.671875 45.3125 23.6875 
L 45.3125 54.6875 
L 54.296875 54.6875 
L 54.296875 0 
L 45.3125 0 
L 45.3125 8.40625 
Q 42.046875 3.421875 37.71875 1 
Q 33.40625 -1.421875 27.6875 -1.421875 
Q 18.265625 -1.421875 13.375 4.4375 
Q 8.5 10.296875 8.5 21.578125 
z
M 31.109375 56 
z
" id="DejaVuSans-117"/>
      <path d="M 48.6875 27.296875 
Q 48.6875 37.203125 44.609375 42.84375 
Q 40.53125 48.484375 33.40625 48.484375 
Q 26.265625 48.484375 22.1875 42.84375 
Q 18.109375 37.203125 18.109375 27.296875 
Q 18.109375 17.390625 22.1875 11.75 
Q 26.265625 6.109375 33.40625 6.109375 
Q 40.53125 6.109375 44.609375 11.75 
Q 48.6875 17.390625 48.6875 27.296875 
z
M 18.109375 46.390625 
Q 20.953125 51.265625 25.265625 53.625 
Q 29.59375 56 35.59375 56 
Q 45.5625 56 51.78125 48.09375 
Q 58.015625 40.1875 58.015625 27.296875 
Q 58.015625 14.40625 51.78125 6.484375 
Q 45.5625 -1.421875 35.59375 -1.421875 
Q 29.59375 -1.421875 25.265625 0.953125 
Q 20.953125 3.328125 18.109375 8.203125 
L 18.109375 0 
L 9.078125 0 
L 9.078125 75.984375 
L 18.109375 75.984375 
z
" id="DejaVuSans-98"/>
      <path d="M 41.109375 46.296875 
Q 39.59375 47.171875 37.8125 47.578125 
Q 36.03125 48 33.890625 48 
Q 26.265625 48 22.1875 43.046875 
Q 18.109375 38.09375 18.109375 28.8125 
L 18.109375 0 
L 9.078125 0 
L 9.078125 54.6875 
L 18.109375 54.6875 
L 18.109375 46.1875 
Q 20.953125 51.171875 25.484375 53.578125 
Q 30.03125 56 36.53125 56 
Q 37.453125 56 38.578125 55.875 
Q 39.703125 55.765625 41.0625 55.515625 
z
" id="DejaVuSans-114"/>
     </defs>
     <g style="fill:#262626;" transform="translate(14.798438 187.685844)rotate(-90)scale(0.1 -0.1)">
      <use xlink:href="#DejaVuSans-99"/>
      <use x="54.980469" xlink:href="#DejaVuSans-101"/>
      <use x="116.503906" xlink:href="#DejaVuSans-108"/>
      <use x="144.287109" xlink:href="#DejaVuSans-108"/>
      <use x="172.070312" xlink:href="#DejaVuSans-115"/>
      <use x="224.169922" xlink:href="#DejaVuSans-32"/>
      <use x="255.957031" xlink:href="#DejaVuSans-110"/>
      <use x="319.335938" xlink:href="#DejaVuSans-117"/>
      <use x="382.714844" xlink:href="#DejaVuSans-109"/>
      <use x="480.126953" xlink:href="#DejaVuSans-98"/>
      <use x="543.603516" xlink:href="#DejaVuSans-101"/>
      <use x="605.126953" xlink:href="#DejaVuSans-114"/>
     </g>
    </g>
   </g>
   <g id="line2d_17">
    <path clip-path="url(#p3176b4c490)" d="M 75.923352 272.94362 
L 77.007341 272.103495 
L 78.091329 271.083344 
L 80.259306 268.658983 
L 81.885289 266.036593 
L 83.511272 262.826115 
L 85.137254 258.62549 
L 87.305231 251.736465 
L 88.931214 245.129481 
L 92.183179 229.023085 
L 93.267168 222.836164 
L 97.061127 200.032771 
L 100.855087 172.632693 
L 103.023064 156.01022 
L 106.275029 132.006648 
L 106.817024 128.790169 
L 107.901012 121.193039 
L 109.526995 111.153545 
L 110.610983 104.708585 
L 113.862949 85.511729 
L 114.404943 83.123373 
L 114.946937 81.671157 
L 116.030926 80.350961 
L 116.57292 79.060769 
L 117.114914 78.442677 
L 117.656908 76.972458 
L 118.198902 74.842141 
L 119.282891 72.399778 
L 120.366879 68.937262 
L 120.908874 67.965118 
L 121.992862 66.806945 
L 122.534856 66.314872 
L 123.076851 66.488898 
L 124.160839 64.814649 
L 124.702833 64.856655 
L 125.244827 63.860507 
L 126.328816 64.388585 
L 126.87081 64.946669 
L 127.412804 65.666776 
L 129.038787 68.673223 
L 129.580781 70.311467 
L 130.122776 70.995569 
L 132.290752 78.66471 
L 132.832747 79.936899 
L 135.000724 88.392157 
L 137.168701 95.149163 
L 137.710695 97.321486 
L 138.794683 100.525963 
L 140.96266 109.227258 
L 142.588643 117.23845 
L 143.130637 119.446779 
L 143.672631 123.161331 
L 144.75662 128.778167 
L 145.840608 134.737054 
L 146.382603 139.093702 
L 146.924597 142.472205 
L 147.466591 145.028585 
L 149.092574 156.28026 
L 151.260551 167.687957 
L 151.802545 171.576536 
L 152.886533 177.373399 
L 153.970522 184.004385 
L 155.05451 190.089291 
L 157.764481 203.009214 
L 158.84847 209.004106 
L 159.932458 214.050857 
L 163.184424 226.16666 
L 163.726418 227.294827 
L 166.436389 236.140144 
L 168.604366 241.246904 
L 169.14636 242.147038 
L 169.688355 243.779281 
L 170.230349 245.015464 
L 170.772343 245.85559 
L 172.398326 249.642153 
L 172.94032 250.686308 
L 173.482314 251.310401 
L 174.024308 252.546585 
L 174.566303 253.404713 
L 176.73428 257.563332 
L 177.276274 258.475467 
L 177.818268 259.897679 
L 179.444251 261.721951 
L 180.528239 262.7241 
L 181.612228 264.14031 
L 182.154222 264.590377 
L 182.696216 265.328487 
L 183.23821 265.706544 
L 183.780205 266.330636 
L 184.864193 266.96073 
L 185.406187 267.440802 
L 185.948182 268.214917 
L 187.03217 268.97703 
L 187.574164 269.601123 
L 188.116158 269.955176 
L 189.742141 270.537262 
L 190.284135 270.909318 
L 190.82613 271.12535 
L 192.452112 272.1335 
L 194.078095 272.931619 
L 195.162083 273.309675 
L 197.33006 274.08379 
L 204.91798 275.530005 
L 207.627951 275.69803 
L 208.711939 275.878057 
L 212.505899 276.130095 
L 214.131882 276.178102 
L 237.979628 276.334125 
L 400.577898 276.334125 
L 400.577898 276.334125 
" style="fill:none;stroke:#000080;stroke-linecap:round;stroke-width:1.5;"/>
   </g>
   <g id="line2d_18">
    <path clip-path="url(#p3176b4c490)" d="M 75.923352 273.051637 
L 77.549335 272.043487 
L 79.175318 270.489255 
L 80.8013 268.568969 
L 81.885289 266.864716 
L 84.053266 262.628085 
L 85.679248 259.015548 
L 87.305231 254.226835 
L 88.38922 250.518283 
L 88.931214 248.754021 
L 91.099191 239.794688 
L 91.641185 237.496346 
L 93.267168 229.431145 
L 94.351156 224.270377 
L 96.519133 212.772666 
L 98.145116 202.421126 
L 99.229104 194.968017 
L 99.771099 192.225609 
L 105.191041 155.698173 
L 105.733035 152.823745 
L 106.817024 145.59867 
L 107.359018 142.652232 
L 107.901012 138.907675 
L 113.320954 110.133393 
L 114.946937 102.986329 
L 116.030926 99.127755 
L 116.57292 96.487362 
L 117.114914 94.891125 
L 117.656908 92.676795 
L 118.198902 90.990544 
L 118.740897 90.258435 
L 119.282891 89.154271 
L 120.366879 88.87823 
L 120.908874 89.088261 
L 121.450868 87.792068 
L 121.992862 87.06596 
L 122.534856 86.573887 
L 123.076851 86.345853 
L 123.618845 86.837926 
L 124.160839 86.609892 
L 124.702833 86.687904 
L 127.412804 91.110562 
L 127.954799 92.076706 
L 131.206764 103.400391 
L 132.290752 106.646874 
L 132.832747 108.783192 
L 133.374741 110.349425 
L 134.458729 113.901954 
L 136.626706 121.691113 
L 137.710695 126.641849 
L 138.252689 128.052059 
L 138.794683 130.254387 
L 139.336678 133.074807 
L 139.878672 135.169118 
L 140.420666 138.169565 
L 140.96266 140.113854 
L 144.214626 155.890202 
L 144.75662 159.136685 
L 145.840608 164.417471 
L 147.466591 174.192925 
L 148.550579 178.777608 
L 151.260551 189.699233 
L 151.802545 192.627669 
L 152.886533 197.668419 
L 153.970522 202.595152 
L 155.05451 206.753771 
L 157.222487 215.491071 
L 157.764481 217.045302 
L 158.306476 219.097608 
L 158.84847 220.675843 
L 159.390464 222.752151 
L 164.268412 236.794241 
L 164.810406 238.438486 
L 165.352401 239.386627 
L 167.520378 245.219495 
L 168.604366 247.391818 
L 170.230349 250.470276 
L 171.314337 252.624597 
L 173.482314 255.589038 
L 176.73428 260.683796 
L 179.986245 264.626383 
L 180.528239 265.022442 
L 181.612228 266.054595 
L 183.780205 267.590824 
L 184.322199 267.782852 
L 185.406187 268.562969 
L 185.948182 268.929023 
L 186.490176 269.067044 
L 187.03217 269.409094 
L 188.116158 270.339233 
L 189.742141 270.92132 
L 190.284135 271.251369 
L 191.368124 271.413393 
L 191.910118 271.773446 
L 194.620089 272.649577 
L 195.162083 272.883612 
L 196.788066 273.267669 
L 198.956043 273.94577 
L 199.498037 273.975774 
L 200.040032 274.221811 
L 200.582026 274.257816 
L 201.666014 274.641873 
L 202.750003 274.743888 
L 204.91798 275.115944 
L 206.543962 275.313973 
L 208.169945 275.542007 
L 210.337922 275.76404 
L 219.551824 276.172101 
L 226.055755 276.286118 
L 400.577898 276.334125 
L 400.577898 276.334125 
" style="fill:none;stroke:#0000f1;stroke-linecap:round;stroke-width:1.5;"/>
   </g>
   <g id="line2d_19">
    <path clip-path="url(#p3176b4c490)" d="M 75.923352 273.051637 
L 77.549335 271.92947 
L 79.175318 270.45325 
L 80.8013 268.418947 
L 81.885289 266.840712 
L 84.053266 262.652089 
L 84.59526 261.481915 
L 86.221243 257.113265 
L 87.305231 253.734762 
L 88.38922 250.548288 
L 89.473208 246.221644 
L 92.725173 231.465448 
L 94.351156 222.842165 
L 101.939075 177.187371 
L 105.191041 155.458138 
L 107.901012 139.027692 
L 108.443006 136.747353 
L 110.068989 127.169928 
L 111.694972 120.46093 
L 112.77896 116.734375 
L 114.404943 111.447588 
L 114.946937 110.205403 
L 115.488931 108.651172 
L 116.030926 108.045082 
L 116.57292 107.751038 
L 117.656908 105.284671 
L 118.198902 104.810601 
L 118.740897 104.498554 
L 119.282891 103.568416 
L 120.908874 102.776298 
L 121.992862 104.900614 
L 122.534856 105.782745 
L 123.618845 106.574863 
L 124.160839 105.758742 
L 125.244827 108.057084 
L 126.328816 108.675176 
L 126.87081 109.467294 
L 127.412804 109.98337 
L 128.496793 112.353723 
L 129.038787 112.821793 
L 129.580781 113.643915 
L 131.748758 118.942704 
L 132.290752 119.704817 
L 132.832747 121.049017 
L 135.000724 127.674003 
L 139.336678 146.084743 
L 139.878672 148.01703 
L 140.420666 151.029478 
L 141.504654 155.554152 
L 143.672631 168.330053 
L 145.298614 175.70515 
L 145.840608 179.089654 
L 148.008585 188.703085 
L 152.886533 209.880236 
L 153.428528 211.530482 
L 154.512516 215.443064 
L 155.05451 217.303341 
L 155.596504 219.7157 
L 157.764481 226.622727 
L 161.016447 236.18215 
L 165.894395 247.193789 
L 168.604366 252.44457 
L 170.230349 254.59289 
L 170.772343 255.475021 
L 171.314337 255.919087 
L 172.398326 257.425311 
L 172.94032 257.983394 
L 173.482314 258.937536 
L 175.650291 261.343894 
L 178.360262 263.654238 
L 180.528239 266.102602 
L 181.070233 266.426651 
L 181.612228 267.212768 
L 182.154222 267.704841 
L 183.780205 268.785002 
L 184.322199 269.193062 
L 185.406187 269.553116 
L 188.658153 271.32938 
L 189.742141 271.875462 
L 190.82613 272.451547 
L 191.368124 272.60757 
L 191.910118 272.895613 
L 196.246072 274.161802 
L 197.33006 274.245814 
L 198.414049 274.533857 
L 204.91798 275.439992 
L 209.795928 275.692029 
L 210.879916 275.710032 
L 213.047893 275.866055 
L 216.299859 275.938066 
L 220.093818 276.052083 
L 235.269657 276.292119 
L 239.063616 276.310121 
L 250.987489 276.334125 
L 400.577898 276.334125 
L 400.577898 276.334125 
" style="fill:none;stroke:#004cff;stroke-linecap:round;stroke-width:1.5;"/>
   </g>
   <g id="line2d_20">
    <path clip-path="url(#p3176b4c490)" d="M 75.923352 273.015631 
L 77.549335 271.905466 
L 79.175318 270.393241 
L 80.8013 268.526963 
L 82.969277 265.14846 
L 84.59526 261.565927 
L 85.679248 258.979542 
L 87.305231 254.472872 
L 88.931214 248.736018 
L 92.725173 232.167553 
L 95.435145 216.217179 
L 97.603122 201.358968 
L 98.68711 193.233759 
L 99.771099 184.538465 
L 105.733035 134.004945 
L 106.275029 129.720307 
L 107.359018 122.603248 
L 110.610983 100.982031 
L 114.946937 76.04232 
L 116.57292 70.587508 
L 118.198902 64.262567 
L 118.740897 61.562165 
L 119.282891 59.587871 
L 119.824885 59.029788 
L 120.366879 58.225668 
L 120.908874 56.395396 
L 121.450868 55.699292 
L 121.992862 54.733149 
L 122.534856 54.505115 
L 123.618845 53.358944 
L 124.702833 53.773006 
L 125.244827 54.097054 
L 126.328816 54.4091 
L 126.87081 53.767005 
L 127.412804 54.87717 
L 127.954799 56.437402 
L 129.580781 58.453702 
L 130.66477 60.872062 
L 131.206764 62.660328 
L 131.748758 64.028532 
L 133.374741 69.867401 
L 135.542718 79.396819 
L 136.626706 86.183829 
L 139.878672 104.324528 
L 142.588643 123.389365 
L 143.130637 126.233789 
L 145.298614 139.61578 
L 146.382603 145.766695 
L 146.924597 149.505252 
L 148.550579 158.794634 
L 149.092574 162.383168 
L 149.634568 165.131577 
L 151.260551 175.459114 
L 153.970522 188.457048 
L 154.512516 191.673527 
L 157.764481 206.237694 
L 162.64243 224.49241 
L 163.726418 228.062942 
L 166.978383 238.696524 
L 169.688355 246.257649 
L 170.230349 247.637855 
L 170.772343 248.483981 
L 172.398326 251.928493 
L 172.94032 253.056661 
L 174.024308 254.922939 
L 174.566303 256.243135 
L 177.276274 260.635789 
L 178.360262 262.274033 
L 178.902257 262.694095 
L 179.444251 263.498215 
L 182.696216 266.840712 
L 184.322199 268.256923 
L 190.284135 271.683433 
L 190.82613 272.085493 
L 191.910118 272.529559 
L 192.452112 272.583567 
L 195.704078 273.975774 
L 201.666014 275.247963 
L 202.750003 275.391985 
L 210.879916 276.016078 
L 219.551824 276.220108 
L 222.803789 276.220108 
L 228.223732 276.29812 
L 235.269657 276.328124 
L 400.577898 276.334125 
L 400.577898 276.334125 
" style="fill:none;stroke:#00b0ff;stroke-linecap:round;stroke-width:1.5;"/>
   </g>
   <g id="line2d_21">
    <path clip-path="url(#p3176b4c490)" d="M 75.923352 272.979626 
L 78.633323 270.843308 
L 79.717312 269.655131 
L 80.8013 268.388943 
L 81.885289 266.738697 
L 82.969277 264.776405 
L 84.053266 262.616084 
L 86.221243 256.999248 
L 87.305231 253.464722 
L 88.931214 248.00991 
L 91.641185 236.608213 
L 95.435145 216.781263 
L 103.565058 164.189437 
L 104.649047 156.808338 
L 106.275029 146.174756 
L 108.443006 133.410857 
L 110.610983 120.202891 
L 111.694972 115.282159 
L 112.77896 109.083236 
L 114.946937 100.525963 
L 115.488931 98.563671 
L 116.030926 97.045445 
L 117.114914 92.958837 
L 117.656908 91.686648 
L 118.198902 89.154271 
L 118.740897 87.888082 
L 119.824885 86.081814 
L 120.366879 84.755616 
L 120.908874 84.149526 
L 121.450868 84.185531 
L 121.992862 83.77147 
L 122.534856 84.203534 
L 124.160839 83.249392 
L 124.702833 84.587591 
L 125.244827 84.815625 
L 125.786822 85.397712 
L 126.328816 85.72176 
L 126.87081 87.011952 
L 127.954799 87.528029 
L 129.580781 90.168422 
L 130.122776 91.70465 
L 130.66477 94.315039 
L 133.916735 106.268818 
L 135.000724 111.831645 
L 136.084712 118.222596 
L 138.252689 130.14037 
L 139.878672 140.82796 
L 140.420666 143.300328 
L 141.504654 150.477396 
L 143.130637 159.322713 
L 144.214626 163.9434 
L 144.75662 167.123873 
L 145.298614 169.25419 
L 146.382603 174.883028 
L 146.924597 177.229377 
L 147.466591 180.571875 
L 150.718556 196.630264 
L 151.260551 199.816738 
L 151.802545 202.18109 
L 152.886533 207.647904 
L 153.428528 209.56819 
L 153.970522 212.136572 
L 155.05451 216.187175 
L 155.596504 218.833568 
L 156.680493 222.728148 
L 157.764481 227.060793 
L 158.306476 228.543013 
L 159.932458 234.597914 
L 161.558441 240.34677 
L 162.64243 244.067323 
L 163.726418 247.00176 
L 164.268412 248.856036 
L 164.810406 250.050214 
L 165.352401 250.926344 
L 166.978383 254.676902 
L 168.604366 257.21528 
L 169.688355 258.463466 
L 170.230349 259.459614 
L 170.772343 259.957688 
L 172.398326 262.106008 
L 174.024308 263.768255 
L 174.566303 264.458358 
L 176.192285 265.574524 
L 177.276274 266.618679 
L 178.360262 267.122754 
L 179.986245 268.688987 
L 180.528239 269.31308 
L 181.612228 269.931172 
L 182.154222 270.25522 
L 182.696216 270.759295 
L 183.780205 271.19136 
L 185.406187 271.959474 
L 185.948182 272.097495 
L 187.03217 272.703585 
L 188.658153 273.183656 
L 190.82613 273.981775 
L 192.452112 274.431842 
L 193.536101 274.677879 
L 195.704078 274.965921 
L 199.498037 275.397986 
L 202.208009 275.656024 
L 209.795928 276.136096 
L 214.673876 276.238111 
L 220.093818 276.322123 
L 400.577898 276.334125 
L 400.577898 276.334125 
" style="fill:none;stroke:#29ffce;stroke-linecap:round;stroke-width:1.5;"/>
   </g>
   <g id="line2d_22">
    <path clip-path="url(#p3176b4c490)" d="M 75.923352 273.105645 
L 77.549335 271.93547 
L 79.717312 269.775149 
L 80.8013 268.208916 
L 82.969277 264.54237 
L 84.59526 261.085856 
L 85.679248 258.301442 
L 87.847225 251.376411 
L 88.931214 247.697864 
L 90.015202 243.245201 
L 92.183179 233.133696 
L 98.145116 196.852297 
L 99.771099 185.972678 
L 100.855087 180.169815 
L 104.649047 156.034223 
L 110.068989 124.223489 
L 110.610983 121.979156 
L 111.152977 120.59895 
L 111.694972 118.522641 
L 112.236966 116.914402 
L 113.320954 112.029675 
L 113.862949 110.769487 
L 115.488931 105.170654 
L 116.030926 103.940471 
L 116.57292 102.272223 
L 117.114914 101.564118 
L 117.656908 100.621977 
L 118.198902 100.285927 
L 119.282891 98.82771 
L 119.824885 98.587675 
L 120.366879 96.763403 
L 120.908874 96.715396 
L 121.450868 96.031294 
L 121.992862 96.253327 
L 122.534856 96.193318 
L 123.076851 97.14746 
L 123.618845 97.675539 
L 124.160839 97.357492 
L 124.702833 98.377643 
L 125.244827 98.653684 
L 125.786822 98.551669 
L 126.328816 98.785704 
L 126.87081 100.015887 
L 127.954799 101.114051 
L 128.496793 102.638277 
L 130.66477 106.814899 
L 131.206764 108.399135 
L 131.748758 109.023228 
L 132.290752 111.051529 
L 133.374741 114.508044 
L 134.458729 119.314759 
L 135.000724 120.880992 
L 135.542718 123.605398 
L 136.084712 124.781573 
L 137.168701 129.756313 
L 137.710695 131.0165 
L 138.252689 133.980941 
L 139.336678 138.019542 
L 140.96266 145.214613 
L 141.504654 146.876861 
L 143.130637 155.146091 
L 144.214626 160.354866 
L 144.75662 162.221144 
L 145.298614 164.741519 
L 145.840608 166.439772 
L 150.176562 182.876218 
L 151.260551 186.884814 
L 151.802545 188.301025 
L 152.886533 192.573661 
L 153.970522 196.714277 
L 154.512516 198.004469 
L 155.596504 202.31311 
L 156.138499 203.777328 
L 156.680493 205.973655 
L 157.222487 207.55189 
L 158.84847 213.042707 
L 162.64243 225.626579 
L 163.726418 228.525011 
L 166.436389 235.936113 
L 168.062372 239.704674 
L 168.604366 240.676819 
L 169.14636 241.925005 
L 170.772343 246.287654 
L 171.856331 248.34596 
L 173.482314 251.538435 
L 174.024308 252.132524 
L 174.566303 253.260691 
L 175.108297 253.776768 
L 175.650291 254.868931 
L 177.276274 257.263287 
L 177.818268 257.833372 
L 178.902257 259.537626 
L 179.986245 260.557777 
L 182.154222 263.504216 
L 182.696216 264.308335 
L 184.322199 266.078599 
L 186.490176 267.554819 
L 187.03217 268.1009 
L 189.200147 269.397093 
L 190.284135 269.751145 
L 190.82613 270.171208 
L 191.910118 270.615274 
L 196.246072 272.631574 
L 198.956043 273.285671 
L 199.498037 273.369684 
L 200.582026 273.723737 
L 202.208009 274.269818 
L 203.833991 274.545859 
L 204.91798 274.875908 
L 206.001968 274.941918 
L 206.543962 275.115944 
L 212.505899 275.602016 
L 214.131882 275.722034 
L 226.597749 276.172101 
L 236.353645 276.280117 
L 250.445495 276.328124 
L 400.577898 276.334125 
L 400.577898 276.334125 
" style="fill:none;stroke:#7dff7a;stroke-linecap:round;stroke-width:1.5;"/>
   </g>
   <g id="line2d_23">
    <path clip-path="url(#p3176b4c490)" d="M 75.923352 273.051637 
L 77.007341 272.40354 
L 78.091329 271.32938 
L 79.717312 269.451101 
L 81.885289 266.162611 
L 83.511272 262.670092 
L 84.59526 259.819667 
L 87.305231 251.154378 
L 87.847225 249.348109 
L 90.015202 239.758682 
L 92.183179 229.26312 
L 93.267168 223.454256 
L 94.89315 212.754664 
L 97.061127 197.020322 
L 99.771099 176.965338 
L 100.855087 168.078015 
L 108.985 100.759998 
L 111.152977 84.653601 
L 112.236966 76.390371 
L 113.320954 70.269461 
L 114.404943 64.08254 
L 116.030926 57.139507 
L 118.198902 49.560379 
L 118.740897 48.576232 
L 119.282891 46.709955 
L 119.824885 45.557783 
L 120.366879 45.023704 
L 120.908874 44.891684 
L 121.450868 44.159575 
L 123.076851 44.681653 
L 123.618845 44.081564 
L 124.160839 43.895536 
L 124.702833 45.359754 
L 125.244827 45.761814 
L 125.786822 46.805969 
L 126.328816 48.120165 
L 126.87081 49.950437 
L 127.412804 51.198623 
L 127.954799 53.66499 
L 129.038787 56.875467 
L 130.66477 61.622174 
L 132.290752 69.831395 
L 133.374741 74.956158 
L 133.916735 78.160635 
L 134.458729 79.954902 
L 135.000724 82.22924 
L 135.542718 86.177828 
L 136.626706 91.404606 
L 137.168701 94.59108 
L 138.252689 99.22977 
L 138.794683 101.336084 
L 142.588643 121.577096 
L 143.130637 123.863436 
L 143.672631 127.085915 
L 145.840608 137.32944 
L 146.924597 143.366338 
L 147.466591 145.358635 
L 148.550579 151.671574 
L 149.092574 154.251958 
L 150.176562 160.864942 
L 150.718556 163.013262 
L 156.680493 194.962016 
L 157.764481 200.152788 
L 158.84847 204.653458 
L 159.932458 209.514182 
L 161.558441 216.217179 
L 162.64243 220.333792 
L 163.184424 222.704144 
L 168.604366 240.130738 
L 170.230349 244.541394 
L 170.772343 245.675563 
L 171.314337 247.457828 
L 172.94032 251.364409 
L 175.650291 256.969243 
L 178.360262 261.523921 
L 178.902257 262.003993 
L 180.528239 264.164314 
L 184.322199 267.4288 
L 184.864193 267.76485 
L 185.406187 268.352937 
L 187.574164 269.691136 
L 188.658153 270.59127 
L 189.742141 271.185359 
L 190.284135 271.25737 
L 191.368124 271.845457 
L 192.994107 272.589568 
L 195.162083 273.513705 
L 195.704078 273.471699 
L 196.788066 273.651726 
L 197.872055 274.053786 
L 200.582026 274.599867 
L 201.666014 274.665877 
L 202.750003 274.869907 
L 204.375985 275.037932 
L 207.627951 275.566011 
L 209.795928 275.818048 
L 213.589887 276.040081 
L 216.299859 276.124094 
L 220.635812 276.268115 
L 227.139743 276.29812 
L 240.147605 276.334125 
L 400.577898 276.334125 
L 400.577898 276.334125 
" style="fill:none;stroke:#ceff29;stroke-linecap:round;stroke-width:1.5;"/>
   </g>
   <g id="line2d_24">
    <path clip-path="url(#p3176b4c490)" d="M 75.923352 273.003629 
L 77.007341 272.163504 
L 79.175318 270.057191 
L 81.343295 267.23077 
L 82.969277 264.398349 
L 83.511272 263.33019 
L 86.221243 256.651196 
L 88.38922 249.504132 
L 90.015202 242.879147 
L 91.641185 235.696078 
L 93.809162 224.82846 
L 95.435145 215.593086 
L 97.061127 206.14168 
L 98.68711 195.232056 
L 99.771099 187.580918 
L 100.855087 180.097804 
L 102.48107 169.752265 
L 103.565058 161.957105 
L 105.733035 147.002879 
L 106.817024 140.851964 
L 108.985 128.214083 
L 110.610983 120.832985 
L 113.320954 111.093536 
L 113.862949 109.431288 
L 114.404943 106.706883 
L 114.946937 104.708585 
L 115.488931 103.454399 
L 116.57292 99.859864 
L 117.114914 98.41965 
L 118.198902 97.129458 
L 119.282891 94.537072 
L 120.366879 93.528922 
L 120.908874 93.420906 
L 121.450868 93.678944 
L 121.992862 94.147014 
L 122.534856 94.153015 
L 123.076851 94.453059 
L 123.618845 93.936983 
L 124.702833 94.759105 
L 126.328816 96.655387 
L 127.412804 97.813559 
L 128.496793 100.711991 
L 129.038787 100.862013 
L 130.122776 102.446249 
L 130.66477 103.580418 
L 131.206764 104.354533 
L 132.832747 110.259412 
L 133.374741 112.881802 
L 135.000724 119.284755 
L 137.710695 134.695048 
L 139.878672 145.322629 
L 140.96266 150.801445 
L 142.588643 160.096828 
L 144.75662 170.838426 
L 145.840608 175.609136 
L 147.466591 183.044243 
L 148.008585 185.096548 
L 149.092574 191.043433 
L 150.176562 194.968017 
L 151.802545 201.929053 
L 152.344539 203.543293 
L 155.05451 213.444766 
L 155.596504 215.004999 
L 156.680493 218.563528 
L 157.764481 221.209922 
L 158.306476 223.004189 
L 158.84847 224.366392 
L 160.474453 229.377137 
L 163.726418 238.846546 
L 164.810406 240.976864 
L 165.352401 242.801135 
L 165.894395 243.887297 
L 166.436389 245.411523 
L 166.978383 246.227645 
L 168.604366 249.642153 
L 170.230349 253.404713 
L 170.772343 254.454869 
L 174.566303 259.807666 
L 175.650291 261.091857 
L 178.360262 264.54237 
L 178.902257 265.094452 
L 179.986245 265.838563 
L 180.528239 266.55867 
L 183.780205 268.83901 
L 185.406187 270.201212 
L 190.284135 272.253518 
L 192.452112 273.021632 
L 196.246072 274.125796 
L 197.33006 274.449845 
L 199.498037 274.845904 
L 201.12402 275.001927 
L 202.750003 275.199956 
L 206.543962 275.596015 
L 208.169945 275.710032 
L 209.795928 275.836051 
L 222.803789 276.1661 
L 242.857576 276.286118 
L 251.529484 276.29812 
L 263.995351 276.328124 
L 400.577898 276.334125 
L 400.577898 276.334125 
" style="fill:none;stroke:#ffc400;stroke-linecap:round;stroke-width:1.5;"/>
   </g>
   <g id="line2d_25">
    <path clip-path="url(#p3176b4c490)" d="M 75.923352 272.973625 
L 77.007341 272.223513 
L 78.091329 271.149353 
L 80.259306 268.466954 
L 81.885289 265.976584 
L 82.969277 263.528219 
L 84.59526 260.005695 
L 85.679248 257.029252 
L 86.221243 255.481022 
L 87.847225 249.444124 
L 90.015202 240.208749 
L 91.641185 231.795497 
L 97.603122 196.612262 
L 99.229104 185.408594 
L 100.855087 174.228931 
L 103.565058 154.696024 
L 107.359018 128.694155 
L 111.694972 103.430395 
L 112.236966 101.408094 
L 112.77896 98.371642 
L 114.404943 91.03255 
L 115.488931 84.6476 
L 116.030926 82.715313 
L 116.57292 81.395116 
L 117.656908 77.716569 
L 118.740897 75.652262 
L 119.824885 72.993866 
L 120.366879 72.35177 
L 120.908874 71.061578 
L 121.450868 70.32947 
L 121.992862 70.191449 
L 122.534856 69.855399 
L 123.618845 69.735381 
L 124.160839 69.783388 
L 124.702833 70.077432 
L 125.786822 69.705377 
L 126.328816 71.253607 
L 126.87081 71.145591 
L 127.412804 70.86955 
L 128.496793 71.163594 
L 129.038787 72.507794 
L 129.580781 74.254054 
L 131.206764 77.692565 
L 131.748758 77.332512 
L 132.832747 79.564844 
L 133.374741 80.386966 
L 134.458729 82.853333 
L 135.542718 86.225835 
L 136.084712 86.939941 
L 136.626706 88.620191 
L 137.168701 89.646344 
L 137.710695 93.066853 
L 138.794683 97.063448 
L 139.336678 100.663984 
L 140.420666 105.596718 
L 140.96266 107.925064 
L 142.046649 114.580054 
L 144.214626 128.340102 
L 145.298614 135.469163 
L 145.840608 138.343591 
L 146.924597 145.19061 
L 151.802545 169.734262 
L 153.428528 179.215673 
L 153.970522 182.01809 
L 155.05451 188.595069 
L 155.596504 190.899412 
L 156.138499 194.037879 
L 159.932458 209.958248 
L 161.558441 215.461067 
L 163.726418 222.704144 
L 164.268412 224.15036 
L 165.894395 229.791199 
L 167.520378 232.995676 
L 168.604366 236.014125 
L 169.688355 238.360474 
L 171.314337 241.390925 
L 171.856331 242.939156 
L 172.94032 244.91945 
L 174.024308 246.521689 
L 174.566303 247.80588 
L 175.108297 248.74802 
L 175.650291 249.462126 
L 177.276274 252.342555 
L 178.360262 253.962796 
L 179.444251 255.619042 
L 179.986245 256.6812 
L 181.070233 258.325445 
L 182.154222 259.855673 
L 182.696216 260.317742 
L 183.23821 261.217876 
L 184.322199 262.274033 
L 185.406187 263.60023 
L 187.03217 265.094452 
L 188.116158 266.35464 
L 188.658153 267.02674 
L 189.742141 267.824859 
L 194.078095 270.687285 
L 196.246072 271.689434 
L 196.788066 271.749443 
L 197.33006 272.055488 
L 198.414049 272.295524 
L 198.956043 272.499554 
L 200.582026 272.745591 
L 201.666014 273.00963 
L 204.375985 273.867758 
L 205.459974 274.233812 
L 207.627951 274.587865 
L 208.169945 274.539858 
L 210.879916 274.857905 
L 211.963905 274.881909 
L 213.047893 275.133946 
L 215.21587 275.319974 
L 216.299859 275.475997 
L 217.383847 275.433991 
L 222.261795 275.638021 
L 223.887778 275.770041 
L 228.223732 276.052083 
L 229.849714 276.124094 
L 241.231593 276.220108 
L 245.025553 276.238111 
L 263.453357 276.334125 
L 400.577898 276.334125 
L 400.577898 276.334125 
" style="fill:none;stroke:#ff6800;stroke-linecap:round;stroke-width:1.5;"/>
   </g>
   <g id="line2d_26">
    <path clip-path="url(#p3176b4c490)" d="M 75.923352 272.967624 
L 77.007341 272.289523 
L 78.633323 270.753295 
L 79.717312 269.457102 
L 81.885289 266.162611 
L 82.969277 264.152312 
L 85.679248 257.299292 
L 87.305231 251.808475 
L 88.38922 247.859888 
L 90.557197 238.456488 
L 92.183179 229.677182 
L 94.351156 216.619239 
L 95.435145 209.862233 
L 100.313093 175.513122 
L 103.565058 148.101043 
L 105.191041 134.358998 
L 107.359018 115.060126 
L 110.068989 93.960986 
L 111.152977 87.059959 
L 112.236966 79.120778 
L 112.77896 76.096328 
L 113.320954 72.039724 
L 114.404943 65.684778 
L 115.488931 58.759748 
L 117.114914 49.542376 
L 117.656908 47.742108 
L 119.282891 40.240992 
L 120.366879 39.160831 
L 120.908874 37.870639 
L 121.450868 36.970505 
L 121.992862 36.640456 
L 122.534856 35.092226 
L 123.076851 34.414125 
L 123.618845 35.110229 
L 124.160839 35.350264 
L 124.702833 34.690166 
L 125.786822 37.036515 
L 126.328816 37.396569 
L 126.87081 38.506734 
L 127.412804 41.03311 
L 127.954799 42.683356 
L 129.038787 47.034003 
L 129.580781 49.962439 
L 130.122776 52.068752 
L 130.66477 55.135208 
L 132.290752 62.834354 
L 133.374741 69.969416 
L 135.000724 78.484683 
L 135.542718 83.50143 
L 137.168701 94.513068 
L 140.420666 120.406922 
L 140.96266 123.797426 
L 141.504654 128.268091 
L 144.214626 145.130601 
L 144.75662 149.595265 
L 145.298614 152.433687 
L 146.382603 160.336864 
L 147.466591 166.433771 
L 148.008585 169.72226 
L 148.550579 172.188627 
L 150.718556 184.892518 
L 151.802545 191.877557 
L 152.886533 198.112485 
L 155.596504 211.056411 
L 157.764481 219.685695 
L 158.84847 223.82031 
L 159.390464 225.434551 
L 159.932458 227.624877 
L 161.016447 230.877361 
L 161.558441 232.929666 
L 162.100435 234.123844 
L 163.184424 237.628365 
L 163.726418 239.392628 
L 164.268412 240.68282 
L 165.352401 244.175339 
L 165.894395 245.11748 
L 166.436389 246.5997 
L 168.604366 250.56029 
L 169.688355 253.176679 
L 171.314337 256.531178 
L 171.856331 257.233283 
L 172.94032 259.255584 
L 174.024308 260.971839 
L 175.108297 262.32204 
L 175.650291 263.144162 
L 176.192285 263.564225 
L 178.360262 265.850565 
L 181.070233 268.460953 
L 182.696216 269.283076 
L 184.322199 270.267222 
L 185.406187 270.807303 
L 185.948182 271.287374 
L 186.490176 271.413393 
L 188.116158 272.367535 
L 188.658153 272.475551 
L 189.742141 272.925618 
L 192.994107 273.807749 
L 194.078095 274.047785 
L 195.162083 274.263817 
L 196.246072 274.389836 
L 197.33006 274.665877 
L 200.040032 275.055935 
L 201.666014 275.325975 
L 204.375985 275.69803 
L 206.543962 275.860054 
L 209.253934 276.058084 
L 243.941564 276.334125 
L 400.577898 276.334125 
L 400.577898 276.334125 
" style="fill:none;stroke:#f10800;stroke-linecap:round;stroke-width:1.5;"/>
   </g>
   <g id="patch_3">
    <path d="M 59.690625 288.430125 
L 59.690625 22.318125 
" style="fill:none;stroke:#cccccc;stroke-linecap:square;stroke-linejoin:miter;stroke-width:0.8;"/>
   </g>
   <g id="patch_4">
    <path d="M 416.810625 288.430125 
L 416.810625 22.318125 
" style="fill:none;stroke:#cccccc;stroke-linecap:square;stroke-linejoin:miter;stroke-width:0.8;"/>
   </g>
   <g id="patch_5">
    <path d="M 59.690625 288.430125 
L 416.810625 288.430125 
" style="fill:none;stroke:#cccccc;stroke-linecap:square;stroke-linejoin:miter;stroke-width:0.8;"/>
   </g>
   <g id="patch_6">
    <path d="M 59.690625 22.318125 
L 416.810625 22.318125 
" style="fill:none;stroke:#cccccc;stroke-linecap:square;stroke-linejoin:miter;stroke-width:0.8;"/>
   </g>
   <g id="text_19">
    <!-- Sars-Cov-2 -->
    <defs>
     <path d="M 53.515625 70.515625 
L 53.515625 60.890625 
Q 47.90625 63.578125 42.921875 64.890625 
Q 37.9375 66.21875 33.296875 66.21875 
Q 25.25 66.21875 20.875 63.09375 
Q 16.5 59.96875 16.5 54.203125 
Q 16.5 49.359375 19.40625 46.890625 
Q 22.3125 44.4375 30.421875 42.921875 
L 36.375 41.703125 
Q 47.40625 39.59375 52.65625 34.296875 
Q 57.90625 29 57.90625 20.125 
Q 57.90625 9.515625 50.796875 4.046875 
Q 43.703125 -1.421875 29.984375 -1.421875 
Q 24.8125 -1.421875 18.96875 -0.25 
Q 13.140625 0.921875 6.890625 3.21875 
L 6.890625 13.375 
Q 12.890625 10.015625 18.65625 8.296875 
Q 24.421875 6.59375 29.984375 6.59375 
Q 38.421875 6.59375 43.015625 9.90625 
Q 47.609375 13.234375 47.609375 19.390625 
Q 47.609375 24.75 44.3125 27.78125 
Q 41.015625 30.8125 33.5 32.328125 
L 27.484375 33.5 
Q 16.453125 35.6875 11.515625 40.375 
Q 6.59375 45.0625 6.59375 53.421875 
Q 6.59375 63.09375 13.40625 68.65625 
Q 20.21875 74.21875 32.171875 74.21875 
Q 37.3125 74.21875 42.625 73.28125 
Q 47.953125 72.359375 53.515625 70.515625 
z
" id="DejaVuSans-83"/>
     <path d="M 4.890625 31.390625 
L 31.203125 31.390625 
L 31.203125 23.390625 
L 4.890625 23.390625 
z
" id="DejaVuSans-45"/>
     <path d="M 64.40625 67.28125 
L 64.40625 56.890625 
Q 59.421875 61.53125 53.78125 63.8125 
Q 48.140625 66.109375 41.796875 66.109375 
Q 29.296875 66.109375 22.65625 58.46875 
Q 16.015625 50.828125 16.015625 36.375 
Q 16.015625 21.96875 22.65625 14.328125 
Q 29.296875 6.6875 41.796875 6.6875 
Q 48.140625 6.6875 53.78125 8.984375 
Q 59.421875 11.28125 64.40625 15.921875 
L 64.40625 5.609375 
Q 59.234375 2.09375 53.4375 0.328125 
Q 47.65625 -1.421875 41.21875 -1.421875 
Q 24.65625 -1.421875 15.125 8.703125 
Q 5.609375 18.84375 5.609375 36.375 
Q 5.609375 53.953125 15.125 64.078125 
Q 24.65625 74.21875 41.21875 74.21875 
Q 47.75 74.21875 53.53125 72.484375 
Q 59.328125 70.75 64.40625 67.28125 
z
" id="DejaVuSans-67"/>
     <path d="M 30.609375 48.390625 
Q 23.390625 48.390625 19.1875 42.75 
Q 14.984375 37.109375 14.984375 27.296875 
Q 14.984375 17.484375 19.15625 11.84375 
Q 23.34375 6.203125 30.609375 6.203125 
Q 37.796875 6.203125 41.984375 11.859375 
Q 46.1875 17.53125 46.1875 27.296875 
Q 46.1875 37.015625 41.984375 42.703125 
Q 37.796875 48.390625 30.609375 48.390625 
z
M 30.609375 56 
Q 42.328125 56 49.015625 48.375 
Q 55.71875 40.765625 55.71875 27.296875 
Q 55.71875 13.875 49.015625 6.21875 
Q 42.328125 -1.421875 30.609375 -1.421875 
Q 18.84375 -1.421875 12.171875 6.21875 
Q 5.515625 13.875 5.515625 27.296875 
Q 5.515625 40.765625 12.171875 48.375 
Q 18.84375 56 30.609375 56 
z
" id="DejaVuSans-111"/>
     <path d="M 2.984375 54.6875 
L 12.5 54.6875 
L 29.59375 8.796875 
L 46.6875 54.6875 
L 56.203125 54.6875 
L 35.6875 0 
L 23.484375 0 
z
" id="DejaVuSans-118"/>
    </defs>
    <g style="fill:#262626;" transform="translate(205.615313 16.318125)scale(0.12 -0.12)">
     <use xlink:href="#DejaVuSans-83"/>
     <use x="63.476562" xlink:href="#DejaVuSans-97"/>
     <use x="124.755859" xlink:href="#DejaVuSans-114"/>
     <use x="165.869141" xlink:href="#DejaVuSans-115"/>
     <use x="217.96875" xlink:href="#DejaVuSans-45"/>
     <use x="254.052734" xlink:href="#DejaVuSans-67"/>
     <use x="323.876953" xlink:href="#DejaVuSans-111"/>
     <use x="385.058594" xlink:href="#DejaVuSans-118"/>
     <use x="444.207031" xlink:href="#DejaVuSans-45"/>
     <use x="480.291016" xlink:href="#DejaVuSans-50"/>
    </g>
   </g>
  </g>
 </g>
 <defs>
  <clipPath id="p3176b4c490">
   <rect height="266.112" width="357.12" x="59.690625" y="22.318125"/>
  </clipPath>
 </defs>
</svg>
