<?xml version="1.0" encoding="utf-8" standalone="no"?>
<!DOCTYPE svg PUBLIC "-//W3C//DTD SVG 1.1//EN"
  "http://www.w3.org/Graphics/SVG/1.1/DTD/svg11.dtd">
<!-- Created with matplotlib (https://matplotlib.org/) -->
<svg height="325.986375pt" version="1.1" viewBox="0 0 436.735625 325.986375" width="436.735625pt" xmlns="http://www.w3.org/2000/svg" xmlns:xlink="http://www.w3.org/1999/xlink">
 <defs>
  <style type="text/css">
*{stroke-linecap:butt;stroke-linejoin:round;white-space:pre;}
  </style>
 </defs>
 <g id="figure_1">
  <g id="patch_1">
   <path d="M 0 325.986375 
L 436.735625 325.986375 
L 436.735625 0 
L 0 0 
z
" style="fill:#ffffff;"/>
  </g>
  <g id="axes_1">
   <g id="patch_2">
    <path d="M 72.415625 288.430125 
L 429.535625 288.430125 
L 429.535625 22.318125 
L 72.415625 22.318125 
z
" style="fill:#ffffff;"/>
   </g>
   <g id="matplotlib.axis_1">
    <g id="xtick_1">
     <g id="line2d_1">
      <path clip-path="url(#p76945eb514)" d="M 88.648352 288.430125 
L 88.648352 22.318125 
" style="fill:none;stroke:#cccccc;stroke-linecap:round;stroke-width:0.8;"/>
     </g>
     <g id="text_1">
      <!-- 0 -->
      <defs>
       <path d="M 31.78125 66.40625 
Q 24.171875 66.40625 20.328125 58.90625 
Q 16.5 51.421875 16.5 36.375 
Q 16.5 21.390625 20.328125 13.890625 
Q 24.171875 6.390625 31.78125 6.390625 
Q 39.453125 6.390625 43.28125 13.890625 
Q 47.125 21.390625 47.125 36.375 
Q 47.125 51.421875 43.28125 58.90625 
Q 39.453125 66.40625 31.78125 66.40625 
z
M 31.78125 74.21875 
Q 44.046875 74.21875 50.515625 64.515625 
Q 56.984375 54.828125 56.984375 36.375 
Q 56.984375 17.96875 50.515625 8.265625 
Q 44.046875 -1.421875 31.78125 -1.421875 
Q 19.53125 -1.421875 13.0625 8.265625 
Q 6.59375 17.96875 6.59375 36.375 
Q 6.59375 54.828125 13.0625 64.515625 
Q 19.53125 74.21875 31.78125 74.21875 
z
" id="DejaVuSans-48"/>
      </defs>
      <g style="fill:#262626;" transform="translate(85.467102 303.028562)scale(0.1 -0.1)">
       <use xlink:href="#DejaVuSans-48"/>
      </g>
     </g>
    </g>
    <g id="xtick_2">
     <g id="line2d_2">
      <path clip-path="url(#p76945eb514)" d="M 142.757443 288.430125 
L 142.757443 22.318125 
" style="fill:none;stroke:#cccccc;stroke-linecap:round;stroke-width:0.8;"/>
     </g>
     <g id="text_2">
      <!-- 10 -->
      <defs>
       <path d="M 12.40625 8.296875 
L 28.515625 8.296875 
L 28.515625 63.921875 
L 10.984375 60.40625 
L 10.984375 69.390625 
L 28.421875 72.90625 
L 38.28125 72.90625 
L 38.28125 8.296875 
L 54.390625 8.296875 
L 54.390625 0 
L 12.40625 0 
z
" id="DejaVuSans-49"/>
      </defs>
      <g style="fill:#262626;" transform="translate(136.394943 303.028562)scale(0.1 -0.1)">
       <use xlink:href="#DejaVuSans-49"/>
       <use x="63.623047" xlink:href="#DejaVuSans-48"/>
      </g>
     </g>
    </g>
    <g id="xtick_3">
     <g id="line2d_3">
      <path clip-path="url(#p76945eb514)" d="M 196.866534 288.430125 
L 196.866534 22.318125 
" style="fill:none;stroke:#cccccc;stroke-linecap:round;stroke-width:0.8;"/>
     </g>
     <g id="text_3">
      <!-- 20 -->
      <defs>
       <path d="M 19.1875 8.296875 
L 53.609375 8.296875 
L 53.609375 0 
L 7.328125 0 
L 7.328125 8.296875 
Q 12.9375 14.109375 22.625 23.890625 
Q 32.328125 33.6875 34.8125 36.53125 
Q 39.546875 41.84375 41.421875 45.53125 
Q 43.3125 49.21875 43.3125 52.78125 
Q 43.3125 58.59375 39.234375 62.25 
Q 35.15625 65.921875 28.609375 65.921875 
Q 23.96875 65.921875 18.8125 64.3125 
Q 13.671875 62.703125 7.8125 59.421875 
L 7.8125 69.390625 
Q 13.765625 71.78125 18.9375 73 
Q 24.125 74.21875 28.421875 74.21875 
Q 39.75 74.21875 46.484375 68.546875 
Q 53.21875 62.890625 53.21875 53.421875 
Q 53.21875 48.921875 51.53125 44.890625 
Q 49.859375 40.875 45.40625 35.40625 
Q 44.1875 33.984375 37.640625 27.21875 
Q 31.109375 20.453125 19.1875 8.296875 
z
" id="DejaVuSans-50"/>
      </defs>
      <g style="fill:#262626;" transform="translate(190.504034 303.028562)scale(0.1 -0.1)">
       <use xlink:href="#DejaVuSans-50"/>
       <use x="63.623047" xlink:href="#DejaVuSans-48"/>
      </g>
     </g>
    </g>
    <g id="xtick_4">
     <g id="line2d_4">
      <path clip-path="url(#p76945eb514)" d="M 250.975625 288.430125 
L 250.975625 22.318125 
" style="fill:none;stroke:#cccccc;stroke-linecap:round;stroke-width:0.8;"/>
     </g>
     <g id="text_4">
      <!-- 30 -->
      <defs>
       <path d="M 40.578125 39.3125 
Q 47.65625 37.796875 51.625 33 
Q 55.609375 28.21875 55.609375 21.1875 
Q 55.609375 10.40625 48.1875 4.484375 
Q 40.765625 -1.421875 27.09375 -1.421875 
Q 22.515625 -1.421875 17.65625 -0.515625 
Q 12.796875 0.390625 7.625 2.203125 
L 7.625 11.71875 
Q 11.71875 9.328125 16.59375 8.109375 
Q 21.484375 6.890625 26.8125 6.890625 
Q 36.078125 6.890625 40.9375 10.546875 
Q 45.796875 14.203125 45.796875 21.1875 
Q 45.796875 27.640625 41.28125 31.265625 
Q 36.765625 34.90625 28.71875 34.90625 
L 20.21875 34.90625 
L 20.21875 43.015625 
L 29.109375 43.015625 
Q 36.375 43.015625 40.234375 45.921875 
Q 44.09375 48.828125 44.09375 54.296875 
Q 44.09375 59.90625 40.109375 62.90625 
Q 36.140625 65.921875 28.71875 65.921875 
Q 24.65625 65.921875 20.015625 65.03125 
Q 15.375 64.15625 9.8125 62.3125 
L 9.8125 71.09375 
Q 15.4375 72.65625 20.34375 73.4375 
Q 25.25 74.21875 29.59375 74.21875 
Q 40.828125 74.21875 47.359375 69.109375 
Q 53.90625 64.015625 53.90625 55.328125 
Q 53.90625 49.265625 50.4375 45.09375 
Q 46.96875 40.921875 40.578125 39.3125 
z
" id="DejaVuSans-51"/>
      </defs>
      <g style="fill:#262626;" transform="translate(244.613125 303.028562)scale(0.1 -0.1)">
       <use xlink:href="#DejaVuSans-51"/>
       <use x="63.623047" xlink:href="#DejaVuSans-48"/>
      </g>
     </g>
    </g>
    <g id="xtick_5">
     <g id="line2d_5">
      <path clip-path="url(#p76945eb514)" d="M 305.084716 288.430125 
L 305.084716 22.318125 
" style="fill:none;stroke:#cccccc;stroke-linecap:round;stroke-width:0.8;"/>
     </g>
     <g id="text_5">
      <!-- 40 -->
      <defs>
       <path d="M 37.796875 64.3125 
L 12.890625 25.390625 
L 37.796875 25.390625 
z
M 35.203125 72.90625 
L 47.609375 72.90625 
L 47.609375 25.390625 
L 58.015625 25.390625 
L 58.015625 17.1875 
L 47.609375 17.1875 
L 47.609375 0 
L 37.796875 0 
L 37.796875 17.1875 
L 4.890625 17.1875 
L 4.890625 26.703125 
z
" id="DejaVuSans-52"/>
      </defs>
      <g style="fill:#262626;" transform="translate(298.722216 303.028562)scale(0.1 -0.1)">
       <use xlink:href="#DejaVuSans-52"/>
       <use x="63.623047" xlink:href="#DejaVuSans-48"/>
      </g>
     </g>
    </g>
    <g id="xtick_6">
     <g id="line2d_6">
      <path clip-path="url(#p76945eb514)" d="M 359.193807 288.430125 
L 359.193807 22.318125 
" style="fill:none;stroke:#cccccc;stroke-linecap:round;stroke-width:0.8;"/>
     </g>
     <g id="text_6">
      <!-- 50 -->
      <defs>
       <path d="M 10.796875 72.90625 
L 49.515625 72.90625 
L 49.515625 64.59375 
L 19.828125 64.59375 
L 19.828125 46.734375 
Q 21.96875 47.46875 24.109375 47.828125 
Q 26.265625 48.1875 28.421875 48.1875 
Q 40.625 48.1875 47.75 41.5 
Q 54.890625 34.8125 54.890625 23.390625 
Q 54.890625 11.625 47.5625 5.09375 
Q 40.234375 -1.421875 26.90625 -1.421875 
Q 22.3125 -1.421875 17.546875 -0.640625 
Q 12.796875 0.140625 7.71875 1.703125 
L 7.71875 11.625 
Q 12.109375 9.234375 16.796875 8.0625 
Q 21.484375 6.890625 26.703125 6.890625 
Q 35.15625 6.890625 40.078125 11.328125 
Q 45.015625 15.765625 45.015625 23.390625 
Q 45.015625 31 40.078125 35.4375 
Q 35.15625 39.890625 26.703125 39.890625 
Q 22.75 39.890625 18.8125 39.015625 
Q 14.890625 38.140625 10.796875 36.28125 
z
" id="DejaVuSans-53"/>
      </defs>
      <g style="fill:#262626;" transform="translate(352.831307 303.028562)scale(0.1 -0.1)">
       <use xlink:href="#DejaVuSans-53"/>
       <use x="63.623047" xlink:href="#DejaVuSans-48"/>
      </g>
     </g>
    </g>
    <g id="xtick_7">
     <g id="line2d_7">
      <path clip-path="url(#p76945eb514)" d="M 413.302898 288.430125 
L 413.302898 22.318125 
" style="fill:none;stroke:#cccccc;stroke-linecap:round;stroke-width:0.8;"/>
     </g>
     <g id="text_7">
      <!-- 60 -->
      <defs>
       <path d="M 33.015625 40.375 
Q 26.375 40.375 22.484375 35.828125 
Q 18.609375 31.296875 18.609375 23.390625 
Q 18.609375 15.53125 22.484375 10.953125 
Q 26.375 6.390625 33.015625 6.390625 
Q 39.65625 6.390625 43.53125 10.953125 
Q 47.40625 15.53125 47.40625 23.390625 
Q 47.40625 31.296875 43.53125 35.828125 
Q 39.65625 40.375 33.015625 40.375 
z
M 52.59375 71.296875 
L 52.59375 62.3125 
Q 48.875 64.0625 45.09375 64.984375 
Q 41.3125 65.921875 37.59375 65.921875 
Q 27.828125 65.921875 22.671875 59.328125 
Q 17.53125 52.734375 16.796875 39.40625 
Q 19.671875 43.65625 24.015625 45.921875 
Q 28.375 48.1875 33.59375 48.1875 
Q 44.578125 48.1875 50.953125 41.515625 
Q 57.328125 34.859375 57.328125 23.390625 
Q 57.328125 12.15625 50.6875 5.359375 
Q 44.046875 -1.421875 33.015625 -1.421875 
Q 20.359375 -1.421875 13.671875 8.265625 
Q 6.984375 17.96875 6.984375 36.375 
Q 6.984375 53.65625 15.1875 63.9375 
Q 23.390625 74.21875 37.203125 74.21875 
Q 40.921875 74.21875 44.703125 73.484375 
Q 48.484375 72.75 52.59375 71.296875 
z
" id="DejaVuSans-54"/>
      </defs>
      <g style="fill:#262626;" transform="translate(406.940398 303.028562)scale(0.1 -0.1)">
       <use xlink:href="#DejaVuSans-54"/>
       <use x="63.623047" xlink:href="#DejaVuSans-48"/>
      </g>
     </g>
    </g>
    <g id="text_8">
     <!-- time (days) -->
     <defs>
      <path d="M 18.3125 70.21875 
L 18.3125 54.6875 
L 36.8125 54.6875 
L 36.8125 47.703125 
L 18.3125 47.703125 
L 18.3125 18.015625 
Q 18.3125 11.328125 20.140625 9.421875 
Q 21.96875 7.515625 27.59375 7.515625 
L 36.8125 7.515625 
L 36.8125 0 
L 27.59375 0 
Q 17.1875 0 13.234375 3.875 
Q 9.28125 7.765625 9.28125 18.015625 
L 9.28125 47.703125 
L 2.6875 47.703125 
L 2.6875 54.6875 
L 9.28125 54.6875 
L 9.28125 70.21875 
z
" id="DejaVuSans-116"/>
      <path d="M 9.421875 54.6875 
L 18.40625 54.6875 
L 18.40625 0 
L 9.421875 0 
z
M 9.421875 75.984375 
L 18.40625 75.984375 
L 18.40625 64.59375 
L 9.421875 64.59375 
z
" id="DejaVuSans-105"/>
      <path d="M 52 44.1875 
Q 55.375 50.25 60.0625 53.125 
Q 64.75 56 71.09375 56 
Q 79.640625 56 84.28125 50.015625 
Q 88.921875 44.046875 88.921875 33.015625 
L 88.921875 0 
L 79.890625 0 
L 79.890625 32.71875 
Q 79.890625 40.578125 77.09375 44.375 
Q 74.3125 48.1875 68.609375 48.1875 
Q 61.625 48.1875 57.5625 43.546875 
Q 53.515625 38.921875 53.515625 30.90625 
L 53.515625 0 
L 44.484375 0 
L 44.484375 32.71875 
Q 44.484375 40.625 41.703125 44.40625 
Q 38.921875 48.1875 33.109375 48.1875 
Q 26.21875 48.1875 22.15625 43.53125 
Q 18.109375 38.875 18.109375 30.90625 
L 18.109375 0 
L 9.078125 0 
L 9.078125 54.6875 
L 18.109375 54.6875 
L 18.109375 46.1875 
Q 21.1875 51.21875 25.484375 53.609375 
Q 29.78125 56 35.6875 56 
Q 41.65625 56 45.828125 52.96875 
Q 50 49.953125 52 44.1875 
z
" id="DejaVuSans-109"/>
      <path d="M 56.203125 29.59375 
L 56.203125 25.203125 
L 14.890625 25.203125 
Q 15.484375 15.921875 20.484375 11.0625 
Q 25.484375 6.203125 34.421875 6.203125 
Q 39.59375 6.203125 44.453125 7.46875 
Q 49.3125 8.734375 54.109375 11.28125 
L 54.109375 2.78125 
Q 49.265625 0.734375 44.1875 -0.34375 
Q 39.109375 -1.421875 33.890625 -1.421875 
Q 20.796875 -1.421875 13.15625 6.1875 
Q 5.515625 13.8125 5.515625 26.8125 
Q 5.515625 40.234375 12.765625 48.109375 
Q 20.015625 56 32.328125 56 
Q 43.359375 56 49.78125 48.890625 
Q 56.203125 41.796875 56.203125 29.59375 
z
M 47.21875 32.234375 
Q 47.125 39.59375 43.09375 43.984375 
Q 39.0625 48.390625 32.421875 48.390625 
Q 24.90625 48.390625 20.390625 44.140625 
Q 15.875 39.890625 15.1875 32.171875 
z
" id="DejaVuSans-101"/>
      <path id="DejaVuSans-32"/>
      <path d="M 31 75.875 
Q 24.46875 64.65625 21.28125 53.65625 
Q 18.109375 42.671875 18.109375 31.390625 
Q 18.109375 20.125 21.3125 9.0625 
Q 24.515625 -2 31 -13.1875 
L 23.1875 -13.1875 
Q 15.875 -1.703125 12.234375 9.375 
Q 8.59375 20.453125 8.59375 31.390625 
Q 8.59375 42.28125 12.203125 53.3125 
Q 15.828125 64.359375 23.1875 75.875 
z
" id="DejaVuSans-40"/>
      <path d="M 45.40625 46.390625 
L 45.40625 75.984375 
L 54.390625 75.984375 
L 54.390625 0 
L 45.40625 0 
L 45.40625 8.203125 
Q 42.578125 3.328125 38.25 0.953125 
Q 33.9375 -1.421875 27.875 -1.421875 
Q 17.96875 -1.421875 11.734375 6.484375 
Q 5.515625 14.40625 5.515625 27.296875 
Q 5.515625 40.1875 11.734375 48.09375 
Q 17.96875 56 27.875 56 
Q 33.9375 56 38.25 53.625 
Q 42.578125 51.265625 45.40625 46.390625 
z
M 14.796875 27.296875 
Q 14.796875 17.390625 18.875 11.75 
Q 22.953125 6.109375 30.078125 6.109375 
Q 37.203125 6.109375 41.296875 11.75 
Q 45.40625 17.390625 45.40625 27.296875 
Q 45.40625 37.203125 41.296875 42.84375 
Q 37.203125 48.484375 30.078125 48.484375 
Q 22.953125 48.484375 18.875 42.84375 
Q 14.796875 37.203125 14.796875 27.296875 
z
" id="DejaVuSans-100"/>
      <path d="M 34.28125 27.484375 
Q 23.390625 27.484375 19.1875 25 
Q 14.984375 22.515625 14.984375 16.5 
Q 14.984375 11.71875 18.140625 8.90625 
Q 21.296875 6.109375 26.703125 6.109375 
Q 34.1875 6.109375 38.703125 11.40625 
Q 43.21875 16.703125 43.21875 25.484375 
L 43.21875 27.484375 
z
M 52.203125 31.203125 
L 52.203125 0 
L 43.21875 0 
L 43.21875 8.296875 
Q 40.140625 3.328125 35.546875 0.953125 
Q 30.953125 -1.421875 24.3125 -1.421875 
Q 15.921875 -1.421875 10.953125 3.296875 
Q 6 8.015625 6 15.921875 
Q 6 25.140625 12.171875 29.828125 
Q 18.359375 34.515625 30.609375 34.515625 
L 43.21875 34.515625 
L 43.21875 35.40625 
Q 43.21875 41.609375 39.140625 45 
Q 35.0625 48.390625 27.6875 48.390625 
Q 23 48.390625 18.546875 47.265625 
Q 14.109375 46.140625 10.015625 43.890625 
L 10.015625 52.203125 
Q 14.9375 54.109375 19.578125 55.046875 
Q 24.21875 56 28.609375 56 
Q 40.484375 56 46.34375 49.84375 
Q 52.203125 43.703125 52.203125 31.203125 
z
" id="DejaVuSans-97"/>
      <path d="M 32.171875 -5.078125 
Q 28.375 -14.84375 24.75 -17.8125 
Q 21.140625 -20.796875 15.09375 -20.796875 
L 7.90625 -20.796875 
L 7.90625 -13.28125 
L 13.1875 -13.28125 
Q 16.890625 -13.28125 18.9375 -11.515625 
Q 21 -9.765625 23.484375 -3.21875 
L 25.09375 0.875 
L 2.984375 54.6875 
L 12.5 54.6875 
L 29.59375 11.921875 
L 46.6875 54.6875 
L 56.203125 54.6875 
z
" id="DejaVuSans-121"/>
      <path d="M 44.28125 53.078125 
L 44.28125 44.578125 
Q 40.484375 46.53125 36.375 47.5 
Q 32.28125 48.484375 27.875 48.484375 
Q 21.1875 48.484375 17.84375 46.4375 
Q 14.5 44.390625 14.5 40.28125 
Q 14.5 37.15625 16.890625 35.375 
Q 19.28125 33.59375 26.515625 31.984375 
L 29.59375 31.296875 
Q 39.15625 29.25 43.1875 25.515625 
Q 47.21875 21.78125 47.21875 15.09375 
Q 47.21875 7.46875 41.1875 3.015625 
Q 35.15625 -1.421875 24.609375 -1.421875 
Q 20.21875 -1.421875 15.453125 -0.5625 
Q 10.6875 0.296875 5.421875 2 
L 5.421875 11.28125 
Q 10.40625 8.6875 15.234375 7.390625 
Q 20.0625 6.109375 24.8125 6.109375 
Q 31.15625 6.109375 34.5625 8.28125 
Q 37.984375 10.453125 37.984375 14.40625 
Q 37.984375 18.0625 35.515625 20.015625 
Q 33.0625 21.96875 24.703125 23.78125 
L 21.578125 24.515625 
Q 13.234375 26.265625 9.515625 29.90625 
Q 5.8125 33.546875 5.8125 39.890625 
Q 5.8125 47.609375 11.28125 51.796875 
Q 16.75 56 26.8125 56 
Q 31.78125 56 36.171875 55.265625 
Q 40.578125 54.546875 44.28125 53.078125 
z
" id="DejaVuSans-115"/>
      <path d="M 8.015625 75.875 
L 15.828125 75.875 
Q 23.140625 64.359375 26.78125 53.3125 
Q 30.421875 42.28125 30.421875 31.390625 
Q 30.421875 20.453125 26.78125 9.375 
Q 23.140625 -1.703125 15.828125 -13.1875 
L 8.015625 -13.1875 
Q 14.5 -2 17.703125 9.0625 
Q 20.90625 20.125 20.90625 31.390625 
Q 20.90625 42.671875 17.703125 53.65625 
Q 14.5 64.65625 8.015625 75.875 
z
" id="DejaVuSans-41"/>
     </defs>
     <g style="fill:#262626;" transform="translate(222.386562 316.706687)scale(0.1 -0.1)">
      <use xlink:href="#DejaVuSans-116"/>
      <use x="39.208984" xlink:href="#DejaVuSans-105"/>
      <use x="66.992188" xlink:href="#DejaVuSans-109"/>
      <use x="164.404297" xlink:href="#DejaVuSans-101"/>
      <use x="225.927734" xlink:href="#DejaVuSans-32"/>
      <use x="257.714844" xlink:href="#DejaVuSans-40"/>
      <use x="296.728516" xlink:href="#DejaVuSans-100"/>
      <use x="360.205078" xlink:href="#DejaVuSans-97"/>
      <use x="421.484375" xlink:href="#DejaVuSans-121"/>
      <use x="480.664062" xlink:href="#DejaVuSans-115"/>
      <use x="532.763672" xlink:href="#DejaVuSans-41"/>
     </g>
    </g>
   </g>
   <g id="matplotlib.axis_2">
    <g id="ytick_1">
     <g id="line2d_8">
      <path clip-path="url(#p76945eb514)" d="M 72.415625 278.412749 
L 429.535625 278.412749 
" style="fill:none;stroke:#cccccc;stroke-linecap:round;stroke-width:0.8;"/>
     </g>
     <g id="text_9">
      <!-- 0 -->
      <g style="fill:#262626;" transform="translate(59.053125 282.211968)scale(0.1 -0.1)">
       <use xlink:href="#DejaVuSans-48"/>
      </g>
     </g>
    </g>
    <g id="ytick_2">
     <g id="line2d_9">
      <path clip-path="url(#p76945eb514)" d="M 72.415625 229.613024 
L 429.535625 229.613024 
" style="fill:none;stroke:#cccccc;stroke-linecap:round;stroke-width:0.8;"/>
     </g>
     <g id="text_10">
      <!-- 200000 -->
      <g style="fill:#262626;" transform="translate(27.240625 233.412243)scale(0.1 -0.1)">
       <use xlink:href="#DejaVuSans-50"/>
       <use x="63.623047" xlink:href="#DejaVuSans-48"/>
       <use x="127.246094" xlink:href="#DejaVuSans-48"/>
       <use x="190.869141" xlink:href="#DejaVuSans-48"/>
       <use x="254.492188" xlink:href="#DejaVuSans-48"/>
       <use x="318.115234" xlink:href="#DejaVuSans-48"/>
      </g>
     </g>
    </g>
    <g id="ytick_3">
     <g id="line2d_10">
      <path clip-path="url(#p76945eb514)" d="M 72.415625 180.8133 
L 429.535625 180.8133 
" style="fill:none;stroke:#cccccc;stroke-linecap:round;stroke-width:0.8;"/>
     </g>
     <g id="text_11">
      <!-- 400000 -->
      <g style="fill:#262626;" transform="translate(27.240625 184.612518)scale(0.1 -0.1)">
       <use xlink:href="#DejaVuSans-52"/>
       <use x="63.623047" xlink:href="#DejaVuSans-48"/>
       <use x="127.246094" xlink:href="#DejaVuSans-48"/>
       <use x="190.869141" xlink:href="#DejaVuSans-48"/>
       <use x="254.492188" xlink:href="#DejaVuSans-48"/>
       <use x="318.115234" xlink:href="#DejaVuSans-48"/>
      </g>
     </g>
    </g>
    <g id="ytick_4">
     <g id="line2d_11">
      <path clip-path="url(#p76945eb514)" d="M 72.415625 132.013575 
L 429.535625 132.013575 
" style="fill:none;stroke:#cccccc;stroke-linecap:round;stroke-width:0.8;"/>
     </g>
     <g id="text_12">
      <!-- 600000 -->
      <g style="fill:#262626;" transform="translate(27.240625 135.812793)scale(0.1 -0.1)">
       <use xlink:href="#DejaVuSans-54"/>
       <use x="63.623047" xlink:href="#DejaVuSans-48"/>
       <use x="127.246094" xlink:href="#DejaVuSans-48"/>
       <use x="190.869141" xlink:href="#DejaVuSans-48"/>
       <use x="254.492188" xlink:href="#DejaVuSans-48"/>
       <use x="318.115234" xlink:href="#DejaVuSans-48"/>
      </g>
     </g>
    </g>
    <g id="ytick_5">
     <g id="line2d_12">
      <path clip-path="url(#p76945eb514)" d="M 72.415625 83.21385 
L 429.535625 83.21385 
" style="fill:none;stroke:#cccccc;stroke-linecap:round;stroke-width:0.8;"/>
     </g>
     <g id="text_13">
      <!-- 800000 -->
      <defs>
       <path d="M 31.78125 34.625 
Q 24.75 34.625 20.71875 30.859375 
Q 16.703125 27.09375 16.703125 20.515625 
Q 16.703125 13.921875 20.71875 10.15625 
Q 24.75 6.390625 31.78125 6.390625 
Q 38.8125 6.390625 42.859375 10.171875 
Q 46.921875 13.96875 46.921875 20.515625 
Q 46.921875 27.09375 42.890625 30.859375 
Q 38.875 34.625 31.78125 34.625 
z
M 21.921875 38.8125 
Q 15.578125 40.375 12.03125 44.71875 
Q 8.5 49.078125 8.5 55.328125 
Q 8.5 64.0625 14.71875 69.140625 
Q 20.953125 74.21875 31.78125 74.21875 
Q 42.671875 74.21875 48.875 69.140625 
Q 55.078125 64.0625 55.078125 55.328125 
Q 55.078125 49.078125 51.53125 44.71875 
Q 48 40.375 41.703125 38.8125 
Q 48.828125 37.15625 52.796875 32.3125 
Q 56.78125 27.484375 56.78125 20.515625 
Q 56.78125 9.90625 50.3125 4.234375 
Q 43.84375 -1.421875 31.78125 -1.421875 
Q 19.734375 -1.421875 13.25 4.234375 
Q 6.78125 9.90625 6.78125 20.515625 
Q 6.78125 27.484375 10.78125 32.3125 
Q 14.796875 37.15625 21.921875 38.8125 
z
M 18.3125 54.390625 
Q 18.3125 48.734375 21.84375 45.5625 
Q 25.390625 42.390625 31.78125 42.390625 
Q 38.140625 42.390625 41.71875 45.5625 
Q 45.3125 48.734375 45.3125 54.390625 
Q 45.3125 60.0625 41.71875 63.234375 
Q 38.140625 66.40625 31.78125 66.40625 
Q 25.390625 66.40625 21.84375 63.234375 
Q 18.3125 60.0625 18.3125 54.390625 
z
" id="DejaVuSans-56"/>
      </defs>
      <g style="fill:#262626;" transform="translate(27.240625 87.013069)scale(0.1 -0.1)">
       <use xlink:href="#DejaVuSans-56"/>
       <use x="63.623047" xlink:href="#DejaVuSans-48"/>
       <use x="127.246094" xlink:href="#DejaVuSans-48"/>
       <use x="190.869141" xlink:href="#DejaVuSans-48"/>
       <use x="254.492188" xlink:href="#DejaVuSans-48"/>
       <use x="318.115234" xlink:href="#DejaVuSans-48"/>
      </g>
     </g>
    </g>
    <g id="ytick_6">
     <g id="line2d_13">
      <path clip-path="url(#p76945eb514)" d="M 72.415625 34.414125 
L 429.535625 34.414125 
" style="fill:none;stroke:#cccccc;stroke-linecap:round;stroke-width:0.8;"/>
     </g>
     <g id="text_14">
      <!-- 1000000 -->
      <g style="fill:#262626;" transform="translate(20.878125 38.213344)scale(0.1 -0.1)">
       <use xlink:href="#DejaVuSans-49"/>
       <use x="63.623047" xlink:href="#DejaVuSans-48"/>
       <use x="127.246094" xlink:href="#DejaVuSans-48"/>
       <use x="190.869141" xlink:href="#DejaVuSans-48"/>
       <use x="254.492188" xlink:href="#DejaVuSans-48"/>
       <use x="318.115234" xlink:href="#DejaVuSans-48"/>
       <use x="381.738281" xlink:href="#DejaVuSans-48"/>
      </g>
     </g>
    </g>
    <g id="text_15">
     <!-- cells number -->
     <defs>
      <path d="M 48.78125 52.59375 
L 48.78125 44.1875 
Q 44.96875 46.296875 41.140625 47.34375 
Q 37.3125 48.390625 33.40625 48.390625 
Q 24.65625 48.390625 19.8125 42.84375 
Q 14.984375 37.3125 14.984375 27.296875 
Q 14.984375 17.28125 19.8125 11.734375 
Q 24.65625 6.203125 33.40625 6.203125 
Q 37.3125 6.203125 41.140625 7.25 
Q 44.96875 8.296875 48.78125 10.40625 
L 48.78125 2.09375 
Q 45.015625 0.34375 40.984375 -0.53125 
Q 36.96875 -1.421875 32.421875 -1.421875 
Q 20.0625 -1.421875 12.78125 6.34375 
Q 5.515625 14.109375 5.515625 27.296875 
Q 5.515625 40.671875 12.859375 48.328125 
Q 20.21875 56 33.015625 56 
Q 37.15625 56 41.109375 55.140625 
Q 45.0625 54.296875 48.78125 52.59375 
z
" id="DejaVuSans-99"/>
      <path d="M 9.421875 75.984375 
L 18.40625 75.984375 
L 18.40625 0 
L 9.421875 0 
z
" id="DejaVuSans-108"/>
      <path d="M 54.890625 33.015625 
L 54.890625 0 
L 45.90625 0 
L 45.90625 32.71875 
Q 45.90625 40.484375 42.875 44.328125 
Q 39.84375 48.1875 33.796875 48.1875 
Q 26.515625 48.1875 22.3125 43.546875 
Q 18.109375 38.921875 18.109375 30.90625 
L 18.109375 0 
L 9.078125 0 
L 9.078125 54.6875 
L 18.109375 54.6875 
L 18.109375 46.1875 
Q 21.34375 51.125 25.703125 53.5625 
Q 30.078125 56 35.796875 56 
Q 45.21875 56 50.046875 50.171875 
Q 54.890625 44.34375 54.890625 33.015625 
z
" id="DejaVuSans-110"/>
      <path d="M 8.5 21.578125 
L 8.5 54.6875 
L 17.484375 54.6875 
L 17.484375 21.921875 
Q 17.484375 14.15625 20.5 10.265625 
Q 23.53125 6.390625 29.59375 6.390625 
Q 36.859375 6.390625 41.078125 11.03125 
Q 45.3125 15.671875 45.3125 23.6875 
L 45.3125 54.6875 
L 54.296875 54.6875 
L 54.296875 0 
L 45.3125 0 
L 45.3125 8.40625 
Q 42.046875 3.421875 37.71875 1 
Q 33.40625 -1.421875 27.6875 -1.421875 
Q 18.265625 -1.421875 13.375 4.4375 
Q 8.5 10.296875 8.5 21.578125 
z
M 31.109375 56 
z
" id="DejaVuSans-117"/>
      <path d="M 48.6875 27.296875 
Q 48.6875 37.203125 44.609375 42.84375 
Q 40.53125 48.484375 33.40625 48.484375 
Q 26.265625 48.484375 22.1875 42.84375 
Q 18.109375 37.203125 18.109375 27.296875 
Q 18.109375 17.390625 22.1875 11.75 
Q 26.265625 6.109375 33.40625 6.109375 
Q 40.53125 6.109375 44.609375 11.75 
Q 48.6875 17.390625 48.6875 27.296875 
z
M 18.109375 46.390625 
Q 20.953125 51.265625 25.265625 53.625 
Q 29.59375 56 35.59375 56 
Q 45.5625 56 51.78125 48.09375 
Q 58.015625 40.1875 58.015625 27.296875 
Q 58.015625 14.40625 51.78125 6.484375 
Q 45.5625 -1.421875 35.59375 -1.421875 
Q 29.59375 -1.421875 25.265625 0.953125 
Q 20.953125 3.328125 18.109375 8.203125 
L 18.109375 0 
L 9.078125 0 
L 9.078125 75.984375 
L 18.109375 75.984375 
z
" id="DejaVuSans-98"/>
      <path d="M 41.109375 46.296875 
Q 39.59375 47.171875 37.8125 47.578125 
Q 36.03125 48 33.890625 48 
Q 26.265625 48 22.1875 43.046875 
Q 18.109375 38.09375 18.109375 28.8125 
L 18.109375 0 
L 9.078125 0 
L 9.078125 54.6875 
L 18.109375 54.6875 
L 18.109375 46.1875 
Q 20.953125 51.171875 25.484375 53.578125 
Q 30.03125 56 36.53125 56 
Q 37.453125 56 38.578125 55.875 
Q 39.703125 55.765625 41.0625 55.515625 
z
" id="DejaVuSans-114"/>
     </defs>
     <g style="fill:#262626;" transform="translate(14.798438 187.685844)rotate(-90)scale(0.1 -0.1)">
      <use xlink:href="#DejaVuSans-99"/>
      <use x="54.980469" xlink:href="#DejaVuSans-101"/>
      <use x="116.503906" xlink:href="#DejaVuSans-108"/>
      <use x="144.287109" xlink:href="#DejaVuSans-108"/>
      <use x="172.070312" xlink:href="#DejaVuSans-115"/>
      <use x="224.169922" xlink:href="#DejaVuSans-32"/>
      <use x="255.957031" xlink:href="#DejaVuSans-110"/>
      <use x="319.335938" xlink:href="#DejaVuSans-117"/>
      <use x="382.714844" xlink:href="#DejaVuSans-109"/>
      <use x="480.126953" xlink:href="#DejaVuSans-98"/>
      <use x="543.603516" xlink:href="#DejaVuSans-101"/>
      <use x="605.126953" xlink:href="#DejaVuSans-114"/>
     </g>
    </g>
   </g>
   <g id="line2d_14">
    <path clip-path="url(#p76945eb514)" d="M 88.648352 34.414125 
L 90.271625 63.611976 
L 91.894898 89.552934 
L 93.51817 112.457329 
L 95.141443 132.540124 
L 96.764716 150.194644 
L 98.387989 165.669525 
L 100.011261 179.147521 
L 101.634534 190.97023 
L 103.257807 201.184989 
L 104.88108 209.991631 
L 106.504352 217.643428 
L 108.127625 224.197963 
L 109.750898 229.774796 
L 111.37417 234.504465 
L 112.456352 237.265797 
L 114.079625 240.625902 
L 115.702898 243.362347 
L 117.867261 246.476745 
L 118.949443 247.81337 
L 121.113807 250.235056 
L 123.27817 252.510831 
L 126.524716 255.21214 
L 128.147989 256.23547 
L 129.23017 256.695408 
L 131.394534 257.43204 
L 133.558898 258.203807 
L 135.723261 259.187122 
L 144.380716 263.417326 
L 150.332716 265.517178 
L 154.120352 267.001422 
L 157.366898 268.159439 
L 161.154534 269.243769 
L 166.024352 270.206344 
L 170.35308 270.871728 
L 174.681807 271.372413 
L 177.928352 271.563952 
L 186.044716 271.794531 
L 194.16108 272.278868 
L 197.948716 272.807125 
L 200.11308 273.094799 
L 207.688352 273.614028 
L 212.55817 273.672344 
L 228.249807 273.728952 
L 239.071625 273.511305 
L 247.187989 273.206795 
L 254.22217 273.139695 
L 272.07817 273.097727 
L 284.523261 272.360363 
L 288.851989 272.364511 
L 294.803989 272.409895 
L 298.591625 272.087329 
L 301.29708 271.885542 
L 306.707989 271.531256 
L 313.74217 271.23431 
L 322.399625 271.209178 
L 333.221443 270.53379 
L 344.043261 269.375528 
L 352.159625 268.524217 
L 364.063625 267.248836 
L 413.302898 262.024094 
L 413.302898 262.024094 
" style="fill:none;stroke:#000080;stroke-linecap:round;stroke-width:1.5;"/>
   </g>
   <g id="line2d_15">
    <path clip-path="url(#p76945eb514)" d="M 88.648352 34.414125 
L 90.271625 63.67566 
L 91.894898 89.707629 
L 93.51817 112.526625 
L 95.141443 132.691403 
L 96.764716 150.328599 
L 98.387989 165.844228 
L 100.011261 179.371268 
L 101.634534 191.108334 
L 103.257807 201.386044 
L 104.88108 210.302973 
L 106.504352 218.036998 
L 108.127625 224.730856 
L 109.750898 230.393576 
L 111.37417 235.296484 
L 113.538534 240.69471 
L 115.702898 245.160373 
L 117.32617 247.915361 
L 118.949443 250.336072 
L 120.572716 252.328808 
L 122.73708 254.676319 
L 125.442534 257.013338 
L 127.065807 258.091324 
L 131.394534 260.58499 
L 134.64108 261.816451 
L 137.346534 262.612374 
L 138.969807 262.957144 
L 149.791625 264.660255 
L 153.03817 265.099452 
L 159.531261 266.29651 
L 170.35308 268.757968 
L 174.140716 269.127626 
L 184.421443 270.019685 
L 192.537807 271.079371 
L 196.866534 271.510516 
L 202.277443 271.676435 
L 209.852716 271.623244 
L 217.427989 271.793067 
L 225.544352 272.19786 
L 231.496352 272.831525 
L 235.283989 273.065031 
L 240.153807 273.175563 
L 255.304352 272.977436 
L 259.63308 272.806149 
L 270.995989 272.793949 
L 276.947989 272.782969 
L 291.557443 272.222016 
L 295.88617 272.153453 
L 305.625807 272.23812 
L 314.283261 272.411603 
L 320.776352 272.287652 
L 329.974898 271.793555 
L 344.584352 271.96899 
L 347.830898 271.706935 
L 354.86508 271.050091 
L 360.81708 270.423258 
L 397.07017 266.513668 
L 402.48108 265.918068 
L 413.302898 264.76493 
L 413.302898 264.76493 
" style="fill:none;stroke:#0000f1;stroke-linecap:round;stroke-width:1.5;"/>
   </g>
   <g id="line2d_16">
    <path clip-path="url(#p76945eb514)" d="M 88.648352 34.414125 
L 90.271625 63.616612 
L 91.894898 89.521946 
L 93.51817 112.469041 
L 95.141443 132.661391 
L 96.764716 150.181468 
L 98.387989 165.596813 
L 100.011261 179.097745 
L 101.634534 190.847743 
L 103.257807 201.135701 
L 104.88108 210.035795 
L 106.504352 217.739319 
L 108.127625 224.336066 
L 109.750898 230.022698 
L 111.37417 234.830691 
L 112.997443 238.85496 
L 114.620716 242.333893 
L 116.243989 245.425111 
L 118.408352 248.989687 
L 120.031625 251.163959 
L 121.654898 253.003953 
L 123.27817 254.43476 
L 126.524716 256.562672 
L 129.23017 257.992992 
L 131.394534 258.910427 
L 137.346534 261.757647 
L 139.510898 262.527219 
L 142.216352 263.408298 
L 144.380716 264.193241 
L 147.627261 265.133368 
L 152.49708 266.387033 
L 155.743625 266.887474 
L 157.907989 267.065593 
L 166.024352 267.487223 
L 172.517443 268.230687 
L 179.010534 269.366012 
L 182.25708 269.934529 
L 188.20908 270.614309 
L 191.996716 270.842448 
L 196.866534 270.957859 
L 204.441807 271.629588 
L 213.099261 272.187124 
L 216.886898 271.995585 
L 227.708716 270.962495 
L 245.023625 269.083706 
L 248.811261 268.662076 
L 259.63308 267.486247 
L 326.187261 260.362463 
L 413.302898 251.419913 
L 413.302898 251.419913 
" style="fill:none;stroke:#004cff;stroke-linecap:round;stroke-width:1.5;"/>
   </g>
   <g id="line2d_17">
    <path clip-path="url(#p76945eb514)" d="M 88.648352 34.414125 
L 90.271625 63.774479 
L 91.894898 89.829629 
L 93.51817 112.677172 
L 95.141443 132.826334 
L 96.764716 150.448647 
L 98.387989 165.914012 
L 100.011261 179.244876 
L 101.634534 190.871411 
L 103.257807 200.933426 
L 104.88108 209.641493 
L 106.504352 217.110535 
L 108.127625 223.543559 
L 109.750898 229.016936 
L 111.37417 233.749289 
L 112.997443 237.798934 
L 115.161807 242.372444 
L 116.243989 244.354689 
L 117.867261 246.812243 
L 119.490534 248.665901 
L 121.113807 250.380479 
L 124.901443 253.581985 
L 126.524716 254.658751 
L 133.017807 258.313607 
L 134.64108 259.061462 
L 136.264352 259.540188 
L 141.13417 260.436639 
L 156.284716 261.678592 
L 158.99017 261.730807 
L 164.40108 261.437765 
L 280.735625 249.631648 
L 288.851989 248.839384 
L 309.413443 246.795896 
L 382.460716 239.707248 
L 391.659261 238.822996 
L 413.302898 236.775848 
L 413.302898 236.775848 
" style="fill:none;stroke:#00b0ff;stroke-linecap:round;stroke-width:1.5;"/>
   </g>
   <g id="line2d_18">
    <path clip-path="url(#p76945eb514)" d="M 88.648352 34.414125 
L 90.271625 63.633692 
L 91.894898 89.678105 
L 93.51817 112.625932 
L 95.141443 132.654071 
L 96.764716 150.345679 
L 98.387989 165.796404 
L 100.011261 179.249024 
L 101.634534 190.939242 
L 103.257807 201.085193 
L 104.88108 209.858652 
L 106.504352 217.375029 
L 108.127625 223.737782 
L 109.750898 229.158699 
L 110.83308 232.224054 
L 112.456352 236.084112 
L 114.079625 239.380289 
L 115.161807 241.296411 
L 117.32617 244.151926 
L 121.113807 248.462894 
L 125.983625 253.452422 
L 131.935625 258.252363 
L 134.099989 259.615095 
L 137.887625 261.482173 
L 141.675261 262.908345 
L 150.873807 265.445442 
L 154.120352 266.015179 
L 161.154534 266.523672 
L 168.729807 266.861366 
L 187.667989 269.273293 
L 197.407625 270.149736 
L 200.11308 270.527934 
L 207.147261 271.683999 
L 214.181443 272.048777 
L 221.756716 272.265692 
L 225.544352 272.3101 
L 230.41417 272.372807 
L 239.071625 272.426731 
L 246.646898 272.595822 
L 258.009807 273.37247 
L 265.043989 273.634036 
L 269.372716 273.506181 
L 276.406898 273.048928 
L 280.194534 272.781505 
L 288.310898 272.3406 
L 291.557443 272.414287 
L 300.214898 272.58289 
L 314.824352 272.404283 
L 320.776352 271.949226 
L 331.59817 270.789988 
L 400.316716 263.334122 
L 411.679625 262.158781 
L 413.302898 261.99213 
L 413.302898 261.99213 
" style="fill:none;stroke:#29ffce;stroke-linecap:round;stroke-width:1.5;"/>
   </g>
   <g id="line2d_19">
    <path clip-path="url(#p76945eb514)" d="M 88.648352 34.414125 
L 90.271625 63.67444 
L 91.894898 89.709093 
L 93.51817 112.575668 
L 95.141443 132.652607 
L 96.764716 150.314204 
L 98.387989 165.807384 
L 100.011261 179.34272 
L 101.634534 191.070514 
L 103.257807 201.406539 
L 104.88108 210.328349 
L 106.504352 218.029434 
L 108.127625 224.592265 
L 109.750898 230.265477 
L 111.37417 235.178877 
L 112.997443 239.184358 
L 114.079625 241.47697 
L 115.702898 244.344197 
L 117.867261 247.528867 
L 120.031625 250.23408 
L 121.654898 251.95793 
L 123.27817 253.508542 
L 124.901443 254.726095 
L 126.524716 255.687937 
L 130.312352 257.903689 
L 137.887625 262.768289 
L 140.051989 263.785764 
L 150.332716 268.135771 
L 154.120352 269.431648 
L 157.907989 270.376167 
L 161.695625 271.038379 
L 165.483261 271.536868 
L 169.811989 272.073909 
L 181.715989 273.853879 
L 184.421443 274.138137 
L 192.537807 274.644435 
L 204.982898 275.055328 
L 223.92108 275.431574 
L 246.105807 275.521854 
L 260.715261 275.352763 
L 267.208352 275.393998 
L 276.947989 275.301767 
L 282.899989 275.07192 
L 300.214898 274.76497 
L 304.543625 274.726906 
L 308.331261 274.597343 
L 314.283261 274.33236 
L 319.15308 274.325284 
L 322.399625 274.291613 
L 327.269443 274.058106 
L 332.680352 273.862907 
L 340.796716 273.73554 
L 343.50217 273.701136 
L 356.488352 272.597774 
L 374.885443 270.597229 
L 393.282534 268.609373 
L 413.302898 266.469993 
L 413.302898 266.469993 
" style="fill:none;stroke:#7dff7a;stroke-linecap:round;stroke-width:1.5;"/>
   </g>
   <g id="line2d_20">
    <path clip-path="url(#p76945eb514)" d="M 88.648352 34.414125 
L 90.271625 63.567813 
L 91.894898 89.550494 
L 93.51817 112.516133 
L 95.141443 132.517432 
L 96.764716 150.157556 
L 98.387989 165.621945 
L 100.011261 179.177533 
L 101.634534 190.896055 
L 103.257807 201.100809 
L 104.88108 209.957227 
L 106.504352 217.571204 
L 108.127625 224.154043 
L 109.750898 229.731364 
L 111.37417 234.448589 
L 112.997443 238.463831 
L 114.620716 241.79612 
L 116.243989 244.727519 
L 117.867261 247.353188 
L 119.490534 249.393261 
L 121.113807 251.097835 
L 122.73708 252.484723 
L 130.312352 258.516369 
L 135.723261 261.600024 
L 138.428716 262.896633 
L 140.051989 263.628873 
L 141.675261 264.129558 
L 144.921807 264.738334 
L 150.873807 265.590134 
L 153.579261 266.256006 
L 158.44908 267.464775 
L 171.976352 270.458394 
L 177.387261 271.424141 
L 185.503625 272.61339 
L 190.914534 273.336602 
L 195.243261 273.849731 
L 199.571989 274.09129 
L 214.181443 274.290393 
L 227.708716 275.214415 
L 235.283989 275.666301 
L 245.023625 275.924695 
L 273.701443 276.007899 
L 287.769807 276.202854 
L 314.283261 276.319729 
L 338.632352 275.874432 
L 342.96108 275.769756 
L 360.275989 275.370574 
L 365.145807 275.269803 
L 373.803261 274.902341 
L 384.62508 274.67347 
L 392.741443 274.45314 
L 398.693443 274.105198 
L 403.563261 274.042734 
L 410.597443 273.99735 
L 413.302898 273.760916 
L 413.302898 273.760916 
" style="fill:none;stroke:#ceff29;stroke-linecap:round;stroke-width:1.5;"/>
   </g>
   <g id="line2d_21">
    <path clip-path="url(#p76945eb514)" d="M 88.648352 34.414125 
L 90.271625 63.862807 
L 91.894898 89.760333 
L 93.51817 112.680832 
L 95.141443 132.842926 
L 96.764716 150.517942 
L 98.387989 165.766392 
L 100.011261 179.27562 
L 101.634534 190.925335 
L 103.257807 201.244524 
L 104.88108 210.11729 
L 106.504352 217.821547 
L 108.127625 224.455138 
L 109.750898 230.225949 
L 111.37417 235.193273 
L 112.997443 239.33637 
L 114.620716 242.735026 
L 116.243989 245.552723 
L 117.867261 247.788238 
L 119.490534 249.630428 
L 121.113807 251.123211 
L 124.901443 254.057539 
L 126.524716 254.988149 
L 131.394534 257.489379 
L 135.18217 259.139542 
L 139.510898 260.845824 
L 144.380716 262.995452 
L 151.414898 266.230386 
L 157.366898 267.946916 
L 164.40108 269.4214 
L 171.435261 270.603817 
L 175.763989 271.015687 
L 180.092716 271.410477 
L 187.126898 272.010713 
L 194.70217 272.52799 
L 203.900716 272.973288 
L 217.427989 274.008818 
L 228.790898 274.260625 
L 233.660716 274.459972 
L 248.27017 275.026292 
L 252.057807 275.042396 
L 256.927625 275.099004 
L 282.358898 275.274439 
L 289.93417 275.123892 
L 298.050534 274.975785 
L 306.166898 274.860617 
L 325.10508 274.892093 
L 340.796716 274.37384 
L 346.207625 274.04737 
L 351.618534 273.900971 
L 364.604716 273.876327 
L 370.556716 273.552785 
L 373.803261 273.33343 
L 378.67308 272.827621 
L 391.11817 271.457812 
L 400.857807 270.393002 
L 413.302898 269.039054 
L 413.302898 269.039054 
" style="fill:none;stroke:#ffc400;stroke-linecap:round;stroke-width:1.5;"/>
   </g>
   <g id="line2d_22">
    <path clip-path="url(#p76945eb514)" d="M 88.648352 34.414125 
L 90.271625 63.61466 
L 91.894898 89.517066 
L 93.51817 112.406577 
L 95.141443 132.577944 
L 96.764716 150.309568 
L 98.387989 165.756632 
L 100.011261 179.176557 
L 101.634534 190.973402 
L 103.257807 201.275024 
L 104.88108 210.239046 
L 106.504352 217.968434 
L 108.127625 224.607637 
L 109.750898 230.403824 
L 111.37417 235.417996 
L 112.997443 239.611112 
L 114.620716 243.181788 
L 116.243989 246.232747 
L 117.867261 248.840604 
L 120.031625 251.569973 
L 123.27817 255.108441 
L 125.983625 257.618699 
L 128.147989 259.338401 
L 131.935625 261.919418 
L 136.264352 264.315241 
L 137.887625 265.069929 
L 142.216352 266.705451 
L 146.003989 267.805885 
L 148.168352 268.148215 
L 151.955989 268.535441 
L 155.202534 268.822627 
L 156.825807 268.959023 
L 165.483261 269.258897 
L 169.811989 269.573899 
L 185.503625 270.106304 
L 195.243261 270.439118 
L 197.407625 270.363479 
L 200.11308 270.325171 
L 209.852716 270.716301 
L 212.55817 270.863432 
L 217.427989 271.089863 
L 220.674534 271.22333 
L 226.626534 271.210154 
L 235.82508 271.651547 
L 237.989443 271.785747 
L 241.235989 271.757931 
L 246.105807 271.683267 
L 253.139989 271.904086 
L 263.961807 272.287164 
L 267.749443 272.062929 
L 273.160352 271.582008 
L 293.721807 269.35674 
L 312.118898 267.364492 
L 333.221443 265.096524 
L 345.666534 263.793816 
L 366.76908 261.535852 
L 380.296352 260.094553 
L 395.987989 258.473182 
L 413.302898 256.670276 
L 413.302898 256.670276 
" style="fill:none;stroke:#ff6800;stroke-linecap:round;stroke-width:1.5;"/>
   </g>
   <g id="line2d_23">
    <path clip-path="url(#p76945eb514)" d="M 88.648352 34.414125 
L 90.271625 63.806199 
L 91.894898 89.764969 
L 93.51817 112.694496 
L 95.141443 132.833898 
L 96.764716 150.452795 
L 98.387989 165.864968 
L 100.011261 179.363948 
L 101.634534 191.06661 
L 103.257807 201.242084 
L 104.88108 210.068003 
L 106.504352 217.606096 
L 108.127625 224.01716 
L 109.750898 229.471993 
L 111.37417 234.061607 
L 112.997443 237.980713 
L 114.079625 240.148153 
L 115.702898 242.773578 
L 117.867261 245.253092 
L 120.572716 247.936101 
L 122.195989 249.592608 
L 124.901443 251.829343 
L 127.065807 253.207447 
L 128.68908 253.991171 
L 132.476716 255.386599 
L 135.18217 256.089071 
L 138.969807 256.520705 
L 142.216352 256.448481 
L 144.921807 256.372354 
L 150.332716 256.617816 
L 154.661443 256.990402 
L 157.366898 257.199509 
L 158.99017 257.400076 
L 167.106534 257.348836 
L 179.010534 256.109811 
L 213.640352 252.582079 
L 282.358898 245.686922 
L 290.475261 244.890998 
L 315.365443 242.454184 
L 333.221443 240.76791 
L 341.337807 240.002486 
L 399.234534 234.552045 
L 413.302898 233.233964 
L 413.302898 233.233964 
" style="fill:none;stroke:#f10800;stroke-linecap:round;stroke-width:1.5;"/>
   </g>
   <g id="patch_3">
    <path d="M 72.415625 288.430125 
L 72.415625 22.318125 
" style="fill:none;stroke:#cccccc;stroke-linecap:square;stroke-linejoin:miter;stroke-width:0.8;"/>
   </g>
   <g id="patch_4">
    <path d="M 429.535625 288.430125 
L 429.535625 22.318125 
" style="fill:none;stroke:#cccccc;stroke-linecap:square;stroke-linejoin:miter;stroke-width:0.8;"/>
   </g>
   <g id="patch_5">
    <path d="M 72.415625 288.430125 
L 429.535625 288.430125 
" style="fill:none;stroke:#cccccc;stroke-linecap:square;stroke-linejoin:miter;stroke-width:0.8;"/>
   </g>
   <g id="patch_6">
    <path d="M 72.415625 22.318125 
L 429.535625 22.318125 
" style="fill:none;stroke:#cccccc;stroke-linecap:square;stroke-linejoin:miter;stroke-width:0.8;"/>
   </g>
   <g id="text_16">
    <!-- Immature APC -->
    <defs>
     <path d="M 9.8125 72.90625 
L 19.671875 72.90625 
L 19.671875 0 
L 9.8125 0 
z
" id="DejaVuSans-73"/>
     <path d="M 34.1875 63.1875 
L 20.796875 26.90625 
L 47.609375 26.90625 
z
M 28.609375 72.90625 
L 39.796875 72.90625 
L 67.578125 0 
L 57.328125 0 
L 50.6875 18.703125 
L 17.828125 18.703125 
L 11.1875 0 
L 0.78125 0 
z
" id="DejaVuSans-65"/>
     <path d="M 19.671875 64.796875 
L 19.671875 37.40625 
L 32.078125 37.40625 
Q 38.96875 37.40625 42.71875 40.96875 
Q 46.484375 44.53125 46.484375 51.125 
Q 46.484375 57.671875 42.71875 61.234375 
Q 38.96875 64.796875 32.078125 64.796875 
z
M 9.8125 72.90625 
L 32.078125 72.90625 
Q 44.34375 72.90625 50.609375 67.359375 
Q 56.890625 61.8125 56.890625 51.125 
Q 56.890625 40.328125 50.609375 34.8125 
Q 44.34375 29.296875 32.078125 29.296875 
L 19.671875 29.296875 
L 19.671875 0 
L 9.8125 0 
z
" id="DejaVuSans-80"/>
     <path d="M 64.40625 67.28125 
L 64.40625 56.890625 
Q 59.421875 61.53125 53.78125 63.8125 
Q 48.140625 66.109375 41.796875 66.109375 
Q 29.296875 66.109375 22.65625 58.46875 
Q 16.015625 50.828125 16.015625 36.375 
Q 16.015625 21.96875 22.65625 14.328125 
Q 29.296875 6.6875 41.796875 6.6875 
Q 48.140625 6.6875 53.78125 8.984375 
Q 59.421875 11.28125 64.40625 15.921875 
L 64.40625 5.609375 
Q 59.234375 2.09375 53.4375 0.328125 
Q 47.65625 -1.421875 41.21875 -1.421875 
Q 24.65625 -1.421875 15.125 8.703125 
Q 5.609375 18.84375 5.609375 36.375 
Q 5.609375 53.953125 15.125 64.078125 
Q 24.65625 74.21875 41.21875 74.21875 
Q 47.75 74.21875 53.53125 72.484375 
Q 59.328125 70.75 64.40625 67.28125 
z
" id="DejaVuSans-67"/>
    </defs>
    <g style="fill:#262626;" transform="translate(207.71 16.318125)scale(0.12 -0.12)">
     <use xlink:href="#DejaVuSans-73"/>
     <use x="29.492188" xlink:href="#DejaVuSans-109"/>
     <use x="126.904297" xlink:href="#DejaVuSans-109"/>
     <use x="224.316406" xlink:href="#DejaVuSans-97"/>
     <use x="285.595703" xlink:href="#DejaVuSans-116"/>
     <use x="324.804688" xlink:href="#DejaVuSans-117"/>
     <use x="388.183594" xlink:href="#DejaVuSans-114"/>
     <use x="429.265625" xlink:href="#DejaVuSans-101"/>
     <use x="490.789062" xlink:href="#DejaVuSans-32"/>
     <use x="522.576172" xlink:href="#DejaVuSans-65"/>
     <use x="590.984375" xlink:href="#DejaVuSans-80"/>
     <use x="651.287109" xlink:href="#DejaVuSans-67"/>
    </g>
   </g>
  </g>
 </g>
 <defs>
  <clipPath id="p76945eb514">
   <rect height="266.112" width="357.12" x="72.415625" y="22.318125"/>
  </clipPath>
 </defs>
</svg>
