<?xml version="1.0" encoding="utf-8" standalone="no"?>
<!DOCTYPE svg PUBLIC "-//W3C//DTD SVG 1.1//EN"
  "http://www.w3.org/Graphics/SVG/1.1/DTD/svg11.dtd">
<!-- Created with matplotlib (https://matplotlib.org/) -->
<svg height="325.986375pt" version="1.1" viewBox="0 0 404.923125 325.986375" width="404.923125pt" xmlns="http://www.w3.org/2000/svg" xmlns:xlink="http://www.w3.org/1999/xlink">
 <defs>
  <style type="text/css">
*{stroke-linecap:butt;stroke-linejoin:round;white-space:pre;}
  </style>
 </defs>
 <g id="figure_1">
  <g id="patch_1">
   <path d="M 0 325.986375 
L 404.923125 325.986375 
L 404.923125 0 
L 0 0 
z
" style="fill:#ffffff;"/>
  </g>
  <g id="axes_1">
   <g id="patch_2">
    <path d="M 40.603125 288.430125 
L 397.723125 288.430125 
L 397.723125 22.318125 
L 40.603125 22.318125 
z
" style="fill:#ffffff;"/>
   </g>
   <g id="matplotlib.axis_1">
    <g id="xtick_1">
     <g id="line2d_1">
      <path clip-path="url(#pc725863c83)" d="M 56.835852 288.430125 
L 56.835852 22.318125 
" style="fill:none;stroke:#cccccc;stroke-linecap:round;stroke-width:0.8;"/>
     </g>
     <g id="text_1">
      <!-- 0 -->
      <defs>
       <path d="M 31.78125 66.40625 
Q 24.171875 66.40625 20.328125 58.90625 
Q 16.5 51.421875 16.5 36.375 
Q 16.5 21.390625 20.328125 13.890625 
Q 24.171875 6.390625 31.78125 6.390625 
Q 39.453125 6.390625 43.28125 13.890625 
Q 47.125 21.390625 47.125 36.375 
Q 47.125 51.421875 43.28125 58.90625 
Q 39.453125 66.40625 31.78125 66.40625 
z
M 31.78125 74.21875 
Q 44.046875 74.21875 50.515625 64.515625 
Q 56.984375 54.828125 56.984375 36.375 
Q 56.984375 17.96875 50.515625 8.265625 
Q 44.046875 -1.421875 31.78125 -1.421875 
Q 19.53125 -1.421875 13.0625 8.265625 
Q 6.59375 17.96875 6.59375 36.375 
Q 6.59375 54.828125 13.0625 64.515625 
Q 19.53125 74.21875 31.78125 74.21875 
z
" id="DejaVuSans-48"/>
      </defs>
      <g style="fill:#262626;" transform="translate(53.654602 303.028562)scale(0.1 -0.1)">
       <use xlink:href="#DejaVuSans-48"/>
      </g>
     </g>
    </g>
    <g id="xtick_2">
     <g id="line2d_2">
      <path clip-path="url(#pc725863c83)" d="M 110.944943 288.430125 
L 110.944943 22.318125 
" style="fill:none;stroke:#cccccc;stroke-linecap:round;stroke-width:0.8;"/>
     </g>
     <g id="text_2">
      <!-- 10 -->
      <defs>
       <path d="M 12.40625 8.296875 
L 28.515625 8.296875 
L 28.515625 63.921875 
L 10.984375 60.40625 
L 10.984375 69.390625 
L 28.421875 72.90625 
L 38.28125 72.90625 
L 38.28125 8.296875 
L 54.390625 8.296875 
L 54.390625 0 
L 12.40625 0 
z
" id="DejaVuSans-49"/>
      </defs>
      <g style="fill:#262626;" transform="translate(104.582443 303.028562)scale(0.1 -0.1)">
       <use xlink:href="#DejaVuSans-49"/>
       <use x="63.623047" xlink:href="#DejaVuSans-48"/>
      </g>
     </g>
    </g>
    <g id="xtick_3">
     <g id="line2d_3">
      <path clip-path="url(#pc725863c83)" d="M 165.054034 288.430125 
L 165.054034 22.318125 
" style="fill:none;stroke:#cccccc;stroke-linecap:round;stroke-width:0.8;"/>
     </g>
     <g id="text_3">
      <!-- 20 -->
      <defs>
       <path d="M 19.1875 8.296875 
L 53.609375 8.296875 
L 53.609375 0 
L 7.328125 0 
L 7.328125 8.296875 
Q 12.9375 14.109375 22.625 23.890625 
Q 32.328125 33.6875 34.8125 36.53125 
Q 39.546875 41.84375 41.421875 45.53125 
Q 43.3125 49.21875 43.3125 52.78125 
Q 43.3125 58.59375 39.234375 62.25 
Q 35.15625 65.921875 28.609375 65.921875 
Q 23.96875 65.921875 18.8125 64.3125 
Q 13.671875 62.703125 7.8125 59.421875 
L 7.8125 69.390625 
Q 13.765625 71.78125 18.9375 73 
Q 24.125 74.21875 28.421875 74.21875 
Q 39.75 74.21875 46.484375 68.546875 
Q 53.21875 62.890625 53.21875 53.421875 
Q 53.21875 48.921875 51.53125 44.890625 
Q 49.859375 40.875 45.40625 35.40625 
Q 44.1875 33.984375 37.640625 27.21875 
Q 31.109375 20.453125 19.1875 8.296875 
z
" id="DejaVuSans-50"/>
      </defs>
      <g style="fill:#262626;" transform="translate(158.691534 303.028562)scale(0.1 -0.1)">
       <use xlink:href="#DejaVuSans-50"/>
       <use x="63.623047" xlink:href="#DejaVuSans-48"/>
      </g>
     </g>
    </g>
    <g id="xtick_4">
     <g id="line2d_4">
      <path clip-path="url(#pc725863c83)" d="M 219.163125 288.430125 
L 219.163125 22.318125 
" style="fill:none;stroke:#cccccc;stroke-linecap:round;stroke-width:0.8;"/>
     </g>
     <g id="text_4">
      <!-- 30 -->
      <defs>
       <path d="M 40.578125 39.3125 
Q 47.65625 37.796875 51.625 33 
Q 55.609375 28.21875 55.609375 21.1875 
Q 55.609375 10.40625 48.1875 4.484375 
Q 40.765625 -1.421875 27.09375 -1.421875 
Q 22.515625 -1.421875 17.65625 -0.515625 
Q 12.796875 0.390625 7.625 2.203125 
L 7.625 11.71875 
Q 11.71875 9.328125 16.59375 8.109375 
Q 21.484375 6.890625 26.8125 6.890625 
Q 36.078125 6.890625 40.9375 10.546875 
Q 45.796875 14.203125 45.796875 21.1875 
Q 45.796875 27.640625 41.28125 31.265625 
Q 36.765625 34.90625 28.71875 34.90625 
L 20.21875 34.90625 
L 20.21875 43.015625 
L 29.109375 43.015625 
Q 36.375 43.015625 40.234375 45.921875 
Q 44.09375 48.828125 44.09375 54.296875 
Q 44.09375 59.90625 40.109375 62.90625 
Q 36.140625 65.921875 28.71875 65.921875 
Q 24.65625 65.921875 20.015625 65.03125 
Q 15.375 64.15625 9.8125 62.3125 
L 9.8125 71.09375 
Q 15.4375 72.65625 20.34375 73.4375 
Q 25.25 74.21875 29.59375 74.21875 
Q 40.828125 74.21875 47.359375 69.109375 
Q 53.90625 64.015625 53.90625 55.328125 
Q 53.90625 49.265625 50.4375 45.09375 
Q 46.96875 40.921875 40.578125 39.3125 
z
" id="DejaVuSans-51"/>
      </defs>
      <g style="fill:#262626;" transform="translate(212.800625 303.028562)scale(0.1 -0.1)">
       <use xlink:href="#DejaVuSans-51"/>
       <use x="63.623047" xlink:href="#DejaVuSans-48"/>
      </g>
     </g>
    </g>
    <g id="xtick_5">
     <g id="line2d_5">
      <path clip-path="url(#pc725863c83)" d="M 273.272216 288.430125 
L 273.272216 22.318125 
" style="fill:none;stroke:#cccccc;stroke-linecap:round;stroke-width:0.8;"/>
     </g>
     <g id="text_5">
      <!-- 40 -->
      <defs>
       <path d="M 37.796875 64.3125 
L 12.890625 25.390625 
L 37.796875 25.390625 
z
M 35.203125 72.90625 
L 47.609375 72.90625 
L 47.609375 25.390625 
L 58.015625 25.390625 
L 58.015625 17.1875 
L 47.609375 17.1875 
L 47.609375 0 
L 37.796875 0 
L 37.796875 17.1875 
L 4.890625 17.1875 
L 4.890625 26.703125 
z
" id="DejaVuSans-52"/>
      </defs>
      <g style="fill:#262626;" transform="translate(266.909716 303.028562)scale(0.1 -0.1)">
       <use xlink:href="#DejaVuSans-52"/>
       <use x="63.623047" xlink:href="#DejaVuSans-48"/>
      </g>
     </g>
    </g>
    <g id="xtick_6">
     <g id="line2d_6">
      <path clip-path="url(#pc725863c83)" d="M 327.381307 288.430125 
L 327.381307 22.318125 
" style="fill:none;stroke:#cccccc;stroke-linecap:round;stroke-width:0.8;"/>
     </g>
     <g id="text_6">
      <!-- 50 -->
      <defs>
       <path d="M 10.796875 72.90625 
L 49.515625 72.90625 
L 49.515625 64.59375 
L 19.828125 64.59375 
L 19.828125 46.734375 
Q 21.96875 47.46875 24.109375 47.828125 
Q 26.265625 48.1875 28.421875 48.1875 
Q 40.625 48.1875 47.75 41.5 
Q 54.890625 34.8125 54.890625 23.390625 
Q 54.890625 11.625 47.5625 5.09375 
Q 40.234375 -1.421875 26.90625 -1.421875 
Q 22.3125 -1.421875 17.546875 -0.640625 
Q 12.796875 0.140625 7.71875 1.703125 
L 7.71875 11.625 
Q 12.109375 9.234375 16.796875 8.0625 
Q 21.484375 6.890625 26.703125 6.890625 
Q 35.15625 6.890625 40.078125 11.328125 
Q 45.015625 15.765625 45.015625 23.390625 
Q 45.015625 31 40.078125 35.4375 
Q 35.15625 39.890625 26.703125 39.890625 
Q 22.75 39.890625 18.8125 39.015625 
Q 14.890625 38.140625 10.796875 36.28125 
z
" id="DejaVuSans-53"/>
      </defs>
      <g style="fill:#262626;" transform="translate(321.018807 303.028562)scale(0.1 -0.1)">
       <use xlink:href="#DejaVuSans-53"/>
       <use x="63.623047" xlink:href="#DejaVuSans-48"/>
      </g>
     </g>
    </g>
    <g id="xtick_7">
     <g id="line2d_7">
      <path clip-path="url(#pc725863c83)" d="M 381.490398 288.430125 
L 381.490398 22.318125 
" style="fill:none;stroke:#cccccc;stroke-linecap:round;stroke-width:0.8;"/>
     </g>
     <g id="text_7">
      <!-- 60 -->
      <defs>
       <path d="M 33.015625 40.375 
Q 26.375 40.375 22.484375 35.828125 
Q 18.609375 31.296875 18.609375 23.390625 
Q 18.609375 15.53125 22.484375 10.953125 
Q 26.375 6.390625 33.015625 6.390625 
Q 39.65625 6.390625 43.53125 10.953125 
Q 47.40625 15.53125 47.40625 23.390625 
Q 47.40625 31.296875 43.53125 35.828125 
Q 39.65625 40.375 33.015625 40.375 
z
M 52.59375 71.296875 
L 52.59375 62.3125 
Q 48.875 64.0625 45.09375 64.984375 
Q 41.3125 65.921875 37.59375 65.921875 
Q 27.828125 65.921875 22.671875 59.328125 
Q 17.53125 52.734375 16.796875 39.40625 
Q 19.671875 43.65625 24.015625 45.921875 
Q 28.375 48.1875 33.59375 48.1875 
Q 44.578125 48.1875 50.953125 41.515625 
Q 57.328125 34.859375 57.328125 23.390625 
Q 57.328125 12.15625 50.6875 5.359375 
Q 44.046875 -1.421875 33.015625 -1.421875 
Q 20.359375 -1.421875 13.671875 8.265625 
Q 6.984375 17.96875 6.984375 36.375 
Q 6.984375 53.65625 15.1875 63.9375 
Q 23.390625 74.21875 37.203125 74.21875 
Q 40.921875 74.21875 44.703125 73.484375 
Q 48.484375 72.75 52.59375 71.296875 
z
" id="DejaVuSans-54"/>
      </defs>
      <g style="fill:#262626;" transform="translate(375.127898 303.028562)scale(0.1 -0.1)">
       <use xlink:href="#DejaVuSans-54"/>
       <use x="63.623047" xlink:href="#DejaVuSans-48"/>
      </g>
     </g>
    </g>
    <g id="text_8">
     <!-- time (days) -->
     <defs>
      <path d="M 18.3125 70.21875 
L 18.3125 54.6875 
L 36.8125 54.6875 
L 36.8125 47.703125 
L 18.3125 47.703125 
L 18.3125 18.015625 
Q 18.3125 11.328125 20.140625 9.421875 
Q 21.96875 7.515625 27.59375 7.515625 
L 36.8125 7.515625 
L 36.8125 0 
L 27.59375 0 
Q 17.1875 0 13.234375 3.875 
Q 9.28125 7.765625 9.28125 18.015625 
L 9.28125 47.703125 
L 2.6875 47.703125 
L 2.6875 54.6875 
L 9.28125 54.6875 
L 9.28125 70.21875 
z
" id="DejaVuSans-116"/>
      <path d="M 9.421875 54.6875 
L 18.40625 54.6875 
L 18.40625 0 
L 9.421875 0 
z
M 9.421875 75.984375 
L 18.40625 75.984375 
L 18.40625 64.59375 
L 9.421875 64.59375 
z
" id="DejaVuSans-105"/>
      <path d="M 52 44.1875 
Q 55.375 50.25 60.0625 53.125 
Q 64.75 56 71.09375 56 
Q 79.640625 56 84.28125 50.015625 
Q 88.921875 44.046875 88.921875 33.015625 
L 88.921875 0 
L 79.890625 0 
L 79.890625 32.71875 
Q 79.890625 40.578125 77.09375 44.375 
Q 74.3125 48.1875 68.609375 48.1875 
Q 61.625 48.1875 57.5625 43.546875 
Q 53.515625 38.921875 53.515625 30.90625 
L 53.515625 0 
L 44.484375 0 
L 44.484375 32.71875 
Q 44.484375 40.625 41.703125 44.40625 
Q 38.921875 48.1875 33.109375 48.1875 
Q 26.21875 48.1875 22.15625 43.53125 
Q 18.109375 38.875 18.109375 30.90625 
L 18.109375 0 
L 9.078125 0 
L 9.078125 54.6875 
L 18.109375 54.6875 
L 18.109375 46.1875 
Q 21.1875 51.21875 25.484375 53.609375 
Q 29.78125 56 35.6875 56 
Q 41.65625 56 45.828125 52.96875 
Q 50 49.953125 52 44.1875 
z
" id="DejaVuSans-109"/>
      <path d="M 56.203125 29.59375 
L 56.203125 25.203125 
L 14.890625 25.203125 
Q 15.484375 15.921875 20.484375 11.0625 
Q 25.484375 6.203125 34.421875 6.203125 
Q 39.59375 6.203125 44.453125 7.46875 
Q 49.3125 8.734375 54.109375 11.28125 
L 54.109375 2.78125 
Q 49.265625 0.734375 44.1875 -0.34375 
Q 39.109375 -1.421875 33.890625 -1.421875 
Q 20.796875 -1.421875 13.15625 6.1875 
Q 5.515625 13.8125 5.515625 26.8125 
Q 5.515625 40.234375 12.765625 48.109375 
Q 20.015625 56 32.328125 56 
Q 43.359375 56 49.78125 48.890625 
Q 56.203125 41.796875 56.203125 29.59375 
z
M 47.21875 32.234375 
Q 47.125 39.59375 43.09375 43.984375 
Q 39.0625 48.390625 32.421875 48.390625 
Q 24.90625 48.390625 20.390625 44.140625 
Q 15.875 39.890625 15.1875 32.171875 
z
" id="DejaVuSans-101"/>
      <path id="DejaVuSans-32"/>
      <path d="M 31 75.875 
Q 24.46875 64.65625 21.28125 53.65625 
Q 18.109375 42.671875 18.109375 31.390625 
Q 18.109375 20.125 21.3125 9.0625 
Q 24.515625 -2 31 -13.1875 
L 23.1875 -13.1875 
Q 15.875 -1.703125 12.234375 9.375 
Q 8.59375 20.453125 8.59375 31.390625 
Q 8.59375 42.28125 12.203125 53.3125 
Q 15.828125 64.359375 23.1875 75.875 
z
" id="DejaVuSans-40"/>
      <path d="M 45.40625 46.390625 
L 45.40625 75.984375 
L 54.390625 75.984375 
L 54.390625 0 
L 45.40625 0 
L 45.40625 8.203125 
Q 42.578125 3.328125 38.25 0.953125 
Q 33.9375 -1.421875 27.875 -1.421875 
Q 17.96875 -1.421875 11.734375 6.484375 
Q 5.515625 14.40625 5.515625 27.296875 
Q 5.515625 40.1875 11.734375 48.09375 
Q 17.96875 56 27.875 56 
Q 33.9375 56 38.25 53.625 
Q 42.578125 51.265625 45.40625 46.390625 
z
M 14.796875 27.296875 
Q 14.796875 17.390625 18.875 11.75 
Q 22.953125 6.109375 30.078125 6.109375 
Q 37.203125 6.109375 41.296875 11.75 
Q 45.40625 17.390625 45.40625 27.296875 
Q 45.40625 37.203125 41.296875 42.84375 
Q 37.203125 48.484375 30.078125 48.484375 
Q 22.953125 48.484375 18.875 42.84375 
Q 14.796875 37.203125 14.796875 27.296875 
z
" id="DejaVuSans-100"/>
      <path d="M 34.28125 27.484375 
Q 23.390625 27.484375 19.1875 25 
Q 14.984375 22.515625 14.984375 16.5 
Q 14.984375 11.71875 18.140625 8.90625 
Q 21.296875 6.109375 26.703125 6.109375 
Q 34.1875 6.109375 38.703125 11.40625 
Q 43.21875 16.703125 43.21875 25.484375 
L 43.21875 27.484375 
z
M 52.203125 31.203125 
L 52.203125 0 
L 43.21875 0 
L 43.21875 8.296875 
Q 40.140625 3.328125 35.546875 0.953125 
Q 30.953125 -1.421875 24.3125 -1.421875 
Q 15.921875 -1.421875 10.953125 3.296875 
Q 6 8.015625 6 15.921875 
Q 6 25.140625 12.171875 29.828125 
Q 18.359375 34.515625 30.609375 34.515625 
L 43.21875 34.515625 
L 43.21875 35.40625 
Q 43.21875 41.609375 39.140625 45 
Q 35.0625 48.390625 27.6875 48.390625 
Q 23 48.390625 18.546875 47.265625 
Q 14.109375 46.140625 10.015625 43.890625 
L 10.015625 52.203125 
Q 14.9375 54.109375 19.578125 55.046875 
Q 24.21875 56 28.609375 56 
Q 40.484375 56 46.34375 49.84375 
Q 52.203125 43.703125 52.203125 31.203125 
z
" id="DejaVuSans-97"/>
      <path d="M 32.171875 -5.078125 
Q 28.375 -14.84375 24.75 -17.8125 
Q 21.140625 -20.796875 15.09375 -20.796875 
L 7.90625 -20.796875 
L 7.90625 -13.28125 
L 13.1875 -13.28125 
Q 16.890625 -13.28125 18.9375 -11.515625 
Q 21 -9.765625 23.484375 -3.21875 
L 25.09375 0.875 
L 2.984375 54.6875 
L 12.5 54.6875 
L 29.59375 11.921875 
L 46.6875 54.6875 
L 56.203125 54.6875 
z
" id="DejaVuSans-121"/>
      <path d="M 44.28125 53.078125 
L 44.28125 44.578125 
Q 40.484375 46.53125 36.375 47.5 
Q 32.28125 48.484375 27.875 48.484375 
Q 21.1875 48.484375 17.84375 46.4375 
Q 14.5 44.390625 14.5 40.28125 
Q 14.5 37.15625 16.890625 35.375 
Q 19.28125 33.59375 26.515625 31.984375 
L 29.59375 31.296875 
Q 39.15625 29.25 43.1875 25.515625 
Q 47.21875 21.78125 47.21875 15.09375 
Q 47.21875 7.46875 41.1875 3.015625 
Q 35.15625 -1.421875 24.609375 -1.421875 
Q 20.21875 -1.421875 15.453125 -0.5625 
Q 10.6875 0.296875 5.421875 2 
L 5.421875 11.28125 
Q 10.40625 8.6875 15.234375 7.390625 
Q 20.0625 6.109375 24.8125 6.109375 
Q 31.15625 6.109375 34.5625 8.28125 
Q 37.984375 10.453125 37.984375 14.40625 
Q 37.984375 18.0625 35.515625 20.015625 
Q 33.0625 21.96875 24.703125 23.78125 
L 21.578125 24.515625 
Q 13.234375 26.265625 9.515625 29.90625 
Q 5.8125 33.546875 5.8125 39.890625 
Q 5.8125 47.609375 11.28125 51.796875 
Q 16.75 56 26.8125 56 
Q 31.78125 56 36.171875 55.265625 
Q 40.578125 54.546875 44.28125 53.078125 
z
" id="DejaVuSans-115"/>
      <path d="M 8.015625 75.875 
L 15.828125 75.875 
Q 23.140625 64.359375 26.78125 53.3125 
Q 30.421875 42.28125 30.421875 31.390625 
Q 30.421875 20.453125 26.78125 9.375 
Q 23.140625 -1.703125 15.828125 -13.1875 
L 8.015625 -13.1875 
Q 14.5 -2 17.703125 9.0625 
Q 20.90625 20.125 20.90625 31.390625 
Q 20.90625 42.671875 17.703125 53.65625 
Q 14.5 64.65625 8.015625 75.875 
z
" id="DejaVuSans-41"/>
     </defs>
     <g style="fill:#262626;" transform="translate(190.574062 316.706687)scale(0.1 -0.1)">
      <use xlink:href="#DejaVuSans-116"/>
      <use x="39.208984" xlink:href="#DejaVuSans-105"/>
      <use x="66.992188" xlink:href="#DejaVuSans-109"/>
      <use x="164.404297" xlink:href="#DejaVuSans-101"/>
      <use x="225.927734" xlink:href="#DejaVuSans-32"/>
      <use x="257.714844" xlink:href="#DejaVuSans-40"/>
      <use x="296.728516" xlink:href="#DejaVuSans-100"/>
      <use x="360.205078" xlink:href="#DejaVuSans-97"/>
      <use x="421.484375" xlink:href="#DejaVuSans-121"/>
      <use x="480.664062" xlink:href="#DejaVuSans-115"/>
      <use x="532.763672" xlink:href="#DejaVuSans-41"/>
     </g>
    </g>
   </g>
   <g id="matplotlib.axis_2">
    <g id="ytick_1">
     <g id="line2d_8">
      <path clip-path="url(#pc725863c83)" d="M 40.603125 276.334125 
L 397.723125 276.334125 
" style="fill:none;stroke:#cccccc;stroke-linecap:round;stroke-width:0.8;"/>
     </g>
     <g id="text_9">
      <!-- 0 -->
      <g style="fill:#262626;" transform="translate(27.240625 280.133344)scale(0.1 -0.1)">
       <use xlink:href="#DejaVuSans-48"/>
      </g>
     </g>
    </g>
    <g id="ytick_2">
     <g id="line2d_9">
      <path clip-path="url(#pc725863c83)" d="M 40.603125 243.642233 
L 397.723125 243.642233 
" style="fill:none;stroke:#cccccc;stroke-linecap:round;stroke-width:0.8;"/>
     </g>
     <g id="text_10">
      <!-- 10 -->
      <g style="fill:#262626;" transform="translate(20.878125 247.441452)scale(0.1 -0.1)">
       <use xlink:href="#DejaVuSans-49"/>
       <use x="63.623047" xlink:href="#DejaVuSans-48"/>
      </g>
     </g>
    </g>
    <g id="ytick_3">
     <g id="line2d_10">
      <path clip-path="url(#pc725863c83)" d="M 40.603125 210.950341 
L 397.723125 210.950341 
" style="fill:none;stroke:#cccccc;stroke-linecap:round;stroke-width:0.8;"/>
     </g>
     <g id="text_11">
      <!-- 20 -->
      <g style="fill:#262626;" transform="translate(20.878125 214.74956)scale(0.1 -0.1)">
       <use xlink:href="#DejaVuSans-50"/>
       <use x="63.623047" xlink:href="#DejaVuSans-48"/>
      </g>
     </g>
    </g>
    <g id="ytick_4">
     <g id="line2d_11">
      <path clip-path="url(#pc725863c83)" d="M 40.603125 178.258449 
L 397.723125 178.258449 
" style="fill:none;stroke:#cccccc;stroke-linecap:round;stroke-width:0.8;"/>
     </g>
     <g id="text_12">
      <!-- 30 -->
      <g style="fill:#262626;" transform="translate(20.878125 182.057668)scale(0.1 -0.1)">
       <use xlink:href="#DejaVuSans-51"/>
       <use x="63.623047" xlink:href="#DejaVuSans-48"/>
      </g>
     </g>
    </g>
    <g id="ytick_5">
     <g id="line2d_12">
      <path clip-path="url(#pc725863c83)" d="M 40.603125 145.566557 
L 397.723125 145.566557 
" style="fill:none;stroke:#cccccc;stroke-linecap:round;stroke-width:0.8;"/>
     </g>
     <g id="text_13">
      <!-- 40 -->
      <g style="fill:#262626;" transform="translate(20.878125 149.365776)scale(0.1 -0.1)">
       <use xlink:href="#DejaVuSans-52"/>
       <use x="63.623047" xlink:href="#DejaVuSans-48"/>
      </g>
     </g>
    </g>
    <g id="ytick_6">
     <g id="line2d_13">
      <path clip-path="url(#pc725863c83)" d="M 40.603125 112.874666 
L 397.723125 112.874666 
" style="fill:none;stroke:#cccccc;stroke-linecap:round;stroke-width:0.8;"/>
     </g>
     <g id="text_14">
      <!-- 50 -->
      <g style="fill:#262626;" transform="translate(20.878125 116.673884)scale(0.1 -0.1)">
       <use xlink:href="#DejaVuSans-53"/>
       <use x="63.623047" xlink:href="#DejaVuSans-48"/>
      </g>
     </g>
    </g>
    <g id="ytick_7">
     <g id="line2d_14">
      <path clip-path="url(#pc725863c83)" d="M 40.603125 80.182774 
L 397.723125 80.182774 
" style="fill:none;stroke:#cccccc;stroke-linecap:round;stroke-width:0.8;"/>
     </g>
     <g id="text_15">
      <!-- 60 -->
      <g style="fill:#262626;" transform="translate(20.878125 83.981992)scale(0.1 -0.1)">
       <use xlink:href="#DejaVuSans-54"/>
       <use x="63.623047" xlink:href="#DejaVuSans-48"/>
      </g>
     </g>
    </g>
    <g id="ytick_8">
     <g id="line2d_15">
      <path clip-path="url(#pc725863c83)" d="M 40.603125 47.490882 
L 397.723125 47.490882 
" style="fill:none;stroke:#cccccc;stroke-linecap:round;stroke-width:0.8;"/>
     </g>
     <g id="text_16">
      <!-- 70 -->
      <defs>
       <path d="M 8.203125 72.90625 
L 55.078125 72.90625 
L 55.078125 68.703125 
L 28.609375 0 
L 18.3125 0 
L 43.21875 64.59375 
L 8.203125 64.59375 
z
" id="DejaVuSans-55"/>
      </defs>
      <g style="fill:#262626;" transform="translate(20.878125 51.290101)scale(0.1 -0.1)">
       <use xlink:href="#DejaVuSans-55"/>
       <use x="63.623047" xlink:href="#DejaVuSans-48"/>
      </g>
     </g>
    </g>
    <g id="text_17">
     <!-- cells number -->
     <defs>
      <path d="M 48.78125 52.59375 
L 48.78125 44.1875 
Q 44.96875 46.296875 41.140625 47.34375 
Q 37.3125 48.390625 33.40625 48.390625 
Q 24.65625 48.390625 19.8125 42.84375 
Q 14.984375 37.3125 14.984375 27.296875 
Q 14.984375 17.28125 19.8125 11.734375 
Q 24.65625 6.203125 33.40625 6.203125 
Q 37.3125 6.203125 41.140625 7.25 
Q 44.96875 8.296875 48.78125 10.40625 
L 48.78125 2.09375 
Q 45.015625 0.34375 40.984375 -0.53125 
Q 36.96875 -1.421875 32.421875 -1.421875 
Q 20.0625 -1.421875 12.78125 6.34375 
Q 5.515625 14.109375 5.515625 27.296875 
Q 5.515625 40.671875 12.859375 48.328125 
Q 20.21875 56 33.015625 56 
Q 37.15625 56 41.109375 55.140625 
Q 45.0625 54.296875 48.78125 52.59375 
z
" id="DejaVuSans-99"/>
      <path d="M 9.421875 75.984375 
L 18.40625 75.984375 
L 18.40625 0 
L 9.421875 0 
z
" id="DejaVuSans-108"/>
      <path d="M 54.890625 33.015625 
L 54.890625 0 
L 45.90625 0 
L 45.90625 32.71875 
Q 45.90625 40.484375 42.875 44.328125 
Q 39.84375 48.1875 33.796875 48.1875 
Q 26.515625 48.1875 22.3125 43.546875 
Q 18.109375 38.921875 18.109375 30.90625 
L 18.109375 0 
L 9.078125 0 
L 9.078125 54.6875 
L 18.109375 54.6875 
L 18.109375 46.1875 
Q 21.34375 51.125 25.703125 53.5625 
Q 30.078125 56 35.796875 56 
Q 45.21875 56 50.046875 50.171875 
Q 54.890625 44.34375 54.890625 33.015625 
z
" id="DejaVuSans-110"/>
      <path d="M 8.5 21.578125 
L 8.5 54.6875 
L 17.484375 54.6875 
L 17.484375 21.921875 
Q 17.484375 14.15625 20.5 10.265625 
Q 23.53125 6.390625 29.59375 6.390625 
Q 36.859375 6.390625 41.078125 11.03125 
Q 45.3125 15.671875 45.3125 23.6875 
L 45.3125 54.6875 
L 54.296875 54.6875 
L 54.296875 0 
L 45.3125 0 
L 45.3125 8.40625 
Q 42.046875 3.421875 37.71875 1 
Q 33.40625 -1.421875 27.6875 -1.421875 
Q 18.265625 -1.421875 13.375 4.4375 
Q 8.5 10.296875 8.5 21.578125 
z
M 31.109375 56 
z
" id="DejaVuSans-117"/>
      <path d="M 48.6875 27.296875 
Q 48.6875 37.203125 44.609375 42.84375 
Q 40.53125 48.484375 33.40625 48.484375 
Q 26.265625 48.484375 22.1875 42.84375 
Q 18.109375 37.203125 18.109375 27.296875 
Q 18.109375 17.390625 22.1875 11.75 
Q 26.265625 6.109375 33.40625 6.109375 
Q 40.53125 6.109375 44.609375 11.75 
Q 48.6875 17.390625 48.6875 27.296875 
z
M 18.109375 46.390625 
Q 20.953125 51.265625 25.265625 53.625 
Q 29.59375 56 35.59375 56 
Q 45.5625 56 51.78125 48.09375 
Q 58.015625 40.1875 58.015625 27.296875 
Q 58.015625 14.40625 51.78125 6.484375 
Q 45.5625 -1.421875 35.59375 -1.421875 
Q 29.59375 -1.421875 25.265625 0.953125 
Q 20.953125 3.328125 18.109375 8.203125 
L 18.109375 0 
L 9.078125 0 
L 9.078125 75.984375 
L 18.109375 75.984375 
z
" id="DejaVuSans-98"/>
      <path d="M 41.109375 46.296875 
Q 39.59375 47.171875 37.8125 47.578125 
Q 36.03125 48 33.890625 48 
Q 26.265625 48 22.1875 43.046875 
Q 18.109375 38.09375 18.109375 28.8125 
L 18.109375 0 
L 9.078125 0 
L 9.078125 54.6875 
L 18.109375 54.6875 
L 18.109375 46.1875 
Q 20.953125 51.171875 25.484375 53.578125 
Q 30.03125 56 36.53125 56 
Q 37.453125 56 38.578125 55.875 
Q 39.703125 55.765625 41.0625 55.515625 
z
" id="DejaVuSans-114"/>
     </defs>
     <g style="fill:#262626;" transform="translate(14.798438 187.685844)rotate(-90)scale(0.1 -0.1)">
      <use xlink:href="#DejaVuSans-99"/>
      <use x="54.980469" xlink:href="#DejaVuSans-101"/>
      <use x="116.503906" xlink:href="#DejaVuSans-108"/>
      <use x="144.287109" xlink:href="#DejaVuSans-108"/>
      <use x="172.070312" xlink:href="#DejaVuSans-115"/>
      <use x="224.169922" xlink:href="#DejaVuSans-32"/>
      <use x="255.957031" xlink:href="#DejaVuSans-110"/>
      <use x="319.335938" xlink:href="#DejaVuSans-117"/>
      <use x="382.714844" xlink:href="#DejaVuSans-109"/>
      <use x="480.126953" xlink:href="#DejaVuSans-98"/>
      <use x="543.603516" xlink:href="#DejaVuSans-101"/>
      <use x="605.126953" xlink:href="#DejaVuSans-114"/>
     </g>
    </g>
   </g>
   <g id="line2d_16">
    <path clip-path="url(#pc725863c83)" d="M 56.835852 276.334125 
L 85.51367 276.334125 
L 86.054761 273.064936 
L 90.383489 273.064936 
L 90.92458 269.795747 
L 93.088943 269.795747 
L 93.630034 266.526557 
L 104.992943 266.526557 
L 105.534034 263.257368 
L 109.32167 263.257368 
L 109.862761 259.988179 
L 113.650398 259.988179 
L 114.191489 256.71899 
L 115.814761 256.71899 
L 116.355852 253.449801 
L 117.438034 253.449801 
L 117.979125 250.180611 
L 121.766761 250.180611 
L 122.307852 246.911422 
L 125.013307 246.911422 
L 125.554398 243.642233 
L 128.259852 243.642233 
L 128.800943 240.373044 
L 135.835125 240.373044 
L 136.376216 237.103855 
L 139.08167 237.103855 
L 139.622761 233.834666 
L 142.869307 233.834666 
L 143.410398 230.565476 
L 148.821307 230.565476 
L 149.362398 227.296287 
L 153.150034 227.296287 
L 153.691125 224.027098 
L 161.807489 224.027098 
L 162.34858 220.757909 
L 166.677307 220.757909 
L 167.218398 217.48872 
L 168.84167 217.48872 
L 169.923852 210.950341 
L 176.416943 210.950341 
L 176.958034 204.411963 
L 177.499125 204.411963 
L 178.040216 201.142774 
L 178.581307 201.142774 
L 179.122398 197.873584 
L 180.20458 197.873584 
L 180.74567 194.604395 
L 182.368943 194.604395 
L 182.910034 191.335206 
L 185.074398 191.335206 
L 185.615489 188.066017 
L 186.69767 188.066017 
L 187.238761 184.796828 
L 195.355125 184.796828 
L 195.896216 181.527639 
L 203.471489 181.527639 
L 204.01258 178.258449 
L 206.176943 178.258449 
L 206.718034 174.98926 
L 211.046761 174.98926 
L 211.587852 168.450882 
L 217.539852 168.450882 
L 218.080943 165.181693 
L 237.560216 165.181693 
L 238.101307 161.912503 
L 244.594398 161.912503 
L 245.135489 158.643314 
L 255.957307 158.643314 
L 256.498398 155.374125 
L 266.238034 155.374125 
L 266.779125 152.104936 
L 288.963852 152.104936 
L 289.504943 148.835747 
L 291.128216 148.835747 
L 292.210398 142.297368 
L 294.374761 142.297368 
L 294.915852 135.75899 
L 300.867852 135.75899 
L 301.408943 132.489801 
L 308.443125 132.489801 
L 308.984216 129.220611 
L 312.771852 129.220611 
L 313.312943 125.951422 
L 318.723852 125.951422 
L 319.264943 122.682233 
L 330.627852 122.682233 
L 331.168943 119.413044 
L 381.490398 119.413044 
L 381.490398 119.413044 
" style="fill:none;stroke:#000080;stroke-linecap:round;stroke-width:1.5;"/>
   </g>
   <g id="line2d_17">
    <path clip-path="url(#pc725863c83)" d="M 56.835852 276.334125 
L 81.726034 276.334125 
L 82.267125 273.064936 
L 84.431489 273.064936 
L 84.97258 269.795747 
L 90.383489 269.795747 
L 90.92458 266.526557 
L 97.41767 266.526557 
L 97.958761 263.257368 
L 98.499852 263.257368 
L 99.040943 259.988179 
L 104.451852 259.988179 
L 104.992943 256.71899 
L 112.027125 256.71899 
L 112.568216 250.180611 
L 114.73258 250.180611 
L 115.27367 246.911422 
L 115.814761 246.911422 
L 116.355852 243.642233 
L 116.896943 243.642233 
L 117.979125 237.103855 
L 120.143489 237.103855 
L 120.68458 233.834666 
L 125.554398 233.834666 
L 126.095489 230.565476 
L 128.259852 230.565476 
L 128.800943 227.296287 
L 137.999489 227.296287 
L 138.54058 224.027098 
L 139.622761 224.027098 
L 140.704943 217.48872 
L 145.574761 217.48872 
L 146.115852 214.21953 
L 153.150034 214.21953 
L 153.691125 210.950341 
L 156.93767 210.950341 
L 158.019852 204.411963 
L 160.725307 204.411963 
L 161.266398 201.142774 
L 162.34858 201.142774 
L 162.88967 197.873584 
L 164.512943 197.873584 
L 165.054034 194.604395 
L 167.759489 194.604395 
L 168.30058 191.335206 
L 172.629307 191.335206 
L 173.170398 188.066017 
L 174.25258 188.066017 
L 174.79367 184.796828 
L 175.875852 184.796828 
L 176.416943 181.527639 
L 178.581307 181.527639 
L 179.122398 178.258449 
L 180.20458 178.258449 
L 181.827852 168.450882 
L 187.238761 168.450882 
L 187.779852 165.181693 
L 189.403125 165.181693 
L 189.944216 161.912503 
L 201.848216 161.912503 
L 202.389307 158.643314 
L 222.40967 158.643314 
L 222.950761 155.374125 
L 225.656216 155.374125 
L 226.197307 152.104936 
L 227.279489 152.104936 
L 227.82058 148.835747 
L 228.902761 148.835747 
L 229.984943 142.297368 
L 230.526034 142.297368 
L 231.067125 139.028179 
L 237.560216 139.028179 
L 238.101307 135.75899 
L 240.806761 135.75899 
L 241.347852 132.489801 
L 244.594398 132.489801 
L 245.135489 129.220611 
L 245.67658 129.220611 
L 246.21767 125.951422 
L 247.299852 125.951422 
L 247.840943 119.413044 
L 248.382034 116.143855 
L 250.546398 116.143855 
L 251.087489 112.874666 
L 253.251852 112.874666 
L 253.792943 106.336287 
L 255.957307 106.336287 
L 256.498398 103.067098 
L 262.450398 103.067098 
L 262.991489 99.797909 
L 263.53258 99.797909 
L 264.07367 96.52872 
L 265.155852 96.52872 
L 265.696943 93.25953 
L 268.943489 93.25953 
L 269.48458 89.990341 
L 270.02567 89.990341 
L 270.566761 86.721152 
L 283.011852 86.721152 
L 283.552943 83.451963 
L 284.094034 83.451963 
L 284.635125 80.182774 
L 293.29258 80.182774 
L 293.83367 76.913584 
L 313.854034 76.913584 
L 314.395125 73.644395 
L 318.182761 73.644395 
L 318.723852 70.375206 
L 320.888216 70.375206 
L 321.429307 67.106017 
L 323.05258 67.106017 
L 324.134761 60.567639 
L 326.840216 60.567639 
L 327.381307 57.298449 
L 330.086761 57.298449 
L 331.168943 50.760071 
L 337.120943 50.760071 
L 337.662034 47.490882 
L 338.203125 47.490882 
L 338.744216 44.221693 
L 339.285307 44.221693 
L 339.826398 37.683314 
L 342.531852 37.683314 
L 343.072943 34.414125 
L 381.490398 34.414125 
L 381.490398 34.414125 
" style="fill:none;stroke:#0000f1;stroke-linecap:round;stroke-width:1.5;"/>
   </g>
   <g id="line2d_18">
    <path clip-path="url(#pc725863c83)" d="M 56.835852 276.334125 
L 88.219125 276.334125 
L 88.760216 273.064936 
L 89.301307 266.526557 
L 90.92458 266.526557 
L 91.46567 263.257368 
L 92.547852 263.257368 
L 93.088943 253.449801 
L 95.253307 253.449801 
L 95.794398 250.180611 
L 96.335489 250.180611 
L 96.87658 246.911422 
L 100.123125 246.911422 
L 101.205307 240.373044 
L 105.534034 240.373044 
L 107.157307 230.565476 
L 115.814761 230.565476 
L 116.896943 224.027098 
L 120.68458 224.027098 
L 121.22567 220.757909 
L 123.931125 220.757909 
L 124.472216 217.48872 
L 128.259852 217.48872 
L 128.800943 214.21953 
L 140.163852 214.21953 
L 140.704943 210.950341 
L 143.410398 210.950341 
L 143.951489 207.681152 
L 144.49258 207.681152 
L 145.03367 204.411963 
L 147.198034 204.411963 
L 147.739125 201.142774 
L 150.44458 201.142774 
L 152.067852 191.335206 
L 156.93767 191.335206 
L 157.478761 188.066017 
L 160.184216 188.066017 
L 161.266398 181.527639 
L 165.595125 181.527639 
L 166.136216 178.258449 
L 173.711489 178.258449 
L 174.25258 174.98926 
L 175.875852 174.98926 
L 176.416943 171.720071 
L 177.499125 171.720071 
L 178.040216 168.450882 
L 180.74567 168.450882 
L 181.827852 161.912503 
L 191.567489 161.912503 
L 192.10858 158.643314 
L 192.64967 158.643314 
L 193.190761 155.374125 
L 196.437307 155.374125 
L 197.519489 148.835747 
L 199.142761 148.835747 
L 199.683852 145.566557 
L 201.307125 145.566557 
L 201.848216 142.297368 
L 207.259125 142.297368 
L 207.800216 139.028179 
L 250.005307 139.028179 
L 250.546398 142.297368 
L 381.490398 142.297368 
L 381.490398 142.297368 
" style="fill:none;stroke:#004cff;stroke-linecap:round;stroke-width:1.5;"/>
   </g>
   <g id="line2d_19">
    <path clip-path="url(#pc725863c83)" d="M 56.835852 276.334125 
L 79.02058 276.334125 
L 79.56167 273.064936 
L 87.678034 273.064936 
L 88.219125 269.795747 
L 91.46567 269.795747 
L 93.630034 256.71899 
L 96.335489 256.71899 
L 96.87658 253.449801 
L 100.664216 253.449801 
L 101.205307 246.911422 
L 103.910761 246.911422 
L 104.451852 243.642233 
L 107.698398 243.642233 
L 108.239489 237.103855 
L 114.191489 237.103855 
L 114.73258 233.834666 
L 115.27367 233.834666 
L 116.355852 227.296287 
L 119.602398 227.296287 
L 120.68458 220.757909 
L 132.047489 220.757909 
L 133.12967 214.21953 
L 135.835125 214.21953 
L 136.376216 210.950341 
L 142.328216 210.950341 
L 142.869307 207.681152 
L 158.019852 207.681152 
L 158.560943 210.950341 
L 372.291852 210.950341 
L 372.832943 214.21953 
L 381.490398 214.21953 
L 381.490398 214.21953 
" style="fill:none;stroke:#00b0ff;stroke-linecap:round;stroke-width:1.5;"/>
   </g>
   <g id="line2d_20">
    <path clip-path="url(#pc725863c83)" d="M 56.835852 276.334125 
L 80.643852 276.334125 
L 81.184943 273.064936 
L 81.726034 273.064936 
L 82.267125 269.795747 
L 95.253307 269.795747 
L 95.794398 266.526557 
L 97.41767 266.526557 
L 97.958761 263.257368 
L 99.582034 263.257368 
L 100.664216 256.71899 
L 101.205307 256.71899 
L 101.746398 253.449801 
L 102.82858 253.449801 
L 103.36967 250.180611 
L 107.698398 250.180611 
L 108.239489 246.911422 
L 109.32167 246.911422 
L 109.862761 243.642233 
L 112.027125 243.642233 
L 112.568216 240.373044 
L 113.109307 240.373044 
L 113.650398 237.103855 
L 116.896943 237.103855 
L 117.438034 233.834666 
L 119.602398 233.834666 
L 120.68458 227.296287 
L 122.307852 227.296287 
L 123.390034 220.757909 
L 124.472216 220.757909 
L 125.013307 214.21953 
L 127.718761 214.21953 
L 128.259852 210.950341 
L 132.047489 210.950341 
L 133.12967 204.411963 
L 144.49258 204.411963 
L 145.03367 201.142774 
L 151.526761 201.142774 
L 152.067852 197.873584 
L 153.150034 197.873584 
L 153.691125 191.335206 
L 157.478761 191.335206 
L 158.019852 188.066017 
L 169.382761 188.066017 
L 169.923852 184.796828 
L 175.334761 184.796828 
L 175.875852 181.527639 
L 183.992216 181.527639 
L 184.533307 178.258449 
L 195.355125 178.258449 
L 195.896216 174.98926 
L 199.142761 174.98926 
L 199.683852 171.720071 
L 201.307125 171.720071 
L 201.848216 168.450882 
L 203.471489 168.450882 
L 204.01258 165.181693 
L 206.176943 165.181693 
L 206.718034 161.912503 
L 221.327489 161.912503 
L 221.86858 155.374125 
L 222.950761 155.374125 
L 223.491852 158.643314 
L 224.574034 158.643314 
L 225.115125 155.374125 
L 228.902761 155.374125 
L 229.443852 152.104936 
L 230.526034 152.104936 
L 231.067125 148.835747 
L 232.690398 148.835747 
L 233.77258 142.297368 
L 238.642398 142.297368 
L 239.183489 139.028179 
L 242.430034 139.028179 
L 242.971125 135.75899 
L 247.840943 135.75899 
L 248.382034 132.489801 
L 265.696943 132.489801 
L 266.238034 129.220611 
L 284.635125 129.220611 
L 285.176216 125.951422 
L 288.422761 125.951422 
L 288.963852 122.682233 
L 294.915852 122.682233 
L 295.456943 116.143855 
L 297.621307 116.143855 
L 298.162398 112.874666 
L 303.573307 112.874666 
L 304.114398 109.605476 
L 312.771852 109.605476 
L 313.312943 106.336287 
L 381.490398 106.336287 
L 381.490398 106.336287 
" style="fill:none;stroke:#29ffce;stroke-linecap:round;stroke-width:1.5;"/>
   </g>
   <g id="line2d_21">
    <path clip-path="url(#pc725863c83)" d="M 56.835852 276.334125 
L 87.678034 276.334125 
L 88.219125 269.795747 
L 88.760216 266.526557 
L 89.301307 266.526557 
L 89.842398 263.257368 
L 94.712216 263.257368 
L 95.253307 259.988179 
L 97.41767 259.988179 
L 97.958761 256.71899 
L 106.616216 256.71899 
L 107.157307 253.449801 
L 110.403852 253.449801 
L 110.944943 250.180611 
L 113.650398 250.180611 
L 114.191489 246.911422 
L 117.979125 246.911422 
L 118.520216 243.642233 
L 121.766761 243.642233 
L 122.307852 240.373044 
L 123.390034 240.373044 
L 123.931125 237.103855 
L 126.63658 237.103855 
L 127.17767 233.834666 
L 132.58858 233.834666 
L 133.12967 230.565476 
L 143.410398 230.565476 
L 143.951489 227.296287 
L 145.03367 227.296287 
L 145.574761 224.027098 
L 146.115852 224.027098 
L 146.656943 220.757909 
L 148.280216 220.757909 
L 148.821307 217.48872 
L 149.903489 217.48872 
L 150.44458 214.21953 
L 151.526761 214.21953 
L 152.067852 210.950341 
L 152.608943 204.411963 
L 156.39658 204.411963 
L 156.93767 201.142774 
L 158.560943 201.142774 
L 159.102034 194.604395 
L 160.184216 194.604395 
L 160.725307 191.335206 
L 162.88967 191.335206 
L 163.430761 188.066017 
L 163.971852 188.066017 
L 164.512943 184.796828 
L 166.136216 184.796828 
L 166.677307 181.527639 
L 176.416943 181.527639 
L 177.499125 174.98926 
L 179.122398 174.98926 
L 179.663489 171.720071 
L 195.355125 171.720071 
L 195.896216 168.450882 
L 198.60167 168.450882 
L 199.142761 165.181693 
L 200.766034 165.181693 
L 201.307125 161.912503 
L 202.389307 161.912503 
L 202.930398 155.374125 
L 203.471489 155.374125 
L 204.01258 152.104936 
L 204.55367 152.104936 
L 205.094761 148.835747 
L 207.259125 148.835747 
L 208.341307 142.297368 
L 216.998761 142.297368 
L 217.539852 139.028179 
L 224.574034 139.028179 
L 225.115125 135.75899 
L 228.36167 135.75899 
L 229.443852 129.220611 
L 238.642398 129.220611 
L 239.183489 125.951422 
L 241.888943 125.951422 
L 242.430034 129.220611 
L 243.512216 129.220611 
L 244.053307 125.951422 
L 250.546398 125.951422 
L 251.62858 119.413044 
L 257.58058 119.413044 
L 258.12167 116.143855 
L 259.744943 116.143855 
L 260.286034 112.874666 
L 270.02567 112.874666 
L 270.566761 116.143855 
L 271.648943 116.143855 
L 272.190034 112.874666 
L 272.731125 112.874666 
L 273.272216 109.605476 
L 274.895489 109.605476 
L 275.97767 103.067098 
L 277.600943 103.067098 
L 278.683125 96.52872 
L 281.38858 96.52872 
L 281.92967 93.25953 
L 294.374761 93.25953 
L 294.915852 89.990341 
L 297.621307 89.990341 
L 298.162398 86.721152 
L 299.24458 86.721152 
L 299.78567 83.451963 
L 303.032216 83.451963 
L 303.573307 80.182774 
L 305.73767 80.182774 
L 306.278761 76.913584 
L 310.066398 76.913584 
L 310.607489 73.644395 
L 316.018398 73.644395 
L 316.559489 70.375206 
L 381.490398 70.375206 
L 381.490398 70.375206 
" style="fill:none;stroke:#7dff7a;stroke-linecap:round;stroke-width:1.5;"/>
   </g>
   <g id="line2d_22">
    <path clip-path="url(#pc725863c83)" d="M 56.835852 276.334125 
L 84.431489 276.334125 
L 84.97258 273.064936 
L 87.136943 273.064936 
L 87.678034 269.795747 
L 90.383489 269.795747 
L 90.92458 266.526557 
L 94.171125 266.526557 
L 95.253307 259.988179 
L 98.499852 259.988179 
L 99.040943 256.71899 
L 103.36967 256.71899 
L 103.910761 250.180611 
L 112.027125 250.180611 
L 112.568216 246.911422 
L 113.650398 246.911422 
L 114.191489 243.642233 
L 114.73258 243.642233 
L 115.27367 240.373044 
L 120.143489 240.373044 
L 121.22567 233.834666 
L 126.095489 233.834666 
L 126.63658 230.565476 
L 127.718761 230.565476 
L 128.259852 227.296287 
L 128.800943 227.296287 
L 129.342034 224.027098 
L 133.670761 224.027098 
L 134.211852 217.48872 
L 136.917307 217.48872 
L 137.458398 214.21953 
L 139.08167 214.21953 
L 139.622761 210.950341 
L 147.198034 210.950341 
L 147.739125 207.681152 
L 161.266398 207.681152 
L 161.807489 210.950341 
L 162.88967 210.950341 
L 163.430761 207.681152 
L 168.30058 207.681152 
L 168.84167 204.411963 
L 180.74567 204.411963 
L 181.286761 201.142774 
L 183.992216 201.142774 
L 184.533307 197.873584 
L 186.69767 197.873584 
L 187.238761 191.335206 
L 203.471489 191.335206 
L 204.01258 188.066017 
L 207.800216 188.066017 
L 208.882398 181.527639 
L 209.423489 184.796828 
L 222.40967 184.796828 
L 222.950761 181.527639 
L 227.279489 181.527639 
L 227.82058 178.258449 
L 233.231489 178.258449 
L 233.77258 171.720071 
L 243.512216 171.720071 
L 244.053307 168.450882 
L 249.464216 168.450882 
L 250.005307 165.181693 
L 251.62858 165.181693 
L 252.16967 161.912503 
L 259.203852 161.912503 
L 259.744943 158.643314 
L 261.909307 158.643314 
L 262.450398 155.374125 
L 269.48458 155.374125 
L 270.02567 152.104936 
L 276.518761 152.104936 
L 277.059852 148.835747 
L 281.92967 148.835747 
L 282.470761 145.566557 
L 283.011852 145.566557 
L 283.552943 142.297368 
L 284.094034 142.297368 
L 284.635125 139.028179 
L 286.799489 139.028179 
L 287.34058 135.75899 
L 298.703489 135.75899 
L 299.24458 132.489801 
L 301.408943 132.489801 
L 301.950034 129.220611 
L 305.73767 129.220611 
L 306.278761 125.951422 
L 308.443125 125.951422 
L 308.984216 122.682233 
L 310.066398 122.682233 
L 310.607489 119.413044 
L 313.854034 119.413044 
L 314.395125 116.143855 
L 314.936216 116.143855 
L 315.477307 112.874666 
L 319.264943 112.874666 
L 319.806034 109.605476 
L 321.970398 109.605476 
L 322.511489 106.336287 
L 324.675852 106.336287 
L 325.216943 103.067098 
L 329.00458 103.067098 
L 329.54567 99.797909 
L 331.710034 99.797909 
L 332.251125 96.52872 
L 335.49767 96.52872 
L 336.038761 93.25953 
L 340.367489 93.25953 
L 340.90858 89.990341 
L 344.696216 89.990341 
L 345.237307 86.721152 
L 345.778398 86.721152 
L 346.319489 83.451963 
L 349.566034 83.451963 
L 350.107125 80.182774 
L 351.730398 80.182774 
L 352.271489 73.644395 
L 355.518034 73.644395 
L 356.059125 70.375206 
L 356.600216 70.375206 
L 357.141307 63.836828 
L 363.634398 63.836828 
L 364.175489 60.567639 
L 367.422034 60.567639 
L 367.963125 57.298449 
L 376.62058 57.298449 
L 377.16167 54.02926 
L 381.490398 54.02926 
L 381.490398 54.02926 
" style="fill:none;stroke:#ceff29;stroke-linecap:round;stroke-width:1.5;"/>
   </g>
   <g id="line2d_23">
    <path clip-path="url(#pc725863c83)" d="M 56.835852 276.334125 
L 89.301307 276.334125 
L 89.842398 273.064936 
L 111.486034 273.064936 
L 112.568216 266.526557 
L 120.143489 266.526557 
L 120.68458 263.257368 
L 144.49258 263.257368 
L 145.03367 259.988179 
L 148.821307 259.988179 
L 149.362398 256.71899 
L 156.39658 256.71899 
L 156.93767 250.180611 
L 157.478761 250.180611 
L 158.560943 243.642233 
L 176.416943 243.642233 
L 176.958034 240.373044 
L 181.827852 240.373044 
L 182.368943 237.103855 
L 189.403125 237.103855 
L 189.944216 233.834666 
L 196.437307 233.834666 
L 196.978398 230.565476 
L 202.389307 230.565476 
L 202.930398 227.296287 
L 205.094761 227.296287 
L 205.635852 224.027098 
L 208.341307 224.027098 
L 208.882398 220.757909 
L 210.50567 220.757909 
L 211.046761 217.48872 
L 214.834398 217.48872 
L 215.375489 214.21953 
L 220.786398 214.21953 
L 221.327489 210.950341 
L 226.738398 210.950341 
L 227.279489 207.681152 
L 244.594398 207.681152 
L 245.135489 204.411963 
L 245.67658 204.411963 
L 246.758761 197.873584 
L 248.923125 197.873584 
L 249.464216 194.604395 
L 253.251852 194.604395 
L 253.792943 191.335206 
L 255.957307 191.335206 
L 256.498398 188.066017 
L 258.662761 188.066017 
L 259.203852 184.796828 
L 259.744943 184.796828 
L 260.286034 181.527639 
L 262.991489 181.527639 
L 263.53258 184.796828 
L 264.614761 184.796828 
L 265.155852 181.527639 
L 265.696943 181.527639 
L 266.238034 178.258449 
L 266.779125 178.258449 
L 267.320216 174.98926 
L 269.48458 174.98926 
L 270.02567 171.720071 
L 271.107852 171.720071 
L 271.648943 168.450882 
L 272.190034 168.450882 
L 272.731125 165.181693 
L 275.43658 165.181693 
L 275.97767 161.912503 
L 285.176216 161.912503 
L 285.717307 158.643314 
L 286.258398 158.643314 
L 286.799489 155.374125 
L 287.34058 155.374125 
L 287.88167 148.835747 
L 290.046034 148.835747 
L 290.587125 145.566557 
L 292.210398 145.566557 
L 292.751489 142.297368 
L 295.456943 142.297368 
L 295.998034 139.028179 
L 296.539125 139.028179 
L 297.080216 135.75899 
L 326.840216 135.75899 
L 327.381307 132.489801 
L 329.00458 132.489801 
L 329.54567 129.220611 
L 333.874398 129.220611 
L 334.415489 125.951422 
L 334.95658 125.951422 
L 335.49767 122.682233 
L 336.038761 122.682233 
L 336.579852 119.413044 
L 355.518034 119.413044 
L 356.059125 116.143855 
L 381.490398 116.143855 
L 381.490398 116.143855 
" style="fill:none;stroke:#ffc400;stroke-linecap:round;stroke-width:1.5;"/>
   </g>
   <g id="line2d_24">
    <path clip-path="url(#pc725863c83)" d="M 56.835852 276.334125 
L 68.739852 276.334125 
L 69.280943 273.064936 
L 77.397307 273.064936 
L 77.938398 269.795747 
L 86.595852 269.795747 
L 87.136943 266.526557 
L 87.678034 266.526557 
L 88.219125 263.257368 
L 94.712216 263.257368 
L 95.794398 256.71899 
L 107.698398 256.71899 
L 108.239489 253.449801 
L 108.78058 246.911422 
L 109.32167 246.911422 
L 109.862761 243.642233 
L 112.568216 243.642233 
L 113.109307 240.373044 
L 118.520216 240.373044 
L 119.602398 233.834666 
L 121.22567 233.834666 
L 121.766761 230.565476 
L 123.390034 230.565476 
L 123.931125 227.296287 
L 125.013307 227.296287 
L 125.554398 224.027098 
L 126.095489 224.027098 
L 126.63658 220.757909 
L 130.965307 220.757909 
L 131.506398 217.48872 
L 133.12967 217.48872 
L 133.670761 210.950341 
L 139.08167 210.950341 
L 139.622761 207.681152 
L 145.574761 207.681152 
L 146.115852 204.411963 
L 149.903489 204.411963 
L 150.44458 201.142774 
L 153.150034 201.142774 
L 153.691125 197.873584 
L 155.855489 197.873584 
L 156.39658 194.604395 
L 157.478761 194.604395 
L 158.019852 188.066017 
L 158.560943 184.796828 
L 163.430761 184.796828 
L 163.971852 181.527639 
L 166.677307 181.527639 
L 167.218398 178.258449 
L 173.711489 178.258449 
L 174.25258 171.720071 
L 188.862034 171.720071 
L 189.403125 168.450882 
L 194.814034 168.450882 
L 195.355125 165.181693 
L 216.45767 165.181693 
L 217.539852 158.643314 
L 227.82058 158.643314 
L 228.36167 155.374125 
L 230.526034 155.374125 
L 231.067125 158.643314 
L 232.690398 158.643314 
L 233.231489 155.374125 
L 240.26567 155.374125 
L 240.806761 148.835747 
L 241.347852 148.835747 
L 241.888943 145.566557 
L 245.135489 145.566557 
L 245.67658 142.297368 
L 246.758761 142.297368 
L 247.840943 135.75899 
L 248.382034 135.75899 
L 248.923125 132.489801 
L 261.909307 132.489801 
L 262.450398 129.220611 
L 272.190034 129.220611 
L 272.731125 125.951422 
L 275.97767 125.951422 
L 276.518761 122.682233 
L 277.059852 122.682233 
L 277.600943 119.413044 
L 288.963852 119.413044 
L 289.504943 116.143855 
L 290.046034 116.143855 
L 290.587125 112.874666 
L 300.326761 112.874666 
L 300.867852 109.605476 
L 307.360943 109.605476 
L 307.902034 106.336287 
L 381.490398 106.336287 
L 381.490398 106.336287 
" style="fill:none;stroke:#ff6800;stroke-linecap:round;stroke-width:1.5;"/>
   </g>
   <g id="line2d_25">
    <path clip-path="url(#pc725863c83)" d="M 56.835852 276.334125 
L 71.986398 276.334125 
L 72.527489 273.064936 
L 94.712216 273.064936 
L 95.253307 269.795747 
L 99.582034 269.795747 
L 100.123125 266.526557 
L 108.78058 266.526557 
L 109.32167 263.257368 
L 112.027125 263.257368 
L 112.568216 259.988179 
L 123.931125 259.988179 
L 124.472216 256.71899 
L 149.903489 256.71899 
L 150.44458 253.449801 
L 381.490398 253.449801 
L 381.490398 253.449801 
" style="fill:none;stroke:#f10800;stroke-linecap:round;stroke-width:1.5;"/>
   </g>
   <g id="patch_3">
    <path d="M 40.603125 288.430125 
L 40.603125 22.318125 
" style="fill:none;stroke:#cccccc;stroke-linecap:square;stroke-linejoin:miter;stroke-width:0.8;"/>
   </g>
   <g id="patch_4">
    <path d="M 397.723125 288.430125 
L 397.723125 22.318125 
" style="fill:none;stroke:#cccccc;stroke-linecap:square;stroke-linejoin:miter;stroke-width:0.8;"/>
   </g>
   <g id="patch_5">
    <path d="M 40.603125 288.430125 
L 397.723125 288.430125 
" style="fill:none;stroke:#cccccc;stroke-linecap:square;stroke-linejoin:miter;stroke-width:0.8;"/>
   </g>
   <g id="patch_6">
    <path d="M 40.603125 22.318125 
L 397.723125 22.318125 
" style="fill:none;stroke:#cccccc;stroke-linecap:square;stroke-linejoin:miter;stroke-width:0.8;"/>
   </g>
   <g id="text_18">
    <!-- B memory cell -->
    <defs>
     <path d="M 19.671875 34.8125 
L 19.671875 8.109375 
L 35.5 8.109375 
Q 43.453125 8.109375 47.28125 11.40625 
Q 51.125 14.703125 51.125 21.484375 
Q 51.125 28.328125 47.28125 31.5625 
Q 43.453125 34.8125 35.5 34.8125 
z
M 19.671875 64.796875 
L 19.671875 42.828125 
L 34.28125 42.828125 
Q 41.5 42.828125 45.03125 45.53125 
Q 48.578125 48.25 48.578125 53.8125 
Q 48.578125 59.328125 45.03125 62.0625 
Q 41.5 64.796875 34.28125 64.796875 
z
M 9.8125 72.90625 
L 35.015625 72.90625 
Q 46.296875 72.90625 52.390625 68.21875 
Q 58.5 63.53125 58.5 54.890625 
Q 58.5 48.1875 55.375 44.234375 
Q 52.25 40.28125 46.1875 39.3125 
Q 53.46875 37.75 57.5 32.78125 
Q 61.53125 27.828125 61.53125 20.40625 
Q 61.53125 10.640625 54.890625 5.3125 
Q 48.25 0 35.984375 0 
L 9.8125 0 
z
" id="DejaVuSans-66"/>
     <path d="M 30.609375 48.390625 
Q 23.390625 48.390625 19.1875 42.75 
Q 14.984375 37.109375 14.984375 27.296875 
Q 14.984375 17.484375 19.15625 11.84375 
Q 23.34375 6.203125 30.609375 6.203125 
Q 37.796875 6.203125 41.984375 11.859375 
Q 46.1875 17.53125 46.1875 27.296875 
Q 46.1875 37.015625 41.984375 42.703125 
Q 37.796875 48.390625 30.609375 48.390625 
z
M 30.609375 56 
Q 42.328125 56 49.015625 48.375 
Q 55.71875 40.765625 55.71875 27.296875 
Q 55.71875 13.875 49.015625 6.21875 
Q 42.328125 -1.421875 30.609375 -1.421875 
Q 18.84375 -1.421875 12.171875 6.21875 
Q 5.515625 13.875 5.515625 27.296875 
Q 5.515625 40.765625 12.171875 48.375 
Q 18.84375 56 30.609375 56 
z
" id="DejaVuSans-111"/>
    </defs>
    <g style="fill:#262626;" transform="translate(175.838437 16.318125)scale(0.12 -0.12)">
     <use xlink:href="#DejaVuSans-66"/>
     <use x="68.603516" xlink:href="#DejaVuSans-32"/>
     <use x="100.390625" xlink:href="#DejaVuSans-109"/>
     <use x="197.802734" xlink:href="#DejaVuSans-101"/>
     <use x="259.326172" xlink:href="#DejaVuSans-109"/>
     <use x="356.738281" xlink:href="#DejaVuSans-111"/>
     <use x="417.919922" xlink:href="#DejaVuSans-114"/>
     <use x="459.033203" xlink:href="#DejaVuSans-121"/>
     <use x="518.212891" xlink:href="#DejaVuSans-32"/>
     <use x="550" xlink:href="#DejaVuSans-99"/>
     <use x="604.980469" xlink:href="#DejaVuSans-101"/>
     <use x="666.503906" xlink:href="#DejaVuSans-108"/>
     <use x="694.287109" xlink:href="#DejaVuSans-108"/>
    </g>
   </g>
  </g>
 </g>
 <defs>
  <clipPath id="pc725863c83">
   <rect height="266.112" width="357.12" x="40.603125" y="22.318125"/>
  </clipPath>
 </defs>
</svg>
