<?xml version="1.0" encoding="utf-8" standalone="no"?>
<!DOCTYPE svg PUBLIC "-//W3C//DTD SVG 1.1//EN"
  "http://www.w3.org/Graphics/SVG/1.1/DTD/svg11.dtd">
<!-- Created with matplotlib (https://matplotlib.org/) -->
<svg height="325.986375pt" version="1.1" viewBox="0 0 404.923125 325.986375" width="404.923125pt" xmlns="http://www.w3.org/2000/svg" xmlns:xlink="http://www.w3.org/1999/xlink">
 <defs>
  <style type="text/css">
*{stroke-linecap:butt;stroke-linejoin:round;white-space:pre;}
  </style>
 </defs>
 <g id="figure_1">
  <g id="patch_1">
   <path d="M 0 325.986375 
L 404.923125 325.986375 
L 404.923125 0 
L 0 0 
z
" style="fill:#ffffff;"/>
  </g>
  <g id="axes_1">
   <g id="patch_2">
    <path d="M 40.603125 288.430125 
L 397.723125 288.430125 
L 397.723125 22.318125 
L 40.603125 22.318125 
z
" style="fill:#ffffff;"/>
   </g>
   <g id="matplotlib.axis_1">
    <g id="xtick_1">
     <g id="line2d_1">
      <path clip-path="url(#p01fc660d7c)" d="M 56.835852 288.430125 
L 56.835852 22.318125 
" style="fill:none;stroke:#cccccc;stroke-linecap:round;stroke-width:0.8;"/>
     </g>
     <g id="text_1">
      <!-- 0 -->
      <defs>
       <path d="M 31.78125 66.40625 
Q 24.171875 66.40625 20.328125 58.90625 
Q 16.5 51.421875 16.5 36.375 
Q 16.5 21.390625 20.328125 13.890625 
Q 24.171875 6.390625 31.78125 6.390625 
Q 39.453125 6.390625 43.28125 13.890625 
Q 47.125 21.390625 47.125 36.375 
Q 47.125 51.421875 43.28125 58.90625 
Q 39.453125 66.40625 31.78125 66.40625 
z
M 31.78125 74.21875 
Q 44.046875 74.21875 50.515625 64.515625 
Q 56.984375 54.828125 56.984375 36.375 
Q 56.984375 17.96875 50.515625 8.265625 
Q 44.046875 -1.421875 31.78125 -1.421875 
Q 19.53125 -1.421875 13.0625 8.265625 
Q 6.59375 17.96875 6.59375 36.375 
Q 6.59375 54.828125 13.0625 64.515625 
Q 19.53125 74.21875 31.78125 74.21875 
z
" id="DejaVuSans-48"/>
      </defs>
      <g style="fill:#262626;" transform="translate(53.654602 303.028562)scale(0.1 -0.1)">
       <use xlink:href="#DejaVuSans-48"/>
      </g>
     </g>
    </g>
    <g id="xtick_2">
     <g id="line2d_2">
      <path clip-path="url(#p01fc660d7c)" d="M 110.944943 288.430125 
L 110.944943 22.318125 
" style="fill:none;stroke:#cccccc;stroke-linecap:round;stroke-width:0.8;"/>
     </g>
     <g id="text_2">
      <!-- 10 -->
      <defs>
       <path d="M 12.40625 8.296875 
L 28.515625 8.296875 
L 28.515625 63.921875 
L 10.984375 60.40625 
L 10.984375 69.390625 
L 28.421875 72.90625 
L 38.28125 72.90625 
L 38.28125 8.296875 
L 54.390625 8.296875 
L 54.390625 0 
L 12.40625 0 
z
" id="DejaVuSans-49"/>
      </defs>
      <g style="fill:#262626;" transform="translate(104.582443 303.028562)scale(0.1 -0.1)">
       <use xlink:href="#DejaVuSans-49"/>
       <use x="63.623047" xlink:href="#DejaVuSans-48"/>
      </g>
     </g>
    </g>
    <g id="xtick_3">
     <g id="line2d_3">
      <path clip-path="url(#p01fc660d7c)" d="M 165.054034 288.430125 
L 165.054034 22.318125 
" style="fill:none;stroke:#cccccc;stroke-linecap:round;stroke-width:0.8;"/>
     </g>
     <g id="text_3">
      <!-- 20 -->
      <defs>
       <path d="M 19.1875 8.296875 
L 53.609375 8.296875 
L 53.609375 0 
L 7.328125 0 
L 7.328125 8.296875 
Q 12.9375 14.109375 22.625 23.890625 
Q 32.328125 33.6875 34.8125 36.53125 
Q 39.546875 41.84375 41.421875 45.53125 
Q 43.3125 49.21875 43.3125 52.78125 
Q 43.3125 58.59375 39.234375 62.25 
Q 35.15625 65.921875 28.609375 65.921875 
Q 23.96875 65.921875 18.8125 64.3125 
Q 13.671875 62.703125 7.8125 59.421875 
L 7.8125 69.390625 
Q 13.765625 71.78125 18.9375 73 
Q 24.125 74.21875 28.421875 74.21875 
Q 39.75 74.21875 46.484375 68.546875 
Q 53.21875 62.890625 53.21875 53.421875 
Q 53.21875 48.921875 51.53125 44.890625 
Q 49.859375 40.875 45.40625 35.40625 
Q 44.1875 33.984375 37.640625 27.21875 
Q 31.109375 20.453125 19.1875 8.296875 
z
" id="DejaVuSans-50"/>
      </defs>
      <g style="fill:#262626;" transform="translate(158.691534 303.028562)scale(0.1 -0.1)">
       <use xlink:href="#DejaVuSans-50"/>
       <use x="63.623047" xlink:href="#DejaVuSans-48"/>
      </g>
     </g>
    </g>
    <g id="xtick_4">
     <g id="line2d_4">
      <path clip-path="url(#p01fc660d7c)" d="M 219.163125 288.430125 
L 219.163125 22.318125 
" style="fill:none;stroke:#cccccc;stroke-linecap:round;stroke-width:0.8;"/>
     </g>
     <g id="text_4">
      <!-- 30 -->
      <defs>
       <path d="M 40.578125 39.3125 
Q 47.65625 37.796875 51.625 33 
Q 55.609375 28.21875 55.609375 21.1875 
Q 55.609375 10.40625 48.1875 4.484375 
Q 40.765625 -1.421875 27.09375 -1.421875 
Q 22.515625 -1.421875 17.65625 -0.515625 
Q 12.796875 0.390625 7.625 2.203125 
L 7.625 11.71875 
Q 11.71875 9.328125 16.59375 8.109375 
Q 21.484375 6.890625 26.8125 6.890625 
Q 36.078125 6.890625 40.9375 10.546875 
Q 45.796875 14.203125 45.796875 21.1875 
Q 45.796875 27.640625 41.28125 31.265625 
Q 36.765625 34.90625 28.71875 34.90625 
L 20.21875 34.90625 
L 20.21875 43.015625 
L 29.109375 43.015625 
Q 36.375 43.015625 40.234375 45.921875 
Q 44.09375 48.828125 44.09375 54.296875 
Q 44.09375 59.90625 40.109375 62.90625 
Q 36.140625 65.921875 28.71875 65.921875 
Q 24.65625 65.921875 20.015625 65.03125 
Q 15.375 64.15625 9.8125 62.3125 
L 9.8125 71.09375 
Q 15.4375 72.65625 20.34375 73.4375 
Q 25.25 74.21875 29.59375 74.21875 
Q 40.828125 74.21875 47.359375 69.109375 
Q 53.90625 64.015625 53.90625 55.328125 
Q 53.90625 49.265625 50.4375 45.09375 
Q 46.96875 40.921875 40.578125 39.3125 
z
" id="DejaVuSans-51"/>
      </defs>
      <g style="fill:#262626;" transform="translate(212.800625 303.028562)scale(0.1 -0.1)">
       <use xlink:href="#DejaVuSans-51"/>
       <use x="63.623047" xlink:href="#DejaVuSans-48"/>
      </g>
     </g>
    </g>
    <g id="xtick_5">
     <g id="line2d_5">
      <path clip-path="url(#p01fc660d7c)" d="M 273.272216 288.430125 
L 273.272216 22.318125 
" style="fill:none;stroke:#cccccc;stroke-linecap:round;stroke-width:0.8;"/>
     </g>
     <g id="text_5">
      <!-- 40 -->
      <defs>
       <path d="M 37.796875 64.3125 
L 12.890625 25.390625 
L 37.796875 25.390625 
z
M 35.203125 72.90625 
L 47.609375 72.90625 
L 47.609375 25.390625 
L 58.015625 25.390625 
L 58.015625 17.1875 
L 47.609375 17.1875 
L 47.609375 0 
L 37.796875 0 
L 37.796875 17.1875 
L 4.890625 17.1875 
L 4.890625 26.703125 
z
" id="DejaVuSans-52"/>
      </defs>
      <g style="fill:#262626;" transform="translate(266.909716 303.028562)scale(0.1 -0.1)">
       <use xlink:href="#DejaVuSans-52"/>
       <use x="63.623047" xlink:href="#DejaVuSans-48"/>
      </g>
     </g>
    </g>
    <g id="xtick_6">
     <g id="line2d_6">
      <path clip-path="url(#p01fc660d7c)" d="M 327.381307 288.430125 
L 327.381307 22.318125 
" style="fill:none;stroke:#cccccc;stroke-linecap:round;stroke-width:0.8;"/>
     </g>
     <g id="text_6">
      <!-- 50 -->
      <defs>
       <path d="M 10.796875 72.90625 
L 49.515625 72.90625 
L 49.515625 64.59375 
L 19.828125 64.59375 
L 19.828125 46.734375 
Q 21.96875 47.46875 24.109375 47.828125 
Q 26.265625 48.1875 28.421875 48.1875 
Q 40.625 48.1875 47.75 41.5 
Q 54.890625 34.8125 54.890625 23.390625 
Q 54.890625 11.625 47.5625 5.09375 
Q 40.234375 -1.421875 26.90625 -1.421875 
Q 22.3125 -1.421875 17.546875 -0.640625 
Q 12.796875 0.140625 7.71875 1.703125 
L 7.71875 11.625 
Q 12.109375 9.234375 16.796875 8.0625 
Q 21.484375 6.890625 26.703125 6.890625 
Q 35.15625 6.890625 40.078125 11.328125 
Q 45.015625 15.765625 45.015625 23.390625 
Q 45.015625 31 40.078125 35.4375 
Q 35.15625 39.890625 26.703125 39.890625 
Q 22.75 39.890625 18.8125 39.015625 
Q 14.890625 38.140625 10.796875 36.28125 
z
" id="DejaVuSans-53"/>
      </defs>
      <g style="fill:#262626;" transform="translate(321.018807 303.028562)scale(0.1 -0.1)">
       <use xlink:href="#DejaVuSans-53"/>
       <use x="63.623047" xlink:href="#DejaVuSans-48"/>
      </g>
     </g>
    </g>
    <g id="xtick_7">
     <g id="line2d_7">
      <path clip-path="url(#p01fc660d7c)" d="M 381.490398 288.430125 
L 381.490398 22.318125 
" style="fill:none;stroke:#cccccc;stroke-linecap:round;stroke-width:0.8;"/>
     </g>
     <g id="text_7">
      <!-- 60 -->
      <defs>
       <path d="M 33.015625 40.375 
Q 26.375 40.375 22.484375 35.828125 
Q 18.609375 31.296875 18.609375 23.390625 
Q 18.609375 15.53125 22.484375 10.953125 
Q 26.375 6.390625 33.015625 6.390625 
Q 39.65625 6.390625 43.53125 10.953125 
Q 47.40625 15.53125 47.40625 23.390625 
Q 47.40625 31.296875 43.53125 35.828125 
Q 39.65625 40.375 33.015625 40.375 
z
M 52.59375 71.296875 
L 52.59375 62.3125 
Q 48.875 64.0625 45.09375 64.984375 
Q 41.3125 65.921875 37.59375 65.921875 
Q 27.828125 65.921875 22.671875 59.328125 
Q 17.53125 52.734375 16.796875 39.40625 
Q 19.671875 43.65625 24.015625 45.921875 
Q 28.375 48.1875 33.59375 48.1875 
Q 44.578125 48.1875 50.953125 41.515625 
Q 57.328125 34.859375 57.328125 23.390625 
Q 57.328125 12.15625 50.6875 5.359375 
Q 44.046875 -1.421875 33.015625 -1.421875 
Q 20.359375 -1.421875 13.671875 8.265625 
Q 6.984375 17.96875 6.984375 36.375 
Q 6.984375 53.65625 15.1875 63.9375 
Q 23.390625 74.21875 37.203125 74.21875 
Q 40.921875 74.21875 44.703125 73.484375 
Q 48.484375 72.75 52.59375 71.296875 
z
" id="DejaVuSans-54"/>
      </defs>
      <g style="fill:#262626;" transform="translate(375.127898 303.028562)scale(0.1 -0.1)">
       <use xlink:href="#DejaVuSans-54"/>
       <use x="63.623047" xlink:href="#DejaVuSans-48"/>
      </g>
     </g>
    </g>
    <g id="text_8">
     <!-- time (days) -->
     <defs>
      <path d="M 18.3125 70.21875 
L 18.3125 54.6875 
L 36.8125 54.6875 
L 36.8125 47.703125 
L 18.3125 47.703125 
L 18.3125 18.015625 
Q 18.3125 11.328125 20.140625 9.421875 
Q 21.96875 7.515625 27.59375 7.515625 
L 36.8125 7.515625 
L 36.8125 0 
L 27.59375 0 
Q 17.1875 0 13.234375 3.875 
Q 9.28125 7.765625 9.28125 18.015625 
L 9.28125 47.703125 
L 2.6875 47.703125 
L 2.6875 54.6875 
L 9.28125 54.6875 
L 9.28125 70.21875 
z
" id="DejaVuSans-116"/>
      <path d="M 9.421875 54.6875 
L 18.40625 54.6875 
L 18.40625 0 
L 9.421875 0 
z
M 9.421875 75.984375 
L 18.40625 75.984375 
L 18.40625 64.59375 
L 9.421875 64.59375 
z
" id="DejaVuSans-105"/>
      <path d="M 52 44.1875 
Q 55.375 50.25 60.0625 53.125 
Q 64.75 56 71.09375 56 
Q 79.640625 56 84.28125 50.015625 
Q 88.921875 44.046875 88.921875 33.015625 
L 88.921875 0 
L 79.890625 0 
L 79.890625 32.71875 
Q 79.890625 40.578125 77.09375 44.375 
Q 74.3125 48.1875 68.609375 48.1875 
Q 61.625 48.1875 57.5625 43.546875 
Q 53.515625 38.921875 53.515625 30.90625 
L 53.515625 0 
L 44.484375 0 
L 44.484375 32.71875 
Q 44.484375 40.625 41.703125 44.40625 
Q 38.921875 48.1875 33.109375 48.1875 
Q 26.21875 48.1875 22.15625 43.53125 
Q 18.109375 38.875 18.109375 30.90625 
L 18.109375 0 
L 9.078125 0 
L 9.078125 54.6875 
L 18.109375 54.6875 
L 18.109375 46.1875 
Q 21.1875 51.21875 25.484375 53.609375 
Q 29.78125 56 35.6875 56 
Q 41.65625 56 45.828125 52.96875 
Q 50 49.953125 52 44.1875 
z
" id="DejaVuSans-109"/>
      <path d="M 56.203125 29.59375 
L 56.203125 25.203125 
L 14.890625 25.203125 
Q 15.484375 15.921875 20.484375 11.0625 
Q 25.484375 6.203125 34.421875 6.203125 
Q 39.59375 6.203125 44.453125 7.46875 
Q 49.3125 8.734375 54.109375 11.28125 
L 54.109375 2.78125 
Q 49.265625 0.734375 44.1875 -0.34375 
Q 39.109375 -1.421875 33.890625 -1.421875 
Q 20.796875 -1.421875 13.15625 6.1875 
Q 5.515625 13.8125 5.515625 26.8125 
Q 5.515625 40.234375 12.765625 48.109375 
Q 20.015625 56 32.328125 56 
Q 43.359375 56 49.78125 48.890625 
Q 56.203125 41.796875 56.203125 29.59375 
z
M 47.21875 32.234375 
Q 47.125 39.59375 43.09375 43.984375 
Q 39.0625 48.390625 32.421875 48.390625 
Q 24.90625 48.390625 20.390625 44.140625 
Q 15.875 39.890625 15.1875 32.171875 
z
" id="DejaVuSans-101"/>
      <path id="DejaVuSans-32"/>
      <path d="M 31 75.875 
Q 24.46875 64.65625 21.28125 53.65625 
Q 18.109375 42.671875 18.109375 31.390625 
Q 18.109375 20.125 21.3125 9.0625 
Q 24.515625 -2 31 -13.1875 
L 23.1875 -13.1875 
Q 15.875 -1.703125 12.234375 9.375 
Q 8.59375 20.453125 8.59375 31.390625 
Q 8.59375 42.28125 12.203125 53.3125 
Q 15.828125 64.359375 23.1875 75.875 
z
" id="DejaVuSans-40"/>
      <path d="M 45.40625 46.390625 
L 45.40625 75.984375 
L 54.390625 75.984375 
L 54.390625 0 
L 45.40625 0 
L 45.40625 8.203125 
Q 42.578125 3.328125 38.25 0.953125 
Q 33.9375 -1.421875 27.875 -1.421875 
Q 17.96875 -1.421875 11.734375 6.484375 
Q 5.515625 14.40625 5.515625 27.296875 
Q 5.515625 40.1875 11.734375 48.09375 
Q 17.96875 56 27.875 56 
Q 33.9375 56 38.25 53.625 
Q 42.578125 51.265625 45.40625 46.390625 
z
M 14.796875 27.296875 
Q 14.796875 17.390625 18.875 11.75 
Q 22.953125 6.109375 30.078125 6.109375 
Q 37.203125 6.109375 41.296875 11.75 
Q 45.40625 17.390625 45.40625 27.296875 
Q 45.40625 37.203125 41.296875 42.84375 
Q 37.203125 48.484375 30.078125 48.484375 
Q 22.953125 48.484375 18.875 42.84375 
Q 14.796875 37.203125 14.796875 27.296875 
z
" id="DejaVuSans-100"/>
      <path d="M 34.28125 27.484375 
Q 23.390625 27.484375 19.1875 25 
Q 14.984375 22.515625 14.984375 16.5 
Q 14.984375 11.71875 18.140625 8.90625 
Q 21.296875 6.109375 26.703125 6.109375 
Q 34.1875 6.109375 38.703125 11.40625 
Q 43.21875 16.703125 43.21875 25.484375 
L 43.21875 27.484375 
z
M 52.203125 31.203125 
L 52.203125 0 
L 43.21875 0 
L 43.21875 8.296875 
Q 40.140625 3.328125 35.546875 0.953125 
Q 30.953125 -1.421875 24.3125 -1.421875 
Q 15.921875 -1.421875 10.953125 3.296875 
Q 6 8.015625 6 15.921875 
Q 6 25.140625 12.171875 29.828125 
Q 18.359375 34.515625 30.609375 34.515625 
L 43.21875 34.515625 
L 43.21875 35.40625 
Q 43.21875 41.609375 39.140625 45 
Q 35.0625 48.390625 27.6875 48.390625 
Q 23 48.390625 18.546875 47.265625 
Q 14.109375 46.140625 10.015625 43.890625 
L 10.015625 52.203125 
Q 14.9375 54.109375 19.578125 55.046875 
Q 24.21875 56 28.609375 56 
Q 40.484375 56 46.34375 49.84375 
Q 52.203125 43.703125 52.203125 31.203125 
z
" id="DejaVuSans-97"/>
      <path d="M 32.171875 -5.078125 
Q 28.375 -14.84375 24.75 -17.8125 
Q 21.140625 -20.796875 15.09375 -20.796875 
L 7.90625 -20.796875 
L 7.90625 -13.28125 
L 13.1875 -13.28125 
Q 16.890625 -13.28125 18.9375 -11.515625 
Q 21 -9.765625 23.484375 -3.21875 
L 25.09375 0.875 
L 2.984375 54.6875 
L 12.5 54.6875 
L 29.59375 11.921875 
L 46.6875 54.6875 
L 56.203125 54.6875 
z
" id="DejaVuSans-121"/>
      <path d="M 44.28125 53.078125 
L 44.28125 44.578125 
Q 40.484375 46.53125 36.375 47.5 
Q 32.28125 48.484375 27.875 48.484375 
Q 21.1875 48.484375 17.84375 46.4375 
Q 14.5 44.390625 14.5 40.28125 
Q 14.5 37.15625 16.890625 35.375 
Q 19.28125 33.59375 26.515625 31.984375 
L 29.59375 31.296875 
Q 39.15625 29.25 43.1875 25.515625 
Q 47.21875 21.78125 47.21875 15.09375 
Q 47.21875 7.46875 41.1875 3.015625 
Q 35.15625 -1.421875 24.609375 -1.421875 
Q 20.21875 -1.421875 15.453125 -0.5625 
Q 10.6875 0.296875 5.421875 2 
L 5.421875 11.28125 
Q 10.40625 8.6875 15.234375 7.390625 
Q 20.0625 6.109375 24.8125 6.109375 
Q 31.15625 6.109375 34.5625 8.28125 
Q 37.984375 10.453125 37.984375 14.40625 
Q 37.984375 18.0625 35.515625 20.015625 
Q 33.0625 21.96875 24.703125 23.78125 
L 21.578125 24.515625 
Q 13.234375 26.265625 9.515625 29.90625 
Q 5.8125 33.546875 5.8125 39.890625 
Q 5.8125 47.609375 11.28125 51.796875 
Q 16.75 56 26.8125 56 
Q 31.78125 56 36.171875 55.265625 
Q 40.578125 54.546875 44.28125 53.078125 
z
" id="DejaVuSans-115"/>
      <path d="M 8.015625 75.875 
L 15.828125 75.875 
Q 23.140625 64.359375 26.78125 53.3125 
Q 30.421875 42.28125 30.421875 31.390625 
Q 30.421875 20.453125 26.78125 9.375 
Q 23.140625 -1.703125 15.828125 -13.1875 
L 8.015625 -13.1875 
Q 14.5 -2 17.703125 9.0625 
Q 20.90625 20.125 20.90625 31.390625 
Q 20.90625 42.671875 17.703125 53.65625 
Q 14.5 64.65625 8.015625 75.875 
z
" id="DejaVuSans-41"/>
     </defs>
     <g style="fill:#262626;" transform="translate(190.574062 316.706687)scale(0.1 -0.1)">
      <use xlink:href="#DejaVuSans-116"/>
      <use x="39.208984" xlink:href="#DejaVuSans-105"/>
      <use x="66.992188" xlink:href="#DejaVuSans-109"/>
      <use x="164.404297" xlink:href="#DejaVuSans-101"/>
      <use x="225.927734" xlink:href="#DejaVuSans-32"/>
      <use x="257.714844" xlink:href="#DejaVuSans-40"/>
      <use x="296.728516" xlink:href="#DejaVuSans-100"/>
      <use x="360.205078" xlink:href="#DejaVuSans-97"/>
      <use x="421.484375" xlink:href="#DejaVuSans-121"/>
      <use x="480.664062" xlink:href="#DejaVuSans-115"/>
      <use x="532.763672" xlink:href="#DejaVuSans-41"/>
     </g>
    </g>
   </g>
   <g id="matplotlib.axis_2">
    <g id="ytick_1">
     <g id="line2d_8">
      <path clip-path="url(#p01fc660d7c)" d="M 40.603125 276.334125 
L 397.723125 276.334125 
" style="fill:none;stroke:#cccccc;stroke-linecap:round;stroke-width:0.8;"/>
     </g>
     <g id="text_9">
      <!-- 0 -->
      <g style="fill:#262626;" transform="translate(27.240625 280.133344)scale(0.1 -0.1)">
       <use xlink:href="#DejaVuSans-48"/>
      </g>
     </g>
    </g>
    <g id="ytick_2">
     <g id="line2d_9">
      <path clip-path="url(#p01fc660d7c)" d="M 40.603125 223.742821 
L 397.723125 223.742821 
" style="fill:none;stroke:#cccccc;stroke-linecap:round;stroke-width:0.8;"/>
     </g>
     <g id="text_10">
      <!-- 5 -->
      <g style="fill:#262626;" transform="translate(27.240625 227.542039)scale(0.1 -0.1)">
       <use xlink:href="#DejaVuSans-53"/>
      </g>
     </g>
    </g>
    <g id="ytick_3">
     <g id="line2d_10">
      <path clip-path="url(#p01fc660d7c)" d="M 40.603125 171.151516 
L 397.723125 171.151516 
" style="fill:none;stroke:#cccccc;stroke-linecap:round;stroke-width:0.8;"/>
     </g>
     <g id="text_11">
      <!-- 10 -->
      <g style="fill:#262626;" transform="translate(20.878125 174.950735)scale(0.1 -0.1)">
       <use xlink:href="#DejaVuSans-49"/>
       <use x="63.623047" xlink:href="#DejaVuSans-48"/>
      </g>
     </g>
    </g>
    <g id="ytick_4">
     <g id="line2d_11">
      <path clip-path="url(#p01fc660d7c)" d="M 40.603125 118.560212 
L 397.723125 118.560212 
" style="fill:none;stroke:#cccccc;stroke-linecap:round;stroke-width:0.8;"/>
     </g>
     <g id="text_12">
      <!-- 15 -->
      <g style="fill:#262626;" transform="translate(20.878125 122.359431)scale(0.1 -0.1)">
       <use xlink:href="#DejaVuSans-49"/>
       <use x="63.623047" xlink:href="#DejaVuSans-53"/>
      </g>
     </g>
    </g>
    <g id="ytick_5">
     <g id="line2d_12">
      <path clip-path="url(#p01fc660d7c)" d="M 40.603125 65.968908 
L 397.723125 65.968908 
" style="fill:none;stroke:#cccccc;stroke-linecap:round;stroke-width:0.8;"/>
     </g>
     <g id="text_13">
      <!-- 20 -->
      <g style="fill:#262626;" transform="translate(20.878125 69.768126)scale(0.1 -0.1)">
       <use xlink:href="#DejaVuSans-50"/>
       <use x="63.623047" xlink:href="#DejaVuSans-48"/>
      </g>
     </g>
    </g>
    <g id="text_14">
     <!-- cells number -->
     <defs>
      <path d="M 48.78125 52.59375 
L 48.78125 44.1875 
Q 44.96875 46.296875 41.140625 47.34375 
Q 37.3125 48.390625 33.40625 48.390625 
Q 24.65625 48.390625 19.8125 42.84375 
Q 14.984375 37.3125 14.984375 27.296875 
Q 14.984375 17.28125 19.8125 11.734375 
Q 24.65625 6.203125 33.40625 6.203125 
Q 37.3125 6.203125 41.140625 7.25 
Q 44.96875 8.296875 48.78125 10.40625 
L 48.78125 2.09375 
Q 45.015625 0.34375 40.984375 -0.53125 
Q 36.96875 -1.421875 32.421875 -1.421875 
Q 20.0625 -1.421875 12.78125 6.34375 
Q 5.515625 14.109375 5.515625 27.296875 
Q 5.515625 40.671875 12.859375 48.328125 
Q 20.21875 56 33.015625 56 
Q 37.15625 56 41.109375 55.140625 
Q 45.0625 54.296875 48.78125 52.59375 
z
" id="DejaVuSans-99"/>
      <path d="M 9.421875 75.984375 
L 18.40625 75.984375 
L 18.40625 0 
L 9.421875 0 
z
" id="DejaVuSans-108"/>
      <path d="M 54.890625 33.015625 
L 54.890625 0 
L 45.90625 0 
L 45.90625 32.71875 
Q 45.90625 40.484375 42.875 44.328125 
Q 39.84375 48.1875 33.796875 48.1875 
Q 26.515625 48.1875 22.3125 43.546875 
Q 18.109375 38.921875 18.109375 30.90625 
L 18.109375 0 
L 9.078125 0 
L 9.078125 54.6875 
L 18.109375 54.6875 
L 18.109375 46.1875 
Q 21.34375 51.125 25.703125 53.5625 
Q 30.078125 56 35.796875 56 
Q 45.21875 56 50.046875 50.171875 
Q 54.890625 44.34375 54.890625 33.015625 
z
" id="DejaVuSans-110"/>
      <path d="M 8.5 21.578125 
L 8.5 54.6875 
L 17.484375 54.6875 
L 17.484375 21.921875 
Q 17.484375 14.15625 20.5 10.265625 
Q 23.53125 6.390625 29.59375 6.390625 
Q 36.859375 6.390625 41.078125 11.03125 
Q 45.3125 15.671875 45.3125 23.6875 
L 45.3125 54.6875 
L 54.296875 54.6875 
L 54.296875 0 
L 45.3125 0 
L 45.3125 8.40625 
Q 42.046875 3.421875 37.71875 1 
Q 33.40625 -1.421875 27.6875 -1.421875 
Q 18.265625 -1.421875 13.375 4.4375 
Q 8.5 10.296875 8.5 21.578125 
z
M 31.109375 56 
z
" id="DejaVuSans-117"/>
      <path d="M 48.6875 27.296875 
Q 48.6875 37.203125 44.609375 42.84375 
Q 40.53125 48.484375 33.40625 48.484375 
Q 26.265625 48.484375 22.1875 42.84375 
Q 18.109375 37.203125 18.109375 27.296875 
Q 18.109375 17.390625 22.1875 11.75 
Q 26.265625 6.109375 33.40625 6.109375 
Q 40.53125 6.109375 44.609375 11.75 
Q 48.6875 17.390625 48.6875 27.296875 
z
M 18.109375 46.390625 
Q 20.953125 51.265625 25.265625 53.625 
Q 29.59375 56 35.59375 56 
Q 45.5625 56 51.78125 48.09375 
Q 58.015625 40.1875 58.015625 27.296875 
Q 58.015625 14.40625 51.78125 6.484375 
Q 45.5625 -1.421875 35.59375 -1.421875 
Q 29.59375 -1.421875 25.265625 0.953125 
Q 20.953125 3.328125 18.109375 8.203125 
L 18.109375 0 
L 9.078125 0 
L 9.078125 75.984375 
L 18.109375 75.984375 
z
" id="DejaVuSans-98"/>
      <path d="M 41.109375 46.296875 
Q 39.59375 47.171875 37.8125 47.578125 
Q 36.03125 48 33.890625 48 
Q 26.265625 48 22.1875 43.046875 
Q 18.109375 38.09375 18.109375 28.8125 
L 18.109375 0 
L 9.078125 0 
L 9.078125 54.6875 
L 18.109375 54.6875 
L 18.109375 46.1875 
Q 20.953125 51.171875 25.484375 53.578125 
Q 30.03125 56 36.53125 56 
Q 37.453125 56 38.578125 55.875 
Q 39.703125 55.765625 41.0625 55.515625 
z
" id="DejaVuSans-114"/>
     </defs>
     <g style="fill:#262626;" transform="translate(14.798438 187.685844)rotate(-90)scale(0.1 -0.1)">
      <use xlink:href="#DejaVuSans-99"/>
      <use x="54.980469" xlink:href="#DejaVuSans-101"/>
      <use x="116.503906" xlink:href="#DejaVuSans-108"/>
      <use x="144.287109" xlink:href="#DejaVuSans-108"/>
      <use x="172.070312" xlink:href="#DejaVuSans-115"/>
      <use x="224.169922" xlink:href="#DejaVuSans-32"/>
      <use x="255.957031" xlink:href="#DejaVuSans-110"/>
      <use x="319.335938" xlink:href="#DejaVuSans-117"/>
      <use x="382.714844" xlink:href="#DejaVuSans-109"/>
      <use x="480.126953" xlink:href="#DejaVuSans-98"/>
      <use x="543.603516" xlink:href="#DejaVuSans-101"/>
      <use x="605.126953" xlink:href="#DejaVuSans-114"/>
     </g>
    </g>
   </g>
   <g id="line2d_13">
    <path clip-path="url(#p01fc660d7c)" d="M 56.835852 276.334125 
L 60.623489 276.334125 
L 61.16458 265.815864 
L 61.70567 265.815864 
L 62.787852 244.779342 
L 63.328943 255.297603 
L 63.870034 255.297603 
L 64.411125 244.779342 
L 66.575489 244.779342 
L 67.65767 223.742821 
L 68.739852 223.742821 
L 69.280943 213.22456 
L 70.904216 213.22456 
L 71.445307 192.188038 
L 73.06858 192.188038 
L 73.60967 181.669777 
L 74.150761 181.669777 
L 74.691852 192.188038 
L 75.774034 192.188038 
L 76.315125 202.706299 
L 76.856216 202.706299 
L 77.397307 192.188038 
L 77.938398 192.188038 
L 78.479489 181.669777 
L 79.02058 150.114995 
L 79.56167 150.114995 
L 80.102761 129.078473 
L 80.643852 139.596734 
L 81.184943 139.596734 
L 81.726034 150.114995 
L 82.808216 150.114995 
L 83.349307 139.596734 
L 83.890398 139.596734 
L 85.51367 171.151516 
L 86.595852 150.114995 
L 87.136943 150.114995 
L 87.678034 139.596734 
L 89.301307 139.596734 
L 89.842398 160.633255 
L 91.46567 160.633255 
L 92.006761 150.114995 
L 93.088943 150.114995 
L 93.630034 160.633255 
L 94.171125 150.114995 
L 94.712216 150.114995 
L 95.253307 160.633255 
L 96.335489 160.633255 
L 96.87658 171.151516 
L 97.958761 150.114995 
L 98.499852 160.633255 
L 99.040943 150.114995 
L 100.664216 150.114995 
L 102.287489 181.669777 
L 102.82858 181.669777 
L 103.36967 202.706299 
L 103.910761 192.188038 
L 107.157307 192.188038 
L 107.698398 202.706299 
L 108.78058 202.706299 
L 109.32167 192.188038 
L 110.403852 192.188038 
L 110.944943 202.706299 
L 113.650398 202.706299 
L 114.191489 192.188038 
L 116.355852 192.188038 
L 116.896943 181.669777 
L 117.438034 181.669777 
L 117.979125 192.188038 
L 119.061307 192.188038 
L 119.602398 181.669777 
L 120.143489 192.188038 
L 121.22567 192.188038 
L 121.766761 202.706299 
L 122.848943 202.706299 
L 123.390034 181.669777 
L 123.931125 171.151516 
L 125.554398 171.151516 
L 126.095489 160.633255 
L 127.17767 181.669777 
L 128.259852 181.669777 
L 129.342034 160.633255 
L 131.506398 160.633255 
L 132.047489 171.151516 
L 133.12967 171.151516 
L 133.670761 181.669777 
L 139.622761 181.669777 
L 140.163852 171.151516 
L 141.246034 192.188038 
L 141.787125 181.669777 
L 142.869307 181.669777 
L 143.410398 171.151516 
L 145.03367 171.151516 
L 145.574761 181.669777 
L 153.150034 181.669777 
L 153.691125 192.188038 
L 155.314398 192.188038 
L 155.855489 181.669777 
L 156.93767 181.669777 
L 157.478761 171.151516 
L 159.102034 171.151516 
L 159.643125 181.669777 
L 165.595125 181.669777 
L 166.136216 171.151516 
L 167.759489 171.151516 
L 168.30058 181.669777 
L 170.464943 181.669777 
L 171.006034 171.151516 
L 171.547125 181.669777 
L 174.25258 181.669777 
L 174.79367 192.188038 
L 175.334761 192.188038 
L 175.875852 181.669777 
L 176.416943 181.669777 
L 177.499125 202.706299 
L 178.040216 202.706299 
L 178.581307 192.188038 
L 182.368943 192.188038 
L 182.910034 202.706299 
L 191.567489 202.706299 
L 192.10858 213.22456 
L 193.190761 213.22456 
L 193.731852 202.706299 
L 194.272943 213.22456 
L 199.142761 213.22456 
L 199.683852 223.742821 
L 202.930398 223.742821 
L 203.471489 234.261082 
L 204.55367 234.261082 
L 205.094761 244.779342 
L 212.128943 244.779342 
L 212.670034 255.297603 
L 224.032943 255.297603 
L 224.574034 265.815864 
L 233.231489 265.815864 
L 233.77258 255.297603 
L 244.053307 255.297603 
L 244.594398 244.779342 
L 254.875125 244.779342 
L 255.416216 234.261082 
L 258.12167 234.261082 
L 258.662761 244.779342 
L 259.744943 244.779342 
L 260.286034 255.297603 
L 265.155852 255.297603 
L 265.696943 244.779342 
L 270.566761 244.779342 
L 271.107852 255.297603 
L 275.97767 255.297603 
L 276.518761 234.261082 
L 277.059852 244.779342 
L 279.765307 244.779342 
L 280.306398 255.297603 
L 280.847489 234.261082 
L 286.258398 234.261082 
L 286.799489 223.742821 
L 287.34058 223.742821 
L 288.422761 244.779342 
L 292.210398 244.779342 
L 292.751489 234.261082 
L 293.29258 234.261082 
L 293.83367 244.779342 
L 294.374761 244.779342 
L 294.915852 234.261082 
L 295.998034 234.261082 
L 296.539125 244.779342 
L 301.950034 244.779342 
L 302.491125 265.815864 
L 303.032216 255.297603 
L 319.806034 255.297603 
L 320.347125 265.815864 
L 334.95658 265.815864 
L 335.49767 276.334125 
L 381.490398 276.334125 
L 381.490398 276.334125 
" style="fill:none;stroke:#000080;stroke-linecap:round;stroke-width:1.5;"/>
   </g>
   <g id="line2d_14">
    <path clip-path="url(#p01fc660d7c)" d="M 56.835852 276.334125 
L 59.541307 276.334125 
L 60.082398 265.815864 
L 61.70567 265.815864 
L 62.246761 255.297603 
L 62.787852 234.261082 
L 63.870034 234.261082 
L 64.411125 223.742821 
L 64.952216 223.742821 
L 66.575489 192.188038 
L 67.11658 171.151516 
L 67.65767 160.633255 
L 68.198761 181.669777 
L 68.739852 160.633255 
L 69.280943 160.633255 
L 70.904216 129.078473 
L 71.445307 129.078473 
L 71.986398 150.114995 
L 72.527489 129.078473 
L 73.06858 129.078473 
L 73.60967 118.560212 
L 74.150761 118.560212 
L 74.691852 129.078473 
L 75.232943 129.078473 
L 75.774034 118.560212 
L 77.397307 118.560212 
L 77.938398 129.078473 
L 78.479489 108.041951 
L 79.56167 108.041951 
L 80.102761 97.52369 
L 80.643852 76.487168 
L 81.184943 87.005429 
L 81.726034 108.041951 
L 82.267125 108.041951 
L 82.808216 118.560212 
L 83.349307 118.560212 
L 83.890398 108.041951 
L 84.431489 87.005429 
L 84.97258 87.005429 
L 85.51367 97.52369 
L 89.301307 97.52369 
L 89.842398 87.005429 
L 90.92458 87.005429 
L 91.46567 97.52369 
L 92.547852 97.52369 
L 93.088943 76.487168 
L 94.171125 76.487168 
L 94.712216 87.005429 
L 95.253307 76.487168 
L 96.335489 76.487168 
L 96.87658 65.968908 
L 97.958761 65.968908 
L 98.499852 55.450647 
L 99.582034 55.450647 
L 100.123125 76.487168 
L 100.664216 76.487168 
L 101.746398 97.52369 
L 103.910761 97.52369 
L 104.992943 118.560212 
L 105.534034 118.560212 
L 106.075125 129.078473 
L 107.157307 129.078473 
L 107.698398 150.114995 
L 110.944943 150.114995 
L 111.486034 160.633255 
L 112.027125 160.633255 
L 112.568216 171.151516 
L 114.191489 171.151516 
L 114.73258 160.633255 
L 119.061307 160.633255 
L 120.143489 181.669777 
L 121.22567 181.669777 
L 121.766761 171.151516 
L 123.931125 171.151516 
L 124.472216 160.633255 
L 128.259852 160.633255 
L 128.800943 150.114995 
L 129.342034 150.114995 
L 129.883125 160.633255 
L 130.965307 160.633255 
L 131.506398 171.151516 
L 135.294034 171.151516 
L 135.835125 181.669777 
L 138.54058 181.669777 
L 139.08167 171.151516 
L 140.163852 171.151516 
L 140.704943 181.669777 
L 141.787125 181.669777 
L 142.328216 192.188038 
L 144.49258 192.188038 
L 145.03367 202.706299 
L 146.115852 202.706299 
L 147.198034 181.669777 
L 147.739125 181.669777 
L 148.280216 202.706299 
L 152.067852 202.706299 
L 152.608943 213.22456 
L 155.314398 213.22456 
L 155.855489 202.706299 
L 156.39658 202.706299 
L 156.93767 213.22456 
L 158.560943 213.22456 
L 159.102034 202.706299 
L 160.725307 202.706299 
L 161.266398 192.188038 
L 162.88967 192.188038 
L 163.430761 181.669777 
L 165.054034 181.669777 
L 165.595125 192.188038 
L 169.382761 192.188038 
L 169.923852 202.706299 
L 171.006034 202.706299 
L 171.547125 192.188038 
L 172.088216 202.706299 
L 179.663489 202.706299 
L 180.20458 213.22456 
L 180.74567 213.22456 
L 181.286761 223.742821 
L 185.074398 223.742821 
L 185.615489 234.261082 
L 186.15658 234.261082 
L 186.69767 244.779342 
L 187.238761 234.261082 
L 189.944216 234.261082 
L 190.485307 244.779342 
L 197.519489 244.779342 
L 198.06058 234.261082 
L 199.142761 234.261082 
L 200.224943 213.22456 
L 201.848216 213.22456 
L 202.389307 223.742821 
L 203.471489 202.706299 
L 206.176943 202.706299 
L 206.718034 192.188038 
L 207.259125 192.188038 
L 207.800216 202.706299 
L 208.882398 202.706299 
L 209.423489 213.22456 
L 209.96458 213.22456 
L 210.50567 202.706299 
L 211.046761 213.22456 
L 215.375489 213.22456 
L 215.91658 223.742821 
L 217.539852 223.742821 
L 218.080943 213.22456 
L 219.163125 213.22456 
L 219.704216 202.706299 
L 220.786398 202.706299 
L 221.327489 192.188038 
L 221.86858 202.706299 
L 224.032943 202.706299 
L 224.574034 213.22456 
L 225.656216 213.22456 
L 226.197307 223.742821 
L 226.738398 202.706299 
L 227.279489 202.706299 
L 227.82058 223.742821 
L 228.36167 223.742821 
L 228.902761 234.261082 
L 231.067125 234.261082 
L 231.608216 223.742821 
L 233.77258 223.742821 
L 234.31367 213.22456 
L 235.395852 213.22456 
L 235.936943 223.742821 
L 239.72458 223.742821 
L 240.26567 213.22456 
L 241.347852 213.22456 
L 241.888943 202.706299 
L 247.299852 202.706299 
L 247.840943 192.188038 
L 248.382034 192.188038 
L 248.923125 202.706299 
L 249.464216 202.706299 
L 250.005307 192.188038 
L 250.546398 192.188038 
L 251.087489 213.22456 
L 251.62858 213.22456 
L 252.16967 234.261082 
L 257.039489 234.261082 
L 257.58058 223.742821 
L 259.744943 223.742821 
L 260.286034 213.22456 
L 261.368216 213.22456 
L 261.909307 223.742821 
L 262.991489 223.742821 
L 263.53258 234.261082 
L 267.861307 234.261082 
L 268.402398 223.742821 
L 271.107852 223.742821 
L 271.648943 234.261082 
L 272.190034 234.261082 
L 272.731125 223.742821 
L 276.518761 223.742821 
L 277.059852 234.261082 
L 279.765307 234.261082 
L 280.306398 244.779342 
L 284.635125 244.779342 
L 285.176216 234.261082 
L 290.046034 234.261082 
L 290.587125 223.742821 
L 291.128216 223.742821 
L 291.669307 213.22456 
L 295.998034 213.22456 
L 296.539125 202.706299 
L 297.080216 213.22456 
L 297.621307 213.22456 
L 298.162398 223.742821 
L 299.78567 223.742821 
L 300.326761 234.261082 
L 300.867852 223.742821 
L 306.278761 223.742821 
L 306.819852 213.22456 
L 310.066398 213.22456 
L 310.607489 202.706299 
L 311.14858 202.706299 
L 311.68967 213.22456 
L 312.230761 202.706299 
L 313.854034 202.706299 
L 314.395125 192.188038 
L 318.723852 192.188038 
L 319.264943 202.706299 
L 319.806034 202.706299 
L 320.347125 192.188038 
L 320.888216 202.706299 
L 325.758034 202.706299 
L 326.299125 213.22456 
L 331.168943 213.22456 
L 331.710034 223.742821 
L 345.778398 223.742821 
L 347.40167 255.297603 
L 350.648216 255.297603 
L 351.189307 265.815864 
L 360.387852 265.815864 
L 360.928943 276.334125 
L 381.490398 276.334125 
L 381.490398 276.334125 
" style="fill:none;stroke:#0000f1;stroke-linecap:round;stroke-width:1.5;"/>
   </g>
   <g id="line2d_15">
    <path clip-path="url(#p01fc660d7c)" d="M 56.835852 276.334125 
L 60.623489 276.334125 
L 61.16458 265.815864 
L 62.246761 265.815864 
L 62.787852 255.297603 
L 63.870034 255.297603 
L 64.411125 244.779342 
L 64.952216 255.297603 
L 66.034398 255.297603 
L 66.575489 244.779342 
L 67.11658 213.22456 
L 68.198761 192.188038 
L 69.822034 192.188038 
L 70.363125 181.669777 
L 70.904216 181.669777 
L 71.986398 160.633255 
L 72.527489 171.151516 
L 73.06858 171.151516 
L 74.150761 150.114995 
L 74.691852 129.078473 
L 76.856216 129.078473 
L 77.397307 118.560212 
L 77.938398 118.560212 
L 78.479489 129.078473 
L 79.02058 118.560212 
L 80.643852 118.560212 
L 81.184943 108.041951 
L 82.267125 108.041951 
L 82.808216 97.52369 
L 84.431489 97.52369 
L 84.97258 76.487168 
L 86.054761 76.487168 
L 86.595852 87.005429 
L 87.136943 65.968908 
L 88.219125 65.968908 
L 88.760216 55.450647 
L 89.301307 34.414125 
L 89.842398 44.932386 
L 90.92458 44.932386 
L 91.46567 34.414125 
L 93.630034 34.414125 
L 94.171125 44.932386 
L 94.712216 44.932386 
L 95.253307 34.414125 
L 95.794398 34.414125 
L 96.335489 55.450647 
L 97.41767 55.450647 
L 97.958761 76.487168 
L 98.499852 87.005429 
L 100.664216 87.005429 
L 101.205307 97.52369 
L 102.287489 97.52369 
L 102.82858 118.560212 
L 103.36967 129.078473 
L 104.992943 129.078473 
L 105.534034 118.560212 
L 106.075125 129.078473 
L 106.616216 129.078473 
L 107.157307 150.114995 
L 108.78058 150.114995 
L 109.32167 139.596734 
L 109.862761 160.633255 
L 110.403852 150.114995 
L 110.944943 150.114995 
L 111.486034 171.151516 
L 112.027125 171.151516 
L 112.568216 181.669777 
L 113.109307 181.669777 
L 114.191489 160.633255 
L 115.814761 192.188038 
L 121.766761 192.188038 
L 122.307852 181.669777 
L 125.554398 181.669777 
L 126.095489 192.188038 
L 126.63658 192.188038 
L 127.17767 181.669777 
L 128.259852 181.669777 
L 128.800943 192.188038 
L 130.965307 192.188038 
L 131.506398 202.706299 
L 132.047489 202.706299 
L 132.58858 213.22456 
L 135.294034 213.22456 
L 136.376216 192.188038 
L 137.999489 192.188038 
L 138.54058 181.669777 
L 141.246034 181.669777 
L 141.787125 192.188038 
L 142.328216 181.669777 
L 142.869307 192.188038 
L 143.410398 192.188038 
L 143.951489 171.151516 
L 145.574761 171.151516 
L 146.115852 160.633255 
L 147.198034 160.633255 
L 147.739125 171.151516 
L 148.821307 171.151516 
L 149.362398 181.669777 
L 150.44458 181.669777 
L 151.526761 202.706299 
L 153.150034 202.706299 
L 153.691125 192.188038 
L 154.773307 192.188038 
L 155.314398 202.706299 
L 158.019852 202.706299 
L 158.560943 192.188038 
L 159.643125 192.188038 
L 160.184216 202.706299 
L 160.725307 192.188038 
L 163.430761 192.188038 
L 163.971852 202.706299 
L 165.595125 202.706299 
L 166.136216 192.188038 
L 166.677307 192.188038 
L 167.218398 202.706299 
L 168.84167 202.706299 
L 169.382761 192.188038 
L 174.25258 192.188038 
L 174.79367 202.706299 
L 177.499125 202.706299 
L 178.040216 213.22456 
L 179.122398 192.188038 
L 180.74567 192.188038 
L 181.286761 202.706299 
L 182.368943 202.706299 
L 182.910034 213.22456 
L 192.64967 213.22456 
L 193.190761 223.742821 
L 197.519489 223.742821 
L 198.06058 244.779342 
L 204.01258 244.779342 
L 204.55367 255.297603 
L 209.423489 255.297603 
L 209.96458 265.815864 
L 211.046761 265.815864 
L 211.587852 276.334125 
L 381.490398 276.334125 
L 381.490398 276.334125 
" style="fill:none;stroke:#004cff;stroke-linecap:round;stroke-width:1.5;"/>
   </g>
   <g id="line2d_16">
    <path clip-path="url(#p01fc660d7c)" d="M 56.835852 276.334125 
L 61.70567 276.334125 
L 62.246761 265.815864 
L 63.870034 265.815864 
L 64.952216 244.779342 
L 65.493307 255.297603 
L 66.034398 234.261082 
L 67.11658 234.261082 
L 68.198761 213.22456 
L 68.739852 213.22456 
L 69.280943 202.706299 
L 70.363125 202.706299 
L 70.904216 192.188038 
L 71.445307 192.188038 
L 71.986398 181.669777 
L 72.527489 181.669777 
L 73.06858 171.151516 
L 73.60967 139.596734 
L 75.232943 139.596734 
L 75.774034 129.078473 
L 76.315125 129.078473 
L 76.856216 139.596734 
L 77.397307 129.078473 
L 79.02058 129.078473 
L 79.56167 118.560212 
L 80.102761 129.078473 
L 82.267125 129.078473 
L 82.808216 118.560212 
L 83.890398 118.560212 
L 84.431489 129.078473 
L 84.97258 129.078473 
L 85.51367 118.560212 
L 86.595852 118.560212 
L 87.136943 108.041951 
L 88.219125 65.968908 
L 88.760216 76.487168 
L 89.842398 76.487168 
L 90.383489 87.005429 
L 90.92458 87.005429 
L 91.46567 76.487168 
L 92.006761 76.487168 
L 92.547852 65.968908 
L 93.088943 65.968908 
L 94.171125 87.005429 
L 94.712216 87.005429 
L 95.253307 76.487168 
L 95.794398 76.487168 
L 96.335489 87.005429 
L 97.41767 87.005429 
L 99.040943 118.560212 
L 102.287489 118.560212 
L 102.82858 108.041951 
L 103.36967 129.078473 
L 103.910761 139.596734 
L 105.534034 139.596734 
L 106.616216 160.633255 
L 108.239489 160.633255 
L 109.32167 181.669777 
L 110.403852 181.669777 
L 110.944943 192.188038 
L 112.568216 192.188038 
L 113.109307 181.669777 
L 116.355852 181.669777 
L 117.438034 202.706299 
L 119.061307 202.706299 
L 119.602398 223.742821 
L 122.307852 223.742821 
L 122.848943 234.261082 
L 124.472216 234.261082 
L 125.013307 223.742821 
L 128.259852 223.742821 
L 128.800943 234.261082 
L 129.883125 234.261082 
L 130.424216 255.297603 
L 140.163852 255.297603 
L 140.704943 265.815864 
L 157.478761 265.815864 
L 158.019852 276.334125 
L 381.490398 276.334125 
L 381.490398 276.334125 
" style="fill:none;stroke:#00b0ff;stroke-linecap:round;stroke-width:1.5;"/>
   </g>
   <g id="line2d_17">
    <path clip-path="url(#p01fc660d7c)" d="M 56.835852 276.334125 
L 57.918034 276.334125 
L 58.459125 265.815864 
L 60.623489 265.815864 
L 61.16458 255.297603 
L 61.70567 255.297603 
L 62.246761 234.261082 
L 63.870034 234.261082 
L 64.411125 223.742821 
L 64.952216 202.706299 
L 65.493307 213.22456 
L 66.034398 213.22456 
L 66.575489 202.706299 
L 67.11658 202.706299 
L 67.65767 192.188038 
L 68.739852 192.188038 
L 69.280943 202.706299 
L 69.822034 202.706299 
L 70.363125 181.669777 
L 70.904216 181.669777 
L 71.445307 171.151516 
L 71.986398 181.669777 
L 73.06858 181.669777 
L 73.60967 160.633255 
L 74.150761 160.633255 
L 74.691852 150.114995 
L 75.232943 150.114995 
L 75.774034 129.078473 
L 77.938398 87.005429 
L 78.479489 87.005429 
L 79.02058 76.487168 
L 79.56167 76.487168 
L 80.102761 87.005429 
L 80.643852 76.487168 
L 81.726034 76.487168 
L 82.267125 87.005429 
L 82.808216 87.005429 
L 83.349307 76.487168 
L 83.890398 76.487168 
L 84.431489 65.968908 
L 85.51367 87.005429 
L 86.054761 76.487168 
L 86.595852 87.005429 
L 87.136943 87.005429 
L 88.219125 108.041951 
L 91.46567 108.041951 
L 92.006761 118.560212 
L 92.547852 118.560212 
L 93.630034 97.52369 
L 96.335489 97.52369 
L 96.87658 108.041951 
L 98.499852 108.041951 
L 99.040943 87.005429 
L 99.582034 87.005429 
L 100.123125 97.52369 
L 100.664216 97.52369 
L 101.205307 87.005429 
L 102.287489 87.005429 
L 102.82858 97.52369 
L 103.36967 97.52369 
L 104.451852 118.560212 
L 105.534034 118.560212 
L 106.075125 129.078473 
L 114.73258 129.078473 
L 115.814761 150.114995 
L 117.438034 150.114995 
L 117.979125 160.633255 
L 118.520216 160.633255 
L 119.061307 171.151516 
L 119.602398 171.151516 
L 120.143489 150.114995 
L 121.22567 150.114995 
L 121.766761 139.596734 
L 122.848943 139.596734 
L 123.390034 150.114995 
L 123.931125 139.596734 
L 124.472216 160.633255 
L 128.259852 160.633255 
L 128.800943 150.114995 
L 129.342034 160.633255 
L 130.965307 160.633255 
L 131.506398 171.151516 
L 132.047489 171.151516 
L 132.58858 181.669777 
L 141.787125 181.669777 
L 142.328216 192.188038 
L 145.03367 192.188038 
L 145.574761 202.706299 
L 146.115852 192.188038 
L 146.656943 192.188038 
L 147.198034 202.706299 
L 147.739125 181.669777 
L 148.280216 181.669777 
L 148.821307 192.188038 
L 149.362398 192.188038 
L 149.903489 202.706299 
L 158.019852 202.706299 
L 158.560943 192.188038 
L 160.184216 192.188038 
L 160.725307 171.151516 
L 162.34858 171.151516 
L 162.88967 160.633255 
L 163.430761 171.151516 
L 166.677307 171.151516 
L 167.218398 181.669777 
L 167.759489 181.669777 
L 168.30058 192.188038 
L 169.382761 192.188038 
L 169.923852 202.706299 
L 170.464943 202.706299 
L 171.006034 213.22456 
L 172.088216 192.188038 
L 173.170398 192.188038 
L 173.711489 202.706299 
L 175.334761 202.706299 
L 175.875852 192.188038 
L 176.416943 202.706299 
L 185.074398 202.706299 
L 185.615489 213.22456 
L 186.15658 202.706299 
L 187.238761 202.706299 
L 187.779852 213.22456 
L 194.272943 213.22456 
L 194.814034 223.742821 
L 196.437307 223.742821 
L 196.978398 213.22456 
L 197.519489 213.22456 
L 198.06058 223.742821 
L 200.224943 223.742821 
L 200.766034 213.22456 
L 201.848216 213.22456 
L 202.389307 202.706299 
L 202.930398 202.706299 
L 203.471489 213.22456 
L 204.01258 202.706299 
L 204.55367 213.22456 
L 208.341307 213.22456 
L 208.882398 202.706299 
L 214.834398 202.706299 
L 215.375489 213.22456 
L 221.86858 213.22456 
L 222.40967 202.706299 
L 224.032943 202.706299 
L 224.574034 213.22456 
L 226.197307 213.22456 
L 226.738398 202.706299 
L 227.82058 202.706299 
L 228.36167 192.188038 
L 229.443852 192.188038 
L 229.984943 202.706299 
L 232.149307 202.706299 
L 232.690398 192.188038 
L 233.77258 192.188038 
L 234.854761 213.22456 
L 245.135489 213.22456 
L 245.67658 223.742821 
L 246.21767 223.742821 
L 246.758761 213.22456 
L 247.299852 223.742821 
L 248.923125 223.742821 
L 249.464216 234.261082 
L 260.286034 234.261082 
L 260.827125 244.779342 
L 261.909307 244.779342 
L 262.450398 234.261082 
L 271.107852 234.261082 
L 271.648943 223.742821 
L 272.190034 234.261082 
L 274.354398 234.261082 
L 274.895489 223.742821 
L 275.97767 223.742821 
L 276.518761 213.22456 
L 277.059852 213.22456 
L 277.600943 223.742821 
L 286.258398 223.742821 
L 286.799489 234.261082 
L 303.032216 234.261082 
L 303.573307 244.779342 
L 333.333307 244.779342 
L 333.874398 255.297603 
L 340.367489 255.297603 
L 340.90858 265.815864 
L 342.531852 265.815864 
L 343.072943 276.334125 
L 381.490398 276.334125 
L 381.490398 276.334125 
" style="fill:none;stroke:#29ffce;stroke-linecap:round;stroke-width:1.5;"/>
   </g>
   <g id="line2d_18">
    <path clip-path="url(#p01fc660d7c)" d="M 56.835852 276.334125 
L 62.787852 276.334125 
L 63.870034 255.297603 
L 64.952216 255.297603 
L 65.493307 265.815864 
L 66.575489 265.815864 
L 67.65767 244.779342 
L 68.198761 213.22456 
L 68.739852 213.22456 
L 69.280943 202.706299 
L 69.822034 181.669777 
L 70.363125 181.669777 
L 70.904216 171.151516 
L 71.445307 181.669777 
L 71.986398 181.669777 
L 72.527489 171.151516 
L 73.06858 150.114995 
L 73.60967 150.114995 
L 74.150761 129.078473 
L 74.691852 118.560212 
L 75.232943 129.078473 
L 75.774034 129.078473 
L 76.315125 118.560212 
L 76.856216 129.078473 
L 77.938398 129.078473 
L 78.479489 139.596734 
L 79.56167 139.596734 
L 80.102761 129.078473 
L 80.643852 108.041951 
L 81.184943 97.52369 
L 83.349307 97.52369 
L 83.890398 108.041951 
L 84.431489 108.041951 
L 84.97258 97.52369 
L 87.136943 97.52369 
L 87.678034 76.487168 
L 88.219125 87.005429 
L 88.760216 87.005429 
L 89.301307 55.450647 
L 89.842398 65.968908 
L 90.383489 65.968908 
L 90.92458 55.450647 
L 91.46567 65.968908 
L 92.547852 65.968908 
L 93.088943 76.487168 
L 93.630034 76.487168 
L 94.171125 87.005429 
L 94.712216 76.487168 
L 95.794398 97.52369 
L 97.958761 97.52369 
L 98.499852 108.041951 
L 101.205307 108.041951 
L 102.287489 129.078473 
L 103.36967 129.078473 
L 103.910761 139.596734 
L 104.451852 129.078473 
L 104.992943 139.596734 
L 105.534034 139.596734 
L 106.075125 129.078473 
L 107.157307 129.078473 
L 108.239489 150.114995 
L 108.78058 139.596734 
L 109.32167 139.596734 
L 109.862761 150.114995 
L 110.403852 139.596734 
L 111.486034 139.596734 
L 112.568216 160.633255 
L 113.109307 160.633255 
L 113.650398 150.114995 
L 117.979125 150.114995 
L 119.061307 171.151516 
L 119.602398 171.151516 
L 120.143489 160.633255 
L 120.68458 160.633255 
L 121.22567 171.151516 
L 122.307852 150.114995 
L 125.554398 150.114995 
L 126.095489 160.633255 
L 131.506398 160.633255 
L 132.58858 181.669777 
L 134.211852 181.669777 
L 134.752943 192.188038 
L 137.999489 192.188038 
L 138.54058 181.669777 
L 141.787125 181.669777 
L 142.869307 202.706299 
L 143.951489 181.669777 
L 144.49258 181.669777 
L 145.03367 192.188038 
L 147.739125 192.188038 
L 148.280216 202.706299 
L 153.691125 202.706299 
L 154.232216 192.188038 
L 154.773307 192.188038 
L 155.314398 181.669777 
L 158.019852 181.669777 
L 158.560943 171.151516 
L 159.643125 171.151516 
L 160.184216 181.669777 
L 160.725307 171.151516 
L 161.266398 181.669777 
L 166.677307 181.669777 
L 167.218398 192.188038 
L 169.382761 192.188038 
L 169.923852 202.706299 
L 170.464943 181.669777 
L 173.711489 181.669777 
L 174.25258 192.188038 
L 174.79367 192.188038 
L 175.334761 202.706299 
L 175.875852 202.706299 
L 176.416943 192.188038 
L 176.958034 192.188038 
L 177.499125 202.706299 
L 178.581307 202.706299 
L 179.122398 213.22456 
L 183.451125 213.22456 
L 183.992216 202.706299 
L 184.533307 213.22456 
L 185.074398 213.22456 
L 185.615489 192.188038 
L 186.69767 192.188038 
L 187.238761 202.706299 
L 192.64967 202.706299 
L 193.190761 213.22456 
L 194.814034 213.22456 
L 195.355125 223.742821 
L 196.978398 223.742821 
L 197.519489 213.22456 
L 200.766034 213.22456 
L 201.307125 223.742821 
L 202.930398 223.742821 
L 203.471489 234.261082 
L 204.01258 234.261082 
L 204.55367 244.779342 
L 205.635852 244.779342 
L 206.176943 234.261082 
L 208.341307 234.261082 
L 208.882398 244.779342 
L 213.211125 244.779342 
L 213.752216 234.261082 
L 222.40967 234.261082 
L 222.950761 223.742821 
L 225.656216 223.742821 
L 226.197307 213.22456 
L 228.902761 213.22456 
L 229.443852 223.742821 
L 233.77258 223.742821 
L 234.31367 234.261082 
L 248.923125 234.261082 
L 249.464216 223.742821 
L 250.005307 234.261082 
L 256.498398 234.261082 
L 257.039489 244.779342 
L 261.909307 244.779342 
L 262.450398 234.261082 
L 268.402398 234.261082 
L 268.943489 244.779342 
L 269.48458 244.779342 
L 270.02567 234.261082 
L 271.107852 234.261082 
L 271.648943 223.742821 
L 274.895489 223.742821 
L 275.43658 213.22456 
L 276.518761 213.22456 
L 277.059852 202.706299 
L 279.765307 202.706299 
L 280.306398 192.188038 
L 281.92967 192.188038 
L 283.011852 213.22456 
L 286.258398 213.22456 
L 286.799489 202.706299 
L 287.34058 213.22456 
L 294.374761 213.22456 
L 294.915852 223.742821 
L 295.456943 223.742821 
L 295.998034 234.261082 
L 301.408943 234.261082 
L 301.950034 244.779342 
L 302.491125 244.779342 
L 303.032216 234.261082 
L 303.573307 244.779342 
L 305.73767 244.779342 
L 306.278761 234.261082 
L 307.360943 234.261082 
L 307.902034 223.742821 
L 308.443125 223.742821 
L 308.984216 213.22456 
L 309.525307 223.742821 
L 311.14858 223.742821 
L 311.68967 213.22456 
L 314.395125 213.22456 
L 314.936216 202.706299 
L 316.559489 202.706299 
L 317.10058 213.22456 
L 319.806034 213.22456 
L 320.347125 223.742821 
L 322.511489 223.742821 
L 323.05258 234.261082 
L 324.675852 234.261082 
L 325.758034 255.297603 
L 326.299125 255.297603 
L 326.840216 265.815864 
L 339.826398 265.815864 
L 340.367489 276.334125 
L 381.490398 276.334125 
L 381.490398 276.334125 
" style="fill:none;stroke:#7dff7a;stroke-linecap:round;stroke-width:1.5;"/>
   </g>
   <g id="line2d_19">
    <path clip-path="url(#p01fc660d7c)" d="M 56.835852 276.334125 
L 61.16458 276.334125 
L 62.246761 255.297603 
L 62.787852 255.297603 
L 63.328943 244.779342 
L 63.870034 244.779342 
L 64.411125 223.742821 
L 64.952216 223.742821 
L 65.493307 234.261082 
L 66.034398 223.742821 
L 67.11658 223.742821 
L 68.198761 202.706299 
L 68.739852 202.706299 
L 69.280943 192.188038 
L 69.822034 160.633255 
L 70.363125 150.114995 
L 70.904216 150.114995 
L 71.445307 160.633255 
L 71.986398 139.596734 
L 72.527489 139.596734 
L 73.06858 150.114995 
L 73.60967 150.114995 
L 74.150761 129.078473 
L 74.691852 118.560212 
L 75.232943 129.078473 
L 75.774034 129.078473 
L 76.315125 150.114995 
L 76.856216 150.114995 
L 77.938398 129.078473 
L 78.479489 139.596734 
L 79.56167 139.596734 
L 81.726034 97.52369 
L 82.808216 97.52369 
L 83.349307 108.041951 
L 84.431489 108.041951 
L 85.51367 129.078473 
L 86.054761 129.078473 
L 86.595852 108.041951 
L 87.136943 118.560212 
L 89.842398 118.560212 
L 90.383489 108.041951 
L 91.46567 108.041951 
L 92.006761 97.52369 
L 92.547852 108.041951 
L 93.630034 108.041951 
L 94.171125 118.560212 
L 94.712216 97.52369 
L 95.253307 118.560212 
L 97.41767 118.560212 
L 97.958761 129.078473 
L 99.040943 129.078473 
L 99.582034 118.560212 
L 100.123125 118.560212 
L 100.664216 129.078473 
L 101.205307 129.078473 
L 101.746398 139.596734 
L 103.36967 139.596734 
L 103.910761 150.114995 
L 106.616216 150.114995 
L 107.157307 139.596734 
L 110.403852 139.596734 
L 110.944943 129.078473 
L 111.486034 150.114995 
L 112.027125 139.596734 
L 113.650398 139.596734 
L 114.191489 150.114995 
L 114.73258 150.114995 
L 115.27367 171.151516 
L 116.355852 171.151516 
L 116.896943 181.669777 
L 118.520216 181.669777 
L 119.061307 192.188038 
L 119.602398 171.151516 
L 120.143489 181.669777 
L 121.766761 181.669777 
L 122.307852 192.188038 
L 122.848943 192.188038 
L 123.390034 202.706299 
L 123.931125 202.706299 
L 124.472216 192.188038 
L 129.342034 192.188038 
L 129.883125 202.706299 
L 132.047489 202.706299 
L 132.58858 192.188038 
L 136.917307 192.188038 
L 137.458398 202.706299 
L 139.622761 202.706299 
L 140.163852 213.22456 
L 143.410398 213.22456 
L 143.951489 202.706299 
L 147.198034 202.706299 
L 147.739125 192.188038 
L 148.821307 192.188038 
L 149.362398 202.706299 
L 150.44458 202.706299 
L 151.526761 223.742821 
L 152.067852 213.22456 
L 154.773307 213.22456 
L 155.314398 223.742821 
L 158.019852 223.742821 
L 158.560943 234.261082 
L 159.102034 234.261082 
L 159.643125 244.779342 
L 162.34858 244.779342 
L 162.88967 234.261082 
L 167.218398 234.261082 
L 168.30058 255.297603 
L 176.416943 255.297603 
L 176.958034 244.779342 
L 177.499125 244.779342 
L 179.663489 202.706299 
L 181.286761 202.706299 
L 181.827852 213.22456 
L 182.368943 202.706299 
L 183.992216 202.706299 
L 184.533307 192.188038 
L 185.615489 192.188038 
L 186.15658 181.669777 
L 188.320943 181.669777 
L 188.862034 192.188038 
L 191.026398 192.188038 
L 191.567489 202.706299 
L 195.896216 202.706299 
L 196.437307 213.22456 
L 196.978398 213.22456 
L 197.519489 223.742821 
L 203.471489 223.742821 
L 204.01258 213.22456 
L 210.50567 213.22456 
L 211.587852 234.261082 
L 212.670034 234.261082 
L 213.211125 223.742821 
L 215.375489 223.742821 
L 215.91658 244.779342 
L 218.622034 244.779342 
L 219.163125 234.261082 
L 219.704216 244.779342 
L 224.574034 244.779342 
L 225.115125 223.742821 
L 225.656216 213.22456 
L 226.738398 213.22456 
L 227.279489 202.706299 
L 228.36167 202.706299 
L 228.902761 213.22456 
L 230.526034 213.22456 
L 231.067125 223.742821 
L 232.149307 223.742821 
L 232.690398 234.261082 
L 233.77258 234.261082 
L 234.31367 223.742821 
L 238.642398 223.742821 
L 239.183489 234.261082 
L 245.135489 234.261082 
L 245.67658 244.779342 
L 247.299852 244.779342 
L 248.382034 223.742821 
L 248.923125 234.261082 
L 249.464216 234.261082 
L 250.005307 244.779342 
L 250.546398 223.742821 
L 252.710761 223.742821 
L 253.251852 213.22456 
L 259.203852 213.22456 
L 259.744943 223.742821 
L 260.827125 223.742821 
L 262.991489 181.669777 
L 265.155852 181.669777 
L 265.696943 192.188038 
L 267.320216 192.188038 
L 267.861307 181.669777 
L 270.02567 181.669777 
L 271.107852 202.706299 
L 273.272216 202.706299 
L 274.895489 234.261082 
L 276.518761 234.261082 
L 277.059852 213.22456 
L 284.635125 213.22456 
L 285.176216 202.706299 
L 286.258398 202.706299 
L 286.799489 192.188038 
L 287.34058 192.188038 
L 287.88167 213.22456 
L 288.963852 213.22456 
L 289.504943 223.742821 
L 290.046034 213.22456 
L 293.83367 213.22456 
L 294.915852 192.188038 
L 297.080216 192.188038 
L 297.621307 202.706299 
L 306.278761 202.706299 
L 306.819852 213.22456 
L 308.984216 213.22456 
L 309.525307 202.706299 
L 310.607489 202.706299 
L 311.14858 213.22456 
L 311.68967 213.22456 
L 312.771852 192.188038 
L 316.018398 192.188038 
L 316.559489 202.706299 
L 320.347125 202.706299 
L 321.429307 181.669777 
L 322.511489 181.669777 
L 323.05258 192.188038 
L 326.840216 192.188038 
L 327.381307 181.669777 
L 327.922398 181.669777 
L 328.463489 171.151516 
L 329.00458 171.151516 
L 329.54567 181.669777 
L 333.874398 181.669777 
L 334.415489 192.188038 
L 340.90858 192.188038 
L 341.44967 202.706299 
L 347.40167 202.706299 
L 347.942761 192.188038 
L 357.141307 192.188038 
L 357.682398 202.706299 
L 358.223489 202.706299 
L 358.76458 213.22456 
L 359.30567 213.22456 
L 359.846761 202.706299 
L 365.25767 202.706299 
L 365.798761 192.188038 
L 368.504216 192.188038 
L 369.045307 202.706299 
L 373.915125 202.706299 
L 375.538398 171.151516 
L 376.62058 171.151516 
L 377.16167 181.669777 
L 377.702761 171.151516 
L 379.326034 171.151516 
L 379.867125 181.669777 
L 380.949307 181.669777 
L 381.490398 171.151516 
L 381.490398 171.151516 
" style="fill:none;stroke:#ceff29;stroke-linecap:round;stroke-width:1.5;"/>
   </g>
   <g id="line2d_20">
    <path clip-path="url(#p01fc660d7c)" d="M 56.835852 276.334125 
L 61.16458 276.334125 
L 61.70567 265.815864 
L 62.246761 244.779342 
L 62.787852 234.261082 
L 63.328943 234.261082 
L 63.870034 223.742821 
L 66.034398 223.742821 
L 66.575489 202.706299 
L 68.198761 202.706299 
L 68.739852 192.188038 
L 69.280943 192.188038 
L 69.822034 202.706299 
L 70.904216 202.706299 
L 71.445307 181.669777 
L 71.986398 181.669777 
L 72.527489 171.151516 
L 73.60967 171.151516 
L 74.691852 192.188038 
L 75.232943 181.669777 
L 75.774034 160.633255 
L 76.315125 160.633255 
L 76.856216 139.596734 
L 81.726034 139.596734 
L 82.267125 129.078473 
L 82.808216 129.078473 
L 83.349307 139.596734 
L 84.431489 118.560212 
L 84.97258 118.560212 
L 85.51367 129.078473 
L 87.136943 129.078473 
L 87.678034 118.560212 
L 88.219125 129.078473 
L 88.760216 108.041951 
L 89.301307 118.560212 
L 89.842398 108.041951 
L 90.383489 108.041951 
L 90.92458 118.560212 
L 91.46567 118.560212 
L 92.006761 129.078473 
L 93.630034 129.078473 
L 94.171125 139.596734 
L 94.712216 139.596734 
L 95.253307 150.114995 
L 96.87658 150.114995 
L 97.41767 160.633255 
L 97.958761 160.633255 
L 98.499852 171.151516 
L 103.910761 171.151516 
L 104.451852 160.633255 
L 106.075125 160.633255 
L 106.616216 181.669777 
L 107.157307 192.188038 
L 113.109307 192.188038 
L 113.650398 202.706299 
L 114.191489 192.188038 
L 116.355852 192.188038 
L 116.896943 181.669777 
L 120.143489 181.669777 
L 121.766761 213.22456 
L 125.013307 213.22456 
L 125.554398 223.742821 
L 126.63658 223.742821 
L 127.17767 213.22456 
L 128.800943 213.22456 
L 129.342034 202.706299 
L 131.506398 202.706299 
L 132.047489 213.22456 
L 136.376216 213.22456 
L 137.458398 192.188038 
L 143.951489 192.188038 
L 144.49258 181.669777 
L 145.03367 192.188038 
L 146.656943 192.188038 
L 147.198034 202.706299 
L 147.739125 202.706299 
L 148.280216 213.22456 
L 149.362398 213.22456 
L 149.903489 223.742821 
L 151.526761 223.742821 
L 152.067852 213.22456 
L 152.608943 223.742821 
L 154.773307 223.742821 
L 155.314398 213.22456 
L 156.93767 213.22456 
L 157.478761 223.742821 
L 160.725307 223.742821 
L 161.266398 234.261082 
L 162.88967 234.261082 
L 163.971852 213.22456 
L 167.218398 213.22456 
L 167.759489 234.261082 
L 171.006034 234.261082 
L 171.547125 244.779342 
L 172.088216 244.779342 
L 173.170398 223.742821 
L 173.711489 223.742821 
L 174.25258 234.261082 
L 178.581307 234.261082 
L 179.122398 223.742821 
L 181.286761 223.742821 
L 181.827852 234.261082 
L 183.451125 234.261082 
L 183.992216 244.779342 
L 184.533307 244.779342 
L 185.074398 234.261082 
L 185.615489 234.261082 
L 186.15658 223.742821 
L 186.69767 223.742821 
L 187.238761 244.779342 
L 188.862034 244.779342 
L 189.403125 234.261082 
L 191.567489 234.261082 
L 192.10858 223.742821 
L 192.64967 234.261082 
L 193.731852 234.261082 
L 194.272943 223.742821 
L 198.60167 223.742821 
L 199.142761 234.261082 
L 201.848216 234.261082 
L 202.389307 223.742821 
L 205.094761 223.742821 
L 205.635852 213.22456 
L 206.176943 213.22456 
L 206.718034 223.742821 
L 208.341307 223.742821 
L 208.882398 234.261082 
L 209.423489 234.261082 
L 209.96458 244.779342 
L 215.375489 244.779342 
L 215.91658 255.297603 
L 221.86858 255.297603 
L 222.40967 244.779342 
L 228.36167 244.779342 
L 228.902761 234.261082 
L 229.443852 234.261082 
L 229.984943 223.742821 
L 230.526034 234.261082 
L 232.149307 234.261082 
L 232.690398 223.742821 
L 241.347852 223.742821 
L 241.888943 213.22456 
L 242.430034 213.22456 
L 242.971125 202.706299 
L 245.67658 202.706299 
L 246.21767 213.22456 
L 246.758761 213.22456 
L 247.299852 202.706299 
L 251.62858 202.706299 
L 252.16967 181.669777 
L 252.710761 181.669777 
L 253.251852 192.188038 
L 260.827125 192.188038 
L 261.368216 181.669777 
L 266.238034 181.669777 
L 266.779125 192.188038 
L 270.02567 192.188038 
L 270.566761 202.706299 
L 274.354398 202.706299 
L 274.895489 213.22456 
L 276.518761 213.22456 
L 277.059852 223.742821 
L 280.306398 223.742821 
L 280.847489 202.706299 
L 282.470761 202.706299 
L 283.011852 213.22456 
L 285.176216 213.22456 
L 285.717307 202.706299 
L 286.258398 202.706299 
L 286.799489 192.188038 
L 287.88167 192.188038 
L 288.422761 181.669777 
L 290.587125 181.669777 
L 291.128216 192.188038 
L 292.210398 192.188038 
L 292.751489 202.706299 
L 293.83367 202.706299 
L 294.374761 213.22456 
L 295.456943 213.22456 
L 296.539125 234.261082 
L 298.162398 234.261082 
L 298.703489 244.779342 
L 299.24458 244.779342 
L 299.78567 255.297603 
L 300.867852 255.297603 
L 301.408943 265.815864 
L 304.114398 265.815864 
L 304.655489 255.297603 
L 307.902034 255.297603 
L 308.443125 244.779342 
L 318.182761 244.779342 
L 318.723852 234.261082 
L 319.264943 234.261082 
L 319.806034 223.742821 
L 321.970398 223.742821 
L 322.511489 213.22456 
L 326.299125 213.22456 
L 326.840216 223.742821 
L 328.463489 223.742821 
L 329.00458 244.779342 
L 333.333307 244.779342 
L 333.874398 234.261082 
L 334.415489 244.779342 
L 335.49767 244.779342 
L 336.038761 234.261082 
L 337.662034 234.261082 
L 338.203125 244.779342 
L 338.744216 244.779342 
L 339.285307 255.297603 
L 352.271489 255.297603 
L 352.81258 265.815864 
L 360.387852 265.815864 
L 360.928943 276.334125 
L 381.490398 276.334125 
L 381.490398 276.334125 
" style="fill:none;stroke:#ffc400;stroke-linecap:round;stroke-width:1.5;"/>
   </g>
   <g id="line2d_21">
    <path clip-path="url(#p01fc660d7c)" d="M 56.835852 276.334125 
L 60.082398 276.334125 
L 60.623489 265.815864 
L 61.70567 265.815864 
L 62.787852 244.779342 
L 63.328943 223.742821 
L 64.952216 223.742821 
L 65.493307 234.261082 
L 66.034398 234.261082 
L 66.575489 223.742821 
L 67.11658 223.742821 
L 67.65767 213.22456 
L 68.198761 181.669777 
L 68.739852 181.669777 
L 69.280943 171.151516 
L 69.822034 150.114995 
L 70.904216 129.078473 
L 72.527489 129.078473 
L 73.06858 108.041951 
L 73.60967 97.52369 
L 74.150761 108.041951 
L 74.691852 97.52369 
L 75.232943 76.487168 
L 75.774034 65.968908 
L 76.315125 65.968908 
L 76.856216 55.450647 
L 77.938398 76.487168 
L 80.102761 76.487168 
L 80.643852 87.005429 
L 81.726034 65.968908 
L 82.267125 76.487168 
L 83.349307 76.487168 
L 83.890398 87.005429 
L 84.431489 76.487168 
L 86.054761 76.487168 
L 86.595852 87.005429 
L 87.136943 76.487168 
L 87.678034 76.487168 
L 88.219125 65.968908 
L 88.760216 76.487168 
L 90.383489 76.487168 
L 90.92458 65.968908 
L 91.46567 65.968908 
L 92.006761 55.450647 
L 92.547852 55.450647 
L 93.088943 65.968908 
L 93.630034 65.968908 
L 95.253307 97.52369 
L 95.794398 97.52369 
L 96.335489 108.041951 
L 97.41767 108.041951 
L 97.958761 97.52369 
L 99.582034 97.52369 
L 100.123125 108.041951 
L 101.205307 108.041951 
L 101.746398 97.52369 
L 102.287489 108.041951 
L 104.451852 108.041951 
L 104.992943 118.560212 
L 105.534034 118.560212 
L 106.075125 108.041951 
L 107.698398 108.041951 
L 108.78058 129.078473 
L 109.32167 118.560212 
L 110.944943 118.560212 
L 111.486034 108.041951 
L 112.568216 108.041951 
L 113.109307 118.560212 
L 113.650398 108.041951 
L 116.355852 108.041951 
L 116.896943 118.560212 
L 117.438034 108.041951 
L 118.520216 108.041951 
L 119.061307 118.560212 
L 120.68458 118.560212 
L 121.22567 129.078473 
L 121.766761 150.114995 
L 122.848943 171.151516 
L 123.390034 171.151516 
L 123.931125 181.669777 
L 128.259852 181.669777 
L 128.800943 192.188038 
L 133.670761 192.188038 
L 134.211852 202.706299 
L 134.752943 202.706299 
L 135.294034 192.188038 
L 142.328216 192.188038 
L 142.869307 181.669777 
L 145.03367 181.669777 
L 145.574761 192.188038 
L 146.115852 192.188038 
L 146.656943 181.669777 
L 151.526761 181.669777 
L 152.067852 192.188038 
L 152.608943 192.188038 
L 153.150034 202.706299 
L 153.691125 192.188038 
L 154.773307 192.188038 
L 155.314398 181.669777 
L 155.855489 181.669777 
L 156.39658 171.151516 
L 158.019852 171.151516 
L 158.560943 181.669777 
L 160.725307 181.669777 
L 161.266398 192.188038 
L 163.430761 192.188038 
L 163.971852 181.669777 
L 164.512943 192.188038 
L 166.677307 192.188038 
L 167.218398 202.706299 
L 169.382761 202.706299 
L 169.923852 213.22456 
L 171.006034 213.22456 
L 171.547125 202.706299 
L 176.416943 202.706299 
L 176.958034 213.22456 
L 178.040216 213.22456 
L 178.581307 202.706299 
L 182.910034 202.706299 
L 183.451125 213.22456 
L 184.533307 213.22456 
L 185.074398 223.742821 
L 185.615489 213.22456 
L 186.15658 223.742821 
L 187.238761 223.742821 
L 187.779852 234.261082 
L 192.10858 234.261082 
L 192.64967 244.779342 
L 194.814034 244.779342 
L 195.355125 234.261082 
L 198.60167 234.261082 
L 199.683852 255.297603 
L 202.930398 255.297603 
L 203.471489 244.779342 
L 207.800216 244.779342 
L 208.341307 255.297603 
L 208.882398 244.779342 
L 219.704216 244.779342 
L 220.245307 234.261082 
L 222.40967 234.261082 
L 222.950761 223.742821 
L 225.115125 223.742821 
L 225.656216 234.261082 
L 229.443852 234.261082 
L 229.984943 223.742821 
L 233.231489 223.742821 
L 234.31367 202.706299 
L 234.854761 202.706299 
L 235.395852 192.188038 
L 235.936943 192.188038 
L 236.478034 202.706299 
L 241.888943 202.706299 
L 242.430034 192.188038 
L 245.135489 192.188038 
L 246.21767 213.22456 
L 247.840943 213.22456 
L 248.382034 223.742821 
L 252.16967 223.742821 
L 252.710761 234.261082 
L 259.203852 234.261082 
L 259.744943 244.779342 
L 307.902034 244.779342 
L 308.443125 255.297603 
L 311.68967 255.297603 
L 312.230761 265.815864 
L 324.675852 265.815864 
L 325.216943 276.334125 
L 381.490398 276.334125 
L 381.490398 276.334125 
" style="fill:none;stroke:#ff6800;stroke-linecap:round;stroke-width:1.5;"/>
   </g>
   <g id="line2d_22">
    <path clip-path="url(#p01fc660d7c)" d="M 56.835852 276.334125 
L 60.623489 276.334125 
L 61.16458 265.815864 
L 61.70567 244.779342 
L 62.787852 244.779342 
L 63.328943 223.742821 
L 65.493307 181.669777 
L 66.575489 181.669777 
L 67.11658 171.151516 
L 69.822034 171.151516 
L 70.363125 160.633255 
L 70.904216 139.596734 
L 71.445307 139.596734 
L 71.986398 118.560212 
L 73.06858 139.596734 
L 73.60967 108.041951 
L 75.232943 108.041951 
L 75.774034 118.560212 
L 77.938398 118.560212 
L 78.479489 108.041951 
L 79.02058 108.041951 
L 79.56167 129.078473 
L 80.102761 139.596734 
L 83.890398 139.596734 
L 84.431489 129.078473 
L 84.97258 139.596734 
L 87.136943 139.596734 
L 88.219125 118.560212 
L 88.760216 129.078473 
L 89.301307 129.078473 
L 89.842398 139.596734 
L 92.547852 139.596734 
L 93.088943 150.114995 
L 93.630034 150.114995 
L 94.171125 160.633255 
L 96.335489 160.633255 
L 96.87658 150.114995 
L 97.958761 171.151516 
L 98.499852 171.151516 
L 99.582034 192.188038 
L 100.664216 192.188038 
L 101.205307 181.669777 
L 104.451852 181.669777 
L 104.992943 202.706299 
L 106.616216 202.706299 
L 107.157307 192.188038 
L 110.403852 192.188038 
L 110.944943 202.706299 
L 116.355852 202.706299 
L 117.438034 223.742821 
L 119.061307 223.742821 
L 119.602398 234.261082 
L 129.342034 234.261082 
L 130.424216 255.297603 
L 145.574761 255.297603 
L 146.115852 265.815864 
L 156.93767 265.815864 
L 157.478761 276.334125 
L 381.490398 276.334125 
L 381.490398 276.334125 
" style="fill:none;stroke:#f10800;stroke-linecap:round;stroke-width:1.5;"/>
   </g>
   <g id="patch_3">
    <path d="M 40.603125 288.430125 
L 40.603125 22.318125 
" style="fill:none;stroke:#cccccc;stroke-linecap:square;stroke-linejoin:miter;stroke-width:0.8;"/>
   </g>
   <g id="patch_4">
    <path d="M 397.723125 288.430125 
L 397.723125 22.318125 
" style="fill:none;stroke:#cccccc;stroke-linecap:square;stroke-linejoin:miter;stroke-width:0.8;"/>
   </g>
   <g id="patch_5">
    <path d="M 40.603125 288.430125 
L 397.723125 288.430125 
" style="fill:none;stroke:#cccccc;stroke-linecap:square;stroke-linejoin:miter;stroke-width:0.8;"/>
   </g>
   <g id="patch_6">
    <path d="M 40.603125 22.318125 
L 397.723125 22.318125 
" style="fill:none;stroke:#cccccc;stroke-linecap:square;stroke-linejoin:miter;stroke-width:0.8;"/>
   </g>
   <g id="text_15">
    <!-- Effector T CD4 -->
    <defs>
     <path d="M 9.8125 72.90625 
L 55.90625 72.90625 
L 55.90625 64.59375 
L 19.671875 64.59375 
L 19.671875 43.015625 
L 54.390625 43.015625 
L 54.390625 34.71875 
L 19.671875 34.71875 
L 19.671875 8.296875 
L 56.78125 8.296875 
L 56.78125 0 
L 9.8125 0 
z
" id="DejaVuSans-69"/>
     <path d="M 37.109375 75.984375 
L 37.109375 68.5 
L 28.515625 68.5 
Q 23.6875 68.5 21.796875 66.546875 
Q 19.921875 64.59375 19.921875 59.515625 
L 19.921875 54.6875 
L 34.71875 54.6875 
L 34.71875 47.703125 
L 19.921875 47.703125 
L 19.921875 0 
L 10.890625 0 
L 10.890625 47.703125 
L 2.296875 47.703125 
L 2.296875 54.6875 
L 10.890625 54.6875 
L 10.890625 58.5 
Q 10.890625 67.625 15.140625 71.796875 
Q 19.390625 75.984375 28.609375 75.984375 
z
" id="DejaVuSans-102"/>
     <path d="M 30.609375 48.390625 
Q 23.390625 48.390625 19.1875 42.75 
Q 14.984375 37.109375 14.984375 27.296875 
Q 14.984375 17.484375 19.15625 11.84375 
Q 23.34375 6.203125 30.609375 6.203125 
Q 37.796875 6.203125 41.984375 11.859375 
Q 46.1875 17.53125 46.1875 27.296875 
Q 46.1875 37.015625 41.984375 42.703125 
Q 37.796875 48.390625 30.609375 48.390625 
z
M 30.609375 56 
Q 42.328125 56 49.015625 48.375 
Q 55.71875 40.765625 55.71875 27.296875 
Q 55.71875 13.875 49.015625 6.21875 
Q 42.328125 -1.421875 30.609375 -1.421875 
Q 18.84375 -1.421875 12.171875 6.21875 
Q 5.515625 13.875 5.515625 27.296875 
Q 5.515625 40.765625 12.171875 48.375 
Q 18.84375 56 30.609375 56 
z
" id="DejaVuSans-111"/>
     <path d="M -0.296875 72.90625 
L 61.375 72.90625 
L 61.375 64.59375 
L 35.5 64.59375 
L 35.5 0 
L 25.59375 0 
L 25.59375 64.59375 
L -0.296875 64.59375 
z
" id="DejaVuSans-84"/>
     <path d="M 64.40625 67.28125 
L 64.40625 56.890625 
Q 59.421875 61.53125 53.78125 63.8125 
Q 48.140625 66.109375 41.796875 66.109375 
Q 29.296875 66.109375 22.65625 58.46875 
Q 16.015625 50.828125 16.015625 36.375 
Q 16.015625 21.96875 22.65625 14.328125 
Q 29.296875 6.6875 41.796875 6.6875 
Q 48.140625 6.6875 53.78125 8.984375 
Q 59.421875 11.28125 64.40625 15.921875 
L 64.40625 5.609375 
Q 59.234375 2.09375 53.4375 0.328125 
Q 47.65625 -1.421875 41.21875 -1.421875 
Q 24.65625 -1.421875 15.125 8.703125 
Q 5.609375 18.84375 5.609375 36.375 
Q 5.609375 53.953125 15.125 64.078125 
Q 24.65625 74.21875 41.21875 74.21875 
Q 47.75 74.21875 53.53125 72.484375 
Q 59.328125 70.75 64.40625 67.28125 
z
" id="DejaVuSans-67"/>
     <path d="M 19.671875 64.796875 
L 19.671875 8.109375 
L 31.59375 8.109375 
Q 46.6875 8.109375 53.6875 14.9375 
Q 60.6875 21.78125 60.6875 36.53125 
Q 60.6875 51.171875 53.6875 57.984375 
Q 46.6875 64.796875 31.59375 64.796875 
z
M 9.8125 72.90625 
L 30.078125 72.90625 
Q 51.265625 72.90625 61.171875 64.09375 
Q 71.09375 55.28125 71.09375 36.53125 
Q 71.09375 17.671875 61.125 8.828125 
Q 51.171875 0 30.078125 0 
L 9.8125 0 
z
" id="DejaVuSans-68"/>
    </defs>
    <g style="fill:#262626;" transform="translate(175.560938 16.318125)scale(0.12 -0.12)">
     <use xlink:href="#DejaVuSans-69"/>
     <use x="63.183594" xlink:href="#DejaVuSans-102"/>
     <use x="98.388672" xlink:href="#DejaVuSans-102"/>
     <use x="133.59375" xlink:href="#DejaVuSans-101"/>
     <use x="195.117188" xlink:href="#DejaVuSans-99"/>
     <use x="250.097656" xlink:href="#DejaVuSans-116"/>
     <use x="289.306641" xlink:href="#DejaVuSans-111"/>
     <use x="350.488281" xlink:href="#DejaVuSans-114"/>
     <use x="391.601562" xlink:href="#DejaVuSans-32"/>
     <use x="423.388672" xlink:href="#DejaVuSans-84"/>
     <use x="484.472656" xlink:href="#DejaVuSans-32"/>
     <use x="516.259766" xlink:href="#DejaVuSans-67"/>
     <use x="586.083984" xlink:href="#DejaVuSans-68"/>
     <use x="663.085938" xlink:href="#DejaVuSans-52"/>
    </g>
   </g>
  </g>
 </g>
 <defs>
  <clipPath id="p01fc660d7c">
   <rect height="266.112" width="357.12" x="40.603125" y="22.318125"/>
  </clipPath>
 </defs>
</svg>
