<?xml version="1.0" encoding="utf-8" standalone="no"?>
<!DOCTYPE svg PUBLIC "-//W3C//DTD SVG 1.1//EN"
  "http://www.w3.org/Graphics/SVG/1.1/DTD/svg11.dtd">
<!-- Created with matplotlib (https://matplotlib.org/) -->
<svg height="325.986375pt" version="1.1" viewBox="0 0 417.648125 325.986375" width="417.648125pt" xmlns="http://www.w3.org/2000/svg" xmlns:xlink="http://www.w3.org/1999/xlink">
 <defs>
  <style type="text/css">
*{stroke-linecap:butt;stroke-linejoin:round;white-space:pre;}
  </style>
 </defs>
 <g id="figure_1">
  <g id="patch_1">
   <path d="M 0 325.986375 
L 417.648125 325.986375 
L 417.648125 0 
L 0 0 
z
" style="fill:#ffffff;"/>
  </g>
  <g id="axes_1">
   <g id="patch_2">
    <path d="M 53.328125 288.430125 
L 410.448125 288.430125 
L 410.448125 22.318125 
L 53.328125 22.318125 
z
" style="fill:#ffffff;"/>
   </g>
   <g id="matplotlib.axis_1">
    <g id="xtick_1">
     <g id="line2d_1">
      <path clip-path="url(#p49f2893c65)" d="M 69.560852 288.430125 
L 69.560852 22.318125 
" style="fill:none;stroke:#cccccc;stroke-linecap:round;stroke-width:0.8;"/>
     </g>
     <g id="text_1">
      <!-- 0 -->
      <defs>
       <path d="M 31.78125 66.40625 
Q 24.171875 66.40625 20.328125 58.90625 
Q 16.5 51.421875 16.5 36.375 
Q 16.5 21.390625 20.328125 13.890625 
Q 24.171875 6.390625 31.78125 6.390625 
Q 39.453125 6.390625 43.28125 13.890625 
Q 47.125 21.390625 47.125 36.375 
Q 47.125 51.421875 43.28125 58.90625 
Q 39.453125 66.40625 31.78125 66.40625 
z
M 31.78125 74.21875 
Q 44.046875 74.21875 50.515625 64.515625 
Q 56.984375 54.828125 56.984375 36.375 
Q 56.984375 17.96875 50.515625 8.265625 
Q 44.046875 -1.421875 31.78125 -1.421875 
Q 19.53125 -1.421875 13.0625 8.265625 
Q 6.59375 17.96875 6.59375 36.375 
Q 6.59375 54.828125 13.0625 64.515625 
Q 19.53125 74.21875 31.78125 74.21875 
z
" id="DejaVuSans-48"/>
      </defs>
      <g style="fill:#262626;" transform="translate(66.379602 303.028562)scale(0.1 -0.1)">
       <use xlink:href="#DejaVuSans-48"/>
      </g>
     </g>
    </g>
    <g id="xtick_2">
     <g id="line2d_2">
      <path clip-path="url(#p49f2893c65)" d="M 123.669943 288.430125 
L 123.669943 22.318125 
" style="fill:none;stroke:#cccccc;stroke-linecap:round;stroke-width:0.8;"/>
     </g>
     <g id="text_2">
      <!-- 10 -->
      <defs>
       <path d="M 12.40625 8.296875 
L 28.515625 8.296875 
L 28.515625 63.921875 
L 10.984375 60.40625 
L 10.984375 69.390625 
L 28.421875 72.90625 
L 38.28125 72.90625 
L 38.28125 8.296875 
L 54.390625 8.296875 
L 54.390625 0 
L 12.40625 0 
z
" id="DejaVuSans-49"/>
      </defs>
      <g style="fill:#262626;" transform="translate(117.307443 303.028562)scale(0.1 -0.1)">
       <use xlink:href="#DejaVuSans-49"/>
       <use x="63.623047" xlink:href="#DejaVuSans-48"/>
      </g>
     </g>
    </g>
    <g id="xtick_3">
     <g id="line2d_3">
      <path clip-path="url(#p49f2893c65)" d="M 177.779034 288.430125 
L 177.779034 22.318125 
" style="fill:none;stroke:#cccccc;stroke-linecap:round;stroke-width:0.8;"/>
     </g>
     <g id="text_3">
      <!-- 20 -->
      <defs>
       <path d="M 19.1875 8.296875 
L 53.609375 8.296875 
L 53.609375 0 
L 7.328125 0 
L 7.328125 8.296875 
Q 12.9375 14.109375 22.625 23.890625 
Q 32.328125 33.6875 34.8125 36.53125 
Q 39.546875 41.84375 41.421875 45.53125 
Q 43.3125 49.21875 43.3125 52.78125 
Q 43.3125 58.59375 39.234375 62.25 
Q 35.15625 65.921875 28.609375 65.921875 
Q 23.96875 65.921875 18.8125 64.3125 
Q 13.671875 62.703125 7.8125 59.421875 
L 7.8125 69.390625 
Q 13.765625 71.78125 18.9375 73 
Q 24.125 74.21875 28.421875 74.21875 
Q 39.75 74.21875 46.484375 68.546875 
Q 53.21875 62.890625 53.21875 53.421875 
Q 53.21875 48.921875 51.53125 44.890625 
Q 49.859375 40.875 45.40625 35.40625 
Q 44.1875 33.984375 37.640625 27.21875 
Q 31.109375 20.453125 19.1875 8.296875 
z
" id="DejaVuSans-50"/>
      </defs>
      <g style="fill:#262626;" transform="translate(171.416534 303.028562)scale(0.1 -0.1)">
       <use xlink:href="#DejaVuSans-50"/>
       <use x="63.623047" xlink:href="#DejaVuSans-48"/>
      </g>
     </g>
    </g>
    <g id="xtick_4">
     <g id="line2d_4">
      <path clip-path="url(#p49f2893c65)" d="M 231.888125 288.430125 
L 231.888125 22.318125 
" style="fill:none;stroke:#cccccc;stroke-linecap:round;stroke-width:0.8;"/>
     </g>
     <g id="text_4">
      <!-- 30 -->
      <defs>
       <path d="M 40.578125 39.3125 
Q 47.65625 37.796875 51.625 33 
Q 55.609375 28.21875 55.609375 21.1875 
Q 55.609375 10.40625 48.1875 4.484375 
Q 40.765625 -1.421875 27.09375 -1.421875 
Q 22.515625 -1.421875 17.65625 -0.515625 
Q 12.796875 0.390625 7.625 2.203125 
L 7.625 11.71875 
Q 11.71875 9.328125 16.59375 8.109375 
Q 21.484375 6.890625 26.8125 6.890625 
Q 36.078125 6.890625 40.9375 10.546875 
Q 45.796875 14.203125 45.796875 21.1875 
Q 45.796875 27.640625 41.28125 31.265625 
Q 36.765625 34.90625 28.71875 34.90625 
L 20.21875 34.90625 
L 20.21875 43.015625 
L 29.109375 43.015625 
Q 36.375 43.015625 40.234375 45.921875 
Q 44.09375 48.828125 44.09375 54.296875 
Q 44.09375 59.90625 40.109375 62.90625 
Q 36.140625 65.921875 28.71875 65.921875 
Q 24.65625 65.921875 20.015625 65.03125 
Q 15.375 64.15625 9.8125 62.3125 
L 9.8125 71.09375 
Q 15.4375 72.65625 20.34375 73.4375 
Q 25.25 74.21875 29.59375 74.21875 
Q 40.828125 74.21875 47.359375 69.109375 
Q 53.90625 64.015625 53.90625 55.328125 
Q 53.90625 49.265625 50.4375 45.09375 
Q 46.96875 40.921875 40.578125 39.3125 
z
" id="DejaVuSans-51"/>
      </defs>
      <g style="fill:#262626;" transform="translate(225.525625 303.028562)scale(0.1 -0.1)">
       <use xlink:href="#DejaVuSans-51"/>
       <use x="63.623047" xlink:href="#DejaVuSans-48"/>
      </g>
     </g>
    </g>
    <g id="xtick_5">
     <g id="line2d_5">
      <path clip-path="url(#p49f2893c65)" d="M 285.997216 288.430125 
L 285.997216 22.318125 
" style="fill:none;stroke:#cccccc;stroke-linecap:round;stroke-width:0.8;"/>
     </g>
     <g id="text_5">
      <!-- 40 -->
      <defs>
       <path d="M 37.796875 64.3125 
L 12.890625 25.390625 
L 37.796875 25.390625 
z
M 35.203125 72.90625 
L 47.609375 72.90625 
L 47.609375 25.390625 
L 58.015625 25.390625 
L 58.015625 17.1875 
L 47.609375 17.1875 
L 47.609375 0 
L 37.796875 0 
L 37.796875 17.1875 
L 4.890625 17.1875 
L 4.890625 26.703125 
z
" id="DejaVuSans-52"/>
      </defs>
      <g style="fill:#262626;" transform="translate(279.634716 303.028562)scale(0.1 -0.1)">
       <use xlink:href="#DejaVuSans-52"/>
       <use x="63.623047" xlink:href="#DejaVuSans-48"/>
      </g>
     </g>
    </g>
    <g id="xtick_6">
     <g id="line2d_6">
      <path clip-path="url(#p49f2893c65)" d="M 340.106307 288.430125 
L 340.106307 22.318125 
" style="fill:none;stroke:#cccccc;stroke-linecap:round;stroke-width:0.8;"/>
     </g>
     <g id="text_6">
      <!-- 50 -->
      <defs>
       <path d="M 10.796875 72.90625 
L 49.515625 72.90625 
L 49.515625 64.59375 
L 19.828125 64.59375 
L 19.828125 46.734375 
Q 21.96875 47.46875 24.109375 47.828125 
Q 26.265625 48.1875 28.421875 48.1875 
Q 40.625 48.1875 47.75 41.5 
Q 54.890625 34.8125 54.890625 23.390625 
Q 54.890625 11.625 47.5625 5.09375 
Q 40.234375 -1.421875 26.90625 -1.421875 
Q 22.3125 -1.421875 17.546875 -0.640625 
Q 12.796875 0.140625 7.71875 1.703125 
L 7.71875 11.625 
Q 12.109375 9.234375 16.796875 8.0625 
Q 21.484375 6.890625 26.703125 6.890625 
Q 35.15625 6.890625 40.078125 11.328125 
Q 45.015625 15.765625 45.015625 23.390625 
Q 45.015625 31 40.078125 35.4375 
Q 35.15625 39.890625 26.703125 39.890625 
Q 22.75 39.890625 18.8125 39.015625 
Q 14.890625 38.140625 10.796875 36.28125 
z
" id="DejaVuSans-53"/>
      </defs>
      <g style="fill:#262626;" transform="translate(333.743807 303.028562)scale(0.1 -0.1)">
       <use xlink:href="#DejaVuSans-53"/>
       <use x="63.623047" xlink:href="#DejaVuSans-48"/>
      </g>
     </g>
    </g>
    <g id="xtick_7">
     <g id="line2d_7">
      <path clip-path="url(#p49f2893c65)" d="M 394.215398 288.430125 
L 394.215398 22.318125 
" style="fill:none;stroke:#cccccc;stroke-linecap:round;stroke-width:0.8;"/>
     </g>
     <g id="text_7">
      <!-- 60 -->
      <defs>
       <path d="M 33.015625 40.375 
Q 26.375 40.375 22.484375 35.828125 
Q 18.609375 31.296875 18.609375 23.390625 
Q 18.609375 15.53125 22.484375 10.953125 
Q 26.375 6.390625 33.015625 6.390625 
Q 39.65625 6.390625 43.53125 10.953125 
Q 47.40625 15.53125 47.40625 23.390625 
Q 47.40625 31.296875 43.53125 35.828125 
Q 39.65625 40.375 33.015625 40.375 
z
M 52.59375 71.296875 
L 52.59375 62.3125 
Q 48.875 64.0625 45.09375 64.984375 
Q 41.3125 65.921875 37.59375 65.921875 
Q 27.828125 65.921875 22.671875 59.328125 
Q 17.53125 52.734375 16.796875 39.40625 
Q 19.671875 43.65625 24.015625 45.921875 
Q 28.375 48.1875 33.59375 48.1875 
Q 44.578125 48.1875 50.953125 41.515625 
Q 57.328125 34.859375 57.328125 23.390625 
Q 57.328125 12.15625 50.6875 5.359375 
Q 44.046875 -1.421875 33.015625 -1.421875 
Q 20.359375 -1.421875 13.671875 8.265625 
Q 6.984375 17.96875 6.984375 36.375 
Q 6.984375 53.65625 15.1875 63.9375 
Q 23.390625 74.21875 37.203125 74.21875 
Q 40.921875 74.21875 44.703125 73.484375 
Q 48.484375 72.75 52.59375 71.296875 
z
" id="DejaVuSans-54"/>
      </defs>
      <g style="fill:#262626;" transform="translate(387.852898 303.028562)scale(0.1 -0.1)">
       <use xlink:href="#DejaVuSans-54"/>
       <use x="63.623047" xlink:href="#DejaVuSans-48"/>
      </g>
     </g>
    </g>
    <g id="text_8">
     <!-- time (days) -->
     <defs>
      <path d="M 18.3125 70.21875 
L 18.3125 54.6875 
L 36.8125 54.6875 
L 36.8125 47.703125 
L 18.3125 47.703125 
L 18.3125 18.015625 
Q 18.3125 11.328125 20.140625 9.421875 
Q 21.96875 7.515625 27.59375 7.515625 
L 36.8125 7.515625 
L 36.8125 0 
L 27.59375 0 
Q 17.1875 0 13.234375 3.875 
Q 9.28125 7.765625 9.28125 18.015625 
L 9.28125 47.703125 
L 2.6875 47.703125 
L 2.6875 54.6875 
L 9.28125 54.6875 
L 9.28125 70.21875 
z
" id="DejaVuSans-116"/>
      <path d="M 9.421875 54.6875 
L 18.40625 54.6875 
L 18.40625 0 
L 9.421875 0 
z
M 9.421875 75.984375 
L 18.40625 75.984375 
L 18.40625 64.59375 
L 9.421875 64.59375 
z
" id="DejaVuSans-105"/>
      <path d="M 52 44.1875 
Q 55.375 50.25 60.0625 53.125 
Q 64.75 56 71.09375 56 
Q 79.640625 56 84.28125 50.015625 
Q 88.921875 44.046875 88.921875 33.015625 
L 88.921875 0 
L 79.890625 0 
L 79.890625 32.71875 
Q 79.890625 40.578125 77.09375 44.375 
Q 74.3125 48.1875 68.609375 48.1875 
Q 61.625 48.1875 57.5625 43.546875 
Q 53.515625 38.921875 53.515625 30.90625 
L 53.515625 0 
L 44.484375 0 
L 44.484375 32.71875 
Q 44.484375 40.625 41.703125 44.40625 
Q 38.921875 48.1875 33.109375 48.1875 
Q 26.21875 48.1875 22.15625 43.53125 
Q 18.109375 38.875 18.109375 30.90625 
L 18.109375 0 
L 9.078125 0 
L 9.078125 54.6875 
L 18.109375 54.6875 
L 18.109375 46.1875 
Q 21.1875 51.21875 25.484375 53.609375 
Q 29.78125 56 35.6875 56 
Q 41.65625 56 45.828125 52.96875 
Q 50 49.953125 52 44.1875 
z
" id="DejaVuSans-109"/>
      <path d="M 56.203125 29.59375 
L 56.203125 25.203125 
L 14.890625 25.203125 
Q 15.484375 15.921875 20.484375 11.0625 
Q 25.484375 6.203125 34.421875 6.203125 
Q 39.59375 6.203125 44.453125 7.46875 
Q 49.3125 8.734375 54.109375 11.28125 
L 54.109375 2.78125 
Q 49.265625 0.734375 44.1875 -0.34375 
Q 39.109375 -1.421875 33.890625 -1.421875 
Q 20.796875 -1.421875 13.15625 6.1875 
Q 5.515625 13.8125 5.515625 26.8125 
Q 5.515625 40.234375 12.765625 48.109375 
Q 20.015625 56 32.328125 56 
Q 43.359375 56 49.78125 48.890625 
Q 56.203125 41.796875 56.203125 29.59375 
z
M 47.21875 32.234375 
Q 47.125 39.59375 43.09375 43.984375 
Q 39.0625 48.390625 32.421875 48.390625 
Q 24.90625 48.390625 20.390625 44.140625 
Q 15.875 39.890625 15.1875 32.171875 
z
" id="DejaVuSans-101"/>
      <path id="DejaVuSans-32"/>
      <path d="M 31 75.875 
Q 24.46875 64.65625 21.28125 53.65625 
Q 18.109375 42.671875 18.109375 31.390625 
Q 18.109375 20.125 21.3125 9.0625 
Q 24.515625 -2 31 -13.1875 
L 23.1875 -13.1875 
Q 15.875 -1.703125 12.234375 9.375 
Q 8.59375 20.453125 8.59375 31.390625 
Q 8.59375 42.28125 12.203125 53.3125 
Q 15.828125 64.359375 23.1875 75.875 
z
" id="DejaVuSans-40"/>
      <path d="M 45.40625 46.390625 
L 45.40625 75.984375 
L 54.390625 75.984375 
L 54.390625 0 
L 45.40625 0 
L 45.40625 8.203125 
Q 42.578125 3.328125 38.25 0.953125 
Q 33.9375 -1.421875 27.875 -1.421875 
Q 17.96875 -1.421875 11.734375 6.484375 
Q 5.515625 14.40625 5.515625 27.296875 
Q 5.515625 40.1875 11.734375 48.09375 
Q 17.96875 56 27.875 56 
Q 33.9375 56 38.25 53.625 
Q 42.578125 51.265625 45.40625 46.390625 
z
M 14.796875 27.296875 
Q 14.796875 17.390625 18.875 11.75 
Q 22.953125 6.109375 30.078125 6.109375 
Q 37.203125 6.109375 41.296875 11.75 
Q 45.40625 17.390625 45.40625 27.296875 
Q 45.40625 37.203125 41.296875 42.84375 
Q 37.203125 48.484375 30.078125 48.484375 
Q 22.953125 48.484375 18.875 42.84375 
Q 14.796875 37.203125 14.796875 27.296875 
z
" id="DejaVuSans-100"/>
      <path d="M 34.28125 27.484375 
Q 23.390625 27.484375 19.1875 25 
Q 14.984375 22.515625 14.984375 16.5 
Q 14.984375 11.71875 18.140625 8.90625 
Q 21.296875 6.109375 26.703125 6.109375 
Q 34.1875 6.109375 38.703125 11.40625 
Q 43.21875 16.703125 43.21875 25.484375 
L 43.21875 27.484375 
z
M 52.203125 31.203125 
L 52.203125 0 
L 43.21875 0 
L 43.21875 8.296875 
Q 40.140625 3.328125 35.546875 0.953125 
Q 30.953125 -1.421875 24.3125 -1.421875 
Q 15.921875 -1.421875 10.953125 3.296875 
Q 6 8.015625 6 15.921875 
Q 6 25.140625 12.171875 29.828125 
Q 18.359375 34.515625 30.609375 34.515625 
L 43.21875 34.515625 
L 43.21875 35.40625 
Q 43.21875 41.609375 39.140625 45 
Q 35.0625 48.390625 27.6875 48.390625 
Q 23 48.390625 18.546875 47.265625 
Q 14.109375 46.140625 10.015625 43.890625 
L 10.015625 52.203125 
Q 14.9375 54.109375 19.578125 55.046875 
Q 24.21875 56 28.609375 56 
Q 40.484375 56 46.34375 49.84375 
Q 52.203125 43.703125 52.203125 31.203125 
z
" id="DejaVuSans-97"/>
      <path d="M 32.171875 -5.078125 
Q 28.375 -14.84375 24.75 -17.8125 
Q 21.140625 -20.796875 15.09375 -20.796875 
L 7.90625 -20.796875 
L 7.90625 -13.28125 
L 13.1875 -13.28125 
Q 16.890625 -13.28125 18.9375 -11.515625 
Q 21 -9.765625 23.484375 -3.21875 
L 25.09375 0.875 
L 2.984375 54.6875 
L 12.5 54.6875 
L 29.59375 11.921875 
L 46.6875 54.6875 
L 56.203125 54.6875 
z
" id="DejaVuSans-121"/>
      <path d="M 44.28125 53.078125 
L 44.28125 44.578125 
Q 40.484375 46.53125 36.375 47.5 
Q 32.28125 48.484375 27.875 48.484375 
Q 21.1875 48.484375 17.84375 46.4375 
Q 14.5 44.390625 14.5 40.28125 
Q 14.5 37.15625 16.890625 35.375 
Q 19.28125 33.59375 26.515625 31.984375 
L 29.59375 31.296875 
Q 39.15625 29.25 43.1875 25.515625 
Q 47.21875 21.78125 47.21875 15.09375 
Q 47.21875 7.46875 41.1875 3.015625 
Q 35.15625 -1.421875 24.609375 -1.421875 
Q 20.21875 -1.421875 15.453125 -0.5625 
Q 10.6875 0.296875 5.421875 2 
L 5.421875 11.28125 
Q 10.40625 8.6875 15.234375 7.390625 
Q 20.0625 6.109375 24.8125 6.109375 
Q 31.15625 6.109375 34.5625 8.28125 
Q 37.984375 10.453125 37.984375 14.40625 
Q 37.984375 18.0625 35.515625 20.015625 
Q 33.0625 21.96875 24.703125 23.78125 
L 21.578125 24.515625 
Q 13.234375 26.265625 9.515625 29.90625 
Q 5.8125 33.546875 5.8125 39.890625 
Q 5.8125 47.609375 11.28125 51.796875 
Q 16.75 56 26.8125 56 
Q 31.78125 56 36.171875 55.265625 
Q 40.578125 54.546875 44.28125 53.078125 
z
" id="DejaVuSans-115"/>
      <path d="M 8.015625 75.875 
L 15.828125 75.875 
Q 23.140625 64.359375 26.78125 53.3125 
Q 30.421875 42.28125 30.421875 31.390625 
Q 30.421875 20.453125 26.78125 9.375 
Q 23.140625 -1.703125 15.828125 -13.1875 
L 8.015625 -13.1875 
Q 14.5 -2 17.703125 9.0625 
Q 20.90625 20.125 20.90625 31.390625 
Q 20.90625 42.671875 17.703125 53.65625 
Q 14.5 64.65625 8.015625 75.875 
z
" id="DejaVuSans-41"/>
     </defs>
     <g style="fill:#262626;" transform="translate(203.299063 316.706687)scale(0.1 -0.1)">
      <use xlink:href="#DejaVuSans-116"/>
      <use x="39.208984" xlink:href="#DejaVuSans-105"/>
      <use x="66.992188" xlink:href="#DejaVuSans-109"/>
      <use x="164.404297" xlink:href="#DejaVuSans-101"/>
      <use x="225.927734" xlink:href="#DejaVuSans-32"/>
      <use x="257.714844" xlink:href="#DejaVuSans-40"/>
      <use x="296.728516" xlink:href="#DejaVuSans-100"/>
      <use x="360.205078" xlink:href="#DejaVuSans-97"/>
      <use x="421.484375" xlink:href="#DejaVuSans-121"/>
      <use x="480.664062" xlink:href="#DejaVuSans-115"/>
      <use x="532.763672" xlink:href="#DejaVuSans-41"/>
     </g>
    </g>
   </g>
   <g id="matplotlib.axis_2">
    <g id="ytick_1">
     <g id="line2d_8">
      <path clip-path="url(#p49f2893c65)" d="M 53.328125 276.334125 
L 410.448125 276.334125 
" style="fill:none;stroke:#cccccc;stroke-linecap:round;stroke-width:0.8;"/>
     </g>
     <g id="text_9">
      <!-- 0 -->
      <g style="fill:#262626;" transform="translate(39.965625 280.133344)scale(0.1 -0.1)">
       <use xlink:href="#DejaVuSans-48"/>
      </g>
     </g>
    </g>
    <g id="ytick_2">
     <g id="line2d_9">
      <path clip-path="url(#p49f2893c65)" d="M 53.328125 226.719687 
L 410.448125 226.719687 
" style="fill:none;stroke:#cccccc;stroke-linecap:round;stroke-width:0.8;"/>
     </g>
     <g id="text_10">
      <!-- 500 -->
      <g style="fill:#262626;" transform="translate(27.240625 230.518906)scale(0.1 -0.1)">
       <use xlink:href="#DejaVuSans-53"/>
       <use x="63.623047" xlink:href="#DejaVuSans-48"/>
       <use x="127.246094" xlink:href="#DejaVuSans-48"/>
      </g>
     </g>
    </g>
    <g id="ytick_3">
     <g id="line2d_10">
      <path clip-path="url(#p49f2893c65)" d="M 53.328125 177.105249 
L 410.448125 177.105249 
" style="fill:none;stroke:#cccccc;stroke-linecap:round;stroke-width:0.8;"/>
     </g>
     <g id="text_11">
      <!-- 1000 -->
      <g style="fill:#262626;" transform="translate(20.878125 180.904468)scale(0.1 -0.1)">
       <use xlink:href="#DejaVuSans-49"/>
       <use x="63.623047" xlink:href="#DejaVuSans-48"/>
       <use x="127.246094" xlink:href="#DejaVuSans-48"/>
       <use x="190.869141" xlink:href="#DejaVuSans-48"/>
      </g>
     </g>
    </g>
    <g id="ytick_4">
     <g id="line2d_11">
      <path clip-path="url(#p49f2893c65)" d="M 53.328125 127.490811 
L 410.448125 127.490811 
" style="fill:none;stroke:#cccccc;stroke-linecap:round;stroke-width:0.8;"/>
     </g>
     <g id="text_12">
      <!-- 1500 -->
      <g style="fill:#262626;" transform="translate(20.878125 131.29003)scale(0.1 -0.1)">
       <use xlink:href="#DejaVuSans-49"/>
       <use x="63.623047" xlink:href="#DejaVuSans-53"/>
       <use x="127.246094" xlink:href="#DejaVuSans-48"/>
       <use x="190.869141" xlink:href="#DejaVuSans-48"/>
      </g>
     </g>
    </g>
    <g id="ytick_5">
     <g id="line2d_12">
      <path clip-path="url(#p49f2893c65)" d="M 53.328125 77.876373 
L 410.448125 77.876373 
" style="fill:none;stroke:#cccccc;stroke-linecap:round;stroke-width:0.8;"/>
     </g>
     <g id="text_13">
      <!-- 2000 -->
      <g style="fill:#262626;" transform="translate(20.878125 81.675591)scale(0.1 -0.1)">
       <use xlink:href="#DejaVuSans-50"/>
       <use x="63.623047" xlink:href="#DejaVuSans-48"/>
       <use x="127.246094" xlink:href="#DejaVuSans-48"/>
       <use x="190.869141" xlink:href="#DejaVuSans-48"/>
      </g>
     </g>
    </g>
    <g id="ytick_6">
     <g id="line2d_13">
      <path clip-path="url(#p49f2893c65)" d="M 53.328125 28.261935 
L 410.448125 28.261935 
" style="fill:none;stroke:#cccccc;stroke-linecap:round;stroke-width:0.8;"/>
     </g>
     <g id="text_14">
      <!-- 2500 -->
      <g style="fill:#262626;" transform="translate(20.878125 32.061153)scale(0.1 -0.1)">
       <use xlink:href="#DejaVuSans-50"/>
       <use x="63.623047" xlink:href="#DejaVuSans-53"/>
       <use x="127.246094" xlink:href="#DejaVuSans-48"/>
       <use x="190.869141" xlink:href="#DejaVuSans-48"/>
      </g>
     </g>
    </g>
    <g id="text_15">
     <!-- viremia -->
     <defs>
      <path d="M 2.984375 54.6875 
L 12.5 54.6875 
L 29.59375 8.796875 
L 46.6875 54.6875 
L 56.203125 54.6875 
L 35.6875 0 
L 23.484375 0 
z
" id="DejaVuSans-118"/>
      <path d="M 41.109375 46.296875 
Q 39.59375 47.171875 37.8125 47.578125 
Q 36.03125 48 33.890625 48 
Q 26.265625 48 22.1875 43.046875 
Q 18.109375 38.09375 18.109375 28.8125 
L 18.109375 0 
L 9.078125 0 
L 9.078125 54.6875 
L 18.109375 54.6875 
L 18.109375 46.1875 
Q 20.953125 51.171875 25.484375 53.578125 
Q 30.03125 56 36.53125 56 
Q 37.453125 56 38.578125 55.875 
Q 39.703125 55.765625 41.0625 55.515625 
z
" id="DejaVuSans-114"/>
     </defs>
     <g style="fill:#262626;" transform="translate(14.798438 174.176469)rotate(-90)scale(0.1 -0.1)">
      <use xlink:href="#DejaVuSans-118"/>
      <use x="59.179688" xlink:href="#DejaVuSans-105"/>
      <use x="86.962891" xlink:href="#DejaVuSans-114"/>
      <use x="128.044922" xlink:href="#DejaVuSans-101"/>
      <use x="189.568359" xlink:href="#DejaVuSans-109"/>
      <use x="286.980469" xlink:href="#DejaVuSans-105"/>
      <use x="314.763672" xlink:href="#DejaVuSans-97"/>
     </g>
    </g>
   </g>
   <g id="line2d_14">
    <path clip-path="url(#p49f2893c65)" d="M 69.560852 177.105249 
L 70.101943 164.106266 
L 71.725216 112.110335 
L 72.266307 95.638342 
L 72.807398 83.234732 
L 73.348489 75.49488 
L 73.88958 70.334978 
L 74.43067 69.342689 
L 74.971761 67.358112 
L 75.512852 66.564281 
L 76.053943 71.128809 
L 76.595034 71.624954 
L 77.136125 75.891795 
L 78.218307 96.829088 
L 78.759398 107.942722 
L 80.38267 150.809597 
L 83.088125 199.233288 
L 83.629216 203.50013 
L 84.170307 212.728415 
L 85.252489 223.147447 
L 85.79358 225.231254 
L 86.33467 232.375733 
L 87.957943 245.771631 
L 88.499034 248.946955 
L 89.040125 250.336159 
L 89.581216 253.114568 
L 90.122307 254.900688 
L 91.204489 259.266758 
L 91.74558 259.96136 
L 92.28667 261.251336 
L 92.827761 263.5336 
L 93.368852 266.312009 
L 93.909943 267.601984 
L 94.451034 268.296586 
L 94.992125 269.388104 
L 96.074307 270.777308 
L 98.23867 271.273452 
L 98.779761 271.47191 
L 99.320852 271.868826 
L 99.861943 272.861114 
L 100.944125 271.968054 
L 102.026307 272.166512 
L 102.567398 271.868826 
L 103.108489 271.968054 
L 104.19067 272.662657 
L 104.731761 272.960343 
L 105.272852 272.662657 
L 105.813943 272.861114 
L 106.355034 272.861114 
L 106.896125 273.25803 
L 107.437216 273.357259 
L 107.978307 273.853403 
L 108.519398 273.952632 
L 109.60158 274.746463 
L 110.683761 275.04415 
L 111.224852 274.845692 
L 112.307034 274.944921 
L 113.389216 274.944921 
L 113.930307 274.746463 
L 114.471398 274.746463 
L 116.09467 273.853403 
L 116.635761 273.952632 
L 117.176852 273.754174 
L 117.717943 273.853403 
L 118.259034 273.555716 
L 119.341216 273.357259 
L 119.882307 273.654945 
L 120.423398 273.456488 
L 120.964489 273.059572 
L 121.50558 272.861114 
L 122.04667 272.464199 
L 123.128852 273.357259 
L 123.669943 273.158801 
L 124.752125 273.357259 
L 125.293216 273.754174 
L 125.834307 273.754174 
L 126.375398 273.952632 
L 127.99867 274.051861 
L 129.080852 273.25803 
L 129.621943 273.357259 
L 130.163034 272.761885 
L 131.245216 272.36497 
L 131.786307 272.563428 
L 132.327398 272.464199 
L 132.868489 272.067283 
L 133.40958 272.36497 
L 133.95067 272.36497 
L 134.491761 272.563428 
L 135.032852 271.868826 
L 135.573943 271.968054 
L 136.656125 271.372681 
L 137.197216 271.372681 
L 137.738307 271.769597 
L 138.279398 271.968054 
L 138.820489 271.769597 
L 139.36158 272.166512 
L 139.90267 272.761885 
L 140.443761 272.166512 
L 140.984852 272.166512 
L 141.525943 272.662657 
L 142.067034 272.761885 
L 142.608125 273.059572 
L 143.149216 273.059572 
L 143.690307 273.25803 
L 144.231398 273.25803 
L 144.772489 273.059572 
L 146.395761 274.051861 
L 146.936852 274.051861 
L 147.477943 273.25803 
L 148.019034 272.960343 
L 148.560125 273.456488 
L 149.101216 273.357259 
L 149.642307 273.754174 
L 150.183398 273.555716 
L 150.724489 273.754174 
L 151.26558 273.654945 
L 152.888852 274.15109 
L 153.429943 274.051861 
L 153.971034 274.448776 
L 154.512125 274.250319 
L 155.053216 274.349547 
L 155.594307 274.15109 
L 156.135398 274.548005 
L 156.676489 274.349547 
L 158.840852 275.04415 
L 159.923034 275.242607 
L 160.464125 275.143378 
L 161.005216 274.845692 
L 161.546307 275.04415 
L 162.628489 274.944921 
L 163.16958 274.746463 
L 164.792852 274.746463 
L 165.333943 275.04415 
L 166.416125 275.143378 
L 167.498307 274.647234 
L 169.66267 274.647234 
L 170.744852 274.250319 
L 171.285943 274.548005 
L 172.368125 274.448776 
L 172.909216 274.448776 
L 173.450307 274.15109 
L 173.991398 273.654945 
L 175.07358 273.158801 
L 175.61467 273.25803 
L 176.155761 272.761885 
L 177.237943 271.372681 
L 177.779034 270.380392 
L 178.320125 270.57885 
L 178.861216 271.074995 
L 179.402307 271.174223 
L 179.943398 271.571139 
L 180.484489 272.36497 
L 181.02558 272.861114 
L 181.56667 273.158801 
L 182.648852 272.662657 
L 183.731034 273.059572 
L 184.272125 272.662657 
L 184.813216 272.563428 
L 185.895398 272.861114 
L 186.97758 273.555716 
L 187.51867 273.456488 
L 188.059761 273.853403 
L 190.224125 274.548005 
L 190.765216 275.04415 
L 191.306307 274.845692 
L 191.847398 274.448776 
L 192.388489 274.647234 
L 194.011761 274.448776 
L 194.552852 274.647234 
L 195.635034 274.349547 
L 196.176125 273.654945 
L 197.799398 274.250319 
L 198.340489 273.952632 
L 198.88158 274.349547 
L 199.42267 274.051861 
L 200.504852 274.15109 
L 201.045943 274.647234 
L 201.587034 274.944921 
L 203.210307 274.746463 
L 203.751398 274.944921 
L 204.83358 274.647234 
L 205.915761 275.04415 
L 206.997943 275.143378 
L 207.539034 275.242607 
L 208.080125 275.04415 
L 208.621216 275.143378 
L 209.162307 274.746463 
L 209.703398 275.242607 
L 210.244489 275.341836 
L 211.32667 274.845692 
L 211.867761 274.548005 
L 212.949943 274.845692 
L 214.032125 274.944921 
L 216.196489 275.04415 
L 217.27867 275.242607 
L 218.360852 274.944921 
L 220.525216 275.639523 
L 221.607398 275.738752 
L 222.68958 275.738752 
L 223.23067 275.341836 
L 223.771761 275.341836 
L 224.312852 275.143378 
L 225.395034 275.242607 
L 225.936125 275.242607 
L 226.477216 275.04415 
L 228.100489 275.341836 
L 228.64158 275.639523 
L 229.723761 275.143378 
L 230.264852 274.845692 
L 232.970307 275.242607 
L 235.13467 275.143378 
L 238.922307 274.548005 
L 240.004489 274.845692 
L 241.627761 274.647234 
L 243.792125 274.746463 
L 244.874307 274.845692 
L 245.415398 274.746463 
L 245.956489 275.04415 
L 247.03867 275.242607 
L 247.579761 275.04415 
L 248.120852 275.242607 
L 249.744125 275.04415 
L 250.285216 275.341836 
L 250.826307 275.341836 
L 251.367398 275.639523 
L 251.908489 275.540294 
L 252.44958 275.837981 
L 252.99067 275.639523 
L 253.531761 275.837981 
L 256.237216 275.937209 
L 257.319398 276.036438 
L 259.483761 275.937209 
L 260.565943 275.837981 
L 262.730307 275.837981 
L 263.271398 275.639523 
L 264.89467 275.540294 
L 267.600125 275.04415 
L 268.141216 275.242607 
L 268.682307 275.04415 
L 270.30558 275.04415 
L 270.84667 274.845692 
L 271.387761 274.944921 
L 271.928852 274.647234 
L 273.011034 274.845692 
L 273.552125 274.746463 
L 274.634307 275.639523 
L 275.175398 275.738752 
L 275.716489 276.036438 
L 276.79867 276.135667 
L 280.586307 276.135667 
L 281.127398 275.837981 
L 282.20958 275.937209 
L 291.949216 275.837981 
L 295.195761 275.143378 
L 295.736852 274.845692 
L 301.147761 275.837981 
L 301.688852 275.639523 
L 303.853216 275.937209 
L 306.55867 275.837981 
L 307.099761 275.540294 
L 310.887398 276.135667 
L 314.133943 276.234896 
L 315.216125 276.334125 
L 394.215398 276.334125 
L 394.215398 276.334125 
" style="fill:none;stroke:#000080;stroke-linecap:round;stroke-width:1.5;"/>
   </g>
   <g id="line2d_15">
    <path clip-path="url(#p49f2893c65)" d="M 69.560852 177.105249 
L 70.643034 148.626561 
L 73.348489 66.465052 
L 73.88958 56.145249 
L 74.971761 39.772484 
L 75.512852 37.887136 
L 76.053943 34.414125 
L 77.136125 46.420819 
L 77.677216 55.053731 
L 78.759398 77.677915 
L 80.38267 116.178719 
L 80.923761 127.391582 
L 81.464852 144.35972 
L 82.547034 165.49547 
L 84.711398 204.591648 
L 85.252489 212.827644 
L 86.33467 224.933567 
L 86.875761 227.31506 
L 87.416852 233.070335 
L 87.957943 236.444117 
L 88.499034 242.000934 
L 89.040125 243.290909 
L 89.581216 248.252353 
L 90.122307 251.725364 
L 90.663398 253.908399 
L 91.204489 254.70223 
L 91.74558 257.679096 
L 92.28667 259.96136 
L 92.827761 260.953649 
L 93.909943 261.846709 
L 94.451034 262.739769 
L 94.992125 264.625118 
L 95.533216 264.823575 
L 96.074307 264.625118 
L 96.615398 265.220491 
L 97.156489 266.014322 
L 97.69758 267.403526 
L 98.23867 268.197357 
L 98.779761 268.098128 
L 99.320852 268.197357 
L 99.861943 269.189646 
L 100.403034 269.884248 
L 101.485216 270.57885 
L 102.567398 270.678079 
L 103.108489 270.380392 
L 103.64958 271.47191 
L 104.19067 271.968054 
L 104.731761 271.571139 
L 105.272852 272.067283 
L 105.813943 272.166512 
L 106.355034 272.067283 
L 106.896125 273.059572 
L 107.437216 273.25803 
L 107.978307 273.25803 
L 108.519398 273.059572 
L 110.14267 273.059572 
L 110.683761 273.456488 
L 111.224852 273.357259 
L 111.765943 273.654945 
L 112.307034 273.754174 
L 112.848125 274.448776 
L 113.389216 274.051861 
L 115.012489 274.349547 
L 115.55358 274.250319 
L 116.09467 274.548005 
L 116.635761 274.647234 
L 117.176852 274.548005 
L 117.717943 274.845692 
L 118.800125 274.944921 
L 119.341216 275.242607 
L 120.423398 275.143378 
L 130.704125 275.143378 
L 131.245216 275.341836 
L 131.786307 275.143378 
L 133.40958 275.04415 
L 133.95067 274.944921 
L 135.573943 275.143378 
L 136.656125 275.04415 
L 137.197216 274.845692 
L 137.738307 274.845692 
L 138.279398 274.448776 
L 138.820489 274.448776 
L 139.36158 274.250319 
L 140.443761 274.250319 
L 140.984852 273.853403 
L 142.067034 273.952632 
L 142.608125 273.456488 
L 143.149216 273.555716 
L 143.690307 273.853403 
L 145.31358 273.853403 
L 145.85467 273.555716 
L 146.395761 273.555716 
L 147.477943 273.952632 
L 149.101216 273.754174 
L 150.183398 274.051861 
L 151.26558 274.349547 
L 152.347761 275.04415 
L 152.888852 274.944921 
L 153.429943 275.143378 
L 153.971034 274.944921 
L 155.053216 275.04415 
L 155.594307 275.04415 
L 156.135398 275.341836 
L 157.75867 275.242607 
L 158.299761 275.04415 
L 159.381943 274.944921 
L 159.923034 274.647234 
L 160.464125 274.647234 
L 161.005216 274.448776 
L 161.546307 274.647234 
L 162.087398 274.548005 
L 162.628489 274.746463 
L 163.16958 274.448776 
L 163.71067 274.548005 
L 164.251761 274.349547 
L 164.792852 274.349547 
L 165.333943 274.15109 
L 165.875034 274.15109 
L 166.416125 273.754174 
L 168.039398 273.555716 
L 169.12158 274.349547 
L 171.827034 273.952632 
L 172.368125 274.051861 
L 172.909216 273.654945 
L 173.450307 273.952632 
L 173.991398 273.754174 
L 175.07358 274.250319 
L 176.155761 273.952632 
L 176.696852 274.448776 
L 177.237943 274.250319 
L 178.320125 274.845692 
L 178.861216 274.944921 
L 179.402307 274.647234 
L 181.02558 274.845692 
L 181.56667 275.242607 
L 182.648852 275.242607 
L 183.731034 275.738752 
L 184.272125 275.837981 
L 185.354307 275.341836 
L 191.306307 275.242607 
L 193.47067 274.845692 
L 194.011761 274.944921 
L 194.552852 274.746463 
L 195.093943 275.04415 
L 196.176125 274.845692 
L 197.258307 275.341836 
L 197.799398 275.143378 
L 198.340489 275.143378 
L 198.88158 274.944921 
L 199.42267 275.04415 
L 199.963761 274.944921 
L 200.504852 275.04415 
L 201.045943 274.944921 
L 201.587034 275.04415 
L 203.210307 274.349547 
L 203.751398 274.548005 
L 204.83358 274.250319 
L 205.37467 273.754174 
L 205.915761 273.555716 
L 206.456852 272.861114 
L 206.997943 272.861114 
L 207.539034 273.059572 
L 209.703398 272.662657 
L 210.244489 272.761885 
L 211.32667 273.25803 
L 211.867761 273.059572 
L 212.949943 273.158801 
L 213.491034 273.754174 
L 214.032125 274.15109 
L 214.573216 274.250319 
L 216.196489 273.853403 
L 216.73758 274.15109 
L 217.27867 274.15109 
L 218.360852 274.845692 
L 218.901943 274.746463 
L 219.443034 274.944921 
L 219.984125 274.845692 
L 220.525216 275.04415 
L 221.066307 275.04415 
L 222.148489 275.441065 
L 222.68958 275.143378 
L 223.23067 275.143378 
L 223.771761 275.341836 
L 225.936125 274.548005 
L 227.018307 274.845692 
L 227.559398 274.845692 
L 228.64158 275.143378 
L 229.18267 275.242607 
L 230.264852 275.143378 
L 230.805943 275.441065 
L 231.888125 275.242607 
L 232.970307 275.441065 
L 234.052489 275.341836 
L 234.59358 275.540294 
L 235.13467 275.441065 
L 237.299034 275.738752 
L 237.840125 275.441065 
L 238.922307 275.341836 
L 239.463398 275.540294 
L 240.004489 275.242607 
L 240.54558 275.341836 
L 242.709943 275.04415 
L 244.333216 275.143378 
L 245.415398 275.441065 
L 245.956489 275.441065 
L 246.49758 275.639523 
L 247.03867 275.639523 
L 247.579761 275.143378 
L 248.120852 274.944921 
L 249.203034 274.845692 
L 249.744125 274.647234 
L 250.826307 274.944921 
L 251.367398 274.647234 
L 252.44958 275.242607 
L 254.613943 275.242607 
L 255.155034 275.04415 
L 257.319398 275.04415 
L 257.860489 275.341836 
L 258.40158 275.341836 
L 258.94267 275.540294 
L 259.483761 275.341836 
L 260.024852 275.540294 
L 261.107034 275.441065 
L 261.648125 275.540294 
L 262.189216 275.242607 
L 264.35358 275.341836 
L 265.435761 275.639523 
L 267.600125 275.937209 
L 268.682307 275.837981 
L 269.764489 275.937209 
L 270.84667 275.837981 
L 271.928852 275.738752 
L 273.011034 275.738752 
L 274.093216 275.341836 
L 274.634307 275.540294 
L 275.716489 275.242607 
L 276.25758 274.944921 
L 276.79867 275.143378 
L 277.339761 275.04415 
L 277.880852 275.143378 
L 278.421943 274.944921 
L 280.045216 275.242607 
L 280.586307 275.04415 
L 281.127398 275.143378 
L 281.668489 274.845692 
L 282.20958 274.746463 
L 283.832852 275.242607 
L 284.915034 275.341836 
L 285.456125 275.441065 
L 285.997216 275.242607 
L 286.538307 274.845692 
L 287.079398 274.845692 
L 287.620489 274.647234 
L 289.784852 274.944921 
L 290.325943 274.746463 
L 290.867034 275.143378 
L 291.408125 274.944921 
L 291.949216 274.944921 
L 292.490307 274.746463 
L 293.031398 274.746463 
L 293.572489 275.143378 
L 294.11358 275.341836 
L 298.442307 275.242607 
L 298.983398 275.639523 
L 299.524489 275.738752 
L 300.60667 275.639523 
L 301.147761 275.639523 
L 302.229943 275.937209 
L 303.853216 276.036438 
L 304.935398 276.135667 
L 307.099761 276.036438 
L 308.723034 275.540294 
L 309.264125 275.540294 
L 309.805216 275.242607 
L 311.428489 275.143378 
L 312.51067 275.04415 
L 313.592852 275.143378 
L 314.133943 275.04415 
L 314.675034 275.242607 
L 315.757216 275.242607 
L 316.839398 274.944921 
L 317.380489 274.944921 
L 317.92158 275.242607 
L 318.46267 274.647234 
L 321.709216 275.143378 
L 322.791398 275.242607 
L 324.955761 275.738752 
L 325.496852 275.937209 
L 326.037943 275.639523 
L 326.579034 275.937209 
L 328.743398 276.234896 
L 394.215398 276.334125 
L 394.215398 276.334125 
" style="fill:none;stroke:#0000f1;stroke-linecap:round;stroke-width:1.5;"/>
   </g>
   <g id="line2d_16">
    <path clip-path="url(#p49f2893c65)" d="M 69.560852 177.105249 
L 70.643034 151.206512 
L 72.266307 100.20287 
L 73.348489 76.090253 
L 74.971761 54.2599 
L 75.512852 50.588432 
L 77.136125 69.838834 
L 80.923761 141.283625 
L 81.464852 155.374125 
L 82.547034 175.319129 
L 85.79358 222.94899 
L 86.875761 234.459539 
L 87.416852 238.527923 
L 87.957943 243.687825 
L 88.499034 246.962378 
L 89.040125 248.847726 
L 89.581216 252.320737 
L 91.204489 258.27447 
L 91.74558 258.869843 
L 92.827761 263.136684 
L 93.368852 263.732058 
L 93.909943 264.625118 
L 94.451034 265.022033 
L 94.992125 266.708924 
L 95.533216 266.609695 
L 96.615398 266.708924 
L 97.156489 267.304297 
L 97.69758 267.205068 
L 98.779761 267.701213 
L 99.320852 268.395815 
L 99.861943 269.586561 
L 100.403034 269.785019 
L 100.944125 270.678079 
L 101.485216 270.479621 
L 103.108489 272.265741 
L 103.64958 272.464199 
L 104.19067 273.158801 
L 105.813943 273.952632 
L 106.896125 273.357259 
L 107.437216 273.952632 
L 107.978307 274.15109 
L 108.519398 274.15109 
L 109.060489 273.853403 
L 109.60158 273.853403 
L 110.683761 274.746463 
L 111.224852 274.448776 
L 111.765943 274.448776 
L 112.307034 274.051861 
L 113.930307 273.754174 
L 114.471398 273.853403 
L 115.012489 273.555716 
L 115.55358 273.853403 
L 116.09467 273.25803 
L 116.635761 273.25803 
L 117.176852 273.853403 
L 117.717943 273.754174 
L 118.259034 274.15109 
L 118.800125 274.15109 
L 119.341216 274.349547 
L 119.882307 274.15109 
L 120.423398 274.647234 
L 120.964489 274.647234 
L 121.50558 274.448776 
L 122.04667 274.051861 
L 123.669943 273.555716 
L 124.211034 273.555716 
L 124.752125 273.952632 
L 125.293216 273.853403 
L 126.916489 274.15109 
L 127.45758 273.952632 
L 127.99867 274.15109 
L 128.539761 273.952632 
L 129.080852 274.15109 
L 130.163034 273.654945 
L 131.786307 274.448776 
L 132.868489 274.548005 
L 133.40958 274.448776 
L 133.95067 274.746463 
L 134.491761 274.448776 
L 135.032852 274.845692 
L 136.656125 275.143378 
L 137.197216 275.04415 
L 137.738307 275.441065 
L 139.36158 275.639523 
L 144.231398 275.540294 
L 144.772489 275.341836 
L 145.31358 275.341836 
L 145.85467 275.04415 
L 148.560125 274.944921 
L 149.101216 274.746463 
L 149.642307 275.04415 
L 150.183398 274.845692 
L 150.724489 275.04415 
L 153.971034 274.448776 
L 154.512125 274.15109 
L 155.594307 274.15109 
L 156.135398 273.754174 
L 156.676489 273.555716 
L 157.75867 274.15109 
L 159.381943 273.754174 
L 159.923034 273.555716 
L 160.464125 273.555716 
L 161.005216 273.357259 
L 162.087398 273.654945 
L 162.628489 274.051861 
L 163.71067 274.15109 
L 164.251761 273.853403 
L 164.792852 274.051861 
L 165.333943 273.754174 
L 165.875034 274.15109 
L 169.12158 274.746463 
L 170.744852 274.349547 
L 171.827034 274.944921 
L 172.368125 275.04415 
L 172.909216 275.441065 
L 173.450307 275.639523 
L 175.07358 275.540294 
L 176.155761 275.143378 
L 176.696852 274.746463 
L 177.237943 274.746463 
L 178.320125 274.250319 
L 178.861216 274.349547 
L 179.402307 274.250319 
L 179.943398 274.448776 
L 181.56667 274.448776 
L 182.107761 274.051861 
L 183.731034 273.952632 
L 184.272125 274.548005 
L 185.354307 274.647234 
L 186.436489 273.754174 
L 186.97758 273.952632 
L 187.51867 274.349547 
L 188.059761 273.952632 
L 188.600852 274.051861 
L 189.141943 273.754174 
L 190.224125 273.952632 
L 190.765216 274.349547 
L 194.011761 275.540294 
L 194.552852 275.441065 
L 196.176125 275.937209 
L 198.340489 276.036438 
L 199.963761 276.234896 
L 394.215398 276.334125 
L 394.215398 276.334125 
" style="fill:none;stroke:#004cff;stroke-linecap:round;stroke-width:1.5;"/>
   </g>
   <g id="line2d_17">
    <path clip-path="url(#p49f2893c65)" d="M 69.560852 177.105249 
L 71.725216 118.560212 
L 72.807398 88.295405 
L 73.348489 78.570975 
L 74.43067 66.068136 
L 74.971761 65.274305 
L 75.512852 67.457341 
L 76.053943 73.311844 
L 76.595034 81.150926 
L 77.136125 86.211598 
L 77.677216 94.844511 
L 78.218307 110.324215 
L 78.759398 118.560212 
L 79.300489 130.467677 
L 80.923761 172.044576 
L 81.464852 185.043559 
L 83.088125 210.148465 
L 83.629216 216.69757 
L 84.170307 226.223543 
L 84.711398 232.474962 
L 85.79358 240.909416 
L 86.33467 243.092451 
L 87.416852 248.450811 
L 87.957943 252.717652 
L 88.499034 253.709941 
L 89.040125 256.190663 
L 90.122307 259.663674 
L 90.663398 260.457505 
L 91.204489 262.442082 
L 91.74558 262.243625 
L 92.28667 261.74748 
L 92.827761 263.732058 
L 93.368852 265.121262 
L 94.451034 266.411237 
L 94.992125 267.701213 
L 95.533216 267.006611 
L 96.074307 267.10584 
L 97.156489 269.388104 
L 97.69758 269.884248 
L 98.23867 270.57885 
L 98.779761 271.571139 
L 99.320852 272.166512 
L 99.861943 272.36497 
L 100.403034 272.36497 
L 100.944125 272.761885 
L 101.485216 272.563428 
L 102.026307 272.662657 
L 102.567398 273.456488 
L 103.64958 273.357259 
L 104.19067 272.563428 
L 104.731761 273.25803 
L 105.272852 273.357259 
L 105.813943 273.654945 
L 106.355034 273.555716 
L 106.896125 274.15109 
L 107.437216 273.952632 
L 107.978307 274.250319 
L 110.14267 273.754174 
L 110.683761 274.051861 
L 111.224852 273.754174 
L 111.765943 273.952632 
L 112.307034 273.654945 
L 112.848125 274.15109 
L 113.930307 273.853403 
L 114.471398 273.952632 
L 115.012489 274.250319 
L 115.55358 274.845692 
L 116.09467 275.04415 
L 116.635761 275.04415 
L 117.176852 275.242607 
L 119.341216 275.341836 
L 119.882307 275.639523 
L 120.964489 275.341836 
L 124.211034 275.837981 
L 127.99867 275.738752 
L 129.080852 275.540294 
L 130.704125 275.738752 
L 131.245216 275.540294 
L 132.327398 275.837981 
L 132.868489 275.738752 
L 133.40958 275.837981 
L 135.032852 275.639523 
L 136.656125 275.837981 
L 138.820489 275.937209 
L 140.443761 276.135667 
L 143.690307 276.234896 
L 144.772489 276.334125 
L 394.215398 276.334125 
L 394.215398 276.334125 
" style="fill:none;stroke:#00b0ff;stroke-linecap:round;stroke-width:1.5;"/>
   </g>
   <g id="line2d_18">
    <path clip-path="url(#p49f2893c65)" d="M 69.560852 177.105249 
L 70.643034 150.015766 
L 72.266307 98.912894 
L 73.348489 75.991024 
L 73.88958 66.861967 
L 74.43067 65.075848 
L 74.971761 63.686643 
L 75.512852 66.961196 
L 76.053943 68.747316 
L 77.677216 95.439884 
L 79.84158 134.436832 
L 81.464852 175.616816 
L 82.005943 182.761295 
L 83.088125 204.591648 
L 84.711398 224.536652 
L 85.79358 234.657997 
L 86.33467 240.115585 
L 86.875761 243.290909 
L 87.957943 252.02305 
L 88.499034 254.801459 
L 89.040125 256.289892 
L 89.581216 260.060589 
L 90.122307 261.052878 
L 90.663398 263.235913 
L 91.204489 264.128973 
L 92.28667 266.907382 
L 92.827761 267.998899 
L 93.368852 268.296586 
L 93.909943 269.189646 
L 94.451034 269.090417 
L 94.992125 269.388104 
L 95.533216 269.983477 
L 96.074307 271.571139 
L 96.615398 272.166512 
L 97.69758 272.662657 
L 98.23867 273.059572 
L 99.320852 272.563428 
L 99.861943 272.563428 
L 100.403034 272.861114 
L 100.944125 272.861114 
L 101.485216 272.563428 
L 102.026307 272.960343 
L 102.567398 272.36497 
L 103.108489 272.563428 
L 103.64958 272.464199 
L 104.19067 272.067283 
L 104.731761 271.868826 
L 105.272852 272.265741 
L 105.813943 272.464199 
L 106.355034 272.36497 
L 107.437216 273.059572 
L 107.978307 272.662657 
L 108.519398 272.662657 
L 109.60158 272.067283 
L 110.14267 271.968054 
L 110.683761 272.265741 
L 111.765943 272.067283 
L 112.307034 272.36497 
L 112.848125 272.464199 
L 113.389216 272.861114 
L 114.471398 273.25803 
L 115.012489 273.25803 
L 115.55358 273.456488 
L 116.09467 273.25803 
L 116.635761 273.357259 
L 117.176852 273.952632 
L 117.717943 273.555716 
L 118.800125 274.051861 
L 119.341216 273.853403 
L 120.964489 274.051861 
L 121.50558 274.051861 
L 122.04667 274.349547 
L 124.752125 274.746463 
L 125.293216 274.250319 
L 125.834307 274.15109 
L 126.375398 274.349547 
L 126.916489 274.15109 
L 128.539761 274.349547 
L 129.080852 274.250319 
L 130.163034 274.548005 
L 131.245216 273.952632 
L 131.786307 274.548005 
L 132.868489 274.448776 
L 133.40958 274.845692 
L 134.491761 275.143378 
L 135.032852 275.441065 
L 136.115034 275.540294 
L 136.656125 275.242607 
L 137.197216 275.639523 
L 137.738307 275.738752 
L 138.279398 275.441065 
L 138.820489 275.639523 
L 139.36158 275.143378 
L 139.90267 275.341836 
L 140.443761 275.242607 
L 141.525943 275.540294 
L 143.149216 275.837981 
L 144.772489 275.639523 
L 145.85467 275.738752 
L 146.936852 275.540294 
L 147.477943 275.639523 
L 149.101216 275.242607 
L 150.183398 274.845692 
L 150.724489 275.04415 
L 151.80667 275.04415 
L 152.347761 274.845692 
L 152.888852 274.845692 
L 153.429943 274.647234 
L 155.053216 275.04415 
L 155.594307 275.341836 
L 156.676489 275.04415 
L 158.840852 275.04415 
L 159.381943 274.845692 
L 161.005216 274.845692 
L 161.546307 274.448776 
L 162.628489 274.746463 
L 163.71067 274.647234 
L 165.875034 274.250319 
L 166.416125 274.448776 
L 167.498307 274.448776 
L 168.580489 274.944921 
L 169.12158 274.845692 
L 169.66267 275.04415 
L 170.203761 274.746463 
L 170.744852 274.647234 
L 172.909216 274.944921 
L 175.07358 274.845692 
L 176.696852 274.647234 
L 178.320125 274.548005 
L 178.861216 274.051861 
L 179.402307 274.051861 
L 179.943398 273.456488 
L 181.02558 273.357259 
L 181.56667 272.861114 
L 182.107761 272.861114 
L 182.648852 272.662657 
L 183.731034 272.662657 
L 184.272125 272.464199 
L 184.813216 272.563428 
L 185.354307 272.464199 
L 186.97758 273.456488 
L 188.059761 274.250319 
L 189.683034 274.845692 
L 191.306307 274.746463 
L 191.847398 274.349547 
L 192.388489 274.250319 
L 193.47067 274.548005 
L 194.552852 274.548005 
L 195.093943 274.746463 
L 195.635034 274.746463 
L 196.176125 275.04415 
L 197.258307 274.944921 
L 197.799398 274.746463 
L 199.42267 274.944921 
L 201.045943 274.845692 
L 202.669216 274.647234 
L 203.210307 274.746463 
L 203.751398 275.04415 
L 204.83358 275.143378 
L 206.456852 275.441065 
L 208.621216 275.04415 
L 209.162307 274.746463 
L 209.703398 274.845692 
L 210.244489 274.746463 
L 210.78558 274.845692 
L 211.32667 274.647234 
L 212.949943 275.143378 
L 214.032125 274.647234 
L 214.573216 274.944921 
L 215.655398 275.143378 
L 216.73758 274.944921 
L 217.819761 275.242607 
L 218.360852 274.944921 
L 221.066307 275.341836 
L 221.607398 275.341836 
L 222.68958 274.944921 
L 223.23067 275.04415 
L 226.477216 274.349547 
L 227.559398 273.654945 
L 228.100489 273.952632 
L 229.18267 273.555716 
L 229.723761 273.754174 
L 230.805943 273.059572 
L 231.347034 273.158801 
L 231.888125 273.456488 
L 232.429216 273.456488 
L 232.970307 273.754174 
L 233.511398 273.555716 
L 234.052489 273.654945 
L 234.59358 273.25803 
L 235.13467 273.158801 
L 236.216852 273.456488 
L 237.299034 273.754174 
L 238.381216 273.952632 
L 238.922307 273.754174 
L 240.54558 273.754174 
L 241.08667 274.051861 
L 242.709943 273.456488 
L 243.792125 274.15109 
L 244.874307 274.448776 
L 245.956489 274.746463 
L 246.49758 275.04415 
L 249.744125 275.540294 
L 250.285216 275.441065 
L 251.367398 275.937209 
L 253.531761 275.639523 
L 256.237216 276.036438 
L 258.94267 275.937209 
L 260.024852 275.837981 
L 261.107034 275.937209 
L 264.89467 275.837981 
L 265.976852 275.738752 
L 267.059034 275.837981 
L 268.141216 275.837981 
L 268.682307 275.540294 
L 269.223398 275.441065 
L 269.764489 275.143378 
L 270.30558 275.143378 
L 270.84667 274.944921 
L 271.387761 274.548005 
L 271.928852 274.349547 
L 273.011034 274.548005 
L 273.552125 274.845692 
L 275.716489 274.349547 
L 276.25758 274.647234 
L 276.79867 274.647234 
L 277.339761 274.845692 
L 277.880852 274.845692 
L 278.421943 275.143378 
L 283.291761 275.242607 
L 285.456125 275.540294 
L 285.997216 275.441065 
L 286.538307 275.143378 
L 287.620489 275.04415 
L 288.70267 275.143378 
L 289.243761 275.341836 
L 290.325943 275.242607 
L 290.867034 275.441065 
L 291.949216 275.341836 
L 292.490307 275.242607 
L 293.572489 275.341836 
L 294.65467 275.242607 
L 295.736852 275.738752 
L 296.819034 275.738752 
L 297.360125 275.937209 
L 298.442307 275.937209 
L 298.983398 276.135667 
L 304.394307 276.234896 
L 305.476489 276.334125 
L 394.215398 276.334125 
L 394.215398 276.334125 
" style="fill:none;stroke:#29ffce;stroke-linecap:round;stroke-width:1.5;"/>
   </g>
   <g id="line2d_19">
    <path clip-path="url(#p49f2893c65)" d="M 69.560852 177.105249 
L 71.184125 135.329892 
L 72.266307 100.302099 
L 72.807398 85.616225 
L 73.348489 78.07483 
L 73.88958 67.755027 
L 74.43067 59.717488 
L 74.971761 57.732911 
L 75.512852 56.442936 
L 76.053943 59.915946 
L 76.595034 61.602837 
L 77.136125 65.373534 
L 77.677216 67.457341 
L 78.218307 74.701049 
L 79.84158 102.683592 
L 80.38267 118.857899 
L 83.088125 177.89908 
L 83.629216 186.829679 
L 84.170307 198.141771 
L 85.252489 212.430729 
L 86.33467 225.429712 
L 86.875761 228.20812 
L 88.499034 244.878571 
L 89.040125 249.046184 
L 89.581216 252.320737 
L 90.122307 252.618424 
L 90.663398 254.900688 
L 91.204489 255.992205 
L 91.74558 258.969072 
L 94.451034 266.510466 
L 94.992125 268.395815 
L 95.533216 268.891959 
L 96.074307 269.586561 
L 96.615398 269.586561 
L 97.156489 270.57885 
L 97.69758 270.281164 
L 98.23867 270.57885 
L 98.779761 271.372681 
L 99.320852 270.876537 
L 99.861943 271.47191 
L 100.403034 271.074995 
L 100.944125 271.074995 
L 101.485216 271.769597 
L 102.026307 272.265741 
L 102.567398 271.769597 
L 103.108489 272.265741 
L 103.64958 272.36497 
L 105.272852 273.853403 
L 105.813943 273.654945 
L 106.355034 273.952632 
L 107.978307 274.15109 
L 108.519398 274.15109 
L 110.14267 273.456488 
L 110.683761 272.960343 
L 111.224852 272.960343 
L 111.765943 272.662657 
L 112.307034 272.166512 
L 113.389216 272.662657 
L 113.930307 272.563428 
L 114.471398 271.571139 
L 115.012489 271.968054 
L 115.55358 271.571139 
L 116.635761 271.868826 
L 117.176852 272.166512 
L 117.717943 272.067283 
L 118.800125 272.166512 
L 119.341216 272.761885 
L 119.882307 273.158801 
L 120.964489 272.861114 
L 123.128852 271.769597 
L 124.211034 271.769597 
L 124.752125 272.265741 
L 125.834307 272.36497 
L 127.45758 271.769597 
L 127.99867 271.372681 
L 128.539761 271.273452 
L 129.621943 270.678079 
L 130.704125 271.174223 
L 131.786307 270.678079 
L 132.327398 270.876537 
L 132.868489 270.380392 
L 133.95067 270.181935 
L 134.491761 271.174223 
L 135.573943 271.670368 
L 136.115034 271.372681 
L 136.656125 272.067283 
L 137.197216 272.464199 
L 137.738307 272.464199 
L 138.279398 272.067283 
L 138.820489 272.861114 
L 140.443761 272.861114 
L 142.067034 273.357259 
L 142.608125 272.861114 
L 143.149216 273.456488 
L 144.231398 273.754174 
L 144.772489 273.555716 
L 145.85467 273.654945 
L 146.395761 273.654945 
L 146.936852 273.853403 
L 147.477943 273.754174 
L 148.019034 273.357259 
L 148.560125 273.25803 
L 149.101216 272.36497 
L 149.642307 272.662657 
L 150.183398 272.761885 
L 151.26558 271.47191 
L 152.888852 269.884248 
L 153.429943 269.090417 
L 153.971034 269.388104 
L 154.512125 269.288875 
L 155.053216 269.388104 
L 155.594307 270.380392 
L 156.135398 269.884248 
L 157.21758 270.777308 
L 157.75867 270.082706 
L 158.299761 270.57885 
L 158.840852 270.876537 
L 159.923034 270.876537 
L 160.464125 270.380392 
L 161.005216 270.57885 
L 161.546307 269.884248 
L 162.087398 270.181935 
L 163.71067 270.281164 
L 164.792852 270.876537 
L 165.333943 271.571139 
L 165.875034 272.067283 
L 166.416125 272.067283 
L 166.957216 271.670368 
L 168.039398 272.166512 
L 168.580489 271.670368 
L 169.12158 271.769597 
L 169.66267 271.670368 
L 170.203761 271.868826 
L 171.285943 271.769597 
L 171.827034 271.868826 
L 172.368125 272.36497 
L 172.909216 272.662657 
L 173.450307 272.464199 
L 174.532489 272.563428 
L 175.07358 272.36497 
L 175.61467 272.563428 
L 176.155761 272.563428 
L 177.237943 271.769597 
L 178.320125 271.769597 
L 178.861216 272.067283 
L 179.402307 272.563428 
L 180.484489 272.662657 
L 181.02558 271.968054 
L 181.56667 272.563428 
L 182.107761 272.861114 
L 182.648852 272.563428 
L 184.272125 272.861114 
L 184.813216 272.563428 
L 185.354307 272.067283 
L 185.895398 272.265741 
L 187.51867 272.265741 
L 188.059761 272.067283 
L 188.600852 271.670368 
L 189.141943 271.571139 
L 189.683034 271.174223 
L 190.224125 271.372681 
L 191.847398 271.372681 
L 192.388489 272.166512 
L 192.92958 272.36497 
L 194.011761 271.47191 
L 194.552852 271.47191 
L 195.093943 271.968054 
L 195.635034 271.868826 
L 196.176125 272.464199 
L 197.799398 272.067283 
L 198.340489 271.868826 
L 198.88158 272.166512 
L 199.963761 272.464199 
L 200.504852 272.166512 
L 201.045943 272.36497 
L 202.669216 271.670368 
L 203.210307 271.868826 
L 203.751398 271.769597 
L 204.83358 272.861114 
L 205.37467 272.662657 
L 205.915761 272.166512 
L 206.456852 272.36497 
L 206.997943 271.868826 
L 207.539034 272.662657 
L 208.080125 272.36497 
L 208.621216 272.464199 
L 209.162307 272.166512 
L 210.244489 272.36497 
L 210.78558 271.868826 
L 211.32667 271.968054 
L 212.408852 271.47191 
L 212.949943 271.769597 
L 213.491034 272.265741 
L 214.032125 272.960343 
L 215.114307 272.265741 
L 215.655398 272.464199 
L 216.196489 272.067283 
L 216.73758 272.36497 
L 217.27867 272.265741 
L 217.819761 272.662657 
L 218.360852 272.861114 
L 219.443034 272.960343 
L 219.984125 273.158801 
L 221.066307 272.563428 
L 221.607398 272.067283 
L 222.148489 272.265741 
L 223.23067 271.968054 
L 223.771761 272.662657 
L 224.312852 273.158801 
L 225.395034 273.357259 
L 225.936125 273.654945 
L 227.018307 273.654945 
L 227.559398 273.25803 
L 228.64158 273.158801 
L 229.18267 273.754174 
L 229.723761 274.051861 
L 230.805943 274.250319 
L 231.347034 273.853403 
L 232.970307 273.555716 
L 233.511398 273.754174 
L 234.59358 273.853403 
L 235.13467 274.15109 
L 235.675761 273.853403 
L 237.299034 273.754174 
L 237.840125 273.158801 
L 238.922307 272.761885 
L 239.463398 273.25803 
L 240.004489 272.464199 
L 240.54558 272.563428 
L 241.08667 272.960343 
L 241.627761 272.960343 
L 242.168852 272.36497 
L 243.251034 272.265741 
L 243.792125 272.662657 
L 244.333216 272.861114 
L 244.874307 273.25803 
L 247.03867 272.960343 
L 247.579761 273.357259 
L 248.120852 273.25803 
L 248.661943 272.960343 
L 249.203034 273.059572 
L 249.744125 272.662657 
L 250.285216 272.662657 
L 250.826307 273.059572 
L 251.908489 273.25803 
L 252.99067 272.861114 
L 253.531761 273.357259 
L 254.613943 273.456488 
L 255.155034 273.853403 
L 256.237216 273.654945 
L 256.778307 274.250319 
L 257.860489 274.746463 
L 260.024852 275.143378 
L 261.648125 274.746463 
L 262.189216 274.349547 
L 262.730307 274.448776 
L 263.812489 273.654945 
L 264.35358 274.051861 
L 265.435761 273.952632 
L 265.976852 274.250319 
L 267.600125 274.250319 
L 268.141216 274.548005 
L 270.84667 274.647234 
L 271.387761 274.845692 
L 272.469943 274.548005 
L 273.552125 274.548005 
L 275.175398 273.952632 
L 275.716489 274.250319 
L 278.421943 274.15109 
L 278.963034 274.051861 
L 280.045216 274.448776 
L 280.586307 274.448776 
L 281.668489 273.654945 
L 283.291761 274.448776 
L 283.832852 274.349547 
L 285.456125 274.845692 
L 285.997216 274.647234 
L 286.538307 274.647234 
L 289.784852 275.738752 
L 293.031398 275.143378 
L 293.572489 275.341836 
L 296.819034 274.845692 
L 297.360125 274.448776 
L 297.901216 274.448776 
L 298.442307 274.250319 
L 299.524489 274.349547 
L 300.06558 273.853403 
L 301.147761 274.548005 
L 303.312125 274.944921 
L 304.394307 275.441065 
L 304.935398 275.341836 
L 306.01758 275.738752 
L 306.55867 275.441065 
L 308.181943 275.540294 
L 309.264125 275.639523 
L 310.346307 275.341836 
L 310.887398 275.143378 
L 314.675034 275.143378 
L 315.216125 275.341836 
L 315.757216 275.04415 
L 316.298307 274.944921 
L 316.839398 275.143378 
L 319.003761 274.845692 
L 319.544852 274.944921 
L 320.627034 274.845692 
L 321.709216 274.845692 
L 322.250307 274.548005 
L 322.791398 274.548005 
L 323.332489 274.746463 
L 323.87358 275.441065 
L 324.955761 275.937209 
L 328.202307 276.036438 
L 328.743398 276.135667 
L 329.284489 275.937209 
L 330.36667 276.036438 
L 331.989943 275.837981 
L 333.072125 276.036438 
L 333.613216 275.937209 
L 334.154307 276.135667 
L 338.483034 276.234896 
L 339.565216 276.334125 
L 394.215398 276.334125 
L 394.215398 276.334125 
" style="fill:none;stroke:#7dff7a;stroke-linecap:round;stroke-width:1.5;"/>
   </g>
   <g id="line2d_20">
    <path clip-path="url(#p49f2893c65)" d="M 69.560852 177.105249 
L 70.101943 165.49547 
L 71.725216 113.40031 
L 73.88958 65.075848 
L 74.43067 60.213633 
L 74.971761 58.030598 
L 75.512852 60.412091 
L 76.053943 63.785872 
L 77.136125 81.845528 
L 77.677216 89.089236 
L 80.38267 148.626561 
L 80.923761 156.961787 
L 82.005943 183.455897 
L 82.547034 191.195749 
L 83.088125 195.760278 
L 84.170307 208.957718 
L 86.33467 234.657997 
L 87.416852 242.000934 
L 87.957943 244.878571 
L 88.499034 249.343871 
L 89.040125 251.229219 
L 89.581216 253.80917 
L 90.122307 255.793748 
L 90.663398 258.572156 
L 91.204489 260.259047 
L 91.74558 261.152107 
L 92.28667 261.648251 
L 92.827761 262.739769 
L 93.368852 264.823575 
L 93.909943 266.014322 
L 94.451034 266.411237 
L 94.992125 267.701213 
L 95.533216 267.800442 
L 96.615398 268.991188 
L 97.156489 268.693502 
L 97.69758 268.594273 
L 98.23867 269.487333 
L 98.779761 270.678079 
L 99.320852 271.174223 
L 99.861943 271.47191 
L 100.403034 272.265741 
L 101.485216 272.36497 
L 102.026307 272.464199 
L 102.567398 273.456488 
L 103.108489 273.158801 
L 103.64958 273.357259 
L 104.731761 273.456488 
L 105.272852 273.555716 
L 105.813943 272.861114 
L 106.355034 272.861114 
L 106.896125 272.067283 
L 107.437216 271.769597 
L 108.519398 271.769597 
L 109.060489 272.067283 
L 109.60158 272.067283 
L 110.683761 272.960343 
L 111.224852 273.357259 
L 111.765943 273.25803 
L 112.307034 273.555716 
L 112.848125 272.960343 
L 113.930307 272.464199 
L 114.471398 272.861114 
L 115.012489 272.761885 
L 115.55358 272.861114 
L 116.09467 273.25803 
L 116.635761 272.761885 
L 117.176852 273.059572 
L 117.717943 272.960343 
L 118.259034 273.25803 
L 119.882307 273.059572 
L 120.423398 273.456488 
L 120.964489 273.456488 
L 121.50558 273.853403 
L 122.04667 274.548005 
L 126.916489 275.441065 
L 127.45758 275.341836 
L 127.99867 275.441065 
L 129.080852 274.845692 
L 130.163034 274.944921 
L 130.704125 275.04415 
L 131.245216 274.944921 
L 132.868489 274.15109 
L 133.95067 274.051861 
L 135.573943 273.952632 
L 136.115034 273.853403 
L 137.197216 273.952632 
L 137.738307 273.952632 
L 138.279398 274.250319 
L 138.820489 274.15109 
L 139.36158 273.754174 
L 139.90267 273.654945 
L 140.443761 273.853403 
L 140.984852 273.654945 
L 142.067034 273.754174 
L 143.149216 273.357259 
L 143.690307 272.960343 
L 144.231398 273.158801 
L 144.772489 273.059572 
L 145.31358 273.25803 
L 145.85467 272.861114 
L 146.395761 273.25803 
L 148.019034 273.25803 
L 148.560125 272.960343 
L 149.101216 273.25803 
L 149.642307 272.563428 
L 150.183398 272.960343 
L 150.724489 272.861114 
L 151.26558 273.059572 
L 153.429943 272.761885 
L 153.971034 272.761885 
L 154.512125 272.067283 
L 156.135398 272.36497 
L 156.676489 272.761885 
L 157.21758 272.662657 
L 157.75867 273.158801 
L 158.299761 273.059572 
L 158.840852 273.654945 
L 159.923034 272.563428 
L 160.464125 272.563428 
L 161.005216 272.861114 
L 162.087398 272.761885 
L 162.628489 272.464199 
L 163.16958 272.861114 
L 163.71067 272.662657 
L 164.792852 271.47191 
L 165.333943 271.174223 
L 166.416125 271.571139 
L 166.957216 270.876537 
L 167.498307 271.372681 
L 168.580489 271.174223 
L 169.12158 271.670368 
L 170.203761 271.571139 
L 171.285943 271.174223 
L 171.827034 271.273452 
L 172.368125 270.678079 
L 173.450307 270.975766 
L 173.991398 270.678079 
L 174.532489 270.975766 
L 175.07358 270.777308 
L 176.155761 271.273452 
L 176.696852 271.868826 
L 178.320125 272.960343 
L 178.861216 273.25803 
L 179.402307 273.059572 
L 180.484489 273.952632 
L 182.648852 274.349547 
L 183.189943 274.15109 
L 183.731034 274.448776 
L 185.354307 274.349547 
L 185.895398 274.15109 
L 187.51867 274.746463 
L 189.683034 274.349547 
L 190.224125 274.051861 
L 190.765216 274.051861 
L 191.306307 273.555716 
L 192.388489 273.059572 
L 193.47067 272.563428 
L 194.011761 272.861114 
L 194.552852 272.861114 
L 195.093943 272.166512 
L 195.635034 272.166512 
L 196.176125 271.47191 
L 196.717216 271.273452 
L 197.799398 271.273452 
L 198.340489 270.876537 
L 199.42267 271.571139 
L 199.963761 271.571139 
L 200.504852 271.174223 
L 201.045943 271.273452 
L 201.587034 270.876537 
L 202.128125 270.777308 
L 202.669216 269.884248 
L 203.210307 269.487333 
L 203.751398 268.891959 
L 204.292489 269.090417 
L 204.83358 268.296586 
L 205.37467 268.296586 
L 205.915761 267.502755 
L 206.456852 267.10584 
L 206.997943 266.907382 
L 207.539034 266.014322 
L 208.080125 266.014322 
L 208.621216 266.609695 
L 209.162307 266.411237 
L 209.703398 267.304297 
L 210.244489 267.601984 
L 210.78558 267.006611 
L 211.32667 267.006611 
L 211.867761 267.502755 
L 212.408852 268.197357 
L 212.949943 268.197357 
L 213.491034 267.899671 
L 214.032125 267.899671 
L 214.573216 267.403526 
L 215.114307 266.609695 
L 215.655398 267.006611 
L 216.196489 266.708924 
L 217.27867 267.403526 
L 217.819761 267.998899 
L 218.901943 267.800442 
L 219.443034 268.594273 
L 220.525216 268.79273 
L 221.066307 268.395815 
L 221.607398 268.395815 
L 222.68958 270.380392 
L 223.771761 270.281164 
L 224.312852 269.785019 
L 224.853943 270.57885 
L 225.395034 270.777308 
L 225.936125 270.777308 
L 226.477216 271.47191 
L 227.018307 271.670368 
L 227.559398 271.47191 
L 228.100489 271.47191 
L 228.64158 271.769597 
L 229.18267 271.372681 
L 230.805943 271.174223 
L 231.888125 271.571139 
L 232.429216 271.571139 
L 233.511398 272.067283 
L 234.59358 272.166512 
L 235.13467 272.563428 
L 235.675761 272.563428 
L 236.216852 272.960343 
L 236.757943 272.761885 
L 237.299034 273.456488 
L 238.381216 272.761885 
L 238.922307 272.36497 
L 239.463398 272.464199 
L 240.004489 272.36497 
L 240.54558 272.662657 
L 241.08667 272.265741 
L 241.627761 272.464199 
L 242.168852 272.166512 
L 242.709943 272.067283 
L 243.251034 272.265741 
L 243.792125 271.868826 
L 244.874307 271.372681 
L 245.415398 270.876537 
L 245.956489 269.983477 
L 246.49758 270.082706 
L 247.03867 269.785019 
L 248.120852 270.281164 
L 248.661943 269.586561 
L 249.203034 269.288875 
L 251.367398 269.388104 
L 251.908489 269.586561 
L 252.44958 268.991188 
L 252.99067 269.189646 
L 254.613943 268.693502 
L 255.155034 268.991188 
L 255.696125 269.090417 
L 256.237216 268.79273 
L 256.778307 268.197357 
L 257.319398 268.098128 
L 257.860489 268.296586 
L 258.40158 269.189646 
L 259.483761 268.693502 
L 261.107034 268.197357 
L 261.648125 268.296586 
L 262.189216 268.79273 
L 262.730307 267.998899 
L 263.271398 268.296586 
L 263.812489 268.991188 
L 265.435761 268.693502 
L 265.976852 268.891959 
L 266.517943 269.487333 
L 267.059034 269.785019 
L 267.600125 269.189646 
L 268.141216 268.79273 
L 268.682307 269.090417 
L 269.223398 268.79273 
L 269.764489 269.288875 
L 270.30558 269.189646 
L 270.84667 269.288875 
L 271.387761 269.983477 
L 273.552125 268.098128 
L 274.093216 268.495044 
L 274.634307 267.601984 
L 275.175398 267.304297 
L 276.79867 267.601984 
L 277.339761 267.304297 
L 277.880852 267.205068 
L 279.504125 267.800442 
L 280.045216 268.79273 
L 280.586307 268.594273 
L 281.127398 268.79273 
L 281.668489 268.693502 
L 282.20958 268.197357 
L 282.75067 268.495044 
L 283.291761 268.296586 
L 284.373943 268.395815 
L 284.915034 268.098128 
L 285.456125 268.594273 
L 285.997216 268.79273 
L 286.538307 268.594273 
L 287.079398 269.388104 
L 287.620489 269.388104 
L 288.16158 269.189646 
L 289.243761 269.288875 
L 289.784852 268.693502 
L 290.325943 268.891959 
L 290.867034 268.79273 
L 291.949216 268.891959 
L 292.490307 268.79273 
L 293.572489 268.991188 
L 294.65467 269.68579 
L 295.195761 269.983477 
L 295.736852 269.983477 
L 296.277943 270.281164 
L 296.819034 270.181935 
L 297.901216 269.487333 
L 298.442307 269.785019 
L 299.524489 270.678079 
L 300.06558 270.876537 
L 301.147761 270.975766 
L 301.688852 271.174223 
L 302.229943 270.975766 
L 302.771034 270.975766 
L 303.312125 270.777308 
L 303.853216 270.380392 
L 304.394307 270.876537 
L 304.935398 271.174223 
L 305.476489 271.769597 
L 306.01758 272.067283 
L 306.55867 272.563428 
L 307.099761 273.456488 
L 307.640852 273.456488 
L 308.181943 273.853403 
L 308.723034 273.654945 
L 309.264125 273.25803 
L 309.805216 273.456488 
L 310.887398 272.861114 
L 311.428489 272.166512 
L 312.51067 271.47191 
L 313.051761 271.968054 
L 314.133943 272.067283 
L 314.675034 271.769597 
L 315.216125 271.868826 
L 315.757216 272.265741 
L 316.298307 272.861114 
L 316.839398 273.654945 
L 317.380489 274.051861 
L 318.46267 274.349547 
L 320.085943 274.349547 
L 321.168125 273.654945 
L 321.709216 273.754174 
L 322.791398 273.456488 
L 323.332489 273.754174 
L 323.87358 273.555716 
L 327.120125 274.250319 
L 327.661216 273.952632 
L 328.202307 274.051861 
L 329.284489 274.548005 
L 330.907761 274.349547 
L 331.448852 273.754174 
L 331.989943 274.15109 
L 334.154307 273.853403 
L 334.695398 274.051861 
L 336.31867 273.754174 
L 336.859761 274.051861 
L 337.400852 274.548005 
L 337.941943 274.250319 
L 338.483034 274.250319 
L 340.106307 273.754174 
L 340.647398 273.853403 
L 341.72958 273.357259 
L 342.27067 273.555716 
L 342.811761 273.555716 
L 343.352852 273.754174 
L 343.893943 274.15109 
L 344.435034 274.349547 
L 344.976125 274.944921 
L 348.763761 275.04415 
L 349.304852 275.341836 
L 349.845943 274.944921 
L 350.387034 274.746463 
L 351.469216 275.04415 
L 352.010307 275.143378 
L 352.551398 274.944921 
L 353.092489 275.143378 
L 353.63358 274.845692 
L 354.17467 274.944921 
L 354.715761 274.746463 
L 355.256852 274.845692 
L 356.339034 274.548005 
L 356.880125 274.448776 
L 357.421216 274.548005 
L 357.962307 274.845692 
L 359.044489 274.448776 
L 360.12667 274.845692 
L 360.667761 274.448776 
L 361.208852 274.746463 
L 362.832125 274.448776 
L 363.373216 274.647234 
L 363.914307 274.448776 
L 364.455398 274.647234 
L 364.996489 274.448776 
L 365.53758 274.647234 
L 367.701943 274.15109 
L 369.866307 274.944921 
L 370.407398 275.341836 
L 370.948489 275.341836 
L 371.48958 275.143378 
L 372.571761 275.04415 
L 373.112852 275.540294 
L 373.653943 275.341836 
L 376.359398 275.738752 
L 377.44158 275.639523 
L 377.98267 275.242607 
L 379.064852 275.540294 
L 379.605943 275.242607 
L 381.229216 275.04415 
L 381.770307 275.04415 
L 383.39358 274.250319 
L 383.93467 274.349547 
L 384.475761 273.853403 
L 385.557943 273.853403 
L 386.099034 274.051861 
L 386.640125 273.754174 
L 387.722307 274.051861 
L 388.263398 274.051861 
L 388.804489 274.647234 
L 390.427761 275.738752 
L 390.968852 275.837981 
L 391.509943 276.135667 
L 393.133216 276.036438 
L 394.215398 275.937209 
L 394.215398 275.937209 
" style="fill:none;stroke:#ceff29;stroke-linecap:round;stroke-width:1.5;"/>
   </g>
   <g id="line2d_21">
    <path clip-path="url(#p49f2893c65)" d="M 69.560852 177.105249 
L 70.101943 166.289301 
L 72.807398 92.859933 
L 73.348489 81.845528 
L 74.43067 67.55657 
L 74.971761 63.885101 
L 75.512852 62.297439 
L 76.053943 61.602837 
L 77.136125 76.38794 
L 77.677216 84.524707 
L 78.218307 96.332944 
L 78.759398 102.385905 
L 79.84158 124.117029 
L 80.38267 132.84917 
L 80.923761 144.855864 
L 81.464852 152.496488 
L 83.629216 191.493436 
L 86.33467 223.941278 
L 86.875761 227.910433 
L 87.416852 233.070335 
L 87.957943 236.741803 
L 88.499034 239.520212 
L 89.581216 243.687825 
L 90.663398 250.633846 
L 91.204489 251.824593 
L 91.74558 255.297603 
L 92.28667 257.579867 
L 92.827761 260.85442 
L 93.368852 262.342853 
L 93.909943 263.335142 
L 94.992125 266.708924 
L 95.533216 267.10584 
L 96.074307 267.998899 
L 96.615398 269.288875 
L 97.69758 270.975766 
L 98.23867 271.074995 
L 98.779761 271.868826 
L 99.861943 272.166512 
L 100.944125 273.059572 
L 101.485216 273.059572 
L 102.567398 273.654945 
L 104.19067 273.555716 
L 104.731761 273.456488 
L 105.813943 273.654945 
L 106.896125 274.349547 
L 107.437216 274.349547 
L 107.978307 274.548005 
L 108.519398 274.548005 
L 109.60158 274.15109 
L 110.14267 274.250319 
L 111.224852 273.952632 
L 111.765943 274.250319 
L 112.307034 274.15109 
L 112.848125 274.349547 
L 113.930307 274.051861 
L 115.012489 274.746463 
L 115.55358 274.944921 
L 116.09467 274.448776 
L 117.176852 274.548005 
L 117.717943 274.250319 
L 118.259034 274.349547 
L 119.341216 274.250319 
L 119.882307 274.349547 
L 121.50558 273.555716 
L 122.04667 273.357259 
L 122.587761 273.654945 
L 125.293216 273.158801 
L 127.99867 271.769597 
L 128.539761 271.769597 
L 129.080852 271.571139 
L 129.621943 272.166512 
L 130.163034 272.067283 
L 131.245216 272.36497 
L 131.786307 273.357259 
L 132.327398 273.754174 
L 132.868489 273.456488 
L 134.491761 273.654945 
L 135.573943 273.357259 
L 136.115034 273.25803 
L 137.738307 273.456488 
L 138.279398 273.853403 
L 140.443761 273.853403 
L 140.984852 273.555716 
L 141.525943 273.456488 
L 142.067034 272.861114 
L 142.608125 273.357259 
L 143.690307 273.853403 
L 145.31358 273.456488 
L 146.395761 273.754174 
L 146.936852 273.654945 
L 147.477943 273.357259 
L 148.019034 273.456488 
L 148.560125 273.25803 
L 149.642307 273.357259 
L 150.724489 273.853403 
L 151.26558 273.654945 
L 151.80667 273.654945 
L 152.347761 273.952632 
L 152.888852 273.853403 
L 153.429943 274.250319 
L 153.971034 274.250319 
L 154.512125 274.548005 
L 157.75867 274.647234 
L 158.299761 274.15109 
L 158.840852 274.448776 
L 159.381943 274.548005 
L 161.005216 273.754174 
L 161.546307 274.051861 
L 162.087398 274.051861 
L 162.628489 273.853403 
L 163.16958 274.15109 
L 163.71067 274.051861 
L 164.251761 274.250319 
L 164.792852 274.051861 
L 165.333943 274.349547 
L 165.875034 274.250319 
L 166.416125 273.952632 
L 168.039398 274.15109 
L 169.12158 273.654945 
L 170.203761 273.555716 
L 170.744852 273.555716 
L 171.827034 274.051861 
L 172.368125 274.250319 
L 172.909216 274.250319 
L 173.991398 274.647234 
L 174.532489 274.548005 
L 175.07358 274.746463 
L 175.61467 274.548005 
L 176.155761 275.143378 
L 176.696852 275.242607 
L 177.237943 275.143378 
L 177.779034 274.746463 
L 178.861216 274.647234 
L 180.484489 274.15109 
L 181.02558 274.250319 
L 181.56667 274.051861 
L 182.107761 273.555716 
L 182.648852 273.456488 
L 183.189943 273.059572 
L 183.731034 273.25803 
L 184.272125 273.158801 
L 185.354307 273.456488 
L 185.895398 273.158801 
L 186.436489 272.36497 
L 186.97758 272.166512 
L 187.51867 272.662657 
L 188.059761 272.265741 
L 188.600852 272.067283 
L 189.141943 272.067283 
L 189.683034 272.265741 
L 190.224125 272.662657 
L 190.765216 272.662657 
L 191.306307 272.464199 
L 192.388489 272.563428 
L 192.92958 272.761885 
L 194.011761 272.464199 
L 195.093943 272.563428 
L 195.635034 272.761885 
L 196.717216 273.456488 
L 197.258307 273.456488 
L 197.799398 273.654945 
L 198.340489 273.555716 
L 198.88158 273.952632 
L 199.42267 273.853403 
L 199.963761 274.448776 
L 200.504852 274.349547 
L 201.045943 274.448776 
L 202.128125 274.15109 
L 203.210307 274.250319 
L 205.37467 273.853403 
L 205.915761 273.456488 
L 206.456852 273.25803 
L 207.539034 272.563428 
L 208.621216 273.456488 
L 209.162307 273.456488 
L 209.703398 273.654945 
L 210.244489 273.555716 
L 210.78558 272.960343 
L 211.32667 273.158801 
L 212.408852 272.662657 
L 212.949943 272.563428 
L 213.491034 272.960343 
L 214.032125 272.563428 
L 214.573216 272.662657 
L 215.114307 273.059572 
L 215.655398 273.059572 
L 216.196489 272.662657 
L 216.73758 272.761885 
L 217.27867 272.662657 
L 217.819761 273.158801 
L 218.901943 272.662657 
L 219.984125 272.464199 
L 220.525216 272.563428 
L 221.066307 272.464199 
L 221.607398 272.166512 
L 222.68958 272.464199 
L 223.771761 271.571139 
L 224.312852 271.174223 
L 224.853943 271.47191 
L 225.395034 271.273452 
L 225.936125 271.372681 
L 226.477216 271.868826 
L 227.018307 271.670368 
L 227.559398 272.662657 
L 228.64158 272.861114 
L 229.18267 272.761885 
L 229.723761 273.357259 
L 230.264852 273.754174 
L 231.888125 273.456488 
L 232.429216 273.754174 
L 232.970307 273.456488 
L 233.511398 273.754174 
L 234.59358 273.25803 
L 235.13467 273.555716 
L 236.216852 272.662657 
L 236.757943 272.861114 
L 237.299034 272.464199 
L 237.840125 272.960343 
L 238.922307 273.25803 
L 239.463398 273.059572 
L 240.004489 273.158801 
L 242.168852 272.861114 
L 242.709943 272.960343 
L 243.792125 272.265741 
L 244.333216 271.968054 
L 244.874307 271.968054 
L 245.415398 272.265741 
L 245.956489 272.166512 
L 246.49758 272.563428 
L 247.579761 272.265741 
L 248.120852 272.563428 
L 249.203034 272.166512 
L 250.285216 272.265741 
L 250.826307 272.36497 
L 251.367398 272.166512 
L 251.908489 272.662657 
L 252.44958 272.960343 
L 253.531761 272.861114 
L 254.072852 273.158801 
L 254.613943 272.662657 
L 256.237216 272.563428 
L 257.860489 273.456488 
L 258.40158 273.555716 
L 259.483761 273.25803 
L 260.565943 273.357259 
L 261.107034 273.853403 
L 261.648125 274.051861 
L 262.189216 274.051861 
L 263.271398 274.448776 
L 263.812489 274.448776 
L 264.35358 274.15109 
L 264.89467 274.15109 
L 265.435761 274.349547 
L 267.600125 274.448776 
L 268.141216 274.647234 
L 268.682307 273.853403 
L 269.223398 274.15109 
L 269.764489 273.754174 
L 270.30558 274.15109 
L 271.387761 273.654945 
L 271.928852 273.853403 
L 272.469943 273.357259 
L 273.011034 273.654945 
L 275.175398 274.051861 
L 275.716489 274.548005 
L 277.880852 274.845692 
L 279.504125 274.746463 
L 281.668489 274.448776 
L 282.20958 274.448776 
L 282.75067 274.746463 
L 284.373943 273.654945 
L 284.915034 273.853403 
L 286.538307 273.456488 
L 287.079398 273.059572 
L 287.620489 273.158801 
L 288.16158 272.960343 
L 289.243761 272.960343 
L 289.784852 272.464199 
L 290.325943 272.861114 
L 290.867034 272.861114 
L 291.408125 273.158801 
L 294.11358 273.555716 
L 294.65467 273.158801 
L 295.195761 273.555716 
L 296.819034 274.15109 
L 297.360125 273.853403 
L 297.901216 274.15109 
L 298.442307 274.15109 
L 298.983398 273.952632 
L 300.60667 274.15109 
L 301.147761 273.853403 
L 301.688852 274.051861 
L 302.229943 273.853403 
L 302.771034 274.051861 
L 303.312125 274.448776 
L 303.853216 274.448776 
L 304.394307 274.15109 
L 305.476489 274.647234 
L 306.01758 274.647234 
L 306.55867 274.845692 
L 307.099761 274.746463 
L 308.723034 275.04415 
L 309.805216 274.647234 
L 311.428489 274.548005 
L 312.51067 274.448776 
L 313.051761 274.647234 
L 314.133943 273.952632 
L 315.216125 274.845692 
L 316.839398 275.04415 
L 317.380489 274.944921 
L 318.46267 275.242607 
L 319.003761 275.639523 
L 320.085943 275.837981 
L 320.627034 275.639523 
L 321.168125 275.837981 
L 322.791398 275.738752 
L 324.955761 275.441065 
L 326.037943 275.540294 
L 327.120125 275.441065 
L 327.661216 275.242607 
L 328.202307 275.441065 
L 329.284489 275.441065 
L 330.36667 275.143378 
L 331.989943 274.746463 
L 332.531034 274.349547 
L 333.072125 274.647234 
L 334.695398 274.250319 
L 335.236489 274.548005 
L 336.31867 274.15109 
L 336.859761 273.654945 
L 338.483034 273.754174 
L 339.024125 274.250319 
L 342.27067 274.944921 
L 343.893943 275.441065 
L 344.435034 275.441065 
L 344.976125 275.639523 
L 345.517216 275.639523 
L 346.058307 275.937209 
L 349.845943 275.341836 
L 350.387034 275.540294 
L 351.469216 275.441065 
L 352.010307 275.441065 
L 352.551398 275.837981 
L 354.17467 275.937209 
L 355.256852 276.036438 
L 356.339034 276.135667 
L 356.880125 276.334125 
L 394.215398 276.334125 
L 394.215398 276.334125 
" style="fill:none;stroke:#ffc400;stroke-linecap:round;stroke-width:1.5;"/>
   </g>
   <g id="line2d_22">
    <path clip-path="url(#p49f2893c65)" d="M 69.560852 177.105249 
L 70.101943 163.411664 
L 72.266307 98.515979 
L 73.88958 63.190499 
L 74.971761 50.588432 
L 75.512852 52.374552 
L 76.053943 51.779178 
L 77.136125 63.289728 
L 77.677216 69.441918 
L 78.218307 84.32625 
L 79.300489 100.897472 
L 79.84158 116.97255 
L 80.38267 125.605462 
L 82.005943 160.037882 
L 84.170307 199.03483 
L 85.252489 211.239982 
L 86.33467 222.552074 
L 89.040125 243.787054 
L 89.581216 245.473945 
L 90.122307 247.65698 
L 91.204489 253.015339 
L 91.74558 253.511483 
L 92.28667 254.70223 
L 92.827761 257.38141 
L 93.368852 259.068301 
L 93.909943 261.251336 
L 94.451034 262.938227 
L 94.992125 263.732058 
L 95.533216 264.724346 
L 96.074307 264.823575 
L 96.615398 265.617406 
L 97.156489 267.403526 
L 97.69758 267.701213 
L 98.23867 268.197357 
L 98.779761 270.082706 
L 100.403034 270.876537 
L 101.485216 270.777308 
L 102.026307 270.57885 
L 103.108489 270.479621 
L 103.64958 271.273452 
L 104.19067 270.678079 
L 104.731761 271.273452 
L 105.272852 270.777308 
L 105.813943 270.479621 
L 106.896125 271.074995 
L 107.437216 271.571139 
L 109.60158 271.571139 
L 110.14267 270.678079 
L 111.224852 271.273452 
L 112.307034 272.265741 
L 113.930307 271.868826 
L 114.471398 271.670368 
L 115.012489 271.769597 
L 116.09467 271.273452 
L 116.635761 271.868826 
L 117.717943 271.968054 
L 118.259034 272.067283 
L 118.800125 272.464199 
L 119.341216 272.464199 
L 119.882307 272.265741 
L 120.964489 272.166512 
L 121.50558 272.563428 
L 122.04667 272.265741 
L 122.587761 272.761885 
L 123.128852 272.464199 
L 123.669943 272.960343 
L 124.211034 272.662657 
L 124.752125 272.662657 
L 125.293216 273.158801 
L 125.834307 273.357259 
L 127.45758 274.448776 
L 128.539761 274.647234 
L 129.080852 274.548005 
L 129.621943 274.746463 
L 130.704125 274.845692 
L 131.245216 275.04415 
L 131.786307 274.944921 
L 132.868489 275.341836 
L 133.40958 275.341836 
L 133.95067 275.04415 
L 135.032852 274.845692 
L 135.573943 274.944921 
L 136.115034 274.746463 
L 137.197216 274.944921 
L 137.738307 275.341836 
L 138.279398 275.441065 
L 138.820489 275.341836 
L 140.443761 275.540294 
L 140.984852 275.341836 
L 142.067034 275.441065 
L 143.690307 275.341836 
L 144.231398 275.242607 
L 144.772489 275.441065 
L 145.85467 275.341836 
L 146.936852 275.04415 
L 147.477943 274.944921 
L 148.019034 275.242607 
L 149.101216 275.143378 
L 150.183398 275.04415 
L 151.80667 275.540294 
L 155.594307 275.441065 
L 156.135398 275.738752 
L 156.676489 275.639523 
L 157.21758 275.341836 
L 158.299761 275.540294 
L 159.381943 275.341836 
L 159.923034 275.04415 
L 162.087398 274.944921 
L 162.628489 275.242607 
L 163.16958 275.04415 
L 163.71067 275.242607 
L 164.251761 274.944921 
L 164.792852 275.341836 
L 166.957216 274.944921 
L 168.039398 275.242607 
L 168.580489 275.341836 
L 169.66267 275.04415 
L 170.203761 275.341836 
L 173.991398 275.242607 
L 174.532489 275.04415 
L 175.61467 275.143378 
L 177.779034 275.937209 
L 179.402307 275.837981 
L 180.484489 275.341836 
L 182.107761 275.639523 
L 183.189943 275.341836 
L 183.731034 275.441065 
L 185.354307 275.242607 
L 185.895398 275.242607 
L 186.436489 275.04415 
L 187.51867 274.944921 
L 188.600852 274.746463 
L 189.683034 274.845692 
L 190.224125 274.548005 
L 193.47067 275.143378 
L 194.552852 274.944921 
L 195.093943 275.04415 
L 195.635034 274.845692 
L 196.176125 274.845692 
L 196.717216 274.647234 
L 198.340489 274.845692 
L 199.963761 274.944921 
L 202.128125 275.738752 
L 203.751398 275.143378 
L 204.83358 275.441065 
L 206.997943 275.441065 
L 208.080125 274.944921 
L 209.162307 275.242607 
L 210.78558 275.143378 
L 211.32667 274.647234 
L 211.867761 274.349547 
L 212.949943 274.448776 
L 214.573216 274.944921 
L 215.114307 275.04415 
L 216.73758 274.250319 
L 217.27867 274.15109 
L 218.360852 275.04415 
L 219.443034 274.944921 
L 219.984125 275.341836 
L 221.066307 275.738752 
L 221.607398 275.639523 
L 222.148489 275.738752 
L 222.68958 275.639523 
L 223.23067 275.341836 
L 224.853943 275.540294 
L 225.936125 275.441065 
L 226.477216 275.341836 
L 227.018307 275.441065 
L 228.100489 275.143378 
L 228.64158 275.04415 
L 229.18267 275.242607 
L 229.723761 275.143378 
L 230.264852 274.845692 
L 231.347034 274.944921 
L 232.429216 274.845692 
L 232.970307 274.647234 
L 233.511398 274.845692 
L 234.052489 274.845692 
L 234.59358 274.647234 
L 235.13467 274.250319 
L 235.675761 274.845692 
L 237.840125 274.448776 
L 238.381216 274.548005 
L 238.922307 274.250319 
L 239.463398 274.349547 
L 240.004489 274.250319 
L 240.54558 274.448776 
L 241.08667 274.448776 
L 241.627761 275.143378 
L 244.333216 275.242607 
L 245.415398 275.738752 
L 246.49758 275.738752 
L 247.579761 276.036438 
L 248.120852 275.937209 
L 249.744125 276.135667 
L 251.908489 276.234896 
L 252.99067 276.334125 
L 394.215398 276.334125 
L 394.215398 276.334125 
" style="fill:none;stroke:#ff6800;stroke-linecap:round;stroke-width:1.5;"/>
   </g>
   <g id="line2d_23">
    <path clip-path="url(#p49f2893c65)" d="M 69.560852 177.105249 
L 73.348489 74.304133 
L 74.43067 58.7252 
L 74.971761 54.656816 
L 75.512852 54.855273 
L 76.053943 57.137538 
L 77.677216 78.96789 
L 78.759398 102.088219 
L 79.84158 134.337603 
L 81.464852 167.777735 
L 82.005943 176.11296 
L 82.547034 186.928908 
L 83.088125 194.172616 
L 83.629216 206.278538 
L 84.170307 215.705282 
L 85.79358 233.268793 
L 86.875761 242.695536 
L 87.416852 248.053895 
L 88.499034 254.503772 
L 89.040125 256.984494 
L 89.581216 257.579867 
L 90.663398 261.052878 
L 91.74558 263.335142 
L 92.28667 264.029744 
L 93.368852 266.312009 
L 93.909943 267.899671 
L 94.451034 268.693502 
L 94.992125 270.082706 
L 95.533216 270.57885 
L 96.074307 271.372681 
L 96.615398 272.563428 
L 98.779761 273.357259 
L 99.320852 273.754174 
L 99.861943 273.654945 
L 100.944125 273.158801 
L 101.485216 272.265741 
L 102.026307 272.960343 
L 102.567398 272.761885 
L 103.108489 273.456488 
L 103.64958 273.555716 
L 104.19067 273.357259 
L 104.731761 273.456488 
L 105.272852 273.853403 
L 105.813943 273.853403 
L 106.355034 274.250319 
L 106.896125 274.448776 
L 107.437216 274.250319 
L 110.14267 275.242607 
L 110.683761 274.944921 
L 112.848125 275.04415 
L 113.389216 275.341836 
L 114.471398 275.242607 
L 115.012489 275.441065 
L 115.55358 275.441065 
L 116.09467 275.738752 
L 117.176852 275.837981 
L 119.341216 275.738752 
L 119.882307 276.036438 
L 122.04667 276.135667 
L 123.128852 276.234896 
L 124.752125 276.135667 
L 125.834307 276.036438 
L 128.539761 276.036438 
L 129.080852 275.837981 
L 130.163034 275.937209 
L 130.704125 275.937209 
L 131.245216 275.738752 
L 132.327398 275.837981 
L 137.738307 275.738752 
L 138.820489 275.639523 
L 139.90267 276.036438 
L 146.395761 276.135667 
L 148.019034 276.334125 
L 394.215398 276.334125 
L 394.215398 276.334125 
" style="fill:none;stroke:#f10800;stroke-linecap:round;stroke-width:1.5;"/>
   </g>
   <g id="patch_3">
    <path d="M 53.328125 288.430125 
L 53.328125 22.318125 
" style="fill:none;stroke:#cccccc;stroke-linecap:square;stroke-linejoin:miter;stroke-width:0.8;"/>
   </g>
   <g id="patch_4">
    <path d="M 410.448125 288.430125 
L 410.448125 22.318125 
" style="fill:none;stroke:#cccccc;stroke-linecap:square;stroke-linejoin:miter;stroke-width:0.8;"/>
   </g>
   <g id="patch_5">
    <path d="M 53.328125 288.430125 
L 410.448125 288.430125 
" style="fill:none;stroke:#cccccc;stroke-linecap:square;stroke-linejoin:miter;stroke-width:0.8;"/>
   </g>
   <g id="patch_6">
    <path d="M 53.328125 22.318125 
L 410.448125 22.318125 
" style="fill:none;stroke:#cccccc;stroke-linecap:square;stroke-linejoin:miter;stroke-width:0.8;"/>
   </g>
   <g id="text_16">
    <!-- Sars-Cov-2 -->
    <defs>
     <path d="M 53.515625 70.515625 
L 53.515625 60.890625 
Q 47.90625 63.578125 42.921875 64.890625 
Q 37.9375 66.21875 33.296875 66.21875 
Q 25.25 66.21875 20.875 63.09375 
Q 16.5 59.96875 16.5 54.203125 
Q 16.5 49.359375 19.40625 46.890625 
Q 22.3125 44.4375 30.421875 42.921875 
L 36.375 41.703125 
Q 47.40625 39.59375 52.65625 34.296875 
Q 57.90625 29 57.90625 20.125 
Q 57.90625 9.515625 50.796875 4.046875 
Q 43.703125 -1.421875 29.984375 -1.421875 
Q 24.8125 -1.421875 18.96875 -0.25 
Q 13.140625 0.921875 6.890625 3.21875 
L 6.890625 13.375 
Q 12.890625 10.015625 18.65625 8.296875 
Q 24.421875 6.59375 29.984375 6.59375 
Q 38.421875 6.59375 43.015625 9.90625 
Q 47.609375 13.234375 47.609375 19.390625 
Q 47.609375 24.75 44.3125 27.78125 
Q 41.015625 30.8125 33.5 32.328125 
L 27.484375 33.5 
Q 16.453125 35.6875 11.515625 40.375 
Q 6.59375 45.0625 6.59375 53.421875 
Q 6.59375 63.09375 13.40625 68.65625 
Q 20.21875 74.21875 32.171875 74.21875 
Q 37.3125 74.21875 42.625 73.28125 
Q 47.953125 72.359375 53.515625 70.515625 
z
" id="DejaVuSans-83"/>
     <path d="M 4.890625 31.390625 
L 31.203125 31.390625 
L 31.203125 23.390625 
L 4.890625 23.390625 
z
" id="DejaVuSans-45"/>
     <path d="M 64.40625 67.28125 
L 64.40625 56.890625 
Q 59.421875 61.53125 53.78125 63.8125 
Q 48.140625 66.109375 41.796875 66.109375 
Q 29.296875 66.109375 22.65625 58.46875 
Q 16.015625 50.828125 16.015625 36.375 
Q 16.015625 21.96875 22.65625 14.328125 
Q 29.296875 6.6875 41.796875 6.6875 
Q 48.140625 6.6875 53.78125 8.984375 
Q 59.421875 11.28125 64.40625 15.921875 
L 64.40625 5.609375 
Q 59.234375 2.09375 53.4375 0.328125 
Q 47.65625 -1.421875 41.21875 -1.421875 
Q 24.65625 -1.421875 15.125 8.703125 
Q 5.609375 18.84375 5.609375 36.375 
Q 5.609375 53.953125 15.125 64.078125 
Q 24.65625 74.21875 41.21875 74.21875 
Q 47.75 74.21875 53.53125 72.484375 
Q 59.328125 70.75 64.40625 67.28125 
z
" id="DejaVuSans-67"/>
     <path d="M 30.609375 48.390625 
Q 23.390625 48.390625 19.1875 42.75 
Q 14.984375 37.109375 14.984375 27.296875 
Q 14.984375 17.484375 19.15625 11.84375 
Q 23.34375 6.203125 30.609375 6.203125 
Q 37.796875 6.203125 41.984375 11.859375 
Q 46.1875 17.53125 46.1875 27.296875 
Q 46.1875 37.015625 41.984375 42.703125 
Q 37.796875 48.390625 30.609375 48.390625 
z
M 30.609375 56 
Q 42.328125 56 49.015625 48.375 
Q 55.71875 40.765625 55.71875 27.296875 
Q 55.71875 13.875 49.015625 6.21875 
Q 42.328125 -1.421875 30.609375 -1.421875 
Q 18.84375 -1.421875 12.171875 6.21875 
Q 5.515625 13.875 5.515625 27.296875 
Q 5.515625 40.765625 12.171875 48.375 
Q 18.84375 56 30.609375 56 
z
" id="DejaVuSans-111"/>
    </defs>
    <g style="fill:#262626;" transform="translate(199.252813 16.318125)scale(0.12 -0.12)">
     <use xlink:href="#DejaVuSans-83"/>
     <use x="63.476562" xlink:href="#DejaVuSans-97"/>
     <use x="124.755859" xlink:href="#DejaVuSans-114"/>
     <use x="165.869141" xlink:href="#DejaVuSans-115"/>
     <use x="217.96875" xlink:href="#DejaVuSans-45"/>
     <use x="254.052734" xlink:href="#DejaVuSans-67"/>
     <use x="323.876953" xlink:href="#DejaVuSans-111"/>
     <use x="385.058594" xlink:href="#DejaVuSans-118"/>
     <use x="444.207031" xlink:href="#DejaVuSans-45"/>
     <use x="480.291016" xlink:href="#DejaVuSans-50"/>
    </g>
   </g>
  </g>
 </g>
 <defs>
  <clipPath id="p49f2893c65">
   <rect height="266.112" width="357.12" x="53.328125" y="22.318125"/>
  </clipPath>
 </defs>
</svg>
