<?xml version="1.0" encoding="utf-8" standalone="no"?>
<!DOCTYPE svg PUBLIC "-//W3C//DTD SVG 1.1//EN"
  "http://www.w3.org/Graphics/SVG/1.1/DTD/svg11.dtd">
<!-- Created with matplotlib (https://matplotlib.org/) -->
<svg height="310.86825pt" version="1.1" viewBox="0 0 424.010625 310.86825" width="424.010625pt" xmlns="http://www.w3.org/2000/svg" xmlns:xlink="http://www.w3.org/1999/xlink">
 <defs>
  <style type="text/css">
*{stroke-linecap:butt;stroke-linejoin:round;white-space:pre;}
  </style>
 </defs>
 <g id="figure_1">
  <g id="patch_1">
   <path d="M 0 310.86825 
L 424.010625 310.86825 
L 424.010625 0 
L 0 0 
z
" style="fill:#ffffff;"/>
  </g>
  <g id="axes_1">
   <g id="patch_2">
    <path d="M 59.690625 273.312 
L 416.810625 273.312 
L 416.810625 7.2 
L 59.690625 7.2 
z
" style="fill:#ffffff;"/>
   </g>
   <g id="matplotlib.axis_1">
    <g id="xtick_1">
     <g id="line2d_1">
      <path clip-path="url(#p308119c155)" d="M 75.923352 273.312 
L 75.923352 7.2 
" style="fill:none;stroke:#cccccc;stroke-linecap:round;stroke-width:0.8;"/>
     </g>
     <g id="text_1">
      <!-- 0 -->
      <defs>
       <path d="M 31.78125 66.40625 
Q 24.171875 66.40625 20.328125 58.90625 
Q 16.5 51.421875 16.5 36.375 
Q 16.5 21.390625 20.328125 13.890625 
Q 24.171875 6.390625 31.78125 6.390625 
Q 39.453125 6.390625 43.28125 13.890625 
Q 47.125 21.390625 47.125 36.375 
Q 47.125 51.421875 43.28125 58.90625 
Q 39.453125 66.40625 31.78125 66.40625 
z
M 31.78125 74.21875 
Q 44.046875 74.21875 50.515625 64.515625 
Q 56.984375 54.828125 56.984375 36.375 
Q 56.984375 17.96875 50.515625 8.265625 
Q 44.046875 -1.421875 31.78125 -1.421875 
Q 19.53125 -1.421875 13.0625 8.265625 
Q 6.59375 17.96875 6.59375 36.375 
Q 6.59375 54.828125 13.0625 64.515625 
Q 19.53125 74.21875 31.78125 74.21875 
z
" id="DejaVuSans-48"/>
      </defs>
      <g style="fill:#262626;" transform="translate(72.742102 287.910437)scale(0.1 -0.1)">
       <use xlink:href="#DejaVuSans-48"/>
      </g>
     </g>
    </g>
    <g id="xtick_2">
     <g id="line2d_2">
      <path clip-path="url(#p308119c155)" d="M 116.606879 273.312 
L 116.606879 7.2 
" style="fill:none;stroke:#cccccc;stroke-linecap:round;stroke-width:0.8;"/>
     </g>
     <g id="text_2">
      <!-- 5 -->
      <defs>
       <path d="M 10.796875 72.90625 
L 49.515625 72.90625 
L 49.515625 64.59375 
L 19.828125 64.59375 
L 19.828125 46.734375 
Q 21.96875 47.46875 24.109375 47.828125 
Q 26.265625 48.1875 28.421875 48.1875 
Q 40.625 48.1875 47.75 41.5 
Q 54.890625 34.8125 54.890625 23.390625 
Q 54.890625 11.625 47.5625 5.09375 
Q 40.234375 -1.421875 26.90625 -1.421875 
Q 22.3125 -1.421875 17.546875 -0.640625 
Q 12.796875 0.140625 7.71875 1.703125 
L 7.71875 11.625 
Q 12.109375 9.234375 16.796875 8.0625 
Q 21.484375 6.890625 26.703125 6.890625 
Q 35.15625 6.890625 40.078125 11.328125 
Q 45.015625 15.765625 45.015625 23.390625 
Q 45.015625 31 40.078125 35.4375 
Q 35.15625 39.890625 26.703125 39.890625 
Q 22.75 39.890625 18.8125 39.015625 
Q 14.890625 38.140625 10.796875 36.28125 
z
" id="DejaVuSans-53"/>
      </defs>
      <g style="fill:#262626;" transform="translate(113.425629 287.910437)scale(0.1 -0.1)">
       <use xlink:href="#DejaVuSans-53"/>
      </g>
     </g>
    </g>
    <g id="xtick_3">
     <g id="line2d_3">
      <path clip-path="url(#p308119c155)" d="M 157.290406 273.312 
L 157.290406 7.2 
" style="fill:none;stroke:#cccccc;stroke-linecap:round;stroke-width:0.8;"/>
     </g>
     <g id="text_3">
      <!-- 10 -->
      <defs>
       <path d="M 12.40625 8.296875 
L 28.515625 8.296875 
L 28.515625 63.921875 
L 10.984375 60.40625 
L 10.984375 69.390625 
L 28.421875 72.90625 
L 38.28125 72.90625 
L 38.28125 8.296875 
L 54.390625 8.296875 
L 54.390625 0 
L 12.40625 0 
z
" id="DejaVuSans-49"/>
      </defs>
      <g style="fill:#262626;" transform="translate(150.927906 287.910437)scale(0.1 -0.1)">
       <use xlink:href="#DejaVuSans-49"/>
       <use x="63.623047" xlink:href="#DejaVuSans-48"/>
      </g>
     </g>
    </g>
    <g id="xtick_4">
     <g id="line2d_4">
      <path clip-path="url(#p308119c155)" d="M 197.973933 273.312 
L 197.973933 7.2 
" style="fill:none;stroke:#cccccc;stroke-linecap:round;stroke-width:0.8;"/>
     </g>
     <g id="text_4">
      <!-- 15 -->
      <g style="fill:#262626;" transform="translate(191.611433 287.910437)scale(0.1 -0.1)">
       <use xlink:href="#DejaVuSans-49"/>
       <use x="63.623047" xlink:href="#DejaVuSans-53"/>
      </g>
     </g>
    </g>
    <g id="xtick_5">
     <g id="line2d_5">
      <path clip-path="url(#p308119c155)" d="M 238.65746 273.312 
L 238.65746 7.2 
" style="fill:none;stroke:#cccccc;stroke-linecap:round;stroke-width:0.8;"/>
     </g>
     <g id="text_5">
      <!-- 20 -->
      <defs>
       <path d="M 19.1875 8.296875 
L 53.609375 8.296875 
L 53.609375 0 
L 7.328125 0 
L 7.328125 8.296875 
Q 12.9375 14.109375 22.625 23.890625 
Q 32.328125 33.6875 34.8125 36.53125 
Q 39.546875 41.84375 41.421875 45.53125 
Q 43.3125 49.21875 43.3125 52.78125 
Q 43.3125 58.59375 39.234375 62.25 
Q 35.15625 65.921875 28.609375 65.921875 
Q 23.96875 65.921875 18.8125 64.3125 
Q 13.671875 62.703125 7.8125 59.421875 
L 7.8125 69.390625 
Q 13.765625 71.78125 18.9375 73 
Q 24.125 74.21875 28.421875 74.21875 
Q 39.75 74.21875 46.484375 68.546875 
Q 53.21875 62.890625 53.21875 53.421875 
Q 53.21875 48.921875 51.53125 44.890625 
Q 49.859375 40.875 45.40625 35.40625 
Q 44.1875 33.984375 37.640625 27.21875 
Q 31.109375 20.453125 19.1875 8.296875 
z
" id="DejaVuSans-50"/>
      </defs>
      <g style="fill:#262626;" transform="translate(232.29496 287.910437)scale(0.1 -0.1)">
       <use xlink:href="#DejaVuSans-50"/>
       <use x="63.623047" xlink:href="#DejaVuSans-48"/>
      </g>
     </g>
    </g>
    <g id="xtick_6">
     <g id="line2d_6">
      <path clip-path="url(#p308119c155)" d="M 279.340987 273.312 
L 279.340987 7.2 
" style="fill:none;stroke:#cccccc;stroke-linecap:round;stroke-width:0.8;"/>
     </g>
     <g id="text_6">
      <!-- 25 -->
      <g style="fill:#262626;" transform="translate(272.978487 287.910437)scale(0.1 -0.1)">
       <use xlink:href="#DejaVuSans-50"/>
       <use x="63.623047" xlink:href="#DejaVuSans-53"/>
      </g>
     </g>
    </g>
    <g id="xtick_7">
     <g id="line2d_7">
      <path clip-path="url(#p308119c155)" d="M 320.024514 273.312 
L 320.024514 7.2 
" style="fill:none;stroke:#cccccc;stroke-linecap:round;stroke-width:0.8;"/>
     </g>
     <g id="text_7">
      <!-- 30 -->
      <defs>
       <path d="M 40.578125 39.3125 
Q 47.65625 37.796875 51.625 33 
Q 55.609375 28.21875 55.609375 21.1875 
Q 55.609375 10.40625 48.1875 4.484375 
Q 40.765625 -1.421875 27.09375 -1.421875 
Q 22.515625 -1.421875 17.65625 -0.515625 
Q 12.796875 0.390625 7.625 2.203125 
L 7.625 11.71875 
Q 11.71875 9.328125 16.59375 8.109375 
Q 21.484375 6.890625 26.8125 6.890625 
Q 36.078125 6.890625 40.9375 10.546875 
Q 45.796875 14.203125 45.796875 21.1875 
Q 45.796875 27.640625 41.28125 31.265625 
Q 36.765625 34.90625 28.71875 34.90625 
L 20.21875 34.90625 
L 20.21875 43.015625 
L 29.109375 43.015625 
Q 36.375 43.015625 40.234375 45.921875 
Q 44.09375 48.828125 44.09375 54.296875 
Q 44.09375 59.90625 40.109375 62.90625 
Q 36.140625 65.921875 28.71875 65.921875 
Q 24.65625 65.921875 20.015625 65.03125 
Q 15.375 64.15625 9.8125 62.3125 
L 9.8125 71.09375 
Q 15.4375 72.65625 20.34375 73.4375 
Q 25.25 74.21875 29.59375 74.21875 
Q 40.828125 74.21875 47.359375 69.109375 
Q 53.90625 64.015625 53.90625 55.328125 
Q 53.90625 49.265625 50.4375 45.09375 
Q 46.96875 40.921875 40.578125 39.3125 
z
" id="DejaVuSans-51"/>
      </defs>
      <g style="fill:#262626;" transform="translate(313.662014 287.910437)scale(0.1 -0.1)">
       <use xlink:href="#DejaVuSans-51"/>
       <use x="63.623047" xlink:href="#DejaVuSans-48"/>
      </g>
     </g>
    </g>
    <g id="xtick_8">
     <g id="line2d_8">
      <path clip-path="url(#p308119c155)" d="M 360.708041 273.312 
L 360.708041 7.2 
" style="fill:none;stroke:#cccccc;stroke-linecap:round;stroke-width:0.8;"/>
     </g>
     <g id="text_8">
      <!-- 35 -->
      <g style="fill:#262626;" transform="translate(354.345541 287.910437)scale(0.1 -0.1)">
       <use xlink:href="#DejaVuSans-51"/>
       <use x="63.623047" xlink:href="#DejaVuSans-53"/>
      </g>
     </g>
    </g>
    <g id="xtick_9">
     <g id="line2d_9">
      <path clip-path="url(#p308119c155)" d="M 401.391568 273.312 
L 401.391568 7.2 
" style="fill:none;stroke:#cccccc;stroke-linecap:round;stroke-width:0.8;"/>
     </g>
     <g id="text_9">
      <!-- 40 -->
      <defs>
       <path d="M 37.796875 64.3125 
L 12.890625 25.390625 
L 37.796875 25.390625 
z
M 35.203125 72.90625 
L 47.609375 72.90625 
L 47.609375 25.390625 
L 58.015625 25.390625 
L 58.015625 17.1875 
L 47.609375 17.1875 
L 47.609375 0 
L 37.796875 0 
L 37.796875 17.1875 
L 4.890625 17.1875 
L 4.890625 26.703125 
z
" id="DejaVuSans-52"/>
      </defs>
      <g style="fill:#262626;" transform="translate(395.029068 287.910437)scale(0.1 -0.1)">
       <use xlink:href="#DejaVuSans-52"/>
       <use x="63.623047" xlink:href="#DejaVuSans-48"/>
      </g>
     </g>
    </g>
    <g id="text_10">
     <!-- time (days) -->
     <defs>
      <path d="M 18.3125 70.21875 
L 18.3125 54.6875 
L 36.8125 54.6875 
L 36.8125 47.703125 
L 18.3125 47.703125 
L 18.3125 18.015625 
Q 18.3125 11.328125 20.140625 9.421875 
Q 21.96875 7.515625 27.59375 7.515625 
L 36.8125 7.515625 
L 36.8125 0 
L 27.59375 0 
Q 17.1875 0 13.234375 3.875 
Q 9.28125 7.765625 9.28125 18.015625 
L 9.28125 47.703125 
L 2.6875 47.703125 
L 2.6875 54.6875 
L 9.28125 54.6875 
L 9.28125 70.21875 
z
" id="DejaVuSans-116"/>
      <path d="M 9.421875 54.6875 
L 18.40625 54.6875 
L 18.40625 0 
L 9.421875 0 
z
M 9.421875 75.984375 
L 18.40625 75.984375 
L 18.40625 64.59375 
L 9.421875 64.59375 
z
" id="DejaVuSans-105"/>
      <path d="M 52 44.1875 
Q 55.375 50.25 60.0625 53.125 
Q 64.75 56 71.09375 56 
Q 79.640625 56 84.28125 50.015625 
Q 88.921875 44.046875 88.921875 33.015625 
L 88.921875 0 
L 79.890625 0 
L 79.890625 32.71875 
Q 79.890625 40.578125 77.09375 44.375 
Q 74.3125 48.1875 68.609375 48.1875 
Q 61.625 48.1875 57.5625 43.546875 
Q 53.515625 38.921875 53.515625 30.90625 
L 53.515625 0 
L 44.484375 0 
L 44.484375 32.71875 
Q 44.484375 40.625 41.703125 44.40625 
Q 38.921875 48.1875 33.109375 48.1875 
Q 26.21875 48.1875 22.15625 43.53125 
Q 18.109375 38.875 18.109375 30.90625 
L 18.109375 0 
L 9.078125 0 
L 9.078125 54.6875 
L 18.109375 54.6875 
L 18.109375 46.1875 
Q 21.1875 51.21875 25.484375 53.609375 
Q 29.78125 56 35.6875 56 
Q 41.65625 56 45.828125 52.96875 
Q 50 49.953125 52 44.1875 
z
" id="DejaVuSans-109"/>
      <path d="M 56.203125 29.59375 
L 56.203125 25.203125 
L 14.890625 25.203125 
Q 15.484375 15.921875 20.484375 11.0625 
Q 25.484375 6.203125 34.421875 6.203125 
Q 39.59375 6.203125 44.453125 7.46875 
Q 49.3125 8.734375 54.109375 11.28125 
L 54.109375 2.78125 
Q 49.265625 0.734375 44.1875 -0.34375 
Q 39.109375 -1.421875 33.890625 -1.421875 
Q 20.796875 -1.421875 13.15625 6.1875 
Q 5.515625 13.8125 5.515625 26.8125 
Q 5.515625 40.234375 12.765625 48.109375 
Q 20.015625 56 32.328125 56 
Q 43.359375 56 49.78125 48.890625 
Q 56.203125 41.796875 56.203125 29.59375 
z
M 47.21875 32.234375 
Q 47.125 39.59375 43.09375 43.984375 
Q 39.0625 48.390625 32.421875 48.390625 
Q 24.90625 48.390625 20.390625 44.140625 
Q 15.875 39.890625 15.1875 32.171875 
z
" id="DejaVuSans-101"/>
      <path id="DejaVuSans-32"/>
      <path d="M 31 75.875 
Q 24.46875 64.65625 21.28125 53.65625 
Q 18.109375 42.671875 18.109375 31.390625 
Q 18.109375 20.125 21.3125 9.0625 
Q 24.515625 -2 31 -13.1875 
L 23.1875 -13.1875 
Q 15.875 -1.703125 12.234375 9.375 
Q 8.59375 20.453125 8.59375 31.390625 
Q 8.59375 42.28125 12.203125 53.3125 
Q 15.828125 64.359375 23.1875 75.875 
z
" id="DejaVuSans-40"/>
      <path d="M 45.40625 46.390625 
L 45.40625 75.984375 
L 54.390625 75.984375 
L 54.390625 0 
L 45.40625 0 
L 45.40625 8.203125 
Q 42.578125 3.328125 38.25 0.953125 
Q 33.9375 -1.421875 27.875 -1.421875 
Q 17.96875 -1.421875 11.734375 6.484375 
Q 5.515625 14.40625 5.515625 27.296875 
Q 5.515625 40.1875 11.734375 48.09375 
Q 17.96875 56 27.875 56 
Q 33.9375 56 38.25 53.625 
Q 42.578125 51.265625 45.40625 46.390625 
z
M 14.796875 27.296875 
Q 14.796875 17.390625 18.875 11.75 
Q 22.953125 6.109375 30.078125 6.109375 
Q 37.203125 6.109375 41.296875 11.75 
Q 45.40625 17.390625 45.40625 27.296875 
Q 45.40625 37.203125 41.296875 42.84375 
Q 37.203125 48.484375 30.078125 48.484375 
Q 22.953125 48.484375 18.875 42.84375 
Q 14.796875 37.203125 14.796875 27.296875 
z
" id="DejaVuSans-100"/>
      <path d="M 34.28125 27.484375 
Q 23.390625 27.484375 19.1875 25 
Q 14.984375 22.515625 14.984375 16.5 
Q 14.984375 11.71875 18.140625 8.90625 
Q 21.296875 6.109375 26.703125 6.109375 
Q 34.1875 6.109375 38.703125 11.40625 
Q 43.21875 16.703125 43.21875 25.484375 
L 43.21875 27.484375 
z
M 52.203125 31.203125 
L 52.203125 0 
L 43.21875 0 
L 43.21875 8.296875 
Q 40.140625 3.328125 35.546875 0.953125 
Q 30.953125 -1.421875 24.3125 -1.421875 
Q 15.921875 -1.421875 10.953125 3.296875 
Q 6 8.015625 6 15.921875 
Q 6 25.140625 12.171875 29.828125 
Q 18.359375 34.515625 30.609375 34.515625 
L 43.21875 34.515625 
L 43.21875 35.40625 
Q 43.21875 41.609375 39.140625 45 
Q 35.0625 48.390625 27.6875 48.390625 
Q 23 48.390625 18.546875 47.265625 
Q 14.109375 46.140625 10.015625 43.890625 
L 10.015625 52.203125 
Q 14.9375 54.109375 19.578125 55.046875 
Q 24.21875 56 28.609375 56 
Q 40.484375 56 46.34375 49.84375 
Q 52.203125 43.703125 52.203125 31.203125 
z
" id="DejaVuSans-97"/>
      <path d="M 32.171875 -5.078125 
Q 28.375 -14.84375 24.75 -17.8125 
Q 21.140625 -20.796875 15.09375 -20.796875 
L 7.90625 -20.796875 
L 7.90625 -13.28125 
L 13.1875 -13.28125 
Q 16.890625 -13.28125 18.9375 -11.515625 
Q 21 -9.765625 23.484375 -3.21875 
L 25.09375 0.875 
L 2.984375 54.6875 
L 12.5 54.6875 
L 29.59375 11.921875 
L 46.6875 54.6875 
L 56.203125 54.6875 
z
" id="DejaVuSans-121"/>
      <path d="M 44.28125 53.078125 
L 44.28125 44.578125 
Q 40.484375 46.53125 36.375 47.5 
Q 32.28125 48.484375 27.875 48.484375 
Q 21.1875 48.484375 17.84375 46.4375 
Q 14.5 44.390625 14.5 40.28125 
Q 14.5 37.15625 16.890625 35.375 
Q 19.28125 33.59375 26.515625 31.984375 
L 29.59375 31.296875 
Q 39.15625 29.25 43.1875 25.515625 
Q 47.21875 21.78125 47.21875 15.09375 
Q 47.21875 7.46875 41.1875 3.015625 
Q 35.15625 -1.421875 24.609375 -1.421875 
Q 20.21875 -1.421875 15.453125 -0.5625 
Q 10.6875 0.296875 5.421875 2 
L 5.421875 11.28125 
Q 10.40625 8.6875 15.234375 7.390625 
Q 20.0625 6.109375 24.8125 6.109375 
Q 31.15625 6.109375 34.5625 8.28125 
Q 37.984375 10.453125 37.984375 14.40625 
Q 37.984375 18.0625 35.515625 20.015625 
Q 33.0625 21.96875 24.703125 23.78125 
L 21.578125 24.515625 
Q 13.234375 26.265625 9.515625 29.90625 
Q 5.8125 33.546875 5.8125 39.890625 
Q 5.8125 47.609375 11.28125 51.796875 
Q 16.75 56 26.8125 56 
Q 31.78125 56 36.171875 55.265625 
Q 40.578125 54.546875 44.28125 53.078125 
z
" id="DejaVuSans-115"/>
      <path d="M 8.015625 75.875 
L 15.828125 75.875 
Q 23.140625 64.359375 26.78125 53.3125 
Q 30.421875 42.28125 30.421875 31.390625 
Q 30.421875 20.453125 26.78125 9.375 
Q 23.140625 -1.703125 15.828125 -13.1875 
L 8.015625 -13.1875 
Q 14.5 -2 17.703125 9.0625 
Q 20.90625 20.125 20.90625 31.390625 
Q 20.90625 42.671875 17.703125 53.65625 
Q 14.5 64.65625 8.015625 75.875 
z
" id="DejaVuSans-41"/>
     </defs>
     <g style="fill:#262626;" transform="translate(209.661563 301.588562)scale(0.1 -0.1)">
      <use xlink:href="#DejaVuSans-116"/>
      <use x="39.208984" xlink:href="#DejaVuSans-105"/>
      <use x="66.992188" xlink:href="#DejaVuSans-109"/>
      <use x="164.404297" xlink:href="#DejaVuSans-101"/>
      <use x="225.927734" xlink:href="#DejaVuSans-32"/>
      <use x="257.714844" xlink:href="#DejaVuSans-40"/>
      <use x="296.728516" xlink:href="#DejaVuSans-100"/>
      <use x="360.205078" xlink:href="#DejaVuSans-97"/>
      <use x="421.484375" xlink:href="#DejaVuSans-121"/>
      <use x="480.664062" xlink:href="#DejaVuSans-115"/>
      <use x="532.763672" xlink:href="#DejaVuSans-41"/>
     </g>
    </g>
   </g>
   <g id="matplotlib.axis_2">
    <g id="ytick_1">
     <g id="line2d_10">
      <path clip-path="url(#p308119c155)" d="M 59.690625 261.216 
L 416.810625 261.216 
" style="fill:none;stroke:#cccccc;stroke-linecap:round;stroke-width:0.8;"/>
     </g>
     <g id="text_11">
      <!-- 0 -->
      <g style="fill:#262626;" transform="translate(46.328125 265.015219)scale(0.1 -0.1)">
       <use xlink:href="#DejaVuSans-48"/>
      </g>
     </g>
    </g>
    <g id="ytick_2">
     <g id="line2d_11">
      <path clip-path="url(#p308119c155)" d="M 59.690625 221.869818 
L 416.810625 221.869818 
" style="fill:none;stroke:#cccccc;stroke-linecap:round;stroke-width:0.8;"/>
     </g>
     <g id="text_12">
      <!-- 2000 -->
      <g style="fill:#262626;" transform="translate(27.240625 225.669037)scale(0.1 -0.1)">
       <use xlink:href="#DejaVuSans-50"/>
       <use x="63.623047" xlink:href="#DejaVuSans-48"/>
       <use x="127.246094" xlink:href="#DejaVuSans-48"/>
       <use x="190.869141" xlink:href="#DejaVuSans-48"/>
      </g>
     </g>
    </g>
    <g id="ytick_3">
     <g id="line2d_12">
      <path clip-path="url(#p308119c155)" d="M 59.690625 182.523636 
L 416.810625 182.523636 
" style="fill:none;stroke:#cccccc;stroke-linecap:round;stroke-width:0.8;"/>
     </g>
     <g id="text_13">
      <!-- 4000 -->
      <g style="fill:#262626;" transform="translate(27.240625 186.322855)scale(0.1 -0.1)">
       <use xlink:href="#DejaVuSans-52"/>
       <use x="63.623047" xlink:href="#DejaVuSans-48"/>
       <use x="127.246094" xlink:href="#DejaVuSans-48"/>
       <use x="190.869141" xlink:href="#DejaVuSans-48"/>
      </g>
     </g>
    </g>
    <g id="ytick_4">
     <g id="line2d_13">
      <path clip-path="url(#p308119c155)" d="M 59.690625 143.177454 
L 416.810625 143.177454 
" style="fill:none;stroke:#cccccc;stroke-linecap:round;stroke-width:0.8;"/>
     </g>
     <g id="text_14">
      <!-- 6000 -->
      <defs>
       <path d="M 33.015625 40.375 
Q 26.375 40.375 22.484375 35.828125 
Q 18.609375 31.296875 18.609375 23.390625 
Q 18.609375 15.53125 22.484375 10.953125 
Q 26.375 6.390625 33.015625 6.390625 
Q 39.65625 6.390625 43.53125 10.953125 
Q 47.40625 15.53125 47.40625 23.390625 
Q 47.40625 31.296875 43.53125 35.828125 
Q 39.65625 40.375 33.015625 40.375 
z
M 52.59375 71.296875 
L 52.59375 62.3125 
Q 48.875 64.0625 45.09375 64.984375 
Q 41.3125 65.921875 37.59375 65.921875 
Q 27.828125 65.921875 22.671875 59.328125 
Q 17.53125 52.734375 16.796875 39.40625 
Q 19.671875 43.65625 24.015625 45.921875 
Q 28.375 48.1875 33.59375 48.1875 
Q 44.578125 48.1875 50.953125 41.515625 
Q 57.328125 34.859375 57.328125 23.390625 
Q 57.328125 12.15625 50.6875 5.359375 
Q 44.046875 -1.421875 33.015625 -1.421875 
Q 20.359375 -1.421875 13.671875 8.265625 
Q 6.984375 17.96875 6.984375 36.375 
Q 6.984375 53.65625 15.1875 63.9375 
Q 23.390625 74.21875 37.203125 74.21875 
Q 40.921875 74.21875 44.703125 73.484375 
Q 48.484375 72.75 52.59375 71.296875 
z
" id="DejaVuSans-54"/>
      </defs>
      <g style="fill:#262626;" transform="translate(27.240625 146.976673)scale(0.1 -0.1)">
       <use xlink:href="#DejaVuSans-54"/>
       <use x="63.623047" xlink:href="#DejaVuSans-48"/>
       <use x="127.246094" xlink:href="#DejaVuSans-48"/>
       <use x="190.869141" xlink:href="#DejaVuSans-48"/>
      </g>
     </g>
    </g>
    <g id="ytick_5">
     <g id="line2d_14">
      <path clip-path="url(#p308119c155)" d="M 59.690625 103.831272 
L 416.810625 103.831272 
" style="fill:none;stroke:#cccccc;stroke-linecap:round;stroke-width:0.8;"/>
     </g>
     <g id="text_15">
      <!-- 8000 -->
      <defs>
       <path d="M 31.78125 34.625 
Q 24.75 34.625 20.71875 30.859375 
Q 16.703125 27.09375 16.703125 20.515625 
Q 16.703125 13.921875 20.71875 10.15625 
Q 24.75 6.390625 31.78125 6.390625 
Q 38.8125 6.390625 42.859375 10.171875 
Q 46.921875 13.96875 46.921875 20.515625 
Q 46.921875 27.09375 42.890625 30.859375 
Q 38.875 34.625 31.78125 34.625 
z
M 21.921875 38.8125 
Q 15.578125 40.375 12.03125 44.71875 
Q 8.5 49.078125 8.5 55.328125 
Q 8.5 64.0625 14.71875 69.140625 
Q 20.953125 74.21875 31.78125 74.21875 
Q 42.671875 74.21875 48.875 69.140625 
Q 55.078125 64.0625 55.078125 55.328125 
Q 55.078125 49.078125 51.53125 44.71875 
Q 48 40.375 41.703125 38.8125 
Q 48.828125 37.15625 52.796875 32.3125 
Q 56.78125 27.484375 56.78125 20.515625 
Q 56.78125 9.90625 50.3125 4.234375 
Q 43.84375 -1.421875 31.78125 -1.421875 
Q 19.734375 -1.421875 13.25 4.234375 
Q 6.78125 9.90625 6.78125 20.515625 
Q 6.78125 27.484375 10.78125 32.3125 
Q 14.796875 37.15625 21.921875 38.8125 
z
M 18.3125 54.390625 
Q 18.3125 48.734375 21.84375 45.5625 
Q 25.390625 42.390625 31.78125 42.390625 
Q 38.140625 42.390625 41.71875 45.5625 
Q 45.3125 48.734375 45.3125 54.390625 
Q 45.3125 60.0625 41.71875 63.234375 
Q 38.140625 66.40625 31.78125 66.40625 
Q 25.390625 66.40625 21.84375 63.234375 
Q 18.3125 60.0625 18.3125 54.390625 
z
" id="DejaVuSans-56"/>
      </defs>
      <g style="fill:#262626;" transform="translate(27.240625 107.630491)scale(0.1 -0.1)">
       <use xlink:href="#DejaVuSans-56"/>
       <use x="63.623047" xlink:href="#DejaVuSans-48"/>
       <use x="127.246094" xlink:href="#DejaVuSans-48"/>
       <use x="190.869141" xlink:href="#DejaVuSans-48"/>
      </g>
     </g>
    </g>
    <g id="ytick_6">
     <g id="line2d_15">
      <path clip-path="url(#p308119c155)" d="M 59.690625 64.48509 
L 416.810625 64.48509 
" style="fill:none;stroke:#cccccc;stroke-linecap:round;stroke-width:0.8;"/>
     </g>
     <g id="text_16">
      <!-- 10000 -->
      <g style="fill:#262626;" transform="translate(20.878125 68.284309)scale(0.1 -0.1)">
       <use xlink:href="#DejaVuSans-49"/>
       <use x="63.623047" xlink:href="#DejaVuSans-48"/>
       <use x="127.246094" xlink:href="#DejaVuSans-48"/>
       <use x="190.869141" xlink:href="#DejaVuSans-48"/>
       <use x="254.492188" xlink:href="#DejaVuSans-48"/>
      </g>
     </g>
    </g>
    <g id="ytick_7">
     <g id="line2d_16">
      <path clip-path="url(#p308119c155)" d="M 59.690625 25.138908 
L 416.810625 25.138908 
" style="fill:none;stroke:#cccccc;stroke-linecap:round;stroke-width:0.8;"/>
     </g>
     <g id="text_17">
      <!-- 12000 -->
      <g style="fill:#262626;" transform="translate(20.878125 28.938127)scale(0.1 -0.1)">
       <use xlink:href="#DejaVuSans-49"/>
       <use x="63.623047" xlink:href="#DejaVuSans-50"/>
       <use x="127.246094" xlink:href="#DejaVuSans-48"/>
       <use x="190.869141" xlink:href="#DejaVuSans-48"/>
       <use x="254.492188" xlink:href="#DejaVuSans-48"/>
      </g>
     </g>
    </g>
    <g id="text_18">
     <!-- cells number -->
     <defs>
      <path d="M 48.78125 52.59375 
L 48.78125 44.1875 
Q 44.96875 46.296875 41.140625 47.34375 
Q 37.3125 48.390625 33.40625 48.390625 
Q 24.65625 48.390625 19.8125 42.84375 
Q 14.984375 37.3125 14.984375 27.296875 
Q 14.984375 17.28125 19.8125 11.734375 
Q 24.65625 6.203125 33.40625 6.203125 
Q 37.3125 6.203125 41.140625 7.25 
Q 44.96875 8.296875 48.78125 10.40625 
L 48.78125 2.09375 
Q 45.015625 0.34375 40.984375 -0.53125 
Q 36.96875 -1.421875 32.421875 -1.421875 
Q 20.0625 -1.421875 12.78125 6.34375 
Q 5.515625 14.109375 5.515625 27.296875 
Q 5.515625 40.671875 12.859375 48.328125 
Q 20.21875 56 33.015625 56 
Q 37.15625 56 41.109375 55.140625 
Q 45.0625 54.296875 48.78125 52.59375 
z
" id="DejaVuSans-99"/>
      <path d="M 9.421875 75.984375 
L 18.40625 75.984375 
L 18.40625 0 
L 9.421875 0 
z
" id="DejaVuSans-108"/>
      <path d="M 54.890625 33.015625 
L 54.890625 0 
L 45.90625 0 
L 45.90625 32.71875 
Q 45.90625 40.484375 42.875 44.328125 
Q 39.84375 48.1875 33.796875 48.1875 
Q 26.515625 48.1875 22.3125 43.546875 
Q 18.109375 38.921875 18.109375 30.90625 
L 18.109375 0 
L 9.078125 0 
L 9.078125 54.6875 
L 18.109375 54.6875 
L 18.109375 46.1875 
Q 21.34375 51.125 25.703125 53.5625 
Q 30.078125 56 35.796875 56 
Q 45.21875 56 50.046875 50.171875 
Q 54.890625 44.34375 54.890625 33.015625 
z
" id="DejaVuSans-110"/>
      <path d="M 8.5 21.578125 
L 8.5 54.6875 
L 17.484375 54.6875 
L 17.484375 21.921875 
Q 17.484375 14.15625 20.5 10.265625 
Q 23.53125 6.390625 29.59375 6.390625 
Q 36.859375 6.390625 41.078125 11.03125 
Q 45.3125 15.671875 45.3125 23.6875 
L 45.3125 54.6875 
L 54.296875 54.6875 
L 54.296875 0 
L 45.3125 0 
L 45.3125 8.40625 
Q 42.046875 3.421875 37.71875 1 
Q 33.40625 -1.421875 27.6875 -1.421875 
Q 18.265625 -1.421875 13.375 4.4375 
Q 8.5 10.296875 8.5 21.578125 
z
M 31.109375 56 
z
" id="DejaVuSans-117"/>
      <path d="M 48.6875 27.296875 
Q 48.6875 37.203125 44.609375 42.84375 
Q 40.53125 48.484375 33.40625 48.484375 
Q 26.265625 48.484375 22.1875 42.84375 
Q 18.109375 37.203125 18.109375 27.296875 
Q 18.109375 17.390625 22.1875 11.75 
Q 26.265625 6.109375 33.40625 6.109375 
Q 40.53125 6.109375 44.609375 11.75 
Q 48.6875 17.390625 48.6875 27.296875 
z
M 18.109375 46.390625 
Q 20.953125 51.265625 25.265625 53.625 
Q 29.59375 56 35.59375 56 
Q 45.5625 56 51.78125 48.09375 
Q 58.015625 40.1875 58.015625 27.296875 
Q 58.015625 14.40625 51.78125 6.484375 
Q 45.5625 -1.421875 35.59375 -1.421875 
Q 29.59375 -1.421875 25.265625 0.953125 
Q 20.953125 3.328125 18.109375 8.203125 
L 18.109375 0 
L 9.078125 0 
L 9.078125 75.984375 
L 18.109375 75.984375 
z
" id="DejaVuSans-98"/>
      <path d="M 41.109375 46.296875 
Q 39.59375 47.171875 37.8125 47.578125 
Q 36.03125 48 33.890625 48 
Q 26.265625 48 22.1875 43.046875 
Q 18.109375 38.09375 18.109375 28.8125 
L 18.109375 0 
L 9.078125 0 
L 9.078125 54.6875 
L 18.109375 54.6875 
L 18.109375 46.1875 
Q 20.953125 51.171875 25.484375 53.578125 
Q 30.03125 56 36.53125 56 
Q 37.453125 56 38.578125 55.875 
Q 39.703125 55.765625 41.0625 55.515625 
z
" id="DejaVuSans-114"/>
     </defs>
     <g style="fill:#262626;" transform="translate(14.798438 172.567719)rotate(-90)scale(0.1 -0.1)">
      <use xlink:href="#DejaVuSans-99"/>
      <use x="54.980469" xlink:href="#DejaVuSans-101"/>
      <use x="116.503906" xlink:href="#DejaVuSans-108"/>
      <use x="144.287109" xlink:href="#DejaVuSans-108"/>
      <use x="172.070312" xlink:href="#DejaVuSans-115"/>
      <use x="224.169922" xlink:href="#DejaVuSans-32"/>
      <use x="255.957031" xlink:href="#DejaVuSans-110"/>
      <use x="319.335938" xlink:href="#DejaVuSans-117"/>
      <use x="382.714844" xlink:href="#DejaVuSans-109"/>
      <use x="480.126953" xlink:href="#DejaVuSans-98"/>
      <use x="543.603516" xlink:href="#DejaVuSans-101"/>
      <use x="605.126953" xlink:href="#DejaVuSans-114"/>
     </g>
    </g>
   </g>
   <g id="line2d_17">
    <path clip-path="url(#p308119c155)" d="M 75.923352 261.196327 
L 76.737023 261.117635 
L 77.550693 260.763519 
L 78.364364 260.212672 
L 79.991705 258.107652 
L 80.805376 256.671516 
L 81.619046 255.471457 
L 84.060058 250.3958 
L 92.196763 229.404612 
L 93.010434 226.807764 
L 95.451445 220.020547 
L 96.265116 217.482719 
L 97.078786 215.318679 
L 98.706127 210.30204 
L 100.333468 206.190364 
L 101.147139 203.337766 
L 106.842833 187.32387 
L 107.656503 184.786041 
L 109.283844 180.32025 
L 110.097515 178.097191 
L 111.724856 173.060879 
L 112.538527 171.152589 
L 114.165868 165.919547 
L 114.979538 163.991584 
L 115.793209 161.158659 
L 116.606879 159.329062 
L 119.047891 152.345114 
L 121.488903 146.71861 
L 122.302573 144.436532 
L 123.116244 142.7053 
L 124.743585 138.593624 
L 126.370926 134.481948 
L 128.811937 127.281596 
L 130.439278 123.150247 
L 131.252949 121.615746 
L 134.507631 113.274356 
L 136.948643 107.824909 
L 138.575984 103.69356 
L 140.203325 99.837635 
L 142.644337 94.624265 
L 143.458007 92.460225 
L 144.271678 90.788013 
L 145.899019 86.597644 
L 149.967371 77.410311 
L 150.781042 75.502021 
L 151.594712 73.908501 
L 154.035724 67.73115 
L 156.476736 62.596473 
L 157.290406 61.23903 
L 158.917747 58.032316 
L 159.731418 56.733892 
L 161.358759 53.841948 
L 162.17243 52.661562 
L 162.9861 51.677908 
L 163.799771 50.477849 
L 164.613441 48.726944 
L 165.427112 47.664597 
L 167.054453 44.792326 
L 167.868123 43.848018 
L 168.681794 42.372536 
L 171.122805 39.008437 
L 171.936476 37.591975 
L 172.750147 36.470608 
L 173.563817 35.0148 
L 174.377488 34.011472 
L 175.191158 33.342587 
L 176.818499 31.473643 
L 177.63217 30.785085 
L 178.44584 29.644046 
L 180.886852 27.460333 
L 181.700522 27.204583 
L 182.514193 26.535697 
L 184.141534 26.004524 
L 185.768875 25.197927 
L 187.396216 25.040543 
L 189.023557 24.351984 
L 189.837228 24.332311 
L 190.650898 24.509369 
L 193.09191 24.096234 
L 193.905581 24.273292 
L 195.532922 24.312638 
L 196.346592 24.509369 
L 197.160263 24.824139 
L 199.601274 25.099562 
L 200.414945 25.237273 
L 201.228615 25.611062 
L 202.042286 25.768447 
L 204.483298 26.673409 
L 209.365321 29.742411 
L 210.178991 30.352277 
L 210.992662 30.706393 
L 213.433674 32.752394 
L 215.061015 33.637683 
L 217.502026 35.545973 
L 218.315697 36.332897 
L 219.943038 37.532955 
L 220.756708 38.536283 
L 223.19772 40.36588 
L 224.011391 41.172477 
L 225.638732 42.549594 
L 227.266073 43.966056 
L 229.707084 45.795654 
L 231.334425 47.487539 
L 232.148096 48.176098 
L 232.961766 49.02204 
L 233.775437 49.513868 
L 234.589108 50.595888 
L 236.216449 52.268101 
L 237.030119 53.291101 
L 237.84379 53.841948 
L 239.471131 55.691218 
L 240.284801 56.615854 
L 241.098472 57.186373 
L 243.539484 59.507798 
L 244.353154 60.255375 
L 245.166825 61.160338 
L 250.048848 65.429398 
L 252.489859 67.495073 
L 258.185553 72.8855 
L 261.440235 75.56104 
L 265.508588 79.751409 
L 267.135929 81.089179 
L 272.017952 85.377913 
L 272.831623 85.86974 
L 273.645293 86.558298 
L 274.458964 87.404241 
L 275.272635 88.014107 
L 276.086305 88.820704 
L 276.899976 89.214165 
L 279.340987 91.161801 
L 283.40934 94.132438 
L 287.477693 97.476864 
L 289.105034 98.59823 
L 289.918704 99.4245 
L 296.428069 104.382119 
L 297.241739 105.208388 
L 298.05541 105.719889 
L 299.682751 107.037986 
L 300.496421 107.569159 
L 301.310092 108.297064 
L 302.937433 109.241372 
L 303.751103 109.910257 
L 307.005786 111.818547 
L 307.819456 112.40874 
L 309.446797 113.333375 
L 311.074138 114.651472 
L 313.51515 116.363031 
L 319.210844 120.297649 
L 321.651855 121.635419 
L 322.465526 122.363324 
L 325.720208 124.625729 
L 326.533879 124.960172 
L 328.16122 126.081538 
L 330.602231 128.048847 
L 332.229572 128.953809 
L 333.043243 129.66204 
L 335.484255 131.157195 
L 336.297925 131.767061 
L 337.925266 132.691697 
L 338.738937 133.360582 
L 339.552607 133.695024 
L 341.179948 134.836063 
L 343.62096 136.075468 
L 344.43463 136.685334 
L 347.689313 138.534605 
L 349.316654 139.655971 
L 350.130324 140.108452 
L 352.571336 142.13478 
L 355.012347 143.138108 
L 357.453359 144.141435 
L 358.26703 144.810321 
L 359.0807 145.302148 
L 359.894371 145.656263 
L 361.521712 146.71861 
L 362.335382 147.328476 
L 363.962723 148.076054 
L 364.776394 148.744939 
L 365.590065 149.020362 
L 367.217406 149.984343 
L 368.031076 150.318786 
L 371.285758 152.345114 
L 372.913099 153.112365 
L 373.72677 153.643538 
L 379.422464 156.358425 
L 380.236134 156.791233 
L 381.049805 157.361753 
L 385.931828 159.879908 
L 386.745499 160.430755 
L 388.37284 161.09964 
L 389.18651 161.532448 
L 390.000181 161.689833 
L 393.254863 163.224334 
L 394.882204 164.070277 
L 396.509545 164.758835 
L 398.950557 166.116278 
L 400.577898 166.824509 
L 400.577898 166.824509 
" style="fill:none;stroke:#000080;stroke-linecap:round;stroke-width:1.5;"/>
   </g>
   <g id="line2d_18">
    <path clip-path="url(#p308119c155)" d="M 75.923352 261.196327 
L 76.737023 261.038942 
L 77.550693 260.684827 
L 78.364364 260.153653 
L 79.178034 259.209345 
L 79.991705 257.910921 
L 80.805376 256.868247 
L 82.432717 254.035322 
L 86.501069 243.824988 
L 90.569422 233.378576 
L 92.196763 227.948803 
L 93.824104 223.738762 
L 95.451445 218.977874 
L 96.265116 216.577757 
L 97.078786 213.803851 
L 97.892457 211.502099 
L 98.706127 208.728193 
L 99.519798 206.505134 
L 100.333468 204.69521 
L 101.147139 202.590189 
L 101.96081 200.072033 
L 102.77448 198.104724 
L 104.401821 193.501221 
L 106.029162 189.035429 
L 106.842833 186.438581 
L 108.470174 181.894097 
L 110.911185 175.264265 
L 112.538527 171.309974 
L 114.165868 166.293336 
L 115.793209 162.161987 
L 116.606879 160.293043 
L 119.861561 151.538518 
L 121.488903 147.643246 
L 122.302573 145.046398 
L 123.116244 142.96105 
L 124.743585 138.278854 
L 125.557255 136.527949 
L 129.625608 126.199576 
L 130.439278 124.743768 
L 131.252949 122.737112 
L 133.693961 115.831858 
L 134.507631 113.864548 
L 135.321302 112.271028 
L 136.134972 109.811892 
L 136.948643 107.785563 
L 138.575984 104.539503 
L 140.203325 100.624558 
L 144.271678 91.633956 
L 145.085348 89.155146 
L 147.52636 83.1942 
L 149.153701 79.849774 
L 149.967371 77.7841 
L 150.781042 76.13156 
L 153.222054 70.564075 
L 154.849395 67.199977 
L 155.663065 66.07861 
L 158.917747 58.996298 
L 160.545088 55.632199 
L 161.358759 53.861621 
L 162.17243 52.504178 
L 163.799771 50.576215 
L 165.427112 48.136751 
L 168.681794 42.372536 
L 171.122805 38.713341 
L 171.936476 37.277205 
L 173.563817 35.821396 
L 175.191158 33.499972 
L 176.004829 32.319586 
L 178.44584 29.722738 
L 180.073181 28.424314 
L 181.700522 27.598044 
L 182.514193 26.889813 
L 185.768875 25.197927 
L 186.582546 25.335639 
L 188.209887 24.489696 
L 189.023557 24.1946 
L 189.837228 23.742119 
L 190.650898 23.899503 
L 191.464569 23.663426 
L 192.278239 23.722445 
L 193.09191 23.486368 
L 193.905581 23.486368 
L 194.719251 23.210945 
L 195.532922 23.132253 
L 196.346592 23.191272 
L 197.160263 23.486368 
L 198.787604 23.525715 
L 199.601274 23.269964 
L 200.414945 23.840484 
L 202.042286 24.607735 
L 202.855957 25.099562 
L 205.296968 26.083216 
L 206.110639 26.634063 
L 206.924309 27.558698 
L 209.365321 29.152219 
L 211.806332 30.6277 
L 212.620003 31.45397 
L 213.433674 31.847432 
L 215.874685 33.657356 
L 217.502026 35.27055 
L 219.129367 36.273878 
L 219.943038 37.17884 
L 220.756708 37.749359 
L 221.570379 38.457591 
L 222.384049 38.988764 
L 224.825061 41.172477 
L 225.638732 41.76267 
L 228.079743 44.221806 
L 228.893414 45.126768 
L 231.334425 47.212116 
L 232.148096 48.097405 
L 233.775437 49.494195 
L 235.402778 51.146734 
L 237.030119 52.405812 
L 237.84379 53.389467 
L 239.471131 54.589525 
L 240.284801 55.179718 
L 241.912142 56.792911 
L 242.725813 57.442123 
L 244.353154 59.212702 
L 246.794166 61.23903 
L 250.862518 65.153975 
L 254.117201 68.675458 
L 254.930871 69.344343 
L 255.744542 70.170613 
L 256.558212 70.760806 
L 258.185553 72.334653 
L 258.999224 72.983865 
L 263.067576 77.095541 
L 263.881247 77.646388 
L 265.508588 78.925139 
L 267.135929 80.184217 
L 267.9496 80.97114 
L 268.76327 81.482641 
L 269.576941 82.171199 
L 272.831623 85.456605 
L 276.899976 88.879723 
L 277.713646 89.37155 
L 278.527317 90.178147 
L 280.154658 91.201148 
L 281.781999 92.460225 
L 282.595669 92.952053 
L 283.40934 93.660284 
L 284.223011 94.565246 
L 285.036681 95.076747 
L 285.850352 95.824324 
L 286.664022 96.355497 
L 287.477693 97.240787 
L 289.918704 99.031038 
L 293.987057 102.35579 
L 294.800728 102.67056 
L 297.241739 105.070677 
L 299.682751 106.467466 
L 300.496421 107.097005 
L 301.310092 107.549486 
L 306.192115 111.129989 
L 307.005786 111.936586 
L 311.887809 115.221992 
L 312.701479 115.969569 
L 313.51515 116.42205 
L 322.465526 122.835478 
L 329.788561 127.30127 
L 330.602231 127.970155 
L 332.229572 128.953809 
L 334.670584 130.370272 
L 337.111596 131.727715 
L 340.366278 133.813063 
L 341.179948 134.521294 
L 341.993619 134.993448 
L 342.807289 135.622987 
L 344.43463 136.567295 
L 347.689313 138.573951 
L 348.502983 138.947739 
L 350.130324 140.029759 
L 357.453359 144.318493 
L 359.0807 145.400513 
L 359.894371 145.754629 
L 362.335382 147.269457 
L 363.149053 147.584226 
L 368.031076 150.318786 
L 369.658417 151.263094 
L 376.167782 154.646866 
L 380.236134 156.594502 
L 383.490816 158.345407 
L 385.118157 158.974946 
L 390.000181 161.237352 
L 391.627522 161.847217 
L 392.441192 162.339045 
L 393.254863 162.575122 
L 395.695874 163.814526 
L 397.323216 164.542431 
L 398.136886 165.053931 
L 398.950557 165.309681 
L 400.577898 166.234317 
L 400.577898 166.234317 
" style="fill:none;stroke:#0000f1;stroke-linecap:round;stroke-width:1.5;"/>
   </g>
   <g id="line2d_19">
    <path clip-path="url(#p308119c155)" d="M 75.923352 261.216 
L 76.737023 261.137308 
L 77.550693 260.724173 
L 79.178034 259.248691 
L 80.805376 257.123997 
L 81.619046 255.766554 
L 85.687399 246.953009 
L 86.501069 245.24145 
L 87.31474 242.959372 
L 88.942081 239.083773 
L 90.569422 234.086808 
L 93.824104 225.292936 
L 95.451445 220.92551 
L 97.892457 213.60712 
L 98.706127 211.718503 
L 103.588151 198.281782 
L 105.215492 192.970047 
L 106.029162 190.924046 
L 108.470174 183.900752 
L 110.097515 179.552999 
L 110.911185 177.664383 
L 112.538527 172.785456 
L 118.23422 156.574829 
L 119.861561 152.69923 
L 123.929914 141.642953 
L 124.743585 139.97074 
L 132.06662 121.871496 
L 132.88029 120.376342 
L 134.507631 115.851531 
L 135.321302 113.510433 
L 136.134972 111.818547 
L 137.762313 107.51014 
L 138.575984 105.444465 
L 139.389654 103.732907 
L 140.203325 101.313116 
L 141.016995 99.503192 
L 142.644337 95.489881 
L 143.458007 93.679957 
L 145.085348 89.469916 
L 147.52636 83.823738 
L 149.153701 80.046505 
L 150.781042 76.170906 
L 151.594712 74.636405 
L 152.408383 72.708442 
L 155.663065 66.157303 
L 157.290406 63.40307 
L 158.104077 61.75053 
L 158.917747 59.625837 
L 162.17243 52.877966 
L 162.9861 51.815619 
L 167.054453 44.930038 
L 167.868123 43.985729 
L 169.495464 41.565939 
L 171.936476 39.126476 
L 172.750147 37.631321 
L 173.563817 36.529628 
L 174.377488 35.860743 
L 175.191158 35.034473 
L 176.004829 33.657356 
L 176.818499 32.673702 
L 177.63217 32.162202 
L 179.259511 30.450643 
L 180.073181 29.86045 
L 180.886852 28.955488 
L 181.700522 28.581699 
L 182.514193 27.814448 
L 184.141534 27.12589 
L 185.768875 25.965178 
L 186.582546 26.024197 
L 188.209887 25.78812 
L 190.650898 25.473351 
L 191.464569 25.335639 
L 193.09191 25.197927 
L 193.905581 24.824139 
L 194.719251 25.079889 
L 195.532922 25.197927 
L 196.346592 25.138908 
L 197.160263 25.374985 
L 197.973933 25.355312 
L 198.787604 25.709428 
L 199.601274 25.906159 
L 200.414945 25.965178 
L 201.228615 26.417659 
L 202.042286 26.634063 
L 202.855957 27.204583 
L 203.669627 27.637391 
L 204.483298 27.775102 
L 207.73798 29.742411 
L 209.365321 31.158874 
L 210.178991 31.316259 
L 210.992662 31.985144 
L 211.806332 32.457298 
L 212.620003 33.322914 
L 213.433674 33.736049 
L 215.061015 34.936107 
L 219.943038 39.441245 
L 221.570379 40.621631 
L 223.19772 42.116786 
L 224.011391 42.470901 
L 224.825061 43.10044 
L 226.452402 44.75298 
L 228.079743 46.071077 
L 232.148096 49.749945 
L 233.775437 51.304119 
L 234.589108 51.913985 
L 237.84379 55.061679 
L 239.471131 56.851931 
L 241.098472 58.406105 
L 241.912142 59.094663 
L 245.166825 62.399742 
L 245.980495 63.166993 
L 246.794166 64.130974 
L 248.421507 65.488418 
L 249.235177 66.472072 
L 250.862518 67.9869 
L 251.676189 68.695131 
L 252.489859 69.698459 
L 253.30353 70.367344 
L 254.117201 71.29198 
L 255.744542 72.806808 
L 258.185553 75.30529 
L 258.999224 76.013521 
L 259.812894 76.525022 
L 260.626565 77.429984 
L 263.881247 80.20389 
L 266.322259 82.033487 
L 268.76327 84.630335 
L 270.390611 85.791048 
L 272.017952 87.443587 
L 272.831623 88.250184 
L 274.458964 89.489589 
L 276.899976 91.751994 
L 277.713646 92.558591 
L 282.595669 96.198113 
L 283.40934 96.552228 
L 287.477693 99.955673 
L 288.291363 100.840962 
L 291.546045 103.319772 
L 293.987057 104.795253 
L 299.682751 109.851238 
L 304.564774 113.116971 
L 305.378445 113.943241 
L 307.005786 114.867876 
L 307.819456 115.635127 
L 308.633127 116.244992 
L 310.260468 117.720474 
L 314.32882 120.159938 
L 315.142491 120.49438 
L 316.769832 121.556727 
L 318.397173 122.65842 
L 320.838185 124.291287 
L 321.651855 124.743768 
L 322.465526 125.373307 
L 323.279196 125.825788 
L 324.092867 126.41598 
L 325.720208 127.340616 
L 330.602231 130.645695 
L 333.043243 132.062158 
L 338.738937 135.701679 
L 342.807289 138.731335 
L 343.62096 139.026432 
L 347.689313 141.387203 
L 348.502983 141.957722 
L 349.316654 142.39053 
L 350.130324 142.96105 
L 350.943995 143.374185 
L 353.385006 144.987378 
L 354.198677 145.302148 
L 355.826018 146.285802 
L 358.26703 147.643246 
L 365.590065 151.027017 
L 366.403735 151.518845 
L 368.844747 152.69923 
L 370.472088 153.5255 
L 372.099429 154.194385 
L 373.72677 155.217386 
L 376.981452 156.830579 
L 378.608793 157.617503 
L 381.863475 159.388081 
L 384.304487 160.666832 
L 385.118157 161.276698 
L 386.745499 161.965256 
L 388.37284 162.653814 
L 390.000181 163.440738 
L 390.813851 163.932565 
L 392.441192 164.503085 
L 395.695874 165.781836 
L 398.950557 167.611433 
L 400.577898 168.319664 
L 400.577898 168.319664 
" style="fill:none;stroke:#004cff;stroke-linecap:round;stroke-width:1.5;"/>
   </g>
   <g id="line2d_20">
    <path clip-path="url(#p308119c155)" d="M 75.923352 261.216 
L 76.737023 261.117635 
L 77.550693 260.822538 
L 78.364364 260.271692 
L 79.991705 258.363402 
L 80.805376 257.202689 
L 82.432717 254.21238 
L 84.060058 250.65155 
L 87.31474 242.447871 
L 94.637775 223.069877 
L 97.892457 214.94489 
L 98.706127 212.170984 
L 99.519798 210.026617 
L 106.029162 190.628949 
L 110.911185 176.798767 
L 114.165868 168.299991 
L 117.42055 159.348735 
L 119.047891 154.745232 
L 120.675232 149.944997 
L 121.488903 148.056381 
L 123.116244 143.649608 
L 123.929914 141.820011 
L 126.370926 134.737698 
L 134.507631 113.805529 
L 135.321302 112.133316 
L 136.948643 108.159352 
L 137.762313 105.582177 
L 138.575984 103.595195 
L 139.389654 101.254097 
L 141.830666 95.35217 
L 143.458007 91.043763 
L 145.899019 86.322221 
L 148.34003 80.695717 
L 149.967371 77.764426 
L 153.222054 71.48871 
L 154.849395 67.495073 
L 158.104077 60.609491 
L 158.917747 59.232375 
L 159.731418 57.245393 
L 161.358759 54.373121 
L 162.17243 52.740255 
L 164.613441 48.864656 
L 165.427112 47.015385 
L 166.240782 46.405519 
L 167.054453 45.382519 
L 168.681794 42.706978 
L 169.495464 41.723324 
L 170.309135 40.247842 
L 173.563817 35.860743 
L 175.191158 34.562319 
L 176.004829 33.61801 
L 176.818499 32.496644 
L 180.073181 28.837449 
L 180.886852 28.640718 
L 183.327864 27.165236 
L 184.141534 26.417659 
L 187.396216 25.256947 
L 188.209887 25.2176 
L 189.023557 24.824139 
L 189.837228 24.588061 
L 190.650898 24.233946 
L 192.278239 23.938849 
L 193.09191 24.037215 
L 193.905581 23.978196 
L 194.719251 24.056888 
L 195.532922 23.997869 
L 196.346592 24.292965 
L 197.160263 24.292965 
L 198.787604 24.784792 
L 200.414945 24.686427 
L 201.228615 25.158581 
L 202.042286 25.27662 
L 202.855957 25.552043 
L 203.669627 25.650408 
L 205.296968 26.457005 
L 206.110639 26.279947 
L 207.73798 27.480006 
L 208.55165 27.853795 
L 209.365321 28.640718 
L 210.992662 29.250584 
L 213.433674 31.729394 
L 215.874685 33.539318 
L 216.688356 33.795068 
L 218.315697 34.975454 
L 220.756708 37.100147 
L 221.570379 37.867398 
L 223.19772 39.106803 
L 224.011391 39.992092 
L 225.638732 41.329862 
L 227.266073 43.002075 
L 228.079743 43.493902 
L 229.707084 44.989057 
L 231.334425 46.444866 
L 233.775437 48.628579 
L 245.980495 59.468452 
L 248.421507 61.357069 
L 250.862518 63.678493 
L 251.676189 64.150647 
L 257.371883 69.088593 
L 258.999224 70.701787 
L 262.253906 73.849481 
L 263.067576 74.47902 
L 265.508588 76.800445 
L 266.322259 77.528349 
L 267.135929 78.413638 
L 270.390611 80.794082 
L 271.204282 81.738391 
L 272.831623 82.997469 
L 274.458964 84.669681 
L 276.086305 86.027125 
L 278.527317 87.915741 
L 280.968328 89.528935 
L 283.40934 91.142128 
L 285.850352 93.227476 
L 286.664022 93.719303 
L 287.477693 94.407861 
L 288.291363 94.840669 
L 289.105034 95.430862 
L 290.732375 96.768632 
L 292.359716 98.02771 
L 294.800728 99.995019 
L 296.428069 101.155732 
L 297.241739 101.962328 
L 302.123762 105.660869 
L 303.751103 106.978967 
L 307.005786 109.497122 
L 307.819456 110.303719 
L 308.633127 110.795546 
L 310.260468 112.113643 
L 311.887809 113.530106 
L 318.397173 118.153282 
L 319.210844 118.507398 
L 320.024514 119.176283 
L 321.651855 120.218957 
L 323.279196 121.5764 
L 324.906538 122.697766 
L 325.720208 123.48469 
L 329.788561 126.337288 
L 330.602231 126.711077 
L 332.229572 127.694731 
L 335.484255 129.484983 
L 337.925266 130.783407 
L 338.738937 131.353926 
L 339.552607 131.786734 
L 341.179948 133.045812 
L 341.993619 133.655678 
L 342.807289 134.029467 
L 345.248301 135.622987 
L 346.061972 135.996776 
L 346.875642 136.527949 
L 347.689313 136.921411 
L 349.316654 138.160816 
L 351.757665 139.419894 
L 353.385006 140.659298 
L 355.012347 141.603607 
L 357.453359 143.315166 
L 360.708041 145.262802 
L 361.521712 145.597244 
L 362.335382 146.187437 
L 363.962723 146.935014 
L 365.590065 148.095727 
L 366.403735 148.410496 
L 371.285758 151.10571 
L 372.099429 151.381133 
L 372.913099 151.892633 
L 373.72677 152.246749 
L 374.54044 152.836942 
L 376.167782 153.623865 
L 377.795123 154.745232 
L 378.608793 155.099347 
L 382.677146 157.578157 
L 385.931828 158.974946 
L 394.882204 163.578449 
L 395.695874 164.08995 
L 396.509545 164.463738 
L 397.323216 165.014585 
L 400.577898 166.529413 
L 400.577898 166.529413 
" style="fill:none;stroke:#00b0ff;stroke-linecap:round;stroke-width:1.5;"/>
   </g>
   <g id="line2d_21">
    <path clip-path="url(#p308119c155)" d="M 75.923352 261.196327 
L 76.737023 261.156981 
L 77.550693 260.881557 
L 78.364364 260.271692 
L 79.178034 259.484768 
L 79.991705 258.442094 
L 82.432717 253.720552 
L 84.060058 250.494165 
L 85.687399 246.126739 
L 87.31474 242.074082 
L 88.12841 240.34285 
L 90.569422 234.126154 
L 91.383093 232.099825 
L 92.196763 229.719381 
L 93.010434 227.791418 
L 98.706127 211.816869 
L 101.147139 204.360767 
L 111.724856 173.434668 
L 112.538527 171.762455 
L 113.352197 169.834492 
L 120.675232 148.784285 
L 123.116244 142.626607 
L 123.929914 140.088779 
L 125.557255 135.878737 
L 126.370926 134.04914 
L 127.184596 132.71137 
L 129.625608 126.770096 
L 130.439278 124.330633 
L 132.06662 120.474707 
L 132.88029 117.936878 
L 133.693961 116.599108 
L 134.507631 114.57278 
L 135.321302 113.195663 
L 136.948643 108.965949 
L 138.575984 105.60185 
L 141.830666 97.712941 
L 142.644337 95.981709 
L 143.458007 93.758649 
L 144.271678 91.889706 
L 145.085348 89.214165 
L 146.712689 85.04347 
L 148.34003 81.817083 
L 149.967371 78.334946 
L 151.594712 74.124905 
L 154.035724 69.127939 
L 154.849395 67.829515 
L 155.663065 66.314687 
L 156.476736 64.367051 
L 157.290406 62.930916 
L 158.917747 59.507798 
L 159.731418 57.835585 
L 161.358759 55.474814 
L 162.17243 53.66489 
L 164.613441 50.595888 
L 167.868123 45.244807 
L 168.681794 43.61194 
L 169.495464 42.451228 
L 170.309135 40.916727 
L 171.936476 38.496937 
L 176.004829 33.61801 
L 176.818499 33.027818 
L 177.63217 32.162202 
L 178.44584 31.532663 
L 179.259511 30.352277 
L 180.073181 29.624373 
L 181.700522 28.46366 
L 182.514193 27.735756 
L 183.327864 27.460333 
L 184.141534 26.61439 
L 184.955205 26.004524 
L 186.582546 25.256947 
L 187.396216 25.394658 
L 189.023557 25.138908 
L 189.837228 24.804465 
L 191.464569 24.666754 
L 192.278239 24.273292 
L 195.532922 24.371657 
L 197.160263 24.686427 
L 197.973933 24.568388 
L 198.787604 24.686427 
L 199.601274 24.588061 
L 200.414945 24.745446 
L 202.042286 25.512697 
L 203.669627 25.748774 
L 204.483298 25.984851 
L 205.296968 26.35864 
L 206.110639 26.575044 
L 207.73798 27.420987 
L 208.55165 27.95216 
L 209.365321 28.168564 
L 210.178991 28.837449 
L 210.992662 29.329276 
L 212.620003 30.509662 
L 213.433674 30.804758 
L 215.061015 31.906451 
L 216.688356 32.890106 
L 217.502026 33.696703 
L 219.129367 34.601665 
L 219.943038 35.467281 
L 222.384049 37.021455 
L 223.19772 37.808379 
L 224.011391 38.241187 
L 226.452402 40.523265 
L 228.079743 41.565939 
L 231.334425 44.202133 
L 232.148096 44.811999 
L 232.961766 45.697288 
L 233.775437 46.307154 
L 234.589108 47.369501 
L 240.284801 52.996005 
L 241.098472 54.078025 
L 243.539484 56.222392 
L 245.980495 58.81924 
L 251.676189 63.737513 
L 252.489859 64.504763 
L 253.30353 65.429398 
L 254.117201 66.019591 
L 255.744542 67.632785 
L 258.185553 70.111594 
L 259.812894 71.567403 
L 260.626565 72.472365 
L 261.440235 73.160923 
L 262.253906 74.085558 
L 264.694918 76.111887 
L 266.322259 77.489003 
L 267.135929 78.098869 
L 267.9496 79.06285 
L 272.831623 83.745046 
L 276.899976 87.109145 
L 277.713646 88.03378 
L 278.527317 88.486261 
L 279.340987 89.292858 
L 282.595669 91.929052 
L 285.036681 94.230804 
L 285.850352 94.683285 
L 286.664022 95.470208 
L 287.477693 96.021055 
L 289.105034 97.378498 
L 289.918704 97.811306 
L 294.800728 101.686905 
L 296.428069 102.867291 
L 298.05541 104.342772 
L 299.682751 105.562504 
L 300.496421 106.290408 
L 307.005786 110.343065 
L 307.819456 111.031623 
L 308.633127 111.936586 
L 311.074138 113.667818 
L 311.887809 114.061279 
L 315.956162 116.894204 
L 316.769832 117.307339 
L 318.397173 118.664783 
L 320.024514 119.746803 
L 321.651855 121.123919 
L 325.720208 123.661748 
L 328.16122 125.451999 
L 330.602231 126.947154 
L 333.043243 128.58002 
L 333.856913 128.993155 
L 334.670584 129.66204 
L 336.297925 130.448964 
L 337.925266 131.294907 
L 340.366278 132.731043 
L 341.993619 134.108159 
L 342.807289 134.757371 
L 343.62096 135.13116 
L 346.061972 136.645988 
L 346.875642 137.118142 
L 348.502983 138.278854 
L 351.757665 140.28551 
L 354.198677 141.997069 
L 362.335382 146.994034 
L 368.031076 150.751594 
L 370.472088 151.971326 
L 375.354111 155.079674 
L 376.167782 155.551828 
L 376.981452 156.161694 
L 377.795123 156.614175 
L 378.608793 156.889598 
L 380.236134 157.833907 
L 383.490816 159.525793 
L 386.745499 160.961928 
L 391.627522 163.322699 
L 393.254863 164.267008 
L 395.695874 165.368701 
L 396.509545 165.99824 
L 397.323216 166.25399 
L 400.577898 167.945876 
L 400.577898 167.945876 
" style="fill:none;stroke:#29ffce;stroke-linecap:round;stroke-width:1.5;"/>
   </g>
   <g id="line2d_22">
    <path clip-path="url(#p308119c155)" d="M 75.923352 261.216 
L 76.737023 261.137308 
L 77.550693 260.881557 
L 78.364364 260.350384 
L 79.178034 259.366729 
L 80.805376 256.828901 
L 82.432717 253.563168 
L 83.246387 251.418801 
L 84.060058 249.726915 
L 84.873728 247.562875 
L 85.687399 246.028374 
L 87.31474 241.936371 
L 88.942081 238.670638 
L 90.569422 234.598308 
L 92.196763 230.309574 
L 93.824104 225.784763 
L 97.078786 216.518737 
L 97.892457 214.610447 
L 101.96081 202.550843 
L 105.215492 194.170106 
L 106.029162 191.435546 
L 106.842833 189.153468 
L 108.470174 185.553292 
L 113.352197 173.100225 
L 114.979538 168.378684 
L 115.793209 166.313009 
L 116.606879 164.640796 
L 117.42055 161.906237 
L 128.811937 132.455619 
L 129.625608 130.645695 
L 132.06662 123.445344 
L 134.507631 117.051589 
L 135.321302 114.789184 
L 136.134972 113.097298 
L 136.948643 110.874239 
L 138.575984 106.978967 
L 140.203325 102.847617 
L 143.458007 94.880016 
L 144.271678 93.325841 
L 145.899019 89.37155 
L 146.712689 87.738684 
L 148.34003 83.233546 
L 149.153701 81.462968 
L 150.781042 77.508676 
L 151.594712 75.954502 
L 154.035724 70.091921 
L 156.476736 64.74084 
L 158.104077 61.75053 
L 160.545088 57.717547 
L 161.358759 56.753565 
L 162.17243 55.120699 
L 162.9861 53.841948 
L 167.868123 44.241479 
L 169.495464 41.880708 
L 173.563817 36.057474 
L 174.377488 35.172184 
L 176.004829 32.654029 
L 177.63217 30.568681 
L 178.44584 30.332604 
L 179.259511 29.978488 
L 180.073181 29.466988 
L 180.886852 28.542353 
L 183.327864 26.35864 
L 184.141534 25.729101 
L 184.955205 24.922504 
L 185.768875 24.411004 
L 187.396216 23.092907 
L 188.209887 22.719118 
L 190.650898 21.951867 
L 192.278239 21.420694 
L 193.905581 21.361675 
L 194.719251 20.94854 
L 197.160263 20.338674 
L 200.414945 20.594424 
L 201.228615 20.397693 
L 202.042286 20.928867 
L 202.855957 21.184617 
L 204.483298 21.401021 
L 205.296968 21.71579 
L 206.110639 22.266637 
L 206.924309 22.463368 
L 210.178991 24.548715 
L 211.806332 25.807793 
L 212.620003 26.850467 
L 213.433674 27.224256 
L 215.061015 28.266929 
L 215.874685 28.424314 
L 216.688356 28.935815 
L 217.502026 29.742411 
L 218.315697 30.391623 
L 219.129367 30.745739 
L 219.943038 31.611355 
L 220.756708 32.162202 
L 221.570379 33.027818 
L 222.384049 33.716376 
L 223.19772 34.680357 
L 224.011391 35.231204 
L 224.825061 36.018127 
L 225.638732 36.549301 
L 227.266073 37.985436 
L 231.334425 41.526593 
L 232.961766 43.179132 
L 234.589108 45.146442 
L 235.402778 45.953038 
L 236.216449 46.543231 
L 237.84379 48.372828 
L 243.539484 53.114043 
L 246.794166 56.301084 
L 248.421507 57.48147 
L 250.048848 58.996298 
L 250.862518 59.802894 
L 251.676189 60.353741 
L 255.744542 64.327705 
L 256.558212 65.016263 
L 257.371883 66.039264 
L 258.185553 66.590111 
L 262.253906 70.131267 
L 263.067576 71.252633 
L 263.881247 72.137922 
L 264.694918 72.846154 
L 265.508588 73.770789 
L 266.322259 74.439674 
L 267.9496 76.151233 
L 268.76327 76.741426 
L 272.017952 79.692389 
L 272.831623 80.262909 
L 280.154658 86.538625 
L 280.968328 87.128818 
L 281.781999 88.073126 
L 283.40934 89.489589 
L 286.664022 91.889706 
L 287.477693 92.656956 
L 289.918704 94.447208 
L 291.546045 96.001382 
L 297.241739 100.408154 
L 298.86908 101.568867 
L 301.310092 103.300099 
L 302.123762 104.087022 
L 303.751103 105.3461 
L 307.005786 107.982294 
L 308.633127 108.926603 
L 310.260468 110.047969 
L 311.074138 110.559469 
L 311.887809 110.933258 
L 315.142491 113.648144 
L 317.583503 115.320357 
L 318.397173 116.126954 
L 319.210844 116.776166 
L 320.024514 117.208974 
L 323.279196 119.530399 
L 324.906538 120.612419 
L 328.97489 123.150247 
L 329.788561 123.563382 
L 341.993619 131.786734 
L 344.43463 133.183524 
L 345.248301 133.773717 
L 347.689313 134.993448 
L 352.571336 138.613297 
L 355.012347 139.990413 
L 355.826018 140.344529 
L 356.639689 141.033087 
L 359.894371 142.783992 
L 362.335382 144.436532 
L 365.590065 146.20711 
L 376.167782 151.990999 
L 378.608793 153.112365 
L 379.422464 153.820596 
L 383.490816 155.807578 
L 385.118157 156.555156 
L 385.931828 157.224041 
L 387.559169 158.010965 
L 388.37284 158.188022 
L 392.441192 160.430755 
L 396.509545 162.614468 
L 397.323216 162.870218 
L 398.950557 163.51943 
L 400.577898 164.207988 
L 400.577898 164.207988 
" style="fill:none;stroke:#7dff7a;stroke-linecap:round;stroke-width:1.5;"/>
   </g>
   <g id="line2d_23">
    <path clip-path="url(#p308119c155)" d="M 75.923352 261.216 
L 76.737023 261.117635 
L 77.550693 260.802865 
L 78.364364 260.330711 
L 79.178034 259.386403 
L 80.805376 256.927266 
L 82.432717 253.602514 
L 84.060058 249.982665 
L 84.873728 248.467837 
L 85.687399 246.500528 
L 86.501069 244.139757 
L 88.12841 240.205139 
L 90.569422 233.417922 
L 91.383093 231.332575 
L 92.196763 228.735727 
L 93.010434 226.650379 
L 97.078786 214.43339 
L 97.892457 211.502099 
L 98.706127 209.101982 
L 100.333468 203.377112 
L 101.147139 201.154053 
L 101.96081 198.596551 
L 102.77448 196.589896 
L 110.097515 175.480669 
L 112.538527 169.126261 
L 114.165868 164.778508 
L 116.606879 157.637176 
L 117.42055 155.846925 
L 121.488903 144.987378 
L 123.116244 139.951067 
L 124.743585 135.701679 
L 125.557255 133.931101 
L 126.370926 131.196542 
L 130.439278 121.910843 
L 131.252949 120.336995 
L 132.88029 116.146627 
L 134.507631 111.779201 
L 135.321302 110.284046 
L 136.134972 108.08066 
L 139.389654 100.801616 
L 140.203325 98.558884 
L 141.016995 96.847325 
L 141.830666 94.860343 
L 142.644337 93.207803 
L 143.458007 91.083109 
L 144.271678 89.312531 
L 145.085348 87.089472 
L 146.712689 83.233546 
L 148.34003 79.023504 
L 151.594712 71.80348 
L 152.408383 70.032902 
L 154.035724 66.845861 
L 155.663065 62.930916 
L 156.476736 61.120991 
L 158.917747 56.537161 
L 160.545088 52.346793 
L 162.17243 49.258118 
L 162.9861 47.585905 
L 164.613441 45.323499 
L 165.427112 43.67096 
L 167.054453 41.369208 
L 167.868123 39.893726 
L 168.681794 38.182167 
L 171.122805 34.896761 
L 171.936476 34.011472 
L 173.563817 31.414624 
L 176.004829 29.54568 
L 177.63217 27.519352 
L 178.44584 26.850467 
L 179.259511 25.886485 
L 180.073181 25.355312 
L 180.886852 24.174927 
L 181.700522 23.486368 
L 182.514193 23.033887 
L 183.327864 22.128925 
L 184.141534 21.735463 
L 184.955205 21.184617 
L 186.582546 20.732136 
L 189.023557 19.394365 
L 189.837228 19.55175 
L 190.650898 19.532077 
L 191.464569 19.630443 
L 192.278239 19.296 
L 193.09191 19.473058 
L 193.905581 19.374692 
L 194.719251 19.787827 
L 195.532922 20.043577 
L 197.160263 19.964885 
L 197.973933 20.200962 
L 198.787604 19.630443 
L 199.601274 20.12227 
L 200.414945 20.338674 
L 201.228615 20.673116 
L 202.042286 20.653443 
L 202.855957 21.125597 
L 203.669627 22.069906 
L 204.483298 22.699445 
L 205.296968 23.506041 
L 206.110639 24.096234 
L 211.806332 26.279947 
L 212.620003 26.712755 
L 214.247344 28.345622 
L 215.061015 28.798103 
L 215.874685 29.585027 
L 216.688356 30.529335 
L 219.943038 32.575336 
L 220.756708 33.539318 
L 221.570379 34.070491 
L 224.011391 36.372243 
L 225.638732 37.454263 
L 226.452402 38.044456 
L 231.334425 42.490574 
L 233.775437 44.221806 
L 234.589108 45.225134 
L 237.030119 47.585905 
L 237.84379 48.136751 
L 238.65746 48.904002 
L 239.471131 49.867983 
L 243.539484 53.782929 
L 244.353154 54.707564 
L 245.166825 55.356776 
L 246.794166 57.186373 
L 248.421507 58.583163 
L 249.235177 59.507798 
L 250.048848 60.15701 
L 254.117201 64.544109 
L 258.185553 68.163958 
L 259.812894 69.442709 
L 261.440235 70.97721 
L 263.881247 73.003538 
L 265.508588 74.636405 
L 267.9496 76.89881 
L 269.576941 78.03985 
L 270.390611 78.826773 
L 271.204282 79.436639 
L 277.713646 85.55497 
L 278.527317 86.086144 
L 280.154658 87.482933 
L 285.850352 92.420879 
L 286.664022 93.168457 
L 287.477693 93.719303 
L 290.732375 96.807979 
L 291.546045 97.339152 
L 292.359716 98.106403 
L 293.987057 99.208096 
L 294.800728 99.936 
L 296.428069 101.037693 
L 297.241739 101.785271 
L 298.86908 102.965656 
L 301.310092 104.77558 
L 302.123762 105.542831 
L 310.260468 111.720182 
L 311.074138 112.546451 
L 311.887809 113.195663 
L 312.701479 113.667818 
L 314.32882 114.985915 
L 317.583503 117.445051 
L 318.397173 118.133609 
L 321.651855 120.297649 
L 323.279196 121.615746 
L 324.906538 122.599401 
L 326.533879 123.956844 
L 328.16122 125.215922 
L 330.602231 127.025846 
L 331.415902 127.30127 
L 333.043243 128.38329 
L 334.670584 129.40629 
L 336.297925 130.704714 
L 338.738937 132.003138 
L 339.552607 132.691697 
L 341.179948 133.636005 
L 341.993619 134.088486 
L 342.807289 134.383582 
L 346.875642 136.882065 
L 348.502983 137.649315 
L 350.130324 138.908393 
L 351.757665 139.931394 
L 353.385006 141.170799 
L 354.198677 141.760991 
L 355.012347 142.154453 
L 355.826018 142.685627 
L 357.453359 143.433204 
L 364.776394 148.076054 
L 365.590065 148.705593 
L 368.031076 149.649901 
L 369.658417 150.84996 
L 372.099429 151.754922 
L 372.913099 152.305768 
L 374.54044 153.033673 
L 377.795123 154.86327 
L 380.236134 156.220713 
L 385.118157 158.581484 
L 385.931828 158.974946 
L 386.745499 159.584812 
L 387.559169 160.037293 
L 389.18651 160.607813 
L 390.000181 160.922582 
L 391.627522 161.748852 
L 392.441192 162.043948 
L 394.068533 163.145641 
L 398.136886 165.290008 
L 400.577898 166.19497 
L 400.577898 166.19497 
" style="fill:none;stroke:#ceff29;stroke-linecap:round;stroke-width:1.5;"/>
   </g>
   <g id="line2d_24">
    <path clip-path="url(#p308119c155)" d="M 75.923352 261.216 
L 76.737023 261.117635 
L 78.364364 260.271692 
L 79.178034 259.465095 
L 80.805376 257.301055 
L 82.432717 254.409111 
L 83.246387 252.677879 
L 84.873728 248.74326 
L 86.501069 244.867661 
L 89.755751 235.739347 
L 91.383093 230.565324 
L 93.824104 223.561704 
L 95.451445 218.505719 
L 97.892457 211.600465 
L 98.706127 209.003616 
L 101.147139 202.255746 
L 103.588151 195.291472 
L 104.401821 193.088086 
L 106.842833 185.671331 
L 107.656503 183.841733 
L 109.283844 179.257903 
L 110.097515 177.290594 
L 113.352197 167.84751 
L 114.979538 163.362045 
L 115.793209 161.414409 
L 117.42055 157.046983 
L 118.23422 154.823924 
L 119.861561 151.322114 
L 121.488903 147.112072 
L 122.302573 144.652936 
L 127.184596 132.534312 
L 130.439278 123.956844 
L 132.06662 120.651765 
L 132.88029 118.723802 
L 134.507631 114.415395 
L 136.948643 108.375756 
L 139.389654 101.962328 
L 140.203325 99.936 
L 141.016995 98.460518 
L 142.644337 94.880016 
L 143.458007 93.502899 
L 147.52636 83.174526 
L 148.34003 81.640025 
L 149.153701 79.574351 
L 149.967371 78.098869 
L 151.594712 74.144578 
L 153.222054 70.839498 
L 156.476736 64.209667 
L 157.290406 63.029281 
L 159.731418 58.366759 
L 160.545088 57.383104 
L 162.17243 53.487832 
L 162.9861 52.01235 
L 164.613441 49.927003 
L 167.868123 43.769325 
L 171.122805 39.85438 
L 173.563817 36.09682 
L 174.377488 35.250877 
L 175.191158 34.18853 
L 176.004829 33.558991 
L 176.818499 32.752394 
L 177.63217 31.788413 
L 178.44584 31.316259 
L 179.259511 30.411296 
L 180.073181 29.722738 
L 181.700522 28.739084 
L 182.514193 28.483333 
L 184.141534 27.066871 
L 185.768875 26.338967 
L 187.396216 25.394658 
L 188.209887 25.119235 
L 189.023557 25.020869 
L 189.837228 24.489696 
L 190.650898 24.627408 
L 191.464569 24.174927 
L 193.905581 24.037215 
L 194.719251 23.958523 
L 196.346592 24.076561 
L 197.973933 23.62408 
L 198.787604 23.742119 
L 199.601274 24.1946 
L 201.228615 24.489696 
L 202.855957 25.414331 
L 203.669627 25.768447 
L 205.296968 26.240601 
L 206.110639 26.673409 
L 207.73798 27.873468 
L 209.365321 29.014507 
L 213.433674 31.847432 
L 214.247344 32.752394 
L 215.061015 33.067164 
L 217.502026 35.486954 
L 219.943038 37.296878 
L 223.19772 39.893726 
L 224.011391 40.798688 
L 224.825061 41.290516 
L 228.079743 43.946383 
L 228.893414 44.792326 
L 229.707084 45.835 
L 231.334425 47.369501 
L 234.589108 50.300791 
L 237.030119 52.759928 
L 239.471131 55.120699 
L 241.098472 56.360103 
L 241.912142 57.186373 
L 242.725813 57.815912 
L 243.539484 58.799567 
L 245.980495 60.963607 
L 248.421507 63.363724 
L 252.489859 67.21965 
L 253.30353 68.144285 
L 254.930871 69.482055 
L 255.744542 70.426364 
L 258.185553 72.688769 
L 258.999224 73.259289 
L 263.067576 76.839791 
L 263.881247 77.390638 
L 266.322259 79.653043 
L 268.76327 82.131853 
L 269.576941 82.663026 
L 271.204282 84.236873 
L 272.831623 85.574644 
L 274.458964 86.892741 
L 278.527317 90.020762 
L 280.154658 91.988071 
L 287.477693 97.77196 
L 288.291363 98.322807 
L 289.105034 99.149076 
L 293.173386 102.218079 
L 297.241739 105.326427 
L 298.05541 105.700216 
L 299.682751 106.782236 
L 302.123762 108.946276 
L 302.937433 109.67418 
L 305.378445 111.32672 
L 306.192115 111.798874 
L 307.819456 113.077625 
L 310.260468 114.51376 
L 311.074138 114.966242 
L 314.32882 117.740147 
L 316.769832 119.373014 
L 321.651855 122.91417 
L 322.465526 123.366651 
L 324.906538 125.156903 
L 326.533879 126.179903 
L 328.97489 127.970155 
L 329.788561 128.461982 
L 330.602231 129.288252 
L 337.111596 133.124505 
L 338.738937 134.186851 
L 339.552607 134.914756 
L 341.179948 135.878737 
L 341.993619 136.21318 
L 343.62096 137.354219 
L 346.061972 138.967413 
L 350.943995 141.859357 
L 351.757665 142.213473 
L 352.571336 142.823338 
L 355.826018 144.731628 
L 356.639689 145.243129 
L 357.453359 145.616917 
L 359.0807 146.757957 
L 363.962723 149.45317 
L 364.776394 149.728593 
L 372.913099 153.977981 
L 374.54044 154.843597 
L 376.167782 155.669867 
L 378.608793 156.830579 
L 380.236134 157.892926 
L 381.863475 158.797888 
L 382.677146 159.250369 
L 383.490816 159.466773 
L 390.000181 162.417737 
L 391.627522 163.224334 
L 394.068533 164.247334 
L 394.882204 164.758835 
L 395.695874 165.11295 
L 397.323216 165.644124 
L 398.136886 166.19497 
L 400.577898 167.257317 
L 400.577898 167.257317 
" style="fill:none;stroke:#ffc400;stroke-linecap:round;stroke-width:1.5;"/>
   </g>
   <g id="line2d_25">
    <path clip-path="url(#p308119c155)" d="M 75.923352 261.196327 
L 76.737023 261.038942 
L 78.364364 260.252019 
L 79.991705 258.520787 
L 80.805376 257.14367 
L 81.619046 256.002631 
L 87.31474 242.782314 
L 89.755751 235.995097 
L 93.010434 227.122533 
L 94.637775 221.928837 
L 95.451445 219.233624 
L 96.265116 217.325334 
L 100.333468 204.655863 
L 102.77448 197.730935 
L 106.029162 188.15014 
L 108.470174 180.536654 
L 109.283844 178.569345 
L 110.911185 173.82813 
L 111.724856 172.136244 
L 115.793209 161.001274 
L 117.42055 157.302733 
L 122.302573 143.079089 
L 123.116244 141.092106 
L 124.743585 136.764026 
L 125.557255 135.052467 
L 128.811937 126.9865 
L 129.625608 125.07821 
L 130.439278 122.678093 
L 132.06662 118.487725 
L 132.88029 116.244992 
L 133.693961 114.51376 
L 134.507631 112.034951 
L 138.575984 101.667232 
L 141.016995 96.099747 
L 146.712689 82.87943 
L 148.34003 78.748081 
L 149.153701 76.64306 
L 150.781042 72.944519 
L 151.594712 70.996883 
L 152.408383 69.344343 
L 154.849395 63.894897 
L 155.663065 62.222685 
L 156.476736 61.101318 
L 158.104077 58.24872 
L 159.731418 54.451814 
L 160.545088 53.015678 
L 161.358759 51.009023 
L 165.427112 43.690633 
L 166.240782 42.765998 
L 167.054453 41.113458 
L 170.309135 36.509955 
L 171.122805 34.877088 
L 171.936476 33.598337 
L 172.750147 32.103182 
L 174.377488 30.332604 
L 175.191158 29.899796 
L 176.818499 28.011179 
L 177.63217 27.342294 
L 178.44584 26.516024 
L 179.259511 26.063543 
L 180.886852 24.548715 
L 183.327864 22.856829 
L 184.141534 22.620752 
L 184.955205 22.227291 
L 186.582546 21.794483 
L 187.396216 21.774809 
L 188.209887 21.125597 
L 189.023557 21.066578 
L 191.464569 20.043577 
L 194.719251 20.692789 
L 195.532922 20.358347 
L 196.346592 20.437039 
L 197.160263 20.37802 
L 198.787604 20.594424 
L 200.414945 21.381348 
L 201.228615 22.168271 
L 202.855957 22.738791 
L 203.669627 22.915849 
L 204.483298 22.856829 
L 205.296968 23.388003 
L 206.110639 23.584734 
L 206.924309 23.938849 
L 207.73798 24.588061 
L 208.55165 24.863485 
L 209.365321 25.434004 
L 210.178991 25.768447 
L 213.433674 28.424314 
L 214.247344 29.171892 
L 215.061015 29.565354 
L 216.688356 30.6277 
L 219.943038 33.775395 
L 220.756708 34.286895 
L 221.570379 34.975454 
L 222.384049 35.368915 
L 224.011391 37.041128 
L 226.452402 39.106803 
L 227.266073 40.031438 
L 228.079743 40.523265 
L 228.893414 41.25117 
L 229.707084 41.821689 
L 230.520755 42.608613 
L 231.334425 42.962728 
L 234.589108 45.657942 
L 237.84379 48.608906 
L 239.471131 50.379484 
L 240.284801 51.127061 
L 241.912142 52.346793 
L 243.539484 53.861621 
L 245.980495 56.281411 
L 246.794166 56.91095 
L 247.607836 57.815912 
L 250.862518 60.589818 
L 254.117201 63.953917 
L 256.558212 66.157303 
L 258.185553 67.554092 
L 258.999224 68.065593 
L 259.812894 69.108266 
L 261.440235 70.623094 
L 263.881247 72.787134 
L 264.694918 73.357654 
L 266.322259 75.108559 
L 270.390611 78.590696 
L 272.017952 80.046505 
L 272.831623 80.695717 
L 273.645293 81.521987 
L 274.458964 82.033487 
L 275.272635 82.702372 
L 277.713646 85.102489 
L 280.154658 87.187837 
L 281.781999 88.682992 
L 282.595669 89.332204 
L 283.40934 89.804358 
L 285.036681 91.299513 
L 286.664022 93.070091 
L 289.105034 95.135766 
L 289.918704 95.942363 
L 291.546045 97.044056 
L 292.359716 97.575229 
L 293.173386 98.362153 
L 293.987057 98.775288 
L 294.800728 99.444173 
L 295.614398 99.916327 
L 296.428069 100.663904 
L 297.241739 101.254097 
L 298.05541 102.080367 
L 299.682751 103.280425 
L 300.496421 104.126368 
L 302.123762 105.3461 
L 302.937433 106.093677 
L 307.005786 108.965949 
L 308.633127 110.067642 
L 309.446797 110.736527 
L 311.074138 111.779201 
L 311.887809 112.703836 
L 316.769832 116.126954 
L 323.279196 120.592746 
L 328.16122 123.524036 
L 329.788561 124.861806 
L 332.229572 126.356961 
L 333.856913 127.537347 
L 334.670584 128.029174 
L 335.484255 128.363616 
L 336.297925 128.875117 
L 337.111596 129.209559 
L 338.738937 130.271906 
L 339.552607 130.842426 
L 340.366278 131.668696 
L 343.62096 133.557313 
L 344.43463 134.363909 
L 345.248301 134.914756 
L 346.061972 135.249198 
L 350.943995 138.357547 
L 352.571336 139.833029 
L 359.0807 144.023397 
L 359.894371 144.357839 
L 363.962723 146.757957 
L 365.590065 147.466188 
L 368.844747 149.335131 
L 369.658417 149.905651 
L 372.913099 151.676229 
L 373.72677 152.227076 
L 376.167782 153.348442 
L 376.981452 153.663212 
L 378.608793 154.587847 
L 379.422464 154.961636 
L 381.049805 156.004309 
L 381.863475 156.279733 
L 382.677146 156.751887 
L 384.304487 157.499464 
L 387.559169 159.211023 
L 389.18651 159.860235 
L 392.441192 161.316044 
L 395.695874 162.870218 
L 396.509545 163.145641 
L 397.323216 163.657142 
L 400.577898 165.152297 
L 400.577898 165.152297 
" style="fill:none;stroke:#ff6800;stroke-linecap:round;stroke-width:1.5;"/>
   </g>
   <g id="line2d_26">
    <path clip-path="url(#p308119c155)" d="M 75.923352 261.216 
L 77.550693 260.743846 
L 78.364364 260.330711 
L 79.178034 259.543787 
L 79.991705 258.422421 
L 80.805376 257.556805 
L 82.432717 254.546822 
L 85.687399 247.267778 
L 87.31474 243.274141 
L 88.942081 239.26083 
L 90.569422 234.460596 
L 91.383093 232.51296 
L 92.196763 229.975131 
L 93.824104 225.706071 
L 95.451445 220.964856 
L 96.265116 218.387681 
L 97.078786 216.203968 
L 98.706127 211.403734 
L 100.333468 207.528135 
L 103.588151 197.967012 
L 104.401821 195.763626 
L 105.215492 193.009394 
L 108.470174 183.684348 
L 109.283844 180.910443 
L 110.097515 178.569345 
L 110.911185 176.857786 
L 111.724856 174.851131 
L 115.793209 162.968584 
L 116.606879 160.942255 
L 118.23422 156.378098 
L 120.675232 150.574536 
L 121.488903 148.312131 
L 122.302573 146.738283 
L 123.116244 144.475878 
L 123.929914 142.646281 
L 124.743585 140.187144 
L 127.998267 132.101504 
L 128.811937 130.389945 
L 132.06662 122.205939 
L 133.693961 118.07459 
L 135.321302 113.943241 
L 136.948643 109.988949 
L 137.762313 108.33641 
L 138.575984 106.349428 
L 139.389654 104.8346 
L 142.644337 96.630921 
L 145.085348 91.043763 
L 146.712689 87.384568 
L 148.34003 83.981123 
L 149.967371 80.262909 
L 151.594712 77.311945 
L 154.849395 70.091921 
L 156.476736 66.845861 
L 158.104077 63.166993 
L 158.917747 61.80955 
L 160.545088 58.327413 
L 161.358759 56.517488 
L 162.17243 55.435468 
L 162.9861 54.137044 
L 163.799771 52.563197 
L 165.427112 50.261445 
L 166.240782 48.943348 
L 167.054453 48.195771 
L 170.309135 43.769325 
L 171.122805 43.316844 
L 172.750147 40.444573 
L 175.191158 37.769032 
L 177.63217 34.877088 
L 178.44584 34.149184 
L 179.259511 33.047491 
L 180.073181 32.240894 
L 180.886852 31.631028 
L 182.514193 30.135873 
L 183.327864 29.388296 
L 184.141534 29.093199 
L 184.955205 28.148891 
L 186.582546 27.578371 
L 187.396216 26.968505 
L 188.209887 27.007852 
L 189.023557 26.830794 
L 190.650898 26.142236 
L 191.464569 25.847139 
L 192.278239 25.315966 
L 194.719251 25.27662 
L 195.532922 25.374985 
L 197.160263 25.827466 
L 198.787604 25.650408 
L 201.228615 26.378313 
L 202.855957 27.047198 
L 203.669627 27.204583 
L 204.483298 27.558698 
L 205.296968 27.735756 
L 206.924309 28.581699 
L 210.992662 31.099855 
L 211.806332 31.375278 
L 215.061015 33.381933 
L 215.874685 34.286895 
L 217.502026 34.975454 
L 219.129367 36.568974 
L 219.943038 36.962436 
L 220.756708 37.749359 
L 223.19772 40.621631 
L 224.011391 41.093785 
L 227.266073 44.202133 
L 228.079743 44.615268 
L 229.707084 46.3465 
L 230.520755 46.877674 
L 231.334425 47.900674 
L 232.148096 48.392502 
L 233.775437 50.182753 
L 235.402778 51.441831 
L 237.030119 52.877966 
L 237.84379 53.369794 
L 238.65746 54.019006 
L 241.098472 56.615854 
L 243.539484 58.779894 
L 245.166825 59.861914 
L 250.048848 64.74084 
L 251.676189 66.235995 
L 252.489859 67.121284 
L 253.30353 67.770496 
L 254.930871 69.344343 
L 258.185553 72.157596 
L 258.999224 72.688769 
L 265.508588 78.86612 
L 270.390611 83.331911 
L 271.204282 84.138508 
L 274.458964 86.69601 
L 275.272635 87.541953 
L 276.086305 88.073126 
L 277.713646 89.312531 
L 279.340987 90.45357 
L 282.595669 93.502899 
L 287.477693 97.044056 
L 289.918704 99.149076 
L 290.732375 99.817961 
L 291.546045 100.290116 
L 293.173386 101.686905 
L 293.987057 102.513175 
L 297.241739 104.618196 
L 298.05541 105.326427 
L 298.86908 105.837927 
L 300.496421 107.175697 
L 301.310092 108.001967 
L 304.564774 110.362738 
L 305.378445 110.775873 
L 306.192115 111.425085 
L 307.005786 112.231682 
L 307.819456 112.703836 
L 308.633127 113.392394 
L 310.260468 114.51376 
L 311.074138 115.162972 
L 312.701479 116.028588 
L 313.51515 116.795839 
L 315.142491 117.858186 
L 316.769832 118.861514 
L 317.583503 119.569745 
L 318.397173 120.100918 
L 320.024514 121.556727 
L 320.838185 121.989535 
L 322.465526 123.268286 
L 325.720208 125.373307 
L 327.347549 126.494673 
L 328.16122 126.888135 
L 330.602231 128.540674 
L 331.415902 128.835771 
L 333.856913 130.389945 
L 335.484255 131.294907 
L 337.111596 132.180196 
L 337.925266 132.494966 
L 340.366278 133.931101 
L 342.807289 135.583641 
L 351.757665 141.387203 
L 353.385006 142.272492 
L 354.198677 142.882358 
L 355.012347 143.649608 
L 355.826018 144.023397 
L 361.521712 147.485861 
L 364.776394 149.19742 
L 366.403735 149.905651 
L 375.354111 154.764905 
L 376.167782 155.37477 
L 378.608793 156.417444 
L 380.236134 157.204368 
L 381.049805 157.53881 
L 381.863475 158.010965 
L 382.677146 158.345407 
L 383.490816 158.817561 
L 385.118157 159.388081 
L 386.745499 160.27337 
L 392.441192 162.673487 
L 394.068533 163.499757 
L 394.882204 163.8342 
L 395.695874 164.3457 
L 396.509545 164.581777 
L 398.950557 165.762162 
L 400.577898 166.352355 
L 400.577898 166.352355 
" style="fill:none;stroke:#f10800;stroke-linecap:round;stroke-width:1.5;"/>
   </g>
   <g id="patch_3">
    <path d="M 59.690625 273.312 
L 59.690625 7.2 
" style="fill:none;stroke:#cccccc;stroke-linecap:square;stroke-linejoin:miter;stroke-width:0.8;"/>
   </g>
   <g id="patch_4">
    <path d="M 416.810625 273.312 
L 416.810625 7.2 
" style="fill:none;stroke:#cccccc;stroke-linecap:square;stroke-linejoin:miter;stroke-width:0.8;"/>
   </g>
   <g id="patch_5">
    <path d="M 59.690625 273.312 
L 416.810625 273.312 
" style="fill:none;stroke:#cccccc;stroke-linecap:square;stroke-linejoin:miter;stroke-width:0.8;"/>
   </g>
   <g id="patch_6">
    <path d="M 59.690625 7.2 
L 416.810625 7.2 
" style="fill:none;stroke:#cccccc;stroke-linecap:square;stroke-linejoin:miter;stroke-width:0.8;"/>
   </g>
  </g>
 </g>
 <defs>
  <clipPath id="p308119c155">
   <rect height="266.112" width="357.12" x="59.690625" y="7.2"/>
  </clipPath>
 </defs>
</svg>
