<?xml version="1.0" encoding="utf-8" standalone="no"?>
<!DOCTYPE svg PUBLIC "-//W3C//DTD SVG 1.1//EN"
  "http://www.w3.org/Graphics/SVG/1.1/DTD/svg11.dtd">
<!-- Created with matplotlib (https://matplotlib.org/) -->
<svg height="310.86825pt" version="1.1" viewBox="0 0 430.373125 310.86825" width="430.373125pt" xmlns="http://www.w3.org/2000/svg" xmlns:xlink="http://www.w3.org/1999/xlink">
 <defs>
  <style type="text/css">
*{stroke-linecap:butt;stroke-linejoin:round;white-space:pre;}
  </style>
 </defs>
 <g id="figure_1">
  <g id="patch_1">
   <path d="M 0 310.86825 
L 430.373125 310.86825 
L 430.373125 0 
L 0 0 
z
" style="fill:#ffffff;"/>
  </g>
  <g id="axes_1">
   <g id="patch_2">
    <path d="M 66.053125 273.312 
L 423.173125 273.312 
L 423.173125 7.2 
L 66.053125 7.2 
z
" style="fill:#ffffff;"/>
   </g>
   <g id="matplotlib.axis_1">
    <g id="xtick_1">
     <g id="line2d_1">
      <path clip-path="url(#p8e285c2995)" d="M 82.285852 273.312 
L 82.285852 7.2 
" style="fill:none;stroke:#cccccc;stroke-linecap:round;stroke-width:0.8;"/>
     </g>
     <g id="text_1">
      <!-- 0 -->
      <defs>
       <path d="M 31.78125 66.40625 
Q 24.171875 66.40625 20.328125 58.90625 
Q 16.5 51.421875 16.5 36.375 
Q 16.5 21.390625 20.328125 13.890625 
Q 24.171875 6.390625 31.78125 6.390625 
Q 39.453125 6.390625 43.28125 13.890625 
Q 47.125 21.390625 47.125 36.375 
Q 47.125 51.421875 43.28125 58.90625 
Q 39.453125 66.40625 31.78125 66.40625 
z
M 31.78125 74.21875 
Q 44.046875 74.21875 50.515625 64.515625 
Q 56.984375 54.828125 56.984375 36.375 
Q 56.984375 17.96875 50.515625 8.265625 
Q 44.046875 -1.421875 31.78125 -1.421875 
Q 19.53125 -1.421875 13.0625 8.265625 
Q 6.59375 17.96875 6.59375 36.375 
Q 6.59375 54.828125 13.0625 64.515625 
Q 19.53125 74.21875 31.78125 74.21875 
z
" id="DejaVuSans-48"/>
      </defs>
      <g style="fill:#262626;" transform="translate(79.104602 287.910437)scale(0.1 -0.1)">
       <use xlink:href="#DejaVuSans-48"/>
      </g>
     </g>
    </g>
    <g id="xtick_2">
     <g id="line2d_2">
      <path clip-path="url(#p8e285c2995)" d="M 122.969379 273.312 
L 122.969379 7.2 
" style="fill:none;stroke:#cccccc;stroke-linecap:round;stroke-width:0.8;"/>
     </g>
     <g id="text_2">
      <!-- 5 -->
      <defs>
       <path d="M 10.796875 72.90625 
L 49.515625 72.90625 
L 49.515625 64.59375 
L 19.828125 64.59375 
L 19.828125 46.734375 
Q 21.96875 47.46875 24.109375 47.828125 
Q 26.265625 48.1875 28.421875 48.1875 
Q 40.625 48.1875 47.75 41.5 
Q 54.890625 34.8125 54.890625 23.390625 
Q 54.890625 11.625 47.5625 5.09375 
Q 40.234375 -1.421875 26.90625 -1.421875 
Q 22.3125 -1.421875 17.546875 -0.640625 
Q 12.796875 0.140625 7.71875 1.703125 
L 7.71875 11.625 
Q 12.109375 9.234375 16.796875 8.0625 
Q 21.484375 6.890625 26.703125 6.890625 
Q 35.15625 6.890625 40.078125 11.328125 
Q 45.015625 15.765625 45.015625 23.390625 
Q 45.015625 31 40.078125 35.4375 
Q 35.15625 39.890625 26.703125 39.890625 
Q 22.75 39.890625 18.8125 39.015625 
Q 14.890625 38.140625 10.796875 36.28125 
z
" id="DejaVuSans-53"/>
      </defs>
      <g style="fill:#262626;" transform="translate(119.788129 287.910437)scale(0.1 -0.1)">
       <use xlink:href="#DejaVuSans-53"/>
      </g>
     </g>
    </g>
    <g id="xtick_3">
     <g id="line2d_3">
      <path clip-path="url(#p8e285c2995)" d="M 163.652906 273.312 
L 163.652906 7.2 
" style="fill:none;stroke:#cccccc;stroke-linecap:round;stroke-width:0.8;"/>
     </g>
     <g id="text_3">
      <!-- 10 -->
      <defs>
       <path d="M 12.40625 8.296875 
L 28.515625 8.296875 
L 28.515625 63.921875 
L 10.984375 60.40625 
L 10.984375 69.390625 
L 28.421875 72.90625 
L 38.28125 72.90625 
L 38.28125 8.296875 
L 54.390625 8.296875 
L 54.390625 0 
L 12.40625 0 
z
" id="DejaVuSans-49"/>
      </defs>
      <g style="fill:#262626;" transform="translate(157.290406 287.910437)scale(0.1 -0.1)">
       <use xlink:href="#DejaVuSans-49"/>
       <use x="63.623047" xlink:href="#DejaVuSans-48"/>
      </g>
     </g>
    </g>
    <g id="xtick_4">
     <g id="line2d_4">
      <path clip-path="url(#p8e285c2995)" d="M 204.336433 273.312 
L 204.336433 7.2 
" style="fill:none;stroke:#cccccc;stroke-linecap:round;stroke-width:0.8;"/>
     </g>
     <g id="text_4">
      <!-- 15 -->
      <g style="fill:#262626;" transform="translate(197.973933 287.910437)scale(0.1 -0.1)">
       <use xlink:href="#DejaVuSans-49"/>
       <use x="63.623047" xlink:href="#DejaVuSans-53"/>
      </g>
     </g>
    </g>
    <g id="xtick_5">
     <g id="line2d_5">
      <path clip-path="url(#p8e285c2995)" d="M 245.01996 273.312 
L 245.01996 7.2 
" style="fill:none;stroke:#cccccc;stroke-linecap:round;stroke-width:0.8;"/>
     </g>
     <g id="text_5">
      <!-- 20 -->
      <defs>
       <path d="M 19.1875 8.296875 
L 53.609375 8.296875 
L 53.609375 0 
L 7.328125 0 
L 7.328125 8.296875 
Q 12.9375 14.109375 22.625 23.890625 
Q 32.328125 33.6875 34.8125 36.53125 
Q 39.546875 41.84375 41.421875 45.53125 
Q 43.3125 49.21875 43.3125 52.78125 
Q 43.3125 58.59375 39.234375 62.25 
Q 35.15625 65.921875 28.609375 65.921875 
Q 23.96875 65.921875 18.8125 64.3125 
Q 13.671875 62.703125 7.8125 59.421875 
L 7.8125 69.390625 
Q 13.765625 71.78125 18.9375 73 
Q 24.125 74.21875 28.421875 74.21875 
Q 39.75 74.21875 46.484375 68.546875 
Q 53.21875 62.890625 53.21875 53.421875 
Q 53.21875 48.921875 51.53125 44.890625 
Q 49.859375 40.875 45.40625 35.40625 
Q 44.1875 33.984375 37.640625 27.21875 
Q 31.109375 20.453125 19.1875 8.296875 
z
" id="DejaVuSans-50"/>
      </defs>
      <g style="fill:#262626;" transform="translate(238.65746 287.910437)scale(0.1 -0.1)">
       <use xlink:href="#DejaVuSans-50"/>
       <use x="63.623047" xlink:href="#DejaVuSans-48"/>
      </g>
     </g>
    </g>
    <g id="xtick_6">
     <g id="line2d_6">
      <path clip-path="url(#p8e285c2995)" d="M 285.703487 273.312 
L 285.703487 7.2 
" style="fill:none;stroke:#cccccc;stroke-linecap:round;stroke-width:0.8;"/>
     </g>
     <g id="text_6">
      <!-- 25 -->
      <g style="fill:#262626;" transform="translate(279.340987 287.910437)scale(0.1 -0.1)">
       <use xlink:href="#DejaVuSans-50"/>
       <use x="63.623047" xlink:href="#DejaVuSans-53"/>
      </g>
     </g>
    </g>
    <g id="xtick_7">
     <g id="line2d_7">
      <path clip-path="url(#p8e285c2995)" d="M 326.387014 273.312 
L 326.387014 7.2 
" style="fill:none;stroke:#cccccc;stroke-linecap:round;stroke-width:0.8;"/>
     </g>
     <g id="text_7">
      <!-- 30 -->
      <defs>
       <path d="M 40.578125 39.3125 
Q 47.65625 37.796875 51.625 33 
Q 55.609375 28.21875 55.609375 21.1875 
Q 55.609375 10.40625 48.1875 4.484375 
Q 40.765625 -1.421875 27.09375 -1.421875 
Q 22.515625 -1.421875 17.65625 -0.515625 
Q 12.796875 0.390625 7.625 2.203125 
L 7.625 11.71875 
Q 11.71875 9.328125 16.59375 8.109375 
Q 21.484375 6.890625 26.8125 6.890625 
Q 36.078125 6.890625 40.9375 10.546875 
Q 45.796875 14.203125 45.796875 21.1875 
Q 45.796875 27.640625 41.28125 31.265625 
Q 36.765625 34.90625 28.71875 34.90625 
L 20.21875 34.90625 
L 20.21875 43.015625 
L 29.109375 43.015625 
Q 36.375 43.015625 40.234375 45.921875 
Q 44.09375 48.828125 44.09375 54.296875 
Q 44.09375 59.90625 40.109375 62.90625 
Q 36.140625 65.921875 28.71875 65.921875 
Q 24.65625 65.921875 20.015625 65.03125 
Q 15.375 64.15625 9.8125 62.3125 
L 9.8125 71.09375 
Q 15.4375 72.65625 20.34375 73.4375 
Q 25.25 74.21875 29.59375 74.21875 
Q 40.828125 74.21875 47.359375 69.109375 
Q 53.90625 64.015625 53.90625 55.328125 
Q 53.90625 49.265625 50.4375 45.09375 
Q 46.96875 40.921875 40.578125 39.3125 
z
" id="DejaVuSans-51"/>
      </defs>
      <g style="fill:#262626;" transform="translate(320.024514 287.910437)scale(0.1 -0.1)">
       <use xlink:href="#DejaVuSans-51"/>
       <use x="63.623047" xlink:href="#DejaVuSans-48"/>
      </g>
     </g>
    </g>
    <g id="xtick_8">
     <g id="line2d_8">
      <path clip-path="url(#p8e285c2995)" d="M 367.070541 273.312 
L 367.070541 7.2 
" style="fill:none;stroke:#cccccc;stroke-linecap:round;stroke-width:0.8;"/>
     </g>
     <g id="text_8">
      <!-- 35 -->
      <g style="fill:#262626;" transform="translate(360.708041 287.910437)scale(0.1 -0.1)">
       <use xlink:href="#DejaVuSans-51"/>
       <use x="63.623047" xlink:href="#DejaVuSans-53"/>
      </g>
     </g>
    </g>
    <g id="xtick_9">
     <g id="line2d_9">
      <path clip-path="url(#p8e285c2995)" d="M 407.754068 273.312 
L 407.754068 7.2 
" style="fill:none;stroke:#cccccc;stroke-linecap:round;stroke-width:0.8;"/>
     </g>
     <g id="text_9">
      <!-- 40 -->
      <defs>
       <path d="M 37.796875 64.3125 
L 12.890625 25.390625 
L 37.796875 25.390625 
z
M 35.203125 72.90625 
L 47.609375 72.90625 
L 47.609375 25.390625 
L 58.015625 25.390625 
L 58.015625 17.1875 
L 47.609375 17.1875 
L 47.609375 0 
L 37.796875 0 
L 37.796875 17.1875 
L 4.890625 17.1875 
L 4.890625 26.703125 
z
" id="DejaVuSans-52"/>
      </defs>
      <g style="fill:#262626;" transform="translate(401.391568 287.910437)scale(0.1 -0.1)">
       <use xlink:href="#DejaVuSans-52"/>
       <use x="63.623047" xlink:href="#DejaVuSans-48"/>
      </g>
     </g>
    </g>
    <g id="text_10">
     <!-- time (days) -->
     <defs>
      <path d="M 18.3125 70.21875 
L 18.3125 54.6875 
L 36.8125 54.6875 
L 36.8125 47.703125 
L 18.3125 47.703125 
L 18.3125 18.015625 
Q 18.3125 11.328125 20.140625 9.421875 
Q 21.96875 7.515625 27.59375 7.515625 
L 36.8125 7.515625 
L 36.8125 0 
L 27.59375 0 
Q 17.1875 0 13.234375 3.875 
Q 9.28125 7.765625 9.28125 18.015625 
L 9.28125 47.703125 
L 2.6875 47.703125 
L 2.6875 54.6875 
L 9.28125 54.6875 
L 9.28125 70.21875 
z
" id="DejaVuSans-116"/>
      <path d="M 9.421875 54.6875 
L 18.40625 54.6875 
L 18.40625 0 
L 9.421875 0 
z
M 9.421875 75.984375 
L 18.40625 75.984375 
L 18.40625 64.59375 
L 9.421875 64.59375 
z
" id="DejaVuSans-105"/>
      <path d="M 52 44.1875 
Q 55.375 50.25 60.0625 53.125 
Q 64.75 56 71.09375 56 
Q 79.640625 56 84.28125 50.015625 
Q 88.921875 44.046875 88.921875 33.015625 
L 88.921875 0 
L 79.890625 0 
L 79.890625 32.71875 
Q 79.890625 40.578125 77.09375 44.375 
Q 74.3125 48.1875 68.609375 48.1875 
Q 61.625 48.1875 57.5625 43.546875 
Q 53.515625 38.921875 53.515625 30.90625 
L 53.515625 0 
L 44.484375 0 
L 44.484375 32.71875 
Q 44.484375 40.625 41.703125 44.40625 
Q 38.921875 48.1875 33.109375 48.1875 
Q 26.21875 48.1875 22.15625 43.53125 
Q 18.109375 38.875 18.109375 30.90625 
L 18.109375 0 
L 9.078125 0 
L 9.078125 54.6875 
L 18.109375 54.6875 
L 18.109375 46.1875 
Q 21.1875 51.21875 25.484375 53.609375 
Q 29.78125 56 35.6875 56 
Q 41.65625 56 45.828125 52.96875 
Q 50 49.953125 52 44.1875 
z
" id="DejaVuSans-109"/>
      <path d="M 56.203125 29.59375 
L 56.203125 25.203125 
L 14.890625 25.203125 
Q 15.484375 15.921875 20.484375 11.0625 
Q 25.484375 6.203125 34.421875 6.203125 
Q 39.59375 6.203125 44.453125 7.46875 
Q 49.3125 8.734375 54.109375 11.28125 
L 54.109375 2.78125 
Q 49.265625 0.734375 44.1875 -0.34375 
Q 39.109375 -1.421875 33.890625 -1.421875 
Q 20.796875 -1.421875 13.15625 6.1875 
Q 5.515625 13.8125 5.515625 26.8125 
Q 5.515625 40.234375 12.765625 48.109375 
Q 20.015625 56 32.328125 56 
Q 43.359375 56 49.78125 48.890625 
Q 56.203125 41.796875 56.203125 29.59375 
z
M 47.21875 32.234375 
Q 47.125 39.59375 43.09375 43.984375 
Q 39.0625 48.390625 32.421875 48.390625 
Q 24.90625 48.390625 20.390625 44.140625 
Q 15.875 39.890625 15.1875 32.171875 
z
" id="DejaVuSans-101"/>
      <path id="DejaVuSans-32"/>
      <path d="M 31 75.875 
Q 24.46875 64.65625 21.28125 53.65625 
Q 18.109375 42.671875 18.109375 31.390625 
Q 18.109375 20.125 21.3125 9.0625 
Q 24.515625 -2 31 -13.1875 
L 23.1875 -13.1875 
Q 15.875 -1.703125 12.234375 9.375 
Q 8.59375 20.453125 8.59375 31.390625 
Q 8.59375 42.28125 12.203125 53.3125 
Q 15.828125 64.359375 23.1875 75.875 
z
" id="DejaVuSans-40"/>
      <path d="M 45.40625 46.390625 
L 45.40625 75.984375 
L 54.390625 75.984375 
L 54.390625 0 
L 45.40625 0 
L 45.40625 8.203125 
Q 42.578125 3.328125 38.25 0.953125 
Q 33.9375 -1.421875 27.875 -1.421875 
Q 17.96875 -1.421875 11.734375 6.484375 
Q 5.515625 14.40625 5.515625 27.296875 
Q 5.515625 40.1875 11.734375 48.09375 
Q 17.96875 56 27.875 56 
Q 33.9375 56 38.25 53.625 
Q 42.578125 51.265625 45.40625 46.390625 
z
M 14.796875 27.296875 
Q 14.796875 17.390625 18.875 11.75 
Q 22.953125 6.109375 30.078125 6.109375 
Q 37.203125 6.109375 41.296875 11.75 
Q 45.40625 17.390625 45.40625 27.296875 
Q 45.40625 37.203125 41.296875 42.84375 
Q 37.203125 48.484375 30.078125 48.484375 
Q 22.953125 48.484375 18.875 42.84375 
Q 14.796875 37.203125 14.796875 27.296875 
z
" id="DejaVuSans-100"/>
      <path d="M 34.28125 27.484375 
Q 23.390625 27.484375 19.1875 25 
Q 14.984375 22.515625 14.984375 16.5 
Q 14.984375 11.71875 18.140625 8.90625 
Q 21.296875 6.109375 26.703125 6.109375 
Q 34.1875 6.109375 38.703125 11.40625 
Q 43.21875 16.703125 43.21875 25.484375 
L 43.21875 27.484375 
z
M 52.203125 31.203125 
L 52.203125 0 
L 43.21875 0 
L 43.21875 8.296875 
Q 40.140625 3.328125 35.546875 0.953125 
Q 30.953125 -1.421875 24.3125 -1.421875 
Q 15.921875 -1.421875 10.953125 3.296875 
Q 6 8.015625 6 15.921875 
Q 6 25.140625 12.171875 29.828125 
Q 18.359375 34.515625 30.609375 34.515625 
L 43.21875 34.515625 
L 43.21875 35.40625 
Q 43.21875 41.609375 39.140625 45 
Q 35.0625 48.390625 27.6875 48.390625 
Q 23 48.390625 18.546875 47.265625 
Q 14.109375 46.140625 10.015625 43.890625 
L 10.015625 52.203125 
Q 14.9375 54.109375 19.578125 55.046875 
Q 24.21875 56 28.609375 56 
Q 40.484375 56 46.34375 49.84375 
Q 52.203125 43.703125 52.203125 31.203125 
z
" id="DejaVuSans-97"/>
      <path d="M 32.171875 -5.078125 
Q 28.375 -14.84375 24.75 -17.8125 
Q 21.140625 -20.796875 15.09375 -20.796875 
L 7.90625 -20.796875 
L 7.90625 -13.28125 
L 13.1875 -13.28125 
Q 16.890625 -13.28125 18.9375 -11.515625 
Q 21 -9.765625 23.484375 -3.21875 
L 25.09375 0.875 
L 2.984375 54.6875 
L 12.5 54.6875 
L 29.59375 11.921875 
L 46.6875 54.6875 
L 56.203125 54.6875 
z
" id="DejaVuSans-121"/>
      <path d="M 44.28125 53.078125 
L 44.28125 44.578125 
Q 40.484375 46.53125 36.375 47.5 
Q 32.28125 48.484375 27.875 48.484375 
Q 21.1875 48.484375 17.84375 46.4375 
Q 14.5 44.390625 14.5 40.28125 
Q 14.5 37.15625 16.890625 35.375 
Q 19.28125 33.59375 26.515625 31.984375 
L 29.59375 31.296875 
Q 39.15625 29.25 43.1875 25.515625 
Q 47.21875 21.78125 47.21875 15.09375 
Q 47.21875 7.46875 41.1875 3.015625 
Q 35.15625 -1.421875 24.609375 -1.421875 
Q 20.21875 -1.421875 15.453125 -0.5625 
Q 10.6875 0.296875 5.421875 2 
L 5.421875 11.28125 
Q 10.40625 8.6875 15.234375 7.390625 
Q 20.0625 6.109375 24.8125 6.109375 
Q 31.15625 6.109375 34.5625 8.28125 
Q 37.984375 10.453125 37.984375 14.40625 
Q 37.984375 18.0625 35.515625 20.015625 
Q 33.0625 21.96875 24.703125 23.78125 
L 21.578125 24.515625 
Q 13.234375 26.265625 9.515625 29.90625 
Q 5.8125 33.546875 5.8125 39.890625 
Q 5.8125 47.609375 11.28125 51.796875 
Q 16.75 56 26.8125 56 
Q 31.78125 56 36.171875 55.265625 
Q 40.578125 54.546875 44.28125 53.078125 
z
" id="DejaVuSans-115"/>
      <path d="M 8.015625 75.875 
L 15.828125 75.875 
Q 23.140625 64.359375 26.78125 53.3125 
Q 30.421875 42.28125 30.421875 31.390625 
Q 30.421875 20.453125 26.78125 9.375 
Q 23.140625 -1.703125 15.828125 -13.1875 
L 8.015625 -13.1875 
Q 14.5 -2 17.703125 9.0625 
Q 20.90625 20.125 20.90625 31.390625 
Q 20.90625 42.671875 17.703125 53.65625 
Q 14.5 64.65625 8.015625 75.875 
z
" id="DejaVuSans-41"/>
     </defs>
     <g style="fill:#262626;" transform="translate(216.024063 301.588562)scale(0.1 -0.1)">
      <use xlink:href="#DejaVuSans-116"/>
      <use x="39.208984" xlink:href="#DejaVuSans-105"/>
      <use x="66.992188" xlink:href="#DejaVuSans-109"/>
      <use x="164.404297" xlink:href="#DejaVuSans-101"/>
      <use x="225.927734" xlink:href="#DejaVuSans-32"/>
      <use x="257.714844" xlink:href="#DejaVuSans-40"/>
      <use x="296.728516" xlink:href="#DejaVuSans-100"/>
      <use x="360.205078" xlink:href="#DejaVuSans-97"/>
      <use x="421.484375" xlink:href="#DejaVuSans-121"/>
      <use x="480.664062" xlink:href="#DejaVuSans-115"/>
      <use x="532.763672" xlink:href="#DejaVuSans-41"/>
     </g>
    </g>
   </g>
   <g id="matplotlib.axis_2">
    <g id="ytick_1">
     <g id="line2d_10">
      <path clip-path="url(#p8e285c2995)" d="M 66.053125 260.398662 
L 423.173125 260.398662 
" style="fill:none;stroke:#cccccc;stroke-linecap:round;stroke-width:0.8;"/>
     </g>
     <g id="text_11">
      <!-- 50000 -->
      <g style="fill:#262626;" transform="translate(27.240625 264.197881)scale(0.1 -0.1)">
       <use xlink:href="#DejaVuSans-53"/>
       <use x="63.623047" xlink:href="#DejaVuSans-48"/>
       <use x="127.246094" xlink:href="#DejaVuSans-48"/>
       <use x="190.869141" xlink:href="#DejaVuSans-48"/>
       <use x="254.492188" xlink:href="#DejaVuSans-48"/>
      </g>
     </g>
    </g>
    <g id="ytick_2">
     <g id="line2d_11">
      <path clip-path="url(#p8e285c2995)" d="M 66.053125 230.260829 
L 423.173125 230.260829 
" style="fill:none;stroke:#cccccc;stroke-linecap:round;stroke-width:0.8;"/>
     </g>
     <g id="text_12">
      <!-- 75000 -->
      <defs>
       <path d="M 8.203125 72.90625 
L 55.078125 72.90625 
L 55.078125 68.703125 
L 28.609375 0 
L 18.3125 0 
L 43.21875 64.59375 
L 8.203125 64.59375 
z
" id="DejaVuSans-55"/>
      </defs>
      <g style="fill:#262626;" transform="translate(27.240625 234.060048)scale(0.1 -0.1)">
       <use xlink:href="#DejaVuSans-55"/>
       <use x="63.623047" xlink:href="#DejaVuSans-53"/>
       <use x="127.246094" xlink:href="#DejaVuSans-48"/>
       <use x="190.869141" xlink:href="#DejaVuSans-48"/>
       <use x="254.492188" xlink:href="#DejaVuSans-48"/>
      </g>
     </g>
    </g>
    <g id="ytick_3">
     <g id="line2d_12">
      <path clip-path="url(#p8e285c2995)" d="M 66.053125 200.122996 
L 423.173125 200.122996 
" style="fill:none;stroke:#cccccc;stroke-linecap:round;stroke-width:0.8;"/>
     </g>
     <g id="text_13">
      <!-- 100000 -->
      <g style="fill:#262626;" transform="translate(20.878125 203.922215)scale(0.1 -0.1)">
       <use xlink:href="#DejaVuSans-49"/>
       <use x="63.623047" xlink:href="#DejaVuSans-48"/>
       <use x="127.246094" xlink:href="#DejaVuSans-48"/>
       <use x="190.869141" xlink:href="#DejaVuSans-48"/>
       <use x="254.492188" xlink:href="#DejaVuSans-48"/>
       <use x="318.115234" xlink:href="#DejaVuSans-48"/>
      </g>
     </g>
    </g>
    <g id="ytick_4">
     <g id="line2d_13">
      <path clip-path="url(#p8e285c2995)" d="M 66.053125 169.985164 
L 423.173125 169.985164 
" style="fill:none;stroke:#cccccc;stroke-linecap:round;stroke-width:0.8;"/>
     </g>
     <g id="text_14">
      <!-- 125000 -->
      <g style="fill:#262626;" transform="translate(20.878125 173.784382)scale(0.1 -0.1)">
       <use xlink:href="#DejaVuSans-49"/>
       <use x="63.623047" xlink:href="#DejaVuSans-50"/>
       <use x="127.246094" xlink:href="#DejaVuSans-53"/>
       <use x="190.869141" xlink:href="#DejaVuSans-48"/>
       <use x="254.492188" xlink:href="#DejaVuSans-48"/>
       <use x="318.115234" xlink:href="#DejaVuSans-48"/>
      </g>
     </g>
    </g>
    <g id="ytick_5">
     <g id="line2d_14">
      <path clip-path="url(#p8e285c2995)" d="M 66.053125 139.847331 
L 423.173125 139.847331 
" style="fill:none;stroke:#cccccc;stroke-linecap:round;stroke-width:0.8;"/>
     </g>
     <g id="text_15">
      <!-- 150000 -->
      <g style="fill:#262626;" transform="translate(20.878125 143.64655)scale(0.1 -0.1)">
       <use xlink:href="#DejaVuSans-49"/>
       <use x="63.623047" xlink:href="#DejaVuSans-53"/>
       <use x="127.246094" xlink:href="#DejaVuSans-48"/>
       <use x="190.869141" xlink:href="#DejaVuSans-48"/>
       <use x="254.492188" xlink:href="#DejaVuSans-48"/>
       <use x="318.115234" xlink:href="#DejaVuSans-48"/>
      </g>
     </g>
    </g>
    <g id="ytick_6">
     <g id="line2d_15">
      <path clip-path="url(#p8e285c2995)" d="M 66.053125 109.709498 
L 423.173125 109.709498 
" style="fill:none;stroke:#cccccc;stroke-linecap:round;stroke-width:0.8;"/>
     </g>
     <g id="text_16">
      <!-- 175000 -->
      <g style="fill:#262626;" transform="translate(20.878125 113.508717)scale(0.1 -0.1)">
       <use xlink:href="#DejaVuSans-49"/>
       <use x="63.623047" xlink:href="#DejaVuSans-55"/>
       <use x="127.246094" xlink:href="#DejaVuSans-53"/>
       <use x="190.869141" xlink:href="#DejaVuSans-48"/>
       <use x="254.492188" xlink:href="#DejaVuSans-48"/>
       <use x="318.115234" xlink:href="#DejaVuSans-48"/>
      </g>
     </g>
    </g>
    <g id="ytick_7">
     <g id="line2d_16">
      <path clip-path="url(#p8e285c2995)" d="M 66.053125 79.571665 
L 423.173125 79.571665 
" style="fill:none;stroke:#cccccc;stroke-linecap:round;stroke-width:0.8;"/>
     </g>
     <g id="text_17">
      <!-- 200000 -->
      <g style="fill:#262626;" transform="translate(20.878125 83.370884)scale(0.1 -0.1)">
       <use xlink:href="#DejaVuSans-50"/>
       <use x="63.623047" xlink:href="#DejaVuSans-48"/>
       <use x="127.246094" xlink:href="#DejaVuSans-48"/>
       <use x="190.869141" xlink:href="#DejaVuSans-48"/>
       <use x="254.492188" xlink:href="#DejaVuSans-48"/>
       <use x="318.115234" xlink:href="#DejaVuSans-48"/>
      </g>
     </g>
    </g>
    <g id="ytick_8">
     <g id="line2d_17">
      <path clip-path="url(#p8e285c2995)" d="M 66.053125 49.433833 
L 423.173125 49.433833 
" style="fill:none;stroke:#cccccc;stroke-linecap:round;stroke-width:0.8;"/>
     </g>
     <g id="text_18">
      <!-- 225000 -->
      <g style="fill:#262626;" transform="translate(20.878125 53.233051)scale(0.1 -0.1)">
       <use xlink:href="#DejaVuSans-50"/>
       <use x="63.623047" xlink:href="#DejaVuSans-50"/>
       <use x="127.246094" xlink:href="#DejaVuSans-53"/>
       <use x="190.869141" xlink:href="#DejaVuSans-48"/>
       <use x="254.492188" xlink:href="#DejaVuSans-48"/>
       <use x="318.115234" xlink:href="#DejaVuSans-48"/>
      </g>
     </g>
    </g>
    <g id="ytick_9">
     <g id="line2d_18">
      <path clip-path="url(#p8e285c2995)" d="M 66.053125 19.296 
L 423.173125 19.296 
" style="fill:none;stroke:#cccccc;stroke-linecap:round;stroke-width:0.8;"/>
     </g>
     <g id="text_19">
      <!-- 250000 -->
      <g style="fill:#262626;" transform="translate(20.878125 23.095219)scale(0.1 -0.1)">
       <use xlink:href="#DejaVuSans-50"/>
       <use x="63.623047" xlink:href="#DejaVuSans-53"/>
       <use x="127.246094" xlink:href="#DejaVuSans-48"/>
       <use x="190.869141" xlink:href="#DejaVuSans-48"/>
       <use x="254.492188" xlink:href="#DejaVuSans-48"/>
       <use x="318.115234" xlink:href="#DejaVuSans-48"/>
      </g>
     </g>
    </g>
    <g id="text_20">
     <!-- cells number -->
     <defs>
      <path d="M 48.78125 52.59375 
L 48.78125 44.1875 
Q 44.96875 46.296875 41.140625 47.34375 
Q 37.3125 48.390625 33.40625 48.390625 
Q 24.65625 48.390625 19.8125 42.84375 
Q 14.984375 37.3125 14.984375 27.296875 
Q 14.984375 17.28125 19.8125 11.734375 
Q 24.65625 6.203125 33.40625 6.203125 
Q 37.3125 6.203125 41.140625 7.25 
Q 44.96875 8.296875 48.78125 10.40625 
L 48.78125 2.09375 
Q 45.015625 0.34375 40.984375 -0.53125 
Q 36.96875 -1.421875 32.421875 -1.421875 
Q 20.0625 -1.421875 12.78125 6.34375 
Q 5.515625 14.109375 5.515625 27.296875 
Q 5.515625 40.671875 12.859375 48.328125 
Q 20.21875 56 33.015625 56 
Q 37.15625 56 41.109375 55.140625 
Q 45.0625 54.296875 48.78125 52.59375 
z
" id="DejaVuSans-99"/>
      <path d="M 9.421875 75.984375 
L 18.40625 75.984375 
L 18.40625 0 
L 9.421875 0 
z
" id="DejaVuSans-108"/>
      <path d="M 54.890625 33.015625 
L 54.890625 0 
L 45.90625 0 
L 45.90625 32.71875 
Q 45.90625 40.484375 42.875 44.328125 
Q 39.84375 48.1875 33.796875 48.1875 
Q 26.515625 48.1875 22.3125 43.546875 
Q 18.109375 38.921875 18.109375 30.90625 
L 18.109375 0 
L 9.078125 0 
L 9.078125 54.6875 
L 18.109375 54.6875 
L 18.109375 46.1875 
Q 21.34375 51.125 25.703125 53.5625 
Q 30.078125 56 35.796875 56 
Q 45.21875 56 50.046875 50.171875 
Q 54.890625 44.34375 54.890625 33.015625 
z
" id="DejaVuSans-110"/>
      <path d="M 8.5 21.578125 
L 8.5 54.6875 
L 17.484375 54.6875 
L 17.484375 21.921875 
Q 17.484375 14.15625 20.5 10.265625 
Q 23.53125 6.390625 29.59375 6.390625 
Q 36.859375 6.390625 41.078125 11.03125 
Q 45.3125 15.671875 45.3125 23.6875 
L 45.3125 54.6875 
L 54.296875 54.6875 
L 54.296875 0 
L 45.3125 0 
L 45.3125 8.40625 
Q 42.046875 3.421875 37.71875 1 
Q 33.40625 -1.421875 27.6875 -1.421875 
Q 18.265625 -1.421875 13.375 4.4375 
Q 8.5 10.296875 8.5 21.578125 
z
M 31.109375 56 
z
" id="DejaVuSans-117"/>
      <path d="M 48.6875 27.296875 
Q 48.6875 37.203125 44.609375 42.84375 
Q 40.53125 48.484375 33.40625 48.484375 
Q 26.265625 48.484375 22.1875 42.84375 
Q 18.109375 37.203125 18.109375 27.296875 
Q 18.109375 17.390625 22.1875 11.75 
Q 26.265625 6.109375 33.40625 6.109375 
Q 40.53125 6.109375 44.609375 11.75 
Q 48.6875 17.390625 48.6875 27.296875 
z
M 18.109375 46.390625 
Q 20.953125 51.265625 25.265625 53.625 
Q 29.59375 56 35.59375 56 
Q 45.5625 56 51.78125 48.09375 
Q 58.015625 40.1875 58.015625 27.296875 
Q 58.015625 14.40625 51.78125 6.484375 
Q 45.5625 -1.421875 35.59375 -1.421875 
Q 29.59375 -1.421875 25.265625 0.953125 
Q 20.953125 3.328125 18.109375 8.203125 
L 18.109375 0 
L 9.078125 0 
L 9.078125 75.984375 
L 18.109375 75.984375 
z
" id="DejaVuSans-98"/>
      <path d="M 41.109375 46.296875 
Q 39.59375 47.171875 37.8125 47.578125 
Q 36.03125 48 33.890625 48 
Q 26.265625 48 22.1875 43.046875 
Q 18.109375 38.09375 18.109375 28.8125 
L 18.109375 0 
L 9.078125 0 
L 9.078125 54.6875 
L 18.109375 54.6875 
L 18.109375 46.1875 
Q 20.953125 51.171875 25.484375 53.578125 
Q 30.03125 56 36.53125 56 
Q 37.453125 56 38.578125 55.875 
Q 39.703125 55.765625 41.0625 55.515625 
z
" id="DejaVuSans-114"/>
     </defs>
     <g style="fill:#262626;" transform="translate(14.798438 172.567719)rotate(-90)scale(0.1 -0.1)">
      <use xlink:href="#DejaVuSans-99"/>
      <use x="54.980469" xlink:href="#DejaVuSans-101"/>
      <use x="116.503906" xlink:href="#DejaVuSans-108"/>
      <use x="144.287109" xlink:href="#DejaVuSans-108"/>
      <use x="172.070312" xlink:href="#DejaVuSans-115"/>
      <use x="224.169922" xlink:href="#DejaVuSans-32"/>
      <use x="255.957031" xlink:href="#DejaVuSans-110"/>
      <use x="319.335938" xlink:href="#DejaVuSans-117"/>
      <use x="382.714844" xlink:href="#DejaVuSans-109"/>
      <use x="480.126953" xlink:href="#DejaVuSans-98"/>
      <use x="543.603516" xlink:href="#DejaVuSans-101"/>
      <use x="605.126953" xlink:href="#DejaVuSans-114"/>
     </g>
    </g>
   </g>
   <g id="line2d_19">
    <path clip-path="url(#p8e285c2995)" d="M 82.285852 190.975561 
L 83.099523 138.78889 
L 83.913193 131.900587 
L 84.726864 142.811688 
L 86.354205 173.85245 
L 87.167876 186.174002 
L 87.981546 196.277409 
L 88.795217 203.922774 
L 90.422558 216.255176 
L 92.863569 227.99567 
L 94.49091 234.195625 
L 95.304581 235.942413 
L 96.931922 240.864524 
L 99.372934 245.214016 
L 100.186604 246.411091 
L 101.000275 247.896283 
L 102.627616 250.02522 
L 105.882298 253.194514 
L 106.695968 253.616444 
L 107.509639 254.742394 
L 108.32331 254.703817 
L 109.13698 255.38011 
L 109.950651 255.447619 
L 110.764321 256.193832 
L 111.577992 256.446989 
L 112.391662 256.456633 
L 113.205333 256.80141 
L 114.019003 256.973799 
L 114.832674 257.726039 
L 115.646344 258.144352 
L 117.273685 258.358933 
L 118.087356 258.499979 
L 118.901027 258.994239 
L 119.714697 258.993033 
L 120.528368 259.478855 
L 121.342038 259.089475 
L 122.155709 259.437868 
L 122.969379 259.376387 
L 123.78305 259.754918 
L 124.59672 259.827249 
L 125.410391 259.411347 
L 127.851403 259.887524 
L 128.665073 260.128627 
L 129.478744 260.526446 
L 131.106085 260.374552 
L 131.919755 260.009281 
L 132.733426 259.997226 
L 134.360767 260.34803 
L 135.174437 259.87788 
L 137.615449 259.848948 
L 138.42912 259.986376 
L 139.24279 259.834482 
L 140.056461 260.35888 
L 140.870131 259.583735 
L 141.683802 259.904402 
L 142.497472 259.810371 
L 143.311143 259.582529 
L 144.124813 259.72478 
L 144.938484 259.226903 
L 145.752154 259.381209 
L 147.379495 259.165422 
L 148.193166 259.430635 
L 149.006837 258.785685 
L 149.820507 258.932758 
L 150.634178 258.649462 
L 151.447848 258.513239 
L 152.261519 257.578966 
L 153.075189 257.569322 
L 153.88886 258.202217 
L 155.516201 256.953305 
L 156.329871 257.047335 
L 157.957212 256.454222 
L 158.770883 255.525977 
L 159.584554 254.201118 
L 160.398224 253.436823 
L 161.211895 252.107141 
L 163.652906 247.135605 
L 164.466577 244.337608 
L 165.280247 242.506433 
L 168.53493 231.039591 
L 170.162271 224.238085 
L 170.975941 221.198986 
L 173.416953 209.428354 
L 174.230623 206.155385 
L 176.671635 193.949563 
L 179.112647 182.418828 
L 182.367329 165.945489 
L 187.249352 143.22759 
L 192.945046 118.022718 
L 194.572387 112.089182 
L 196.199728 105.777114 
L 197.013398 102.792263 
L 197.827069 99.381866 
L 198.640739 96.533238 
L 201.081751 87.043437 
L 203.522763 78.955648 
L 206.777445 69.345296 
L 207.591115 66.5256 
L 208.404786 65.005448 
L 209.218457 62.675191 
L 210.032127 61.050159 
L 211.659468 56.917659 
L 214.10048 51.398819 
L 217.355162 45.54123 
L 218.982503 42.568434 
L 219.796174 41.690821 
L 221.423515 39.582378 
L 222.237185 38.615556 
L 225.491867 35.490866 
L 227.119208 33.753721 
L 227.932879 32.742295 
L 230.373891 30.522945 
L 231.187561 30.028685 
L 232.001232 29.317432 
L 232.814902 28.785801 
L 233.628573 28.453079 
L 235.255914 27.391022 
L 236.069584 27.164385 
L 238.510596 26.121616 
L 239.324266 25.897391 
L 240.137937 25.451351 
L 249.088313 22.602723 
L 251.529325 22.177177 
L 252.342995 21.911964 
L 255.597677 21.527405 
L 256.411348 21.315235 
L 258.038689 21.042789 
L 259.66603 20.781192 
L 262.107042 20.546117 
L 263.734383 20.342386 
L 266.175394 20.192902 
L 268.616406 20.04824 
L 280.821464 19.628722 
L 283.262476 19.492499 
L 290.585511 19.377975 
L 300.349557 19.298411 
L 338.592072 19.296 
L 406.940398 19.296 
L 406.940398 19.296 
" style="fill:none;stroke:#000080;stroke-linecap:round;stroke-width:1.5;"/>
   </g>
   <g id="line2d_20">
    <path clip-path="url(#p8e285c2995)" d="M 82.285852 189.974985 
L 83.099523 138.782863 
L 83.913193 132.302023 
L 84.726864 144.275181 
L 86.354205 174.275586 
L 87.167876 186.798458 
L 87.981546 196.490785 
L 89.608887 210.954534 
L 90.422558 216.801273 
L 91.236228 221.206219 
L 93.67724 232.160718 
L 94.49091 234.976797 
L 97.745593 243.063381 
L 98.559263 244.655864 
L 99.372934 245.907186 
L 100.186604 246.722113 
L 101.000275 248.460464 
L 101.813945 249.068042 
L 102.627616 249.901052 
L 103.441286 250.55444 
L 104.254957 251.391067 
L 105.068627 252.8196 
L 105.882298 253.272873 
L 106.695968 253.574251 
L 108.32331 254.47477 
L 109.13698 255.22701 
L 109.950651 255.388549 
L 110.764321 256.732696 
L 111.577992 256.794177 
L 112.391662 257.437921 
L 113.205333 257.157037 
L 114.019003 257.894811 
L 114.832674 257.885167 
L 115.646344 258.520472 
L 116.460015 258.598831 
L 117.273685 258.355317 
L 118.087356 258.87851 
L 118.901027 259.194354 
L 119.714697 259.718752 
L 120.528368 259.465595 
L 121.342038 259.050898 
L 123.78305 260.116572 
L 124.59672 259.660888 
L 125.410391 260.108133 
L 126.224061 259.882702 
L 127.037732 259.882702 
L 127.851403 260.431211 
L 128.665073 259.975527 
L 129.478744 260.649409 
L 130.292414 260.328742 
L 131.106085 260.470993 
L 131.919755 260.122599 
L 132.733426 260.262439 
L 133.547096 260.823003 
L 134.360767 260.886895 
L 135.988108 260.698835 
L 136.801778 260.932704 
L 137.615449 261.024323 
L 138.42912 260.544529 
L 139.24279 260.630121 
L 140.056461 260.423978 
L 140.870131 260.633737 
L 142.497472 260.763933 
L 143.311143 260.548146 
L 144.124813 259.994815 
L 144.938484 260.525241 
L 146.565825 260.470993 
L 147.379495 260.481842 
L 148.193166 259.615078 
L 149.006837 260.231096 
L 151.447848 258.858016 
L 152.261519 258.889359 
L 153.075189 257.648886 
L 153.88886 257.855029 
L 154.70253 257.889989 
L 156.329871 256.465072 
L 157.143542 255.912947 
L 157.957212 254.727927 
L 158.770883 254.134815 
L 161.211895 250.395313 
L 162.025565 248.609947 
L 162.839236 246.380953 
L 163.652906 245.362294 
L 164.466577 242.815045 
L 165.280247 240.739151 
L 166.093918 238.125598 
L 169.3486 225.31943 
L 171.789612 215.126815 
L 172.603282 211.896039 
L 173.416953 208.120372 
L 175.044294 199.422593 
L 175.857964 196.424482 
L 179.112647 180.562338 
L 179.926317 177.347234 
L 183.180999 161.878087 
L 183.99467 158.43273 
L 184.80834 153.798737 
L 188.876693 135.020456 
L 190.504034 126.877213 
L 191.317705 123.765783 
L 194.572387 108.658291 
L 195.386057 105.906104 
L 201.081751 83.572764 
L 206.777445 66.95838 
L 207.591115 65.085012 
L 208.404786 62.874101 
L 209.218457 61.237014 
L 211.659468 55.660309 
L 214.10048 50.618852 
L 214.91415 49.35668 
L 215.727821 47.883543 
L 217.355162 45.239852 
L 218.168832 43.894499 
L 221.423515 39.628187 
L 223.050856 37.960963 
L 224.678197 36.38174 
L 225.491867 35.65361 
L 227.119208 33.935754 
L 227.932879 33.207624 
L 229.56022 31.589825 
L 231.187561 30.139592 
L 232.814902 29.248718 
L 234.442243 27.913009 
L 236.069584 27.12822 
L 237.696925 26.51823 
L 239.324266 25.826266 
L 240.951608 25.446529 
L 241.765278 25.113807 
L 242.578949 24.904048 
L 244.20629 24.255482 
L 247.460972 23.211507 
L 251.529325 22.45565 
L 253.156666 21.967417 
L 253.970336 21.82155 
L 254.784007 21.868565 
L 255.597677 21.795029 
L 257.225018 21.393593 
L 260.479701 20.982513 
L 262.107042 20.853523 
L 263.734383 20.702834 
L 266.175394 20.620859 
L 267.802735 20.48102 
L 274.3121 19.979526 
L 280.007793 19.634749 
L 284.076146 19.575679 
L 287.330828 19.453922 
L 291.399181 19.411729 
L 294.653863 19.361098 
L 304.41791 19.322521 
L 332.896379 19.296 
L 406.940398 19.296 
L 406.940398 19.296 
" style="fill:none;stroke:#0000f1;stroke-linecap:round;stroke-width:1.5;"/>
   </g>
   <g id="line2d_21">
    <path clip-path="url(#p8e285c2995)" d="M 82.285852 190.581359 
L 83.099523 138.798534 
L 83.913193 132.332161 
L 84.726864 143.501242 
L 86.354205 174.291257 
L 87.167876 185.832842 
L 88.795217 203.688905 
L 89.608887 210.314406 
L 90.422558 215.920043 
L 91.236228 219.784919 
L 92.049899 224.494859 
L 95.304581 236.584952 
L 96.118251 238.82359 
L 96.931922 240.363031 
L 97.745593 242.617341 
L 98.559263 243.744496 
L 99.372934 246.019299 
L 100.186604 247.159715 
L 101.000275 248.065055 
L 104.254957 252.243364 
L 105.068627 252.724364 
L 105.882298 253.351231 
L 106.695968 254.279476 
L 107.509639 253.981715 
L 108.32331 255.164323 
L 109.13698 255.550087 
L 109.950651 256.111857 
L 111.577992 256.560308 
L 112.391662 257.252272 
L 113.205333 257.452387 
L 114.019003 257.448771 
L 115.646344 258.451758 
L 116.460015 257.985224 
L 118.087356 259.27874 
L 118.901027 259.008705 
L 119.714697 259.371565 
L 120.528368 259.28959 
L 121.342038 259.639189 
L 122.155709 259.84292 
L 122.969379 259.563241 
L 123.78305 259.505377 
L 124.59672 259.957444 
L 125.410391 259.605434 
L 126.224061 260.174437 
L 127.037732 260.050269 
L 127.851403 259.738041 
L 128.665073 260.405895 
L 131.106085 260.366113 
L 131.919755 259.992404 
L 132.733426 260.191314 
L 133.547096 260.039419 
L 134.360767 260.490281 
L 135.174437 259.752507 
L 135.988108 260.413128 
L 136.801778 260.272083 
L 137.615449 259.799522 
L 138.42912 259.559625 
L 139.24279 260.28896 
L 140.056461 259.998432 
L 140.870131 260.251589 
L 141.683802 260.241945 
L 142.497472 259.817605 
L 143.311143 259.683793 
L 144.124813 259.782645 
L 144.938484 259.716341 
L 145.752154 259.873058 
L 146.565825 259.307672 
L 147.379495 259.416169 
L 148.193166 259.652449 
L 149.006837 259.410141 
L 149.820507 259.471622 
L 150.634178 258.755547 
L 151.447848 258.595214 
L 152.261519 258.548199 
L 153.075189 257.735683 
L 153.88886 257.522307 
L 154.70253 257.005142 
L 156.329871 256.696531 
L 157.143542 255.194461 
L 157.957212 254.956975 
L 158.770883 254.313231 
L 159.584554 253.990153 
L 160.398224 252.918452 
L 161.211895 251.259666 
L 162.025565 250.056563 
L 164.466577 243.621533 
L 166.093918 237.593967 
L 168.53493 229.225293 
L 171.789612 215.792258 
L 173.416953 208.350625 
L 174.230623 204.95831 
L 183.180999 161.751508 
L 184.80834 152.549825 
L 189.690364 130.303282 
L 192.945046 116.406125 
L 194.572387 108.83309 
L 195.386057 105.759031 
L 197.013398 98.774287 
L 198.640739 92.987823 
L 200.268081 86.822828 
L 203.522763 76.180557 
L 204.336433 74.234858 
L 206.777445 66.483407 
L 210.032127 58.759684 
L 210.845798 56.609048 
L 212.473139 53.472302 
L 213.286809 52.378902 
L 214.91415 48.860008 
L 215.727821 47.402543 
L 216.541491 46.229578 
L 218.982503 42.093462 
L 219.796174 40.953047 
L 223.050856 37.623419 
L 227.119208 33.325764 
L 229.56022 31.206472 
L 231.187561 30.419271 
L 232.001232 29.794815 
L 233.628573 28.948545 
L 235.255914 27.775581 
L 240.137937 25.68281 
L 242.578949 24.80399 
L 245.01996 24.150602 
L 246.647301 23.545434 
L 249.088313 22.887224 
L 253.156666 22.07953 
L 253.970336 21.857716 
L 257.225018 21.37551 
L 258.852359 21.240493 
L 260.479701 21.224821 
L 262.920712 20.910182 
L 263.734383 20.875222 
L 264.548053 20.706451 
L 266.175394 20.620859 
L 267.802735 20.431594 
L 270.243747 20.36529 
L 275.12577 19.939744 
L 283.262476 19.673326 
L 285.703487 19.614256 
L 292.212852 19.441867 
L 349.98346 19.296 
L 406.940398 19.296 
L 406.940398 19.296 
" style="fill:none;stroke:#004cff;stroke-linecap:round;stroke-width:1.5;"/>
   </g>
   <g id="line2d_22">
    <path clip-path="url(#p8e285c2995)" d="M 82.285852 190.108797 
L 83.099523 138.958868 
L 83.913193 130.752939 
L 84.726864 141.958185 
L 86.354205 172.774722 
L 87.981546 194.886247 
L 88.795217 203.357389 
L 90.422558 215.892316 
L 92.049899 224.833608 
L 92.863569 228.700895 
L 93.67724 231.152909 
L 96.118251 239.37451 
L 97.745593 243.006721 
L 98.559263 243.849375 
L 99.372934 245.437036 
L 100.186604 246.595535 
L 101.000275 248.093988 
L 101.813945 248.736526 
L 103.441286 250.218102 
L 105.068627 252.881081 
L 105.882298 253.524825 
L 106.695968 253.38378 
L 107.509639 254.350602 
L 108.32331 255.141418 
L 109.13698 254.997962 
L 109.950651 255.775518 
L 110.764321 256.146817 
L 112.391662 257.237806 
L 113.205333 257.918921 
L 114.019003 258.190162 
L 114.832674 257.705545 
L 115.646344 258.186545 
L 117.273685 258.956868 
L 118.087356 258.587981 
L 118.901027 258.967718 
L 120.528368 259.023171 
L 121.342038 259.424607 
L 122.155709 259.548775 
L 122.969379 260.210602 
L 123.78305 259.721163 
L 124.59672 259.953828 
L 125.410391 260.00687 
L 126.224061 260.206985 
L 127.851403 259.798316 
L 128.665073 260.307043 
L 129.478744 260.260028 
L 130.292414 260.07679 
L 132.733426 260.331153 
L 133.547096 260.114161 
L 134.360767 260.489075 
L 135.174437 259.788672 
L 135.988108 260.202163 
L 136.801778 260.15997 
L 137.615449 260.291371 
L 138.42912 259.369154 
L 139.24279 259.9478 
L 140.870131 260.225068 
L 141.683802 259.959855 
L 142.497472 260.221452 
L 144.124813 260.051474 
L 144.938484 260.149121 
L 146.565825 259.335399 
L 147.379495 259.519843 
L 149.006837 259.298028 
L 149.820507 258.970129 
L 150.634178 259.203998 
L 151.447848 259.113585 
L 152.261519 259.339016 
L 153.075189 258.914675 
L 153.88886 259.032815 
L 154.70253 258.735054 
L 155.516201 258.027417 
L 156.329871 257.830919 
L 157.143542 257.160653 
L 157.957212 257.075062 
L 158.770883 256.524142 
L 159.584554 255.516333 
L 162.025565 251.510412 
L 164.466577 246.53767 
L 165.280247 244.066368 
L 166.093918 242.083298 
L 170.162271 227.652098 
L 173.416953 213.554826 
L 178.298976 191.550591 
L 179.112647 187.209538 
L 182.367329 172.350381 
L 183.99467 163.547723 
L 190.504034 131.743871 
L 195.386057 111.089811 
L 197.013398 105.335896 
L 197.827069 102.025556 
L 201.081751 90.77209 
L 202.709092 84.790333 
L 203.522763 81.97787 
L 204.336433 79.735615 
L 207.591115 69.457409 
L 209.218457 65.214002 
L 210.032127 63.239371 
L 210.845798 60.82955 
L 212.473139 57.375754 
L 213.286809 56.117199 
L 218.168832 46.581588 
L 218.982503 45.132561 
L 223.050856 39.320782 
L 223.864526 38.41303 
L 224.678197 37.325657 
L 225.491867 36.646953 
L 227.119208 34.902575 
L 229.56022 32.862847 
L 233.628573 30.067261 
L 235.255914 28.991944 
L 236.883255 28.045616 
L 238.510596 27.365706 
L 240.137937 26.526669 
L 240.951608 26.137288 
L 241.765278 25.940789 
L 244.20629 24.935391 
L 251.529325 22.628039 
L 253.156666 22.388142 
L 254.784007 22.025282 
L 255.597677 21.846866 
L 256.411348 21.529816 
L 258.852359 21.057255 
L 259.66603 21.0452 
L 261.293371 20.810125 
L 266.989065 20.307426 
L 267.802735 20.335152 
L 269.430076 20.172408 
L 287.330828 19.634749 
L 310.113603 19.406907 
L 320.69132 19.332165 
L 353.238142 19.296 
L 406.940398 19.296 
L 406.940398 19.296 
" style="fill:none;stroke:#00b0ff;stroke-linecap:round;stroke-width:1.5;"/>
   </g>
   <g id="line2d_23">
    <path clip-path="url(#p8e285c2995)" d="M 82.285852 190.194389 
L 83.099523 139.07098 
L 83.913193 132.280324 
L 84.726864 143.309565 
L 86.354205 174.114047 
L 87.167876 185.936516 
L 87.981546 195.762655 
L 88.795217 204.144589 
L 90.422558 216.468551 
L 92.049899 225.45927 
L 93.67724 231.938904 
L 95.304581 237.473415 
L 96.931922 240.706602 
L 97.745593 243.001899 
L 99.372934 246.288129 
L 101.000275 248.262759 
L 101.813945 249.83716 
L 103.441286 251.597209 
L 104.254957 252.251803 
L 105.068627 252.579703 
L 105.882298 253.47781 
L 106.695968 253.997386 
L 107.509639 254.954564 
L 108.32331 255.616391 
L 109.13698 256.134761 
L 109.950651 256.210709 
L 110.764321 257.107611 
L 111.577992 257.360768 
L 112.391662 257.815247 
L 113.205333 257.57535 
L 114.019003 258.158818 
L 114.832674 258.485512 
L 115.646344 258.56146 
L 116.460015 258.827878 
L 117.273685 258.528911 
L 118.087356 258.906236 
L 118.901027 259.578913 
L 119.714697 259.067775 
L 120.528368 259.910429 
L 121.342038 260.082817 
L 122.155709 260.043036 
L 122.969379 259.869442 
L 123.78305 260.163587 
L 125.410391 260.051474 
L 126.224061 259.867031 
L 127.037732 260.580694 
L 127.851403 260.407101 
L 128.665073 260.008076 
L 129.478744 260.316687 
L 130.292414 260.273289 
L 131.106085 260.39384 
L 131.919755 260.200958 
L 132.733426 260.567434 
L 133.547096 260.151532 
L 134.360767 260.14671 
L 135.174437 260.294988 
L 135.988108 260.167203 
L 136.801778 260.344414 
L 137.615449 259.816399 
L 138.42912 260.276905 
L 139.24279 259.965883 
L 140.056461 260.551762 
L 140.870131 260.239534 
L 141.683802 260.319098 
L 144.124813 260.143093 
L 144.938484 259.836893 
L 145.752154 260.074379 
L 146.565825 259.815194 
L 147.379495 259.909224 
L 148.193166 259.684998 
L 149.006837 259.312494 
L 149.820507 259.647627 
L 150.634178 259.615078 
L 152.261519 259.058131 
L 153.075189 259.159394 
L 154.70253 258.719382 
L 156.329871 258.256465 
L 157.143542 257.828508 
L 157.957212 257.838152 
L 159.584554 255.306574 
L 160.398224 254.570005 
L 161.211895 253.483838 
L 162.025565 252.607429 
L 162.839236 250.982398 
L 163.652906 249.770857 
L 166.907588 242.176123 
L 169.3486 233.614567 
L 170.162271 230.756295 
L 170.975941 226.954106 
L 172.603282 220.866264 
L 173.416953 216.932674 
L 175.857964 206.97634 
L 178.298976 194.763284 
L 179.112647 191.396286 
L 180.739988 183.031229 
L 187.249352 153.111594 
L 189.690364 141.114325 
L 194.572387 118.870194 
L 197.827069 104.763277 
L 198.640739 102.093065 
L 201.895422 88.968642 
L 204.336433 80.374537 
L 205.150104 78.150365 
L 206.777445 72.614648 
L 208.404786 68.489382 
L 209.218457 65.814348 
L 211.659468 59.853084 
L 212.473139 57.504744 
L 213.286809 55.918289 
L 214.10048 53.99429 
L 214.91415 52.390957 
L 217.355162 48.662304 
L 218.168832 47.26632 
L 219.796174 44.870965 
L 222.237185 41.073598 
L 223.050856 39.853618 
L 224.678197 38.082719 
L 225.491867 36.847068 
L 227.119208 34.9954 
L 229.56022 33.014741 
L 230.373891 32.624155 
L 231.187561 31.815256 
L 233.628573 29.829775 
L 234.442243 29.428339 
L 235.255914 28.829199 
L 237.696925 27.541711 
L 238.510596 26.952215 
L 239.324266 26.714729 
L 240.951608 25.934762 
L 243.392619 25.16685 
L 246.647301 23.932404 
L 247.460972 23.892622 
L 249.088313 23.31277 
L 250.715654 22.934239 
L 254.784007 22.101229 
L 258.852359 21.459896 
L 262.107042 20.933087 
L 270.243747 20.24715 
L 279.194123 19.962649 
L 281.635135 19.868619 
L 294.653863 19.570857 
L 298.722216 19.505759 
L 305.23158 19.431017 
L 307.672592 19.431017 
L 313.368286 19.402085 
L 318.250309 19.347837 
L 330.455367 19.332165 
L 349.98346 19.296 
L 406.940398 19.296 
L 406.940398 19.296 
" style="fill:none;stroke:#29ffce;stroke-linecap:round;stroke-width:1.5;"/>
   </g>
   <g id="line2d_24">
    <path clip-path="url(#p8e285c2995)" d="M 82.285852 190.955068 
L 83.099523 139.028787 
L 83.913193 132.349038 
L 84.726864 143.396362 
L 86.354205 173.512496 
L 87.981546 196.035101 
L 88.795217 203.811867 
L 90.422558 216.29978 
L 91.236228 220.353921 
L 92.049899 224.98912 
L 92.863569 228.416394 
L 95.304581 236.713942 
L 96.118251 238.660846 
L 96.931922 241.080311 
L 101.000275 248.236238 
L 102.627616 250.033659 
L 103.441286 250.96552 
L 104.254957 251.591182 
L 105.068627 252.944973 
L 105.882298 253.122184 
L 106.695968 253.733379 
L 107.509639 254.698995 
L 108.32331 255.172762 
L 109.13698 256.135967 
L 109.950651 256.563924 
L 110.764321 256.293889 
L 111.577992 257.072651 
L 113.205333 257.851412 
L 114.019003 257.804397 
L 114.832674 258.521678 
L 115.646344 258.311918 
L 118.087356 259.163011 
L 118.901027 259.240164 
L 119.714697 259.081036 
L 120.528368 259.693437 
L 121.342038 259.205204 
L 122.155709 259.742863 
L 122.969379 259.455951 
L 125.410391 260.080406 
L 127.851403 260.339592 
L 129.478744 259.850153 
L 130.292414 260.043036 
L 131.106085 259.946594 
L 131.919755 260.235918 
L 132.733426 260.080406 
L 133.547096 260.077995 
L 134.360767 259.692231 
L 135.174437 259.893552 
L 135.988108 259.780234 
L 137.615449 259.35951 
L 138.42912 259.452334 
L 139.24279 259.013527 
L 140.056461 259.353482 
L 140.870131 258.836317 
L 141.683802 259.680176 
L 143.311143 258.861633 
L 144.124813 259.642805 
L 146.565825 259.217259 
L 148.193166 258.181723 
L 149.006837 258.319152 
L 149.820507 258.680806 
L 150.634178 257.873112 
L 151.447848 258.290219 
L 152.261519 258.145558 
L 153.075189 257.217312 
L 153.88886 257.207668 
L 154.70253 256.657954 
L 155.516201 255.773107 
L 156.329871 255.517539 
L 157.143542 254.543484 
L 157.957212 253.233091 
L 158.770883 252.474823 
L 159.584554 251.088483 
L 160.398224 249.205471 
L 161.211895 247.634687 
L 162.025565 245.461147 
L 165.280247 235.144364 
L 169.3486 217.296739 
L 170.162271 214.724174 
L 171.789612 207.659866 
L 173.416953 199.438265 
L 175.044294 191.742268 
L 177.485305 180.699766 
L 179.112647 172.88804 
L 180.739988 164.829183 
L 181.553658 161.327167 
L 183.180999 152.728241 
L 183.99467 149.434778 
L 184.80834 145.179316 
L 186.435681 137.901633 
L 187.249352 133.607594 
L 188.876693 126.105685 
L 195.386057 97.479566 
L 197.013398 92.139142 
L 198.640739 86.355089 
L 200.268081 81.22563 
L 205.150104 66.795635 
L 205.963774 64.895746 
L 207.591115 60.440169 
L 210.845798 53.43252 
L 212.473139 50.923847 
L 213.286809 49.091467 
L 215.727821 45.121712 
L 217.355162 42.961432 
L 218.168832 42.136861 
L 218.982503 40.763781 
L 223.050856 35.566813 
L 224.678197 34.389027 
L 225.491867 33.627142 
L 226.305538 32.366175 
L 227.119208 31.605496 
L 227.932879 31.06181 
L 228.746549 30.688101 
L 229.56022 29.923805 
L 232.814902 28.186661 
L 234.442243 27.112548 
L 236.069584 26.489298 
L 237.696925 25.956461 
L 238.510596 25.68281 
L 239.324266 25.266907 
L 240.137937 25.116218 
L 240.951608 24.734071 
L 244.20629 23.970981 
L 245.01996 23.934815 
L 245.833631 23.67563 
L 247.460972 23.444171 
L 248.274642 23.107833 
L 249.901984 22.943883 
L 250.715654 22.608751 
L 251.529325 22.540036 
L 253.970336 21.919197 
L 256.411348 21.621435 
L 259.66603 21.050022 
L 261.293371 20.989746 
L 268.616406 20.172408 
L 271.057418 20.010869 
L 287.330828 19.421373 
L 308.486262 19.368331 
L 312.554615 19.336987 
L 321.504991 19.296 
L 406.940398 19.296 
L 406.940398 19.296 
" style="fill:none;stroke:#7dff7a;stroke-linecap:round;stroke-width:1.5;"/>
   </g>
   <g id="line2d_25">
    <path clip-path="url(#p8e285c2995)" d="M 82.285852 190.29083 
L 83.099523 138.623735 
L 83.913193 131.123031 
L 84.726864 142.873169 
L 86.354205 172.744584 
L 87.167876 184.833471 
L 87.981546 194.905535 
L 88.795217 203.316401 
L 90.422558 215.777792 
L 92.049899 224.429761 
L 92.863569 228.149975 
L 94.49091 233.779723 
L 95.304581 236.042471 
L 96.118251 238.692189 
L 97.745593 242.689671 
L 98.559263 243.670959 
L 99.372934 244.876473 
L 100.186604 246.635317 
L 101.000275 248.69795 
L 101.813945 249.678032 
L 102.627616 250.335037 
L 103.441286 251.47063 
L 104.254957 252.105936 
L 105.068627 253.240324 
L 105.882298 253.67672 
L 106.695968 254.661624 
L 108.32331 255.323451 
L 109.13698 255.694749 
L 109.950651 256.715819 
L 111.577992 257.490964 
L 112.391662 257.797164 
L 113.205333 257.903249 
L 114.019003 258.663928 
L 114.832674 258.886948 
L 115.646344 258.927936 
L 116.460015 259.175066 
L 117.273685 259.709108 
L 118.087356 259.486088 
L 118.901027 259.545159 
L 119.714697 259.929717 
L 121.342038 259.977938 
L 122.155709 259.670532 
L 122.969379 260.411923 
L 123.78305 260.024953 
L 124.59672 260.446883 
L 125.410391 260.650614 
L 126.224061 261.032762 
L 127.037732 259.996021 
L 127.851403 260.099695 
L 128.665073 259.956239 
L 129.478744 260.143093 
L 130.292414 260.948376 
L 131.106085 260.217835 
L 131.919755 260.413128 
L 132.733426 260.405895 
L 133.547096 260.619271 
L 135.174437 260.075584 
L 135.988108 260.349236 
L 136.801778 260.475815 
L 137.615449 260.266056 
L 141.683802 259.970705 
L 142.497472 259.82966 
L 143.311143 259.482472 
L 144.124813 259.740452 
L 144.938484 259.56083 
L 145.752154 259.786261 
L 146.565825 259.381209 
L 147.379495 259.953828 
L 148.193166 259.800727 
L 149.006837 259.093091 
L 149.820507 259.13649 
L 150.634178 259.331783 
L 151.447848 258.642229 
L 153.075189 258.905031 
L 153.88886 258.431264 
L 155.516201 258.031034 
L 156.329871 257.595844 
L 157.957212 255.641706 
L 158.770883 255.14624 
L 159.584554 254.400028 
L 160.398224 252.825627 
L 161.211895 252.17465 
L 162.025565 251.054728 
L 162.839236 249.524932 
L 163.652906 248.747376 
L 164.466577 246.386981 
L 165.280247 245.191112 
L 166.093918 242.601669 
L 166.907588 240.801838 
L 169.3486 232.770708 
L 170.162271 230.348832 
L 171.789612 224.282689 
L 172.603282 221.334003 
L 173.416953 217.297945 
L 175.044294 211.163087 
L 176.671635 203.954118 
L 178.298976 196.5378 
L 181.553658 180.788974 
L 183.180999 172.036947 
L 184.80834 165.05582 
L 185.622011 160.355523 
L 186.435681 156.91981 
L 188.063022 148.731964 
L 188.876693 145.361349 
L 190.504034 137.048129 
L 192.945046 126.159933 
L 197.013398 108.836707 
L 197.827069 105.349157 
L 198.640739 102.459541 
L 199.45441 99.14438 
L 200.268081 96.516361 
L 203.522763 84.627588 
L 208.404786 70.967917 
L 209.218457 69.057178 
L 211.659468 62.1086 
L 213.286809 59.097227 
L 214.10048 56.932126 
L 216.541491 51.914779 
L 217.355162 50.541699 
L 218.982503 47.403748 
L 220.609844 44.271825 
L 222.237185 42.095873 
L 223.050856 40.933758 
L 223.864526 39.514869 
L 224.678197 38.396153 
L 225.491867 36.927838 
L 226.305538 36.067101 
L 227.119208 35.522209 
L 228.746549 33.706706 
L 233.628573 30.019041 
L 234.442243 29.623633 
L 235.255914 28.94734 
L 236.069584 28.577247 
L 239.324266 26.608644 
L 241.765278 25.653877 
L 245.01996 24.291647 
L 245.833631 24.186767 
L 247.460972 23.608121 
L 249.901984 22.967994 
L 250.715654 22.691931 
L 258.038689 21.394799 
L 259.66603 21.18745 
L 261.293371 20.989746 
L 268.616406 20.283315 
L 270.243747 20.151914 
L 284.889817 19.570857 
L 288.144499 19.579296 
L 293.840193 19.482855 
L 310.927274 19.321316 
L 317.436638 19.296 
L 406.940398 19.296 
L 406.940398 19.296 
" style="fill:none;stroke:#ceff29;stroke-linecap:round;stroke-width:1.5;"/>
   </g>
   <g id="line2d_26">
    <path clip-path="url(#p8e285c2995)" d="M 82.285852 189.891805 
L 83.099523 137.747327 
L 83.913193 130.734856 
L 84.726864 141.521789 
L 86.354205 172.493837 
L 87.167876 185.101095 
L 87.981546 195.033319 
L 88.795217 203.449008 
L 89.608887 210.454246 
L 90.422558 216.273258 
L 91.236228 220.97476 
L 92.049899 224.885445 
L 93.67724 231.081784 
L 94.49091 234.064224 
L 96.118251 239.032144 
L 96.931922 241.420266 
L 97.745593 242.457007 
L 98.559263 243.868663 
L 100.186604 247.138016 
L 101.000275 248.078316 
L 101.813945 248.417065 
L 102.627616 249.974588 
L 104.254957 251.291009 
L 105.068627 252.283146 
L 107.509639 254.645952 
L 108.32331 254.779764 
L 109.13698 255.118514 
L 109.950651 255.236654 
L 110.764321 256.325233 
L 112.391662 257.017197 
L 114.019003 257.926154 
L 114.832674 258.243204 
L 115.646344 259.052104 
L 116.460015 258.614502 
L 117.273685 258.457786 
L 118.087356 259.71393 
L 118.901027 258.948429 
L 119.714697 259.395675 
L 120.528368 258.942402 
L 121.342038 259.59579 
L 122.155709 259.366743 
L 122.969379 259.613873 
L 123.78305 259.394469 
L 124.59672 259.763356 
L 125.410391 259.732013 
L 126.224061 260.144299 
L 127.037732 260.075584 
L 128.665073 260.368524 
L 129.478744 260.077995 
L 130.292414 259.34866 
L 131.106085 260.261233 
L 131.919755 260.375757 
L 132.733426 259.918868 
L 134.360767 259.839304 
L 135.988108 260.655436 
L 136.801778 260.526446 
L 137.615449 260.120188 
L 138.42912 260.533679 
L 139.24279 260.316687 
L 140.056461 260.284138 
L 140.870131 260.503542 
L 141.683802 260.262439 
L 142.497472 260.585517 
L 143.311143 259.999637 
L 144.124813 259.996021 
L 144.938484 260.257617 
L 145.752154 259.629544 
L 146.565825 260.21904 
L 147.379495 260.155148 
L 148.193166 259.801933 
L 149.006837 259.809166 
L 149.820507 259.146134 
L 150.634178 259.275124 
L 152.261519 258.78448 
L 153.075189 259.075008 
L 153.88886 258.348084 
L 154.70253 257.824891 
L 155.516201 257.484936 
L 156.329871 257.664558 
L 157.143542 256.856864 
L 157.957212 256.553075 
L 159.584554 255.31019 
L 161.211895 253.39463 
L 162.025565 251.438082 
L 162.839236 251.259666 
L 164.466577 246.996971 
L 167.721259 236.610268 
L 169.3486 230.436834 
L 170.162271 226.600891 
L 170.975941 224.025914 
L 172.603282 216.95799 
L 173.416953 212.612114 
L 174.230623 209.392188 
L 176.671635 197.386481 
L 181.553658 174.687871 
L 184.80834 157.650352 
L 188.876693 138.939579 
L 189.690364 134.576827 
L 192.131375 124.407117 
L 192.945046 119.82496 
L 193.758716 116.056526 
L 194.572387 113.016221 
L 195.386057 110.716102 
L 197.827069 100.651271 
L 199.45441 94.796093 
L 205.963774 73.987728 
L 206.777445 71.991398 
L 207.591115 69.360968 
L 208.404786 67.556314 
L 209.218457 65.37313 
L 210.032127 63.587765 
L 210.845798 61.435923 
L 214.91415 52.525974 
L 215.727821 50.852722 
L 216.541491 49.598988 
L 217.355162 47.724415 
L 218.982503 44.94209 
L 219.796174 43.937898 
L 220.609844 42.605805 
L 221.423515 41.68841 
L 223.864526 37.899481 
L 227.119208 34.112964 
L 228.746549 32.573524 
L 229.56022 32.129895 
L 230.373891 31.323406 
L 234.442243 28.191483 
L 237.696925 26.172248 
L 238.510596 25.749113 
L 239.324266 25.541764 
L 240.951608 24.785908 
L 242.578949 24.144575 
L 245.01996 23.462254 
L 245.833631 23.256111 
L 246.647301 23.166903 
L 248.274642 22.791989 
L 249.088313 22.785961 
L 250.715654 22.471322 
L 251.529325 22.402608 
L 252.342995 22.112079 
L 257.225018 21.484007 
L 258.852359 21.047611 
L 260.479701 20.958403 
L 262.107042 20.612421 
L 270.243747 20.077173 
L 280.007793 19.632338 
L 282.448805 19.667298 
L 303.604239 19.363509 
L 327.200685 19.332165 
L 344.287766 19.297206 
L 406.940398 19.296 
L 406.940398 19.296 
" style="fill:none;stroke:#ffc400;stroke-linecap:round;stroke-width:1.5;"/>
   </g>
   <g id="line2d_27">
    <path clip-path="url(#p8e285c2995)" d="M 82.285852 189.698923 
L 83.099523 138.809384 
L 83.913193 131.598003 
L 84.726864 142.755029 
L 86.354205 173.742749 
L 87.167876 186.212578 
L 87.981546 195.86874 
L 88.795217 203.814278 
L 90.422558 215.659652 
L 91.236228 220.853003 
L 92.863569 229.22891 
L 93.67724 231.16617 
L 94.49091 233.926795 
L 95.304581 236.054526 
L 96.118251 238.838056 
L 97.745593 242.441336 
L 99.372934 245.458736 
L 100.186604 246.098863 
L 101.000275 247.834802 
L 101.813945 248.79198 
L 102.627616 250.02522 
L 103.441286 250.491754 
L 105.068627 252.109552 
L 105.882298 253.200542 
L 107.509639 254.848479 
L 109.13698 255.875576 
L 110.764321 256.222764 
L 111.577992 257.154626 
L 112.391662 257.358357 
L 113.205333 257.949059 
L 114.019003 258.09131 
L 114.832674 258.111803 
L 115.646344 258.682011 
L 116.460015 258.484307 
L 117.273685 259.210026 
L 118.087356 258.923114 
L 118.901027 258.896592 
L 119.714697 258.697683 
L 120.528368 259.437868 
L 121.342038 259.28959 
L 122.969379 259.869442 
L 123.78305 259.586146 
L 125.410391 259.935745 
L 126.224061 259.863414 
L 127.037732 259.644011 
L 127.851403 259.99361 
L 128.665073 260.167203 
L 129.478744 260.109339 
L 130.292414 260.615654 
L 131.106085 260.577078 
L 131.919755 260.950787 
L 132.733426 260.601188 
L 133.547096 260.455321 
L 134.360767 260.669902 
L 135.174437 260.663875 
L 135.988108 260.245562 
L 137.615449 260.440855 
L 138.42912 260.217835 
L 139.24279 260.620476 
L 140.056461 260.291371 
L 140.870131 260.423978 
L 141.683802 259.906813 
L 142.497472 259.9478 
L 143.311143 259.711519 
L 144.124813 259.660888 
L 144.938484 259.346249 
L 145.752154 259.728397 
L 146.565825 259.190738 
L 148.193166 259.253424 
L 149.006837 258.743492 
L 149.820507 258.647051 
L 150.634178 258.829084 
L 151.447848 258.829084 
L 153.075189 258.254054 
L 153.88886 257.65853 
L 154.70253 257.335453 
L 157.143542 255.416275 
L 157.957212 254.455481 
L 158.770883 253.722529 
L 162.025565 246.462928 
L 162.839236 244.465393 
L 163.652906 242.10982 
L 167.721259 228.241594 
L 168.53493 224.697385 
L 169.3486 222.191123 
L 171.789612 211.900862 
L 172.603282 209.163141 
L 174.230623 201.920417 
L 175.044294 198.712546 
L 177.485305 186.665851 
L 179.926317 174.885575 
L 183.99467 154.74627 
L 185.622011 147.80613 
L 187.249352 140.534474 
L 188.876693 133.242324 
L 194.572387 108.206223 
L 197.013398 99.16849 
L 197.827069 96.359644 
L 198.640739 93.987194 
L 201.081751 85.092916 
L 202.709092 79.926086 
L 203.522763 77.333027 
L 204.336433 75.371657 
L 206.777445 67.916763 
L 209.218457 61.569735 
L 211.659468 56.670529 
L 213.286809 53.233611 
L 214.91415 50.100482 
L 219.796174 42.532269 
L 224.678197 36.256367 
L 226.305538 34.631335 
L 228.746549 32.222719 
L 232.001232 30.326447 
L 232.814902 29.885229 
L 233.628573 29.251129 
L 234.442243 28.847282 
L 235.255914 28.249347 
L 238.510596 26.501353 
L 239.324266 26.238551 
L 240.137937 25.782867 
L 249.088313 23.131943 
L 250.715654 23.005364 
L 253.156666 22.635272 
L 253.970336 22.389347 
L 254.784007 22.336305 
L 260.479701 21.240493 
L 274.3121 19.869824 
L 284.889817 19.604611 
L 287.330828 19.6239 
L 293.840193 19.525048 
L 301.163228 19.428606 
L 383.343952 19.296 
L 406.940398 19.296 
L 406.940398 19.296 
" style="fill:none;stroke:#ff6800;stroke-linecap:round;stroke-width:1.5;"/>
   </g>
   <g id="line2d_28">
    <path clip-path="url(#p8e285c2995)" d="M 82.285852 191.047892 
L 83.099523 139.072186 
L 83.913193 131.390655 
L 84.726864 143.522941 
L 86.354205 173.817491 
L 87.167876 186.557355 
L 87.981546 196.490785 
L 89.608887 210.633867 
L 90.422558 216.305807 
L 91.236228 220.995254 
L 92.049899 224.492448 
L 92.863569 228.840735 
L 93.67724 232.120936 
L 96.118251 239.31544 
L 97.745593 243.202015 
L 100.186604 247.604549 
L 101.000275 248.204895 
L 101.813945 249.711786 
L 102.627616 250.279583 
L 103.441286 251.211445 
L 104.254957 251.879299 
L 105.068627 252.756913 
L 105.882298 253.369314 
L 107.509639 255.071499 
L 108.32331 255.234243 
L 109.13698 255.606747 
L 110.764321 256.997909 
L 111.577992 257.172708 
L 112.391662 257.132926 
L 113.205333 257.295671 
L 114.019003 258.161229 
L 114.832674 258.651873 
L 115.646344 259.287179 
L 116.460015 258.948429 
L 117.273685 258.920703 
L 118.087356 259.475239 
L 118.901027 259.598201 
L 119.714697 260.129833 
L 120.528368 259.826043 
L 122.155709 260.188903 
L 122.969379 260.062324 
L 123.78305 260.727767 
L 127.037732 260.624093 
L 127.851403 260.775988 
L 128.665073 260.74585 
L 131.106085 261.013474 
L 132.733426 260.558995 
L 133.547096 261.216 
L 134.360767 260.558995 
L 135.174437 260.713301 
L 135.988108 261.129203 
L 137.615449 260.329948 
L 138.42912 260.340797 
L 139.24279 260.763933 
L 140.056461 260.584311 
L 140.870131 260.790454 
L 141.683802 260.773577 
L 142.497472 260.456527 
L 143.311143 260.772371 
L 144.938484 260.843496 
L 145.752154 260.024953 
L 146.565825 259.647627 
L 147.379495 260.023747 
L 148.193166 259.804344 
L 149.006837 259.797111 
L 149.820507 259.583735 
L 150.634178 259.524665 
L 151.447848 259.310083 
L 152.261519 259.253424 
L 153.075189 258.460197 
L 153.88886 258.707327 
L 154.70253 258.426442 
L 155.516201 257.914099 
L 156.329871 257.082295 
L 157.143542 256.866508 
L 157.957212 256.343315 
L 158.770883 256.150433 
L 159.584554 254.847273 
L 161.211895 253.580279 
L 162.025565 251.407944 
L 162.839236 250.102373 
L 163.652906 247.863735 
L 164.466577 246.658221 
L 165.280247 243.795127 
L 166.093918 241.973597 
L 167.721259 237.618077 
L 168.53493 234.563306 
L 169.3486 232.14143 
L 170.162271 228.616509 
L 170.975941 225.781142 
L 175.857964 204.261524 
L 181.553658 176.487703 
L 182.367329 171.687349 
L 183.180999 168.615701 
L 189.690364 137.045718 
L 190.504034 133.936699 
L 192.945046 122.659122 
L 193.758716 119.668244 
L 197.013398 105.883199 
L 198.640739 99.330029 
L 204.336433 79.493307 
L 205.150104 77.66816 
L 208.404786 67.69977 
L 209.218457 65.7384 
L 210.845798 61.247863 
L 211.659468 59.683107 
L 212.473139 57.451702 
L 214.10048 54.411397 
L 215.727821 51.835215 
L 216.541491 50.27287 
L 217.355162 49.146921 
L 218.168832 47.599041 
L 219.796174 44.919185 
L 221.423515 42.488871 
L 223.864526 39.214696 
L 224.678197 38.321411 
L 225.491867 37.252121 
L 226.305538 36.368479 
L 227.932879 34.249187 
L 228.746549 33.625937 
L 230.373891 31.98885 
L 232.001232 31.040111 
L 233.628573 29.964793 
L 236.069584 28.515766 
L 238.510596 26.683386 
L 239.324266 26.255428 
L 240.951608 25.653877 
L 242.578949 24.93298 
L 243.392619 24.589409 
L 245.01996 24.278387 
L 249.088313 23.018625 
L 254.784007 21.705821 
L 256.411348 21.556337 
L 257.225018 21.412881 
L 259.66603 21.23326 
L 262.920712 20.840263 
L 264.548053 20.690779 
L 266.175394 20.493075 
L 267.802735 20.296576 
L 269.430076 20.113338 
L 277.566782 19.866208 
L 279.194123 19.830042 
L 280.007793 19.719135 
L 284.889817 19.661271 
L 287.330828 19.545541 
L 291.399181 19.504554 
L 299.535886 19.403291 
L 305.23158 19.324932 
L 330.455367 19.336987 
L 342.660425 19.296 
L 406.940398 19.296 
L 406.940398 19.296 
" style="fill:none;stroke:#f10800;stroke-linecap:round;stroke-width:1.5;"/>
   </g>
   <g id="patch_3">
    <path d="M 66.053125 273.312 
L 66.053125 7.2 
" style="fill:none;stroke:#cccccc;stroke-linecap:square;stroke-linejoin:miter;stroke-width:0.8;"/>
   </g>
   <g id="patch_4">
    <path d="M 423.173125 273.312 
L 423.173125 7.2 
" style="fill:none;stroke:#cccccc;stroke-linecap:square;stroke-linejoin:miter;stroke-width:0.8;"/>
   </g>
   <g id="patch_5">
    <path d="M 66.053125 273.312 
L 423.173125 273.312 
" style="fill:none;stroke:#cccccc;stroke-linecap:square;stroke-linejoin:miter;stroke-width:0.8;"/>
   </g>
   <g id="patch_6">
    <path d="M 66.053125 7.2 
L 423.173125 7.2 
" style="fill:none;stroke:#cccccc;stroke-linecap:square;stroke-linejoin:miter;stroke-width:0.8;"/>
   </g>
  </g>
 </g>
 <defs>
  <clipPath id="p8e285c2995">
   <rect height="266.112" width="357.12" x="66.053125" y="7.2"/>
  </clipPath>
 </defs>
</svg>
