<?xml version="1.0" encoding="utf-8" standalone="no"?>
<!DOCTYPE svg PUBLIC "-//W3C//DTD SVG 1.1//EN"
  "http://www.w3.org/Graphics/SVG/1.1/DTD/svg11.dtd">
<!-- Created with matplotlib (https://matplotlib.org/) -->
<svg height="310.86825pt" version="1.1" viewBox="0 0 430.373125 310.86825" width="430.373125pt" xmlns="http://www.w3.org/2000/svg" xmlns:xlink="http://www.w3.org/1999/xlink">
 <defs>
  <style type="text/css">
*{stroke-linecap:butt;stroke-linejoin:round;white-space:pre;}
  </style>
 </defs>
 <g id="figure_1">
  <g id="patch_1">
   <path d="M 0 310.86825 
L 430.373125 310.86825 
L 430.373125 0 
L 0 0 
z
" style="fill:#ffffff;"/>
  </g>
  <g id="axes_1">
   <g id="patch_2">
    <path d="M 66.053125 273.312 
L 423.173125 273.312 
L 423.173125 7.2 
L 66.053125 7.2 
z
" style="fill:#ffffff;"/>
   </g>
   <g id="matplotlib.axis_1">
    <g id="xtick_1">
     <g id="line2d_1">
      <path clip-path="url(#pc5d331c5b1)" d="M 82.285852 273.312 
L 82.285852 7.2 
" style="fill:none;stroke:#cccccc;stroke-linecap:round;stroke-width:0.8;"/>
     </g>
     <g id="text_1">
      <!-- 0 -->
      <defs>
       <path d="M 31.78125 66.40625 
Q 24.171875 66.40625 20.328125 58.90625 
Q 16.5 51.421875 16.5 36.375 
Q 16.5 21.390625 20.328125 13.890625 
Q 24.171875 6.390625 31.78125 6.390625 
Q 39.453125 6.390625 43.28125 13.890625 
Q 47.125 21.390625 47.125 36.375 
Q 47.125 51.421875 43.28125 58.90625 
Q 39.453125 66.40625 31.78125 66.40625 
z
M 31.78125 74.21875 
Q 44.046875 74.21875 50.515625 64.515625 
Q 56.984375 54.828125 56.984375 36.375 
Q 56.984375 17.96875 50.515625 8.265625 
Q 44.046875 -1.421875 31.78125 -1.421875 
Q 19.53125 -1.421875 13.0625 8.265625 
Q 6.59375 17.96875 6.59375 36.375 
Q 6.59375 54.828125 13.0625 64.515625 
Q 19.53125 74.21875 31.78125 74.21875 
z
" id="DejaVuSans-48"/>
      </defs>
      <g style="fill:#262626;" transform="translate(79.104602 287.910437)scale(0.1 -0.1)">
       <use xlink:href="#DejaVuSans-48"/>
      </g>
     </g>
    </g>
    <g id="xtick_2">
     <g id="line2d_2">
      <path clip-path="url(#pc5d331c5b1)" d="M 122.969379 273.312 
L 122.969379 7.2 
" style="fill:none;stroke:#cccccc;stroke-linecap:round;stroke-width:0.8;"/>
     </g>
     <g id="text_2">
      <!-- 5 -->
      <defs>
       <path d="M 10.796875 72.90625 
L 49.515625 72.90625 
L 49.515625 64.59375 
L 19.828125 64.59375 
L 19.828125 46.734375 
Q 21.96875 47.46875 24.109375 47.828125 
Q 26.265625 48.1875 28.421875 48.1875 
Q 40.625 48.1875 47.75 41.5 
Q 54.890625 34.8125 54.890625 23.390625 
Q 54.890625 11.625 47.5625 5.09375 
Q 40.234375 -1.421875 26.90625 -1.421875 
Q 22.3125 -1.421875 17.546875 -0.640625 
Q 12.796875 0.140625 7.71875 1.703125 
L 7.71875 11.625 
Q 12.109375 9.234375 16.796875 8.0625 
Q 21.484375 6.890625 26.703125 6.890625 
Q 35.15625 6.890625 40.078125 11.328125 
Q 45.015625 15.765625 45.015625 23.390625 
Q 45.015625 31 40.078125 35.4375 
Q 35.15625 39.890625 26.703125 39.890625 
Q 22.75 39.890625 18.8125 39.015625 
Q 14.890625 38.140625 10.796875 36.28125 
z
" id="DejaVuSans-53"/>
      </defs>
      <g style="fill:#262626;" transform="translate(119.788129 287.910437)scale(0.1 -0.1)">
       <use xlink:href="#DejaVuSans-53"/>
      </g>
     </g>
    </g>
    <g id="xtick_3">
     <g id="line2d_3">
      <path clip-path="url(#pc5d331c5b1)" d="M 163.652906 273.312 
L 163.652906 7.2 
" style="fill:none;stroke:#cccccc;stroke-linecap:round;stroke-width:0.8;"/>
     </g>
     <g id="text_3">
      <!-- 10 -->
      <defs>
       <path d="M 12.40625 8.296875 
L 28.515625 8.296875 
L 28.515625 63.921875 
L 10.984375 60.40625 
L 10.984375 69.390625 
L 28.421875 72.90625 
L 38.28125 72.90625 
L 38.28125 8.296875 
L 54.390625 8.296875 
L 54.390625 0 
L 12.40625 0 
z
" id="DejaVuSans-49"/>
      </defs>
      <g style="fill:#262626;" transform="translate(157.290406 287.910437)scale(0.1 -0.1)">
       <use xlink:href="#DejaVuSans-49"/>
       <use x="63.623047" xlink:href="#DejaVuSans-48"/>
      </g>
     </g>
    </g>
    <g id="xtick_4">
     <g id="line2d_4">
      <path clip-path="url(#pc5d331c5b1)" d="M 204.336433 273.312 
L 204.336433 7.2 
" style="fill:none;stroke:#cccccc;stroke-linecap:round;stroke-width:0.8;"/>
     </g>
     <g id="text_4">
      <!-- 15 -->
      <g style="fill:#262626;" transform="translate(197.973933 287.910437)scale(0.1 -0.1)">
       <use xlink:href="#DejaVuSans-49"/>
       <use x="63.623047" xlink:href="#DejaVuSans-53"/>
      </g>
     </g>
    </g>
    <g id="xtick_5">
     <g id="line2d_5">
      <path clip-path="url(#pc5d331c5b1)" d="M 245.01996 273.312 
L 245.01996 7.2 
" style="fill:none;stroke:#cccccc;stroke-linecap:round;stroke-width:0.8;"/>
     </g>
     <g id="text_5">
      <!-- 20 -->
      <defs>
       <path d="M 19.1875 8.296875 
L 53.609375 8.296875 
L 53.609375 0 
L 7.328125 0 
L 7.328125 8.296875 
Q 12.9375 14.109375 22.625 23.890625 
Q 32.328125 33.6875 34.8125 36.53125 
Q 39.546875 41.84375 41.421875 45.53125 
Q 43.3125 49.21875 43.3125 52.78125 
Q 43.3125 58.59375 39.234375 62.25 
Q 35.15625 65.921875 28.609375 65.921875 
Q 23.96875 65.921875 18.8125 64.3125 
Q 13.671875 62.703125 7.8125 59.421875 
L 7.8125 69.390625 
Q 13.765625 71.78125 18.9375 73 
Q 24.125 74.21875 28.421875 74.21875 
Q 39.75 74.21875 46.484375 68.546875 
Q 53.21875 62.890625 53.21875 53.421875 
Q 53.21875 48.921875 51.53125 44.890625 
Q 49.859375 40.875 45.40625 35.40625 
Q 44.1875 33.984375 37.640625 27.21875 
Q 31.109375 20.453125 19.1875 8.296875 
z
" id="DejaVuSans-50"/>
      </defs>
      <g style="fill:#262626;" transform="translate(238.65746 287.910437)scale(0.1 -0.1)">
       <use xlink:href="#DejaVuSans-50"/>
       <use x="63.623047" xlink:href="#DejaVuSans-48"/>
      </g>
     </g>
    </g>
    <g id="xtick_6">
     <g id="line2d_6">
      <path clip-path="url(#pc5d331c5b1)" d="M 285.703487 273.312 
L 285.703487 7.2 
" style="fill:none;stroke:#cccccc;stroke-linecap:round;stroke-width:0.8;"/>
     </g>
     <g id="text_6">
      <!-- 25 -->
      <g style="fill:#262626;" transform="translate(279.340987 287.910437)scale(0.1 -0.1)">
       <use xlink:href="#DejaVuSans-50"/>
       <use x="63.623047" xlink:href="#DejaVuSans-53"/>
      </g>
     </g>
    </g>
    <g id="xtick_7">
     <g id="line2d_7">
      <path clip-path="url(#pc5d331c5b1)" d="M 326.387014 273.312 
L 326.387014 7.2 
" style="fill:none;stroke:#cccccc;stroke-linecap:round;stroke-width:0.8;"/>
     </g>
     <g id="text_7">
      <!-- 30 -->
      <defs>
       <path d="M 40.578125 39.3125 
Q 47.65625 37.796875 51.625 33 
Q 55.609375 28.21875 55.609375 21.1875 
Q 55.609375 10.40625 48.1875 4.484375 
Q 40.765625 -1.421875 27.09375 -1.421875 
Q 22.515625 -1.421875 17.65625 -0.515625 
Q 12.796875 0.390625 7.625 2.203125 
L 7.625 11.71875 
Q 11.71875 9.328125 16.59375 8.109375 
Q 21.484375 6.890625 26.8125 6.890625 
Q 36.078125 6.890625 40.9375 10.546875 
Q 45.796875 14.203125 45.796875 21.1875 
Q 45.796875 27.640625 41.28125 31.265625 
Q 36.765625 34.90625 28.71875 34.90625 
L 20.21875 34.90625 
L 20.21875 43.015625 
L 29.109375 43.015625 
Q 36.375 43.015625 40.234375 45.921875 
Q 44.09375 48.828125 44.09375 54.296875 
Q 44.09375 59.90625 40.109375 62.90625 
Q 36.140625 65.921875 28.71875 65.921875 
Q 24.65625 65.921875 20.015625 65.03125 
Q 15.375 64.15625 9.8125 62.3125 
L 9.8125 71.09375 
Q 15.4375 72.65625 20.34375 73.4375 
Q 25.25 74.21875 29.59375 74.21875 
Q 40.828125 74.21875 47.359375 69.109375 
Q 53.90625 64.015625 53.90625 55.328125 
Q 53.90625 49.265625 50.4375 45.09375 
Q 46.96875 40.921875 40.578125 39.3125 
z
" id="DejaVuSans-51"/>
      </defs>
      <g style="fill:#262626;" transform="translate(320.024514 287.910437)scale(0.1 -0.1)">
       <use xlink:href="#DejaVuSans-51"/>
       <use x="63.623047" xlink:href="#DejaVuSans-48"/>
      </g>
     </g>
    </g>
    <g id="xtick_8">
     <g id="line2d_8">
      <path clip-path="url(#pc5d331c5b1)" d="M 367.070541 273.312 
L 367.070541 7.2 
" style="fill:none;stroke:#cccccc;stroke-linecap:round;stroke-width:0.8;"/>
     </g>
     <g id="text_8">
      <!-- 35 -->
      <g style="fill:#262626;" transform="translate(360.708041 287.910437)scale(0.1 -0.1)">
       <use xlink:href="#DejaVuSans-51"/>
       <use x="63.623047" xlink:href="#DejaVuSans-53"/>
      </g>
     </g>
    </g>
    <g id="xtick_9">
     <g id="line2d_9">
      <path clip-path="url(#pc5d331c5b1)" d="M 407.754068 273.312 
L 407.754068 7.2 
" style="fill:none;stroke:#cccccc;stroke-linecap:round;stroke-width:0.8;"/>
     </g>
     <g id="text_9">
      <!-- 40 -->
      <defs>
       <path d="M 37.796875 64.3125 
L 12.890625 25.390625 
L 37.796875 25.390625 
z
M 35.203125 72.90625 
L 47.609375 72.90625 
L 47.609375 25.390625 
L 58.015625 25.390625 
L 58.015625 17.1875 
L 47.609375 17.1875 
L 47.609375 0 
L 37.796875 0 
L 37.796875 17.1875 
L 4.890625 17.1875 
L 4.890625 26.703125 
z
" id="DejaVuSans-52"/>
      </defs>
      <g style="fill:#262626;" transform="translate(401.391568 287.910437)scale(0.1 -0.1)">
       <use xlink:href="#DejaVuSans-52"/>
       <use x="63.623047" xlink:href="#DejaVuSans-48"/>
      </g>
     </g>
    </g>
    <g id="text_10">
     <!-- time (days) -->
     <defs>
      <path d="M 18.3125 70.21875 
L 18.3125 54.6875 
L 36.8125 54.6875 
L 36.8125 47.703125 
L 18.3125 47.703125 
L 18.3125 18.015625 
Q 18.3125 11.328125 20.140625 9.421875 
Q 21.96875 7.515625 27.59375 7.515625 
L 36.8125 7.515625 
L 36.8125 0 
L 27.59375 0 
Q 17.1875 0 13.234375 3.875 
Q 9.28125 7.765625 9.28125 18.015625 
L 9.28125 47.703125 
L 2.6875 47.703125 
L 2.6875 54.6875 
L 9.28125 54.6875 
L 9.28125 70.21875 
z
" id="DejaVuSans-116"/>
      <path d="M 9.421875 54.6875 
L 18.40625 54.6875 
L 18.40625 0 
L 9.421875 0 
z
M 9.421875 75.984375 
L 18.40625 75.984375 
L 18.40625 64.59375 
L 9.421875 64.59375 
z
" id="DejaVuSans-105"/>
      <path d="M 52 44.1875 
Q 55.375 50.25 60.0625 53.125 
Q 64.75 56 71.09375 56 
Q 79.640625 56 84.28125 50.015625 
Q 88.921875 44.046875 88.921875 33.015625 
L 88.921875 0 
L 79.890625 0 
L 79.890625 32.71875 
Q 79.890625 40.578125 77.09375 44.375 
Q 74.3125 48.1875 68.609375 48.1875 
Q 61.625 48.1875 57.5625 43.546875 
Q 53.515625 38.921875 53.515625 30.90625 
L 53.515625 0 
L 44.484375 0 
L 44.484375 32.71875 
Q 44.484375 40.625 41.703125 44.40625 
Q 38.921875 48.1875 33.109375 48.1875 
Q 26.21875 48.1875 22.15625 43.53125 
Q 18.109375 38.875 18.109375 30.90625 
L 18.109375 0 
L 9.078125 0 
L 9.078125 54.6875 
L 18.109375 54.6875 
L 18.109375 46.1875 
Q 21.1875 51.21875 25.484375 53.609375 
Q 29.78125 56 35.6875 56 
Q 41.65625 56 45.828125 52.96875 
Q 50 49.953125 52 44.1875 
z
" id="DejaVuSans-109"/>
      <path d="M 56.203125 29.59375 
L 56.203125 25.203125 
L 14.890625 25.203125 
Q 15.484375 15.921875 20.484375 11.0625 
Q 25.484375 6.203125 34.421875 6.203125 
Q 39.59375 6.203125 44.453125 7.46875 
Q 49.3125 8.734375 54.109375 11.28125 
L 54.109375 2.78125 
Q 49.265625 0.734375 44.1875 -0.34375 
Q 39.109375 -1.421875 33.890625 -1.421875 
Q 20.796875 -1.421875 13.15625 6.1875 
Q 5.515625 13.8125 5.515625 26.8125 
Q 5.515625 40.234375 12.765625 48.109375 
Q 20.015625 56 32.328125 56 
Q 43.359375 56 49.78125 48.890625 
Q 56.203125 41.796875 56.203125 29.59375 
z
M 47.21875 32.234375 
Q 47.125 39.59375 43.09375 43.984375 
Q 39.0625 48.390625 32.421875 48.390625 
Q 24.90625 48.390625 20.390625 44.140625 
Q 15.875 39.890625 15.1875 32.171875 
z
" id="DejaVuSans-101"/>
      <path id="DejaVuSans-32"/>
      <path d="M 31 75.875 
Q 24.46875 64.65625 21.28125 53.65625 
Q 18.109375 42.671875 18.109375 31.390625 
Q 18.109375 20.125 21.3125 9.0625 
Q 24.515625 -2 31 -13.1875 
L 23.1875 -13.1875 
Q 15.875 -1.703125 12.234375 9.375 
Q 8.59375 20.453125 8.59375 31.390625 
Q 8.59375 42.28125 12.203125 53.3125 
Q 15.828125 64.359375 23.1875 75.875 
z
" id="DejaVuSans-40"/>
      <path d="M 45.40625 46.390625 
L 45.40625 75.984375 
L 54.390625 75.984375 
L 54.390625 0 
L 45.40625 0 
L 45.40625 8.203125 
Q 42.578125 3.328125 38.25 0.953125 
Q 33.9375 -1.421875 27.875 -1.421875 
Q 17.96875 -1.421875 11.734375 6.484375 
Q 5.515625 14.40625 5.515625 27.296875 
Q 5.515625 40.1875 11.734375 48.09375 
Q 17.96875 56 27.875 56 
Q 33.9375 56 38.25 53.625 
Q 42.578125 51.265625 45.40625 46.390625 
z
M 14.796875 27.296875 
Q 14.796875 17.390625 18.875 11.75 
Q 22.953125 6.109375 30.078125 6.109375 
Q 37.203125 6.109375 41.296875 11.75 
Q 45.40625 17.390625 45.40625 27.296875 
Q 45.40625 37.203125 41.296875 42.84375 
Q 37.203125 48.484375 30.078125 48.484375 
Q 22.953125 48.484375 18.875 42.84375 
Q 14.796875 37.203125 14.796875 27.296875 
z
" id="DejaVuSans-100"/>
      <path d="M 34.28125 27.484375 
Q 23.390625 27.484375 19.1875 25 
Q 14.984375 22.515625 14.984375 16.5 
Q 14.984375 11.71875 18.140625 8.90625 
Q 21.296875 6.109375 26.703125 6.109375 
Q 34.1875 6.109375 38.703125 11.40625 
Q 43.21875 16.703125 43.21875 25.484375 
L 43.21875 27.484375 
z
M 52.203125 31.203125 
L 52.203125 0 
L 43.21875 0 
L 43.21875 8.296875 
Q 40.140625 3.328125 35.546875 0.953125 
Q 30.953125 -1.421875 24.3125 -1.421875 
Q 15.921875 -1.421875 10.953125 3.296875 
Q 6 8.015625 6 15.921875 
Q 6 25.140625 12.171875 29.828125 
Q 18.359375 34.515625 30.609375 34.515625 
L 43.21875 34.515625 
L 43.21875 35.40625 
Q 43.21875 41.609375 39.140625 45 
Q 35.0625 48.390625 27.6875 48.390625 
Q 23 48.390625 18.546875 47.265625 
Q 14.109375 46.140625 10.015625 43.890625 
L 10.015625 52.203125 
Q 14.9375 54.109375 19.578125 55.046875 
Q 24.21875 56 28.609375 56 
Q 40.484375 56 46.34375 49.84375 
Q 52.203125 43.703125 52.203125 31.203125 
z
" id="DejaVuSans-97"/>
      <path d="M 32.171875 -5.078125 
Q 28.375 -14.84375 24.75 -17.8125 
Q 21.140625 -20.796875 15.09375 -20.796875 
L 7.90625 -20.796875 
L 7.90625 -13.28125 
L 13.1875 -13.28125 
Q 16.890625 -13.28125 18.9375 -11.515625 
Q 21 -9.765625 23.484375 -3.21875 
L 25.09375 0.875 
L 2.984375 54.6875 
L 12.5 54.6875 
L 29.59375 11.921875 
L 46.6875 54.6875 
L 56.203125 54.6875 
z
" id="DejaVuSans-121"/>
      <path d="M 44.28125 53.078125 
L 44.28125 44.578125 
Q 40.484375 46.53125 36.375 47.5 
Q 32.28125 48.484375 27.875 48.484375 
Q 21.1875 48.484375 17.84375 46.4375 
Q 14.5 44.390625 14.5 40.28125 
Q 14.5 37.15625 16.890625 35.375 
Q 19.28125 33.59375 26.515625 31.984375 
L 29.59375 31.296875 
Q 39.15625 29.25 43.1875 25.515625 
Q 47.21875 21.78125 47.21875 15.09375 
Q 47.21875 7.46875 41.1875 3.015625 
Q 35.15625 -1.421875 24.609375 -1.421875 
Q 20.21875 -1.421875 15.453125 -0.5625 
Q 10.6875 0.296875 5.421875 2 
L 5.421875 11.28125 
Q 10.40625 8.6875 15.234375 7.390625 
Q 20.0625 6.109375 24.8125 6.109375 
Q 31.15625 6.109375 34.5625 8.28125 
Q 37.984375 10.453125 37.984375 14.40625 
Q 37.984375 18.0625 35.515625 20.015625 
Q 33.0625 21.96875 24.703125 23.78125 
L 21.578125 24.515625 
Q 13.234375 26.265625 9.515625 29.90625 
Q 5.8125 33.546875 5.8125 39.890625 
Q 5.8125 47.609375 11.28125 51.796875 
Q 16.75 56 26.8125 56 
Q 31.78125 56 36.171875 55.265625 
Q 40.578125 54.546875 44.28125 53.078125 
z
" id="DejaVuSans-115"/>
      <path d="M 8.015625 75.875 
L 15.828125 75.875 
Q 23.140625 64.359375 26.78125 53.3125 
Q 30.421875 42.28125 30.421875 31.390625 
Q 30.421875 20.453125 26.78125 9.375 
Q 23.140625 -1.703125 15.828125 -13.1875 
L 8.015625 -13.1875 
Q 14.5 -2 17.703125 9.0625 
Q 20.90625 20.125 20.90625 31.390625 
Q 20.90625 42.671875 17.703125 53.65625 
Q 14.5 64.65625 8.015625 75.875 
z
" id="DejaVuSans-41"/>
     </defs>
     <g style="fill:#262626;" transform="translate(216.024063 301.588562)scale(0.1 -0.1)">
      <use xlink:href="#DejaVuSans-116"/>
      <use x="39.208984" xlink:href="#DejaVuSans-105"/>
      <use x="66.992188" xlink:href="#DejaVuSans-109"/>
      <use x="164.404297" xlink:href="#DejaVuSans-101"/>
      <use x="225.927734" xlink:href="#DejaVuSans-32"/>
      <use x="257.714844" xlink:href="#DejaVuSans-40"/>
      <use x="296.728516" xlink:href="#DejaVuSans-100"/>
      <use x="360.205078" xlink:href="#DejaVuSans-97"/>
      <use x="421.484375" xlink:href="#DejaVuSans-121"/>
      <use x="480.664062" xlink:href="#DejaVuSans-115"/>
      <use x="532.763672" xlink:href="#DejaVuSans-41"/>
     </g>
    </g>
   </g>
   <g id="matplotlib.axis_2">
    <g id="ytick_1">
     <g id="line2d_10">
      <path clip-path="url(#pc5d331c5b1)" d="M 66.053125 263.182948 
L 423.173125 263.182948 
" style="fill:none;stroke:#cccccc;stroke-linecap:round;stroke-width:0.8;"/>
     </g>
     <g id="text_11">
      <!-- 50000 -->
      <g style="fill:#262626;" transform="translate(27.240625 266.982167)scale(0.1 -0.1)">
       <use xlink:href="#DejaVuSans-53"/>
       <use x="63.623047" xlink:href="#DejaVuSans-48"/>
       <use x="127.246094" xlink:href="#DejaVuSans-48"/>
       <use x="190.869141" xlink:href="#DejaVuSans-48"/>
       <use x="254.492188" xlink:href="#DejaVuSans-48"/>
      </g>
     </g>
    </g>
    <g id="ytick_2">
     <g id="line2d_11">
      <path clip-path="url(#pc5d331c5b1)" d="M 66.053125 232.69708 
L 423.173125 232.69708 
" style="fill:none;stroke:#cccccc;stroke-linecap:round;stroke-width:0.8;"/>
     </g>
     <g id="text_12">
      <!-- 75000 -->
      <defs>
       <path d="M 8.203125 72.90625 
L 55.078125 72.90625 
L 55.078125 68.703125 
L 28.609375 0 
L 18.3125 0 
L 43.21875 64.59375 
L 8.203125 64.59375 
z
" id="DejaVuSans-55"/>
      </defs>
      <g style="fill:#262626;" transform="translate(27.240625 236.496298)scale(0.1 -0.1)">
       <use xlink:href="#DejaVuSans-55"/>
       <use x="63.623047" xlink:href="#DejaVuSans-53"/>
       <use x="127.246094" xlink:href="#DejaVuSans-48"/>
       <use x="190.869141" xlink:href="#DejaVuSans-48"/>
       <use x="254.492188" xlink:href="#DejaVuSans-48"/>
      </g>
     </g>
    </g>
    <g id="ytick_3">
     <g id="line2d_12">
      <path clip-path="url(#pc5d331c5b1)" d="M 66.053125 202.211211 
L 423.173125 202.211211 
" style="fill:none;stroke:#cccccc;stroke-linecap:round;stroke-width:0.8;"/>
     </g>
     <g id="text_13">
      <!-- 100000 -->
      <g style="fill:#262626;" transform="translate(20.878125 206.01043)scale(0.1 -0.1)">
       <use xlink:href="#DejaVuSans-49"/>
       <use x="63.623047" xlink:href="#DejaVuSans-48"/>
       <use x="127.246094" xlink:href="#DejaVuSans-48"/>
       <use x="190.869141" xlink:href="#DejaVuSans-48"/>
       <use x="254.492188" xlink:href="#DejaVuSans-48"/>
       <use x="318.115234" xlink:href="#DejaVuSans-48"/>
      </g>
     </g>
    </g>
    <g id="ytick_4">
     <g id="line2d_13">
      <path clip-path="url(#pc5d331c5b1)" d="M 66.053125 171.725343 
L 423.173125 171.725343 
" style="fill:none;stroke:#cccccc;stroke-linecap:round;stroke-width:0.8;"/>
     </g>
     <g id="text_14">
      <!-- 125000 -->
      <g style="fill:#262626;" transform="translate(20.878125 175.524561)scale(0.1 -0.1)">
       <use xlink:href="#DejaVuSans-49"/>
       <use x="63.623047" xlink:href="#DejaVuSans-50"/>
       <use x="127.246094" xlink:href="#DejaVuSans-53"/>
       <use x="190.869141" xlink:href="#DejaVuSans-48"/>
       <use x="254.492188" xlink:href="#DejaVuSans-48"/>
       <use x="318.115234" xlink:href="#DejaVuSans-48"/>
      </g>
     </g>
    </g>
    <g id="ytick_5">
     <g id="line2d_14">
      <path clip-path="url(#pc5d331c5b1)" d="M 66.053125 141.239474 
L 423.173125 141.239474 
" style="fill:none;stroke:#cccccc;stroke-linecap:round;stroke-width:0.8;"/>
     </g>
     <g id="text_15">
      <!-- 150000 -->
      <g style="fill:#262626;" transform="translate(20.878125 145.038693)scale(0.1 -0.1)">
       <use xlink:href="#DejaVuSans-49"/>
       <use x="63.623047" xlink:href="#DejaVuSans-53"/>
       <use x="127.246094" xlink:href="#DejaVuSans-48"/>
       <use x="190.869141" xlink:href="#DejaVuSans-48"/>
       <use x="254.492188" xlink:href="#DejaVuSans-48"/>
       <use x="318.115234" xlink:href="#DejaVuSans-48"/>
      </g>
     </g>
    </g>
    <g id="ytick_6">
     <g id="line2d_15">
      <path clip-path="url(#pc5d331c5b1)" d="M 66.053125 110.753606 
L 423.173125 110.753606 
" style="fill:none;stroke:#cccccc;stroke-linecap:round;stroke-width:0.8;"/>
     </g>
     <g id="text_16">
      <!-- 175000 -->
      <g style="fill:#262626;" transform="translate(20.878125 114.552824)scale(0.1 -0.1)">
       <use xlink:href="#DejaVuSans-49"/>
       <use x="63.623047" xlink:href="#DejaVuSans-55"/>
       <use x="127.246094" xlink:href="#DejaVuSans-53"/>
       <use x="190.869141" xlink:href="#DejaVuSans-48"/>
       <use x="254.492188" xlink:href="#DejaVuSans-48"/>
       <use x="318.115234" xlink:href="#DejaVuSans-48"/>
      </g>
     </g>
    </g>
    <g id="ytick_7">
     <g id="line2d_16">
      <path clip-path="url(#pc5d331c5b1)" d="M 66.053125 80.267737 
L 423.173125 80.267737 
" style="fill:none;stroke:#cccccc;stroke-linecap:round;stroke-width:0.8;"/>
     </g>
     <g id="text_17">
      <!-- 200000 -->
      <g style="fill:#262626;" transform="translate(20.878125 84.066956)scale(0.1 -0.1)">
       <use xlink:href="#DejaVuSans-50"/>
       <use x="63.623047" xlink:href="#DejaVuSans-48"/>
       <use x="127.246094" xlink:href="#DejaVuSans-48"/>
       <use x="190.869141" xlink:href="#DejaVuSans-48"/>
       <use x="254.492188" xlink:href="#DejaVuSans-48"/>
       <use x="318.115234" xlink:href="#DejaVuSans-48"/>
      </g>
     </g>
    </g>
    <g id="ytick_8">
     <g id="line2d_17">
      <path clip-path="url(#pc5d331c5b1)" d="M 66.053125 49.781869 
L 423.173125 49.781869 
" style="fill:none;stroke:#cccccc;stroke-linecap:round;stroke-width:0.8;"/>
     </g>
     <g id="text_18">
      <!-- 225000 -->
      <g style="fill:#262626;" transform="translate(20.878125 53.581087)scale(0.1 -0.1)">
       <use xlink:href="#DejaVuSans-50"/>
       <use x="63.623047" xlink:href="#DejaVuSans-50"/>
       <use x="127.246094" xlink:href="#DejaVuSans-53"/>
       <use x="190.869141" xlink:href="#DejaVuSans-48"/>
       <use x="254.492188" xlink:href="#DejaVuSans-48"/>
       <use x="318.115234" xlink:href="#DejaVuSans-48"/>
      </g>
     </g>
    </g>
    <g id="ytick_9">
     <g id="line2d_18">
      <path clip-path="url(#pc5d331c5b1)" d="M 66.053125 19.296 
L 423.173125 19.296 
" style="fill:none;stroke:#cccccc;stroke-linecap:round;stroke-width:0.8;"/>
     </g>
     <g id="text_19">
      <!-- 250000 -->
      <g style="fill:#262626;" transform="translate(20.878125 23.095219)scale(0.1 -0.1)">
       <use xlink:href="#DejaVuSans-50"/>
       <use x="63.623047" xlink:href="#DejaVuSans-53"/>
       <use x="127.246094" xlink:href="#DejaVuSans-48"/>
       <use x="190.869141" xlink:href="#DejaVuSans-48"/>
       <use x="254.492188" xlink:href="#DejaVuSans-48"/>
       <use x="318.115234" xlink:href="#DejaVuSans-48"/>
      </g>
     </g>
    </g>
    <g id="text_20">
     <!-- cells number -->
     <defs>
      <path d="M 48.78125 52.59375 
L 48.78125 44.1875 
Q 44.96875 46.296875 41.140625 47.34375 
Q 37.3125 48.390625 33.40625 48.390625 
Q 24.65625 48.390625 19.8125 42.84375 
Q 14.984375 37.3125 14.984375 27.296875 
Q 14.984375 17.28125 19.8125 11.734375 
Q 24.65625 6.203125 33.40625 6.203125 
Q 37.3125 6.203125 41.140625 7.25 
Q 44.96875 8.296875 48.78125 10.40625 
L 48.78125 2.09375 
Q 45.015625 0.34375 40.984375 -0.53125 
Q 36.96875 -1.421875 32.421875 -1.421875 
Q 20.0625 -1.421875 12.78125 6.34375 
Q 5.515625 14.109375 5.515625 27.296875 
Q 5.515625 40.671875 12.859375 48.328125 
Q 20.21875 56 33.015625 56 
Q 37.15625 56 41.109375 55.140625 
Q 45.0625 54.296875 48.78125 52.59375 
z
" id="DejaVuSans-99"/>
      <path d="M 9.421875 75.984375 
L 18.40625 75.984375 
L 18.40625 0 
L 9.421875 0 
z
" id="DejaVuSans-108"/>
      <path d="M 54.890625 33.015625 
L 54.890625 0 
L 45.90625 0 
L 45.90625 32.71875 
Q 45.90625 40.484375 42.875 44.328125 
Q 39.84375 48.1875 33.796875 48.1875 
Q 26.515625 48.1875 22.3125 43.546875 
Q 18.109375 38.921875 18.109375 30.90625 
L 18.109375 0 
L 9.078125 0 
L 9.078125 54.6875 
L 18.109375 54.6875 
L 18.109375 46.1875 
Q 21.34375 51.125 25.703125 53.5625 
Q 30.078125 56 35.796875 56 
Q 45.21875 56 50.046875 50.171875 
Q 54.890625 44.34375 54.890625 33.015625 
z
" id="DejaVuSans-110"/>
      <path d="M 8.5 21.578125 
L 8.5 54.6875 
L 17.484375 54.6875 
L 17.484375 21.921875 
Q 17.484375 14.15625 20.5 10.265625 
Q 23.53125 6.390625 29.59375 6.390625 
Q 36.859375 6.390625 41.078125 11.03125 
Q 45.3125 15.671875 45.3125 23.6875 
L 45.3125 54.6875 
L 54.296875 54.6875 
L 54.296875 0 
L 45.3125 0 
L 45.3125 8.40625 
Q 42.046875 3.421875 37.71875 1 
Q 33.40625 -1.421875 27.6875 -1.421875 
Q 18.265625 -1.421875 13.375 4.4375 
Q 8.5 10.296875 8.5 21.578125 
z
M 31.109375 56 
z
" id="DejaVuSans-117"/>
      <path d="M 48.6875 27.296875 
Q 48.6875 37.203125 44.609375 42.84375 
Q 40.53125 48.484375 33.40625 48.484375 
Q 26.265625 48.484375 22.1875 42.84375 
Q 18.109375 37.203125 18.109375 27.296875 
Q 18.109375 17.390625 22.1875 11.75 
Q 26.265625 6.109375 33.40625 6.109375 
Q 40.53125 6.109375 44.609375 11.75 
Q 48.6875 17.390625 48.6875 27.296875 
z
M 18.109375 46.390625 
Q 20.953125 51.265625 25.265625 53.625 
Q 29.59375 56 35.59375 56 
Q 45.5625 56 51.78125 48.09375 
Q 58.015625 40.1875 58.015625 27.296875 
Q 58.015625 14.40625 51.78125 6.484375 
Q 45.5625 -1.421875 35.59375 -1.421875 
Q 29.59375 -1.421875 25.265625 0.953125 
Q 20.953125 3.328125 18.109375 8.203125 
L 18.109375 0 
L 9.078125 0 
L 9.078125 75.984375 
L 18.109375 75.984375 
z
" id="DejaVuSans-98"/>
      <path d="M 41.109375 46.296875 
Q 39.59375 47.171875 37.8125 47.578125 
Q 36.03125 48 33.890625 48 
Q 26.265625 48 22.1875 43.046875 
Q 18.109375 38.09375 18.109375 28.8125 
L 18.109375 0 
L 9.078125 0 
L 9.078125 54.6875 
L 18.109375 54.6875 
L 18.109375 46.1875 
Q 20.953125 51.171875 25.484375 53.578125 
Q 30.03125 56 36.53125 56 
Q 37.453125 56 38.578125 55.875 
Q 39.703125 55.765625 41.0625 55.515625 
z
" id="DejaVuSans-114"/>
     </defs>
     <g style="fill:#262626;" transform="translate(14.798438 172.567719)rotate(-90)scale(0.1 -0.1)">
      <use xlink:href="#DejaVuSans-99"/>
      <use x="54.980469" xlink:href="#DejaVuSans-101"/>
      <use x="116.503906" xlink:href="#DejaVuSans-108"/>
      <use x="144.287109" xlink:href="#DejaVuSans-108"/>
      <use x="172.070312" xlink:href="#DejaVuSans-115"/>
      <use x="224.169922" xlink:href="#DejaVuSans-32"/>
      <use x="255.957031" xlink:href="#DejaVuSans-110"/>
      <use x="319.335938" xlink:href="#DejaVuSans-117"/>
      <use x="382.714844" xlink:href="#DejaVuSans-109"/>
      <use x="480.126953" xlink:href="#DejaVuSans-98"/>
      <use x="543.603516" xlink:href="#DejaVuSans-101"/>
      <use x="605.126953" xlink:href="#DejaVuSans-114"/>
     </g>
    </g>
   </g>
   <g id="line2d_19">
    <path clip-path="url(#pc5d331c5b1)" d="M 82.285852 242.858629 
L 83.099523 254.01158 
L 83.913193 259.7917 
L 84.726864 259.779506 
L 85.540534 259.349045 
L 87.167876 256.668728 
L 87.981546 254.826162 
L 91.236228 245.515778 
L 92.049899 243.325673 
L 92.863569 240.713644 
L 94.49091 234.748169 
L 95.304581 232.449534 
L 96.118251 229.318026 
L 96.931922 227.25962 
L 97.745593 224.008607 
L 98.559263 221.939226 
L 99.372934 218.672361 
L 100.186604 216.762726 
L 101.000275 213.10808 
L 102.627616 207.788906 
L 104.254957 200.22841 
L 105.068627 196.448163 
L 106.695968 191.305806 
L 108.32331 183.966029 
L 109.13698 181.419849 
L 109.950651 177.499366 
L 110.764321 174.714177 
L 111.577992 171.043679 
L 112.391662 166.743952 
L 113.205333 163.549033 
L 114.019003 159.524898 
L 115.646344 152.546073 
L 117.273685 147.447616 
L 118.901027 140.546835 
L 119.714697 138.101869 
L 120.528368 135.256927 
L 121.342038 130.449916 
L 122.155709 127.294018 
L 123.78305 118.737245 
L 124.59672 115.860598 
L 127.037732 104.421081 
L 127.851403 100.36646 
L 128.665073 95.524085 
L 130.292414 88.751345 
L 131.106085 86.28077 
L 133.547096 75.163183 
L 134.360767 71.403666 
L 135.988108 63.028588 
L 136.801778 61.529903 
L 138.42912 57.538693 
L 139.24279 53.127997 
L 140.056461 47.872234 
L 140.870131 44.185883 
L 142.497472 39.159372 
L 143.311143 37.726537 
L 144.938484 36.507102 
L 145.752154 35.514482 
L 146.565825 33.851173 
L 147.379495 31.469617 
L 149.006837 28.410055 
L 150.634178 25.366346 
L 151.447848 23.506708 
L 152.261519 22.025095 
L 153.075189 20.99955 
L 153.88886 20.330081 
L 154.70253 19.894742 
L 155.516201 19.626467 
L 157.143542 19.408188 
L 160.398224 19.302097 
L 186.435681 19.296 
L 406.940398 19.296 
L 406.940398 19.296 
" style="fill:none;stroke:#000080;stroke-linecap:round;stroke-width:1.5;"/>
   </g>
   <g id="line2d_20">
    <path clip-path="url(#pc5d331c5b1)" d="M 82.285852 242.487921 
L 83.099523 254.235956 
L 83.913193 260.056318 
L 84.726864 260.627013 
L 85.540534 259.827064 
L 86.354205 258.661284 
L 87.981546 254.123768 
L 88.795217 252.189744 
L 90.422558 247.333955 
L 91.236228 244.963374 
L 92.049899 243.075689 
L 93.67724 237.546772 
L 94.49091 235.905413 
L 98.559263 220.70272 
L 100.186604 215.468906 
L 101.813945 207.993771 
L 102.627616 205.246384 
L 104.254957 200.769839 
L 105.882298 194.01539 
L 106.695968 190.677797 
L 108.32331 184.728175 
L 110.764321 173.95203 
L 111.577992 169.747419 
L 112.391662 167.80486 
L 114.019003 163.073453 
L 114.832674 158.11889 
L 118.087356 144.985578 
L 118.901027 141.012659 
L 125.410391 114.300941 
L 127.037732 105.835625 
L 131.106085 88.300154 
L 132.733426 83.822389 
L 133.547096 80.160427 
L 134.360767 77.13379 
L 135.174437 74.990023 
L 137.615449 66.71372 
L 138.42912 63.085902 
L 139.24279 61.103101 
L 140.056461 59.471497 
L 141.683802 55.597353 
L 143.311143 54.646194 
L 144.124813 55.386391 
L 144.938484 55.371757 
L 145.752154 55.49614 
L 146.565825 53.918191 
L 147.379495 52.031726 
L 149.006837 51.39762 
L 149.820507 51.4403 
L 150.634178 50.817169 
L 151.447848 48.697791 
L 152.261519 47.143012 
L 153.075189 44.96876 
L 154.70253 39.632513 
L 157.143542 31.978121 
L 157.957212 30.935505 
L 158.770883 30.679423 
L 159.584554 31.09647 
L 160.398224 31.348893 
L 161.211895 31.357429 
L 162.025565 31.008671 
L 162.839236 29.572177 
L 165.280247 24.17252 
L 166.907588 22.004365 
L 167.721259 21.666581 
L 169.3486 21.381233 
L 170.162271 21.49708 
L 170.975941 21.308067 
L 171.789612 21.476349 
L 174.230623 22.871383 
L 175.044294 22.566524 
L 175.857964 21.589757 
L 176.671635 20.794685 
L 177.485305 20.263012 
L 179.112647 19.639881 
L 180.739988 19.399652 
L 183.99467 19.303317 
L 223.050856 19.296 
L 406.940398 19.296 
L 406.940398 19.296 
" style="fill:none;stroke:#0000f1;stroke-linecap:round;stroke-width:1.5;"/>
   </g>
   <g id="line2d_21">
    <path clip-path="url(#pc5d331c5b1)" d="M 82.285852 242.345247 
L 83.099523 253.634774 
L 83.913193 259.673415 
L 84.726864 261.216 
L 85.540534 259.98559 
L 86.354205 258.318623 
L 87.167876 256.31875 
L 87.981546 254.828601 
L 88.795217 252.534844 
L 89.608887 250.632526 
L 90.422558 247.974158 
L 91.236228 245.832831 
L 92.049899 242.734247 
L 92.863569 241.262389 
L 93.67724 238.143075 
L 95.304581 233.327527 
L 96.118251 230.378934 
L 97.745593 224.987813 
L 100.186604 215.812786 
L 101.813945 209.285152 
L 102.627616 206.727997 
L 103.441286 202.945311 
L 104.254957 201.084453 
L 105.068627 197.823685 
L 105.882298 193.992221 
L 106.695968 191.171668 
L 112.391662 167.343914 
L 113.205333 163.428309 
L 114.832674 157.199436 
L 115.646344 152.954584 
L 116.460015 150.65473 
L 117.273685 147.024473 
L 118.087356 144.391713 
L 119.714697 136.565381 
L 120.528368 132.849763 
L 122.155709 124.366156 
L 124.59672 113.299785 
L 126.224061 107.169687 
L 127.037732 102.878496 
L 127.851403 100.38841 
L 128.665073 97.444695 
L 131.919755 83.118775 
L 133.547096 74.547369 
L 134.360767 71.365863 
L 135.174437 69.787915 
L 135.988108 68.845292 
L 136.801778 67.70512 
L 138.42912 66.050347 
L 140.870131 62.579836 
L 143.311143 59.360528 
L 144.124813 56.3595 
L 144.938484 54.255975 
L 146.565825 48.110023 
L 148.193166 42.53111 
L 149.820507 38.887439 
L 151.447848 37.213155 
L 152.261519 37.441189 
L 153.075189 38.265527 
L 153.88886 38.852075 
L 154.70253 38.566727 
L 155.516201 37.780192 
L 156.329871 36.665628 
L 157.143542 34.966956 
L 157.957212 31.940319 
L 158.770883 29.684365 
L 159.584554 28.964898 
L 160.398224 29.32829 
L 162.025565 31.907394 
L 162.839236 32.224447 
L 164.466577 30.537969 
L 165.280247 30.540408 
L 166.093918 32.912208 
L 166.907588 34.781602 
L 168.53493 36.518077 
L 169.3486 38.036273 
L 170.162271 38.825247 
L 170.975941 38.967921 
L 172.603282 40.979989 
L 173.416953 41.345819 
L 174.230623 41.022669 
L 175.044294 41.126321 
L 176.671635 40.745857 
L 178.298976 41.242167 
L 179.926317 41.226314 
L 180.739988 41.60312 
L 181.553658 41.700674 
L 182.367329 42.281125 
L 183.180999 41.827496 
L 183.99467 40.908042 
L 184.80834 39.150836 
L 185.622011 38.311865 
L 188.063022 38.361862 
L 188.876693 38.107 
L 189.690364 38.30211 
L 190.504034 39.244733 
L 191.317705 40.370271 
L 192.131375 41.744574 
L 192.945046 42.455505 
L 193.758716 42.716464 
L 194.572387 42.07748 
L 196.199728 41.182415 
L 197.013398 40.993402 
L 197.827069 40.626352 
L 198.640739 39.283755 
L 199.45441 38.51673 
L 201.081751 35.813244 
L 201.895422 34.012138 
L 202.709092 32.889039 
L 205.150104 32.709782 
L 206.777445 32.256152 
L 207.591115 31.792767 
L 208.404786 31.554977 
L 209.218457 32.150062 
L 210.032127 32.229325 
L 210.845798 32.58418 
L 212.473139 34.642586 
L 214.10048 36.0803 
L 214.91415 35.905921 
L 215.727821 36.299798 
L 216.541491 36.257118 
L 218.168832 34.751116 
L 218.982503 33.647527 
L 220.609844 32.587839 
L 221.423515 31.803742 
L 223.050856 30.670887 
L 223.864526 30.733078 
L 224.678197 30.531872 
L 225.491867 31.248899 
L 226.305538 30.990379 
L 227.119208 30.369687 
L 227.932879 30.446511 
L 228.746549 29.928252 
L 229.56022 28.851491 
L 230.373891 28.374692 
L 231.187561 27.70888 
L 232.001232 26.734552 
L 232.814902 26.318725 
L 233.628573 26.083374 
L 234.442243 25.516337 
L 236.883255 23.348182 
L 238.510596 21.227585 
L 239.324266 20.470316 
L 240.137937 19.96425 
L 241.765278 19.477696 
L 244.20629 19.325266 
L 255.597677 19.296 
L 406.940398 19.296 
L 406.940398 19.296 
" style="fill:none;stroke:#004cff;stroke-linecap:round;stroke-width:1.5;"/>
   </g>
   <g id="line2d_22">
    <path clip-path="url(#pc5d331c5b1)" d="M 82.285852 242.389147 
L 83.099523 253.564047 
L 83.913193 259.695365 
L 84.726864 260.958699 
L 85.540534 259.797797 
L 86.354205 258.384473 
L 87.167876 256.633364 
L 89.608887 250.087439 
L 90.422558 247.681494 
L 91.236228 245.634063 
L 92.049899 242.889115 
L 92.863569 240.997772 
L 93.67724 238.160147 
L 94.49091 234.889623 
L 95.304581 232.510506 
L 96.931922 227.318153 
L 97.745593 225.413396 
L 100.186604 215.183558 
L 101.000275 212.13741 
L 101.813945 209.640008 
L 105.068627 196.965203 
L 105.882298 193.399576 
L 106.695968 191.14728 
L 110.764321 174.604428 
L 111.577992 170.870519 
L 114.019003 161.632081 
L 114.832674 158.455454 
L 115.646344 154.044758 
L 118.901027 140.819989 
L 120.528368 135.376432 
L 122.155709 128.981716 
L 122.969379 124.301526 
L 124.59672 118.673834 
L 126.224061 111.116997 
L 127.037732 106.658744 
L 127.851403 102.939468 
L 130.292414 94.405863 
L 131.106085 90.242713 
L 132.733426 83.817512 
L 134.360767 79.359258 
L 135.174437 76.342377 
L 135.988108 72.523107 
L 136.801778 70.059849 
L 137.615449 67.053942 
L 139.24279 59.108105 
L 140.056461 55.665641 
L 141.683802 47.268614 
L 142.497472 44.310265 
L 144.124813 40.344663 
L 145.752154 37.125355 
L 146.565825 34.808429 
L 147.379495 33.348766 
L 148.193166 32.45614 
L 149.006837 32.028118 
L 149.820507 30.903799 
L 151.447848 30.106289 
L 152.261519 28.495416 
L 153.075189 26.076057 
L 153.88886 24.432259 
L 154.70253 23.417689 
L 155.516201 23.012837 
L 156.329871 23.131122 
L 157.143542 22.754317 
L 158.770883 20.789808 
L 159.584554 20.187407 
L 160.398224 19.804504 
L 161.211895 19.560617 
L 162.839236 19.367947 
L 166.907588 19.299658 
L 243.392619 19.296 
L 406.940398 19.296 
L 406.940398 19.296 
" style="fill:none;stroke:#00b0ff;stroke-linecap:round;stroke-width:1.5;"/>
   </g>
   <g id="line2d_23">
    <path clip-path="url(#pc5d331c5b1)" d="M 82.285852 243.61224 
L 83.099523 253.904269 
L 83.913193 260.498972 
L 84.726864 260.453853 
L 86.354205 258.506416 
L 87.167876 256.371186 
L 87.981546 254.754215 
L 88.795217 252.523869 
L 89.608887 249.919157 
L 90.422558 248.647286 
L 91.236228 244.978007 
L 92.049899 242.53304 
L 92.863569 240.818515 
L 93.67724 237.777245 
L 94.49091 234.242104 
L 95.304581 232.82634 
L 96.118251 229.7619 
L 96.931922 227.286448 
L 99.372934 218.024841 
L 100.186604 215.496953 
L 101.000275 211.838648 
L 101.813945 209.360757 
L 102.627616 205.603679 
L 104.254957 200.386937 
L 105.068627 196.654247 
L 106.695968 191.369217 
L 107.509639 187.71701 
L 108.32331 185.270824 
L 109.13698 181.386924 
L 109.950651 178.351751 
L 110.764321 174.554431 
L 112.391662 168.023139 
L 113.205333 164.897728 
L 114.832674 157.517708 
L 115.646344 154.664231 
L 116.460015 151.380293 
L 118.901027 143.111306 
L 121.342038 131.64862 
L 122.155709 128.04641 
L 122.969379 125.56486 
L 125.410391 115.299658 
L 127.037732 108.244009 
L 127.851403 103.446753 
L 128.665073 100.490843 
L 131.106085 89.630557 
L 131.919755 85.177181 
L 133.547096 78.269084 
L 134.360767 74.131541 
L 137.615449 55.385171 
L 138.42912 52.413409 
L 139.24279 50.979353 
L 140.056461 49.230684 
L 141.683802 46.41379 
L 142.497472 45.483361 
L 143.311143 44.139544 
L 144.124813 42.061627 
L 144.938484 38.721595 
L 148.193166 28.758814 
L 149.820507 25.459023 
L 150.634178 24.156667 
L 151.447848 23.218922 
L 152.261519 22.461653 
L 153.075189 22.076311 
L 153.88886 21.94949 
L 154.70253 22.043386 
L 155.516201 21.903151 
L 156.329871 22.071433 
L 157.143542 23.327451 
L 157.957212 25.454145 
L 158.770883 27.017461 
L 160.398224 27.727172 
L 161.211895 28.579557 
L 162.025565 30.784295 
L 163.652906 34.015797 
L 165.280247 40.072729 
L 166.093918 41.159245 
L 167.721259 41.870176 
L 168.53493 41.854323 
L 170.162271 41.04218 
L 170.975941 41.793352 
L 171.789612 41.038521 
L 173.416953 37.216813 
L 175.044294 35.026708 
L 175.857964 34.29017 
L 176.671635 34.436502 
L 177.485305 34.762091 
L 179.112647 35.801049 
L 179.926317 35.480338 
L 180.739988 34.574298 
L 181.553658 34.37553 
L 182.367329 34.995003 
L 183.180999 36.765622 
L 183.99467 37.094869 
L 184.80834 37.283882 
L 185.622011 38.359423 
L 186.435681 38.564288 
L 187.249352 37.887502 
L 188.063022 37.43997 
L 188.876693 37.293637 
L 189.690364 36.352234 
L 190.504034 36.125419 
L 191.317705 35.686422 
L 192.945046 36.324187 
L 193.758716 36.971707 
L 194.572387 37.430214 
L 195.386057 38.635016 
L 196.199728 38.678915 
L 197.827069 37.127794 
L 198.640739 35.720567 
L 200.268081 30.7721 
L 201.895422 26.406524 
L 202.709092 25.110265 
L 205.963774 21.764136 
L 206.777445 20.837366 
L 207.591115 20.182529 
L 208.404786 19.797188 
L 210.032127 19.448429 
L 213.286809 19.314292 
L 234.442243 19.296 
L 406.940398 19.296 
L 406.940398 19.296 
" style="fill:none;stroke:#29ffce;stroke-linecap:round;stroke-width:1.5;"/>
   </g>
   <g id="line2d_24">
    <path clip-path="url(#pc5d331c5b1)" d="M 82.285852 242.573282 
L 83.099523 253.915244 
L 83.913193 259.874622 
L 84.726864 260.856267 
L 85.540534 260.127045 
L 87.167876 255.933409 
L 87.981546 254.57252 
L 88.795217 251.661729 
L 89.608887 249.377728 
L 90.422558 247.90465 
L 91.236228 245.501144 
L 92.049899 243.681748 
L 93.67724 238.384523 
L 94.49091 234.889623 
L 96.931922 227.505946 
L 97.745593 224.13299 
L 100.186604 216.393237 
L 101.000275 212.826391 
L 103.441286 203.634292 
L 104.254957 200.130856 
L 107.509639 188.087718 
L 109.13698 181.744218 
L 109.950651 176.875016 
L 111.577992 170.383964 
L 112.391662 166.637861 
L 113.205333 163.988029 
L 114.019003 160.267534 
L 114.832674 157.928658 
L 115.646344 154.348398 
L 116.460015 150.130373 
L 118.087356 143.150328 
L 121.342038 132.379061 
L 126.224061 106.528264 
L 127.851403 98.994596 
L 128.665073 93.883945 
L 131.919755 82.218833 
L 132.733426 77.637416 
L 133.547096 73.973015 
L 135.174437 67.81365 
L 137.615449 56.40096 
L 139.24279 52.445114 
L 142.497472 42.359169 
L 143.311143 38.909388 
L 144.124813 36.287604 
L 146.565825 32.667102 
L 147.379495 31.919588 
L 148.193166 31.683018 
L 149.820507 30.10507 
L 150.634178 29.923374 
L 151.447848 30.355054 
L 152.261519 30.062389 
L 153.075189 29.452672 
L 153.88886 28.05398 
L 154.70253 25.152945 
L 155.516201 22.925038 
L 156.329871 21.499519 
L 157.143542 20.50446 
L 157.957212 19.981322 
L 158.770883 19.670366 
L 160.398224 19.397213 
L 163.652906 19.311853 
L 179.926317 19.296 
L 406.940398 19.296 
L 406.940398 19.296 
" style="fill:none;stroke:#7dff7a;stroke-linecap:round;stroke-width:1.5;"/>
   </g>
   <g id="line2d_25">
    <path clip-path="url(#pc5d331c5b1)" d="M 82.285852 242.758636 
L 83.099523 254.044504 
L 83.913193 260.314838 
L 84.726864 261.014793 
L 85.540534 259.508791 
L 86.354205 257.456483 
L 87.167876 256.261437 
L 87.981546 253.896953 
L 88.795217 252.766537 
L 89.608887 250.388639 
L 90.422558 248.619239 
L 91.236228 245.426759 
L 92.049899 243.108614 
L 92.863569 240.027102 
L 94.49091 235.490805 
L 95.304581 232.087362 
L 96.118251 230.175289 
L 97.745593 224.750023 
L 102.627616 206.825552 
L 103.441286 203.780624 
L 105.068627 196.703024 
L 105.882298 194.476337 
L 108.32331 182.618553 
L 109.13698 179.741907 
L 110.764321 175.078788 
L 111.577992 170.763209 
L 112.391662 167.096368 
L 113.205333 165.157467 
L 114.019003 160.593123 
L 114.832674 156.814095 
L 117.273685 147.759792 
L 118.901027 139.65299 
L 119.714697 136.367832 
L 120.528368 134.110659 
L 124.59672 115.68378 
L 125.410391 110.517035 
L 127.037732 102.738261 
L 128.665073 97.654438 
L 129.478744 95.305806 
L 131.106085 87.994076 
L 131.919755 82.67856 
L 132.733426 78.521507 
L 134.360767 72.58164 
L 135.988108 66.575924 
L 137.615449 57.694781 
L 140.056461 40.456851 
L 140.870131 37.73995 
L 141.683802 36.346137 
L 142.497472 35.321811 
L 143.311143 34.823063 
L 144.124813 33.437785 
L 144.938484 31.135492 
L 146.565825 27.611326 
L 147.379495 26.251656 
L 149.820507 21.364161 
L 150.634178 20.512996 
L 151.447848 20.017905 
L 152.261519 19.699633 
L 153.88886 19.428918 
L 157.143542 19.305755 
L 183.99467 19.296 
L 406.940398 19.296 
L 406.940398 19.296 
" style="fill:none;stroke:#ceff29;stroke-linecap:round;stroke-width:1.5;"/>
   </g>
   <g id="line2d_26">
    <path clip-path="url(#pc5d331c5b1)" d="M 82.285852 242.923259 
L 83.099523 254.332291 
L 83.913193 260.083145 
L 84.726864 260.945285 
L 85.540534 259.539277 
L 86.354205 259.068575 
L 87.167876 256.024866 
L 88.795217 253.014082 
L 90.422558 247.353466 
L 91.236228 245.198725 
L 92.049899 242.579379 
L 92.863569 240.950214 
L 93.67724 237.434584 
L 96.931922 226.157251 
L 98.559263 220.179582 
L 99.372934 218.061424 
L 100.186604 215.629871 
L 101.813945 208.675435 
L 105.068627 196.923742 
L 105.882298 193.393479 
L 106.695968 191.070455 
L 107.509639 188.034063 
L 109.13698 180.889395 
L 110.764321 174.550773 
L 111.577992 170.452253 
L 113.205333 164.225819 
L 114.019003 161.780852 
L 115.646344 154.254501 
L 116.460015 151.058363 
L 118.901027 140.060281 
L 119.714697 137.879931 
L 123.78305 120.535911 
L 124.59672 116.614209 
L 129.478744 97.953199 
L 130.292414 95.068017 
L 131.106085 91.703596 
L 131.919755 87.330703 
L 133.547096 80.453091 
L 135.174437 75.548525 
L 135.988108 72.169471 
L 136.801778 69.315994 
L 137.615449 68.200211 
L 138.42912 66.666162 
L 139.24279 63.463926 
L 140.056461 61.088467 
L 141.683802 54.099887 
L 142.497472 52.104892 
L 144.124813 50.041608 
L 144.938484 48.559995 
L 146.565825 44.183444 
L 147.379495 43.014006 
L 148.193166 41.355574 
L 149.006837 40.827559 
L 149.820507 39.98371 
L 150.634178 40.04834 
L 151.447848 40.371491 
L 153.075189 42.218934 
L 153.88886 44.743164 
L 154.70253 45.889433 
L 155.516201 46.480859 
L 156.329871 46.608899 
L 157.143542 46.943024 
L 157.957212 47.08204 
L 158.770883 46.289407 
L 159.584554 45.871141 
L 162.025565 42.349414 
L 162.839236 40.921456 
L 163.652906 38.783787 
L 164.466577 37.536305 
L 165.280247 36.66319 
L 166.093918 36.302237 
L 166.907588 35.3023 
L 168.53493 34.249928 
L 169.3486 33.374374 
L 170.162271 33.114634 
L 171.789612 32.187864 
L 172.603282 31.18305 
L 173.416953 30.570894 
L 175.044294 28.774666 
L 179.112647 22.503113 
L 179.926317 22.347026 
L 181.553658 22.438483 
L 182.367329 22.055581 
L 183.99467 20.530068 
L 184.80834 20.080097 
L 186.435681 19.550862 
L 188.063022 19.380141 
L 192.131375 19.299658 
L 230.373891 19.296 
L 406.940398 19.296 
L 406.940398 19.296 
" style="fill:none;stroke:#ffc400;stroke-linecap:round;stroke-width:1.5;"/>
   </g>
   <g id="line2d_27">
    <path clip-path="url(#pc5d331c5b1)" d="M 82.285852 242.550112 
L 83.099523 254.243272 
L 83.913193 259.657562 
L 84.726864 260.389223 
L 85.540534 259.796578 
L 86.354205 257.583304 
L 87.167876 256.451668 
L 88.795217 252.490944 
L 89.608887 249.987445 
L 90.422558 247.958305 
L 91.236228 245.363348 
L 92.863569 240.922167 
L 93.67724 238.679627 
L 94.49091 234.951815 
L 96.931922 227.590087 
L 97.745593 224.006168 
L 98.559263 222.38554 
L 99.372934 218.934539 
L 101.000275 213.356845 
L 101.813945 209.661957 
L 103.441286 203.580636 
L 105.068627 197.093244 
L 105.882298 193.067889 
L 106.695968 190.129052 
L 107.509639 187.664574 
L 109.13698 181.6552 
L 109.950651 177.272551 
L 113.205333 164.075829 
L 114.832674 157.21163 
L 115.646344 154.444733 
L 118.087356 143.375924 
L 118.901027 140.668779 
L 120.528368 133.277785 
L 121.342038 130.824282 
L 122.155709 127.309871 
L 122.969379 124.789299 
L 123.78305 121.479754 
L 124.59672 116.865413 
L 128.665073 98.304396 
L 130.292414 92.791332 
L 131.106085 89.457397 
L 131.919755 86.768544 
L 132.733426 83.632158 
L 133.547096 81.384739 
L 134.360767 78.647108 
L 135.174437 77.088671 
L 135.988108 75.087578 
L 136.801778 71.510976 
L 137.615449 66.403983 
L 138.42912 62.544473 
L 139.24279 60.289738 
L 140.056461 58.771541 
L 142.497472 50.939112 
L 143.311143 49.763577 
L 144.124813 47.569814 
L 144.938484 46.257702 
L 145.752154 45.241913 
L 146.565825 44.538299 
L 149.006837 39.334971 
L 150.634178 37.402167 
L 151.447848 36.692456 
L 152.261519 36.288823 
L 154.70253 31.776915 
L 155.516201 30.879411 
L 156.329871 30.390417 
L 157.143542 30.184333 
L 157.957212 31.089153 
L 158.770883 33.458515 
L 159.584554 34.862084 
L 160.398224 35.668131 
L 161.211895 35.351078 
L 162.025565 35.177918 
L 162.839236 35.58277 
L 163.652906 36.430278 
L 164.466577 37.933841 
L 166.907588 40.665374 
L 167.721259 40.634889 
L 168.53493 39.211808 
L 169.3486 38.063101 
L 170.975941 34.227978 
L 171.789612 33.237797 
L 172.603282 32.506137 
L 173.416953 32.534184 
L 174.230623 32.896356 
L 175.044294 32.731732 
L 175.857964 32.841481 
L 176.671635 32.361024 
L 177.485305 31.457423 
L 179.112647 32.484187 
L 179.926317 32.306149 
L 180.739988 31.885444 
L 181.553658 31.597658 
L 182.367329 31.811059 
L 183.180999 31.761062 
L 183.99467 32.875625 
L 184.80834 34.295047 
L 186.435681 36.248582 
L 187.249352 36.815619 
L 188.063022 37.037556 
L 188.876693 36.850983 
L 189.690364 37.860674 
L 190.504034 39.609344 
L 191.317705 40.798293 
L 192.945046 42.328683 
L 193.758716 42.504282 
L 195.386057 41.218998 
L 196.199728 40.334908 
L 197.013398 39.088645 
L 197.827069 38.225285 
L 198.640739 37.607032 
L 201.081751 37.627762 
L 201.895422 37.24486 
L 202.709092 37.443628 
L 203.522763 37.511916 
L 205.150104 35.97299 
L 207.591115 32.345171 
L 208.404786 32.564669 
L 210.032127 34.690144 
L 210.845798 34.981589 
L 211.659468 35.822999 
L 212.473139 36.053472 
L 214.10048 36.191268 
L 214.91415 36.121761 
L 216.541491 37.153402 
L 217.355162 38.289916 
L 218.168832 37.925305 
L 219.796174 35.177918 
L 220.609844 33.920681 
L 221.423515 33.173167 
L 222.237185 33.176826 
L 224.678197 31.512297 
L 225.491867 31.70131 
L 226.305538 32.409801 
L 227.119208 33.914584 
L 227.932879 34.254806 
L 228.746549 33.867026 
L 229.56022 33.910925 
L 230.373891 34.082866 
L 231.187561 34.110913 
L 232.001232 32.926842 
L 232.814902 31.406206 
L 233.628573 30.302618 
L 234.442243 28.7454 
L 235.255914 27.596692 
L 236.069584 26.947953 
L 236.883255 25.980941 
L 237.696925 25.83217 
L 239.324266 24.75297 
L 240.951608 24.499328 
L 243.392619 23.817664 
L 244.20629 23.161608 
L 245.01996 22.827483 
L 245.833631 22.926257 
L 247.460972 23.893269 
L 248.274642 23.938388 
L 249.088313 23.817664 
L 249.901984 23.279893 
L 251.529325 22.865285 
L 253.156666 23.475003 
L 253.970336 24.157886 
L 254.784007 24.315193 
L 255.597677 24.872475 
L 256.411348 25.963869 
L 258.038689 28.840516 
L 259.66603 30.731859 
L 261.293371 32.493942 
L 262.920712 35.959576 
L 263.734383 37.157061 
L 264.548053 37.887502 
L 265.361724 37.855797 
L 266.175394 37.497283 
L 267.802735 36.110786 
L 269.430076 34.058477 
L 270.243747 33.464612 
L 271.057418 33.497537 
L 271.871088 33.371935 
L 273.498429 33.476807 
L 274.3121 33.799957 
L 275.12577 33.826784 
L 275.939441 33.495098 
L 276.753111 33.617042 
L 277.566782 33.6207 
L 278.380452 32.481748 
L 280.007793 31.373282 
L 281.635135 31.26841 
L 283.262476 32.73539 
L 285.703487 32.906111 
L 286.517158 32.58418 
L 287.330828 32.725635 
L 288.144499 32.591497 
L 288.958169 32.147623 
L 289.77184 31.929344 
L 290.585511 32.048849 
L 291.399181 31.976902 
L 293.026522 30.85868 
L 293.840193 30.070925 
L 294.653863 29.122205 
L 295.467534 28.368594 
L 296.281204 27.173548 
L 297.908545 25.634622 
L 298.722216 25.478534 
L 299.535886 25.845584 
L 300.349557 26.455301 
L 301.163228 27.383291 
L 301.976898 26.99795 
L 302.790569 26.030938 
L 303.604239 24.695657 
L 304.41791 24.422504 
L 305.23158 24.870036 
L 306.045251 25.187089 
L 306.858921 25.35781 
L 307.672592 25.083437 
L 308.486262 24.649319 
L 309.299933 24.08594 
L 310.927274 23.277454 
L 313.368286 22.325076 
L 314.181956 21.628779 
L 314.995627 20.78493 
L 315.809297 20.220332 
L 316.622968 19.799627 
L 318.250309 19.452088 
L 321.504991 19.310633 
L 337.778402 19.296 
L 406.940398 19.296 
L 406.940398 19.296 
" style="fill:none;stroke:#ff6800;stroke-linecap:round;stroke-width:1.5;"/>
   </g>
   <g id="line2d_28">
    <path clip-path="url(#pc5d331c5b1)" d="M 82.285852 242.631815 
L 83.099523 254.083526 
L 83.913193 260.652621 
L 84.726864 260.647743 
L 85.540534 259.855111 
L 86.354205 258.15156 
L 87.167876 255.706594 
L 88.795217 251.984879 
L 89.608887 249.617956 
L 92.049899 243.780522 
L 94.49091 235.171313 
L 95.304581 233.078763 
L 96.118251 229.509477 
L 96.931922 226.840135 
L 97.745593 225.262186 
L 98.559263 221.283171 
L 101.000275 212.671522 
L 103.441286 202.512412 
L 107.509639 188.048696 
L 112.391662 166.79029 
L 113.205333 165.161125 
L 114.019003 162.573485 
L 114.832674 159.496851 
L 116.460015 152.449738 
L 118.087356 145.818452 
L 119.714697 136.792196 
L 121.342038 129.315841 
L 122.155709 125.658756 
L 122.969379 122.728455 
L 123.78305 120.778579 
L 124.59672 117.136127 
L 125.410391 112.644949 
L 127.851403 104.886905 
L 132.733426 84.323577 
L 133.547096 79.628753 
L 134.360767 76.164339 
L 135.174437 73.214527 
L 136.801778 63.891948 
L 137.615449 59.514177 
L 139.24279 52.8207 
L 140.870131 46.416229 
L 142.497472 43.771275 
L 143.311143 41.661653 
L 144.124813 40.736102 
L 144.938484 40.670252 
L 145.752154 41.518979 
L 146.565825 42.610373 
L 147.379495 42.685978 
L 148.193166 41.773841 
L 150.634178 38.003348 
L 151.447848 36.931465 
L 152.261519 36.57661 
L 153.88886 38.422834 
L 154.70253 38.559411 
L 155.516201 37.318026 
L 156.329871 35.169382 
L 157.143542 34.129204 
L 157.957212 33.937753 
L 158.770883 33.508512 
L 160.398224 32.00251 
L 161.211895 32.257372 
L 162.025565 33.158534 
L 162.839236 33.55485 
L 163.652906 33.521926 
L 164.466577 32.172011 
L 165.280247 29.979468 
L 168.53493 26.332138 
L 170.162271 25.819976 
L 170.975941 26.308969 
L 171.789612 26.594317 
L 172.603282 26.567489 
L 173.416953 26.823571 
L 174.230623 27.388169 
L 175.044294 27.405241 
L 175.857964 26.994292 
L 176.671635 26.785768 
L 177.485305 26.421157 
L 178.298976 26.334577 
L 179.926317 24.187153 
L 180.739988 23.089661 
L 181.553658 22.354342 
L 182.367329 21.909249 
L 183.99467 21.581221 
L 184.80834 21.530004 
L 185.622011 21.349528 
L 188.063022 19.853282 
L 189.690364 19.46916 
L 191.317705 19.344777 
L 196.199728 19.298439 
L 406.940398 19.296 
L 406.940398 19.296 
" style="fill:none;stroke:#f10800;stroke-linecap:round;stroke-width:1.5;"/>
   </g>
   <g id="patch_3">
    <path d="M 66.053125 273.312 
L 66.053125 7.2 
" style="fill:none;stroke:#cccccc;stroke-linecap:square;stroke-linejoin:miter;stroke-width:0.8;"/>
   </g>
   <g id="patch_4">
    <path d="M 423.173125 273.312 
L 423.173125 7.2 
" style="fill:none;stroke:#cccccc;stroke-linecap:square;stroke-linejoin:miter;stroke-width:0.8;"/>
   </g>
   <g id="patch_5">
    <path d="M 66.053125 273.312 
L 423.173125 273.312 
" style="fill:none;stroke:#cccccc;stroke-linecap:square;stroke-linejoin:miter;stroke-width:0.8;"/>
   </g>
   <g id="patch_6">
    <path d="M 66.053125 7.2 
L 423.173125 7.2 
" style="fill:none;stroke:#cccccc;stroke-linecap:square;stroke-linejoin:miter;stroke-width:0.8;"/>
   </g>
  </g>
 </g>
 <defs>
  <clipPath id="pc5d331c5b1">
   <rect height="266.112" width="357.12" x="66.053125" y="7.2"/>
  </clipPath>
 </defs>
</svg>
