<?xml version="1.0" encoding="utf-8" standalone="no"?>
<!DOCTYPE svg PUBLIC "-//W3C//DTD SVG 1.1//EN"
  "http://www.w3.org/Graphics/SVG/1.1/DTD/svg11.dtd">
<!-- Created with matplotlib (https://matplotlib.org/) -->
<svg height="325.986375pt" version="1.1" viewBox="0 0 424.010625 325.986375" width="424.010625pt" xmlns="http://www.w3.org/2000/svg" xmlns:xlink="http://www.w3.org/1999/xlink">
 <defs>
  <style type="text/css">
*{stroke-linecap:butt;stroke-linejoin:round;white-space:pre;}
  </style>
 </defs>
 <g id="figure_1">
  <g id="patch_1">
   <path d="M 0 325.986375 
L 424.010625 325.986375 
L 424.010625 0 
L 0 0 
z
" style="fill:#ffffff;"/>
  </g>
  <g id="axes_1">
   <g id="patch_2">
    <path d="M 59.690625 288.430125 
L 416.810625 288.430125 
L 416.810625 22.318125 
L 59.690625 22.318125 
z
" style="fill:#ffffff;"/>
   </g>
   <g id="matplotlib.axis_1">
    <g id="xtick_1">
     <g id="line2d_1">
      <path clip-path="url(#p33cefe7afb)" d="M 75.923352 288.430125 
L 75.923352 22.318125 
" style="fill:none;stroke:#cccccc;stroke-linecap:round;stroke-width:0.8;"/>
     </g>
     <g id="text_1">
      <!-- 0 -->
      <defs>
       <path d="M 31.78125 66.40625 
Q 24.171875 66.40625 20.328125 58.90625 
Q 16.5 51.421875 16.5 36.375 
Q 16.5 21.390625 20.328125 13.890625 
Q 24.171875 6.390625 31.78125 6.390625 
Q 39.453125 6.390625 43.28125 13.890625 
Q 47.125 21.390625 47.125 36.375 
Q 47.125 51.421875 43.28125 58.90625 
Q 39.453125 66.40625 31.78125 66.40625 
z
M 31.78125 74.21875 
Q 44.046875 74.21875 50.515625 64.515625 
Q 56.984375 54.828125 56.984375 36.375 
Q 56.984375 17.96875 50.515625 8.265625 
Q 44.046875 -1.421875 31.78125 -1.421875 
Q 19.53125 -1.421875 13.0625 8.265625 
Q 6.59375 17.96875 6.59375 36.375 
Q 6.59375 54.828125 13.0625 64.515625 
Q 19.53125 74.21875 31.78125 74.21875 
z
" id="DejaVuSans-48"/>
      </defs>
      <g style="fill:#262626;" transform="translate(72.742102 303.028562)scale(0.1 -0.1)">
       <use xlink:href="#DejaVuSans-48"/>
      </g>
     </g>
    </g>
    <g id="xtick_2">
     <g id="line2d_2">
      <path clip-path="url(#p33cefe7afb)" d="M 116.606879 288.430125 
L 116.606879 22.318125 
" style="fill:none;stroke:#cccccc;stroke-linecap:round;stroke-width:0.8;"/>
     </g>
     <g id="text_2">
      <!-- 5 -->
      <defs>
       <path d="M 10.796875 72.90625 
L 49.515625 72.90625 
L 49.515625 64.59375 
L 19.828125 64.59375 
L 19.828125 46.734375 
Q 21.96875 47.46875 24.109375 47.828125 
Q 26.265625 48.1875 28.421875 48.1875 
Q 40.625 48.1875 47.75 41.5 
Q 54.890625 34.8125 54.890625 23.390625 
Q 54.890625 11.625 47.5625 5.09375 
Q 40.234375 -1.421875 26.90625 -1.421875 
Q 22.3125 -1.421875 17.546875 -0.640625 
Q 12.796875 0.140625 7.71875 1.703125 
L 7.71875 11.625 
Q 12.109375 9.234375 16.796875 8.0625 
Q 21.484375 6.890625 26.703125 6.890625 
Q 35.15625 6.890625 40.078125 11.328125 
Q 45.015625 15.765625 45.015625 23.390625 
Q 45.015625 31 40.078125 35.4375 
Q 35.15625 39.890625 26.703125 39.890625 
Q 22.75 39.890625 18.8125 39.015625 
Q 14.890625 38.140625 10.796875 36.28125 
z
" id="DejaVuSans-53"/>
      </defs>
      <g style="fill:#262626;" transform="translate(113.425629 303.028562)scale(0.1 -0.1)">
       <use xlink:href="#DejaVuSans-53"/>
      </g>
     </g>
    </g>
    <g id="xtick_3">
     <g id="line2d_3">
      <path clip-path="url(#p33cefe7afb)" d="M 157.290406 288.430125 
L 157.290406 22.318125 
" style="fill:none;stroke:#cccccc;stroke-linecap:round;stroke-width:0.8;"/>
     </g>
     <g id="text_3">
      <!-- 10 -->
      <defs>
       <path d="M 12.40625 8.296875 
L 28.515625 8.296875 
L 28.515625 63.921875 
L 10.984375 60.40625 
L 10.984375 69.390625 
L 28.421875 72.90625 
L 38.28125 72.90625 
L 38.28125 8.296875 
L 54.390625 8.296875 
L 54.390625 0 
L 12.40625 0 
z
" id="DejaVuSans-49"/>
      </defs>
      <g style="fill:#262626;" transform="translate(150.927906 303.028562)scale(0.1 -0.1)">
       <use xlink:href="#DejaVuSans-49"/>
       <use x="63.623047" xlink:href="#DejaVuSans-48"/>
      </g>
     </g>
    </g>
    <g id="xtick_4">
     <g id="line2d_4">
      <path clip-path="url(#p33cefe7afb)" d="M 197.973933 288.430125 
L 197.973933 22.318125 
" style="fill:none;stroke:#cccccc;stroke-linecap:round;stroke-width:0.8;"/>
     </g>
     <g id="text_4">
      <!-- 15 -->
      <g style="fill:#262626;" transform="translate(191.611433 303.028562)scale(0.1 -0.1)">
       <use xlink:href="#DejaVuSans-49"/>
       <use x="63.623047" xlink:href="#DejaVuSans-53"/>
      </g>
     </g>
    </g>
    <g id="xtick_5">
     <g id="line2d_5">
      <path clip-path="url(#p33cefe7afb)" d="M 238.65746 288.430125 
L 238.65746 22.318125 
" style="fill:none;stroke:#cccccc;stroke-linecap:round;stroke-width:0.8;"/>
     </g>
     <g id="text_5">
      <!-- 20 -->
      <defs>
       <path d="M 19.1875 8.296875 
L 53.609375 8.296875 
L 53.609375 0 
L 7.328125 0 
L 7.328125 8.296875 
Q 12.9375 14.109375 22.625 23.890625 
Q 32.328125 33.6875 34.8125 36.53125 
Q 39.546875 41.84375 41.421875 45.53125 
Q 43.3125 49.21875 43.3125 52.78125 
Q 43.3125 58.59375 39.234375 62.25 
Q 35.15625 65.921875 28.609375 65.921875 
Q 23.96875 65.921875 18.8125 64.3125 
Q 13.671875 62.703125 7.8125 59.421875 
L 7.8125 69.390625 
Q 13.765625 71.78125 18.9375 73 
Q 24.125 74.21875 28.421875 74.21875 
Q 39.75 74.21875 46.484375 68.546875 
Q 53.21875 62.890625 53.21875 53.421875 
Q 53.21875 48.921875 51.53125 44.890625 
Q 49.859375 40.875 45.40625 35.40625 
Q 44.1875 33.984375 37.640625 27.21875 
Q 31.109375 20.453125 19.1875 8.296875 
z
" id="DejaVuSans-50"/>
      </defs>
      <g style="fill:#262626;" transform="translate(232.29496 303.028562)scale(0.1 -0.1)">
       <use xlink:href="#DejaVuSans-50"/>
       <use x="63.623047" xlink:href="#DejaVuSans-48"/>
      </g>
     </g>
    </g>
    <g id="xtick_6">
     <g id="line2d_6">
      <path clip-path="url(#p33cefe7afb)" d="M 279.340987 288.430125 
L 279.340987 22.318125 
" style="fill:none;stroke:#cccccc;stroke-linecap:round;stroke-width:0.8;"/>
     </g>
     <g id="text_6">
      <!-- 25 -->
      <g style="fill:#262626;" transform="translate(272.978487 303.028562)scale(0.1 -0.1)">
       <use xlink:href="#DejaVuSans-50"/>
       <use x="63.623047" xlink:href="#DejaVuSans-53"/>
      </g>
     </g>
    </g>
    <g id="xtick_7">
     <g id="line2d_7">
      <path clip-path="url(#p33cefe7afb)" d="M 320.024514 288.430125 
L 320.024514 22.318125 
" style="fill:none;stroke:#cccccc;stroke-linecap:round;stroke-width:0.8;"/>
     </g>
     <g id="text_7">
      <!-- 30 -->
      <defs>
       <path d="M 40.578125 39.3125 
Q 47.65625 37.796875 51.625 33 
Q 55.609375 28.21875 55.609375 21.1875 
Q 55.609375 10.40625 48.1875 4.484375 
Q 40.765625 -1.421875 27.09375 -1.421875 
Q 22.515625 -1.421875 17.65625 -0.515625 
Q 12.796875 0.390625 7.625 2.203125 
L 7.625 11.71875 
Q 11.71875 9.328125 16.59375 8.109375 
Q 21.484375 6.890625 26.8125 6.890625 
Q 36.078125 6.890625 40.9375 10.546875 
Q 45.796875 14.203125 45.796875 21.1875 
Q 45.796875 27.640625 41.28125 31.265625 
Q 36.765625 34.90625 28.71875 34.90625 
L 20.21875 34.90625 
L 20.21875 43.015625 
L 29.109375 43.015625 
Q 36.375 43.015625 40.234375 45.921875 
Q 44.09375 48.828125 44.09375 54.296875 
Q 44.09375 59.90625 40.109375 62.90625 
Q 36.140625 65.921875 28.71875 65.921875 
Q 24.65625 65.921875 20.015625 65.03125 
Q 15.375 64.15625 9.8125 62.3125 
L 9.8125 71.09375 
Q 15.4375 72.65625 20.34375 73.4375 
Q 25.25 74.21875 29.59375 74.21875 
Q 40.828125 74.21875 47.359375 69.109375 
Q 53.90625 64.015625 53.90625 55.328125 
Q 53.90625 49.265625 50.4375 45.09375 
Q 46.96875 40.921875 40.578125 39.3125 
z
" id="DejaVuSans-51"/>
      </defs>
      <g style="fill:#262626;" transform="translate(313.662014 303.028562)scale(0.1 -0.1)">
       <use xlink:href="#DejaVuSans-51"/>
       <use x="63.623047" xlink:href="#DejaVuSans-48"/>
      </g>
     </g>
    </g>
    <g id="xtick_8">
     <g id="line2d_8">
      <path clip-path="url(#p33cefe7afb)" d="M 360.708041 288.430125 
L 360.708041 22.318125 
" style="fill:none;stroke:#cccccc;stroke-linecap:round;stroke-width:0.8;"/>
     </g>
     <g id="text_8">
      <!-- 35 -->
      <g style="fill:#262626;" transform="translate(354.345541 303.028562)scale(0.1 -0.1)">
       <use xlink:href="#DejaVuSans-51"/>
       <use x="63.623047" xlink:href="#DejaVuSans-53"/>
      </g>
     </g>
    </g>
    <g id="xtick_9">
     <g id="line2d_9">
      <path clip-path="url(#p33cefe7afb)" d="M 401.391568 288.430125 
L 401.391568 22.318125 
" style="fill:none;stroke:#cccccc;stroke-linecap:round;stroke-width:0.8;"/>
     </g>
     <g id="text_9">
      <!-- 40 -->
      <defs>
       <path d="M 37.796875 64.3125 
L 12.890625 25.390625 
L 37.796875 25.390625 
z
M 35.203125 72.90625 
L 47.609375 72.90625 
L 47.609375 25.390625 
L 58.015625 25.390625 
L 58.015625 17.1875 
L 47.609375 17.1875 
L 47.609375 0 
L 37.796875 0 
L 37.796875 17.1875 
L 4.890625 17.1875 
L 4.890625 26.703125 
z
" id="DejaVuSans-52"/>
      </defs>
      <g style="fill:#262626;" transform="translate(395.029068 303.028562)scale(0.1 -0.1)">
       <use xlink:href="#DejaVuSans-52"/>
       <use x="63.623047" xlink:href="#DejaVuSans-48"/>
      </g>
     </g>
    </g>
    <g id="text_10">
     <!-- time (days) -->
     <defs>
      <path d="M 18.3125 70.21875 
L 18.3125 54.6875 
L 36.8125 54.6875 
L 36.8125 47.703125 
L 18.3125 47.703125 
L 18.3125 18.015625 
Q 18.3125 11.328125 20.140625 9.421875 
Q 21.96875 7.515625 27.59375 7.515625 
L 36.8125 7.515625 
L 36.8125 0 
L 27.59375 0 
Q 17.1875 0 13.234375 3.875 
Q 9.28125 7.765625 9.28125 18.015625 
L 9.28125 47.703125 
L 2.6875 47.703125 
L 2.6875 54.6875 
L 9.28125 54.6875 
L 9.28125 70.21875 
z
" id="DejaVuSans-116"/>
      <path d="M 9.421875 54.6875 
L 18.40625 54.6875 
L 18.40625 0 
L 9.421875 0 
z
M 9.421875 75.984375 
L 18.40625 75.984375 
L 18.40625 64.59375 
L 9.421875 64.59375 
z
" id="DejaVuSans-105"/>
      <path d="M 52 44.1875 
Q 55.375 50.25 60.0625 53.125 
Q 64.75 56 71.09375 56 
Q 79.640625 56 84.28125 50.015625 
Q 88.921875 44.046875 88.921875 33.015625 
L 88.921875 0 
L 79.890625 0 
L 79.890625 32.71875 
Q 79.890625 40.578125 77.09375 44.375 
Q 74.3125 48.1875 68.609375 48.1875 
Q 61.625 48.1875 57.5625 43.546875 
Q 53.515625 38.921875 53.515625 30.90625 
L 53.515625 0 
L 44.484375 0 
L 44.484375 32.71875 
Q 44.484375 40.625 41.703125 44.40625 
Q 38.921875 48.1875 33.109375 48.1875 
Q 26.21875 48.1875 22.15625 43.53125 
Q 18.109375 38.875 18.109375 30.90625 
L 18.109375 0 
L 9.078125 0 
L 9.078125 54.6875 
L 18.109375 54.6875 
L 18.109375 46.1875 
Q 21.1875 51.21875 25.484375 53.609375 
Q 29.78125 56 35.6875 56 
Q 41.65625 56 45.828125 52.96875 
Q 50 49.953125 52 44.1875 
z
" id="DejaVuSans-109"/>
      <path d="M 56.203125 29.59375 
L 56.203125 25.203125 
L 14.890625 25.203125 
Q 15.484375 15.921875 20.484375 11.0625 
Q 25.484375 6.203125 34.421875 6.203125 
Q 39.59375 6.203125 44.453125 7.46875 
Q 49.3125 8.734375 54.109375 11.28125 
L 54.109375 2.78125 
Q 49.265625 0.734375 44.1875 -0.34375 
Q 39.109375 -1.421875 33.890625 -1.421875 
Q 20.796875 -1.421875 13.15625 6.1875 
Q 5.515625 13.8125 5.515625 26.8125 
Q 5.515625 40.234375 12.765625 48.109375 
Q 20.015625 56 32.328125 56 
Q 43.359375 56 49.78125 48.890625 
Q 56.203125 41.796875 56.203125 29.59375 
z
M 47.21875 32.234375 
Q 47.125 39.59375 43.09375 43.984375 
Q 39.0625 48.390625 32.421875 48.390625 
Q 24.90625 48.390625 20.390625 44.140625 
Q 15.875 39.890625 15.1875 32.171875 
z
" id="DejaVuSans-101"/>
      <path id="DejaVuSans-32"/>
      <path d="M 31 75.875 
Q 24.46875 64.65625 21.28125 53.65625 
Q 18.109375 42.671875 18.109375 31.390625 
Q 18.109375 20.125 21.3125 9.0625 
Q 24.515625 -2 31 -13.1875 
L 23.1875 -13.1875 
Q 15.875 -1.703125 12.234375 9.375 
Q 8.59375 20.453125 8.59375 31.390625 
Q 8.59375 42.28125 12.203125 53.3125 
Q 15.828125 64.359375 23.1875 75.875 
z
" id="DejaVuSans-40"/>
      <path d="M 45.40625 46.390625 
L 45.40625 75.984375 
L 54.390625 75.984375 
L 54.390625 0 
L 45.40625 0 
L 45.40625 8.203125 
Q 42.578125 3.328125 38.25 0.953125 
Q 33.9375 -1.421875 27.875 -1.421875 
Q 17.96875 -1.421875 11.734375 6.484375 
Q 5.515625 14.40625 5.515625 27.296875 
Q 5.515625 40.1875 11.734375 48.09375 
Q 17.96875 56 27.875 56 
Q 33.9375 56 38.25 53.625 
Q 42.578125 51.265625 45.40625 46.390625 
z
M 14.796875 27.296875 
Q 14.796875 17.390625 18.875 11.75 
Q 22.953125 6.109375 30.078125 6.109375 
Q 37.203125 6.109375 41.296875 11.75 
Q 45.40625 17.390625 45.40625 27.296875 
Q 45.40625 37.203125 41.296875 42.84375 
Q 37.203125 48.484375 30.078125 48.484375 
Q 22.953125 48.484375 18.875 42.84375 
Q 14.796875 37.203125 14.796875 27.296875 
z
" id="DejaVuSans-100"/>
      <path d="M 34.28125 27.484375 
Q 23.390625 27.484375 19.1875 25 
Q 14.984375 22.515625 14.984375 16.5 
Q 14.984375 11.71875 18.140625 8.90625 
Q 21.296875 6.109375 26.703125 6.109375 
Q 34.1875 6.109375 38.703125 11.40625 
Q 43.21875 16.703125 43.21875 25.484375 
L 43.21875 27.484375 
z
M 52.203125 31.203125 
L 52.203125 0 
L 43.21875 0 
L 43.21875 8.296875 
Q 40.140625 3.328125 35.546875 0.953125 
Q 30.953125 -1.421875 24.3125 -1.421875 
Q 15.921875 -1.421875 10.953125 3.296875 
Q 6 8.015625 6 15.921875 
Q 6 25.140625 12.171875 29.828125 
Q 18.359375 34.515625 30.609375 34.515625 
L 43.21875 34.515625 
L 43.21875 35.40625 
Q 43.21875 41.609375 39.140625 45 
Q 35.0625 48.390625 27.6875 48.390625 
Q 23 48.390625 18.546875 47.265625 
Q 14.109375 46.140625 10.015625 43.890625 
L 10.015625 52.203125 
Q 14.9375 54.109375 19.578125 55.046875 
Q 24.21875 56 28.609375 56 
Q 40.484375 56 46.34375 49.84375 
Q 52.203125 43.703125 52.203125 31.203125 
z
" id="DejaVuSans-97"/>
      <path d="M 32.171875 -5.078125 
Q 28.375 -14.84375 24.75 -17.8125 
Q 21.140625 -20.796875 15.09375 -20.796875 
L 7.90625 -20.796875 
L 7.90625 -13.28125 
L 13.1875 -13.28125 
Q 16.890625 -13.28125 18.9375 -11.515625 
Q 21 -9.765625 23.484375 -3.21875 
L 25.09375 0.875 
L 2.984375 54.6875 
L 12.5 54.6875 
L 29.59375 11.921875 
L 46.6875 54.6875 
L 56.203125 54.6875 
z
" id="DejaVuSans-121"/>
      <path d="M 44.28125 53.078125 
L 44.28125 44.578125 
Q 40.484375 46.53125 36.375 47.5 
Q 32.28125 48.484375 27.875 48.484375 
Q 21.1875 48.484375 17.84375 46.4375 
Q 14.5 44.390625 14.5 40.28125 
Q 14.5 37.15625 16.890625 35.375 
Q 19.28125 33.59375 26.515625 31.984375 
L 29.59375 31.296875 
Q 39.15625 29.25 43.1875 25.515625 
Q 47.21875 21.78125 47.21875 15.09375 
Q 47.21875 7.46875 41.1875 3.015625 
Q 35.15625 -1.421875 24.609375 -1.421875 
Q 20.21875 -1.421875 15.453125 -0.5625 
Q 10.6875 0.296875 5.421875 2 
L 5.421875 11.28125 
Q 10.40625 8.6875 15.234375 7.390625 
Q 20.0625 6.109375 24.8125 6.109375 
Q 31.15625 6.109375 34.5625 8.28125 
Q 37.984375 10.453125 37.984375 14.40625 
Q 37.984375 18.0625 35.515625 20.015625 
Q 33.0625 21.96875 24.703125 23.78125 
L 21.578125 24.515625 
Q 13.234375 26.265625 9.515625 29.90625 
Q 5.8125 33.546875 5.8125 39.890625 
Q 5.8125 47.609375 11.28125 51.796875 
Q 16.75 56 26.8125 56 
Q 31.78125 56 36.171875 55.265625 
Q 40.578125 54.546875 44.28125 53.078125 
z
" id="DejaVuSans-115"/>
      <path d="M 8.015625 75.875 
L 15.828125 75.875 
Q 23.140625 64.359375 26.78125 53.3125 
Q 30.421875 42.28125 30.421875 31.390625 
Q 30.421875 20.453125 26.78125 9.375 
Q 23.140625 -1.703125 15.828125 -13.1875 
L 8.015625 -13.1875 
Q 14.5 -2 17.703125 9.0625 
Q 20.90625 20.125 20.90625 31.390625 
Q 20.90625 42.671875 17.703125 53.65625 
Q 14.5 64.65625 8.015625 75.875 
z
" id="DejaVuSans-41"/>
     </defs>
     <g style="fill:#262626;" transform="translate(209.661563 316.706687)scale(0.1 -0.1)">
      <use xlink:href="#DejaVuSans-116"/>
      <use x="39.208984" xlink:href="#DejaVuSans-105"/>
      <use x="66.992188" xlink:href="#DejaVuSans-109"/>
      <use x="164.404297" xlink:href="#DejaVuSans-101"/>
      <use x="225.927734" xlink:href="#DejaVuSans-32"/>
      <use x="257.714844" xlink:href="#DejaVuSans-40"/>
      <use x="296.728516" xlink:href="#DejaVuSans-100"/>
      <use x="360.205078" xlink:href="#DejaVuSans-97"/>
      <use x="421.484375" xlink:href="#DejaVuSans-121"/>
      <use x="480.664062" xlink:href="#DejaVuSans-115"/>
      <use x="532.763672" xlink:href="#DejaVuSans-41"/>
     </g>
    </g>
   </g>
   <g id="matplotlib.axis_2">
    <g id="ytick_1">
     <g id="line2d_10">
      <path clip-path="url(#p33cefe7afb)" d="M 59.690625 276.334125 
L 416.810625 276.334125 
" style="fill:none;stroke:#cccccc;stroke-linecap:round;stroke-width:0.8;"/>
     </g>
     <g id="text_11">
      <!-- 0 -->
      <g style="fill:#262626;" transform="translate(46.328125 280.133344)scale(0.1 -0.1)">
       <use xlink:href="#DejaVuSans-48"/>
      </g>
     </g>
    </g>
    <g id="ytick_2">
     <g id="line2d_11">
      <path clip-path="url(#p33cefe7afb)" d="M 59.690625 244.202368 
L 416.810625 244.202368 
" style="fill:none;stroke:#cccccc;stroke-linecap:round;stroke-width:0.8;"/>
     </g>
     <g id="text_12">
      <!-- 10000 -->
      <g style="fill:#262626;" transform="translate(20.878125 248.001587)scale(0.1 -0.1)">
       <use xlink:href="#DejaVuSans-49"/>
       <use x="63.623047" xlink:href="#DejaVuSans-48"/>
       <use x="127.246094" xlink:href="#DejaVuSans-48"/>
       <use x="190.869141" xlink:href="#DejaVuSans-48"/>
       <use x="254.492188" xlink:href="#DejaVuSans-48"/>
      </g>
     </g>
    </g>
    <g id="ytick_3">
     <g id="line2d_12">
      <path clip-path="url(#p33cefe7afb)" d="M 59.690625 212.070611 
L 416.810625 212.070611 
" style="fill:none;stroke:#cccccc;stroke-linecap:round;stroke-width:0.8;"/>
     </g>
     <g id="text_13">
      <!-- 20000 -->
      <g style="fill:#262626;" transform="translate(20.878125 215.869829)scale(0.1 -0.1)">
       <use xlink:href="#DejaVuSans-50"/>
       <use x="63.623047" xlink:href="#DejaVuSans-48"/>
       <use x="127.246094" xlink:href="#DejaVuSans-48"/>
       <use x="190.869141" xlink:href="#DejaVuSans-48"/>
       <use x="254.492188" xlink:href="#DejaVuSans-48"/>
      </g>
     </g>
    </g>
    <g id="ytick_4">
     <g id="line2d_13">
      <path clip-path="url(#p33cefe7afb)" d="M 59.690625 179.938853 
L 416.810625 179.938853 
" style="fill:none;stroke:#cccccc;stroke-linecap:round;stroke-width:0.8;"/>
     </g>
     <g id="text_14">
      <!-- 30000 -->
      <g style="fill:#262626;" transform="translate(20.878125 183.738072)scale(0.1 -0.1)">
       <use xlink:href="#DejaVuSans-51"/>
       <use x="63.623047" xlink:href="#DejaVuSans-48"/>
       <use x="127.246094" xlink:href="#DejaVuSans-48"/>
       <use x="190.869141" xlink:href="#DejaVuSans-48"/>
       <use x="254.492188" xlink:href="#DejaVuSans-48"/>
      </g>
     </g>
    </g>
    <g id="ytick_5">
     <g id="line2d_14">
      <path clip-path="url(#p33cefe7afb)" d="M 59.690625 147.807096 
L 416.810625 147.807096 
" style="fill:none;stroke:#cccccc;stroke-linecap:round;stroke-width:0.8;"/>
     </g>
     <g id="text_15">
      <!-- 40000 -->
      <g style="fill:#262626;" transform="translate(20.878125 151.606315)scale(0.1 -0.1)">
       <use xlink:href="#DejaVuSans-52"/>
       <use x="63.623047" xlink:href="#DejaVuSans-48"/>
       <use x="127.246094" xlink:href="#DejaVuSans-48"/>
       <use x="190.869141" xlink:href="#DejaVuSans-48"/>
       <use x="254.492188" xlink:href="#DejaVuSans-48"/>
      </g>
     </g>
    </g>
    <g id="ytick_6">
     <g id="line2d_15">
      <path clip-path="url(#p33cefe7afb)" d="M 59.690625 115.675339 
L 416.810625 115.675339 
" style="fill:none;stroke:#cccccc;stroke-linecap:round;stroke-width:0.8;"/>
     </g>
     <g id="text_16">
      <!-- 50000 -->
      <g style="fill:#262626;" transform="translate(20.878125 119.474558)scale(0.1 -0.1)">
       <use xlink:href="#DejaVuSans-53"/>
       <use x="63.623047" xlink:href="#DejaVuSans-48"/>
       <use x="127.246094" xlink:href="#DejaVuSans-48"/>
       <use x="190.869141" xlink:href="#DejaVuSans-48"/>
       <use x="254.492188" xlink:href="#DejaVuSans-48"/>
      </g>
     </g>
    </g>
    <g id="ytick_7">
     <g id="line2d_16">
      <path clip-path="url(#p33cefe7afb)" d="M 59.690625 83.543582 
L 416.810625 83.543582 
" style="fill:none;stroke:#cccccc;stroke-linecap:round;stroke-width:0.8;"/>
     </g>
     <g id="text_17">
      <!-- 60000 -->
      <defs>
       <path d="M 33.015625 40.375 
Q 26.375 40.375 22.484375 35.828125 
Q 18.609375 31.296875 18.609375 23.390625 
Q 18.609375 15.53125 22.484375 10.953125 
Q 26.375 6.390625 33.015625 6.390625 
Q 39.65625 6.390625 43.53125 10.953125 
Q 47.40625 15.53125 47.40625 23.390625 
Q 47.40625 31.296875 43.53125 35.828125 
Q 39.65625 40.375 33.015625 40.375 
z
M 52.59375 71.296875 
L 52.59375 62.3125 
Q 48.875 64.0625 45.09375 64.984375 
Q 41.3125 65.921875 37.59375 65.921875 
Q 27.828125 65.921875 22.671875 59.328125 
Q 17.53125 52.734375 16.796875 39.40625 
Q 19.671875 43.65625 24.015625 45.921875 
Q 28.375 48.1875 33.59375 48.1875 
Q 44.578125 48.1875 50.953125 41.515625 
Q 57.328125 34.859375 57.328125 23.390625 
Q 57.328125 12.15625 50.6875 5.359375 
Q 44.046875 -1.421875 33.015625 -1.421875 
Q 20.359375 -1.421875 13.671875 8.265625 
Q 6.984375 17.96875 6.984375 36.375 
Q 6.984375 53.65625 15.1875 63.9375 
Q 23.390625 74.21875 37.203125 74.21875 
Q 40.921875 74.21875 44.703125 73.484375 
Q 48.484375 72.75 52.59375 71.296875 
z
" id="DejaVuSans-54"/>
      </defs>
      <g style="fill:#262626;" transform="translate(20.878125 87.342801)scale(0.1 -0.1)">
       <use xlink:href="#DejaVuSans-54"/>
       <use x="63.623047" xlink:href="#DejaVuSans-48"/>
       <use x="127.246094" xlink:href="#DejaVuSans-48"/>
       <use x="190.869141" xlink:href="#DejaVuSans-48"/>
       <use x="254.492188" xlink:href="#DejaVuSans-48"/>
      </g>
     </g>
    </g>
    <g id="ytick_8">
     <g id="line2d_17">
      <path clip-path="url(#p33cefe7afb)" d="M 59.690625 51.411825 
L 416.810625 51.411825 
" style="fill:none;stroke:#cccccc;stroke-linecap:round;stroke-width:0.8;"/>
     </g>
     <g id="text_18">
      <!-- 70000 -->
      <defs>
       <path d="M 8.203125 72.90625 
L 55.078125 72.90625 
L 55.078125 68.703125 
L 28.609375 0 
L 18.3125 0 
L 43.21875 64.59375 
L 8.203125 64.59375 
z
" id="DejaVuSans-55"/>
      </defs>
      <g style="fill:#262626;" transform="translate(20.878125 55.211043)scale(0.1 -0.1)">
       <use xlink:href="#DejaVuSans-55"/>
       <use x="63.623047" xlink:href="#DejaVuSans-48"/>
       <use x="127.246094" xlink:href="#DejaVuSans-48"/>
       <use x="190.869141" xlink:href="#DejaVuSans-48"/>
       <use x="254.492188" xlink:href="#DejaVuSans-48"/>
      </g>
     </g>
    </g>
    <g id="text_19">
     <!-- cells number -->
     <defs>
      <path d="M 48.78125 52.59375 
L 48.78125 44.1875 
Q 44.96875 46.296875 41.140625 47.34375 
Q 37.3125 48.390625 33.40625 48.390625 
Q 24.65625 48.390625 19.8125 42.84375 
Q 14.984375 37.3125 14.984375 27.296875 
Q 14.984375 17.28125 19.8125 11.734375 
Q 24.65625 6.203125 33.40625 6.203125 
Q 37.3125 6.203125 41.140625 7.25 
Q 44.96875 8.296875 48.78125 10.40625 
L 48.78125 2.09375 
Q 45.015625 0.34375 40.984375 -0.53125 
Q 36.96875 -1.421875 32.421875 -1.421875 
Q 20.0625 -1.421875 12.78125 6.34375 
Q 5.515625 14.109375 5.515625 27.296875 
Q 5.515625 40.671875 12.859375 48.328125 
Q 20.21875 56 33.015625 56 
Q 37.15625 56 41.109375 55.140625 
Q 45.0625 54.296875 48.78125 52.59375 
z
" id="DejaVuSans-99"/>
      <path d="M 9.421875 75.984375 
L 18.40625 75.984375 
L 18.40625 0 
L 9.421875 0 
z
" id="DejaVuSans-108"/>
      <path d="M 54.890625 33.015625 
L 54.890625 0 
L 45.90625 0 
L 45.90625 32.71875 
Q 45.90625 40.484375 42.875 44.328125 
Q 39.84375 48.1875 33.796875 48.1875 
Q 26.515625 48.1875 22.3125 43.546875 
Q 18.109375 38.921875 18.109375 30.90625 
L 18.109375 0 
L 9.078125 0 
L 9.078125 54.6875 
L 18.109375 54.6875 
L 18.109375 46.1875 
Q 21.34375 51.125 25.703125 53.5625 
Q 30.078125 56 35.796875 56 
Q 45.21875 56 50.046875 50.171875 
Q 54.890625 44.34375 54.890625 33.015625 
z
" id="DejaVuSans-110"/>
      <path d="M 8.5 21.578125 
L 8.5 54.6875 
L 17.484375 54.6875 
L 17.484375 21.921875 
Q 17.484375 14.15625 20.5 10.265625 
Q 23.53125 6.390625 29.59375 6.390625 
Q 36.859375 6.390625 41.078125 11.03125 
Q 45.3125 15.671875 45.3125 23.6875 
L 45.3125 54.6875 
L 54.296875 54.6875 
L 54.296875 0 
L 45.3125 0 
L 45.3125 8.40625 
Q 42.046875 3.421875 37.71875 1 
Q 33.40625 -1.421875 27.6875 -1.421875 
Q 18.265625 -1.421875 13.375 4.4375 
Q 8.5 10.296875 8.5 21.578125 
z
M 31.109375 56 
z
" id="DejaVuSans-117"/>
      <path d="M 48.6875 27.296875 
Q 48.6875 37.203125 44.609375 42.84375 
Q 40.53125 48.484375 33.40625 48.484375 
Q 26.265625 48.484375 22.1875 42.84375 
Q 18.109375 37.203125 18.109375 27.296875 
Q 18.109375 17.390625 22.1875 11.75 
Q 26.265625 6.109375 33.40625 6.109375 
Q 40.53125 6.109375 44.609375 11.75 
Q 48.6875 17.390625 48.6875 27.296875 
z
M 18.109375 46.390625 
Q 20.953125 51.265625 25.265625 53.625 
Q 29.59375 56 35.59375 56 
Q 45.5625 56 51.78125 48.09375 
Q 58.015625 40.1875 58.015625 27.296875 
Q 58.015625 14.40625 51.78125 6.484375 
Q 45.5625 -1.421875 35.59375 -1.421875 
Q 29.59375 -1.421875 25.265625 0.953125 
Q 20.953125 3.328125 18.109375 8.203125 
L 18.109375 0 
L 9.078125 0 
L 9.078125 75.984375 
L 18.109375 75.984375 
z
" id="DejaVuSans-98"/>
      <path d="M 41.109375 46.296875 
Q 39.59375 47.171875 37.8125 47.578125 
Q 36.03125 48 33.890625 48 
Q 26.265625 48 22.1875 43.046875 
Q 18.109375 38.09375 18.109375 28.8125 
L 18.109375 0 
L 9.078125 0 
L 9.078125 54.6875 
L 18.109375 54.6875 
L 18.109375 46.1875 
Q 20.953125 51.171875 25.484375 53.578125 
Q 30.03125 56 36.53125 56 
Q 37.453125 56 38.578125 55.875 
Q 39.703125 55.765625 41.0625 55.515625 
z
" id="DejaVuSans-114"/>
     </defs>
     <g style="fill:#262626;" transform="translate(14.798438 187.685844)rotate(-90)scale(0.1 -0.1)">
      <use xlink:href="#DejaVuSans-99"/>
      <use x="54.980469" xlink:href="#DejaVuSans-101"/>
      <use x="116.503906" xlink:href="#DejaVuSans-108"/>
      <use x="144.287109" xlink:href="#DejaVuSans-108"/>
      <use x="172.070312" xlink:href="#DejaVuSans-115"/>
      <use x="224.169922" xlink:href="#DejaVuSans-32"/>
      <use x="255.957031" xlink:href="#DejaVuSans-110"/>
      <use x="319.335938" xlink:href="#DejaVuSans-117"/>
      <use x="382.714844" xlink:href="#DejaVuSans-109"/>
      <use x="480.126953" xlink:href="#DejaVuSans-98"/>
      <use x="543.603516" xlink:href="#DejaVuSans-101"/>
      <use x="605.126953" xlink:href="#DejaVuSans-114"/>
     </g>
    </g>
   </g>
   <g id="line2d_18">
    <path clip-path="url(#p33cefe7afb)" d="M 75.923352 251.724412 
L 76.737023 204.169411 
L 77.550693 170.63671 
L 78.364364 144.388277 
L 79.991705 107.073668 
L 80.805376 93.150977 
L 81.619046 82.415757 
L 83.246387 67.439145 
L 84.873728 57.452595 
L 85.687399 53.526094 
L 87.31474 48.208288 
L 88.12841 44.474578 
L 88.942081 42.729824 
L 89.755751 41.704821 
L 90.569422 40.487027 
L 91.383093 39.860458 
L 92.196763 39.500582 
L 93.010434 39.603404 
L 93.824104 38.610532 
L 95.451445 38.655517 
L 96.265116 38.109277 
L 97.078786 37.254572 
L 97.892457 37.0907 
L 99.519798 36.332391 
L 100.333468 36.21993 
L 101.147139 36.721185 
L 101.96081 35.81507 
L 102.77448 35.879333 
L 103.588151 35.368438 
L 106.029162 37.537332 
L 107.656503 37.659432 
L 108.470174 37.591956 
L 110.097515 37.77832 
L 110.911185 36.913976 
L 112.538527 36.656922 
L 113.352197 37.10034 
L 114.165868 37.685138 
L 114.979538 36.782236 
L 115.793209 36.881844 
L 116.606879 36.34203 
L 117.42055 36.946107 
L 118.23422 37.338115 
L 119.047891 37.187096 
L 119.861561 36.518755 
L 120.675232 36.89791 
L 121.488903 36.35167 
L 122.302573 36.634429 
L 123.116244 36.361309 
L 123.929914 36.88827 
L 124.743585 36.235996 
L 125.557255 36.521968 
L 126.370926 36.21993 
L 127.998267 37.16139 
L 128.811937 36.894697 
L 129.625608 37.71727 
L 131.252949 39.086082 
L 132.06662 38.46594 
L 132.88029 38.613746 
L 133.693961 38.298854 
L 134.507631 38.4563 
L 135.321302 39.217823 
L 136.134972 39.121427 
L 136.948643 38.440234 
L 137.762313 37.154964 
L 138.575984 37.187096 
L 140.203325 37.884355 
L 141.016995 37.913273 
L 141.830666 37.781533 
L 142.644337 37.926126 
L 143.458007 38.202459 
L 144.271678 37.582316 
L 145.085348 38.488432 
L 145.899019 38.758339 
L 146.712689 38.722994 
L 147.52636 39.159986 
L 148.34003 39.079656 
L 149.153701 39.651601 
L 149.967371 39.21461 
L 150.781042 39.815473 
L 151.594712 40.140004 
L 152.408383 40.278171 
L 154.035724 41.38029 
L 154.849395 41.489538 
L 155.663065 42.022925 
L 156.476736 42.116107 
L 157.290406 42.768382 
L 158.917747 42.716971 
L 159.731418 42.225355 
L 161.358759 42.813366 
L 162.17243 42.919401 
L 162.9861 42.684839 
L 163.799771 43.713056 
L 164.613441 44.047226 
L 165.427112 44.615958 
L 166.240782 45.830538 
L 167.054453 46.61134 
L 167.868123 46.042608 
L 168.681794 46.948723 
L 169.495464 46.968003 
L 170.309135 47.4307 
L 171.122805 48.153664 
L 171.936476 47.806641 
L 172.750147 47.62349 
L 174.377488 48.478195 
L 176.004829 49.371458 
L 176.818499 49.795597 
L 179.259511 50.377182 
L 180.073181 51.071228 
L 180.886852 51.151557 
L 182.514193 52.549289 
L 183.327864 52.684242 
L 184.141534 53.092315 
L 184.955205 53.028052 
L 185.768875 53.966299 
L 187.396216 55.148748 
L 188.209887 56.083782 
L 189.023557 56.33441 
L 189.837228 57.166622 
L 190.650898 58.291234 
L 191.464569 57.587548 
L 192.278239 58.275168 
L 193.09191 58.557927 
L 193.905581 58.680028 
L 195.532922 60.228779 
L 196.346592 61.163813 
L 197.160263 60.701116 
L 197.973933 60.864988 
L 199.601274 61.677921 
L 200.414945 61.82894 
L 202.042286 64.258101 
L 202.855957 64.68224 
L 203.669627 64.521582 
L 204.483298 64.534434 
L 205.296968 65.559437 
L 206.110639 66.173154 
L 206.924309 66.337026 
L 207.73798 67.811873 
L 208.55165 68.139617 
L 209.365321 68.807958 
L 210.992662 69.084291 
L 211.806332 69.926143 
L 212.620003 71.086099 
L 213.433674 71.870114 
L 214.247344 71.908672 
L 215.061015 72.156087 
L 215.874685 72.885478 
L 216.688356 73.177877 
L 217.502026 73.78838 
L 218.315697 73.58595 
L 219.129367 73.913694 
L 219.943038 74.058287 
L 220.756708 75.182899 
L 222.384049 75.35641 
L 224.011391 76.040816 
L 224.825061 76.056882 
L 225.638732 76.622401 
L 226.452402 76.84411 
L 227.266073 77.557435 
L 228.079743 77.583141 
L 228.893414 78.730245 
L 229.707084 79.038709 
L 230.520755 79.000151 
L 232.148096 80.426801 
L 232.961766 80.487852 
L 233.775437 81.255801 
L 234.589108 82.537858 
L 235.402778 83.44076 
L 236.216449 85.333321 
L 237.030119 86.586459 
L 238.65746 89.478317 
L 239.471131 90.378007 
L 240.284801 91.907478 
L 241.098472 92.190238 
L 242.725813 94.593693 
L 243.539484 95.245968 
L 244.353154 96.528025 
L 245.166825 97.430927 
L 245.980495 98.664787 
L 246.794166 99.545197 
L 248.421507 102.363152 
L 249.235177 103.75767 
L 250.862518 107.635973 
L 252.489859 112.3979 
L 253.30353 113.998061 
L 254.117201 116.253711 
L 254.930871 119.171274 
L 255.744542 120.861405 
L 258.185553 127.991442 
L 258.999224 130.147482 
L 260.626565 133.116457 
L 261.440235 135.28535 
L 262.253906 137.878383 
L 263.881247 143.45003 
L 264.694918 146.351528 
L 265.508588 148.81282 
L 266.322259 152.295903 
L 267.135929 154.378041 
L 267.9496 157.771154 
L 269.576941 163.497033 
L 270.390611 166.851589 
L 272.017952 172.262577 
L 273.645293 178.23587 
L 274.458964 181.002415 
L 276.086305 187.467324 
L 280.968328 201.913762 
L 285.850352 216.112786 
L 288.291363 222.044308 
L 289.105034 224.393139 
L 291.546045 229.727011 
L 292.359716 231.622785 
L 293.173386 233.229373 
L 295.614398 237.329385 
L 297.241739 240.574692 
L 298.86908 243.501895 
L 300.496421 246.046731 
L 306.192115 252.469869 
L 307.819456 254.693387 
L 310.260468 257.466357 
L 311.887809 259.873026 
L 312.701479 260.74701 
L 313.51515 261.887687 
L 315.142491 263.735263 
L 315.956162 264.307208 
L 316.769832 264.712068 
L 317.583503 265.682447 
L 318.397173 266.418265 
L 320.024514 267.555729 
L 322.465526 268.606437 
L 324.906538 269.769607 
L 325.720208 270.036301 
L 327.347549 270.315847 
L 328.97489 270.852447 
L 329.788561 270.92635 
L 330.602231 271.202683 
L 334.670584 271.8164 
L 336.297925 271.967419 
L 337.111596 272.227686 
L 337.925266 272.266245 
L 339.552607 272.719302 
L 341.179948 273.275182 
L 346.061972 274.595797 
L 348.502983 275.058494 
L 351.757665 275.723622 
L 356.639689 276.122055 
L 360.708041 276.273075 
L 370.472088 276.327699 
L 400.577898 276.334125 
L 400.577898 276.334125 
" style="fill:none;stroke:#000080;stroke-linecap:round;stroke-width:1.5;"/>
   </g>
   <g id="line2d_19">
    <path clip-path="url(#p33cefe7afb)" d="M 75.923352 251.676215 
L 76.737023 203.369331 
L 77.550693 170.003714 
L 78.364364 144.889533 
L 79.991705 107.587776 
L 81.619046 82.910586 
L 83.246387 66.8672 
L 84.060058 61.263421 
L 85.687399 53.249761 
L 86.501069 50.380395 
L 87.31474 46.971216 
L 88.12841 46.039395 
L 88.942081 44.079358 
L 90.569422 41.290321 
L 91.383093 41.258189 
L 92.196763 40.342434 
L 93.010434 39.854031 
L 93.824104 38.951129 
L 94.637775 39.542353 
L 96.265116 37.530905 
L 97.078786 36.62479 
L 98.706127 35.525884 
L 99.519798 35.647984 
L 100.333468 35.217419 
L 101.147139 35.860054 
L 101.96081 37.048929 
L 104.401821 38.748699 
L 105.215492 38.777618 
L 106.029162 38.337413 
L 106.842833 37.479495 
L 107.656503 37.199948 
L 108.470174 37.209588 
L 109.283844 36.576592 
L 110.097515 36.743677 
L 110.911185 36.293833 
L 111.724856 36.338817 
L 113.352197 35.564442 
L 114.165868 34.902528 
L 114.979538 35.959663 
L 115.793209 36.608724 
L 116.606879 36.894697 
L 117.42055 37.367033 
L 118.23422 36.82722 
L 119.047891 36.788662 
L 119.861561 36.621577 
L 120.675232 37.016797 
L 121.488903 37.177456 
L 122.302573 37.013584 
L 123.116244 37.331689 
L 123.929914 37.402378 
L 124.743585 37.334902 
L 125.557255 37.428084 
L 126.370926 37.071421 
L 127.184596 37.312409 
L 127.998267 38.134982 
L 128.811937 37.591956 
L 129.625608 37.347754 
L 130.439278 36.679414 
L 131.252949 37.762254 
L 132.06662 36.81758 
L 132.88029 37.212801 
L 133.693961 38.032161 
L 135.321302 37.916487 
L 136.134972 37.559824 
L 136.948643 38.089998 
L 137.762313 38.0418 
L 138.575984 38.305281 
L 139.389654 38.398463 
L 140.203325 38.999327 
L 141.016995 38.935063 
L 141.830666 39.26602 
L 142.644337 39.240315 
L 143.458007 39.725504 
L 144.271678 40.040396 
L 145.085348 39.561633 
L 146.712689 39.927935 
L 149.153701 39.269234 
L 150.781042 39.696586 
L 151.594712 39.086082 
L 152.408383 39.654815 
L 153.222054 40.859755 
L 154.035724 40.361713 
L 154.849395 41.51203 
L 155.663065 41.45098 
L 157.290406 42.919401 
L 158.917747 44.950128 
L 159.731418 44.182179 
L 160.545088 43.82873 
L 161.358759 43.619873 
L 162.17243 45.017605 
L 162.9861 44.352478 
L 164.613441 45.79198 
L 165.427112 45.705224 
L 166.240782 46.405697 
L 167.054453 46.453894 
L 167.868123 46.916592 
L 169.495464 47.449979 
L 170.309135 47.517456 
L 171.122805 48.841284 
L 171.936476 49.593167 
L 172.750147 49.753826 
L 173.563817 50.480004 
L 174.377488 50.158686 
L 175.191158 49.692776 
L 176.004829 49.699202 
L 176.818499 50.582825 
L 177.63217 51.132278 
L 178.44584 51.408611 
L 179.259511 52.321153 
L 180.073181 52.141215 
L 180.886852 51.659239 
L 181.700522 51.421464 
L 182.514193 51.755634 
L 183.327864 51.855243 
L 184.141534 52.285808 
L 184.955205 52.465746 
L 186.582546 54.236206 
L 187.396216 55.322259 
L 188.209887 56.042011 
L 190.650898 57.54899 
L 191.464569 58.956361 
L 193.09191 59.971725 
L 193.905581 60.839282 
L 194.719251 60.977449 
L 195.532922 60.321961 
L 196.346592 60.569375 
L 197.160263 60.41193 
L 197.973933 61.028859 
L 198.787604 62.050649 
L 199.601274 62.44587 
L 200.414945 62.661153 
L 201.228615 63.637958 
L 202.042286 63.94321 
L 202.855957 64.466958 
L 203.669627 64.553713 
L 204.483298 64.846112 
L 205.296968 66.009282 
L 206.110639 65.983576 
L 206.924309 67.207796 
L 207.73798 67.127467 
L 208.55165 68.730842 
L 210.178991 70.102868 
L 210.992662 69.228884 
L 211.806332 70.427398 
L 212.620003 70.286019 
L 214.247344 71.375285 
L 215.061015 71.500599 
L 215.874685 71.818704 
L 216.688356 72.676621 
L 217.502026 73.03971 
L 218.315697 74.533837 
L 219.129367 75.767697 
L 220.756708 75.860879 
L 221.570379 76.702731 
L 222.384049 76.795913 
L 224.011391 77.714881 
L 224.825061 79.074054 
L 225.638732 79.257205 
L 226.452402 80.237224 
L 228.893414 81.066223 
L 229.707084 81.94342 
L 231.334425 85.040922 
L 232.961766 86.290847 
L 233.775437 86.200878 
L 234.589108 86.917416 
L 235.402778 86.718199 
L 236.216449 87.392966 
L 237.030119 88.273376 
L 237.84379 88.025962 
L 240.284801 88.234818 
L 241.098472 88.694302 
L 241.912142 89.770716 
L 242.725813 89.658255 
L 244.353154 91.187727 
L 245.166825 93.054582 
L 245.980495 93.658659 
L 246.794166 95.535154 
L 248.421507 99.705856 
L 249.235177 101.367067 
L 250.048848 103.972953 
L 250.862518 105.666297 
L 251.676189 107.767714 
L 252.489859 110.794525 
L 253.30353 112.905582 
L 254.117201 114.104096 
L 255.744542 119.727154 
L 256.558212 121.953884 
L 258.999224 130.799757 
L 260.626565 138.286457 
L 261.440235 142.331845 
L 263.067576 147.906705 
L 267.9496 165.206443 
L 269.576941 171.568531 
L 270.390611 173.618537 
L 271.204282 177.101619 
L 272.831623 182.371227 
L 274.458964 187.942874 
L 275.272635 191.413104 
L 276.899976 196.750189 
L 279.340987 203.751699 
L 280.154658 205.55429 
L 280.968328 208.118404 
L 281.781999 210.104147 
L 282.595669 213.217714 
L 284.223011 217.446254 
L 286.664022 224.165004 
L 289.918704 231.002642 
L 292.359716 235.73565 
L 295.614398 241.609335 
L 296.428069 243.035985 
L 298.86908 246.499788 
L 301.310092 250.397371 
L 302.937433 252.367047 
L 305.378445 256.103971 
L 306.192115 257.244648 
L 307.819456 258.452802 
L 309.446797 259.805549 
L 314.32882 263.767395 
L 315.142491 264.088712 
L 315.956162 264.776332 
L 316.769832 265.29044 
L 319.210844 267.427202 
L 320.838185 268.571092 
L 321.651855 269.020937 
L 323.279196 269.737475 
L 324.092867 270.158401 
L 328.16122 271.299079 
L 329.788561 271.424392 
L 333.856913 272.29195 
L 342.807289 273.92103 
L 344.43463 274.014212 
L 346.875642 274.444778 
L 350.130324 274.512254 
L 351.757665 274.66006 
L 353.385006 274.650421 
L 355.826018 274.875343 
L 362.335382 275.190234 
L 367.217406 275.527618 
L 368.844747 275.701129 
L 372.913099 275.95497 
L 379.422464 276.134908 
L 381.863475 276.073858 
L 390.813851 276.080284 
L 400.577898 276.044939 
L 400.577898 276.044939 
" style="fill:none;stroke:#0000f1;stroke-linecap:round;stroke-width:1.5;"/>
   </g>
   <g id="line2d_20">
    <path clip-path="url(#p33cefe7afb)" d="M 75.923352 251.746904 
L 76.737023 204.073016 
L 77.550693 170.524249 
L 78.364364 144.015549 
L 79.178034 123.451224 
L 80.805376 92.675427 
L 81.619046 82.181195 
L 82.432717 73.264633 
L 83.246387 66.536243 
L 84.873728 57.179475 
L 86.501069 50.004454 
L 87.31474 47.109382 
L 88.12841 45.281085 
L 88.942081 44.076144 
L 89.755751 42.405293 
L 90.569422 41.261402 
L 91.383093 40.869395 
L 92.196763 40.14643 
L 93.010434 40.496667 
L 93.824104 39.927935 
L 94.637775 38.141409 
L 96.265116 36.403081 
L 97.078786 35.786151 
L 97.892457 35.80543 
L 99.519798 36.268127 
L 100.333468 36.486623 
L 101.147139 36.014287 
L 101.96081 36.814367 
L 102.77448 36.904336 
L 103.588151 37.270638 
L 104.401821 36.303472 
L 106.029162 36.515542 
L 106.842833 36.865778 
L 107.656503 37.357394 
L 109.283844 37.884355 
L 110.097515 37.106766 
L 110.911185 37.524479 
L 111.724856 38.501285 
L 112.538527 38.025735 
L 113.352197 36.313112 
L 114.165868 35.879333 
L 114.979538 36.358096 
L 115.793209 36.663348 
L 116.606879 37.093914 
L 120.675232 36.518755 
L 121.488903 36.644069 
L 122.302573 37.617661 
L 123.929914 37.312409 
L 124.743585 37.569464 
L 125.557255 37.656219 
L 126.370926 39.005753 
L 127.184596 37.820091 
L 127.998267 37.087487 
L 128.811937 38.0418 
L 129.625608 38.24423 
L 131.252949 38.144622 
L 132.06662 38.584827 
L 132.88029 38.571974 
L 133.693961 38.748699 
L 134.507631 37.829731 
L 135.321302 37.836157 
L 136.134972 38.218525 
L 136.948643 38.851521 
L 138.575984 39.661241 
L 139.389654 40.435616 
L 140.203325 40.724802 
L 141.016995 40.281384 
L 141.830666 40.862969 
L 142.644337 41.145728 
L 143.458007 40.773 
L 144.271678 39.998624 
L 145.085348 39.400974 
L 145.899019 39.799408 
L 146.712689 40.380992 
L 147.52636 40.16571 
L 148.34003 40.104659 
L 149.153701 40.573783 
L 149.967371 40.050035 
L 150.781042 40.41955 
L 151.594712 39.693373 
L 152.408383 40.875821 
L 153.222054 40.789066 
L 154.035724 41.753018 
L 154.849395 40.464535 
L 156.476736 41.078251 
L 157.290406 40.785852 
L 158.104077 40.612341 
L 158.917747 41.364224 
L 160.545088 43.057568 
L 161.358759 43.806238 
L 162.17243 43.7484 
L 163.799771 44.522776 
L 164.613441 45.477089 
L 165.427112 45.59919 
L 166.240782 46.090806 
L 167.054453 45.881949 
L 167.868123 45.991197 
L 168.681794 46.415336 
L 169.495464 46.129364 
L 170.309135 46.669177 
L 171.936476 48.407505 
L 172.750147 49.210799 
L 173.563817 48.854137 
L 174.377488 48.940892 
L 175.191158 49.936977 
L 176.818499 49.917698 
L 177.63217 50.181178 
L 178.44584 50.708139 
L 179.259511 50.512135 
L 180.073181 52.24725 
L 180.886852 52.851327 
L 181.700522 52.359711 
L 182.514193 52.745292 
L 183.327864 53.26904 
L 184.141534 53.529307 
L 184.955205 54.322962 
L 185.768875 54.904547 
L 186.582546 54.930252 
L 187.396216 55.592166 
L 188.209887 55.614658 
L 189.023557 56.475789 
L 189.837228 56.25408 
L 190.650898 55.711054 
L 191.464569 55.470065 
L 192.278239 56.540053 
L 193.09191 57.304789 
L 193.905581 57.333707 
L 194.719251 58.554714 
L 195.532922 59.120233 
L 197.160263 59.827132 
L 199.601274 61.546181 
L 201.228615 62.474789 
L 202.042286 62.635447 
L 203.669627 64.553713 
L 204.483298 66.214925 
L 205.296968 65.983576 
L 206.110639 66.645491 
L 206.924309 66.59408 
L 208.55165 68.640873 
L 209.365321 69.463446 
L 210.992662 70.311724 
L 212.620003 71.275677 
L 213.433674 72.670195 
L 214.247344 73.749822 
L 215.061015 73.51526 
L 217.502026 73.489555 
L 218.315697 73.650214 
L 219.129367 75.208604 
L 219.943038 76.513153 
L 222.384049 78.913396 
L 224.011391 79.77774 
L 224.825061 80.834875 
L 225.638732 80.735266 
L 227.266073 83.042326 
L 228.079743 83.704241 
L 229.707084 85.67713 
L 230.520755 86.120549 
L 231.334425 87.605036 
L 232.148096 87.86209 
L 232.961766 89.092736 
L 234.589108 92.447292 
L 235.402778 92.710772 
L 236.216449 94.050666 
L 237.030119 95.840405 
L 237.84379 96.659765 
L 238.65746 96.752947 
L 239.471131 98.452717 
L 240.284801 100.505936 
L 241.912142 103.320678 
L 242.725813 105.557049 
L 243.539484 107.340361 
L 249.235177 122.680062 
L 250.048848 125.597626 
L 252.489859 130.597327 
L 253.30353 132.689104 
L 254.117201 135.449222 
L 254.930871 137.087942 
L 256.558212 141.82095 
L 257.371883 145.28154 
L 258.185553 148.154119 
L 258.999224 151.650054 
L 260.626565 157.498034 
L 262.253906 163.872975 
L 264.694918 171.758108 
L 268.76327 187.168499 
L 272.017952 197.412103 
L 272.831623 199.905527 
L 273.645293 201.859138 
L 276.086305 208.600381 
L 279.340987 216.099933 
L 285.036681 230.822704 
L 286.664022 234.006961 
L 287.477693 235.72601 
L 288.291363 237.011281 
L 290.732375 241.97885 
L 295.614398 250.368452 
L 298.05541 253.517364 
L 298.86908 254.098949 
L 299.682751 254.831553 
L 300.496421 255.811572 
L 307.005786 261.463548 
L 307.819456 262.115822 
L 308.633127 262.591372 
L 310.260468 263.796313 
L 312.701479 264.847022 
L 313.51515 265.312932 
L 318.397173 267.189427 
L 322.465526 269.294057 
L 324.092867 269.737475 
L 326.533879 270.498998 
L 327.347549 270.534343 
L 328.16122 270.727133 
L 329.788561 270.913498 
L 332.229572 271.324784 
L 333.043243 271.456524 
L 337.111596 272.693597 
L 337.925266 272.883174 
L 338.738937 273.198065 
L 339.552607 273.252689 
L 342.807289 274.078476 
L 347.689313 274.560452 
L 353.385006 274.859277 
L 355.826018 275.395878 
L 363.962723 275.768606 
L 376.167782 276.083497 
L 380.236134 276.250582 
L 396.509545 276.334125 
L 400.577898 276.334125 
L 400.577898 276.334125 
" style="fill:none;stroke:#004cff;stroke-linecap:round;stroke-width:1.5;"/>
   </g>
   <g id="line2d_21">
    <path clip-path="url(#p33cefe7afb)" d="M 75.923352 251.538048 
L 76.737023 204.391121 
L 77.550693 170.90019 
L 78.364364 145.127308 
L 79.178034 125.138141 
L 79.991705 108.211132 
L 80.805376 94.677236 
L 81.619046 83.318659 
L 83.246387 67.426292 
L 84.060058 61.726119 
L 85.687399 53.27868 
L 88.12841 45.069016 
L 88.942081 42.662347 
L 89.755751 41.219631 
L 90.569422 40.583422 
L 91.383093 40.104659 
L 92.196763 39.176051 
L 93.010434 38.665156 
L 93.824104 37.755828 
L 94.637775 37.608022 
L 95.451445 37.823304 
L 96.265116 37.736549 
L 97.078786 37.482708 
L 97.892457 38.793684 
L 98.706127 39.092509 
L 99.519798 38.39525 
L 101.147139 36.679414 
L 101.96081 36.165306 
L 102.77448 35.885759 
L 104.401821 36.049631 
L 105.215492 35.374865 
L 106.029162 36.06891 
L 106.842833 36.358096 
L 107.656503 36.171732 
L 108.470174 36.425573 
L 109.283844 35.284896 
L 110.097515 34.982857 
L 110.911185 35.227058 
L 111.724856 35.59336 
L 112.538527 36.435213 
L 113.352197 37.010371 
L 114.165868 37.248146 
L 115.793209 37.093914 
L 117.42055 37.064995 
L 118.23422 37.389526 
L 119.047891 37.370247 
L 119.861561 37.791173 
L 120.675232 37.852223 
L 121.488903 36.949321 
L 122.302573 37.44415 
L 123.116244 37.624088 
L 126.370926 37.341328 
L 127.184596 37.177456 
L 127.998267 37.489134 
L 128.811937 37.10034 
L 129.625608 38.25387 
L 131.252949 37.694777 
L 132.06662 37.961471 
L 132.88029 37.653006 
L 133.693961 38.453087 
L 134.507631 38.710141 
L 135.321302 39.14392 
L 136.134972 38.449874 
L 136.948643 38.061079 
L 137.762313 39.147133 
L 138.575984 39.500582 
L 140.203325 37.942192 
L 141.016995 38.443447 
L 141.830666 38.369544 
L 142.644337 38.816176 
L 143.458007 39.13428 
L 144.271678 39.076443 
L 145.085348 39.182478 
L 146.712689 39.747997 
L 147.52636 38.279575 
L 148.34003 38.697288 
L 149.153701 39.88295 
L 149.967371 40.046822 
L 150.781042 39.436319 
L 151.594712 39.927935 
L 152.408383 40.066101 
L 153.222054 40.654112 
L 154.035724 39.860458 
L 154.849395 40.15607 
L 155.663065 40.278171 
L 156.476736 40.596275 
L 158.104077 41.389929 
L 158.917747 41.585933 
L 159.731418 42.659134 
L 160.545088 42.292832 
L 162.17243 43.407804 
L 162.9861 44.924423 
L 164.613441 46.665964 
L 165.427112 46.829836 
L 166.240782 46.302875 
L 167.054453 46.174348 
L 168.681794 46.280383 
L 169.495464 47.286107 
L 170.309135 47.244336 
L 171.122805 46.733441 
L 171.936476 47.164006 
L 172.750147 47.080464 
L 173.563817 46.656324 
L 174.377488 48.095827 
L 175.191158 47.851626 
L 176.004829 48.31111 
L 176.818499 48.593869 
L 177.63217 48.394653 
L 178.44584 49.329687 
L 179.259511 49.602807 
L 180.073181 50.884864 
L 181.700522 51.986983 
L 182.514193 52.208692 
L 183.327864 52.645684 
L 184.141534 53.902036 
L 184.955205 54.923826 
L 185.768875 55.084484 
L 186.582546 55.518263 
L 187.396216 55.007368 
L 188.209887 56.498282 
L 189.023557 56.581824 
L 189.837228 56.363328 
L 191.464569 58.175559 
L 192.278239 58.956361 
L 193.09191 59.184497 
L 194.719251 60.996728 
L 195.532922 61.321258 
L 196.346592 61.49477 
L 197.160263 62.651513 
L 198.787604 62.65794 
L 199.601274 63.245951 
L 200.414945 63.557629 
L 201.228615 64.14564 
L 202.042286 63.975342 
L 202.855957 63.965702 
L 203.669627 63.547989 
L 204.483298 64.653322 
L 205.296968 66.002856 
L 206.110639 65.620488 
L 207.73798 66.099251 
L 208.55165 67.159599 
L 209.365321 67.603017 
L 210.178991 68.184602 
L 210.992662 67.731544 
L 211.806332 68.563757 
L 212.620003 68.865795 
L 213.433674 68.756547 
L 214.247344 69.502004 
L 215.061015 70.555926 
L 215.874685 70.902948 
L 216.688356 71.49096 
L 217.502026 71.462041 
L 218.315697 71.722308 
L 219.129367 72.557734 
L 219.943038 72.657342 
L 220.756708 73.373881 
L 222.384049 75.147554 
L 223.19772 75.803041 
L 224.011391 75.931568 
L 225.638732 77.18792 
L 226.452402 78.476404 
L 227.266073 78.569586 
L 228.079743 79.976957 
L 228.893414 80.208305 
L 229.707084 82.007684 
L 231.334425 84.224775 
L 232.148096 85.74782 
L 232.961766 86.997746 
L 233.775437 88.029175 
L 234.589108 90.175576 
L 235.402778 90.699324 
L 236.216449 92.129187 
L 238.65746 94.915011 
L 239.471131 95.503022 
L 240.284801 97.164234 
L 241.098472 98.513767 
L 242.725813 102.228199 
L 243.539484 102.539877 
L 244.353154 102.980082 
L 245.166825 103.882984 
L 245.980495 104.262139 
L 246.794166 104.152891 
L 248.421507 106.039025 
L 249.235177 106.334637 
L 250.048848 107.63276 
L 250.862518 107.947651 
L 251.676189 108.65455 
L 253.30353 109.110821 
L 254.117201 109.730964 
L 255.744542 110.155103 
L 256.558212 111.629951 
L 257.371883 112.111927 
L 258.185553 112.160125 
L 258.999224 112.009105 
L 261.440235 111.167253 
L 262.253906 111.970547 
L 263.881247 114.525022 
L 264.694918 115.855277 
L 266.322259 119.52151 
L 267.135929 120.495103 
L 268.76327 123.261647 
L 269.576941 124.151697 
L 270.390611 124.267371 
L 271.204282 124.704363 
L 272.017952 125.427327 
L 272.831623 126.474823 
L 273.645293 128.299906 
L 274.458964 130.533064 
L 275.272635 133.232131 
L 279.340987 149.635393 
L 282.595669 164.390296 
L 283.40934 167.516716 
L 284.223011 169.627772 
L 287.477693 180.48188 
L 289.105034 186.368418 
L 289.918704 188.135665 
L 292.359716 196.303557 
L 293.173386 198.697373 
L 294.800728 204.111574 
L 295.614398 206.463619 
L 296.428069 208.433296 
L 297.241739 210.888162 
L 298.05541 213.796086 
L 301.310092 222.61304 
L 302.123762 224.573077 
L 303.751103 229.254674 
L 305.378445 233.332194 
L 307.819456 238.286911 
L 308.633127 239.475786 
L 309.446797 241.014897 
L 310.260468 242.104164 
L 311.887809 244.838577 
L 312.701479 245.821808 
L 314.32882 248.610845 
L 315.956162 251.001448 
L 316.769832 251.830447 
L 319.210844 254.854045 
L 320.024514 255.56737 
L 321.651855 257.39888 
L 322.465526 258.198961 
L 323.279196 258.783759 
L 324.906538 261.103672 
L 326.533879 262.694194 
L 328.97489 264.544983 
L 330.602231 266.042323 
L 332.229572 267.45612 
L 333.856913 269.014511 
L 336.297925 270.235517 
L 338.738937 271.266947 
L 341.993619 272.269458 
L 343.62096 272.50402 
L 345.248301 272.7675 
L 346.061972 272.973143 
L 348.502983 273.124162 
L 351.757665 273.448693 
L 352.571336 273.329806 
L 356.639689 273.747519 
L 357.453359 273.750732 
L 359.894371 274.059197 
L 375.354111 275.697916 
L 385.931828 276.054579 
L 388.37284 276.032086 
L 400.577898 276.318059 
L 400.577898 276.318059 
" style="fill:none;stroke:#00b0ff;stroke-linecap:round;stroke-width:1.5;"/>
   </g>
   <g id="line2d_22">
    <path clip-path="url(#p33cefe7afb)" d="M 75.923352 252.103567 
L 76.737023 203.812749 
L 77.550693 170.55638 
L 78.364364 144.420409 
L 79.991705 107.147571 
L 80.805376 94.355918 
L 81.619046 83.443973 
L 83.246387 66.696901 
L 84.060058 61.147747 
L 84.873728 57.491153 
L 86.501069 49.207586 
L 87.31474 46.816983 
L 88.12841 45.525287 
L 88.942081 43.584529 
L 89.755751 42.263913 
L 90.569422 41.505604 
L 92.196763 39.433105 
L 93.010434 39.307792 
L 93.824104 38.356692 
L 94.637775 38.472366 
L 95.451445 38.427381 
L 96.265116 38.083572 
L 97.078786 38.141409 
L 97.892457 37.669072 
L 98.706127 37.437723 
L 99.519798 36.49305 
L 100.333468 37.119619 
L 101.147139 36.991092 
L 101.96081 37.76868 
L 102.77448 37.78796 
L 103.588151 36.933255 
L 104.401821 37.328475 
L 105.215492 36.637643 
L 106.029162 36.5541 
L 106.842833 36.926828 
L 107.656503 36.669774 
L 108.470174 37.264212 
L 109.283844 36.046418 
L 110.097515 36.168519 
L 111.724856 36.152453 
L 112.538527 36.358096 
L 113.352197 35.879333 
L 114.165868 36.676201 
L 115.793209 37.03929 
L 116.606879 36.431999 
L 117.42055 36.306685 
L 118.23422 37.003945 
L 119.047891 37.238506 
L 121.488903 38.408102 
L 122.302573 38.118917 
L 123.116244 37.530905 
L 123.929914 38.938276 
L 124.743585 38.231378 
L 125.557255 37.929339 
L 126.370926 37.408805 
L 127.998267 37.360607 
L 128.811937 37.428084 
L 129.625608 36.689053 
L 130.439278 36.56374 
L 131.252949 36.595871 
L 132.06662 36.271341 
L 132.88029 36.438426 
L 133.693961 36.451278 
L 134.507631 36.714759 
L 135.321302 35.972515 
L 136.134972 36.656922 
L 136.948643 36.653708 
L 137.762313 37.248146 
L 138.575984 38.038587 
L 139.389654 37.797599 
L 140.203325 38.420955 
L 141.016995 37.675498 
L 141.830666 37.755828 
L 143.458007 39.436319 
L 144.271678 39.391334 
L 145.085348 39.915082 
L 145.899019 40.210694 
L 146.712689 39.339923 
L 147.52636 38.228165 
L 148.34003 38.118917 
L 149.153701 38.771191 
L 149.967371 39.208183 
L 151.594712 41.001135 
L 152.408383 41.216418 
L 153.222054 42.2607 
L 154.035724 42.267126 
L 154.849395 41.942596 
L 155.663065 41.807642 
L 156.476736 42.360309 
L 158.104077 42.639855 
L 158.917747 42.344243 
L 159.731418 42.273553 
L 160.545088 42.954746 
L 161.358759 42.845498 
L 162.17243 43.067207 
L 163.799771 44.23359 
L 164.613441 44.175753 
L 165.427112 44.885865 
L 166.240782 44.959768 
L 167.054453 45.891589 
L 167.868123 46.392844 
L 169.495464 46.4796 
L 170.309135 47.141514 
L 171.122805 47.334305 
L 171.936476 48.876629 
L 172.750147 48.275765 
L 173.563817 48.298257 
L 174.377488 48.728823 
L 175.191158 48.712757 
L 177.63217 50.595678 
L 178.44584 50.762763 
L 179.259511 51.964491 
L 180.886852 52.38863 
L 181.700522 53.314025 
L 182.514193 53.317238 
L 183.327864 53.490749 
L 184.141534 55.090911 
L 184.955205 56.029158 
L 185.768875 55.164814 
L 186.582546 55.521476 
L 187.396216 55.608232 
L 188.209887 55.939189 
L 189.837228 57.847816 
L 190.650898 58.667175 
L 191.464569 59.229481 
L 192.278239 58.471172 
L 193.09191 58.696094 
L 193.905581 59.425485 
L 195.532922 59.306597 
L 196.346592 59.261613 
L 197.973933 60.116318 
L 198.787604 61.041712 
L 199.601274 61.054565 
L 201.228615 62.889288 
L 202.042286 63.368051 
L 202.855957 63.25559 
L 203.669627 63.560842 
L 205.296968 64.913589 
L 206.110639 65.588356 
L 206.924309 65.71367 
L 207.73798 66.401289 
L 208.55165 67.648001 
L 209.365321 67.905056 
L 210.178991 68.515559 
L 210.992662 69.463446 
L 211.806332 69.482725 
L 214.247344 71.674111 
L 215.874685 73.428505 
L 216.688356 73.637361 
L 217.502026 74.090419 
L 219.129367 76.670599 
L 220.756708 78.010493 
L 221.570379 79.527112 
L 222.384049 80.44608 
L 223.19772 80.815596 
L 224.011391 81.744203 
L 224.825061 83.434334 
L 225.638732 83.913097 
L 226.452402 86.004874 
L 227.266073 87.58897 
L 228.893414 89.317659 
L 229.707084 90.365154 
L 230.520755 90.599716 
L 231.334425 91.014215 
L 232.148096 91.104184 
L 232.961766 92.122761 
L 233.775437 92.315551 
L 234.589108 93.626527 
L 235.402778 94.577627 
L 237.030119 97.183513 
L 237.84379 99.175682 
L 238.65746 99.538771 
L 239.471131 100.708366 
L 240.284801 102.147869 
L 241.098472 102.970442 
L 241.912142 103.587372 
L 242.725813 105.120057 
L 243.539484 106.369982 
L 244.353154 108.307527 
L 245.166825 110.665998 
L 247.607836 114.579646 
L 248.421507 116.716408 
L 249.235177 117.834593 
L 250.862518 122.38445 
L 251.676189 124.2256 
L 253.30353 130.346699 
L 255.744542 139.64563 
L 258.999224 153.998886 
L 259.812894 156.399128 
L 261.440235 161.787624 
L 263.881247 169.351439 
L 264.694918 170.993372 
L 265.508588 173.48037 
L 266.322259 176.471837 
L 267.9496 181.661116 
L 269.576941 187.534801 
L 270.390611 190.044291 
L 271.204282 193.138579 
L 272.017952 195.442426 
L 273.645293 201.35467 
L 275.272635 206.727099 
L 276.086305 208.68071 
L 277.713646 213.661133 
L 281.781999 224.611635 
L 284.223011 231.51675 
L 289.918704 243.312318 
L 292.359716 247.746501 
L 293.173386 248.71688 
L 297.241739 254.857258 
L 299.682751 257.633442 
L 301.310092 259.365344 
L 302.123762 259.924437 
L 307.005786 264.570689 
L 307.819456 265.284014 
L 311.074138 267.45612 
L 311.887809 267.815996 
L 313.51515 268.908476 
L 314.32882 269.470782 
L 316.769832 270.560048 
L 319.210844 271.260521 
L 320.838185 271.578625 
L 322.465526 271.703939 
L 328.97489 273.11131 
L 330.602231 273.358724 
L 337.111596 274.274479 
L 343.62096 274.737177 
L 346.061972 274.862491 
L 356.639689 275.530831 
L 359.0807 275.521192 
L 361.521712 275.685064 
L 363.962723 275.694703 
L 368.844747 275.845722 
L 371.285758 276.048152 
L 380.236134 276.305206 
L 400.577898 276.334125 
L 400.577898 276.334125 
" style="fill:none;stroke:#29ffce;stroke-linecap:round;stroke-width:1.5;"/>
   </g>
   <g id="line2d_23">
    <path clip-path="url(#p33cefe7afb)" d="M 75.923352 251.505916 
L 76.737023 204.387907 
L 77.550693 170.832713 
L 78.364364 145.384362 
L 79.178034 125.51087 
L 79.991705 108.615992 
L 80.805376 94.773631 
L 82.432717 75.407821 
L 84.060058 61.963894 
L 86.501069 50.087996 
L 87.31474 47.507816 
L 88.942081 44.310706 
L 89.755751 42.334603 
L 90.569422 41.396356 
L 91.383093 40.666965 
L 92.196763 40.917593 
L 93.010434 39.889376 
L 93.824104 37.424871 
L 94.637775 37.341328 
L 95.451445 37.955045 
L 96.265116 37.010371 
L 97.078786 37.44415 
L 97.892457 36.788662 
L 98.706127 35.670477 
L 99.519798 35.718674 
L 100.333468 35.484113 
L 101.147139 36.06891 
L 101.96081 36.28098 
L 102.77448 36.059271 
L 103.588151 36.062484 
L 104.401821 36.476984 
L 105.215492 36.348457 
L 106.842833 36.621577 
L 109.283844 36.476984 
L 110.097515 35.908252 
L 110.911185 35.959663 
L 111.724856 36.335604 
L 112.538527 36.1396 
L 116.606879 38.179967 
L 117.42055 37.893994 
L 118.23422 38.045014 
L 119.047891 37.858649 
L 119.861561 37.431297 
L 120.675232 37.180669 
L 121.488903 36.419147 
L 122.302573 37.187096 
L 123.116244 36.557313 
L 123.929914 36.95896 
L 124.743585 36.878631 
L 125.557255 36.338817 
L 126.370926 36.762956 
L 127.184596 36.737251 
L 127.998267 37.097127 
L 128.811937 38.028948 
L 129.625608 37.02965 
L 130.439278 36.679414 
L 131.252949 37.016797 
L 132.06662 37.126045 
L 132.88029 36.997518 
L 133.693961 36.444852 
L 134.507631 37.354181 
L 135.321302 37.797599 
L 136.134972 38.838668 
L 136.948643 38.289215 
L 137.762313 38.334199 
L 138.575984 38.134982 
L 139.389654 38.089998 
L 140.203325 38.845094 
L 141.016995 38.302068 
L 141.830666 38.408102 
L 142.644337 38.25387 
L 143.458007 39.629109 
L 144.271678 39.911869 
L 145.085348 39.889376 
L 145.899019 39.433105 
L 147.52636 39.911869 
L 148.34003 39.282086 
L 149.967371 41.158581 
L 150.781042 40.943298 
L 151.594712 41.226058 
L 152.408383 42.05827 
L 153.222054 41.994007 
L 154.035724 42.161092 
L 154.849395 41.730526 
L 155.663065 42.286406 
L 156.476736 41.778724 
L 157.290406 42.145026 
L 158.104077 42.106468 
L 159.731418 43.15075 
L 160.545088 43.957257 
L 161.358759 44.204671 
L 162.17243 45.393546 
L 162.9861 45.968705 
L 163.799771 46.855541 
L 164.613441 47.475684 
L 165.427112 46.94551 
L 166.240782 46.81377 
L 167.868123 45.740569 
L 168.681794 45.698798 
L 169.495464 46.74308 
L 170.309135 47.353584 
L 171.122805 47.649196 
L 171.936476 48.272552 
L 173.563817 48.741676 
L 174.377488 49.509625 
L 176.004829 50.014093 
L 176.818499 50.676007 
L 177.63217 50.672794 
L 178.44584 50.958767 
L 179.259511 50.836666 
L 180.073181 50.955554 
L 180.886852 51.868096 
L 181.700522 52.481812 
L 182.514193 52.346859 
L 184.141534 53.5518 
L 184.955205 53.763869 
L 185.768875 53.677113 
L 186.582546 54.801725 
L 187.396216 54.952744 
L 188.209887 56.389034 
L 189.023557 56.764975 
L 189.837228 57.455808 
L 190.650898 57.828536 
L 191.464569 57.773912 
L 192.278239 57.924932 
L 193.09191 58.757144 
L 193.905581 58.445466 
L 194.719251 59.351582 
L 195.532922 59.31945 
L 196.346592 59.907461 
L 197.160263 60.633639 
L 197.973933 61.154173 
L 198.787604 61.999239 
L 199.601274 63.978555 
L 201.228615 65.267038 
L 202.042286 65.218841 
L 202.855957 66.115317 
L 204.483298 65.636553 
L 205.296968 66.301681 
L 206.110639 66.430208 
L 206.924309 67.175665 
L 207.73798 66.941103 
L 208.55165 67.259207 
L 209.365321 66.931463 
L 210.178991 67.381308 
L 210.992662 67.548393 
L 212.620003 68.547691 
L 213.433674 69.013601 
L 214.247344 69.865093 
L 215.061015 70.375988 
L 216.688356 70.848324 
L 217.502026 70.867604 
L 218.315697 71.327088 
L 219.129367 71.352793 
L 219.943038 71.918312 
L 220.756708 71.940804 
L 221.570379 72.352091 
L 222.384049 73.614869 
L 223.19772 74.190027 
L 224.011391 74.95155 
L 224.825061 74.508132 
L 225.638732 75.15398 
L 227.266073 75.674514 
L 228.079743 76.667386 
L 228.893414 78.48283 
L 229.707084 79.398585 
L 230.520755 79.279698 
L 231.334425 81.188324 
L 232.148096 81.255801 
L 232.961766 82.595695 
L 233.775437 83.424694 
L 234.589108 84.507534 
L 235.402778 84.963805 
L 236.216449 86.679641 
L 237.030119 87.643594 
L 239.471131 89.475104 
L 240.284801 89.070244 
L 241.098472 89.391562 
L 242.725813 92.534047 
L 243.539484 93.726136 
L 244.353154 94.285228 
L 245.166825 95.355216 
L 245.980495 96.029983 
L 246.794166 96.932885 
L 247.607836 98.272779 
L 248.421507 98.774035 
L 249.235177 99.570902 
L 250.048848 102.028982 
L 250.862518 103.323892 
L 251.676189 104.185023 
L 252.489859 106.132207 
L 253.30353 106.447098 
L 254.117201 108.371791 
L 256.558212 111.867726 
L 257.371883 113.265457 
L 258.185553 115.273692 
L 258.999224 116.735687 
L 260.626565 121.703257 
L 262.253906 128.903983 
L 263.067576 130.95399 
L 264.694918 136.946562 
L 265.508588 139.735599 
L 267.135929 146.062342 
L 267.9496 148.796754 
L 269.576941 155.20704 
L 270.390611 157.947879 
L 271.204282 161.575554 
L 274.458964 172.548549 
L 275.272635 175.488605 
L 276.086305 179.013459 
L 277.713646 184.675074 
L 278.527317 186.831115 
L 279.340987 190.018586 
L 280.968328 194.799791 
L 281.781999 196.920487 
L 282.595669 200.140089 
L 284.223011 204.567845 
L 286.664022 212.330878 
L 289.918704 221.562332 
L 290.732375 223.342431 
L 291.546045 225.508111 
L 294.800728 232.422866 
L 295.614398 233.926632 
L 296.428069 235.147639 
L 299.682751 241.143425 
L 302.937433 246.544773 
L 304.564774 249.513747 
L 306.192115 252.048943 
L 308.633127 254.854045 
L 309.446797 255.634847 
L 310.260468 256.242137 
L 313.51515 259.423181 
L 314.32882 260.081882 
L 315.142491 260.589564 
L 318.397173 263.394666 
L 322.465526 265.923436 
L 323.279196 266.206195 
L 324.906538 267.240838 
L 325.720208 267.330807 
L 326.533879 267.726027 
L 327.347549 268.359023 
L 328.97489 269.143038 
L 329.788561 269.621801 
L 335.484255 271.360129 
L 336.297925 271.784268 
L 341.179948 273.047046 
L 342.807289 273.378003 
L 344.43463 273.660763 
L 346.061972 273.782863 
L 352.571336 274.512254 
L 354.198677 274.566878 
L 359.0807 275.071347 
L 360.708041 275.222366 
L 364.776394 275.325188 
L 368.031076 275.27699 
L 370.472088 275.248072 
L 372.913099 275.476207 
L 378.608793 275.810377 
L 398.136886 276.318059 
L 400.577898 276.318059 
L 400.577898 276.318059 
" style="fill:none;stroke:#7dff7a;stroke-linecap:round;stroke-width:1.5;"/>
   </g>
   <g id="line2d_24">
    <path clip-path="url(#p33cefe7afb)" d="M 75.923352 251.467358 
L 76.737023 203.38861 
L 77.550693 169.264684 
L 78.364364 143.289371 
L 79.178034 122.599733 
L 80.805376 92.595098 
L 81.619046 81.885583 
L 83.246387 66.912184 
L 84.060058 62.060289 
L 84.873728 58.97564 
L 85.687399 54.666772 
L 87.31474 48.385013 
L 88.12841 45.763062 
L 88.942081 44.37497 
L 89.755751 42.157878 
L 90.569422 41.174647 
L 91.383093 40.785852 
L 92.196763 39.182478 
L 93.010434 38.308494 
L 93.824104 37.800812 
L 94.637775 36.840073 
L 95.451445 37.495561 
L 96.265116 35.959663 
L 97.078786 36.717972 
L 97.892457 35.843988 
L 98.706127 35.895399 
L 99.519798 36.203864 
L 101.147139 36.123534 
L 101.96081 36.113895 
L 102.77448 36.759743 
L 103.588151 36.5541 
L 104.401821 37.543758 
L 105.215492 37.084274 
L 106.029162 36.830433 
L 106.842833 36.399868 
L 107.656503 35.705822 
L 108.470174 35.779725 
L 109.283844 35.39093 
L 110.097515 35.905039 
L 110.911185 35.692969 
L 111.724856 34.931446 
L 112.538527 34.571571 
L 113.352197 35.519457 
L 114.165868 36.29062 
L 114.979538 35.898612 
L 115.793209 36.313112 
L 116.606879 36.512329 
L 117.42055 37.048929 
L 118.23422 37.17103 
L 119.047891 37.688351 
L 119.861561 37.845797 
L 120.675232 37.871502 
L 121.488903 37.495561 
L 122.302573 37.871502 
L 123.116244 37.78796 
L 123.929914 36.248848 
L 124.743585 36.419147 
L 125.557255 36.833646 
L 126.370926 37.688351 
L 127.184596 39.00254 
L 128.811937 39.500582 
L 129.625608 39.625896 
L 130.439278 39.163199 
L 131.252949 39.19533 
L 132.88029 38.543056 
L 133.693961 37.858649 
L 134.507631 37.784746 
L 135.321302 37.228867 
L 136.134972 37.412018 
L 136.948643 36.61515 
L 137.762313 36.187798 
L 139.389654 36.457705 
L 140.203325 37.765467 
L 141.016995 37.887568 
L 141.830666 37.800812 
L 142.644337 37.546971 
L 143.458007 37.913273 
L 144.271678 37.71727 
L 145.085348 38.321347 
L 145.899019 39.365629 
L 146.712689 39.744784 
L 147.52636 39.677307 
L 149.153701 41.11681 
L 150.781042 40.949724 
L 151.594712 40.731228 
L 152.408383 40.888674 
L 153.222054 40.538438 
L 154.035724 41.283895 
L 155.663065 42.215716 
L 156.476736 41.952235 
L 157.290406 41.823708 
L 158.104077 40.959364 
L 158.917747 40.666965 
L 159.731418 41.505604 
L 160.545088 43.295343 
L 161.358759 42.418146 
L 162.17243 43.366033 
L 163.799771 44.590253 
L 164.613441 44.773404 
L 165.427112 44.670582 
L 166.240782 44.930849 
L 167.054453 44.474578 
L 167.868123 44.824814 
L 168.681794 46.023329 
L 169.495464 46.990495 
L 170.309135 47.019413 
L 171.122805 47.192925 
L 172.750147 48.368947 
L 173.563817 48.613149 
L 174.377488 48.976237 
L 175.191158 49.532117 
L 176.004829 49.467853 
L 176.818499 49.162602 
L 177.63217 49.461427 
L 178.44584 50.402887 
L 179.259511 49.856648 
L 180.073181 50.396461 
L 180.886852 51.360414 
L 181.700522 51.353987 
L 182.514193 51.823111 
L 183.327864 51.897014 
L 184.141534 52.716374 
L 184.955205 53.201563 
L 186.582546 55.135895 
L 188.209887 55.810662 
L 189.023557 55.746399 
L 190.650898 55.91991 
L 191.464569 56.594677 
L 192.278239 56.781041 
L 193.09191 57.259804 
L 194.719251 59.409419 
L 195.532922 60.158089 
L 197.973933 60.344453 
L 198.787604 60.566162 
L 199.601274 61.581526 
L 200.414945 61.925336 
L 201.228615 62.706137 
L 202.855957 61.414441 
L 203.669627 62.333409 
L 204.483298 62.696498 
L 205.296968 63.413036 
L 206.110639 63.766485 
L 208.55165 65.745801 
L 209.365321 66.712967 
L 210.178991 66.539456 
L 210.992662 67.365242 
L 211.806332 68.432016 
L 212.620003 69.685155 
L 213.433674 69.624105 
L 214.247344 69.444167 
L 215.061015 70.157492 
L 215.874685 71.249971 
L 216.688356 71.625913 
L 217.502026 71.497386 
L 218.315697 71.757653 
L 219.129367 72.487044 
L 219.943038 72.461339 
L 220.756708 71.751227 
L 223.19772 70.928654 
L 224.011391 71.725521 
L 224.825061 71.69339 
L 225.638732 72.567374 
L 226.452402 73.714477 
L 227.266073 74.190027 
L 228.079743 74.87122 
L 228.893414 75.896224 
L 230.520755 75.292147 
L 231.334425 75.774123 
L 232.148096 75.385329 
L 232.961766 75.883371 
L 233.775437 76.664173 
L 234.589108 76.689878 
L 236.216449 77.849834 
L 237.030119 78.556733 
L 237.84379 78.592078 
L 238.65746 79.311829 
L 239.471131 80.407522 
L 241.098472 80.748119 
L 241.912142 80.732053 
L 242.725813 80.995533 
L 243.539484 82.190835 
L 244.353154 82.90416 
L 245.166825 82.968423 
L 245.980495 83.488958 
L 246.794166 83.331512 
L 247.607836 83.78457 
L 248.421507 84.47219 
L 249.235177 84.729244 
L 250.048848 84.465763 
L 250.862518 84.504321 
L 251.676189 84.327597 
L 252.489859 84.276186 
L 253.30353 84.681046 
L 254.117201 84.799933 
L 254.930871 85.346173 
L 255.744542 86.085204 
L 256.558212 85.95025 
L 258.185553 86.518982 
L 258.999224 87.090928 
L 259.812894 88.39869 
L 261.440235 89.838193 
L 262.253906 90.702537 
L 263.067576 92.135614 
L 263.881247 92.723625 
L 264.694918 92.604737 
L 265.508588 93.30521 
L 266.322259 94.214538 
L 267.135929 94.606546 
L 268.76327 97.533749 
L 269.576941 98.545899 
L 270.390611 99.374899 
L 271.204282 100.419181 
L 272.017952 100.624824 
L 272.831623 100.689087 
L 273.645293 101.286738 
L 274.458964 101.25782 
L 275.272635 102.244264 
L 276.899976 104.898348 
L 278.527317 108.423201 
L 279.340987 109.708472 
L 282.595669 116.735687 
L 284.223011 120.112735 
L 285.036681 122.278415 
L 285.850352 125.109223 
L 286.664022 127.242772 
L 289.105034 135.686997 
L 290.732375 143.080515 
L 291.546045 146.046276 
L 292.359716 148.54934 
L 293.173386 151.672547 
L 294.800728 159.461285 
L 298.05541 172.092278 
L 300.496421 180.407977 
L 301.310092 182.904615 
L 302.123762 186.153135 
L 302.937433 188.582296 
L 307.819456 205.069101 
L 310.260468 211.444041 
L 311.074138 213.278765 
L 311.887809 214.785744 
L 314.32882 220.36703 
L 315.142491 222.413823 
L 315.956162 224.065396 
L 316.769832 225.183581 
L 317.583503 226.883351 
L 321.651855 236.40399 
L 323.279196 239.745693 
L 324.092867 241.226967 
L 325.720208 244.48834 
L 328.16122 248.202772 
L 329.788561 250.323468 
L 330.602231 251.547687 
L 332.229572 253.32136 
L 333.856913 255.014704 
L 337.925266 260.303591 
L 343.62096 265.798122 
L 345.248301 266.733156 
L 346.875642 267.279396 
L 348.502983 267.664977 
L 350.943995 268.786375 
L 351.757665 269.30691 
L 352.571336 269.348681 
L 354.198677 270.020235 
L 355.012347 270.31906 
L 355.826018 270.412242 
L 358.26703 271.360129 
L 363.962723 272.873535 
L 364.776394 273.230197 
L 369.658417 274.155592 
L 372.099429 274.557239 
L 376.981452 275.334827 
L 381.049805 275.598308 
L 383.490816 275.746114 
L 385.931828 275.983889 
L 390.000181 276.215237 
L 400.577898 276.330912 
L 400.577898 276.330912 
" style="fill:none;stroke:#ceff29;stroke-linecap:round;stroke-width:1.5;"/>
   </g>
   <g id="line2d_25">
    <path clip-path="url(#p33cefe7afb)" d="M 75.923352 251.740478 
L 76.737023 204.371842 
L 77.550693 170.594938 
L 78.364364 145.217277 
L 79.178034 125.372703 
L 80.805376 95.702239 
L 82.432717 75.687367 
L 83.246387 68.123551 
L 84.060058 62.028157 
L 85.687399 53.979152 
L 86.501069 50.553907 
L 87.31474 47.697393 
L 88.12841 46.331794 
L 89.755751 42.308898 
L 90.569422 40.84369 
L 91.383093 40.098233 
L 92.196763 39.773702 
L 93.824104 38.289215 
L 94.637775 38.39525 
L 95.451445 37.402378 
L 96.265116 36.782236 
L 97.078786 35.776512 
L 97.892457 35.133876 
L 99.519798 35.622279 
L 100.333468 36.216717 
L 101.96081 36.300259 
L 102.77448 36.88827 
L 103.588151 36.448065 
L 104.401821 36.136387 
L 105.215492 36.480197 
L 106.029162 37.016797 
L 107.656503 36.68584 
L 108.470174 36.910763 
L 109.283844 36.473771 
L 110.097515 35.644771 
L 110.911185 35.243124 
L 112.538527 36.913976 
L 113.352197 36.666561 
L 114.979538 37.649793 
L 115.793209 36.991092 
L 117.42055 36.830433 
L 118.23422 37.951831 
L 119.861561 38.883652 
L 120.675232 38.292428 
L 121.488903 38.302068 
L 122.302573 37.993603 
L 123.116244 37.961471 
L 123.929914 37.498774 
L 124.743585 38.417742 
L 125.557255 38.832242 
L 126.370926 38.594467 
L 127.184596 38.568761 
L 127.998267 37.691564 
L 128.811937 37.540545 
L 129.625608 38.147835 
L 130.439278 37.967897 
L 131.252949 38.035374 
L 132.06662 37.431297 
L 132.88029 38.687649 
L 133.693961 37.797599 
L 134.507631 38.681222 
L 135.321302 38.414529 
L 136.134972 39.513435 
L 136.948643 39.397761 
L 137.762313 40.753721 
L 138.575984 40.789066 
L 140.203325 39.625896 
L 141.016995 40.480601 
L 141.830666 40.914379 
L 142.644337 40.737655 
L 143.458007 40.162496 
L 145.085348 40.033969 
L 145.899019 39.503795 
L 146.712689 40.072527 
L 147.52636 39.857245 
L 148.34003 39.956853 
L 149.967371 39.503795 
L 150.781042 40.515946 
L 153.222054 41.775511 
L 154.035724 41.364224 
L 154.849395 41.316026 
L 155.663065 41.945809 
L 156.476736 42.206076 
L 157.290406 42.206076 
L 158.104077 42.389227 
L 158.917747 43.041502 
L 159.731418 42.974025 
L 162.17243 44.050439 
L 162.9861 45.004752 
L 163.799771 44.240016 
L 164.613441 44.766977 
L 165.427112 44.439233 
L 167.054453 44.477791 
L 167.868123 44.384609 
L 168.681794 44.464939 
L 170.309135 46.200054 
L 171.122805 46.566356 
L 171.936476 46.453894 
L 172.750147 47.414634 
L 173.563817 47.713459 
L 174.377488 48.561738 
L 175.191158 48.748102 
L 176.004829 48.16973 
L 176.818499 48.956958 
L 178.44584 50.981259 
L 179.259511 52.343646 
L 180.073181 52.983067 
L 180.886852 52.999133 
L 181.700522 53.840985 
L 182.514193 53.696392 
L 183.327864 53.950233 
L 184.141534 54.547884 
L 184.955205 54.284404 
L 185.768875 54.28119 
L 186.582546 54.55431 
L 187.396216 55.023434 
L 188.209887 56.308704 
L 189.023557 57.20518 
L 189.837228 56.87101 
L 190.650898 57.638959 
L 191.464569 57.301576 
L 192.278239 57.847816 
L 193.09191 58.201265 
L 193.905581 59.229481 
L 195.532922 59.811066 
L 196.346592 60.193434 
L 197.160263 60.376585 
L 197.973933 59.891395 
L 201.228615 63.441954 
L 202.042286 63.763272 
L 202.855957 65.138511 
L 203.669627 65.665472 
L 204.483298 65.893608 
L 205.296968 65.546585 
L 206.110639 65.700817 
L 206.924309 65.98679 
L 207.73798 65.28953 
L 208.55165 65.472682 
L 209.365321 66.067119 
L 210.178991 66.353092 
L 214.247344 70.083589 
L 215.061015 71.426696 
L 215.874685 70.74229 
L 216.688356 71.802638 
L 217.502026 72.409928 
L 218.315697 73.165024 
L 219.129367 73.476702 
L 219.943038 72.242843 
L 220.756708 71.854048 
L 222.384049 73.557032 
L 223.19772 73.814086 
L 225.638732 75.828747 
L 227.266073 79.057988 
L 228.079743 79.50462 
L 228.893414 81.728137 
L 230.520755 84.109101 
L 231.334425 84.639275 
L 232.961766 87.980977 
L 233.775437 89.153787 
L 234.589108 91.155595 
L 236.216449 92.781462 
L 237.030119 93.83217 
L 238.65746 94.770418 
L 239.471131 96.36094 
L 240.284801 96.89754 
L 241.098472 97.665489 
L 241.912142 98.279206 
L 242.725813 99.329914 
L 243.539484 101.145358 
L 244.353154 101.762288 
L 245.980495 104.946545 
L 246.794166 107.446396 
L 247.607836 108.991933 
L 248.421507 110.919839 
L 249.235177 113.210833 
L 250.048848 114.537875 
L 251.676189 118.078794 
L 252.489859 120.218769 
L 254.117201 126.159931 
L 254.930871 128.348104 
L 261.440235 153.658289 
L 263.067576 159.875784 
L 264.694918 167.160054 
L 267.9496 179.029525 
L 269.576941 183.936044 
L 272.831623 195.121109 
L 273.645293 197.900506 
L 275.272635 202.055142 
L 276.086305 204.68352 
L 277.713646 209.445446 
L 279.340987 214.448361 
L 283.40934 225.867987 
L 285.850352 230.938378 
L 287.477693 234.964488 
L 288.291363 236.789571 
L 292.359716 244.125252 
L 294.800728 248.189919 
L 297.241739 251.033579 
L 298.05541 251.550901 
L 299.682751 253.115717 
L 300.496421 253.539856 
L 304.564774 258.356407 
L 305.378445 259.297867 
L 308.633127 260.978358 
L 309.446797 261.563156 
L 310.260468 261.762373 
L 313.51515 263.45893 
L 315.142491 264.721708 
L 315.956162 265.071944 
L 317.583503 266.437544 
L 319.210844 267.726027 
L 320.838185 268.519682 
L 323.279196 269.801739 
L 325.720208 270.675723 
L 327.347549 271.469377 
L 329.788561 272.375493 
L 330.602231 272.818911 
L 333.043243 273.635057 
L 334.670584 273.962801 
L 337.925266 274.836785 
L 340.366278 275.219153 
L 344.43463 275.598308 
L 353.385006 276.054579 
L 358.26703 276.240943 
L 365.590065 276.314846 
L 400.577898 276.334125 
L 400.577898 276.334125 
" style="fill:none;stroke:#ffc400;stroke-linecap:round;stroke-width:1.5;"/>
   </g>
   <g id="line2d_26">
    <path clip-path="url(#p33cefe7afb)" d="M 75.923352 251.779036 
L 76.737023 203.353265 
L 77.550693 170.604578 
L 78.364364 144.626052 
L 79.178034 124.636886 
L 79.991705 108.506744 
L 80.805376 94.654743 
L 81.619046 83.672109 
L 82.432717 75.353197 
L 84.060058 61.973533 
L 84.873728 57.369052 
L 85.687399 53.545373 
L 86.501069 50.35469 
L 87.31474 47.62349 
L 88.942081 43.709842 
L 89.755751 42.614149 
L 90.569422 41.030054 
L 91.383093 40.143217 
L 92.196763 40.223547 
L 93.010434 39.057164 
L 94.637775 37.736549 
L 95.451445 37.794386 
L 96.265116 38.257083 
L 97.078786 37.852223 
L 97.892457 38.851521 
L 98.706127 38.321347 
L 99.519798 38.160688 
L 100.333468 38.186393 
L 101.147139 36.396654 
L 101.96081 35.914678 
L 102.77448 36.059271 
L 103.588151 35.641558 
L 104.401821 35.943597 
L 105.215492 35.969302 
L 106.029162 37.093914 
L 106.842833 37.097127 
L 107.656503 36.95896 
L 109.283844 35.699395 
L 110.097515 35.824709 
L 110.911185 35.05676 
L 111.724856 34.847904 
L 112.538527 34.414125 
L 113.352197 35.625492 
L 114.165868 35.61264 
L 114.979538 35.255977 
L 115.793209 35.869694 
L 116.606879 36.904336 
L 117.42055 36.9686 
L 118.23422 37.370247 
L 119.047891 37.122832 
L 119.861561 37.164603 
L 121.488903 37.643367 
L 122.302573 37.627301 
L 123.929914 36.955747 
L 124.743585 37.473068 
L 125.557255 37.440937 
L 127.184596 38.016095 
L 127.998267 38.623385 
L 128.811937 38.636238 
L 129.625608 38.173541 
L 130.439278 37.877928 
L 131.252949 38.340626 
L 132.88029 38.289215 
L 133.693961 38.420955 
L 134.507631 38.9929 
L 135.321302 38.883652 
L 136.134972 39.471664 
L 136.948643 39.915082 
L 137.762313 39.773702 
L 138.575984 39.494156 
L 139.389654 38.356692 
L 141.016995 39.603404 
L 141.830666 38.38561 
L 142.644337 38.899718 
L 144.271678 39.484516 
L 145.085348 40.268531 
L 146.712689 40.477388 
L 147.52636 39.969706 
L 149.967371 40.599488 
L 150.781042 40.242826 
L 152.408383 41.081465 
L 153.222054 42.283192 
L 154.035724 42.427785 
L 154.849395 42.177158 
L 155.663065 42.681626 
L 156.476736 42.283192 
L 157.290406 43.562036 
L 158.104077 43.905846 
L 158.917747 43.732335 
L 159.731418 43.240719 
L 160.545088 43.854435 
L 161.358759 43.115405 
L 162.17243 42.742676 
L 162.9861 43.186095 
L 163.799771 43.443149 
L 164.613441 42.874417 
L 166.240782 44.015094 
L 167.054453 43.905846 
L 167.868123 44.153261 
L 169.495464 46.585635 
L 170.309135 47.636343 
L 171.122805 47.909463 
L 171.936476 47.719886 
L 172.750147 47.700607 
L 173.563817 48.073335 
L 174.377488 48.744889 
L 175.191158 48.866989 
L 176.004829 49.477493 
L 177.63217 51.42789 
L 178.44584 53.089102 
L 179.259511 53.26904 
L 180.886852 52.754932 
L 181.700522 53.371862 
L 182.514193 52.748506 
L 183.327864 53.262614 
L 184.955205 54.63464 
L 185.768875 54.708543 
L 186.582546 55.315833 
L 187.396216 55.553608 
L 188.209887 55.556821 
L 189.023557 55.135895 
L 189.837228 55.563248 
L 190.650898 55.431507 
L 191.464569 55.534329 
L 192.278239 56.707138 
L 193.09191 57.317642 
L 194.719251 58.994919 
L 195.532922 58.978853 
L 197.160263 60.373372 
L 197.973933 60.286616 
L 198.787604 60.775019 
L 199.601274 60.656131 
L 200.414945 61.616871 
L 201.228615 62.943912 
L 202.042286 63.544776 
L 203.669627 63.830749 
L 204.483298 64.065311 
L 205.296968 64.836473 
L 206.924309 65.488747 
L 207.73798 66.333813 
L 208.55165 66.18922 
L 209.365321 67.111401 
L 210.178991 67.439145 
L 210.992662 67.911482 
L 212.620003 69.296361 
L 213.433674 69.052159 
L 214.247344 69.322066 
L 215.061015 69.86188 
L 215.874685 71.153576 
L 216.688356 71.96651 
L 217.502026 71.307809 
L 219.129367 72.515963 
L 220.756708 72.90797 
L 221.570379 73.958679 
L 222.384049 74.520984 
L 223.19772 74.74912 
L 224.011391 76.108293 
L 224.825061 75.693793 
L 225.638732 75.713073 
L 226.452402 77.335726 
L 227.266073 76.882668 
L 228.893414 76.979064 
L 229.707084 77.104378 
L 230.520755 77.004769 
L 231.334425 77.560649 
L 232.148096 77.917311 
L 232.961766 77.99764 
L 233.775437 78.649915 
L 234.589108 78.669194 
L 235.402778 79.854856 
L 236.216449 81.422886 
L 237.030119 82.271164 
L 239.471131 83.431121 
L 240.284801 83.739585 
L 241.098472 84.282612 
L 241.912142 85.053774 
L 244.353154 87.823532 
L 245.166825 88.244458 
L 246.794166 90.043836 
L 247.607836 92.350896 
L 248.421507 93.607248 
L 249.235177 94.641891 
L 250.862518 97.835787 
L 251.676189 99.108205 
L 252.489859 99.959697 
L 253.30353 101.04575 
L 254.930871 101.810486 
L 255.744542 101.910094 
L 257.371883 103.703046 
L 258.185553 104.493487 
L 258.999224 105.817316 
L 259.812894 107.600628 
L 260.626565 108.493891 
L 262.253906 110.935905 
L 263.067576 111.266862 
L 263.881247 112.3979 
L 264.694918 113.120864 
L 265.508588 113.214046 
L 266.322259 113.696023 
L 267.135929 113.644612 
L 267.9496 113.747434 
L 268.76327 114.177999 
L 269.576941 114.293673 
L 270.390611 113.676744 
L 271.204282 113.226899 
L 272.017952 112.404326 
L 272.831623 112.976271 
L 274.458964 112.532853 
L 275.272635 113.063027 
L 276.086305 112.777054 
L 276.899976 113.349 
L 278.527317 114.817421 
L 279.340987 116.803164 
L 280.154658 117.75105 
L 280.968328 119.39941 
L 282.595669 121.822144 
L 283.40934 124.315568 
L 284.223011 126.143865 
L 285.036681 128.454139 
L 285.850352 129.540192 
L 286.664022 131.301013 
L 288.291363 136.249303 
L 289.105034 138.251112 
L 289.918704 139.91875 
L 290.732375 141.220086 
L 291.546045 143.196189 
L 293.987057 150.972074 
L 295.614398 157.215275 
L 296.428069 160.993969 
L 298.86908 170.006927 
L 300.496421 174.935939 
L 302.937433 183.33518 
L 303.751103 185.822178 
L 306.192115 194.970089 
L 308.633127 202.456789 
L 309.446797 205.036969 
L 311.074138 209.088784 
L 313.51515 216.989983 
L 318.397173 229.502089 
L 320.024514 233.386818 
L 321.651855 236.648192 
L 324.092867 242.068819 
L 324.906538 243.53724 
L 326.533879 246.772908 
L 327.347549 248.459826 
L 328.16122 249.690472 
L 330.602231 254.407414 
L 332.229572 257.157892 
L 333.856913 258.928352 
L 334.670584 260.085095 
L 337.111596 262.247563 
L 338.738937 263.172957 
L 339.552607 263.751329 
L 340.366278 264.165829 
L 341.179948 264.994828 
L 341.993619 265.5732 
L 343.62096 267.099458 
L 346.061972 268.596798 
L 346.875642 268.943821 
L 347.689313 269.512553 
L 348.502983 269.9142 
L 350.943995 271.430819 
L 352.571336 272.189128 
L 353.385006 272.584349 
L 354.198677 272.815698 
L 356.639689 273.214131 
L 357.453359 273.429414 
L 358.26703 273.487251 
L 360.708041 273.940309 
L 366.403735 275.00387 
L 379.422464 276.202385 
L 385.118157 276.30842 
L 396.509545 276.334125 
L 400.577898 276.334125 
L 400.577898 276.334125 
" style="fill:none;stroke:#ff6800;stroke-linecap:round;stroke-width:1.5;"/>
   </g>
   <g id="line2d_27">
    <path clip-path="url(#p33cefe7afb)" d="M 75.923352 251.232796 
L 76.737023 203.552482 
L 77.550693 169.884827 
L 78.364364 144.908812 
L 79.178034 124.350913 
L 79.991705 107.652039 
L 80.805376 94.725433 
L 81.619046 83.717093 
L 83.246387 67.625509 
L 84.060058 62.195242 
L 85.687399 53.985578 
L 86.501069 50.643876 
L 87.31474 48.844497 
L 88.12841 46.261104 
L 89.755751 42.553099 
L 90.569422 41.508817 
L 91.383093 41.492751 
L 92.196763 40.981856 
L 93.010434 38.999327 
L 93.824104 39.230675 
L 94.637775 39.320644 
L 95.451445 38.424168 
L 96.265116 37.974324 
L 97.078786 38.446661 
L 98.706127 36.991092 
L 99.519798 36.913976 
L 100.333468 36.689053 
L 101.147139 36.920402 
L 101.96081 36.252062 
L 102.77448 37.325262 
L 103.588151 36.191011 
L 104.401821 36.358096 
L 106.029162 36.991092 
L 106.842833 36.740464 
L 107.656503 36.232782 
L 108.470174 36.608724 
L 110.097515 37.726909 
L 110.911185 37.116406 
L 111.724856 36.724398 
L 113.352197 36.991092 
L 114.165868 36.788662 
L 114.979538 37.421657 
L 115.793209 37.826518 
L 116.606879 36.518755 
L 117.42055 36.782236 
L 118.23422 36.589445 
L 119.047891 37.315623 
L 119.861561 37.450576 
L 120.675232 38.102851 
L 121.488903 37.877928 
L 122.302573 37.007158 
L 123.116244 37.457002 
L 123.929914 38.11249 
L 124.743585 38.318134 
L 125.557255 38.125343 
L 126.370926 38.061079 
L 127.184596 37.453789 
L 127.998267 37.450576 
L 128.811937 37.325262 
L 129.625608 38.311707 
L 130.439278 37.235293 
L 131.252949 38.102851 
L 132.06662 37.762254 
L 132.88029 37.653006 
L 133.693961 38.260296 
L 134.507631 38.31492 
L 136.134972 37.823304 
L 136.948643 38.414529 
L 137.762313 38.144622 
L 138.575984 38.880439 
L 139.389654 37.945405 
L 140.203325 37.877928 
L 141.016995 38.420955 
L 141.830666 38.440234 
L 142.644337 40.001838 
L 143.458007 39.809047 
L 144.271678 40.307089 
L 145.085348 40.3585 
L 145.899019 39.979345 
L 146.712689 40.355287 
L 148.34003 40.021117 
L 149.153701 40.683031 
L 149.967371 40.515946 
L 150.781042 40.724802 
L 151.594712 41.531309 
L 153.222054 41.409209 
L 154.035724 42.116107 
L 154.849395 42.46313 
L 155.663065 42.247847 
L 157.290406 42.752316 
L 158.104077 43.999028 
L 158.917747 43.237506 
L 160.545088 44.397462 
L 161.358759 44.64809 
L 162.17243 44.095423 
L 162.9861 44.246443 
L 163.799771 44.773404 
L 164.613441 44.384609 
L 165.427112 44.580613 
L 166.240782 45.888375 
L 167.054453 45.910868 
L 167.868123 45.557418 
L 168.681794 45.554205 
L 169.495464 46.010476 
L 170.309135 45.628108 
L 171.122805 46.816983 
L 171.936476 48.449277 
L 172.750147 48.850924 
L 173.563817 48.889482 
L 174.377488 49.615659 
L 175.191158 49.901632 
L 176.004829 50.621383 
L 176.818499 50.785255 
L 177.63217 51.36684 
L 178.44584 50.852732 
L 179.259511 51.488941 
L 181.700522 52.700308 
L 182.514193 53.159792 
L 183.327864 52.780637 
L 184.141534 53.06661 
L 184.955205 52.684242 
L 186.582546 53.831346 
L 187.396216 53.465044 
L 188.209887 53.60321 
L 189.023557 55.274062 
L 189.837228 55.807449 
L 192.278239 56.887076 
L 193.09191 57.118425 
L 193.905581 58.390842 
L 194.719251 58.863179 
L 196.346592 61.060991 
L 197.160263 61.918909 
L 197.973933 61.806448 
L 198.787604 61.825727 
L 199.601274 62.670792 
L 200.414945 62.661153 
L 202.042286 63.393757 
L 202.855957 63.782551 
L 203.669627 64.836473 
L 205.296968 65.623701 
L 206.110639 65.745801 
L 206.924309 67.34275 
L 207.73798 67.098548 
L 208.55165 67.815087 
L 209.365321 67.622296 
L 210.178991 69.171047 
L 210.992662 67.641575 
L 211.806332 67.966106 
L 212.620003 67.911482 
L 213.433674 67.988598 
L 214.247344 68.669791 
L 215.874685 68.791892 
L 216.688356 69.556628 
L 217.502026 70.66196 
L 218.315697 70.012899 
L 219.129367 71.182495 
L 219.943038 72.143234 
L 220.756708 72.101463 
L 221.570379 73.415652 
L 222.384049 74.032582 
L 223.19772 73.769101 
L 224.011391 73.627721 
L 224.825061 74.026155 
L 225.638732 74.925844 
L 226.452402 75.607038 
L 227.266073 75.741991 
L 228.893414 77.943016 
L 229.707084 77.849834 
L 230.520755 77.881966 
L 232.148096 77.483532 
L 232.961766 77.705241 
L 233.775437 77.589567 
L 234.589108 77.666683 
L 235.402778 78.720605 
L 236.216449 78.955167 
L 237.84379 78.939101 
L 238.65746 80.368964 
L 239.471131 80.397883 
L 241.098472 81.61889 
L 241.912142 82.70173 
L 242.725813 83.58214 
L 244.353154 86.37439 
L 245.166825 87.939206 
L 245.980495 88.906372 
L 246.794166 90.45191 
L 247.607836 91.351599 
L 249.235177 93.494787 
L 250.048848 94.291655 
L 250.862518 95.615483 
L 251.676189 96.412351 
L 252.489859 97.675129 
L 254.117201 101.328509 
L 254.930871 102.565582 
L 258.185553 109.962313 
L 259.812894 115.739602 
L 260.626565 117.988825 
L 261.440235 120.75537 
L 264.694918 133.643418 
L 267.135929 143.453243 
L 267.9496 147.283349 
L 268.76327 149.902087 
L 270.390611 155.974989 
L 273.645293 166.983329 
L 275.272635 173.891657 
L 276.899976 179.135559 
L 277.713646 182.024204 
L 284.223011 201.582805 
L 285.850352 205.734228 
L 290.732375 220.209585 
L 291.546045 221.857944 
L 293.173386 226.137894 
L 293.987057 227.461722 
L 294.800728 229.036178 
L 295.614398 230.890181 
L 297.241739 233.794892 
L 298.86908 237.917396 
L 300.496421 241.522579 
L 301.310092 242.987787 
L 302.937433 245.522983 
L 303.751103 246.172045 
L 304.564774 247.711156 
L 307.005786 251.181385 
L 308.633127 253.382411 
L 309.446797 254.134294 
L 313.51515 258.732348 
L 314.32882 259.236817 
L 316.769832 261.373579 
L 317.583503 261.849129 
L 318.397173 262.729539 
L 323.279196 266.472889 
L 325.720208 267.883473 
L 328.16122 268.686767 
L 328.97489 268.873131 
L 329.788561 268.937394 
L 332.229572 269.866002 
L 333.043243 270.004169 
L 333.856913 270.25801 
L 334.670584 270.376897 
L 336.297925 270.775331 
L 337.111596 270.79461 
L 337.925266 270.945629 
L 338.738937 271.244455 
L 340.366278 271.585051 
L 341.179948 271.871024 
L 342.807289 272.642186 
L 343.62096 272.989209 
L 344.43463 273.130589 
L 345.248301 273.410135 
L 346.875642 273.625418 
L 348.502983 273.811782 
L 351.757665 274.081689 
L 353.385006 274.06241 
L 356.639689 274.6697 
L 359.894371 275.103479 
L 367.217406 275.466568 
L 372.913099 275.540471 
L 376.167782 275.456928 
L 383.490816 275.916412 
L 397.323216 276.311633 
L 400.577898 276.324485 
L 400.577898 276.324485 
" style="fill:none;stroke:#f10800;stroke-linecap:round;stroke-width:1.5;"/>
   </g>
   <g id="patch_3">
    <path d="M 59.690625 288.430125 
L 59.690625 22.318125 
" style="fill:none;stroke:#cccccc;stroke-linecap:square;stroke-linejoin:miter;stroke-width:0.8;"/>
   </g>
   <g id="patch_4">
    <path d="M 416.810625 288.430125 
L 416.810625 22.318125 
" style="fill:none;stroke:#cccccc;stroke-linecap:square;stroke-linejoin:miter;stroke-width:0.8;"/>
   </g>
   <g id="patch_5">
    <path d="M 59.690625 288.430125 
L 416.810625 288.430125 
" style="fill:none;stroke:#cccccc;stroke-linecap:square;stroke-linejoin:miter;stroke-width:0.8;"/>
   </g>
   <g id="patch_6">
    <path d="M 59.690625 22.318125 
L 416.810625 22.318125 
" style="fill:none;stroke:#cccccc;stroke-linecap:square;stroke-linejoin:miter;stroke-width:0.8;"/>
   </g>
   <g id="text_20">
    <!-- Short-lived Plasma cells -->
    <defs>
     <path d="M 53.515625 70.515625 
L 53.515625 60.890625 
Q 47.90625 63.578125 42.921875 64.890625 
Q 37.9375 66.21875 33.296875 66.21875 
Q 25.25 66.21875 20.875 63.09375 
Q 16.5 59.96875 16.5 54.203125 
Q 16.5 49.359375 19.40625 46.890625 
Q 22.3125 44.4375 30.421875 42.921875 
L 36.375 41.703125 
Q 47.40625 39.59375 52.65625 34.296875 
Q 57.90625 29 57.90625 20.125 
Q 57.90625 9.515625 50.796875 4.046875 
Q 43.703125 -1.421875 29.984375 -1.421875 
Q 24.8125 -1.421875 18.96875 -0.25 
Q 13.140625 0.921875 6.890625 3.21875 
L 6.890625 13.375 
Q 12.890625 10.015625 18.65625 8.296875 
Q 24.421875 6.59375 29.984375 6.59375 
Q 38.421875 6.59375 43.015625 9.90625 
Q 47.609375 13.234375 47.609375 19.390625 
Q 47.609375 24.75 44.3125 27.78125 
Q 41.015625 30.8125 33.5 32.328125 
L 27.484375 33.5 
Q 16.453125 35.6875 11.515625 40.375 
Q 6.59375 45.0625 6.59375 53.421875 
Q 6.59375 63.09375 13.40625 68.65625 
Q 20.21875 74.21875 32.171875 74.21875 
Q 37.3125 74.21875 42.625 73.28125 
Q 47.953125 72.359375 53.515625 70.515625 
z
" id="DejaVuSans-83"/>
     <path d="M 54.890625 33.015625 
L 54.890625 0 
L 45.90625 0 
L 45.90625 32.71875 
Q 45.90625 40.484375 42.875 44.328125 
Q 39.84375 48.1875 33.796875 48.1875 
Q 26.515625 48.1875 22.3125 43.546875 
Q 18.109375 38.921875 18.109375 30.90625 
L 18.109375 0 
L 9.078125 0 
L 9.078125 75.984375 
L 18.109375 75.984375 
L 18.109375 46.1875 
Q 21.34375 51.125 25.703125 53.5625 
Q 30.078125 56 35.796875 56 
Q 45.21875 56 50.046875 50.171875 
Q 54.890625 44.34375 54.890625 33.015625 
z
" id="DejaVuSans-104"/>
     <path d="M 30.609375 48.390625 
Q 23.390625 48.390625 19.1875 42.75 
Q 14.984375 37.109375 14.984375 27.296875 
Q 14.984375 17.484375 19.15625 11.84375 
Q 23.34375 6.203125 30.609375 6.203125 
Q 37.796875 6.203125 41.984375 11.859375 
Q 46.1875 17.53125 46.1875 27.296875 
Q 46.1875 37.015625 41.984375 42.703125 
Q 37.796875 48.390625 30.609375 48.390625 
z
M 30.609375 56 
Q 42.328125 56 49.015625 48.375 
Q 55.71875 40.765625 55.71875 27.296875 
Q 55.71875 13.875 49.015625 6.21875 
Q 42.328125 -1.421875 30.609375 -1.421875 
Q 18.84375 -1.421875 12.171875 6.21875 
Q 5.515625 13.875 5.515625 27.296875 
Q 5.515625 40.765625 12.171875 48.375 
Q 18.84375 56 30.609375 56 
z
" id="DejaVuSans-111"/>
     <path d="M 4.890625 31.390625 
L 31.203125 31.390625 
L 31.203125 23.390625 
L 4.890625 23.390625 
z
" id="DejaVuSans-45"/>
     <path d="M 2.984375 54.6875 
L 12.5 54.6875 
L 29.59375 8.796875 
L 46.6875 54.6875 
L 56.203125 54.6875 
L 35.6875 0 
L 23.484375 0 
z
" id="DejaVuSans-118"/>
     <path d="M 19.671875 64.796875 
L 19.671875 37.40625 
L 32.078125 37.40625 
Q 38.96875 37.40625 42.71875 40.96875 
Q 46.484375 44.53125 46.484375 51.125 
Q 46.484375 57.671875 42.71875 61.234375 
Q 38.96875 64.796875 32.078125 64.796875 
z
M 9.8125 72.90625 
L 32.078125 72.90625 
Q 44.34375 72.90625 50.609375 67.359375 
Q 56.890625 61.8125 56.890625 51.125 
Q 56.890625 40.328125 50.609375 34.8125 
Q 44.34375 29.296875 32.078125 29.296875 
L 19.671875 29.296875 
L 19.671875 0 
L 9.8125 0 
z
" id="DejaVuSans-80"/>
    </defs>
    <g style="fill:#262626;" transform="translate(166.725938 16.318125)scale(0.12 -0.12)">
     <use xlink:href="#DejaVuSans-83"/>
     <use x="63.476562" xlink:href="#DejaVuSans-104"/>
     <use x="126.855469" xlink:href="#DejaVuSans-111"/>
     <use x="188.037109" xlink:href="#DejaVuSans-114"/>
     <use x="229.150391" xlink:href="#DejaVuSans-116"/>
     <use x="268.359375" xlink:href="#DejaVuSans-45"/>
     <use x="304.443359" xlink:href="#DejaVuSans-108"/>
     <use x="332.226562" xlink:href="#DejaVuSans-105"/>
     <use x="360.009766" xlink:href="#DejaVuSans-118"/>
     <use x="419.189453" xlink:href="#DejaVuSans-101"/>
     <use x="480.712891" xlink:href="#DejaVuSans-100"/>
     <use x="544.189453" xlink:href="#DejaVuSans-32"/>
     <use x="575.976562" xlink:href="#DejaVuSans-80"/>
     <use x="636.279297" xlink:href="#DejaVuSans-108"/>
     <use x="664.0625" xlink:href="#DejaVuSans-97"/>
     <use x="725.341797" xlink:href="#DejaVuSans-115"/>
     <use x="777.441406" xlink:href="#DejaVuSans-109"/>
     <use x="874.853516" xlink:href="#DejaVuSans-97"/>
     <use x="936.132812" xlink:href="#DejaVuSans-32"/>
     <use x="967.919922" xlink:href="#DejaVuSans-99"/>
     <use x="1022.900391" xlink:href="#DejaVuSans-101"/>
     <use x="1084.423828" xlink:href="#DejaVuSans-108"/>
     <use x="1112.207031" xlink:href="#DejaVuSans-108"/>
     <use x="1139.990234" xlink:href="#DejaVuSans-115"/>
    </g>
   </g>
  </g>
 </g>
 <defs>
  <clipPath id="p33cefe7afb">
   <rect height="266.112" width="357.12" x="59.690625" y="22.318125"/>
  </clipPath>
 </defs>
</svg>
