<?xml version="1.0" encoding="utf-8" standalone="no"?>
<!DOCTYPE svg PUBLIC "-//W3C//DTD SVG 1.1//EN"
  "http://www.w3.org/Graphics/SVG/1.1/DTD/svg11.dtd">
<!-- Created with matplotlib (https://matplotlib.org/) -->
<svg height="325.986375pt" version="1.1" viewBox="0 0 430.373125 325.986375" width="430.373125pt" xmlns="http://www.w3.org/2000/svg" xmlns:xlink="http://www.w3.org/1999/xlink">
 <defs>
  <style type="text/css">
*{stroke-linecap:butt;stroke-linejoin:round;white-space:pre;}
  </style>
 </defs>
 <g id="figure_1">
  <g id="patch_1">
   <path d="M 0 325.986375 
L 430.373125 325.986375 
L 430.373125 0 
L 0 0 
z
" style="fill:#ffffff;"/>
  </g>
  <g id="axes_1">
   <g id="patch_2">
    <path d="M 66.053125 288.430125 
L 423.173125 288.430125 
L 423.173125 22.318125 
L 66.053125 22.318125 
z
" style="fill:#ffffff;"/>
   </g>
   <g id="matplotlib.axis_1">
    <g id="xtick_1">
     <g id="line2d_1">
      <path clip-path="url(#p0821b41c98)" d="M 82.285852 288.430125 
L 82.285852 22.318125 
" style="fill:none;stroke:#cccccc;stroke-linecap:round;stroke-width:0.8;"/>
     </g>
     <g id="text_1">
      <!-- 0 -->
      <defs>
       <path d="M 31.78125 66.40625 
Q 24.171875 66.40625 20.328125 58.90625 
Q 16.5 51.421875 16.5 36.375 
Q 16.5 21.390625 20.328125 13.890625 
Q 24.171875 6.390625 31.78125 6.390625 
Q 39.453125 6.390625 43.28125 13.890625 
Q 47.125 21.390625 47.125 36.375 
Q 47.125 51.421875 43.28125 58.90625 
Q 39.453125 66.40625 31.78125 66.40625 
z
M 31.78125 74.21875 
Q 44.046875 74.21875 50.515625 64.515625 
Q 56.984375 54.828125 56.984375 36.375 
Q 56.984375 17.96875 50.515625 8.265625 
Q 44.046875 -1.421875 31.78125 -1.421875 
Q 19.53125 -1.421875 13.0625 8.265625 
Q 6.59375 17.96875 6.59375 36.375 
Q 6.59375 54.828125 13.0625 64.515625 
Q 19.53125 74.21875 31.78125 74.21875 
z
" id="DejaVuSans-48"/>
      </defs>
      <g style="fill:#262626;" transform="translate(79.104602 303.028562)scale(0.1 -0.1)">
       <use xlink:href="#DejaVuSans-48"/>
      </g>
     </g>
    </g>
    <g id="xtick_2">
     <g id="line2d_2">
      <path clip-path="url(#p0821b41c98)" d="M 122.969379 288.430125 
L 122.969379 22.318125 
" style="fill:none;stroke:#cccccc;stroke-linecap:round;stroke-width:0.8;"/>
     </g>
     <g id="text_2">
      <!-- 5 -->
      <defs>
       <path d="M 10.796875 72.90625 
L 49.515625 72.90625 
L 49.515625 64.59375 
L 19.828125 64.59375 
L 19.828125 46.734375 
Q 21.96875 47.46875 24.109375 47.828125 
Q 26.265625 48.1875 28.421875 48.1875 
Q 40.625 48.1875 47.75 41.5 
Q 54.890625 34.8125 54.890625 23.390625 
Q 54.890625 11.625 47.5625 5.09375 
Q 40.234375 -1.421875 26.90625 -1.421875 
Q 22.3125 -1.421875 17.546875 -0.640625 
Q 12.796875 0.140625 7.71875 1.703125 
L 7.71875 11.625 
Q 12.109375 9.234375 16.796875 8.0625 
Q 21.484375 6.890625 26.703125 6.890625 
Q 35.15625 6.890625 40.078125 11.328125 
Q 45.015625 15.765625 45.015625 23.390625 
Q 45.015625 31 40.078125 35.4375 
Q 35.15625 39.890625 26.703125 39.890625 
Q 22.75 39.890625 18.8125 39.015625 
Q 14.890625 38.140625 10.796875 36.28125 
z
" id="DejaVuSans-53"/>
      </defs>
      <g style="fill:#262626;" transform="translate(119.788129 303.028562)scale(0.1 -0.1)">
       <use xlink:href="#DejaVuSans-53"/>
      </g>
     </g>
    </g>
    <g id="xtick_3">
     <g id="line2d_3">
      <path clip-path="url(#p0821b41c98)" d="M 163.652906 288.430125 
L 163.652906 22.318125 
" style="fill:none;stroke:#cccccc;stroke-linecap:round;stroke-width:0.8;"/>
     </g>
     <g id="text_3">
      <!-- 10 -->
      <defs>
       <path d="M 12.40625 8.296875 
L 28.515625 8.296875 
L 28.515625 63.921875 
L 10.984375 60.40625 
L 10.984375 69.390625 
L 28.421875 72.90625 
L 38.28125 72.90625 
L 38.28125 8.296875 
L 54.390625 8.296875 
L 54.390625 0 
L 12.40625 0 
z
" id="DejaVuSans-49"/>
      </defs>
      <g style="fill:#262626;" transform="translate(157.290406 303.028562)scale(0.1 -0.1)">
       <use xlink:href="#DejaVuSans-49"/>
       <use x="63.623047" xlink:href="#DejaVuSans-48"/>
      </g>
     </g>
    </g>
    <g id="xtick_4">
     <g id="line2d_4">
      <path clip-path="url(#p0821b41c98)" d="M 204.336433 288.430125 
L 204.336433 22.318125 
" style="fill:none;stroke:#cccccc;stroke-linecap:round;stroke-width:0.8;"/>
     </g>
     <g id="text_4">
      <!-- 15 -->
      <g style="fill:#262626;" transform="translate(197.973933 303.028562)scale(0.1 -0.1)">
       <use xlink:href="#DejaVuSans-49"/>
       <use x="63.623047" xlink:href="#DejaVuSans-53"/>
      </g>
     </g>
    </g>
    <g id="xtick_5">
     <g id="line2d_5">
      <path clip-path="url(#p0821b41c98)" d="M 245.01996 288.430125 
L 245.01996 22.318125 
" style="fill:none;stroke:#cccccc;stroke-linecap:round;stroke-width:0.8;"/>
     </g>
     <g id="text_5">
      <!-- 20 -->
      <defs>
       <path d="M 19.1875 8.296875 
L 53.609375 8.296875 
L 53.609375 0 
L 7.328125 0 
L 7.328125 8.296875 
Q 12.9375 14.109375 22.625 23.890625 
Q 32.328125 33.6875 34.8125 36.53125 
Q 39.546875 41.84375 41.421875 45.53125 
Q 43.3125 49.21875 43.3125 52.78125 
Q 43.3125 58.59375 39.234375 62.25 
Q 35.15625 65.921875 28.609375 65.921875 
Q 23.96875 65.921875 18.8125 64.3125 
Q 13.671875 62.703125 7.8125 59.421875 
L 7.8125 69.390625 
Q 13.765625 71.78125 18.9375 73 
Q 24.125 74.21875 28.421875 74.21875 
Q 39.75 74.21875 46.484375 68.546875 
Q 53.21875 62.890625 53.21875 53.421875 
Q 53.21875 48.921875 51.53125 44.890625 
Q 49.859375 40.875 45.40625 35.40625 
Q 44.1875 33.984375 37.640625 27.21875 
Q 31.109375 20.453125 19.1875 8.296875 
z
" id="DejaVuSans-50"/>
      </defs>
      <g style="fill:#262626;" transform="translate(238.65746 303.028562)scale(0.1 -0.1)">
       <use xlink:href="#DejaVuSans-50"/>
       <use x="63.623047" xlink:href="#DejaVuSans-48"/>
      </g>
     </g>
    </g>
    <g id="xtick_6">
     <g id="line2d_6">
      <path clip-path="url(#p0821b41c98)" d="M 285.703487 288.430125 
L 285.703487 22.318125 
" style="fill:none;stroke:#cccccc;stroke-linecap:round;stroke-width:0.8;"/>
     </g>
     <g id="text_6">
      <!-- 25 -->
      <g style="fill:#262626;" transform="translate(279.340987 303.028562)scale(0.1 -0.1)">
       <use xlink:href="#DejaVuSans-50"/>
       <use x="63.623047" xlink:href="#DejaVuSans-53"/>
      </g>
     </g>
    </g>
    <g id="xtick_7">
     <g id="line2d_7">
      <path clip-path="url(#p0821b41c98)" d="M 326.387014 288.430125 
L 326.387014 22.318125 
" style="fill:none;stroke:#cccccc;stroke-linecap:round;stroke-width:0.8;"/>
     </g>
     <g id="text_7">
      <!-- 30 -->
      <defs>
       <path d="M 40.578125 39.3125 
Q 47.65625 37.796875 51.625 33 
Q 55.609375 28.21875 55.609375 21.1875 
Q 55.609375 10.40625 48.1875 4.484375 
Q 40.765625 -1.421875 27.09375 -1.421875 
Q 22.515625 -1.421875 17.65625 -0.515625 
Q 12.796875 0.390625 7.625 2.203125 
L 7.625 11.71875 
Q 11.71875 9.328125 16.59375 8.109375 
Q 21.484375 6.890625 26.8125 6.890625 
Q 36.078125 6.890625 40.9375 10.546875 
Q 45.796875 14.203125 45.796875 21.1875 
Q 45.796875 27.640625 41.28125 31.265625 
Q 36.765625 34.90625 28.71875 34.90625 
L 20.21875 34.90625 
L 20.21875 43.015625 
L 29.109375 43.015625 
Q 36.375 43.015625 40.234375 45.921875 
Q 44.09375 48.828125 44.09375 54.296875 
Q 44.09375 59.90625 40.109375 62.90625 
Q 36.140625 65.921875 28.71875 65.921875 
Q 24.65625 65.921875 20.015625 65.03125 
Q 15.375 64.15625 9.8125 62.3125 
L 9.8125 71.09375 
Q 15.4375 72.65625 20.34375 73.4375 
Q 25.25 74.21875 29.59375 74.21875 
Q 40.828125 74.21875 47.359375 69.109375 
Q 53.90625 64.015625 53.90625 55.328125 
Q 53.90625 49.265625 50.4375 45.09375 
Q 46.96875 40.921875 40.578125 39.3125 
z
" id="DejaVuSans-51"/>
      </defs>
      <g style="fill:#262626;" transform="translate(320.024514 303.028562)scale(0.1 -0.1)">
       <use xlink:href="#DejaVuSans-51"/>
       <use x="63.623047" xlink:href="#DejaVuSans-48"/>
      </g>
     </g>
    </g>
    <g id="xtick_8">
     <g id="line2d_8">
      <path clip-path="url(#p0821b41c98)" d="M 367.070541 288.430125 
L 367.070541 22.318125 
" style="fill:none;stroke:#cccccc;stroke-linecap:round;stroke-width:0.8;"/>
     </g>
     <g id="text_8">
      <!-- 35 -->
      <g style="fill:#262626;" transform="translate(360.708041 303.028562)scale(0.1 -0.1)">
       <use xlink:href="#DejaVuSans-51"/>
       <use x="63.623047" xlink:href="#DejaVuSans-53"/>
      </g>
     </g>
    </g>
    <g id="xtick_9">
     <g id="line2d_9">
      <path clip-path="url(#p0821b41c98)" d="M 407.754068 288.430125 
L 407.754068 22.318125 
" style="fill:none;stroke:#cccccc;stroke-linecap:round;stroke-width:0.8;"/>
     </g>
     <g id="text_9">
      <!-- 40 -->
      <defs>
       <path d="M 37.796875 64.3125 
L 12.890625 25.390625 
L 37.796875 25.390625 
z
M 35.203125 72.90625 
L 47.609375 72.90625 
L 47.609375 25.390625 
L 58.015625 25.390625 
L 58.015625 17.1875 
L 47.609375 17.1875 
L 47.609375 0 
L 37.796875 0 
L 37.796875 17.1875 
L 4.890625 17.1875 
L 4.890625 26.703125 
z
" id="DejaVuSans-52"/>
      </defs>
      <g style="fill:#262626;" transform="translate(401.391568 303.028562)scale(0.1 -0.1)">
       <use xlink:href="#DejaVuSans-52"/>
       <use x="63.623047" xlink:href="#DejaVuSans-48"/>
      </g>
     </g>
    </g>
    <g id="text_10">
     <!-- time (days) -->
     <defs>
      <path d="M 18.3125 70.21875 
L 18.3125 54.6875 
L 36.8125 54.6875 
L 36.8125 47.703125 
L 18.3125 47.703125 
L 18.3125 18.015625 
Q 18.3125 11.328125 20.140625 9.421875 
Q 21.96875 7.515625 27.59375 7.515625 
L 36.8125 7.515625 
L 36.8125 0 
L 27.59375 0 
Q 17.1875 0 13.234375 3.875 
Q 9.28125 7.765625 9.28125 18.015625 
L 9.28125 47.703125 
L 2.6875 47.703125 
L 2.6875 54.6875 
L 9.28125 54.6875 
L 9.28125 70.21875 
z
" id="DejaVuSans-116"/>
      <path d="M 9.421875 54.6875 
L 18.40625 54.6875 
L 18.40625 0 
L 9.421875 0 
z
M 9.421875 75.984375 
L 18.40625 75.984375 
L 18.40625 64.59375 
L 9.421875 64.59375 
z
" id="DejaVuSans-105"/>
      <path d="M 52 44.1875 
Q 55.375 50.25 60.0625 53.125 
Q 64.75 56 71.09375 56 
Q 79.640625 56 84.28125 50.015625 
Q 88.921875 44.046875 88.921875 33.015625 
L 88.921875 0 
L 79.890625 0 
L 79.890625 32.71875 
Q 79.890625 40.578125 77.09375 44.375 
Q 74.3125 48.1875 68.609375 48.1875 
Q 61.625 48.1875 57.5625 43.546875 
Q 53.515625 38.921875 53.515625 30.90625 
L 53.515625 0 
L 44.484375 0 
L 44.484375 32.71875 
Q 44.484375 40.625 41.703125 44.40625 
Q 38.921875 48.1875 33.109375 48.1875 
Q 26.21875 48.1875 22.15625 43.53125 
Q 18.109375 38.875 18.109375 30.90625 
L 18.109375 0 
L 9.078125 0 
L 9.078125 54.6875 
L 18.109375 54.6875 
L 18.109375 46.1875 
Q 21.1875 51.21875 25.484375 53.609375 
Q 29.78125 56 35.6875 56 
Q 41.65625 56 45.828125 52.96875 
Q 50 49.953125 52 44.1875 
z
" id="DejaVuSans-109"/>
      <path d="M 56.203125 29.59375 
L 56.203125 25.203125 
L 14.890625 25.203125 
Q 15.484375 15.921875 20.484375 11.0625 
Q 25.484375 6.203125 34.421875 6.203125 
Q 39.59375 6.203125 44.453125 7.46875 
Q 49.3125 8.734375 54.109375 11.28125 
L 54.109375 2.78125 
Q 49.265625 0.734375 44.1875 -0.34375 
Q 39.109375 -1.421875 33.890625 -1.421875 
Q 20.796875 -1.421875 13.15625 6.1875 
Q 5.515625 13.8125 5.515625 26.8125 
Q 5.515625 40.234375 12.765625 48.109375 
Q 20.015625 56 32.328125 56 
Q 43.359375 56 49.78125 48.890625 
Q 56.203125 41.796875 56.203125 29.59375 
z
M 47.21875 32.234375 
Q 47.125 39.59375 43.09375 43.984375 
Q 39.0625 48.390625 32.421875 48.390625 
Q 24.90625 48.390625 20.390625 44.140625 
Q 15.875 39.890625 15.1875 32.171875 
z
" id="DejaVuSans-101"/>
      <path id="DejaVuSans-32"/>
      <path d="M 31 75.875 
Q 24.46875 64.65625 21.28125 53.65625 
Q 18.109375 42.671875 18.109375 31.390625 
Q 18.109375 20.125 21.3125 9.0625 
Q 24.515625 -2 31 -13.1875 
L 23.1875 -13.1875 
Q 15.875 -1.703125 12.234375 9.375 
Q 8.59375 20.453125 8.59375 31.390625 
Q 8.59375 42.28125 12.203125 53.3125 
Q 15.828125 64.359375 23.1875 75.875 
z
" id="DejaVuSans-40"/>
      <path d="M 45.40625 46.390625 
L 45.40625 75.984375 
L 54.390625 75.984375 
L 54.390625 0 
L 45.40625 0 
L 45.40625 8.203125 
Q 42.578125 3.328125 38.25 0.953125 
Q 33.9375 -1.421875 27.875 -1.421875 
Q 17.96875 -1.421875 11.734375 6.484375 
Q 5.515625 14.40625 5.515625 27.296875 
Q 5.515625 40.1875 11.734375 48.09375 
Q 17.96875 56 27.875 56 
Q 33.9375 56 38.25 53.625 
Q 42.578125 51.265625 45.40625 46.390625 
z
M 14.796875 27.296875 
Q 14.796875 17.390625 18.875 11.75 
Q 22.953125 6.109375 30.078125 6.109375 
Q 37.203125 6.109375 41.296875 11.75 
Q 45.40625 17.390625 45.40625 27.296875 
Q 45.40625 37.203125 41.296875 42.84375 
Q 37.203125 48.484375 30.078125 48.484375 
Q 22.953125 48.484375 18.875 42.84375 
Q 14.796875 37.203125 14.796875 27.296875 
z
" id="DejaVuSans-100"/>
      <path d="M 34.28125 27.484375 
Q 23.390625 27.484375 19.1875 25 
Q 14.984375 22.515625 14.984375 16.5 
Q 14.984375 11.71875 18.140625 8.90625 
Q 21.296875 6.109375 26.703125 6.109375 
Q 34.1875 6.109375 38.703125 11.40625 
Q 43.21875 16.703125 43.21875 25.484375 
L 43.21875 27.484375 
z
M 52.203125 31.203125 
L 52.203125 0 
L 43.21875 0 
L 43.21875 8.296875 
Q 40.140625 3.328125 35.546875 0.953125 
Q 30.953125 -1.421875 24.3125 -1.421875 
Q 15.921875 -1.421875 10.953125 3.296875 
Q 6 8.015625 6 15.921875 
Q 6 25.140625 12.171875 29.828125 
Q 18.359375 34.515625 30.609375 34.515625 
L 43.21875 34.515625 
L 43.21875 35.40625 
Q 43.21875 41.609375 39.140625 45 
Q 35.0625 48.390625 27.6875 48.390625 
Q 23 48.390625 18.546875 47.265625 
Q 14.109375 46.140625 10.015625 43.890625 
L 10.015625 52.203125 
Q 14.9375 54.109375 19.578125 55.046875 
Q 24.21875 56 28.609375 56 
Q 40.484375 56 46.34375 49.84375 
Q 52.203125 43.703125 52.203125 31.203125 
z
" id="DejaVuSans-97"/>
      <path d="M 32.171875 -5.078125 
Q 28.375 -14.84375 24.75 -17.8125 
Q 21.140625 -20.796875 15.09375 -20.796875 
L 7.90625 -20.796875 
L 7.90625 -13.28125 
L 13.1875 -13.28125 
Q 16.890625 -13.28125 18.9375 -11.515625 
Q 21 -9.765625 23.484375 -3.21875 
L 25.09375 0.875 
L 2.984375 54.6875 
L 12.5 54.6875 
L 29.59375 11.921875 
L 46.6875 54.6875 
L 56.203125 54.6875 
z
" id="DejaVuSans-121"/>
      <path d="M 44.28125 53.078125 
L 44.28125 44.578125 
Q 40.484375 46.53125 36.375 47.5 
Q 32.28125 48.484375 27.875 48.484375 
Q 21.1875 48.484375 17.84375 46.4375 
Q 14.5 44.390625 14.5 40.28125 
Q 14.5 37.15625 16.890625 35.375 
Q 19.28125 33.59375 26.515625 31.984375 
L 29.59375 31.296875 
Q 39.15625 29.25 43.1875 25.515625 
Q 47.21875 21.78125 47.21875 15.09375 
Q 47.21875 7.46875 41.1875 3.015625 
Q 35.15625 -1.421875 24.609375 -1.421875 
Q 20.21875 -1.421875 15.453125 -0.5625 
Q 10.6875 0.296875 5.421875 2 
L 5.421875 11.28125 
Q 10.40625 8.6875 15.234375 7.390625 
Q 20.0625 6.109375 24.8125 6.109375 
Q 31.15625 6.109375 34.5625 8.28125 
Q 37.984375 10.453125 37.984375 14.40625 
Q 37.984375 18.0625 35.515625 20.015625 
Q 33.0625 21.96875 24.703125 23.78125 
L 21.578125 24.515625 
Q 13.234375 26.265625 9.515625 29.90625 
Q 5.8125 33.546875 5.8125 39.890625 
Q 5.8125 47.609375 11.28125 51.796875 
Q 16.75 56 26.8125 56 
Q 31.78125 56 36.171875 55.265625 
Q 40.578125 54.546875 44.28125 53.078125 
z
" id="DejaVuSans-115"/>
      <path d="M 8.015625 75.875 
L 15.828125 75.875 
Q 23.140625 64.359375 26.78125 53.3125 
Q 30.421875 42.28125 30.421875 31.390625 
Q 30.421875 20.453125 26.78125 9.375 
Q 23.140625 -1.703125 15.828125 -13.1875 
L 8.015625 -13.1875 
Q 14.5 -2 17.703125 9.0625 
Q 20.90625 20.125 20.90625 31.390625 
Q 20.90625 42.671875 17.703125 53.65625 
Q 14.5 64.65625 8.015625 75.875 
z
" id="DejaVuSans-41"/>
     </defs>
     <g style="fill:#262626;" transform="translate(216.024063 316.706687)scale(0.1 -0.1)">
      <use xlink:href="#DejaVuSans-116"/>
      <use x="39.208984" xlink:href="#DejaVuSans-105"/>
      <use x="66.992188" xlink:href="#DejaVuSans-109"/>
      <use x="164.404297" xlink:href="#DejaVuSans-101"/>
      <use x="225.927734" xlink:href="#DejaVuSans-32"/>
      <use x="257.714844" xlink:href="#DejaVuSans-40"/>
      <use x="296.728516" xlink:href="#DejaVuSans-100"/>
      <use x="360.205078" xlink:href="#DejaVuSans-97"/>
      <use x="421.484375" xlink:href="#DejaVuSans-121"/>
      <use x="480.664062" xlink:href="#DejaVuSans-115"/>
      <use x="532.763672" xlink:href="#DejaVuSans-41"/>
     </g>
    </g>
   </g>
   <g id="matplotlib.axis_2">
    <g id="ytick_1">
     <g id="line2d_10">
      <path clip-path="url(#p0821b41c98)" d="M 66.053125 240.020012 
L 423.173125 240.020012 
" style="fill:none;stroke:#cccccc;stroke-linecap:round;stroke-width:0.8;"/>
     </g>
     <g id="text_11">
      <!-- 50000 -->
      <g style="fill:#262626;" transform="translate(27.240625 243.819231)scale(0.1 -0.1)">
       <use xlink:href="#DejaVuSans-53"/>
       <use x="63.623047" xlink:href="#DejaVuSans-48"/>
       <use x="127.246094" xlink:href="#DejaVuSans-48"/>
       <use x="190.869141" xlink:href="#DejaVuSans-48"/>
       <use x="254.492188" xlink:href="#DejaVuSans-48"/>
      </g>
     </g>
    </g>
    <g id="ytick_2">
     <g id="line2d_11">
      <path clip-path="url(#p0821b41c98)" d="M 66.053125 183.004825 
L 423.173125 183.004825 
" style="fill:none;stroke:#cccccc;stroke-linecap:round;stroke-width:0.8;"/>
     </g>
     <g id="text_12">
      <!-- 100000 -->
      <g style="fill:#262626;" transform="translate(20.878125 186.804044)scale(0.1 -0.1)">
       <use xlink:href="#DejaVuSans-49"/>
       <use x="63.623047" xlink:href="#DejaVuSans-48"/>
       <use x="127.246094" xlink:href="#DejaVuSans-48"/>
       <use x="190.869141" xlink:href="#DejaVuSans-48"/>
       <use x="254.492188" xlink:href="#DejaVuSans-48"/>
       <use x="318.115234" xlink:href="#DejaVuSans-48"/>
      </g>
     </g>
    </g>
    <g id="ytick_3">
     <g id="line2d_12">
      <path clip-path="url(#p0821b41c98)" d="M 66.053125 125.989638 
L 423.173125 125.989638 
" style="fill:none;stroke:#cccccc;stroke-linecap:round;stroke-width:0.8;"/>
     </g>
     <g id="text_13">
      <!-- 150000 -->
      <g style="fill:#262626;" transform="translate(20.878125 129.788857)scale(0.1 -0.1)">
       <use xlink:href="#DejaVuSans-49"/>
       <use x="63.623047" xlink:href="#DejaVuSans-53"/>
       <use x="127.246094" xlink:href="#DejaVuSans-48"/>
       <use x="190.869141" xlink:href="#DejaVuSans-48"/>
       <use x="254.492188" xlink:href="#DejaVuSans-48"/>
       <use x="318.115234" xlink:href="#DejaVuSans-48"/>
      </g>
     </g>
    </g>
    <g id="ytick_4">
     <g id="line2d_13">
      <path clip-path="url(#p0821b41c98)" d="M 66.053125 68.974451 
L 423.173125 68.974451 
" style="fill:none;stroke:#cccccc;stroke-linecap:round;stroke-width:0.8;"/>
     </g>
     <g id="text_14">
      <!-- 200000 -->
      <g style="fill:#262626;" transform="translate(20.878125 72.77367)scale(0.1 -0.1)">
       <use xlink:href="#DejaVuSans-50"/>
       <use x="63.623047" xlink:href="#DejaVuSans-48"/>
       <use x="127.246094" xlink:href="#DejaVuSans-48"/>
       <use x="190.869141" xlink:href="#DejaVuSans-48"/>
       <use x="254.492188" xlink:href="#DejaVuSans-48"/>
       <use x="318.115234" xlink:href="#DejaVuSans-48"/>
      </g>
     </g>
    </g>
    <g id="text_15">
     <!-- cells number -->
     <defs>
      <path d="M 48.78125 52.59375 
L 48.78125 44.1875 
Q 44.96875 46.296875 41.140625 47.34375 
Q 37.3125 48.390625 33.40625 48.390625 
Q 24.65625 48.390625 19.8125 42.84375 
Q 14.984375 37.3125 14.984375 27.296875 
Q 14.984375 17.28125 19.8125 11.734375 
Q 24.65625 6.203125 33.40625 6.203125 
Q 37.3125 6.203125 41.140625 7.25 
Q 44.96875 8.296875 48.78125 10.40625 
L 48.78125 2.09375 
Q 45.015625 0.34375 40.984375 -0.53125 
Q 36.96875 -1.421875 32.421875 -1.421875 
Q 20.0625 -1.421875 12.78125 6.34375 
Q 5.515625 14.109375 5.515625 27.296875 
Q 5.515625 40.671875 12.859375 48.328125 
Q 20.21875 56 33.015625 56 
Q 37.15625 56 41.109375 55.140625 
Q 45.0625 54.296875 48.78125 52.59375 
z
" id="DejaVuSans-99"/>
      <path d="M 9.421875 75.984375 
L 18.40625 75.984375 
L 18.40625 0 
L 9.421875 0 
z
" id="DejaVuSans-108"/>
      <path d="M 54.890625 33.015625 
L 54.890625 0 
L 45.90625 0 
L 45.90625 32.71875 
Q 45.90625 40.484375 42.875 44.328125 
Q 39.84375 48.1875 33.796875 48.1875 
Q 26.515625 48.1875 22.3125 43.546875 
Q 18.109375 38.921875 18.109375 30.90625 
L 18.109375 0 
L 9.078125 0 
L 9.078125 54.6875 
L 18.109375 54.6875 
L 18.109375 46.1875 
Q 21.34375 51.125 25.703125 53.5625 
Q 30.078125 56 35.796875 56 
Q 45.21875 56 50.046875 50.171875 
Q 54.890625 44.34375 54.890625 33.015625 
z
" id="DejaVuSans-110"/>
      <path d="M 8.5 21.578125 
L 8.5 54.6875 
L 17.484375 54.6875 
L 17.484375 21.921875 
Q 17.484375 14.15625 20.5 10.265625 
Q 23.53125 6.390625 29.59375 6.390625 
Q 36.859375 6.390625 41.078125 11.03125 
Q 45.3125 15.671875 45.3125 23.6875 
L 45.3125 54.6875 
L 54.296875 54.6875 
L 54.296875 0 
L 45.3125 0 
L 45.3125 8.40625 
Q 42.046875 3.421875 37.71875 1 
Q 33.40625 -1.421875 27.6875 -1.421875 
Q 18.265625 -1.421875 13.375 4.4375 
Q 8.5 10.296875 8.5 21.578125 
z
M 31.109375 56 
z
" id="DejaVuSans-117"/>
      <path d="M 48.6875 27.296875 
Q 48.6875 37.203125 44.609375 42.84375 
Q 40.53125 48.484375 33.40625 48.484375 
Q 26.265625 48.484375 22.1875 42.84375 
Q 18.109375 37.203125 18.109375 27.296875 
Q 18.109375 17.390625 22.1875 11.75 
Q 26.265625 6.109375 33.40625 6.109375 
Q 40.53125 6.109375 44.609375 11.75 
Q 48.6875 17.390625 48.6875 27.296875 
z
M 18.109375 46.390625 
Q 20.953125 51.265625 25.265625 53.625 
Q 29.59375 56 35.59375 56 
Q 45.5625 56 51.78125 48.09375 
Q 58.015625 40.1875 58.015625 27.296875 
Q 58.015625 14.40625 51.78125 6.484375 
Q 45.5625 -1.421875 35.59375 -1.421875 
Q 29.59375 -1.421875 25.265625 0.953125 
Q 20.953125 3.328125 18.109375 8.203125 
L 18.109375 0 
L 9.078125 0 
L 9.078125 75.984375 
L 18.109375 75.984375 
z
" id="DejaVuSans-98"/>
      <path d="M 41.109375 46.296875 
Q 39.59375 47.171875 37.8125 47.578125 
Q 36.03125 48 33.890625 48 
Q 26.265625 48 22.1875 43.046875 
Q 18.109375 38.09375 18.109375 28.8125 
L 18.109375 0 
L 9.078125 0 
L 9.078125 54.6875 
L 18.109375 54.6875 
L 18.109375 46.1875 
Q 20.953125 51.171875 25.484375 53.578125 
Q 30.03125 56 36.53125 56 
Q 37.453125 56 38.578125 55.875 
Q 39.703125 55.765625 41.0625 55.515625 
z
" id="DejaVuSans-114"/>
     </defs>
     <g style="fill:#262626;" transform="translate(14.798438 187.685844)rotate(-90)scale(0.1 -0.1)">
      <use xlink:href="#DejaVuSans-99"/>
      <use x="54.980469" xlink:href="#DejaVuSans-101"/>
      <use x="116.503906" xlink:href="#DejaVuSans-108"/>
      <use x="144.287109" xlink:href="#DejaVuSans-108"/>
      <use x="172.070312" xlink:href="#DejaVuSans-115"/>
      <use x="224.169922" xlink:href="#DejaVuSans-32"/>
      <use x="255.957031" xlink:href="#DejaVuSans-110"/>
      <use x="319.335938" xlink:href="#DejaVuSans-117"/>
      <use x="382.714844" xlink:href="#DejaVuSans-109"/>
      <use x="480.126953" xlink:href="#DejaVuSans-98"/>
      <use x="543.603516" xlink:href="#DejaVuSans-101"/>
      <use x="605.126953" xlink:href="#DejaVuSans-114"/>
     </g>
    </g>
   </g>
   <g id="line2d_14">
    <path clip-path="url(#p0821b41c98)" d="M 82.285852 231.756231 
L 83.099523 256.589766 
L 83.913193 267.322305 
L 84.726864 271.825364 
L 85.540534 273.774143 
L 86.354205 275.109439 
L 87.981546 276.094661 
L 88.795217 275.778797 
L 89.608887 275.915634 
L 90.422558 275.553017 
L 91.236228 274.941814 
L 92.049899 274.542708 
L 92.863569 273.791248 
L 93.67724 273.441174 
L 94.49091 272.737607 
L 95.304581 271.712474 
L 96.118251 270.935927 
L 96.931922 269.843516 
L 97.745593 268.484274 
L 98.559263 267.704306 
L 99.372934 266.659788 
L 100.186604 265.817104 
L 101.000275 264.569611 
L 101.813945 263.057569 
L 102.627616 262.109976 
L 103.441286 260.934323 
L 104.254957 259.559117 
L 105.068627 257.759717 
L 105.882298 256.582924 
L 107.509639 253.49156 
L 108.32331 251.922502 
L 109.13698 250.019336 
L 109.950651 248.583693 
L 110.764321 246.211861 
L 111.577992 244.581227 
L 113.205333 241.02576 
L 114.019003 239.829581 
L 114.832674 237.227408 
L 115.646344 235.383537 
L 116.460015 233.052756 
L 117.273685 231.244234 
L 119.714697 224.39557 
L 122.969379 214.300461 
L 123.78305 212.612812 
L 125.410391 207.983178 
L 126.224061 205.471089 
L 127.037732 203.589588 
L 127.851403 200.303233 
L 128.665073 198.45252 
L 131.919755 187.462272 
L 133.547096 181.928378 
L 135.174437 175.953187 
L 136.801778 169.296093 
L 137.615449 166.869527 
L 138.42912 163.31406 
L 139.24279 160.614961 
L 140.870131 154.166543 
L 143.311143 147.372614 
L 144.938484 142.225283 
L 145.752154 139.766788 
L 147.379495 134.253419 
L 148.193166 132.219117 
L 149.820507 126.851708 
L 150.634178 124.664605 
L 151.447848 122.102342 
L 152.261519 120.087426 
L 154.70253 112.307133 
L 155.516201 109.96837 
L 157.143542 104.157382 
L 157.957212 102.503942 
L 158.770883 101.37048 
L 159.584554 99.580203 
L 160.398224 97.365733 
L 161.211895 95.954037 
L 162.025565 95.095389 
L 162.839236 94.632425 
L 164.466577 91.669916 
L 169.3486 79.795933 
L 170.162271 78.46862 
L 170.975941 77.698915 
L 173.416953 74.109239 
L 174.230623 72.231158 
L 175.044294 71.194622 
L 175.857964 69.695123 
L 176.671635 68.749811 
L 177.485305 68.25834 
L 178.298976 67.585561 
L 179.112647 67.179613 
L 180.739988 64.783835 
L 181.553658 62.893211 
L 182.367329 62.014037 
L 183.180999 61.720979 
L 183.99467 61.642298 
L 184.80834 60.506555 
L 185.622011 59.936403 
L 186.435681 58.547513 
L 187.249352 57.851928 
L 188.063022 56.753816 
L 190.504034 55.444747 
L 191.317705 55.294227 
L 192.131375 54.912225 
L 192.945046 54.922488 
L 193.758716 54.440139 
L 194.572387 53.765079 
L 195.386057 52.749069 
L 196.199728 52.436626 
L 197.013398 51.555171 
L 198.640739 50.784326 
L 199.45441 50.72617 
L 200.268081 50.457058 
L 201.081751 50.506091 
L 203.522763 49.494642 
L 204.336433 48.823003 
L 205.150104 48.388547 
L 205.963774 47.474024 
L 206.777445 46.355386 
L 207.591115 45.502439 
L 209.218457 44.492129 
L 210.032127 44.480726 
L 210.845798 43.941363 
L 211.659468 43.752072 
L 212.473139 43.348405 
L 214.10048 43.344984 
L 214.91415 43.500065 
L 215.727821 43.464716 
L 216.541491 42.907107 
L 218.168832 42.641416 
L 218.982503 42.509141 
L 219.796174 42.866056 
L 220.609844 42.826146 
L 222.237185 43.019997 
L 223.050856 42.76685 
L 223.864526 42.749745 
L 224.678197 42.496598 
L 227.119208 42.381427 
L 227.932879 42.250292 
L 228.746549 41.999425 
L 229.56022 42.006267 
L 232.814902 40.870525 
L 233.628573 40.486242 
L 234.442243 41.130514 
L 235.255914 41.34147 
L 236.883255 40.867104 
L 237.696925 40.883068 
L 238.510596 40.673252 
L 240.951608 39.580841 
L 242.578949 40.225113 
L 243.392619 40.422385 
L 244.20629 40.28897 
L 245.833631 41.235422 
L 246.647301 41.070078 
L 247.460972 40.753073 
L 248.274642 40.612816 
L 249.901984 39.828287 
L 252.342995 39.929774 
L 253.156666 40.168098 
L 253.970336 40.260462 
L 255.597677 39.645839 
L 256.411348 39.085949 
L 257.225018 39.599086 
L 258.038689 39.823726 
L 259.66603 39.304888 
L 260.479701 39.746185 
L 261.293371 39.455408 
L 262.107042 39.731361 
L 262.920712 39.168051 
L 264.548053 39.299186 
L 265.361724 39.058582 
L 266.175394 38.434836 
L 266.989065 38.519218 
L 268.616406 39.172613 
L 270.243747 38.82596 
L 271.057418 38.93657 
L 272.684759 40.047225 
L 273.498429 40.157835 
L 274.3121 39.903547 
L 275.12577 40.25362 
L 276.753111 39.473653 
L 277.566782 39.3505 
L 278.380452 39.556895 
L 279.194123 39.930915 
L 280.007793 39.578561 
L 282.448805 38.191951 
L 284.076146 38.390364 
L 285.703487 38.369839 
L 288.144499 39.678907 
L 290.585511 39.144105 
L 291.399181 39.272959 
L 292.212852 39.283222 
L 293.026522 39.76443 
L 294.653863 40.120205 
L 295.467534 39.829427 
L 296.281204 39.927494 
L 297.094875 40.222832 
L 297.908545 40.115644 
L 300.349557 40.234235 
L 301.163228 39.949159 
L 301.976898 39.250153 
L 302.790569 38.766664 
L 305.23158 38.034589 
L 306.045251 37.99924 
L 306.858921 38.242125 
L 307.672592 38.278614 
L 308.486262 38.722193 
L 309.299933 39.491898 
L 310.113603 39.944598 
L 310.927274 40.049506 
L 312.554615 39.944598 
L 313.368286 39.282082 
L 314.995627 38.565971 
L 318.250309 38.481588 
L 319.063979 38.18853 
L 319.87765 38.244405 
L 320.69132 38.659476 
L 321.504991 38.52378 
L 322.318662 38.028888 
L 323.132332 38.589917 
L 325.573344 39.493038 
L 327.200685 39.157789 
L 328.828026 39.581982 
L 329.641696 39.49988 
L 330.455367 39.821445 
L 332.082708 39.381288 
L 332.896379 39.361903 
L 333.710049 38.93885 
L 334.52372 38.716491 
L 335.33739 38.662897 
L 338.592072 37.544259 
L 339.405743 37.674253 
L 340.219413 37.560223 
L 341.033084 37.568205 
L 341.846755 37.967311 
L 342.660425 37.564784 
L 344.287766 38.185109 
L 345.101437 38.258089 
L 345.915107 38.442818 
L 346.728778 38.759823 
L 347.542448 38.828241 
L 348.356119 38.690264 
L 349.169789 38.229581 
L 349.98346 37.926261 
L 351.610801 37.836177 
L 352.424472 38.191951 
L 353.238142 39.01297 
L 354.051813 38.992445 
L 354.865483 39.413217 
L 355.679154 39.284362 
L 356.492824 39.405234 
L 357.306495 39.926353 
L 358.933836 39.79978 
L 359.747506 39.570579 
L 360.561177 38.876134 
L 361.374847 38.423433 
L 363.002189 37.92398 
L 363.815859 38.088184 
L 365.4432 37.551101 
L 367.070541 38.234143 
L 368.697882 37.806529 
L 369.511553 37.205589 
L 370.325223 37.144012 
L 371.138894 37.668552 
L 371.952565 37.682236 
L 373.579906 37.349267 
L 374.393576 37.126908 
L 375.207247 36.719819 
L 376.020917 36.692452 
L 376.834588 36.525968 
L 377.648258 36.502021 
L 378.461929 36.998053 
L 379.275599 36.864638 
L 380.90294 37.288831 
L 381.716611 37.576187 
L 382.530282 37.676534 
L 383.343952 37.421106 
L 384.157623 36.991211 
L 384.971293 36.969546 
L 385.784964 37.077875 
L 386.598634 36.850954 
L 387.412305 36.79622 
L 388.225975 37.007176 
L 393.107999 36.011691 
L 394.73534 36.377728 
L 395.54901 36.378868 
L 397.176351 36.634296 
L 399.617363 35.425574 
L 400.431033 35.158743 
L 401.244704 35.154182 
L 403.685716 34.685517 
L 404.499386 34.423247 
L 405.313057 34.414125 
L 406.940398 35.342332 
L 406.940398 35.342332 
" style="fill:none;stroke:#000080;stroke-linecap:round;stroke-width:1.5;"/>
   </g>
   <g id="line2d_15">
    <path clip-path="url(#p0821b41c98)" d="M 82.285852 231.544134 
L 83.099523 257.224915 
L 83.913193 267.546944 
L 84.726864 271.228985 
L 85.540534 273.700023 
L 86.354205 274.742261 
L 87.981546 275.952123 
L 88.795217 275.688713 
L 89.608887 275.697836 
L 90.422558 275.56328 
L 91.236228 274.892781 
L 92.049899 274.713753 
L 92.863569 273.64871 
L 93.67724 273.216535 
L 94.49091 272.566561 
L 96.118251 270.864088 
L 97.745593 268.669003 
L 100.186604 265.882101 
L 101.813945 263.162476 
L 102.627616 261.247906 
L 103.441286 260.206809 
L 104.254957 258.675381 
L 105.068627 257.600075 
L 106.695968 254.549762 
L 108.32331 251.345509 
L 109.13698 250.007933 
L 109.950651 248.031786 
L 111.577992 244.645084 
L 113.205333 240.412277 
L 114.019003 239.081542 
L 118.087356 229.077657 
L 118.901027 226.580392 
L 119.714697 224.502759 
L 123.78305 212.312912 
L 125.410391 206.903311 
L 126.224061 205.014968 
L 131.106085 189.247988 
L 131.919755 186.080224 
L 132.733426 184.416521 
L 135.174437 176.45378 
L 136.801778 171.635997 
L 137.615449 167.949395 
L 140.870131 156.666089 
L 141.683802 153.160795 
L 143.311143 147.20727 
L 144.938484 139.980024 
L 147.379495 132.049212 
L 149.006837 127.472033 
L 149.820507 125.002135 
L 152.261519 120.308645 
L 153.075189 118.422582 
L 153.88886 115.772516 
L 155.516201 111.433661 
L 156.329871 109.383394 
L 157.143542 107.887316 
L 157.957212 105.459609 
L 159.584554 101.497054 
L 160.398224 100.16746 
L 162.025565 96.044121 
L 162.839236 94.506992 
L 164.466577 90.267343 
L 165.280247 87.876126 
L 166.093918 86.734682 
L 168.53493 81.395779 
L 170.162271 79.580416 
L 170.975941 78.329503 
L 171.789612 77.630497 
L 172.603282 75.742154 
L 173.416953 74.292827 
L 174.230623 73.529964 
L 175.044294 72.188967 
L 175.857964 71.796703 
L 176.671635 71.066908 
L 177.485305 69.028045 
L 179.112647 66.157901 
L 179.926317 65.421264 
L 180.739988 63.872732 
L 181.553658 63.48959 
L 182.367329 62.016317 
L 183.99467 60.291038 
L 185.622011 60.131395 
L 188.063022 58.074287 
L 188.876693 57.094766 
L 189.690364 56.440232 
L 190.504034 56.054809 
L 191.317705 55.050202 
L 192.131375 55.116339 
L 192.945046 54.889419 
L 193.758716 54.454963 
L 194.572387 53.364833 
L 195.386057 52.859678 
L 196.199728 51.944014 
L 197.013398 51.731918 
L 200.268081 49.687353 
L 202.709092 49.161673 
L 203.522763 49.141148 
L 204.336433 48.854932 
L 205.150104 48.137681 
L 205.963774 47.748837 
L 207.591115 46.162674 
L 208.404786 46.248197 
L 211.659468 45.487615 
L 212.473139 45.494456 
L 213.286809 45.089649 
L 214.10048 44.837642 
L 214.91415 44.821677 
L 215.727821 44.56967 
L 216.541491 43.734968 
L 217.355162 43.266303 
L 218.168832 43.264022 
L 218.982503 43.398578 
L 219.796174 43.879786 
L 223.050856 42.561595 
L 223.864526 42.494317 
L 225.491867 41.704087 
L 226.305538 41.631107 
L 227.119208 41.417871 
L 227.932879 40.567204 
L 228.746549 40.748512 
L 229.56022 40.811229 
L 230.373891 40.280988 
L 232.001232 40.935522 
L 232.814902 40.938943 
L 233.628573 40.822632 
L 234.442243 40.284409 
L 235.255914 40.318618 
L 236.069584 40.210289 
L 236.883255 40.448612 
L 237.696925 39.79978 
L 238.510596 39.569438 
L 239.324266 39.782675 
L 240.137937 39.771272 
L 240.951608 39.600226 
L 241.765278 39.626453 
L 242.578949 39.407515 
L 243.392619 39.039197 
L 244.20629 38.879554 
L 247.460972 38.854468 
L 249.088313 39.65268 
L 249.901984 39.218225 
L 250.715654 39.402954 
L 251.529325 39.832848 
L 253.156666 40.062049 
L 253.970336 39.981088 
L 255.597677 39.546632 
L 256.411348 39.184016 
L 257.225018 38.97534 
L 258.852359 38.984462 
L 259.66603 39.430321 
L 260.479701 39.745045 
L 261.293371 39.448566 
L 262.107042 39.432602 
L 262.920712 39.198839 
L 263.734383 39.3505 
L 264.548053 39.383569 
L 265.361724 38.924026 
L 266.989065 38.840784 
L 268.616406 39.479354 
L 269.430076 38.955955 
L 270.243747 38.856748 
L 271.057418 38.921746 
L 271.871088 38.472466 
L 273.498429 38.023186 
L 274.3121 38.531762 
L 275.939441 38.643512 
L 276.753111 38.506675 
L 277.566782 38.839644 
L 279.194123 38.896659 
L 280.007793 38.799733 
L 281.635135 38.966218 
L 283.262476 38.547726 
L 284.076146 38.318525 
L 284.889817 38.353874 
L 285.703487 38.269492 
L 287.330828 37.36295 
L 288.144499 37.638904 
L 289.77184 37.36295 
L 291.399181 37.32304 
L 292.212852 37.951347 
L 293.026522 38.386943 
L 293.840193 38.522639 
L 294.653863 38.427994 
L 295.467534 38.456502 
L 296.281204 38.287737 
L 297.094875 38.398346 
L 297.908545 38.811136 
L 298.722216 38.838504 
L 299.535886 39.191998 
L 301.163228 39.594525 
L 301.976898 39.23647 
L 302.790569 38.546586 
L 303.604239 38.386943 
L 304.41791 38.463344 
L 306.045251 39.68917 
L 306.858921 39.833989 
L 307.672592 40.095118 
L 308.486262 40.192044 
L 309.299933 39.818024 
L 310.113603 39.033495 
L 310.927274 38.611583 
L 311.740945 38.415451 
L 312.554615 38.459923 
L 314.995627 38.047133 
L 315.809297 38.230722 
L 316.622968 38.125814 
L 317.436638 38.233002 
L 318.250309 38.0745 
L 319.87765 38.178268 
L 320.69132 38.622986 
L 321.504991 38.531762 
L 322.318662 38.926307 
L 323.946003 39.308309 
L 324.759673 39.242171 
L 325.573344 38.870432 
L 326.387014 38.82596 
L 328.014355 39.554614 
L 330.455367 39.19998 
L 332.082708 38.672019 
L 332.896379 38.629828 
L 334.52372 38.162303 
L 335.33739 38.434836 
L 337.778402 38.291158 
L 341.033084 37.665131 
L 343.474096 37.830475 
L 346.728778 38.645792 
L 347.542448 38.490711 
L 348.356119 38.588777 
L 349.98346 38.271773 
L 350.79713 38.690264 
L 351.610801 38.593338 
L 352.424472 38.841924 
L 353.238142 38.296859 
L 354.051813 38.100727 
L 355.679154 38.775787 
L 356.492824 39.360763 
L 357.306495 39.16349 
L 358.120165 39.23761 
L 358.933836 39.003848 
L 359.747506 39.041478 
L 360.561177 38.89894 
L 361.374847 38.588777 
L 362.188518 38.627547 
L 363.002189 38.835083 
L 363.815859 38.832802 
L 364.62953 39.028934 
L 365.4432 38.933149 
L 367.070541 39.20226 
L 367.884212 39.498739 
L 368.697882 39.398393 
L 370.325223 38.677721 
L 371.952565 37.682236 
L 375.207247 37.657149 
L 377.648258 38.024327 
L 378.461929 37.797406 
L 379.275599 37.6982 
L 380.08927 37.752934 
L 380.90294 38.115551 
L 381.716611 38.03801 
L 382.530282 37.840738 
L 384.157623 37.845299 
L 384.971293 38.244405 
L 385.784964 38.211336 
L 386.598634 37.863544 
L 388.225975 37.456455 
L 389.039646 37.422246 
L 389.853316 37.25006 
L 390.666987 37.373213 
L 391.480657 37.697059 
L 392.294328 38.212477 
L 393.921669 38.571672 
L 394.73534 38.348173 
L 395.54901 38.568252 
L 396.362681 38.435976 
L 397.176351 38.535183 
L 397.990022 39.155508 
L 398.803692 39.471372 
L 399.617363 39.099633 
L 401.244704 39.423479 
L 402.058374 38.944552 
L 402.872045 38.701667 
L 403.685716 38.682282 
L 404.499386 38.090464 
L 405.313057 37.652588 
L 406.126727 37.374354 
L 406.940398 37.301374 
L 406.940398 37.301374 
" style="fill:none;stroke:#0000f1;stroke-linecap:round;stroke-width:1.5;"/>
   </g>
   <g id="line2d_16">
    <path clip-path="url(#p0821b41c98)" d="M 82.285852 231.310372 
L 83.099523 257.037905 
L 83.913193 267.424932 
L 84.726864 271.729578 
L 85.540534 273.678358 
L 86.354205 275.142508 
L 87.981546 276.179044 
L 88.795217 276.334125 
L 89.608887 275.730904 
L 90.422558 275.633979 
L 92.049899 274.591741 
L 93.67724 273.104785 
L 94.49091 272.584806 
L 95.304581 271.792295 
L 98.559263 267.863949 
L 99.372934 266.618737 
L 100.186604 265.950519 
L 101.000275 264.362076 
L 101.813945 263.470358 
L 102.627616 262.340317 
L 104.254957 258.803095 
L 105.068627 257.772261 
L 105.882298 256.287585 
L 106.695968 254.569147 
L 107.509639 253.3399 
L 108.32331 251.708125 
L 109.13698 249.721716 
L 109.950651 248.562027 
L 110.764321 246.608687 
L 111.577992 245.273391 
L 113.205333 240.966464 
L 114.019003 239.428194 
L 115.646344 235.360731 
L 116.460015 232.928463 
L 117.273685 231.138186 
L 118.087356 228.580485 
L 120.528368 222.271184 
L 122.155709 216.687117 
L 125.410391 207.57609 
L 126.224061 204.115268 
L 127.037732 201.165302 
L 128.665073 196.445585 
L 130.292414 190.42136 
L 131.919755 184.462133 
L 135.988108 170.182109 
L 137.615449 163.937806 
L 138.42912 161.369842 
L 140.056461 156.739069 
L 142.497472 148.48669 
L 144.124813 143.129543 
L 144.938484 139.837487 
L 147.379495 132.594277 
L 149.820507 126.63733 
L 152.261519 120.077163 
L 153.88886 114.860273 
L 154.70253 112.173718 
L 156.329871 107.566891 
L 157.957212 103.100321 
L 158.770883 101.305483 
L 159.584554 100.026062 
L 160.398224 98.493494 
L 162.839236 92.574177 
L 163.652906 91.658513 
L 164.466577 91.12257 
L 165.280247 89.966302 
L 166.093918 89.022131 
L 166.907588 87.602453 
L 167.721259 85.41535 
L 170.975941 78.935004 
L 172.603282 76.355637 
L 173.416953 75.794607 
L 174.230623 74.824209 
L 175.044294 74.170815 
L 175.857964 73.344095 
L 177.485305 71.026998 
L 179.926317 66.636828 
L 182.367329 63.825979 
L 183.180999 63.531781 
L 184.80834 61.376607 
L 185.622011 60.610323 
L 186.435681 59.643345 
L 187.249352 59.36055 
L 188.063022 58.841712 
L 188.876693 58.151828 
L 189.690364 57.916925 
L 191.317705 55.962445 
L 192.131375 55.949901 
L 192.945046 55.337558 
L 194.572387 54.976082 
L 195.386057 55.261158 
L 196.199728 54.953276 
L 197.013398 54.194974 
L 199.45441 53.605437 
L 200.268081 53.201769 
L 201.081751 51.930331 
L 201.895422 51.909805 
L 202.709092 51.162906 
L 204.336433 51.242728 
L 205.963774 50.682838 
L 206.777445 50.842481 
L 207.591115 50.76266 
L 208.404786 50.527757 
L 209.218457 49.423943 
L 210.032127 48.940454 
L 210.845798 48.21066 
L 212.473139 47.821816 
L 213.286809 47.649631 
L 214.91415 46.283547 
L 217.355162 45.005266 
L 218.168832 45.112455 
L 218.982503 45.373584 
L 219.796174 45.063422 
L 220.609844 44.631247 
L 221.423515 44.75668 
L 222.237185 44.518356 
L 223.050856 44.416869 
L 224.678197 43.882067 
L 225.491867 43.207007 
L 226.305538 43.049645 
L 227.932879 42.423618 
L 228.746549 41.684702 
L 229.56022 41.390503 
L 230.373891 41.594618 
L 231.187561 41.522779 
L 233.628573 42.183014 
L 234.442243 42.799919 
L 235.255914 42.482914 
L 240.137937 41.655054 
L 240.951608 41.063236 
L 241.765278 41.425853 
L 242.578949 42.05416 
L 243.392619 41.79189 
L 244.20629 41.994864 
L 245.01996 41.892237 
L 245.833631 41.472605 
L 246.647301 41.861449 
L 248.274642 41.710929 
L 249.088313 41.396205 
L 249.901984 40.604834 
L 250.715654 40.257041 
L 251.529325 40.208008 
L 252.342995 39.895565 
L 253.156666 40.078014 
L 253.970336 40.041524 
L 254.784007 40.136169 
L 255.597677 39.623032 
L 256.411348 39.934335 
L 257.225018 39.933195 
L 258.038689 39.568298 
L 258.852359 39.6504 
L 259.66603 39.353921 
L 260.479701 39.329974 
L 261.293371 39.605928 
L 262.107042 39.188577 
L 262.920712 39.308309 
L 263.734383 39.134982 
L 265.361724 39.746185 
L 266.175394 39.95144 
L 266.989065 39.740484 
L 267.802735 39.701713 
L 268.616406 39.445145 
L 269.430076 39.772412 
L 270.243747 39.971965 
L 271.057418 39.968545 
L 271.871088 40.206868 
L 272.684759 39.985649 
L 273.498429 39.967404 
L 274.3121 39.595665 
L 275.939441 38.616144 
L 277.566782 37.927401 
L 280.007793 38.295719 
L 280.821464 38.752981 
L 281.635135 39.359622 
L 283.262476 39.841971 
L 284.076146 39.824866 
L 284.889817 39.507862 
L 285.703487 39.545492 
L 287.330828 39.91267 
L 288.144499 39.98907 
L 290.585511 38.527201 
L 292.212852 38.872713 
L 293.026522 38.418872 
L 294.653863 37.854421 
L 295.467534 38.072219 
L 296.281204 37.911437 
L 297.094875 38.221599 
L 298.722216 38.243265 
L 299.535886 38.758682 
L 301.163228 38.853327 
L 301.976898 38.52492 
L 303.604239 38.293438 
L 304.41791 38.86131 
L 305.23158 38.86359 
L 306.045251 39.12586 
L 306.858921 39.168051 
L 307.672592 39.072266 
L 309.299933 39.545492 
L 310.113603 40.117924 
L 310.927274 40.192044 
L 311.740945 39.831708 
L 312.554615 39.249013 
L 314.181956 39.592244 
L 314.995627 39.360763 
L 316.622968 38.396066 
L 317.436638 38.056255 
L 318.250309 38.027748 
L 319.87765 38.362997 
L 320.69132 38.215898 
L 321.504991 38.418872 
L 322.318662 38.920605 
L 323.132332 39.280941 
L 324.759673 39.12472 
L 325.573344 39.433742 
L 326.387014 39.924073 
L 327.200685 39.772412 
L 328.828026 39.959422 
L 329.641696 39.616191 
L 330.455367 39.61277 
L 331.269038 39.107615 
L 332.896379 37.58645 
L 333.710049 37.385757 
L 334.52372 37.017438 
L 336.151061 37.815651 
L 336.964731 37.652588 
L 339.405743 39.12472 
L 340.219413 39.215944 
L 341.033084 39.154368 
L 341.846755 39.506722 
L 342.660425 39.457688 
L 345.101437 39.992491 
L 345.915107 39.69031 
L 346.728778 39.898986 
L 347.542448 39.608209 
L 348.356119 39.680048 
L 350.79713 38.56369 
L 351.610801 38.106429 
L 352.424472 37.864684 
L 354.865483 37.882929 
L 357.306495 38.349313 
L 358.120165 38.384663 
L 359.747506 39.379007 
L 361.374847 40.104241 
L 363.815859 39.267258 
L 365.4432 38.059676 
L 367.070541 37.733549 
L 368.697882 38.209056 
L 369.511553 38.091605 
L 370.325223 38.237563 
L 371.138894 37.941084 
L 371.952565 37.357249 
L 373.579906 37.96161 
L 374.393576 38.104148 
L 375.207247 38.588777 
L 376.834588 37.861263 
L 377.648258 38.317385 
L 378.461929 38.534042 
L 379.275599 38.910343 
L 380.08927 39.052881 
L 380.90294 39.550053 
L 381.716611 39.654961 
L 382.530282 39.187436 
L 383.343952 38.9742 
L 384.157623 38.912623 
L 384.971293 38.481588 
L 385.784964 37.686797 
L 386.598634 37.199887 
L 387.412305 37.25006 
L 388.225975 37.05963 
L 389.039646 37.17252 
L 389.853316 37.666271 
L 390.666987 37.768899 
L 391.480657 37.656009 
L 392.294328 37.014018 
L 393.921669 36.669646 
L 394.73534 36.670786 
L 396.362681 36.483776 
L 397.176351 36.57386 
L 397.990022 36.407376 
L 399.617363 35.539605 
L 401.244704 35.56013 
L 402.058374 35.181549 
L 403.685716 35.832663 
L 404.499386 35.879415 
L 405.313057 36.281943 
L 406.940398 35.880556 
L 406.940398 35.880556 
" style="fill:none;stroke:#004cff;stroke-linecap:round;stroke-width:1.5;"/>
   </g>
   <g id="line2d_17">
    <path clip-path="url(#p0821b41c98)" d="M 82.285852 232.161039 
L 83.099523 257.39368 
L 83.913193 267.292657 
L 84.726864 271.930272 
L 85.540534 274.017028 
L 86.354205 275.035319 
L 87.167876 275.856338 
L 87.981546 275.935019 
L 89.608887 275.815287 
L 90.422558 275.272502 
L 91.236228 274.965761 
L 92.863569 274.012467 
L 94.49091 272.429725 
L 96.118251 270.848124 
L 96.931922 269.532213 
L 97.745593 268.80698 
L 98.559263 267.49335 
L 99.372934 266.735048 
L 104.254957 259.305969 
L 105.068627 258.098388 
L 105.882298 256.094874 
L 109.13698 250.197223 
L 111.577992 244.594911 
L 112.391662 243.019011 
L 113.205333 241.126107 
L 114.832674 236.52156 
L 115.646344 234.690232 
L 116.460015 231.795001 
L 117.273685 230.652417 
L 119.714697 223.439996 
L 120.528368 221.80366 
L 122.155709 217.420332 
L 123.78305 211.74162 
L 124.59672 209.763193 
L 126.224061 203.872383 
L 127.037732 201.834661 
L 128.665073 196.346379 
L 129.478744 193.144406 
L 130.292414 190.966426 
L 131.106085 187.000449 
L 131.919755 184.97755 
L 135.988108 171.463811 
L 137.615449 165.489759 
L 139.24279 160.882932 
L 140.870131 154.749239 
L 142.497472 149.681729 
L 144.938484 139.950377 
L 145.752154 137.515828 
L 146.565825 135.822477 
L 147.379495 133.673004 
L 148.193166 131.191704 
L 149.820507 126.946353 
L 151.447848 121.367987 
L 152.261519 118.744148 
L 153.075189 117.157985 
L 154.70253 111.466729 
L 156.329871 107.3012 
L 157.143542 105.957922 
L 157.957212 104.000021 
L 159.584554 99.420561 
L 160.398224 97.635985 
L 161.211895 96.15245 
L 162.025565 93.609573 
L 162.839236 91.79535 
L 163.652906 90.306113 
L 164.466577 90.030159 
L 165.280247 88.926345 
L 166.093918 88.234181 
L 166.907588 87.002653 
L 167.721259 84.590911 
L 169.3486 81.383236 
L 170.975941 78.026182 
L 171.789612 76.89158 
L 172.603282 76.192573 
L 174.230623 74.177657 
L 175.857964 71.511627 
L 176.671635 70.918669 
L 177.485305 69.621003 
L 179.112647 67.773711 
L 179.926317 66.602619 
L 180.739988 66.163602 
L 181.553658 65.169257 
L 184.80834 62.332182 
L 185.622011 61.460989 
L 186.435681 60.82584 
L 187.249352 59.777901 
L 188.876693 58.656983 
L 189.690364 57.459664 
L 190.504034 56.900915 
L 192.945046 55.864379 
L 193.758716 55.753769 
L 195.386057 52.991954 
L 196.199728 52.546095 
L 197.827069 52.617934 
L 201.895422 49.892608 
L 202.709092 48.769409 
L 203.522763 47.957513 
L 205.150104 47.997423 
L 207.591115 47.616562 
L 209.218457 47.996283 
L 210.845798 47.523057 
L 212.473139 47.19693 
L 213.286809 47.519636 
L 214.10048 47.581212 
L 214.91415 47.212894 
L 215.727821 46.591429 
L 217.355162 44.941409 
L 218.168832 44.628966 
L 218.982503 44.578793 
L 219.796174 44.259508 
L 220.609844 44.114689 
L 221.423515 44.138635 
L 222.237185 43.943643 
L 223.050856 43.55708 
L 223.864526 43.513749 
L 224.678197 43.222971 
L 225.491867 42.546771 
L 227.932879 41.513656 
L 228.746549 42.305027 
L 230.373891 42.557034 
L 232.001232 42.040476 
L 233.628573 42.721238 
L 236.069584 41.360855 
L 236.883255 41.580934 
L 237.696925 41.45436 
L 239.324266 40.377914 
L 240.137937 40.66527 
L 241.765278 40.444051 
L 242.578949 40.865964 
L 243.392619 40.55238 
L 244.20629 40.482822 
L 245.01996 39.981088 
L 247.460972 39.121299 
L 248.274642 39.20112 
L 249.901984 38.930868 
L 250.715654 39.065424 
L 251.529325 39.566017 
L 252.342995 39.521545 
L 254.784007 38.584216 
L 255.597677 37.967311 
L 256.411348 37.904595 
L 257.225018 38.025467 
L 258.038689 38.626407 
L 258.852359 38.659476 
L 259.66603 38.521499 
L 261.293371 39.115597 
L 262.920712 39.83741 
L 263.734383 39.505581 
L 265.361724 39.863637 
L 267.802735 40.582028 
L 268.616406 40.489663 
L 269.430076 40.582028 
L 272.684759 39.749606 
L 273.498429 39.833989 
L 276.753111 38.542025 
L 278.380452 38.678861 
L 279.194123 38.624126 
L 280.007793 38.422293 
L 280.821464 38.643512 
L 281.635135 38.446239 
L 282.448805 38.467905 
L 284.889817 39.397252 
L 286.517158 39.401814 
L 287.330828 38.942271 
L 288.144499 38.997006 
L 288.958169 39.385849 
L 289.77184 39.393831 
L 290.585511 39.244452 
L 291.399181 39.234189 
L 292.212852 38.539744 
L 293.840193 38.927447 
L 296.281204 38.378961 
L 300.349557 38.053975 
L 301.163228 38.358436 
L 301.976898 39.082529 
L 303.604239 39.486196 
L 305.23158 39.382428 
L 309.299933 39.625313 
L 310.113603 39.269538 
L 311.740945 38.989024 
L 314.181956 38.034589 
L 314.995627 37.70048 
L 315.809297 37.992398 
L 316.622968 37.693639 
L 317.436638 37.66285 
L 319.063979 37.894332 
L 319.87765 37.803108 
L 320.69132 38.345892 
L 321.504991 38.609302 
L 323.132332 37.863544 
L 325.573344 37.947926 
L 326.387014 38.48843 
L 327.200685 38.727894 
L 328.828026 38.575093 
L 330.455367 37.934243 
L 331.269038 38.087043 
L 332.082708 38.023186 
L 334.52372 39.42462 
L 335.33739 38.983322 
L 336.151061 38.78605 
L 336.964731 38.893238 
L 337.778402 38.690264 
L 338.592072 38.316244 
L 340.219413 38.441678 
L 341.033084 39.095072 
L 341.846755 39.433742 
L 342.660425 38.909202 
L 343.474096 38.217038 
L 344.287766 38.26037 
L 345.101437 38.139497 
L 346.728778 38.583075 
L 347.542448 38.348173 
L 348.356119 37.828194 
L 349.169789 37.974153 
L 349.98346 38.366418 
L 351.610801 38.75184 
L 352.424472 38.589917 
L 353.238142 38.098446 
L 356.492824 38.698246 
L 357.306495 39.206822 
L 358.120165 39.503301 
L 358.933836 39.478214 
L 359.747506 39.071125 
L 363.002189 39.607068 
L 364.62953 39.166911 
L 365.4432 38.783769 
L 366.256871 38.725613 
L 367.070541 39.040337 
L 367.884212 39.220505 
L 368.697882 39.23989 
L 371.138894 38.722193 
L 371.952565 38.840784 
L 372.766235 38.382382 
L 373.579906 38.332209 
L 374.393576 38.068798 
L 375.207247 38.206775 
L 376.020917 38.773506 
L 376.834588 39.01183 
L 377.648258 39.12586 
L 379.275599 39.048319 
L 380.08927 39.303747 
L 380.90294 39.179454 
L 381.716611 38.926307 
L 382.530282 38.367558 
L 383.343952 38.124673 
L 384.971293 38.478168 
L 385.784964 38.686843 
L 386.598634 38.456502 
L 387.412305 38.822539 
L 389.853316 37.946786 
L 390.666987 38.080202 
L 392.294328 38.141778 
L 393.921669 37.713024 
L 396.362681 38.708509 
L 397.176351 38.790611 
L 397.990022 39.158929 
L 398.803692 39.067705 
L 399.617363 38.298 
L 402.058374 38.653774 
L 402.872045 38.506675 
L 405.313057 37.606975 
L 406.126727 37.815651 
L 406.940398 37.73697 
L 406.940398 37.73697 
" style="fill:none;stroke:#00b0ff;stroke-linecap:round;stroke-width:1.5;"/>
   </g>
   <g id="line2d_18">
    <path clip-path="url(#p0821b41c98)" d="M 82.285852 231.654744 
L 83.099523 257.159918 
L 83.913193 267.491069 
L 84.726864 271.557393 
L 85.540534 274.048956 
L 87.167876 275.816427 
L 87.981546 276.045628 
L 91.236228 275.237153 
L 92.049899 274.200617 
L 93.67724 273.50047 
L 94.49091 272.348763 
L 96.118251 271.010047 
L 97.745593 268.737421 
L 98.559263 267.858247 
L 99.372934 266.786362 
L 100.186604 265.907188 
L 101.813945 263.108882 
L 102.627616 262.140764 
L 107.509639 253.360426 
L 109.13698 249.875657 
L 111.577992 245.028226 
L 113.205333 241.557141 
L 114.019003 239.603801 
L 114.832674 236.957156 
L 115.646344 236.244466 
L 116.460015 233.736938 
L 117.273685 232.276209 
L 120.528368 222.445651 
L 122.155709 218.277841 
L 122.969379 215.349541 
L 123.78305 213.179543 
L 126.224061 205.499597 
L 127.037732 202.212101 
L 128.665073 197.307655 
L 130.292414 192.089625 
L 133.547096 180.155206 
L 135.174437 174.292904 
L 137.615449 165.250296 
L 138.42912 163.805531 
L 140.870131 156.374171 
L 141.683802 154.987562 
L 149.006837 129.64089 
L 149.820507 126.575754 
L 153.075189 116.675637 
L 154.70253 112.522651 
L 155.516201 110.316163 
L 156.329871 109.360588 
L 157.143542 107.570312 
L 158.770883 102.898487 
L 161.211895 97.702123 
L 162.839236 92.919689 
L 163.652906 91.559307 
L 165.280247 87.536315 
L 166.093918 85.459822 
L 167.721259 82.409509 
L 168.53493 81.367272 
L 169.3486 80.981849 
L 170.975941 78.05697 
L 171.789612 76.051176 
L 172.603282 75.645228 
L 173.416953 75.020341 
L 175.044294 71.800123 
L 175.857964 70.770429 
L 176.671635 70.131859 
L 178.298976 68.160274 
L 179.112647 66.544464 
L 179.926317 65.414423 
L 180.739988 64.946898 
L 181.553658 64.124739 
L 183.180999 61.147406 
L 183.99467 60.418752 
L 185.622011 59.290991 
L 186.435681 59.043546 
L 187.249352 58.916972 
L 188.063022 57.750441 
L 189.690364 56.458477 
L 190.504034 56.54628 
L 192.945046 55.001169 
L 194.572387 54.242867 
L 195.386057 53.356851 
L 196.199728 52.807224 
L 197.013398 51.51526 
L 197.827069 50.746695 
L 198.640739 50.360133 
L 199.45441 50.206192 
L 200.268081 49.483239 
L 201.081751 49.558499 
L 201.895422 48.938174 
L 203.522763 48.558453 
L 204.336433 48.891421 
L 207.591115 47.30868 
L 210.845798 45.274378 
L 211.659468 44.975618 
L 212.473139 45.009827 
L 214.10048 45.378145 
L 214.91415 45.1307 
L 215.727821 44.724751 
L 217.355162 43.3313 
L 218.168832 42.846671 
L 218.982503 42.226346 
L 219.796174 42.295904 
L 220.609844 42.13056 
L 221.423515 42.13056 
L 222.237185 41.928727 
L 223.050856 41.919604 
L 224.678197 41.525059 
L 225.491867 41.805574 
L 226.305538 42.397391 
L 227.119208 42.716677 
L 227.932879 42.366603 
L 229.56022 42.157928 
L 230.373891 41.692684 
L 232.001232 41.523919 
L 233.628573 40.173799 
L 235.255914 39.629874 
L 236.883255 39.808902 
L 238.510596 39.657242 
L 239.324266 39.855654 
L 240.137937 40.355107 
L 240.951608 40.328881 
L 241.765278 39.794078 
L 242.578949 40.084856 
L 243.392619 39.402954 
L 244.20629 38.957095 
L 245.01996 38.304841 
L 245.833631 38.497553 
L 246.647301 38.86131 
L 247.460972 39.432602 
L 248.274642 39.771272 
L 249.088313 39.757588 
L 250.715654 39.422339 
L 252.342995 39.859075 
L 253.156666 40.375633 
L 253.970336 40.269585 
L 254.784007 39.811183 
L 255.597677 39.57628 
L 256.411348 38.873853 
L 257.225018 38.433696 
L 258.038689 37.827054 
L 259.66603 38.635529 
L 260.479701 38.650353 
L 262.107042 39.480495 
L 263.734383 39.01411 
L 264.548053 38.445099 
L 266.175394 38.203354 
L 266.989065 38.494132 
L 267.802735 38.07564 
L 268.616406 38.132656 
L 269.430076 38.368698 
L 270.243747 38.105288 
L 271.871088 37.954768 
L 272.684759 38.583075 
L 273.498429 38.627547 
L 274.3121 38.194232 
L 275.12577 38.211336 
L 275.939441 38.738157 
L 276.753111 39.001567 
L 277.566782 38.592198 
L 279.194123 39.212523 
L 280.007793 39.068845 
L 280.821464 39.08709 
L 282.448805 38.700527 
L 283.262476 38.608162 
L 284.076146 38.725613 
L 284.889817 38.569392 
L 285.703487 38.279755 
L 286.517158 38.358436 
L 288.144499 38.946832 
L 288.958169 38.833942 
L 289.77184 38.30142 
L 291.399181 38.698246 
L 292.212852 38.984462 
L 293.026522 39.040337 
L 295.467534 38.462203 
L 296.281204 38.227301 
L 297.094875 38.237563 
L 297.908545 38.026607 
L 299.535886 38.33677 
L 300.349557 38.199933 
L 301.163228 37.817932 
L 301.976898 37.121206 
L 302.790569 36.889724 
L 303.604239 37.461017 
L 304.41791 38.331068 
L 305.23158 38.279755 
L 306.045251 38.532902 
L 306.858921 38.343612 
L 307.672592 38.377821 
L 308.486262 38.565971 
L 309.299933 38.205635 
L 310.113603 38.26037 
L 310.927274 38.632109 
L 311.740945 39.347079 
L 313.368286 39.369885 
L 314.181956 38.882975 
L 314.995627 38.962797 
L 316.622968 39.516984 
L 317.436638 39.288923 
L 319.063979 39.418918 
L 319.87765 39.832848 
L 320.69132 39.897846 
L 321.504991 40.083715 
L 323.132332 39.485056 
L 325.573344 39.472512 
L 326.387014 39.063143 
L 327.200685 38.790611 
L 328.014355 38.162303 
L 328.828026 37.763197 
L 329.641696 38.405188 
L 330.455367 38.603601 
L 331.269038 38.660616 
L 332.082708 39.000427 
L 332.896379 38.727894 
L 333.710049 39.299186 
L 334.52372 38.919465 
L 336.151061 39.320852 
L 336.964731 39.136123 
L 337.778402 39.218225 
L 338.592072 39.128141 
L 339.405743 39.363043 
L 341.033084 38.506675 
L 341.846755 38.201074 
L 342.660425 38.480448 
L 343.474096 38.276334 
L 345.101437 38.115551 
L 347.542448 37.915998 
L 348.356119 38.049413 
L 349.169789 38.457642 
L 350.79713 38.370979 
L 351.610801 38.682282 
L 352.424472 38.446239 
L 353.238142 38.520359 
L 354.051813 38.462203 
L 354.865483 38.055115 
L 355.679154 38.028888 
L 356.492824 38.201074 
L 357.306495 38.776927 
L 358.120165 39.057442 
L 358.933836 39.76443 
L 359.747506 40.02784 
L 360.561177 39.603647 
L 361.374847 38.969638 
L 362.188518 38.933149 
L 363.002189 39.294625 
L 363.815859 39.251293 
L 364.62953 38.966218 
L 365.4432 39.293485 
L 367.070541 38.693685 
L 367.884212 38.206775 
L 368.697882 37.950207 
L 371.138894 37.918278 
L 371.952565 37.6982 
L 374.393576 38.071079 
L 376.020917 38.275193 
L 376.834588 38.115551 
L 377.648258 37.577328 
L 378.461929 37.540838 
L 379.275599 37.832756 
L 380.08927 38.791751 
L 380.90294 39.184016 
L 382.530282 39.396112 
L 383.343952 39.399533 
L 386.598634 38.425714 
L 387.412305 38.096166 
L 388.225975 37.933102 
L 389.039646 38.096166 
L 389.853316 38.049413 
L 392.294328 37.602414 
L 393.107999 37.722146 
L 393.921669 38.462203 
L 394.73534 38.333349 
L 395.54901 37.84986 
L 397.176351 37.673113 
L 397.990022 37.329882 
L 398.803692 37.416545 
L 399.617363 37.21243 
L 400.431033 37.140591 
L 401.244704 36.944459 
L 402.058374 36.525968 
L 402.872045 36.593245 
L 403.685716 36.863497 
L 404.499386 37.332162 
L 405.313057 37.414264 
L 406.126727 37.383476 
L 406.940398 37.528295 
L 406.940398 37.528295 
" style="fill:none;stroke:#29ffce;stroke-linecap:round;stroke-width:1.5;"/>
   </g>
   <g id="line2d_19">
    <path clip-path="url(#p0821b41c98)" d="M 82.285852 231.349142 
L 83.099523 257.441573 
L 83.913193 267.367917 
L 84.726864 271.632653 
L 85.540534 274.117375 
L 86.354205 275.110579 
L 87.167876 275.717221 
L 87.981546 275.616874 
L 88.795217 275.914493 
L 89.608887 275.734325 
L 91.236228 275.066107 
L 92.049899 274.408152 
L 92.863569 274.02615 
L 93.67724 273.383019 
L 94.49091 272.324817 
L 95.304581 271.638354 
L 100.186604 265.647198 
L 101.813945 263.25028 
L 102.627616 261.967438 
L 104.254957 258.738098 
L 105.068627 257.929623 
L 105.882298 256.523628 
L 106.695968 254.732211 
L 108.32331 252.011446 
L 109.13698 250.419582 
L 109.950651 248.550624 
L 110.764321 247.199364 
L 111.577992 245.009981 
L 112.391662 242.422632 
L 114.019003 239.287937 
L 114.832674 236.883036 
L 115.646344 235.258104 
L 117.273685 230.996789 
L 118.901027 227.32159 
L 119.714697 224.779853 
L 120.528368 223.092203 
L 121.342038 219.722605 
L 122.155709 217.394105 
L 122.969379 214.309584 
L 123.78305 211.997048 
L 125.410391 206.495082 
L 126.224061 204.321663 
L 127.851403 198.79119 
L 129.478744 193.372467 
L 130.292414 190.415659 
L 131.106085 186.827123 
L 132.733426 181.571463 
L 133.547096 178.513169 
L 136.801778 167.795454 
L 137.615449 164.340333 
L 138.42912 161.876137 
L 139.24279 160.142875 
L 141.683802 151.632788 
L 143.311143 145.737418 
L 144.124813 143.038319 
L 144.938484 139.911606 
L 145.752154 137.641262 
L 147.379495 132.179207 
L 148.193166 129.055915 
L 149.820507 124.004369 
L 150.634178 122.65539 
L 153.88886 114.340295 
L 154.70253 111.003766 
L 155.516201 109.325239 
L 157.143542 105.481275 
L 157.957212 104.478948 
L 158.770883 102.600868 
L 159.584554 101.178909 
L 161.211895 97.762559 
L 162.025565 95.509319 
L 163.652906 92.213841 
L 164.466577 91.442996 
L 165.280247 89.341416 
L 166.093918 88.278653 
L 167.721259 85.321845 
L 168.53493 85.018524 
L 169.3486 83.898746 
L 171.789612 78.747994 
L 172.603282 76.81746 
L 174.230623 74.30195 
L 175.857964 71.22427 
L 177.485305 69.930025 
L 178.298976 68.818229 
L 179.112647 68.438508 
L 180.739988 67.000585 
L 183.99467 65.02786 
L 184.80834 64.039216 
L 187.249352 61.587563 
L 188.063022 61.758609 
L 191.317705 58.320593 
L 192.131375 57.680883 
L 192.945046 56.834777 
L 193.758716 56.35699 
L 195.386057 55.7207 
L 196.199728 55.278263 
L 197.013398 55.133444 
L 197.827069 54.383124 
L 198.640739 53.415006 
L 199.45441 52.713719 
L 200.268081 52.713719 
L 201.081751 52.511886 
L 201.895422 52.016994 
L 202.709092 52.26672 
L 204.336433 51.052297 
L 205.150104 50.42399 
L 205.963774 49.982692 
L 206.777445 49.197023 
L 210.032127 47.944969 
L 211.659468 47.503672 
L 212.473139 46.920976 
L 213.286809 46.681513 
L 214.10048 46.724844 
L 214.91415 46.326878 
L 215.727821 46.455733 
L 216.541491 46.174077 
L 217.355162 46.195743 
L 218.168832 46.046363 
L 218.982503 45.736201 
L 219.796174 45.215082 
L 220.609844 44.920884 
L 221.423515 44.790889 
L 222.237185 44.384941 
L 223.050856 43.765756 
L 223.864526 43.802246 
L 225.491867 42.512562 
L 226.305538 42.781674 
L 227.119208 42.829567 
L 227.932879 42.259415 
L 230.373891 41.37682 
L 231.187561 41.048412 
L 232.001232 41.712069 
L 232.814902 42.073545 
L 234.442243 41.222879 
L 235.255914 41.221738 
L 236.069584 41.671018 
L 236.883255 41.423572 
L 237.696925 41.820398 
L 240.137937 41.358575 
L 240.951608 41.391644 
L 241.765278 40.962889 
L 242.578949 41.022185 
L 243.392619 40.796405 
L 244.20629 40.454314 
L 245.01996 40.489663 
L 245.833631 40.781581 
L 247.460972 39.981088 
L 248.274642 40.282128 
L 249.901984 40.396158 
L 251.529325 40.40186 
L 252.342995 40.632201 
L 253.156666 40.494225 
L 253.970336 40.070032 
L 255.597677 39.969685 
L 256.411348 39.886443 
L 257.225018 39.46339 
L 258.038689 39.609349 
L 258.852359 40.003894 
L 259.66603 39.664083 
L 260.479701 39.683469 
L 261.293371 39.976527 
L 262.107042 39.847672 
L 262.920712 40.185202 
L 263.734383 40.40072 
L 264.548053 40.416684 
L 266.175394 40.119065 
L 266.989065 39.377867 
L 267.802735 38.958235 
L 268.616406 38.388084 
L 269.430076 38.353874 
L 271.871088 38.851047 
L 272.684759 39.23647 
L 274.3121 39.418918 
L 276.753111 38.879554 
L 277.566782 38.911483 
L 278.380452 39.184016 
L 279.194123 39.254714 
L 280.007793 39.495318 
L 280.821464 39.12586 
L 281.635135 38.443958 
L 282.448805 38.219319 
L 284.076146 38.272913 
L 284.889817 38.014064 
L 288.144499 38.8271 
L 289.77184 39.397252 
L 290.585511 39.247873 
L 293.026522 39.977667 
L 293.840193 40.206868 
L 294.653863 39.780394 
L 295.467534 39.555755 
L 297.094875 39.702854 
L 297.908545 39.593385 
L 299.535886 40.486242 
L 300.349557 40.597992 
L 301.163228 40.316337 
L 301.976898 40.332301 
L 302.790569 40.599132 
L 303.604239 40.377914 
L 305.23158 39.144105 
L 306.045251 38.864731 
L 306.858921 38.845345 
L 308.486262 37.96047 
L 309.299933 37.742672 
L 310.927274 37.795126 
L 311.740945 38.115551 
L 313.368286 38.44852 
L 314.181956 38.153181 
L 315.809297 38.613864 
L 316.622968 38.581935 
L 317.436638 38.965077 
L 319.063979 39.283222 
L 319.87765 39.123579 
L 320.69132 38.353874 
L 321.504991 38.011783 
L 322.318662 38.079061 
L 323.946003 38.903501 
L 324.759673 38.740437 
L 325.573344 38.779208 
L 326.387014 38.481588 
L 327.200685 38.782629 
L 328.828026 38.479308 
L 329.641696 38.949113 
L 330.455367 38.977621 
L 332.082708 39.243311 
L 333.710049 38.871572 
L 334.52372 38.743858 
L 335.33739 39.117878 
L 336.151061 38.856748 
L 336.964731 38.767805 
L 337.778402 39.132702 
L 339.405743 38.585356 
L 340.219413 38.890957 
L 341.033084 38.799733 
L 341.846755 39.259276 
L 342.660425 39.415497 
L 344.287766 39.161209 
L 345.915107 39.263837 
L 349.98346 38.52378 
L 350.79713 38.710789 
L 353.238142 38.087043 
L 354.051813 38.303701 
L 354.865483 38.707369 
L 355.679154 38.642371 
L 356.492824 38.290017 
L 358.120165 37.836177 
L 358.933836 37.977574 
L 359.747506 37.43593 
L 363.815859 37.62294 
L 364.62953 37.376634 
L 365.4432 37.758636 
L 366.256871 37.752934 
L 367.070541 38.255808 
L 368.697882 38.031168 
L 369.511553 38.140638 
L 370.325223 38.660616 
L 371.138894 38.953674 
L 371.952565 38.885256 
L 372.766235 38.195372 
L 373.579906 37.800827 
L 374.393576 37.840738 
L 375.207247 37.618379 
L 376.020917 37.906875 
L 376.834588 37.629782 
L 377.648258 37.518032 
L 378.461929 37.894332 
L 379.275599 37.977574 
L 380.08927 38.427994 
L 380.90294 37.983276 
L 381.716611 37.845299 
L 382.530282 38.050554 
L 383.343952 37.902314 
L 384.157623 38.060816 
L 384.971293 38.355015 
L 387.412305 38.14976 
L 389.039646 37.413124 
L 390.666987 36.419919 
L 391.480657 35.535044 
L 392.294328 35.614865 
L 393.921669 35.256809 
L 394.73534 35.530482 
L 395.54901 36.023094 
L 396.362681 35.979762 
L 397.176351 36.134843 
L 397.990022 36.468952 
L 398.803692 36.318432 
L 400.431033 35.203215 
L 401.244704 34.729989 
L 403.685716 35.288738 
L 404.499386 35.219179 
L 405.313057 35.288738 
L 406.126727 35.716352 
L 406.940398 35.940992 
L 406.940398 35.940992 
" style="fill:none;stroke:#7dff7a;stroke-linecap:round;stroke-width:1.5;"/>
   </g>
   <g id="line2d_20">
    <path clip-path="url(#p0821b41c98)" d="M 82.285852 231.685532 
L 83.099523 257.410784 
L 83.913193 267.161522 
L 84.726864 272.000971 
L 85.540534 273.774143 
L 86.354205 275.149349 
L 87.981546 275.847215 
L 88.795217 276.012559 
L 89.608887 276.039927 
L 90.422558 275.352323 
L 91.236228 275.385392 
L 92.049899 274.335173 
L 93.67724 273.371616 
L 94.49091 272.054565 
L 95.304581 271.800277 
L 96.118251 270.628045 
L 96.931922 269.804746 
L 97.745593 268.740842 
L 98.559263 267.933507 
L 100.186604 265.325633 
L 101.813945 263.115724 
L 103.441286 260.944586 
L 104.254957 259.318513 
L 105.068627 258.270573 
L 106.695968 255.098248 
L 107.509639 253.896368 
L 109.13698 250.498263 
L 110.764321 246.453606 
L 111.577992 245.074979 
L 112.391662 242.971118 
L 113.205333 241.21391 
L 114.019003 238.915058 
L 115.646344 235.721067 
L 118.087356 228.718462 
L 118.901027 227.09695 
L 119.714697 224.709154 
L 120.528368 221.8812 
L 121.342038 219.728307 
L 122.969379 215.039378 
L 123.78305 211.633291 
L 124.59672 210.116687 
L 125.410391 207.045849 
L 126.224061 204.562267 
L 127.037732 202.852952 
L 129.478744 194.21287 
L 132.733426 183.88856 
L 135.174437 175.466277 
L 137.615449 165.063286 
L 139.24279 159.697016 
L 140.056461 157.652452 
L 140.870131 154.271451 
L 143.311143 147.019119 
L 145.752154 139.029011 
L 146.565825 136.328772 
L 147.379495 134.303592 
L 149.820507 126.682943 
L 150.634178 124.803722 
L 151.447848 122.250582 
L 152.261519 120.832044 
L 154.70253 112.402919 
L 155.516201 109.617157 
L 156.329871 107.475666 
L 157.143542 105.79828 
L 157.957212 104.59868 
L 158.770883 101.773007 
L 159.584554 99.935978 
L 160.398224 97.731771 
L 161.211895 95.908425 
L 162.025565 93.766935 
L 162.839236 92.240068 
L 163.652906 90.172697 
L 165.280247 87.446231 
L 166.093918 86.594424 
L 167.721259 84.086896 
L 168.53493 82.14724 
L 169.3486 81.036584 
L 170.162271 79.612344 
L 170.975941 77.908731 
L 171.789612 76.774128 
L 173.416953 73.990647 
L 175.857964 69.619863 
L 176.671635 68.863841 
L 177.485305 68.355266 
L 178.298976 68.042823 
L 179.926317 66.301579 
L 181.553658 64.250172 
L 182.367329 62.969611 
L 183.180999 61.262577 
L 184.80834 58.693472 
L 185.622011 58.601108 
L 186.435681 58.776714 
L 188.876693 57.830262 
L 189.690364 57.206516 
L 191.317705 55.620354 
L 192.131375 54.416193 
L 192.945046 53.584912 
L 193.758716 53.036425 
L 194.572387 52.279264 
L 195.386057 52.136726 
L 196.199728 51.865333 
L 197.013398 50.91546 
L 197.827069 50.615561 
L 198.640739 50.560826 
L 200.268081 50.122949 
L 201.895422 48.288201 
L 202.709092 47.590335 
L 203.522763 47.38622 
L 204.336433 47.417009 
L 205.963774 46.869663 
L 206.777445 46.854839 
L 207.591115 46.576605 
L 208.404786 46.48538 
L 209.218457 46.575464 
L 210.032127 46.241355 
L 210.845798 45.62103 
L 212.473139 46.458013 
L 214.10048 45.982506 
L 214.91415 46.307493 
L 216.541491 45.649538 
L 217.355162 44.888955 
L 218.168832 44.38038 
L 218.982503 44.08048 
L 219.796174 43.926539 
L 220.609844 43.395157 
L 221.423515 43.21727 
L 222.237185 43.340423 
L 223.864526 43.919697 
L 224.678197 43.671111 
L 226.305538 43.582167 
L 227.119208 43.075872 
L 228.746549 42.5787 
L 229.56022 42.138543 
L 230.373891 42.309588 
L 232.814902 42.376866 
L 233.628573 42.635715 
L 235.255914 42.235468 
L 236.069584 41.582074 
L 238.510596 40.219411 
L 239.324266 40.550099 
L 240.137937 40.180641 
L 241.765278 40.797545 
L 242.578949 40.547819 
L 244.20629 40.534135 
L 245.01996 40.204587 
L 245.833631 40.384755 
L 246.647301 40.13845 
L 247.460972 40.130468 
L 248.274642 40.434929 
L 249.088313 40.448612 
L 250.715654 39.878461 
L 252.342995 39.115597 
L 253.156666 39.090511 
L 253.970336 39.368745 
L 254.784007 39.962843 
L 256.411348 39.601367 
L 258.038689 38.571672 
L 258.852359 38.221599 
L 259.66603 38.0745 
L 261.293371 37.496366 
L 262.920712 37.878368 
L 263.734383 37.77232 
L 264.548053 38.001521 
L 265.361724 38.608162 
L 266.175394 38.383522 
L 266.989065 38.570532 
L 270.243747 40.066611 
L 271.057418 39.903547 
L 271.871088 40.041524 
L 272.684759 39.816884 
L 273.498429 40.035822 
L 275.12577 39.644698 
L 275.939441 39.654961 
L 276.753111 39.790657 
L 279.194123 39.532948 
L 280.007793 40.024419 
L 280.821464 39.920652 
L 281.635135 39.196559 
L 282.448805 39.326554 
L 284.076146 39.992491 
L 284.889817 39.79978 
L 286.517158 39.918371 
L 287.330828 39.965124 
L 289.77184 39.345939 
L 290.585511 39.835129 
L 291.399181 40.494225 
L 292.212852 40.420105 
L 293.026522 39.935476 
L 293.840193 39.707415 
L 294.653863 39.65154 
L 295.467534 39.193138 
L 296.281204 39.250153 
L 297.094875 39.195419 
L 297.908545 38.756402 
L 298.722216 38.876134 
L 299.535886 38.560269 
L 301.163228 38.41089 
L 301.976898 38.695966 
L 302.790569 39.136123 
L 304.41791 38.491851 
L 305.23158 38.406328 
L 306.045251 38.694825 
L 307.672592 38.667458 
L 310.113603 38.251247 
L 310.927274 38.29914 
L 313.368286 38.141778 
L 314.181956 37.806529 
L 314.995627 37.815651 
L 315.809297 38.491851 
L 316.622968 38.873853 
L 317.436638 39.08937 
L 318.250309 38.987883 
L 319.87765 38.382382 
L 320.69132 38.247826 
L 321.504991 38.237563 
L 322.318662 38.514657 
L 323.946003 38.084763 
L 324.759673 37.945646 
L 325.573344 38.100727 
L 326.387014 37.973013 
L 328.014355 37.438211 
L 328.828026 37.457596 
L 329.641696 37.959329 
L 332.896379 38.380101 
L 333.710049 38.82596 
L 334.52372 38.855608 
L 335.33739 38.278614 
L 336.151061 38.350454 
L 336.964731 38.180548 
L 337.778402 38.385803 
L 338.592072 38.370979 
L 339.405743 38.60132 
L 340.219413 38.552287 
L 341.033084 38.266071 
L 341.846755 38.166865 
L 342.660425 38.252387 
L 343.474096 38.578514 
L 344.287766 38.190811 
L 345.101437 38.137217 
L 345.915107 38.195372 
L 346.728778 38.372119 
L 347.542448 38.33905 
L 348.356119 38.142918 
L 349.169789 37.711883 
L 349.98346 37.728988 
L 350.79713 37.502068 
L 351.610801 37.840738 
L 352.424472 38.56369 
L 354.051813 39.31173 
L 354.865483 38.828241 
L 356.492824 38.14976 
L 358.120165 38.567111 
L 358.933836 38.172566 
L 360.561177 38.066518 
L 361.374847 38.055115 
L 362.188518 38.238704 
L 363.002189 37.991258 
L 365.4432 38.880695 
L 366.256871 38.880695 
L 369.511553 38.324227 
L 370.325223 37.817932 
L 371.138894 38.323086 
L 371.952565 38.231862 
L 372.766235 38.653774 
L 373.579906 38.691404 
L 376.834588 37.980995 
L 377.648258 37.926261 
L 378.461929 37.728988 
L 379.275599 37.755215 
L 380.90294 37.193045 
L 381.716611 37.299093 
L 383.343952 37.879508 
L 384.157623 37.782582 
L 384.971293 37.84986 
L 385.784964 37.764337 
L 386.598634 37.366371 
L 388.225975 37.180502 
L 389.039646 36.75973 
L 389.853316 36.992352 
L 390.666987 37.895472 
L 391.480657 38.310543 
L 392.294328 38.161163 
L 393.107999 38.175987 
L 393.921669 37.430228 
L 395.54901 37.43707 
L 396.362681 37.694779 
L 398.803692 37.652588 
L 399.617363 37.514611 
L 401.244704 37.561363 
L 402.058374 37.969592 
L 402.872045 38.141778 
L 403.685716 37.88521 
L 405.313057 37.780302 
L 406.126727 37.21243 
L 406.940398 37.280849 
L 406.940398 37.280849 
" style="fill:none;stroke:#ceff29;stroke-linecap:round;stroke-width:1.5;"/>
   </g>
   <g id="line2d_21">
    <path clip-path="url(#p0821b41c98)" d="M 82.285852 231.963766 
L 83.099523 257.559024 
L 83.913193 267.668957 
L 84.726864 271.292842 
L 85.540534 273.850543 
L 86.354205 275.266801 
L 87.167876 275.803884 
L 89.608887 276.05361 
L 90.422558 275.45267 
L 91.236228 274.994268 
L 92.863569 273.926944 
L 93.67724 272.995316 
L 94.49091 272.71252 
L 95.304581 271.62353 
L 96.118251 270.784267 
L 96.931922 270.15824 
L 97.745593 268.775051 
L 98.559263 267.963155 
L 99.372934 266.674612 
L 100.186604 265.831928 
L 101.000275 264.268571 
L 101.813945 263.233175 
L 104.254957 259.207903 
L 105.068627 258.540825 
L 105.882298 256.657044 
L 107.509639 253.505244 
L 108.32331 251.973816 
L 109.13698 249.779872 
L 111.577992 245.202693 
L 112.391662 242.983661 
L 114.019003 239.573013 
L 115.646344 235.034604 
L 116.460015 233.232924 
L 117.273685 230.647856 
L 119.714697 224.457147 
L 121.342038 219.942684 
L 122.155709 218.249333 
L 123.78305 212.071167 
L 126.224061 204.694542 
L 127.037732 201.79361 
L 127.851403 199.661242 
L 128.665073 196.753467 
L 130.292414 192.210497 
L 131.106085 189.013085 
L 131.919755 186.585379 
L 134.360767 176.987442 
L 135.174437 174.211943 
L 135.988108 171.9473 
L 136.801778 169.306356 
L 137.615449 165.736065 
L 139.24279 160.23524 
L 142.497472 149.313411 
L 144.124813 144.920961 
L 145.752154 139.77477 
L 146.565825 136.191935 
L 150.634178 124.324794 
L 153.075189 116.884313 
L 153.88886 115.332359 
L 154.70253 112.428005 
L 155.516201 110.457561 
L 156.329871 109.281907 
L 157.143542 106.593071 
L 159.584554 100.408064 
L 162.025565 93.753251 
L 164.466577 88.978799 
L 165.280247 86.556794 
L 167.721259 80.945359 
L 168.53493 80.23267 
L 169.3486 79.692166 
L 170.975941 77.330597 
L 171.789612 76.535805 
L 172.603282 74.970168 
L 173.416953 73.750043 
L 175.857964 71.066908 
L 176.671635 69.544603 
L 177.485305 68.498944 
L 178.298976 67.741782 
L 179.112647 66.252546 
L 179.926317 65.640203 
L 180.739988 65.349425 
L 181.553658 64.909268 
L 182.367329 64.09053 
L 183.180999 63.032328 
L 183.99467 62.467878 
L 184.80834 61.692471 
L 185.622011 61.481515 
L 188.063022 58.971706 
L 188.876693 58.493919 
L 190.504034 57.022927 
L 191.317705 56.708203 
L 192.945046 56.406023 
L 193.758716 55.766313 
L 196.199728 53.319221 
L 197.013398 52.912132 
L 197.827069 51.62587 
L 200.268081 50.665734 
L 201.081751 50.308819 
L 201.895422 50.305398 
L 202.709092 49.759192 
L 203.522763 48.758006 
L 204.336433 48.378285 
L 205.150104 47.851464 
L 205.963774 47.172984 
L 207.591115 46.203725 
L 208.404786 46.323457 
L 209.218457 45.761288 
L 210.032127 45.343936 
L 210.845798 45.690589 
L 211.659468 45.534367 
L 212.473139 45.109034 
L 213.286809 44.492129 
L 214.10048 44.205913 
L 214.91415 43.32902 
L 215.727821 42.658521 
L 218.168832 43.335861 
L 218.982503 43.078153 
L 219.796174 42.981227 
L 220.609844 43.245777 
L 221.423515 42.95614 
L 223.050856 41.948112 
L 223.864526 40.960609 
L 225.491867 40.634482 
L 226.305538 40.877367 
L 227.932879 42.180734 
L 228.746549 42.599225 
L 229.56022 42.456687 
L 231.187561 41.896798 
L 232.001232 42.059862 
L 232.814902 42.0553 
L 233.628573 41.806714 
L 235.255914 41.017624 
L 236.069584 41.274192 
L 236.883255 41.082621 
L 237.696925 41.177266 
L 239.324266 41.655054 
L 240.137937 41.457781 
L 242.578949 41.853467 
L 244.20629 41.465763 
L 245.01996 41.582074 
L 245.833631 40.844298 
L 246.647301 40.560362 
L 248.274642 39.152087 
L 249.088313 39.269538 
L 250.715654 39.986789 
L 251.529325 40.06433 
L 253.156666 39.623032 
L 253.970336 38.983322 
L 254.784007 38.615004 
L 256.411348 38.327647 
L 257.225018 38.146339 
L 258.038689 38.378961 
L 258.852359 38.365277 
L 259.66603 38.837363 
L 262.107042 39.375587 
L 262.920712 38.958235 
L 263.734383 39.138403 
L 265.361724 39.751887 
L 266.175394 39.942318 
L 266.989065 39.855654 
L 267.802735 39.885302 
L 271.057418 39.165771 
L 271.871088 38.640091 
L 272.684759 38.63781 
L 273.498429 38.156602 
L 274.3121 38.616144 
L 275.12577 38.82368 
L 276.753111 38.678861 
L 277.566782 38.868151 
L 279.194123 38.702807 
L 280.007793 38.458782 
L 280.821464 37.882929 
L 281.635135 38.194232 
L 282.448805 38.197653 
L 283.262476 37.831615 
L 284.076146 37.934243 
L 284.889817 38.276334 
L 285.703487 38.366418 
L 286.517158 37.853281 
L 287.330828 37.795126 
L 288.958169 38.44966 
L 289.77184 39.303747 
L 290.585511 39.016391 
L 291.399181 39.106475 
L 292.212852 39.527247 
L 293.026522 39.545492 
L 293.840193 39.341377 
L 294.653863 38.578514 
L 295.467534 38.11327 
L 297.094875 37.876087 
L 298.722216 37.492945 
L 300.349557 38.239844 
L 301.163228 38.747279 
L 301.976898 39.006128 
L 302.790569 39.003848 
L 303.604239 38.822539 
L 305.23158 38.775787 
L 306.045251 38.63895 
L 306.858921 38.867011 
L 309.299933 38.478168 
L 310.113603 38.219319 
L 310.927274 38.267211 
L 311.740945 38.008362 
L 312.554615 37.935383 
L 314.181956 38.259229 
L 315.809297 38.986743 
L 318.250309 39.010689 
L 319.063979 39.098493 
L 319.87765 39.65154 
L 320.69132 39.845392 
L 323.132332 40.028981 
L 323.946003 40.453174 
L 324.759673 40.307215 
L 325.573344 39.780394 
L 326.387014 39.674346 
L 327.200685 39.361903 
L 328.828026 38.210196 
L 329.641696 37.791705 
L 330.455367 37.521453 
L 331.269038 38.093885 
L 332.896379 38.173706 
L 333.710049 38.365277 
L 336.964731 38.381242 
L 337.778402 38.222739 
L 338.592072 38.475887 
L 339.405743 38.960516 
L 340.219413 38.760963 
L 341.033084 39.123579 
L 341.846755 39.220505 
L 342.660425 38.808856 
L 343.474096 38.958235 
L 344.287766 38.589917 
L 345.101437 38.467905 
L 346.728778 38.986743 
L 347.542448 38.914904 
L 349.169789 39.384709 
L 349.98346 39.466811 
L 351.610801 39.937756 
L 352.424472 39.731361 
L 353.238142 39.818024 
L 354.051813 39.759869 
L 354.865483 39.244452 
L 355.679154 39.35164 
L 356.492824 39.772412 
L 357.306495 39.731361 
L 358.933836 40.145292 
L 359.747506 40.295812 
L 360.561177 40.629921 
L 361.374847 40.458875 
L 362.188518 40.095118 
L 363.002189 39.592244 
L 364.62953 39.105335 
L 365.4432 38.472466 
L 366.256871 38.611583 
L 367.884212 38.181689 
L 369.511553 38.41203 
L 370.325223 38.313964 
L 371.138894 38.766664 
L 371.952565 38.508956 
L 372.766235 38.845345 
L 373.579906 38.726754 
L 374.393576 38.744999 
L 375.207247 39.109896 
L 376.020917 39.132702 
L 377.648258 38.67658 
L 378.461929 38.950253 
L 379.275599 39.040337 
L 380.90294 39.055161 
L 381.716611 39.234189 
L 382.530282 39.19998 
L 385.784964 37.465578 
L 388.225975 37.931962 
L 389.853316 36.966125 
L 390.666987 36.854375 
L 391.480657 37.076734 
L 392.294328 37.565925 
L 393.107999 37.458736 
L 393.921669 37.621799 
L 394.73534 37.497506 
L 395.54901 37.642325 
L 396.362681 37.408563 
L 397.990022 37.858983 
L 398.803692 38.240984 
L 399.617363 38.376681 
L 400.431033 38.298 
L 401.244704 38.058536 
L 403.685716 38.134936 
L 404.499386 37.871526 
L 405.313057 37.426807 
L 406.940398 36.974107 
L 406.940398 36.974107 
" style="fill:none;stroke:#ffc400;stroke-linecap:round;stroke-width:1.5;"/>
   </g>
   <g id="line2d_22">
    <path clip-path="url(#p0821b41c98)" d="M 82.285852 232.238579 
L 83.099523 257.370874 
L 83.913193 267.128453 
L 84.726864 271.73642 
L 85.540534 273.815194 
L 86.354205 275.143648 
L 87.167876 275.782218 
L 87.981546 276.150536 
L 88.795217 276.09124 
L 89.608887 275.852917 
L 90.422558 275.848356 
L 91.236228 275.194962 
L 92.049899 274.2143 
L 92.863569 273.939487 
L 95.304581 271.62239 
L 96.118251 270.490068 
L 96.931922 269.931319 
L 97.745593 269.049865 
L 98.559263 267.472825 
L 99.372934 266.650666 
L 101.813945 263.36317 
L 102.627616 261.872793 
L 104.254957 259.548854 
L 105.068627 257.715246 
L 106.695968 254.772122 
L 107.509639 252.859832 
L 109.13698 249.701191 
L 113.205333 241.002954 
L 114.019003 238.090618 
L 114.832674 236.832863 
L 116.460015 233.1417 
L 117.273685 230.780131 
L 118.901027 226.964675 
L 120.528368 221.479814 
L 121.342038 219.451213 
L 122.155709 216.618699 
L 122.969379 214.720093 
L 123.78305 212.23195 
L 124.59672 210.438252 
L 125.410391 207.104004 
L 127.037732 202.492616 
L 127.851403 199.271258 
L 128.665073 197.256341 
L 129.478744 194.188924 
L 131.106085 189.925328 
L 132.733426 183.728918 
L 139.24279 161.071082 
L 140.870131 156.709421 
L 142.497472 149.917772 
L 143.311143 147.431909 
L 144.124813 144.16836 
L 145.752154 139.238827 
L 148.193166 131.097058 
L 149.820507 126.688644 
L 150.634178 124.628115 
L 153.88886 113.783827 
L 155.516201 110.08126 
L 156.329871 108.146165 
L 157.143542 105.442505 
L 157.957212 103.711524 
L 158.770883 100.969093 
L 159.584554 99.34416 
L 161.211895 95.51502 
L 162.025565 94.322263 
L 162.839236 92.632333 
L 163.652906 91.644829 
L 164.466577 89.910427 
L 165.280247 88.799772 
L 166.093918 86.780294 
L 166.907588 85.312723 
L 167.721259 84.093738 
L 169.3486 80.786857 
L 170.162271 79.366039 
L 172.603282 74.380631 
L 173.416953 73.384005 
L 174.230623 73.103491 
L 175.044294 72.04871 
L 175.857964 70.437461 
L 176.671635 69.485307 
L 177.485305 68.046244 
L 181.553658 62.984435 
L 182.367329 62.599013 
L 183.180999 61.833869 
L 183.99467 60.701547 
L 184.80834 59.358269 
L 185.622011 59.490545 
L 186.435681 59.294412 
L 187.249352 58.790398 
L 188.063022 57.734477 
L 188.876693 56.998981 
L 190.504034 54.672761 
L 191.317705 54.135678 
L 192.945046 52.704597 
L 193.758716 52.820908 
L 195.386057 51.705691 
L 196.199728 51.527804 
L 197.013398 51.183432 
L 197.827069 50.262066 
L 198.640739 49.884626 
L 201.081751 49.735246 
L 201.895422 49.120622 
L 202.709092 48.681605 
L 203.522763 48.570996 
L 204.336433 48.32241 
L 205.150104 48.516261 
L 206.777445 48.147943 
L 208.404786 47.180966 
L 209.218457 46.919836 
L 210.032127 46.505906 
L 212.473139 46.201445 
L 214.10048 46.054346 
L 214.91415 45.648397 
L 217.355162 46.320036 
L 218.982503 44.852465 
L 219.796174 44.723611 
L 220.609844 44.169424 
L 221.423515 43.92996 
L 222.237185 43.821631 
L 223.050856 43.349545 
L 223.864526 43.061048 
L 225.491867 43.214989 
L 226.305538 42.981227 
L 227.119208 43.354106 
L 227.932879 43.438489 
L 228.746549 43.032541 
L 230.373891 41.758821 
L 231.187561 41.26735 
L 232.814902 41.007361 
L 233.628573 41.279894 
L 234.442243 41.055254 
L 235.255914 40.580888 
L 236.069584 40.395018 
L 236.883255 40.564923 
L 238.510596 41.282174 
L 239.324266 41.721191 
L 240.137937 41.679 
L 240.951608 41.063236 
L 241.765278 40.772459 
L 242.578949 40.620798 
L 243.392619 40.59115 
L 244.20629 40.941224 
L 245.01996 40.791844 
L 246.647301 39.436023 
L 247.460972 39.470232 
L 249.088313 39.12586 
L 249.901984 38.730175 
L 250.715654 38.559129 
L 253.970336 37.288831 
L 254.784007 37.374354 
L 257.225018 38.045992 
L 258.038689 37.982135 
L 258.852359 38.506675 
L 260.479701 39.87504 
L 262.107042 38.910343 
L 262.920712 38.492991 
L 263.734383 38.424573 
L 264.548053 38.635529 
L 265.361724 38.491851 
L 266.175394 38.893238 
L 266.989065 39.166911 
L 267.802735 39.04946 
L 268.616406 39.195419 
L 269.430076 39.133842 
L 271.057418 39.285503 
L 272.684759 39.213663 
L 273.498429 38.942271 
L 274.3121 39.197699 
L 275.12577 39.291204 
L 275.939441 39.179454 
L 276.753111 38.466764 
L 279.194123 38.130375 
L 280.007793 37.77574 
L 280.821464 37.593292 
L 281.635135 37.963891 
L 282.448805 37.828194 
L 283.262476 37.348127 
L 284.076146 37.526014 
L 284.889817 37.483823 
L 285.703487 37.853281 
L 286.517158 37.618379 
L 287.330828 37.820212 
L 288.144499 38.644652 
L 288.958169 38.694825 
L 289.77184 38.137217 
L 290.585511 37.80995 
L 291.399181 37.855562 
L 292.212852 37.742672 
L 294.653863 38.3744 
L 295.467534 39.186296 
L 296.281204 39.246732 
L 298.722216 39.658382 
L 299.535886 39.193138 
L 300.349557 38.86245 
L 301.163228 38.74956 
L 303.604239 38.701667 
L 304.41791 38.466764 
L 305.23158 38.465624 
L 306.045251 37.957049 
L 306.858921 37.817932 
L 307.672592 38.031168 
L 308.486262 38.116691 
L 310.113603 38.019765 
L 311.740945 38.48729 
L 312.554615 38.441678 
L 314.181956 38.816838 
L 314.995627 38.770085 
L 315.809297 39.138403 
L 316.622968 39.213663 
L 318.250309 39.154368 
L 321.504991 39.298046 
L 322.318662 39.490757 
L 323.132332 40.111082 
L 323.946003 40.339143 
L 324.759673 40.171519 
L 326.387014 40.975433 
L 327.200685 40.594571 
L 329.641696 39.83741 
L 330.455367 39.490757 
L 331.269038 38.957095 
L 332.082708 38.774647 
L 333.710049 38.684563 
L 334.52372 38.152041 
L 335.33739 38.506675 
L 336.151061 38.630968 
L 337.778402 39.329974 
L 338.592072 38.86359 
L 339.405743 38.251247 
L 340.219413 37.939944 
L 341.033084 37.873807 
L 342.660425 37.356109 
L 345.101437 37.652588 
L 345.915107 37.596713 
L 347.542448 37.918278 
L 348.356119 38.190811 
L 349.169789 38.333349 
L 349.98346 38.693685 
L 350.79713 38.929728 
L 351.610801 38.668598 
L 352.424472 38.616144 
L 353.238142 38.859029 
L 354.865483 38.963937 
L 355.679154 38.888677 
L 356.492824 39.079108 
L 358.120165 39.091651 
L 359.747506 38.513517 
L 360.561177 37.7746 
L 361.374847 37.54882 
L 363.002189 37.757496 
L 363.815859 37.470139 
L 364.62953 37.766618 
L 365.4432 37.804248 
L 366.256871 37.618379 
L 367.070541 37.227254 
L 367.884212 36.98437 
L 369.511553 37.570486 
L 370.325223 37.66171 
L 371.138894 37.935383 
L 371.952565 37.873807 
L 372.766235 38.291158 
L 374.393576 38.700527 
L 375.207247 39.171472 
L 376.020917 39.08709 
L 376.834588 38.438257 
L 377.648258 38.03573 
L 378.461929 38.568252 
L 379.275599 39.42462 
L 380.90294 38.648073 
L 381.716611 38.447379 
L 382.530282 37.760916 
L 383.343952 37.854421 
L 384.157623 37.482682 
L 384.971293 37.502068 
L 385.784964 37.146293 
L 386.598634 37.312777 
L 387.412305 36.889724 
L 388.225975 36.645699 
L 389.853316 37.43707 
L 390.666987 37.570486 
L 391.480657 37.333303 
L 392.294328 37.449614 
L 393.107999 37.009456 
L 393.921669 36.83727 
L 394.73534 37.443912 
L 395.54901 37.706182 
L 397.176351 37.567065 
L 397.990022 37.51119 
L 398.803692 37.109803 
L 399.617363 36.936477 
L 400.431033 37.032262 
L 401.244704 37.28427 
L 402.872045 37.141732 
L 406.126727 35.652495 
L 406.940398 35.503115 
L 406.940398 35.503115 
" style="fill:none;stroke:#ff6800;stroke-linecap:round;stroke-width:1.5;"/>
   </g>
   <g id="line2d_23">
    <path clip-path="url(#p0821b41c98)" d="M 82.285852 231.540713 
L 83.099523 256.994574 
L 83.913193 267.503613 
L 84.726864 271.403452 
L 85.540534 273.879051 
L 86.354205 275.173296 
L 87.981546 276.185886 
L 88.795217 276.160799 
L 89.608887 275.854057 
L 90.422558 275.248556 
L 91.236228 274.981725 
L 92.863569 273.704585 
L 93.67724 273.364774 
L 95.304581 271.431959 
L 96.118251 270.907419 
L 100.186604 265.456768 
L 101.000275 264.919685 
L 101.813945 263.078094 
L 102.627616 261.63675 
L 103.441286 260.545479 
L 104.254957 259.067646 
L 105.068627 258.157683 
L 106.695968 254.35249 
L 107.509639 253.412879 
L 109.950651 248.579132 
L 110.764321 246.450185 
L 111.577992 245.248305 
L 112.391662 242.86507 
L 113.205333 240.937957 
L 114.019003 239.476087 
L 114.832674 236.922947 
L 115.646344 235.107584 
L 116.460015 231.808685 
L 117.273685 230.679784 
L 118.087356 228.784599 
L 119.714697 223.98278 
L 120.528368 221.205 
L 121.342038 219.204908 
L 122.155709 216.646066 
L 123.78305 212.391593 
L 125.410391 207.642228 
L 127.037732 201.735454 
L 127.851403 199.004427 
L 129.478744 192.777228 
L 130.292414 190.746347 
L 131.106085 187.503323 
L 132.733426 182.3845 
L 134.360767 175.660129 
L 136.801778 167.800015 
L 137.615449 164.332351 
L 138.42912 161.430278 
L 144.124813 145.25507 
L 144.938484 143.201383 
L 146.565825 138.333426 
L 148.193166 132.469984 
L 149.006837 129.830181 
L 151.447848 120.55267 
L 154.70253 112.207927 
L 155.516201 109.429007 
L 156.329871 107.395845 
L 157.143542 104.922526 
L 157.957212 103.491445 
L 158.770883 101.773007 
L 159.584554 99.490119 
L 161.211895 96.786459 
L 162.839236 93.753251 
L 164.466577 91.098624 
L 166.093918 89.01985 
L 168.53493 82.199694 
L 170.975941 78.676155 
L 171.789612 76.96912 
L 173.416953 75.283751 
L 174.230623 74.834472 
L 175.044294 74.600709 
L 176.671635 72.590354 
L 177.485305 71.855998 
L 178.298976 70.776131 
L 179.112647 70.240188 
L 179.926317 69.407766 
L 180.739988 68.918576 
L 181.553658 68.177378 
L 182.367329 67.047337 
L 183.180999 66.676739 
L 183.99467 66.019924 
L 185.622011 64.123599 
L 186.435681 63.456521 
L 187.249352 63.336789 
L 188.063022 62.080174 
L 189.690364 60.746019 
L 190.504034 59.532736 
L 191.317705 58.756189 
L 192.131375 58.564618 
L 192.945046 57.631849 
L 194.572387 56.856443 
L 195.386057 56.124368 
L 197.013398 53.899635 
L 197.827069 53.225716 
L 198.640739 52.818627 
L 199.45441 52.607671 
L 201.081751 51.587099 
L 201.895422 51.457105 
L 204.336433 49.717001 
L 205.963774 49.902871 
L 206.777445 49.312193 
L 208.404786 48.865194 
L 209.218457 48.119436 
L 210.845798 47.249384 
L 211.659468 46.621077 
L 212.473139 46.194603 
L 213.286809 45.524104 
L 214.10048 45.250431 
L 214.91415 45.449985 
L 215.727821 45.463668 
L 216.541491 44.939129 
L 218.982503 44.430553 
L 219.796174 44.132934 
L 220.609844 43.711021 
L 221.423515 43.484101 
L 222.237185 44.066796 
L 223.050856 44.233281 
L 223.864526 44.215036 
L 225.491867 44.488709 
L 226.305538 43.674532 
L 227.119208 43.135168 
L 227.932879 42.904827 
L 228.746549 42.54107 
L 229.56022 42.043897 
L 230.373891 41.94241 
L 232.001232 41.896798 
L 232.814902 41.584355 
L 233.628573 41.64023 
L 234.442243 41.255947 
L 235.255914 41.284455 
L 236.069584 41.447518 
L 236.883255 41.479447 
L 237.696925 42.002846 
L 238.510596 41.535322 
L 239.324266 41.436115 
L 240.137937 41.204634 
L 240.951608 41.314103 
L 241.765278 40.922979 
L 244.20629 40.66641 
L 245.01996 40.366511 
L 245.833631 39.828287 
L 246.647301 39.881881 
L 247.460972 40.479401 
L 248.274642 40.51475 
L 249.088313 39.80092 
L 249.901984 39.579701 
L 251.529325 39.87618 
L 252.342995 39.627594 
L 253.156666 39.883022 
L 253.970336 39.863637 
L 254.784007 39.732502 
L 255.597677 40.338003 
L 257.225018 39.636716 
L 258.038689 39.27752 
L 258.852359 39.489617 
L 259.66603 39.251293 
L 260.479701 39.626453 
L 261.293371 39.491898 
L 262.107042 39.531808 
L 262.920712 39.759869 
L 263.734383 39.578561 
L 265.361724 39.701713 
L 266.989065 38.596759 
L 267.802735 37.96161 
L 271.057418 38.724473 
L 272.684759 39.641277 
L 273.498429 39.334536 
L 274.3121 39.150947 
L 275.939441 38.174847 
L 279.194123 38.205635 
L 280.821464 39.377867 
L 281.635135 40.233095 
L 284.076146 39.938897 
L 284.889817 39.745045 
L 286.517158 40.164677 
L 287.330828 40.673252 
L 288.958169 40.057488 
L 289.77184 39.76443 
L 290.585511 39.734782 
L 291.399181 39.588823 
L 293.026522 38.93657 
L 293.840193 39.170332 
L 294.653863 39.209102 
L 295.467534 38.984462 
L 296.281204 39.075687 
L 297.094875 38.941131 
L 299.535886 37.638904 
L 301.163228 38.778067 
L 302.790569 39.211383 
L 303.604239 38.885256 
L 304.41791 38.344752 
L 305.23158 38.017485 
L 306.045251 38.007222 
L 307.672592 38.240984 
L 308.486262 39.000427 
L 309.299933 39.181735 
L 310.927274 39.041478 
L 311.740945 38.689124 
L 314.181956 38.897799 
L 315.809297 39.558035 
L 316.622968 39.444005 
L 317.436638 39.708555 
L 318.250309 39.771272 
L 320.69132 39.442865 
L 321.504991 39.784956 
L 322.318662 39.811183 
L 323.132332 40.182922 
L 323.946003 40.019858 
L 324.759673 39.448566 
L 325.573344 39.373306 
L 327.200685 39.706275 
L 328.014355 40.058629 
L 328.828026 40.257041 
L 330.455367 39.998192 
L 331.269038 39.853374 
L 332.896379 39.730221 
L 333.710049 40.003894 
L 334.52372 39.822586 
L 335.33739 39.359622 
L 336.964731 39.467951 
L 340.219413 37.62522 
L 341.033084 37.527154 
L 341.846755 37.676534 
L 342.660425 38.234143 
L 343.474096 38.591058 
L 344.287766 39.075687 
L 345.101437 38.951394 
L 345.915107 38.978761 
L 346.728778 38.356155 
L 347.542448 38.183969 
L 348.356119 38.496412 
L 349.169789 39.12472 
L 349.98346 38.86359 
L 352.424472 39.417778 
L 353.238142 38.852187 
L 354.051813 39.152087 
L 354.865483 39.282082 
L 355.679154 39.128141 
L 357.306495 39.522686 
L 358.120165 39.394972 
L 358.933836 39.113317 
L 360.561177 38.908062 
L 361.374847 38.626407 
L 363.002189 39.12586 
L 363.815859 38.848766 
L 364.62953 38.432555 
L 365.4432 38.221599 
L 366.256871 38.136076 
L 367.884212 37.791705 
L 369.511553 37.837317 
L 370.325223 38.168005 
L 371.138894 38.152041 
L 371.952565 38.595619 
L 374.393576 38.295719 
L 375.207247 37.949067 
L 377.648258 37.329882 
L 378.461929 37.453034 
L 379.275599 37.447333 
L 382.530282 37.830475 
L 383.343952 38.137217 
L 384.971293 38.133796 
L 385.784964 37.900034 
L 386.598634 37.991258 
L 387.412305 37.734689 
L 388.225975 37.757496 
L 389.039646 38.003801 
L 389.853316 38.630968 
L 390.666987 38.515798 
L 392.294328 38.044852 
L 393.921669 38.376681 
L 394.73534 37.684516 
L 395.54901 37.36067 
L 397.176351 37.555662 
L 398.803692 37.54768 
L 399.617363 37.264884 
L 401.244704 37.422246 
L 402.058374 37.560223 
L 404.499386 37.329882 
L 405.313057 37.410843 
L 406.126727 37.252341 
L 406.940398 36.893145 
L 406.940398 36.893145 
" style="fill:none;stroke:#f10800;stroke-linecap:round;stroke-width:1.5;"/>
   </g>
   <g id="patch_3">
    <path d="M 66.053125 288.430125 
L 66.053125 22.318125 
" style="fill:none;stroke:#cccccc;stroke-linecap:square;stroke-linejoin:miter;stroke-width:0.8;"/>
   </g>
   <g id="patch_4">
    <path d="M 423.173125 288.430125 
L 423.173125 22.318125 
" style="fill:none;stroke:#cccccc;stroke-linecap:square;stroke-linejoin:miter;stroke-width:0.8;"/>
   </g>
   <g id="patch_5">
    <path d="M 66.053125 288.430125 
L 423.173125 288.430125 
" style="fill:none;stroke:#cccccc;stroke-linecap:square;stroke-linejoin:miter;stroke-width:0.8;"/>
   </g>
   <g id="patch_6">
    <path d="M 66.053125 22.318125 
L 423.173125 22.318125 
" style="fill:none;stroke:#cccccc;stroke-linecap:square;stroke-linejoin:miter;stroke-width:0.8;"/>
   </g>
   <g id="text_16">
    <!-- B cell -->
    <defs>
     <path d="M 19.671875 34.8125 
L 19.671875 8.109375 
L 35.5 8.109375 
Q 43.453125 8.109375 47.28125 11.40625 
Q 51.125 14.703125 51.125 21.484375 
Q 51.125 28.328125 47.28125 31.5625 
Q 43.453125 34.8125 35.5 34.8125 
z
M 19.671875 64.796875 
L 19.671875 42.828125 
L 34.28125 42.828125 
Q 41.5 42.828125 45.03125 45.53125 
Q 48.578125 48.25 48.578125 53.8125 
Q 48.578125 59.328125 45.03125 62.0625 
Q 41.5 64.796875 34.28125 64.796875 
z
M 9.8125 72.90625 
L 35.015625 72.90625 
Q 46.296875 72.90625 52.390625 68.21875 
Q 58.5 63.53125 58.5 54.890625 
Q 58.5 48.1875 55.375 44.234375 
Q 52.25 40.28125 46.1875 39.3125 
Q 53.46875 37.75 57.5 32.78125 
Q 61.53125 27.828125 61.53125 20.40625 
Q 61.53125 10.640625 54.890625 5.3125 
Q 48.25 0 35.984375 0 
L 9.8125 0 
z
" id="DejaVuSans-66"/>
    </defs>
    <g style="fill:#262626;" transform="translate(228.265 16.318125)scale(0.12 -0.12)">
     <use xlink:href="#DejaVuSans-66"/>
     <use x="68.603516" xlink:href="#DejaVuSans-32"/>
     <use x="100.390625" xlink:href="#DejaVuSans-99"/>
     <use x="155.371094" xlink:href="#DejaVuSans-101"/>
     <use x="216.894531" xlink:href="#DejaVuSans-108"/>
     <use x="244.677734" xlink:href="#DejaVuSans-108"/>
    </g>
   </g>
  </g>
 </g>
 <defs>
  <clipPath id="p0821b41c98">
   <rect height="266.112" width="357.12" x="66.053125" y="22.318125"/>
  </clipPath>
 </defs>
</svg>
