<?xml version="1.0" encoding="utf-8" standalone="no"?>
<!DOCTYPE svg PUBLIC "-//W3C//DTD SVG 1.1//EN"
  "http://www.w3.org/Graphics/SVG/1.1/DTD/svg11.dtd">
<!-- Created with matplotlib (https://matplotlib.org/) -->
<svg height="310.86825pt" version="1.1" viewBox="0 0 430.373125 310.86825" width="430.373125pt" xmlns="http://www.w3.org/2000/svg" xmlns:xlink="http://www.w3.org/1999/xlink">
 <defs>
  <style type="text/css">
*{stroke-linecap:butt;stroke-linejoin:round;white-space:pre;}
  </style>
 </defs>
 <g id="figure_1">
  <g id="patch_1">
   <path d="M 0 310.86825 
L 430.373125 310.86825 
L 430.373125 0 
L 0 0 
z
" style="fill:#ffffff;"/>
  </g>
  <g id="axes_1">
   <g id="patch_2">
    <path d="M 66.053125 273.312 
L 423.173125 273.312 
L 423.173125 7.2 
L 66.053125 7.2 
z
" style="fill:#ffffff;"/>
   </g>
   <g id="matplotlib.axis_1">
    <g id="xtick_1">
     <g id="line2d_1">
      <path clip-path="url(#p8ce9dc0d9c)" d="M 82.285852 273.312 
L 82.285852 7.2 
" style="fill:none;stroke:#cccccc;stroke-linecap:round;stroke-width:0.8;"/>
     </g>
     <g id="text_1">
      <!-- 0 -->
      <defs>
       <path d="M 31.78125 66.40625 
Q 24.171875 66.40625 20.328125 58.90625 
Q 16.5 51.421875 16.5 36.375 
Q 16.5 21.390625 20.328125 13.890625 
Q 24.171875 6.390625 31.78125 6.390625 
Q 39.453125 6.390625 43.28125 13.890625 
Q 47.125 21.390625 47.125 36.375 
Q 47.125 51.421875 43.28125 58.90625 
Q 39.453125 66.40625 31.78125 66.40625 
z
M 31.78125 74.21875 
Q 44.046875 74.21875 50.515625 64.515625 
Q 56.984375 54.828125 56.984375 36.375 
Q 56.984375 17.96875 50.515625 8.265625 
Q 44.046875 -1.421875 31.78125 -1.421875 
Q 19.53125 -1.421875 13.0625 8.265625 
Q 6.59375 17.96875 6.59375 36.375 
Q 6.59375 54.828125 13.0625 64.515625 
Q 19.53125 74.21875 31.78125 74.21875 
z
" id="DejaVuSans-48"/>
      </defs>
      <g style="fill:#262626;" transform="translate(79.104602 287.910437)scale(0.1 -0.1)">
       <use xlink:href="#DejaVuSans-48"/>
      </g>
     </g>
    </g>
    <g id="xtick_2">
     <g id="line2d_2">
      <path clip-path="url(#p8ce9dc0d9c)" d="M 122.969379 273.312 
L 122.969379 7.2 
" style="fill:none;stroke:#cccccc;stroke-linecap:round;stroke-width:0.8;"/>
     </g>
     <g id="text_2">
      <!-- 5 -->
      <defs>
       <path d="M 10.796875 72.90625 
L 49.515625 72.90625 
L 49.515625 64.59375 
L 19.828125 64.59375 
L 19.828125 46.734375 
Q 21.96875 47.46875 24.109375 47.828125 
Q 26.265625 48.1875 28.421875 48.1875 
Q 40.625 48.1875 47.75 41.5 
Q 54.890625 34.8125 54.890625 23.390625 
Q 54.890625 11.625 47.5625 5.09375 
Q 40.234375 -1.421875 26.90625 -1.421875 
Q 22.3125 -1.421875 17.546875 -0.640625 
Q 12.796875 0.140625 7.71875 1.703125 
L 7.71875 11.625 
Q 12.109375 9.234375 16.796875 8.0625 
Q 21.484375 6.890625 26.703125 6.890625 
Q 35.15625 6.890625 40.078125 11.328125 
Q 45.015625 15.765625 45.015625 23.390625 
Q 45.015625 31 40.078125 35.4375 
Q 35.15625 39.890625 26.703125 39.890625 
Q 22.75 39.890625 18.8125 39.015625 
Q 14.890625 38.140625 10.796875 36.28125 
z
" id="DejaVuSans-53"/>
      </defs>
      <g style="fill:#262626;" transform="translate(119.788129 287.910437)scale(0.1 -0.1)">
       <use xlink:href="#DejaVuSans-53"/>
      </g>
     </g>
    </g>
    <g id="xtick_3">
     <g id="line2d_3">
      <path clip-path="url(#p8ce9dc0d9c)" d="M 163.652906 273.312 
L 163.652906 7.2 
" style="fill:none;stroke:#cccccc;stroke-linecap:round;stroke-width:0.8;"/>
     </g>
     <g id="text_3">
      <!-- 10 -->
      <defs>
       <path d="M 12.40625 8.296875 
L 28.515625 8.296875 
L 28.515625 63.921875 
L 10.984375 60.40625 
L 10.984375 69.390625 
L 28.421875 72.90625 
L 38.28125 72.90625 
L 38.28125 8.296875 
L 54.390625 8.296875 
L 54.390625 0 
L 12.40625 0 
z
" id="DejaVuSans-49"/>
      </defs>
      <g style="fill:#262626;" transform="translate(157.290406 287.910437)scale(0.1 -0.1)">
       <use xlink:href="#DejaVuSans-49"/>
       <use x="63.623047" xlink:href="#DejaVuSans-48"/>
      </g>
     </g>
    </g>
    <g id="xtick_4">
     <g id="line2d_4">
      <path clip-path="url(#p8ce9dc0d9c)" d="M 204.336433 273.312 
L 204.336433 7.2 
" style="fill:none;stroke:#cccccc;stroke-linecap:round;stroke-width:0.8;"/>
     </g>
     <g id="text_4">
      <!-- 15 -->
      <g style="fill:#262626;" transform="translate(197.973933 287.910437)scale(0.1 -0.1)">
       <use xlink:href="#DejaVuSans-49"/>
       <use x="63.623047" xlink:href="#DejaVuSans-53"/>
      </g>
     </g>
    </g>
    <g id="xtick_5">
     <g id="line2d_5">
      <path clip-path="url(#p8ce9dc0d9c)" d="M 245.01996 273.312 
L 245.01996 7.2 
" style="fill:none;stroke:#cccccc;stroke-linecap:round;stroke-width:0.8;"/>
     </g>
     <g id="text_5">
      <!-- 20 -->
      <defs>
       <path d="M 19.1875 8.296875 
L 53.609375 8.296875 
L 53.609375 0 
L 7.328125 0 
L 7.328125 8.296875 
Q 12.9375 14.109375 22.625 23.890625 
Q 32.328125 33.6875 34.8125 36.53125 
Q 39.546875 41.84375 41.421875 45.53125 
Q 43.3125 49.21875 43.3125 52.78125 
Q 43.3125 58.59375 39.234375 62.25 
Q 35.15625 65.921875 28.609375 65.921875 
Q 23.96875 65.921875 18.8125 64.3125 
Q 13.671875 62.703125 7.8125 59.421875 
L 7.8125 69.390625 
Q 13.765625 71.78125 18.9375 73 
Q 24.125 74.21875 28.421875 74.21875 
Q 39.75 74.21875 46.484375 68.546875 
Q 53.21875 62.890625 53.21875 53.421875 
Q 53.21875 48.921875 51.53125 44.890625 
Q 49.859375 40.875 45.40625 35.40625 
Q 44.1875 33.984375 37.640625 27.21875 
Q 31.109375 20.453125 19.1875 8.296875 
z
" id="DejaVuSans-50"/>
      </defs>
      <g style="fill:#262626;" transform="translate(238.65746 287.910437)scale(0.1 -0.1)">
       <use xlink:href="#DejaVuSans-50"/>
       <use x="63.623047" xlink:href="#DejaVuSans-48"/>
      </g>
     </g>
    </g>
    <g id="xtick_6">
     <g id="line2d_6">
      <path clip-path="url(#p8ce9dc0d9c)" d="M 285.703487 273.312 
L 285.703487 7.2 
" style="fill:none;stroke:#cccccc;stroke-linecap:round;stroke-width:0.8;"/>
     </g>
     <g id="text_6">
      <!-- 25 -->
      <g style="fill:#262626;" transform="translate(279.340987 287.910437)scale(0.1 -0.1)">
       <use xlink:href="#DejaVuSans-50"/>
       <use x="63.623047" xlink:href="#DejaVuSans-53"/>
      </g>
     </g>
    </g>
    <g id="xtick_7">
     <g id="line2d_7">
      <path clip-path="url(#p8ce9dc0d9c)" d="M 326.387014 273.312 
L 326.387014 7.2 
" style="fill:none;stroke:#cccccc;stroke-linecap:round;stroke-width:0.8;"/>
     </g>
     <g id="text_7">
      <!-- 30 -->
      <defs>
       <path d="M 40.578125 39.3125 
Q 47.65625 37.796875 51.625 33 
Q 55.609375 28.21875 55.609375 21.1875 
Q 55.609375 10.40625 48.1875 4.484375 
Q 40.765625 -1.421875 27.09375 -1.421875 
Q 22.515625 -1.421875 17.65625 -0.515625 
Q 12.796875 0.390625 7.625 2.203125 
L 7.625 11.71875 
Q 11.71875 9.328125 16.59375 8.109375 
Q 21.484375 6.890625 26.8125 6.890625 
Q 36.078125 6.890625 40.9375 10.546875 
Q 45.796875 14.203125 45.796875 21.1875 
Q 45.796875 27.640625 41.28125 31.265625 
Q 36.765625 34.90625 28.71875 34.90625 
L 20.21875 34.90625 
L 20.21875 43.015625 
L 29.109375 43.015625 
Q 36.375 43.015625 40.234375 45.921875 
Q 44.09375 48.828125 44.09375 54.296875 
Q 44.09375 59.90625 40.109375 62.90625 
Q 36.140625 65.921875 28.71875 65.921875 
Q 24.65625 65.921875 20.015625 65.03125 
Q 15.375 64.15625 9.8125 62.3125 
L 9.8125 71.09375 
Q 15.4375 72.65625 20.34375 73.4375 
Q 25.25 74.21875 29.59375 74.21875 
Q 40.828125 74.21875 47.359375 69.109375 
Q 53.90625 64.015625 53.90625 55.328125 
Q 53.90625 49.265625 50.4375 45.09375 
Q 46.96875 40.921875 40.578125 39.3125 
z
" id="DejaVuSans-51"/>
      </defs>
      <g style="fill:#262626;" transform="translate(320.024514 287.910437)scale(0.1 -0.1)">
       <use xlink:href="#DejaVuSans-51"/>
       <use x="63.623047" xlink:href="#DejaVuSans-48"/>
      </g>
     </g>
    </g>
    <g id="xtick_8">
     <g id="line2d_8">
      <path clip-path="url(#p8ce9dc0d9c)" d="M 367.070541 273.312 
L 367.070541 7.2 
" style="fill:none;stroke:#cccccc;stroke-linecap:round;stroke-width:0.8;"/>
     </g>
     <g id="text_8">
      <!-- 35 -->
      <g style="fill:#262626;" transform="translate(360.708041 287.910437)scale(0.1 -0.1)">
       <use xlink:href="#DejaVuSans-51"/>
       <use x="63.623047" xlink:href="#DejaVuSans-53"/>
      </g>
     </g>
    </g>
    <g id="xtick_9">
     <g id="line2d_9">
      <path clip-path="url(#p8ce9dc0d9c)" d="M 407.754068 273.312 
L 407.754068 7.2 
" style="fill:none;stroke:#cccccc;stroke-linecap:round;stroke-width:0.8;"/>
     </g>
     <g id="text_9">
      <!-- 40 -->
      <defs>
       <path d="M 37.796875 64.3125 
L 12.890625 25.390625 
L 37.796875 25.390625 
z
M 35.203125 72.90625 
L 47.609375 72.90625 
L 47.609375 25.390625 
L 58.015625 25.390625 
L 58.015625 17.1875 
L 47.609375 17.1875 
L 47.609375 0 
L 37.796875 0 
L 37.796875 17.1875 
L 4.890625 17.1875 
L 4.890625 26.703125 
z
" id="DejaVuSans-52"/>
      </defs>
      <g style="fill:#262626;" transform="translate(401.391568 287.910437)scale(0.1 -0.1)">
       <use xlink:href="#DejaVuSans-52"/>
       <use x="63.623047" xlink:href="#DejaVuSans-48"/>
      </g>
     </g>
    </g>
    <g id="text_10">
     <!-- time (days) -->
     <defs>
      <path d="M 18.3125 70.21875 
L 18.3125 54.6875 
L 36.8125 54.6875 
L 36.8125 47.703125 
L 18.3125 47.703125 
L 18.3125 18.015625 
Q 18.3125 11.328125 20.140625 9.421875 
Q 21.96875 7.515625 27.59375 7.515625 
L 36.8125 7.515625 
L 36.8125 0 
L 27.59375 0 
Q 17.1875 0 13.234375 3.875 
Q 9.28125 7.765625 9.28125 18.015625 
L 9.28125 47.703125 
L 2.6875 47.703125 
L 2.6875 54.6875 
L 9.28125 54.6875 
L 9.28125 70.21875 
z
" id="DejaVuSans-116"/>
      <path d="M 9.421875 54.6875 
L 18.40625 54.6875 
L 18.40625 0 
L 9.421875 0 
z
M 9.421875 75.984375 
L 18.40625 75.984375 
L 18.40625 64.59375 
L 9.421875 64.59375 
z
" id="DejaVuSans-105"/>
      <path d="M 52 44.1875 
Q 55.375 50.25 60.0625 53.125 
Q 64.75 56 71.09375 56 
Q 79.640625 56 84.28125 50.015625 
Q 88.921875 44.046875 88.921875 33.015625 
L 88.921875 0 
L 79.890625 0 
L 79.890625 32.71875 
Q 79.890625 40.578125 77.09375 44.375 
Q 74.3125 48.1875 68.609375 48.1875 
Q 61.625 48.1875 57.5625 43.546875 
Q 53.515625 38.921875 53.515625 30.90625 
L 53.515625 0 
L 44.484375 0 
L 44.484375 32.71875 
Q 44.484375 40.625 41.703125 44.40625 
Q 38.921875 48.1875 33.109375 48.1875 
Q 26.21875 48.1875 22.15625 43.53125 
Q 18.109375 38.875 18.109375 30.90625 
L 18.109375 0 
L 9.078125 0 
L 9.078125 54.6875 
L 18.109375 54.6875 
L 18.109375 46.1875 
Q 21.1875 51.21875 25.484375 53.609375 
Q 29.78125 56 35.6875 56 
Q 41.65625 56 45.828125 52.96875 
Q 50 49.953125 52 44.1875 
z
" id="DejaVuSans-109"/>
      <path d="M 56.203125 29.59375 
L 56.203125 25.203125 
L 14.890625 25.203125 
Q 15.484375 15.921875 20.484375 11.0625 
Q 25.484375 6.203125 34.421875 6.203125 
Q 39.59375 6.203125 44.453125 7.46875 
Q 49.3125 8.734375 54.109375 11.28125 
L 54.109375 2.78125 
Q 49.265625 0.734375 44.1875 -0.34375 
Q 39.109375 -1.421875 33.890625 -1.421875 
Q 20.796875 -1.421875 13.15625 6.1875 
Q 5.515625 13.8125 5.515625 26.8125 
Q 5.515625 40.234375 12.765625 48.109375 
Q 20.015625 56 32.328125 56 
Q 43.359375 56 49.78125 48.890625 
Q 56.203125 41.796875 56.203125 29.59375 
z
M 47.21875 32.234375 
Q 47.125 39.59375 43.09375 43.984375 
Q 39.0625 48.390625 32.421875 48.390625 
Q 24.90625 48.390625 20.390625 44.140625 
Q 15.875 39.890625 15.1875 32.171875 
z
" id="DejaVuSans-101"/>
      <path id="DejaVuSans-32"/>
      <path d="M 31 75.875 
Q 24.46875 64.65625 21.28125 53.65625 
Q 18.109375 42.671875 18.109375 31.390625 
Q 18.109375 20.125 21.3125 9.0625 
Q 24.515625 -2 31 -13.1875 
L 23.1875 -13.1875 
Q 15.875 -1.703125 12.234375 9.375 
Q 8.59375 20.453125 8.59375 31.390625 
Q 8.59375 42.28125 12.203125 53.3125 
Q 15.828125 64.359375 23.1875 75.875 
z
" id="DejaVuSans-40"/>
      <path d="M 45.40625 46.390625 
L 45.40625 75.984375 
L 54.390625 75.984375 
L 54.390625 0 
L 45.40625 0 
L 45.40625 8.203125 
Q 42.578125 3.328125 38.25 0.953125 
Q 33.9375 -1.421875 27.875 -1.421875 
Q 17.96875 -1.421875 11.734375 6.484375 
Q 5.515625 14.40625 5.515625 27.296875 
Q 5.515625 40.1875 11.734375 48.09375 
Q 17.96875 56 27.875 56 
Q 33.9375 56 38.25 53.625 
Q 42.578125 51.265625 45.40625 46.390625 
z
M 14.796875 27.296875 
Q 14.796875 17.390625 18.875 11.75 
Q 22.953125 6.109375 30.078125 6.109375 
Q 37.203125 6.109375 41.296875 11.75 
Q 45.40625 17.390625 45.40625 27.296875 
Q 45.40625 37.203125 41.296875 42.84375 
Q 37.203125 48.484375 30.078125 48.484375 
Q 22.953125 48.484375 18.875 42.84375 
Q 14.796875 37.203125 14.796875 27.296875 
z
" id="DejaVuSans-100"/>
      <path d="M 34.28125 27.484375 
Q 23.390625 27.484375 19.1875 25 
Q 14.984375 22.515625 14.984375 16.5 
Q 14.984375 11.71875 18.140625 8.90625 
Q 21.296875 6.109375 26.703125 6.109375 
Q 34.1875 6.109375 38.703125 11.40625 
Q 43.21875 16.703125 43.21875 25.484375 
L 43.21875 27.484375 
z
M 52.203125 31.203125 
L 52.203125 0 
L 43.21875 0 
L 43.21875 8.296875 
Q 40.140625 3.328125 35.546875 0.953125 
Q 30.953125 -1.421875 24.3125 -1.421875 
Q 15.921875 -1.421875 10.953125 3.296875 
Q 6 8.015625 6 15.921875 
Q 6 25.140625 12.171875 29.828125 
Q 18.359375 34.515625 30.609375 34.515625 
L 43.21875 34.515625 
L 43.21875 35.40625 
Q 43.21875 41.609375 39.140625 45 
Q 35.0625 48.390625 27.6875 48.390625 
Q 23 48.390625 18.546875 47.265625 
Q 14.109375 46.140625 10.015625 43.890625 
L 10.015625 52.203125 
Q 14.9375 54.109375 19.578125 55.046875 
Q 24.21875 56 28.609375 56 
Q 40.484375 56 46.34375 49.84375 
Q 52.203125 43.703125 52.203125 31.203125 
z
" id="DejaVuSans-97"/>
      <path d="M 32.171875 -5.078125 
Q 28.375 -14.84375 24.75 -17.8125 
Q 21.140625 -20.796875 15.09375 -20.796875 
L 7.90625 -20.796875 
L 7.90625 -13.28125 
L 13.1875 -13.28125 
Q 16.890625 -13.28125 18.9375 -11.515625 
Q 21 -9.765625 23.484375 -3.21875 
L 25.09375 0.875 
L 2.984375 54.6875 
L 12.5 54.6875 
L 29.59375 11.921875 
L 46.6875 54.6875 
L 56.203125 54.6875 
z
" id="DejaVuSans-121"/>
      <path d="M 44.28125 53.078125 
L 44.28125 44.578125 
Q 40.484375 46.53125 36.375 47.5 
Q 32.28125 48.484375 27.875 48.484375 
Q 21.1875 48.484375 17.84375 46.4375 
Q 14.5 44.390625 14.5 40.28125 
Q 14.5 37.15625 16.890625 35.375 
Q 19.28125 33.59375 26.515625 31.984375 
L 29.59375 31.296875 
Q 39.15625 29.25 43.1875 25.515625 
Q 47.21875 21.78125 47.21875 15.09375 
Q 47.21875 7.46875 41.1875 3.015625 
Q 35.15625 -1.421875 24.609375 -1.421875 
Q 20.21875 -1.421875 15.453125 -0.5625 
Q 10.6875 0.296875 5.421875 2 
L 5.421875 11.28125 
Q 10.40625 8.6875 15.234375 7.390625 
Q 20.0625 6.109375 24.8125 6.109375 
Q 31.15625 6.109375 34.5625 8.28125 
Q 37.984375 10.453125 37.984375 14.40625 
Q 37.984375 18.0625 35.515625 20.015625 
Q 33.0625 21.96875 24.703125 23.78125 
L 21.578125 24.515625 
Q 13.234375 26.265625 9.515625 29.90625 
Q 5.8125 33.546875 5.8125 39.890625 
Q 5.8125 47.609375 11.28125 51.796875 
Q 16.75 56 26.8125 56 
Q 31.78125 56 36.171875 55.265625 
Q 40.578125 54.546875 44.28125 53.078125 
z
" id="DejaVuSans-115"/>
      <path d="M 8.015625 75.875 
L 15.828125 75.875 
Q 23.140625 64.359375 26.78125 53.3125 
Q 30.421875 42.28125 30.421875 31.390625 
Q 30.421875 20.453125 26.78125 9.375 
Q 23.140625 -1.703125 15.828125 -13.1875 
L 8.015625 -13.1875 
Q 14.5 -2 17.703125 9.0625 
Q 20.90625 20.125 20.90625 31.390625 
Q 20.90625 42.671875 17.703125 53.65625 
Q 14.5 64.65625 8.015625 75.875 
z
" id="DejaVuSans-41"/>
     </defs>
     <g style="fill:#262626;" transform="translate(216.024063 301.588562)scale(0.1 -0.1)">
      <use xlink:href="#DejaVuSans-116"/>
      <use x="39.208984" xlink:href="#DejaVuSans-105"/>
      <use x="66.992188" xlink:href="#DejaVuSans-109"/>
      <use x="164.404297" xlink:href="#DejaVuSans-101"/>
      <use x="225.927734" xlink:href="#DejaVuSans-32"/>
      <use x="257.714844" xlink:href="#DejaVuSans-40"/>
      <use x="296.728516" xlink:href="#DejaVuSans-100"/>
      <use x="360.205078" xlink:href="#DejaVuSans-97"/>
      <use x="421.484375" xlink:href="#DejaVuSans-121"/>
      <use x="480.664062" xlink:href="#DejaVuSans-115"/>
      <use x="532.763672" xlink:href="#DejaVuSans-41"/>
     </g>
    </g>
   </g>
   <g id="matplotlib.axis_2">
    <g id="ytick_1">
     <g id="line2d_10">
      <path clip-path="url(#p8ce9dc0d9c)" d="M 66.053125 261.216 
L 423.173125 261.216 
" style="fill:none;stroke:#cccccc;stroke-linecap:round;stroke-width:0.8;"/>
     </g>
     <g id="text_11">
      <!-- 0 -->
      <g style="fill:#262626;" transform="translate(52.690625 265.015219)scale(0.1 -0.1)">
       <use xlink:href="#DejaVuSans-48"/>
      </g>
     </g>
    </g>
    <g id="ytick_2">
     <g id="line2d_11">
      <path clip-path="url(#p8ce9dc0d9c)" d="M 66.053125 215.010232 
L 423.173125 215.010232 
" style="fill:none;stroke:#cccccc;stroke-linecap:round;stroke-width:0.8;"/>
     </g>
     <g id="text_12">
      <!-- 100000 -->
      <g style="fill:#262626;" transform="translate(20.878125 218.809451)scale(0.1 -0.1)">
       <use xlink:href="#DejaVuSans-49"/>
       <use x="63.623047" xlink:href="#DejaVuSans-48"/>
       <use x="127.246094" xlink:href="#DejaVuSans-48"/>
       <use x="190.869141" xlink:href="#DejaVuSans-48"/>
       <use x="254.492188" xlink:href="#DejaVuSans-48"/>
       <use x="318.115234" xlink:href="#DejaVuSans-48"/>
      </g>
     </g>
    </g>
    <g id="ytick_3">
     <g id="line2d_12">
      <path clip-path="url(#p8ce9dc0d9c)" d="M 66.053125 168.804465 
L 423.173125 168.804465 
" style="fill:none;stroke:#cccccc;stroke-linecap:round;stroke-width:0.8;"/>
     </g>
     <g id="text_13">
      <!-- 200000 -->
      <g style="fill:#262626;" transform="translate(20.878125 172.603683)scale(0.1 -0.1)">
       <use xlink:href="#DejaVuSans-50"/>
       <use x="63.623047" xlink:href="#DejaVuSans-48"/>
       <use x="127.246094" xlink:href="#DejaVuSans-48"/>
       <use x="190.869141" xlink:href="#DejaVuSans-48"/>
       <use x="254.492188" xlink:href="#DejaVuSans-48"/>
       <use x="318.115234" xlink:href="#DejaVuSans-48"/>
      </g>
     </g>
    </g>
    <g id="ytick_4">
     <g id="line2d_13">
      <path clip-path="url(#p8ce9dc0d9c)" d="M 66.053125 122.598697 
L 423.173125 122.598697 
" style="fill:none;stroke:#cccccc;stroke-linecap:round;stroke-width:0.8;"/>
     </g>
     <g id="text_14">
      <!-- 300000 -->
      <g style="fill:#262626;" transform="translate(20.878125 126.397916)scale(0.1 -0.1)">
       <use xlink:href="#DejaVuSans-51"/>
       <use x="63.623047" xlink:href="#DejaVuSans-48"/>
       <use x="127.246094" xlink:href="#DejaVuSans-48"/>
       <use x="190.869141" xlink:href="#DejaVuSans-48"/>
       <use x="254.492188" xlink:href="#DejaVuSans-48"/>
       <use x="318.115234" xlink:href="#DejaVuSans-48"/>
      </g>
     </g>
    </g>
    <g id="ytick_5">
     <g id="line2d_14">
      <path clip-path="url(#p8ce9dc0d9c)" d="M 66.053125 76.392929 
L 423.173125 76.392929 
" style="fill:none;stroke:#cccccc;stroke-linecap:round;stroke-width:0.8;"/>
     </g>
     <g id="text_15">
      <!-- 400000 -->
      <g style="fill:#262626;" transform="translate(20.878125 80.192148)scale(0.1 -0.1)">
       <use xlink:href="#DejaVuSans-52"/>
       <use x="63.623047" xlink:href="#DejaVuSans-48"/>
       <use x="127.246094" xlink:href="#DejaVuSans-48"/>
       <use x="190.869141" xlink:href="#DejaVuSans-48"/>
       <use x="254.492188" xlink:href="#DejaVuSans-48"/>
       <use x="318.115234" xlink:href="#DejaVuSans-48"/>
      </g>
     </g>
    </g>
    <g id="ytick_6">
     <g id="line2d_15">
      <path clip-path="url(#p8ce9dc0d9c)" d="M 66.053125 30.187162 
L 423.173125 30.187162 
" style="fill:none;stroke:#cccccc;stroke-linecap:round;stroke-width:0.8;"/>
     </g>
     <g id="text_16">
      <!-- 500000 -->
      <g style="fill:#262626;" transform="translate(20.878125 33.98638)scale(0.1 -0.1)">
       <use xlink:href="#DejaVuSans-53"/>
       <use x="63.623047" xlink:href="#DejaVuSans-48"/>
       <use x="127.246094" xlink:href="#DejaVuSans-48"/>
       <use x="190.869141" xlink:href="#DejaVuSans-48"/>
       <use x="254.492188" xlink:href="#DejaVuSans-48"/>
       <use x="318.115234" xlink:href="#DejaVuSans-48"/>
      </g>
     </g>
    </g>
    <g id="text_17">
     <!-- cells number -->
     <defs>
      <path d="M 48.78125 52.59375 
L 48.78125 44.1875 
Q 44.96875 46.296875 41.140625 47.34375 
Q 37.3125 48.390625 33.40625 48.390625 
Q 24.65625 48.390625 19.8125 42.84375 
Q 14.984375 37.3125 14.984375 27.296875 
Q 14.984375 17.28125 19.8125 11.734375 
Q 24.65625 6.203125 33.40625 6.203125 
Q 37.3125 6.203125 41.140625 7.25 
Q 44.96875 8.296875 48.78125 10.40625 
L 48.78125 2.09375 
Q 45.015625 0.34375 40.984375 -0.53125 
Q 36.96875 -1.421875 32.421875 -1.421875 
Q 20.0625 -1.421875 12.78125 6.34375 
Q 5.515625 14.109375 5.515625 27.296875 
Q 5.515625 40.671875 12.859375 48.328125 
Q 20.21875 56 33.015625 56 
Q 37.15625 56 41.109375 55.140625 
Q 45.0625 54.296875 48.78125 52.59375 
z
" id="DejaVuSans-99"/>
      <path d="M 9.421875 75.984375 
L 18.40625 75.984375 
L 18.40625 0 
L 9.421875 0 
z
" id="DejaVuSans-108"/>
      <path d="M 54.890625 33.015625 
L 54.890625 0 
L 45.90625 0 
L 45.90625 32.71875 
Q 45.90625 40.484375 42.875 44.328125 
Q 39.84375 48.1875 33.796875 48.1875 
Q 26.515625 48.1875 22.3125 43.546875 
Q 18.109375 38.921875 18.109375 30.90625 
L 18.109375 0 
L 9.078125 0 
L 9.078125 54.6875 
L 18.109375 54.6875 
L 18.109375 46.1875 
Q 21.34375 51.125 25.703125 53.5625 
Q 30.078125 56 35.796875 56 
Q 45.21875 56 50.046875 50.171875 
Q 54.890625 44.34375 54.890625 33.015625 
z
" id="DejaVuSans-110"/>
      <path d="M 8.5 21.578125 
L 8.5 54.6875 
L 17.484375 54.6875 
L 17.484375 21.921875 
Q 17.484375 14.15625 20.5 10.265625 
Q 23.53125 6.390625 29.59375 6.390625 
Q 36.859375 6.390625 41.078125 11.03125 
Q 45.3125 15.671875 45.3125 23.6875 
L 45.3125 54.6875 
L 54.296875 54.6875 
L 54.296875 0 
L 45.3125 0 
L 45.3125 8.40625 
Q 42.046875 3.421875 37.71875 1 
Q 33.40625 -1.421875 27.6875 -1.421875 
Q 18.265625 -1.421875 13.375 4.4375 
Q 8.5 10.296875 8.5 21.578125 
z
M 31.109375 56 
z
" id="DejaVuSans-117"/>
      <path d="M 48.6875 27.296875 
Q 48.6875 37.203125 44.609375 42.84375 
Q 40.53125 48.484375 33.40625 48.484375 
Q 26.265625 48.484375 22.1875 42.84375 
Q 18.109375 37.203125 18.109375 27.296875 
Q 18.109375 17.390625 22.1875 11.75 
Q 26.265625 6.109375 33.40625 6.109375 
Q 40.53125 6.109375 44.609375 11.75 
Q 48.6875 17.390625 48.6875 27.296875 
z
M 18.109375 46.390625 
Q 20.953125 51.265625 25.265625 53.625 
Q 29.59375 56 35.59375 56 
Q 45.5625 56 51.78125 48.09375 
Q 58.015625 40.1875 58.015625 27.296875 
Q 58.015625 14.40625 51.78125 6.484375 
Q 45.5625 -1.421875 35.59375 -1.421875 
Q 29.59375 -1.421875 25.265625 0.953125 
Q 20.953125 3.328125 18.109375 8.203125 
L 18.109375 0 
L 9.078125 0 
L 9.078125 75.984375 
L 18.109375 75.984375 
z
" id="DejaVuSans-98"/>
      <path d="M 41.109375 46.296875 
Q 39.59375 47.171875 37.8125 47.578125 
Q 36.03125 48 33.890625 48 
Q 26.265625 48 22.1875 43.046875 
Q 18.109375 38.09375 18.109375 28.8125 
L 18.109375 0 
L 9.078125 0 
L 9.078125 54.6875 
L 18.109375 54.6875 
L 18.109375 46.1875 
Q 20.953125 51.171875 25.484375 53.578125 
Q 30.03125 56 36.53125 56 
Q 37.453125 56 38.578125 55.875 
Q 39.703125 55.765625 41.0625 55.515625 
z
" id="DejaVuSans-114"/>
     </defs>
     <g style="fill:#262626;" transform="translate(14.798438 172.567719)rotate(-90)scale(0.1 -0.1)">
      <use xlink:href="#DejaVuSans-99"/>
      <use x="54.980469" xlink:href="#DejaVuSans-101"/>
      <use x="116.503906" xlink:href="#DejaVuSans-108"/>
      <use x="144.287109" xlink:href="#DejaVuSans-108"/>
      <use x="172.070312" xlink:href="#DejaVuSans-115"/>
      <use x="224.169922" xlink:href="#DejaVuSans-32"/>
      <use x="255.957031" xlink:href="#DejaVuSans-110"/>
      <use x="319.335938" xlink:href="#DejaVuSans-117"/>
      <use x="382.714844" xlink:href="#DejaVuSans-109"/>
      <use x="480.126953" xlink:href="#DejaVuSans-98"/>
      <use x="543.603516" xlink:href="#DejaVuSans-101"/>
      <use x="605.126953" xlink:href="#DejaVuSans-114"/>
     </g>
    </g>
   </g>
   <g id="line2d_16">
    <path clip-path="url(#p8ce9dc0d9c)" d="M 82.285852 237.336397 
L 83.099523 190.616359 
L 83.913193 152.315936 
L 84.726864 122.293739 
L 85.540534 98.064358 
L 86.354205 78.839525 
L 87.167876 63.335179 
L 87.981546 51.250061 
L 88.795217 41.98026 
L 89.608887 34.603971 
L 90.422558 29.069444 
L 91.236228 25.411795 
L 92.049899 22.959193 
L 92.863569 21.145617 
L 93.67724 20.143876 
L 94.49091 20.256618 
L 95.304581 20.62765 
L 96.931922 23.227649 
L 98.559263 26.170956 
L 101.813945 35.246231 
L 103.441286 41.635565 
L 106.695968 55.196495 
L 109.950651 69.133541 
L 110.764321 72.378572 
L 116.460015 100.07893 
L 118.087356 107.289802 
L 119.714697 114.230832 
L 120.528368 117.803 
L 127.851403 154.919169 
L 129.478744 164.029561 
L 136.801778 200.554296 
L 138.42912 206.907589 
L 139.24279 210.836927 
L 140.870131 219.386843 
L 142.497472 226.439229 
L 143.311143 229.28689 
L 144.938484 233.422307 
L 146.565825 237.425112 
L 148.193166 241.800798 
L 151.447848 249.756045 
L 153.075189 253.302338 
L 154.70253 255.882468 
L 155.516201 256.856948 
L 157.143542 258.277775 
L 158.770883 259.236083 
L 160.398224 259.886198 
L 163.652906 260.627339 
L 166.093918 260.885167 
L 170.975941 261.126823 
L 180.739988 261.207683 
L 215.727821 261.216 
L 406.940398 261.216 
L 406.940398 261.216 
" style="fill:none;stroke:#000080;stroke-linecap:round;stroke-width:1.5;"/>
   </g>
   <g id="line2d_17">
    <path clip-path="url(#p8ce9dc0d9c)" d="M 82.285852 237.440822 
L 83.099523 190.275361 
L 83.913193 151.850644 
L 84.726864 121.831681 
L 85.540534 97.600452 
L 86.354205 78.408425 
L 87.167876 62.934113 
L 87.981546 51.052762 
L 88.795217 41.475693 
L 89.608887 34.345219 
L 90.422558 28.917889 
L 91.236228 24.800493 
L 92.049899 22.094683 
L 92.863569 20.694187 
L 93.67724 20.129552 
L 94.49091 19.905916 
L 95.304581 20.559728 
L 96.118251 21.53929 
L 96.931922 22.861699 
L 98.559263 26.39413 
L 100.186604 31.059988 
L 102.627616 40.131105 
L 104.254957 46.083794 
L 105.882298 52.604814 
L 107.509639 59.196067 
L 108.32331 62.299246 
L 112.391662 80.666039 
L 114.019003 87.037352 
L 118.087356 105.953531 
L 123.78305 132.710367 
L 124.59672 136.314879 
L 130.292414 165.340418 
L 131.919755 172.520332 
L 132.733426 175.836058 
L 134.360767 183.254394 
L 139.24279 202.931583 
L 141.683802 210.854948 
L 142.497472 212.857044 
L 143.311143 214.4821 
L 144.124813 215.219544 
L 144.938484 216.207424 
L 145.752154 216.852918 
L 146.565825 218.113412 
L 147.379495 219.706587 
L 149.006837 221.471185 
L 149.820507 221.97529 
L 150.634178 222.823628 
L 153.075189 227.255685 
L 155.516201 233.760533 
L 157.143542 238.729963 
L 157.957212 240.721432 
L 158.770883 242.184306 
L 160.398224 243.884217 
L 162.025565 245.202005 
L 162.839236 246.195429 
L 166.907588 253.478844 
L 167.721259 254.442234 
L 169.3486 255.930522 
L 170.975941 256.884671 
L 171.789612 257.171609 
L 173.416953 257.198871 
L 174.230623 257.099066 
L 175.044294 257.206263 
L 178.298976 259.103934 
L 179.926317 259.809496 
L 182.367329 260.458225 
L 185.622011 260.867609 
L 189.690364 261.093093 
L 200.268081 261.207221 
L 270.243747 261.216 
L 406.940398 261.216 
L 406.940398 261.216 
" style="fill:none;stroke:#0000f1;stroke-linecap:round;stroke-width:1.5;"/>
   </g>
   <g id="line2d_18">
    <path clip-path="url(#p8ce9dc0d9c)" d="M 82.285852 237.378907 
L 83.099523 190.740653 
L 83.913193 152.457326 
L 84.726864 122.187466 
L 85.540534 98.388723 
L 86.354205 78.631599 
L 87.167876 63.451618 
L 87.981546 51.229268 
L 88.795217 41.961777 
L 89.608887 34.271289 
L 90.422558 29.111953 
L 91.236228 25.231593 
L 92.049899 22.358518 
L 92.863569 20.472861 
L 93.67724 19.629144 
L 94.49091 19.397191 
L 95.304581 19.819511 
L 96.931922 22.218977 
L 97.745593 24.012223 
L 99.372934 28.49372 
L 100.186604 30.958336 
L 104.254957 45.423051 
L 106.695968 55.159531 
L 107.509639 58.317695 
L 109.13698 65.464803 
L 111.577992 76.338406 
L 117.273685 103.52357 
L 118.901027 111.188645 
L 121.342038 123.104188 
L 127.037732 152.684658 
L 128.665073 159.993949 
L 131.919755 175.644304 
L 134.360767 188.176233 
L 135.174437 191.50351 
L 136.801778 196.669777 
L 137.615449 198.9833 
L 142.497472 209.171671 
L 143.311143 210.602664 
L 145.752154 217.494716 
L 149.820507 230.48824 
L 151.447848 234.229059 
L 152.261519 235.35648 
L 153.075189 235.9627 
L 153.88886 236.373469 
L 154.70253 236.966751 
L 155.516201 237.712974 
L 156.329871 238.729501 
L 157.143542 240.007553 
L 158.770883 243.863886 
L 159.584554 245.282403 
L 160.398224 245.992586 
L 161.211895 246.072522 
L 162.839236 245.963476 
L 163.652906 246.352991 
L 164.466577 246.944887 
L 165.280247 247.185619 
L 167.721259 244.561131 
L 168.53493 243.785336 
L 170.162271 241.865487 
L 170.975941 241.353989 
L 172.603282 239.451697 
L 173.416953 238.709171 
L 175.044294 237.968492 
L 176.671635 237.480559 
L 178.298976 236.983847 
L 179.926317 236.779156 
L 180.739988 236.489908 
L 181.553658 236.453867 
L 182.367329 236.066201 
L 183.180999 236.02785 
L 183.99467 236.290761 
L 185.622011 237.733767 
L 188.063022 238.639862 
L 188.876693 239.015977 
L 189.690364 239.028914 
L 190.504034 238.692536 
L 191.317705 238.196749 
L 192.945046 236.886815 
L 193.758716 236.462646 
L 197.013398 236.666876 
L 197.827069 236.780542 
L 199.45441 237.838192 
L 200.268081 238.647717 
L 201.081751 239.673947 
L 202.709092 242.110839 
L 204.336433 243.376877 
L 206.777445 244.767209 
L 207.591115 245.392373 
L 208.404786 245.861361 
L 210.845798 245.955621 
L 212.473139 245.064312 
L 214.10048 243.970621 
L 216.541491 243.115815 
L 218.168832 243.478992 
L 219.796174 244.369377 
L 221.423515 245.329071 
L 223.050856 246.462498 
L 224.678197 247.05347 
L 225.491867 246.967527 
L 226.305538 247.104759 
L 227.119208 247.530314 
L 227.932879 247.658766 
L 228.746549 248.093562 
L 230.373891 249.243161 
L 234.442243 252.200793 
L 236.883255 254.266653 
L 240.137937 257.765815 
L 241.765278 258.884919 
L 243.392619 259.638073 
L 245.01996 260.143564 
L 247.460972 260.63658 
L 250.715654 260.962792 
L 255.597677 261.13283 
L 266.175394 261.211841 
L 406.940398 261.216 
L 406.940398 261.216 
" style="fill:none;stroke:#004cff;stroke-linecap:round;stroke-width:1.5;"/>
   </g>
   <g id="line2d_19">
    <path clip-path="url(#p8ce9dc0d9c)" d="M 82.285852 237.426498 
L 83.099523 190.856167 
L 83.913193 152.540958 
L 84.726864 122.199479 
L 85.540534 98.68906 
L 86.354205 79.229501 
L 87.167876 63.879021 
L 87.981546 51.450132 
L 88.795217 42.109174 
L 89.608887 34.986555 
L 90.422558 29.383181 
L 91.236228 25.217269 
L 92.049899 22.594168 
L 92.863569 20.499198 
L 93.67724 19.645316 
L 94.49091 19.641157 
L 95.304581 20.03252 
L 96.118251 20.940463 
L 96.931922 22.092373 
L 97.745593 23.52429 
L 98.559263 25.59477 
L 102.627616 38.927445 
L 109.950651 68.392863 
L 116.460015 98.659489 
L 117.273685 102.805994 
L 122.155709 124.117018 
L 123.78305 132.087051 
L 125.410391 139.518787 
L 128.665073 155.948634 
L 132.733426 174.81029 
L 138.42912 199.284561 
L 142.497472 219.209875 
L 144.124813 225.756308 
L 146.565825 234.001265 
L 147.379495 236.352214 
L 148.193166 238.308567 
L 150.634178 243.12829 
L 151.447848 244.295448 
L 152.261519 245.791129 
L 153.88886 249.514389 
L 154.70253 250.99436 
L 155.516201 252.20911 
L 157.143542 253.890538 
L 159.584554 256.863417 
L 160.398224 257.663701 
L 162.025565 258.814224 
L 163.652906 259.600184 
L 165.280247 260.149109 
L 167.721259 260.622256 
L 170.975941 260.956786 
L 175.857964 261.141609 
L 188.063022 261.211379 
L 391.480657 261.216 
L 406.940398 261.216 
L 406.940398 261.216 
" style="fill:none;stroke:#00b0ff;stroke-linecap:round;stroke-width:1.5;"/>
   </g>
   <g id="line2d_20">
    <path clip-path="url(#p8ce9dc0d9c)" d="M 82.285852 237.147416 
L 83.099523 190.779004 
L 83.913193 152.517394 
L 84.726864 122.16159 
L 85.540534 98.014456 
L 86.354205 78.795629 
L 87.167876 63.658158 
L 87.981546 51.236661 
L 88.795217 41.880455 
L 89.608887 34.825296 
L 90.422558 29.140139 
L 91.236228 25.175222 
L 92.049899 22.449544 
L 92.863569 20.470551 
L 93.67724 19.889282 
L 95.304581 20.087967 
L 96.931922 22.145048 
L 98.559263 25.84613 
L 100.186604 30.75272 
L 104.254957 46.068546 
L 105.068627 49.695699 
L 108.32331 62.497007 
L 109.950651 69.349784 
L 111.577992 76.442369 
L 116.460015 99.031445 
L 119.714697 113.019317 
L 120.528368 117.080804 
L 121.342038 120.457984 
L 122.969379 128.108735 
L 127.037732 147.111319 
L 128.665073 155.347497 
L 131.106085 167.490835 
L 132.733426 175.995468 
L 134.360767 184.304651 
L 135.988108 194.072551 
L 137.615449 204.101051 
L 138.42912 208.35845 
L 140.056461 215.030563 
L 141.683802 220.539214 
L 144.124813 227.309284 
L 147.379495 238.811747 
L 149.006837 243.859727 
L 150.634178 248.282544 
L 152.261519 251.647248 
L 153.075189 252.900348 
L 153.88886 253.916413 
L 155.516201 255.315061 
L 156.329871 255.784512 
L 157.143542 255.65837 
L 158.770883 253.996349 
L 161.211895 252.522847 
L 163.652906 248.546378 
L 164.466577 246.47867 
L 165.280247 244.028379 
L 166.093918 242.316455 
L 166.907588 240.88731 
L 167.721259 239.764048 
L 168.53493 239.045086 
L 170.162271 238.480914 
L 170.975941 237.755484 
L 171.789612 237.603467 
L 172.603282 238.349228 
L 174.230623 240.149404 
L 175.857964 241.739345 
L 176.671635 242.100674 
L 177.485305 242.24345 
L 179.926317 242.267939 
L 180.739988 242.795609 
L 181.553658 243.158324 
L 182.367329 243.054361 
L 183.180999 242.452762 
L 183.99467 242.0078 
L 184.80834 241.695911 
L 185.622011 241.037941 
L 186.435681 240.728363 
L 188.063022 240.888235 
L 188.876693 240.84896 
L 189.690364 241.212599 
L 190.504034 241.305011 
L 191.317705 241.694063 
L 192.945046 241.701456 
L 194.572387 241.057348 
L 195.386057 240.419246 
L 196.199728 240.273236 
L 197.013398 240.320828 
L 197.827069 240.663212 
L 198.640739 241.332272 
L 200.268081 244.20396 
L 202.709092 249.447391 
L 204.336433 251.981315 
L 206.777445 255.466616 
L 208.404786 257.323164 
L 209.218457 258.022719 
L 210.845798 259.042019 
L 212.473139 259.773918 
L 214.10048 260.247065 
L 216.541491 260.693875 
L 219.796174 260.980813 
L 225.491867 261.165174 
L 236.883255 261.212304 
L 406.940398 261.216 
L 406.940398 261.216 
" style="fill:none;stroke:#29ffce;stroke-linecap:round;stroke-width:1.5;"/>
   </g>
   <g id="line2d_21">
    <path clip-path="url(#p8ce9dc0d9c)" d="M 82.285852 237.242599 
L 83.099523 190.645469 
L 83.913193 152.279896 
L 84.726864 121.880197 
L 85.540534 97.557481 
L 86.354205 78.549814 
L 87.167876 63.127253 
L 87.981546 50.952034 
L 88.795217 41.505264 
L 89.608887 34.5476 
L 90.422558 28.844884 
L 91.236228 24.951124 
L 92.049899 22.125641 
L 93.67724 19.419831 
L 94.49091 19.450327 
L 95.304581 19.915619 
L 96.118251 20.913664 
L 96.931922 22.353436 
L 99.372934 27.909679 
L 100.186604 30.126632 
L 102.627616 39.054972 
L 105.068627 49.0807 
L 105.882298 51.80684 
L 109.13698 65.407508 
L 110.764321 73.17978 
L 115.646344 95.720802 
L 118.087356 107.469542 
L 120.528368 118.234562 
L 121.342038 121.643624 
L 123.78305 133.704715 
L 129.478744 164.899153 
L 133.547096 185.180251 
L 135.988108 197.193288 
L 137.615449 205.566235 
L 140.870131 218.419756 
L 142.497472 224.561427 
L 144.124813 231.120797 
L 145.752154 235.775566 
L 146.565825 237.995291 
L 147.379495 239.797316 
L 149.820507 243.966463 
L 150.634178 245.003782 
L 152.261519 246.119652 
L 153.075189 246.973996 
L 153.88886 248.049204 
L 155.516201 251.828374 
L 156.329871 253.456203 
L 157.957212 255.995672 
L 158.770883 256.953518 
L 160.398224 258.356787 
L 162.025565 259.27813 
L 163.652906 259.925011 
L 165.280247 260.357497 
L 167.721259 260.734998 
L 170.975941 260.998371 
L 176.671635 261.160553 
L 188.063022 261.213228 
L 288.144499 261.216 
L 406.940398 261.216 
L 406.940398 261.216 
" style="fill:none;stroke:#7dff7a;stroke-linecap:round;stroke-width:1.5;"/>
   </g>
   <g id="line2d_22">
    <path clip-path="url(#p8ce9dc0d9c)" d="M 82.285852 237.260158 
L 83.099523 190.645931 
L 83.913193 152.203656 
L 84.726864 122.045152 
L 85.540534 98.3342 
L 86.354205 79.264618 
L 87.167876 63.657696 
L 87.981546 51.435346 
L 88.795217 41.7557 
L 89.608887 34.580406 
L 90.422558 29.079147 
L 91.236228 25.427043 
L 92.049899 22.838134 
L 93.67724 20.071795 
L 94.49091 19.81027 
L 96.118251 21.338757 
L 96.931922 22.667173 
L 97.745593 24.337049 
L 98.559263 26.368255 
L 99.372934 28.955316 
L 100.186604 30.738396 
L 101.813945 36.392134 
L 106.695968 55.383167 
L 109.13698 66.311293 
L 110.764321 72.755611 
L 112.391662 80.415603 
L 113.205333 83.954503 
L 115.646344 96.144509 
L 117.273685 102.968176 
L 119.714697 114.745103 
L 122.155709 125.97449 
L 125.410391 143.000392 
L 127.037732 151.915794 
L 128.665073 159.13868 
L 129.478744 162.456716 
L 131.106085 170.347275 
L 132.733426 179.447501 
L 134.360767 187.428623 
L 136.801778 199.060925 
L 137.615449 203.593711 
L 140.870131 224.012964 
L 142.497472 230.559397 
L 146.565825 243.316348 
L 149.820507 251.807582 
L 150.634178 253.495016 
L 152.261519 256.04003 
L 153.88886 257.728389 
L 155.516201 258.859968 
L 157.143542 259.642232 
L 158.770883 260.136633 
L 160.398224 260.494728 
L 162.839236 260.824637 
L 166.907588 261.070452 
L 174.230623 261.194745 
L 202.709092 261.216 
L 406.940398 261.216 
L 406.940398 261.216 
" style="fill:none;stroke:#ceff29;stroke-linecap:round;stroke-width:1.5;"/>
   </g>
   <g id="line2d_23">
    <path clip-path="url(#p8ce9dc0d9c)" d="M 82.285852 237.201014 
L 83.099523 190.421833 
L 83.913193 152.113093 
L 84.726864 121.88759 
L 85.540534 98.123964 
L 86.354205 78.269807 
L 87.167876 63.477955 
L 87.981546 51.075865 
L 88.795217 41.77834 
L 89.608887 34.61275 
L 90.422558 29.113339 
L 91.236228 24.860099 
L 92.049899 22.236997 
L 92.863569 20.458075 
L 93.67724 20.132786 
L 94.49091 19.97199 
L 95.304581 20.258928 
L 96.931922 23.339467 
L 98.559263 26.918565 
L 100.186604 31.380656 
L 104.254957 45.725237 
L 105.882298 52.533657 
L 106.695968 55.36607 
L 108.32331 62.223931 
L 111.577992 76.83327 
L 113.205333 83.950345 
L 114.019003 87.275774 
L 118.087356 106.643383 
L 129.478744 159.751831 
L 131.106085 166.654972 
L 132.733426 174.887916 
L 135.988108 189.110975 
L 136.801778 192.496472 
L 139.24279 200.854171 
L 140.870131 207.057758 
L 141.683802 210.569858 
L 142.497472 213.559371 
L 143.311143 216.000422 
L 144.938484 220.163562 
L 146.565825 224.904273 
L 148.193166 229.011042 
L 149.820507 232.009334 
L 150.634178 233.073453 
L 151.447848 233.717099 
L 152.261519 233.903309 
L 153.075189 233.866344 
L 154.70253 232.407628 
L 155.516201 231.905371 
L 157.957212 230.830163 
L 158.770883 231.022379 
L 159.584554 231.087529 
L 160.398224 231.445162 
L 161.211895 232.096663 
L 162.025565 232.936222 
L 162.839236 234.026216 
L 163.652906 235.45536 
L 165.280247 237.583136 
L 169.3486 242.091895 
L 170.162271 242.704583 
L 170.975941 243.510412 
L 171.789612 244.103232 
L 174.230623 246.557682 
L 175.044294 247.482722 
L 176.671635 249.817037 
L 179.112647 253.564787 
L 180.739988 255.0004 
L 182.367329 256.075146 
L 184.80834 258.131303 
L 186.435681 259.151988 
L 188.063022 259.821972 
L 189.690364 260.278485 
L 192.131375 260.695723 
L 195.386057 260.985433 
L 201.081751 261.158243 
L 212.473139 261.213228 
L 406.940398 261.216 
L 406.940398 261.216 
" style="fill:none;stroke:#ffc400;stroke-linecap:round;stroke-width:1.5;"/>
   </g>
   <g id="line2d_24">
    <path clip-path="url(#p8ce9dc0d9c)" d="M 82.285852 237.20009 
L 83.099523 190.387179 
L 83.913193 152.312702 
L 84.726864 121.804882 
L 85.540534 97.706264 
L 86.354205 78.683349 
L 87.167876 63.291284 
L 87.981546 51.25653 
L 88.795217 41.958081 
L 89.608887 34.752753 
L 90.422558 29.037562 
L 91.236228 25.14565 
L 92.049899 22.183398 
L 92.863569 20.345795 
L 93.67724 19.296 
L 94.49091 19.410128 
L 95.304581 19.876806 
L 96.118251 20.974656 
L 97.745593 24.115262 
L 98.559263 25.89557 
L 100.186604 30.602089 
L 101.000275 33.124462 
L 103.441286 42.04541 
L 106.695968 55.805025 
L 108.32331 62.047887 
L 109.13698 65.35853 
L 110.764321 72.749604 
L 112.391662 80.256193 
L 114.832674 91.452313 
L 117.273685 102.589751 
L 118.901027 110.39945 
L 119.714697 114.190633 
L 120.528368 118.514107 
L 123.78305 133.366489 
L 125.410391 141.773628 
L 127.037732 149.923402 
L 128.665073 158.312059 
L 131.919755 172.545746 
L 134.360767 182.655106 
L 135.988108 188.032533 
L 137.615449 195.576548 
L 138.42912 199.550707 
L 139.24279 202.919107 
L 140.870131 208.659712 
L 142.497472 214.831416 
L 144.938484 222.222491 
L 147.379495 227.751011 
L 149.006837 231.952501 
L 149.820507 233.692148 
L 151.447848 236.352214 
L 152.261519 237.389072 
L 153.88886 240.370268 
L 154.70253 242.013807 
L 156.329871 244.496443 
L 157.143542 245.349863 
L 157.957212 245.545314 
L 160.398224 243.738668 
L 161.211895 243.810287 
L 162.025565 243.713717 
L 162.839236 243.474833 
L 163.652906 243.035879 
L 166.093918 240.501492 
L 166.907588 239.574143 
L 167.721259 238.983171 
L 168.53493 239.143043 
L 169.3486 239.527013 
L 170.162271 240.424791 
L 170.975941 241.546205 
L 172.603282 243.310803 
L 173.416953 243.783026 
L 174.230623 244.000655 
L 176.671635 245.056919 
L 177.485305 245.646042 
L 178.298976 245.78928 
L 179.112647 245.810073 
L 179.926317 245.949152 
L 181.553658 246.473126 
L 182.367329 246.480981 
L 183.180999 246.61775 
L 183.99467 246.293385 
L 186.435681 244.116169 
L 188.063022 243.040961 
L 188.876693 242.720755 
L 189.690364 241.981463 
L 191.317705 239.770979 
L 193.758716 237.431581 
L 194.572387 237.117382 
L 195.386057 237.213028 
L 196.199728 237.512441 
L 197.827069 238.583953 
L 199.45441 239.24562 
L 201.081751 239.596321 
L 201.895422 239.942402 
L 203.522763 240.010325 
L 204.336433 240.346703 
L 205.150104 240.890545 
L 206.777445 242.69488 
L 207.591115 243.65596 
L 208.404786 244.036696 
L 209.218457 243.901775 
L 210.032127 243.528432 
L 210.845798 243.399056 
L 211.659468 243.008617 
L 213.286809 242.617254 
L 214.91415 242.483258 
L 216.541491 241.879348 
L 217.355162 241.233392 
L 218.168832 241.102167 
L 219.796174 242.028131 
L 221.423515 243.515495 
L 223.050856 244.487664 
L 224.678197 245.500494 
L 225.491867 245.756936 
L 226.305538 245.667297 
L 227.119208 245.124379 
L 227.932879 244.855924 
L 228.746549 244.920612 
L 231.187561 244.710376 
L 232.001232 245.17844 
L 232.814902 245.89694 
L 234.442243 247.843589 
L 236.069584 249.787003 
L 236.883255 250.708346 
L 239.324266 252.638823 
L 240.951608 253.550925 
L 244.20629 255.171824 
L 245.01996 255.606158 
L 245.833631 255.899102 
L 246.647301 255.917585 
L 247.460972 255.785898 
L 249.088313 255.919895 
L 251.529325 256.515949 
L 252.342995 256.517335 
L 253.156666 256.39027 
L 253.970336 256.116731 
L 254.784007 255.9795 
L 255.597677 255.623716 
L 256.411348 255.007331 
L 261.293371 249.404882 
L 262.920712 246.661183 
L 264.548053 244.092142 
L 265.361724 243.328823 
L 266.175394 242.78683 
L 266.989065 242.629268 
L 267.802735 242.705969 
L 268.616406 243.030796 
L 270.243747 243.852335 
L 271.057418 244.013593 
L 271.871088 244.328716 
L 272.684759 244.513539 
L 273.498429 244.530173 
L 275.12577 244.406342 
L 277.566782 244.594399 
L 279.194123 245.616009 
L 280.007793 246.072522 
L 281.635135 246.622832 
L 283.262476 246.101631 
L 284.076146 246.180643 
L 285.703487 246.016613 
L 286.517158 246.125658 
L 288.144499 246.065591 
L 289.77184 246.488836 
L 290.585511 246.470815 
L 291.399181 246.581709 
L 293.026522 247.204101 
L 294.653863 248.397134 
L 296.281204 249.830899 
L 297.908545 251.455032 
L 298.722216 251.995639 
L 299.535886 252.238681 
L 300.349557 252.26086 
L 301.163228 251.98455 
L 301.976898 252.141187 
L 302.790569 252.599086 
L 303.604239 253.374881 
L 304.41791 253.806443 
L 307.672592 254.053182 
L 309.299933 254.769371 
L 310.927274 255.506815 
L 314.181956 257.119859 
L 316.622968 258.865975 
L 318.250309 259.627908 
L 319.87765 260.163895 
L 322.318662 260.63658 
L 325.573344 260.947082 
L 330.455367 261.130981 
L 339.405743 261.207221 
L 406.940398 261.216 
L 406.940398 261.216 
" style="fill:none;stroke:#ff6800;stroke-linecap:round;stroke-width:1.5;"/>
   </g>
   <g id="line2d_25">
    <path clip-path="url(#p8ce9dc0d9c)" d="M 82.285852 237.32346 
L 83.099523 190.598339 
L 83.913193 152.205967 
L 84.726864 121.785475 
L 85.540534 97.526523 
L 86.354205 78.417204 
L 87.167876 63.481652 
L 87.981546 51.244516 
L 88.795217 41.638337 
L 89.608887 34.506477 
L 90.422558 28.934523 
L 91.236228 24.808348 
L 92.049899 22.06927 
L 92.863569 20.685869 
L 93.67724 20.06163 
L 94.49091 19.645778 
L 95.304581 19.936412 
L 96.118251 21.054592 
L 97.745593 23.887929 
L 99.372934 28.341241 
L 100.186604 30.649219 
L 101.813945 36.419395 
L 107.509639 58.975665 
L 112.391662 81.377145 
L 113.205333 84.322301 
L 116.460015 98.038021 
L 119.714697 113.847787 
L 122.969379 130.462919 
L 123.78305 133.876139 
L 124.59672 137.814718 
L 125.410391 142.321629 
L 127.037732 149.197971 
L 128.665073 156.211545 
L 131.106085 167.178946 
L 135.174437 187.08208 
L 136.801778 195.921243 
L 138.42912 205.07091 
L 140.870131 217.025266 
L 143.311143 225.861195 
L 144.124813 228.122505 
L 144.938484 229.711059 
L 145.752154 230.532136 
L 146.565825 230.991421 
L 147.379495 231.684046 
L 149.006837 233.767464 
L 151.447848 237.356266 
L 152.261519 238.187045 
L 153.075189 238.488307 
L 153.88886 238.402364 
L 154.70253 238.561312 
L 155.516201 239.331562 
L 156.329871 240.569877 
L 157.143542 241.552211 
L 158.770883 242.705969 
L 160.398224 244.28251 
L 161.211895 244.601792 
L 162.839236 244.406804 
L 163.652906 244.581 
L 164.466577 245.321678 
L 165.280247 246.517021 
L 168.53493 250.240282 
L 170.162271 251.479059 
L 173.416953 252.010887 
L 174.230623 251.839002 
L 175.044294 251.835767 
L 175.857964 252.145808 
L 176.671635 252.293666 
L 178.298976 252.767275 
L 179.112647 253.26676 
L 182.367329 256.141221 
L 183.180999 256.641167 
L 186.435681 258.076318 
L 188.063022 259.065122 
L 189.690364 259.742498 
L 191.317705 260.25492 
L 192.945046 260.568195 
L 196.199728 260.932759 
L 200.268081 261.114347 
L 211.659468 261.209993 
L 280.007793 261.216 
L 406.940398 261.216 
L 406.940398 261.216 
" style="fill:none;stroke:#f10800;stroke-linecap:round;stroke-width:1.5;"/>
   </g>
   <g id="patch_3">
    <path d="M 66.053125 273.312 
L 66.053125 7.2 
" style="fill:none;stroke:#cccccc;stroke-linecap:square;stroke-linejoin:miter;stroke-width:0.8;"/>
   </g>
   <g id="patch_4">
    <path d="M 423.173125 273.312 
L 423.173125 7.2 
" style="fill:none;stroke:#cccccc;stroke-linecap:square;stroke-linejoin:miter;stroke-width:0.8;"/>
   </g>
   <g id="patch_5">
    <path d="M 66.053125 273.312 
L 423.173125 273.312 
" style="fill:none;stroke:#cccccc;stroke-linecap:square;stroke-linejoin:miter;stroke-width:0.8;"/>
   </g>
   <g id="patch_6">
    <path d="M 66.053125 7.2 
L 423.173125 7.2 
" style="fill:none;stroke:#cccccc;stroke-linecap:square;stroke-linejoin:miter;stroke-width:0.8;"/>
   </g>
  </g>
 </g>
 <defs>
  <clipPath id="p8ce9dc0d9c">
   <rect height="266.112" width="357.12" x="66.053125" y="7.2"/>
  </clipPath>
 </defs>
</svg>
