<?xml version="1.0" encoding="utf-8" standalone="no"?>
<!DOCTYPE svg PUBLIC "-//W3C//DTD SVG 1.1//EN"
  "http://www.w3.org/Graphics/SVG/1.1/DTD/svg11.dtd">
<!-- Created with matplotlib (https://matplotlib.org/) -->
<svg height="325.986375pt" version="1.1" viewBox="0 0 430.373125 325.986375" width="430.373125pt" xmlns="http://www.w3.org/2000/svg" xmlns:xlink="http://www.w3.org/1999/xlink">
 <defs>
  <style type="text/css">
*{stroke-linecap:butt;stroke-linejoin:round;white-space:pre;}
  </style>
 </defs>
 <g id="figure_1">
  <g id="patch_1">
   <path d="M 0 325.986375 
L 430.373125 325.986375 
L 430.373125 0 
L 0 0 
z
" style="fill:#ffffff;"/>
  </g>
  <g id="axes_1">
   <g id="patch_2">
    <path d="M 66.053125 288.430125 
L 423.173125 288.430125 
L 423.173125 22.318125 
L 66.053125 22.318125 
z
" style="fill:#ffffff;"/>
   </g>
   <g id="matplotlib.axis_1">
    <g id="xtick_1">
     <g id="line2d_1">
      <path clip-path="url(#pffd86703e0)" d="M 82.285852 288.430125 
L 82.285852 22.318125 
" style="fill:none;stroke:#cccccc;stroke-linecap:round;stroke-width:0.8;"/>
     </g>
     <g id="text_1">
      <!-- 0 -->
      <defs>
       <path d="M 31.78125 66.40625 
Q 24.171875 66.40625 20.328125 58.90625 
Q 16.5 51.421875 16.5 36.375 
Q 16.5 21.390625 20.328125 13.890625 
Q 24.171875 6.390625 31.78125 6.390625 
Q 39.453125 6.390625 43.28125 13.890625 
Q 47.125 21.390625 47.125 36.375 
Q 47.125 51.421875 43.28125 58.90625 
Q 39.453125 66.40625 31.78125 66.40625 
z
M 31.78125 74.21875 
Q 44.046875 74.21875 50.515625 64.515625 
Q 56.984375 54.828125 56.984375 36.375 
Q 56.984375 17.96875 50.515625 8.265625 
Q 44.046875 -1.421875 31.78125 -1.421875 
Q 19.53125 -1.421875 13.0625 8.265625 
Q 6.59375 17.96875 6.59375 36.375 
Q 6.59375 54.828125 13.0625 64.515625 
Q 19.53125 74.21875 31.78125 74.21875 
z
" id="DejaVuSans-48"/>
      </defs>
      <g style="fill:#262626;" transform="translate(79.104602 303.028562)scale(0.1 -0.1)">
       <use xlink:href="#DejaVuSans-48"/>
      </g>
     </g>
    </g>
    <g id="xtick_2">
     <g id="line2d_2">
      <path clip-path="url(#pffd86703e0)" d="M 136.485276 288.430125 
L 136.485276 22.318125 
" style="fill:none;stroke:#cccccc;stroke-linecap:round;stroke-width:0.8;"/>
     </g>
     <g id="text_2">
      <!-- 10 -->
      <defs>
       <path d="M 12.40625 8.296875 
L 28.515625 8.296875 
L 28.515625 63.921875 
L 10.984375 60.40625 
L 10.984375 69.390625 
L 28.421875 72.90625 
L 38.28125 72.90625 
L 38.28125 8.296875 
L 54.390625 8.296875 
L 54.390625 0 
L 12.40625 0 
z
" id="DejaVuSans-49"/>
      </defs>
      <g style="fill:#262626;" transform="translate(130.122776 303.028562)scale(0.1 -0.1)">
       <use xlink:href="#DejaVuSans-49"/>
       <use x="63.623047" xlink:href="#DejaVuSans-48"/>
      </g>
     </g>
    </g>
    <g id="xtick_3">
     <g id="line2d_3">
      <path clip-path="url(#pffd86703e0)" d="M 190.684699 288.430125 
L 190.684699 22.318125 
" style="fill:none;stroke:#cccccc;stroke-linecap:round;stroke-width:0.8;"/>
     </g>
     <g id="text_3">
      <!-- 20 -->
      <defs>
       <path d="M 19.1875 8.296875 
L 53.609375 8.296875 
L 53.609375 0 
L 7.328125 0 
L 7.328125 8.296875 
Q 12.9375 14.109375 22.625 23.890625 
Q 32.328125 33.6875 34.8125 36.53125 
Q 39.546875 41.84375 41.421875 45.53125 
Q 43.3125 49.21875 43.3125 52.78125 
Q 43.3125 58.59375 39.234375 62.25 
Q 35.15625 65.921875 28.609375 65.921875 
Q 23.96875 65.921875 18.8125 64.3125 
Q 13.671875 62.703125 7.8125 59.421875 
L 7.8125 69.390625 
Q 13.765625 71.78125 18.9375 73 
Q 24.125 74.21875 28.421875 74.21875 
Q 39.75 74.21875 46.484375 68.546875 
Q 53.21875 62.890625 53.21875 53.421875 
Q 53.21875 48.921875 51.53125 44.890625 
Q 49.859375 40.875 45.40625 35.40625 
Q 44.1875 33.984375 37.640625 27.21875 
Q 31.109375 20.453125 19.1875 8.296875 
z
" id="DejaVuSans-50"/>
      </defs>
      <g style="fill:#262626;" transform="translate(184.322199 303.028562)scale(0.1 -0.1)">
       <use xlink:href="#DejaVuSans-50"/>
       <use x="63.623047" xlink:href="#DejaVuSans-48"/>
      </g>
     </g>
    </g>
    <g id="xtick_4">
     <g id="line2d_4">
      <path clip-path="url(#pffd86703e0)" d="M 244.884122 288.430125 
L 244.884122 22.318125 
" style="fill:none;stroke:#cccccc;stroke-linecap:round;stroke-width:0.8;"/>
     </g>
     <g id="text_4">
      <!-- 30 -->
      <defs>
       <path d="M 40.578125 39.3125 
Q 47.65625 37.796875 51.625 33 
Q 55.609375 28.21875 55.609375 21.1875 
Q 55.609375 10.40625 48.1875 4.484375 
Q 40.765625 -1.421875 27.09375 -1.421875 
Q 22.515625 -1.421875 17.65625 -0.515625 
Q 12.796875 0.390625 7.625 2.203125 
L 7.625 11.71875 
Q 11.71875 9.328125 16.59375 8.109375 
Q 21.484375 6.890625 26.8125 6.890625 
Q 36.078125 6.890625 40.9375 10.546875 
Q 45.796875 14.203125 45.796875 21.1875 
Q 45.796875 27.640625 41.28125 31.265625 
Q 36.765625 34.90625 28.71875 34.90625 
L 20.21875 34.90625 
L 20.21875 43.015625 
L 29.109375 43.015625 
Q 36.375 43.015625 40.234375 45.921875 
Q 44.09375 48.828125 44.09375 54.296875 
Q 44.09375 59.90625 40.109375 62.90625 
Q 36.140625 65.921875 28.71875 65.921875 
Q 24.65625 65.921875 20.015625 65.03125 
Q 15.375 64.15625 9.8125 62.3125 
L 9.8125 71.09375 
Q 15.4375 72.65625 20.34375 73.4375 
Q 25.25 74.21875 29.59375 74.21875 
Q 40.828125 74.21875 47.359375 69.109375 
Q 53.90625 64.015625 53.90625 55.328125 
Q 53.90625 49.265625 50.4375 45.09375 
Q 46.96875 40.921875 40.578125 39.3125 
z
" id="DejaVuSans-51"/>
      </defs>
      <g style="fill:#262626;" transform="translate(238.521622 303.028562)scale(0.1 -0.1)">
       <use xlink:href="#DejaVuSans-51"/>
       <use x="63.623047" xlink:href="#DejaVuSans-48"/>
      </g>
     </g>
    </g>
    <g id="xtick_5">
     <g id="line2d_5">
      <path clip-path="url(#pffd86703e0)" d="M 299.083545 288.430125 
L 299.083545 22.318125 
" style="fill:none;stroke:#cccccc;stroke-linecap:round;stroke-width:0.8;"/>
     </g>
     <g id="text_5">
      <!-- 40 -->
      <defs>
       <path d="M 37.796875 64.3125 
L 12.890625 25.390625 
L 37.796875 25.390625 
z
M 35.203125 72.90625 
L 47.609375 72.90625 
L 47.609375 25.390625 
L 58.015625 25.390625 
L 58.015625 17.1875 
L 47.609375 17.1875 
L 47.609375 0 
L 37.796875 0 
L 37.796875 17.1875 
L 4.890625 17.1875 
L 4.890625 26.703125 
z
" id="DejaVuSans-52"/>
      </defs>
      <g style="fill:#262626;" transform="translate(292.721045 303.028562)scale(0.1 -0.1)">
       <use xlink:href="#DejaVuSans-52"/>
       <use x="63.623047" xlink:href="#DejaVuSans-48"/>
      </g>
     </g>
    </g>
    <g id="xtick_6">
     <g id="line2d_6">
      <path clip-path="url(#pffd86703e0)" d="M 353.282969 288.430125 
L 353.282969 22.318125 
" style="fill:none;stroke:#cccccc;stroke-linecap:round;stroke-width:0.8;"/>
     </g>
     <g id="text_6">
      <!-- 50 -->
      <defs>
       <path d="M 10.796875 72.90625 
L 49.515625 72.90625 
L 49.515625 64.59375 
L 19.828125 64.59375 
L 19.828125 46.734375 
Q 21.96875 47.46875 24.109375 47.828125 
Q 26.265625 48.1875 28.421875 48.1875 
Q 40.625 48.1875 47.75 41.5 
Q 54.890625 34.8125 54.890625 23.390625 
Q 54.890625 11.625 47.5625 5.09375 
Q 40.234375 -1.421875 26.90625 -1.421875 
Q 22.3125 -1.421875 17.546875 -0.640625 
Q 12.796875 0.140625 7.71875 1.703125 
L 7.71875 11.625 
Q 12.109375 9.234375 16.796875 8.0625 
Q 21.484375 6.890625 26.703125 6.890625 
Q 35.15625 6.890625 40.078125 11.328125 
Q 45.015625 15.765625 45.015625 23.390625 
Q 45.015625 31 40.078125 35.4375 
Q 35.15625 39.890625 26.703125 39.890625 
Q 22.75 39.890625 18.8125 39.015625 
Q 14.890625 38.140625 10.796875 36.28125 
z
" id="DejaVuSans-53"/>
      </defs>
      <g style="fill:#262626;" transform="translate(346.920469 303.028562)scale(0.1 -0.1)">
       <use xlink:href="#DejaVuSans-53"/>
       <use x="63.623047" xlink:href="#DejaVuSans-48"/>
      </g>
     </g>
    </g>
    <g id="xtick_7">
     <g id="line2d_7">
      <path clip-path="url(#pffd86703e0)" d="M 407.482392 288.430125 
L 407.482392 22.318125 
" style="fill:none;stroke:#cccccc;stroke-linecap:round;stroke-width:0.8;"/>
     </g>
     <g id="text_7">
      <!-- 60 -->
      <defs>
       <path d="M 33.015625 40.375 
Q 26.375 40.375 22.484375 35.828125 
Q 18.609375 31.296875 18.609375 23.390625 
Q 18.609375 15.53125 22.484375 10.953125 
Q 26.375 6.390625 33.015625 6.390625 
Q 39.65625 6.390625 43.53125 10.953125 
Q 47.40625 15.53125 47.40625 23.390625 
Q 47.40625 31.296875 43.53125 35.828125 
Q 39.65625 40.375 33.015625 40.375 
z
M 52.59375 71.296875 
L 52.59375 62.3125 
Q 48.875 64.0625 45.09375 64.984375 
Q 41.3125 65.921875 37.59375 65.921875 
Q 27.828125 65.921875 22.671875 59.328125 
Q 17.53125 52.734375 16.796875 39.40625 
Q 19.671875 43.65625 24.015625 45.921875 
Q 28.375 48.1875 33.59375 48.1875 
Q 44.578125 48.1875 50.953125 41.515625 
Q 57.328125 34.859375 57.328125 23.390625 
Q 57.328125 12.15625 50.6875 5.359375 
Q 44.046875 -1.421875 33.015625 -1.421875 
Q 20.359375 -1.421875 13.671875 8.265625 
Q 6.984375 17.96875 6.984375 36.375 
Q 6.984375 53.65625 15.1875 63.9375 
Q 23.390625 74.21875 37.203125 74.21875 
Q 40.921875 74.21875 44.703125 73.484375 
Q 48.484375 72.75 52.59375 71.296875 
z
" id="DejaVuSans-54"/>
      </defs>
      <g style="fill:#262626;" transform="translate(401.119892 303.028562)scale(0.1 -0.1)">
       <use xlink:href="#DejaVuSans-54"/>
       <use x="63.623047" xlink:href="#DejaVuSans-48"/>
      </g>
     </g>
    </g>
    <g id="text_8">
     <!-- time (days) -->
     <defs>
      <path d="M 18.3125 70.21875 
L 18.3125 54.6875 
L 36.8125 54.6875 
L 36.8125 47.703125 
L 18.3125 47.703125 
L 18.3125 18.015625 
Q 18.3125 11.328125 20.140625 9.421875 
Q 21.96875 7.515625 27.59375 7.515625 
L 36.8125 7.515625 
L 36.8125 0 
L 27.59375 0 
Q 17.1875 0 13.234375 3.875 
Q 9.28125 7.765625 9.28125 18.015625 
L 9.28125 47.703125 
L 2.6875 47.703125 
L 2.6875 54.6875 
L 9.28125 54.6875 
L 9.28125 70.21875 
z
" id="DejaVuSans-116"/>
      <path d="M 9.421875 54.6875 
L 18.40625 54.6875 
L 18.40625 0 
L 9.421875 0 
z
M 9.421875 75.984375 
L 18.40625 75.984375 
L 18.40625 64.59375 
L 9.421875 64.59375 
z
" id="DejaVuSans-105"/>
      <path d="M 52 44.1875 
Q 55.375 50.25 60.0625 53.125 
Q 64.75 56 71.09375 56 
Q 79.640625 56 84.28125 50.015625 
Q 88.921875 44.046875 88.921875 33.015625 
L 88.921875 0 
L 79.890625 0 
L 79.890625 32.71875 
Q 79.890625 40.578125 77.09375 44.375 
Q 74.3125 48.1875 68.609375 48.1875 
Q 61.625 48.1875 57.5625 43.546875 
Q 53.515625 38.921875 53.515625 30.90625 
L 53.515625 0 
L 44.484375 0 
L 44.484375 32.71875 
Q 44.484375 40.625 41.703125 44.40625 
Q 38.921875 48.1875 33.109375 48.1875 
Q 26.21875 48.1875 22.15625 43.53125 
Q 18.109375 38.875 18.109375 30.90625 
L 18.109375 0 
L 9.078125 0 
L 9.078125 54.6875 
L 18.109375 54.6875 
L 18.109375 46.1875 
Q 21.1875 51.21875 25.484375 53.609375 
Q 29.78125 56 35.6875 56 
Q 41.65625 56 45.828125 52.96875 
Q 50 49.953125 52 44.1875 
z
" id="DejaVuSans-109"/>
      <path d="M 56.203125 29.59375 
L 56.203125 25.203125 
L 14.890625 25.203125 
Q 15.484375 15.921875 20.484375 11.0625 
Q 25.484375 6.203125 34.421875 6.203125 
Q 39.59375 6.203125 44.453125 7.46875 
Q 49.3125 8.734375 54.109375 11.28125 
L 54.109375 2.78125 
Q 49.265625 0.734375 44.1875 -0.34375 
Q 39.109375 -1.421875 33.890625 -1.421875 
Q 20.796875 -1.421875 13.15625 6.1875 
Q 5.515625 13.8125 5.515625 26.8125 
Q 5.515625 40.234375 12.765625 48.109375 
Q 20.015625 56 32.328125 56 
Q 43.359375 56 49.78125 48.890625 
Q 56.203125 41.796875 56.203125 29.59375 
z
M 47.21875 32.234375 
Q 47.125 39.59375 43.09375 43.984375 
Q 39.0625 48.390625 32.421875 48.390625 
Q 24.90625 48.390625 20.390625 44.140625 
Q 15.875 39.890625 15.1875 32.171875 
z
" id="DejaVuSans-101"/>
      <path id="DejaVuSans-32"/>
      <path d="M 31 75.875 
Q 24.46875 64.65625 21.28125 53.65625 
Q 18.109375 42.671875 18.109375 31.390625 
Q 18.109375 20.125 21.3125 9.0625 
Q 24.515625 -2 31 -13.1875 
L 23.1875 -13.1875 
Q 15.875 -1.703125 12.234375 9.375 
Q 8.59375 20.453125 8.59375 31.390625 
Q 8.59375 42.28125 12.203125 53.3125 
Q 15.828125 64.359375 23.1875 75.875 
z
" id="DejaVuSans-40"/>
      <path d="M 45.40625 46.390625 
L 45.40625 75.984375 
L 54.390625 75.984375 
L 54.390625 0 
L 45.40625 0 
L 45.40625 8.203125 
Q 42.578125 3.328125 38.25 0.953125 
Q 33.9375 -1.421875 27.875 -1.421875 
Q 17.96875 -1.421875 11.734375 6.484375 
Q 5.515625 14.40625 5.515625 27.296875 
Q 5.515625 40.1875 11.734375 48.09375 
Q 17.96875 56 27.875 56 
Q 33.9375 56 38.25 53.625 
Q 42.578125 51.265625 45.40625 46.390625 
z
M 14.796875 27.296875 
Q 14.796875 17.390625 18.875 11.75 
Q 22.953125 6.109375 30.078125 6.109375 
Q 37.203125 6.109375 41.296875 11.75 
Q 45.40625 17.390625 45.40625 27.296875 
Q 45.40625 37.203125 41.296875 42.84375 
Q 37.203125 48.484375 30.078125 48.484375 
Q 22.953125 48.484375 18.875 42.84375 
Q 14.796875 37.203125 14.796875 27.296875 
z
" id="DejaVuSans-100"/>
      <path d="M 34.28125 27.484375 
Q 23.390625 27.484375 19.1875 25 
Q 14.984375 22.515625 14.984375 16.5 
Q 14.984375 11.71875 18.140625 8.90625 
Q 21.296875 6.109375 26.703125 6.109375 
Q 34.1875 6.109375 38.703125 11.40625 
Q 43.21875 16.703125 43.21875 25.484375 
L 43.21875 27.484375 
z
M 52.203125 31.203125 
L 52.203125 0 
L 43.21875 0 
L 43.21875 8.296875 
Q 40.140625 3.328125 35.546875 0.953125 
Q 30.953125 -1.421875 24.3125 -1.421875 
Q 15.921875 -1.421875 10.953125 3.296875 
Q 6 8.015625 6 15.921875 
Q 6 25.140625 12.171875 29.828125 
Q 18.359375 34.515625 30.609375 34.515625 
L 43.21875 34.515625 
L 43.21875 35.40625 
Q 43.21875 41.609375 39.140625 45 
Q 35.0625 48.390625 27.6875 48.390625 
Q 23 48.390625 18.546875 47.265625 
Q 14.109375 46.140625 10.015625 43.890625 
L 10.015625 52.203125 
Q 14.9375 54.109375 19.578125 55.046875 
Q 24.21875 56 28.609375 56 
Q 40.484375 56 46.34375 49.84375 
Q 52.203125 43.703125 52.203125 31.203125 
z
" id="DejaVuSans-97"/>
      <path d="M 32.171875 -5.078125 
Q 28.375 -14.84375 24.75 -17.8125 
Q 21.140625 -20.796875 15.09375 -20.796875 
L 7.90625 -20.796875 
L 7.90625 -13.28125 
L 13.1875 -13.28125 
Q 16.890625 -13.28125 18.9375 -11.515625 
Q 21 -9.765625 23.484375 -3.21875 
L 25.09375 0.875 
L 2.984375 54.6875 
L 12.5 54.6875 
L 29.59375 11.921875 
L 46.6875 54.6875 
L 56.203125 54.6875 
z
" id="DejaVuSans-121"/>
      <path d="M 44.28125 53.078125 
L 44.28125 44.578125 
Q 40.484375 46.53125 36.375 47.5 
Q 32.28125 48.484375 27.875 48.484375 
Q 21.1875 48.484375 17.84375 46.4375 
Q 14.5 44.390625 14.5 40.28125 
Q 14.5 37.15625 16.890625 35.375 
Q 19.28125 33.59375 26.515625 31.984375 
L 29.59375 31.296875 
Q 39.15625 29.25 43.1875 25.515625 
Q 47.21875 21.78125 47.21875 15.09375 
Q 47.21875 7.46875 41.1875 3.015625 
Q 35.15625 -1.421875 24.609375 -1.421875 
Q 20.21875 -1.421875 15.453125 -0.5625 
Q 10.6875 0.296875 5.421875 2 
L 5.421875 11.28125 
Q 10.40625 8.6875 15.234375 7.390625 
Q 20.0625 6.109375 24.8125 6.109375 
Q 31.15625 6.109375 34.5625 8.28125 
Q 37.984375 10.453125 37.984375 14.40625 
Q 37.984375 18.0625 35.515625 20.015625 
Q 33.0625 21.96875 24.703125 23.78125 
L 21.578125 24.515625 
Q 13.234375 26.265625 9.515625 29.90625 
Q 5.8125 33.546875 5.8125 39.890625 
Q 5.8125 47.609375 11.28125 51.796875 
Q 16.75 56 26.8125 56 
Q 31.78125 56 36.171875 55.265625 
Q 40.578125 54.546875 44.28125 53.078125 
z
" id="DejaVuSans-115"/>
      <path d="M 8.015625 75.875 
L 15.828125 75.875 
Q 23.140625 64.359375 26.78125 53.3125 
Q 30.421875 42.28125 30.421875 31.390625 
Q 30.421875 20.453125 26.78125 9.375 
Q 23.140625 -1.703125 15.828125 -13.1875 
L 8.015625 -13.1875 
Q 14.5 -2 17.703125 9.0625 
Q 20.90625 20.125 20.90625 31.390625 
Q 20.90625 42.671875 17.703125 53.65625 
Q 14.5 64.65625 8.015625 75.875 
z
" id="DejaVuSans-41"/>
     </defs>
     <g style="fill:#262626;" transform="translate(216.024063 316.706687)scale(0.1 -0.1)">
      <use xlink:href="#DejaVuSans-116"/>
      <use x="39.208984" xlink:href="#DejaVuSans-105"/>
      <use x="66.992188" xlink:href="#DejaVuSans-109"/>
      <use x="164.404297" xlink:href="#DejaVuSans-101"/>
      <use x="225.927734" xlink:href="#DejaVuSans-32"/>
      <use x="257.714844" xlink:href="#DejaVuSans-40"/>
      <use x="296.728516" xlink:href="#DejaVuSans-100"/>
      <use x="360.205078" xlink:href="#DejaVuSans-97"/>
      <use x="421.484375" xlink:href="#DejaVuSans-121"/>
      <use x="480.664062" xlink:href="#DejaVuSans-115"/>
      <use x="532.763672" xlink:href="#DejaVuSans-41"/>
     </g>
    </g>
   </g>
   <g id="matplotlib.axis_2">
    <g id="ytick_1">
     <g id="line2d_8">
      <path clip-path="url(#pffd86703e0)" d="M 66.053125 276.334125 
L 423.173125 276.334125 
" style="fill:none;stroke:#cccccc;stroke-linecap:round;stroke-width:0.8;"/>
     </g>
     <g id="text_9">
      <!-- 0 -->
      <g style="fill:#262626;" transform="translate(52.690625 280.133344)scale(0.1 -0.1)">
       <use xlink:href="#DejaVuSans-48"/>
      </g>
     </g>
    </g>
    <g id="ytick_2">
     <g id="line2d_9">
      <path clip-path="url(#pffd86703e0)" d="M 66.053125 239.485398 
L 423.173125 239.485398 
" style="fill:none;stroke:#cccccc;stroke-linecap:round;stroke-width:0.8;"/>
     </g>
     <g id="text_10">
      <!-- 50000 -->
      <g style="fill:#262626;" transform="translate(27.240625 243.284617)scale(0.1 -0.1)">
       <use xlink:href="#DejaVuSans-53"/>
       <use x="63.623047" xlink:href="#DejaVuSans-48"/>
       <use x="127.246094" xlink:href="#DejaVuSans-48"/>
       <use x="190.869141" xlink:href="#DejaVuSans-48"/>
       <use x="254.492188" xlink:href="#DejaVuSans-48"/>
      </g>
     </g>
    </g>
    <g id="ytick_3">
     <g id="line2d_10">
      <path clip-path="url(#pffd86703e0)" d="M 66.053125 202.636671 
L 423.173125 202.636671 
" style="fill:none;stroke:#cccccc;stroke-linecap:round;stroke-width:0.8;"/>
     </g>
     <g id="text_11">
      <!-- 100000 -->
      <g style="fill:#262626;" transform="translate(20.878125 206.43589)scale(0.1 -0.1)">
       <use xlink:href="#DejaVuSans-49"/>
       <use x="63.623047" xlink:href="#DejaVuSans-48"/>
       <use x="127.246094" xlink:href="#DejaVuSans-48"/>
       <use x="190.869141" xlink:href="#DejaVuSans-48"/>
       <use x="254.492188" xlink:href="#DejaVuSans-48"/>
       <use x="318.115234" xlink:href="#DejaVuSans-48"/>
      </g>
     </g>
    </g>
    <g id="ytick_4">
     <g id="line2d_11">
      <path clip-path="url(#pffd86703e0)" d="M 66.053125 165.787944 
L 423.173125 165.787944 
" style="fill:none;stroke:#cccccc;stroke-linecap:round;stroke-width:0.8;"/>
     </g>
     <g id="text_12">
      <!-- 150000 -->
      <g style="fill:#262626;" transform="translate(20.878125 169.587163)scale(0.1 -0.1)">
       <use xlink:href="#DejaVuSans-49"/>
       <use x="63.623047" xlink:href="#DejaVuSans-53"/>
       <use x="127.246094" xlink:href="#DejaVuSans-48"/>
       <use x="190.869141" xlink:href="#DejaVuSans-48"/>
       <use x="254.492188" xlink:href="#DejaVuSans-48"/>
       <use x="318.115234" xlink:href="#DejaVuSans-48"/>
      </g>
     </g>
    </g>
    <g id="ytick_5">
     <g id="line2d_12">
      <path clip-path="url(#pffd86703e0)" d="M 66.053125 128.939217 
L 423.173125 128.939217 
" style="fill:none;stroke:#cccccc;stroke-linecap:round;stroke-width:0.8;"/>
     </g>
     <g id="text_13">
      <!-- 200000 -->
      <g style="fill:#262626;" transform="translate(20.878125 132.738435)scale(0.1 -0.1)">
       <use xlink:href="#DejaVuSans-50"/>
       <use x="63.623047" xlink:href="#DejaVuSans-48"/>
       <use x="127.246094" xlink:href="#DejaVuSans-48"/>
       <use x="190.869141" xlink:href="#DejaVuSans-48"/>
       <use x="254.492188" xlink:href="#DejaVuSans-48"/>
       <use x="318.115234" xlink:href="#DejaVuSans-48"/>
      </g>
     </g>
    </g>
    <g id="ytick_6">
     <g id="line2d_13">
      <path clip-path="url(#pffd86703e0)" d="M 66.053125 92.09049 
L 423.173125 92.09049 
" style="fill:none;stroke:#cccccc;stroke-linecap:round;stroke-width:0.8;"/>
     </g>
     <g id="text_14">
      <!-- 250000 -->
      <g style="fill:#262626;" transform="translate(20.878125 95.889708)scale(0.1 -0.1)">
       <use xlink:href="#DejaVuSans-50"/>
       <use x="63.623047" xlink:href="#DejaVuSans-53"/>
       <use x="127.246094" xlink:href="#DejaVuSans-48"/>
       <use x="190.869141" xlink:href="#DejaVuSans-48"/>
       <use x="254.492188" xlink:href="#DejaVuSans-48"/>
       <use x="318.115234" xlink:href="#DejaVuSans-48"/>
      </g>
     </g>
    </g>
    <g id="ytick_7">
     <g id="line2d_14">
      <path clip-path="url(#pffd86703e0)" d="M 66.053125 55.241763 
L 423.173125 55.241763 
" style="fill:none;stroke:#cccccc;stroke-linecap:round;stroke-width:0.8;"/>
     </g>
     <g id="text_15">
      <!-- 300000 -->
      <g style="fill:#262626;" transform="translate(20.878125 59.040981)scale(0.1 -0.1)">
       <use xlink:href="#DejaVuSans-51"/>
       <use x="63.623047" xlink:href="#DejaVuSans-48"/>
       <use x="127.246094" xlink:href="#DejaVuSans-48"/>
       <use x="190.869141" xlink:href="#DejaVuSans-48"/>
       <use x="254.492188" xlink:href="#DejaVuSans-48"/>
       <use x="318.115234" xlink:href="#DejaVuSans-48"/>
      </g>
     </g>
    </g>
    <g id="text_16">
     <!-- cells number -->
     <defs>
      <path d="M 48.78125 52.59375 
L 48.78125 44.1875 
Q 44.96875 46.296875 41.140625 47.34375 
Q 37.3125 48.390625 33.40625 48.390625 
Q 24.65625 48.390625 19.8125 42.84375 
Q 14.984375 37.3125 14.984375 27.296875 
Q 14.984375 17.28125 19.8125 11.734375 
Q 24.65625 6.203125 33.40625 6.203125 
Q 37.3125 6.203125 41.140625 7.25 
Q 44.96875 8.296875 48.78125 10.40625 
L 48.78125 2.09375 
Q 45.015625 0.34375 40.984375 -0.53125 
Q 36.96875 -1.421875 32.421875 -1.421875 
Q 20.0625 -1.421875 12.78125 6.34375 
Q 5.515625 14.109375 5.515625 27.296875 
Q 5.515625 40.671875 12.859375 48.328125 
Q 20.21875 56 33.015625 56 
Q 37.15625 56 41.109375 55.140625 
Q 45.0625 54.296875 48.78125 52.59375 
z
" id="DejaVuSans-99"/>
      <path d="M 9.421875 75.984375 
L 18.40625 75.984375 
L 18.40625 0 
L 9.421875 0 
z
" id="DejaVuSans-108"/>
      <path d="M 54.890625 33.015625 
L 54.890625 0 
L 45.90625 0 
L 45.90625 32.71875 
Q 45.90625 40.484375 42.875 44.328125 
Q 39.84375 48.1875 33.796875 48.1875 
Q 26.515625 48.1875 22.3125 43.546875 
Q 18.109375 38.921875 18.109375 30.90625 
L 18.109375 0 
L 9.078125 0 
L 9.078125 54.6875 
L 18.109375 54.6875 
L 18.109375 46.1875 
Q 21.34375 51.125 25.703125 53.5625 
Q 30.078125 56 35.796875 56 
Q 45.21875 56 50.046875 50.171875 
Q 54.890625 44.34375 54.890625 33.015625 
z
" id="DejaVuSans-110"/>
      <path d="M 8.5 21.578125 
L 8.5 54.6875 
L 17.484375 54.6875 
L 17.484375 21.921875 
Q 17.484375 14.15625 20.5 10.265625 
Q 23.53125 6.390625 29.59375 6.390625 
Q 36.859375 6.390625 41.078125 11.03125 
Q 45.3125 15.671875 45.3125 23.6875 
L 45.3125 54.6875 
L 54.296875 54.6875 
L 54.296875 0 
L 45.3125 0 
L 45.3125 8.40625 
Q 42.046875 3.421875 37.71875 1 
Q 33.40625 -1.421875 27.6875 -1.421875 
Q 18.265625 -1.421875 13.375 4.4375 
Q 8.5 10.296875 8.5 21.578125 
z
M 31.109375 56 
z
" id="DejaVuSans-117"/>
      <path d="M 48.6875 27.296875 
Q 48.6875 37.203125 44.609375 42.84375 
Q 40.53125 48.484375 33.40625 48.484375 
Q 26.265625 48.484375 22.1875 42.84375 
Q 18.109375 37.203125 18.109375 27.296875 
Q 18.109375 17.390625 22.1875 11.75 
Q 26.265625 6.109375 33.40625 6.109375 
Q 40.53125 6.109375 44.609375 11.75 
Q 48.6875 17.390625 48.6875 27.296875 
z
M 18.109375 46.390625 
Q 20.953125 51.265625 25.265625 53.625 
Q 29.59375 56 35.59375 56 
Q 45.5625 56 51.78125 48.09375 
Q 58.015625 40.1875 58.015625 27.296875 
Q 58.015625 14.40625 51.78125 6.484375 
Q 45.5625 -1.421875 35.59375 -1.421875 
Q 29.59375 -1.421875 25.265625 0.953125 
Q 20.953125 3.328125 18.109375 8.203125 
L 18.109375 0 
L 9.078125 0 
L 9.078125 75.984375 
L 18.109375 75.984375 
z
" id="DejaVuSans-98"/>
      <path d="M 41.109375 46.296875 
Q 39.59375 47.171875 37.8125 47.578125 
Q 36.03125 48 33.890625 48 
Q 26.265625 48 22.1875 43.046875 
Q 18.109375 38.09375 18.109375 28.8125 
L 18.109375 0 
L 9.078125 0 
L 9.078125 54.6875 
L 18.109375 54.6875 
L 18.109375 46.1875 
Q 20.953125 51.171875 25.484375 53.578125 
Q 30.03125 56 36.53125 56 
Q 37.453125 56 38.578125 55.875 
Q 39.703125 55.765625 41.0625 55.515625 
z
" id="DejaVuSans-114"/>
     </defs>
     <g style="fill:#262626;" transform="translate(14.798438 187.685844)rotate(-90)scale(0.1 -0.1)">
      <use xlink:href="#DejaVuSans-99"/>
      <use x="54.980469" xlink:href="#DejaVuSans-101"/>
      <use x="116.503906" xlink:href="#DejaVuSans-108"/>
      <use x="144.287109" xlink:href="#DejaVuSans-108"/>
      <use x="172.070312" xlink:href="#DejaVuSans-115"/>
      <use x="224.169922" xlink:href="#DejaVuSans-32"/>
      <use x="255.957031" xlink:href="#DejaVuSans-110"/>
      <use x="319.335938" xlink:href="#DejaVuSans-117"/>
      <use x="382.714844" xlink:href="#DejaVuSans-109"/>
      <use x="480.126953" xlink:href="#DejaVuSans-98"/>
      <use x="543.603516" xlink:href="#DejaVuSans-101"/>
      <use x="605.126953" xlink:href="#DejaVuSans-114"/>
     </g>
    </g>
   </g>
   <g id="line2d_15">
    <path clip-path="url(#pffd86703e0)" d="M 82.285852 247.656235 
L 83.369841 197.261916 
L 84.453829 155.814467 
L 85.537818 122.433205 
L 86.621806 95.784943 
L 87.705795 74.565235 
L 88.789783 58.93032 
L 89.873772 47.436465 
L 90.95776 40.053454 
L 91.499754 37.717245 
L 92.041748 35.935977 
L 92.583743 34.843044 
L 93.125737 34.414125 
L 93.667731 34.629322 
L 94.209725 35.227745 
L 94.75172 36.427539 
L 95.835708 40.069668 
L 96.919697 45.168058 
L 98.545679 54.150303 
L 101.25565 72.927678 
L 104.507616 97.638434 
L 109.927558 138.799936 
L 113.179524 160.870113 
L 115.889495 177.037123 
L 118.057472 188.905361 
L 119.683454 196.975969 
L 122.393426 209.054982 
L 124.561402 217.373951 
L 126.729379 224.816657 
L 128.897356 231.477433 
L 130.523339 235.681135 
L 132.691316 240.881965 
L 135.401287 246.328944 
L 137.569264 250.021923 
L 141.363224 255.395941 
L 144.615189 258.996062 
L 146.241172 260.512019 
L 149.493137 263.070794 
L 152.745103 265.132112 
L 154.913079 266.322326 
L 157.081056 267.300291 
L 159.791028 268.42344 
L 162.500999 269.213477 
L 164.126981 269.691036 
L 172.256895 271.231313 
L 178.760826 271.837843 
L 182.554785 272.141477 
L 198.814612 272.717791 
L 203.69256 272.76422 
L 207.48652 272.814335 
L 222.662359 272.905719 
L 225.914324 272.991945 
L 228.624295 272.951412 
L 257.349989 273.204931 
L 259.517966 273.252834 
L 271.44184 273.808513 
L 273.609816 273.97728 
L 289.869643 274.677406 
L 292.579615 274.728994 
L 305.587476 275.30015 
L 313.175395 275.83593 
L 324.01528 276.168306 
L 334.313171 276.272956 
L 376.046726 276.333388 
L 406.940398 276.334125 
L 406.940398 276.334125 
" style="fill:none;stroke:#000080;stroke-linecap:round;stroke-width:1.5;"/>
   </g>
   <g id="line2d_16">
    <path clip-path="url(#pffd86703e0)" d="M 82.285852 247.464621 
L 83.369841 197.351826 
L 84.453829 156.166004 
L 85.537818 122.543752 
L 86.621806 95.685451 
L 87.705795 75.047216 
L 88.789783 59.152149 
L 89.873772 47.8956 
L 90.415766 43.610093 
L 91.499754 37.924335 
L 92.041748 36.335418 
L 92.583743 35.39209 
L 93.125737 34.798826 
L 93.667731 34.86589 
L 94.209725 35.28007 
L 95.293714 37.953814 
L 96.377702 42.191417 
L 97.461691 47.341395 
L 98.545679 53.873201 
L 101.25565 72.506128 
L 106.675593 114.111289 
L 108.301575 126.400339 
L 110.469552 142.704427 
L 114.263512 167.407077 
L 115.889495 177.020173 
L 119.14146 194.185784 
L 121.309437 204.120938 
L 123.477414 213.161404 
L 126.187385 222.890942 
L 127.813368 228.028392 
L 129.981345 234.101799 
L 132.149322 239.492768 
L 134.317299 244.217511 
L 136.485276 248.197174 
L 138.653252 251.8592 
L 140.821229 254.937543 
L 142.989206 257.421147 
L 145.157183 259.654917 
L 147.32516 261.731711 
L 151.661114 264.833637 
L 153.829091 266.031221 
L 156.539062 267.338614 
L 160.333022 268.634952 
L 164.126981 269.649766 
L 166.836953 270.299777 
L 176.592849 271.703714 
L 182.554785 272.154742 
L 195.562647 272.704525 
L 198.814612 272.765694 
L 215.616434 272.815072 
L 218.326405 272.853394 
L 222.662359 272.882873 
L 226.456318 272.941831 
L 228.082301 272.912352 
L 230.250278 272.937409 
L 232.960249 272.980891 
L 249.76207 273.061958 
L 253.55603 273.172504 
L 255.724007 273.155554 
L 260.059961 273.270522 
L 283.907707 274.220482 
L 306.12947 275.076846 
L 316.969355 275.445334 
L 321.305309 275.760759 
L 327.267246 276.017963 
L 336.481147 276.20147 
L 352.19898 276.308331 
L 402.06245 276.334125 
L 406.940398 276.334125 
L 406.940398 276.334125 
" style="fill:none;stroke:#0000f1;stroke-linecap:round;stroke-width:1.5;"/>
   </g>
   <g id="line2d_17">
    <path clip-path="url(#pffd86703e0)" d="M 82.285852 247.523579 
L 83.369841 197.471216 
L 84.453829 155.94786 
L 85.537818 122.587233 
L 86.621806 96.059834 
L 87.705795 75.181346 
L 88.789783 59.358502 
L 89.873772 47.875702 
L 90.415766 43.461961 
L 90.95776 40.100621 
L 91.499754 37.656076 
L 92.041748 35.936714 
L 92.583743 35.008863 
L 93.125737 34.64922 
L 93.667731 34.745027 
L 94.209725 35.232904 
L 94.75172 36.348683 
L 95.293714 37.765148 
L 96.377702 41.861253 
L 97.461691 47.378981 
L 99.087673 57.129891 
L 100.171662 64.822432 
L 106.675593 114.85637 
L 109.385564 135.034733 
L 113.179524 161.163429 
L 115.3475 174.34864 
L 117.515477 186.521249 
L 120.767443 202.204804 
L 124.019408 215.432023 
L 125.103397 219.524442 
L 127.271374 226.650986 
L 128.355362 229.957054 
L 130.523339 235.770309 
L 133.23331 242.150298 
L 134.859293 245.488056 
L 136.485276 248.382892 
L 139.195247 252.727356 
L 141.363224 255.580922 
L 143.531201 258.039469 
L 145.699178 260.145742 
L 149.493137 263.234403 
L 153.829091 265.961945 
L 155.997068 267.061511 
L 159.249033 268.23846 
L 161.41701 268.953325 
L 164.668976 269.863489 
L 166.294958 270.26514 
L 167.920941 270.551086 
L 171.714901 271.194465 
L 173.340883 271.373549 
L 179.844814 272.067042 
L 191.226693 272.578503 
L 195.020653 272.647778 
L 203.69256 272.776749 
L 206.944526 272.800332 
L 232.418255 272.93962 
L 248.136088 273.047956 
L 250.304064 273.050903 
L 251.930047 273.059747 
L 257.891984 273.189455 
L 262.227938 273.367802 
L 265.479903 273.556468 
L 271.983834 274.018551 
L 278.487765 274.48653 
L 287.701667 274.643505 
L 292.03762 275.092323 
L 300.709528 275.786553 
L 305.045482 275.987747 
L 315.343372 276.193363 
L 340.275107 276.320859 
L 406.940398 276.334125 
L 406.940398 276.334125 
" style="fill:none;stroke:#004cff;stroke-linecap:round;stroke-width:1.5;"/>
   </g>
   <g id="line2d_18">
    <path clip-path="url(#pffd86703e0)" d="M 82.285852 247.86922 
L 83.369841 197.651038 
L 84.453829 156.194009 
L 85.537818 122.158314 
L 86.621806 95.918335 
L 87.705795 74.820965 
L 88.789783 59.258274 
L 89.873772 47.418041 
L 90.415766 43.332991 
L 90.95776 40.2178 
L 91.499754 37.799049 
L 92.041748 36.03768 
L 92.583743 35.052345 
L 93.125737 34.793667 
L 93.667731 35.096563 
L 94.209725 35.894707 
L 94.75172 37.072392 
L 95.835708 40.370353 
L 96.919697 44.980129 
L 98.545679 54.145144 
L 100.713656 68.959807 
L 104.507616 97.729819 
L 109.385564 135.080426 
L 112.095535 153.65071 
L 115.3475 173.941093 
L 118.057472 188.794078 
L 120.767443 202.07657 
L 122.93542 211.219476 
L 125.103397 219.24734 
L 127.271374 226.353986 
L 129.439351 232.556363 
L 131.607327 238.292236 
L 134.317299 244.23741 
L 135.943281 247.429983 
L 138.111258 251.106749 
L 139.737241 253.577825 
L 141.363224 255.719473 
L 144.073195 258.760967 
L 146.783166 261.275524 
L 147.867154 262.216641 
L 150.035131 263.692801 
L 151.11912 264.446726 
L 153.829091 265.986265 
L 155.997068 267.046772 
L 157.623051 267.68057 
L 160.333022 268.664431 
L 165.21097 269.94603 
L 169.00493 270.711746 
L 172.256895 271.223944 
L 174.424872 271.468619 
L 180.928803 272.125263 
L 203.69256 272.767905 
L 213.990451 272.901298 
L 216.700422 272.972047 
L 225.914324 273.056062 
L 229.166289 272.99563 
L 231.876261 272.972784 
L 237.296203 273.021424 
L 242.174151 273.016266 
L 246.510105 273.037638 
L 250.846059 273.046482 
L 254.640018 273.19314 
L 258.433978 273.152606 
L 270.899845 273.506354 
L 281.73973 274.448944 
L 284.449701 274.74226 
L 289.327649 275.129909 
L 293.663603 275.376058 
L 296.373574 275.491763 
L 298.541551 275.471865 
L 302.877505 275.582411 
L 305.587476 275.710645 
L 314.801378 276.06734 
L 335.397159 276.298013 
L 389.054588 276.334125 
L 406.940398 276.334125 
L 406.940398 276.334125 
" style="fill:none;stroke:#00b0ff;stroke-linecap:round;stroke-width:1.5;"/>
   </g>
   <g id="line2d_19">
    <path clip-path="url(#pffd86703e0)" d="M 82.285852 247.650339 
L 83.369841 197.276655 
L 84.453829 156.326665 
L 85.537818 122.633663 
L 86.621806 95.758412 
L 87.705795 75.09512 
L 88.789783 59.253852 
L 89.873772 48.261877 
L 90.95776 40.869285 
L 91.499754 38.302403 
L 92.041748 36.471021 
L 92.583743 35.333869 
L 93.125737 34.903476 
L 93.667731 35.229219 
L 94.209725 35.82322 
L 94.75172 36.88299 
L 95.835708 40.007762 
L 96.919697 44.671337 
L 98.545679 53.670533 
L 100.171662 64.853384 
L 102.881633 85.041328 
L 105.591604 105.756209 
L 109.927558 138.930381 
L 112.095535 153.79442 
L 114.805506 170.919497 
L 116.973483 183.26161 
L 119.14146 194.431196 
L 121.851431 206.8389 
L 123.477414 213.319854 
L 125.645391 221.246015 
L 127.271374 226.611927 
L 128.897356 231.385311 
L 130.523339 235.696612 
L 132.691316 240.763312 
L 134.859293 245.236747 
L 137.02727 249.188405 
L 138.653252 251.81056 
L 140.279235 254.050226 
L 142.447212 256.766714 
L 144.615189 259.161881 
L 148.409149 262.543857 
L 149.493137 263.38843 
L 153.287097 265.723903 
L 157.081056 267.455793 
L 159.791028 268.396172 
L 161.41701 268.915002 
L 165.21097 269.856856 
L 166.836953 270.259244 
L 174.966866 271.506942 
L 179.844814 271.934387 
L 182.012791 272.042722 
L 183.09678 272.142214 
L 186.890739 272.306559 
L 191.768687 272.605771 
L 200.982589 272.726635 
L 205.318543 272.759798 
L 210.196491 272.839392 
L 212.906462 272.823915 
L 270.357851 273.320636 
L 282.823718 273.678069 
L 286.617678 273.898424 
L 290.411638 274.093722 
L 302.335511 275.269197 
L 306.671465 275.638421 
L 312.633401 275.950161 
L 320.22132 276.151355 
L 341.90109 276.306857 
L 392.306553 276.334125 
L 406.940398 276.334125 
L 406.940398 276.334125 
" style="fill:none;stroke:#29ffce;stroke-linecap:round;stroke-width:1.5;"/>
   </g>
   <g id="line2d_20">
    <path clip-path="url(#pffd86703e0)" d="M 82.285852 247.539793 
L 83.369841 197.502169 
L 84.453829 155.955966 
L 85.537818 122.29318 
L 86.621806 95.208629 
L 87.705795 74.292554 
L 88.789783 58.721019 
L 89.873772 47.70325 
L 90.415766 43.377209 
L 90.95776 40.05935 
L 91.499754 37.780625 
L 92.041748 36.211606 
L 92.583743 35.115725 
L 93.125737 34.714811 
L 93.667731 34.789245 
L 94.75172 36.798975 
L 95.293714 38.188172 
L 95.835708 39.946593 
L 96.919697 45.061196 
L 98.003685 50.990893 
L 99.629668 60.82066 
L 101.25565 72.608568 
L 105.591604 106.395902 
L 108.84357 131.048438 
L 112.095535 153.565958 
L 114.263512 167.564052 
L 117.515477 185.939776 
L 119.683454 196.828574 
L 121.309437 204.210111 
L 124.561402 217.341524 
L 126.187385 222.96464 
L 128.355362 229.761019 
L 130.523339 235.718721 
L 132.691316 240.752994 
L 134.317299 244.136444 
L 138.111258 251.002836 
L 140.279235 254.113606 
L 143.531201 258.029151 
L 145.157183 259.681448 
L 147.867154 262.127467 
L 151.11912 264.526319 
L 153.287097 265.776228 
L 158.165045 267.937774 
L 160.333022 268.736654 
L 161.959004 269.211266 
L 163.584987 269.644607 
L 167.920941 270.559192 
L 174.966866 271.672761 
L 181.470797 272.126737 
L 210.196491 272.913089 
L 212.364468 272.90793 
L 219.410393 272.886558 
L 221.57837 272.921196 
L 224.830336 272.976469 
L 226.998312 272.969099 
L 230.250278 272.989735 
L 241.632157 272.989735 
L 243.258139 272.967625 
L 257.891984 273.103966 
L 260.059961 273.103229 
L 265.479903 273.182085 
L 267.64788 273.207142 
L 271.44184 273.280839 
L 277.94577 273.589632 
L 282.823718 273.956645 
L 287.159672 274.266911 
L 293.663603 274.98104 
L 306.12947 275.907417 
L 315.885367 276.166095 
L 334.313171 276.309805 
L 406.940398 276.334125 
L 406.940398 276.334125 
" style="fill:none;stroke:#7dff7a;stroke-linecap:round;stroke-width:1.5;"/>
   </g>
   <g id="line2d_21">
    <path clip-path="url(#pffd86703e0)" d="M 82.285852 247.581063 
L 83.369841 197.401941 
L 84.453829 156.056195 
L 85.537818 122.730943 
L 86.621806 96.025934 
L 87.705795 75.019948 
L 88.789783 59.438833 
L 89.873772 48.208077 
L 90.415766 43.994794 
L 90.95776 40.731471 
L 91.499754 38.226494 
L 92.041748 36.439331 
L 92.583743 35.268278 
L 93.125737 34.714074 
L 93.667731 34.761977 
L 94.209725 35.491582 
L 94.75172 36.80487 
L 95.835708 40.236224 
L 96.919697 44.934437 
L 98.545679 53.932159 
L 101.25565 72.604146 
L 110.469552 142.716219 
L 114.263512 167.180089 
L 115.889495 176.855827 
L 118.057472 188.711537 
L 120.767443 201.839264 
L 122.93542 210.982908 
L 125.645391 220.751505 
L 128.897356 230.841424 
L 132.149322 239.283467 
L 133.23331 241.749384 
L 135.401287 246.075424 
L 137.02727 249.035114 
L 138.653252 251.616736 
L 141.905218 256.149866 
L 143.531201 258.028414 
L 146.241172 260.657203 
L 147.867154 261.931432 
L 150.577126 263.913156 
L 153.287097 265.52713 
L 157.081056 267.431473 
L 161.41701 268.945955 
L 164.126981 269.657873 
L 166.294958 270.17744 
L 170.630912 270.942419 
L 177.676837 271.717716 
L 187.432733 272.390574 
L 191.226693 272.425949 
L 205.860537 272.79591 
L 213.448457 272.893191 
L 221.036376 272.944042 
L 226.998312 273.005948 
L 233.502243 272.968362 
L 235.67022 272.997841 
L 241.090162 273.000052 
L 247.052099 272.991945 
L 250.304064 272.961729 
L 264.395914 273.117968 
L 268.731868 273.190192 
L 273.609816 273.41718 
L 277.94577 273.757662 
L 282.823718 274.051715 
L 292.03762 274.521905 
L 296.915568 274.496847 
L 299.62554 274.423887 
L 302.335511 274.459262 
L 319.679326 274.664141 
L 322.389297 274.847647 
L 327.267246 275.119591 
L 338.10713 275.423224 
L 347.863026 274.756999 
L 350.572998 274.762895 
L 355.99294 274.995042 
L 369.000801 275.936896 
L 380.38268 276.200733 
L 391.222565 276.284011 
L 406.940398 276.323807 
L 406.940398 276.323807 
" style="fill:none;stroke:#ceff29;stroke-linecap:round;stroke-width:1.5;"/>
   </g>
   <g id="line2d_22">
    <path clip-path="url(#pffd86703e0)" d="M 82.285852 247.831635 
L 83.369841 197.637036 
L 84.453829 156.157897 
L 85.537818 122.579863 
L 86.621806 95.61028 
L 87.705795 74.820228 
L 88.789783 59.295122 
L 89.873772 48.163122 
L 90.415766 43.908568 
L 90.95776 40.657036 
L 91.499754 38.118896 
L 92.041748 36.486497 
L 92.583743 35.565279 
L 93.125737 35.205636 
L 93.667731 35.200477 
L 94.209725 35.738468 
L 94.75172 36.89994 
L 95.835708 40.198638 
L 96.919697 45.25281 
L 98.545679 54.188626 
L 100.713656 69.395359 
L 105.591604 106.401798 
L 108.84357 130.916519 
L 111.553541 150.304846 
L 114.805506 170.850959 
L 116.973483 182.986719 
L 119.683454 196.953123 
L 122.393426 208.912746 
L 125.103397 218.959183 
L 126.729379 224.5285 
L 129.439351 232.672805 
L 131.065333 236.84187 
L 133.23331 241.732433 
L 134.859293 244.982491 
L 137.02727 249.017427 
L 139.737241 253.154802 
L 141.905218 256.107122 
L 146.241172 260.676364 
L 148.409149 262.515852 
L 151.11912 264.460728 
L 152.745103 265.398897 
L 155.455074 266.816099 
L 158.707039 268.169184 
L 162.500999 269.318127 
L 167.378947 270.487706 
L 172.798889 271.281428 
L 179.844814 271.949863 
L 184.180768 272.17243 
L 187.432733 272.274869 
L 192.310682 272.477537 
L 200.440595 272.710421 
L 202.608572 272.730319 
L 210.738485 272.829811 
L 219.952387 272.90793 
L 226.456318 272.977206 
L 235.128226 273.036901 
L 237.296203 273.074487 
L 242.716145 273.050903 
L 260.059961 273.203457 
L 263.85392 273.298527 
L 266.563891 273.477612 
L 269.815857 273.55352 
L 273.067822 273.83357 
L 276.319788 274.01634 
L 278.487765 274.244065 
L 281.73973 274.5816 
L 285.53369 274.918397 
L 287.701667 275.062107 
L 296.915568 275.577989 
L 308.297447 276.013541 
L 315.343372 276.173465 
L 328.351234 276.292854 
L 384.17664 276.334125 
L 406.940398 276.334125 
L 406.940398 276.334125 
" style="fill:none;stroke:#ffc400;stroke-linecap:round;stroke-width:1.5;"/>
   </g>
   <g id="line2d_23">
    <path clip-path="url(#pffd86703e0)" d="M 82.285852 247.381343 
L 83.369841 197.235384 
L 84.453829 155.874162 
L 85.537818 122.667563 
L 86.621806 96.19986 
L 87.705795 75.230723 
L 88.789783 59.543483 
L 89.873772 48.518344 
L 90.95776 41.091851 
L 91.499754 38.43948 
L 92.041748 36.745912 
L 92.583743 35.672878 
L 93.125737 35.204899 
L 93.667731 35.431887 
L 94.209725 36.04505 
L 94.75172 37.286115 
L 95.835708 40.533225 
L 96.919697 45.170268 
L 98.003685 50.923092 
L 99.087673 57.711364 
L 100.713656 68.443924 
L 109.927558 138.555997 
L 112.095535 153.66545 
L 114.805506 170.746308 
L 116.973483 183.042729 
L 120.767443 201.943178 
L 122.393426 208.878108 
L 124.019408 215.20872 
L 126.187385 222.852619 
L 127.813368 227.830146 
L 130.523339 235.437197 
L 132.691316 240.578331 
L 135.943281 247.227315 
L 137.02727 249.15303 
L 140.821229 254.750352 
L 142.447212 256.676066 
L 146.241172 260.649096 
L 147.867154 262.019132 
L 150.035131 263.641212 
L 153.287097 265.682632 
L 155.997068 266.967916 
L 158.165045 267.855233 
L 164.126981 269.790528 
L 167.920941 270.599726 
L 178.760826 271.898275 
L 189.058716 272.467957 
L 191.768687 272.551235 
L 202.608572 272.76422 
L 204.234555 272.73253 
L 206.402532 272.782645 
L 210.196491 272.835707 
L 214.532445 272.81065 
L 241.632157 272.970573 
L 243.800134 272.944779 
L 260.601955 272.977206 
L 262.769932 272.969099 
L 267.64788 273.135655 
L 270.357851 273.2661 
L 274.151811 273.412758 
L 286.075684 274.261753 
L 297.457563 275.591255 
L 304.503488 275.958268 
L 314.801378 276.20147 
L 325.099269 276.290644 
L 346.779038 276.33044 
L 406.940398 276.334125 
L 406.940398 276.334125 
" style="fill:none;stroke:#ff6800;stroke-linecap:round;stroke-width:1.5;"/>
   </g>
   <g id="line2d_24">
    <path clip-path="url(#pffd86703e0)" d="M 82.285852 247.556743 
L 83.369841 197.412995 
L 84.453829 156.064302 
L 85.537818 122.646191 
L 86.621806 95.636811 
L 87.705795 74.813595 
L 88.789783 59.324601 
L 89.331777 52.764791 
L 90.415766 43.464909 
L 90.95776 40.037241 
L 91.499754 37.533001 
L 92.041748 35.944821 
L 92.583743 35.003705 
L 93.125737 34.497403 
L 93.667731 34.574048 
L 94.209725 35.19974 
L 94.75172 36.348683 
L 95.835708 39.752769 
L 96.919697 44.436979 
L 98.545679 53.447966 
L 99.629668 60.750647 
L 101.797645 76.936082 
L 106.133599 110.548754 
L 109.385564 135.136436 
L 113.179524 160.833264 
L 116.431489 180.212009 
L 118.599466 191.826728 
L 121.309437 204.33466 
L 122.93542 211.119248 
L 125.645391 220.864262 
L 128.355362 229.314412 
L 129.981345 234.005992 
L 132.149322 239.290837 
L 133.775304 242.890957 
L 136.485276 248.073362 
L 138.111258 250.794272 
L 139.737241 253.127534 
L 142.989206 257.323867 
L 144.615189 259.091869 
L 147.867154 262.050821 
L 150.577126 264.006015 
L 155.455074 266.631855 
L 159.249033 268.154445 
L 160.875016 268.727811 
L 166.836953 270.214288 
L 169.00493 270.701429 
L 170.088918 270.964528 
L 182.012791 272.151058 
L 196.646635 272.697893 
L 200.440595 272.736952 
L 205.318543 272.848235 
L 208.570509 272.895402 
L 211.822474 272.88361 
L 216.158428 272.948464 
L 222.662359 272.988261 
L 238.380191 273.070802 
L 240.006174 273.079645 
L 249.76207 273.148921 
L 252.472041 273.199772 
L 276.319788 274.207216 
L 290.953632 275.250772 
L 295.83158 275.673796 
L 303.419499 276.022385 
L 311.549413 276.202207 
L 321.305309 276.279589 
L 344.611061 276.329703 
L 406.940398 276.334125 
L 406.940398 276.334125 
" style="fill:none;stroke:#f10800;stroke-linecap:round;stroke-width:1.5;"/>
   </g>
   <g id="patch_3">
    <path d="M 66.053125 288.430125 
L 66.053125 22.318125 
" style="fill:none;stroke:#cccccc;stroke-linecap:square;stroke-linejoin:miter;stroke-width:0.8;"/>
   </g>
   <g id="patch_4">
    <path d="M 423.173125 288.430125 
L 423.173125 22.318125 
" style="fill:none;stroke:#cccccc;stroke-linecap:square;stroke-linejoin:miter;stroke-width:0.8;"/>
   </g>
   <g id="patch_5">
    <path d="M 66.053125 288.430125 
L 423.173125 288.430125 
" style="fill:none;stroke:#cccccc;stroke-linecap:square;stroke-linejoin:miter;stroke-width:0.8;"/>
   </g>
   <g id="patch_6">
    <path d="M 66.053125 22.318125 
L 423.173125 22.318125 
" style="fill:none;stroke:#cccccc;stroke-linecap:square;stroke-linejoin:miter;stroke-width:0.8;"/>
   </g>
   <g id="text_17">
    <!-- Mature APC -->
    <defs>
     <path d="M 9.8125 72.90625 
L 24.515625 72.90625 
L 43.109375 23.296875 
L 61.8125 72.90625 
L 76.515625 72.90625 
L 76.515625 0 
L 66.890625 0 
L 66.890625 64.015625 
L 48.09375 14.015625 
L 38.1875 14.015625 
L 19.390625 64.015625 
L 19.390625 0 
L 9.8125 0 
z
" id="DejaVuSans-77"/>
     <path d="M 34.1875 63.1875 
L 20.796875 26.90625 
L 47.609375 26.90625 
z
M 28.609375 72.90625 
L 39.796875 72.90625 
L 67.578125 0 
L 57.328125 0 
L 50.6875 18.703125 
L 17.828125 18.703125 
L 11.1875 0 
L 0.78125 0 
z
" id="DejaVuSans-65"/>
     <path d="M 19.671875 64.796875 
L 19.671875 37.40625 
L 32.078125 37.40625 
Q 38.96875 37.40625 42.71875 40.96875 
Q 46.484375 44.53125 46.484375 51.125 
Q 46.484375 57.671875 42.71875 61.234375 
Q 38.96875 64.796875 32.078125 64.796875 
z
M 9.8125 72.90625 
L 32.078125 72.90625 
Q 44.34375 72.90625 50.609375 67.359375 
Q 56.890625 61.8125 56.890625 51.125 
Q 56.890625 40.328125 50.609375 34.8125 
Q 44.34375 29.296875 32.078125 29.296875 
L 19.671875 29.296875 
L 19.671875 0 
L 9.8125 0 
z
" id="DejaVuSans-80"/>
     <path d="M 64.40625 67.28125 
L 64.40625 56.890625 
Q 59.421875 61.53125 53.78125 63.8125 
Q 48.140625 66.109375 41.796875 66.109375 
Q 29.296875 66.109375 22.65625 58.46875 
Q 16.015625 50.828125 16.015625 36.375 
Q 16.015625 21.96875 22.65625 14.328125 
Q 29.296875 6.6875 41.796875 6.6875 
Q 48.140625 6.6875 53.78125 8.984375 
Q 59.421875 11.28125 64.40625 15.921875 
L 64.40625 5.609375 
Q 59.234375 2.09375 53.4375 0.328125 
Q 47.65625 -1.421875 41.21875 -1.421875 
Q 24.65625 -1.421875 15.125 8.703125 
Q 5.609375 18.84375 5.609375 36.375 
Q 5.609375 53.953125 15.125 64.078125 
Q 24.65625 74.21875 41.21875 74.21875 
Q 47.75 74.21875 53.53125 72.484375 
Q 59.328125 70.75 64.40625 67.28125 
z
" id="DejaVuSans-67"/>
    </defs>
    <g style="fill:#262626;" transform="translate(209.629375 16.318125)scale(0.12 -0.12)">
     <use xlink:href="#DejaVuSans-77"/>
     <use x="86.279297" xlink:href="#DejaVuSans-97"/>
     <use x="147.558594" xlink:href="#DejaVuSans-116"/>
     <use x="186.767578" xlink:href="#DejaVuSans-117"/>
     <use x="250.146484" xlink:href="#DejaVuSans-114"/>
     <use x="291.228516" xlink:href="#DejaVuSans-101"/>
     <use x="352.751953" xlink:href="#DejaVuSans-32"/>
     <use x="384.539062" xlink:href="#DejaVuSans-65"/>
     <use x="452.947266" xlink:href="#DejaVuSans-80"/>
     <use x="513.25" xlink:href="#DejaVuSans-67"/>
    </g>
   </g>
  </g>
 </g>
 <defs>
  <clipPath id="pffd86703e0">
   <rect height="266.112" width="357.12" x="66.053125" y="22.318125"/>
  </clipPath>
 </defs>
</svg>
