<?xml version="1.0" encoding="utf-8" standalone="no"?>
<!DOCTYPE svg PUBLIC "-//W3C//DTD SVG 1.1//EN"
  "http://www.w3.org/Graphics/SVG/1.1/DTD/svg11.dtd">
<!-- Created with matplotlib (https://matplotlib.org/) -->
<svg height="325.986375pt" version="1.1" viewBox="0 0 404.923125 325.986375" width="404.923125pt" xmlns="http://www.w3.org/2000/svg" xmlns:xlink="http://www.w3.org/1999/xlink">
 <defs>
  <style type="text/css">
*{stroke-linecap:butt;stroke-linejoin:round;white-space:pre;}
  </style>
 </defs>
 <g id="figure_1">
  <g id="patch_1">
   <path d="M 0 325.986375 
L 404.923125 325.986375 
L 404.923125 0 
L 0 0 
z
" style="fill:#ffffff;"/>
  </g>
  <g id="axes_1">
   <g id="patch_2">
    <path d="M 40.603125 288.430125 
L 397.723125 288.430125 
L 397.723125 22.318125 
L 40.603125 22.318125 
z
" style="fill:#ffffff;"/>
   </g>
   <g id="matplotlib.axis_1">
    <g id="xtick_1">
     <g id="line2d_1">
      <path clip-path="url(#pa244dcaf20)" d="M 56.835852 288.430125 
L 56.835852 22.318125 
" style="fill:none;stroke:#cccccc;stroke-linecap:round;stroke-width:0.8;"/>
     </g>
     <g id="text_1">
      <!-- 0 -->
      <defs>
       <path d="M 31.78125 66.40625 
Q 24.171875 66.40625 20.328125 58.90625 
Q 16.5 51.421875 16.5 36.375 
Q 16.5 21.390625 20.328125 13.890625 
Q 24.171875 6.390625 31.78125 6.390625 
Q 39.453125 6.390625 43.28125 13.890625 
Q 47.125 21.390625 47.125 36.375 
Q 47.125 51.421875 43.28125 58.90625 
Q 39.453125 66.40625 31.78125 66.40625 
z
M 31.78125 74.21875 
Q 44.046875 74.21875 50.515625 64.515625 
Q 56.984375 54.828125 56.984375 36.375 
Q 56.984375 17.96875 50.515625 8.265625 
Q 44.046875 -1.421875 31.78125 -1.421875 
Q 19.53125 -1.421875 13.0625 8.265625 
Q 6.59375 17.96875 6.59375 36.375 
Q 6.59375 54.828125 13.0625 64.515625 
Q 19.53125 74.21875 31.78125 74.21875 
z
" id="DejaVuSans-48"/>
      </defs>
      <g style="fill:#262626;" transform="translate(53.654602 303.028562)scale(0.1 -0.1)">
       <use xlink:href="#DejaVuSans-48"/>
      </g>
     </g>
    </g>
    <g id="xtick_2">
     <g id="line2d_2">
      <path clip-path="url(#pa244dcaf20)" d="M 97.519379 288.430125 
L 97.519379 22.318125 
" style="fill:none;stroke:#cccccc;stroke-linecap:round;stroke-width:0.8;"/>
     </g>
     <g id="text_2">
      <!-- 5 -->
      <defs>
       <path d="M 10.796875 72.90625 
L 49.515625 72.90625 
L 49.515625 64.59375 
L 19.828125 64.59375 
L 19.828125 46.734375 
Q 21.96875 47.46875 24.109375 47.828125 
Q 26.265625 48.1875 28.421875 48.1875 
Q 40.625 48.1875 47.75 41.5 
Q 54.890625 34.8125 54.890625 23.390625 
Q 54.890625 11.625 47.5625 5.09375 
Q 40.234375 -1.421875 26.90625 -1.421875 
Q 22.3125 -1.421875 17.546875 -0.640625 
Q 12.796875 0.140625 7.71875 1.703125 
L 7.71875 11.625 
Q 12.109375 9.234375 16.796875 8.0625 
Q 21.484375 6.890625 26.703125 6.890625 
Q 35.15625 6.890625 40.078125 11.328125 
Q 45.015625 15.765625 45.015625 23.390625 
Q 45.015625 31 40.078125 35.4375 
Q 35.15625 39.890625 26.703125 39.890625 
Q 22.75 39.890625 18.8125 39.015625 
Q 14.890625 38.140625 10.796875 36.28125 
z
" id="DejaVuSans-53"/>
      </defs>
      <g style="fill:#262626;" transform="translate(94.338129 303.028562)scale(0.1 -0.1)">
       <use xlink:href="#DejaVuSans-53"/>
      </g>
     </g>
    </g>
    <g id="xtick_3">
     <g id="line2d_3">
      <path clip-path="url(#pa244dcaf20)" d="M 138.202906 288.430125 
L 138.202906 22.318125 
" style="fill:none;stroke:#cccccc;stroke-linecap:round;stroke-width:0.8;"/>
     </g>
     <g id="text_3">
      <!-- 10 -->
      <defs>
       <path d="M 12.40625 8.296875 
L 28.515625 8.296875 
L 28.515625 63.921875 
L 10.984375 60.40625 
L 10.984375 69.390625 
L 28.421875 72.90625 
L 38.28125 72.90625 
L 38.28125 8.296875 
L 54.390625 8.296875 
L 54.390625 0 
L 12.40625 0 
z
" id="DejaVuSans-49"/>
      </defs>
      <g style="fill:#262626;" transform="translate(131.840406 303.028562)scale(0.1 -0.1)">
       <use xlink:href="#DejaVuSans-49"/>
       <use x="63.623047" xlink:href="#DejaVuSans-48"/>
      </g>
     </g>
    </g>
    <g id="xtick_4">
     <g id="line2d_4">
      <path clip-path="url(#pa244dcaf20)" d="M 178.886433 288.430125 
L 178.886433 22.318125 
" style="fill:none;stroke:#cccccc;stroke-linecap:round;stroke-width:0.8;"/>
     </g>
     <g id="text_4">
      <!-- 15 -->
      <g style="fill:#262626;" transform="translate(172.523933 303.028562)scale(0.1 -0.1)">
       <use xlink:href="#DejaVuSans-49"/>
       <use x="63.623047" xlink:href="#DejaVuSans-53"/>
      </g>
     </g>
    </g>
    <g id="xtick_5">
     <g id="line2d_5">
      <path clip-path="url(#pa244dcaf20)" d="M 219.56996 288.430125 
L 219.56996 22.318125 
" style="fill:none;stroke:#cccccc;stroke-linecap:round;stroke-width:0.8;"/>
     </g>
     <g id="text_5">
      <!-- 20 -->
      <defs>
       <path d="M 19.1875 8.296875 
L 53.609375 8.296875 
L 53.609375 0 
L 7.328125 0 
L 7.328125 8.296875 
Q 12.9375 14.109375 22.625 23.890625 
Q 32.328125 33.6875 34.8125 36.53125 
Q 39.546875 41.84375 41.421875 45.53125 
Q 43.3125 49.21875 43.3125 52.78125 
Q 43.3125 58.59375 39.234375 62.25 
Q 35.15625 65.921875 28.609375 65.921875 
Q 23.96875 65.921875 18.8125 64.3125 
Q 13.671875 62.703125 7.8125 59.421875 
L 7.8125 69.390625 
Q 13.765625 71.78125 18.9375 73 
Q 24.125 74.21875 28.421875 74.21875 
Q 39.75 74.21875 46.484375 68.546875 
Q 53.21875 62.890625 53.21875 53.421875 
Q 53.21875 48.921875 51.53125 44.890625 
Q 49.859375 40.875 45.40625 35.40625 
Q 44.1875 33.984375 37.640625 27.21875 
Q 31.109375 20.453125 19.1875 8.296875 
z
" id="DejaVuSans-50"/>
      </defs>
      <g style="fill:#262626;" transform="translate(213.20746 303.028562)scale(0.1 -0.1)">
       <use xlink:href="#DejaVuSans-50"/>
       <use x="63.623047" xlink:href="#DejaVuSans-48"/>
      </g>
     </g>
    </g>
    <g id="xtick_6">
     <g id="line2d_6">
      <path clip-path="url(#pa244dcaf20)" d="M 260.253487 288.430125 
L 260.253487 22.318125 
" style="fill:none;stroke:#cccccc;stroke-linecap:round;stroke-width:0.8;"/>
     </g>
     <g id="text_6">
      <!-- 25 -->
      <g style="fill:#262626;" transform="translate(253.890987 303.028562)scale(0.1 -0.1)">
       <use xlink:href="#DejaVuSans-50"/>
       <use x="63.623047" xlink:href="#DejaVuSans-53"/>
      </g>
     </g>
    </g>
    <g id="xtick_7">
     <g id="line2d_7">
      <path clip-path="url(#pa244dcaf20)" d="M 300.937014 288.430125 
L 300.937014 22.318125 
" style="fill:none;stroke:#cccccc;stroke-linecap:round;stroke-width:0.8;"/>
     </g>
     <g id="text_7">
      <!-- 30 -->
      <defs>
       <path d="M 40.578125 39.3125 
Q 47.65625 37.796875 51.625 33 
Q 55.609375 28.21875 55.609375 21.1875 
Q 55.609375 10.40625 48.1875 4.484375 
Q 40.765625 -1.421875 27.09375 -1.421875 
Q 22.515625 -1.421875 17.65625 -0.515625 
Q 12.796875 0.390625 7.625 2.203125 
L 7.625 11.71875 
Q 11.71875 9.328125 16.59375 8.109375 
Q 21.484375 6.890625 26.8125 6.890625 
Q 36.078125 6.890625 40.9375 10.546875 
Q 45.796875 14.203125 45.796875 21.1875 
Q 45.796875 27.640625 41.28125 31.265625 
Q 36.765625 34.90625 28.71875 34.90625 
L 20.21875 34.90625 
L 20.21875 43.015625 
L 29.109375 43.015625 
Q 36.375 43.015625 40.234375 45.921875 
Q 44.09375 48.828125 44.09375 54.296875 
Q 44.09375 59.90625 40.109375 62.90625 
Q 36.140625 65.921875 28.71875 65.921875 
Q 24.65625 65.921875 20.015625 65.03125 
Q 15.375 64.15625 9.8125 62.3125 
L 9.8125 71.09375 
Q 15.4375 72.65625 20.34375 73.4375 
Q 25.25 74.21875 29.59375 74.21875 
Q 40.828125 74.21875 47.359375 69.109375 
Q 53.90625 64.015625 53.90625 55.328125 
Q 53.90625 49.265625 50.4375 45.09375 
Q 46.96875 40.921875 40.578125 39.3125 
z
" id="DejaVuSans-51"/>
      </defs>
      <g style="fill:#262626;" transform="translate(294.574514 303.028562)scale(0.1 -0.1)">
       <use xlink:href="#DejaVuSans-51"/>
       <use x="63.623047" xlink:href="#DejaVuSans-48"/>
      </g>
     </g>
    </g>
    <g id="xtick_8">
     <g id="line2d_8">
      <path clip-path="url(#pa244dcaf20)" d="M 341.620541 288.430125 
L 341.620541 22.318125 
" style="fill:none;stroke:#cccccc;stroke-linecap:round;stroke-width:0.8;"/>
     </g>
     <g id="text_8">
      <!-- 35 -->
      <g style="fill:#262626;" transform="translate(335.258041 303.028562)scale(0.1 -0.1)">
       <use xlink:href="#DejaVuSans-51"/>
       <use x="63.623047" xlink:href="#DejaVuSans-53"/>
      </g>
     </g>
    </g>
    <g id="xtick_9">
     <g id="line2d_9">
      <path clip-path="url(#pa244dcaf20)" d="M 382.304068 288.430125 
L 382.304068 22.318125 
" style="fill:none;stroke:#cccccc;stroke-linecap:round;stroke-width:0.8;"/>
     </g>
     <g id="text_9">
      <!-- 40 -->
      <defs>
       <path d="M 37.796875 64.3125 
L 12.890625 25.390625 
L 37.796875 25.390625 
z
M 35.203125 72.90625 
L 47.609375 72.90625 
L 47.609375 25.390625 
L 58.015625 25.390625 
L 58.015625 17.1875 
L 47.609375 17.1875 
L 47.609375 0 
L 37.796875 0 
L 37.796875 17.1875 
L 4.890625 17.1875 
L 4.890625 26.703125 
z
" id="DejaVuSans-52"/>
      </defs>
      <g style="fill:#262626;" transform="translate(375.941568 303.028562)scale(0.1 -0.1)">
       <use xlink:href="#DejaVuSans-52"/>
       <use x="63.623047" xlink:href="#DejaVuSans-48"/>
      </g>
     </g>
    </g>
    <g id="text_10">
     <!-- time (days) -->
     <defs>
      <path d="M 18.3125 70.21875 
L 18.3125 54.6875 
L 36.8125 54.6875 
L 36.8125 47.703125 
L 18.3125 47.703125 
L 18.3125 18.015625 
Q 18.3125 11.328125 20.140625 9.421875 
Q 21.96875 7.515625 27.59375 7.515625 
L 36.8125 7.515625 
L 36.8125 0 
L 27.59375 0 
Q 17.1875 0 13.234375 3.875 
Q 9.28125 7.765625 9.28125 18.015625 
L 9.28125 47.703125 
L 2.6875 47.703125 
L 2.6875 54.6875 
L 9.28125 54.6875 
L 9.28125 70.21875 
z
" id="DejaVuSans-116"/>
      <path d="M 9.421875 54.6875 
L 18.40625 54.6875 
L 18.40625 0 
L 9.421875 0 
z
M 9.421875 75.984375 
L 18.40625 75.984375 
L 18.40625 64.59375 
L 9.421875 64.59375 
z
" id="DejaVuSans-105"/>
      <path d="M 52 44.1875 
Q 55.375 50.25 60.0625 53.125 
Q 64.75 56 71.09375 56 
Q 79.640625 56 84.28125 50.015625 
Q 88.921875 44.046875 88.921875 33.015625 
L 88.921875 0 
L 79.890625 0 
L 79.890625 32.71875 
Q 79.890625 40.578125 77.09375 44.375 
Q 74.3125 48.1875 68.609375 48.1875 
Q 61.625 48.1875 57.5625 43.546875 
Q 53.515625 38.921875 53.515625 30.90625 
L 53.515625 0 
L 44.484375 0 
L 44.484375 32.71875 
Q 44.484375 40.625 41.703125 44.40625 
Q 38.921875 48.1875 33.109375 48.1875 
Q 26.21875 48.1875 22.15625 43.53125 
Q 18.109375 38.875 18.109375 30.90625 
L 18.109375 0 
L 9.078125 0 
L 9.078125 54.6875 
L 18.109375 54.6875 
L 18.109375 46.1875 
Q 21.1875 51.21875 25.484375 53.609375 
Q 29.78125 56 35.6875 56 
Q 41.65625 56 45.828125 52.96875 
Q 50 49.953125 52 44.1875 
z
" id="DejaVuSans-109"/>
      <path d="M 56.203125 29.59375 
L 56.203125 25.203125 
L 14.890625 25.203125 
Q 15.484375 15.921875 20.484375 11.0625 
Q 25.484375 6.203125 34.421875 6.203125 
Q 39.59375 6.203125 44.453125 7.46875 
Q 49.3125 8.734375 54.109375 11.28125 
L 54.109375 2.78125 
Q 49.265625 0.734375 44.1875 -0.34375 
Q 39.109375 -1.421875 33.890625 -1.421875 
Q 20.796875 -1.421875 13.15625 6.1875 
Q 5.515625 13.8125 5.515625 26.8125 
Q 5.515625 40.234375 12.765625 48.109375 
Q 20.015625 56 32.328125 56 
Q 43.359375 56 49.78125 48.890625 
Q 56.203125 41.796875 56.203125 29.59375 
z
M 47.21875 32.234375 
Q 47.125 39.59375 43.09375 43.984375 
Q 39.0625 48.390625 32.421875 48.390625 
Q 24.90625 48.390625 20.390625 44.140625 
Q 15.875 39.890625 15.1875 32.171875 
z
" id="DejaVuSans-101"/>
      <path id="DejaVuSans-32"/>
      <path d="M 31 75.875 
Q 24.46875 64.65625 21.28125 53.65625 
Q 18.109375 42.671875 18.109375 31.390625 
Q 18.109375 20.125 21.3125 9.0625 
Q 24.515625 -2 31 -13.1875 
L 23.1875 -13.1875 
Q 15.875 -1.703125 12.234375 9.375 
Q 8.59375 20.453125 8.59375 31.390625 
Q 8.59375 42.28125 12.203125 53.3125 
Q 15.828125 64.359375 23.1875 75.875 
z
" id="DejaVuSans-40"/>
      <path d="M 45.40625 46.390625 
L 45.40625 75.984375 
L 54.390625 75.984375 
L 54.390625 0 
L 45.40625 0 
L 45.40625 8.203125 
Q 42.578125 3.328125 38.25 0.953125 
Q 33.9375 -1.421875 27.875 -1.421875 
Q 17.96875 -1.421875 11.734375 6.484375 
Q 5.515625 14.40625 5.515625 27.296875 
Q 5.515625 40.1875 11.734375 48.09375 
Q 17.96875 56 27.875 56 
Q 33.9375 56 38.25 53.625 
Q 42.578125 51.265625 45.40625 46.390625 
z
M 14.796875 27.296875 
Q 14.796875 17.390625 18.875 11.75 
Q 22.953125 6.109375 30.078125 6.109375 
Q 37.203125 6.109375 41.296875 11.75 
Q 45.40625 17.390625 45.40625 27.296875 
Q 45.40625 37.203125 41.296875 42.84375 
Q 37.203125 48.484375 30.078125 48.484375 
Q 22.953125 48.484375 18.875 42.84375 
Q 14.796875 37.203125 14.796875 27.296875 
z
" id="DejaVuSans-100"/>
      <path d="M 34.28125 27.484375 
Q 23.390625 27.484375 19.1875 25 
Q 14.984375 22.515625 14.984375 16.5 
Q 14.984375 11.71875 18.140625 8.90625 
Q 21.296875 6.109375 26.703125 6.109375 
Q 34.1875 6.109375 38.703125 11.40625 
Q 43.21875 16.703125 43.21875 25.484375 
L 43.21875 27.484375 
z
M 52.203125 31.203125 
L 52.203125 0 
L 43.21875 0 
L 43.21875 8.296875 
Q 40.140625 3.328125 35.546875 0.953125 
Q 30.953125 -1.421875 24.3125 -1.421875 
Q 15.921875 -1.421875 10.953125 3.296875 
Q 6 8.015625 6 15.921875 
Q 6 25.140625 12.171875 29.828125 
Q 18.359375 34.515625 30.609375 34.515625 
L 43.21875 34.515625 
L 43.21875 35.40625 
Q 43.21875 41.609375 39.140625 45 
Q 35.0625 48.390625 27.6875 48.390625 
Q 23 48.390625 18.546875 47.265625 
Q 14.109375 46.140625 10.015625 43.890625 
L 10.015625 52.203125 
Q 14.9375 54.109375 19.578125 55.046875 
Q 24.21875 56 28.609375 56 
Q 40.484375 56 46.34375 49.84375 
Q 52.203125 43.703125 52.203125 31.203125 
z
" id="DejaVuSans-97"/>
      <path d="M 32.171875 -5.078125 
Q 28.375 -14.84375 24.75 -17.8125 
Q 21.140625 -20.796875 15.09375 -20.796875 
L 7.90625 -20.796875 
L 7.90625 -13.28125 
L 13.1875 -13.28125 
Q 16.890625 -13.28125 18.9375 -11.515625 
Q 21 -9.765625 23.484375 -3.21875 
L 25.09375 0.875 
L 2.984375 54.6875 
L 12.5 54.6875 
L 29.59375 11.921875 
L 46.6875 54.6875 
L 56.203125 54.6875 
z
" id="DejaVuSans-121"/>
      <path d="M 44.28125 53.078125 
L 44.28125 44.578125 
Q 40.484375 46.53125 36.375 47.5 
Q 32.28125 48.484375 27.875 48.484375 
Q 21.1875 48.484375 17.84375 46.4375 
Q 14.5 44.390625 14.5 40.28125 
Q 14.5 37.15625 16.890625 35.375 
Q 19.28125 33.59375 26.515625 31.984375 
L 29.59375 31.296875 
Q 39.15625 29.25 43.1875 25.515625 
Q 47.21875 21.78125 47.21875 15.09375 
Q 47.21875 7.46875 41.1875 3.015625 
Q 35.15625 -1.421875 24.609375 -1.421875 
Q 20.21875 -1.421875 15.453125 -0.5625 
Q 10.6875 0.296875 5.421875 2 
L 5.421875 11.28125 
Q 10.40625 8.6875 15.234375 7.390625 
Q 20.0625 6.109375 24.8125 6.109375 
Q 31.15625 6.109375 34.5625 8.28125 
Q 37.984375 10.453125 37.984375 14.40625 
Q 37.984375 18.0625 35.515625 20.015625 
Q 33.0625 21.96875 24.703125 23.78125 
L 21.578125 24.515625 
Q 13.234375 26.265625 9.515625 29.90625 
Q 5.8125 33.546875 5.8125 39.890625 
Q 5.8125 47.609375 11.28125 51.796875 
Q 16.75 56 26.8125 56 
Q 31.78125 56 36.171875 55.265625 
Q 40.578125 54.546875 44.28125 53.078125 
z
" id="DejaVuSans-115"/>
      <path d="M 8.015625 75.875 
L 15.828125 75.875 
Q 23.140625 64.359375 26.78125 53.3125 
Q 30.421875 42.28125 30.421875 31.390625 
Q 30.421875 20.453125 26.78125 9.375 
Q 23.140625 -1.703125 15.828125 -13.1875 
L 8.015625 -13.1875 
Q 14.5 -2 17.703125 9.0625 
Q 20.90625 20.125 20.90625 31.390625 
Q 20.90625 42.671875 17.703125 53.65625 
Q 14.5 64.65625 8.015625 75.875 
z
" id="DejaVuSans-41"/>
     </defs>
     <g style="fill:#262626;" transform="translate(190.574062 316.706687)scale(0.1 -0.1)">
      <use xlink:href="#DejaVuSans-116"/>
      <use x="39.208984" xlink:href="#DejaVuSans-105"/>
      <use x="66.992188" xlink:href="#DejaVuSans-109"/>
      <use x="164.404297" xlink:href="#DejaVuSans-101"/>
      <use x="225.927734" xlink:href="#DejaVuSans-32"/>
      <use x="257.714844" xlink:href="#DejaVuSans-40"/>
      <use x="296.728516" xlink:href="#DejaVuSans-100"/>
      <use x="360.205078" xlink:href="#DejaVuSans-97"/>
      <use x="421.484375" xlink:href="#DejaVuSans-121"/>
      <use x="480.664062" xlink:href="#DejaVuSans-115"/>
      <use x="532.763672" xlink:href="#DejaVuSans-41"/>
     </g>
    </g>
   </g>
   <g id="matplotlib.axis_2">
    <g id="ytick_1">
     <g id="line2d_10">
      <path clip-path="url(#pa244dcaf20)" d="M 40.603125 276.334125 
L 397.723125 276.334125 
" style="fill:none;stroke:#cccccc;stroke-linecap:round;stroke-width:0.8;"/>
     </g>
     <g id="text_11">
      <!-- 0 -->
      <g style="fill:#262626;" transform="translate(27.240625 280.133344)scale(0.1 -0.1)">
       <use xlink:href="#DejaVuSans-48"/>
      </g>
     </g>
    </g>
    <g id="ytick_2">
     <g id="line2d_11">
      <path clip-path="url(#pa244dcaf20)" d="M 40.603125 244.502546 
L 397.723125 244.502546 
" style="fill:none;stroke:#cccccc;stroke-linecap:round;stroke-width:0.8;"/>
     </g>
     <g id="text_12">
      <!-- 10 -->
      <g style="fill:#262626;" transform="translate(20.878125 248.301765)scale(0.1 -0.1)">
       <use xlink:href="#DejaVuSans-49"/>
       <use x="63.623047" xlink:href="#DejaVuSans-48"/>
      </g>
     </g>
    </g>
    <g id="ytick_3">
     <g id="line2d_12">
      <path clip-path="url(#pa244dcaf20)" d="M 40.603125 212.670967 
L 397.723125 212.670967 
" style="fill:none;stroke:#cccccc;stroke-linecap:round;stroke-width:0.8;"/>
     </g>
     <g id="text_13">
      <!-- 20 -->
      <g style="fill:#262626;" transform="translate(20.878125 216.470186)scale(0.1 -0.1)">
       <use xlink:href="#DejaVuSans-50"/>
       <use x="63.623047" xlink:href="#DejaVuSans-48"/>
      </g>
     </g>
    </g>
    <g id="ytick_4">
     <g id="line2d_13">
      <path clip-path="url(#pa244dcaf20)" d="M 40.603125 180.839388 
L 397.723125 180.839388 
" style="fill:none;stroke:#cccccc;stroke-linecap:round;stroke-width:0.8;"/>
     </g>
     <g id="text_14">
      <!-- 30 -->
      <g style="fill:#262626;" transform="translate(20.878125 184.638607)scale(0.1 -0.1)">
       <use xlink:href="#DejaVuSans-51"/>
       <use x="63.623047" xlink:href="#DejaVuSans-48"/>
      </g>
     </g>
    </g>
    <g id="ytick_5">
     <g id="line2d_14">
      <path clip-path="url(#pa244dcaf20)" d="M 40.603125 149.007809 
L 397.723125 149.007809 
" style="fill:none;stroke:#cccccc;stroke-linecap:round;stroke-width:0.8;"/>
     </g>
     <g id="text_15">
      <!-- 40 -->
      <g style="fill:#262626;" transform="translate(20.878125 152.807028)scale(0.1 -0.1)">
       <use xlink:href="#DejaVuSans-52"/>
       <use x="63.623047" xlink:href="#DejaVuSans-48"/>
      </g>
     </g>
    </g>
    <g id="ytick_6">
     <g id="line2d_15">
      <path clip-path="url(#pa244dcaf20)" d="M 40.603125 117.17623 
L 397.723125 117.17623 
" style="fill:none;stroke:#cccccc;stroke-linecap:round;stroke-width:0.8;"/>
     </g>
     <g id="text_16">
      <!-- 50 -->
      <g style="fill:#262626;" transform="translate(20.878125 120.975449)scale(0.1 -0.1)">
       <use xlink:href="#DejaVuSans-53"/>
       <use x="63.623047" xlink:href="#DejaVuSans-48"/>
      </g>
     </g>
    </g>
    <g id="ytick_7">
     <g id="line2d_16">
      <path clip-path="url(#pa244dcaf20)" d="M 40.603125 85.344651 
L 397.723125 85.344651 
" style="fill:none;stroke:#cccccc;stroke-linecap:round;stroke-width:0.8;"/>
     </g>
     <g id="text_17">
      <!-- 60 -->
      <defs>
       <path d="M 33.015625 40.375 
Q 26.375 40.375 22.484375 35.828125 
Q 18.609375 31.296875 18.609375 23.390625 
Q 18.609375 15.53125 22.484375 10.953125 
Q 26.375 6.390625 33.015625 6.390625 
Q 39.65625 6.390625 43.53125 10.953125 
Q 47.40625 15.53125 47.40625 23.390625 
Q 47.40625 31.296875 43.53125 35.828125 
Q 39.65625 40.375 33.015625 40.375 
z
M 52.59375 71.296875 
L 52.59375 62.3125 
Q 48.875 64.0625 45.09375 64.984375 
Q 41.3125 65.921875 37.59375 65.921875 
Q 27.828125 65.921875 22.671875 59.328125 
Q 17.53125 52.734375 16.796875 39.40625 
Q 19.671875 43.65625 24.015625 45.921875 
Q 28.375 48.1875 33.59375 48.1875 
Q 44.578125 48.1875 50.953125 41.515625 
Q 57.328125 34.859375 57.328125 23.390625 
Q 57.328125 12.15625 50.6875 5.359375 
Q 44.046875 -1.421875 33.015625 -1.421875 
Q 20.359375 -1.421875 13.671875 8.265625 
Q 6.984375 17.96875 6.984375 36.375 
Q 6.984375 53.65625 15.1875 63.9375 
Q 23.390625 74.21875 37.203125 74.21875 
Q 40.921875 74.21875 44.703125 73.484375 
Q 48.484375 72.75 52.59375 71.296875 
z
" id="DejaVuSans-54"/>
      </defs>
      <g style="fill:#262626;" transform="translate(20.878125 89.14387)scale(0.1 -0.1)">
       <use xlink:href="#DejaVuSans-54"/>
       <use x="63.623047" xlink:href="#DejaVuSans-48"/>
      </g>
     </g>
    </g>
    <g id="ytick_8">
     <g id="line2d_17">
      <path clip-path="url(#pa244dcaf20)" d="M 40.603125 53.513072 
L 397.723125 53.513072 
" style="fill:none;stroke:#cccccc;stroke-linecap:round;stroke-width:0.8;"/>
     </g>
     <g id="text_18">
      <!-- 70 -->
      <defs>
       <path d="M 8.203125 72.90625 
L 55.078125 72.90625 
L 55.078125 68.703125 
L 28.609375 0 
L 18.3125 0 
L 43.21875 64.59375 
L 8.203125 64.59375 
z
" id="DejaVuSans-55"/>
      </defs>
      <g style="fill:#262626;" transform="translate(20.878125 57.312291)scale(0.1 -0.1)">
       <use xlink:href="#DejaVuSans-55"/>
       <use x="63.623047" xlink:href="#DejaVuSans-48"/>
      </g>
     </g>
    </g>
    <g id="text_19">
     <!-- cells number -->
     <defs>
      <path d="M 48.78125 52.59375 
L 48.78125 44.1875 
Q 44.96875 46.296875 41.140625 47.34375 
Q 37.3125 48.390625 33.40625 48.390625 
Q 24.65625 48.390625 19.8125 42.84375 
Q 14.984375 37.3125 14.984375 27.296875 
Q 14.984375 17.28125 19.8125 11.734375 
Q 24.65625 6.203125 33.40625 6.203125 
Q 37.3125 6.203125 41.140625 7.25 
Q 44.96875 8.296875 48.78125 10.40625 
L 48.78125 2.09375 
Q 45.015625 0.34375 40.984375 -0.53125 
Q 36.96875 -1.421875 32.421875 -1.421875 
Q 20.0625 -1.421875 12.78125 6.34375 
Q 5.515625 14.109375 5.515625 27.296875 
Q 5.515625 40.671875 12.859375 48.328125 
Q 20.21875 56 33.015625 56 
Q 37.15625 56 41.109375 55.140625 
Q 45.0625 54.296875 48.78125 52.59375 
z
" id="DejaVuSans-99"/>
      <path d="M 9.421875 75.984375 
L 18.40625 75.984375 
L 18.40625 0 
L 9.421875 0 
z
" id="DejaVuSans-108"/>
      <path d="M 54.890625 33.015625 
L 54.890625 0 
L 45.90625 0 
L 45.90625 32.71875 
Q 45.90625 40.484375 42.875 44.328125 
Q 39.84375 48.1875 33.796875 48.1875 
Q 26.515625 48.1875 22.3125 43.546875 
Q 18.109375 38.921875 18.109375 30.90625 
L 18.109375 0 
L 9.078125 0 
L 9.078125 54.6875 
L 18.109375 54.6875 
L 18.109375 46.1875 
Q 21.34375 51.125 25.703125 53.5625 
Q 30.078125 56 35.796875 56 
Q 45.21875 56 50.046875 50.171875 
Q 54.890625 44.34375 54.890625 33.015625 
z
" id="DejaVuSans-110"/>
      <path d="M 8.5 21.578125 
L 8.5 54.6875 
L 17.484375 54.6875 
L 17.484375 21.921875 
Q 17.484375 14.15625 20.5 10.265625 
Q 23.53125 6.390625 29.59375 6.390625 
Q 36.859375 6.390625 41.078125 11.03125 
Q 45.3125 15.671875 45.3125 23.6875 
L 45.3125 54.6875 
L 54.296875 54.6875 
L 54.296875 0 
L 45.3125 0 
L 45.3125 8.40625 
Q 42.046875 3.421875 37.71875 1 
Q 33.40625 -1.421875 27.6875 -1.421875 
Q 18.265625 -1.421875 13.375 4.4375 
Q 8.5 10.296875 8.5 21.578125 
z
M 31.109375 56 
z
" id="DejaVuSans-117"/>
      <path d="M 48.6875 27.296875 
Q 48.6875 37.203125 44.609375 42.84375 
Q 40.53125 48.484375 33.40625 48.484375 
Q 26.265625 48.484375 22.1875 42.84375 
Q 18.109375 37.203125 18.109375 27.296875 
Q 18.109375 17.390625 22.1875 11.75 
Q 26.265625 6.109375 33.40625 6.109375 
Q 40.53125 6.109375 44.609375 11.75 
Q 48.6875 17.390625 48.6875 27.296875 
z
M 18.109375 46.390625 
Q 20.953125 51.265625 25.265625 53.625 
Q 29.59375 56 35.59375 56 
Q 45.5625 56 51.78125 48.09375 
Q 58.015625 40.1875 58.015625 27.296875 
Q 58.015625 14.40625 51.78125 6.484375 
Q 45.5625 -1.421875 35.59375 -1.421875 
Q 29.59375 -1.421875 25.265625 0.953125 
Q 20.953125 3.328125 18.109375 8.203125 
L 18.109375 0 
L 9.078125 0 
L 9.078125 75.984375 
L 18.109375 75.984375 
z
" id="DejaVuSans-98"/>
      <path d="M 41.109375 46.296875 
Q 39.59375 47.171875 37.8125 47.578125 
Q 36.03125 48 33.890625 48 
Q 26.265625 48 22.1875 43.046875 
Q 18.109375 38.09375 18.109375 28.8125 
L 18.109375 0 
L 9.078125 0 
L 9.078125 54.6875 
L 18.109375 54.6875 
L 18.109375 46.1875 
Q 20.953125 51.171875 25.484375 53.578125 
Q 30.03125 56 36.53125 56 
Q 37.453125 56 38.578125 55.875 
Q 39.703125 55.765625 41.0625 55.515625 
z
" id="DejaVuSans-114"/>
     </defs>
     <g style="fill:#262626;" transform="translate(14.798438 187.685844)rotate(-90)scale(0.1 -0.1)">
      <use xlink:href="#DejaVuSans-99"/>
      <use x="54.980469" xlink:href="#DejaVuSans-101"/>
      <use x="116.503906" xlink:href="#DejaVuSans-108"/>
      <use x="144.287109" xlink:href="#DejaVuSans-108"/>
      <use x="172.070312" xlink:href="#DejaVuSans-115"/>
      <use x="224.169922" xlink:href="#DejaVuSans-32"/>
      <use x="255.957031" xlink:href="#DejaVuSans-110"/>
      <use x="319.335938" xlink:href="#DejaVuSans-117"/>
      <use x="382.714844" xlink:href="#DejaVuSans-109"/>
      <use x="480.126953" xlink:href="#DejaVuSans-98"/>
      <use x="543.603516" xlink:href="#DejaVuSans-101"/>
      <use x="605.126953" xlink:href="#DejaVuSans-114"/>
     </g>
    </g>
   </g>
   <g id="line2d_18">
    <path clip-path="url(#pa244dcaf20)" d="M 56.835852 276.334125 
L 59.276864 276.334125 
L 60.090534 273.150967 
L 64.158887 273.150967 
L 65.786228 266.784651 
L 67.413569 266.784651 
L 68.22724 257.235178 
L 69.04091 257.235178 
L 69.854581 254.05202 
L 70.668251 247.685704 
L 71.481922 244.502546 
L 73.109263 250.868862 
L 73.922934 250.868862 
L 74.736604 247.685704 
L 75.550275 247.685704 
L 76.363945 238.13623 
L 77.177616 238.13623 
L 78.804957 225.403599 
L 79.618627 222.220441 
L 80.432298 215.854125 
L 81.245968 193.57202 
L 82.059639 196.755178 
L 82.87331 193.57202 
L 83.68698 184.022546 
L 84.500651 177.65623 
L 85.314321 168.106757 
L 86.127992 168.106757 
L 86.941662 171.289914 
L 87.755333 164.923599 
L 88.569003 155.374125 
L 89.382674 155.374125 
L 90.196344 149.007809 
L 91.010015 133.09202 
L 91.823685 129.908862 
L 93.451027 129.908862 
L 94.264697 117.17623 
L 95.078368 113.993072 
L 95.892038 107.626757 
L 96.705709 107.626757 
L 97.519379 94.894125 
L 99.14672 82.161493 
L 99.960391 82.161493 
L 100.774061 78.978336 
L 102.401403 66.245704 
L 103.215073 69.428862 
L 104.028744 63.062546 
L 104.842414 50.329914 
L 105.656085 50.329914 
L 106.469755 53.513072 
L 107.283426 53.513072 
L 108.097096 56.69623 
L 108.910767 56.69623 
L 110.538108 63.062546 
L 112.165449 50.329914 
L 114.606461 40.780441 
L 115.420131 40.780441 
L 116.233802 47.146757 
L 117.047472 43.963599 
L 117.861143 50.329914 
L 118.674813 53.513072 
L 119.488484 53.513072 
L 121.115825 59.879388 
L 121.929495 53.513072 
L 122.743166 53.513072 
L 123.556837 56.69623 
L 124.370507 56.69623 
L 125.184178 53.513072 
L 126.811519 59.879388 
L 127.625189 66.245704 
L 129.25253 72.61202 
L 130.066201 72.61202 
L 130.879871 66.245704 
L 131.693542 66.245704 
L 132.507212 59.879388 
L 134.134554 59.879388 
L 134.948224 63.062546 
L 135.761895 63.062546 
L 136.575565 69.428862 
L 137.389236 69.428862 
L 139.016577 75.795178 
L 139.830247 72.61202 
L 140.643918 82.161493 
L 141.457588 85.344651 
L 143.08493 85.344651 
L 143.8986 82.161493 
L 144.712271 88.527809 
L 145.525941 88.527809 
L 146.339612 91.710967 
L 147.153282 91.710967 
L 149.594294 101.260441 
L 151.221635 113.993072 
L 155.289988 113.993072 
L 156.103658 120.359388 
L 156.917329 123.542546 
L 157.730999 123.542546 
L 158.54467 126.725704 
L 159.35834 120.359388 
L 160.172011 120.359388 
L 160.985681 117.17623 
L 162.613022 117.17623 
L 163.426693 123.542546 
L 165.054034 123.542546 
L 165.867705 120.359388 
L 166.681375 126.725704 
L 167.495046 129.908862 
L 169.122387 123.542546 
L 169.936057 123.542546 
L 171.563398 129.908862 
L 173.190739 129.908862 
L 174.00441 136.275178 
L 176.445422 145.824651 
L 177.259092 142.641493 
L 178.072763 155.374125 
L 178.886433 155.374125 
L 180.513774 161.740441 
L 181.327445 161.740441 
L 182.141115 164.923599 
L 182.954786 171.289914 
L 183.768457 171.289914 
L 184.582127 168.106757 
L 185.395798 171.289914 
L 186.209468 171.289914 
L 187.023139 168.106757 
L 187.836809 168.106757 
L 188.65048 164.923599 
L 189.46415 174.473072 
L 190.277821 174.473072 
L 191.091491 171.289914 
L 192.718832 177.65623 
L 193.532503 177.65623 
L 195.159844 190.388862 
L 195.973515 184.022546 
L 197.600856 190.388862 
L 198.414526 187.205704 
L 200.041867 187.205704 
L 201.669208 199.938336 
L 204.11022 199.938336 
L 204.923891 203.121493 
L 205.737561 196.755178 
L 206.551232 196.755178 
L 208.992243 206.304651 
L 217.128949 206.304651 
L 217.942619 212.670967 
L 219.56996 219.037283 
L 222.824642 219.037283 
L 223.638313 215.854125 
L 225.265654 215.854125 
L 226.079325 219.037283 
L 228.520336 219.037283 
L 229.334007 222.220441 
L 230.961348 222.220441 
L 231.775018 231.769914 
L 235.029701 231.769914 
L 236.657042 225.403599 
L 239.911724 225.403599 
L 240.725394 228.586757 
L 241.539065 225.403599 
L 242.352735 228.586757 
L 245.607418 228.586757 
L 246.421088 225.403599 
L 247.234759 225.403599 
L 248.048429 228.586757 
L 248.8621 228.586757 
L 249.67577 231.769914 
L 251.303111 231.769914 
L 252.116782 225.403599 
L 252.930452 225.403599 
L 253.744123 228.586757 
L 261.067158 228.586757 
L 261.880828 222.220441 
L 262.694499 222.220441 
L 263.508169 219.037283 
L 266.762852 231.769914 
L 269.203863 231.769914 
L 270.017534 234.953072 
L 270.831204 241.319388 
L 271.644875 241.319388 
L 272.458545 244.502546 
L 274.899557 244.502546 
L 275.713228 238.13623 
L 282.222592 238.13623 
L 283.036262 234.953072 
L 283.849933 234.953072 
L 284.663603 231.769914 
L 286.290945 231.769914 
L 287.104615 234.953072 
L 287.918286 231.769914 
L 288.731956 234.953072 
L 289.545627 231.769914 
L 292.800309 231.769914 
L 293.613979 234.953072 
L 294.42765 241.319388 
L 298.496003 241.319388 
L 300.123344 247.685704 
L 300.937014 247.685704 
L 301.750685 244.502546 
L 304.191696 244.502546 
L 305.005367 247.685704 
L 305.819038 244.502546 
L 312.328402 244.502546 
L 313.142072 241.319388 
L 316.396755 241.319388 
L 317.210425 244.502546 
L 318.024096 241.319388 
L 322.906119 241.319388 
L 323.719789 247.685704 
L 326.974472 247.685704 
L 327.788142 244.502546 
L 328.601813 244.502546 
L 329.415483 241.319388 
L 330.229154 234.953072 
L 331.856495 234.953072 
L 332.670165 241.319388 
L 333.483836 241.319388 
L 334.297506 234.953072 
L 336.738518 244.502546 
L 337.552189 244.502546 
L 338.365859 247.685704 
L 339.9932 247.685704 
L 340.806871 244.502546 
L 341.620541 238.13623 
L 342.434212 238.13623 
L 343.247882 244.502546 
L 353.011929 244.502546 
L 354.63927 238.13623 
L 355.45294 238.13623 
L 356.266611 234.953072 
L 359.521293 234.953072 
L 360.334964 231.769914 
L 361.148634 231.769914 
L 361.962305 228.586757 
L 362.775975 228.586757 
L 363.589646 231.769914 
L 364.403316 231.769914 
L 365.216987 228.586757 
L 366.030657 228.586757 
L 367.657999 222.220441 
L 370.09901 222.220441 
L 371.726351 215.854125 
L 372.540022 209.487809 
L 373.353692 209.487809 
L 374.167363 212.670967 
L 374.981033 209.487809 
L 375.794704 209.487809 
L 376.608374 212.670967 
L 379.049386 212.670967 
L 379.863057 206.304651 
L 380.676727 206.304651 
L 381.490398 209.487809 
L 381.490398 209.487809 
" style="fill:none;stroke:#000080;stroke-linecap:round;stroke-width:1.5;"/>
   </g>
   <g id="line2d_19">
    <path clip-path="url(#pa244dcaf20)" d="M 56.835852 276.334125 
L 59.276864 276.334125 
L 60.090534 273.150967 
L 63.345217 273.150967 
L 64.972558 266.784651 
L 66.599899 266.784651 
L 67.413569 260.418336 
L 68.22724 257.235178 
L 69.04091 250.868862 
L 69.854581 254.05202 
L 71.481922 241.319388 
L 72.295593 241.319388 
L 73.922934 228.586757 
L 74.736604 225.403599 
L 75.550275 228.586757 
L 76.363945 228.586757 
L 77.177616 225.403599 
L 77.991286 231.769914 
L 78.804957 222.220441 
L 79.618627 215.854125 
L 80.432298 212.670967 
L 81.245968 212.670967 
L 82.059639 206.304651 
L 83.68698 199.938336 
L 86.127992 180.839388 
L 86.941662 168.106757 
L 87.755333 158.557283 
L 89.382674 152.190967 
L 90.196344 152.190967 
L 91.010015 149.007809 
L 91.823685 139.458336 
L 92.637356 139.458336 
L 93.451027 142.641493 
L 94.264697 133.09202 
L 95.078368 126.725704 
L 95.892038 113.993072 
L 99.14672 126.725704 
L 99.960391 110.809914 
L 101.587732 104.443599 
L 102.401403 110.809914 
L 103.215073 113.993072 
L 104.028744 113.993072 
L 104.842414 104.443599 
L 105.656085 104.443599 
L 106.469755 101.260441 
L 107.283426 94.894125 
L 108.910767 101.260441 
L 109.724437 101.260441 
L 110.538108 98.077283 
L 111.351778 101.260441 
L 112.165449 110.809914 
L 112.97912 110.809914 
L 113.79279 104.443599 
L 114.606461 101.260441 
L 115.420131 104.443599 
L 116.233802 104.443599 
L 117.047472 107.626757 
L 117.861143 101.260441 
L 119.488484 113.993072 
L 121.115825 107.626757 
L 121.929495 110.809914 
L 122.743166 110.809914 
L 123.556837 101.260441 
L 124.370507 101.260441 
L 125.184178 107.626757 
L 125.997848 110.809914 
L 127.625189 110.809914 
L 129.25253 117.17623 
L 130.066201 117.17623 
L 130.879871 123.542546 
L 131.693542 117.17623 
L 132.507212 117.17623 
L 133.320883 123.542546 
L 134.134554 123.542546 
L 134.948224 129.908862 
L 135.761895 126.725704 
L 136.575565 126.725704 
L 137.389236 120.359388 
L 138.202906 123.542546 
L 139.830247 123.542546 
L 141.457588 117.17623 
L 142.271259 120.359388 
L 143.08493 117.17623 
L 143.8986 117.17623 
L 144.712271 120.359388 
L 145.525941 117.17623 
L 147.966953 117.17623 
L 148.780623 113.993072 
L 150.407964 126.725704 
L 151.221635 123.542546 
L 152.035305 133.09202 
L 154.476317 133.09202 
L 155.289988 136.275178 
L 156.917329 136.275178 
L 158.54467 142.641493 
L 160.985681 142.641493 
L 161.799352 145.824651 
L 162.613022 139.458336 
L 163.426693 136.275178 
L 164.240364 136.275178 
L 165.054034 139.458336 
L 165.867705 139.458336 
L 166.681375 136.275178 
L 168.308716 149.007809 
L 169.122387 149.007809 
L 169.936057 155.374125 
L 170.749728 158.557283 
L 171.563398 152.190967 
L 172.377069 161.740441 
L 173.190739 164.923599 
L 174.818081 164.923599 
L 176.445422 171.289914 
L 177.259092 171.289914 
L 178.072763 174.473072 
L 179.700104 174.473072 
L 180.513774 180.839388 
L 181.327445 177.65623 
L 182.141115 180.839388 
L 182.954786 180.839388 
L 183.768457 187.205704 
L 184.582127 184.022546 
L 185.395798 184.022546 
L 187.023139 190.388862 
L 187.836809 196.755178 
L 188.65048 190.388862 
L 190.277821 190.388862 
L 191.091491 193.57202 
L 191.905162 193.57202 
L 192.718832 196.755178 
L 193.532503 193.57202 
L 194.346174 193.57202 
L 195.159844 190.388862 
L 198.414526 190.388862 
L 200.855538 199.938336 
L 201.669208 199.938336 
L 202.482879 203.121493 
L 203.296549 199.938336 
L 204.11022 203.121493 
L 208.178573 203.121493 
L 208.992243 196.755178 
L 209.805914 203.121493 
L 212.246925 203.121493 
L 213.060596 206.304651 
L 221.197301 206.304651 
L 222.010972 209.487809 
L 225.265654 209.487809 
L 226.079325 212.670967 
L 226.892995 209.487809 
L 227.706666 212.670967 
L 228.520336 209.487809 
L 232.588689 209.487809 
L 233.402359 212.670967 
L 237.470712 212.670967 
L 238.284383 215.854125 
L 239.098053 215.854125 
L 239.911724 219.037283 
L 240.725394 219.037283 
L 241.539065 225.403599 
L 244.793747 238.13623 
L 249.67577 238.13623 
L 250.489441 241.319388 
L 252.116782 241.319388 
L 252.930452 250.868862 
L 253.744123 247.685704 
L 254.557793 254.05202 
L 258.626146 254.05202 
L 259.439817 250.868862 
L 263.508169 250.868862 
L 264.32184 254.05202 
L 269.203863 254.05202 
L 270.017534 250.868862 
L 273.272216 250.868862 
L 274.085886 254.05202 
L 275.713228 254.05202 
L 276.526898 247.685704 
L 283.036262 247.685704 
L 283.849933 244.502546 
L 284.663603 244.502546 
L 285.477274 241.319388 
L 287.104615 241.319388 
L 287.918286 244.502546 
L 291.172968 244.502546 
L 291.986638 247.685704 
L 297.682332 247.685704 
L 299.309673 241.319388 
L 300.123344 241.319388 
L 300.937014 244.502546 
L 302.564355 244.502546 
L 303.378026 247.685704 
L 309.88739 247.685704 
L 310.701061 244.502546 
L 314.769413 244.502546 
L 315.583084 241.319388 
L 317.210425 247.685704 
L 318.837766 241.319388 
L 319.651437 234.953072 
L 320.465107 231.769914 
L 322.092448 231.769914 
L 322.906119 228.586757 
L 323.719789 228.586757 
L 324.53346 225.403599 
L 325.34713 228.586757 
L 326.160801 228.586757 
L 326.974472 231.769914 
L 327.788142 231.769914 
L 328.601813 228.586757 
L 329.415483 231.769914 
L 330.229154 228.586757 
L 331.042824 231.769914 
L 335.111177 231.769914 
L 335.924847 225.403599 
L 336.738518 228.586757 
L 337.552189 225.403599 
L 338.365859 228.586757 
L 339.9932 228.586757 
L 340.806871 225.403599 
L 346.502565 225.403599 
L 347.316235 228.586757 
L 350.570917 228.586757 
L 351.384588 225.403599 
L 352.198258 225.403599 
L 353.011929 228.586757 
L 353.825599 228.586757 
L 354.63927 231.769914 
L 356.266611 231.769914 
L 357.893952 225.403599 
L 359.521293 225.403599 
L 360.334964 222.220441 
L 361.148634 222.220441 
L 361.962305 219.037283 
L 362.775975 219.037283 
L 363.589646 225.403599 
L 364.403316 219.037283 
L 365.216987 219.037283 
L 366.844328 212.670967 
L 367.657999 206.304651 
L 371.726351 206.304651 
L 372.540022 209.487809 
L 373.353692 209.487809 
L 374.167363 212.670967 
L 374.981033 209.487809 
L 379.049386 209.487809 
L 379.863057 212.670967 
L 381.490398 212.670967 
L 381.490398 212.670967 
" style="fill:none;stroke:#0000f1;stroke-linecap:round;stroke-width:1.5;"/>
   </g>
   <g id="line2d_20">
    <path clip-path="url(#pa244dcaf20)" d="M 56.835852 276.334125 
L 64.158887 276.334125 
L 64.972558 273.150967 
L 65.786228 273.150967 
L 66.599899 269.967809 
L 67.413569 269.967809 
L 68.22724 266.784651 
L 69.04091 260.418336 
L 69.854581 260.418336 
L 70.668251 257.235178 
L 73.109263 257.235178 
L 73.922934 247.685704 
L 75.550275 241.319388 
L 76.363945 228.586757 
L 77.991286 209.487809 
L 78.804957 212.670967 
L 79.618627 203.121493 
L 80.432298 190.388862 
L 81.245968 184.022546 
L 82.059639 184.022546 
L 82.87331 174.473072 
L 83.68698 180.839388 
L 84.500651 180.839388 
L 85.314321 168.106757 
L 86.127992 161.740441 
L 86.941662 161.740441 
L 88.569003 155.374125 
L 89.382674 145.824651 
L 90.196344 139.458336 
L 91.010015 126.725704 
L 91.823685 129.908862 
L 92.637356 126.725704 
L 93.451027 120.359388 
L 94.264697 120.359388 
L 95.892038 94.894125 
L 96.705709 98.077283 
L 97.519379 91.710967 
L 98.33305 101.260441 
L 99.960391 101.260441 
L 101.587732 88.527809 
L 102.401403 85.344651 
L 103.215073 91.710967 
L 104.028744 94.894125 
L 105.656085 94.894125 
L 106.469755 98.077283 
L 107.283426 94.894125 
L 108.097096 88.527809 
L 108.910767 94.894125 
L 109.724437 91.710967 
L 110.538108 91.710967 
L 111.351778 98.077283 
L 112.165449 94.894125 
L 113.79279 101.260441 
L 115.420131 94.894125 
L 116.233802 104.443599 
L 117.861143 98.077283 
L 118.674813 101.260441 
L 119.488484 98.077283 
L 120.302154 98.077283 
L 121.115825 101.260441 
L 121.929495 94.894125 
L 123.556837 94.894125 
L 124.370507 98.077283 
L 125.184178 94.894125 
L 126.811519 94.894125 
L 127.625189 101.260441 
L 129.25253 101.260441 
L 132.507212 113.993072 
L 133.320883 120.359388 
L 134.948224 113.993072 
L 135.761895 117.17623 
L 136.575565 123.542546 
L 137.389236 126.725704 
L 138.202906 123.542546 
L 139.016577 126.725704 
L 139.830247 123.542546 
L 140.643918 117.17623 
L 143.08493 126.725704 
L 143.8986 133.09202 
L 144.712271 136.275178 
L 145.525941 133.09202 
L 146.339612 139.458336 
L 149.594294 139.458336 
L 150.407964 142.641493 
L 151.221635 142.641493 
L 152.035305 145.824651 
L 152.848976 155.374125 
L 154.476317 149.007809 
L 155.289988 152.190967 
L 156.103658 152.190967 
L 156.917329 155.374125 
L 157.730999 155.374125 
L 158.54467 152.190967 
L 159.35834 152.190967 
L 161.799352 161.740441 
L 162.613022 161.740441 
L 163.426693 164.923599 
L 165.867705 164.923599 
L 166.681375 174.473072 
L 167.495046 174.473072 
L 168.308716 171.289914 
L 170.749728 171.289914 
L 171.563398 174.473072 
L 172.377069 184.022546 
L 173.190739 187.205704 
L 175.631751 177.65623 
L 176.445422 180.839388 
L 178.886433 180.839388 
L 179.700104 184.022546 
L 180.513774 184.022546 
L 182.141115 190.388862 
L 182.954786 187.205704 
L 184.582127 193.57202 
L 185.395798 199.938336 
L 186.209468 199.938336 
L 187.023139 196.755178 
L 187.836809 199.938336 
L 188.65048 199.938336 
L 190.277821 193.57202 
L 191.091491 193.57202 
L 191.905162 196.755178 
L 193.532503 196.755178 
L 194.346174 203.121493 
L 195.159844 203.121493 
L 195.973515 206.304651 
L 196.787185 206.304651 
L 198.414526 212.670967 
L 200.855538 212.670967 
L 202.482879 219.037283 
L 203.296549 219.037283 
L 204.11022 215.854125 
L 204.923891 215.854125 
L 206.551232 222.220441 
L 207.364902 222.220441 
L 208.178573 225.403599 
L 209.805914 225.403599 
L 210.619584 222.220441 
L 211.433255 222.220441 
L 212.246925 225.403599 
L 214.687937 225.403599 
L 215.501608 228.586757 
L 216.315278 228.586757 
L 217.128949 231.769914 
L 217.942619 231.769914 
L 218.75629 234.953072 
L 221.197301 234.953072 
L 222.010972 231.769914 
L 226.892995 231.769914 
L 227.706666 234.953072 
L 230.961348 234.953072 
L 231.775018 238.13623 
L 237.470712 238.13623 
L 238.284383 234.953072 
L 239.098053 234.953072 
L 240.725394 241.319388 
L 241.539065 241.319388 
L 242.352735 238.13623 
L 243.166406 231.769914 
L 243.980076 231.769914 
L 244.793747 228.586757 
L 248.8621 228.586757 
L 249.67577 225.403599 
L 253.744123 225.403599 
L 254.557793 222.220441 
L 259.439817 222.220441 
L 260.253487 225.403599 
L 261.067158 222.220441 
L 262.694499 228.586757 
L 263.508169 228.586757 
L 264.32184 231.769914 
L 265.135511 225.403599 
L 267.576522 225.403599 
L 268.390193 228.586757 
L 270.831204 228.586757 
L 271.644875 225.403599 
L 274.085886 225.403599 
L 274.899557 222.220441 
L 275.713228 222.220441 
L 277.340569 228.586757 
L 278.154239 225.403599 
L 278.96791 219.037283 
L 279.78158 219.037283 
L 280.595251 222.220441 
L 281.408921 222.220441 
L 283.036262 228.586757 
L 284.663603 228.586757 
L 285.477274 222.220441 
L 286.290945 225.403599 
L 288.731956 225.403599 
L 289.545627 222.220441 
L 291.172968 228.586757 
L 292.800309 228.586757 
L 293.613979 225.403599 
L 294.42765 225.403599 
L 295.24132 228.586757 
L 296.054991 228.586757 
L 296.868662 225.403599 
L 297.682332 231.769914 
L 300.123344 231.769914 
L 300.937014 225.403599 
L 301.750685 228.586757 
L 305.005367 228.586757 
L 305.819038 225.403599 
L 306.632708 231.769914 
L 308.260049 231.769914 
L 309.07372 234.953072 
L 311.514731 234.953072 
L 312.328402 231.769914 
L 313.142072 231.769914 
L 313.955743 228.586757 
L 315.583084 228.586757 
L 316.396755 225.403599 
L 317.210425 225.403599 
L 318.024096 222.220441 
L 319.651437 222.220441 
L 320.465107 225.403599 
L 321.278778 225.403599 
L 322.092448 231.769914 
L 324.53346 231.769914 
L 325.34713 228.586757 
L 327.788142 228.586757 
L 328.601813 225.403599 
L 329.415483 225.403599 
L 330.229154 231.769914 
L 334.297506 231.769914 
L 335.924847 225.403599 
L 340.806871 225.403599 
L 341.620541 228.586757 
L 344.061553 228.586757 
L 345.688894 234.953072 
L 348.943576 234.953072 
L 349.757247 231.769914 
L 352.198258 231.769914 
L 353.011929 238.13623 
L 353.825599 241.319388 
L 355.45294 241.319388 
L 356.266611 238.13623 
L 357.080282 238.13623 
L 358.707623 231.769914 
L 359.521293 231.769914 
L 360.334964 228.586757 
L 361.148634 222.220441 
L 362.775975 222.220441 
L 363.589646 219.037283 
L 366.030657 219.037283 
L 370.09901 234.953072 
L 370.912681 228.586757 
L 373.353692 228.586757 
L 374.167363 231.769914 
L 378.235716 231.769914 
L 379.049386 238.13623 
L 379.863057 238.13623 
L 380.676727 241.319388 
L 381.490398 238.13623 
L 381.490398 238.13623 
" style="fill:none;stroke:#004cff;stroke-linecap:round;stroke-width:1.5;"/>
   </g>
   <g id="line2d_21">
    <path clip-path="url(#pa244dcaf20)" d="M 56.835852 276.334125 
L 60.904205 276.334125 
L 62.531546 269.967809 
L 64.972558 269.967809 
L 65.786228 266.784651 
L 66.599899 266.784651 
L 67.413569 260.418336 
L 68.22724 257.235178 
L 69.04091 257.235178 
L 70.668251 250.868862 
L 71.481922 250.868862 
L 72.295593 247.685704 
L 73.922934 234.953072 
L 74.736604 238.13623 
L 77.177616 228.586757 
L 77.991286 219.037283 
L 83.68698 174.473072 
L 84.500651 177.65623 
L 85.314321 171.289914 
L 86.127992 168.106757 
L 87.755333 168.106757 
L 88.569003 158.557283 
L 89.382674 158.557283 
L 90.196344 152.190967 
L 91.010015 142.641493 
L 94.264697 129.908862 
L 95.078368 136.275178 
L 95.892038 133.09202 
L 96.705709 126.725704 
L 97.519379 117.17623 
L 99.960391 117.17623 
L 100.774061 123.542546 
L 103.215073 133.09202 
L 104.028744 129.908862 
L 104.842414 129.908862 
L 107.283426 110.809914 
L 108.097096 110.809914 
L 109.724437 117.17623 
L 110.538108 117.17623 
L 111.351778 120.359388 
L 112.165449 113.993072 
L 113.79279 107.626757 
L 114.606461 101.260441 
L 115.420131 101.260441 
L 116.233802 104.443599 
L 117.861143 104.443599 
L 118.674813 117.17623 
L 119.488484 110.809914 
L 120.302154 120.359388 
L 121.115825 123.542546 
L 121.929495 120.359388 
L 122.743166 123.542546 
L 123.556837 120.359388 
L 125.184178 120.359388 
L 125.997848 123.542546 
L 126.811519 123.542546 
L 127.625189 126.725704 
L 128.43886 126.725704 
L 129.25253 120.359388 
L 130.066201 120.359388 
L 130.879871 113.993072 
L 132.507212 113.993072 
L 133.320883 117.17623 
L 134.134554 123.542546 
L 134.948224 117.17623 
L 135.761895 123.542546 
L 136.575565 117.17623 
L 139.016577 117.17623 
L 139.830247 129.908862 
L 140.643918 129.908862 
L 141.457588 136.275178 
L 142.271259 139.458336 
L 143.8986 139.458336 
L 144.712271 145.824651 
L 145.525941 145.824651 
L 146.339612 149.007809 
L 150.407964 149.007809 
L 151.221635 152.190967 
L 152.035305 152.190967 
L 152.848976 149.007809 
L 153.662647 152.190967 
L 154.476317 152.190967 
L 155.289988 155.374125 
L 160.985681 155.374125 
L 161.799352 164.923599 
L 162.613022 168.106757 
L 163.426693 174.473072 
L 164.240364 174.473072 
L 165.054034 180.839388 
L 165.867705 180.839388 
L 166.681375 187.205704 
L 167.495046 190.388862 
L 168.308716 190.388862 
L 169.122387 193.57202 
L 169.936057 193.57202 
L 170.749728 196.755178 
L 171.563398 203.121493 
L 174.00441 203.121493 
L 174.818081 199.938336 
L 176.445422 206.304651 
L 177.259092 206.304651 
L 178.072763 209.487809 
L 179.700104 209.487809 
L 180.513774 215.854125 
L 182.141115 209.487809 
L 183.768457 209.487809 
L 184.582127 219.037283 
L 187.023139 219.037283 
L 187.836809 215.854125 
L 189.46415 222.220441 
L 195.159844 222.220441 
L 195.973515 219.037283 
L 196.787185 219.037283 
L 198.414526 225.403599 
L 203.296549 225.403599 
L 204.11022 228.586757 
L 209.805914 228.586757 
L 210.619584 231.769914 
L 212.246925 231.769914 
L 213.874266 238.13623 
L 214.687937 238.13623 
L 215.501608 241.319388 
L 216.315278 241.319388 
L 217.128949 244.502546 
L 220.383631 244.502546 
L 221.197301 247.685704 
L 227.706666 247.685704 
L 228.520336 244.502546 
L 229.334007 250.868862 
L 232.588689 250.868862 
L 233.402359 247.685704 
L 234.21603 247.685704 
L 235.029701 250.868862 
L 237.470712 241.319388 
L 242.352735 241.319388 
L 243.980076 247.685704 
L 246.421088 247.685704 
L 247.234759 244.502546 
L 248.8621 244.502546 
L 250.489441 238.13623 
L 251.303111 241.319388 
L 254.557793 241.319388 
L 255.371464 244.502546 
L 257.812476 244.502546 
L 258.626146 241.319388 
L 261.067158 241.319388 
L 261.880828 244.502546 
L 262.694499 244.502546 
L 263.508169 241.319388 
L 264.32184 244.502546 
L 271.644875 244.502546 
L 272.458545 241.319388 
L 274.899557 241.319388 
L 275.713228 238.13623 
L 276.526898 238.13623 
L 277.340569 234.953072 
L 278.154239 234.953072 
L 278.96791 241.319388 
L 279.78158 241.319388 
L 280.595251 238.13623 
L 282.222592 238.13623 
L 283.036262 234.953072 
L 284.663603 234.953072 
L 285.477274 231.769914 
L 286.290945 225.403599 
L 287.104615 222.220441 
L 288.731956 222.220441 
L 289.545627 225.403599 
L 291.172968 225.403599 
L 292.800309 219.037283 
L 296.868662 219.037283 
L 297.682332 212.670967 
L 298.496003 215.854125 
L 300.123344 215.854125 
L 300.937014 212.670967 
L 301.750685 219.037283 
L 302.564355 222.220441 
L 304.191696 222.220441 
L 305.005367 225.403599 
L 305.819038 225.403599 
L 306.632708 228.586757 
L 307.446379 234.953072 
L 308.260049 231.769914 
L 309.88739 231.769914 
L 312.328402 222.220441 
L 313.142072 225.403599 
L 314.769413 225.403599 
L 315.583084 222.220441 
L 318.837766 222.220441 
L 319.651437 225.403599 
L 320.465107 222.220441 
L 323.719789 222.220441 
L 324.53346 225.403599 
L 325.34713 225.403599 
L 328.601813 212.670967 
L 329.415483 212.670967 
L 330.229154 209.487809 
L 331.856495 209.487809 
L 332.670165 206.304651 
L 333.483836 209.487809 
L 334.297506 209.487809 
L 335.111177 206.304651 
L 335.924847 206.304651 
L 336.738518 209.487809 
L 337.552189 209.487809 
L 338.365859 206.304651 
L 341.620541 206.304651 
L 342.434212 209.487809 
L 343.247882 209.487809 
L 344.061553 206.304651 
L 345.688894 206.304651 
L 348.129906 215.854125 
L 348.943576 222.220441 
L 349.757247 222.220441 
L 350.570917 215.854125 
L 351.384588 215.854125 
L 352.198258 222.220441 
L 353.011929 225.403599 
L 353.825599 225.403599 
L 354.63927 228.586757 
L 356.266611 228.586757 
L 357.080282 225.403599 
L 358.707623 231.769914 
L 359.521293 228.586757 
L 361.148634 228.586757 
L 361.962305 231.769914 
L 362.775975 231.769914 
L 363.589646 225.403599 
L 364.403316 228.586757 
L 366.844328 228.586757 
L 367.657999 225.403599 
L 368.471669 228.586757 
L 369.28534 228.586757 
L 370.09901 231.769914 
L 371.726351 225.403599 
L 372.540022 225.403599 
L 373.353692 231.769914 
L 374.167363 228.586757 
L 374.981033 231.769914 
L 375.794704 228.586757 
L 377.422045 228.586757 
L 378.235716 231.769914 
L 379.049386 231.769914 
L 379.863057 234.953072 
L 380.676727 234.953072 
L 381.490398 238.13623 
L 381.490398 238.13623 
" style="fill:none;stroke:#00b0ff;stroke-linecap:round;stroke-width:1.5;"/>
   </g>
   <g id="line2d_22">
    <path clip-path="url(#pa244dcaf20)" d="M 56.835852 276.334125 
L 60.904205 276.334125 
L 61.717876 273.150967 
L 63.345217 273.150967 
L 64.972558 266.784651 
L 65.786228 269.967809 
L 68.22724 260.418336 
L 69.04091 250.868862 
L 69.854581 250.868862 
L 70.668251 247.685704 
L 71.481922 241.319388 
L 72.295593 241.319388 
L 73.109263 238.13623 
L 73.922934 241.319388 
L 74.736604 234.953072 
L 75.550275 225.403599 
L 76.363945 225.403599 
L 77.177616 222.220441 
L 77.991286 209.487809 
L 78.804957 206.304651 
L 79.618627 206.304651 
L 80.432298 199.938336 
L 81.245968 190.388862 
L 82.059639 184.022546 
L 82.87331 168.106757 
L 84.500651 149.007809 
L 86.941662 149.007809 
L 87.755333 139.458336 
L 90.196344 149.007809 
L 93.451027 136.275178 
L 94.264697 136.275178 
L 95.078368 129.908862 
L 95.892038 129.908862 
L 96.705709 107.626757 
L 97.519379 98.077283 
L 98.33305 82.161493 
L 99.14672 78.978336 
L 99.960391 72.61202 
L 100.774061 53.513072 
L 101.587732 59.879388 
L 103.215073 66.245704 
L 104.028744 56.69623 
L 104.842414 59.879388 
L 105.656085 66.245704 
L 106.469755 59.879388 
L 107.283426 47.146757 
L 108.097096 37.597283 
L 108.910767 47.146757 
L 109.724437 53.513072 
L 110.538108 50.329914 
L 111.351778 56.69623 
L 112.165449 53.513072 
L 112.97912 56.69623 
L 113.79279 56.69623 
L 114.606461 50.329914 
L 115.420131 50.329914 
L 116.233802 37.597283 
L 117.047472 47.146757 
L 118.674813 34.414125 
L 119.488484 47.146757 
L 120.302154 50.329914 
L 121.115825 59.879388 
L 121.929495 63.062546 
L 122.743166 72.61202 
L 123.556837 72.61202 
L 124.370507 82.161493 
L 126.811519 72.61202 
L 127.625189 72.61202 
L 129.25253 78.978336 
L 130.066201 78.978336 
L 130.879871 82.161493 
L 131.693542 82.161493 
L 133.320883 75.795178 
L 134.948224 82.161493 
L 135.761895 94.894125 
L 137.389236 82.161493 
L 138.202906 82.161493 
L 139.016577 88.527809 
L 139.830247 88.527809 
L 140.643918 91.710967 
L 141.457588 98.077283 
L 142.271259 91.710967 
L 143.08493 101.260441 
L 143.8986 98.077283 
L 144.712271 101.260441 
L 145.525941 101.260441 
L 146.339612 104.443599 
L 147.153282 113.993072 
L 148.780623 113.993072 
L 151.221635 104.443599 
L 153.662647 104.443599 
L 154.476317 101.260441 
L 156.103658 107.626757 
L 156.917329 104.443599 
L 157.730999 110.809914 
L 159.35834 110.809914 
L 160.172011 117.17623 
L 161.799352 123.542546 
L 162.613022 120.359388 
L 163.426693 123.542546 
L 165.054034 117.17623 
L 165.867705 120.359388 
L 166.681375 120.359388 
L 167.495046 113.993072 
L 169.122387 113.993072 
L 169.936057 110.809914 
L 170.749728 110.809914 
L 171.563398 120.359388 
L 172.377069 123.542546 
L 174.818081 123.542546 
L 175.631751 126.725704 
L 176.445422 126.725704 
L 177.259092 133.09202 
L 178.072763 136.275178 
L 178.886433 142.641493 
L 179.700104 145.824651 
L 181.327445 145.824651 
L 182.141115 149.007809 
L 182.954786 149.007809 
L 183.768457 155.374125 
L 185.395798 161.740441 
L 186.209468 161.740441 
L 187.023139 164.923599 
L 187.836809 164.923599 
L 188.65048 168.106757 
L 190.277821 168.106757 
L 191.091491 161.740441 
L 191.905162 164.923599 
L 192.718832 164.923599 
L 193.532503 168.106757 
L 194.346174 168.106757 
L 195.973515 161.740441 
L 197.600856 161.740441 
L 199.228197 174.473072 
L 205.737561 174.473072 
L 206.551232 177.65623 
L 208.178573 177.65623 
L 208.992243 180.839388 
L 209.805914 187.205704 
L 210.619584 187.205704 
L 211.433255 193.57202 
L 212.246925 193.57202 
L 213.060596 190.388862 
L 213.874266 190.388862 
L 214.687937 187.205704 
L 215.501608 187.205704 
L 216.315278 190.388862 
L 219.56996 190.388862 
L 220.383631 187.205704 
L 221.197301 193.57202 
L 222.010972 196.755178 
L 222.824642 196.755178 
L 223.638313 203.121493 
L 224.451984 203.121493 
L 225.265654 209.487809 
L 226.892995 209.487809 
L 227.706666 219.037283 
L 229.334007 231.769914 
L 233.402359 231.769914 
L 234.21603 234.953072 
L 235.029701 241.319388 
L 235.843371 238.13623 
L 236.657042 241.319388 
L 238.284383 241.319388 
L 239.098053 244.502546 
L 239.911724 241.319388 
L 241.539065 241.319388 
L 242.352735 244.502546 
L 243.980076 244.502546 
L 244.793747 241.319388 
L 245.607418 244.502546 
L 249.67577 244.502546 
L 250.489441 241.319388 
L 251.303111 244.502546 
L 252.116782 241.319388 
L 252.930452 241.319388 
L 254.557793 247.685704 
L 255.371464 247.685704 
L 256.185135 244.502546 
L 256.998805 244.502546 
L 257.812476 241.319388 
L 258.626146 241.319388 
L 259.439817 244.502546 
L 261.880828 244.502546 
L 262.694499 241.319388 
L 270.017534 241.319388 
L 270.831204 244.502546 
L 274.085886 244.502546 
L 275.713228 238.13623 
L 277.340569 238.13623 
L 278.154239 241.319388 
L 281.408921 241.319388 
L 282.222592 244.502546 
L 287.104615 244.502546 
L 287.918286 241.319388 
L 288.731956 241.319388 
L 289.545627 238.13623 
L 291.172968 244.502546 
L 291.986638 244.502546 
L 292.800309 241.319388 
L 294.42765 241.319388 
L 295.24132 238.13623 
L 297.682332 238.13623 
L 298.496003 241.319388 
L 299.309673 241.319388 
L 300.123344 244.502546 
L 308.260049 244.502546 
L 309.07372 250.868862 
L 309.88739 247.685704 
L 310.701061 247.685704 
L 311.514731 244.502546 
L 313.142072 244.502546 
L 314.769413 238.13623 
L 316.396755 238.13623 
L 317.210425 234.953072 
L 318.024096 234.953072 
L 318.837766 238.13623 
L 322.092448 238.13623 
L 322.906119 234.953072 
L 325.34713 234.953072 
L 326.974472 241.319388 
L 328.601813 234.953072 
L 329.415483 234.953072 
L 331.042824 241.319388 
L 331.856495 238.13623 
L 332.670165 241.319388 
L 334.297506 241.319388 
L 335.111177 244.502546 
L 336.738518 244.502546 
L 338.365859 238.13623 
L 342.434212 238.13623 
L 343.247882 234.953072 
L 344.875223 234.953072 
L 346.502565 228.586757 
L 348.129906 228.586757 
L 348.943576 231.769914 
L 351.384588 231.769914 
L 353.011929 238.13623 
L 353.825599 231.769914 
L 356.266611 231.769914 
L 357.080282 225.403599 
L 359.521293 225.403599 
L 360.334964 231.769914 
L 361.962305 238.13623 
L 362.775975 238.13623 
L 363.589646 244.502546 
L 366.030657 244.502546 
L 367.657999 238.13623 
L 368.471669 231.769914 
L 369.28534 228.586757 
L 371.726351 228.586757 
L 372.540022 231.769914 
L 375.794704 231.769914 
L 376.608374 238.13623 
L 381.490398 238.13623 
L 381.490398 238.13623 
" style="fill:none;stroke:#29ffce;stroke-linecap:round;stroke-width:1.5;"/>
   </g>
   <g id="line2d_23">
    <path clip-path="url(#pa244dcaf20)" d="M 56.835852 276.334125 
L 61.717876 276.334125 
L 62.531546 273.150967 
L 66.599899 273.150967 
L 68.22724 260.418336 
L 74.736604 234.953072 
L 75.550275 225.403599 
L 76.363945 222.220441 
L 77.991286 209.487809 
L 78.804957 209.487809 
L 79.618627 206.304651 
L 80.432298 193.57202 
L 81.245968 190.388862 
L 82.059639 180.839388 
L 82.87331 161.740441 
L 83.68698 158.557283 
L 84.500651 158.557283 
L 85.314321 155.374125 
L 86.127992 155.374125 
L 87.755333 142.641493 
L 90.196344 133.09202 
L 91.010015 136.275178 
L 93.451027 117.17623 
L 94.264697 117.17623 
L 95.078368 110.809914 
L 95.892038 113.993072 
L 97.519379 94.894125 
L 98.33305 88.527809 
L 99.14672 78.978336 
L 101.587732 69.428862 
L 102.401403 72.61202 
L 103.215073 72.61202 
L 104.028744 69.428862 
L 104.842414 75.795178 
L 105.656085 66.245704 
L 107.283426 66.245704 
L 108.097096 59.879388 
L 108.910767 63.062546 
L 109.724437 56.69623 
L 110.538108 47.146757 
L 111.351778 50.329914 
L 112.165449 47.146757 
L 113.79279 47.146757 
L 114.606461 50.329914 
L 115.420131 56.69623 
L 116.233802 50.329914 
L 117.047472 53.513072 
L 117.861143 59.879388 
L 118.674813 56.69623 
L 120.302154 56.69623 
L 121.115825 53.513072 
L 121.929495 59.879388 
L 123.556837 53.513072 
L 125.184178 53.513072 
L 125.997848 63.062546 
L 126.811519 59.879388 
L 127.625189 53.513072 
L 128.43886 56.69623 
L 129.25253 56.69623 
L 130.066201 63.062546 
L 130.879871 75.795178 
L 131.693542 75.795178 
L 132.507212 69.428862 
L 133.320883 72.61202 
L 135.761895 72.61202 
L 136.575565 82.161493 
L 137.389236 85.344651 
L 138.202906 82.161493 
L 139.016577 88.527809 
L 139.830247 101.260441 
L 140.643918 98.077283 
L 142.271259 98.077283 
L 143.8986 110.809914 
L 144.712271 120.359388 
L 145.525941 120.359388 
L 146.339612 123.542546 
L 147.153282 123.542546 
L 151.221635 139.458336 
L 152.848976 126.725704 
L 153.662647 123.542546 
L 154.476317 123.542546 
L 155.289988 126.725704 
L 156.103658 126.725704 
L 157.730999 133.09202 
L 158.54467 139.458336 
L 159.35834 149.007809 
L 160.172011 145.824651 
L 160.985681 161.740441 
L 161.799352 161.740441 
L 162.613022 155.374125 
L 163.426693 161.740441 
L 164.240364 164.923599 
L 165.054034 164.923599 
L 166.681375 171.289914 
L 167.495046 168.106757 
L 168.308716 168.106757 
L 169.122387 171.289914 
L 169.936057 177.65623 
L 173.190739 177.65623 
L 174.00441 174.473072 
L 174.818081 174.473072 
L 175.631751 180.839388 
L 176.445422 180.839388 
L 177.259092 184.022546 
L 178.072763 184.022546 
L 178.886433 187.205704 
L 180.513774 187.205704 
L 181.327445 184.022546 
L 183.768457 193.57202 
L 187.023139 193.57202 
L 187.836809 196.755178 
L 188.65048 196.755178 
L 190.277821 203.121493 
L 191.091491 203.121493 
L 191.905162 196.755178 
L 192.718832 199.938336 
L 195.159844 199.938336 
L 196.787185 206.304651 
L 197.600856 206.304651 
L 198.414526 203.121493 
L 199.228197 206.304651 
L 202.482879 206.304651 
L 203.296549 203.121493 
L 204.923891 203.121493 
L 205.737561 199.938336 
L 206.551232 193.57202 
L 207.364902 199.938336 
L 211.433255 199.938336 
L 212.246925 203.121493 
L 214.687937 203.121493 
L 215.501608 199.938336 
L 216.315278 209.487809 
L 217.942619 209.487809 
L 221.197301 222.220441 
L 222.010972 222.220441 
L 223.638313 228.586757 
L 224.451984 228.586757 
L 225.265654 231.769914 
L 226.079325 231.769914 
L 226.892995 234.953072 
L 229.334007 234.953072 
L 230.961348 228.586757 
L 232.588689 228.586757 
L 233.402359 231.769914 
L 234.21603 231.769914 
L 235.029701 234.953072 
L 235.843371 234.953072 
L 236.657042 241.319388 
L 239.098053 241.319388 
L 240.725394 247.685704 
L 241.539065 247.685704 
L 242.352735 250.868862 
L 243.166406 250.868862 
L 243.980076 247.685704 
L 244.793747 247.685704 
L 245.607418 244.502546 
L 252.116782 244.502546 
L 252.930452 247.685704 
L 253.744123 247.685704 
L 255.371464 254.05202 
L 257.812476 254.05202 
L 259.439817 247.685704 
L 271.644875 247.685704 
L 272.458545 241.319388 
L 276.526898 241.319388 
L 278.154239 234.953072 
L 278.96791 234.953072 
L 279.78158 241.319388 
L 280.595251 241.319388 
L 281.408921 244.502546 
L 282.222592 241.319388 
L 283.036262 244.502546 
L 284.663603 244.502546 
L 285.477274 247.685704 
L 289.545627 247.685704 
L 290.359297 244.502546 
L 291.172968 244.502546 
L 291.986638 247.685704 
L 292.800309 244.502546 
L 300.123344 244.502546 
L 301.750685 250.868862 
L 302.564355 247.685704 
L 303.378026 247.685704 
L 304.191696 244.502546 
L 305.819038 244.502546 
L 306.632708 241.319388 
L 307.446379 241.319388 
L 308.260049 231.769914 
L 309.07372 234.953072 
L 309.88739 241.319388 
L 310.701061 238.13623 
L 311.514731 238.13623 
L 312.328402 234.953072 
L 313.142072 234.953072 
L 313.955743 238.13623 
L 315.583084 238.13623 
L 318.024096 228.586757 
L 322.092448 228.586757 
L 322.906119 225.403599 
L 323.719789 228.586757 
L 324.53346 228.586757 
L 325.34713 225.403599 
L 326.974472 225.403599 
L 327.788142 222.220441 
L 328.601813 225.403599 
L 329.415483 215.854125 
L 330.229154 209.487809 
L 331.042824 209.487809 
L 331.856495 212.670967 
L 335.111177 212.670967 
L 335.924847 209.487809 
L 336.738518 209.487809 
L 338.365859 215.854125 
L 340.806871 215.854125 
L 341.620541 212.670967 
L 342.434212 215.854125 
L 344.061553 215.854125 
L 344.875223 212.670967 
L 345.688894 219.037283 
L 346.502565 219.037283 
L 347.316235 215.854125 
L 349.757247 215.854125 
L 352.198258 225.403599 
L 354.63927 225.403599 
L 355.45294 222.220441 
L 356.266611 222.220441 
L 357.080282 215.854125 
L 361.962305 215.854125 
L 362.775975 219.037283 
L 364.403316 219.037283 
L 365.216987 222.220441 
L 366.030657 219.037283 
L 366.844328 219.037283 
L 367.657999 222.220441 
L 368.471669 219.037283 
L 370.09901 219.037283 
L 370.912681 222.220441 
L 371.726351 222.220441 
L 373.353692 228.586757 
L 374.167363 228.586757 
L 374.981033 225.403599 
L 375.794704 225.403599 
L 376.608374 228.586757 
L 377.422045 225.403599 
L 378.235716 228.586757 
L 379.049386 228.586757 
L 380.676727 222.220441 
L 381.490398 222.220441 
L 381.490398 222.220441 
" style="fill:none;stroke:#7dff7a;stroke-linecap:round;stroke-width:1.5;"/>
   </g>
   <g id="line2d_24">
    <path clip-path="url(#pa244dcaf20)" d="M 56.835852 276.334125 
L 60.090534 276.334125 
L 60.904205 273.150967 
L 65.786228 273.150967 
L 66.599899 266.784651 
L 67.413569 269.967809 
L 68.22724 269.967809 
L 69.04091 263.601493 
L 69.854581 260.418336 
L 70.668251 250.868862 
L 72.295593 238.13623 
L 74.736604 238.13623 
L 75.550275 241.319388 
L 77.177616 228.586757 
L 77.991286 225.403599 
L 78.804957 219.037283 
L 79.618627 215.854125 
L 80.432298 215.854125 
L 81.245968 209.487809 
L 82.059639 209.487809 
L 82.87331 196.755178 
L 83.68698 199.938336 
L 84.500651 193.57202 
L 86.127992 187.205704 
L 86.941662 180.839388 
L 87.755333 177.65623 
L 88.569003 171.289914 
L 89.382674 171.289914 
L 90.196344 161.740441 
L 91.010015 161.740441 
L 91.823685 158.557283 
L 92.637356 149.007809 
L 93.451027 145.824651 
L 94.264697 145.824651 
L 95.078368 139.458336 
L 95.892038 129.908862 
L 96.705709 123.542546 
L 97.519379 123.542546 
L 98.33305 120.359388 
L 100.774061 120.359388 
L 101.587732 123.542546 
L 102.401403 133.09202 
L 103.215073 139.458336 
L 104.028744 139.458336 
L 104.842414 142.641493 
L 105.656085 136.275178 
L 106.469755 136.275178 
L 108.910767 145.824651 
L 109.724437 152.190967 
L 110.538108 152.190967 
L 112.165449 139.458336 
L 113.79279 139.458336 
L 114.606461 129.908862 
L 115.420131 133.09202 
L 116.233802 129.908862 
L 117.047472 123.542546 
L 118.674813 123.542546 
L 119.488484 126.725704 
L 121.115825 126.725704 
L 121.929495 136.275178 
L 122.743166 133.09202 
L 123.556837 133.09202 
L 125.184178 126.725704 
L 125.997848 126.725704 
L 126.811519 133.09202 
L 127.625189 133.09202 
L 128.43886 136.275178 
L 130.066201 136.275178 
L 130.879871 139.458336 
L 132.507212 133.09202 
L 133.320883 133.09202 
L 134.134554 129.908862 
L 134.948224 129.908862 
L 135.761895 136.275178 
L 136.575565 133.09202 
L 138.202906 120.359388 
L 139.830247 126.725704 
L 141.457588 120.359388 
L 142.271259 123.542546 
L 143.8986 123.542546 
L 144.712271 126.725704 
L 146.339612 126.725704 
L 147.153282 123.542546 
L 147.966953 126.725704 
L 148.780623 133.09202 
L 149.594294 133.09202 
L 150.407964 126.725704 
L 151.221635 129.908862 
L 152.035305 126.725704 
L 152.848976 129.908862 
L 153.662647 129.908862 
L 154.476317 126.725704 
L 155.289988 136.275178 
L 156.103658 142.641493 
L 156.917329 136.275178 
L 157.730999 139.458336 
L 159.35834 139.458336 
L 160.172011 149.007809 
L 160.985681 152.190967 
L 162.613022 152.190967 
L 163.426693 158.557283 
L 164.240364 158.557283 
L 165.867705 164.923599 
L 166.681375 174.473072 
L 167.495046 174.473072 
L 168.308716 177.65623 
L 169.122387 177.65623 
L 169.936057 174.473072 
L 170.749728 174.473072 
L 171.563398 184.022546 
L 172.377069 184.022546 
L 173.190739 190.388862 
L 174.00441 190.388862 
L 174.818081 187.205704 
L 175.631751 187.205704 
L 176.445422 184.022546 
L 178.886433 184.022546 
L 179.700104 193.57202 
L 180.513774 196.755178 
L 181.327445 196.755178 
L 182.141115 199.938336 
L 185.395798 199.938336 
L 186.209468 203.121493 
L 187.023139 203.121493 
L 187.836809 209.487809 
L 188.65048 219.037283 
L 189.46415 219.037283 
L 190.277821 222.220441 
L 191.091491 222.220441 
L 191.905162 225.403599 
L 193.532503 225.403599 
L 194.346174 228.586757 
L 195.973515 228.586757 
L 196.787185 231.769914 
L 197.600856 228.586757 
L 198.414526 228.586757 
L 200.041867 234.953072 
L 202.482879 234.953072 
L 203.296549 231.769914 
L 208.178573 231.769914 
L 208.992243 234.953072 
L 213.874266 234.953072 
L 217.942619 219.037283 
L 220.383631 219.037283 
L 221.197301 225.403599 
L 222.824642 225.403599 
L 223.638313 234.953072 
L 224.451984 231.769914 
L 225.265654 231.769914 
L 226.892995 238.13623 
L 229.334007 238.13623 
L 230.147677 241.319388 
L 232.588689 241.319388 
L 233.402359 244.502546 
L 237.470712 244.502546 
L 238.284383 247.685704 
L 239.098053 247.685704 
L 239.911724 244.502546 
L 241.539065 250.868862 
L 242.352735 250.868862 
L 243.166406 257.235178 
L 246.421088 257.235178 
L 247.234759 254.05202 
L 248.048429 254.05202 
L 248.8621 250.868862 
L 249.67577 250.868862 
L 250.489441 247.685704 
L 252.116782 247.685704 
L 252.930452 244.502546 
L 253.744123 247.685704 
L 254.557793 244.502546 
L 261.880828 244.502546 
L 262.694499 247.685704 
L 263.508169 244.502546 
L 264.32184 244.502546 
L 265.135511 250.868862 
L 268.390193 250.868862 
L 270.017534 244.502546 
L 271.644875 244.502546 
L 273.272216 238.13623 
L 274.899557 244.502546 
L 275.713228 238.13623 
L 276.526898 234.953072 
L 278.154239 234.953072 
L 279.78158 228.586757 
L 284.663603 228.586757 
L 285.477274 225.403599 
L 287.104615 225.403599 
L 287.918286 228.586757 
L 293.613979 228.586757 
L 294.42765 231.769914 
L 297.682332 231.769914 
L 298.496003 234.953072 
L 299.309673 234.953072 
L 300.123344 238.13623 
L 303.378026 238.13623 
L 304.191696 241.319388 
L 305.005367 238.13623 
L 306.632708 238.13623 
L 307.446379 241.319388 
L 308.260049 241.319388 
L 309.07372 244.502546 
L 309.88739 241.319388 
L 310.701061 244.502546 
L 311.514731 244.502546 
L 312.328402 247.685704 
L 318.024096 247.685704 
L 318.837766 244.502546 
L 319.651437 244.502546 
L 320.465107 247.685704 
L 321.278778 247.685704 
L 322.092448 250.868862 
L 325.34713 250.868862 
L 326.160801 247.685704 
L 327.788142 247.685704 
L 328.601813 241.319388 
L 329.415483 244.502546 
L 330.229154 241.319388 
L 332.670165 241.319388 
L 333.483836 244.502546 
L 338.365859 244.502546 
L 339.17953 241.319388 
L 339.9932 244.502546 
L 340.806871 241.319388 
L 344.061553 241.319388 
L 344.875223 244.502546 
L 345.688894 238.13623 
L 347.316235 238.13623 
L 348.129906 241.319388 
L 348.943576 234.953072 
L 349.757247 234.953072 
L 350.570917 238.13623 
L 352.198258 238.13623 
L 353.011929 241.319388 
L 354.63927 241.319388 
L 355.45294 244.502546 
L 356.266611 244.502546 
L 357.080282 238.13623 
L 358.707623 238.13623 
L 359.521293 244.502546 
L 360.334964 244.502546 
L 362.775975 234.953072 
L 363.589646 228.586757 
L 364.403316 231.769914 
L 366.030657 225.403599 
L 368.471669 225.403599 
L 369.28534 222.220441 
L 370.912681 222.220441 
L 371.726351 219.037283 
L 373.353692 219.037283 
L 374.167363 222.220441 
L 374.981033 215.854125 
L 375.794704 215.854125 
L 376.608374 219.037283 
L 377.422045 215.854125 
L 378.235716 215.854125 
L 379.049386 219.037283 
L 381.490398 209.487809 
L 381.490398 209.487809 
" style="fill:none;stroke:#ceff29;stroke-linecap:round;stroke-width:1.5;"/>
   </g>
   <g id="line2d_25">
    <path clip-path="url(#pa244dcaf20)" d="M 56.835852 276.334125 
L 63.345217 276.334125 
L 64.158887 273.150967 
L 65.786228 273.150967 
L 66.599899 266.784651 
L 67.413569 266.784651 
L 68.22724 260.418336 
L 69.854581 260.418336 
L 70.668251 250.868862 
L 72.295593 250.868862 
L 73.109263 244.502546 
L 74.736604 238.13623 
L 75.550275 238.13623 
L 76.363945 231.769914 
L 77.177616 231.769914 
L 77.991286 228.586757 
L 79.618627 215.854125 
L 82.059639 177.65623 
L 82.87331 171.289914 
L 83.68698 158.557283 
L 84.500651 149.007809 
L 85.314321 145.824651 
L 86.127992 129.908862 
L 86.941662 117.17623 
L 89.382674 107.626757 
L 91.010015 94.894125 
L 91.823685 85.344651 
L 95.892038 85.344651 
L 96.705709 72.61202 
L 97.519379 63.062546 
L 98.33305 59.879388 
L 99.960391 66.245704 
L 100.774061 56.69623 
L 101.587732 66.245704 
L 102.401403 66.245704 
L 103.215073 75.795178 
L 104.028744 75.795178 
L 104.842414 78.978336 
L 105.656085 72.61202 
L 106.469755 63.062546 
L 108.097096 50.329914 
L 108.910767 53.513072 
L 109.724437 50.329914 
L 110.538108 37.597283 
L 111.351778 37.597283 
L 112.97912 43.963599 
L 113.79279 43.963599 
L 114.606461 47.146757 
L 115.420131 37.597283 
L 116.233802 43.963599 
L 117.047472 47.146757 
L 117.861143 43.963599 
L 119.488484 50.329914 
L 120.302154 56.69623 
L 121.115825 53.513072 
L 121.929495 59.879388 
L 123.556837 66.245704 
L 124.370507 66.245704 
L 125.184178 63.062546 
L 126.811519 63.062546 
L 127.625189 59.879388 
L 128.43886 59.879388 
L 129.25253 53.513072 
L 130.879871 47.146757 
L 131.693542 40.780441 
L 133.320883 47.146757 
L 134.134554 47.146757 
L 134.948224 40.780441 
L 135.761895 50.329914 
L 136.575565 53.513072 
L 139.016577 53.513072 
L 139.830247 50.329914 
L 140.643918 59.879388 
L 141.457588 63.062546 
L 143.08493 75.795178 
L 143.8986 78.978336 
L 144.712271 85.344651 
L 145.525941 88.527809 
L 146.339612 88.527809 
L 147.153282 98.077283 
L 147.966953 104.443599 
L 148.780623 107.626757 
L 149.594294 107.626757 
L 150.407964 117.17623 
L 151.221635 113.993072 
L 152.035305 120.359388 
L 154.476317 120.359388 
L 155.289988 126.725704 
L 156.103658 129.908862 
L 157.730999 129.908862 
L 159.35834 142.641493 
L 160.172011 142.641493 
L 160.985681 145.824651 
L 161.799352 155.374125 
L 162.613022 155.374125 
L 163.426693 152.190967 
L 164.240364 155.374125 
L 165.054034 152.190967 
L 165.867705 152.190967 
L 167.495046 164.923599 
L 168.308716 164.923599 
L 169.122387 168.106757 
L 169.936057 168.106757 
L 171.563398 161.740441 
L 172.377069 164.923599 
L 173.190739 164.923599 
L 174.00441 161.740441 
L 175.631751 161.740441 
L 176.445422 168.106757 
L 178.072763 174.473072 
L 182.141115 174.473072 
L 182.954786 168.106757 
L 184.582127 174.473072 
L 185.395798 174.473072 
L 186.209468 180.839388 
L 188.65048 190.388862 
L 190.277821 190.388862 
L 191.905162 203.121493 
L 192.718832 199.938336 
L 193.532503 206.304651 
L 194.346174 209.487809 
L 195.159844 206.304651 
L 195.973515 206.304651 
L 196.787185 212.670967 
L 198.414526 212.670967 
L 199.228197 215.854125 
L 200.041867 215.854125 
L 200.855538 219.037283 
L 201.669208 215.854125 
L 202.482879 219.037283 
L 203.296549 219.037283 
L 204.11022 215.854125 
L 204.923891 215.854125 
L 205.737561 212.670967 
L 206.551232 212.670967 
L 208.178573 225.403599 
L 208.992243 228.586757 
L 209.805914 228.586757 
L 210.619584 231.769914 
L 211.433255 228.586757 
L 213.060596 228.586757 
L 213.874266 225.403599 
L 214.687937 228.586757 
L 216.315278 228.586757 
L 217.942619 234.953072 
L 218.75629 231.769914 
L 220.383631 231.769914 
L 222.010972 225.403599 
L 222.824642 231.769914 
L 223.638313 228.586757 
L 225.265654 228.586757 
L 226.079325 231.769914 
L 226.892995 231.769914 
L 227.706666 234.953072 
L 228.520336 234.953072 
L 229.334007 244.502546 
L 230.147677 247.685704 
L 230.961348 244.502546 
L 242.352735 244.502546 
L 243.166406 247.685704 
L 243.980076 254.05202 
L 244.793747 263.601493 
L 246.421088 263.601493 
L 247.234759 266.784651 
L 252.116782 266.784651 
L 252.930452 263.601493 
L 253.744123 263.601493 
L 254.557793 260.418336 
L 258.626146 260.418336 
L 259.439817 257.235178 
L 261.880828 257.235178 
L 262.694499 254.05202 
L 263.508169 254.05202 
L 266.762852 241.319388 
L 267.576522 241.319388 
L 268.390193 238.13623 
L 269.203863 238.13623 
L 270.017534 234.953072 
L 273.272216 234.953072 
L 274.085886 231.769914 
L 275.713228 231.769914 
L 276.526898 228.586757 
L 278.96791 228.586757 
L 279.78158 225.403599 
L 282.222592 225.403599 
L 283.849933 231.769914 
L 284.663603 231.769914 
L 287.104615 241.319388 
L 291.986638 241.319388 
L 292.800309 238.13623 
L 293.613979 231.769914 
L 296.054991 231.769914 
L 296.868662 234.953072 
L 297.682332 228.586757 
L 299.309673 222.220441 
L 303.378026 222.220441 
L 305.005367 228.586757 
L 305.819038 228.586757 
L 306.632708 225.403599 
L 307.446379 225.403599 
L 308.260049 219.037283 
L 309.88739 219.037283 
L 312.328402 209.487809 
L 313.142072 209.487809 
L 313.955743 206.304651 
L 315.583084 206.304651 
L 316.396755 203.121493 
L 317.210425 203.121493 
L 318.024096 206.304651 
L 318.837766 206.304651 
L 319.651437 209.487809 
L 322.906119 209.487809 
L 323.719789 215.854125 
L 329.415483 215.854125 
L 331.856495 206.304651 
L 332.670165 209.487809 
L 333.483836 209.487809 
L 334.297506 212.670967 
L 338.365859 212.670967 
L 339.17953 209.487809 
L 339.9932 209.487809 
L 340.806871 212.670967 
L 342.434212 212.670967 
L 343.247882 215.854125 
L 344.061553 212.670967 
L 344.875223 215.854125 
L 345.688894 215.854125 
L 346.502565 222.220441 
L 347.316235 222.220441 
L 348.129906 219.037283 
L 349.757247 219.037283 
L 350.570917 222.220441 
L 352.198258 215.854125 
L 353.011929 215.854125 
L 353.825599 212.670967 
L 355.45294 212.670967 
L 356.266611 209.487809 
L 361.962305 209.487809 
L 363.589646 215.854125 
L 364.403316 212.670967 
L 366.844328 222.220441 
L 369.28534 222.220441 
L 370.09901 219.037283 
L 370.912681 219.037283 
L 371.726351 222.220441 
L 372.540022 219.037283 
L 373.353692 219.037283 
L 374.167363 222.220441 
L 375.794704 215.854125 
L 376.608374 215.854125 
L 378.235716 209.487809 
L 379.049386 212.670967 
L 379.863057 212.670967 
L 381.490398 206.304651 
L 381.490398 206.304651 
" style="fill:none;stroke:#ffc400;stroke-linecap:round;stroke-width:1.5;"/>
   </g>
   <g id="line2d_26">
    <path clip-path="url(#pa244dcaf20)" d="M 56.835852 276.334125 
L 60.904205 276.334125 
L 61.717876 273.150967 
L 63.345217 273.150967 
L 65.786228 263.601493 
L 67.413569 263.601493 
L 68.22724 257.235178 
L 69.04091 257.235178 
L 69.854581 250.868862 
L 70.668251 247.685704 
L 71.481922 247.685704 
L 73.109263 241.319388 
L 73.922934 241.319388 
L 74.736604 234.953072 
L 75.550275 231.769914 
L 76.363945 231.769914 
L 77.177616 225.403599 
L 77.991286 225.403599 
L 78.804957 212.670967 
L 79.618627 209.487809 
L 80.432298 203.121493 
L 81.245968 206.304651 
L 82.059639 196.755178 
L 83.68698 184.022546 
L 84.500651 174.473072 
L 85.314321 171.289914 
L 86.127992 171.289914 
L 86.941662 158.557283 
L 87.755333 164.923599 
L 88.569003 158.557283 
L 89.382674 158.557283 
L 90.196344 155.374125 
L 91.010015 145.824651 
L 91.823685 142.641493 
L 92.637356 129.908862 
L 94.264697 117.17623 
L 95.078368 120.359388 
L 95.892038 120.359388 
L 96.705709 110.809914 
L 97.519379 113.993072 
L 98.33305 107.626757 
L 99.960391 107.626757 
L 100.774061 104.443599 
L 101.587732 104.443599 
L 102.401403 101.260441 
L 103.215073 104.443599 
L 104.028744 98.077283 
L 104.842414 101.260441 
L 107.283426 91.710967 
L 108.910767 98.077283 
L 109.724437 104.443599 
L 110.538108 94.894125 
L 111.351778 98.077283 
L 112.165449 91.710967 
L 112.97912 101.260441 
L 113.79279 101.260441 
L 114.606461 104.443599 
L 116.233802 98.077283 
L 117.047472 91.710967 
L 117.861143 94.894125 
L 118.674813 88.527809 
L 119.488484 91.710967 
L 120.302154 91.710967 
L 121.115825 85.344651 
L 121.929495 72.61202 
L 122.743166 82.161493 
L 123.556837 85.344651 
L 125.184178 85.344651 
L 125.997848 91.710967 
L 126.811519 94.894125 
L 127.625189 104.443599 
L 128.43886 104.443599 
L 129.25253 107.626757 
L 130.066201 107.626757 
L 130.879871 104.443599 
L 131.693542 117.17623 
L 132.507212 120.359388 
L 133.320883 113.993072 
L 134.134554 117.17623 
L 134.948224 110.809914 
L 136.575565 104.443599 
L 137.389236 110.809914 
L 139.016577 117.17623 
L 139.830247 117.17623 
L 140.643918 113.993072 
L 141.457588 117.17623 
L 142.271259 123.542546 
L 143.08493 126.725704 
L 144.712271 126.725704 
L 145.525941 123.542546 
L 146.339612 129.908862 
L 147.153282 126.725704 
L 152.848976 126.725704 
L 153.662647 136.275178 
L 156.103658 136.275178 
L 156.917329 133.09202 
L 159.35834 133.09202 
L 160.172011 136.275178 
L 161.799352 136.275178 
L 162.613022 139.458336 
L 165.867705 139.458336 
L 167.495046 145.824651 
L 169.936057 145.824651 
L 170.749728 155.374125 
L 173.190739 164.923599 
L 174.818081 164.923599 
L 175.631751 174.473072 
L 176.445422 168.106757 
L 178.886433 168.106757 
L 179.700104 171.289914 
L 181.327445 171.289914 
L 182.141115 180.839388 
L 183.768457 174.473072 
L 186.209468 174.473072 
L 187.023139 177.65623 
L 187.836809 177.65623 
L 188.65048 174.473072 
L 189.46415 184.022546 
L 191.091491 190.388862 
L 191.905162 190.388862 
L 192.718832 187.205704 
L 193.532503 196.755178 
L 194.346174 196.755178 
L 195.159844 199.938336 
L 195.973515 199.938336 
L 196.787185 196.755178 
L 197.600856 199.938336 
L 198.414526 199.938336 
L 199.228197 196.755178 
L 200.855538 203.121493 
L 201.669208 203.121493 
L 202.482879 206.304651 
L 203.296549 206.304651 
L 204.11022 209.487809 
L 204.923891 206.304651 
L 206.551232 206.304651 
L 207.364902 209.487809 
L 210.619584 209.487809 
L 211.433255 212.670967 
L 213.060596 212.670967 
L 215.501608 222.220441 
L 217.128949 222.220441 
L 217.942619 225.403599 
L 219.56996 225.403599 
L 221.197301 219.037283 
L 223.638313 219.037283 
L 224.451984 222.220441 
L 234.21603 222.220441 
L 235.029701 219.037283 
L 235.843371 219.037283 
L 236.657042 222.220441 
L 237.470712 219.037283 
L 238.284383 222.220441 
L 239.098053 219.037283 
L 240.725394 219.037283 
L 241.539065 215.854125 
L 242.352735 215.854125 
L 243.166406 219.037283 
L 243.980076 219.037283 
L 244.793747 215.854125 
L 246.421088 215.854125 
L 247.234759 219.037283 
L 250.489441 219.037283 
L 251.303111 222.220441 
L 252.116782 222.220441 
L 252.930452 215.854125 
L 253.744123 215.854125 
L 254.557793 219.037283 
L 257.812476 219.037283 
L 259.439817 225.403599 
L 260.253487 225.403599 
L 261.067158 231.769914 
L 262.694499 225.403599 
L 263.508169 228.586757 
L 264.32184 225.403599 
L 266.762852 225.403599 
L 268.390193 231.769914 
L 271.644875 231.769914 
L 272.458545 238.13623 
L 273.272216 234.953072 
L 274.899557 234.953072 
L 275.713228 231.769914 
L 276.526898 234.953072 
L 277.340569 234.953072 
L 278.154239 238.13623 
L 283.036262 238.13623 
L 283.849933 228.586757 
L 284.663603 225.403599 
L 287.918286 225.403599 
L 289.545627 219.037283 
L 292.800309 219.037283 
L 293.613979 215.854125 
L 294.42765 215.854125 
L 295.24132 212.670967 
L 296.054991 215.854125 
L 298.496003 215.854125 
L 299.309673 228.586757 
L 300.123344 225.403599 
L 302.564355 225.403599 
L 303.378026 228.586757 
L 304.191696 225.403599 
L 305.005367 228.586757 
L 305.819038 225.403599 
L 306.632708 228.586757 
L 309.07372 219.037283 
L 309.88739 219.037283 
L 310.701061 212.670967 
L 311.514731 212.670967 
L 313.142072 206.304651 
L 313.955743 206.304651 
L 314.769413 209.487809 
L 315.583084 206.304651 
L 316.396755 212.670967 
L 317.210425 212.670967 
L 318.837766 206.304651 
L 319.651437 212.670967 
L 320.465107 203.121493 
L 321.278778 206.304651 
L 323.719789 206.304651 
L 324.53346 203.121493 
L 325.34713 206.304651 
L 326.974472 206.304651 
L 328.601813 212.670967 
L 329.415483 212.670967 
L 331.042824 219.037283 
L 331.856495 219.037283 
L 332.670165 215.854125 
L 335.111177 215.854125 
L 335.924847 219.037283 
L 337.552189 219.037283 
L 338.365859 215.854125 
L 340.806871 215.854125 
L 341.620541 219.037283 
L 342.434212 219.037283 
L 343.247882 222.220441 
L 344.061553 219.037283 
L 345.688894 206.304651 
L 346.502565 209.487809 
L 347.316235 209.487809 
L 348.129906 203.121493 
L 350.570917 203.121493 
L 351.384588 209.487809 
L 353.011929 209.487809 
L 353.825599 212.670967 
L 354.63927 209.487809 
L 355.45294 212.670967 
L 356.266611 212.670967 
L 357.080282 209.487809 
L 357.893952 209.487809 
L 358.707623 212.670967 
L 359.521293 209.487809 
L 361.148634 209.487809 
L 361.962305 206.304651 
L 364.403316 206.304651 
L 365.216987 203.121493 
L 366.030657 206.304651 
L 366.844328 206.304651 
L 367.657999 209.487809 
L 368.471669 206.304651 
L 377.422045 206.304651 
L 378.235716 203.121493 
L 380.676727 212.670967 
L 381.490398 219.037283 
L 381.490398 219.037283 
" style="fill:none;stroke:#ff6800;stroke-linecap:round;stroke-width:1.5;"/>
   </g>
   <g id="line2d_27">
    <path clip-path="url(#pa244dcaf20)" d="M 56.835852 276.334125 
L 62.531546 276.334125 
L 64.158887 269.967809 
L 65.786228 269.967809 
L 66.599899 260.418336 
L 67.413569 254.05202 
L 68.22724 257.235178 
L 69.04091 254.05202 
L 69.854581 244.502546 
L 70.668251 238.13623 
L 72.295593 238.13623 
L 73.109263 234.953072 
L 73.922934 234.953072 
L 74.736604 225.403599 
L 75.550275 219.037283 
L 77.177616 212.670967 
L 77.991286 212.670967 
L 78.804957 219.037283 
L 79.618627 209.487809 
L 80.432298 206.304651 
L 81.245968 190.388862 
L 82.87331 184.022546 
L 83.68698 184.022546 
L 84.500651 177.65623 
L 86.127992 177.65623 
L 86.941662 164.923599 
L 87.755333 161.740441 
L 88.569003 164.923599 
L 89.382674 158.557283 
L 90.196344 149.007809 
L 91.010015 136.275178 
L 92.637356 123.542546 
L 93.451027 113.993072 
L 94.264697 110.809914 
L 95.078368 104.443599 
L 95.892038 104.443599 
L 96.705709 98.077283 
L 97.519379 104.443599 
L 98.33305 98.077283 
L 99.14672 101.260441 
L 100.774061 94.894125 
L 101.587732 94.894125 
L 102.401403 91.710967 
L 103.215073 85.344651 
L 104.028744 75.795178 
L 104.842414 72.61202 
L 105.656085 75.795178 
L 106.469755 72.61202 
L 107.283426 59.879388 
L 108.097096 63.062546 
L 108.910767 59.879388 
L 109.724437 63.062546 
L 111.351778 56.69623 
L 112.165449 56.69623 
L 112.97912 66.245704 
L 113.79279 69.428862 
L 114.606461 75.795178 
L 115.420131 85.344651 
L 116.233802 91.710967 
L 117.047472 91.710967 
L 117.861143 88.527809 
L 118.674813 88.527809 
L 119.488484 82.161493 
L 120.302154 91.710967 
L 121.929495 78.978336 
L 122.743166 66.245704 
L 124.370507 59.879388 
L 125.184178 59.879388 
L 125.997848 63.062546 
L 127.625189 63.062546 
L 128.43886 75.795178 
L 129.25253 82.161493 
L 130.066201 72.61202 
L 130.879871 66.245704 
L 131.693542 78.978336 
L 132.507212 85.344651 
L 133.320883 82.161493 
L 134.134554 82.161493 
L 134.948224 88.527809 
L 135.761895 91.710967 
L 136.575565 91.710967 
L 138.202906 104.443599 
L 139.830247 104.443599 
L 140.643918 110.809914 
L 142.271259 129.908862 
L 143.08493 136.275178 
L 143.8986 136.275178 
L 145.525941 129.908862 
L 146.339612 129.908862 
L 147.153282 126.725704 
L 147.966953 129.908862 
L 148.780623 136.275178 
L 149.594294 145.824651 
L 151.221635 145.824651 
L 156.103658 164.923599 
L 156.917329 177.65623 
L 160.172011 190.388862 
L 162.613022 190.388862 
L 163.426693 187.205704 
L 165.054034 187.205704 
L 165.867705 190.388862 
L 166.681375 190.388862 
L 167.495046 196.755178 
L 168.308716 199.938336 
L 169.122387 196.755178 
L 169.936057 196.755178 
L 170.749728 199.938336 
L 171.563398 199.938336 
L 172.377069 203.121493 
L 174.818081 203.121493 
L 175.631751 199.938336 
L 181.327445 199.938336 
L 182.141115 206.304651 
L 182.954786 209.487809 
L 183.768457 209.487809 
L 184.582127 212.670967 
L 185.395798 212.670967 
L 186.209468 209.487809 
L 187.023139 212.670967 
L 188.65048 206.304651 
L 189.46415 206.304651 
L 190.277821 199.938336 
L 191.091491 206.304651 
L 200.041867 206.304651 
L 200.855538 209.487809 
L 203.296549 209.487809 
L 204.11022 212.670967 
L 204.923891 222.220441 
L 208.178573 222.220441 
L 208.992243 228.586757 
L 209.805914 225.403599 
L 210.619584 228.586757 
L 212.246925 228.586757 
L 213.060596 231.769914 
L 215.501608 231.769914 
L 217.128949 238.13623 
L 217.942619 234.953072 
L 218.75629 238.13623 
L 219.56996 234.953072 
L 220.383631 238.13623 
L 225.265654 238.13623 
L 226.079325 234.953072 
L 226.892995 234.953072 
L 227.706666 231.769914 
L 228.520336 238.13623 
L 230.147677 238.13623 
L 230.961348 241.319388 
L 231.775018 241.319388 
L 233.402359 234.953072 
L 235.029701 234.953072 
L 235.843371 238.13623 
L 236.657042 238.13623 
L 238.284383 231.769914 
L 239.098053 231.769914 
L 239.911724 228.586757 
L 240.725394 231.769914 
L 243.166406 231.769914 
L 243.980076 234.953072 
L 248.048429 234.953072 
L 248.8621 231.769914 
L 252.116782 231.769914 
L 252.930452 234.953072 
L 258.626146 234.953072 
L 259.439817 238.13623 
L 261.067158 238.13623 
L 261.880828 234.953072 
L 265.135511 234.953072 
L 265.949181 231.769914 
L 266.762852 234.953072 
L 268.390193 234.953072 
L 269.203863 228.586757 
L 272.458545 228.586757 
L 273.272216 225.403599 
L 274.085886 225.403599 
L 274.899557 219.037283 
L 275.713228 215.854125 
L 276.526898 222.220441 
L 277.340569 219.037283 
L 278.154239 222.220441 
L 278.96791 222.220441 
L 279.78158 225.403599 
L 280.595251 225.403599 
L 281.408921 222.220441 
L 282.222592 228.586757 
L 283.849933 228.586757 
L 284.663603 225.403599 
L 286.290945 231.769914 
L 287.104615 231.769914 
L 287.918286 234.953072 
L 288.731956 234.953072 
L 289.545627 231.769914 
L 290.359297 231.769914 
L 291.172968 228.586757 
L 292.800309 228.586757 
L 293.613979 234.953072 
L 294.42765 231.769914 
L 295.24132 225.403599 
L 296.054991 225.403599 
L 296.868662 222.220441 
L 297.682332 225.403599 
L 299.309673 225.403599 
L 300.123344 228.586757 
L 300.937014 228.586757 
L 302.564355 234.953072 
L 303.378026 234.953072 
L 304.191696 241.319388 
L 307.446379 241.319388 
L 308.260049 234.953072 
L 309.07372 238.13623 
L 309.88739 231.769914 
L 313.142072 231.769914 
L 313.955743 234.953072 
L 315.583084 234.953072 
L 316.396755 238.13623 
L 319.651437 238.13623 
L 320.465107 234.953072 
L 322.092448 241.319388 
L 326.160801 241.319388 
L 326.974472 238.13623 
L 327.788142 238.13623 
L 328.601813 234.953072 
L 331.042824 234.953072 
L 331.856495 238.13623 
L 334.297506 238.13623 
L 335.111177 234.953072 
L 339.9932 234.953072 
L 340.806871 238.13623 
L 341.620541 234.953072 
L 342.434212 228.586757 
L 343.247882 228.586757 
L 344.061553 231.769914 
L 345.688894 231.769914 
L 346.502565 228.586757 
L 347.316235 231.769914 
L 350.570917 231.769914 
L 351.384588 228.586757 
L 353.825599 228.586757 
L 354.63927 231.769914 
L 355.45294 231.769914 
L 356.266611 228.586757 
L 366.030657 228.586757 
L 366.844328 222.220441 
L 368.471669 228.586757 
L 369.28534 225.403599 
L 370.912681 225.403599 
L 371.726351 228.586757 
L 372.540022 222.220441 
L 374.167363 222.220441 
L 374.981033 225.403599 
L 379.863057 225.403599 
L 381.490398 231.769914 
L 381.490398 231.769914 
" style="fill:none;stroke:#f10800;stroke-linecap:round;stroke-width:1.5;"/>
   </g>
   <g id="patch_3">
    <path d="M 40.603125 288.430125 
L 40.603125 22.318125 
" style="fill:none;stroke:#cccccc;stroke-linecap:square;stroke-linejoin:miter;stroke-width:0.8;"/>
   </g>
   <g id="patch_4">
    <path d="M 397.723125 288.430125 
L 397.723125 22.318125 
" style="fill:none;stroke:#cccccc;stroke-linecap:square;stroke-linejoin:miter;stroke-width:0.8;"/>
   </g>
   <g id="patch_5">
    <path d="M 40.603125 288.430125 
L 397.723125 288.430125 
" style="fill:none;stroke:#cccccc;stroke-linecap:square;stroke-linejoin:miter;stroke-width:0.8;"/>
   </g>
   <g id="patch_6">
    <path d="M 40.603125 22.318125 
L 397.723125 22.318125 
" style="fill:none;stroke:#cccccc;stroke-linecap:square;stroke-linejoin:miter;stroke-width:0.8;"/>
   </g>
   <g id="text_20">
    <!-- Effector T CD4 -->
    <defs>
     <path d="M 9.8125 72.90625 
L 55.90625 72.90625 
L 55.90625 64.59375 
L 19.671875 64.59375 
L 19.671875 43.015625 
L 54.390625 43.015625 
L 54.390625 34.71875 
L 19.671875 34.71875 
L 19.671875 8.296875 
L 56.78125 8.296875 
L 56.78125 0 
L 9.8125 0 
z
" id="DejaVuSans-69"/>
     <path d="M 37.109375 75.984375 
L 37.109375 68.5 
L 28.515625 68.5 
Q 23.6875 68.5 21.796875 66.546875 
Q 19.921875 64.59375 19.921875 59.515625 
L 19.921875 54.6875 
L 34.71875 54.6875 
L 34.71875 47.703125 
L 19.921875 47.703125 
L 19.921875 0 
L 10.890625 0 
L 10.890625 47.703125 
L 2.296875 47.703125 
L 2.296875 54.6875 
L 10.890625 54.6875 
L 10.890625 58.5 
Q 10.890625 67.625 15.140625 71.796875 
Q 19.390625 75.984375 28.609375 75.984375 
z
" id="DejaVuSans-102"/>
     <path d="M 30.609375 48.390625 
Q 23.390625 48.390625 19.1875 42.75 
Q 14.984375 37.109375 14.984375 27.296875 
Q 14.984375 17.484375 19.15625 11.84375 
Q 23.34375 6.203125 30.609375 6.203125 
Q 37.796875 6.203125 41.984375 11.859375 
Q 46.1875 17.53125 46.1875 27.296875 
Q 46.1875 37.015625 41.984375 42.703125 
Q 37.796875 48.390625 30.609375 48.390625 
z
M 30.609375 56 
Q 42.328125 56 49.015625 48.375 
Q 55.71875 40.765625 55.71875 27.296875 
Q 55.71875 13.875 49.015625 6.21875 
Q 42.328125 -1.421875 30.609375 -1.421875 
Q 18.84375 -1.421875 12.171875 6.21875 
Q 5.515625 13.875 5.515625 27.296875 
Q 5.515625 40.765625 12.171875 48.375 
Q 18.84375 56 30.609375 56 
z
" id="DejaVuSans-111"/>
     <path d="M -0.296875 72.90625 
L 61.375 72.90625 
L 61.375 64.59375 
L 35.5 64.59375 
L 35.5 0 
L 25.59375 0 
L 25.59375 64.59375 
L -0.296875 64.59375 
z
" id="DejaVuSans-84"/>
     <path d="M 64.40625 67.28125 
L 64.40625 56.890625 
Q 59.421875 61.53125 53.78125 63.8125 
Q 48.140625 66.109375 41.796875 66.109375 
Q 29.296875 66.109375 22.65625 58.46875 
Q 16.015625 50.828125 16.015625 36.375 
Q 16.015625 21.96875 22.65625 14.328125 
Q 29.296875 6.6875 41.796875 6.6875 
Q 48.140625 6.6875 53.78125 8.984375 
Q 59.421875 11.28125 64.40625 15.921875 
L 64.40625 5.609375 
Q 59.234375 2.09375 53.4375 0.328125 
Q 47.65625 -1.421875 41.21875 -1.421875 
Q 24.65625 -1.421875 15.125 8.703125 
Q 5.609375 18.84375 5.609375 36.375 
Q 5.609375 53.953125 15.125 64.078125 
Q 24.65625 74.21875 41.21875 74.21875 
Q 47.75 74.21875 53.53125 72.484375 
Q 59.328125 70.75 64.40625 67.28125 
z
" id="DejaVuSans-67"/>
     <path d="M 19.671875 64.796875 
L 19.671875 8.109375 
L 31.59375 8.109375 
Q 46.6875 8.109375 53.6875 14.9375 
Q 60.6875 21.78125 60.6875 36.53125 
Q 60.6875 51.171875 53.6875 57.984375 
Q 46.6875 64.796875 31.59375 64.796875 
z
M 9.8125 72.90625 
L 30.078125 72.90625 
Q 51.265625 72.90625 61.171875 64.09375 
Q 71.09375 55.28125 71.09375 36.53125 
Q 71.09375 17.671875 61.125 8.828125 
Q 51.171875 0 30.078125 0 
L 9.8125 0 
z
" id="DejaVuSans-68"/>
    </defs>
    <g style="fill:#262626;" transform="translate(175.560938 16.318125)scale(0.12 -0.12)">
     <use xlink:href="#DejaVuSans-69"/>
     <use x="63.183594" xlink:href="#DejaVuSans-102"/>
     <use x="98.388672" xlink:href="#DejaVuSans-102"/>
     <use x="133.59375" xlink:href="#DejaVuSans-101"/>
     <use x="195.117188" xlink:href="#DejaVuSans-99"/>
     <use x="250.097656" xlink:href="#DejaVuSans-116"/>
     <use x="289.306641" xlink:href="#DejaVuSans-111"/>
     <use x="350.488281" xlink:href="#DejaVuSans-114"/>
     <use x="391.601562" xlink:href="#DejaVuSans-32"/>
     <use x="423.388672" xlink:href="#DejaVuSans-84"/>
     <use x="484.472656" xlink:href="#DejaVuSans-32"/>
     <use x="516.259766" xlink:href="#DejaVuSans-67"/>
     <use x="586.083984" xlink:href="#DejaVuSans-68"/>
     <use x="663.085938" xlink:href="#DejaVuSans-52"/>
    </g>
   </g>
  </g>
 </g>
 <defs>
  <clipPath id="pa244dcaf20">
   <rect height="266.112" width="357.12" x="40.603125" y="22.318125"/>
  </clipPath>
 </defs>
</svg>
