<?xml version="1.0" encoding="utf-8" standalone="no"?>
<!DOCTYPE svg PUBLIC "-//W3C//DTD SVG 1.1//EN"
  "http://www.w3.org/Graphics/SVG/1.1/DTD/svg11.dtd">
<!-- Created with matplotlib (https://matplotlib.org/) -->
<svg height="325.986375pt" version="1.1" viewBox="0 0 430.373125 325.986375" width="430.373125pt" xmlns="http://www.w3.org/2000/svg" xmlns:xlink="http://www.w3.org/1999/xlink">
 <defs>
  <style type="text/css">
*{stroke-linecap:butt;stroke-linejoin:round;white-space:pre;}
  </style>
 </defs>
 <g id="figure_1">
  <g id="patch_1">
   <path d="M 0 325.986375 
L 430.373125 325.986375 
L 430.373125 0 
L 0 0 
z
" style="fill:#ffffff;"/>
  </g>
  <g id="axes_1">
   <g id="patch_2">
    <path d="M 66.053125 288.430125 
L 423.173125 288.430125 
L 423.173125 22.318125 
L 66.053125 22.318125 
z
" style="fill:#ffffff;"/>
   </g>
   <g id="matplotlib.axis_1">
    <g id="xtick_1">
     <g id="line2d_1">
      <path clip-path="url(#pf06a9a7f74)" d="M 82.285852 288.430125 
L 82.285852 22.318125 
" style="fill:none;stroke:#cccccc;stroke-linecap:round;stroke-width:0.8;"/>
     </g>
     <g id="text_1">
      <!-- 0 -->
      <defs>
       <path d="M 31.78125 66.40625 
Q 24.171875 66.40625 20.328125 58.90625 
Q 16.5 51.421875 16.5 36.375 
Q 16.5 21.390625 20.328125 13.890625 
Q 24.171875 6.390625 31.78125 6.390625 
Q 39.453125 6.390625 43.28125 13.890625 
Q 47.125 21.390625 47.125 36.375 
Q 47.125 51.421875 43.28125 58.90625 
Q 39.453125 66.40625 31.78125 66.40625 
z
M 31.78125 74.21875 
Q 44.046875 74.21875 50.515625 64.515625 
Q 56.984375 54.828125 56.984375 36.375 
Q 56.984375 17.96875 50.515625 8.265625 
Q 44.046875 -1.421875 31.78125 -1.421875 
Q 19.53125 -1.421875 13.0625 8.265625 
Q 6.59375 17.96875 6.59375 36.375 
Q 6.59375 54.828125 13.0625 64.515625 
Q 19.53125 74.21875 31.78125 74.21875 
z
" id="DejaVuSans-48"/>
      </defs>
      <g style="fill:#262626;" transform="translate(79.104602 303.028562)scale(0.1 -0.1)">
       <use xlink:href="#DejaVuSans-48"/>
      </g>
     </g>
    </g>
    <g id="xtick_2">
     <g id="line2d_2">
      <path clip-path="url(#pf06a9a7f74)" d="M 147.216761 288.430125 
L 147.216761 22.318125 
" style="fill:none;stroke:#cccccc;stroke-linecap:round;stroke-width:0.8;"/>
     </g>
     <g id="text_2">
      <!-- 10 -->
      <defs>
       <path d="M 12.40625 8.296875 
L 28.515625 8.296875 
L 28.515625 63.921875 
L 10.984375 60.40625 
L 10.984375 69.390625 
L 28.421875 72.90625 
L 38.28125 72.90625 
L 38.28125 8.296875 
L 54.390625 8.296875 
L 54.390625 0 
L 12.40625 0 
z
" id="DejaVuSans-49"/>
      </defs>
      <g style="fill:#262626;" transform="translate(140.854261 303.028562)scale(0.1 -0.1)">
       <use xlink:href="#DejaVuSans-49"/>
       <use x="63.623047" xlink:href="#DejaVuSans-48"/>
      </g>
     </g>
    </g>
    <g id="xtick_3">
     <g id="line2d_3">
      <path clip-path="url(#pf06a9a7f74)" d="M 212.14767 288.430125 
L 212.14767 22.318125 
" style="fill:none;stroke:#cccccc;stroke-linecap:round;stroke-width:0.8;"/>
     </g>
     <g id="text_3">
      <!-- 20 -->
      <defs>
       <path d="M 19.1875 8.296875 
L 53.609375 8.296875 
L 53.609375 0 
L 7.328125 0 
L 7.328125 8.296875 
Q 12.9375 14.109375 22.625 23.890625 
Q 32.328125 33.6875 34.8125 36.53125 
Q 39.546875 41.84375 41.421875 45.53125 
Q 43.3125 49.21875 43.3125 52.78125 
Q 43.3125 58.59375 39.234375 62.25 
Q 35.15625 65.921875 28.609375 65.921875 
Q 23.96875 65.921875 18.8125 64.3125 
Q 13.671875 62.703125 7.8125 59.421875 
L 7.8125 69.390625 
Q 13.765625 71.78125 18.9375 73 
Q 24.125 74.21875 28.421875 74.21875 
Q 39.75 74.21875 46.484375 68.546875 
Q 53.21875 62.890625 53.21875 53.421875 
Q 53.21875 48.921875 51.53125 44.890625 
Q 49.859375 40.875 45.40625 35.40625 
Q 44.1875 33.984375 37.640625 27.21875 
Q 31.109375 20.453125 19.1875 8.296875 
z
" id="DejaVuSans-50"/>
      </defs>
      <g style="fill:#262626;" transform="translate(205.78517 303.028562)scale(0.1 -0.1)">
       <use xlink:href="#DejaVuSans-50"/>
       <use x="63.623047" xlink:href="#DejaVuSans-48"/>
      </g>
     </g>
    </g>
    <g id="xtick_4">
     <g id="line2d_4">
      <path clip-path="url(#pf06a9a7f74)" d="M 277.07858 288.430125 
L 277.07858 22.318125 
" style="fill:none;stroke:#cccccc;stroke-linecap:round;stroke-width:0.8;"/>
     </g>
     <g id="text_4">
      <!-- 30 -->
      <defs>
       <path d="M 40.578125 39.3125 
Q 47.65625 37.796875 51.625 33 
Q 55.609375 28.21875 55.609375 21.1875 
Q 55.609375 10.40625 48.1875 4.484375 
Q 40.765625 -1.421875 27.09375 -1.421875 
Q 22.515625 -1.421875 17.65625 -0.515625 
Q 12.796875 0.390625 7.625 2.203125 
L 7.625 11.71875 
Q 11.71875 9.328125 16.59375 8.109375 
Q 21.484375 6.890625 26.8125 6.890625 
Q 36.078125 6.890625 40.9375 10.546875 
Q 45.796875 14.203125 45.796875 21.1875 
Q 45.796875 27.640625 41.28125 31.265625 
Q 36.765625 34.90625 28.71875 34.90625 
L 20.21875 34.90625 
L 20.21875 43.015625 
L 29.109375 43.015625 
Q 36.375 43.015625 40.234375 45.921875 
Q 44.09375 48.828125 44.09375 54.296875 
Q 44.09375 59.90625 40.109375 62.90625 
Q 36.140625 65.921875 28.71875 65.921875 
Q 24.65625 65.921875 20.015625 65.03125 
Q 15.375 64.15625 9.8125 62.3125 
L 9.8125 71.09375 
Q 15.4375 72.65625 20.34375 73.4375 
Q 25.25 74.21875 29.59375 74.21875 
Q 40.828125 74.21875 47.359375 69.109375 
Q 53.90625 64.015625 53.90625 55.328125 
Q 53.90625 49.265625 50.4375 45.09375 
Q 46.96875 40.921875 40.578125 39.3125 
z
" id="DejaVuSans-51"/>
      </defs>
      <g style="fill:#262626;" transform="translate(270.71608 303.028562)scale(0.1 -0.1)">
       <use xlink:href="#DejaVuSans-51"/>
       <use x="63.623047" xlink:href="#DejaVuSans-48"/>
      </g>
     </g>
    </g>
    <g id="xtick_5">
     <g id="line2d_5">
      <path clip-path="url(#pf06a9a7f74)" d="M 342.009489 288.430125 
L 342.009489 22.318125 
" style="fill:none;stroke:#cccccc;stroke-linecap:round;stroke-width:0.8;"/>
     </g>
     <g id="text_5">
      <!-- 40 -->
      <defs>
       <path d="M 37.796875 64.3125 
L 12.890625 25.390625 
L 37.796875 25.390625 
z
M 35.203125 72.90625 
L 47.609375 72.90625 
L 47.609375 25.390625 
L 58.015625 25.390625 
L 58.015625 17.1875 
L 47.609375 17.1875 
L 47.609375 0 
L 37.796875 0 
L 37.796875 17.1875 
L 4.890625 17.1875 
L 4.890625 26.703125 
z
" id="DejaVuSans-52"/>
      </defs>
      <g style="fill:#262626;" transform="translate(335.646989 303.028562)scale(0.1 -0.1)">
       <use xlink:href="#DejaVuSans-52"/>
       <use x="63.623047" xlink:href="#DejaVuSans-48"/>
      </g>
     </g>
    </g>
    <g id="xtick_6">
     <g id="line2d_6">
      <path clip-path="url(#pf06a9a7f74)" d="M 406.940398 288.430125 
L 406.940398 22.318125 
" style="fill:none;stroke:#cccccc;stroke-linecap:round;stroke-width:0.8;"/>
     </g>
     <g id="text_6">
      <!-- 50 -->
      <defs>
       <path d="M 10.796875 72.90625 
L 49.515625 72.90625 
L 49.515625 64.59375 
L 19.828125 64.59375 
L 19.828125 46.734375 
Q 21.96875 47.46875 24.109375 47.828125 
Q 26.265625 48.1875 28.421875 48.1875 
Q 40.625 48.1875 47.75 41.5 
Q 54.890625 34.8125 54.890625 23.390625 
Q 54.890625 11.625 47.5625 5.09375 
Q 40.234375 -1.421875 26.90625 -1.421875 
Q 22.3125 -1.421875 17.546875 -0.640625 
Q 12.796875 0.140625 7.71875 1.703125 
L 7.71875 11.625 
Q 12.109375 9.234375 16.796875 8.0625 
Q 21.484375 6.890625 26.703125 6.890625 
Q 35.15625 6.890625 40.078125 11.328125 
Q 45.015625 15.765625 45.015625 23.390625 
Q 45.015625 31 40.078125 35.4375 
Q 35.15625 39.890625 26.703125 39.890625 
Q 22.75 39.890625 18.8125 39.015625 
Q 14.890625 38.140625 10.796875 36.28125 
z
" id="DejaVuSans-53"/>
      </defs>
      <g style="fill:#262626;" transform="translate(400.577898 303.028562)scale(0.1 -0.1)">
       <use xlink:href="#DejaVuSans-53"/>
       <use x="63.623047" xlink:href="#DejaVuSans-48"/>
      </g>
     </g>
    </g>
    <g id="text_7">
     <!-- time (days) -->
     <defs>
      <path d="M 18.3125 70.21875 
L 18.3125 54.6875 
L 36.8125 54.6875 
L 36.8125 47.703125 
L 18.3125 47.703125 
L 18.3125 18.015625 
Q 18.3125 11.328125 20.140625 9.421875 
Q 21.96875 7.515625 27.59375 7.515625 
L 36.8125 7.515625 
L 36.8125 0 
L 27.59375 0 
Q 17.1875 0 13.234375 3.875 
Q 9.28125 7.765625 9.28125 18.015625 
L 9.28125 47.703125 
L 2.6875 47.703125 
L 2.6875 54.6875 
L 9.28125 54.6875 
L 9.28125 70.21875 
z
" id="DejaVuSans-116"/>
      <path d="M 9.421875 54.6875 
L 18.40625 54.6875 
L 18.40625 0 
L 9.421875 0 
z
M 9.421875 75.984375 
L 18.40625 75.984375 
L 18.40625 64.59375 
L 9.421875 64.59375 
z
" id="DejaVuSans-105"/>
      <path d="M 52 44.1875 
Q 55.375 50.25 60.0625 53.125 
Q 64.75 56 71.09375 56 
Q 79.640625 56 84.28125 50.015625 
Q 88.921875 44.046875 88.921875 33.015625 
L 88.921875 0 
L 79.890625 0 
L 79.890625 32.71875 
Q 79.890625 40.578125 77.09375 44.375 
Q 74.3125 48.1875 68.609375 48.1875 
Q 61.625 48.1875 57.5625 43.546875 
Q 53.515625 38.921875 53.515625 30.90625 
L 53.515625 0 
L 44.484375 0 
L 44.484375 32.71875 
Q 44.484375 40.625 41.703125 44.40625 
Q 38.921875 48.1875 33.109375 48.1875 
Q 26.21875 48.1875 22.15625 43.53125 
Q 18.109375 38.875 18.109375 30.90625 
L 18.109375 0 
L 9.078125 0 
L 9.078125 54.6875 
L 18.109375 54.6875 
L 18.109375 46.1875 
Q 21.1875 51.21875 25.484375 53.609375 
Q 29.78125 56 35.6875 56 
Q 41.65625 56 45.828125 52.96875 
Q 50 49.953125 52 44.1875 
z
" id="DejaVuSans-109"/>
      <path d="M 56.203125 29.59375 
L 56.203125 25.203125 
L 14.890625 25.203125 
Q 15.484375 15.921875 20.484375 11.0625 
Q 25.484375 6.203125 34.421875 6.203125 
Q 39.59375 6.203125 44.453125 7.46875 
Q 49.3125 8.734375 54.109375 11.28125 
L 54.109375 2.78125 
Q 49.265625 0.734375 44.1875 -0.34375 
Q 39.109375 -1.421875 33.890625 -1.421875 
Q 20.796875 -1.421875 13.15625 6.1875 
Q 5.515625 13.8125 5.515625 26.8125 
Q 5.515625 40.234375 12.765625 48.109375 
Q 20.015625 56 32.328125 56 
Q 43.359375 56 49.78125 48.890625 
Q 56.203125 41.796875 56.203125 29.59375 
z
M 47.21875 32.234375 
Q 47.125 39.59375 43.09375 43.984375 
Q 39.0625 48.390625 32.421875 48.390625 
Q 24.90625 48.390625 20.390625 44.140625 
Q 15.875 39.890625 15.1875 32.171875 
z
" id="DejaVuSans-101"/>
      <path id="DejaVuSans-32"/>
      <path d="M 31 75.875 
Q 24.46875 64.65625 21.28125 53.65625 
Q 18.109375 42.671875 18.109375 31.390625 
Q 18.109375 20.125 21.3125 9.0625 
Q 24.515625 -2 31 -13.1875 
L 23.1875 -13.1875 
Q 15.875 -1.703125 12.234375 9.375 
Q 8.59375 20.453125 8.59375 31.390625 
Q 8.59375 42.28125 12.203125 53.3125 
Q 15.828125 64.359375 23.1875 75.875 
z
" id="DejaVuSans-40"/>
      <path d="M 45.40625 46.390625 
L 45.40625 75.984375 
L 54.390625 75.984375 
L 54.390625 0 
L 45.40625 0 
L 45.40625 8.203125 
Q 42.578125 3.328125 38.25 0.953125 
Q 33.9375 -1.421875 27.875 -1.421875 
Q 17.96875 -1.421875 11.734375 6.484375 
Q 5.515625 14.40625 5.515625 27.296875 
Q 5.515625 40.1875 11.734375 48.09375 
Q 17.96875 56 27.875 56 
Q 33.9375 56 38.25 53.625 
Q 42.578125 51.265625 45.40625 46.390625 
z
M 14.796875 27.296875 
Q 14.796875 17.390625 18.875 11.75 
Q 22.953125 6.109375 30.078125 6.109375 
Q 37.203125 6.109375 41.296875 11.75 
Q 45.40625 17.390625 45.40625 27.296875 
Q 45.40625 37.203125 41.296875 42.84375 
Q 37.203125 48.484375 30.078125 48.484375 
Q 22.953125 48.484375 18.875 42.84375 
Q 14.796875 37.203125 14.796875 27.296875 
z
" id="DejaVuSans-100"/>
      <path d="M 34.28125 27.484375 
Q 23.390625 27.484375 19.1875 25 
Q 14.984375 22.515625 14.984375 16.5 
Q 14.984375 11.71875 18.140625 8.90625 
Q 21.296875 6.109375 26.703125 6.109375 
Q 34.1875 6.109375 38.703125 11.40625 
Q 43.21875 16.703125 43.21875 25.484375 
L 43.21875 27.484375 
z
M 52.203125 31.203125 
L 52.203125 0 
L 43.21875 0 
L 43.21875 8.296875 
Q 40.140625 3.328125 35.546875 0.953125 
Q 30.953125 -1.421875 24.3125 -1.421875 
Q 15.921875 -1.421875 10.953125 3.296875 
Q 6 8.015625 6 15.921875 
Q 6 25.140625 12.171875 29.828125 
Q 18.359375 34.515625 30.609375 34.515625 
L 43.21875 34.515625 
L 43.21875 35.40625 
Q 43.21875 41.609375 39.140625 45 
Q 35.0625 48.390625 27.6875 48.390625 
Q 23 48.390625 18.546875 47.265625 
Q 14.109375 46.140625 10.015625 43.890625 
L 10.015625 52.203125 
Q 14.9375 54.109375 19.578125 55.046875 
Q 24.21875 56 28.609375 56 
Q 40.484375 56 46.34375 49.84375 
Q 52.203125 43.703125 52.203125 31.203125 
z
" id="DejaVuSans-97"/>
      <path d="M 32.171875 -5.078125 
Q 28.375 -14.84375 24.75 -17.8125 
Q 21.140625 -20.796875 15.09375 -20.796875 
L 7.90625 -20.796875 
L 7.90625 -13.28125 
L 13.1875 -13.28125 
Q 16.890625 -13.28125 18.9375 -11.515625 
Q 21 -9.765625 23.484375 -3.21875 
L 25.09375 0.875 
L 2.984375 54.6875 
L 12.5 54.6875 
L 29.59375 11.921875 
L 46.6875 54.6875 
L 56.203125 54.6875 
z
" id="DejaVuSans-121"/>
      <path d="M 44.28125 53.078125 
L 44.28125 44.578125 
Q 40.484375 46.53125 36.375 47.5 
Q 32.28125 48.484375 27.875 48.484375 
Q 21.1875 48.484375 17.84375 46.4375 
Q 14.5 44.390625 14.5 40.28125 
Q 14.5 37.15625 16.890625 35.375 
Q 19.28125 33.59375 26.515625 31.984375 
L 29.59375 31.296875 
Q 39.15625 29.25 43.1875 25.515625 
Q 47.21875 21.78125 47.21875 15.09375 
Q 47.21875 7.46875 41.1875 3.015625 
Q 35.15625 -1.421875 24.609375 -1.421875 
Q 20.21875 -1.421875 15.453125 -0.5625 
Q 10.6875 0.296875 5.421875 2 
L 5.421875 11.28125 
Q 10.40625 8.6875 15.234375 7.390625 
Q 20.0625 6.109375 24.8125 6.109375 
Q 31.15625 6.109375 34.5625 8.28125 
Q 37.984375 10.453125 37.984375 14.40625 
Q 37.984375 18.0625 35.515625 20.015625 
Q 33.0625 21.96875 24.703125 23.78125 
L 21.578125 24.515625 
Q 13.234375 26.265625 9.515625 29.90625 
Q 5.8125 33.546875 5.8125 39.890625 
Q 5.8125 47.609375 11.28125 51.796875 
Q 16.75 56 26.8125 56 
Q 31.78125 56 36.171875 55.265625 
Q 40.578125 54.546875 44.28125 53.078125 
z
" id="DejaVuSans-115"/>
      <path d="M 8.015625 75.875 
L 15.828125 75.875 
Q 23.140625 64.359375 26.78125 53.3125 
Q 30.421875 42.28125 30.421875 31.390625 
Q 30.421875 20.453125 26.78125 9.375 
Q 23.140625 -1.703125 15.828125 -13.1875 
L 8.015625 -13.1875 
Q 14.5 -2 17.703125 9.0625 
Q 20.90625 20.125 20.90625 31.390625 
Q 20.90625 42.671875 17.703125 53.65625 
Q 14.5 64.65625 8.015625 75.875 
z
" id="DejaVuSans-41"/>
     </defs>
     <g style="fill:#262626;" transform="translate(216.024063 316.706687)scale(0.1 -0.1)">
      <use xlink:href="#DejaVuSans-116"/>
      <use x="39.208984" xlink:href="#DejaVuSans-105"/>
      <use x="66.992188" xlink:href="#DejaVuSans-109"/>
      <use x="164.404297" xlink:href="#DejaVuSans-101"/>
      <use x="225.927734" xlink:href="#DejaVuSans-32"/>
      <use x="257.714844" xlink:href="#DejaVuSans-40"/>
      <use x="296.728516" xlink:href="#DejaVuSans-100"/>
      <use x="360.205078" xlink:href="#DejaVuSans-97"/>
      <use x="421.484375" xlink:href="#DejaVuSans-121"/>
      <use x="480.664062" xlink:href="#DejaVuSans-115"/>
      <use x="532.763672" xlink:href="#DejaVuSans-41"/>
     </g>
    </g>
   </g>
   <g id="matplotlib.axis_2">
    <g id="ytick_1">
     <g id="line2d_7">
      <path clip-path="url(#pf06a9a7f74)" d="M 66.053125 276.791734 
L 423.173125 276.791734 
" style="fill:none;stroke:#cccccc;stroke-linecap:round;stroke-width:0.8;"/>
     </g>
     <g id="text_8">
      <!-- 0 -->
      <g style="fill:#262626;" transform="translate(52.690625 280.590953)scale(0.1 -0.1)">
       <use xlink:href="#DejaVuSans-48"/>
      </g>
     </g>
    </g>
    <g id="ytick_2">
     <g id="line2d_8">
      <path clip-path="url(#pf06a9a7f74)" d="M 66.053125 228.316212 
L 423.173125 228.316212 
" style="fill:none;stroke:#cccccc;stroke-linecap:round;stroke-width:0.8;"/>
     </g>
     <g id="text_9">
      <!-- 50000 -->
      <g style="fill:#262626;" transform="translate(27.240625 232.115431)scale(0.1 -0.1)">
       <use xlink:href="#DejaVuSans-53"/>
       <use x="63.623047" xlink:href="#DejaVuSans-48"/>
       <use x="127.246094" xlink:href="#DejaVuSans-48"/>
       <use x="190.869141" xlink:href="#DejaVuSans-48"/>
       <use x="254.492188" xlink:href="#DejaVuSans-48"/>
      </g>
     </g>
    </g>
    <g id="ytick_3">
     <g id="line2d_9">
      <path clip-path="url(#pf06a9a7f74)" d="M 66.053125 179.84069 
L 423.173125 179.84069 
" style="fill:none;stroke:#cccccc;stroke-linecap:round;stroke-width:0.8;"/>
     </g>
     <g id="text_10">
      <!-- 100000 -->
      <g style="fill:#262626;" transform="translate(20.878125 183.639909)scale(0.1 -0.1)">
       <use xlink:href="#DejaVuSans-49"/>
       <use x="63.623047" xlink:href="#DejaVuSans-48"/>
       <use x="127.246094" xlink:href="#DejaVuSans-48"/>
       <use x="190.869141" xlink:href="#DejaVuSans-48"/>
       <use x="254.492188" xlink:href="#DejaVuSans-48"/>
       <use x="318.115234" xlink:href="#DejaVuSans-48"/>
      </g>
     </g>
    </g>
    <g id="ytick_4">
     <g id="line2d_10">
      <path clip-path="url(#pf06a9a7f74)" d="M 66.053125 131.365169 
L 423.173125 131.365169 
" style="fill:none;stroke:#cccccc;stroke-linecap:round;stroke-width:0.8;"/>
     </g>
     <g id="text_11">
      <!-- 150000 -->
      <g style="fill:#262626;" transform="translate(20.878125 135.164387)scale(0.1 -0.1)">
       <use xlink:href="#DejaVuSans-49"/>
       <use x="63.623047" xlink:href="#DejaVuSans-53"/>
       <use x="127.246094" xlink:href="#DejaVuSans-48"/>
       <use x="190.869141" xlink:href="#DejaVuSans-48"/>
       <use x="254.492188" xlink:href="#DejaVuSans-48"/>
       <use x="318.115234" xlink:href="#DejaVuSans-48"/>
      </g>
     </g>
    </g>
    <g id="ytick_5">
     <g id="line2d_11">
      <path clip-path="url(#pf06a9a7f74)" d="M 66.053125 82.889647 
L 423.173125 82.889647 
" style="fill:none;stroke:#cccccc;stroke-linecap:round;stroke-width:0.8;"/>
     </g>
     <g id="text_12">
      <!-- 200000 -->
      <g style="fill:#262626;" transform="translate(20.878125 86.688866)scale(0.1 -0.1)">
       <use xlink:href="#DejaVuSans-50"/>
       <use x="63.623047" xlink:href="#DejaVuSans-48"/>
       <use x="127.246094" xlink:href="#DejaVuSans-48"/>
       <use x="190.869141" xlink:href="#DejaVuSans-48"/>
       <use x="254.492188" xlink:href="#DejaVuSans-48"/>
       <use x="318.115234" xlink:href="#DejaVuSans-48"/>
      </g>
     </g>
    </g>
    <g id="ytick_6">
     <g id="line2d_12">
      <path clip-path="url(#pf06a9a7f74)" d="M 66.053125 34.414125 
L 423.173125 34.414125 
" style="fill:none;stroke:#cccccc;stroke-linecap:round;stroke-width:0.8;"/>
     </g>
     <g id="text_13">
      <!-- 250000 -->
      <g style="fill:#262626;" transform="translate(20.878125 38.213344)scale(0.1 -0.1)">
       <use xlink:href="#DejaVuSans-50"/>
       <use x="63.623047" xlink:href="#DejaVuSans-53"/>
       <use x="127.246094" xlink:href="#DejaVuSans-48"/>
       <use x="190.869141" xlink:href="#DejaVuSans-48"/>
       <use x="254.492188" xlink:href="#DejaVuSans-48"/>
       <use x="318.115234" xlink:href="#DejaVuSans-48"/>
      </g>
     </g>
    </g>
    <g id="text_14">
     <!-- cells number -->
     <defs>
      <path d="M 48.78125 52.59375 
L 48.78125 44.1875 
Q 44.96875 46.296875 41.140625 47.34375 
Q 37.3125 48.390625 33.40625 48.390625 
Q 24.65625 48.390625 19.8125 42.84375 
Q 14.984375 37.3125 14.984375 27.296875 
Q 14.984375 17.28125 19.8125 11.734375 
Q 24.65625 6.203125 33.40625 6.203125 
Q 37.3125 6.203125 41.140625 7.25 
Q 44.96875 8.296875 48.78125 10.40625 
L 48.78125 2.09375 
Q 45.015625 0.34375 40.984375 -0.53125 
Q 36.96875 -1.421875 32.421875 -1.421875 
Q 20.0625 -1.421875 12.78125 6.34375 
Q 5.515625 14.109375 5.515625 27.296875 
Q 5.515625 40.671875 12.859375 48.328125 
Q 20.21875 56 33.015625 56 
Q 37.15625 56 41.109375 55.140625 
Q 45.0625 54.296875 48.78125 52.59375 
z
" id="DejaVuSans-99"/>
      <path d="M 9.421875 75.984375 
L 18.40625 75.984375 
L 18.40625 0 
L 9.421875 0 
z
" id="DejaVuSans-108"/>
      <path d="M 54.890625 33.015625 
L 54.890625 0 
L 45.90625 0 
L 45.90625 32.71875 
Q 45.90625 40.484375 42.875 44.328125 
Q 39.84375 48.1875 33.796875 48.1875 
Q 26.515625 48.1875 22.3125 43.546875 
Q 18.109375 38.921875 18.109375 30.90625 
L 18.109375 0 
L 9.078125 0 
L 9.078125 54.6875 
L 18.109375 54.6875 
L 18.109375 46.1875 
Q 21.34375 51.125 25.703125 53.5625 
Q 30.078125 56 35.796875 56 
Q 45.21875 56 50.046875 50.171875 
Q 54.890625 44.34375 54.890625 33.015625 
z
" id="DejaVuSans-110"/>
      <path d="M 8.5 21.578125 
L 8.5 54.6875 
L 17.484375 54.6875 
L 17.484375 21.921875 
Q 17.484375 14.15625 20.5 10.265625 
Q 23.53125 6.390625 29.59375 6.390625 
Q 36.859375 6.390625 41.078125 11.03125 
Q 45.3125 15.671875 45.3125 23.6875 
L 45.3125 54.6875 
L 54.296875 54.6875 
L 54.296875 0 
L 45.3125 0 
L 45.3125 8.40625 
Q 42.046875 3.421875 37.71875 1 
Q 33.40625 -1.421875 27.6875 -1.421875 
Q 18.265625 -1.421875 13.375 4.4375 
Q 8.5 10.296875 8.5 21.578125 
z
M 31.109375 56 
z
" id="DejaVuSans-117"/>
      <path d="M 48.6875 27.296875 
Q 48.6875 37.203125 44.609375 42.84375 
Q 40.53125 48.484375 33.40625 48.484375 
Q 26.265625 48.484375 22.1875 42.84375 
Q 18.109375 37.203125 18.109375 27.296875 
Q 18.109375 17.390625 22.1875 11.75 
Q 26.265625 6.109375 33.40625 6.109375 
Q 40.53125 6.109375 44.609375 11.75 
Q 48.6875 17.390625 48.6875 27.296875 
z
M 18.109375 46.390625 
Q 20.953125 51.265625 25.265625 53.625 
Q 29.59375 56 35.59375 56 
Q 45.5625 56 51.78125 48.09375 
Q 58.015625 40.1875 58.015625 27.296875 
Q 58.015625 14.40625 51.78125 6.484375 
Q 45.5625 -1.421875 35.59375 -1.421875 
Q 29.59375 -1.421875 25.265625 0.953125 
Q 20.953125 3.328125 18.109375 8.203125 
L 18.109375 0 
L 9.078125 0 
L 9.078125 75.984375 
L 18.109375 75.984375 
z
" id="DejaVuSans-98"/>
      <path d="M 41.109375 46.296875 
Q 39.59375 47.171875 37.8125 47.578125 
Q 36.03125 48 33.890625 48 
Q 26.265625 48 22.1875 43.046875 
Q 18.109375 38.09375 18.109375 28.8125 
L 18.109375 0 
L 9.078125 0 
L 9.078125 54.6875 
L 18.109375 54.6875 
L 18.109375 46.1875 
Q 20.953125 51.171875 25.484375 53.578125 
Q 30.03125 56 36.53125 56 
Q 37.453125 56 38.578125 55.875 
Q 39.703125 55.765625 41.0625 55.515625 
z
" id="DejaVuSans-114"/>
     </defs>
     <g style="fill:#262626;" transform="translate(14.798438 187.685844)rotate(-90)scale(0.1 -0.1)">
      <use xlink:href="#DejaVuSans-99"/>
      <use x="54.980469" xlink:href="#DejaVuSans-101"/>
      <use x="116.503906" xlink:href="#DejaVuSans-108"/>
      <use x="144.287109" xlink:href="#DejaVuSans-108"/>
      <use x="172.070312" xlink:href="#DejaVuSans-115"/>
      <use x="224.169922" xlink:href="#DejaVuSans-32"/>
      <use x="255.957031" xlink:href="#DejaVuSans-110"/>
      <use x="319.335938" xlink:href="#DejaVuSans-117"/>
      <use x="382.714844" xlink:href="#DejaVuSans-109"/>
      <use x="480.126953" xlink:href="#DejaVuSans-98"/>
      <use x="543.603516" xlink:href="#DejaVuSans-101"/>
      <use x="605.126953" xlink:href="#DejaVuSans-114"/>
     </g>
    </g>
   </g>
   <g id="line2d_13">
    <path clip-path="url(#pf06a9a7f74)" d="M 82.285852 155.602929 
L 82.935161 252.110907 
L 83.58447 271.145305 
L 84.23378 273.852178 
L 84.883089 274.938999 
L 85.532398 275.463505 
L 86.181707 275.765022 
L 88.129634 276.150888 
L 92.674798 276.240082 
L 95.272034 276.218753 
L 96.570652 276.056845 
L 99.167889 275.806711 
L 99.817198 275.688431 
L 101.115816 275.61184 
L 106.959598 274.246769 
L 108.258216 273.674758 
L 108.907525 273.377118 
L 109.556834 273.317978 
L 112.15407 272.034346 
L 114.101998 270.703208 
L 117.348543 268.156304 
L 119.29647 265.444584 
L 119.94578 264.46247 
L 120.595089 263.275789 
L 121.893707 261.626652 
L 122.543016 260.40119 
L 123.192325 259.686661 
L 123.841634 258.42242 
L 125.140252 256.519271 
L 126.43887 252.819619 
L 127.08818 251.620334 
L 127.737489 250.055545 
L 128.386798 248.909583 
L 129.685416 245.80715 
L 131.633343 239.185394 
L 132.931961 235.567181 
L 134.23058 230.866994 
L 136.178507 225.597705 
L 136.827816 223.370739 
L 138.775743 215.558424 
L 141.37298 206.119271 
L 142.022289 202.700777 
L 143.320907 197.706829 
L 144.619525 190.913469 
L 145.268834 187.348579 
L 145.918143 184.631041 
L 147.216761 180.908121 
L 149.164689 170.925072 
L 150.463307 167.160463 
L 151.761925 161.956131 
L 153.060543 155.872453 
L 153.709852 151.663809 
L 155.65778 143.636262 
L 156.307089 139.583709 
L 160.852252 121.265778 
L 161.501561 119.942397 
L 163.449489 113.145159 
L 164.748107 109.408666 
L 165.397416 106.956774 
L 166.046725 105.039082 
L 168.643961 95.999367 
L 169.29327 94.928058 
L 171.890507 86.231549 
L 173.189125 83.166927 
L 173.838434 80.94287 
L 176.43567 74.866948 
L 177.08498 73.862535 
L 177.734289 72.401483 
L 178.383598 70.254017 
L 180.331525 66.76281 
L 180.980834 65.223228 
L 184.876689 58.993154 
L 186.824616 56.486 
L 189.421852 53.106286 
L 190.071161 52.204641 
L 192.668398 49.933079 
L 193.317707 49.409543 
L 193.967016 48.647508 
L 195.914943 47.211663 
L 197.86287 45.833988 
L 201.758725 43.093182 
L 202.408034 42.793604 
L 203.706652 42.003453 
L 205.65458 41.320917 
L 206.303889 40.857491 
L 206.953198 40.66165 
L 207.602507 40.26706 
L 213.446289 38.68094 
L 215.394216 38.075966 
L 216.043525 37.965442 
L 217.342143 37.600906 
L 219.93938 36.971694 
L 220.588689 36.726407 
L 225.133852 36.198994 
L 227.731089 35.828641 
L 229.679016 35.749141 
L 231.626943 35.603714 
L 234.22418 35.490282 
L 238.769343 35.149014 
L 240.067961 35.107325 
L 241.36658 35.043337 
L 251.106216 34.768966 
L 277.07858 34.449997 
L 282.922361 34.417034 
L 320.582289 34.414125 
L 406.940398 34.414125 
L 406.940398 34.414125 
" style="fill:none;stroke:#000080;stroke-linecap:round;stroke-width:1.5;"/>
   </g>
   <g id="line2d_14">
    <path clip-path="url(#pf06a9a7f74)" d="M 82.285852 155.602929 
L 82.935161 249.402095 
L 83.58447 270.134106 
L 84.23378 273.858965 
L 84.883089 274.936091 
L 85.532398 275.385944 
L 86.831016 275.953107 
L 92.025489 276.334125 
L 97.86927 276.128589 
L 98.51858 276.135375 
L 99.817198 275.971528 
L 101.765125 275.702974 
L 106.310289 274.919609 
L 107.608907 274.428067 
L 109.556834 273.724203 
L 110.855452 273.242356 
L 112.15407 272.498742 
L 114.101998 271.385744 
L 116.049925 269.708491 
L 116.699234 269.415699 
L 117.348543 268.900888 
L 119.29647 266.730155 
L 119.94578 265.538626 
L 120.595089 265.216749 
L 121.893707 263.794477 
L 123.192325 261.300896 
L 123.841634 260.284849 
L 125.140252 257.596397 
L 125.789561 256.632703 
L 127.08818 254.113915 
L 127.737489 252.295114 
L 129.036107 249.584363 
L 130.334725 245.783882 
L 131.633343 243.275758 
L 133.58127 237.824201 
L 136.827816 227.215818 
L 138.126434 220.554312 
L 138.775743 219.016668 
L 140.074361 213.715385 
L 140.72367 211.967358 
L 141.37298 209.156747 
L 142.022289 205.600583 
L 142.671598 203.395916 
L 143.320907 200.084068 
L 143.970216 197.560433 
L 144.619525 194.105097 
L 145.268834 191.534925 
L 145.918143 189.469868 
L 146.567452 185.918551 
L 147.216761 184.408054 
L 150.463307 168.438278 
L 151.761925 163.847646 
L 153.060543 157.68059 
L 153.709852 153.912103 
L 154.359161 151.923637 
L 155.00847 149.420361 
L 156.307089 143.034196 
L 157.605707 136.685842 
L 158.255016 133.129678 
L 158.904325 130.475158 
L 159.553634 128.290851 
L 160.852252 122.764641 
L 161.501561 120.336018 
L 162.15087 118.632588 
L 162.80018 117.325688 
L 164.748107 109.99522 
L 166.696034 104.84518 
L 167.345343 102.259496 
L 167.994652 100.471719 
L 168.643961 97.916089 
L 169.29327 96.096318 
L 171.890507 87.811851 
L 172.539816 86.293598 
L 174.487743 80.491078 
L 175.137052 79.229745 
L 178.383598 70.714535 
L 179.682216 67.914589 
L 180.331525 67.307675 
L 181.630143 64.725869 
L 182.279452 63.926023 
L 183.57807 61.921075 
L 184.22738 61.073723 
L 184.876689 60.553096 
L 186.824616 57.943174 
L 187.473925 57.192773 
L 188.772543 55.33616 
L 191.36978 52.374306 
L 193.317707 50.324761 
L 193.967016 49.75178 
L 195.265634 48.346959 
L 195.914943 48.022173 
L 197.86287 46.463201 
L 198.51218 45.79133 
L 201.758725 43.310353 
L 206.303889 41.281167 
L 206.953198 41.03782 
L 207.602507 40.968985 
L 210.199743 39.736737 
L 212.14767 39.180238 
L 214.744907 38.270838 
L 215.394216 37.959625 
L 216.043525 37.801594 
L 216.692834 37.813229 
L 217.991452 37.391492 
L 219.29007 37.242187 
L 219.93938 37.065736 
L 223.835234 36.663389 
L 228.380398 36.055506 
L 230.328325 35.900384 
L 234.873489 35.467983 
L 236.172107 35.397209 
L 245.911743 34.89888 
L 248.50898 34.885307 
L 259.547234 34.576033 
L 271.884107 34.470357 
L 277.727889 34.440302 
L 303.700252 34.433515 
L 318.634361 34.414125 
L 406.940398 34.414125 
L 406.940398 34.414125 
" style="fill:none;stroke:#004cff;stroke-linecap:round;stroke-width:1.5;"/>
   </g>
   <g id="line2d_15">
    <path clip-path="url(#pf06a9a7f74)" d="M 82.285852 155.602929 
L 82.935161 239.575137 
L 83.58447 270.347398 
L 84.23378 273.647612 
L 84.883089 274.805207 
L 86.181707 275.717516 
L 88.778943 276.077205 
L 90.72687 276.199363 
L 96.570652 276.190637 
L 102.414434 275.717516 
L 103.713052 275.430541 
L 104.362361 275.376249 
L 105.01167 275.185255 
L 105.66098 275.139688 
L 108.258216 274.389287 
L 109.556834 273.880294 
L 112.15407 272.688766 
L 112.80338 272.26509 
L 114.101998 271.822023 
L 117.997852 268.650755 
L 118.647161 268.110737 
L 119.29647 267.000648 
L 119.94578 266.296783 
L 123.192325 261.092451 
L 123.841634 260.533044 
L 125.789561 257.005965 
L 127.08818 254.089678 
L 127.737489 252.002322 
L 128.386798 250.646946 
L 129.036107 248.277463 
L 129.685416 246.358801 
L 130.334725 244.931682 
L 130.984034 242.786155 
L 131.633343 241.436597 
L 132.282652 239.1534 
L 132.931961 238.196493 
L 133.58127 235.038798 
L 134.23058 233.439105 
L 134.879889 230.836939 
L 135.529198 229.165503 
L 136.178507 227.981731 
L 137.477125 221.803041 
L 138.126434 219.858203 
L 141.37298 206.04074 
L 143.970216 196.519178 
L 144.619525 193.727958 
L 145.268834 191.871345 
L 147.86607 181.873754 
L 148.51538 179.791245 
L 151.112616 169.083003 
L 152.411234 160.204226 
L 153.060543 156.058599 
L 157.605707 136.4328 
L 158.255016 134.288243 
L 159.553634 128.39168 
L 162.15087 119.513873 
L 162.80018 116.031392 
L 163.449489 113.287677 
L 164.098798 111.871222 
L 165.397416 107.609254 
L 166.046725 105.916489 
L 166.696034 103.750603 
L 167.345343 100.361194 
L 167.994652 98.177857 
L 168.643961 96.581073 
L 169.29327 94.27073 
L 171.890507 87.305767 
L 173.189125 82.746159 
L 173.838434 81.465436 
L 174.487743 79.720317 
L 175.786361 77.115243 
L 176.43567 75.696849 
L 177.08498 73.985663 
L 177.734289 72.655495 
L 178.383598 71.024778 
L 179.032907 70.09114 
L 179.682216 68.940331 
L 180.331525 67.081779 
L 180.980834 65.722526 
L 182.279452 63.862035 
L 184.876689 59.53511 
L 185.525998 58.175856 
L 188.123234 54.219284 
L 188.772543 53.467914 
L 190.72047 51.821685 
L 191.36978 51.112973 
L 192.019089 50.571986 
L 192.668398 50.291797 
L 193.317707 49.690701 
L 193.967016 48.823959 
L 196.564252 46.614444 
L 197.213561 46.261543 
L 198.51218 45.145636 
L 201.109416 43.588602 
L 201.758725 43.473231 
L 205.00527 41.966611 
L 205.65458 41.768831 
L 206.953198 40.893363 
L 208.251816 40.410547 
L 209.550434 39.982993 
L 210.849052 39.365415 
L 211.498361 39.093952 
L 212.79698 38.841879 
L 214.744907 38.266959 
L 219.29007 37.024047 
L 221.887307 36.643999 
L 223.835234 36.199963 
L 227.731089 35.859665 
L 232.276252 35.43308 
L 233.57487 35.33516 
L 235.522798 35.150953 
L 237.470725 35.068545 
L 240.71727 34.892094 
L 243.963816 34.83974 
L 260.196543 34.492655 
L 263.443089 34.490716 
L 275.779961 34.48296 
L 290.064761 34.439332 
L 304.99887 34.414125 
L 406.940398 34.414125 
L 406.940398 34.414125 
" style="fill:none;stroke:#29ffce;stroke-linecap:round;stroke-width:1.5;"/>
   </g>
   <g id="line2d_16">
    <path clip-path="url(#pf06a9a7f74)" d="M 82.285852 155.602929 
L 82.935161 252.784717 
L 83.58447 271.173421 
L 84.23378 273.840544 
L 84.883089 274.793573 
L 86.181707 275.564334 
L 87.480325 275.934687 
L 88.778943 276.135375 
L 89.428252 276.10726 
L 90.72687 276.203241 
L 96.570652 276.081083 
L 101.115816 275.657407 
L 105.01167 274.907006 
L 105.66098 274.509506 
L 106.310289 274.44358 
L 109.556834 272.871034 
L 110.206143 272.820619 
L 110.855452 272.285449 
L 112.15407 271.57092 
L 114.751307 269.606692 
L 115.400616 268.825267 
L 116.699234 267.738445 
L 119.29647 264.388787 
L 119.94578 263.734367 
L 120.595089 262.606827 
L 121.244398 261.873877 
L 122.543016 259.856326 
L 125.140252 254.5405 
L 126.43887 251.692078 
L 127.08818 250.200971 
L 128.386798 246.605057 
L 130.334725 242.154035 
L 132.282652 236.369935 
L 135.529198 223.694556 
L 136.178507 221.772017 
L 139.425052 207.181854 
L 140.074361 205.573436 
L 140.72367 202.460338 
L 141.37298 200.016203 
L 142.671598 195.955893 
L 143.970216 189.705459 
L 144.619525 186.69319 
L 145.268834 184.27717 
L 145.918143 180.945932 
L 146.567452 178.460107 
L 147.86607 172.804953 
L 148.51538 171.203322 
L 149.813998 166.468233 
L 150.463307 165.029479 
L 151.112616 162.034662 
L 151.761925 159.595373 
L 153.709852 149.892513 
L 157.605707 132.122356 
L 159.553634 125.390076 
L 160.852252 119.850293 
L 161.501561 118.131351 
L 162.80018 113.752072 
L 163.449489 110.916254 
L 164.748107 107.143889 
L 166.046725 101.793161 
L 167.345343 98.186582 
L 167.994652 96.017788 
L 168.643961 94.976533 
L 171.241198 87.364907 
L 171.890507 85.97172 
L 173.189125 82.642422 
L 174.487743 79.582647 
L 175.786361 76.329939 
L 177.08498 73.43789 
L 178.383598 70.096957 
L 181.630143 64.000675 
L 182.279452 62.863439 
L 183.57807 60.112938 
L 185.525998 56.809816 
L 188.123234 53.89062 
L 188.772543 53.169304 
L 190.071161 52.138715 
L 190.72047 51.513381 
L 191.36978 50.667967 
L 195.265634 47.341577 
L 195.914943 46.910145 
L 197.86287 45.218349 
L 198.51218 44.827637 
L 199.161489 44.255625 
L 199.810798 43.919205 
L 201.109416 43.01853 
L 202.408034 42.48433 
L 203.057343 42.234196 
L 203.706652 41.856087 
L 206.953198 40.616083 
L 208.251816 40.081883 
L 208.901125 39.69214 
L 209.550434 39.510841 
L 210.199743 39.455579 
L 210.849052 39.251013 
L 211.498361 39.188964 
L 212.14767 39.009604 
L 212.79698 38.709056 
L 213.446289 38.594654 
L 214.744907 38.08857 
L 221.887307 36.739011 
L 223.185925 36.591645 
L 224.484543 36.322122 
L 229.029707 35.805372 
L 231.626943 35.432111 
L 233.57487 35.288623 
L 234.873489 35.310922 
L 240.067961 35.015221 
L 251.106216 34.64099 
L 256.949998 34.547917 
L 264.092398 34.449027 
L 406.940398 34.414125 
L 406.940398 34.414125 
" style="fill:none;stroke:#ceff29;stroke-linecap:round;stroke-width:1.5;"/>
   </g>
   <g id="line2d_17">
    <path clip-path="url(#pf06a9a7f74)" d="M 82.285852 155.602929 
L 82.935161 243.680044 
L 83.58447 270.038124 
L 84.23378 273.732929 
L 84.883089 274.888585 
L 85.532398 275.398547 
L 87.480325 275.956985 
L 89.428252 276.189668 
L 94.622725 276.232326 
L 98.51858 275.997705 
L 100.466507 275.764053 
L 103.713052 275.261846 
L 106.310289 274.578342 
L 107.608907 274.14594 
L 108.258216 273.958824 
L 108.907525 273.592349 
L 109.556834 273.455649 
L 112.80338 271.870499 
L 113.452689 271.49142 
L 118.647161 266.988044 
L 121.244398 263.7683 
L 123.192325 260.729855 
L 124.490943 257.948329 
L 125.789561 255.216249 
L 126.43887 254.027629 
L 127.08818 252.397882 
L 127.737489 250.386148 
L 130.984034 241.928139 
L 131.633343 240.198532 
L 132.282652 237.494567 
L 133.58127 234.607365 
L 135.529198 229.499984 
L 136.178507 227.379665 
L 137.477125 222.545686 
L 139.425052 215.371309 
L 140.72367 209.083064 
L 141.37298 206.976318 
L 143.320907 199.09032 
L 143.970216 195.52543 
L 149.164689 173.265471 
L 149.813998 171.103462 
L 150.463307 168.507113 
L 153.060543 155.66207 
L 153.709852 153.215025 
L 154.359161 151.419492 
L 155.00847 149.220642 
L 155.65778 146.496318 
L 156.307089 142.71038 
L 158.255016 135.214125 
L 160.202943 126.793927 
L 161.501561 122.889708 
L 162.80018 118.100327 
L 164.098798 111.920667 
L 165.397416 108.640813 
L 166.046725 106.618415 
L 167.345343 100.400944 
L 167.994652 97.65723 
L 171.890507 86.300384 
L 172.539816 84.776314 
L 174.487743 79.027117 
L 175.786361 76.13119 
L 177.734289 73.08014 
L 178.383598 71.333082 
L 182.279452 63.561487 
L 183.57807 61.289924 
L 184.876689 59.264616 
L 185.525998 58.154527 
L 191.36978 51.420308 
L 192.668398 49.844853 
L 193.317707 48.705678 
L 193.967016 47.964003 
L 194.616325 47.572321 
L 196.564252 45.653659 
L 197.86287 44.749106 
L 198.51218 44.446619 
L 199.161489 43.814498 
L 203.057343 41.745563 
L 203.706652 41.579777 
L 204.355961 41.21621 
L 205.65458 40.956381 
L 207.602507 40.145871 
L 208.251816 40.030499 
L 208.901125 39.759036 
L 211.498361 39.065836 
L 213.446289 38.420142 
L 214.095598 38.367789 
L 216.043525 37.899515 
L 217.342143 37.71046 
L 218.640761 37.397309 
L 219.29007 37.388583 
L 220.588689 37.062828 
L 227.731089 35.912019 
L 229.029707 35.814098 
L 235.522798 35.349703 
L 238.120034 35.134471 
L 239.418652 35.132532 
L 258.897925 34.509137 
L 269.28687 34.473265 
L 279.675816 34.442241 
L 306.946798 34.414125 
L 406.940398 34.414125 
L 406.940398 34.414125 
" style="fill:none;stroke:#ff6800;stroke-linecap:round;stroke-width:1.5;"/>
   </g>
   <g id="patch_3">
    <path d="M 66.053125 288.430125 
L 66.053125 22.318125 
" style="fill:none;stroke:#cccccc;stroke-linecap:square;stroke-linejoin:miter;stroke-width:0.8;"/>
   </g>
   <g id="patch_4">
    <path d="M 423.173125 288.430125 
L 423.173125 22.318125 
" style="fill:none;stroke:#cccccc;stroke-linecap:square;stroke-linejoin:miter;stroke-width:0.8;"/>
   </g>
   <g id="patch_5">
    <path d="M 66.053125 288.430125 
L 423.173125 288.430125 
" style="fill:none;stroke:#cccccc;stroke-linecap:square;stroke-linejoin:miter;stroke-width:0.8;"/>
   </g>
   <g id="patch_6">
    <path d="M 66.053125 22.318125 
L 423.173125 22.318125 
" style="fill:none;stroke:#cccccc;stroke-linecap:square;stroke-linejoin:miter;stroke-width:0.8;"/>
   </g>
   <g id="text_15">
    <!-- B cell -->
    <defs>
     <path d="M 19.671875 34.8125 
L 19.671875 8.109375 
L 35.5 8.109375 
Q 43.453125 8.109375 47.28125 11.40625 
Q 51.125 14.703125 51.125 21.484375 
Q 51.125 28.328125 47.28125 31.5625 
Q 43.453125 34.8125 35.5 34.8125 
z
M 19.671875 64.796875 
L 19.671875 42.828125 
L 34.28125 42.828125 
Q 41.5 42.828125 45.03125 45.53125 
Q 48.578125 48.25 48.578125 53.8125 
Q 48.578125 59.328125 45.03125 62.0625 
Q 41.5 64.796875 34.28125 64.796875 
z
M 9.8125 72.90625 
L 35.015625 72.90625 
Q 46.296875 72.90625 52.390625 68.21875 
Q 58.5 63.53125 58.5 54.890625 
Q 58.5 48.1875 55.375 44.234375 
Q 52.25 40.28125 46.1875 39.3125 
Q 53.46875 37.75 57.5 32.78125 
Q 61.53125 27.828125 61.53125 20.40625 
Q 61.53125 10.640625 54.890625 5.3125 
Q 48.25 0 35.984375 0 
L 9.8125 0 
z
" id="DejaVuSans-66"/>
    </defs>
    <g style="fill:#262626;" transform="translate(228.265 16.318125)scale(0.12 -0.12)">
     <use xlink:href="#DejaVuSans-66"/>
     <use x="68.603516" xlink:href="#DejaVuSans-32"/>
     <use x="100.390625" xlink:href="#DejaVuSans-99"/>
     <use x="155.371094" xlink:href="#DejaVuSans-101"/>
     <use x="216.894531" xlink:href="#DejaVuSans-108"/>
     <use x="244.677734" xlink:href="#DejaVuSans-108"/>
    </g>
   </g>
  </g>
 </g>
 <defs>
  <clipPath id="pf06a9a7f74">
   <rect height="266.112" width="357.12" x="66.053125" y="22.318125"/>
  </clipPath>
 </defs>
</svg>
