<?xml version="1.0" encoding="utf-8" standalone="no"?>
<!DOCTYPE svg PUBLIC "-//W3C//DTD SVG 1.1//EN"
  "http://www.w3.org/Graphics/SVG/1.1/DTD/svg11.dtd">
<!-- Created with matplotlib (https://matplotlib.org/) -->
<svg height="313.403708pt" version="1.1" viewBox="0 0 404.923125 313.403708" width="404.923125pt" xmlns="http://www.w3.org/2000/svg" xmlns:xlink="http://www.w3.org/1999/xlink">
 <defs>
  <style type="text/css">
*{stroke-linecap:butt;stroke-linejoin:round;white-space:pre;}
  </style>
 </defs>
 <g id="figure_1">
  <g id="patch_1">
   <path d="M 0 313.403708 
L 404.923125 313.403708 
L 404.923125 0 
L 0 0 
z
" style="fill:#ffffff;"/>
  </g>
  <g id="axes_1">
   <g id="patch_2">
    <path d="M 40.603125 275.847458 
L 397.723125 275.847458 
L 397.723125 9.735458 
L 40.603125 9.735458 
z
" style="fill:#ffffff;"/>
   </g>
   <g id="matplotlib.axis_1">
    <g id="xtick_1">
     <g id="line2d_1">
      <path clip-path="url(#p75e71416df)" d="M 56.835852 275.847458 
L 56.835852 9.735458 
" style="fill:none;stroke:#cccccc;stroke-linecap:round;stroke-width:0.8;"/>
     </g>
     <g id="text_1">
      <!-- 0 -->
      <defs>
       <path d="M 31.78125 66.40625 
Q 24.171875 66.40625 20.328125 58.90625 
Q 16.5 51.421875 16.5 36.375 
Q 16.5 21.390625 20.328125 13.890625 
Q 24.171875 6.390625 31.78125 6.390625 
Q 39.453125 6.390625 43.28125 13.890625 
Q 47.125 21.390625 47.125 36.375 
Q 47.125 51.421875 43.28125 58.90625 
Q 39.453125 66.40625 31.78125 66.40625 
z
M 31.78125 74.21875 
Q 44.046875 74.21875 50.515625 64.515625 
Q 56.984375 54.828125 56.984375 36.375 
Q 56.984375 17.96875 50.515625 8.265625 
Q 44.046875 -1.421875 31.78125 -1.421875 
Q 19.53125 -1.421875 13.0625 8.265625 
Q 6.59375 17.96875 6.59375 36.375 
Q 6.59375 54.828125 13.0625 64.515625 
Q 19.53125 74.21875 31.78125 74.21875 
z
" id="DejaVuSans-48"/>
      </defs>
      <g style="fill:#262626;" transform="translate(53.654602 290.445895)scale(0.1 -0.1)">
       <use xlink:href="#DejaVuSans-48"/>
      </g>
     </g>
    </g>
    <g id="xtick_2">
     <g id="line2d_2">
      <path clip-path="url(#p75e71416df)" d="M 97.519379 275.847458 
L 97.519379 9.735458 
" style="fill:none;stroke:#cccccc;stroke-linecap:round;stroke-width:0.8;"/>
     </g>
     <g id="text_2">
      <!-- 5 -->
      <defs>
       <path d="M 10.796875 72.90625 
L 49.515625 72.90625 
L 49.515625 64.59375 
L 19.828125 64.59375 
L 19.828125 46.734375 
Q 21.96875 47.46875 24.109375 47.828125 
Q 26.265625 48.1875 28.421875 48.1875 
Q 40.625 48.1875 47.75 41.5 
Q 54.890625 34.8125 54.890625 23.390625 
Q 54.890625 11.625 47.5625 5.09375 
Q 40.234375 -1.421875 26.90625 -1.421875 
Q 22.3125 -1.421875 17.546875 -0.640625 
Q 12.796875 0.140625 7.71875 1.703125 
L 7.71875 11.625 
Q 12.109375 9.234375 16.796875 8.0625 
Q 21.484375 6.890625 26.703125 6.890625 
Q 35.15625 6.890625 40.078125 11.328125 
Q 45.015625 15.765625 45.015625 23.390625 
Q 45.015625 31 40.078125 35.4375 
Q 35.15625 39.890625 26.703125 39.890625 
Q 22.75 39.890625 18.8125 39.015625 
Q 14.890625 38.140625 10.796875 36.28125 
z
" id="DejaVuSans-53"/>
      </defs>
      <g style="fill:#262626;" transform="translate(94.338129 290.445895)scale(0.1 -0.1)">
       <use xlink:href="#DejaVuSans-53"/>
      </g>
     </g>
    </g>
    <g id="xtick_3">
     <g id="line2d_3">
      <path clip-path="url(#p75e71416df)" d="M 138.202906 275.847458 
L 138.202906 9.735458 
" style="fill:none;stroke:#cccccc;stroke-linecap:round;stroke-width:0.8;"/>
     </g>
     <g id="text_3">
      <!-- 10 -->
      <defs>
       <path d="M 12.40625 8.296875 
L 28.515625 8.296875 
L 28.515625 63.921875 
L 10.984375 60.40625 
L 10.984375 69.390625 
L 28.421875 72.90625 
L 38.28125 72.90625 
L 38.28125 8.296875 
L 54.390625 8.296875 
L 54.390625 0 
L 12.40625 0 
z
" id="DejaVuSans-49"/>
      </defs>
      <g style="fill:#262626;" transform="translate(131.840406 290.445895)scale(0.1 -0.1)">
       <use xlink:href="#DejaVuSans-49"/>
       <use x="63.623047" xlink:href="#DejaVuSans-48"/>
      </g>
     </g>
    </g>
    <g id="xtick_4">
     <g id="line2d_4">
      <path clip-path="url(#p75e71416df)" d="M 178.886433 275.847458 
L 178.886433 9.735458 
" style="fill:none;stroke:#cccccc;stroke-linecap:round;stroke-width:0.8;"/>
     </g>
     <g id="text_4">
      <!-- 15 -->
      <g style="fill:#262626;" transform="translate(172.523933 290.445895)scale(0.1 -0.1)">
       <use xlink:href="#DejaVuSans-49"/>
       <use x="63.623047" xlink:href="#DejaVuSans-53"/>
      </g>
     </g>
    </g>
    <g id="xtick_5">
     <g id="line2d_5">
      <path clip-path="url(#p75e71416df)" d="M 219.56996 275.847458 
L 219.56996 9.735458 
" style="fill:none;stroke:#cccccc;stroke-linecap:round;stroke-width:0.8;"/>
     </g>
     <g id="text_5">
      <!-- 20 -->
      <defs>
       <path d="M 19.1875 8.296875 
L 53.609375 8.296875 
L 53.609375 0 
L 7.328125 0 
L 7.328125 8.296875 
Q 12.9375 14.109375 22.625 23.890625 
Q 32.328125 33.6875 34.8125 36.53125 
Q 39.546875 41.84375 41.421875 45.53125 
Q 43.3125 49.21875 43.3125 52.78125 
Q 43.3125 58.59375 39.234375 62.25 
Q 35.15625 65.921875 28.609375 65.921875 
Q 23.96875 65.921875 18.8125 64.3125 
Q 13.671875 62.703125 7.8125 59.421875 
L 7.8125 69.390625 
Q 13.765625 71.78125 18.9375 73 
Q 24.125 74.21875 28.421875 74.21875 
Q 39.75 74.21875 46.484375 68.546875 
Q 53.21875 62.890625 53.21875 53.421875 
Q 53.21875 48.921875 51.53125 44.890625 
Q 49.859375 40.875 45.40625 35.40625 
Q 44.1875 33.984375 37.640625 27.21875 
Q 31.109375 20.453125 19.1875 8.296875 
z
" id="DejaVuSans-50"/>
      </defs>
      <g style="fill:#262626;" transform="translate(213.20746 290.445895)scale(0.1 -0.1)">
       <use xlink:href="#DejaVuSans-50"/>
       <use x="63.623047" xlink:href="#DejaVuSans-48"/>
      </g>
     </g>
    </g>
    <g id="xtick_6">
     <g id="line2d_6">
      <path clip-path="url(#p75e71416df)" d="M 260.253487 275.847458 
L 260.253487 9.735458 
" style="fill:none;stroke:#cccccc;stroke-linecap:round;stroke-width:0.8;"/>
     </g>
     <g id="text_6">
      <!-- 25 -->
      <g style="fill:#262626;" transform="translate(253.890987 290.445895)scale(0.1 -0.1)">
       <use xlink:href="#DejaVuSans-50"/>
       <use x="63.623047" xlink:href="#DejaVuSans-53"/>
      </g>
     </g>
    </g>
    <g id="xtick_7">
     <g id="line2d_7">
      <path clip-path="url(#p75e71416df)" d="M 300.937014 275.847458 
L 300.937014 9.735458 
" style="fill:none;stroke:#cccccc;stroke-linecap:round;stroke-width:0.8;"/>
     </g>
     <g id="text_7">
      <!-- 30 -->
      <defs>
       <path d="M 40.578125 39.3125 
Q 47.65625 37.796875 51.625 33 
Q 55.609375 28.21875 55.609375 21.1875 
Q 55.609375 10.40625 48.1875 4.484375 
Q 40.765625 -1.421875 27.09375 -1.421875 
Q 22.515625 -1.421875 17.65625 -0.515625 
Q 12.796875 0.390625 7.625 2.203125 
L 7.625 11.71875 
Q 11.71875 9.328125 16.59375 8.109375 
Q 21.484375 6.890625 26.8125 6.890625 
Q 36.078125 6.890625 40.9375 10.546875 
Q 45.796875 14.203125 45.796875 21.1875 
Q 45.796875 27.640625 41.28125 31.265625 
Q 36.765625 34.90625 28.71875 34.90625 
L 20.21875 34.90625 
L 20.21875 43.015625 
L 29.109375 43.015625 
Q 36.375 43.015625 40.234375 45.921875 
Q 44.09375 48.828125 44.09375 54.296875 
Q 44.09375 59.90625 40.109375 62.90625 
Q 36.140625 65.921875 28.71875 65.921875 
Q 24.65625 65.921875 20.015625 65.03125 
Q 15.375 64.15625 9.8125 62.3125 
L 9.8125 71.09375 
Q 15.4375 72.65625 20.34375 73.4375 
Q 25.25 74.21875 29.59375 74.21875 
Q 40.828125 74.21875 47.359375 69.109375 
Q 53.90625 64.015625 53.90625 55.328125 
Q 53.90625 49.265625 50.4375 45.09375 
Q 46.96875 40.921875 40.578125 39.3125 
z
" id="DejaVuSans-51"/>
      </defs>
      <g style="fill:#262626;" transform="translate(294.574514 290.445895)scale(0.1 -0.1)">
       <use xlink:href="#DejaVuSans-51"/>
       <use x="63.623047" xlink:href="#DejaVuSans-48"/>
      </g>
     </g>
    </g>
    <g id="xtick_8">
     <g id="line2d_8">
      <path clip-path="url(#p75e71416df)" d="M 341.620541 275.847458 
L 341.620541 9.735458 
" style="fill:none;stroke:#cccccc;stroke-linecap:round;stroke-width:0.8;"/>
     </g>
     <g id="text_8">
      <!-- 35 -->
      <g style="fill:#262626;" transform="translate(335.258041 290.445895)scale(0.1 -0.1)">
       <use xlink:href="#DejaVuSans-51"/>
       <use x="63.623047" xlink:href="#DejaVuSans-53"/>
      </g>
     </g>
    </g>
    <g id="xtick_9">
     <g id="line2d_9">
      <path clip-path="url(#p75e71416df)" d="M 382.304068 275.847458 
L 382.304068 9.735458 
" style="fill:none;stroke:#cccccc;stroke-linecap:round;stroke-width:0.8;"/>
     </g>
     <g id="text_9">
      <!-- 40 -->
      <defs>
       <path d="M 37.796875 64.3125 
L 12.890625 25.390625 
L 37.796875 25.390625 
z
M 35.203125 72.90625 
L 47.609375 72.90625 
L 47.609375 25.390625 
L 58.015625 25.390625 
L 58.015625 17.1875 
L 47.609375 17.1875 
L 47.609375 0 
L 37.796875 0 
L 37.796875 17.1875 
L 4.890625 17.1875 
L 4.890625 26.703125 
z
" id="DejaVuSans-52"/>
      </defs>
      <g style="fill:#262626;" transform="translate(375.941568 290.445895)scale(0.1 -0.1)">
       <use xlink:href="#DejaVuSans-52"/>
       <use x="63.623047" xlink:href="#DejaVuSans-48"/>
      </g>
     </g>
    </g>
    <g id="text_10">
     <!-- time (days) -->
     <defs>
      <path d="M 18.3125 70.21875 
L 18.3125 54.6875 
L 36.8125 54.6875 
L 36.8125 47.703125 
L 18.3125 47.703125 
L 18.3125 18.015625 
Q 18.3125 11.328125 20.140625 9.421875 
Q 21.96875 7.515625 27.59375 7.515625 
L 36.8125 7.515625 
L 36.8125 0 
L 27.59375 0 
Q 17.1875 0 13.234375 3.875 
Q 9.28125 7.765625 9.28125 18.015625 
L 9.28125 47.703125 
L 2.6875 47.703125 
L 2.6875 54.6875 
L 9.28125 54.6875 
L 9.28125 70.21875 
z
" id="DejaVuSans-116"/>
      <path d="M 9.421875 54.6875 
L 18.40625 54.6875 
L 18.40625 0 
L 9.421875 0 
z
M 9.421875 75.984375 
L 18.40625 75.984375 
L 18.40625 64.59375 
L 9.421875 64.59375 
z
" id="DejaVuSans-105"/>
      <path d="M 52 44.1875 
Q 55.375 50.25 60.0625 53.125 
Q 64.75 56 71.09375 56 
Q 79.640625 56 84.28125 50.015625 
Q 88.921875 44.046875 88.921875 33.015625 
L 88.921875 0 
L 79.890625 0 
L 79.890625 32.71875 
Q 79.890625 40.578125 77.09375 44.375 
Q 74.3125 48.1875 68.609375 48.1875 
Q 61.625 48.1875 57.5625 43.546875 
Q 53.515625 38.921875 53.515625 30.90625 
L 53.515625 0 
L 44.484375 0 
L 44.484375 32.71875 
Q 44.484375 40.625 41.703125 44.40625 
Q 38.921875 48.1875 33.109375 48.1875 
Q 26.21875 48.1875 22.15625 43.53125 
Q 18.109375 38.875 18.109375 30.90625 
L 18.109375 0 
L 9.078125 0 
L 9.078125 54.6875 
L 18.109375 54.6875 
L 18.109375 46.1875 
Q 21.1875 51.21875 25.484375 53.609375 
Q 29.78125 56 35.6875 56 
Q 41.65625 56 45.828125 52.96875 
Q 50 49.953125 52 44.1875 
z
" id="DejaVuSans-109"/>
      <path d="M 56.203125 29.59375 
L 56.203125 25.203125 
L 14.890625 25.203125 
Q 15.484375 15.921875 20.484375 11.0625 
Q 25.484375 6.203125 34.421875 6.203125 
Q 39.59375 6.203125 44.453125 7.46875 
Q 49.3125 8.734375 54.109375 11.28125 
L 54.109375 2.78125 
Q 49.265625 0.734375 44.1875 -0.34375 
Q 39.109375 -1.421875 33.890625 -1.421875 
Q 20.796875 -1.421875 13.15625 6.1875 
Q 5.515625 13.8125 5.515625 26.8125 
Q 5.515625 40.234375 12.765625 48.109375 
Q 20.015625 56 32.328125 56 
Q 43.359375 56 49.78125 48.890625 
Q 56.203125 41.796875 56.203125 29.59375 
z
M 47.21875 32.234375 
Q 47.125 39.59375 43.09375 43.984375 
Q 39.0625 48.390625 32.421875 48.390625 
Q 24.90625 48.390625 20.390625 44.140625 
Q 15.875 39.890625 15.1875 32.171875 
z
" id="DejaVuSans-101"/>
      <path id="DejaVuSans-32"/>
      <path d="M 31 75.875 
Q 24.46875 64.65625 21.28125 53.65625 
Q 18.109375 42.671875 18.109375 31.390625 
Q 18.109375 20.125 21.3125 9.0625 
Q 24.515625 -2 31 -13.1875 
L 23.1875 -13.1875 
Q 15.875 -1.703125 12.234375 9.375 
Q 8.59375 20.453125 8.59375 31.390625 
Q 8.59375 42.28125 12.203125 53.3125 
Q 15.828125 64.359375 23.1875 75.875 
z
" id="DejaVuSans-40"/>
      <path d="M 45.40625 46.390625 
L 45.40625 75.984375 
L 54.390625 75.984375 
L 54.390625 0 
L 45.40625 0 
L 45.40625 8.203125 
Q 42.578125 3.328125 38.25 0.953125 
Q 33.9375 -1.421875 27.875 -1.421875 
Q 17.96875 -1.421875 11.734375 6.484375 
Q 5.515625 14.40625 5.515625 27.296875 
Q 5.515625 40.1875 11.734375 48.09375 
Q 17.96875 56 27.875 56 
Q 33.9375 56 38.25 53.625 
Q 42.578125 51.265625 45.40625 46.390625 
z
M 14.796875 27.296875 
Q 14.796875 17.390625 18.875 11.75 
Q 22.953125 6.109375 30.078125 6.109375 
Q 37.203125 6.109375 41.296875 11.75 
Q 45.40625 17.390625 45.40625 27.296875 
Q 45.40625 37.203125 41.296875 42.84375 
Q 37.203125 48.484375 30.078125 48.484375 
Q 22.953125 48.484375 18.875 42.84375 
Q 14.796875 37.203125 14.796875 27.296875 
z
" id="DejaVuSans-100"/>
      <path d="M 34.28125 27.484375 
Q 23.390625 27.484375 19.1875 25 
Q 14.984375 22.515625 14.984375 16.5 
Q 14.984375 11.71875 18.140625 8.90625 
Q 21.296875 6.109375 26.703125 6.109375 
Q 34.1875 6.109375 38.703125 11.40625 
Q 43.21875 16.703125 43.21875 25.484375 
L 43.21875 27.484375 
z
M 52.203125 31.203125 
L 52.203125 0 
L 43.21875 0 
L 43.21875 8.296875 
Q 40.140625 3.328125 35.546875 0.953125 
Q 30.953125 -1.421875 24.3125 -1.421875 
Q 15.921875 -1.421875 10.953125 3.296875 
Q 6 8.015625 6 15.921875 
Q 6 25.140625 12.171875 29.828125 
Q 18.359375 34.515625 30.609375 34.515625 
L 43.21875 34.515625 
L 43.21875 35.40625 
Q 43.21875 41.609375 39.140625 45 
Q 35.0625 48.390625 27.6875 48.390625 
Q 23 48.390625 18.546875 47.265625 
Q 14.109375 46.140625 10.015625 43.890625 
L 10.015625 52.203125 
Q 14.9375 54.109375 19.578125 55.046875 
Q 24.21875 56 28.609375 56 
Q 40.484375 56 46.34375 49.84375 
Q 52.203125 43.703125 52.203125 31.203125 
z
" id="DejaVuSans-97"/>
      <path d="M 32.171875 -5.078125 
Q 28.375 -14.84375 24.75 -17.8125 
Q 21.140625 -20.796875 15.09375 -20.796875 
L 7.90625 -20.796875 
L 7.90625 -13.28125 
L 13.1875 -13.28125 
Q 16.890625 -13.28125 18.9375 -11.515625 
Q 21 -9.765625 23.484375 -3.21875 
L 25.09375 0.875 
L 2.984375 54.6875 
L 12.5 54.6875 
L 29.59375 11.921875 
L 46.6875 54.6875 
L 56.203125 54.6875 
z
" id="DejaVuSans-121"/>
      <path d="M 44.28125 53.078125 
L 44.28125 44.578125 
Q 40.484375 46.53125 36.375 47.5 
Q 32.28125 48.484375 27.875 48.484375 
Q 21.1875 48.484375 17.84375 46.4375 
Q 14.5 44.390625 14.5 40.28125 
Q 14.5 37.15625 16.890625 35.375 
Q 19.28125 33.59375 26.515625 31.984375 
L 29.59375 31.296875 
Q 39.15625 29.25 43.1875 25.515625 
Q 47.21875 21.78125 47.21875 15.09375 
Q 47.21875 7.46875 41.1875 3.015625 
Q 35.15625 -1.421875 24.609375 -1.421875 
Q 20.21875 -1.421875 15.453125 -0.5625 
Q 10.6875 0.296875 5.421875 2 
L 5.421875 11.28125 
Q 10.40625 8.6875 15.234375 7.390625 
Q 20.0625 6.109375 24.8125 6.109375 
Q 31.15625 6.109375 34.5625 8.28125 
Q 37.984375 10.453125 37.984375 14.40625 
Q 37.984375 18.0625 35.515625 20.015625 
Q 33.0625 21.96875 24.703125 23.78125 
L 21.578125 24.515625 
Q 13.234375 26.265625 9.515625 29.90625 
Q 5.8125 33.546875 5.8125 39.890625 
Q 5.8125 47.609375 11.28125 51.796875 
Q 16.75 56 26.8125 56 
Q 31.78125 56 36.171875 55.265625 
Q 40.578125 54.546875 44.28125 53.078125 
z
" id="DejaVuSans-115"/>
      <path d="M 8.015625 75.875 
L 15.828125 75.875 
Q 23.140625 64.359375 26.78125 53.3125 
Q 30.421875 42.28125 30.421875 31.390625 
Q 30.421875 20.453125 26.78125 9.375 
Q 23.140625 -1.703125 15.828125 -13.1875 
L 8.015625 -13.1875 
Q 14.5 -2 17.703125 9.0625 
Q 20.90625 20.125 20.90625 31.390625 
Q 20.90625 42.671875 17.703125 53.65625 
Q 14.5 64.65625 8.015625 75.875 
z
" id="DejaVuSans-41"/>
     </defs>
     <g style="fill:#262626;" transform="translate(190.574062 304.12402)scale(0.1 -0.1)">
      <use xlink:href="#DejaVuSans-116"/>
      <use x="39.208984" xlink:href="#DejaVuSans-105"/>
      <use x="66.992188" xlink:href="#DejaVuSans-109"/>
      <use x="164.404297" xlink:href="#DejaVuSans-101"/>
      <use x="225.927734" xlink:href="#DejaVuSans-32"/>
      <use x="257.714844" xlink:href="#DejaVuSans-40"/>
      <use x="296.728516" xlink:href="#DejaVuSans-100"/>
      <use x="360.205078" xlink:href="#DejaVuSans-97"/>
      <use x="421.484375" xlink:href="#DejaVuSans-121"/>
      <use x="480.664062" xlink:href="#DejaVuSans-115"/>
      <use x="532.763672" xlink:href="#DejaVuSans-41"/>
     </g>
    </g>
   </g>
   <g id="matplotlib.axis_2">
    <g id="ytick_1">
     <g id="line2d_10">
      <path clip-path="url(#p75e71416df)" d="M 40.603125 263.751458 
L 397.723125 263.751458 
" style="fill:none;stroke:#cccccc;stroke-linecap:round;stroke-width:0.8;"/>
     </g>
     <g id="text_11">
      <!-- 0 -->
      <g style="fill:#262626;" transform="translate(27.240625 267.550676)scale(0.1 -0.1)">
       <use xlink:href="#DejaVuSans-48"/>
      </g>
     </g>
    </g>
    <g id="ytick_2">
     <g id="line2d_11">
      <path clip-path="url(#p75e71416df)" d="M 40.603125 227.643995 
L 397.723125 227.643995 
" style="fill:none;stroke:#cccccc;stroke-linecap:round;stroke-width:0.8;"/>
     </g>
     <g id="text_12">
      <!-- 10 -->
      <g style="fill:#262626;" transform="translate(20.878125 231.443214)scale(0.1 -0.1)">
       <use xlink:href="#DejaVuSans-49"/>
       <use x="63.623047" xlink:href="#DejaVuSans-48"/>
      </g>
     </g>
    </g>
    <g id="ytick_3">
     <g id="line2d_12">
      <path clip-path="url(#p75e71416df)" d="M 40.603125 191.536532 
L 397.723125 191.536532 
" style="fill:none;stroke:#cccccc;stroke-linecap:round;stroke-width:0.8;"/>
     </g>
     <g id="text_13">
      <!-- 20 -->
      <g style="fill:#262626;" transform="translate(20.878125 195.335751)scale(0.1 -0.1)">
       <use xlink:href="#DejaVuSans-50"/>
       <use x="63.623047" xlink:href="#DejaVuSans-48"/>
      </g>
     </g>
    </g>
    <g id="ytick_4">
     <g id="line2d_13">
      <path clip-path="url(#p75e71416df)" d="M 40.603125 155.429069 
L 397.723125 155.429069 
" style="fill:none;stroke:#cccccc;stroke-linecap:round;stroke-width:0.8;"/>
     </g>
     <g id="text_14">
      <!-- 30 -->
      <g style="fill:#262626;" transform="translate(20.878125 159.228288)scale(0.1 -0.1)">
       <use xlink:href="#DejaVuSans-51"/>
       <use x="63.623047" xlink:href="#DejaVuSans-48"/>
      </g>
     </g>
    </g>
    <g id="ytick_5">
     <g id="line2d_14">
      <path clip-path="url(#p75e71416df)" d="M 40.603125 119.321607 
L 397.723125 119.321607 
" style="fill:none;stroke:#cccccc;stroke-linecap:round;stroke-width:0.8;"/>
     </g>
     <g id="text_15">
      <!-- 40 -->
      <g style="fill:#262626;" transform="translate(20.878125 123.120826)scale(0.1 -0.1)">
       <use xlink:href="#DejaVuSans-52"/>
       <use x="63.623047" xlink:href="#DejaVuSans-48"/>
      </g>
     </g>
    </g>
    <g id="ytick_6">
     <g id="line2d_15">
      <path clip-path="url(#p75e71416df)" d="M 40.603125 83.214144 
L 397.723125 83.214144 
" style="fill:none;stroke:#cccccc;stroke-linecap:round;stroke-width:0.8;"/>
     </g>
     <g id="text_16">
      <!-- 50 -->
      <g style="fill:#262626;" transform="translate(20.878125 87.013363)scale(0.1 -0.1)">
       <use xlink:href="#DejaVuSans-53"/>
       <use x="63.623047" xlink:href="#DejaVuSans-48"/>
      </g>
     </g>
    </g>
    <g id="ytick_7">
     <g id="line2d_16">
      <path clip-path="url(#p75e71416df)" d="M 40.603125 47.106681 
L 397.723125 47.106681 
" style="fill:none;stroke:#cccccc;stroke-linecap:round;stroke-width:0.8;"/>
     </g>
     <g id="text_17">
      <!-- 60 -->
      <defs>
       <path d="M 33.015625 40.375 
Q 26.375 40.375 22.484375 35.828125 
Q 18.609375 31.296875 18.609375 23.390625 
Q 18.609375 15.53125 22.484375 10.953125 
Q 26.375 6.390625 33.015625 6.390625 
Q 39.65625 6.390625 43.53125 10.953125 
Q 47.40625 15.53125 47.40625 23.390625 
Q 47.40625 31.296875 43.53125 35.828125 
Q 39.65625 40.375 33.015625 40.375 
z
M 52.59375 71.296875 
L 52.59375 62.3125 
Q 48.875 64.0625 45.09375 64.984375 
Q 41.3125 65.921875 37.59375 65.921875 
Q 27.828125 65.921875 22.671875 59.328125 
Q 17.53125 52.734375 16.796875 39.40625 
Q 19.671875 43.65625 24.015625 45.921875 
Q 28.375 48.1875 33.59375 48.1875 
Q 44.578125 48.1875 50.953125 41.515625 
Q 57.328125 34.859375 57.328125 23.390625 
Q 57.328125 12.15625 50.6875 5.359375 
Q 44.046875 -1.421875 33.015625 -1.421875 
Q 20.359375 -1.421875 13.671875 8.265625 
Q 6.984375 17.96875 6.984375 36.375 
Q 6.984375 53.65625 15.1875 63.9375 
Q 23.390625 74.21875 37.203125 74.21875 
Q 40.921875 74.21875 44.703125 73.484375 
Q 48.484375 72.75 52.59375 71.296875 
z
" id="DejaVuSans-54"/>
      </defs>
      <g style="fill:#262626;" transform="translate(20.878125 50.9059)scale(0.1 -0.1)">
       <use xlink:href="#DejaVuSans-54"/>
       <use x="63.623047" xlink:href="#DejaVuSans-48"/>
      </g>
     </g>
    </g>
    <g id="ytick_8">
     <g id="line2d_17">
      <path clip-path="url(#p75e71416df)" d="M 40.603125 10.999219 
L 397.723125 10.999219 
" style="fill:none;stroke:#cccccc;stroke-linecap:round;stroke-width:0.8;"/>
     </g>
     <g id="text_18">
      <!-- 70 -->
      <defs>
       <path d="M 8.203125 72.90625 
L 55.078125 72.90625 
L 55.078125 68.703125 
L 28.609375 0 
L 18.3125 0 
L 43.21875 64.59375 
L 8.203125 64.59375 
z
" id="DejaVuSans-55"/>
      </defs>
      <g style="fill:#262626;" transform="translate(20.878125 14.798437)scale(0.1 -0.1)">
       <use xlink:href="#DejaVuSans-55"/>
       <use x="63.623047" xlink:href="#DejaVuSans-48"/>
      </g>
     </g>
    </g>
    <g id="text_19">
     <!-- cells number -->
     <defs>
      <path d="M 48.78125 52.59375 
L 48.78125 44.1875 
Q 44.96875 46.296875 41.140625 47.34375 
Q 37.3125 48.390625 33.40625 48.390625 
Q 24.65625 48.390625 19.8125 42.84375 
Q 14.984375 37.3125 14.984375 27.296875 
Q 14.984375 17.28125 19.8125 11.734375 
Q 24.65625 6.203125 33.40625 6.203125 
Q 37.3125 6.203125 41.140625 7.25 
Q 44.96875 8.296875 48.78125 10.40625 
L 48.78125 2.09375 
Q 45.015625 0.34375 40.984375 -0.53125 
Q 36.96875 -1.421875 32.421875 -1.421875 
Q 20.0625 -1.421875 12.78125 6.34375 
Q 5.515625 14.109375 5.515625 27.296875 
Q 5.515625 40.671875 12.859375 48.328125 
Q 20.21875 56 33.015625 56 
Q 37.15625 56 41.109375 55.140625 
Q 45.0625 54.296875 48.78125 52.59375 
z
" id="DejaVuSans-99"/>
      <path d="M 9.421875 75.984375 
L 18.40625 75.984375 
L 18.40625 0 
L 9.421875 0 
z
" id="DejaVuSans-108"/>
      <path d="M 54.890625 33.015625 
L 54.890625 0 
L 45.90625 0 
L 45.90625 32.71875 
Q 45.90625 40.484375 42.875 44.328125 
Q 39.84375 48.1875 33.796875 48.1875 
Q 26.515625 48.1875 22.3125 43.546875 
Q 18.109375 38.921875 18.109375 30.90625 
L 18.109375 0 
L 9.078125 0 
L 9.078125 54.6875 
L 18.109375 54.6875 
L 18.109375 46.1875 
Q 21.34375 51.125 25.703125 53.5625 
Q 30.078125 56 35.796875 56 
Q 45.21875 56 50.046875 50.171875 
Q 54.890625 44.34375 54.890625 33.015625 
z
" id="DejaVuSans-110"/>
      <path d="M 8.5 21.578125 
L 8.5 54.6875 
L 17.484375 54.6875 
L 17.484375 21.921875 
Q 17.484375 14.15625 20.5 10.265625 
Q 23.53125 6.390625 29.59375 6.390625 
Q 36.859375 6.390625 41.078125 11.03125 
Q 45.3125 15.671875 45.3125 23.6875 
L 45.3125 54.6875 
L 54.296875 54.6875 
L 54.296875 0 
L 45.3125 0 
L 45.3125 8.40625 
Q 42.046875 3.421875 37.71875 1 
Q 33.40625 -1.421875 27.6875 -1.421875 
Q 18.265625 -1.421875 13.375 4.4375 
Q 8.5 10.296875 8.5 21.578125 
z
M 31.109375 56 
z
" id="DejaVuSans-117"/>
      <path d="M 48.6875 27.296875 
Q 48.6875 37.203125 44.609375 42.84375 
Q 40.53125 48.484375 33.40625 48.484375 
Q 26.265625 48.484375 22.1875 42.84375 
Q 18.109375 37.203125 18.109375 27.296875 
Q 18.109375 17.390625 22.1875 11.75 
Q 26.265625 6.109375 33.40625 6.109375 
Q 40.53125 6.109375 44.609375 11.75 
Q 48.6875 17.390625 48.6875 27.296875 
z
M 18.109375 46.390625 
Q 20.953125 51.265625 25.265625 53.625 
Q 29.59375 56 35.59375 56 
Q 45.5625 56 51.78125 48.09375 
Q 58.015625 40.1875 58.015625 27.296875 
Q 58.015625 14.40625 51.78125 6.484375 
Q 45.5625 -1.421875 35.59375 -1.421875 
Q 29.59375 -1.421875 25.265625 0.953125 
Q 20.953125 3.328125 18.109375 8.203125 
L 18.109375 0 
L 9.078125 0 
L 9.078125 75.984375 
L 18.109375 75.984375 
z
" id="DejaVuSans-98"/>
      <path d="M 41.109375 46.296875 
Q 39.59375 47.171875 37.8125 47.578125 
Q 36.03125 48 33.890625 48 
Q 26.265625 48 22.1875 43.046875 
Q 18.109375 38.09375 18.109375 28.8125 
L 18.109375 0 
L 9.078125 0 
L 9.078125 54.6875 
L 18.109375 54.6875 
L 18.109375 46.1875 
Q 20.953125 51.171875 25.484375 53.578125 
Q 30.03125 56 36.53125 56 
Q 37.453125 56 38.578125 55.875 
Q 39.703125 55.765625 41.0625 55.515625 
z
" id="DejaVuSans-114"/>
     </defs>
     <g style="fill:#262626;" transform="translate(14.798438 175.103176)rotate(-90)scale(0.1 -0.1)">
      <use xlink:href="#DejaVuSans-99"/>
      <use x="54.980469" xlink:href="#DejaVuSans-101"/>
      <use x="116.503906" xlink:href="#DejaVuSans-108"/>
      <use x="144.287109" xlink:href="#DejaVuSans-108"/>
      <use x="172.070312" xlink:href="#DejaVuSans-115"/>
      <use x="224.169922" xlink:href="#DejaVuSans-32"/>
      <use x="255.957031" xlink:href="#DejaVuSans-110"/>
      <use x="319.335938" xlink:href="#DejaVuSans-117"/>
      <use x="382.714844" xlink:href="#DejaVuSans-109"/>
      <use x="480.126953" xlink:href="#DejaVuSans-98"/>
      <use x="543.603516" xlink:href="#DejaVuSans-101"/>
      <use x="605.126953" xlink:href="#DejaVuSans-114"/>
     </g>
    </g>
   </g>
   <g id="line2d_18">
    <path clip-path="url(#p75e71416df)" d="M 56.835852 263.751458 
L 59.276864 263.751458 
L 60.090534 260.140711 
L 61.717876 260.140711 
L 62.531546 256.529965 
L 63.345217 256.529965 
L 64.158887 245.697726 
L 66.599899 245.697726 
L 67.413569 234.865487 
L 68.22724 231.254741 
L 69.854581 231.254741 
L 70.668251 224.033249 
L 71.481922 220.422502 
L 72.295593 205.979517 
L 73.922934 205.979517 
L 74.736604 195.147278 
L 76.363945 195.147278 
L 78.804957 173.482801 
L 79.618627 169.872055 
L 80.432298 162.650562 
L 81.245968 162.650562 
L 82.059639 159.039816 
L 82.87331 151.818323 
L 83.68698 140.986084 
L 84.500651 144.596831 
L 85.314321 137.375338 
L 86.127992 126.543099 
L 86.941662 126.543099 
L 87.755333 119.321607 
L 88.569003 101.267875 
L 89.382674 94.046383 
L 90.196344 83.214144 
L 91.010015 83.214144 
L 91.823685 75.992652 
L 92.637356 72.381905 
L 93.451027 57.93892 
L 94.264697 54.328174 
L 95.078368 54.328174 
L 95.892038 36.274443 
L 96.705709 39.885189 
L 98.33305 32.663696 
L 99.14672 32.663696 
L 99.960391 36.274443 
L 100.774061 36.274443 
L 102.401403 29.05295 
L 103.215073 29.05295 
L 104.842414 21.831458 
L 105.656085 21.831458 
L 107.283426 29.05295 
L 108.097096 29.05295 
L 108.910767 32.663696 
L 109.724437 39.885189 
L 110.538108 36.274443 
L 111.351778 47.106681 
L 112.165449 36.274443 
L 113.79279 50.717428 
L 114.606461 54.328174 
L 116.233802 54.328174 
L 117.047472 57.93892 
L 119.488484 57.93892 
L 120.302154 54.328174 
L 121.115825 57.93892 
L 121.929495 57.93892 
L 122.743166 65.160413 
L 123.556837 68.771159 
L 124.370507 75.992652 
L 125.184178 75.992652 
L 125.997848 79.603398 
L 126.811519 86.82489 
L 127.625189 86.82489 
L 128.43886 97.657129 
L 129.25253 97.657129 
L 130.066201 94.046383 
L 130.879871 94.046383 
L 132.507212 101.267875 
L 133.320883 108.489368 
L 134.134554 112.100114 
L 134.948224 112.100114 
L 135.761895 115.710861 
L 138.202906 115.710861 
L 139.016577 119.321607 
L 139.830247 115.710861 
L 141.457588 115.710861 
L 143.8986 126.543099 
L 144.712271 126.543099 
L 145.525941 119.321607 
L 147.153282 119.321607 
L 147.966953 122.932353 
L 148.780623 119.321607 
L 150.407964 119.321607 
L 151.221635 115.710861 
L 152.035305 115.710861 
L 152.848976 119.321607 
L 156.917329 119.321607 
L 157.730999 122.932353 
L 158.54467 122.932353 
L 159.35834 126.543099 
L 160.172011 126.543099 
L 160.985681 133.764592 
L 161.799352 137.375338 
L 162.613022 148.207577 
L 163.426693 151.818323 
L 165.054034 151.818323 
L 165.867705 155.429069 
L 168.308716 155.429069 
L 169.122387 162.650562 
L 169.936057 162.650562 
L 170.749728 166.261308 
L 172.377069 166.261308 
L 174.00441 173.482801 
L 174.818081 180.704293 
L 177.259092 180.704293 
L 178.072763 184.31504 
L 178.886433 191.536532 
L 179.700104 191.536532 
L 180.513774 195.147278 
L 184.582127 195.147278 
L 185.395798 198.758025 
L 189.46415 198.758025 
L 190.277821 202.368771 
L 194.346174 202.368771 
L 195.159844 205.979517 
L 197.600856 205.979517 
L 198.414526 209.590264 
L 201.669208 209.590264 
L 202.482879 213.20101 
L 205.737561 213.20101 
L 206.551232 216.811756 
L 207.364902 216.811756 
L 208.178573 220.422502 
L 209.805914 220.422502 
L 210.619584 216.811756 
L 218.75629 216.811756 
L 219.56996 220.422502 
L 220.383631 220.422502 
L 221.197301 224.033249 
L 222.010972 224.033249 
L 222.824642 227.643995 
L 227.706666 227.643995 
L 228.520336 234.865487 
L 229.334007 238.476234 
L 238.284383 238.476234 
L 239.098053 242.08698 
L 241.539065 242.08698 
L 242.352735 245.697726 
L 243.166406 245.697726 
L 243.980076 249.308472 
L 248.048429 249.308472 
L 248.8621 252.919219 
L 270.831204 252.919219 
L 271.644875 256.529965 
L 281.408921 256.529965 
L 282.222592 260.140711 
L 316.396755 260.140711 
L 317.210425 263.751458 
L 381.490398 263.751458 
L 381.490398 263.751458 
" style="fill:none;stroke:#000080;stroke-linecap:round;stroke-width:1.5;"/>
   </g>
   <g id="line2d_19">
    <path clip-path="url(#p75e71416df)" d="M 56.835852 263.751458 
L 62.531546 263.751458 
L 63.345217 260.140711 
L 66.599899 260.140711 
L 67.413569 256.529965 
L 68.22724 256.529965 
L 69.854581 249.308472 
L 72.295593 249.308472 
L 73.109263 242.08698 
L 73.922934 220.422502 
L 74.736604 209.590264 
L 75.550275 209.590264 
L 76.363945 198.758025 
L 77.177616 191.536532 
L 77.991286 177.093547 
L 78.804957 177.093547 
L 79.618627 180.704293 
L 81.245968 166.261308 
L 82.059639 155.429069 
L 82.87331 155.429069 
L 83.68698 159.039816 
L 85.314321 137.375338 
L 86.127992 144.596831 
L 86.941662 148.207577 
L 87.755333 144.596831 
L 89.382674 144.596831 
L 91.010015 130.153846 
L 91.823685 133.764592 
L 92.637356 133.764592 
L 93.451027 130.153846 
L 94.264697 133.764592 
L 95.078368 122.932353 
L 95.892038 130.153846 
L 96.705709 130.153846 
L 97.519379 112.100114 
L 99.14672 104.878622 
L 99.960391 97.657129 
L 101.587732 90.435637 
L 102.401403 72.381905 
L 104.028744 65.160413 
L 104.842414 65.160413 
L 110.538108 39.885189 
L 111.351778 43.495935 
L 113.79279 43.495935 
L 117.047472 29.05295 
L 117.861143 32.663696 
L 118.674813 29.05295 
L 121.115825 39.885189 
L 121.929495 47.106681 
L 122.743166 43.495935 
L 123.556837 43.495935 
L 124.370507 32.663696 
L 125.184178 54.328174 
L 125.997848 54.328174 
L 126.811519 61.549667 
L 127.625189 57.93892 
L 129.25253 72.381905 
L 130.879871 79.603398 
L 131.693542 75.992652 
L 132.507212 75.992652 
L 133.320883 79.603398 
L 134.948224 79.603398 
L 135.761895 83.214144 
L 136.575565 79.603398 
L 137.389236 83.214144 
L 138.202906 83.214144 
L 140.643918 94.046383 
L 142.271259 108.489368 
L 143.8986 115.710861 
L 145.525941 115.710861 
L 147.153282 130.153846 
L 149.594294 140.986084 
L 152.035305 140.986084 
L 152.848976 144.596831 
L 154.476317 144.596831 
L 156.103658 137.375338 
L 156.917329 137.375338 
L 158.54467 151.818323 
L 159.35834 148.207577 
L 161.799352 148.207577 
L 163.426693 169.872055 
L 164.240364 169.872055 
L 165.054034 177.093547 
L 165.867705 177.093547 
L 167.495046 184.31504 
L 169.122387 184.31504 
L 169.936057 187.925786 
L 173.190739 187.925786 
L 174.00441 191.536532 
L 174.818081 191.536532 
L 175.631751 195.147278 
L 180.513774 195.147278 
L 181.327445 198.758025 
L 183.768457 198.758025 
L 184.582127 205.979517 
L 185.395798 209.590264 
L 187.836809 209.590264 
L 188.65048 213.20101 
L 190.277821 213.20101 
L 191.091491 216.811756 
L 193.532503 216.811756 
L 194.346174 224.033249 
L 203.296549 224.033249 
L 204.11022 227.643995 
L 207.364902 227.643995 
L 208.178573 234.865487 
L 223.638313 234.865487 
L 224.451984 238.476234 
L 242.352735 238.476234 
L 243.166406 242.08698 
L 248.8621 242.08698 
L 249.67577 249.308472 
L 262.694499 249.308472 
L 263.508169 252.919219 
L 269.203863 252.919219 
L 270.017534 256.529965 
L 292.800309 256.529965 
L 293.613979 260.140711 
L 307.446379 260.140711 
L 308.260049 263.751458 
L 381.490398 263.751458 
L 381.490398 263.751458 
" style="fill:none;stroke:#0000f1;stroke-linecap:round;stroke-width:1.5;"/>
   </g>
   <g id="line2d_20">
    <path clip-path="url(#p75e71416df)" d="M 56.835852 263.751458 
L 62.531546 263.751458 
L 64.158887 256.529965 
L 64.972558 256.529965 
L 65.786228 252.919219 
L 67.413569 252.919219 
L 68.22724 249.308472 
L 70.668251 227.643995 
L 71.481922 216.811756 
L 73.922934 195.147278 
L 74.736604 191.536532 
L 75.550275 184.31504 
L 76.363945 173.482801 
L 77.991286 173.482801 
L 78.804957 169.872055 
L 79.618627 159.039816 
L 81.245968 151.818323 
L 82.059639 155.429069 
L 82.87331 148.207577 
L 84.500651 140.986084 
L 85.314321 140.986084 
L 86.127992 137.375338 
L 87.755333 137.375338 
L 88.569003 148.207577 
L 89.382674 133.764592 
L 91.823685 122.932353 
L 93.451027 122.932353 
L 94.264697 115.710861 
L 95.078368 104.878622 
L 95.892038 101.267875 
L 96.705709 83.214144 
L 97.519379 83.214144 
L 98.33305 79.603398 
L 99.960391 79.603398 
L 100.774061 61.549667 
L 101.587732 54.328174 
L 102.401403 39.885189 
L 103.215073 39.885189 
L 104.028744 32.663696 
L 104.842414 21.831458 
L 105.656085 21.831458 
L 106.469755 29.05295 
L 108.097096 29.05295 
L 108.910767 43.495935 
L 109.724437 47.106681 
L 110.538108 43.495935 
L 111.351778 43.495935 
L 112.97912 36.274443 
L 113.79279 29.05295 
L 114.606461 32.663696 
L 116.233802 25.442204 
L 118.674813 47.106681 
L 119.488484 50.717428 
L 120.302154 43.495935 
L 121.115825 50.717428 
L 121.929495 61.549667 
L 122.743166 61.549667 
L 123.556837 65.160413 
L 124.370507 65.160413 
L 125.184178 68.771159 
L 125.997848 75.992652 
L 127.625189 75.992652 
L 128.43886 83.214144 
L 129.25253 86.82489 
L 130.066201 94.046383 
L 130.879871 90.435637 
L 131.693542 101.267875 
L 133.320883 94.046383 
L 134.134554 94.046383 
L 134.948224 108.489368 
L 135.761895 108.489368 
L 137.389236 122.932353 
L 138.202906 122.932353 
L 139.016577 130.153846 
L 139.830247 133.764592 
L 140.643918 133.764592 
L 141.457588 137.375338 
L 142.271259 137.375338 
L 143.08493 151.818323 
L 143.8986 155.429069 
L 144.712271 151.818323 
L 145.525941 159.039816 
L 147.966953 159.039816 
L 149.594294 166.261308 
L 150.407964 166.261308 
L 151.221635 173.482801 
L 152.035305 177.093547 
L 152.848976 177.093547 
L 153.662647 180.704293 
L 155.289988 180.704293 
L 156.103658 184.31504 
L 156.917329 184.31504 
L 159.35834 195.147278 
L 160.985681 195.147278 
L 161.799352 191.536532 
L 162.613022 191.536532 
L 163.426693 195.147278 
L 166.681375 195.147278 
L 167.495046 202.368771 
L 171.563398 202.368771 
L 172.377069 205.979517 
L 173.190739 205.979517 
L 174.00441 209.590264 
L 174.818081 209.590264 
L 177.259092 220.422502 
L 178.886433 220.422502 
L 179.700104 224.033249 
L 182.141115 224.033249 
L 182.954786 227.643995 
L 192.718832 227.643995 
L 193.532503 231.254741 
L 199.228197 231.254741 
L 201.669208 242.08698 
L 202.482879 242.08698 
L 203.296549 245.697726 
L 209.805914 245.697726 
L 210.619584 249.308472 
L 214.687937 249.308472 
L 215.501608 252.919219 
L 239.098053 252.919219 
L 239.911724 256.529965 
L 245.607418 256.529965 
L 246.421088 260.140711 
L 318.024096 260.140711 
L 318.837766 263.751458 
L 381.490398 263.751458 
L 381.490398 263.751458 
" style="fill:none;stroke:#004cff;stroke-linecap:round;stroke-width:1.5;"/>
   </g>
   <g id="line2d_21">
    <path clip-path="url(#p75e71416df)" d="M 56.835852 263.751458 
L 59.276864 263.751458 
L 60.090534 260.140711 
L 63.345217 260.140711 
L 64.158887 256.529965 
L 66.599899 256.529965 
L 68.22724 249.308472 
L 69.04091 242.08698 
L 69.854581 238.476234 
L 70.668251 231.254741 
L 71.481922 231.254741 
L 74.736604 216.811756 
L 75.550275 216.811756 
L 77.177616 209.590264 
L 77.991286 202.368771 
L 78.804957 187.925786 
L 79.618627 184.31504 
L 82.059639 162.650562 
L 82.87331 162.650562 
L 83.68698 151.818323 
L 84.500651 148.207577 
L 85.314321 148.207577 
L 86.127992 144.596831 
L 86.941662 151.818323 
L 88.569003 151.818323 
L 89.382674 144.596831 
L 90.196344 133.764592 
L 91.010015 126.543099 
L 91.823685 130.153846 
L 92.637356 112.100114 
L 93.451027 104.878622 
L 94.264697 104.878622 
L 95.078368 101.267875 
L 95.892038 104.878622 
L 96.705709 97.657129 
L 97.519379 94.046383 
L 98.33305 97.657129 
L 99.960391 90.435637 
L 100.774061 101.267875 
L 101.587732 94.046383 
L 102.401403 90.435637 
L 104.028744 97.657129 
L 104.842414 94.046383 
L 106.469755 94.046383 
L 107.283426 83.214144 
L 108.097096 79.603398 
L 108.910767 79.603398 
L 110.538108 72.381905 
L 111.351778 72.381905 
L 112.165449 68.771159 
L 112.97912 94.046383 
L 113.79279 97.657129 
L 115.420131 97.657129 
L 117.861143 108.489368 
L 118.674813 108.489368 
L 119.488484 112.100114 
L 120.302154 119.321607 
L 121.115825 130.153846 
L 121.929495 126.543099 
L 122.743166 130.153846 
L 125.184178 130.153846 
L 125.997848 126.543099 
L 126.811519 133.764592 
L 127.625189 133.764592 
L 130.879871 148.207577 
L 132.507212 148.207577 
L 133.320883 151.818323 
L 134.134554 148.207577 
L 134.948224 148.207577 
L 135.761895 144.596831 
L 139.830247 144.596831 
L 140.643918 148.207577 
L 142.271259 148.207577 
L 143.08493 151.818323 
L 144.712271 151.818323 
L 145.525941 155.429069 
L 147.153282 155.429069 
L 148.780623 162.650562 
L 153.662647 162.650562 
L 154.476317 177.093547 
L 155.289988 173.482801 
L 156.103658 180.704293 
L 156.917329 180.704293 
L 157.730999 187.925786 
L 158.54467 187.925786 
L 160.985681 198.758025 
L 161.799352 198.758025 
L 162.613022 202.368771 
L 167.495046 202.368771 
L 168.308716 209.590264 
L 169.936057 209.590264 
L 170.749728 213.20101 
L 174.00441 213.20101 
L 174.818081 216.811756 
L 177.259092 216.811756 
L 178.072763 220.422502 
L 178.886433 220.422502 
L 179.700104 224.033249 
L 180.513774 224.033249 
L 181.327445 227.643995 
L 182.954786 227.643995 
L 183.768457 231.254741 
L 191.091491 231.254741 
L 191.905162 234.865487 
L 193.532503 234.865487 
L 194.346174 242.08698 
L 195.159844 245.697726 
L 197.600856 245.697726 
L 198.414526 249.308472 
L 201.669208 249.308472 
L 202.482879 252.919219 
L 212.246925 252.919219 
L 213.060596 256.529965 
L 216.315278 256.529965 
L 217.128949 260.140711 
L 269.203863 260.140711 
L 270.017534 263.751458 
L 381.490398 263.751458 
L 381.490398 263.751458 
" style="fill:none;stroke:#00b0ff;stroke-linecap:round;stroke-width:1.5;"/>
   </g>
   <g id="line2d_22">
    <path clip-path="url(#p75e71416df)" d="M 56.835852 263.751458 
L 58.463193 263.751458 
L 59.276864 260.140711 
L 63.345217 260.140711 
L 64.158887 256.529965 
L 65.786228 256.529965 
L 68.22724 245.697726 
L 69.04091 238.476234 
L 71.481922 227.643995 
L 72.295593 216.811756 
L 73.109263 209.590264 
L 73.922934 213.20101 
L 74.736604 209.590264 
L 75.550275 209.590264 
L 76.363945 198.758025 
L 77.177616 191.536532 
L 77.991286 177.093547 
L 79.618627 155.429069 
L 80.432298 151.818323 
L 81.245968 140.986084 
L 82.059639 140.986084 
L 82.87331 122.932353 
L 83.68698 126.543099 
L 84.500651 119.321607 
L 85.314321 115.710861 
L 86.127992 108.489368 
L 86.941662 97.657129 
L 88.569003 97.657129 
L 89.382674 86.82489 
L 90.196344 68.771159 
L 91.010015 61.549667 
L 91.823685 61.549667 
L 93.451027 68.771159 
L 95.078368 54.328174 
L 95.892038 50.717428 
L 96.705709 54.328174 
L 97.519379 36.274443 
L 98.33305 39.885189 
L 99.960391 39.885189 
L 100.774061 54.328174 
L 102.401403 47.106681 
L 103.215073 50.717428 
L 104.028744 61.549667 
L 104.842414 61.549667 
L 106.469755 83.214144 
L 107.283426 79.603398 
L 108.097096 72.381905 
L 108.910767 75.992652 
L 109.724437 68.771159 
L 110.538108 68.771159 
L 111.351778 72.381905 
L 112.165449 72.381905 
L 112.97912 75.992652 
L 114.606461 75.992652 
L 115.420131 72.381905 
L 116.233802 79.603398 
L 117.047472 83.214144 
L 118.674813 83.214144 
L 119.488484 86.82489 
L 121.929495 108.489368 
L 122.743166 104.878622 
L 124.370507 104.878622 
L 125.184178 108.489368 
L 125.997848 108.489368 
L 126.811519 112.100114 
L 127.625189 104.878622 
L 128.43886 104.878622 
L 129.25253 112.100114 
L 130.066201 115.710861 
L 132.507212 115.710861 
L 133.320883 130.153846 
L 134.134554 133.764592 
L 134.948224 133.764592 
L 135.761895 140.986084 
L 136.575565 140.986084 
L 137.389236 144.596831 
L 138.202906 151.818323 
L 139.016577 155.429069 
L 139.830247 162.650562 
L 140.643918 162.650562 
L 141.457588 166.261308 
L 142.271259 166.261308 
L 143.08493 169.872055 
L 145.525941 169.872055 
L 147.153282 177.093547 
L 148.780623 177.093547 
L 149.594294 180.704293 
L 150.407964 180.704293 
L 151.221635 184.31504 
L 154.476317 184.31504 
L 155.289988 187.925786 
L 156.103658 187.925786 
L 156.917329 191.536532 
L 159.35834 191.536532 
L 160.172011 187.925786 
L 160.985681 191.536532 
L 162.613022 191.536532 
L 163.426693 195.147278 
L 165.054034 195.147278 
L 165.867705 198.758025 
L 167.495046 198.758025 
L 168.308716 202.368771 
L 169.122387 202.368771 
L 169.936057 205.979517 
L 172.377069 205.979517 
L 173.190739 209.590264 
L 174.00441 209.590264 
L 174.818081 213.20101 
L 177.259092 213.20101 
L 178.072763 220.422502 
L 178.886433 224.033249 
L 181.327445 224.033249 
L 182.141115 227.643995 
L 185.395798 227.643995 
L 187.023139 234.865487 
L 191.091491 234.865487 
L 192.718832 242.08698 
L 195.973515 242.08698 
L 196.787185 245.697726 
L 206.551232 245.697726 
L 207.364902 249.308472 
L 208.992243 249.308472 
L 209.805914 252.919219 
L 217.128949 252.919219 
L 217.942619 256.529965 
L 221.197301 256.529965 
L 222.010972 260.140711 
L 232.588689 260.140711 
L 233.402359 263.751458 
L 381.490398 263.751458 
L 381.490398 263.751458 
" style="fill:none;stroke:#29ffce;stroke-linecap:round;stroke-width:1.5;"/>
   </g>
   <g id="line2d_23">
    <path clip-path="url(#p75e71416df)" d="M 56.835852 263.751458 
L 61.717876 263.751458 
L 62.531546 260.140711 
L 63.345217 260.140711 
L 65.786228 249.308472 
L 67.413569 249.308472 
L 68.22724 242.08698 
L 69.04091 224.033249 
L 69.854581 224.033249 
L 70.668251 220.422502 
L 71.481922 220.422502 
L 72.295593 213.20101 
L 73.922934 205.979517 
L 74.736604 209.590264 
L 75.550275 209.590264 
L 76.363945 198.758025 
L 78.804957 187.925786 
L 80.432298 173.482801 
L 81.245968 180.704293 
L 82.87331 166.261308 
L 83.68698 155.429069 
L 85.314321 140.986084 
L 86.127992 130.153846 
L 86.941662 133.764592 
L 87.755333 126.543099 
L 88.569003 130.153846 
L 90.196344 130.153846 
L 91.010015 122.932353 
L 91.823685 126.543099 
L 92.637356 115.710861 
L 93.451027 97.657129 
L 94.264697 86.82489 
L 95.892038 94.046383 
L 96.705709 94.046383 
L 98.33305 101.267875 
L 99.14672 86.82489 
L 99.960391 90.435637 
L 100.774061 90.435637 
L 101.587732 86.82489 
L 103.215073 86.82489 
L 104.028744 90.435637 
L 104.842414 90.435637 
L 107.283426 79.603398 
L 109.724437 79.603398 
L 110.538108 83.214144 
L 111.351778 75.992652 
L 112.165449 90.435637 
L 112.97912 83.214144 
L 113.79279 79.603398 
L 114.606461 83.214144 
L 115.420131 79.603398 
L 116.233802 83.214144 
L 117.047472 83.214144 
L 117.861143 75.992652 
L 118.674813 83.214144 
L 119.488484 79.603398 
L 120.302154 83.214144 
L 121.115825 83.214144 
L 121.929495 90.435637 
L 122.743166 101.267875 
L 123.556837 101.267875 
L 124.370507 94.046383 
L 125.184178 101.267875 
L 125.997848 112.100114 
L 126.811519 108.489368 
L 127.625189 108.489368 
L 129.25253 101.267875 
L 130.066201 108.489368 
L 131.693542 115.710861 
L 132.507212 115.710861 
L 133.320883 119.321607 
L 134.948224 112.100114 
L 136.575565 119.321607 
L 137.389236 119.321607 
L 139.830247 130.153846 
L 141.457588 130.153846 
L 142.271259 126.543099 
L 143.08493 133.764592 
L 143.8986 133.764592 
L 145.525941 140.986084 
L 146.339612 148.207577 
L 147.966953 155.429069 
L 148.780623 166.261308 
L 149.594294 169.872055 
L 153.662647 169.872055 
L 154.476317 173.482801 
L 155.289988 180.704293 
L 157.730999 180.704293 
L 158.54467 177.093547 
L 160.172011 177.093547 
L 160.985681 173.482801 
L 161.799352 173.482801 
L 162.613022 180.704293 
L 165.054034 180.704293 
L 165.867705 184.31504 
L 167.495046 184.31504 
L 168.308716 191.536532 
L 172.377069 191.536532 
L 173.190739 198.758025 
L 176.445422 198.758025 
L 178.072763 205.979517 
L 179.700104 205.979517 
L 180.513774 216.811756 
L 186.209468 216.811756 
L 187.836809 224.033249 
L 197.600856 224.033249 
L 198.414526 227.643995 
L 200.855538 227.643995 
L 201.669208 231.254741 
L 205.737561 231.254741 
L 206.551232 234.865487 
L 207.364902 242.08698 
L 210.619584 242.08698 
L 211.433255 245.697726 
L 224.451984 245.697726 
L 225.265654 249.308472 
L 226.079325 249.308472 
L 226.892995 252.919219 
L 241.539065 252.919219 
L 242.352735 256.529965 
L 269.203863 256.529965 
L 270.017534 260.140711 
L 274.899557 260.140711 
L 275.713228 263.751458 
L 381.490398 263.751458 
L 381.490398 263.751458 
" style="fill:none;stroke:#7dff7a;stroke-linecap:round;stroke-width:1.5;"/>
   </g>
   <g id="line2d_24">
    <path clip-path="url(#p75e71416df)" d="M 56.835852 263.751458 
L 60.904205 263.751458 
L 61.717876 260.140711 
L 64.972558 260.140711 
L 65.786228 256.529965 
L 66.599899 256.529965 
L 67.413569 249.308472 
L 69.854581 238.476234 
L 72.295593 216.811756 
L 73.109263 216.811756 
L 75.550275 205.979517 
L 76.363945 191.536532 
L 77.991286 184.31504 
L 78.804957 162.650562 
L 79.618627 162.650562 
L 80.432298 155.429069 
L 81.245968 155.429069 
L 82.87331 140.986084 
L 83.68698 144.596831 
L 84.500651 133.764592 
L 85.314321 130.153846 
L 86.127992 112.100114 
L 87.755333 97.657129 
L 88.569003 97.657129 
L 89.382674 94.046383 
L 90.196344 86.82489 
L 91.010015 86.82489 
L 91.823685 79.603398 
L 92.637356 75.992652 
L 93.451027 75.992652 
L 94.264697 65.160413 
L 95.078368 68.771159 
L 96.705709 61.549667 
L 97.519379 65.160413 
L 99.14672 65.160413 
L 99.960391 68.771159 
L 100.774061 83.214144 
L 101.587732 79.603398 
L 102.401403 79.603398 
L 103.215073 75.992652 
L 104.028744 83.214144 
L 104.842414 79.603398 
L 105.656085 68.771159 
L 106.469755 72.381905 
L 107.283426 57.93892 
L 108.910767 65.160413 
L 110.538108 65.160413 
L 111.351778 72.381905 
L 112.165449 72.381905 
L 112.97912 83.214144 
L 113.79279 83.214144 
L 114.606461 79.603398 
L 115.420131 90.435637 
L 116.233802 83.214144 
L 117.047472 86.82489 
L 117.861143 86.82489 
L 118.674813 83.214144 
L 120.302154 83.214144 
L 122.743166 94.046383 
L 123.556837 90.435637 
L 125.184178 104.878622 
L 127.625189 104.878622 
L 130.066201 115.710861 
L 131.693542 115.710861 
L 132.507212 119.321607 
L 133.320883 126.543099 
L 134.948224 133.764592 
L 139.016577 133.764592 
L 139.830247 137.375338 
L 141.457588 137.375338 
L 142.271259 133.764592 
L 143.8986 140.986084 
L 145.525941 140.986084 
L 146.339612 137.375338 
L 151.221635 137.375338 
L 152.035305 140.986084 
L 152.848976 148.207577 
L 153.662647 151.818323 
L 154.476317 159.039816 
L 155.289988 162.650562 
L 156.103658 162.650562 
L 156.917329 169.872055 
L 159.35834 169.872055 
L 162.613022 184.31504 
L 164.240364 184.31504 
L 165.054034 187.925786 
L 166.681375 187.925786 
L 167.495046 198.758025 
L 173.190739 198.758025 
L 174.818081 205.979517 
L 176.445422 198.758025 
L 178.886433 198.758025 
L 179.700104 202.368771 
L 181.327445 202.368771 
L 182.141115 205.979517 
L 183.768457 205.979517 
L 184.582127 213.20101 
L 185.395798 213.20101 
L 186.209468 209.590264 
L 189.46415 209.590264 
L 190.277821 213.20101 
L 191.905162 213.20101 
L 192.718832 216.811756 
L 193.532503 224.033249 
L 195.973515 224.033249 
L 196.787185 227.643995 
L 197.600856 227.643995 
L 198.414526 234.865487 
L 204.923891 234.865487 
L 205.737561 238.476234 
L 221.197301 238.476234 
L 222.010972 242.08698 
L 226.079325 242.08698 
L 226.892995 245.697726 
L 228.520336 245.697726 
L 229.334007 249.308472 
L 232.588689 249.308472 
L 233.402359 252.919219 
L 254.557793 252.919219 
L 255.371464 256.529965 
L 282.222592 256.529965 
L 283.036262 260.140711 
L 294.42765 260.140711 
L 295.24132 263.751458 
L 381.490398 263.751458 
L 381.490398 263.751458 
" style="fill:none;stroke:#ceff29;stroke-linecap:round;stroke-width:1.5;"/>
   </g>
   <g id="line2d_25">
    <path clip-path="url(#p75e71416df)" d="M 56.835852 263.751458 
L 59.276864 263.751458 
L 60.090534 260.140711 
L 61.717876 260.140711 
L 62.531546 256.529965 
L 63.345217 260.140711 
L 64.158887 256.529965 
L 65.786228 256.529965 
L 66.599899 252.919219 
L 67.413569 252.919219 
L 68.22724 249.308472 
L 69.04091 249.308472 
L 69.854581 245.697726 
L 72.295593 224.033249 
L 73.922934 216.811756 
L 74.736604 216.811756 
L 75.550275 213.20101 
L 76.363945 205.979517 
L 77.177616 205.979517 
L 78.804957 191.536532 
L 79.618627 187.925786 
L 81.245968 166.261308 
L 82.059639 162.650562 
L 82.87331 148.207577 
L 85.314321 148.207577 
L 86.941662 140.986084 
L 87.755333 133.764592 
L 88.569003 133.764592 
L 89.382674 122.932353 
L 90.196344 122.932353 
L 91.823685 108.489368 
L 92.637356 108.489368 
L 93.451027 94.046383 
L 94.264697 97.657129 
L 95.078368 90.435637 
L 95.892038 90.435637 
L 96.705709 101.267875 
L 97.519379 97.657129 
L 99.14672 97.657129 
L 99.960391 101.267875 
L 101.587732 101.267875 
L 102.401403 97.657129 
L 103.215073 101.267875 
L 106.469755 86.82489 
L 107.283426 90.435637 
L 108.097096 90.435637 
L 108.910767 83.214144 
L 109.724437 97.657129 
L 111.351778 97.657129 
L 112.165449 94.046383 
L 112.97912 101.267875 
L 113.79279 90.435637 
L 114.606461 86.82489 
L 115.420131 86.82489 
L 116.233802 83.214144 
L 117.861143 90.435637 
L 118.674813 97.657129 
L 119.488484 94.046383 
L 120.302154 101.267875 
L 121.115825 94.046383 
L 122.743166 94.046383 
L 124.370507 86.82489 
L 125.997848 94.046383 
L 126.811519 94.046383 
L 127.625189 97.657129 
L 129.25253 97.657129 
L 130.066201 108.489368 
L 131.693542 108.489368 
L 132.507212 119.321607 
L 133.320883 119.321607 
L 134.134554 126.543099 
L 135.761895 133.764592 
L 136.575565 133.764592 
L 137.389236 137.375338 
L 138.202906 137.375338 
L 139.016577 140.986084 
L 140.643918 140.986084 
L 141.457588 144.596831 
L 142.271259 144.596831 
L 143.08493 148.207577 
L 143.8986 148.207577 
L 144.712271 155.429069 
L 145.525941 155.429069 
L 146.339612 159.039816 
L 147.966953 159.039816 
L 149.594294 166.261308 
L 150.407964 162.650562 
L 151.221635 162.650562 
L 152.035305 159.039816 
L 155.289988 159.039816 
L 156.103658 166.261308 
L 159.35834 166.261308 
L 160.172011 169.872055 
L 161.799352 169.872055 
L 162.613022 173.482801 
L 163.426693 173.482801 
L 164.240364 177.093547 
L 165.054034 173.482801 
L 167.495046 173.482801 
L 168.308716 177.093547 
L 169.122387 177.093547 
L 171.563398 187.925786 
L 175.631751 187.925786 
L 176.445422 195.147278 
L 177.259092 198.758025 
L 178.072763 198.758025 
L 178.886433 202.368771 
L 179.700104 202.368771 
L 180.513774 209.590264 
L 182.954786 209.590264 
L 183.768457 213.20101 
L 184.582127 213.20101 
L 185.395798 216.811756 
L 187.023139 216.811756 
L 187.836809 220.422502 
L 191.905162 220.422502 
L 192.718832 227.643995 
L 197.600856 227.643995 
L 198.414526 231.254741 
L 200.855538 231.254741 
L 201.669208 234.865487 
L 205.737561 234.865487 
L 207.364902 242.08698 
L 221.197301 242.08698 
L 222.010972 245.697726 
L 235.029701 245.697726 
L 236.657042 252.919219 
L 239.098053 252.919219 
L 239.911724 256.529965 
L 241.539065 256.529965 
L 242.352735 260.140711 
L 252.116782 260.140711 
L 252.930452 263.751458 
L 381.490398 263.751458 
L 381.490398 263.751458 
" style="fill:none;stroke:#ffc400;stroke-linecap:round;stroke-width:1.5;"/>
   </g>
   <g id="line2d_26">
    <path clip-path="url(#p75e71416df)" d="M 56.835852 263.751458 
L 64.158887 263.751458 
L 64.972558 260.140711 
L 65.786228 252.919219 
L 67.413569 252.919219 
L 68.22724 245.697726 
L 69.04091 245.697726 
L 69.854581 231.254741 
L 70.668251 231.254741 
L 71.481922 220.422502 
L 72.295593 205.979517 
L 73.109263 195.147278 
L 73.922934 195.147278 
L 74.736604 184.31504 
L 75.550275 187.925786 
L 76.363945 180.704293 
L 77.177616 166.261308 
L 77.991286 177.093547 
L 78.804957 169.872055 
L 79.618627 166.261308 
L 80.432298 166.261308 
L 81.245968 173.482801 
L 82.059639 169.872055 
L 82.87331 162.650562 
L 83.68698 166.261308 
L 84.500651 162.650562 
L 85.314321 162.650562 
L 87.755333 151.818323 
L 88.569003 144.596831 
L 89.382674 148.207577 
L 90.196344 140.986084 
L 91.010015 137.375338 
L 91.823685 130.153846 
L 92.637356 115.710861 
L 93.451027 122.932353 
L 94.264697 133.764592 
L 95.078368 133.764592 
L 95.892038 119.321607 
L 96.705709 126.543099 
L 97.519379 122.932353 
L 98.33305 112.100114 
L 99.14672 112.100114 
L 99.960391 104.878622 
L 100.774061 108.489368 
L 101.587732 108.489368 
L 102.401403 101.267875 
L 103.215073 101.267875 
L 104.028744 94.046383 
L 104.842414 90.435637 
L 105.656085 90.435637 
L 106.469755 94.046383 
L 107.283426 90.435637 
L 108.097096 90.435637 
L 108.910767 83.214144 
L 110.538108 83.214144 
L 111.351778 86.82489 
L 112.165449 83.214144 
L 112.97912 86.82489 
L 113.79279 94.046383 
L 114.606461 94.046383 
L 116.233802 108.489368 
L 117.047472 104.878622 
L 117.861143 108.489368 
L 118.674813 119.321607 
L 120.302154 126.543099 
L 121.115825 122.932353 
L 122.743166 122.932353 
L 124.370507 115.710861 
L 125.184178 115.710861 
L 125.997848 119.321607 
L 126.811519 126.543099 
L 128.43886 126.543099 
L 129.25253 122.932353 
L 130.879871 122.932353 
L 131.693542 119.321607 
L 132.507212 119.321607 
L 133.320883 115.710861 
L 136.575565 130.153846 
L 137.389236 137.375338 
L 139.830247 137.375338 
L 140.643918 133.764592 
L 142.271259 133.764592 
L 143.08493 137.375338 
L 143.8986 144.596831 
L 148.780623 144.596831 
L 149.594294 148.207577 
L 150.407964 148.207577 
L 151.221635 144.596831 
L 153.662647 155.429069 
L 157.730999 155.429069 
L 160.172011 166.261308 
L 160.985681 166.261308 
L 161.799352 173.482801 
L 162.613022 177.093547 
L 163.426693 177.093547 
L 165.054034 184.31504 
L 165.867705 184.31504 
L 166.681375 187.925786 
L 168.308716 187.925786 
L 169.122387 191.536532 
L 170.749728 191.536532 
L 172.377069 198.758025 
L 174.818081 198.758025 
L 175.631751 202.368771 
L 180.513774 202.368771 
L 181.327445 205.979517 
L 184.582127 205.979517 
L 185.395798 209.590264 
L 191.091491 209.590264 
L 192.718832 216.811756 
L 196.787185 216.811756 
L 197.600856 220.422502 
L 200.855538 220.422502 
L 201.669208 224.033249 
L 208.178573 224.033249 
L 208.992243 227.643995 
L 209.805914 227.643995 
L 210.619584 231.254741 
L 213.874266 231.254741 
L 214.687937 234.865487 
L 217.942619 234.865487 
L 218.75629 238.476234 
L 220.383631 238.476234 
L 221.197301 242.08698 
L 222.010972 242.08698 
L 223.638313 249.308472 
L 230.961348 249.308472 
L 231.775018 252.919219 
L 294.42765 252.919219 
L 295.24132 256.529965 
L 311.514731 256.529965 
L 312.328402 260.140711 
L 354.63927 260.140711 
L 355.45294 263.751458 
L 381.490398 263.751458 
L 381.490398 263.751458 
" style="fill:none;stroke:#ff6800;stroke-linecap:round;stroke-width:1.5;"/>
   </g>
   <g id="line2d_27">
    <path clip-path="url(#p75e71416df)" d="M 56.835852 263.751458 
L 61.717876 263.751458 
L 62.531546 260.140711 
L 64.972558 260.140711 
L 65.786228 256.529965 
L 66.599899 260.140711 
L 67.413569 252.919219 
L 69.854581 242.08698 
L 70.668251 234.865487 
L 71.481922 231.254741 
L 72.295593 234.865487 
L 73.922934 227.643995 
L 74.736604 213.20101 
L 75.550275 195.147278 
L 76.363945 195.147278 
L 77.177616 184.31504 
L 77.991286 180.704293 
L 78.804957 180.704293 
L 79.618627 184.31504 
L 80.432298 177.093547 
L 81.245968 166.261308 
L 82.87331 151.818323 
L 83.68698 148.207577 
L 84.500651 148.207577 
L 85.314321 155.429069 
L 86.127992 133.764592 
L 86.941662 126.543099 
L 87.755333 115.710861 
L 88.569003 115.710861 
L 89.382674 108.489368 
L 90.196344 108.489368 
L 91.010015 94.046383 
L 91.823685 90.435637 
L 93.451027 75.992652 
L 94.264697 65.160413 
L 95.078368 68.771159 
L 95.892038 61.549667 
L 96.705709 65.160413 
L 97.519379 61.549667 
L 98.33305 47.106681 
L 99.14672 39.885189 
L 99.960391 39.885189 
L 100.774061 43.495935 
L 103.215073 43.495935 
L 104.028744 47.106681 
L 104.842414 36.274443 
L 105.656085 29.05295 
L 106.469755 29.05295 
L 107.283426 21.831458 
L 108.097096 29.05295 
L 108.910767 25.442204 
L 109.724437 29.05295 
L 112.165449 29.05295 
L 112.97912 25.442204 
L 114.606461 25.442204 
L 115.420131 29.05295 
L 116.233802 36.274443 
L 117.047472 36.274443 
L 117.861143 39.885189 
L 118.674813 39.885189 
L 119.488484 47.106681 
L 121.115825 54.328174 
L 121.929495 61.549667 
L 122.743166 61.549667 
L 123.556837 68.771159 
L 124.370507 79.603398 
L 125.184178 83.214144 
L 125.997848 79.603398 
L 127.625189 86.82489 
L 128.43886 94.046383 
L 129.25253 97.657129 
L 130.879871 97.657129 
L 131.693542 104.878622 
L 133.320883 104.878622 
L 134.134554 108.489368 
L 134.948224 108.489368 
L 135.761895 115.710861 
L 136.575565 119.321607 
L 137.389236 119.321607 
L 139.016577 126.543099 
L 139.830247 133.764592 
L 140.643918 130.153846 
L 141.457588 137.375338 
L 142.271259 140.986084 
L 146.339612 140.986084 
L 147.153282 144.596831 
L 147.966953 151.818323 
L 148.780623 151.818323 
L 149.594294 159.039816 
L 150.407964 159.039816 
L 151.221635 162.650562 
L 158.54467 162.650562 
L 159.35834 169.872055 
L 165.867705 169.872055 
L 166.681375 173.482801 
L 167.495046 173.482801 
L 168.308716 180.704293 
L 169.122387 180.704293 
L 170.749728 187.925786 
L 174.00441 187.925786 
L 174.818081 191.536532 
L 180.513774 191.536532 
L 181.327445 195.147278 
L 182.954786 195.147278 
L 183.768457 198.758025 
L 187.023139 198.758025 
L 188.65048 205.979517 
L 191.091491 205.979517 
L 191.905162 209.590264 
L 195.159844 209.590264 
L 195.973515 213.20101 
L 196.787185 213.20101 
L 197.600856 216.811756 
L 204.11022 216.811756 
L 205.737561 224.033249 
L 206.551232 224.033249 
L 208.992243 234.865487 
L 213.874266 234.865487 
L 214.687937 238.476234 
L 217.128949 238.476234 
L 217.942619 242.08698 
L 227.706666 242.08698 
L 228.520336 245.697726 
L 230.147677 245.697726 
L 230.961348 249.308472 
L 241.539065 249.308472 
L 242.352735 256.529965 
L 259.439817 256.529965 
L 260.253487 260.140711 
L 274.085886 260.140711 
L 274.899557 263.751458 
L 381.490398 263.751458 
L 381.490398 263.751458 
" style="fill:none;stroke:#f10800;stroke-linecap:round;stroke-width:1.5;"/>
   </g>
   <g id="patch_3">
    <path d="M 40.603125 275.847458 
L 40.603125 9.735458 
" style="fill:none;stroke:#cccccc;stroke-linecap:square;stroke-linejoin:miter;stroke-width:0.8;"/>
   </g>
   <g id="patch_4">
    <path d="M 397.723125 275.847458 
L 397.723125 9.735458 
" style="fill:none;stroke:#cccccc;stroke-linecap:square;stroke-linejoin:miter;stroke-width:0.8;"/>
   </g>
   <g id="patch_5">
    <path d="M 40.603125 275.847458 
L 397.723125 275.847458 
" style="fill:none;stroke:#cccccc;stroke-linecap:square;stroke-linejoin:miter;stroke-width:0.8;"/>
   </g>
   <g id="patch_6">
    <path d="M 40.603125 9.735458 
L 397.723125 9.735458 
" style="fill:none;stroke:#cccccc;stroke-linecap:square;stroke-linejoin:miter;stroke-width:0.8;"/>
   </g>
  </g>
 </g>
 <defs>
  <clipPath id="p75e71416df">
   <rect height="266.112" width="357.12" x="40.603125" y="9.735458"/>
  </clipPath>
 </defs>
</svg>
