<?xml version="1.0" encoding="utf-8" standalone="no"?>
<!DOCTYPE svg PUBLIC "-//W3C//DTD SVG 1.1//EN"
  "http://www.w3.org/Graphics/SVG/1.1/DTD/svg11.dtd">
<!-- Created with matplotlib (https://matplotlib.org/) -->
<svg height="310.86825pt" version="1.1" viewBox="0 0 417.648125 310.86825" width="417.648125pt" xmlns="http://www.w3.org/2000/svg" xmlns:xlink="http://www.w3.org/1999/xlink">
 <defs>
  <style type="text/css">
*{stroke-linecap:butt;stroke-linejoin:round;white-space:pre;}
  </style>
 </defs>
 <g id="figure_1">
  <g id="patch_1">
   <path d="M 0 310.86825 
L 417.648125 310.86825 
L 417.648125 0 
L 0 0 
z
" style="fill:#ffffff;"/>
  </g>
  <g id="axes_1">
   <g id="patch_2">
    <path d="M 53.328125 273.312 
L 410.448125 273.312 
L 410.448125 7.2 
L 53.328125 7.2 
z
" style="fill:#ffffff;"/>
   </g>
   <g id="matplotlib.axis_1">
    <g id="xtick_1">
     <g id="line2d_1">
      <path clip-path="url(#p777b1a3d6c)" d="M 69.560852 273.312 
L 69.560852 7.2 
" style="fill:none;stroke:#cccccc;stroke-linecap:round;stroke-width:0.8;"/>
     </g>
     <g id="text_1">
      <!-- 0 -->
      <defs>
       <path d="M 31.78125 66.40625 
Q 24.171875 66.40625 20.328125 58.90625 
Q 16.5 51.421875 16.5 36.375 
Q 16.5 21.390625 20.328125 13.890625 
Q 24.171875 6.390625 31.78125 6.390625 
Q 39.453125 6.390625 43.28125 13.890625 
Q 47.125 21.390625 47.125 36.375 
Q 47.125 51.421875 43.28125 58.90625 
Q 39.453125 66.40625 31.78125 66.40625 
z
M 31.78125 74.21875 
Q 44.046875 74.21875 50.515625 64.515625 
Q 56.984375 54.828125 56.984375 36.375 
Q 56.984375 17.96875 50.515625 8.265625 
Q 44.046875 -1.421875 31.78125 -1.421875 
Q 19.53125 -1.421875 13.0625 8.265625 
Q 6.59375 17.96875 6.59375 36.375 
Q 6.59375 54.828125 13.0625 64.515625 
Q 19.53125 74.21875 31.78125 74.21875 
z
" id="DejaVuSans-48"/>
      </defs>
      <g style="fill:#262626;" transform="translate(66.379602 287.910437)scale(0.1 -0.1)">
       <use xlink:href="#DejaVuSans-48"/>
      </g>
     </g>
    </g>
    <g id="xtick_2">
     <g id="line2d_2">
      <path clip-path="url(#p777b1a3d6c)" d="M 110.244379 273.312 
L 110.244379 7.2 
" style="fill:none;stroke:#cccccc;stroke-linecap:round;stroke-width:0.8;"/>
     </g>
     <g id="text_2">
      <!-- 5 -->
      <defs>
       <path d="M 10.796875 72.90625 
L 49.515625 72.90625 
L 49.515625 64.59375 
L 19.828125 64.59375 
L 19.828125 46.734375 
Q 21.96875 47.46875 24.109375 47.828125 
Q 26.265625 48.1875 28.421875 48.1875 
Q 40.625 48.1875 47.75 41.5 
Q 54.890625 34.8125 54.890625 23.390625 
Q 54.890625 11.625 47.5625 5.09375 
Q 40.234375 -1.421875 26.90625 -1.421875 
Q 22.3125 -1.421875 17.546875 -0.640625 
Q 12.796875 0.140625 7.71875 1.703125 
L 7.71875 11.625 
Q 12.109375 9.234375 16.796875 8.0625 
Q 21.484375 6.890625 26.703125 6.890625 
Q 35.15625 6.890625 40.078125 11.328125 
Q 45.015625 15.765625 45.015625 23.390625 
Q 45.015625 31 40.078125 35.4375 
Q 35.15625 39.890625 26.703125 39.890625 
Q 22.75 39.890625 18.8125 39.015625 
Q 14.890625 38.140625 10.796875 36.28125 
z
" id="DejaVuSans-53"/>
      </defs>
      <g style="fill:#262626;" transform="translate(107.063129 287.910437)scale(0.1 -0.1)">
       <use xlink:href="#DejaVuSans-53"/>
      </g>
     </g>
    </g>
    <g id="xtick_3">
     <g id="line2d_3">
      <path clip-path="url(#p777b1a3d6c)" d="M 150.927906 273.312 
L 150.927906 7.2 
" style="fill:none;stroke:#cccccc;stroke-linecap:round;stroke-width:0.8;"/>
     </g>
     <g id="text_3">
      <!-- 10 -->
      <defs>
       <path d="M 12.40625 8.296875 
L 28.515625 8.296875 
L 28.515625 63.921875 
L 10.984375 60.40625 
L 10.984375 69.390625 
L 28.421875 72.90625 
L 38.28125 72.90625 
L 38.28125 8.296875 
L 54.390625 8.296875 
L 54.390625 0 
L 12.40625 0 
z
" id="DejaVuSans-49"/>
      </defs>
      <g style="fill:#262626;" transform="translate(144.565406 287.910437)scale(0.1 -0.1)">
       <use xlink:href="#DejaVuSans-49"/>
       <use x="63.623047" xlink:href="#DejaVuSans-48"/>
      </g>
     </g>
    </g>
    <g id="xtick_4">
     <g id="line2d_4">
      <path clip-path="url(#p777b1a3d6c)" d="M 191.611433 273.312 
L 191.611433 7.2 
" style="fill:none;stroke:#cccccc;stroke-linecap:round;stroke-width:0.8;"/>
     </g>
     <g id="text_4">
      <!-- 15 -->
      <g style="fill:#262626;" transform="translate(185.248933 287.910437)scale(0.1 -0.1)">
       <use xlink:href="#DejaVuSans-49"/>
       <use x="63.623047" xlink:href="#DejaVuSans-53"/>
      </g>
     </g>
    </g>
    <g id="xtick_5">
     <g id="line2d_5">
      <path clip-path="url(#p777b1a3d6c)" d="M 232.29496 273.312 
L 232.29496 7.2 
" style="fill:none;stroke:#cccccc;stroke-linecap:round;stroke-width:0.8;"/>
     </g>
     <g id="text_5">
      <!-- 20 -->
      <defs>
       <path d="M 19.1875 8.296875 
L 53.609375 8.296875 
L 53.609375 0 
L 7.328125 0 
L 7.328125 8.296875 
Q 12.9375 14.109375 22.625 23.890625 
Q 32.328125 33.6875 34.8125 36.53125 
Q 39.546875 41.84375 41.421875 45.53125 
Q 43.3125 49.21875 43.3125 52.78125 
Q 43.3125 58.59375 39.234375 62.25 
Q 35.15625 65.921875 28.609375 65.921875 
Q 23.96875 65.921875 18.8125 64.3125 
Q 13.671875 62.703125 7.8125 59.421875 
L 7.8125 69.390625 
Q 13.765625 71.78125 18.9375 73 
Q 24.125 74.21875 28.421875 74.21875 
Q 39.75 74.21875 46.484375 68.546875 
Q 53.21875 62.890625 53.21875 53.421875 
Q 53.21875 48.921875 51.53125 44.890625 
Q 49.859375 40.875 45.40625 35.40625 
Q 44.1875 33.984375 37.640625 27.21875 
Q 31.109375 20.453125 19.1875 8.296875 
z
" id="DejaVuSans-50"/>
      </defs>
      <g style="fill:#262626;" transform="translate(225.93246 287.910437)scale(0.1 -0.1)">
       <use xlink:href="#DejaVuSans-50"/>
       <use x="63.623047" xlink:href="#DejaVuSans-48"/>
      </g>
     </g>
    </g>
    <g id="xtick_6">
     <g id="line2d_6">
      <path clip-path="url(#p777b1a3d6c)" d="M 272.978487 273.312 
L 272.978487 7.2 
" style="fill:none;stroke:#cccccc;stroke-linecap:round;stroke-width:0.8;"/>
     </g>
     <g id="text_6">
      <!-- 25 -->
      <g style="fill:#262626;" transform="translate(266.615987 287.910437)scale(0.1 -0.1)">
       <use xlink:href="#DejaVuSans-50"/>
       <use x="63.623047" xlink:href="#DejaVuSans-53"/>
      </g>
     </g>
    </g>
    <g id="xtick_7">
     <g id="line2d_7">
      <path clip-path="url(#p777b1a3d6c)" d="M 313.662014 273.312 
L 313.662014 7.2 
" style="fill:none;stroke:#cccccc;stroke-linecap:round;stroke-width:0.8;"/>
     </g>
     <g id="text_7">
      <!-- 30 -->
      <defs>
       <path d="M 40.578125 39.3125 
Q 47.65625 37.796875 51.625 33 
Q 55.609375 28.21875 55.609375 21.1875 
Q 55.609375 10.40625 48.1875 4.484375 
Q 40.765625 -1.421875 27.09375 -1.421875 
Q 22.515625 -1.421875 17.65625 -0.515625 
Q 12.796875 0.390625 7.625 2.203125 
L 7.625 11.71875 
Q 11.71875 9.328125 16.59375 8.109375 
Q 21.484375 6.890625 26.8125 6.890625 
Q 36.078125 6.890625 40.9375 10.546875 
Q 45.796875 14.203125 45.796875 21.1875 
Q 45.796875 27.640625 41.28125 31.265625 
Q 36.765625 34.90625 28.71875 34.90625 
L 20.21875 34.90625 
L 20.21875 43.015625 
L 29.109375 43.015625 
Q 36.375 43.015625 40.234375 45.921875 
Q 44.09375 48.828125 44.09375 54.296875 
Q 44.09375 59.90625 40.109375 62.90625 
Q 36.140625 65.921875 28.71875 65.921875 
Q 24.65625 65.921875 20.015625 65.03125 
Q 15.375 64.15625 9.8125 62.3125 
L 9.8125 71.09375 
Q 15.4375 72.65625 20.34375 73.4375 
Q 25.25 74.21875 29.59375 74.21875 
Q 40.828125 74.21875 47.359375 69.109375 
Q 53.90625 64.015625 53.90625 55.328125 
Q 53.90625 49.265625 50.4375 45.09375 
Q 46.96875 40.921875 40.578125 39.3125 
z
" id="DejaVuSans-51"/>
      </defs>
      <g style="fill:#262626;" transform="translate(307.299514 287.910437)scale(0.1 -0.1)">
       <use xlink:href="#DejaVuSans-51"/>
       <use x="63.623047" xlink:href="#DejaVuSans-48"/>
      </g>
     </g>
    </g>
    <g id="xtick_8">
     <g id="line2d_8">
      <path clip-path="url(#p777b1a3d6c)" d="M 354.345541 273.312 
L 354.345541 7.2 
" style="fill:none;stroke:#cccccc;stroke-linecap:round;stroke-width:0.8;"/>
     </g>
     <g id="text_8">
      <!-- 35 -->
      <g style="fill:#262626;" transform="translate(347.983041 287.910437)scale(0.1 -0.1)">
       <use xlink:href="#DejaVuSans-51"/>
       <use x="63.623047" xlink:href="#DejaVuSans-53"/>
      </g>
     </g>
    </g>
    <g id="xtick_9">
     <g id="line2d_9">
      <path clip-path="url(#p777b1a3d6c)" d="M 395.029068 273.312 
L 395.029068 7.2 
" style="fill:none;stroke:#cccccc;stroke-linecap:round;stroke-width:0.8;"/>
     </g>
     <g id="text_9">
      <!-- 40 -->
      <defs>
       <path d="M 37.796875 64.3125 
L 12.890625 25.390625 
L 37.796875 25.390625 
z
M 35.203125 72.90625 
L 47.609375 72.90625 
L 47.609375 25.390625 
L 58.015625 25.390625 
L 58.015625 17.1875 
L 47.609375 17.1875 
L 47.609375 0 
L 37.796875 0 
L 37.796875 17.1875 
L 4.890625 17.1875 
L 4.890625 26.703125 
z
" id="DejaVuSans-52"/>
      </defs>
      <g style="fill:#262626;" transform="translate(388.666568 287.910437)scale(0.1 -0.1)">
       <use xlink:href="#DejaVuSans-52"/>
       <use x="63.623047" xlink:href="#DejaVuSans-48"/>
      </g>
     </g>
    </g>
    <g id="text_10">
     <!-- time (days) -->
     <defs>
      <path d="M 18.3125 70.21875 
L 18.3125 54.6875 
L 36.8125 54.6875 
L 36.8125 47.703125 
L 18.3125 47.703125 
L 18.3125 18.015625 
Q 18.3125 11.328125 20.140625 9.421875 
Q 21.96875 7.515625 27.59375 7.515625 
L 36.8125 7.515625 
L 36.8125 0 
L 27.59375 0 
Q 17.1875 0 13.234375 3.875 
Q 9.28125 7.765625 9.28125 18.015625 
L 9.28125 47.703125 
L 2.6875 47.703125 
L 2.6875 54.6875 
L 9.28125 54.6875 
L 9.28125 70.21875 
z
" id="DejaVuSans-116"/>
      <path d="M 9.421875 54.6875 
L 18.40625 54.6875 
L 18.40625 0 
L 9.421875 0 
z
M 9.421875 75.984375 
L 18.40625 75.984375 
L 18.40625 64.59375 
L 9.421875 64.59375 
z
" id="DejaVuSans-105"/>
      <path d="M 52 44.1875 
Q 55.375 50.25 60.0625 53.125 
Q 64.75 56 71.09375 56 
Q 79.640625 56 84.28125 50.015625 
Q 88.921875 44.046875 88.921875 33.015625 
L 88.921875 0 
L 79.890625 0 
L 79.890625 32.71875 
Q 79.890625 40.578125 77.09375 44.375 
Q 74.3125 48.1875 68.609375 48.1875 
Q 61.625 48.1875 57.5625 43.546875 
Q 53.515625 38.921875 53.515625 30.90625 
L 53.515625 0 
L 44.484375 0 
L 44.484375 32.71875 
Q 44.484375 40.625 41.703125 44.40625 
Q 38.921875 48.1875 33.109375 48.1875 
Q 26.21875 48.1875 22.15625 43.53125 
Q 18.109375 38.875 18.109375 30.90625 
L 18.109375 0 
L 9.078125 0 
L 9.078125 54.6875 
L 18.109375 54.6875 
L 18.109375 46.1875 
Q 21.1875 51.21875 25.484375 53.609375 
Q 29.78125 56 35.6875 56 
Q 41.65625 56 45.828125 52.96875 
Q 50 49.953125 52 44.1875 
z
" id="DejaVuSans-109"/>
      <path d="M 56.203125 29.59375 
L 56.203125 25.203125 
L 14.890625 25.203125 
Q 15.484375 15.921875 20.484375 11.0625 
Q 25.484375 6.203125 34.421875 6.203125 
Q 39.59375 6.203125 44.453125 7.46875 
Q 49.3125 8.734375 54.109375 11.28125 
L 54.109375 2.78125 
Q 49.265625 0.734375 44.1875 -0.34375 
Q 39.109375 -1.421875 33.890625 -1.421875 
Q 20.796875 -1.421875 13.15625 6.1875 
Q 5.515625 13.8125 5.515625 26.8125 
Q 5.515625 40.234375 12.765625 48.109375 
Q 20.015625 56 32.328125 56 
Q 43.359375 56 49.78125 48.890625 
Q 56.203125 41.796875 56.203125 29.59375 
z
M 47.21875 32.234375 
Q 47.125 39.59375 43.09375 43.984375 
Q 39.0625 48.390625 32.421875 48.390625 
Q 24.90625 48.390625 20.390625 44.140625 
Q 15.875 39.890625 15.1875 32.171875 
z
" id="DejaVuSans-101"/>
      <path id="DejaVuSans-32"/>
      <path d="M 31 75.875 
Q 24.46875 64.65625 21.28125 53.65625 
Q 18.109375 42.671875 18.109375 31.390625 
Q 18.109375 20.125 21.3125 9.0625 
Q 24.515625 -2 31 -13.1875 
L 23.1875 -13.1875 
Q 15.875 -1.703125 12.234375 9.375 
Q 8.59375 20.453125 8.59375 31.390625 
Q 8.59375 42.28125 12.203125 53.3125 
Q 15.828125 64.359375 23.1875 75.875 
z
" id="DejaVuSans-40"/>
      <path d="M 45.40625 46.390625 
L 45.40625 75.984375 
L 54.390625 75.984375 
L 54.390625 0 
L 45.40625 0 
L 45.40625 8.203125 
Q 42.578125 3.328125 38.25 0.953125 
Q 33.9375 -1.421875 27.875 -1.421875 
Q 17.96875 -1.421875 11.734375 6.484375 
Q 5.515625 14.40625 5.515625 27.296875 
Q 5.515625 40.1875 11.734375 48.09375 
Q 17.96875 56 27.875 56 
Q 33.9375 56 38.25 53.625 
Q 42.578125 51.265625 45.40625 46.390625 
z
M 14.796875 27.296875 
Q 14.796875 17.390625 18.875 11.75 
Q 22.953125 6.109375 30.078125 6.109375 
Q 37.203125 6.109375 41.296875 11.75 
Q 45.40625 17.390625 45.40625 27.296875 
Q 45.40625 37.203125 41.296875 42.84375 
Q 37.203125 48.484375 30.078125 48.484375 
Q 22.953125 48.484375 18.875 42.84375 
Q 14.796875 37.203125 14.796875 27.296875 
z
" id="DejaVuSans-100"/>
      <path d="M 34.28125 27.484375 
Q 23.390625 27.484375 19.1875 25 
Q 14.984375 22.515625 14.984375 16.5 
Q 14.984375 11.71875 18.140625 8.90625 
Q 21.296875 6.109375 26.703125 6.109375 
Q 34.1875 6.109375 38.703125 11.40625 
Q 43.21875 16.703125 43.21875 25.484375 
L 43.21875 27.484375 
z
M 52.203125 31.203125 
L 52.203125 0 
L 43.21875 0 
L 43.21875 8.296875 
Q 40.140625 3.328125 35.546875 0.953125 
Q 30.953125 -1.421875 24.3125 -1.421875 
Q 15.921875 -1.421875 10.953125 3.296875 
Q 6 8.015625 6 15.921875 
Q 6 25.140625 12.171875 29.828125 
Q 18.359375 34.515625 30.609375 34.515625 
L 43.21875 34.515625 
L 43.21875 35.40625 
Q 43.21875 41.609375 39.140625 45 
Q 35.0625 48.390625 27.6875 48.390625 
Q 23 48.390625 18.546875 47.265625 
Q 14.109375 46.140625 10.015625 43.890625 
L 10.015625 52.203125 
Q 14.9375 54.109375 19.578125 55.046875 
Q 24.21875 56 28.609375 56 
Q 40.484375 56 46.34375 49.84375 
Q 52.203125 43.703125 52.203125 31.203125 
z
" id="DejaVuSans-97"/>
      <path d="M 32.171875 -5.078125 
Q 28.375 -14.84375 24.75 -17.8125 
Q 21.140625 -20.796875 15.09375 -20.796875 
L 7.90625 -20.796875 
L 7.90625 -13.28125 
L 13.1875 -13.28125 
Q 16.890625 -13.28125 18.9375 -11.515625 
Q 21 -9.765625 23.484375 -3.21875 
L 25.09375 0.875 
L 2.984375 54.6875 
L 12.5 54.6875 
L 29.59375 11.921875 
L 46.6875 54.6875 
L 56.203125 54.6875 
z
" id="DejaVuSans-121"/>
      <path d="M 44.28125 53.078125 
L 44.28125 44.578125 
Q 40.484375 46.53125 36.375 47.5 
Q 32.28125 48.484375 27.875 48.484375 
Q 21.1875 48.484375 17.84375 46.4375 
Q 14.5 44.390625 14.5 40.28125 
Q 14.5 37.15625 16.890625 35.375 
Q 19.28125 33.59375 26.515625 31.984375 
L 29.59375 31.296875 
Q 39.15625 29.25 43.1875 25.515625 
Q 47.21875 21.78125 47.21875 15.09375 
Q 47.21875 7.46875 41.1875 3.015625 
Q 35.15625 -1.421875 24.609375 -1.421875 
Q 20.21875 -1.421875 15.453125 -0.5625 
Q 10.6875 0.296875 5.421875 2 
L 5.421875 11.28125 
Q 10.40625 8.6875 15.234375 7.390625 
Q 20.0625 6.109375 24.8125 6.109375 
Q 31.15625 6.109375 34.5625 8.28125 
Q 37.984375 10.453125 37.984375 14.40625 
Q 37.984375 18.0625 35.515625 20.015625 
Q 33.0625 21.96875 24.703125 23.78125 
L 21.578125 24.515625 
Q 13.234375 26.265625 9.515625 29.90625 
Q 5.8125 33.546875 5.8125 39.890625 
Q 5.8125 47.609375 11.28125 51.796875 
Q 16.75 56 26.8125 56 
Q 31.78125 56 36.171875 55.265625 
Q 40.578125 54.546875 44.28125 53.078125 
z
" id="DejaVuSans-115"/>
      <path d="M 8.015625 75.875 
L 15.828125 75.875 
Q 23.140625 64.359375 26.78125 53.3125 
Q 30.421875 42.28125 30.421875 31.390625 
Q 30.421875 20.453125 26.78125 9.375 
Q 23.140625 -1.703125 15.828125 -13.1875 
L 8.015625 -13.1875 
Q 14.5 -2 17.703125 9.0625 
Q 20.90625 20.125 20.90625 31.390625 
Q 20.90625 42.671875 17.703125 53.65625 
Q 14.5 64.65625 8.015625 75.875 
z
" id="DejaVuSans-41"/>
     </defs>
     <g style="fill:#262626;" transform="translate(203.299063 301.588562)scale(0.1 -0.1)">
      <use xlink:href="#DejaVuSans-116"/>
      <use x="39.208984" xlink:href="#DejaVuSans-105"/>
      <use x="66.992188" xlink:href="#DejaVuSans-109"/>
      <use x="164.404297" xlink:href="#DejaVuSans-101"/>
      <use x="225.927734" xlink:href="#DejaVuSans-32"/>
      <use x="257.714844" xlink:href="#DejaVuSans-40"/>
      <use x="296.728516" xlink:href="#DejaVuSans-100"/>
      <use x="360.205078" xlink:href="#DejaVuSans-97"/>
      <use x="421.484375" xlink:href="#DejaVuSans-121"/>
      <use x="480.664062" xlink:href="#DejaVuSans-115"/>
      <use x="532.763672" xlink:href="#DejaVuSans-41"/>
     </g>
    </g>
   </g>
   <g id="matplotlib.axis_2">
    <g id="ytick_1">
     <g id="line2d_10">
      <path clip-path="url(#p777b1a3d6c)" d="M 53.328125 261.290805 
L 410.448125 261.290805 
" style="fill:none;stroke:#cccccc;stroke-linecap:round;stroke-width:0.8;"/>
     </g>
     <g id="text_11">
      <!-- 0 -->
      <g style="fill:#262626;" transform="translate(39.965625 265.090024)scale(0.1 -0.1)">
       <use xlink:href="#DejaVuSans-48"/>
      </g>
     </g>
    </g>
    <g id="ytick_2">
     <g id="line2d_11">
      <path clip-path="url(#p777b1a3d6c)" d="M 53.328125 223.888208 
L 410.448125 223.888208 
" style="fill:none;stroke:#cccccc;stroke-linecap:round;stroke-width:0.8;"/>
     </g>
     <g id="text_12">
      <!-- 500 -->
      <g style="fill:#262626;" transform="translate(27.240625 227.687427)scale(0.1 -0.1)">
       <use xlink:href="#DejaVuSans-53"/>
       <use x="63.623047" xlink:href="#DejaVuSans-48"/>
       <use x="127.246094" xlink:href="#DejaVuSans-48"/>
      </g>
     </g>
    </g>
    <g id="ytick_3">
     <g id="line2d_12">
      <path clip-path="url(#p777b1a3d6c)" d="M 53.328125 186.48561 
L 410.448125 186.48561 
" style="fill:none;stroke:#cccccc;stroke-linecap:round;stroke-width:0.8;"/>
     </g>
     <g id="text_13">
      <!-- 1000 -->
      <g style="fill:#262626;" transform="translate(20.878125 190.284829)scale(0.1 -0.1)">
       <use xlink:href="#DejaVuSans-49"/>
       <use x="63.623047" xlink:href="#DejaVuSans-48"/>
       <use x="127.246094" xlink:href="#DejaVuSans-48"/>
       <use x="190.869141" xlink:href="#DejaVuSans-48"/>
      </g>
     </g>
    </g>
    <g id="ytick_4">
     <g id="line2d_13">
      <path clip-path="url(#p777b1a3d6c)" d="M 53.328125 149.083013 
L 410.448125 149.083013 
" style="fill:none;stroke:#cccccc;stroke-linecap:round;stroke-width:0.8;"/>
     </g>
     <g id="text_14">
      <!-- 1500 -->
      <g style="fill:#262626;" transform="translate(20.878125 152.882232)scale(0.1 -0.1)">
       <use xlink:href="#DejaVuSans-49"/>
       <use x="63.623047" xlink:href="#DejaVuSans-53"/>
       <use x="127.246094" xlink:href="#DejaVuSans-48"/>
       <use x="190.869141" xlink:href="#DejaVuSans-48"/>
      </g>
     </g>
    </g>
    <g id="ytick_5">
     <g id="line2d_14">
      <path clip-path="url(#p777b1a3d6c)" d="M 53.328125 111.680416 
L 410.448125 111.680416 
" style="fill:none;stroke:#cccccc;stroke-linecap:round;stroke-width:0.8;"/>
     </g>
     <g id="text_15">
      <!-- 2000 -->
      <g style="fill:#262626;" transform="translate(20.878125 115.479634)scale(0.1 -0.1)">
       <use xlink:href="#DejaVuSans-50"/>
       <use x="63.623047" xlink:href="#DejaVuSans-48"/>
       <use x="127.246094" xlink:href="#DejaVuSans-48"/>
       <use x="190.869141" xlink:href="#DejaVuSans-48"/>
      </g>
     </g>
    </g>
    <g id="ytick_6">
     <g id="line2d_15">
      <path clip-path="url(#p777b1a3d6c)" d="M 53.328125 74.277818 
L 410.448125 74.277818 
" style="fill:none;stroke:#cccccc;stroke-linecap:round;stroke-width:0.8;"/>
     </g>
     <g id="text_16">
      <!-- 2500 -->
      <g style="fill:#262626;" transform="translate(20.878125 78.077037)scale(0.1 -0.1)">
       <use xlink:href="#DejaVuSans-50"/>
       <use x="63.623047" xlink:href="#DejaVuSans-53"/>
       <use x="127.246094" xlink:href="#DejaVuSans-48"/>
       <use x="190.869141" xlink:href="#DejaVuSans-48"/>
      </g>
     </g>
    </g>
    <g id="ytick_7">
     <g id="line2d_16">
      <path clip-path="url(#p777b1a3d6c)" d="M 53.328125 36.875221 
L 410.448125 36.875221 
" style="fill:none;stroke:#cccccc;stroke-linecap:round;stroke-width:0.8;"/>
     </g>
     <g id="text_17">
      <!-- 3000 -->
      <g style="fill:#262626;" transform="translate(20.878125 40.67444)scale(0.1 -0.1)">
       <use xlink:href="#DejaVuSans-51"/>
       <use x="63.623047" xlink:href="#DejaVuSans-48"/>
       <use x="127.246094" xlink:href="#DejaVuSans-48"/>
       <use x="190.869141" xlink:href="#DejaVuSans-48"/>
      </g>
     </g>
    </g>
    <g id="text_18">
     <!-- cells number -->
     <defs>
      <path d="M 48.78125 52.59375 
L 48.78125 44.1875 
Q 44.96875 46.296875 41.140625 47.34375 
Q 37.3125 48.390625 33.40625 48.390625 
Q 24.65625 48.390625 19.8125 42.84375 
Q 14.984375 37.3125 14.984375 27.296875 
Q 14.984375 17.28125 19.8125 11.734375 
Q 24.65625 6.203125 33.40625 6.203125 
Q 37.3125 6.203125 41.140625 7.25 
Q 44.96875 8.296875 48.78125 10.40625 
L 48.78125 2.09375 
Q 45.015625 0.34375 40.984375 -0.53125 
Q 36.96875 -1.421875 32.421875 -1.421875 
Q 20.0625 -1.421875 12.78125 6.34375 
Q 5.515625 14.109375 5.515625 27.296875 
Q 5.515625 40.671875 12.859375 48.328125 
Q 20.21875 56 33.015625 56 
Q 37.15625 56 41.109375 55.140625 
Q 45.0625 54.296875 48.78125 52.59375 
z
" id="DejaVuSans-99"/>
      <path d="M 9.421875 75.984375 
L 18.40625 75.984375 
L 18.40625 0 
L 9.421875 0 
z
" id="DejaVuSans-108"/>
      <path d="M 54.890625 33.015625 
L 54.890625 0 
L 45.90625 0 
L 45.90625 32.71875 
Q 45.90625 40.484375 42.875 44.328125 
Q 39.84375 48.1875 33.796875 48.1875 
Q 26.515625 48.1875 22.3125 43.546875 
Q 18.109375 38.921875 18.109375 30.90625 
L 18.109375 0 
L 9.078125 0 
L 9.078125 54.6875 
L 18.109375 54.6875 
L 18.109375 46.1875 
Q 21.34375 51.125 25.703125 53.5625 
Q 30.078125 56 35.796875 56 
Q 45.21875 56 50.046875 50.171875 
Q 54.890625 44.34375 54.890625 33.015625 
z
" id="DejaVuSans-110"/>
      <path d="M 8.5 21.578125 
L 8.5 54.6875 
L 17.484375 54.6875 
L 17.484375 21.921875 
Q 17.484375 14.15625 20.5 10.265625 
Q 23.53125 6.390625 29.59375 6.390625 
Q 36.859375 6.390625 41.078125 11.03125 
Q 45.3125 15.671875 45.3125 23.6875 
L 45.3125 54.6875 
L 54.296875 54.6875 
L 54.296875 0 
L 45.3125 0 
L 45.3125 8.40625 
Q 42.046875 3.421875 37.71875 1 
Q 33.40625 -1.421875 27.6875 -1.421875 
Q 18.265625 -1.421875 13.375 4.4375 
Q 8.5 10.296875 8.5 21.578125 
z
M 31.109375 56 
z
" id="DejaVuSans-117"/>
      <path d="M 48.6875 27.296875 
Q 48.6875 37.203125 44.609375 42.84375 
Q 40.53125 48.484375 33.40625 48.484375 
Q 26.265625 48.484375 22.1875 42.84375 
Q 18.109375 37.203125 18.109375 27.296875 
Q 18.109375 17.390625 22.1875 11.75 
Q 26.265625 6.109375 33.40625 6.109375 
Q 40.53125 6.109375 44.609375 11.75 
Q 48.6875 17.390625 48.6875 27.296875 
z
M 18.109375 46.390625 
Q 20.953125 51.265625 25.265625 53.625 
Q 29.59375 56 35.59375 56 
Q 45.5625 56 51.78125 48.09375 
Q 58.015625 40.1875 58.015625 27.296875 
Q 58.015625 14.40625 51.78125 6.484375 
Q 45.5625 -1.421875 35.59375 -1.421875 
Q 29.59375 -1.421875 25.265625 0.953125 
Q 20.953125 3.328125 18.109375 8.203125 
L 18.109375 0 
L 9.078125 0 
L 9.078125 75.984375 
L 18.109375 75.984375 
z
" id="DejaVuSans-98"/>
      <path d="M 41.109375 46.296875 
Q 39.59375 47.171875 37.8125 47.578125 
Q 36.03125 48 33.890625 48 
Q 26.265625 48 22.1875 43.046875 
Q 18.109375 38.09375 18.109375 28.8125 
L 18.109375 0 
L 9.078125 0 
L 9.078125 54.6875 
L 18.109375 54.6875 
L 18.109375 46.1875 
Q 20.953125 51.171875 25.484375 53.578125 
Q 30.03125 56 36.53125 56 
Q 37.453125 56 38.578125 55.875 
Q 39.703125 55.765625 41.0625 55.515625 
z
" id="DejaVuSans-114"/>
     </defs>
     <g style="fill:#262626;" transform="translate(14.798438 172.567719)rotate(-90)scale(0.1 -0.1)">
      <use xlink:href="#DejaVuSans-99"/>
      <use x="54.980469" xlink:href="#DejaVuSans-101"/>
      <use x="116.503906" xlink:href="#DejaVuSans-108"/>
      <use x="144.287109" xlink:href="#DejaVuSans-108"/>
      <use x="172.070312" xlink:href="#DejaVuSans-115"/>
      <use x="224.169922" xlink:href="#DejaVuSans-32"/>
      <use x="255.957031" xlink:href="#DejaVuSans-110"/>
      <use x="319.335938" xlink:href="#DejaVuSans-117"/>
      <use x="382.714844" xlink:href="#DejaVuSans-109"/>
      <use x="480.126953" xlink:href="#DejaVuSans-98"/>
      <use x="543.603516" xlink:href="#DejaVuSans-101"/>
      <use x="605.126953" xlink:href="#DejaVuSans-114"/>
     </g>
    </g>
   </g>
   <g id="line2d_17">
    <path clip-path="url(#p777b1a3d6c)" d="M 69.560852 260.243532 
L 70.374523 255.456 
L 71.188193 245.506909 
L 75.256546 205.710545 
L 76.883887 191.572364 
L 78.511228 179.977558 
L 79.324899 174.516779 
L 80.138569 170.776519 
L 80.95224 164.343273 
L 81.76591 160.079377 
L 82.579581 153.64613 
L 84.206922 145.193143 
L 85.834263 135.692883 
L 86.647934 132.401455 
L 87.461604 125.220156 
L 89.088945 117.739636 
L 89.902616 112.204052 
L 92.343627 99.561974 
L 93.970968 92.081455 
L 94.784639 87.219117 
L 95.59831 84.52613 
L 96.41198 80.262234 
L 97.225651 76.970805 
L 98.039321 76.073143 
L 98.852992 73.15574 
L 100.480333 68.368208 
L 101.294003 66.872104 
L 102.107674 64.403532 
L 102.921344 61.261714 
L 103.735015 59.616 
L 104.548685 57.59626 
L 105.362356 58.119896 
L 106.989697 54.753662 
L 107.803368 52.359896 
L 108.617038 51.537039 
L 109.430709 48.769247 
L 110.244379 46.599896 
L 111.05805 45.477818 
L 113.499061 39.044571 
L 114.312732 36.950026 
L 115.126403 34.257039 
L 115.940073 36.201974 
L 116.753744 34.331844 
L 117.567414 34.032623 
L 118.381085 32.985351 
L 119.194755 33.434182 
L 120.008426 32.760935 
L 120.822096 30.367169 
L 121.635767 28.94587 
L 122.449437 26.552104 
L 123.263108 25.579636 
L 124.076778 25.504831 
L 124.890449 24.90639 
L 125.70412 24.008727 
L 126.51779 24.831584 
L 127.331461 24.008727 
L 128.145131 24.233143 
L 128.958802 26.252883 
L 129.772472 25.579636 
L 130.586143 25.654442 
L 131.399813 24.607169 
L 132.213484 22.213403 
L 133.027154 21.614961 
L 133.840825 21.839377 
L 135.468166 23.335481 
L 136.281837 21.540156 
L 137.095507 20.567688 
L 137.909178 20.717299 
L 138.722848 20.717299 
L 139.536519 19.670026 
L 140.350189 20.642494 
L 141.97753 19.296 
L 142.791201 20.418078 
L 143.604871 19.44561 
L 144.418542 19.370805 
L 145.232212 21.689766 
L 146.045883 21.988987 
L 146.859554 22.512623 
L 147.673224 24.607169 
L 148.486895 25.280416 
L 149.300565 25.280416 
L 150.114236 26.477299 
L 150.927906 28.272623 
L 151.741577 27.823792 
L 152.555247 30.96561 
L 153.368918 31.190026 
L 154.996259 34.631065 
L 156.6236 34.631065 
L 157.437271 35.603532 
L 158.250941 36.052364 
L 159.064612 36.72561 
L 159.878282 39.643013 
L 161.505623 42.710026 
L 163.132964 46.375481 
L 163.946635 47.796779 
L 164.760305 49.816519 
L 165.573976 50.489766 
L 166.387647 50.414961 
L 167.201317 51.761455 
L 168.014988 54.454442 
L 168.828658 56.025351 
L 169.642329 58.942753 
L 171.26967 62.757818 
L 172.08334 64.253922 
L 172.897011 68.143792 
L 173.710681 71.435221 
L 174.524352 74.053403 
L 175.338022 75.100675 
L 176.151693 75.923532 
L 176.965364 78.392104 
L 177.779034 79.214961 
L 178.592705 81.459117 
L 179.406375 84.825351 
L 180.220046 86.39626 
L 181.033716 87.219117 
L 181.847387 90.884571 
L 182.661057 92.679896 
L 183.474728 95.971325 
L 184.288398 98.06587 
L 185.102069 99.78639 
L 185.915739 101.207688 
L 186.72941 102.329766 
L 188.356751 108.014961 
L 189.170422 109.58587 
L 189.984092 113.101714 
L 190.797763 114.223792 
L 191.611433 114.822234 
L 192.425104 117.141195 
L 193.238774 120.432623 
L 194.052445 122.302753 
L 194.866115 124.84613 
L 195.679786 126.71626 
L 196.493457 128.062753 
L 197.307127 130.680935 
L 198.120798 132.251844 
L 198.934468 134.870026 
L 199.748139 138.610286 
L 201.37548 142.27574 
L 203.002821 147.063273 
L 203.816491 147.736519 
L 204.630162 149.382234 
L 205.443832 152.299636 
L 211.139526 164.044052 
L 211.953197 164.866909 
L 214.394208 171.674182 
L 215.207879 174.292364 
L 216.021549 176.237299 
L 216.83522 177.209766 
L 220.089902 182.072104 
L 220.903573 184.091844 
L 221.717243 185.438338 
L 222.530914 187.607688 
L 223.344584 188.430545 
L 224.158255 190.450286 
L 224.971925 191.796779 
L 225.785596 192.918857 
L 226.599266 194.265351 
L 228.226608 196.285091 
L 229.853949 199.72613 
L 230.667619 200.623792 
L 231.48129 202.045091 
L 232.29496 203.092364 
L 233.108631 205.037299 
L 233.922301 206.084571 
L 235.549642 209.22639 
L 236.363313 210.348468 
L 237.176984 211.769766 
L 237.990654 212.293403 
L 238.804325 213.789506 
L 239.617995 214.98639 
L 240.431666 217.15574 
L 241.245336 218.128208 
L 242.059007 219.624312 
L 244.500018 222.167688 
L 245.313689 222.990545 
L 246.127359 223.588987 
L 246.94103 224.561455 
L 247.754701 225.085091 
L 248.568371 225.758338 
L 249.382042 226.80561 
L 251.823053 229.274182 
L 253.450394 230.54587 
L 254.264065 231.368727 
L 255.077735 231.967169 
L 255.891406 232.26639 
L 256.705076 232.790026 
L 257.518747 233.164052 
L 258.332418 233.762494 
L 259.146088 234.211325 
L 259.959759 235.034182 
L 260.773429 235.632623 
L 262.40077 237.053922 
L 264.028111 239.073662 
L 264.841782 239.746909 
L 265.655452 240.120935 
L 267.282793 241.093403 
L 268.096464 241.467429 
L 268.910135 242.140675 
L 269.723805 242.664312 
L 270.537476 243.337558 
L 272.164817 244.459636 
L 272.978487 245.058078 
L 273.792158 245.207688 
L 274.605828 245.731325 
L 276.233169 246.254961 
L 277.04684 246.778597 
L 277.860511 247.451844 
L 279.487852 248.424312 
L 281.928863 249.920416 
L 282.742534 249.920416 
L 283.556204 250.144831 
L 284.369875 250.668468 
L 285.997216 251.192104 
L 286.810886 251.640935 
L 287.624557 251.940156 
L 290.065569 252.239377 
L 290.879239 252.463792 
L 291.69291 252.912623 
L 293.320251 253.43626 
L 295.761262 253.735481 
L 297.388603 254.109506 
L 298.202274 254.333922 
L 299.015945 254.707948 
L 299.829615 254.707948 
L 300.643286 255.007169 
L 308.779991 256.428468 
L 314.475685 256.877299 
L 315.289355 257.251325 
L 316.916696 257.251325 
L 319.357708 257.700156 
L 323.426061 257.774961 
L 324.239731 257.924571 
L 325.867072 257.999377 
L 327.494413 258.223792 
L 329.121755 258.448208 
L 330.749096 258.822234 
L 333.190107 258.897039 
L 337.25846 259.19626 
L 339.699472 259.19626 
L 340.513142 259.645091 
L 344.581495 259.719896 
L 347.022506 259.869506 
L 347.836177 259.869506 
L 349.463518 260.093922 
L 351.090859 260.168727 
L 354.345541 260.243532 
L 356.786553 260.393143 
L 358.413894 260.393143 
L 359.227565 260.542753 
L 362.482247 260.617558 
L 364.109588 260.692364 
L 367.36427 260.767169 
L 368.991611 260.841974 
L 373.059964 260.916779 
L 375.500975 261.06639 
L 379.569328 261.06639 
L 380.382999 261.216 
L 394.215398 261.216 
L 394.215398 261.216 
" style="fill:none;stroke:#000080;stroke-linecap:round;stroke-width:1.5;"/>
   </g>
   <g id="line2d_18">
    <path clip-path="url(#p777b1a3d6c)" d="M 69.560852 259.645091 
L 70.374523 253.511065 
L 71.188193 245.282494 
L 72.001864 235.333403 
L 73.629205 219.100675 
L 75.256546 205.710545 
L 76.070217 198.828468 
L 76.883887 192.993662 
L 78.511228 179.005091 
L 80.95224 162.622753 
L 81.76591 159.40613 
L 83.393251 148.110545 
L 84.206922 144.220675 
L 86.647934 129.783273 
L 87.461604 127.539117 
L 89.902616 114.223792 
L 90.716286 107.640935 
L 91.529957 102.853403 
L 93.157298 96.345351 
L 93.970968 93.951584 
L 94.784639 89.986909 
L 95.59831 88.191584 
L 96.41198 86.919896 
L 97.225651 85.124571 
L 98.039321 83.030026 
L 98.852992 81.683532 
L 100.480333 73.529766 
L 102.107674 67.39574 
L 103.735015 62.009766 
L 104.548685 60.289247 
L 105.362356 57.446649 
L 106.176027 55.950545 
L 106.989697 54.155221 
L 107.803368 54.304831 
L 108.617038 55.052883 
L 109.430709 52.958338 
L 110.244379 53.332364 
L 111.05805 53.481974 
L 111.87172 51.83626 
L 112.685391 50.489766 
L 113.499061 49.741714 
L 114.312732 48.470026 
L 115.126403 45.477818 
L 115.940073 44.654961 
L 116.753744 42.635221 
L 117.567414 41.363532 
L 118.381085 40.690286 
L 119.194755 37.922494 
L 120.008426 36.501195 
L 120.822096 35.902753 
L 121.635767 37.249247 
L 122.449437 35.827948 
L 124.076778 31.713662 
L 124.890449 31.863273 
L 125.70412 31.713662 
L 126.51779 31.938078 
L 127.331461 31.115221 
L 128.145131 29.693922 
L 128.958802 30.142753 
L 129.772472 28.79626 
L 130.586143 28.272623 
L 131.399813 27.973403 
L 132.213484 25.878857 
L 133.027154 25.654442 
L 133.840825 26.028468 
L 134.654495 24.831584 
L 136.281837 27.374961 
L 137.095507 28.272623 
L 137.909178 28.721455 
L 138.722848 28.94587 
L 139.536519 30.292364 
L 140.350189 29.020675 
L 141.97753 30.142753 
L 143.604871 28.197818 
L 144.418542 30.816 
L 145.232212 29.918338 
L 146.045883 31.339636 
L 146.859554 32.386909 
L 147.673224 33.060156 
L 148.486895 34.481455 
L 149.300565 38.221714 
L 150.927906 41.662753 
L 151.741577 42.111584 
L 152.555247 42.784831 
L 154.182588 45.777039 
L 154.996259 47.871584 
L 155.80993 48.544831 
L 156.6236 49.592104 
L 157.437271 50.040935 
L 158.250941 51.088208 
L 159.064612 52.434701 
L 159.878282 53.182753 
L 160.691953 53.107948 
L 161.505623 54.828468 
L 162.319294 55.501714 
L 163.132964 58.493922 
L 163.946635 59.616 
L 164.760305 62.009766 
L 165.573976 63.057039 
L 166.387647 64.777558 
L 167.201317 67.320935 
L 168.014988 67.320935 
L 168.828658 67.470545 
L 169.642329 69.789506 
L 170.455999 71.136 
L 171.26967 75.175481 
L 172.08334 75.998338 
L 172.897011 78.691325 
L 173.710681 80.411844 
L 174.524352 81.309506 
L 175.338022 81.833143 
L 176.151693 84.152104 
L 176.965364 86.097039 
L 177.779034 88.490805 
L 178.592705 88.939636 
L 179.406375 90.660156 
L 180.220046 94.176 
L 181.847387 99.412364 
L 183.474728 102.778597 
L 184.288398 105.022753 
L 185.915739 107.117299 
L 186.72941 108.463792 
L 187.543081 109.062234 
L 189.984092 118.263273 
L 192.425104 124.696519 
L 193.238774 127.987948 
L 194.052445 129.633662 
L 195.679786 133.897558 
L 196.493457 135.318857 
L 197.307127 137.039377 
L 198.120798 139.507948 
L 198.934468 141.527688 
L 199.748139 142.948987 
L 200.561809 145.417558 
L 201.37548 148.334961 
L 203.002821 153.047688 
L 204.630162 156.937558 
L 205.443832 158.284052 
L 207.071174 162.398338 
L 207.884844 164.866909 
L 208.698515 165.31574 
L 209.512185 167.111065 
L 211.139526 172.272623 
L 211.953197 173.993143 
L 212.766867 176.162494 
L 213.580538 177.434182 
L 214.394208 179.229506 
L 215.207879 180.576 
L 218.462561 187.158857 
L 219.276232 189.477818 
L 220.089902 191.048727 
L 220.903573 192.993662 
L 221.717243 193.741714 
L 223.344584 197.107948 
L 224.158255 198.230026 
L 226.599266 203.316779 
L 230.667619 209.376 
L 231.48129 211.171325 
L 233.922301 214.313143 
L 234.735972 214.836779 
L 235.549642 216.033662 
L 236.363313 217.00613 
L 237.990654 219.399896 
L 238.804325 220.222753 
L 239.617995 221.793662 
L 240.431666 222.092883 
L 241.245336 223.364571 
L 242.059007 224.262234 
L 242.872677 225.758338 
L 244.500018 227.478857 
L 245.313689 228.67574 
L 246.94103 230.171844 
L 247.754701 231.144312 
L 249.382042 232.56561 
L 250.195712 233.089247 
L 251.009383 233.912104 
L 253.450394 235.707429 
L 254.264065 236.754701 
L 256.705076 238.998857 
L 257.518747 239.447688 
L 258.332418 240.494961 
L 259.146088 241.018597 
L 259.959759 241.317818 
L 260.773429 242.290286 
L 261.5871 242.365091 
L 267.282793 245.95574 
L 271.351146 247.526649 
L 273.792158 248.873143 
L 275.419499 248.947948 
L 276.233169 249.022753 
L 277.04684 249.396779 
L 277.860511 249.54639 
L 278.674181 249.471584 
L 280.301522 250.444052 
L 281.928863 250.593662 
L 282.742534 250.892883 
L 283.556204 250.892883 
L 284.369875 251.192104 
L 285.183545 251.266909 
L 286.810886 251.865351 
L 287.624557 252.014961 
L 288.438228 252.314182 
L 290.065569 252.538597 
L 290.879239 252.987429 
L 292.50658 253.211844 
L 294.133921 253.361455 
L 294.947592 253.735481 
L 295.761262 253.810286 
L 296.574933 254.109506 
L 297.388603 254.184312 
L 301.456956 255.231584 
L 302.270627 255.231584 
L 304.711638 256.054442 
L 318.544038 257.400935 
L 320.985049 257.849766 
L 323.426061 257.924571 
L 335.631119 259.121455 
L 336.444789 259.271065 
L 338.07213 259.34587 
L 340.513142 259.719896 
L 342.140483 259.794701 
L 347.836177 259.869506 
L 349.463518 259.944312 
L 355.972882 260.019117 
L 357.600223 260.093922 
L 362.482247 260.168727 
L 365.736929 260.393143 
L 371.432623 260.467948 
L 373.059964 260.542753 
L 382.01034 260.617558 
L 383.637681 260.692364 
L 386.892363 260.767169 
L 389.333374 260.916779 
L 394.215398 260.991584 
L 394.215398 260.991584 
" style="fill:none;stroke:#0000f1;stroke-linecap:round;stroke-width:1.5;"/>
   </g>
   <g id="line2d_19">
    <path clip-path="url(#p777b1a3d6c)" d="M 69.560852 260.467948 
L 70.374523 256.353662 
L 72.815534 230.620675 
L 73.629205 223.813403 
L 74.442876 215.584831 
L 77.697558 187.757299 
L 78.511228 182.146909 
L 80.138569 168.756779 
L 80.95224 163.14639 
L 81.76591 159.106909 
L 82.579581 152.748468 
L 84.206922 142.200935 
L 85.834263 134.570805 
L 86.647934 129.184831 
L 88.275275 120.133403 
L 89.088945 117.06639 
L 89.902616 112.054442 
L 90.716286 109.361455 
L 91.529957 107.416519 
L 92.343627 104.947948 
L 94.784639 94.400416 
L 95.59831 92.754701 
L 96.41198 89.837299 
L 97.225651 88.191584 
L 98.039321 85.199377 
L 98.852992 81.608727 
L 102.107674 71.958857 
L 102.921344 70.98639 
L 103.735015 69.11626 
L 104.548685 66.124052 
L 105.362356 64.852364 
L 106.176027 62.009766 
L 106.989697 60.364052 
L 107.803368 59.092364 
L 110.244379 53.033143 
L 111.05805 51.537039 
L 111.87172 51.611844 
L 113.499061 51.387429 
L 114.312732 48.544831 
L 115.126403 47.572364 
L 115.940073 46.300675 
L 116.753744 44.430545 
L 117.567414 42.934442 
L 118.381085 42.18639 
L 119.194755 39.119377 
L 120.008426 38.296519 
L 120.822096 36.052364 
L 121.635767 35.603532 
L 122.449437 35.603532 
L 123.263108 34.930286 
L 124.076778 35.753143 
L 124.890449 35.678338 
L 125.70412 35.902753 
L 126.51779 36.72561 
L 128.145131 36.351584 
L 128.958802 35.528727 
L 129.772472 34.257039 
L 130.586143 34.182234 
L 132.213484 32.237299 
L 133.027154 32.611325 
L 133.840825 31.040416 
L 134.654495 31.115221 
L 136.281837 30.292364 
L 137.095507 30.890805 
L 137.909178 30.96561 
L 138.722848 31.414442 
L 139.536519 30.890805 
L 140.350189 32.68613 
L 141.16386 31.264831 
L 141.97753 29.170286 
L 142.791201 27.823792 
L 143.604871 28.347429 
L 144.418542 27.973403 
L 145.232212 26.178078 
L 146.045883 26.552104 
L 146.859554 27.150545 
L 147.673224 27.599377 
L 148.486895 29.619117 
L 150.114236 30.741195 
L 150.927906 32.68613 
L 151.741577 33.583792 
L 152.555247 35.453922 
L 153.368918 36.72561 
L 154.182588 36.72561 
L 155.80993 38.969766 
L 156.6236 40.690286 
L 157.437271 40.914701 
L 158.250941 39.643013 
L 159.064612 41.139117 
L 159.878282 42.111584 
L 161.505623 44.804571 
L 162.319294 47.198338 
L 163.132964 47.198338 
L 163.946635 49.442494 
L 164.760305 50.938597 
L 165.573976 53.332364 
L 168.014988 57.222234 
L 168.828658 59.46639 
L 170.455999 59.990026 
L 171.26967 63.131844 
L 172.08334 65.151584 
L 172.897011 65.824831 
L 174.524352 68.443013 
L 175.338022 70.462753 
L 177.779034 77.718857 
L 178.592705 80.187429 
L 179.406375 82.057558 
L 180.220046 85.124571 
L 181.033716 86.919896 
L 181.847387 88.26639 
L 182.661057 91.183792 
L 183.474728 92.904312 
L 184.288398 94.998857 
L 185.102069 98.140675 
L 185.915739 99.038338 
L 186.72941 101.880935 
L 187.543081 104.050286 
L 188.356751 105.770805 
L 189.170422 107.790545 
L 189.984092 110.483532 
L 190.797763 110.333922 
L 191.611433 112.204052 
L 194.052445 119.534961 
L 194.866115 122.82639 
L 195.679786 125.145351 
L 197.307127 131.129766 
L 198.120798 133.598338 
L 199.748139 136.889766 
L 200.561809 138.011844 
L 202.18915 141.303273 
L 203.002821 143.846649 
L 204.630162 146.764052 
L 205.443832 148.783792 
L 206.257503 150.130286 
L 207.071174 152.299636 
L 207.884844 153.496519 
L 208.698515 156.039896 
L 209.512185 157.38639 
L 210.325856 159.480935 
L 211.139526 160.303792 
L 211.953197 162.996779 
L 215.207879 170.327688 
L 216.021549 172.721455 
L 216.83522 173.245091 
L 217.648891 174.741195 
L 218.462561 176.83574 
L 219.276232 178.032623 
L 220.089902 180.72561 
L 221.717243 184.091844 
L 222.530914 185.363532 
L 223.344584 187.458078 
L 226.599266 194.040935 
L 229.040278 199.800935 
L 230.667619 202.568727 
L 231.48129 204.513662 
L 232.29496 205.186909 
L 233.108631 206.009766 
L 233.922301 207.655481 
L 234.735972 208.253922 
L 235.549642 209.899636 
L 237.176984 212.443013 
L 237.990654 212.891844 
L 238.804325 214.163532 
L 239.617995 214.761974 
L 240.431666 215.884052 
L 241.245336 216.706909 
L 242.059007 217.754182 
L 243.686348 220.447169 
L 244.500018 220.970805 
L 245.313689 222.018078 
L 246.127359 222.466909 
L 246.94103 223.588987 
L 247.754701 224.486649 
L 248.568371 225.085091 
L 249.382042 225.833143 
L 250.195712 226.955221 
L 251.823053 228.67574 
L 252.636724 229.872623 
L 253.450394 230.620675 
L 254.264065 231.667948 
L 255.077735 232.416 
L 255.891406 233.538078 
L 257.518747 235.483013 
L 258.332418 236.530286 
L 259.959759 237.801974 
L 261.5871 238.624831 
L 263.214441 240.120935 
L 264.841782 240.868987 
L 265.655452 241.766649 
L 266.469123 242.290286 
L 267.282793 242.963532 
L 268.096464 244.08561 
L 268.910135 244.684052 
L 269.723805 245.058078 
L 270.537476 245.207688 
L 271.351146 245.506909 
L 272.164817 246.180156 
L 273.792158 246.703792 
L 274.605828 247.377039 
L 276.233169 247.975481 
L 277.04684 248.499117 
L 277.860511 248.648727 
L 278.674181 249.172364 
L 281.115193 250.294442 
L 282.742534 250.668468 
L 284.369875 251.266909 
L 285.183545 251.416519 
L 286.810886 252.014961 
L 287.624557 252.463792 
L 289.251898 252.987429 
L 290.065569 253.361455 
L 291.69291 253.735481 
L 292.50658 253.885091 
L 294.133921 254.707948 
L 294.947592 254.782753 
L 296.574933 255.381195 
L 301.456956 255.904831 
L 303.084297 256.428468 
L 303.897968 256.578078 
L 305.525309 256.652883 
L 306.338979 256.877299 
L 309.593662 257.176519 
L 310.407332 257.400935 
L 312.034673 257.625351 
L 313.662014 257.924571 
L 315.289355 257.924571 
L 316.103026 258.223792 
L 317.730367 258.298597 
L 319.357708 258.523013 
L 324.239731 258.597818 
L 326.680743 258.747429 
L 331.562766 258.822234 
L 333.190107 259.046649 
L 338.07213 259.420675 
L 343.767824 259.495481 
L 347.022506 259.719896 
L 348.649847 259.719896 
L 350.277189 260.019117 
L 352.7182 260.019117 
L 353.531871 260.168727 
L 359.227565 260.243532 
L 361.668576 260.393143 
L 368.991611 260.467948 
L 369.805282 260.617558 
L 374.687305 260.692364 
L 376.314646 260.767169 
L 387.706033 260.841974 
L 390.147045 260.991584 
L 394.215398 261.06639 
L 394.215398 261.06639 
" style="fill:none;stroke:#004cff;stroke-linecap:round;stroke-width:1.5;"/>
   </g>
   <g id="line2d_20">
    <path clip-path="url(#p777b1a3d6c)" d="M 69.560852 260.692364 
L 70.374523 254.932364 
L 71.188193 247.377039 
L 72.001864 238.101195 
L 74.442876 214.761974 
L 77.697558 189.403013 
L 79.324899 177.134961 
L 80.95224 164.418078 
L 83.393251 150.429506 
L 84.206922 145.118338 
L 85.020593 141.228468 
L 87.461604 125.668987 
L 88.275275 122.227948 
L 89.088945 118.113662 
L 89.902616 115.869506 
L 90.716286 112.802494 
L 91.529957 110.857558 
L 92.343627 105.84561 
L 93.157298 101.731325 
L 94.784639 95.073662 
L 95.59831 90.959377 
L 96.41198 89.388468 
L 97.225651 85.498597 
L 98.039321 83.778078 
L 98.852992 80.78587 
L 100.480333 76.596779 
L 101.294003 73.230545 
L 102.107674 71.584831 
L 102.921344 68.667429 
L 103.735015 66.946909 
L 104.548685 64.702753 
L 105.362356 62.982234 
L 106.176027 60.588468 
L 106.989697 58.793143 
L 107.803368 57.671065 
L 108.617038 55.052883 
L 109.430709 53.631584 
L 110.244379 50.938597 
L 111.05805 49.891325 
L 112.685391 48.24561 
L 115.940073 42.859636 
L 118.381085 36.875221 
L 119.194755 35.753143 
L 120.008426 33.434182 
L 121.635767 33.209766 
L 122.449437 32.312104 
L 123.263108 32.087688 
L 124.076778 33.658597 
L 124.890449 31.863273 
L 125.70412 30.816 
L 127.331461 30.441974 
L 128.145131 31.489247 
L 128.958802 31.564052 
L 129.772472 30.516779 
L 130.586143 29.693922 
L 131.399813 27.748987 
L 132.213484 28.272623 
L 133.027154 27.449766 
L 133.840825 28.871065 
L 134.654495 28.94587 
L 135.468166 30.217558 
L 136.281837 29.693922 
L 137.095507 29.693922 
L 137.909178 30.142753 
L 138.722848 30.067948 
L 139.536519 29.394701 
L 140.350189 28.422234 
L 141.16386 28.272623 
L 142.791201 30.367169 
L 143.604871 30.890805 
L 144.418542 30.142753 
L 146.045883 32.012883 
L 146.859554 32.012883 
L 147.673224 32.461714 
L 148.486895 33.658597 
L 149.300565 33.658597 
L 150.114236 34.481455 
L 150.927906 36.201974 
L 151.741577 36.650805 
L 152.555247 37.249247 
L 153.368918 37.099636 
L 154.182588 38.820156 
L 154.996259 39.643013 
L 155.80993 39.418597 
L 156.6236 41.288727 
L 157.437271 42.560416 
L 158.250941 44.505351 
L 159.064612 46.824312 
L 160.691953 48.993662 
L 163.132964 54.080416 
L 163.946635 55.202494 
L 164.760305 57.74587 
L 165.573976 57.895481 
L 166.387647 59.316779 
L 167.201317 59.092364 
L 168.014988 59.990026 
L 168.828658 61.710545 
L 169.642329 64.104312 
L 170.455999 65.899636 
L 171.26967 66.572883 
L 172.08334 66.946909 
L 172.897011 68.143792 
L 173.710681 70.836779 
L 174.524352 74.726649 
L 175.338022 76.671584 
L 176.151693 80.262234 
L 176.965364 82.730805 
L 178.592705 88.341195 
L 179.406375 90.136519 
L 181.033716 97.168208 
L 181.847387 99.038338 
L 182.661057 102.479377 
L 183.474728 104.499117 
L 184.288398 106.967688 
L 185.102069 110.109506 
L 185.915739 111.30639 
L 187.543081 114.747429 
L 188.356751 116.991584 
L 189.170422 120.133403 
L 191.611433 125.818597 
L 194.052445 132.177039 
L 194.866115 133.074701 
L 195.679786 135.094442 
L 196.493457 136.141714 
L 197.307127 137.637818 
L 198.120798 140.555221 
L 199.748139 144.594701 
L 200.561809 146.539636 
L 201.37548 149.681455 
L 203.002821 152.598857 
L 207.071174 163.296 
L 207.884844 164.492883 
L 211.139526 172.94587 
L 211.953197 175.713662 
L 213.580538 179.977558 
L 216.83522 186.635221 
L 217.648891 187.832104 
L 219.276232 191.796779 
L 220.089902 192.470026 
L 222.530914 196.958338 
L 223.344584 198.304831 
L 225.785596 203.391584 
L 226.599266 204.588468 
L 227.412937 205.411325 
L 228.226608 207.281455 
L 233.922301 215.659636 
L 234.735972 216.632104 
L 235.549642 217.380156 
L 238.804325 223.514182 
L 239.617995 224.262234 
L 240.431666 224.561455 
L 241.245336 225.982753 
L 242.059007 227.030026 
L 242.872677 227.703273 
L 243.686348 228.825351 
L 244.500018 229.423792 
L 245.313689 230.171844 
L 246.127359 231.368727 
L 246.94103 232.041974 
L 247.754701 233.089247 
L 249.382042 233.762494 
L 251.009383 235.034182 
L 253.450394 237.353143 
L 254.264065 237.727169 
L 255.077735 238.624831 
L 255.891406 238.924052 
L 256.705076 239.522494 
L 257.518747 239.672104 
L 259.146088 241.168208 
L 260.773429 242.140675 
L 264.028111 243.113143 
L 264.841782 243.636779 
L 266.469123 244.310026 
L 267.282793 244.983273 
L 268.096464 245.282494 
L 268.910135 245.95574 
L 269.723805 246.329766 
L 270.537476 246.554182 
L 271.351146 247.377039 
L 272.164817 247.451844 
L 272.978487 248.274701 
L 274.605828 248.573922 
L 277.04684 250.070026 
L 277.860511 250.518857 
L 278.674181 250.818078 
L 279.487852 251.266909 
L 280.301522 251.416519 
L 281.928863 252.089766 
L 285.183545 253.511065 
L 288.438228 254.333922 
L 290.879239 254.633143 
L 291.69291 254.857558 
L 292.50658 254.857558 
L 293.320251 255.231584 
L 295.761262 255.60561 
L 297.388603 255.680416 
L 298.202274 255.904831 
L 299.015945 255.979636 
L 299.829615 256.278857 
L 300.643286 256.278857 
L 303.084297 256.652883 
L 303.897968 256.727688 
L 304.711638 256.952104 
L 307.96632 257.026909 
L 314.475685 257.700156 
L 316.103026 257.999377 
L 317.730367 258.074182 
L 321.79872 258.373403 
L 322.61239 258.373403 
L 324.239731 258.597818 
L 326.680743 258.672623 
L 329.935425 258.897039 
L 332.376437 258.971844 
L 334.817448 259.34587 
L 336.444789 259.420675 
L 339.699472 259.495481 
L 342.954154 259.719896 
L 344.581495 259.794701 
L 346.208836 259.869506 
L 347.836177 259.869506 
L 348.649847 260.093922 
L 351.090859 260.243532 
L 352.7182 260.318338 
L 355.159212 260.467948 
L 362.482247 260.542753 
L 364.109588 260.617558 
L 369.805282 260.692364 
L 371.432623 260.767169 
L 379.569328 260.841974 
L 381.196669 260.916779 
L 390.147045 260.991584 
L 391.774386 261.06639 
L 394.215398 261.06639 
L 394.215398 261.06639 
" style="fill:none;stroke:#00b0ff;stroke-linecap:round;stroke-width:1.5;"/>
   </g>
   <g id="line2d_21">
    <path clip-path="url(#p777b1a3d6c)" d="M 69.560852 260.093922 
L 70.374523 255.156779 
L 72.815534 231.817558 
L 73.629205 222.840935 
L 76.070217 201.59626 
L 78.511228 185.139117 
L 79.324899 180.351584 
L 80.138569 174.591584 
L 80.95224 170.327688 
L 82.579581 158.059636 
L 84.206922 148.185351 
L 85.834263 137.114182 
L 86.647934 133.972364 
L 88.275275 126.491844 
L 89.088945 123.350026 
L 89.902616 117.964052 
L 92.343627 107.416519 
L 93.157298 104.873143 
L 93.970968 100.908468 
L 94.784639 98.439896 
L 97.225651 90.061714 
L 98.039321 87.667948 
L 98.852992 82.207169 
L 100.480333 77.270026 
L 101.294003 74.277818 
L 102.107674 73.529766 
L 102.921344 71.734442 
L 103.735015 69.639896 
L 106.176027 65.824831 
L 106.989697 64.253922 
L 108.617038 62.084571 
L 109.430709 58.942753 
L 110.244379 58.045091 
L 111.05805 54.604052 
L 111.87172 54.529247 
L 112.685391 52.808727 
L 113.499061 51.686649 
L 114.312732 51.088208 
L 115.126403 48.918857 
L 115.940073 48.021195 
L 116.753744 45.777039 
L 117.567414 47.198338 
L 119.194755 43.158857 
L 120.008426 42.410805 
L 120.822096 41.961974 
L 121.635767 41.139117 
L 122.449437 41.662753 
L 123.263108 40.391065 
L 124.076778 39.493403 
L 124.890449 40.166649 
L 125.70412 38.59574 
L 126.51779 37.324052 
L 127.331461 37.922494 
L 128.145131 36.650805 
L 128.958802 36.201974 
L 129.772472 37.548468 
L 130.586143 37.772883 
L 131.399813 35.229506 
L 132.213484 35.079896 
L 133.027154 33.957818 
L 133.840825 32.012883 
L 134.654495 32.237299 
L 135.468166 33.060156 
L 136.281837 32.985351 
L 137.095507 31.788468 
L 137.909178 31.863273 
L 138.722848 31.564052 
L 139.536519 30.890805 
L 140.350189 30.367169 
L 141.16386 29.619117 
L 141.97753 27.973403 
L 142.791201 27.973403 
L 143.604871 29.319896 
L 144.418542 29.843532 
L 145.232212 31.863273 
L 146.045883 33.060156 
L 146.859554 33.508987 
L 147.673224 32.386909 
L 148.486895 33.733403 
L 149.300565 34.331844 
L 150.114236 34.481455 
L 150.927906 37.698078 
L 151.741577 37.024831 
L 152.555247 38.371325 
L 153.368918 40.017039 
L 154.182588 42.261195 
L 154.996259 43.158857 
L 155.80993 44.35574 
L 156.6236 46.300675 
L 157.437271 47.721974 
L 158.250941 50.190545 
L 159.064612 50.938597 
L 159.878282 52.135481 
L 160.691953 53.107948 
L 161.505623 53.70639 
L 162.319294 54.00561 
L 163.132964 56.698597 
L 163.946635 57.446649 
L 164.760305 58.493922 
L 165.573976 59.316779 
L 166.387647 60.738078 
L 167.201317 63.50587 
L 168.014988 64.253922 
L 169.642329 67.470545 
L 170.455999 68.817039 
L 171.26967 73.15574 
L 172.08334 74.801455 
L 172.897011 76.147948 
L 173.710681 78.91574 
L 174.524352 80.486649 
L 175.338022 80.486649 
L 176.151693 82.730805 
L 176.965364 84.600935 
L 177.779034 87.742753 
L 178.592705 89.687688 
L 179.406375 93.203532 
L 180.220046 93.876779 
L 181.033716 97.766649 
L 181.847387 100.08561 
L 182.661057 100.310026 
L 183.474728 101.80613 
L 185.102069 108.688208 
L 185.915739 111.231584 
L 186.72941 114.298597 
L 187.543081 115.869506 
L 188.356751 116.991584 
L 189.170422 118.936519 
L 192.425104 128.287169 
L 193.238774 129.409247 
L 194.052445 131.129766 
L 194.866115 132.102234 
L 195.679786 134.271584 
L 196.493457 135.692883 
L 197.307127 137.862234 
L 198.934468 140.555221 
L 199.748139 143.397818 
L 200.561809 145.342753 
L 201.37548 148.933403 
L 202.18915 150.653922 
L 203.002821 153.047688 
L 204.630162 157.012364 
L 205.443832 159.55574 
L 206.257503 160.902234 
L 207.071174 161.650286 
L 207.884844 162.697558 
L 208.698515 164.268468 
L 209.512185 166.437818 
L 211.139526 170.028468 
L 211.953197 172.422234 
L 212.766867 173.843532 
L 213.580538 175.788468 
L 214.394208 178.930286 
L 215.207879 180.576 
L 216.021549 182.820156 
L 216.83522 183.792623 
L 219.276232 189.103792 
L 220.089902 190.151065 
L 221.717243 194.714182 
L 222.530914 195.911065 
L 223.344584 198.230026 
L 224.158255 199.72613 
L 224.971925 200.399377 
L 225.785596 200.923013 
L 226.599266 202.793143 
L 227.412937 204.214442 
L 228.226608 205.336519 
L 229.040278 206.234182 
L 229.853949 207.35626 
L 233.922301 215.061195 
L 234.735972 216.856519 
L 235.549642 218.053403 
L 236.363313 218.951065 
L 237.176984 220.222753 
L 238.804325 221.868468 
L 239.617995 222.691325 
L 240.431666 223.813403 
L 241.245336 224.486649 
L 242.872677 227.104831 
L 246.127359 229.872623 
L 246.94103 230.994701 
L 247.754701 231.443532 
L 248.568371 232.191584 
L 249.382042 232.640416 
L 250.195712 233.912104 
L 251.009383 234.28613 
L 251.823053 234.510545 
L 254.264065 236.30587 
L 255.077735 236.530286 
L 255.891406 237.203532 
L 257.518747 239.073662 
L 258.332418 239.672104 
L 259.146088 240.868987 
L 260.773429 241.766649 
L 261.5871 241.841455 
L 264.841782 243.636779 
L 265.655452 243.861195 
L 266.469123 244.684052 
L 267.282793 244.908468 
L 268.096464 245.432104 
L 268.910135 245.432104 
L 270.537476 246.479377 
L 271.351146 246.628987 
L 272.164817 247.152623 
L 274.605828 247.302234 
L 275.419499 247.601455 
L 276.233169 248.050286 
L 277.04684 248.199896 
L 278.674181 248.723532 
L 279.487852 248.798338 
L 280.301522 249.172364 
L 281.115193 249.920416 
L 282.742534 250.668468 
L 283.556204 250.668468 
L 284.369875 250.818078 
L 285.183545 251.266909 
L 287.624557 251.940156 
L 290.879239 252.014961 
L 291.69291 252.388987 
L 293.320251 252.837818 
L 294.133921 253.211844 
L 295.761262 253.286649 
L 296.574933 253.511065 
L 299.015945 253.810286 
L 299.829615 253.959896 
L 300.643286 254.483532 
L 301.456956 254.857558 
L 303.084297 255.081974 
L 303.897968 255.456 
L 304.711638 255.60561 
L 307.15265 255.680416 
L 309.593662 255.979636 
L 310.407332 256.204052 
L 312.848344 256.503273 
L 315.289355 257.101714 
L 316.916696 257.251325 
L 318.544038 257.625351 
L 320.985049 257.999377 
L 326.680743 258.448208 
L 328.308084 258.523013 
L 334.817448 259.046649 
L 336.444789 259.121455 
L 341.326813 259.495481 
L 347.022506 259.570286 
L 353.531871 260.093922 
L 362.482247 260.168727 
L 364.923258 260.318338 
L 365.736929 260.318338 
L 366.550599 260.467948 
L 371.432623 260.542753 
L 374.687305 260.767169 
L 379.569328 260.841974 
L 381.196669 260.916779 
L 394.215398 260.991584 
L 394.215398 260.991584 
" style="fill:none;stroke:#29ffce;stroke-linecap:round;stroke-width:1.5;"/>
   </g>
   <g id="line2d_22">
    <path clip-path="url(#p777b1a3d6c)" d="M 69.560852 259.944312 
L 70.374523 255.456 
L 72.001864 236.904312 
L 74.442876 214.537558 
L 76.070217 201.521455 
L 76.883887 196.509506 
L 77.697558 189.926649 
L 79.324899 179.977558 
L 80.138569 173.245091 
L 80.95224 168.083532 
L 81.76591 161.725091 
L 85.834263 137.563013 
L 87.461604 130.232104 
L 88.275275 125.743792 
L 89.088945 123.050805 
L 90.716286 114.373403 
L 91.529957 111.231584 
L 92.343627 108.538597 
L 93.157298 106.668468 
L 93.970968 103.077818 
L 95.59831 98.290286 
L 98.852992 83.553662 
L 99.666662 79.738597 
L 100.480333 76.671584 
L 101.294003 75.02587 
L 102.107674 71.884052 
L 102.921344 69.939117 
L 103.735015 67.24613 
L 104.548685 65.824831 
L 105.362356 62.683013 
L 106.176027 60.438857 
L 106.989697 59.391584 
L 108.617038 56.848208 
L 109.430709 54.080416 
L 110.244379 51.83626 
L 111.05805 50.564571 
L 112.685391 47.123532 
L 113.499061 47.048727 
L 114.312732 44.430545 
L 115.126403 43.009247 
L 115.940073 41.139117 
L 116.753744 41.139117 
L 117.567414 38.894961 
L 118.381085 39.418597 
L 119.194755 37.174442 
L 120.008426 36.501195 
L 120.822096 31.713662 
L 121.635767 31.938078 
L 122.449437 30.591584 
L 123.263108 30.217558 
L 124.076778 30.96561 
L 124.890449 30.217558 
L 125.70412 27.674182 
L 126.51779 27.748987 
L 127.331461 25.579636 
L 128.145131 27.225351 
L 128.958802 27.150545 
L 131.399813 25.430026 
L 132.213484 25.878857 
L 133.027154 24.681974 
L 133.840825 24.158338 
L 134.654495 23.859117 
L 135.468166 23.18587 
L 136.281837 23.111065 
L 137.095507 24.382753 
L 139.536519 21.988987 
L 140.350189 23.859117 
L 141.16386 23.485091 
L 141.97753 23.784312 
L 142.791201 25.20561 
L 144.418542 23.260675 
L 145.232212 23.410286 
L 146.045883 25.280416 
L 146.859554 25.20561 
L 147.673224 26.92613 
L 148.486895 29.245091 
L 149.300565 28.197818 
L 150.114236 29.245091 
L 150.927906 30.96561 
L 151.741577 33.808208 
L 152.555247 34.70587 
L 154.182588 38.371325 
L 154.996259 38.59574 
L 156.6236 41.812364 
L 158.250941 43.906909 
L 159.064612 46.450286 
L 159.878282 47.497558 
L 160.691953 49.816519 
L 161.505623 51.312623 
L 162.319294 51.237818 
L 163.132964 52.210286 
L 163.946635 53.930805 
L 165.573976 56.324571 
L 166.387647 58.493922 
L 168.014988 58.419117 
L 168.828658 61.710545 
L 170.455999 64.852364 
L 172.08334 69.639896 
L 172.897011 70.537558 
L 173.710681 73.529766 
L 175.338022 76.896 
L 176.151693 77.868468 
L 177.779034 82.132364 
L 178.592705 82.581195 
L 179.406375 84.451325 
L 180.220046 85.947429 
L 181.033716 87.742753 
L 181.847387 87.518338 
L 182.661057 88.56561 
L 183.474728 91.931844 
L 184.288398 93.727169 
L 185.102069 96.569766 
L 185.915739 98.439896 
L 190.797763 114.223792 
L 191.611433 117.739636 
L 192.425104 119.011325 
L 194.866115 126.417039 
L 195.679786 127.688727 
L 196.493457 129.184831 
L 197.307127 131.503792 
L 198.120798 134.496 
L 198.934468 136.814961 
L 199.748139 138.535481 
L 200.561809 141.976519 
L 201.37548 143.023792 
L 203.002821 145.641974 
L 203.816491 147.287688 
L 204.630162 151.027948 
L 205.443832 154.020156 
L 206.257503 155.815481 
L 207.071174 156.937558 
L 209.512185 162.921974 
L 211.953197 170.178078 
L 212.766867 172.871065 
L 213.580538 174.591584 
L 216.021549 181.174442 
L 216.83522 182.894961 
L 217.648891 184.31626 
L 218.462561 186.036779 
L 219.276232 186.859636 
L 221.717243 190.300675 
L 222.530914 191.796779 
L 223.344584 193.666909 
L 224.971925 196.359896 
L 225.785596 198.080416 
L 226.599266 198.753662 
L 227.412937 199.576519 
L 228.226608 201.297039 
L 229.040278 202.493922 
L 229.853949 203.46639 
L 230.667619 204.962494 
L 231.48129 206.757818 
L 233.922301 210.946909 
L 234.735972 211.769766 
L 235.549642 212.966649 
L 236.363313 214.612364 
L 237.176984 216.557299 
L 237.990654 217.454961 
L 239.617995 219.998338 
L 240.431666 220.596779 
L 241.245336 221.943273 
L 242.059007 222.541714 
L 243.686348 224.262234 
L 244.500018 224.78587 
L 246.94103 227.927688 
L 247.754701 228.67574 
L 248.568371 229.797818 
L 249.382042 231.219117 
L 251.823053 234.211325 
L 252.636724 234.734961 
L 253.450394 235.483013 
L 254.264065 236.455481 
L 255.077735 236.829506 
L 255.891406 237.502753 
L 256.705076 238.624831 
L 257.518747 238.849247 
L 259.959759 240.943792 
L 260.773429 241.317818 
L 261.5871 241.991065 
L 262.40077 242.365091 
L 263.214441 242.963532 
L 264.841782 243.711584 
L 265.655452 244.459636 
L 266.469123 244.908468 
L 267.282793 245.506909 
L 268.096464 245.581714 
L 268.910135 246.180156 
L 269.723805 246.554182 
L 270.537476 246.628987 
L 271.351146 246.928208 
L 272.164817 247.077818 
L 272.978487 247.451844 
L 273.792158 248.050286 
L 274.605828 248.125091 
L 275.419499 248.499117 
L 276.233169 248.648727 
L 277.860511 249.621195 
L 278.674181 249.995221 
L 280.301522 250.294442 
L 281.115193 250.818078 
L 281.928863 251.117299 
L 282.742534 251.71574 
L 283.556204 251.790545 
L 284.369875 252.239377 
L 285.183545 252.463792 
L 285.997216 253.062234 
L 286.810886 253.361455 
L 287.624557 253.511065 
L 288.438228 253.810286 
L 291.69291 254.333922 
L 292.50658 254.408727 
L 294.947592 255.081974 
L 295.761262 255.456 
L 298.202274 255.755221 
L 299.829615 255.979636 
L 302.270627 256.204052 
L 303.084297 256.503273 
L 306.338979 257.026909 
L 307.96632 257.101714 
L 309.593662 257.47574 
L 310.407332 257.47574 
L 311.221003 257.700156 
L 313.662014 257.774961 
L 316.916696 258.074182 
L 317.730367 258.298597 
L 320.171379 258.373403 
L 320.985049 258.523013 
L 322.61239 258.597818 
L 323.426061 258.897039 
L 325.867072 258.971844 
L 327.494413 259.19626 
L 334.003778 259.719896 
L 337.25846 259.794701 
L 338.885801 259.869506 
L 342.140483 259.944312 
L 343.767824 260.019117 
L 347.836177 260.093922 
L 349.463518 260.318338 
L 351.090859 260.393143 
L 352.7182 260.467948 
L 357.600223 260.542753 
L 360.854906 260.767169 
L 369.805282 260.841974 
L 371.432623 260.916779 
L 391.774386 260.991584 
L 394.215398 261.141195 
L 394.215398 261.141195 
" style="fill:none;stroke:#7dff7a;stroke-linecap:round;stroke-width:1.5;"/>
   </g>
   <g id="line2d_23">
    <path clip-path="url(#p777b1a3d6c)" d="M 69.560852 260.168727 
L 70.374523 255.530805 
L 71.188193 248.050286 
L 74.442876 212.966649 
L 75.256546 205.63574 
L 76.070217 199.72613 
L 77.697558 185.587948 
L 80.95224 161.650286 
L 82.579581 152.524052 
L 86.647934 126.043013 
L 88.275275 120.133403 
L 89.088945 116.542753 
L 89.902616 114.822234 
L 91.529957 105.920416 
L 92.343627 103.152623 
L 93.157298 98.439896 
L 93.970968 96.345351 
L 94.784639 90.809766 
L 95.59831 87.144312 
L 96.41198 85.872623 
L 97.225651 82.132364 
L 98.039321 79.140156 
L 98.852992 77.195221 
L 99.666662 73.754182 
L 100.480333 73.454961 
L 101.294003 69.415481 
L 102.107674 66.498078 
L 102.921344 64.179117 
L 103.735015 62.832623 
L 104.548685 59.541195 
L 105.362356 57.147429 
L 106.176027 53.481974 
L 106.989697 52.285091 
L 107.803368 50.11574 
L 109.430709 44.056519 
L 110.244379 42.111584 
L 111.05805 41.288727 
L 111.87172 40.166649 
L 112.685391 39.418597 
L 113.499061 36.875221 
L 114.312732 35.678338 
L 115.126403 34.855481 
L 115.940073 34.481455 
L 116.753744 32.386909 
L 118.381085 29.095481 
L 119.194755 29.993143 
L 120.008426 28.94587 
L 120.822096 28.721455 
L 121.635767 28.871065 
L 122.449437 28.571844 
L 124.076778 27.225351 
L 126.51779 23.335481 
L 127.331461 22.811844 
L 128.145131 22.737039 
L 128.958802 24.158338 
L 129.772472 24.756779 
L 131.399813 21.839377 
L 132.213484 22.288208 
L 133.027154 22.886649 
L 133.840825 24.457558 
L 135.468166 25.280416 
L 136.281837 23.18587 
L 137.095507 23.03626 
L 138.722848 25.130805 
L 139.536519 24.158338 
L 140.350189 23.933922 
L 141.16386 22.886649 
L 141.97753 23.859117 
L 142.791201 25.20561 
L 143.604871 25.130805 
L 144.418542 25.804052 
L 145.232212 26.327688 
L 146.859554 26.028468 
L 147.673224 27.150545 
L 148.486895 27.07574 
L 149.300565 27.973403 
L 150.114236 28.272623 
L 150.927906 28.94587 
L 151.741577 32.162494 
L 152.555247 34.55626 
L 153.368918 35.827948 
L 154.182588 38.520935 
L 154.996259 40.017039 
L 155.80993 39.942234 
L 156.6236 39.268987 
L 159.064612 42.111584 
L 159.878282 44.729766 
L 160.691953 46.375481 
L 162.319294 51.013403 
L 163.946635 52.434701 
L 164.760305 53.556779 
L 165.573976 55.651325 
L 166.387647 57.297039 
L 167.201317 58.643532 
L 168.014988 60.887688 
L 168.828658 61.710545 
L 169.642329 63.431065 
L 171.26967 68.667429 
L 172.08334 69.864312 
L 172.897011 73.00613 
L 173.710681 75.250286 
L 174.524352 76.74639 
L 176.965364 86.022234 
L 177.779034 86.994701 
L 180.220046 91.707429 
L 181.033716 92.605091 
L 182.661057 95.896519 
L 183.474728 97.243013 
L 184.288398 98.888727 
L 185.102069 99.487169 
L 185.915739 102.105351 
L 186.72941 104.199896 
L 188.356751 109.810286 
L 189.170422 110.857558 
L 190.797763 115.046649 
L 192.425104 121.031065 
L 194.052445 124.99574 
L 194.866115 129.035221 
L 195.679786 130.007688 
L 196.493457 132.700675 
L 197.307127 134.570805 
L 198.934468 139.283532 
L 199.748139 141.303273 
L 201.37548 146.16561 
L 203.002821 148.409766 
L 203.816491 150.953143 
L 205.443832 155.51626 
L 206.257503 158.284052 
L 207.071174 159.630545 
L 207.884844 161.201455 
L 208.698515 163.744831 
L 210.325856 166.363013 
L 211.953197 170.552104 
L 212.766867 171.374961 
L 213.580538 173.544312 
L 214.394208 174.816 
L 215.207879 176.68613 
L 216.021549 177.883013 
L 216.83522 179.453922 
L 217.648891 182.59574 
L 219.276232 184.989506 
L 220.089902 186.635221 
L 220.903573 187.832104 
L 221.717243 189.627429 
L 222.530914 190.824312 
L 223.344584 191.796779 
L 224.158255 193.816519 
L 225.785596 196.060675 
L 226.599266 198.155221 
L 227.412937 199.651325 
L 228.226608 200.623792 
L 229.853949 203.76561 
L 231.48129 206.757818 
L 233.108631 208.777558 
L 233.922301 209.450805 
L 236.363313 213.490286 
L 237.176984 214.387948 
L 241.245336 220.147948 
L 242.059007 220.821195 
L 243.686348 223.588987 
L 244.500018 224.337039 
L 246.127359 226.281974 
L 246.94103 226.656 
L 247.754701 227.927688 
L 250.195712 230.171844 
L 251.009383 230.695481 
L 251.823053 231.817558 
L 252.636724 233.238857 
L 253.450394 233.538078 
L 254.264065 234.510545 
L 255.077735 235.183792 
L 255.891406 235.632623 
L 256.705076 236.530286 
L 257.518747 237.951584 
L 258.332418 238.475221 
L 259.146088 239.298078 
L 259.959759 239.746909 
L 260.773429 239.746909 
L 262.40077 241.168208 
L 263.214441 241.317818 
L 264.028111 242.215481 
L 265.655452 242.215481 
L 267.282793 242.963532 
L 268.096464 243.636779 
L 268.910135 244.160416 
L 269.723805 244.459636 
L 271.351146 245.80613 
L 272.164817 246.404571 
L 272.978487 246.703792 
L 273.792158 247.451844 
L 276.233169 249.097558 
L 277.04684 249.247169 
L 277.860511 249.920416 
L 278.674181 250.369247 
L 280.301522 250.892883 
L 281.115193 250.892883 
L 281.928863 251.117299 
L 284.369875 251.341714 
L 287.624557 252.314182 
L 289.251898 252.912623 
L 294.133921 253.735481 
L 294.947592 254.184312 
L 295.761262 254.333922 
L 296.574933 254.782753 
L 297.388603 255.007169 
L 298.202274 255.381195 
L 303.084297 255.830026 
L 304.711638 256.503273 
L 305.525309 256.503273 
L 307.96632 257.026909 
L 309.593662 257.47574 
L 312.034673 257.774961 
L 313.662014 257.999377 
L 316.103026 258.074182 
L 323.426061 258.822234 
L 324.239731 258.971844 
L 325.867072 259.046649 
L 328.308084 259.34587 
L 329.121755 259.495481 
L 332.376437 259.570286 
L 333.190107 259.719896 
L 337.25846 259.719896 
L 338.07213 259.869506 
L 339.699472 259.944312 
L 340.513142 260.093922 
L 342.140483 260.168727 
L 345.395165 260.393143 
L 356.786553 260.467948 
L 359.227565 260.617558 
L 373.059964 260.692364 
L 374.687305 260.767169 
L 387.706033 260.841974 
L 389.333374 260.916779 
L 394.215398 260.916779 
L 394.215398 260.916779 
" style="fill:none;stroke:#ceff29;stroke-linecap:round;stroke-width:1.5;"/>
   </g>
   <g id="line2d_24">
    <path clip-path="url(#p777b1a3d6c)" d="M 69.560852 260.318338 
L 70.374523 253.885091 
L 74.442876 211.021714 
L 77.697558 182.44613 
L 78.511228 176.68613 
L 79.324899 172.123013 
L 80.138569 164.941714 
L 80.95224 158.957299 
L 82.579581 148.708987 
L 84.206922 136.814961 
L 85.020593 133.972364 
L 85.834263 130.306909 
L 86.647934 124.098078 
L 89.902616 110.408727 
L 90.716286 105.621195 
L 91.529957 102.254961 
L 92.343627 97.617039 
L 93.157298 91.483013 
L 93.970968 88.56561 
L 94.784639 84.974961 
L 95.59831 82.431584 
L 96.41198 78.092883 
L 97.225651 74.577039 
L 98.039321 71.958857 
L 98.852992 70.911584 
L 99.666662 68.218597 
L 100.480333 66.273662 
L 101.294003 65.450805 
L 102.107674 63.580675 
L 102.921344 62.383792 
L 103.735015 61.934961 
L 104.548685 59.541195 
L 105.362356 57.895481 
L 106.989697 53.332364 
L 107.803368 50.265351 
L 108.617038 49.068468 
L 109.430709 47.123532 
L 110.244379 46.07626 
L 111.05805 46.07626 
L 111.87172 44.056519 
L 112.685391 44.056519 
L 113.499061 44.35574 
L 114.312732 43.906909 
L 115.940073 39.343792 
L 116.753744 36.501195 
L 117.567414 35.603532 
L 118.381085 35.079896 
L 119.194755 33.733403 
L 120.008426 32.012883 
L 120.822096 32.087688 
L 121.635767 32.012883 
L 122.449437 30.516779 
L 123.263108 28.422234 
L 124.076778 28.347429 
L 124.890449 28.871065 
L 125.70412 27.823792 
L 126.51779 26.327688 
L 127.331461 26.701714 
L 128.145131 26.626909 
L 128.958802 25.579636 
L 129.772472 25.953662 
L 130.586143 25.280416 
L 131.399813 25.20561 
L 132.213484 25.729247 
L 133.027154 27.823792 
L 133.840825 26.851325 
L 134.654495 26.477299 
L 135.468166 27.300156 
L 137.095507 27.674182 
L 137.909178 28.347429 
L 139.536519 30.292364 
L 140.350189 30.292364 
L 141.16386 30.741195 
L 141.97753 30.217558 
L 142.791201 30.591584 
L 143.604871 30.741195 
L 144.418542 31.489247 
L 145.232212 31.638857 
L 146.045883 32.461714 
L 146.859554 33.733403 
L 147.673224 34.70587 
L 148.486895 37.473662 
L 149.300565 38.221714 
L 150.114236 41.438338 
L 151.741577 42.410805 
L 152.555247 41.662753 
L 154.182588 44.35574 
L 154.996259 46.22587 
L 155.80993 46.749506 
L 156.6236 47.721974 
L 158.250941 51.088208 
L 159.064612 53.107948 
L 159.878282 53.631584 
L 160.691953 54.903273 
L 161.505623 56.474182 
L 162.319294 57.521455 
L 163.132964 58.867948 
L 163.946635 61.336519 
L 164.760305 62.159377 
L 165.573976 63.281455 
L 166.387647 65.076779 
L 167.201317 66.498078 
L 168.014988 67.096519 
L 168.828658 68.293403 
L 169.642329 69.11626 
L 170.455999 71.210805 
L 171.26967 75.250286 
L 172.08334 77.120416 
L 172.897011 77.195221 
L 173.710681 79.813403 
L 174.524352 81.085091 
L 175.338022 81.833143 
L 176.151693 84.376519 
L 176.965364 86.321455 
L 177.779034 87.069506 
L 178.592705 88.715221 
L 181.847387 97.392623 
L 182.661057 98.963532 
L 183.474728 101.581714 
L 184.288398 105.172364 
L 186.72941 111.456 
L 187.543081 113.550545 
L 188.356751 115.046649 
L 189.170422 117.06639 
L 190.797763 123.649247 
L 191.611433 125.145351 
L 192.425104 127.015481 
L 193.238774 129.334442 
L 194.052445 132.027429 
L 194.866115 134.047169 
L 195.679786 135.318857 
L 196.493457 137.114182 
L 197.307127 139.807169 
L 198.120798 141.153662 
L 198.934468 142.874182 
L 200.561809 148.03574 
L 201.37548 149.831065 
L 203.002821 152.598857 
L 203.816491 153.870545 
L 204.630162 156.264312 
L 206.257503 159.854961 
L 207.071174 162.547948 
L 208.698515 165.31574 
L 209.512185 166.512623 
L 210.325856 169.056 
L 211.139526 170.851325 
L 211.953197 173.394701 
L 212.766867 175.339636 
L 214.394208 179.678338 
L 215.207879 183.418597 
L 216.021549 184.765091 
L 216.83522 187.532883 
L 219.276232 192.395221 
L 220.089902 194.489766 
L 222.530914 199.127688 
L 223.344584 200.997818 
L 224.158255 202.269506 
L 225.785596 204.513662 
L 226.599266 205.63574 
L 227.412937 206.383792 
L 228.226608 206.683013 
L 229.040278 207.730286 
L 230.667619 210.198857 
L 232.29496 212.443013 
L 233.108631 214.088727 
L 233.922301 215.061195 
L 234.735972 216.407688 
L 235.549642 217.454961 
L 236.363313 218.053403 
L 237.990654 218.87626 
L 238.804325 219.699117 
L 239.617995 220.896 
L 241.245336 222.616519 
L 242.059007 223.888208 
L 242.872677 224.63626 
L 243.686348 226.207169 
L 246.127359 228.67574 
L 246.94103 229.049766 
L 247.754701 230.171844 
L 248.568371 230.246649 
L 249.382042 230.845091 
L 250.195712 231.293922 
L 251.009383 231.967169 
L 251.823053 232.864831 
L 252.636724 233.388468 
L 253.450394 234.43574 
L 257.518747 237.053922 
L 260.773429 239.896519 
L 261.5871 240.494961 
L 262.40077 241.243013 
L 263.214441 241.691844 
L 264.028111 242.290286 
L 265.655452 243.78639 
L 267.282793 244.459636 
L 268.910135 245.80613 
L 269.723805 246.329766 
L 271.351146 247.152623 
L 272.164817 247.227429 
L 272.978487 247.900675 
L 274.605828 248.424312 
L 275.419499 248.873143 
L 276.233169 249.172364 
L 277.04684 249.621195 
L 278.674181 249.84561 
L 279.487852 250.070026 
L 280.301522 250.518857 
L 281.928863 251.042494 
L 282.742534 251.117299 
L 283.556204 251.491325 
L 285.997216 251.790545 
L 286.810886 251.940156 
L 288.438228 252.763013 
L 291.69291 254.333922 
L 292.50658 254.333922 
L 293.320251 254.558338 
L 294.133921 254.558338 
L 294.947592 254.932364 
L 295.761262 255.081974 
L 296.574933 255.081974 
L 297.388603 255.30639 
L 298.202274 255.680416 
L 301.456956 256.054442 
L 302.270627 256.204052 
L 303.084297 256.204052 
L 303.897968 256.353662 
L 304.711638 256.652883 
L 305.525309 256.727688 
L 306.338979 256.952104 
L 309.593662 257.251325 
L 311.221003 257.774961 
L 313.662014 258.074182 
L 316.103026 258.448208 
L 320.171379 258.523013 
L 328.308084 259.19626 
L 333.190107 259.271065 
L 334.003778 259.495481 
L 335.631119 259.570286 
L 338.07213 259.645091 
L 339.699472 259.719896 
L 342.140483 259.719896 
L 343.767824 259.944312 
L 346.208836 260.093922 
L 348.649847 260.168727 
L 351.90453 260.393143 
L 358.413894 260.467948 
L 360.854906 260.617558 
L 363.295917 260.692364 
L 367.36427 260.991584 
L 394.215398 261.06639 
L 394.215398 261.06639 
" style="fill:none;stroke:#ffc400;stroke-linecap:round;stroke-width:1.5;"/>
   </g>
   <g id="line2d_25">
    <path clip-path="url(#p777b1a3d6c)" d="M 69.560852 260.467948 
L 70.374523 256.054442 
L 72.001864 238.774442 
L 72.815534 228.451325 
L 74.442876 212.966649 
L 76.070217 199.127688 
L 78.511228 178.55626 
L 79.324899 174.516779 
L 80.95224 162.772364 
L 81.76591 157.984831 
L 82.579581 154.169766 
L 85.020593 137.637818 
L 85.834263 133.299117 
L 86.647934 127.389506 
L 92.343627 99.187948 
L 93.157298 96.494961 
L 93.970968 92.380675 
L 95.59831 86.620675 
L 97.225651 78.392104 
L 98.039321 76.521974 
L 98.852992 74.128208 
L 99.666662 69.11626 
L 100.480333 66.647688 
L 101.294003 63.057039 
L 102.107674 62.533403 
L 102.921344 60.289247 
L 103.735015 59.167169 
L 105.362356 54.379636 
L 106.176027 53.257558 
L 106.989697 49.891325 
L 107.803368 45.926649 
L 108.617038 43.906909 
L 109.430709 42.859636 
L 110.244379 41.363532 
L 111.05805 41.288727 
L 111.87172 39.643013 
L 112.685391 39.568208 
L 113.499061 40.017039 
L 114.312732 40.091844 
L 115.126403 38.820156 
L 115.940073 36.800416 
L 116.753744 36.351584 
L 117.567414 36.052364 
L 118.381085 33.209766 
L 119.194755 34.182234 
L 120.008426 33.134961 
L 120.822096 33.957818 
L 121.635767 33.808208 
L 122.449437 33.284571 
L 123.263108 34.182234 
L 124.076778 32.83574 
L 124.890449 34.70587 
L 125.70412 35.977558 
L 126.51779 35.154701 
L 127.331461 34.631065 
L 128.145131 36.127169 
L 128.958802 35.753143 
L 129.772472 33.508987 
L 130.586143 33.134961 
L 131.399813 34.257039 
L 132.213484 34.406649 
L 134.654495 37.249247 
L 135.468166 37.698078 
L 136.281837 37.473662 
L 137.095507 36.72561 
L 137.909178 36.875221 
L 138.722848 36.576 
L 140.350189 33.957818 
L 141.16386 33.508987 
L 141.97753 33.583792 
L 142.791201 33.957818 
L 144.418542 38.59574 
L 145.232212 38.745351 
L 146.045883 37.099636 
L 146.859554 37.174442 
L 147.673224 37.772883 
L 148.486895 38.221714 
L 150.114236 38.072104 
L 150.927906 38.296519 
L 151.741577 38.894961 
L 152.555247 39.343792 
L 153.368918 38.44613 
L 154.182588 39.418597 
L 154.996259 41.213922 
L 155.80993 42.560416 
L 156.6236 43.607688 
L 158.250941 47.273143 
L 159.064612 48.694442 
L 159.878282 49.666909 
L 160.691953 51.387429 
L 161.505623 53.481974 
L 163.132964 54.454442 
L 163.946635 54.00561 
L 164.760305 55.87574 
L 165.573976 56.923013 
L 166.387647 57.222234 
L 167.201317 59.76561 
L 168.828658 66.722494 
L 169.642329 68.218597 
L 170.455999 70.088727 
L 171.26967 71.136 
L 172.08334 73.454961 
L 172.897011 75.325091 
L 173.710681 77.868468 
L 174.524352 81.384312 
L 175.338022 83.778078 
L 176.151693 85.124571 
L 180.220046 95.148468 
L 181.847387 98.290286 
L 182.661057 101.058078 
L 184.288398 105.321974 
L 185.102069 106.518857 
L 185.915739 108.388987 
L 186.72941 109.735481 
L 187.543081 111.830026 
L 188.356751 115.271065 
L 189.170422 117.814442 
L 190.797763 122.003532 
L 191.611433 124.472104 
L 192.425104 126.117818 
L 193.238774 129.334442 
L 194.052445 131.877818 
L 194.866115 132.999896 
L 195.679786 135.169247 
L 196.493457 137.937039 
L 198.120798 142.200935 
L 198.934468 145.342753 
L 199.748139 146.988468 
L 200.561809 149.083013 
L 202.18915 154.244571 
L 203.002821 155.441455 
L 203.816491 157.012364 
L 204.630162 159.106909 
L 205.443832 160.752623 
L 206.257503 161.650286 
L 207.071174 164.268468 
L 207.884844 165.31574 
L 208.698515 167.260675 
L 209.512185 169.504831 
L 210.325856 171.225351 
L 211.139526 173.245091 
L 213.580538 178.182234 
L 214.394208 180.127169 
L 215.207879 181.548468 
L 217.648891 186.635221 
L 218.462561 188.580156 
L 219.276232 191.572364 
L 220.089902 193.666909 
L 220.903573 195.163013 
L 221.717243 196.359896 
L 222.530914 198.304831 
L 223.344584 199.950545 
L 224.971925 202.643532 
L 225.785596 204.064831 
L 226.599266 205.934961 
L 228.226608 208.777558 
L 229.853949 210.423273 
L 230.667619 211.171325 
L 231.48129 212.443013 
L 232.29496 214.387948 
L 233.108631 215.435221 
L 233.922301 217.15574 
L 235.549642 219.100675 
L 237.176984 221.120416 
L 238.804325 223.813403 
L 239.617995 224.63626 
L 240.431666 225.234701 
L 241.245336 226.132364 
L 242.059007 226.581195 
L 242.872677 227.254442 
L 245.313689 230.695481 
L 246.127359 231.518338 
L 246.94103 231.817558 
L 248.568371 233.837299 
L 251.009383 235.483013 
L 251.823053 235.632623 
L 252.636724 236.455481 
L 253.450394 236.754701 
L 254.264065 237.727169 
L 255.077735 238.250805 
L 255.891406 238.550026 
L 257.518747 239.672104 
L 258.332418 239.971325 
L 259.146088 241.018597 
L 259.959759 241.467429 
L 260.773429 242.06587 
L 261.5871 243.038338 
L 262.40077 243.337558 
L 263.214441 244.08561 
L 264.841782 245.880935 
L 265.655452 246.105351 
L 266.469123 246.554182 
L 268.096464 246.778597 
L 268.910135 247.227429 
L 271.351146 247.975481 
L 274.605828 249.471584 
L 275.419499 249.54639 
L 277.04684 250.294442 
L 278.674181 251.266909 
L 279.487852 251.56613 
L 280.301522 251.640935 
L 281.115193 252.314182 
L 281.928863 252.763013 
L 282.742534 252.837818 
L 283.556204 253.286649 
L 285.183545 253.810286 
L 285.997216 253.959896 
L 286.810886 254.408727 
L 287.624557 254.483532 
L 290.065569 255.081974 
L 291.69291 255.30639 
L 293.320251 255.680416 
L 294.947592 255.904831 
L 295.761262 256.129247 
L 297.388603 256.278857 
L 298.202274 256.652883 
L 299.015945 256.652883 
L 299.829615 256.802494 
L 300.643286 256.802494 
L 302.270627 257.176519 
L 305.525309 257.999377 
L 307.15265 258.074182 
L 311.221003 258.373403 
L 312.034673 258.672623 
L 313.662014 258.897039 
L 316.103026 258.971844 
L 317.730367 259.19626 
L 320.985049 259.420675 
L 321.79872 259.420675 
L 323.426061 259.944312 
L 325.053402 260.019117 
L 326.680743 260.093922 
L 329.121755 260.168727 
L 330.749096 260.243532 
L 338.07213 260.318338 
L 339.699472 260.393143 
L 346.208836 260.467948 
L 348.649847 260.617558 
L 350.277189 260.692364 
L 353.531871 260.916779 
L 361.668576 260.991584 
L 363.295917 261.06639 
L 379.569328 261.141195 
L 381.196669 261.216 
L 394.215398 261.216 
L 394.215398 261.216 
" style="fill:none;stroke:#ff6800;stroke-linecap:round;stroke-width:1.5;"/>
   </g>
   <g id="line2d_26">
    <path clip-path="url(#p777b1a3d6c)" d="M 69.560852 260.467948 
L 70.374523 255.156779 
L 71.188193 247.451844 
L 73.629205 220.447169 
L 76.070217 198.00561 
L 77.697558 186.410805 
L 78.511228 180.276779 
L 79.324899 172.94587 
L 80.138569 167.18587 
L 81.76591 153.870545 
L 82.579581 149.232623 
L 85.020593 133.523532 
L 87.461604 117.290805 
L 89.902616 105.84561 
L 90.716286 104.349506 
L 91.529957 101.656519 
L 92.343627 98.290286 
L 93.157298 95.896519 
L 93.970968 92.006649 
L 94.784639 87.144312 
L 95.59831 85.274182 
L 96.41198 83.104831 
L 97.225651 81.982753 
L 98.039321 79.140156 
L 98.852992 79.140156 
L 99.666662 78.76613 
L 100.480333 76.970805 
L 101.294003 73.230545 
L 102.107674 70.238338 
L 102.921344 68.592623 
L 103.735015 66.273662 
L 104.548685 63.35626 
L 105.362356 62.009766 
L 107.803368 53.70639 
L 108.617038 53.70639 
L 109.430709 52.883532 
L 110.244379 51.237818 
L 111.05805 50.040935 
L 111.87172 47.721974 
L 112.685391 45.926649 
L 113.499061 42.784831 
L 114.312732 42.710026 
L 115.940073 39.568208 
L 116.753744 38.59574 
L 117.567414 38.520935 
L 120.008426 34.107429 
L 120.822096 34.182234 
L 121.635767 30.816 
L 122.449437 30.516779 
L 123.263108 33.134961 
L 124.076778 33.434182 
L 124.890449 31.938078 
L 125.70412 31.264831 
L 126.51779 29.245091 
L 127.331461 28.721455 
L 128.145131 29.245091 
L 128.958802 28.79626 
L 129.772472 28.871065 
L 131.399813 25.430026 
L 132.213484 24.756779 
L 133.027154 24.382753 
L 133.840825 25.280416 
L 135.468166 23.859117 
L 136.281837 25.504831 
L 137.095507 25.280416 
L 137.909178 24.233143 
L 138.722848 24.90639 
L 139.536519 26.402494 
L 140.350189 26.103273 
L 141.16386 26.178078 
L 142.791201 26.552104 
L 143.604871 27.599377 
L 144.418542 27.599377 
L 145.232212 27.823792 
L 146.045883 29.170286 
L 146.859554 28.123013 
L 147.673224 29.020675 
L 148.486895 31.040416 
L 149.300565 31.414442 
L 150.114236 32.012883 
L 150.927906 31.713662 
L 151.741577 32.910545 
L 153.368918 34.032623 
L 154.182588 35.753143 
L 154.996259 37.847688 
L 155.80993 37.623273 
L 157.437271 37.473662 
L 158.250941 37.099636 
L 159.064612 39.194182 
L 159.878282 41.961974 
L 160.691953 41.662753 
L 161.505623 43.532883 
L 162.319294 46.525091 
L 163.132964 46.151065 
L 163.946635 47.647169 
L 164.760305 50.863792 
L 167.201317 54.155221 
L 168.014988 56.474182 
L 168.828658 58.344312 
L 169.642329 59.76561 
L 170.455999 61.710545 
L 171.26967 65.301195 
L 172.08334 69.415481 
L 172.897011 71.958857 
L 173.710681 73.679377 
L 174.524352 76.073143 
L 176.151693 79.289766 
L 176.965364 81.608727 
L 177.779034 84.52613 
L 178.592705 85.797818 
L 179.406375 87.518338 
L 180.220046 89.762494 
L 181.033716 90.809766 
L 182.661057 95.597299 
L 184.288398 99.936 
L 185.915739 106.144831 
L 186.72941 108.837818 
L 187.543081 110.558338 
L 189.984092 118.263273 
L 190.797763 119.23574 
L 191.611433 120.731844 
L 198.120798 141.901714 
L 198.934468 143.173403 
L 200.561809 149.008208 
L 201.37548 150.803532 
L 203.002821 155.366649 
L 203.816491 156.189506 
L 205.443832 159.331325 
L 207.071174 163.071584 
L 207.884844 164.193662 
L 210.325856 170.252883 
L 211.139526 171.898597 
L 211.953197 173.843532 
L 212.766867 174.890805 
L 216.021549 181.324052 
L 216.83522 184.091844 
L 217.648891 185.887169 
L 219.276232 188.879377 
L 220.089902 190.599896 
L 220.903573 191.871584 
L 221.717243 193.891325 
L 222.530914 195.312623 
L 223.344584 197.107948 
L 224.158255 198.529247 
L 224.971925 199.576519 
L 225.785596 200.249766 
L 226.599266 201.74587 
L 227.412937 202.867948 
L 229.040278 205.934961 
L 229.853949 207.131844 
L 230.667619 208.777558 
L 237.176984 217.305351 
L 238.804325 219.848727 
L 240.431666 221.195221 
L 242.059007 223.588987 
L 242.872677 224.486649 
L 243.686348 225.608727 
L 245.313689 227.179636 
L 246.127359 227.703273 
L 246.94103 228.077299 
L 247.754701 228.900156 
L 248.568371 229.947429 
L 249.382042 230.770286 
L 250.195712 231.293922 
L 251.009383 232.490805 
L 252.636724 233.164052 
L 255.891406 236.081455 
L 256.705076 236.231065 
L 257.518747 236.754701 
L 258.332418 237.577558 
L 259.146088 237.801974 
L 260.773429 238.699636 
L 262.40077 239.896519 
L 264.028111 241.392623 
L 264.841782 241.691844 
L 266.469123 243.337558 
L 267.282793 243.861195 
L 268.096464 244.160416 
L 268.910135 244.758857 
L 270.537476 245.357299 
L 271.351146 245.432104 
L 272.978487 246.180156 
L 273.792158 246.703792 
L 276.233169 247.751065 
L 277.04684 247.82587 
L 278.674181 249.022753 
L 279.487852 249.172364 
L 280.301522 249.471584 
L 281.115193 249.621195 
L 281.928863 249.54639 
L 284.369875 250.518857 
L 285.183545 250.593662 
L 285.997216 250.967688 
L 289.251898 251.865351 
L 290.065569 252.314182 
L 290.879239 252.239377 
L 292.50658 252.613403 
L 299.015945 254.333922 
L 300.643286 254.333922 
L 303.084297 254.707948 
L 305.525309 254.782753 
L 307.15265 255.007169 
L 307.96632 255.081974 
L 309.593662 255.456 
L 313.662014 255.904831 
L 314.475685 256.129247 
L 316.103026 256.353662 
L 317.730367 256.652883 
L 320.985049 256.727688 
L 329.121755 257.47574 
L 329.935425 257.774961 
L 331.562766 257.999377 
L 332.376437 258.373403 
L 333.190107 258.448208 
L 334.003778 258.672623 
L 336.444789 258.822234 
L 339.699472 258.897039 
L 341.326813 258.971844 
L 344.581495 259.046649 
L 345.395165 259.271065 
L 348.649847 259.271065 
L 349.463518 259.420675 
L 351.90453 259.495481 
L 355.159212 259.719896 
L 360.041235 259.794701 
L 362.482247 259.944312 
L 365.736929 259.944312 
L 366.550599 260.093922 
L 368.17794 260.168727 
L 368.991611 260.318338 
L 371.432623 260.393143 
L 373.873634 260.542753 
L 387.706033 260.617558 
L 389.333374 260.692364 
L 390.147045 260.692364 
L 390.960716 260.841974 
L 394.215398 260.916779 
L 394.215398 260.916779 
" style="fill:none;stroke:#f10800;stroke-linecap:round;stroke-width:1.5;"/>
   </g>
   <g id="patch_3">
    <path d="M 53.328125 273.312 
L 53.328125 7.2 
" style="fill:none;stroke:#cccccc;stroke-linecap:square;stroke-linejoin:miter;stroke-width:0.8;"/>
   </g>
   <g id="patch_4">
    <path d="M 410.448125 273.312 
L 410.448125 7.2 
" style="fill:none;stroke:#cccccc;stroke-linecap:square;stroke-linejoin:miter;stroke-width:0.8;"/>
   </g>
   <g id="patch_5">
    <path d="M 53.328125 273.312 
L 410.448125 273.312 
" style="fill:none;stroke:#cccccc;stroke-linecap:square;stroke-linejoin:miter;stroke-width:0.8;"/>
   </g>
   <g id="patch_6">
    <path d="M 53.328125 7.2 
L 410.448125 7.2 
" style="fill:none;stroke:#cccccc;stroke-linecap:square;stroke-linejoin:miter;stroke-width:0.8;"/>
   </g>
  </g>
 </g>
 <defs>
  <clipPath id="p777b1a3d6c">
   <rect height="266.112" width="357.12" x="53.328125" y="7.2"/>
  </clipPath>
 </defs>
</svg>
