<?xml version="1.0" encoding="utf-8" standalone="no"?>
<!DOCTYPE svg PUBLIC "-//W3C//DTD SVG 1.1//EN"
  "http://www.w3.org/Graphics/SVG/1.1/DTD/svg11.dtd">
<!-- Created with matplotlib (https://matplotlib.org/) -->
<svg height="310.86825pt" version="1.1" viewBox="0 0 417.648125 310.86825" width="417.648125pt" xmlns="http://www.w3.org/2000/svg" xmlns:xlink="http://www.w3.org/1999/xlink">
 <defs>
  <style type="text/css">
*{stroke-linecap:butt;stroke-linejoin:round;white-space:pre;}
  </style>
 </defs>
 <g id="figure_1">
  <g id="patch_1">
   <path d="M 0 310.86825 
L 417.648125 310.86825 
L 417.648125 0 
L 0 0 
z
" style="fill:#ffffff;"/>
  </g>
  <g id="axes_1">
   <g id="patch_2">
    <path d="M 53.328125 273.312 
L 410.448125 273.312 
L 410.448125 7.2 
L 53.328125 7.2 
z
" style="fill:#ffffff;"/>
   </g>
   <g id="matplotlib.axis_1">
    <g id="xtick_1">
     <g id="line2d_1">
      <path clip-path="url(#p4b3466bfc8)" d="M 69.560852 273.312 
L 69.560852 7.2 
" style="fill:none;stroke:#cccccc;stroke-linecap:round;stroke-width:0.8;"/>
     </g>
     <g id="text_1">
      <!-- 0 -->
      <defs>
       <path d="M 31.78125 66.40625 
Q 24.171875 66.40625 20.328125 58.90625 
Q 16.5 51.421875 16.5 36.375 
Q 16.5 21.390625 20.328125 13.890625 
Q 24.171875 6.390625 31.78125 6.390625 
Q 39.453125 6.390625 43.28125 13.890625 
Q 47.125 21.390625 47.125 36.375 
Q 47.125 51.421875 43.28125 58.90625 
Q 39.453125 66.40625 31.78125 66.40625 
z
M 31.78125 74.21875 
Q 44.046875 74.21875 50.515625 64.515625 
Q 56.984375 54.828125 56.984375 36.375 
Q 56.984375 17.96875 50.515625 8.265625 
Q 44.046875 -1.421875 31.78125 -1.421875 
Q 19.53125 -1.421875 13.0625 8.265625 
Q 6.59375 17.96875 6.59375 36.375 
Q 6.59375 54.828125 13.0625 64.515625 
Q 19.53125 74.21875 31.78125 74.21875 
z
" id="DejaVuSans-48"/>
      </defs>
      <g style="fill:#262626;" transform="translate(66.379602 287.910437)scale(0.1 -0.1)">
       <use xlink:href="#DejaVuSans-48"/>
      </g>
     </g>
    </g>
    <g id="xtick_2">
     <g id="line2d_2">
      <path clip-path="url(#p4b3466bfc8)" d="M 110.244379 273.312 
L 110.244379 7.2 
" style="fill:none;stroke:#cccccc;stroke-linecap:round;stroke-width:0.8;"/>
     </g>
     <g id="text_2">
      <!-- 5 -->
      <defs>
       <path d="M 10.796875 72.90625 
L 49.515625 72.90625 
L 49.515625 64.59375 
L 19.828125 64.59375 
L 19.828125 46.734375 
Q 21.96875 47.46875 24.109375 47.828125 
Q 26.265625 48.1875 28.421875 48.1875 
Q 40.625 48.1875 47.75 41.5 
Q 54.890625 34.8125 54.890625 23.390625 
Q 54.890625 11.625 47.5625 5.09375 
Q 40.234375 -1.421875 26.90625 -1.421875 
Q 22.3125 -1.421875 17.546875 -0.640625 
Q 12.796875 0.140625 7.71875 1.703125 
L 7.71875 11.625 
Q 12.109375 9.234375 16.796875 8.0625 
Q 21.484375 6.890625 26.703125 6.890625 
Q 35.15625 6.890625 40.078125 11.328125 
Q 45.015625 15.765625 45.015625 23.390625 
Q 45.015625 31 40.078125 35.4375 
Q 35.15625 39.890625 26.703125 39.890625 
Q 22.75 39.890625 18.8125 39.015625 
Q 14.890625 38.140625 10.796875 36.28125 
z
" id="DejaVuSans-53"/>
      </defs>
      <g style="fill:#262626;" transform="translate(107.063129 287.910437)scale(0.1 -0.1)">
       <use xlink:href="#DejaVuSans-53"/>
      </g>
     </g>
    </g>
    <g id="xtick_3">
     <g id="line2d_3">
      <path clip-path="url(#p4b3466bfc8)" d="M 150.927906 273.312 
L 150.927906 7.2 
" style="fill:none;stroke:#cccccc;stroke-linecap:round;stroke-width:0.8;"/>
     </g>
     <g id="text_3">
      <!-- 10 -->
      <defs>
       <path d="M 12.40625 8.296875 
L 28.515625 8.296875 
L 28.515625 63.921875 
L 10.984375 60.40625 
L 10.984375 69.390625 
L 28.421875 72.90625 
L 38.28125 72.90625 
L 38.28125 8.296875 
L 54.390625 8.296875 
L 54.390625 0 
L 12.40625 0 
z
" id="DejaVuSans-49"/>
      </defs>
      <g style="fill:#262626;" transform="translate(144.565406 287.910437)scale(0.1 -0.1)">
       <use xlink:href="#DejaVuSans-49"/>
       <use x="63.623047" xlink:href="#DejaVuSans-48"/>
      </g>
     </g>
    </g>
    <g id="xtick_4">
     <g id="line2d_4">
      <path clip-path="url(#p4b3466bfc8)" d="M 191.611433 273.312 
L 191.611433 7.2 
" style="fill:none;stroke:#cccccc;stroke-linecap:round;stroke-width:0.8;"/>
     </g>
     <g id="text_4">
      <!-- 15 -->
      <g style="fill:#262626;" transform="translate(185.248933 287.910437)scale(0.1 -0.1)">
       <use xlink:href="#DejaVuSans-49"/>
       <use x="63.623047" xlink:href="#DejaVuSans-53"/>
      </g>
     </g>
    </g>
    <g id="xtick_5">
     <g id="line2d_5">
      <path clip-path="url(#p4b3466bfc8)" d="M 232.29496 273.312 
L 232.29496 7.2 
" style="fill:none;stroke:#cccccc;stroke-linecap:round;stroke-width:0.8;"/>
     </g>
     <g id="text_5">
      <!-- 20 -->
      <defs>
       <path d="M 19.1875 8.296875 
L 53.609375 8.296875 
L 53.609375 0 
L 7.328125 0 
L 7.328125 8.296875 
Q 12.9375 14.109375 22.625 23.890625 
Q 32.328125 33.6875 34.8125 36.53125 
Q 39.546875 41.84375 41.421875 45.53125 
Q 43.3125 49.21875 43.3125 52.78125 
Q 43.3125 58.59375 39.234375 62.25 
Q 35.15625 65.921875 28.609375 65.921875 
Q 23.96875 65.921875 18.8125 64.3125 
Q 13.671875 62.703125 7.8125 59.421875 
L 7.8125 69.390625 
Q 13.765625 71.78125 18.9375 73 
Q 24.125 74.21875 28.421875 74.21875 
Q 39.75 74.21875 46.484375 68.546875 
Q 53.21875 62.890625 53.21875 53.421875 
Q 53.21875 48.921875 51.53125 44.890625 
Q 49.859375 40.875 45.40625 35.40625 
Q 44.1875 33.984375 37.640625 27.21875 
Q 31.109375 20.453125 19.1875 8.296875 
z
" id="DejaVuSans-50"/>
      </defs>
      <g style="fill:#262626;" transform="translate(225.93246 287.910437)scale(0.1 -0.1)">
       <use xlink:href="#DejaVuSans-50"/>
       <use x="63.623047" xlink:href="#DejaVuSans-48"/>
      </g>
     </g>
    </g>
    <g id="xtick_6">
     <g id="line2d_6">
      <path clip-path="url(#p4b3466bfc8)" d="M 272.978487 273.312 
L 272.978487 7.2 
" style="fill:none;stroke:#cccccc;stroke-linecap:round;stroke-width:0.8;"/>
     </g>
     <g id="text_6">
      <!-- 25 -->
      <g style="fill:#262626;" transform="translate(266.615987 287.910437)scale(0.1 -0.1)">
       <use xlink:href="#DejaVuSans-50"/>
       <use x="63.623047" xlink:href="#DejaVuSans-53"/>
      </g>
     </g>
    </g>
    <g id="xtick_7">
     <g id="line2d_7">
      <path clip-path="url(#p4b3466bfc8)" d="M 313.662014 273.312 
L 313.662014 7.2 
" style="fill:none;stroke:#cccccc;stroke-linecap:round;stroke-width:0.8;"/>
     </g>
     <g id="text_7">
      <!-- 30 -->
      <defs>
       <path d="M 40.578125 39.3125 
Q 47.65625 37.796875 51.625 33 
Q 55.609375 28.21875 55.609375 21.1875 
Q 55.609375 10.40625 48.1875 4.484375 
Q 40.765625 -1.421875 27.09375 -1.421875 
Q 22.515625 -1.421875 17.65625 -0.515625 
Q 12.796875 0.390625 7.625 2.203125 
L 7.625 11.71875 
Q 11.71875 9.328125 16.59375 8.109375 
Q 21.484375 6.890625 26.8125 6.890625 
Q 36.078125 6.890625 40.9375 10.546875 
Q 45.796875 14.203125 45.796875 21.1875 
Q 45.796875 27.640625 41.28125 31.265625 
Q 36.765625 34.90625 28.71875 34.90625 
L 20.21875 34.90625 
L 20.21875 43.015625 
L 29.109375 43.015625 
Q 36.375 43.015625 40.234375 45.921875 
Q 44.09375 48.828125 44.09375 54.296875 
Q 44.09375 59.90625 40.109375 62.90625 
Q 36.140625 65.921875 28.71875 65.921875 
Q 24.65625 65.921875 20.015625 65.03125 
Q 15.375 64.15625 9.8125 62.3125 
L 9.8125 71.09375 
Q 15.4375 72.65625 20.34375 73.4375 
Q 25.25 74.21875 29.59375 74.21875 
Q 40.828125 74.21875 47.359375 69.109375 
Q 53.90625 64.015625 53.90625 55.328125 
Q 53.90625 49.265625 50.4375 45.09375 
Q 46.96875 40.921875 40.578125 39.3125 
z
" id="DejaVuSans-51"/>
      </defs>
      <g style="fill:#262626;" transform="translate(307.299514 287.910437)scale(0.1 -0.1)">
       <use xlink:href="#DejaVuSans-51"/>
       <use x="63.623047" xlink:href="#DejaVuSans-48"/>
      </g>
     </g>
    </g>
    <g id="xtick_8">
     <g id="line2d_8">
      <path clip-path="url(#p4b3466bfc8)" d="M 354.345541 273.312 
L 354.345541 7.2 
" style="fill:none;stroke:#cccccc;stroke-linecap:round;stroke-width:0.8;"/>
     </g>
     <g id="text_8">
      <!-- 35 -->
      <g style="fill:#262626;" transform="translate(347.983041 287.910437)scale(0.1 -0.1)">
       <use xlink:href="#DejaVuSans-51"/>
       <use x="63.623047" xlink:href="#DejaVuSans-53"/>
      </g>
     </g>
    </g>
    <g id="xtick_9">
     <g id="line2d_9">
      <path clip-path="url(#p4b3466bfc8)" d="M 395.029068 273.312 
L 395.029068 7.2 
" style="fill:none;stroke:#cccccc;stroke-linecap:round;stroke-width:0.8;"/>
     </g>
     <g id="text_9">
      <!-- 40 -->
      <defs>
       <path d="M 37.796875 64.3125 
L 12.890625 25.390625 
L 37.796875 25.390625 
z
M 35.203125 72.90625 
L 47.609375 72.90625 
L 47.609375 25.390625 
L 58.015625 25.390625 
L 58.015625 17.1875 
L 47.609375 17.1875 
L 47.609375 0 
L 37.796875 0 
L 37.796875 17.1875 
L 4.890625 17.1875 
L 4.890625 26.703125 
z
" id="DejaVuSans-52"/>
      </defs>
      <g style="fill:#262626;" transform="translate(388.666568 287.910437)scale(0.1 -0.1)">
       <use xlink:href="#DejaVuSans-52"/>
       <use x="63.623047" xlink:href="#DejaVuSans-48"/>
      </g>
     </g>
    </g>
    <g id="text_10">
     <!-- time (days) -->
     <defs>
      <path d="M 18.3125 70.21875 
L 18.3125 54.6875 
L 36.8125 54.6875 
L 36.8125 47.703125 
L 18.3125 47.703125 
L 18.3125 18.015625 
Q 18.3125 11.328125 20.140625 9.421875 
Q 21.96875 7.515625 27.59375 7.515625 
L 36.8125 7.515625 
L 36.8125 0 
L 27.59375 0 
Q 17.1875 0 13.234375 3.875 
Q 9.28125 7.765625 9.28125 18.015625 
L 9.28125 47.703125 
L 2.6875 47.703125 
L 2.6875 54.6875 
L 9.28125 54.6875 
L 9.28125 70.21875 
z
" id="DejaVuSans-116"/>
      <path d="M 9.421875 54.6875 
L 18.40625 54.6875 
L 18.40625 0 
L 9.421875 0 
z
M 9.421875 75.984375 
L 18.40625 75.984375 
L 18.40625 64.59375 
L 9.421875 64.59375 
z
" id="DejaVuSans-105"/>
      <path d="M 52 44.1875 
Q 55.375 50.25 60.0625 53.125 
Q 64.75 56 71.09375 56 
Q 79.640625 56 84.28125 50.015625 
Q 88.921875 44.046875 88.921875 33.015625 
L 88.921875 0 
L 79.890625 0 
L 79.890625 32.71875 
Q 79.890625 40.578125 77.09375 44.375 
Q 74.3125 48.1875 68.609375 48.1875 
Q 61.625 48.1875 57.5625 43.546875 
Q 53.515625 38.921875 53.515625 30.90625 
L 53.515625 0 
L 44.484375 0 
L 44.484375 32.71875 
Q 44.484375 40.625 41.703125 44.40625 
Q 38.921875 48.1875 33.109375 48.1875 
Q 26.21875 48.1875 22.15625 43.53125 
Q 18.109375 38.875 18.109375 30.90625 
L 18.109375 0 
L 9.078125 0 
L 9.078125 54.6875 
L 18.109375 54.6875 
L 18.109375 46.1875 
Q 21.1875 51.21875 25.484375 53.609375 
Q 29.78125 56 35.6875 56 
Q 41.65625 56 45.828125 52.96875 
Q 50 49.953125 52 44.1875 
z
" id="DejaVuSans-109"/>
      <path d="M 56.203125 29.59375 
L 56.203125 25.203125 
L 14.890625 25.203125 
Q 15.484375 15.921875 20.484375 11.0625 
Q 25.484375 6.203125 34.421875 6.203125 
Q 39.59375 6.203125 44.453125 7.46875 
Q 49.3125 8.734375 54.109375 11.28125 
L 54.109375 2.78125 
Q 49.265625 0.734375 44.1875 -0.34375 
Q 39.109375 -1.421875 33.890625 -1.421875 
Q 20.796875 -1.421875 13.15625 6.1875 
Q 5.515625 13.8125 5.515625 26.8125 
Q 5.515625 40.234375 12.765625 48.109375 
Q 20.015625 56 32.328125 56 
Q 43.359375 56 49.78125 48.890625 
Q 56.203125 41.796875 56.203125 29.59375 
z
M 47.21875 32.234375 
Q 47.125 39.59375 43.09375 43.984375 
Q 39.0625 48.390625 32.421875 48.390625 
Q 24.90625 48.390625 20.390625 44.140625 
Q 15.875 39.890625 15.1875 32.171875 
z
" id="DejaVuSans-101"/>
      <path id="DejaVuSans-32"/>
      <path d="M 31 75.875 
Q 24.46875 64.65625 21.28125 53.65625 
Q 18.109375 42.671875 18.109375 31.390625 
Q 18.109375 20.125 21.3125 9.0625 
Q 24.515625 -2 31 -13.1875 
L 23.1875 -13.1875 
Q 15.875 -1.703125 12.234375 9.375 
Q 8.59375 20.453125 8.59375 31.390625 
Q 8.59375 42.28125 12.203125 53.3125 
Q 15.828125 64.359375 23.1875 75.875 
z
" id="DejaVuSans-40"/>
      <path d="M 45.40625 46.390625 
L 45.40625 75.984375 
L 54.390625 75.984375 
L 54.390625 0 
L 45.40625 0 
L 45.40625 8.203125 
Q 42.578125 3.328125 38.25 0.953125 
Q 33.9375 -1.421875 27.875 -1.421875 
Q 17.96875 -1.421875 11.734375 6.484375 
Q 5.515625 14.40625 5.515625 27.296875 
Q 5.515625 40.1875 11.734375 48.09375 
Q 17.96875 56 27.875 56 
Q 33.9375 56 38.25 53.625 
Q 42.578125 51.265625 45.40625 46.390625 
z
M 14.796875 27.296875 
Q 14.796875 17.390625 18.875 11.75 
Q 22.953125 6.109375 30.078125 6.109375 
Q 37.203125 6.109375 41.296875 11.75 
Q 45.40625 17.390625 45.40625 27.296875 
Q 45.40625 37.203125 41.296875 42.84375 
Q 37.203125 48.484375 30.078125 48.484375 
Q 22.953125 48.484375 18.875 42.84375 
Q 14.796875 37.203125 14.796875 27.296875 
z
" id="DejaVuSans-100"/>
      <path d="M 34.28125 27.484375 
Q 23.390625 27.484375 19.1875 25 
Q 14.984375 22.515625 14.984375 16.5 
Q 14.984375 11.71875 18.140625 8.90625 
Q 21.296875 6.109375 26.703125 6.109375 
Q 34.1875 6.109375 38.703125 11.40625 
Q 43.21875 16.703125 43.21875 25.484375 
L 43.21875 27.484375 
z
M 52.203125 31.203125 
L 52.203125 0 
L 43.21875 0 
L 43.21875 8.296875 
Q 40.140625 3.328125 35.546875 0.953125 
Q 30.953125 -1.421875 24.3125 -1.421875 
Q 15.921875 -1.421875 10.953125 3.296875 
Q 6 8.015625 6 15.921875 
Q 6 25.140625 12.171875 29.828125 
Q 18.359375 34.515625 30.609375 34.515625 
L 43.21875 34.515625 
L 43.21875 35.40625 
Q 43.21875 41.609375 39.140625 45 
Q 35.0625 48.390625 27.6875 48.390625 
Q 23 48.390625 18.546875 47.265625 
Q 14.109375 46.140625 10.015625 43.890625 
L 10.015625 52.203125 
Q 14.9375 54.109375 19.578125 55.046875 
Q 24.21875 56 28.609375 56 
Q 40.484375 56 46.34375 49.84375 
Q 52.203125 43.703125 52.203125 31.203125 
z
" id="DejaVuSans-97"/>
      <path d="M 32.171875 -5.078125 
Q 28.375 -14.84375 24.75 -17.8125 
Q 21.140625 -20.796875 15.09375 -20.796875 
L 7.90625 -20.796875 
L 7.90625 -13.28125 
L 13.1875 -13.28125 
Q 16.890625 -13.28125 18.9375 -11.515625 
Q 21 -9.765625 23.484375 -3.21875 
L 25.09375 0.875 
L 2.984375 54.6875 
L 12.5 54.6875 
L 29.59375 11.921875 
L 46.6875 54.6875 
L 56.203125 54.6875 
z
" id="DejaVuSans-121"/>
      <path d="M 44.28125 53.078125 
L 44.28125 44.578125 
Q 40.484375 46.53125 36.375 47.5 
Q 32.28125 48.484375 27.875 48.484375 
Q 21.1875 48.484375 17.84375 46.4375 
Q 14.5 44.390625 14.5 40.28125 
Q 14.5 37.15625 16.890625 35.375 
Q 19.28125 33.59375 26.515625 31.984375 
L 29.59375 31.296875 
Q 39.15625 29.25 43.1875 25.515625 
Q 47.21875 21.78125 47.21875 15.09375 
Q 47.21875 7.46875 41.1875 3.015625 
Q 35.15625 -1.421875 24.609375 -1.421875 
Q 20.21875 -1.421875 15.453125 -0.5625 
Q 10.6875 0.296875 5.421875 2 
L 5.421875 11.28125 
Q 10.40625 8.6875 15.234375 7.390625 
Q 20.0625 6.109375 24.8125 6.109375 
Q 31.15625 6.109375 34.5625 8.28125 
Q 37.984375 10.453125 37.984375 14.40625 
Q 37.984375 18.0625 35.515625 20.015625 
Q 33.0625 21.96875 24.703125 23.78125 
L 21.578125 24.515625 
Q 13.234375 26.265625 9.515625 29.90625 
Q 5.8125 33.546875 5.8125 39.890625 
Q 5.8125 47.609375 11.28125 51.796875 
Q 16.75 56 26.8125 56 
Q 31.78125 56 36.171875 55.265625 
Q 40.578125 54.546875 44.28125 53.078125 
z
" id="DejaVuSans-115"/>
      <path d="M 8.015625 75.875 
L 15.828125 75.875 
Q 23.140625 64.359375 26.78125 53.3125 
Q 30.421875 42.28125 30.421875 31.390625 
Q 30.421875 20.453125 26.78125 9.375 
Q 23.140625 -1.703125 15.828125 -13.1875 
L 8.015625 -13.1875 
Q 14.5 -2 17.703125 9.0625 
Q 20.90625 20.125 20.90625 31.390625 
Q 20.90625 42.671875 17.703125 53.65625 
Q 14.5 64.65625 8.015625 75.875 
z
" id="DejaVuSans-41"/>
     </defs>
     <g style="fill:#262626;" transform="translate(203.299063 301.588562)scale(0.1 -0.1)">
      <use xlink:href="#DejaVuSans-116"/>
      <use x="39.208984" xlink:href="#DejaVuSans-105"/>
      <use x="66.992188" xlink:href="#DejaVuSans-109"/>
      <use x="164.404297" xlink:href="#DejaVuSans-101"/>
      <use x="225.927734" xlink:href="#DejaVuSans-32"/>
      <use x="257.714844" xlink:href="#DejaVuSans-40"/>
      <use x="296.728516" xlink:href="#DejaVuSans-100"/>
      <use x="360.205078" xlink:href="#DejaVuSans-97"/>
      <use x="421.484375" xlink:href="#DejaVuSans-121"/>
      <use x="480.664062" xlink:href="#DejaVuSans-115"/>
      <use x="532.763672" xlink:href="#DejaVuSans-41"/>
     </g>
    </g>
   </g>
   <g id="matplotlib.axis_2">
    <g id="ytick_1">
     <g id="line2d_10">
      <path clip-path="url(#p4b3466bfc8)" d="M 53.328125 261.216 
L 410.448125 261.216 
" style="fill:none;stroke:#cccccc;stroke-linecap:round;stroke-width:0.8;"/>
     </g>
     <g id="text_11">
      <!-- 0 -->
      <g style="fill:#262626;" transform="translate(39.965625 265.015219)scale(0.1 -0.1)">
       <use xlink:href="#DejaVuSans-48"/>
      </g>
     </g>
    </g>
    <g id="ytick_2">
     <g id="line2d_11">
      <path clip-path="url(#p4b3466bfc8)" d="M 53.328125 210.26402 
L 410.448125 210.26402 
" style="fill:none;stroke:#cccccc;stroke-linecap:round;stroke-width:0.8;"/>
     </g>
     <g id="text_12">
      <!-- 500 -->
      <g style="fill:#262626;" transform="translate(27.240625 214.063239)scale(0.1 -0.1)">
       <use xlink:href="#DejaVuSans-53"/>
       <use x="63.623047" xlink:href="#DejaVuSans-48"/>
       <use x="127.246094" xlink:href="#DejaVuSans-48"/>
      </g>
     </g>
    </g>
    <g id="ytick_3">
     <g id="line2d_12">
      <path clip-path="url(#p4b3466bfc8)" d="M 53.328125 159.31204 
L 410.448125 159.31204 
" style="fill:none;stroke:#cccccc;stroke-linecap:round;stroke-width:0.8;"/>
     </g>
     <g id="text_13">
      <!-- 1000 -->
      <g style="fill:#262626;" transform="translate(20.878125 163.111259)scale(0.1 -0.1)">
       <use xlink:href="#DejaVuSans-49"/>
       <use x="63.623047" xlink:href="#DejaVuSans-48"/>
       <use x="127.246094" xlink:href="#DejaVuSans-48"/>
       <use x="190.869141" xlink:href="#DejaVuSans-48"/>
      </g>
     </g>
    </g>
    <g id="ytick_4">
     <g id="line2d_13">
      <path clip-path="url(#p4b3466bfc8)" d="M 53.328125 108.360061 
L 410.448125 108.360061 
" style="fill:none;stroke:#cccccc;stroke-linecap:round;stroke-width:0.8;"/>
     </g>
     <g id="text_14">
      <!-- 1500 -->
      <g style="fill:#262626;" transform="translate(20.878125 112.159279)scale(0.1 -0.1)">
       <use xlink:href="#DejaVuSans-49"/>
       <use x="63.623047" xlink:href="#DejaVuSans-53"/>
       <use x="127.246094" xlink:href="#DejaVuSans-48"/>
       <use x="190.869141" xlink:href="#DejaVuSans-48"/>
      </g>
     </g>
    </g>
    <g id="ytick_5">
     <g id="line2d_14">
      <path clip-path="url(#p4b3466bfc8)" d="M 53.328125 57.408081 
L 410.448125 57.408081 
" style="fill:none;stroke:#cccccc;stroke-linecap:round;stroke-width:0.8;"/>
     </g>
     <g id="text_15">
      <!-- 2000 -->
      <g style="fill:#262626;" transform="translate(20.878125 61.2073)scale(0.1 -0.1)">
       <use xlink:href="#DejaVuSans-50"/>
       <use x="63.623047" xlink:href="#DejaVuSans-48"/>
       <use x="127.246094" xlink:href="#DejaVuSans-48"/>
       <use x="190.869141" xlink:href="#DejaVuSans-48"/>
      </g>
     </g>
    </g>
    <g id="text_16">
     <!-- cells number -->
     <defs>
      <path d="M 48.78125 52.59375 
L 48.78125 44.1875 
Q 44.96875 46.296875 41.140625 47.34375 
Q 37.3125 48.390625 33.40625 48.390625 
Q 24.65625 48.390625 19.8125 42.84375 
Q 14.984375 37.3125 14.984375 27.296875 
Q 14.984375 17.28125 19.8125 11.734375 
Q 24.65625 6.203125 33.40625 6.203125 
Q 37.3125 6.203125 41.140625 7.25 
Q 44.96875 8.296875 48.78125 10.40625 
L 48.78125 2.09375 
Q 45.015625 0.34375 40.984375 -0.53125 
Q 36.96875 -1.421875 32.421875 -1.421875 
Q 20.0625 -1.421875 12.78125 6.34375 
Q 5.515625 14.109375 5.515625 27.296875 
Q 5.515625 40.671875 12.859375 48.328125 
Q 20.21875 56 33.015625 56 
Q 37.15625 56 41.109375 55.140625 
Q 45.0625 54.296875 48.78125 52.59375 
z
" id="DejaVuSans-99"/>
      <path d="M 9.421875 75.984375 
L 18.40625 75.984375 
L 18.40625 0 
L 9.421875 0 
z
" id="DejaVuSans-108"/>
      <path d="M 54.890625 33.015625 
L 54.890625 0 
L 45.90625 0 
L 45.90625 32.71875 
Q 45.90625 40.484375 42.875 44.328125 
Q 39.84375 48.1875 33.796875 48.1875 
Q 26.515625 48.1875 22.3125 43.546875 
Q 18.109375 38.921875 18.109375 30.90625 
L 18.109375 0 
L 9.078125 0 
L 9.078125 54.6875 
L 18.109375 54.6875 
L 18.109375 46.1875 
Q 21.34375 51.125 25.703125 53.5625 
Q 30.078125 56 35.796875 56 
Q 45.21875 56 50.046875 50.171875 
Q 54.890625 44.34375 54.890625 33.015625 
z
" id="DejaVuSans-110"/>
      <path d="M 8.5 21.578125 
L 8.5 54.6875 
L 17.484375 54.6875 
L 17.484375 21.921875 
Q 17.484375 14.15625 20.5 10.265625 
Q 23.53125 6.390625 29.59375 6.390625 
Q 36.859375 6.390625 41.078125 11.03125 
Q 45.3125 15.671875 45.3125 23.6875 
L 45.3125 54.6875 
L 54.296875 54.6875 
L 54.296875 0 
L 45.3125 0 
L 45.3125 8.40625 
Q 42.046875 3.421875 37.71875 1 
Q 33.40625 -1.421875 27.6875 -1.421875 
Q 18.265625 -1.421875 13.375 4.4375 
Q 8.5 10.296875 8.5 21.578125 
z
M 31.109375 56 
z
" id="DejaVuSans-117"/>
      <path d="M 48.6875 27.296875 
Q 48.6875 37.203125 44.609375 42.84375 
Q 40.53125 48.484375 33.40625 48.484375 
Q 26.265625 48.484375 22.1875 42.84375 
Q 18.109375 37.203125 18.109375 27.296875 
Q 18.109375 17.390625 22.1875 11.75 
Q 26.265625 6.109375 33.40625 6.109375 
Q 40.53125 6.109375 44.609375 11.75 
Q 48.6875 17.390625 48.6875 27.296875 
z
M 18.109375 46.390625 
Q 20.953125 51.265625 25.265625 53.625 
Q 29.59375 56 35.59375 56 
Q 45.5625 56 51.78125 48.09375 
Q 58.015625 40.1875 58.015625 27.296875 
Q 58.015625 14.40625 51.78125 6.484375 
Q 45.5625 -1.421875 35.59375 -1.421875 
Q 29.59375 -1.421875 25.265625 0.953125 
Q 20.953125 3.328125 18.109375 8.203125 
L 18.109375 0 
L 9.078125 0 
L 9.078125 75.984375 
L 18.109375 75.984375 
z
" id="DejaVuSans-98"/>
      <path d="M 41.109375 46.296875 
Q 39.59375 47.171875 37.8125 47.578125 
Q 36.03125 48 33.890625 48 
Q 26.265625 48 22.1875 43.046875 
Q 18.109375 38.09375 18.109375 28.8125 
L 18.109375 0 
L 9.078125 0 
L 9.078125 54.6875 
L 18.109375 54.6875 
L 18.109375 46.1875 
Q 20.953125 51.171875 25.484375 53.578125 
Q 30.03125 56 36.53125 56 
Q 37.453125 56 38.578125 55.875 
Q 39.703125 55.765625 41.0625 55.515625 
z
" id="DejaVuSans-114"/>
     </defs>
     <g style="fill:#262626;" transform="translate(14.798438 172.567719)rotate(-90)scale(0.1 -0.1)">
      <use xlink:href="#DejaVuSans-99"/>
      <use x="54.980469" xlink:href="#DejaVuSans-101"/>
      <use x="116.503906" xlink:href="#DejaVuSans-108"/>
      <use x="144.287109" xlink:href="#DejaVuSans-108"/>
      <use x="172.070312" xlink:href="#DejaVuSans-115"/>
      <use x="224.169922" xlink:href="#DejaVuSans-32"/>
      <use x="255.957031" xlink:href="#DejaVuSans-110"/>
      <use x="319.335938" xlink:href="#DejaVuSans-117"/>
      <use x="382.714844" xlink:href="#DejaVuSans-109"/>
      <use x="480.126953" xlink:href="#DejaVuSans-98"/>
      <use x="543.603516" xlink:href="#DejaVuSans-101"/>
      <use x="605.126953" xlink:href="#DejaVuSans-114"/>
     </g>
    </g>
   </g>
   <g id="line2d_15">
    <path clip-path="url(#p4b3466bfc8)" d="M 69.560852 199.054585 
L 71.188193 171.234804 
L 72.815534 141.886463 
L 75.256546 96.335393 
L 76.070217 87.265941 
L 76.883887 70.7575 
L 77.697558 59.853776 
L 78.511228 51.293843 
L 79.324899 47.421493 
L 80.95224 43.549142 
L 81.76591 45.179606 
L 82.579581 55.57381 
L 83.393251 60.770912 
L 84.206922 72.387963 
L 85.020593 81.457415 
L 85.834263 92.972563 
L 86.647934 108.86958 
L 89.088945 145.14739 
L 89.902616 154.522554 
L 90.716286 168.687205 
L 91.529957 176.53381 
L 93.970968 208.022133 
L 95.59831 226.262942 
L 96.41198 231.969564 
L 97.225651 235.943818 
L 98.039321 240.835208 
L 98.852992 242.567575 
L 100.480333 248.172293 
L 101.294003 250.108468 
L 102.107674 252.350356 
L 102.921344 253.980819 
L 103.735015 254.592243 
L 104.548685 256.120802 
L 106.176027 258.362689 
L 109.430709 259.891249 
L 110.244379 259.891249 
L 111.05805 259.483633 
L 111.87172 259.687441 
L 112.685391 260.095056 
L 116.753744 261.012192 
L 117.567414 261.012192 
L 118.381085 261.216 
L 394.215398 261.216 
L 394.215398 261.216 
" style="fill:none;stroke:#000080;stroke-linecap:round;stroke-width:1.5;"/>
   </g>
   <g id="line2d_16">
    <path clip-path="url(#p4b3466bfc8)" d="M 69.560852 198.850777 
L 70.374523 187.947053 
L 71.188193 174.49573 
L 72.001864 163.286295 
L 74.442876 114.881914 
L 76.070217 89.711636 
L 77.697558 71.878443 
L 78.511228 63.929934 
L 79.324899 54.656674 
L 80.138569 51.497651 
L 80.95224 52.109075 
L 81.76591 55.268098 
L 82.579581 55.879521 
L 85.834263 90.017348 
L 86.647934 102.653439 
L 88.275275 117.837129 
L 89.088945 130.47322 
L 89.902616 144.841678 
L 92.343627 181.323296 
L 93.157298 190.902268 
L 93.970968 197.424121 
L 96.41198 221.677264 
L 98.039321 231.35814 
L 98.852992 238.083801 
L 101.294003 247.968485 
L 102.107674 249.089429 
L 102.921344 252.656067 
L 103.735015 254.999858 
L 105.362356 257.547457 
L 106.176027 257.547457 
L 106.989697 258.158881 
L 107.803368 259.177921 
L 108.617038 259.177921 
L 109.430709 259.483633 
L 110.244379 260.095056 
L 111.05805 259.789345 
L 111.87172 260.70648 
L 114.312732 260.808384 
L 115.940073 261.114096 
L 117.567414 261.216 
L 394.215398 261.216 
L 394.215398 261.216 
" style="fill:none;stroke:#0000f1;stroke-linecap:round;stroke-width:1.5;"/>
   </g>
   <g id="line2d_17">
    <path clip-path="url(#p4b3466bfc8)" d="M 69.560852 199.054585 
L 73.629205 125.683734 
L 74.442876 108.461965 
L 76.070217 80.845992 
L 76.883887 68.209901 
L 77.697558 57.509985 
L 78.511228 48.848148 
L 80.138569 34.683498 
L 80.95224 31.830187 
L 81.76591 36.212057 
L 82.579581 43.75295 
L 84.206922 64.33755 
L 85.834263 87.673557 
L 86.647934 100.003936 
L 87.461604 116.206666 
L 89.088945 141.784559 
L 90.716286 167.362453 
L 92.343627 187.947053 
L 94.784639 210.365924 
L 96.41198 221.371552 
L 97.225651 224.836286 
L 98.039321 233.192411 
L 99.666662 242.873287 
L 100.480333 246.134214 
L 102.921344 252.757971 
L 104.548685 255.611282 
L 105.362356 256.630322 
L 106.989697 256.936034 
L 107.803368 257.853169 
L 108.617038 257.955073 
L 109.430709 258.872209 
L 111.87172 260.70648 
L 112.685391 261.012192 
L 114.312732 261.114096 
L 394.215398 261.216 
L 394.215398 261.216 
" style="fill:none;stroke:#004cff;stroke-linecap:round;stroke-width:1.5;"/>
   </g>
   <g id="line2d_18">
    <path clip-path="url(#p4b3466bfc8)" d="M 69.560852 199.054585 
L 71.188193 170.215764 
L 75.256546 92.870659 
L 77.697558 64.84707 
L 78.511228 60.159488 
L 79.324899 53.128115 
L 80.138569 51.803363 
L 80.95224 52.720499 
L 81.76591 52.210979 
L 82.579581 48.440532 
L 83.393251 57.815697 
L 84.206922 63.522318 
L 85.834263 86.960229 
L 87.461604 112.538123 
L 88.275275 120.996152 
L 89.902616 145.14739 
L 91.529957 171.948131 
L 93.157298 191.921307 
L 94.784639 207.920229 
L 96.41198 221.06584 
L 97.225651 229.625773 
L 98.039321 233.600027 
L 98.852992 238.287609 
L 99.666662 243.688519 
L 100.480333 247.866581 
L 101.294003 248.681813 
L 102.107674 250.9237 
L 102.921344 252.452259 
L 103.735015 253.675107 
L 104.548685 254.388435 
L 106.176027 257.037938 
L 106.989697 257.955073 
L 107.803368 258.260785 
L 108.617038 258.872209 
L 109.430709 259.789345 
L 110.244379 260.400768 
L 111.05805 260.70648 
L 115.126403 261.114096 
L 394.215398 261.216 
L 394.215398 261.216 
" style="fill:none;stroke:#00b0ff;stroke-linecap:round;stroke-width:1.5;"/>
   </g>
   <g id="line2d_19">
    <path clip-path="url(#p4b3466bfc8)" d="M 69.560852 198.748873 
L 70.374523 186.31659 
L 71.188193 171.438612 
L 72.001864 158.904425 
L 73.629205 124.460886 
L 74.442876 104.080094 
L 75.256546 88.590693 
L 76.070217 77.279353 
L 76.883887 62.808991 
L 77.697558 52.312883 
L 78.511228 37.944425 
L 79.324899 26.938797 
L 80.138569 21.537887 
L 80.95224 20.824559 
L 81.76591 19.296 
L 82.579581 28.56926 
L 83.393251 33.46065 
L 84.206922 39.574888 
L 85.020593 52.924307 
L 86.647934 75.954602 
L 88.275275 104.385806 
L 89.088945 114.474298 
L 89.902616 131.594163 
L 91.529957 154.522554 
L 92.343627 170.11386 
L 93.157298 179.89664 
L 96.41198 212.709715 
L 97.225651 222.594399 
L 98.039321 228.504829 
L 98.852992 231.561948 
L 99.666662 235.74001 
L 100.480333 242.567575 
L 101.294003 246.03231 
L 102.107674 248.783717 
L 102.921344 252.146548 
L 103.735015 253.878915 
L 104.548685 255.916994 
L 105.362356 256.732226 
L 106.176027 258.260785 
L 108.617038 259.585537 
L 110.244379 260.502672 
L 112.685391 260.910288 
L 113.499061 260.604576 
L 115.126403 260.808384 
L 115.940073 261.114096 
L 117.567414 261.216 
L 394.215398 261.216 
L 394.215398 261.216 
" style="fill:none;stroke:#29ffce;stroke-linecap:round;stroke-width:1.5;"/>
   </g>
   <g id="line2d_20">
    <path clip-path="url(#p4b3466bfc8)" d="M 69.560852 199.564104 
L 70.374523 186.928013 
L 71.188193 170.725284 
L 72.001864 151.56734 
L 74.442876 106.01627 
L 77.697558 53.026211 
L 78.511228 40.39012 
L 79.324899 35.804441 
L 80.138569 27.244509 
L 80.95224 22.455023 
L 81.76591 21.945503 
L 82.579581 24.289294 
L 83.393251 34.173978 
L 85.020593 46.911973 
L 85.834263 57.000465 
L 88.275275 95.418258 
L 90.716286 143.924543 
L 92.343627 164.101527 
L 93.157298 176.839521 
L 93.970968 183.157567 
L 94.784639 193.144155 
L 95.59831 205.474534 
L 96.41198 213.932563 
L 97.225651 219.333473 
L 98.039321 227.791501 
L 98.852992 232.988603 
L 99.666662 236.045722 
L 100.480333 240.019976 
L 102.107674 246.134214 
L 102.921344 249.90466 
L 103.735015 252.757971 
L 104.548685 254.694147 
L 105.362356 256.120802 
L 106.176027 256.936034 
L 106.989697 257.34365 
L 107.803368 258.566497 
L 110.244379 259.076017 
L 111.05805 259.789345 
L 111.87172 259.993152 
L 113.499061 259.891249 
L 114.312732 260.400768 
L 115.126403 260.298864 
L 115.940073 259.789345 
L 117.567414 260.298864 
L 119.194755 259.993152 
L 120.008426 260.095056 
L 121.635767 260.808384 
L 125.70412 261.216 
L 394.215398 261.216 
L 394.215398 261.216 
" style="fill:none;stroke:#7dff7a;stroke-linecap:round;stroke-width:1.5;"/>
   </g>
   <g id="line2d_21">
    <path clip-path="url(#p4b3466bfc8)" d="M 69.560852 200.48124 
L 72.001864 157.375865 
L 72.815534 138.014113 
L 73.629205 122.728519 
L 74.442876 105.099134 
L 75.256546 91.545907 
L 76.070217 80.336472 
L 76.883887 73.305099 
L 77.697558 63.420414 
L 80.138569 49.051956 
L 80.95224 49.765284 
L 81.76591 52.720499 
L 82.579581 56.490945 
L 83.393251 61.586143 
L 84.206922 72.082251 
L 85.020593 84.106918 
L 86.647934 104.48771 
L 87.461604 119.875208 
L 88.275275 132.001779 
L 89.088945 139.950288 
L 90.716286 164.71295 
L 91.529957 176.228098 
L 92.343627 182.648047 
L 93.157298 193.347963 
L 93.970968 206.187862 
L 94.784639 211.384964 
L 95.59831 220.55632 
L 97.225651 233.701931 
L 98.039321 236.453338 
L 98.852992 241.14092 
L 99.666662 242.975191 
L 100.480333 245.115174 
L 101.294003 246.54183 
L 102.107674 248.478005 
L 103.735015 250.821796 
L 105.362356 254.082723 
L 106.176027 254.490339 
L 106.989697 256.222706 
L 108.617038 258.668401 
L 109.430709 259.279825 
L 111.05805 259.993152 
L 111.87172 260.70648 
L 114.312732 261.216 
L 394.215398 261.216 
L 394.215398 261.216 
" style="fill:none;stroke:#ceff29;stroke-linecap:round;stroke-width:1.5;"/>
   </g>
   <g id="line2d_22">
    <path clip-path="url(#p4b3466bfc8)" d="M 69.560852 198.646969 
L 71.188193 171.64242 
L 72.001864 155.847306 
L 73.629205 127.823717 
L 74.442876 112.436219 
L 76.883887 75.546986 
L 77.697558 64.948974 
L 79.324899 47.931013 
L 80.138569 45.791029 
L 80.95224 44.77199 
L 81.76591 48.032917 
L 82.579581 54.962386 
L 83.393251 58.325217 
L 84.206922 67.496573 
L 85.020593 73.407003 
L 85.834263 87.164037 
L 87.461604 121.403767 
L 89.902616 156.866345 
L 92.343627 192.227019 
L 93.157298 199.869816 
L 93.970968 209.346885 
L 95.59831 225.345806 
L 96.41198 230.84862 
L 98.039321 239.510457 
L 98.852992 244.299943 
L 99.666662 246.03231 
L 101.294003 252.044644 
L 102.107674 254.184627 
L 102.921344 255.509378 
L 103.735015 256.426514 
L 104.548685 257.955073 
L 105.362356 257.955073 
L 106.989697 259.381729 
L 108.617038 260.095056 
L 109.430709 260.808384 
L 113.499061 261.216 
L 394.215398 261.216 
L 394.215398 261.216 
" style="fill:none;stroke:#ffc400;stroke-linecap:round;stroke-width:1.5;"/>
   </g>
   <g id="line2d_23">
    <path clip-path="url(#p4b3466bfc8)" d="M 69.560852 197.933641 
L 71.188193 172.253843 
L 72.815534 141.886463 
L 75.256546 94.603026 
L 76.883887 68.311805 
L 77.697558 59.344256 
L 78.511228 54.656674 
L 79.324899 48.64434 
L 80.138569 48.134821 
L 80.95224 48.134821 
L 81.76591 50.376708 
L 83.393251 60.567104 
L 84.206922 67.904189 
L 85.020593 72.184155 
L 85.834263 82.476455 
L 87.461604 108.461965 
L 88.275275 126.906581 
L 89.902616 149.733068 
L 90.716286 166.547222 
L 92.343627 190.596556 
L 93.157298 200.277432 
L 93.970968 207.818325 
L 94.784639 216.582066 
L 95.59831 223.817247 
L 96.41198 229.218157 
L 97.225651 235.638106 
L 98.852992 244.911366 
L 99.666662 247.458965 
L 100.480333 250.9237 
L 101.294003 252.350356 
L 102.107674 254.897955 
L 102.921344 256.222706 
L 103.735015 256.732226 
L 104.548685 257.547457 
L 105.362356 258.668401 
L 106.176027 258.770305 
L 106.989697 259.076017 
L 107.803368 259.177921 
L 108.617038 259.585537 
L 109.430709 260.298864 
L 110.244379 260.400768 
L 111.87172 260.298864 
L 112.685391 260.910288 
L 113.499061 260.808384 
L 116.753744 261.114096 
L 394.215398 261.216 
L 394.215398 261.216 
" style="fill:none;stroke:#ff6800;stroke-linecap:round;stroke-width:1.5;"/>
   </g>
   <g id="line2d_24">
    <path clip-path="url(#p4b3466bfc8)" d="M 69.560852 199.054585 
L 70.374523 186.418494 
L 73.629205 121.505671 
L 74.442876 106.831501 
L 76.070217 83.495495 
L 76.883887 75.546986 
L 77.697558 63.420414 
L 78.511228 53.230019 
L 79.324899 47.625301 
L 80.95224 40.797735 
L 81.76591 43.039623 
L 84.206922 68.821324 
L 85.020593 75.241274 
L 85.834263 90.32306 
L 86.647934 100.513456 
L 87.461604 120.282824 
L 89.902616 161.35012 
L 90.716286 174.903346 
L 93.157298 208.022133 
L 93.970968 215.563026 
L 94.784639 221.881072 
L 95.59831 229.116253 
L 96.41198 234.517163 
L 97.225651 238.899033 
L 98.039321 244.299943 
L 98.852992 247.866581 
L 99.666662 250.821796 
L 100.480333 253.063683 
L 101.294003 253.675107 
L 102.107674 255.81509 
L 102.921344 256.83413 
L 103.735015 256.630322 
L 104.548685 257.139842 
L 105.362356 258.260785 
L 106.176027 258.056977 
L 106.989697 258.260785 
L 107.803368 258.872209 
L 108.617038 259.076017 
L 111.05805 260.910288 
L 112.685391 261.216 
L 394.215398 261.216 
L 394.215398 261.216 
" style="fill:none;stroke:#f10800;stroke-linecap:round;stroke-width:1.5;"/>
   </g>
   <g id="patch_3">
    <path d="M 53.328125 273.312 
L 53.328125 7.2 
" style="fill:none;stroke:#cccccc;stroke-linecap:square;stroke-linejoin:miter;stroke-width:0.8;"/>
   </g>
   <g id="patch_4">
    <path d="M 410.448125 273.312 
L 410.448125 7.2 
" style="fill:none;stroke:#cccccc;stroke-linecap:square;stroke-linejoin:miter;stroke-width:0.8;"/>
   </g>
   <g id="patch_5">
    <path d="M 53.328125 273.312 
L 410.448125 273.312 
" style="fill:none;stroke:#cccccc;stroke-linecap:square;stroke-linejoin:miter;stroke-width:0.8;"/>
   </g>
   <g id="patch_6">
    <path d="M 53.328125 7.2 
L 410.448125 7.2 
" style="fill:none;stroke:#cccccc;stroke-linecap:square;stroke-linejoin:miter;stroke-width:0.8;"/>
   </g>
  </g>
 </g>
 <defs>
  <clipPath id="p4b3466bfc8">
   <rect height="266.112" width="357.12" x="53.328125" y="7.2"/>
  </clipPath>
 </defs>
</svg>
