<?xml version="1.0" encoding="utf-8" standalone="no"?>
<!DOCTYPE svg PUBLIC "-//W3C//DTD SVG 1.1//EN"
  "http://www.w3.org/Graphics/SVG/1.1/DTD/svg11.dtd">
<!-- Created with matplotlib (https://matplotlib.org/) -->
<svg height="325.986375pt" version="1.1" viewBox="0 0 424.010625 325.986375" width="424.010625pt" xmlns="http://www.w3.org/2000/svg" xmlns:xlink="http://www.w3.org/1999/xlink">
 <defs>
  <style type="text/css">
*{stroke-linecap:butt;stroke-linejoin:round;white-space:pre;}
  </style>
 </defs>
 <g id="figure_1">
  <g id="patch_1">
   <path d="M 0 325.986375 
L 424.010625 325.986375 
L 424.010625 0 
L 0 0 
z
" style="fill:#ffffff;"/>
  </g>
  <g id="axes_1">
   <g id="patch_2">
    <path d="M 59.690625 288.430125 
L 416.810625 288.430125 
L 416.810625 22.318125 
L 59.690625 22.318125 
z
" style="fill:#ffffff;"/>
   </g>
   <g id="matplotlib.axis_1">
    <g id="xtick_1">
     <g id="line2d_1">
      <path clip-path="url(#pb300335f0e)" d="M 75.923352 288.430125 
L 75.923352 22.318125 
" style="fill:none;stroke:#cccccc;stroke-linecap:round;stroke-width:0.8;"/>
     </g>
     <g id="text_1">
      <!-- 0 -->
      <defs>
       <path d="M 31.78125 66.40625 
Q 24.171875 66.40625 20.328125 58.90625 
Q 16.5 51.421875 16.5 36.375 
Q 16.5 21.390625 20.328125 13.890625 
Q 24.171875 6.390625 31.78125 6.390625 
Q 39.453125 6.390625 43.28125 13.890625 
Q 47.125 21.390625 47.125 36.375 
Q 47.125 51.421875 43.28125 58.90625 
Q 39.453125 66.40625 31.78125 66.40625 
z
M 31.78125 74.21875 
Q 44.046875 74.21875 50.515625 64.515625 
Q 56.984375 54.828125 56.984375 36.375 
Q 56.984375 17.96875 50.515625 8.265625 
Q 44.046875 -1.421875 31.78125 -1.421875 
Q 19.53125 -1.421875 13.0625 8.265625 
Q 6.59375 17.96875 6.59375 36.375 
Q 6.59375 54.828125 13.0625 64.515625 
Q 19.53125 74.21875 31.78125 74.21875 
z
" id="DejaVuSans-48"/>
      </defs>
      <g style="fill:#262626;" transform="translate(72.742102 303.028562)scale(0.1 -0.1)">
       <use xlink:href="#DejaVuSans-48"/>
      </g>
     </g>
    </g>
    <g id="xtick_2">
     <g id="line2d_2">
      <path clip-path="url(#pb300335f0e)" d="M 130.122776 288.430125 
L 130.122776 22.318125 
" style="fill:none;stroke:#cccccc;stroke-linecap:round;stroke-width:0.8;"/>
     </g>
     <g id="text_2">
      <!-- 10 -->
      <defs>
       <path d="M 12.40625 8.296875 
L 28.515625 8.296875 
L 28.515625 63.921875 
L 10.984375 60.40625 
L 10.984375 69.390625 
L 28.421875 72.90625 
L 38.28125 72.90625 
L 38.28125 8.296875 
L 54.390625 8.296875 
L 54.390625 0 
L 12.40625 0 
z
" id="DejaVuSans-49"/>
      </defs>
      <g style="fill:#262626;" transform="translate(123.760276 303.028562)scale(0.1 -0.1)">
       <use xlink:href="#DejaVuSans-49"/>
       <use x="63.623047" xlink:href="#DejaVuSans-48"/>
      </g>
     </g>
    </g>
    <g id="xtick_3">
     <g id="line2d_3">
      <path clip-path="url(#pb300335f0e)" d="M 184.322199 288.430125 
L 184.322199 22.318125 
" style="fill:none;stroke:#cccccc;stroke-linecap:round;stroke-width:0.8;"/>
     </g>
     <g id="text_3">
      <!-- 20 -->
      <defs>
       <path d="M 19.1875 8.296875 
L 53.609375 8.296875 
L 53.609375 0 
L 7.328125 0 
L 7.328125 8.296875 
Q 12.9375 14.109375 22.625 23.890625 
Q 32.328125 33.6875 34.8125 36.53125 
Q 39.546875 41.84375 41.421875 45.53125 
Q 43.3125 49.21875 43.3125 52.78125 
Q 43.3125 58.59375 39.234375 62.25 
Q 35.15625 65.921875 28.609375 65.921875 
Q 23.96875 65.921875 18.8125 64.3125 
Q 13.671875 62.703125 7.8125 59.421875 
L 7.8125 69.390625 
Q 13.765625 71.78125 18.9375 73 
Q 24.125 74.21875 28.421875 74.21875 
Q 39.75 74.21875 46.484375 68.546875 
Q 53.21875 62.890625 53.21875 53.421875 
Q 53.21875 48.921875 51.53125 44.890625 
Q 49.859375 40.875 45.40625 35.40625 
Q 44.1875 33.984375 37.640625 27.21875 
Q 31.109375 20.453125 19.1875 8.296875 
z
" id="DejaVuSans-50"/>
      </defs>
      <g style="fill:#262626;" transform="translate(177.959699 303.028562)scale(0.1 -0.1)">
       <use xlink:href="#DejaVuSans-50"/>
       <use x="63.623047" xlink:href="#DejaVuSans-48"/>
      </g>
     </g>
    </g>
    <g id="xtick_4">
     <g id="line2d_4">
      <path clip-path="url(#pb300335f0e)" d="M 238.521622 288.430125 
L 238.521622 22.318125 
" style="fill:none;stroke:#cccccc;stroke-linecap:round;stroke-width:0.8;"/>
     </g>
     <g id="text_4">
      <!-- 30 -->
      <defs>
       <path d="M 40.578125 39.3125 
Q 47.65625 37.796875 51.625 33 
Q 55.609375 28.21875 55.609375 21.1875 
Q 55.609375 10.40625 48.1875 4.484375 
Q 40.765625 -1.421875 27.09375 -1.421875 
Q 22.515625 -1.421875 17.65625 -0.515625 
Q 12.796875 0.390625 7.625 2.203125 
L 7.625 11.71875 
Q 11.71875 9.328125 16.59375 8.109375 
Q 21.484375 6.890625 26.8125 6.890625 
Q 36.078125 6.890625 40.9375 10.546875 
Q 45.796875 14.203125 45.796875 21.1875 
Q 45.796875 27.640625 41.28125 31.265625 
Q 36.765625 34.90625 28.71875 34.90625 
L 20.21875 34.90625 
L 20.21875 43.015625 
L 29.109375 43.015625 
Q 36.375 43.015625 40.234375 45.921875 
Q 44.09375 48.828125 44.09375 54.296875 
Q 44.09375 59.90625 40.109375 62.90625 
Q 36.140625 65.921875 28.71875 65.921875 
Q 24.65625 65.921875 20.015625 65.03125 
Q 15.375 64.15625 9.8125 62.3125 
L 9.8125 71.09375 
Q 15.4375 72.65625 20.34375 73.4375 
Q 25.25 74.21875 29.59375 74.21875 
Q 40.828125 74.21875 47.359375 69.109375 
Q 53.90625 64.015625 53.90625 55.328125 
Q 53.90625 49.265625 50.4375 45.09375 
Q 46.96875 40.921875 40.578125 39.3125 
z
" id="DejaVuSans-51"/>
      </defs>
      <g style="fill:#262626;" transform="translate(232.159122 303.028562)scale(0.1 -0.1)">
       <use xlink:href="#DejaVuSans-51"/>
       <use x="63.623047" xlink:href="#DejaVuSans-48"/>
      </g>
     </g>
    </g>
    <g id="xtick_5">
     <g id="line2d_5">
      <path clip-path="url(#pb300335f0e)" d="M 292.721045 288.430125 
L 292.721045 22.318125 
" style="fill:none;stroke:#cccccc;stroke-linecap:round;stroke-width:0.8;"/>
     </g>
     <g id="text_5">
      <!-- 40 -->
      <defs>
       <path d="M 37.796875 64.3125 
L 12.890625 25.390625 
L 37.796875 25.390625 
z
M 35.203125 72.90625 
L 47.609375 72.90625 
L 47.609375 25.390625 
L 58.015625 25.390625 
L 58.015625 17.1875 
L 47.609375 17.1875 
L 47.609375 0 
L 37.796875 0 
L 37.796875 17.1875 
L 4.890625 17.1875 
L 4.890625 26.703125 
z
" id="DejaVuSans-52"/>
      </defs>
      <g style="fill:#262626;" transform="translate(286.358545 303.028562)scale(0.1 -0.1)">
       <use xlink:href="#DejaVuSans-52"/>
       <use x="63.623047" xlink:href="#DejaVuSans-48"/>
      </g>
     </g>
    </g>
    <g id="xtick_6">
     <g id="line2d_6">
      <path clip-path="url(#pb300335f0e)" d="M 346.920469 288.430125 
L 346.920469 22.318125 
" style="fill:none;stroke:#cccccc;stroke-linecap:round;stroke-width:0.8;"/>
     </g>
     <g id="text_6">
      <!-- 50 -->
      <defs>
       <path d="M 10.796875 72.90625 
L 49.515625 72.90625 
L 49.515625 64.59375 
L 19.828125 64.59375 
L 19.828125 46.734375 
Q 21.96875 47.46875 24.109375 47.828125 
Q 26.265625 48.1875 28.421875 48.1875 
Q 40.625 48.1875 47.75 41.5 
Q 54.890625 34.8125 54.890625 23.390625 
Q 54.890625 11.625 47.5625 5.09375 
Q 40.234375 -1.421875 26.90625 -1.421875 
Q 22.3125 -1.421875 17.546875 -0.640625 
Q 12.796875 0.140625 7.71875 1.703125 
L 7.71875 11.625 
Q 12.109375 9.234375 16.796875 8.0625 
Q 21.484375 6.890625 26.703125 6.890625 
Q 35.15625 6.890625 40.078125 11.328125 
Q 45.015625 15.765625 45.015625 23.390625 
Q 45.015625 31 40.078125 35.4375 
Q 35.15625 39.890625 26.703125 39.890625 
Q 22.75 39.890625 18.8125 39.015625 
Q 14.890625 38.140625 10.796875 36.28125 
z
" id="DejaVuSans-53"/>
      </defs>
      <g style="fill:#262626;" transform="translate(340.557969 303.028562)scale(0.1 -0.1)">
       <use xlink:href="#DejaVuSans-53"/>
       <use x="63.623047" xlink:href="#DejaVuSans-48"/>
      </g>
     </g>
    </g>
    <g id="xtick_7">
     <g id="line2d_7">
      <path clip-path="url(#pb300335f0e)" d="M 401.119892 288.430125 
L 401.119892 22.318125 
" style="fill:none;stroke:#cccccc;stroke-linecap:round;stroke-width:0.8;"/>
     </g>
     <g id="text_7">
      <!-- 60 -->
      <defs>
       <path d="M 33.015625 40.375 
Q 26.375 40.375 22.484375 35.828125 
Q 18.609375 31.296875 18.609375 23.390625 
Q 18.609375 15.53125 22.484375 10.953125 
Q 26.375 6.390625 33.015625 6.390625 
Q 39.65625 6.390625 43.53125 10.953125 
Q 47.40625 15.53125 47.40625 23.390625 
Q 47.40625 31.296875 43.53125 35.828125 
Q 39.65625 40.375 33.015625 40.375 
z
M 52.59375 71.296875 
L 52.59375 62.3125 
Q 48.875 64.0625 45.09375 64.984375 
Q 41.3125 65.921875 37.59375 65.921875 
Q 27.828125 65.921875 22.671875 59.328125 
Q 17.53125 52.734375 16.796875 39.40625 
Q 19.671875 43.65625 24.015625 45.921875 
Q 28.375 48.1875 33.59375 48.1875 
Q 44.578125 48.1875 50.953125 41.515625 
Q 57.328125 34.859375 57.328125 23.390625 
Q 57.328125 12.15625 50.6875 5.359375 
Q 44.046875 -1.421875 33.015625 -1.421875 
Q 20.359375 -1.421875 13.671875 8.265625 
Q 6.984375 17.96875 6.984375 36.375 
Q 6.984375 53.65625 15.1875 63.9375 
Q 23.390625 74.21875 37.203125 74.21875 
Q 40.921875 74.21875 44.703125 73.484375 
Q 48.484375 72.75 52.59375 71.296875 
z
" id="DejaVuSans-54"/>
      </defs>
      <g style="fill:#262626;" transform="translate(394.757392 303.028562)scale(0.1 -0.1)">
       <use xlink:href="#DejaVuSans-54"/>
       <use x="63.623047" xlink:href="#DejaVuSans-48"/>
      </g>
     </g>
    </g>
    <g id="text_8">
     <!-- time (days) -->
     <defs>
      <path d="M 18.3125 70.21875 
L 18.3125 54.6875 
L 36.8125 54.6875 
L 36.8125 47.703125 
L 18.3125 47.703125 
L 18.3125 18.015625 
Q 18.3125 11.328125 20.140625 9.421875 
Q 21.96875 7.515625 27.59375 7.515625 
L 36.8125 7.515625 
L 36.8125 0 
L 27.59375 0 
Q 17.1875 0 13.234375 3.875 
Q 9.28125 7.765625 9.28125 18.015625 
L 9.28125 47.703125 
L 2.6875 47.703125 
L 2.6875 54.6875 
L 9.28125 54.6875 
L 9.28125 70.21875 
z
" id="DejaVuSans-116"/>
      <path d="M 9.421875 54.6875 
L 18.40625 54.6875 
L 18.40625 0 
L 9.421875 0 
z
M 9.421875 75.984375 
L 18.40625 75.984375 
L 18.40625 64.59375 
L 9.421875 64.59375 
z
" id="DejaVuSans-105"/>
      <path d="M 52 44.1875 
Q 55.375 50.25 60.0625 53.125 
Q 64.75 56 71.09375 56 
Q 79.640625 56 84.28125 50.015625 
Q 88.921875 44.046875 88.921875 33.015625 
L 88.921875 0 
L 79.890625 0 
L 79.890625 32.71875 
Q 79.890625 40.578125 77.09375 44.375 
Q 74.3125 48.1875 68.609375 48.1875 
Q 61.625 48.1875 57.5625 43.546875 
Q 53.515625 38.921875 53.515625 30.90625 
L 53.515625 0 
L 44.484375 0 
L 44.484375 32.71875 
Q 44.484375 40.625 41.703125 44.40625 
Q 38.921875 48.1875 33.109375 48.1875 
Q 26.21875 48.1875 22.15625 43.53125 
Q 18.109375 38.875 18.109375 30.90625 
L 18.109375 0 
L 9.078125 0 
L 9.078125 54.6875 
L 18.109375 54.6875 
L 18.109375 46.1875 
Q 21.1875 51.21875 25.484375 53.609375 
Q 29.78125 56 35.6875 56 
Q 41.65625 56 45.828125 52.96875 
Q 50 49.953125 52 44.1875 
z
" id="DejaVuSans-109"/>
      <path d="M 56.203125 29.59375 
L 56.203125 25.203125 
L 14.890625 25.203125 
Q 15.484375 15.921875 20.484375 11.0625 
Q 25.484375 6.203125 34.421875 6.203125 
Q 39.59375 6.203125 44.453125 7.46875 
Q 49.3125 8.734375 54.109375 11.28125 
L 54.109375 2.78125 
Q 49.265625 0.734375 44.1875 -0.34375 
Q 39.109375 -1.421875 33.890625 -1.421875 
Q 20.796875 -1.421875 13.15625 6.1875 
Q 5.515625 13.8125 5.515625 26.8125 
Q 5.515625 40.234375 12.765625 48.109375 
Q 20.015625 56 32.328125 56 
Q 43.359375 56 49.78125 48.890625 
Q 56.203125 41.796875 56.203125 29.59375 
z
M 47.21875 32.234375 
Q 47.125 39.59375 43.09375 43.984375 
Q 39.0625 48.390625 32.421875 48.390625 
Q 24.90625 48.390625 20.390625 44.140625 
Q 15.875 39.890625 15.1875 32.171875 
z
" id="DejaVuSans-101"/>
      <path id="DejaVuSans-32"/>
      <path d="M 31 75.875 
Q 24.46875 64.65625 21.28125 53.65625 
Q 18.109375 42.671875 18.109375 31.390625 
Q 18.109375 20.125 21.3125 9.0625 
Q 24.515625 -2 31 -13.1875 
L 23.1875 -13.1875 
Q 15.875 -1.703125 12.234375 9.375 
Q 8.59375 20.453125 8.59375 31.390625 
Q 8.59375 42.28125 12.203125 53.3125 
Q 15.828125 64.359375 23.1875 75.875 
z
" id="DejaVuSans-40"/>
      <path d="M 45.40625 46.390625 
L 45.40625 75.984375 
L 54.390625 75.984375 
L 54.390625 0 
L 45.40625 0 
L 45.40625 8.203125 
Q 42.578125 3.328125 38.25 0.953125 
Q 33.9375 -1.421875 27.875 -1.421875 
Q 17.96875 -1.421875 11.734375 6.484375 
Q 5.515625 14.40625 5.515625 27.296875 
Q 5.515625 40.1875 11.734375 48.09375 
Q 17.96875 56 27.875 56 
Q 33.9375 56 38.25 53.625 
Q 42.578125 51.265625 45.40625 46.390625 
z
M 14.796875 27.296875 
Q 14.796875 17.390625 18.875 11.75 
Q 22.953125 6.109375 30.078125 6.109375 
Q 37.203125 6.109375 41.296875 11.75 
Q 45.40625 17.390625 45.40625 27.296875 
Q 45.40625 37.203125 41.296875 42.84375 
Q 37.203125 48.484375 30.078125 48.484375 
Q 22.953125 48.484375 18.875 42.84375 
Q 14.796875 37.203125 14.796875 27.296875 
z
" id="DejaVuSans-100"/>
      <path d="M 34.28125 27.484375 
Q 23.390625 27.484375 19.1875 25 
Q 14.984375 22.515625 14.984375 16.5 
Q 14.984375 11.71875 18.140625 8.90625 
Q 21.296875 6.109375 26.703125 6.109375 
Q 34.1875 6.109375 38.703125 11.40625 
Q 43.21875 16.703125 43.21875 25.484375 
L 43.21875 27.484375 
z
M 52.203125 31.203125 
L 52.203125 0 
L 43.21875 0 
L 43.21875 8.296875 
Q 40.140625 3.328125 35.546875 0.953125 
Q 30.953125 -1.421875 24.3125 -1.421875 
Q 15.921875 -1.421875 10.953125 3.296875 
Q 6 8.015625 6 15.921875 
Q 6 25.140625 12.171875 29.828125 
Q 18.359375 34.515625 30.609375 34.515625 
L 43.21875 34.515625 
L 43.21875 35.40625 
Q 43.21875 41.609375 39.140625 45 
Q 35.0625 48.390625 27.6875 48.390625 
Q 23 48.390625 18.546875 47.265625 
Q 14.109375 46.140625 10.015625 43.890625 
L 10.015625 52.203125 
Q 14.9375 54.109375 19.578125 55.046875 
Q 24.21875 56 28.609375 56 
Q 40.484375 56 46.34375 49.84375 
Q 52.203125 43.703125 52.203125 31.203125 
z
" id="DejaVuSans-97"/>
      <path d="M 32.171875 -5.078125 
Q 28.375 -14.84375 24.75 -17.8125 
Q 21.140625 -20.796875 15.09375 -20.796875 
L 7.90625 -20.796875 
L 7.90625 -13.28125 
L 13.1875 -13.28125 
Q 16.890625 -13.28125 18.9375 -11.515625 
Q 21 -9.765625 23.484375 -3.21875 
L 25.09375 0.875 
L 2.984375 54.6875 
L 12.5 54.6875 
L 29.59375 11.921875 
L 46.6875 54.6875 
L 56.203125 54.6875 
z
" id="DejaVuSans-121"/>
      <path d="M 44.28125 53.078125 
L 44.28125 44.578125 
Q 40.484375 46.53125 36.375 47.5 
Q 32.28125 48.484375 27.875 48.484375 
Q 21.1875 48.484375 17.84375 46.4375 
Q 14.5 44.390625 14.5 40.28125 
Q 14.5 37.15625 16.890625 35.375 
Q 19.28125 33.59375 26.515625 31.984375 
L 29.59375 31.296875 
Q 39.15625 29.25 43.1875 25.515625 
Q 47.21875 21.78125 47.21875 15.09375 
Q 47.21875 7.46875 41.1875 3.015625 
Q 35.15625 -1.421875 24.609375 -1.421875 
Q 20.21875 -1.421875 15.453125 -0.5625 
Q 10.6875 0.296875 5.421875 2 
L 5.421875 11.28125 
Q 10.40625 8.6875 15.234375 7.390625 
Q 20.0625 6.109375 24.8125 6.109375 
Q 31.15625 6.109375 34.5625 8.28125 
Q 37.984375 10.453125 37.984375 14.40625 
Q 37.984375 18.0625 35.515625 20.015625 
Q 33.0625 21.96875 24.703125 23.78125 
L 21.578125 24.515625 
Q 13.234375 26.265625 9.515625 29.90625 
Q 5.8125 33.546875 5.8125 39.890625 
Q 5.8125 47.609375 11.28125 51.796875 
Q 16.75 56 26.8125 56 
Q 31.78125 56 36.171875 55.265625 
Q 40.578125 54.546875 44.28125 53.078125 
z
" id="DejaVuSans-115"/>
      <path d="M 8.015625 75.875 
L 15.828125 75.875 
Q 23.140625 64.359375 26.78125 53.3125 
Q 30.421875 42.28125 30.421875 31.390625 
Q 30.421875 20.453125 26.78125 9.375 
Q 23.140625 -1.703125 15.828125 -13.1875 
L 8.015625 -13.1875 
Q 14.5 -2 17.703125 9.0625 
Q 20.90625 20.125 20.90625 31.390625 
Q 20.90625 42.671875 17.703125 53.65625 
Q 14.5 64.65625 8.015625 75.875 
z
" id="DejaVuSans-41"/>
     </defs>
     <g style="fill:#262626;" transform="translate(209.661563 316.706687)scale(0.1 -0.1)">
      <use xlink:href="#DejaVuSans-116"/>
      <use x="39.208984" xlink:href="#DejaVuSans-105"/>
      <use x="66.992188" xlink:href="#DejaVuSans-109"/>
      <use x="164.404297" xlink:href="#DejaVuSans-101"/>
      <use x="225.927734" xlink:href="#DejaVuSans-32"/>
      <use x="257.714844" xlink:href="#DejaVuSans-40"/>
      <use x="296.728516" xlink:href="#DejaVuSans-100"/>
      <use x="360.205078" xlink:href="#DejaVuSans-97"/>
      <use x="421.484375" xlink:href="#DejaVuSans-121"/>
      <use x="480.664062" xlink:href="#DejaVuSans-115"/>
      <use x="532.763672" xlink:href="#DejaVuSans-41"/>
     </g>
    </g>
   </g>
   <g id="matplotlib.axis_2">
    <g id="ytick_1">
     <g id="line2d_8">
      <path clip-path="url(#pb300335f0e)" d="M 59.690625 276.632286 
L 416.810625 276.632286 
" style="fill:none;stroke:#cccccc;stroke-linecap:round;stroke-width:0.8;"/>
     </g>
     <g id="text_9">
      <!-- 0 -->
      <g style="fill:#262626;" transform="translate(46.328125 280.431504)scale(0.1 -0.1)">
       <use xlink:href="#DejaVuSans-48"/>
      </g>
     </g>
    </g>
    <g id="ytick_2">
     <g id="line2d_9">
      <path clip-path="url(#pb300335f0e)" d="M 59.690625 239.362219 
L 416.810625 239.362219 
" style="fill:none;stroke:#cccccc;stroke-linecap:round;stroke-width:0.8;"/>
     </g>
     <g id="text_10">
      <!-- 2000 -->
      <g style="fill:#262626;" transform="translate(27.240625 243.161438)scale(0.1 -0.1)">
       <use xlink:href="#DejaVuSans-50"/>
       <use x="63.623047" xlink:href="#DejaVuSans-48"/>
       <use x="127.246094" xlink:href="#DejaVuSans-48"/>
       <use x="190.869141" xlink:href="#DejaVuSans-48"/>
      </g>
     </g>
    </g>
    <g id="ytick_3">
     <g id="line2d_10">
      <path clip-path="url(#pb300335f0e)" d="M 59.690625 202.092153 
L 416.810625 202.092153 
" style="fill:none;stroke:#cccccc;stroke-linecap:round;stroke-width:0.8;"/>
     </g>
     <g id="text_11">
      <!-- 4000 -->
      <g style="fill:#262626;" transform="translate(27.240625 205.891372)scale(0.1 -0.1)">
       <use xlink:href="#DejaVuSans-52"/>
       <use x="63.623047" xlink:href="#DejaVuSans-48"/>
       <use x="127.246094" xlink:href="#DejaVuSans-48"/>
       <use x="190.869141" xlink:href="#DejaVuSans-48"/>
      </g>
     </g>
    </g>
    <g id="ytick_4">
     <g id="line2d_11">
      <path clip-path="url(#pb300335f0e)" d="M 59.690625 164.822087 
L 416.810625 164.822087 
" style="fill:none;stroke:#cccccc;stroke-linecap:round;stroke-width:0.8;"/>
     </g>
     <g id="text_12">
      <!-- 6000 -->
      <g style="fill:#262626;" transform="translate(27.240625 168.621306)scale(0.1 -0.1)">
       <use xlink:href="#DejaVuSans-54"/>
       <use x="63.623047" xlink:href="#DejaVuSans-48"/>
       <use x="127.246094" xlink:href="#DejaVuSans-48"/>
       <use x="190.869141" xlink:href="#DejaVuSans-48"/>
      </g>
     </g>
    </g>
    <g id="ytick_5">
     <g id="line2d_12">
      <path clip-path="url(#pb300335f0e)" d="M 59.690625 127.552021 
L 416.810625 127.552021 
" style="fill:none;stroke:#cccccc;stroke-linecap:round;stroke-width:0.8;"/>
     </g>
     <g id="text_13">
      <!-- 8000 -->
      <defs>
       <path d="M 31.78125 34.625 
Q 24.75 34.625 20.71875 30.859375 
Q 16.703125 27.09375 16.703125 20.515625 
Q 16.703125 13.921875 20.71875 10.15625 
Q 24.75 6.390625 31.78125 6.390625 
Q 38.8125 6.390625 42.859375 10.171875 
Q 46.921875 13.96875 46.921875 20.515625 
Q 46.921875 27.09375 42.890625 30.859375 
Q 38.875 34.625 31.78125 34.625 
z
M 21.921875 38.8125 
Q 15.578125 40.375 12.03125 44.71875 
Q 8.5 49.078125 8.5 55.328125 
Q 8.5 64.0625 14.71875 69.140625 
Q 20.953125 74.21875 31.78125 74.21875 
Q 42.671875 74.21875 48.875 69.140625 
Q 55.078125 64.0625 55.078125 55.328125 
Q 55.078125 49.078125 51.53125 44.71875 
Q 48 40.375 41.703125 38.8125 
Q 48.828125 37.15625 52.796875 32.3125 
Q 56.78125 27.484375 56.78125 20.515625 
Q 56.78125 9.90625 50.3125 4.234375 
Q 43.84375 -1.421875 31.78125 -1.421875 
Q 19.734375 -1.421875 13.25 4.234375 
Q 6.78125 9.90625 6.78125 20.515625 
Q 6.78125 27.484375 10.78125 32.3125 
Q 14.796875 37.15625 21.921875 38.8125 
z
M 18.3125 54.390625 
Q 18.3125 48.734375 21.84375 45.5625 
Q 25.390625 42.390625 31.78125 42.390625 
Q 38.140625 42.390625 41.71875 45.5625 
Q 45.3125 48.734375 45.3125 54.390625 
Q 45.3125 60.0625 41.71875 63.234375 
Q 38.140625 66.40625 31.78125 66.40625 
Q 25.390625 66.40625 21.84375 63.234375 
Q 18.3125 60.0625 18.3125 54.390625 
z
" id="DejaVuSans-56"/>
      </defs>
      <g style="fill:#262626;" transform="translate(27.240625 131.351239)scale(0.1 -0.1)">
       <use xlink:href="#DejaVuSans-56"/>
       <use x="63.623047" xlink:href="#DejaVuSans-48"/>
       <use x="127.246094" xlink:href="#DejaVuSans-48"/>
       <use x="190.869141" xlink:href="#DejaVuSans-48"/>
      </g>
     </g>
    </g>
    <g id="ytick_6">
     <g id="line2d_13">
      <path clip-path="url(#pb300335f0e)" d="M 59.690625 90.281954 
L 416.810625 90.281954 
" style="fill:none;stroke:#cccccc;stroke-linecap:round;stroke-width:0.8;"/>
     </g>
     <g id="text_14">
      <!-- 10000 -->
      <g style="fill:#262626;" transform="translate(20.878125 94.081173)scale(0.1 -0.1)">
       <use xlink:href="#DejaVuSans-49"/>
       <use x="63.623047" xlink:href="#DejaVuSans-48"/>
       <use x="127.246094" xlink:href="#DejaVuSans-48"/>
       <use x="190.869141" xlink:href="#DejaVuSans-48"/>
       <use x="254.492188" xlink:href="#DejaVuSans-48"/>
      </g>
     </g>
    </g>
    <g id="ytick_7">
     <g id="line2d_14">
      <path clip-path="url(#pb300335f0e)" d="M 59.690625 53.011888 
L 416.810625 53.011888 
" style="fill:none;stroke:#cccccc;stroke-linecap:round;stroke-width:0.8;"/>
     </g>
     <g id="text_15">
      <!-- 12000 -->
      <g style="fill:#262626;" transform="translate(20.878125 56.811107)scale(0.1 -0.1)">
       <use xlink:href="#DejaVuSans-49"/>
       <use x="63.623047" xlink:href="#DejaVuSans-50"/>
       <use x="127.246094" xlink:href="#DejaVuSans-48"/>
       <use x="190.869141" xlink:href="#DejaVuSans-48"/>
       <use x="254.492188" xlink:href="#DejaVuSans-48"/>
      </g>
     </g>
    </g>
    <g id="text_16">
     <!-- cells number -->
     <defs>
      <path d="M 48.78125 52.59375 
L 48.78125 44.1875 
Q 44.96875 46.296875 41.140625 47.34375 
Q 37.3125 48.390625 33.40625 48.390625 
Q 24.65625 48.390625 19.8125 42.84375 
Q 14.984375 37.3125 14.984375 27.296875 
Q 14.984375 17.28125 19.8125 11.734375 
Q 24.65625 6.203125 33.40625 6.203125 
Q 37.3125 6.203125 41.140625 7.25 
Q 44.96875 8.296875 48.78125 10.40625 
L 48.78125 2.09375 
Q 45.015625 0.34375 40.984375 -0.53125 
Q 36.96875 -1.421875 32.421875 -1.421875 
Q 20.0625 -1.421875 12.78125 6.34375 
Q 5.515625 14.109375 5.515625 27.296875 
Q 5.515625 40.671875 12.859375 48.328125 
Q 20.21875 56 33.015625 56 
Q 37.15625 56 41.109375 55.140625 
Q 45.0625 54.296875 48.78125 52.59375 
z
" id="DejaVuSans-99"/>
      <path d="M 9.421875 75.984375 
L 18.40625 75.984375 
L 18.40625 0 
L 9.421875 0 
z
" id="DejaVuSans-108"/>
      <path d="M 54.890625 33.015625 
L 54.890625 0 
L 45.90625 0 
L 45.90625 32.71875 
Q 45.90625 40.484375 42.875 44.328125 
Q 39.84375 48.1875 33.796875 48.1875 
Q 26.515625 48.1875 22.3125 43.546875 
Q 18.109375 38.921875 18.109375 30.90625 
L 18.109375 0 
L 9.078125 0 
L 9.078125 54.6875 
L 18.109375 54.6875 
L 18.109375 46.1875 
Q 21.34375 51.125 25.703125 53.5625 
Q 30.078125 56 35.796875 56 
Q 45.21875 56 50.046875 50.171875 
Q 54.890625 44.34375 54.890625 33.015625 
z
" id="DejaVuSans-110"/>
      <path d="M 8.5 21.578125 
L 8.5 54.6875 
L 17.484375 54.6875 
L 17.484375 21.921875 
Q 17.484375 14.15625 20.5 10.265625 
Q 23.53125 6.390625 29.59375 6.390625 
Q 36.859375 6.390625 41.078125 11.03125 
Q 45.3125 15.671875 45.3125 23.6875 
L 45.3125 54.6875 
L 54.296875 54.6875 
L 54.296875 0 
L 45.3125 0 
L 45.3125 8.40625 
Q 42.046875 3.421875 37.71875 1 
Q 33.40625 -1.421875 27.6875 -1.421875 
Q 18.265625 -1.421875 13.375 4.4375 
Q 8.5 10.296875 8.5 21.578125 
z
M 31.109375 56 
z
" id="DejaVuSans-117"/>
      <path d="M 48.6875 27.296875 
Q 48.6875 37.203125 44.609375 42.84375 
Q 40.53125 48.484375 33.40625 48.484375 
Q 26.265625 48.484375 22.1875 42.84375 
Q 18.109375 37.203125 18.109375 27.296875 
Q 18.109375 17.390625 22.1875 11.75 
Q 26.265625 6.109375 33.40625 6.109375 
Q 40.53125 6.109375 44.609375 11.75 
Q 48.6875 17.390625 48.6875 27.296875 
z
M 18.109375 46.390625 
Q 20.953125 51.265625 25.265625 53.625 
Q 29.59375 56 35.59375 56 
Q 45.5625 56 51.78125 48.09375 
Q 58.015625 40.1875 58.015625 27.296875 
Q 58.015625 14.40625 51.78125 6.484375 
Q 45.5625 -1.421875 35.59375 -1.421875 
Q 29.59375 -1.421875 25.265625 0.953125 
Q 20.953125 3.328125 18.109375 8.203125 
L 18.109375 0 
L 9.078125 0 
L 9.078125 75.984375 
L 18.109375 75.984375 
z
" id="DejaVuSans-98"/>
      <path d="M 41.109375 46.296875 
Q 39.59375 47.171875 37.8125 47.578125 
Q 36.03125 48 33.890625 48 
Q 26.265625 48 22.1875 43.046875 
Q 18.109375 38.09375 18.109375 28.8125 
L 18.109375 0 
L 9.078125 0 
L 9.078125 54.6875 
L 18.109375 54.6875 
L 18.109375 46.1875 
Q 20.953125 51.171875 25.484375 53.578125 
Q 30.03125 56 36.53125 56 
Q 37.453125 56 38.578125 55.875 
Q 39.703125 55.765625 41.0625 55.515625 
z
" id="DejaVuSans-114"/>
     </defs>
     <g style="fill:#262626;" transform="translate(14.798438 187.685844)rotate(-90)scale(0.1 -0.1)">
      <use xlink:href="#DejaVuSans-99"/>
      <use x="54.980469" xlink:href="#DejaVuSans-101"/>
      <use x="116.503906" xlink:href="#DejaVuSans-108"/>
      <use x="144.287109" xlink:href="#DejaVuSans-108"/>
      <use x="172.070312" xlink:href="#DejaVuSans-115"/>
      <use x="224.169922" xlink:href="#DejaVuSans-32"/>
      <use x="255.957031" xlink:href="#DejaVuSans-110"/>
      <use x="319.335938" xlink:href="#DejaVuSans-117"/>
      <use x="382.714844" xlink:href="#DejaVuSans-109"/>
      <use x="480.126953" xlink:href="#DejaVuSans-98"/>
      <use x="543.603516" xlink:href="#DejaVuSans-101"/>
      <use x="605.126953" xlink:href="#DejaVuSans-114"/>
     </g>
    </g>
   </g>
   <g id="line2d_15">
    <path clip-path="url(#pb300335f0e)" d="M 75.923352 276.24095 
L 79.175318 273.72522 
L 79.717312 273.46433 
L 81.343295 272.308958 
L 82.427283 271.675367 
L 84.59526 270.128659 
L 90.015202 266.364382 
L 90.557197 265.879871 
L 91.641185 265.190375 
L 94.89315 262.954171 
L 95.435145 262.637376 
L 97.061127 261.370193 
L 98.145116 260.867048 
L 100.313093 259.599865 
L 101.397081 258.798559 
L 101.939075 258.500398 
L 103.023064 257.587282 
L 104.649047 256.525085 
L 106.275029 255.090187 
L 108.985 253.413034 
L 111.152977 251.866327 
L 111.694972 251.307276 
L 113.320954 250.114633 
L 114.946937 248.679736 
L 115.488931 248.195225 
L 116.57292 247.505729 
L 118.740897 245.921751 
L 122.534856 243.387386 
L 123.076851 242.921511 
L 123.618845 242.604715 
L 125.786822 240.890292 
L 126.87081 240.238066 
L 128.496793 239.082694 
L 129.038787 238.579548 
L 129.580781 238.337292 
L 130.122776 237.759606 
L 132.290752 236.194264 
L 132.832747 235.653848 
L 134.458729 234.554381 
L 135.000724 234.06987 
L 135.542718 233.790344 
L 137.710695 232.038651 
L 138.794683 231.050995 
L 143.130637 228.199834 
L 144.214626 227.193543 
L 145.840608 226.187251 
L 146.382603 225.6282 
L 148.008585 224.510098 
L 148.550579 224.361018 
L 149.092574 223.913777 
L 151.260551 222.73977 
L 152.344539 221.863923 
L 153.428528 220.950807 
L 155.05451 219.702259 
L 155.596504 219.441369 
L 157.222487 218.081011 
L 158.84847 216.851099 
L 159.390464 216.403858 
L 160.474453 215.751632 
L 161.016447 215.229851 
L 161.558441 214.875786 
L 162.100435 214.33537 
L 162.64243 213.981304 
L 163.184424 213.813589 
L 163.726418 213.496793 
L 164.810406 212.639582 
L 165.352401 212.322786 
L 166.978383 210.925159 
L 168.604366 209.676612 
L 169.688355 208.987115 
L 171.856331 207.160882 
L 172.398326 206.639101 
L 172.94032 206.285035 
L 173.482314 205.688714 
L 176.192285 203.787941 
L 178.902257 201.868533 
L 180.528239 200.37773 
L 182.696216 198.831022 
L 183.23821 198.253336 
L 185.948182 196.613453 
L 187.03217 195.663067 
L 188.116158 195.104016 
L 188.658153 194.5636 
L 194.078095 190.892498 
L 195.704078 189.830301 
L 196.246072 189.494871 
L 197.33006 188.395404 
L 200.040032 186.475995 
L 203.291997 183.792551 
L 204.375985 183.177594 
L 207.627951 181.034566 
L 208.169945 180.512785 
L 208.711939 180.214624 
L 211.42191 178.183406 
L 213.589887 177.065304 
L 214.673876 176.263997 
L 220.635812 171.456159 
L 221.719801 170.636217 
L 222.261795 170.095801 
L 222.803789 169.760371 
L 224.429772 168.250933 
L 225.513761 167.542802 
L 227.139743 166.35016 
L 231.475697 163.089029 
L 232.559686 161.915022 
L 233.10168 161.654131 
L 233.643674 161.150985 
L 234.727662 160.368314 
L 235.811651 159.529737 
L 236.353645 159.306117 
L 236.895639 158.840241 
L 238.521622 157.94576 
L 242.857576 154.498278 
L 245.025553 152.877031 
L 247.19353 151.237148 
L 249.903501 149.46682 
L 251.529484 148.199637 
L 252.071478 148.050557 
L 254.239455 146.466579 
L 255.865438 145.404382 
L 256.949426 144.658981 
L 257.49142 144.453996 
L 259.117403 143.168178 
L 260.201391 142.310967 
L 261.28538 141.32331 
L 263.453357 139.646157 
L 266.705322 137.093158 
L 267.789311 136.571377 
L 269.415293 135.099209 
L 271.58327 133.738852 
L 273.209253 132.508939 
L 274.835236 131.241757 
L 275.919224 130.608166 
L 277.003213 129.937305 
L 281.881161 125.912138 
L 282.965149 125.371722 
L 286.217115 122.893262 
L 288.385092 121.383825 
L 288.927086 121.122934 
L 290.011074 120.358898 
L 290.553068 120.098007 
L 293.26304 118.085424 
L 293.805034 117.563643 
L 294.347028 117.340022 
L 295.431017 116.408271 
L 298.140988 114.209337 
L 299.224976 113.29622 
L 300.308965 112.662629 
L 301.392953 111.842688 
L 303.56093 110.25871 
L 304.102924 109.699659 
L 305.728907 108.749272 
L 306.270901 108.507017 
L 306.812895 108.041141 
L 307.896884 107.48209 
L 308.980872 106.829864 
L 309.522867 106.252178 
L 310.606855 105.394966 
L 311.148849 104.873185 
L 313.316826 103.401018 
L 314.400815 102.767426 
L 314.942809 102.543806 
L 316.026797 101.7425 
L 316.568792 101.202084 
L 317.65278 99.897631 
L 318.736769 99.1895 
L 320.362751 97.996858 
L 320.904746 97.437807 
L 321.988734 96.766946 
L 323.072722 95.928369 
L 324.156711 95.089793 
L 325.240699 94.008961 
L 325.782694 93.74807 
L 326.324688 93.133114 
L 326.866682 92.797684 
L 327.950671 91.754122 
L 336.080584 85.511386 
L 336.622578 84.915065 
L 338.790555 83.219277 
L 340.416538 81.653934 
L 341.500526 81.076248 
L 342.584515 80.274942 
L 344.752492 78.690964 
L 345.83648 77.982832 
L 346.920469 77.051081 
L 348.004457 76.100694 
L 348.546451 75.765263 
L 349.088446 75.243483 
L 349.63044 74.945322 
L 350.714428 73.994935 
L 351.256423 73.659505 
L 352.340411 72.709118 
L 352.882405 72.392323 
L 353.966394 71.274221 
L 354.508388 70.808345 
L 355.050382 70.547454 
L 356.134371 69.802053 
L 356.676365 69.466622 
L 358.844342 67.454039 
L 359.92833 66.950893 
L 361.012319 66.149586 
L 361.554313 65.870061 
L 366.974255 61.509463 
L 367.51625 61.006317 
L 368.600238 60.335456 
L 375.646163 55.005837 
L 376.730151 53.83183 
L 377.272146 53.645479 
L 378.356134 52.732363 
L 379.982117 51.781976 
L 380.524111 51.372005 
L 381.066105 50.738414 
L 383.234082 49.452597 
L 383.776077 48.912181 
L 386.486048 47.011407 
L 387.028042 46.526897 
L 388.11203 45.967846 
L 389.196019 45.259714 
L 390.822002 43.843452 
L 391.363996 43.545291 
L 391.90599 43.116685 
L 393.531973 42.296744 
L 394.615961 41.495438 
L 396.783938 39.855555 
L 398.409921 38.457927 
L 398.951915 38.066591 
L 400.035903 37.0603 
L 400.577898 36.687599 
L 400.577898 36.687599 
" style="fill:none;stroke:#000080;stroke-linecap:round;stroke-width:1.5;"/>
   </g>
   <g id="line2d_16">
    <path clip-path="url(#pb300335f0e)" d="M 75.923352 276.27822 
L 76.465347 275.849614 
L 77.007341 275.253293 
L 78.633323 274.340176 
L 79.175318 273.911571 
L 79.717312 273.65068 
L 81.343295 272.476673 
L 81.885289 272.197148 
L 82.969277 271.358571 
L 86.221243 269.271447 
L 86.763237 268.824207 
L 87.305231 268.600586 
L 88.931214 267.501119 
L 90.015202 266.830258 
L 92.183179 265.227645 
L 92.725173 265.05993 
L 93.267168 264.482244 
L 95.435145 263.103251 
L 97.061127 261.929244 
L 100.313093 259.935296 
L 101.397081 258.984909 
L 102.48107 258.332683 
L 104.107052 257.289121 
L 106.817024 255.220632 
L 107.359018 254.866567 
L 108.443006 253.87891 
L 108.985 253.562115 
L 110.068989 252.686268 
L 111.694972 251.419086 
L 113.862949 249.648758 
L 115.488931 248.661101 
L 116.57292 247.766619 
L 118.198902 246.723057 
L 119.282891 245.772671 
L 119.824885 245.28816 
L 121.992862 244.020978 
L 123.076851 243.070591 
L 125.244827 241.561153 
L 131.206764 237.424176 
L 131.748758 236.939665 
L 132.290752 236.678775 
L 133.374741 235.933373 
L 134.458729 235.374322 
L 135.542718 234.4053 
L 140.96266 230.044703 
L 142.588643 228.758885 
L 143.130637 228.237105 
L 145.840608 226.522681 
L 146.924597 225.609565 
L 151.802545 222.106179 
L 152.344539 221.845288 
L 153.428528 220.988077 
L 153.970522 220.764456 
L 156.138499 219.087303 
L 156.680493 218.658697 
L 157.764481 218.062376 
L 159.932458 216.329318 
L 160.474453 216.124333 
L 164.268412 213.273173 
L 165.352401 212.471866 
L 165.894395 212.229611 
L 166.436389 211.81964 
L 166.978383 211.204684 
L 168.604366 210.254298 
L 169.14636 209.732517 
L 169.688355 209.378451 
L 170.772343 208.446699 
L 176.192285 204.831503 
L 176.73428 204.589247 
L 178.360262 203.22889 
L 181.070233 201.458562 
L 182.154222 200.769066 
L 182.696216 200.45227 
L 183.23821 199.911854 
L 184.864193 198.868292 
L 185.406187 198.421052 
L 186.490176 197.731555 
L 187.574164 196.892979 
L 188.658153 196.054402 
L 191.368124 194.060454 
L 192.452112 193.128702 
L 194.620089 191.507454 
L 195.704078 190.501162 
L 196.788066 189.979382 
L 199.498037 188.209053 
L 202.750003 186.23374 
L 203.291997 185.749229 
L 203.833991 185.115638 
L 204.91798 184.370237 
L 206.001968 183.45712 
L 207.085957 182.711719 
L 208.169945 181.817237 
L 209.253934 181.165011 
L 211.42191 179.189697 
L 211.963905 178.891537 
L 212.505899 178.351121 
L 213.047893 177.97842 
L 213.589887 177.456639 
L 215.21587 176.338537 
L 216.299859 175.481326 
L 220.635812 172.648801 
L 221.719801 171.772954 
L 227.139743 167.785057 
L 228.765726 166.57378 
L 234.185668 162.306357 
L 236.353645 161.076445 
L 240.147605 158.09484 
L 240.689599 157.815314 
L 247.735524 152.597505 
L 248.277518 152.243439 
L 248.819513 151.553943 
L 249.361507 151.293053 
L 250.987489 150.100411 
L 252.071478 149.131389 
L 253.697461 147.994652 
L 257.49142 144.957141 
L 259.117403 143.783134 
L 260.743386 142.665032 
L 261.827374 142.143251 
L 262.911363 141.155595 
L 263.453357 140.857434 
L 264.537345 139.907048 
L 269.415293 136.180041 
L 270.499282 135.54645 
L 271.041276 135.285559 
L 271.58327 134.763778 
L 273.209253 133.627041 
L 275.919224 131.595823 
L 281.881161 127.3284 
L 282.423155 127.06751 
L 283.507143 126.210298 
L 284.591132 125.297182 
L 286.759109 123.564123 
L 287.843097 122.986437 
L 288.385092 122.632372 
L 288.927086 122.073321 
L 291.095063 120.619788 
L 293.26304 119.184891 
L 293.805034 118.942635 
L 294.889022 118.048154 
L 295.431017 117.749993 
L 298.140988 115.588329 
L 301.392953 113.22168 
L 302.476942 112.345834 
L 303.56093 111.488622 
L 304.102924 111.227732 
L 305.728907 109.718294 
L 310.064861 107.37028 
L 310.606855 107.034849 
L 312.774832 105.00363 
L 313.316826 104.686835 
L 314.942809 103.233302 
L 317.65278 101.332529 
L 318.194774 100.959828 
L 319.820757 99.543566 
L 323.072722 97.381902 
L 326.324688 94.418932 
L 327.408676 93.878516 
L 327.950671 93.319465 
L 330.118647 91.903202 
L 330.660642 91.698217 
L 334.454601 89.089312 
L 340.958532 84.598269 
L 341.500526 83.834233 
L 344.752492 81.504854 
L 345.83648 80.424022 
L 346.920469 79.510905 
L 349.088446 77.628767 
L 349.63044 77.405146 
L 350.172434 76.995176 
L 350.714428 76.75292 
L 351.798417 75.765263 
L 352.882405 75.206213 
L 353.966394 74.218556 
L 355.050382 73.584965 
L 355.592376 73.119089 
L 356.676365 72.410958 
L 359.92833 69.708878 
L 360.470324 69.093922 
L 361.012319 68.702586 
L 361.554313 68.143535 
L 364.806278 65.795521 
L 366.432261 64.416528 
L 368.600238 62.813915 
L 369.142232 62.627565 
L 371.310209 61.192668 
L 371.852203 60.857237 
L 372.394198 60.242281 
L 372.936192 59.86958 
L 374.562175 58.341508 
L 375.104169 58.117887 
L 381.6081 53.328684 
L 382.692088 52.639187 
L 385.944053 50.123458 
L 387.570036 49.023991 
L 389.738013 47.402743 
L 390.280007 46.862327 
L 396.241944 42.87443 
L 399.493909 40.414606 
L 400.577898 39.706474 
L 400.577898 39.706474 
" style="fill:none;stroke:#0000f1;stroke-linecap:round;stroke-width:1.5;"/>
   </g>
   <g id="line2d_17">
    <path clip-path="url(#pb300335f0e)" d="M 75.923352 276.16641 
L 76.465347 275.570089 
L 78.091329 274.414717 
L 80.259306 272.644388 
L 80.8013 272.364863 
L 81.343295 271.787177 
L 82.969277 270.557265 
L 83.511272 269.942309 
L 84.053266 269.569608 
L 84.59526 269.029192 
L 85.679248 268.209251 
L 86.763237 267.333404 
L 87.847225 266.513463 
L 88.931214 265.917141 
L 89.473208 265.451266 
L 92.725173 263.569127 
L 93.809162 262.50693 
L 96.519133 260.326632 
L 97.603122 259.73031 
L 99.771099 257.997252 
L 100.313093 257.792267 
L 101.939075 256.748705 
L 103.565058 255.406983 
L 106.275029 253.61802 
L 108.443006 251.959502 
L 109.526995 251.195465 
L 110.610983 250.450064 
L 111.694972 249.648758 
L 112.77896 248.586561 
L 113.862949 247.747984 
L 114.404943 247.468459 
L 115.488931 246.611247 
L 116.030926 246.014926 
L 116.57292 245.58632 
L 118.198902 244.635934 
L 118.740897 244.337773 
L 121.992862 241.672963 
L 123.076851 240.964832 
L 123.618845 240.387146 
L 124.702833 239.604475 
L 126.87081 237.796877 
L 127.412804 237.442811 
L 129.038787 236.045183 
L 129.580781 235.765658 
L 135.542718 231.14417 
L 136.626706 230.342863 
L 138.252689 229.206126 
L 139.336678 228.33028 
L 139.878672 228.069389 
L 140.96266 227.249448 
L 142.046649 226.243156 
L 144.75662 224.603273 
L 146.382603 223.317456 
L 151.260551 219.776799 
L 152.344539 218.751873 
L 154.512516 217.018815 
L 155.596504 216.198873 
L 157.222487 215.024866 
L 158.84847 213.869494 
L 159.390464 213.403618 
L 160.474453 212.714122 
L 161.016447 212.210976 
L 162.100435 211.614655 
L 165.352401 209.024385 
L 166.436389 208.148539 
L 170.230349 205.409189 
L 171.856331 204.458802 
L 172.94032 203.787941 
L 174.024308 202.744379 
L 175.650291 201.793993 
L 176.192285 201.533102 
L 176.73428 201.141766 
L 177.276274 200.936781 
L 191.368124 190.668878 
L 192.452112 189.737126 
L 192.994107 189.476236 
L 193.536101 188.991725 
L 194.620089 188.246323 
L 195.162083 187.705907 
L 198.956043 185.134273 
L 200.582026 183.922996 
L 201.12402 183.34531 
L 201.666014 183.084419 
L 203.833991 181.500441 
L 207.085957 179.264237 
L 207.627951 178.947442 
L 209.253934 177.60572 
L 211.963905 175.630406 
L 213.047893 174.512304 
L 214.131882 173.804173 
L 216.299859 172.49972 
L 216.841853 172.145655 
L 217.383847 171.549334 
L 217.925841 171.232538 
L 218.467836 170.766662 
L 219.00983 170.505772 
L 223.345784 167.039656 
L 223.887778 166.778765 
L 224.971766 165.902919 
L 230.933703 161.430511 
L 232.017691 160.87146 
L 233.643674 159.660183 
L 241.773588 153.603797 
L 242.315582 153.324271 
L 245.025553 151.386228 
L 245.567547 151.181243 
L 246.651536 150.379936 
L 247.19353 150.100411 
L 248.277518 149.224564 
L 248.819513 148.963674 
L 250.987489 147.435601 
L 251.529484 147.10017 
L 252.613472 146.149784 
L 256.407432 143.820404 
L 257.49142 142.944558 
L 258.575409 142.199157 
L 262.369368 139.385267 
L 263.453357 138.844851 
L 264.537345 137.969004 
L 269.957288 134.521523 
L 271.58327 133.533866 
L 273.209253 132.397129 
L 273.751247 131.875348 
L 274.293241 131.688998 
L 274.835236 130.999502 
L 275.37723 130.738611 
L 275.919224 130.21683 
L 277.003213 129.490064 
L 278.629195 128.017896 
L 280.255178 126.955699 
L 281.339167 126.005313 
L 282.965149 124.905846 
L 284.049138 124.067269 
L 284.591132 123.694569 
L 285.133126 123.172788 
L 286.217115 122.501927 
L 287.301103 121.495635 
L 287.843097 121.122934 
L 288.385092 120.452073 
L 289.46908 119.799847 
L 292.179051 118.159964 
L 297.056999 114.712483 
L 298.140988 114.078892 
L 299.76697 112.755804 
L 300.308965 112.494914 
L 301.392953 111.600432 
L 302.476942 110.780491 
L 303.56093 110.090995 
L 305.186913 108.972893 
L 305.728907 108.600192 
L 306.270901 108.376571 
L 316.026797 101.239354 
L 316.568792 100.661668 
L 318.736769 99.22677 
L 321.988734 97.102376 
L 322.530728 96.655136 
L 323.072722 96.37561 
L 324.698705 94.996618 
L 326.324688 93.803976 
L 326.866682 93.543085 
L 327.950671 92.648604 
L 328.492665 92.369078 
L 330.660642 90.85964 
L 332.286624 89.611093 
L 332.828619 89.052042 
L 336.622578 86.461773 
L 337.706567 85.474116 
L 338.248561 85.23186 
L 340.958532 82.883846 
L 342.042521 82.324795 
L 343.126509 81.653934 
L 346.920469 78.877314 
L 347.462463 78.243723 
L 348.004457 78.057373 
L 349.088446 77.423781 
L 350.172434 76.902001 
L 350.714428 76.510665 
L 351.798417 75.448468 
L 353.424399 74.498081 
L 354.508388 73.696775 
L 357.218359 71.423301 
L 357.760353 71.106505 
L 359.92833 69.410717 
L 361.012319 68.702586 
L 362.096307 67.845374 
L 362.638301 67.528579 
L 363.180296 66.950893 
L 368.058244 63.186616 
L 369.684226 61.770354 
L 370.768215 60.931777 
L 371.310209 60.465901 
L 371.852203 60.186376 
L 373.478186 58.900559 
L 374.02018 58.658303 
L 375.646163 57.409756 
L 376.730151 56.608449 
L 377.81414 56.049398 
L 378.898128 55.322632 
L 380.524111 53.94364 
L 382.150094 52.713728 
L 387.570036 48.930816 
L 389.738013 47.123218 
L 391.90599 45.68832 
L 392.989978 44.793838 
L 394.073967 44.160247 
L 395.157955 43.414846 
L 396.783938 42.352649 
L 398.951915 40.824576 
L 399.493909 40.302795 
L 400.577898 39.464219 
L 400.577898 39.464219 
" style="fill:none;stroke:#004cff;stroke-linecap:round;stroke-width:1.5;"/>
   </g>
   <g id="line2d_18">
    <path clip-path="url(#pb300335f0e)" d="M 75.923352 276.20368 
L 81.343295 271.973527 
L 82.427283 271.228126 
L 82.969277 270.780885 
L 83.511272 270.53863 
L 84.053266 270.128659 
L 84.59526 269.905039 
L 85.137254 269.532338 
L 85.679248 268.973287 
L 87.305231 267.929725 
L 88.38922 267.184324 
L 90.557197 265.954412 
L 91.099191 265.395361 
L 92.183179 264.612689 
L 93.267168 263.606397 
L 97.603122 260.009836 
L 100.313093 257.904077 
L 100.855087 257.643187 
L 102.48107 256.357369 
L 103.023064 256.115114 
L 107.359018 252.667633 
L 107.901012 252.406742 
L 110.610983 250.543239 
L 112.236966 249.667393 
L 117.114914 245.959021 
L 117.656908 245.344065 
L 118.198902 244.989999 
L 118.740897 244.356408 
L 119.282891 244.188693 
L 124.160839 240.778482 
L 125.786822 239.306314 
L 129.580781 236.865125 
L 131.206764 235.504767 
L 131.748758 235.057527 
L 132.290752 234.778001 
L 135.542718 232.225002 
L 136.626706 231.55414 
L 138.252689 230.044703 
L 138.794683 229.672002 
L 139.336678 229.150221 
L 139.878672 228.852061 
L 140.96266 228.050754 
L 143.130637 226.448141 
L 143.672631 225.833185 
L 144.214626 225.646835 
L 145.298614 224.975974 
L 146.382603 224.006952 
L 146.924597 223.671521 
L 148.008585 222.795675 
L 149.634568 221.808018 
L 151.260551 220.689916 
L 152.886533 219.460004 
L 156.138499 217.018815 
L 157.764481 215.826172 
L 158.84847 214.726705 
L 159.932458 213.850859 
L 161.558441 212.602312 
L 163.726418 211.148779 
L 165.352401 210.105217 
L 166.436389 209.266641 
L 168.604366 207.794473 
L 169.14636 207.160882 
L 169.688355 206.918627 
L 170.772343 206.098685 
L 172.398326 204.756963 
L 173.482314 204.179277 
L 175.108297 202.725744 
L 175.650291 202.390314 
L 176.73428 201.514467 
L 178.902257 200.042299 
L 179.444251 199.539154 
L 180.528239 198.961467 
L 182.154222 197.545205 
L 185.948182 194.507695 
L 186.490176 194.190899 
L 187.574164 193.259147 
L 189.200147 192.308761 
L 190.284135 191.488819 
L 191.368124 190.762053 
L 191.910118 190.184367 
L 192.994107 189.494871 
L 193.536101 189.215345 
L 194.620089 188.451309 
L 197.872055 186.215105 
L 198.414049 185.618784 
L 200.040032 184.649762 
L 200.582026 183.960266 
L 202.208009 182.767624 
L 207.627951 178.966077 
L 208.711939 178.332486 
L 209.795928 177.587084 
L 211.42191 176.170822 
L 214.131882 173.990523 
L 215.757864 172.611531 
L 218.467836 170.617582 
L 219.00983 170.095801 
L 220.093818 169.480845 
L 221.719801 168.288203 
L 222.803789 167.505532 
L 223.887778 166.555145 
L 224.971766 165.548853 
L 226.055755 164.933897 
L 228.765726 163.107664 
L 229.849714 162.399532 
L 231.475697 161.05781 
L 233.10168 160.014248 
L 235.269657 158.28119 
L 235.811651 158.09484 
L 239.063616 155.933176 
L 239.605611 155.635015 
L 240.147605 155.0946 
L 240.689599 154.777804 
L 243.941564 152.075724 
L 244.483559 151.721659 
L 245.025553 151.516673 
L 245.567547 151.088067 
L 246.109541 150.510381 
L 247.19353 149.746345 
L 247.735524 149.224564 
L 248.277518 148.945039 
L 249.903501 147.584681 
L 250.987489 146.76474 
L 252.071478 146.075243 
L 254.239455 144.24901 
L 255.323443 143.466339 
L 256.407432 142.795478 
L 257.49142 141.956901 
L 260.743386 139.757967 
L 261.28538 139.143011 
L 263.995351 137.055887 
L 265.621334 135.602355 
L 268.873299 133.384786 
L 270.499282 131.744903 
L 271.041276 131.409472 
L 272.125265 130.477721 
L 275.919224 127.421575 
L 277.545207 126.396648 
L 278.087201 125.930773 
L 279.17119 125.334452 
L 280.255178 124.421335 
L 280.797172 124.141809 
L 281.339167 123.601394 
L 282.423155 122.855992 
L 285.133126 120.731598 
L 285.67512 120.452073 
L 287.301103 119.054445 
L 289.46908 117.451833 
L 291.095063 116.18465 
L 291.637057 115.942395 
L 292.179051 115.551059 
L 292.721045 115.010643 
L 297.056999 112.122213 
L 299.224976 110.463695 
L 299.76697 110.22144 
L 300.850959 109.513308 
L 301.934947 108.898352 
L 303.018936 107.966601 
L 305.728907 106.047192 
L 307.35489 104.78001 
L 308.438878 104.015974 
L 311.148849 102.171105 
L 312.232838 101.556149 
L 312.774832 101.127544 
L 313.316826 100.866653 
L 314.942809 99.636741 
L 315.484803 99.357215 
L 316.568792 98.537274 
L 318.194774 97.605522 
L 318.736769 97.158282 
L 320.904746 95.965639 
L 321.988734 95.201603 
L 323.614717 94.008961 
L 325.240699 92.723144 
L 327.408676 91.083261 
L 329.034659 90.095604 
L 330.660642 89.014772 
L 332.286624 87.71032 
L 333.370613 87.020824 
L 334.996596 85.436846 
L 335.53859 85.26913 
L 337.164572 84.132393 
L 340.958532 80.833993 
L 342.584515 79.622715 
L 344.752492 78.076008 
L 345.83648 77.311971 
L 346.378474 76.995176 
L 347.462463 76.119329 
L 350.714428 73.78995 
L 353.966394 71.106505 
L 356.676365 69.075287 
L 357.218359 68.721221 
L 357.760353 68.143535 
L 358.302348 67.826739 
L 359.386336 67.044068 
L 362.096307 65.31101 
L 362.638301 64.770594 
L 363.180296 64.416528 
L 363.72229 63.913382 
L 364.264284 63.633857 
L 365.348273 62.869821 
L 365.890267 62.60893 
L 368.058244 60.819967 
L 370.226221 59.49688 
L 370.768215 58.956464 
L 371.852203 58.117887 
L 372.394198 57.670646 
L 372.936192 57.074325 
L 376.730151 54.12999 
L 377.81414 53.179603 
L 379.982117 51.576991 
L 380.524111 51.39064 
L 381.066105 50.850224 
L 385.944053 47.738174 
L 388.11203 46.079656 
L 389.196019 45.296984 
L 391.90599 43.563926 
L 392.989978 42.79989 
L 394.073967 42.203569 
L 394.615961 41.681788 
L 397.325932 39.781015 
L 398.409921 38.830628 
L 398.951915 38.607007 
L 400.035903 37.619351 
L 400.577898 37.28392 
L 400.577898 37.28392 
" style="fill:none;stroke:#00b0ff;stroke-linecap:round;stroke-width:1.5;"/>
   </g>
   <g id="line2d_19">
    <path clip-path="url(#pb300335f0e)" d="M 75.923352 276.334125 
L 77.007341 275.532819 
L 78.091329 274.675607 
L 80.259306 273.110264 
L 80.8013 272.793469 
L 81.885289 271.787177 
L 82.969277 271.172221 
L 84.59526 270.054119 
L 85.137254 269.513703 
L 85.679248 269.141002 
L 86.221243 268.526046 
L 87.847225 267.314769 
L 88.38922 266.979338 
L 88.931214 266.494828 
L 90.557197 265.544441 
L 91.099191 265.17174 
L 92.725173 263.531857 
L 93.267168 263.270967 
L 94.351156 262.46966 
L 97.061127 260.867048 
L 99.229104 259.115354 
L 100.855087 257.904077 
L 103.023064 255.966034 
L 104.107052 254.959742 
L 105.191041 254.363421 
L 110.068989 250.76686 
L 110.610983 250.580509 
L 112.236966 249.313327 
L 116.030926 247.058488 
L 116.57292 246.536707 
L 117.656908 245.865846 
L 118.198902 245.28816 
L 119.282891 244.691839 
L 121.450868 243.350116 
L 124.160839 241.225723 
L 124.702833 240.741212 
L 125.244827 240.498956 
L 130.66477 236.473789 
L 131.748758 235.802928 
L 133.916735 234.274855 
L 138.252689 231.162805 
L 138.794683 230.901914 
L 139.878672 230.119243 
L 140.420666 229.858352 
L 142.588643 228.125294 
L 145.840608 225.92636 
L 146.924597 224.975974 
L 147.466591 224.715083 
L 148.550579 223.932412 
L 150.176562 222.795675 
L 150.718556 222.516149 
L 151.802545 221.714843 
L 152.886533 221.025347 
L 157.764481 217.11199 
L 158.84847 216.273413 
L 163.726418 212.397326 
L 164.810406 211.81964 
L 165.352401 211.44694 
L 165.894395 210.831984 
L 168.062372 209.192101 
L 168.604366 208.502604 
L 169.688355 207.831743 
L 170.772343 206.937262 
L 174.566303 204.216547 
L 177.276274 201.980343 
L 177.818268 201.756722 
L 178.902257 200.974051 
L 181.070233 199.613694 
L 181.612228 199.166453 
L 182.154222 198.868292 
L 183.23821 197.880636 
L 186.490176 195.625797 
L 187.574164 194.48906 
L 188.116158 194.228169 
L 189.742141 193.091432 
L 191.368124 191.954695 
L 192.994107 190.762053 
L 201.12402 184.742937 
L 204.91798 182.040857 
L 208.711939 179.077887 
L 213.589887 176.170822 
L 216.299859 174.158238 
L 216.841853 173.897348 
L 217.925841 173.151947 
L 218.467836 172.835151 
L 226.597749 166.219714 
L 227.681737 165.586123 
L 228.223732 165.082977 
L 229.30772 164.598466 
L 230.933703 163.238109 
L 232.017691 162.529978 
L 239.605611 157.181723 
L 241.773588 155.57911 
L 243.39957 154.423738 
L 245.025553 152.914301 
L 247.19353 151.162608 
L 248.277518 150.473111 
L 248.819513 149.969965 
L 249.903501 149.187294 
L 253.697461 146.149784 
L 254.239455 145.572098 
L 254.781449 145.329842 
L 255.323443 144.714886 
L 259.117403 141.733281 
L 261.28538 140.484734 
L 262.369368 139.720697 
L 262.911363 139.403902 
L 263.453357 138.807581 
L 264.537345 138.155354 
L 265.621334 137.279508 
L 267.789311 135.58372 
L 269.415293 134.707873 
L 270.499282 133.962472 
L 271.58327 132.99345 
L 273.751247 131.502648 
L 274.293241 131.223122 
L 275.37723 130.347276 
L 275.919224 129.825495 
L 277.545207 128.856473 
L 278.087201 128.390597 
L 281.881161 126.154393 
L 284.049138 124.4027 
L 285.133126 123.806379 
L 286.759109 122.483292 
L 287.301103 122.129226 
L 288.385092 121.160204 
L 289.46908 120.563883 
L 290.553068 119.743942 
L 292.721045 118.066789 
L 293.26304 117.843168 
L 293.805034 117.358657 
L 296.515005 115.700139 
L 297.598993 114.917468 
L 298.140988 114.582037 
L 299.224976 113.594381 
L 300.850959 112.252658 
L 301.392953 111.991768 
L 303.018936 110.668681 
L 304.644919 109.401498 
L 306.812895 107.836156 
L 307.896884 107.202564 
L 308.980872 106.252178 
L 310.064861 105.171346 
L 310.606855 104.873185 
L 311.690844 103.922799 
L 312.774832 103.307842 
L 313.316826 102.972412 
L 314.400815 101.96612 
L 314.942809 101.649325 
L 317.110786 99.972172 
L 318.194774 99.469026 
L 318.736769 98.96588 
L 323.072722 96.207895 
L 325.782694 94.064866 
L 326.324688 93.803976 
L 327.950671 92.685874 
L 330.118647 91.176436 
L 331.74463 89.965159 
L 333.370613 88.902962 
L 334.996596 87.63578 
L 336.622578 86.517678 
L 337.706567 85.585926 
L 339.332549 84.281474 
L 339.874544 83.722423 
L 340.958532 82.883846 
L 342.042521 81.896189 
L 342.584515 81.598029 
L 344.210498 80.219036 
L 345.294486 79.455 
L 345.83648 79.175475 
L 346.920469 78.374168 
L 349.088446 76.846095 
L 350.714428 75.709358 
L 351.798417 74.926687 
L 353.966394 73.193629 
L 355.050382 72.205972 
L 357.218359 70.75244 
L 360.470324 68.441695 
L 363.72229 65.814156 
L 364.806278 65.23647 
L 365.348273 64.901039 
L 366.432261 64.062463 
L 368.058244 62.981631 
L 369.142232 62.2735 
L 370.768215 60.950412 
L 371.852203 60.130471 
L 375.104169 57.577471 
L 375.646163 57.316581 
L 376.730151 56.347559 
L 378.356134 55.434442 
L 378.898128 54.894026 
L 381.066105 53.272779 
L 381.6081 52.676457 
L 385.402059 50.216633 
L 385.944053 49.993013 
L 388.654025 48.166779 
L 389.738013 47.719539 
L 391.90599 46.340546 
L 394.073967 44.663393 
L 395.157955 43.973897 
L 395.69995 43.489386 
L 398.951915 41.364992 
L 400.035903 40.507781 
L 400.577898 40.24689 
L 400.577898 40.24689 
" style="fill:none;stroke:#29ffce;stroke-linecap:round;stroke-width:1.5;"/>
   </g>
   <g id="line2d_20">
    <path clip-path="url(#pb300335f0e)" d="M 75.923352 276.110505 
L 80.259306 272.812104 
L 81.343295 272.066702 
L 81.885289 271.526286 
L 82.969277 270.929965 
L 83.511272 270.408184 
L 84.053266 270.110024 
L 85.679248 268.581951 
L 88.931214 266.345747 
L 91.099191 264.649959 
L 92.725173 263.531857 
L 93.267168 263.382777 
L 93.809162 263.047346 
L 94.351156 262.525565 
L 94.89315 262.264675 
L 95.435145 261.836069 
L 96.519133 261.183843 
L 97.603122 260.475712 
L 98.145116 260.270726 
L 99.229104 259.39488 
L 100.313093 258.761289 
L 104.649047 255.854224 
L 105.733035 255.201997 
L 106.275029 254.680217 
L 106.817024 254.456596 
L 108.443006 252.984428 
L 109.526995 252.127217 
L 114.404943 248.40021 
L 116.57292 247.002583 
L 117.114914 246.723057 
L 118.198902 245.828576 
L 118.740897 245.47451 
L 119.282891 245.269525 
L 120.366879 244.468218 
L 121.450868 243.834627 
L 122.534856 242.884241 
L 123.618845 242.045664 
L 124.702833 241.039372 
L 125.786822 240.200796 
L 127.412804 238.579548 
L 128.496793 237.852782 
L 130.122776 236.92103 
L 131.206764 236.361979 
L 131.748758 235.914738 
L 132.290752 235.653848 
L 134.458729 233.808979 
L 136.626706 232.392717 
L 137.710695 231.498235 
L 138.794683 230.678294 
L 140.96266 228.796156 
L 142.588643 227.491703 
L 143.672631 226.578587 
L 144.214626 226.112711 
L 145.298614 225.423215 
L 149.092574 222.497514 
L 149.634568 222.236624 
L 150.718556 221.342142 
L 151.802545 220.634011 
L 152.344539 220.03769 
L 154.512516 218.528252 
L 155.596504 217.633771 
L 158.306476 215.602552 
L 158.84847 215.118041 
L 159.390464 214.875786 
L 161.016447 213.645874 
L 162.64243 212.881837 
L 163.726418 211.931451 
L 164.810406 211.055604 
L 166.436389 210.067947 
L 168.062372 208.838035 
L 168.604366 208.539874 
L 170.230349 207.179517 
L 171.314337 206.434116 
L 171.856331 205.96824 
L 174.024308 204.663788 
L 174.566303 204.328357 
L 175.108297 203.806576 
L 176.73428 202.669839 
L 181.070233 199.390073 
L 181.612228 199.166453 
L 183.23821 198.085621 
L 184.322199 197.41476 
L 187.03217 195.588526 
L 187.574164 195.085381 
L 188.116158 194.917665 
L 189.742141 193.762293 
L 190.82613 192.830542 
L 191.368124 192.513746 
L 192.452112 191.563359 
L 193.536101 190.873863 
L 194.620089 190.072557 
L 196.246072 189.04763 
L 197.33006 188.432674 
L 199.498037 186.848696 
L 200.040032 186.736886 
L 201.12402 185.879674 
L 201.666014 185.637419 
L 202.208009 185.264718 
L 202.750003 184.593857 
L 204.375985 183.41985 
L 204.91798 183.084419 
L 205.459974 182.525368 
L 206.543962 181.798602 
L 207.085957 181.258186 
L 207.627951 180.978661 
L 209.253934 179.786018 
L 210.879916 178.872902 
L 211.42191 178.313851 
L 212.505899 177.64299 
L 214.131882 176.263997 
L 215.21587 175.593136 
L 215.757864 175.183165 
L 216.299859 174.605479 
L 217.925841 173.580552 
L 218.467836 173.338297 
L 219.00983 172.853786 
L 220.093818 172.108385 
L 220.635812 171.698414 
L 221.719801 171.102093 
L 223.887778 169.629925 
L 224.971766 168.828619 
L 228.223732 166.629685 
L 228.765726 166.368795 
L 231.475697 164.318941 
L 232.017691 164.076685 
L 233.643674 162.734963 
L 234.727662 162.157277 
L 235.269657 161.635496 
L 235.811651 161.467781 
L 236.895639 160.647839 
L 237.437634 160.405584 
L 237.979628 159.921073 
L 239.605611 158.970686 
L 240.147605 158.653891 
L 241.231593 157.666234 
L 241.773588 157.349439 
L 243.39957 155.858636 
L 245.025553 154.610089 
L 245.567547 154.311928 
L 246.651536 153.193826 
L 249.361507 151.311688 
L 250.445495 150.752637 
L 258.575409 144.957141 
L 259.117403 144.696251 
L 259.659397 144.044025 
L 260.201391 143.708594 
L 261.28538 142.739573 
L 263.995351 141.118325 
L 275.37723 132.471669 
L 275.919224 131.893983 
L 277.003213 131.129947 
L 277.545207 130.514991 
L 280.797172 128.502407 
L 281.339167 128.148342 
L 281.881161 127.607926 
L 283.507143 126.564364 
L 284.591132 125.912138 
L 291.095063 121.51427 
L 291.637057 121.272014 
L 294.347028 119.240796 
L 294.889022 118.979905 
L 295.973011 118.122694 
L 297.056999 117.526373 
L 300.308965 115.010643 
L 301.392953 114.377052 
L 301.934947 113.911176 
L 302.476942 113.706191 
L 304.102924 112.457644 
L 304.644919 112.196753 
L 310.606855 107.612535 
L 311.148849 107.053484 
L 312.774832 105.935382 
L 313.85882 105.115441 
L 317.110786 102.450631 
L 318.194774 101.630689 
L 325.782694 96.282435 
L 327.950671 94.568012 
L 329.576653 93.431275 
L 330.660642 92.499523 
L 331.74463 91.772757 
L 333.370613 90.4124 
L 333.912607 89.983794 
L 334.996596 89.387473 
L 336.080584 88.604801 
L 337.164572 87.878035 
L 338.248561 87.113999 
L 338.790555 86.815838 
L 339.874544 86.070437 
L 340.958532 85.436846 
L 342.584515 84.057853 
L 345.83648 81.653934 
L 346.920469 80.945803 
L 348.546451 79.864971 
L 349.088446 79.64135 
L 354.508388 75.653453 
L 355.592376 74.926687 
L 359.92833 71.982352 
L 362.638301 69.764783 
L 364.806278 68.218075 
L 365.348273 67.882644 
L 365.890267 67.342229 
L 368.058244 65.963236 
L 368.600238 65.34828 
L 369.684226 64.640149 
L 370.226221 64.286083 
L 371.310209 63.391602 
L 377.272146 59.235989 
L 378.898128 57.931537 
L 379.982117 57.353851 
L 380.524111 56.738895 
L 381.6081 55.974858 
L 382.150094 55.490347 
L 382.692088 55.248092 
L 383.234082 54.726311 
L 383.776077 54.390881 
L 384.318071 53.850465 
L 385.402059 53.142333 
L 386.486048 52.191947 
L 387.570036 51.558355 
L 388.654025 50.645239 
L 389.738013 50.048918 
L 390.280007 49.769392 
L 391.363996 48.949451 
L 392.447984 48.222685 
L 392.989978 47.738174 
L 394.615961 46.750517 
L 395.69995 45.91194 
L 400.035903 42.520364 
L 400.577898 42.222204 
L 400.577898 42.222204 
" style="fill:none;stroke:#7dff7a;stroke-linecap:round;stroke-width:1.5;"/>
   </g>
   <g id="line2d_21">
    <path clip-path="url(#pb300335f0e)" d="M 75.923352 276.185045 
L 80.259306 272.402133 
L 85.137254 269.196907 
L 85.679248 268.581951 
L 88.38922 266.606638 
L 89.473208 265.879871 
L 90.015202 265.600346 
L 90.557197 265.02266 
L 91.099191 264.612689 
L 91.641185 264.389069 
L 93.267168 263.345507 
L 94.351156 262.637376 
L 94.89315 262.078325 
L 95.435145 261.742894 
L 97.061127 260.419807 
L 98.145116 259.58123 
L 99.229104 258.649479 
L 99.771099 258.407223 
L 103.565058 255.369713 
L 104.649047 254.736122 
L 105.733035 254.02799 
L 106.817024 253.394399 
L 107.901012 252.499918 
L 111.694972 249.835108 
L 112.77896 248.866086 
L 114.946937 247.505729 
L 116.030926 246.573977 
L 116.57292 246.313087 
L 118.740897 244.580029 
L 119.282891 244.337773 
L 121.992862 242.250649 
L 122.534856 242.027029 
L 123.618845 241.076642 
L 124.160839 240.778482 
L 126.328816 239.119964 
L 127.954799 238.039132 
L 130.122776 236.026548 
L 133.374741 233.380374 
L 137.710695 230.696929 
L 139.336678 229.280666 
L 139.878672 229.057046 
L 140.96266 227.976214 
L 143.672631 225.907725 
L 144.214626 225.367309 
L 144.75662 225.013244 
L 146.382603 223.485171 
L 148.550579 222.124814 
L 151.802545 219.981785 
L 152.344539 219.366829 
L 153.970522 218.174187 
L 154.512516 217.633771 
L 155.05451 217.316975 
L 155.596504 216.795194 
L 156.138499 216.441129 
L 156.680493 216.236143 
L 157.222487 215.770267 
L 158.306476 215.024866 
L 165.352401 209.862962 
L 166.436389 208.875305 
L 168.604366 207.459043 
L 172.398326 204.458802 
L 172.94032 204.216547 
L 174.024308 203.284795 
L 175.650291 202.166693 
L 177.276274 200.787701 
L 178.902257 199.688234 
L 182.154222 197.265679 
L 183.780205 195.998497 
L 184.322199 195.644432 
L 186.490176 193.762293 
L 187.574164 192.849177 
L 188.116158 192.290126 
L 189.200147 191.637899 
L 189.742141 191.339739 
L 192.994107 188.879915 
L 193.536101 188.507214 
L 194.078095 188.283593 
L 195.162083 187.500922 
L 198.956043 184.836112 
L 199.498037 184.202521 
L 200.040032 183.848456 
L 201.12402 182.842164 
L 201.666014 182.432193 
L 202.208009 181.854507 
L 203.291997 181.071836 
L 204.375985 180.363704 
L 204.91798 179.953734 
L 206.001968 179.357413 
L 210.337922 176.096282 
L 211.963905 174.717289 
L 217.925841 170.543042 
L 219.00983 169.853546 
L 226.055755 164.635736 
L 226.597749 164.300306 
L 227.139743 163.778525 
L 228.223732 163.200839 
L 228.765726 162.623153 
L 229.30772 162.362262 
L 232.559686 159.809263 
L 233.643674 159.082497 
L 234.185668 158.896146 
L 237.437634 156.641307 
L 240.147605 154.684629 
L 240.689599 154.125578 
L 242.857576 152.560235 
L 243.941564 151.553943 
L 245.567547 150.510381 
L 246.651536 149.317739 
L 248.819513 147.733761 
L 249.903501 147.21198 
L 251.529484 146.000703 
L 252.071478 145.497557 
L 253.155466 144.957141 
L 253.697461 144.565806 
L 254.239455 144.02539 
L 255.865438 143.112273 
L 258.033414 141.491025 
L 260.743386 139.702062 
L 261.827374 138.788946 
L 262.911363 138.024909 
L 263.453357 137.652209 
L 263.995351 137.093158 
L 264.537345 136.794997 
L 268.873299 132.99345 
L 269.415293 132.65802 
L 269.957288 132.490304 
L 270.499282 132.117604 
L 271.58327 130.887691 
L 273.751247 129.303714 
L 275.37723 127.701101 
L 275.919224 127.36567 
L 276.461218 127.21659 
L 278.087201 125.800327 
L 279.17119 125.129466 
L 280.255178 123.974094 
L 284.049138 120.414803 
L 285.133126 119.948927 
L 285.67512 119.408511 
L 286.217115 119.222161 
L 287.301103 118.364949 
L 290.011074 116.371001 
L 291.637057 114.880198 
L 292.721045 114.041622 
L 293.26304 113.799366 
L 296.515005 111.320907 
L 298.140988 109.643754 
L 305.186913 104.183689 
L 305.728907 103.941434 
L 308.980872 101.462974 
L 309.522867 100.978463 
L 311.148849 99.897631 
L 312.232838 99.00315 
L 314.942809 96.916026 
L 316.026797 96.096085 
L 318.736769 94.158041 
L 319.278763 93.692165 
L 320.362751 93.095844 
L 320.904746 92.499523 
L 322.530728 91.493231 
L 323.614717 90.59875 
L 324.156711 90.300589 
L 325.240699 89.424743 
L 328.492665 87.058094 
L 331.74463 84.486459 
L 332.828619 83.722423 
L 333.370613 83.498802 
L 334.996596 82.26889 
L 335.53859 81.691204 
L 336.080584 81.430314 
L 337.706567 80.051321 
L 339.332549 79.324555 
L 340.958532 78.225088 
L 342.584515 76.902001 
L 343.126509 76.49203 
L 343.668503 76.268409 
L 346.920469 74.01357 
L 347.462463 73.808585 
L 348.004457 73.230899 
L 349.088446 72.466863 
L 350.714428 71.665556 
L 351.798417 70.920155 
L 352.882405 70.081578 
L 353.966394 69.522527 
L 355.050382 68.721221 
L 356.676365 67.547214 
L 358.302348 66.037776 
L 359.386336 65.34828 
L 360.470324 64.341988 
L 361.012319 64.025193 
L 361.554313 63.484777 
L 365.890267 60.521806 
L 366.432261 60.018661 
L 366.974255 59.7205 
L 368.600238 58.378778 
L 371.310209 56.105304 
L 371.852203 55.844413 
L 372.936192 55.024472 
L 374.562175 53.775924 
L 377.272146 51.39064 
L 378.898128 50.179363 
L 379.982117 49.266246 
L 381.066105 48.61402 
L 382.692088 47.570458 
L 387.028042 44.272058 
L 388.11203 43.489386 
L 393.531973 39.520124 
L 396.241944 37.488905 
L 396.783938 37.004395 
L 398.951915 35.699942 
L 400.577898 34.414125 
L 400.577898 34.414125 
" style="fill:none;stroke:#ceff29;stroke-linecap:round;stroke-width:1.5;"/>
   </g>
   <g id="line2d_22">
    <path clip-path="url(#pb300335f0e)" d="M 75.923352 276.27822 
L 77.007341 275.458278 
L 77.549335 275.048308 
L 78.633323 273.874301 
L 81.343295 271.656732 
L 81.885289 271.395841 
L 82.969277 270.519995 
L 85.137254 268.731031 
L 85.679248 268.339696 
L 87.305231 266.755718 
L 88.931214 265.544441 
L 92.725173 263.084616 
L 93.267168 262.5442 
L 95.435145 261.351558 
L 100.313093 257.754997 
L 101.397081 256.61826 
L 103.023064 255.611968 
L 104.107052 254.512501 
L 106.275029 252.928523 
L 108.443006 251.586801 
L 112.236966 248.977896 
L 113.862949 248.046145 
L 114.404943 247.654809 
L 115.488931 246.704422 
L 116.030926 246.406262 
L 117.114914 245.47451 
L 118.198902 244.952729 
L 119.824885 243.685547 
L 123.076851 241.095277 
L 126.328816 238.654088 
L 126.87081 238.300022 
L 127.412804 237.759606 
L 130.122776 236.045183 
L 131.748758 235.374322 
L 132.832747 234.274855 
L 135.000724 232.821323 
L 136.084712 231.964111 
L 136.626706 231.665951 
L 138.794683 229.932893 
L 139.336678 229.634732 
L 140.96266 228.106659 
L 142.046649 227.361258 
L 142.588643 226.802207 
L 144.214626 225.70274 
L 146.382603 224.006952 
L 146.924597 223.466536 
L 149.092574 222.162084 
L 150.176562 221.081252 
L 150.718556 220.801726 
L 151.802545 219.832705 
L 155.05451 217.689676 
L 155.596504 217.03745 
L 156.138499 216.683384 
L 156.680493 216.161603 
L 157.222487 215.956618 
L 162.64243 211.801005 
L 163.726418 211.40967 
L 165.352401 210.179757 
L 169.14636 207.477678 
L 170.230349 206.844086 
L 171.856331 205.595539 
L 172.398326 205.371919 
L 173.482314 204.682423 
L 174.566303 203.843846 
L 175.650291 202.968 
L 177.276274 201.793993 
L 178.902257 200.619985 
L 182.154222 198.178796 
L 182.696216 197.63838 
L 183.23821 197.396125 
L 183.780205 196.799804 
L 188.116158 193.743658 
L 190.284135 191.917425 
L 191.368124 191.209294 
L 191.910118 190.594338 
L 197.33006 186.774156 
L 199.498037 185.320623 
L 203.291997 182.655813 
L 203.833991 182.115398 
L 206.001968 180.56869 
L 207.085957 179.674208 
L 208.711939 178.332486 
L 209.253934 177.68026 
L 211.42191 176.096282 
L 214.131882 174.046428 
L 215.21587 173.189217 
L 219.551824 169.3504 
L 220.093818 169.052239 
L 222.261795 167.356451 
L 223.345784 166.57378 
L 223.887778 166.145174 
L 224.429772 165.511583 
L 226.597749 164.02078 
L 227.139743 163.517634 
L 228.765726 162.567248 
L 229.30772 162.064102 
L 230.391709 161.374606 
L 231.475697 160.498759 
L 232.559686 159.865168 
L 233.643674 158.802971 
L 234.185668 158.448905 
L 234.727662 158.31846 
L 235.269657 158.001665 
L 235.811651 157.461249 
L 237.979628 156.175431 
L 239.063616 155.523205 
L 239.605611 155.28095 
L 243.39957 152.448425 
L 243.941564 151.982549 
L 245.025553 151.460768 
L 246.651536 150.063141 
L 247.19353 149.522725 
L 248.277518 148.833228 
L 248.819513 148.609608 
L 249.903501 147.789667 
L 250.987489 146.95109 
L 252.071478 146.000703 
L 252.613472 145.777083 
L 255.323443 143.745864 
L 255.865438 143.484974 
L 256.949426 142.646397 
L 257.49142 142.404142 
L 259.659397 140.876069 
L 260.743386 140.167938 
L 261.28538 139.627522 
L 262.369368 138.956661 
L 262.911363 138.54669 
L 263.453357 138.2858 
L 267.247316 135.43464 
L 267.789311 134.838318 
L 271.041276 132.397129 
L 271.58327 131.819443 
L 274.293241 129.84413 
L 275.37723 128.856473 
L 277.003213 127.775641 
L 277.545207 127.552021 
L 283.507143 123.582758 
L 284.049138 122.986437 
L 285.133126 122.352846 
L 285.67512 121.756525 
L 286.217115 121.43973 
L 287.843097 120.042102 
L 297.598993 112.588089 
L 298.682982 111.637702 
L 300.850959 110.18417 
L 301.934947 109.457403 
L 303.018936 108.581557 
L 303.56093 108.041141 
L 305.728907 106.531703 
L 307.896884 104.947725 
L 308.980872 104.463215 
L 309.522867 103.960069 
L 310.606855 103.158762 
L 311.690844 102.301551 
L 312.774832 101.444339 
L 313.85882 100.512587 
L 314.942809 99.692646 
L 316.568792 98.369559 
L 317.110786 98.071398 
L 320.362751 95.294778 
L 321.988734 94.232581 
L 323.614717 92.946764 
L 325.782694 91.623677 
L 326.866682 90.542845 
L 327.950671 89.797443 
L 329.034659 89.126582 
L 330.118647 88.418451 
L 332.286624 86.815838 
L 333.912607 85.343671 
L 334.454601 85.101415 
L 335.53859 84.300109 
L 336.080584 83.778328 
L 337.706567 82.883846 
L 339.332549 81.914824 
L 340.416538 81.169423 
L 341.500526 80.517197 
L 342.584515 79.697255 
L 344.210498 78.187818 
L 345.83648 77.256066 
L 349.63044 74.274461 
L 350.714428 73.75268 
L 351.798417 72.634578 
L 352.340411 72.355052 
L 353.966394 71.031965 
L 355.050382 70.305199 
L 355.592376 69.839323 
L 356.676365 69.112557 
L 357.760353 68.01309 
L 358.302348 67.752199 
L 359.92833 66.466382 
L 361.554313 65.16193 
L 362.096307 64.975579 
L 363.72229 63.708397 
L 365.890267 62.031244 
L 366.432261 61.733084 
L 366.974255 61.267208 
L 368.058244 60.559076 
L 369.142232 59.776405 
L 370.226221 59.012369 
L 371.310209 57.894267 
L 378.898128 52.490107 
L 379.440123 52.303757 
L 380.524111 51.576991 
L 381.066105 51.334735 
L 383.234082 49.899838 
L 389.738013 45.39016 
L 390.822002 44.477043 
L 395.69995 40.992292 
L 396.783938 40.153715 
L 397.867927 39.277869 
L 398.409921 38.998343 
L 398.951915 38.532467 
L 400.035903 37.842971 
L 400.577898 37.35846 
L 400.577898 37.35846 
" style="fill:none;stroke:#ffc400;stroke-linecap:round;stroke-width:1.5;"/>
   </g>
   <g id="line2d_23">
    <path clip-path="url(#pb300335f0e)" d="M 75.923352 276.334125 
L 78.633323 274.675607 
L 79.175318 274.135191 
L 82.427283 271.936257 
L 82.969277 271.358571 
L 88.931214 266.867528 
L 90.557197 265.917141 
L 91.641185 265.24628 
L 92.725173 264.444974 
L 93.267168 264.221353 
L 95.435145 262.674646 
L 95.977139 262.115595 
L 97.603122 260.978858 
L 98.68711 260.009836 
L 104.649047 255.779683 
L 106.275029 254.829297 
L 108.443006 253.077604 
L 108.985 252.798078 
L 110.068989 251.996772 
L 110.610983 251.717246 
L 111.694972 250.91594 
L 112.236966 250.710954 
L 113.320954 249.965553 
L 114.404943 249.033801 
L 117.114914 247.151663 
L 118.198902 246.219911 
L 120.366879 244.468218 
L 121.450868 243.760087 
L 121.992862 243.107861 
L 130.122776 237.312366 
L 131.206764 236.678775 
L 132.832747 235.299782 
L 134.458729 233.88352 
L 135.000724 233.678534 
L 136.084712 232.690877 
L 137.168701 231.852301 
L 138.794683 230.436038 
L 141.504654 228.5539 
L 142.588643 227.584878 
L 143.672631 226.485411 
L 144.75662 225.85182 
L 145.298614 225.274134 
L 146.382603 224.640543 
L 149.634568 221.994368 
L 150.718556 221.379412 
L 151.802545 220.373121 
L 152.344539 219.92588 
L 153.428528 219.255019 
L 157.222487 215.863443 
L 159.390464 214.33537 
L 160.474453 213.552698 
L 161.558441 212.602312 
L 162.100435 212.248246 
L 163.726418 210.831984 
L 165.352401 209.490261 
L 165.894395 209.210736 
L 166.436389 208.651685 
L 168.604366 207.347232 
L 169.688355 206.527291 
L 171.314337 205.465094 
L 172.398326 204.701058 
L 174.024308 203.489781 
L 175.108297 202.93073 
L 176.192285 202.017613 
L 176.73428 201.738087 
L 178.902257 199.967759 
L 179.444251 199.501883 
L 181.070233 198.495592 
L 184.864193 195.849417 
L 186.490176 194.78722 
L 187.03217 194.358614 
L 187.574164 194.134994 
L 188.658153 193.370958 
L 189.742141 192.290126 
L 190.82613 191.563359 
L 192.452112 190.221637 
L 193.536101 189.38306 
L 197.33006 186.587805 
L 197.872055 186.08466 
L 198.956043 185.451068 
L 201.12402 183.978901 
L 202.208009 183.047149 
L 204.375985 181.574982 
L 206.543962 180.251894 
L 207.085957 179.655573 
L 209.253934 178.146135 
L 214.131882 174.456399 
L 214.673876 173.897348 
L 221.719801 168.716809 
L 222.803789 167.766422 
L 223.887778 166.946481 
L 225.513761 165.511583 
L 227.681737 164.225766 
L 228.223732 163.68535 
L 230.933703 162.026832 
L 232.017691 161.05781 
L 236.895639 157.573059 
L 239.063616 156.044986 
L 239.605611 155.746826 
L 240.147605 155.24368 
L 241.231593 154.628724 
L 241.773588 154.069673 
L 245.567547 151.367593 
L 246.651536 150.342666 
L 247.19353 150.100411 
L 248.277518 149.224564 
L 249.361507 148.143732 
L 250.987489 147.10017 
L 251.529484 146.503849 
L 257.49142 142.143251 
L 259.117403 140.764259 
L 260.201391 140.130668 
L 262.369368 138.099449 
L 263.995351 137.149063 
L 266.705322 135.136479 
L 268.873299 133.682946 
L 270.499282 132.210779 
L 271.58327 131.484013 
L 272.125265 131.018137 
L 273.751247 130.049115 
L 274.293241 129.620509 
L 274.835236 129.452794 
L 275.37723 128.837838 
L 276.461218 128.073801 
L 279.713184 125.930773 
L 280.255178 125.539437 
L 280.797172 124.980386 
L 281.339167 124.682225 
L 282.423155 123.713204 
L 287.843097 119.855752 
L 288.927086 118.99854 
L 292.179051 116.669161 
L 292.721045 116.352366 
L 298.682982 111.246367 
L 299.224976 110.910936 
L 300.308965 109.867374 
L 304.644919 106.550338 
L 305.186913 105.935382 
L 306.812895 104.92909 
L 309.522867 102.897872 
L 320.904746 95.089793 
L 321.44674 94.530742 
L 321.988734 94.307121 
L 323.614717 92.984034 
L 324.698705 92.462253 
L 326.324688 91.325516 
L 327.950671 90.114239 
L 329.576653 89.070677 
L 331.202636 87.915305 
L 332.286624 86.741298 
L 334.454601 85.138685 
L 334.996596 84.82189 
L 335.53859 84.281474 
L 336.080584 83.964678 
L 336.622578 83.442897 
L 337.164572 83.200642 
L 337.706567 82.809306 
L 338.790555 82.23162 
L 339.332549 81.747109 
L 339.874544 81.523489 
L 344.210498 78.336898 
L 345.294486 77.498322 
L 346.378474 76.86473 
L 346.920469 76.585205 
L 348.546451 75.318023 
L 349.63044 74.758972 
L 350.172434 74.572621 
L 351.798417 73.454519 
L 352.882405 72.615943 
L 354.508388 71.311491 
L 355.592376 70.361104 
L 357.760353 68.646681 
L 358.302348 68.34852 
L 359.92833 66.652732 
L 362.096307 65.12466 
L 364.264284 63.727032 
L 364.806278 63.559317 
L 366.974255 62.012609 
L 368.058244 61.621273 
L 368.600238 61.285843 
L 369.684226 60.316821 
L 374.02018 57.353851 
L 376.188157 55.844413 
L 376.730151 55.471712 
L 377.272146 54.931296 
L 378.356134 54.260435 
L 379.440123 53.235508 
L 381.066105 52.322392 
L 381.6081 51.893786 
L 382.692088 51.27883 
L 383.234082 50.794319 
L 384.318071 50.216633 
L 386.486048 48.707195 
L 387.028042 48.166779 
L 387.570036 47.980429 
L 392.447984 44.421138 
L 394.073967 43.358941 
L 395.157955 42.72535 
L 398.409921 40.507781 
L 398.951915 39.892825 
L 400.577898 38.718818 
L 400.577898 38.718818 
" style="fill:none;stroke:#ff6800;stroke-linecap:round;stroke-width:1.5;"/>
   </g>
   <g id="line2d_24">
    <path clip-path="url(#pb300335f0e)" d="M 75.923352 276.20368 
L 77.007341 275.253293 
L 77.549335 274.992403 
L 78.091329 274.451987 
L 78.633323 274.209731 
L 81.343295 272.048067 
L 83.511272 270.315009 
L 84.59526 269.644148 
L 87.305231 267.333404 
L 88.38922 266.699813 
L 90.015202 265.451266 
L 93.267168 263.345507 
L 102.48107 256.43191 
L 103.023064 256.264194 
L 104.649047 255.071552 
L 106.817024 253.040334 
L 109.526995 251.02775 
L 110.610983 250.524604 
L 112.236966 249.294692 
L 113.320954 248.567926 
L 113.862949 248.269765 
L 114.404943 247.803889 
L 116.57292 246.499437 
L 118.740897 244.691839 
L 120.366879 243.499197 
L 121.450868 242.455635 
L 123.076851 241.393438 
L 124.160839 240.573496 
L 125.244827 239.977175 
L 128.496793 237.778241 
L 130.122776 236.212899 
L 132.290752 234.722096 
L 132.832747 234.25622 
L 133.374741 233.95806 
L 134.458729 233.100848 
L 135.000724 232.690877 
L 135.542718 232.131826 
L 139.336678 229.392477 
L 139.878672 228.852061 
L 140.420666 228.51663 
L 140.96266 227.994849 
L 142.046649 227.230813 
L 143.130637 226.094076 
L 144.214626 225.125054 
L 146.382603 223.336091 
L 147.466591 222.460244 
L 148.550579 221.453952 
L 149.092574 221.286237 
L 150.176562 220.373121 
L 151.260551 219.571814 
L 151.802545 219.366829 
L 154.512516 217.33561 
L 155.596504 216.776559 
L 158.84847 214.22356 
L 159.932458 213.627239 
L 161.558441 212.229611 
L 162.100435 212.005991 
L 163.726418 210.608363 
L 164.268412 210.272933 
L 164.810406 209.769787 
L 167.520378 208.204444 
L 168.604366 207.365867 
L 170.772343 205.688714 
L 171.314337 205.334649 
L 171.856331 205.166934 
L 172.94032 204.365627 
L 174.566303 203.11708 
L 175.108297 202.651204 
L 176.73428 201.775357 
L 178.360262 200.415 
L 178.902257 200.135475 
L 179.444251 199.650964 
L 180.528239 198.961467 
L 182.154222 197.657015 
L 188.116158 193.464133 
L 189.200147 192.364666 
L 190.284135 191.507454 
L 190.82613 191.265199 
L 192.452112 190.165732 
L 195.162083 188.209053 
L 196.246072 187.426382 
L 200.040032 184.724302 
L 200.582026 184.463412 
L 201.666014 183.56893 
L 202.208009 183.084419 
L 203.291997 182.283113 
L 204.375985 181.537712 
L 206.001968 180.177354 
L 206.543962 179.823288 
L 207.627951 178.872902 
L 209.253934 177.531179 
L 213.589887 173.934618 
L 214.673876 173.375567 
L 216.841853 171.847494 
L 218.467836 170.766662 
L 219.551824 169.779006 
L 220.093818 169.53675 
L 227.139743 164.300306 
L 232.559686 160.647839 
L 236.895639 157.181723 
L 239.063616 155.746826 
L 242.857576 152.877031 
L 244.483559 151.703023 
L 245.025553 151.386228 
L 245.567547 150.808542 
L 248.819513 148.572338 
L 252.071478 146.056608 
L 254.239455 144.1372 
L 255.323443 143.484974 
L 258.033414 141.54693 
L 259.659397 139.888412 
L 261.28538 138.900756 
L 262.369368 138.192624 
L 265.07934 136.571377 
L 269.415293 132.8071 
L 270.499282 132.266684 
L 271.58327 131.297662 
L 272.125265 130.980867 
L 273.209253 130.06775 
L 274.293241 129.452794 
L 276.461218 127.626561 
L 277.003213 127.25386 
L 278.087201 126.284838 
L 278.629195 125.986678 
L 279.713184 125.185371 
L 280.797172 124.570415 
L 281.339167 124.067269 
L 282.423155 123.452313 
L 283.507143 122.595102 
L 286.217115 120.377533 
L 287.301103 119.874387 
L 288.385092 119.110351 
L 290.553068 117.731358 
L 292.179051 116.631891 
L 293.26304 115.73741 
L 293.805034 115.476519 
L 294.347028 115.010643 
L 295.431017 114.265242 
L 295.973011 113.687556 
L 297.598993 112.383104 
L 298.140988 111.898593 
L 298.682982 111.619067 
L 301.392953 109.382863 
L 301.934947 109.103338 
L 302.476942 108.693367 
L 303.018936 108.134316 
L 305.186913 106.624878 
L 308.980872 103.326477 
L 315.484803 99.04042 
L 316.568792 98.127303 
L 319.278763 96.2638 
L 321.44674 94.903443 
L 323.614717 93.394005 
L 324.698705 92.797684 
L 325.240699 92.238633 
L 330.118647 88.996137 
L 331.202636 88.232101 
L 332.286624 87.300349 
L 332.828619 86.722663 
L 335.53859 84.765984 
L 337.164572 83.647883 
L 337.706567 83.144737 
L 338.248561 82.846576 
L 338.790555 82.26889 
L 339.874544 81.747109 
L 342.584515 79.715891 
L 345.83648 77.386511 
L 346.920469 76.75292 
L 352.340411 73.137724 
L 353.424399 72.373687 
L 355.050382 71.348761 
L 356.134371 70.472914 
L 357.760353 69.093922 
L 358.844342 68.23671 
L 360.470324 67.323593 
L 362.096307 66.186856 
L 364.264284 64.435163 
L 369.684226 60.652252 
L 370.768215 59.813675 
L 372.394198 58.602398 
L 374.02018 57.223406 
L 375.104169 56.273019 
L 376.188157 55.807143 
L 378.356134 54.05545 
L 379.440123 53.291414 
L 382.150094 51.260195 
L 383.776077 50.384348 
L 388.11203 47.216393 
L 388.654025 46.936867 
L 389.738013 46.135561 
L 390.280007 45.80013 
L 392.447984 43.992532 
L 394.615961 42.538999 
L 398.951915 39.166058 
L 400.577898 38.085227 
L 400.577898 38.085227 
" style="fill:none;stroke:#f10800;stroke-linecap:round;stroke-width:1.5;"/>
   </g>
   <g id="patch_3">
    <path d="M 59.690625 288.430125 
L 59.690625 22.318125 
" style="fill:none;stroke:#cccccc;stroke-linecap:square;stroke-linejoin:miter;stroke-width:0.8;"/>
   </g>
   <g id="patch_4">
    <path d="M 416.810625 288.430125 
L 416.810625 22.318125 
" style="fill:none;stroke:#cccccc;stroke-linecap:square;stroke-linejoin:miter;stroke-width:0.8;"/>
   </g>
   <g id="patch_5">
    <path d="M 59.690625 288.430125 
L 416.810625 288.430125 
" style="fill:none;stroke:#cccccc;stroke-linecap:square;stroke-linejoin:miter;stroke-width:0.8;"/>
   </g>
   <g id="patch_6">
    <path d="M 59.690625 22.318125 
L 416.810625 22.318125 
" style="fill:none;stroke:#cccccc;stroke-linecap:square;stroke-linejoin:miter;stroke-width:0.8;"/>
   </g>
   <g id="text_17">
    <!-- Naive T CD4 -->
    <defs>
     <path d="M 9.8125 72.90625 
L 23.09375 72.90625 
L 55.421875 11.921875 
L 55.421875 72.90625 
L 64.984375 72.90625 
L 64.984375 0 
L 51.703125 0 
L 19.390625 60.984375 
L 19.390625 0 
L 9.8125 0 
z
" id="DejaVuSans-78"/>
     <path d="M 2.984375 54.6875 
L 12.5 54.6875 
L 29.59375 8.796875 
L 46.6875 54.6875 
L 56.203125 54.6875 
L 35.6875 0 
L 23.484375 0 
z
" id="DejaVuSans-118"/>
     <path d="M -0.296875 72.90625 
L 61.375 72.90625 
L 61.375 64.59375 
L 35.5 64.59375 
L 35.5 0 
L 25.59375 0 
L 25.59375 64.59375 
L -0.296875 64.59375 
z
" id="DejaVuSans-84"/>
     <path d="M 64.40625 67.28125 
L 64.40625 56.890625 
Q 59.421875 61.53125 53.78125 63.8125 
Q 48.140625 66.109375 41.796875 66.109375 
Q 29.296875 66.109375 22.65625 58.46875 
Q 16.015625 50.828125 16.015625 36.375 
Q 16.015625 21.96875 22.65625 14.328125 
Q 29.296875 6.6875 41.796875 6.6875 
Q 48.140625 6.6875 53.78125 8.984375 
Q 59.421875 11.28125 64.40625 15.921875 
L 64.40625 5.609375 
Q 59.234375 2.09375 53.4375 0.328125 
Q 47.65625 -1.421875 41.21875 -1.421875 
Q 24.65625 -1.421875 15.125 8.703125 
Q 5.609375 18.84375 5.609375 36.375 
Q 5.609375 53.953125 15.125 64.078125 
Q 24.65625 74.21875 41.21875 74.21875 
Q 47.75 74.21875 53.53125 72.484375 
Q 59.328125 70.75 64.40625 67.28125 
z
" id="DejaVuSans-67"/>
     <path d="M 19.671875 64.796875 
L 19.671875 8.109375 
L 31.59375 8.109375 
Q 46.6875 8.109375 53.6875 14.9375 
Q 60.6875 21.78125 60.6875 36.53125 
Q 60.6875 51.171875 53.6875 57.984375 
Q 46.6875 64.796875 31.59375 64.796875 
z
M 9.8125 72.90625 
L 30.078125 72.90625 
Q 51.265625 72.90625 61.171875 64.09375 
Q 71.09375 55.28125 71.09375 36.53125 
Q 71.09375 17.671875 61.125 8.828125 
Q 51.171875 0 30.078125 0 
L 9.8125 0 
z
" id="DejaVuSans-68"/>
    </defs>
    <g style="fill:#262626;" transform="translate(201.069375 16.318125)scale(0.12 -0.12)">
     <use xlink:href="#DejaVuSans-78"/>
     <use x="74.804688" xlink:href="#DejaVuSans-97"/>
     <use x="136.083984" xlink:href="#DejaVuSans-105"/>
     <use x="163.867188" xlink:href="#DejaVuSans-118"/>
     <use x="223.046875" xlink:href="#DejaVuSans-101"/>
     <use x="284.570312" xlink:href="#DejaVuSans-32"/>
     <use x="316.357422" xlink:href="#DejaVuSans-84"/>
     <use x="377.441406" xlink:href="#DejaVuSans-32"/>
     <use x="409.228516" xlink:href="#DejaVuSans-67"/>
     <use x="479.052734" xlink:href="#DejaVuSans-68"/>
     <use x="556.054688" xlink:href="#DejaVuSans-52"/>
    </g>
   </g>
  </g>
 </g>
 <defs>
  <clipPath id="pb300335f0e">
   <rect height="266.112" width="357.12" x="59.690625" y="22.318125"/>
  </clipPath>
 </defs>
</svg>
