<?xml version="1.0" encoding="utf-8" standalone="no"?>
<!DOCTYPE svg PUBLIC "-//W3C//DTD SVG 1.1//EN"
  "http://www.w3.org/Graphics/SVG/1.1/DTD/svg11.dtd">
<!-- Created with matplotlib (https://matplotlib.org/) -->
<svg height="310.86825pt" version="1.1" viewBox="0 0 417.648125 310.86825" width="417.648125pt" xmlns="http://www.w3.org/2000/svg" xmlns:xlink="http://www.w3.org/1999/xlink">
 <defs>
  <style type="text/css">
*{stroke-linecap:butt;stroke-linejoin:round;white-space:pre;}
  </style>
 </defs>
 <g id="figure_1">
  <g id="patch_1">
   <path d="M 0 310.86825 
L 417.648125 310.86825 
L 417.648125 0 
L 0 0 
z
" style="fill:#ffffff;"/>
  </g>
  <g id="axes_1">
   <g id="patch_2">
    <path d="M 53.328125 273.312 
L 410.448125 273.312 
L 410.448125 7.2 
L 53.328125 7.2 
z
" style="fill:#ffffff;"/>
   </g>
   <g id="matplotlib.axis_1">
    <g id="xtick_1">
     <g id="line2d_1">
      <path clip-path="url(#p788011b299)" d="M 69.560852 273.312 
L 69.560852 7.2 
" style="fill:none;stroke:#cccccc;stroke-linecap:round;stroke-width:0.8;"/>
     </g>
     <g id="text_1">
      <!-- 0 -->
      <defs>
       <path d="M 31.78125 66.40625 
Q 24.171875 66.40625 20.328125 58.90625 
Q 16.5 51.421875 16.5 36.375 
Q 16.5 21.390625 20.328125 13.890625 
Q 24.171875 6.390625 31.78125 6.390625 
Q 39.453125 6.390625 43.28125 13.890625 
Q 47.125 21.390625 47.125 36.375 
Q 47.125 51.421875 43.28125 58.90625 
Q 39.453125 66.40625 31.78125 66.40625 
z
M 31.78125 74.21875 
Q 44.046875 74.21875 50.515625 64.515625 
Q 56.984375 54.828125 56.984375 36.375 
Q 56.984375 17.96875 50.515625 8.265625 
Q 44.046875 -1.421875 31.78125 -1.421875 
Q 19.53125 -1.421875 13.0625 8.265625 
Q 6.59375 17.96875 6.59375 36.375 
Q 6.59375 54.828125 13.0625 64.515625 
Q 19.53125 74.21875 31.78125 74.21875 
z
" id="DejaVuSans-48"/>
      </defs>
      <g style="fill:#262626;" transform="translate(66.379602 287.910437)scale(0.1 -0.1)">
       <use xlink:href="#DejaVuSans-48"/>
      </g>
     </g>
    </g>
    <g id="xtick_2">
     <g id="line2d_2">
      <path clip-path="url(#p788011b299)" d="M 110.244379 273.312 
L 110.244379 7.2 
" style="fill:none;stroke:#cccccc;stroke-linecap:round;stroke-width:0.8;"/>
     </g>
     <g id="text_2">
      <!-- 5 -->
      <defs>
       <path d="M 10.796875 72.90625 
L 49.515625 72.90625 
L 49.515625 64.59375 
L 19.828125 64.59375 
L 19.828125 46.734375 
Q 21.96875 47.46875 24.109375 47.828125 
Q 26.265625 48.1875 28.421875 48.1875 
Q 40.625 48.1875 47.75 41.5 
Q 54.890625 34.8125 54.890625 23.390625 
Q 54.890625 11.625 47.5625 5.09375 
Q 40.234375 -1.421875 26.90625 -1.421875 
Q 22.3125 -1.421875 17.546875 -0.640625 
Q 12.796875 0.140625 7.71875 1.703125 
L 7.71875 11.625 
Q 12.109375 9.234375 16.796875 8.0625 
Q 21.484375 6.890625 26.703125 6.890625 
Q 35.15625 6.890625 40.078125 11.328125 
Q 45.015625 15.765625 45.015625 23.390625 
Q 45.015625 31 40.078125 35.4375 
Q 35.15625 39.890625 26.703125 39.890625 
Q 22.75 39.890625 18.8125 39.015625 
Q 14.890625 38.140625 10.796875 36.28125 
z
" id="DejaVuSans-53"/>
      </defs>
      <g style="fill:#262626;" transform="translate(107.063129 287.910437)scale(0.1 -0.1)">
       <use xlink:href="#DejaVuSans-53"/>
      </g>
     </g>
    </g>
    <g id="xtick_3">
     <g id="line2d_3">
      <path clip-path="url(#p788011b299)" d="M 150.927906 273.312 
L 150.927906 7.2 
" style="fill:none;stroke:#cccccc;stroke-linecap:round;stroke-width:0.8;"/>
     </g>
     <g id="text_3">
      <!-- 10 -->
      <defs>
       <path d="M 12.40625 8.296875 
L 28.515625 8.296875 
L 28.515625 63.921875 
L 10.984375 60.40625 
L 10.984375 69.390625 
L 28.421875 72.90625 
L 38.28125 72.90625 
L 38.28125 8.296875 
L 54.390625 8.296875 
L 54.390625 0 
L 12.40625 0 
z
" id="DejaVuSans-49"/>
      </defs>
      <g style="fill:#262626;" transform="translate(144.565406 287.910437)scale(0.1 -0.1)">
       <use xlink:href="#DejaVuSans-49"/>
       <use x="63.623047" xlink:href="#DejaVuSans-48"/>
      </g>
     </g>
    </g>
    <g id="xtick_4">
     <g id="line2d_4">
      <path clip-path="url(#p788011b299)" d="M 191.611433 273.312 
L 191.611433 7.2 
" style="fill:none;stroke:#cccccc;stroke-linecap:round;stroke-width:0.8;"/>
     </g>
     <g id="text_4">
      <!-- 15 -->
      <g style="fill:#262626;" transform="translate(185.248933 287.910437)scale(0.1 -0.1)">
       <use xlink:href="#DejaVuSans-49"/>
       <use x="63.623047" xlink:href="#DejaVuSans-53"/>
      </g>
     </g>
    </g>
    <g id="xtick_5">
     <g id="line2d_5">
      <path clip-path="url(#p788011b299)" d="M 232.29496 273.312 
L 232.29496 7.2 
" style="fill:none;stroke:#cccccc;stroke-linecap:round;stroke-width:0.8;"/>
     </g>
     <g id="text_5">
      <!-- 20 -->
      <defs>
       <path d="M 19.1875 8.296875 
L 53.609375 8.296875 
L 53.609375 0 
L 7.328125 0 
L 7.328125 8.296875 
Q 12.9375 14.109375 22.625 23.890625 
Q 32.328125 33.6875 34.8125 36.53125 
Q 39.546875 41.84375 41.421875 45.53125 
Q 43.3125 49.21875 43.3125 52.78125 
Q 43.3125 58.59375 39.234375 62.25 
Q 35.15625 65.921875 28.609375 65.921875 
Q 23.96875 65.921875 18.8125 64.3125 
Q 13.671875 62.703125 7.8125 59.421875 
L 7.8125 69.390625 
Q 13.765625 71.78125 18.9375 73 
Q 24.125 74.21875 28.421875 74.21875 
Q 39.75 74.21875 46.484375 68.546875 
Q 53.21875 62.890625 53.21875 53.421875 
Q 53.21875 48.921875 51.53125 44.890625 
Q 49.859375 40.875 45.40625 35.40625 
Q 44.1875 33.984375 37.640625 27.21875 
Q 31.109375 20.453125 19.1875 8.296875 
z
" id="DejaVuSans-50"/>
      </defs>
      <g style="fill:#262626;" transform="translate(225.93246 287.910437)scale(0.1 -0.1)">
       <use xlink:href="#DejaVuSans-50"/>
       <use x="63.623047" xlink:href="#DejaVuSans-48"/>
      </g>
     </g>
    </g>
    <g id="xtick_6">
     <g id="line2d_6">
      <path clip-path="url(#p788011b299)" d="M 272.978487 273.312 
L 272.978487 7.2 
" style="fill:none;stroke:#cccccc;stroke-linecap:round;stroke-width:0.8;"/>
     </g>
     <g id="text_6">
      <!-- 25 -->
      <g style="fill:#262626;" transform="translate(266.615987 287.910437)scale(0.1 -0.1)">
       <use xlink:href="#DejaVuSans-50"/>
       <use x="63.623047" xlink:href="#DejaVuSans-53"/>
      </g>
     </g>
    </g>
    <g id="xtick_7">
     <g id="line2d_7">
      <path clip-path="url(#p788011b299)" d="M 313.662014 273.312 
L 313.662014 7.2 
" style="fill:none;stroke:#cccccc;stroke-linecap:round;stroke-width:0.8;"/>
     </g>
     <g id="text_7">
      <!-- 30 -->
      <defs>
       <path d="M 40.578125 39.3125 
Q 47.65625 37.796875 51.625 33 
Q 55.609375 28.21875 55.609375 21.1875 
Q 55.609375 10.40625 48.1875 4.484375 
Q 40.765625 -1.421875 27.09375 -1.421875 
Q 22.515625 -1.421875 17.65625 -0.515625 
Q 12.796875 0.390625 7.625 2.203125 
L 7.625 11.71875 
Q 11.71875 9.328125 16.59375 8.109375 
Q 21.484375 6.890625 26.8125 6.890625 
Q 36.078125 6.890625 40.9375 10.546875 
Q 45.796875 14.203125 45.796875 21.1875 
Q 45.796875 27.640625 41.28125 31.265625 
Q 36.765625 34.90625 28.71875 34.90625 
L 20.21875 34.90625 
L 20.21875 43.015625 
L 29.109375 43.015625 
Q 36.375 43.015625 40.234375 45.921875 
Q 44.09375 48.828125 44.09375 54.296875 
Q 44.09375 59.90625 40.109375 62.90625 
Q 36.140625 65.921875 28.71875 65.921875 
Q 24.65625 65.921875 20.015625 65.03125 
Q 15.375 64.15625 9.8125 62.3125 
L 9.8125 71.09375 
Q 15.4375 72.65625 20.34375 73.4375 
Q 25.25 74.21875 29.59375 74.21875 
Q 40.828125 74.21875 47.359375 69.109375 
Q 53.90625 64.015625 53.90625 55.328125 
Q 53.90625 49.265625 50.4375 45.09375 
Q 46.96875 40.921875 40.578125 39.3125 
z
" id="DejaVuSans-51"/>
      </defs>
      <g style="fill:#262626;" transform="translate(307.299514 287.910437)scale(0.1 -0.1)">
       <use xlink:href="#DejaVuSans-51"/>
       <use x="63.623047" xlink:href="#DejaVuSans-48"/>
      </g>
     </g>
    </g>
    <g id="xtick_8">
     <g id="line2d_8">
      <path clip-path="url(#p788011b299)" d="M 354.345541 273.312 
L 354.345541 7.2 
" style="fill:none;stroke:#cccccc;stroke-linecap:round;stroke-width:0.8;"/>
     </g>
     <g id="text_8">
      <!-- 35 -->
      <g style="fill:#262626;" transform="translate(347.983041 287.910437)scale(0.1 -0.1)">
       <use xlink:href="#DejaVuSans-51"/>
       <use x="63.623047" xlink:href="#DejaVuSans-53"/>
      </g>
     </g>
    </g>
    <g id="xtick_9">
     <g id="line2d_9">
      <path clip-path="url(#p788011b299)" d="M 395.029068 273.312 
L 395.029068 7.2 
" style="fill:none;stroke:#cccccc;stroke-linecap:round;stroke-width:0.8;"/>
     </g>
     <g id="text_9">
      <!-- 40 -->
      <defs>
       <path d="M 37.796875 64.3125 
L 12.890625 25.390625 
L 37.796875 25.390625 
z
M 35.203125 72.90625 
L 47.609375 72.90625 
L 47.609375 25.390625 
L 58.015625 25.390625 
L 58.015625 17.1875 
L 47.609375 17.1875 
L 47.609375 0 
L 37.796875 0 
L 37.796875 17.1875 
L 4.890625 17.1875 
L 4.890625 26.703125 
z
" id="DejaVuSans-52"/>
      </defs>
      <g style="fill:#262626;" transform="translate(388.666568 287.910437)scale(0.1 -0.1)">
       <use xlink:href="#DejaVuSans-52"/>
       <use x="63.623047" xlink:href="#DejaVuSans-48"/>
      </g>
     </g>
    </g>
    <g id="text_10">
     <!-- time (days) -->
     <defs>
      <path d="M 18.3125 70.21875 
L 18.3125 54.6875 
L 36.8125 54.6875 
L 36.8125 47.703125 
L 18.3125 47.703125 
L 18.3125 18.015625 
Q 18.3125 11.328125 20.140625 9.421875 
Q 21.96875 7.515625 27.59375 7.515625 
L 36.8125 7.515625 
L 36.8125 0 
L 27.59375 0 
Q 17.1875 0 13.234375 3.875 
Q 9.28125 7.765625 9.28125 18.015625 
L 9.28125 47.703125 
L 2.6875 47.703125 
L 2.6875 54.6875 
L 9.28125 54.6875 
L 9.28125 70.21875 
z
" id="DejaVuSans-116"/>
      <path d="M 9.421875 54.6875 
L 18.40625 54.6875 
L 18.40625 0 
L 9.421875 0 
z
M 9.421875 75.984375 
L 18.40625 75.984375 
L 18.40625 64.59375 
L 9.421875 64.59375 
z
" id="DejaVuSans-105"/>
      <path d="M 52 44.1875 
Q 55.375 50.25 60.0625 53.125 
Q 64.75 56 71.09375 56 
Q 79.640625 56 84.28125 50.015625 
Q 88.921875 44.046875 88.921875 33.015625 
L 88.921875 0 
L 79.890625 0 
L 79.890625 32.71875 
Q 79.890625 40.578125 77.09375 44.375 
Q 74.3125 48.1875 68.609375 48.1875 
Q 61.625 48.1875 57.5625 43.546875 
Q 53.515625 38.921875 53.515625 30.90625 
L 53.515625 0 
L 44.484375 0 
L 44.484375 32.71875 
Q 44.484375 40.625 41.703125 44.40625 
Q 38.921875 48.1875 33.109375 48.1875 
Q 26.21875 48.1875 22.15625 43.53125 
Q 18.109375 38.875 18.109375 30.90625 
L 18.109375 0 
L 9.078125 0 
L 9.078125 54.6875 
L 18.109375 54.6875 
L 18.109375 46.1875 
Q 21.1875 51.21875 25.484375 53.609375 
Q 29.78125 56 35.6875 56 
Q 41.65625 56 45.828125 52.96875 
Q 50 49.953125 52 44.1875 
z
" id="DejaVuSans-109"/>
      <path d="M 56.203125 29.59375 
L 56.203125 25.203125 
L 14.890625 25.203125 
Q 15.484375 15.921875 20.484375 11.0625 
Q 25.484375 6.203125 34.421875 6.203125 
Q 39.59375 6.203125 44.453125 7.46875 
Q 49.3125 8.734375 54.109375 11.28125 
L 54.109375 2.78125 
Q 49.265625 0.734375 44.1875 -0.34375 
Q 39.109375 -1.421875 33.890625 -1.421875 
Q 20.796875 -1.421875 13.15625 6.1875 
Q 5.515625 13.8125 5.515625 26.8125 
Q 5.515625 40.234375 12.765625 48.109375 
Q 20.015625 56 32.328125 56 
Q 43.359375 56 49.78125 48.890625 
Q 56.203125 41.796875 56.203125 29.59375 
z
M 47.21875 32.234375 
Q 47.125 39.59375 43.09375 43.984375 
Q 39.0625 48.390625 32.421875 48.390625 
Q 24.90625 48.390625 20.390625 44.140625 
Q 15.875 39.890625 15.1875 32.171875 
z
" id="DejaVuSans-101"/>
      <path id="DejaVuSans-32"/>
      <path d="M 31 75.875 
Q 24.46875 64.65625 21.28125 53.65625 
Q 18.109375 42.671875 18.109375 31.390625 
Q 18.109375 20.125 21.3125 9.0625 
Q 24.515625 -2 31 -13.1875 
L 23.1875 -13.1875 
Q 15.875 -1.703125 12.234375 9.375 
Q 8.59375 20.453125 8.59375 31.390625 
Q 8.59375 42.28125 12.203125 53.3125 
Q 15.828125 64.359375 23.1875 75.875 
z
" id="DejaVuSans-40"/>
      <path d="M 45.40625 46.390625 
L 45.40625 75.984375 
L 54.390625 75.984375 
L 54.390625 0 
L 45.40625 0 
L 45.40625 8.203125 
Q 42.578125 3.328125 38.25 0.953125 
Q 33.9375 -1.421875 27.875 -1.421875 
Q 17.96875 -1.421875 11.734375 6.484375 
Q 5.515625 14.40625 5.515625 27.296875 
Q 5.515625 40.1875 11.734375 48.09375 
Q 17.96875 56 27.875 56 
Q 33.9375 56 38.25 53.625 
Q 42.578125 51.265625 45.40625 46.390625 
z
M 14.796875 27.296875 
Q 14.796875 17.390625 18.875 11.75 
Q 22.953125 6.109375 30.078125 6.109375 
Q 37.203125 6.109375 41.296875 11.75 
Q 45.40625 17.390625 45.40625 27.296875 
Q 45.40625 37.203125 41.296875 42.84375 
Q 37.203125 48.484375 30.078125 48.484375 
Q 22.953125 48.484375 18.875 42.84375 
Q 14.796875 37.203125 14.796875 27.296875 
z
" id="DejaVuSans-100"/>
      <path d="M 34.28125 27.484375 
Q 23.390625 27.484375 19.1875 25 
Q 14.984375 22.515625 14.984375 16.5 
Q 14.984375 11.71875 18.140625 8.90625 
Q 21.296875 6.109375 26.703125 6.109375 
Q 34.1875 6.109375 38.703125 11.40625 
Q 43.21875 16.703125 43.21875 25.484375 
L 43.21875 27.484375 
z
M 52.203125 31.203125 
L 52.203125 0 
L 43.21875 0 
L 43.21875 8.296875 
Q 40.140625 3.328125 35.546875 0.953125 
Q 30.953125 -1.421875 24.3125 -1.421875 
Q 15.921875 -1.421875 10.953125 3.296875 
Q 6 8.015625 6 15.921875 
Q 6 25.140625 12.171875 29.828125 
Q 18.359375 34.515625 30.609375 34.515625 
L 43.21875 34.515625 
L 43.21875 35.40625 
Q 43.21875 41.609375 39.140625 45 
Q 35.0625 48.390625 27.6875 48.390625 
Q 23 48.390625 18.546875 47.265625 
Q 14.109375 46.140625 10.015625 43.890625 
L 10.015625 52.203125 
Q 14.9375 54.109375 19.578125 55.046875 
Q 24.21875 56 28.609375 56 
Q 40.484375 56 46.34375 49.84375 
Q 52.203125 43.703125 52.203125 31.203125 
z
" id="DejaVuSans-97"/>
      <path d="M 32.171875 -5.078125 
Q 28.375 -14.84375 24.75 -17.8125 
Q 21.140625 -20.796875 15.09375 -20.796875 
L 7.90625 -20.796875 
L 7.90625 -13.28125 
L 13.1875 -13.28125 
Q 16.890625 -13.28125 18.9375 -11.515625 
Q 21 -9.765625 23.484375 -3.21875 
L 25.09375 0.875 
L 2.984375 54.6875 
L 12.5 54.6875 
L 29.59375 11.921875 
L 46.6875 54.6875 
L 56.203125 54.6875 
z
" id="DejaVuSans-121"/>
      <path d="M 44.28125 53.078125 
L 44.28125 44.578125 
Q 40.484375 46.53125 36.375 47.5 
Q 32.28125 48.484375 27.875 48.484375 
Q 21.1875 48.484375 17.84375 46.4375 
Q 14.5 44.390625 14.5 40.28125 
Q 14.5 37.15625 16.890625 35.375 
Q 19.28125 33.59375 26.515625 31.984375 
L 29.59375 31.296875 
Q 39.15625 29.25 43.1875 25.515625 
Q 47.21875 21.78125 47.21875 15.09375 
Q 47.21875 7.46875 41.1875 3.015625 
Q 35.15625 -1.421875 24.609375 -1.421875 
Q 20.21875 -1.421875 15.453125 -0.5625 
Q 10.6875 0.296875 5.421875 2 
L 5.421875 11.28125 
Q 10.40625 8.6875 15.234375 7.390625 
Q 20.0625 6.109375 24.8125 6.109375 
Q 31.15625 6.109375 34.5625 8.28125 
Q 37.984375 10.453125 37.984375 14.40625 
Q 37.984375 18.0625 35.515625 20.015625 
Q 33.0625 21.96875 24.703125 23.78125 
L 21.578125 24.515625 
Q 13.234375 26.265625 9.515625 29.90625 
Q 5.8125 33.546875 5.8125 39.890625 
Q 5.8125 47.609375 11.28125 51.796875 
Q 16.75 56 26.8125 56 
Q 31.78125 56 36.171875 55.265625 
Q 40.578125 54.546875 44.28125 53.078125 
z
" id="DejaVuSans-115"/>
      <path d="M 8.015625 75.875 
L 15.828125 75.875 
Q 23.140625 64.359375 26.78125 53.3125 
Q 30.421875 42.28125 30.421875 31.390625 
Q 30.421875 20.453125 26.78125 9.375 
Q 23.140625 -1.703125 15.828125 -13.1875 
L 8.015625 -13.1875 
Q 14.5 -2 17.703125 9.0625 
Q 20.90625 20.125 20.90625 31.390625 
Q 20.90625 42.671875 17.703125 53.65625 
Q 14.5 64.65625 8.015625 75.875 
z
" id="DejaVuSans-41"/>
     </defs>
     <g style="fill:#262626;" transform="translate(203.299063 301.588562)scale(0.1 -0.1)">
      <use xlink:href="#DejaVuSans-116"/>
      <use x="39.208984" xlink:href="#DejaVuSans-105"/>
      <use x="66.992188" xlink:href="#DejaVuSans-109"/>
      <use x="164.404297" xlink:href="#DejaVuSans-101"/>
      <use x="225.927734" xlink:href="#DejaVuSans-32"/>
      <use x="257.714844" xlink:href="#DejaVuSans-40"/>
      <use x="296.728516" xlink:href="#DejaVuSans-100"/>
      <use x="360.205078" xlink:href="#DejaVuSans-97"/>
      <use x="421.484375" xlink:href="#DejaVuSans-121"/>
      <use x="480.664062" xlink:href="#DejaVuSans-115"/>
      <use x="532.763672" xlink:href="#DejaVuSans-41"/>
     </g>
    </g>
   </g>
   <g id="matplotlib.axis_2">
    <g id="ytick_1">
     <g id="line2d_10">
      <path clip-path="url(#p788011b299)" d="M 53.328125 261.271575 
L 410.448125 261.271575 
" style="fill:none;stroke:#cccccc;stroke-linecap:round;stroke-width:0.8;"/>
     </g>
     <g id="text_11">
      <!-- 0 -->
      <g style="fill:#262626;" transform="translate(39.965625 265.070794)scale(0.1 -0.1)">
       <use xlink:href="#DejaVuSans-48"/>
      </g>
     </g>
    </g>
    <g id="ytick_2">
     <g id="line2d_11">
      <path clip-path="url(#p788011b299)" d="M 53.328125 205.69611 
L 410.448125 205.69611 
" style="fill:none;stroke:#cccccc;stroke-linecap:round;stroke-width:0.8;"/>
     </g>
     <g id="text_12">
      <!-- 1000 -->
      <g style="fill:#262626;" transform="translate(20.878125 209.495329)scale(0.1 -0.1)">
       <use xlink:href="#DejaVuSans-49"/>
       <use x="63.623047" xlink:href="#DejaVuSans-48"/>
       <use x="127.246094" xlink:href="#DejaVuSans-48"/>
       <use x="190.869141" xlink:href="#DejaVuSans-48"/>
      </g>
     </g>
    </g>
    <g id="ytick_3">
     <g id="line2d_12">
      <path clip-path="url(#p788011b299)" d="M 53.328125 150.120645 
L 410.448125 150.120645 
" style="fill:none;stroke:#cccccc;stroke-linecap:round;stroke-width:0.8;"/>
     </g>
     <g id="text_13">
      <!-- 2000 -->
      <g style="fill:#262626;" transform="translate(20.878125 153.919864)scale(0.1 -0.1)">
       <use xlink:href="#DejaVuSans-50"/>
       <use x="63.623047" xlink:href="#DejaVuSans-48"/>
       <use x="127.246094" xlink:href="#DejaVuSans-48"/>
       <use x="190.869141" xlink:href="#DejaVuSans-48"/>
      </g>
     </g>
    </g>
    <g id="ytick_4">
     <g id="line2d_13">
      <path clip-path="url(#p788011b299)" d="M 53.328125 94.54518 
L 410.448125 94.54518 
" style="fill:none;stroke:#cccccc;stroke-linecap:round;stroke-width:0.8;"/>
     </g>
     <g id="text_14">
      <!-- 3000 -->
      <g style="fill:#262626;" transform="translate(20.878125 98.344399)scale(0.1 -0.1)">
       <use xlink:href="#DejaVuSans-51"/>
       <use x="63.623047" xlink:href="#DejaVuSans-48"/>
       <use x="127.246094" xlink:href="#DejaVuSans-48"/>
       <use x="190.869141" xlink:href="#DejaVuSans-48"/>
      </g>
     </g>
    </g>
    <g id="ytick_5">
     <g id="line2d_14">
      <path clip-path="url(#p788011b299)" d="M 53.328125 38.969715 
L 410.448125 38.969715 
" style="fill:none;stroke:#cccccc;stroke-linecap:round;stroke-width:0.8;"/>
     </g>
     <g id="text_15">
      <!-- 4000 -->
      <g style="fill:#262626;" transform="translate(20.878125 42.768933)scale(0.1 -0.1)">
       <use xlink:href="#DejaVuSans-52"/>
       <use x="63.623047" xlink:href="#DejaVuSans-48"/>
       <use x="127.246094" xlink:href="#DejaVuSans-48"/>
       <use x="190.869141" xlink:href="#DejaVuSans-48"/>
      </g>
     </g>
    </g>
    <g id="text_16">
     <!-- cells number -->
     <defs>
      <path d="M 48.78125 52.59375 
L 48.78125 44.1875 
Q 44.96875 46.296875 41.140625 47.34375 
Q 37.3125 48.390625 33.40625 48.390625 
Q 24.65625 48.390625 19.8125 42.84375 
Q 14.984375 37.3125 14.984375 27.296875 
Q 14.984375 17.28125 19.8125 11.734375 
Q 24.65625 6.203125 33.40625 6.203125 
Q 37.3125 6.203125 41.140625 7.25 
Q 44.96875 8.296875 48.78125 10.40625 
L 48.78125 2.09375 
Q 45.015625 0.34375 40.984375 -0.53125 
Q 36.96875 -1.421875 32.421875 -1.421875 
Q 20.0625 -1.421875 12.78125 6.34375 
Q 5.515625 14.109375 5.515625 27.296875 
Q 5.515625 40.671875 12.859375 48.328125 
Q 20.21875 56 33.015625 56 
Q 37.15625 56 41.109375 55.140625 
Q 45.0625 54.296875 48.78125 52.59375 
z
" id="DejaVuSans-99"/>
      <path d="M 9.421875 75.984375 
L 18.40625 75.984375 
L 18.40625 0 
L 9.421875 0 
z
" id="DejaVuSans-108"/>
      <path d="M 54.890625 33.015625 
L 54.890625 0 
L 45.90625 0 
L 45.90625 32.71875 
Q 45.90625 40.484375 42.875 44.328125 
Q 39.84375 48.1875 33.796875 48.1875 
Q 26.515625 48.1875 22.3125 43.546875 
Q 18.109375 38.921875 18.109375 30.90625 
L 18.109375 0 
L 9.078125 0 
L 9.078125 54.6875 
L 18.109375 54.6875 
L 18.109375 46.1875 
Q 21.34375 51.125 25.703125 53.5625 
Q 30.078125 56 35.796875 56 
Q 45.21875 56 50.046875 50.171875 
Q 54.890625 44.34375 54.890625 33.015625 
z
" id="DejaVuSans-110"/>
      <path d="M 8.5 21.578125 
L 8.5 54.6875 
L 17.484375 54.6875 
L 17.484375 21.921875 
Q 17.484375 14.15625 20.5 10.265625 
Q 23.53125 6.390625 29.59375 6.390625 
Q 36.859375 6.390625 41.078125 11.03125 
Q 45.3125 15.671875 45.3125 23.6875 
L 45.3125 54.6875 
L 54.296875 54.6875 
L 54.296875 0 
L 45.3125 0 
L 45.3125 8.40625 
Q 42.046875 3.421875 37.71875 1 
Q 33.40625 -1.421875 27.6875 -1.421875 
Q 18.265625 -1.421875 13.375 4.4375 
Q 8.5 10.296875 8.5 21.578125 
z
M 31.109375 56 
z
" id="DejaVuSans-117"/>
      <path d="M 48.6875 27.296875 
Q 48.6875 37.203125 44.609375 42.84375 
Q 40.53125 48.484375 33.40625 48.484375 
Q 26.265625 48.484375 22.1875 42.84375 
Q 18.109375 37.203125 18.109375 27.296875 
Q 18.109375 17.390625 22.1875 11.75 
Q 26.265625 6.109375 33.40625 6.109375 
Q 40.53125 6.109375 44.609375 11.75 
Q 48.6875 17.390625 48.6875 27.296875 
z
M 18.109375 46.390625 
Q 20.953125 51.265625 25.265625 53.625 
Q 29.59375 56 35.59375 56 
Q 45.5625 56 51.78125 48.09375 
Q 58.015625 40.1875 58.015625 27.296875 
Q 58.015625 14.40625 51.78125 6.484375 
Q 45.5625 -1.421875 35.59375 -1.421875 
Q 29.59375 -1.421875 25.265625 0.953125 
Q 20.953125 3.328125 18.109375 8.203125 
L 18.109375 0 
L 9.078125 0 
L 9.078125 75.984375 
L 18.109375 75.984375 
z
" id="DejaVuSans-98"/>
      <path d="M 41.109375 46.296875 
Q 39.59375 47.171875 37.8125 47.578125 
Q 36.03125 48 33.890625 48 
Q 26.265625 48 22.1875 43.046875 
Q 18.109375 38.09375 18.109375 28.8125 
L 18.109375 0 
L 9.078125 0 
L 9.078125 54.6875 
L 18.109375 54.6875 
L 18.109375 46.1875 
Q 20.953125 51.171875 25.484375 53.578125 
Q 30.03125 56 36.53125 56 
Q 37.453125 56 38.578125 55.875 
Q 39.703125 55.765625 41.0625 55.515625 
z
" id="DejaVuSans-114"/>
     </defs>
     <g style="fill:#262626;" transform="translate(14.798438 172.567719)rotate(-90)scale(0.1 -0.1)">
      <use xlink:href="#DejaVuSans-99"/>
      <use x="54.980469" xlink:href="#DejaVuSans-101"/>
      <use x="116.503906" xlink:href="#DejaVuSans-108"/>
      <use x="144.287109" xlink:href="#DejaVuSans-108"/>
      <use x="172.070312" xlink:href="#DejaVuSans-115"/>
      <use x="224.169922" xlink:href="#DejaVuSans-32"/>
      <use x="255.957031" xlink:href="#DejaVuSans-110"/>
      <use x="319.335938" xlink:href="#DejaVuSans-117"/>
      <use x="382.714844" xlink:href="#DejaVuSans-109"/>
      <use x="480.126953" xlink:href="#DejaVuSans-98"/>
      <use x="543.603516" xlink:href="#DejaVuSans-101"/>
      <use x="605.126953" xlink:href="#DejaVuSans-114"/>
     </g>
    </g>
   </g>
   <g id="line2d_15">
    <path clip-path="url(#p788011b299)" d="M 69.560852 261.160425 
L 70.374523 259.771038 
L 71.188193 257.881472 
L 72.001864 254.991548 
L 72.815534 250.378784 
L 75.256546 239.76387 
L 79.324899 213.810128 
L 80.95224 202.194856 
L 85.834263 168.293822 
L 86.647934 163.79221 
L 89.902616 143.785042 
L 90.716286 139.061127 
L 91.529957 135.059694 
L 92.343627 130.391355 
L 93.970968 122.166186 
L 97.225651 104.937792 
L 98.039321 101.047509 
L 98.852992 95.934567 
L 100.480333 87.709398 
L 102.107674 81.318219 
L 104.548685 71.981541 
L 106.176027 66.924174 
L 106.989697 64.590004 
L 107.803368 61.477778 
L 108.617038 59.36591 
L 109.430709 56.086958 
L 110.244379 53.697213 
L 111.05805 52.252251 
L 111.87172 50.30711 
L 112.685391 48.862147 
L 115.126403 43.082299 
L 115.940073 41.248309 
L 116.753744 40.025649 
L 117.567414 38.024932 
L 118.381085 37.135724 
L 119.194755 35.357309 
L 120.008426 34.356951 
L 120.822096 32.911989 
L 121.635767 31.744904 
L 122.449437 30.855697 
L 123.263108 30.244367 
L 124.076778 29.799763 
L 124.890449 29.132857 
L 125.70412 29.188433 
L 126.51779 28.743829 
L 129.772472 28.521527 
L 130.586143 28.910555 
L 131.399813 29.46631 
L 132.213484 29.46631 
L 133.027154 29.799763 
L 133.840825 29.744187 
L 134.654495 29.521886 
L 136.281837 29.633037 
L 137.095507 30.244367 
L 137.909178 30.355518 
L 138.722848 30.133216 
L 139.536519 30.299942 
L 140.350189 30.07764 
L 142.791201 30.522244 
L 143.604871 30.522244 
L 144.418542 30.744546 
L 145.232212 30.466669 
L 146.045883 30.800121 
L 146.859554 30.911272 
L 149.300565 30.299942 
L 150.927906 31.18915 
L 151.741577 31.355876 
L 152.555247 31.689329 
L 153.368918 31.744904 
L 154.182588 32.856414 
L 155.80993 34.690404 
L 156.6236 35.357309 
L 157.437271 36.302092 
L 159.878282 37.913781 
L 160.691953 38.691837 
L 163.132964 39.914498 
L 163.946635 40.74813 
L 164.760305 40.914856 
L 166.387647 42.193092 
L 167.201317 42.637695 
L 168.014988 43.693629 
L 168.828658 44.304959 
L 169.642329 45.138591 
L 170.455999 45.638771 
L 172.08334 47.194884 
L 172.897011 47.97294 
L 173.710681 48.473119 
L 174.524352 49.80693 
L 175.338022 50.584987 
L 176.965364 51.640921 
L 177.779034 52.363402 
L 178.592705 53.308185 
L 179.406375 54.030666 
L 180.220046 54.919873 
L 181.847387 56.142533 
L 183.474728 57.920948 
L 184.288398 58.421127 
L 187.543081 62.033533 
L 188.356751 62.811589 
L 189.170422 63.367344 
L 191.611433 65.479212 
L 192.425104 66.423994 
L 193.238774 67.035325 
L 194.052445 68.146834 
L 194.866115 68.424711 
L 197.307127 70.814456 
L 200.561809 72.926324 
L 201.37548 73.537654 
L 203.002821 75.149343 
L 203.816491 76.03855 
L 206.257503 77.816965 
L 208.698515 80.317861 
L 209.512185 80.929191 
L 210.325856 82.207427 
L 211.139526 82.763181 
L 211.953197 83.652389 
L 212.766867 84.37487 
L 213.580538 84.875049 
L 214.394208 85.59753 
L 215.207879 86.597888 
L 216.021549 87.320369 
L 217.648891 88.320728 
L 218.462561 89.15436 
L 220.089902 90.043567 
L 221.717243 91.877558 
L 223.344584 93.433671 
L 225.785596 94.823057 
L 226.599266 95.601114 
L 228.226608 96.545897 
L 229.040278 97.435104 
L 230.667619 98.824491 
L 231.48129 99.880425 
L 233.108631 101.380962 
L 233.922301 101.658839 
L 237.176984 104.493188 
L 238.804325 105.604697 
L 239.617995 106.54948 
L 240.431666 107.16081 
L 241.245336 107.605414 
L 242.059007 108.27232 
L 242.872677 109.161527 
L 247.754701 112.218178 
L 248.568371 112.940659 
L 249.382042 113.829866 
L 250.195712 114.385621 
L 251.009383 115.108102 
L 255.077735 117.8313 
L 255.891406 118.275904 
L 256.705076 119.165111 
L 260.773429 122.833092 
L 261.5871 123.333271 
L 264.028111 125.278412 
L 265.655452 126.16762 
L 266.469123 126.556648 
L 267.282793 127.279129 
L 268.096464 127.668157 
L 271.351146 130.224629 
L 273.792158 131.669591 
L 275.419499 133.058977 
L 276.233169 133.503581 
L 277.04684 134.337213 
L 278.674181 135.115269 
L 281.928863 137.282713 
L 283.556204 138.227496 
L 284.369875 138.78325 
L 285.183545 139.116703 
L 285.997216 139.728033 
L 287.624557 140.728391 
L 289.251898 141.839901 
L 290.879239 142.617957 
L 291.69291 143.006986 
L 293.320251 144.062919 
L 294.133921 144.340797 
L 294.947592 144.896551 
L 298.202274 146.397089 
L 299.829615 147.564174 
L 303.084297 148.95356 
L 303.897968 149.064711 
L 304.711638 149.453739 
L 305.525309 149.676041 
L 306.338979 150.287371 
L 307.15265 150.620824 
L 307.96632 151.343305 
L 308.779991 151.565607 
L 309.593662 152.010211 
L 310.407332 152.788267 
L 315.289355 156.06722 
L 316.103026 156.456248 
L 316.916696 157.067578 
L 317.730367 157.28988 
L 319.357708 158.123512 
L 320.985049 158.901569 
L 322.61239 159.735201 
L 323.426061 160.23538 
L 325.867072 160.957861 
L 326.680743 161.513615 
L 328.308084 162.180521 
L 329.935425 162.958578 
L 330.749096 163.625483 
L 333.190107 164.514691 
L 334.003778 164.681417 
L 334.817448 165.126021 
L 335.631119 165.737351 
L 336.444789 166.070804 
L 337.25846 166.626558 
L 338.07213 166.84886 
L 338.885801 167.293464 
L 342.954154 168.5717 
L 346.208836 169.516482 
L 351.090859 171.572775 
L 351.90453 171.683926 
L 353.531871 172.184105 
L 354.345541 172.350831 
L 359.227565 174.462699 
L 361.668576 175.518633 
L 362.482247 175.852085 
L 363.295917 175.963236 
L 364.923258 176.630142 
L 365.736929 177.074746 
L 366.550599 177.352623 
L 367.36427 177.463774 
L 368.17794 177.963953 
L 368.991611 178.24183 
L 369.805282 179.019887 
L 370.618952 179.575642 
L 372.246293 180.186972 
L 376.314646 181.409632 
L 377.128316 181.909811 
L 377.941987 182.243264 
L 378.755657 182.743443 
L 379.569328 183.076896 
L 380.382999 183.188047 
L 381.196669 183.632651 
L 383.637681 184.410707 
L 385.265022 184.799735 
L 386.078692 185.188764 
L 386.892363 185.299915 
L 387.706033 185.800094 
L 388.519704 186.022396 
L 389.333374 186.411424 
L 390.147045 187.078329 
L 390.960716 187.133905 
L 393.401727 188.412141 
L 394.215398 188.690018 
L 394.215398 188.690018 
" style="fill:none;stroke:#000080;stroke-linecap:round;stroke-width:1.5;"/>
   </g>
   <g id="line2d_16">
    <path clip-path="url(#p788011b299)" d="M 69.560852 261.160425 
L 70.374523 259.826613 
L 71.188193 257.65917 
L 72.001864 254.935972 
L 75.256546 237.485276 
L 78.511228 217.755986 
L 79.324899 211.198081 
L 80.138569 206.196289 
L 81.76591 193.69181 
L 82.579581 189.023471 
L 83.393251 183.299198 
L 84.206922 178.408557 
L 85.020593 172.628708 
L 85.834263 168.349398 
L 86.647934 162.402823 
L 88.275275 152.176937 
L 89.088945 147.842051 
L 93.157298 122.388488 
L 94.784639 114.330045 
L 95.59831 110.773216 
L 97.225651 102.27017 
L 98.852992 95.100935 
L 100.480333 87.320369 
L 101.294003 84.208143 
L 102.107674 81.540521 
L 103.735015 74.593588 
L 105.362356 68.257985 
L 106.176027 65.590363 
L 106.989697 62.033533 
L 108.617038 56.587137 
L 109.430709 54.197392 
L 110.244379 52.363402 
L 111.87172 48.195242 
L 113.499061 42.971148 
L 114.312732 41.35946 
L 115.126403 38.525111 
L 115.940073 37.080149 
L 116.753744 36.135366 
L 117.567414 33.856772 
L 118.381085 32.467385 
L 119.194755 31.3003 
L 120.008426 30.911272 
L 120.822096 29.633037 
L 123.263108 26.909839 
L 124.076778 26.854263 
L 124.890449 26.020631 
L 125.70412 25.965056 
L 126.51779 25.742754 
L 127.331461 25.353726 
L 128.958802 25.965056 
L 129.772472 25.353726 
L 130.586143 25.242575 
L 131.399813 24.797971 
L 133.027154 24.68682 
L 134.654495 25.020273 
L 135.468166 25.576028 
L 136.281837 25.742754 
L 137.095507 26.076207 
L 137.909178 26.131782 
L 138.722848 25.742754 
L 139.536519 25.687178 
L 140.350189 26.131782 
L 141.16386 26.298509 
L 141.97753 26.743112 
L 142.791201 26.909839 
L 143.604871 27.354442 
L 144.418542 28.076924 
L 145.232212 28.465952 
L 146.045883 29.021706 
L 146.859554 29.855338 
L 147.673224 30.299942 
L 148.486895 31.133574 
L 150.927906 32.245083 
L 151.741577 32.911989 
L 152.555247 34.079074 
L 154.996259 36.024215 
L 155.80993 36.913422 
L 157.437271 38.191658 
L 158.250941 39.303167 
L 159.064612 40.636979 
L 159.878282 41.748488 
L 160.691953 42.248667 
L 162.319294 43.693629 
L 163.946635 45.02744 
L 165.573976 47.528336 
L 167.201317 49.417902 
L 168.014988 50.029232 
L 168.828658 50.862864 
L 169.642329 51.52977 
L 170.455999 52.363402 
L 172.08334 53.586062 
L 172.897011 54.475269 
L 174.524352 56.475986 
L 176.151693 58.198826 
L 176.965364 58.810156 
L 177.779034 59.588212 
L 178.592705 60.866448 
L 180.220046 62.366986 
L 181.033716 63.53407 
L 181.847387 64.312127 
L 182.661057 65.368061 
L 184.288398 66.701872 
L 185.102069 68.035683 
L 186.72941 69.369494 
L 187.543081 70.536579 
L 188.356751 71.370211 
L 189.170422 71.814815 
L 189.984092 72.537296 
L 191.611433 74.593588 
L 193.238774 75.927399 
L 194.052445 76.372003 
L 194.866115 77.205635 
L 196.493457 78.539446 
L 197.307127 79.206351 
L 198.120798 80.095559 
L 198.934468 80.81804 
L 200.561809 81.985125 
L 202.18915 83.374511 
L 203.002821 84.319294 
L 203.816491 84.708323 
L 205.443832 85.875407 
L 206.257503 86.375586 
L 207.884844 87.709398 
L 211.953197 90.488171 
L 212.766867 90.877199 
L 213.580538 91.821982 
L 215.207879 93.211369 
L 216.021549 94.378453 
L 218.462561 96.101293 
L 219.276232 96.434746 
L 220.089902 97.157227 
L 220.903573 98.046434 
L 221.717243 98.768915 
L 224.158255 100.54733 
L 225.785596 101.881141 
L 226.599266 102.8815 
L 227.412937 103.49283 
L 228.226608 104.270886 
L 229.853949 105.271245 
L 231.48129 107.216386 
L 232.29496 107.605414 
L 233.108631 108.605773 
L 233.922301 109.272678 
L 234.735972 110.10631 
L 235.549642 110.606489 
L 236.363313 111.273395 
L 237.176984 111.773574 
L 237.990654 112.718357 
L 241.245336 115.330404 
L 242.059007 115.719432 
L 243.686348 117.275545 
L 247.754701 120.498922 
L 251.009383 122.61079 
L 251.823053 122.833092 
L 252.636724 123.277695 
L 253.450394 123.444422 
L 254.264065 124.111327 
L 255.077735 124.611507 
L 255.891406 125.500714 
L 256.705076 126.112044 
L 257.518747 126.445497 
L 258.332418 127.167978 
L 259.146088 127.445855 
L 259.959759 128.168336 
L 261.5871 129.279846 
L 263.214441 130.057902 
L 264.028111 130.780383 
L 265.655452 131.669591 
L 267.282793 132.947826 
L 268.910135 133.837034 
L 269.723805 134.559515 
L 271.351146 135.448722 
L 273.792158 137.227137 
L 274.605828 137.449439 
L 276.233169 138.449797 
L 277.04684 138.838826 
L 277.860511 138.838826 
L 278.674181 139.450156 
L 280.301522 140.117061 
L 281.115193 140.450514 
L 281.928863 140.950693 
L 282.742534 141.72875 
L 285.183545 142.673533 
L 285.997216 143.284863 
L 287.624557 144.118495 
L 290.065569 145.563457 
L 291.69291 146.230363 
L 293.320251 146.786117 
L 294.133921 147.397447 
L 295.761262 148.119928 
L 296.574933 148.675683 
L 305.525309 153.010569 
L 307.15265 154.010928 
L 309.593662 155.011286 
L 310.407332 155.844918 
L 311.221003 156.400673 
L 314.475685 158.012361 
L 315.289355 158.568116 
L 316.103026 158.957144 
L 316.916696 159.12387 
L 317.730367 159.62405 
L 318.544038 159.901927 
L 319.357708 160.013078 
L 320.171379 160.679983 
L 320.985049 160.902285 
L 321.79872 161.513615 
L 324.239731 162.736276 
L 326.680743 163.90336 
L 327.494413 164.459115 
L 328.308084 164.792568 
L 329.121755 165.348323 
L 331.562766 166.570983 
L 332.376437 167.126737 
L 333.190107 167.404615 
L 334.003778 167.960369 
L 337.25846 169.016303 
L 338.07213 169.627633 
L 338.885801 169.905511 
L 339.699472 170.350114 
L 341.326813 170.739143 
L 342.140483 171.128171 
L 342.954154 171.294897 
L 343.767824 171.850652 
L 347.022506 173.073312 
L 347.836177 173.795793 
L 349.463518 174.685001 
L 352.7182 175.463057 
L 355.972882 176.963595 
L 357.600223 177.463774 
L 359.227565 178.019529 
L 360.041235 178.297406 
L 361.668576 179.408915 
L 362.482247 180.020245 
L 364.923258 181.020604 
L 365.736929 181.576358 
L 367.36427 181.965387 
L 368.991611 182.632292 
L 370.618952 183.465924 
L 371.432623 183.743802 
L 372.246293 183.854952 
L 374.687305 184.855311 
L 375.500975 185.022037 
L 376.314646 185.35549 
L 377.128316 185.855669 
L 380.382999 186.967178 
L 382.82401 188.523292 
L 383.637681 188.578867 
L 386.892363 190.13498 
L 388.519704 190.468433 
L 390.147045 191.135338 
L 394.215398 192.413574 
L 394.215398 192.413574 
" style="fill:none;stroke:#0000f1;stroke-linecap:round;stroke-width:1.5;"/>
   </g>
   <g id="line2d_17">
    <path clip-path="url(#p788011b299)" d="M 69.560852 261.216 
L 70.374523 259.937764 
L 71.188193 257.992623 
L 72.001864 254.935972 
L 73.629205 247.266558 
L 74.442876 242.375917 
L 75.256546 236.70722 
L 76.070217 231.92773 
L 76.883887 225.592127 
L 82.579581 187.578509 
L 84.206922 175.852085 
L 89.902616 139.839184 
L 91.529957 130.613657 
L 92.343627 124.889384 
L 93.970968 117.053243 
L 94.784639 112.051451 
L 95.59831 107.883292 
L 96.41198 104.493188 
L 98.852992 92.71119 
L 100.480333 85.930983 
L 101.294003 80.706889 
L 102.107674 78.039267 
L 102.921344 74.593588 
L 103.735015 70.536579 
L 105.362356 64.423278 
L 106.176027 62.366986 
L 106.989697 58.976882 
L 107.803368 56.475986 
L 108.617038 53.36376 
L 110.244379 48.695421 
L 111.05805 46.639129 
L 112.685391 41.637337 
L 113.499061 39.858922 
L 114.312732 38.858564 
L 115.940073 35.190583 
L 116.753744 34.2458 
L 117.567414 32.300659 
L 119.194755 29.688612 
L 120.008426 28.021348 
L 120.822096 27.63232 
L 121.635767 27.465593 
L 122.449437 26.52081 
L 123.263108 25.29815 
L 124.076778 25.020273 
L 125.70412 22.797254 
L 126.51779 22.963981 
L 127.331461 22.574952 
L 128.145131 22.352651 
L 128.958802 21.908047 
L 129.772472 22.130349 
L 130.586143 22.019198 
L 131.399813 22.185924 
L 132.213484 22.519377 
L 134.654495 22.741679 
L 135.468166 23.241858 
L 136.281837 23.353009 
L 137.095507 23.742037 
L 137.909178 23.964339 
L 138.722848 24.353367 
L 140.350189 25.576028 
L 141.16386 25.687178 
L 141.97753 26.40966 
L 142.791201 26.354084 
L 143.604871 27.354442 
L 144.418542 27.687895 
L 146.045883 28.688254 
L 146.859554 28.743829 
L 147.673224 29.355159 
L 148.486895 30.188791 
L 149.300565 30.577819 
L 151.741577 32.745263 
L 152.555247 33.245442 
L 154.996259 35.135008 
L 155.80993 35.746338 
L 156.6236 36.135366 
L 157.437271 36.857847 
L 159.064612 38.080507 
L 159.878282 38.747413 
L 160.691953 39.192017 
L 161.505623 40.136799 
L 162.319294 40.85928 
L 163.132964 41.415035 
L 163.946635 41.526186 
L 166.387647 42.748846 
L 168.014988 44.249384 
L 168.828658 44.138233 
L 172.08334 45.972223 
L 173.710681 46.472402 
L 175.338022 47.194884 
L 176.151693 47.083733 
L 178.592705 48.028516 
L 179.406375 47.750638 
L 180.220046 47.083733 
L 182.661057 47.806214 
L 183.474728 48.58427 
L 184.288398 48.806572 
L 186.72941 51.251892 
L 187.543081 51.752072 
L 189.984092 53.97509 
L 191.611433 54.641996 
L 192.425104 54.808722 
L 193.238774 55.69793 
L 194.866115 57.254043 
L 196.493457 59.310335 
L 197.307127 59.810514 
L 198.120798 60.47742 
L 198.934468 60.588571 
L 199.748139 61.199901 
L 200.561809 62.144684 
L 202.18915 62.92274 
L 205.443832 65.701513 
L 207.884844 66.47957 
L 209.512185 67.479928 
L 211.139526 68.869315 
L 212.766867 69.647371 
L 213.580538 69.925249 
L 214.394208 70.536579 
L 216.021549 71.25906 
L 216.83522 72.370569 
L 217.648891 72.870748 
L 218.462561 73.871107 
L 219.276232 74.593588 
L 220.903573 76.372003 
L 221.717243 77.094484 
L 222.530914 77.539088 
L 223.344584 78.48387 
L 224.971925 79.706531 
L 226.599266 81.373795 
L 228.226608 82.318578 
L 236.363313 89.543388 
L 237.176984 90.043567 
L 237.990654 90.932775 
L 238.804325 91.655256 
L 239.617995 92.766765 
L 240.431666 93.544822 
L 241.245336 94.045001 
L 242.059007 94.878633 
L 244.500018 96.823774 
L 245.313689 96.9905 
L 246.127359 97.49068 
L 246.94103 98.157585 
L 248.568371 99.157943 
L 250.195712 100.380604 
L 251.009383 101.325387 
L 251.823053 101.992292 
L 252.636724 102.825924 
L 253.450394 103.270528 
L 255.891406 105.382396 
L 258.332418 107.494263 
L 261.5871 109.995159 
L 263.214441 110.662065 
L 266.469123 112.996234 
L 267.282793 113.440838 
L 268.910135 114.8858 
L 269.723805 115.552706 
L 270.537476 116.052885 
L 272.978487 118.164753 
L 274.605828 119.165111 
L 275.419499 119.66529 
L 276.233169 119.998743 
L 277.04684 120.721224 
L 278.674181 121.443705 
L 279.487852 122.110611 
L 280.301522 122.61079 
L 281.115193 123.444422 
L 283.556204 124.389205 
L 285.183545 125.500714 
L 287.624557 126.945676 
L 289.251898 127.612582 
L 290.879239 128.61294 
L 292.50658 129.113119 
L 293.320251 129.502147 
L 296.574933 132.003043 
L 297.388603 132.836675 
L 298.202274 133.448006 
L 301.456956 134.892968 
L 302.270627 135.115269 
L 304.711638 136.615807 
L 305.525309 136.782533 
L 306.338979 137.505014 
L 307.96632 138.727675 
L 308.779991 139.505731 
L 309.593662 139.783609 
L 311.221003 140.895118 
L 316.916696 144.007344 
L 317.730367 144.17407 
L 318.544038 144.618674 
L 319.357708 145.563457 
L 321.79872 147.063994 
L 322.61239 147.7309 
L 323.426061 148.064353 
L 325.867072 149.953919 
L 326.680743 150.565249 
L 327.494413 150.787551 
L 329.121755 151.621183 
L 329.935425 151.954635 
L 332.376437 153.510748 
L 334.003778 154.622258 
L 334.817448 155.011286 
L 336.444789 156.06722 
L 337.25846 156.511824 
L 338.07213 156.789701 
L 338.885801 157.401031 
L 340.513142 158.401389 
L 341.326813 159.12387 
L 342.954154 160.068653 
L 343.767824 160.23538 
L 344.581495 160.624408 
L 345.395165 161.235738 
L 346.208836 161.45804 
L 347.022506 162.124946 
L 347.836177 162.458398 
L 348.649847 162.958578 
L 351.090859 163.958936 
L 351.90453 164.014511 
L 352.7182 164.292389 
L 353.531871 164.792568 
L 355.972882 165.681775 
L 357.600223 166.682134 
L 359.227565 167.46019 
L 360.854906 168.182671 
L 361.668576 168.404973 
L 363.295917 169.18303 
L 366.550599 170.183388 
L 367.36427 170.683567 
L 368.991611 171.183746 
L 370.618952 171.739501 
L 371.432623 171.961803 
L 373.059964 172.795435 
L 375.500975 173.740218 
L 376.314646 173.906944 
L 379.569328 175.129604 
L 380.382999 175.296331 
L 382.01034 176.185538 
L 382.82401 176.40784 
L 383.637681 176.908019 
L 385.265022 177.352623 
L 386.078692 177.741651 
L 386.892363 177.852802 
L 389.333374 178.908736 
L 394.215398 180.909453 
L 394.215398 180.909453 
" style="fill:none;stroke:#004cff;stroke-linecap:round;stroke-width:1.5;"/>
   </g>
   <g id="line2d_18">
    <path clip-path="url(#p788011b299)" d="M 69.560852 261.104849 
L 71.188193 257.881472 
L 72.815534 252.212775 
L 74.442876 243.431851 
L 76.070217 233.650569 
L 76.883887 227.092664 
L 77.697558 221.646269 
L 78.511228 217.478109 
L 80.95224 200.138564 
L 82.579581 189.912678 
L 85.020593 172.684284 
L 85.834263 166.904436 
L 86.647934 162.791851 
L 88.275275 151.954635 
L 91.529957 134.837392 
L 92.343627 130.335779 
L 93.157298 126.945676 
L 93.970968 121.443705 
L 96.41198 107.827716 
L 99.666662 92.099859 
L 100.480333 88.487454 
L 101.294003 85.930983 
L 102.921344 78.428295 
L 105.362356 69.758522 
L 106.176027 66.312844 
L 106.989697 64.1454 
L 107.803368 60.588571 
L 108.617038 57.53192 
L 112.685391 46.083374 
L 115.126403 40.74813 
L 115.940073 39.414318 
L 116.753744 36.968998 
L 119.194755 32.300659 
L 120.008426 30.411093 
L 120.822096 29.910914 
L 121.635767 28.85498 
L 123.263108 27.63232 
L 124.076778 27.354442 
L 125.70412 26.354084 
L 126.51779 24.909122 
L 127.331461 23.964339 
L 128.145131 23.241858 
L 130.586143 22.85283 
L 131.399813 22.519377 
L 133.027154 22.130349 
L 134.654495 22.463802 
L 135.468166 22.908405 
L 136.281837 22.797254 
L 137.095507 23.241858 
L 137.909178 23.408584 
L 139.536519 22.85283 
L 140.350189 23.686462 
L 141.16386 23.297433 
L 141.97753 23.797613 
L 143.604871 24.131065 
L 144.418542 24.464518 
L 145.232212 24.575669 
L 146.045883 24.520094 
L 147.673224 25.576028 
L 148.486895 25.464877 
L 149.300565 25.520452 
L 152.555247 27.132141 
L 153.368918 27.743471 
L 154.996259 28.24365 
L 155.80993 28.410376 
L 157.437271 29.355159 
L 159.064612 30.07764 
L 159.878282 30.244367 
L 160.691953 30.911272 
L 161.505623 31.133574 
L 162.319294 31.077999 
L 163.132964 30.855697 
L 163.946635 31.022423 
L 164.760305 31.411451 
L 165.573976 31.411451 
L 166.387647 32.078357 
L 167.201317 32.522961 
L 168.014988 32.745263 
L 169.642329 34.579253 
L 172.08334 36.135366 
L 173.710681 36.968998 
L 174.524352 37.024573 
L 175.338022 37.302451 
L 176.151693 37.858205 
L 176.965364 38.080507 
L 177.779034 38.580686 
L 178.592705 39.247592 
L 181.033716 40.525828 
L 183.474728 42.693271 
L 184.288398 43.80478 
L 185.102069 44.471686 
L 185.915739 45.305318 
L 186.72941 45.916648 
L 187.543081 46.75028 
L 189.984092 49.584629 
L 190.797763 50.30711 
L 191.611433 51.363043 
L 193.238774 52.641279 
L 194.052445 53.697213 
L 194.866115 54.364119 
L 196.493457 56.253684 
L 199.748139 60.532995 
L 201.37548 62.644863 
L 203.002821 63.811948 
L 203.816491 64.534429 
L 205.443832 66.47957 
L 206.257503 67.146476 
L 207.071174 67.980108 
L 208.698515 69.814098 
L 209.512185 70.369853 
L 212.766867 73.593229 
L 215.207879 76.483154 
L 216.83522 77.650238 
L 218.462561 79.539804 
L 219.276232 79.984408 
L 220.089902 80.762465 
L 220.903573 81.929549 
L 222.530914 82.929908 
L 223.344584 83.76354 
L 224.158255 84.263719 
L 224.971925 85.097351 
L 226.599266 86.20886 
L 227.412937 86.431162 
L 228.226608 87.375945 
L 231.48129 90.043567 
L 232.29496 90.321445 
L 233.922301 91.432954 
L 235.549642 93.044642 
L 236.363313 93.544822 
L 241.245336 97.435104 
L 242.059007 97.935283 
L 242.872677 98.602189 
L 243.686348 99.602547 
L 244.500018 99.880425 
L 246.127359 101.15866 
L 248.568371 103.214952 
L 252.636724 106.605056 
L 253.450394 107.383112 
L 254.264065 107.994442 
L 255.077735 108.27232 
L 256.705076 109.161527 
L 257.518747 110.050735 
L 258.332418 110.662065 
L 259.146088 110.884367 
L 260.773429 112.44048 
L 261.5871 113.551989 
L 263.214441 114.607923 
L 264.841782 115.608281 
L 265.655452 116.441913 
L 266.469123 116.830941 
L 267.282793 117.608998 
L 268.096464 117.886875 
L 268.910135 118.498205 
L 269.723805 118.887234 
L 271.351146 119.998743 
L 272.164817 120.27662 
L 275.419499 123.444422 
L 277.04684 124.278054 
L 277.860511 125.167261 
L 279.487852 126.612223 
L 281.115193 127.501431 
L 281.928863 128.335063 
L 282.742534 128.835242 
L 283.556204 129.724449 
L 284.369875 130.835959 
L 285.183545 131.55844 
L 286.810886 132.447647 
L 287.624557 133.281279 
L 288.438228 133.948185 
L 290.065569 134.670666 
L 292.50658 136.115628 
L 293.320251 136.671382 
L 294.133921 137.004835 
L 296.574933 138.616524 
L 299.015945 139.783609 
L 303.084297 142.617957 
L 303.897968 142.895835 
L 304.711638 143.396014 
L 305.525309 143.729467 
L 306.338979 144.340797 
L 307.96632 145.007702 
L 308.779991 145.507881 
L 309.593662 145.730183 
L 311.221003 146.452664 
L 312.034673 147.063994 
L 312.848344 147.397447 
L 315.289355 149.175862 
L 316.103026 149.453739 
L 316.916696 149.953919 
L 317.730367 150.287371 
L 318.544038 150.898702 
L 320.985049 152.121362 
L 322.61239 152.788267 
L 323.426061 153.510748 
L 324.239731 153.955352 
L 325.053402 154.122079 
L 325.867072 154.566682 
L 327.494413 154.900135 
L 328.308084 155.678192 
L 329.121755 156.233946 
L 329.935425 157.012003 
L 332.376437 158.790418 
L 334.003778 159.62405 
L 334.817448 160.23538 
L 335.631119 160.624408 
L 336.444789 161.180163 
L 338.885801 162.124946 
L 339.699472 162.458398 
L 340.513142 163.069728 
L 341.326813 163.514332 
L 342.954154 164.070087 
L 343.767824 164.736992 
L 345.395165 165.403898 
L 346.208836 166.015228 
L 348.649847 167.293464 
L 350.277189 167.904794 
L 351.090859 168.349398 
L 351.90453 168.627275 
L 352.7182 169.294181 
L 355.159212 170.350114 
L 355.972882 170.850294 
L 356.786553 171.128171 
L 357.600223 171.739501 
L 358.413894 172.017378 
L 360.854906 173.35119 
L 362.482247 173.684642 
L 364.109588 174.57385 
L 365.736929 175.240755 
L 366.550599 175.629784 
L 367.36427 176.296689 
L 370.618952 177.686076 
L 372.246293 178.019529 
L 373.059964 178.297406 
L 373.873634 178.853161 
L 374.687305 179.131038 
L 377.128316 179.520066 
L 380.382999 180.298123 
L 381.196669 180.409274 
L 382.01034 180.909453 
L 383.637681 181.465207 
L 386.078692 182.40999 
L 386.892363 182.799019 
L 387.706033 183.410349 
L 388.519704 183.688226 
L 389.333374 184.13283 
L 394.215398 185.411065 
L 394.215398 185.411065 
" style="fill:none;stroke:#00b0ff;stroke-linecap:round;stroke-width:1.5;"/>
   </g>
   <g id="line2d_19">
    <path clip-path="url(#p788011b299)" d="M 69.560852 261.160425 
L 70.374523 259.826613 
L 71.188193 257.770321 
L 72.815534 250.43436 
L 75.256546 236.318192 
L 76.070217 232.427909 
L 76.883887 227.481693 
L 77.697558 221.701844 
L 80.95224 201.916979 
L 81.76591 196.359432 
L 82.579581 191.913395 
L 85.834263 169.961086 
L 87.461604 159.679625 
L 88.275275 155.233588 
L 91.529957 133.39243 
L 93.970968 120.498922 
L 95.59831 110.439763 
L 96.41198 106.994084 
L 97.225651 104.270886 
L 98.852992 96.712623 
L 102.107674 83.652389 
L 103.735015 76.149701 
L 106.989697 65.090183 
L 107.803368 63.256193 
L 108.617038 60.199542 
L 109.430709 57.754222 
L 111.05805 54.197392 
L 111.87172 51.974374 
L 113.499061 46.861431 
L 115.126403 43.471327 
L 115.940073 41.748488 
L 116.753744 40.525828 
L 117.567414 38.747413 
L 118.381085 37.469177 
L 119.194755 36.635545 
L 120.008426 35.96864 
L 120.822096 34.801555 
L 122.449437 33.467744 
L 123.263108 33.189866 
L 124.076778 32.300659 
L 124.890449 32.133932 
L 125.70412 31.133574 
L 126.51779 29.633037 
L 127.331461 28.910555 
L 128.145131 28.966131 
L 128.958802 28.688254 
L 129.772472 28.021348 
L 130.586143 27.799046 
L 131.399813 28.188074 
L 132.213484 27.576744 
L 133.027154 27.187716 
L 133.840825 27.354442 
L 134.654495 27.187716 
L 136.281837 26.631961 
L 137.095507 27.132141 
L 137.909178 28.021348 
L 139.536519 28.188074 
L 140.350189 27.743471 
L 141.16386 28.632678 
L 141.97753 29.188433 
L 143.604871 29.799763 
L 144.418542 30.188791 
L 145.232212 31.022423 
L 146.045883 31.022423 
L 146.859554 30.744546 
L 147.673224 30.911272 
L 149.300565 31.633753 
L 150.114236 32.356234 
L 151.741577 33.412168 
L 154.996259 35.746338 
L 157.437271 36.802272 
L 158.250941 36.691121 
L 159.878282 37.358026 
L 160.691953 37.358026 
L 161.505623 37.747054 
L 162.319294 37.969356 
L 163.132964 38.580686 
L 163.946635 38.969715 
L 164.760305 39.692196 
L 165.573976 39.525469 
L 167.201317 40.636979 
L 168.014988 41.859639 
L 169.642329 43.137875 
L 172.08334 45.52762 
L 172.897011 46.694704 
L 173.710681 47.139308 
L 174.524352 47.806214 
L 175.338022 48.806572 
L 176.151693 49.529053 
L 177.779034 51.974374 
L 178.592705 52.363402 
L 179.406375 53.36376 
L 180.220046 54.641996 
L 181.847387 56.531562 
L 182.661057 57.254043 
L 183.474728 58.476703 
L 186.72941 61.588929 
L 187.543081 62.144684 
L 189.984092 64.367702 
L 190.797763 65.312485 
L 191.611433 66.535145 
L 192.425104 67.257626 
L 193.238774 68.31356 
L 194.866115 69.480645 
L 195.679786 70.592154 
L 197.307127 71.703664 
L 198.120798 72.759598 
L 200.561809 75.260493 
L 203.002821 76.705456 
L 203.816491 77.316786 
L 204.630162 78.261569 
L 209.512185 82.0407 
L 210.325856 82.818757 
L 211.139526 83.430087 
L 211.953197 83.874691 
L 213.580538 85.541955 
L 214.394208 86.375586 
L 215.207879 86.931341 
L 216.83522 88.598605 
L 218.462561 89.821265 
L 220.903573 91.432954 
L 221.717243 92.044284 
L 224.158255 94.267303 
L 224.971925 94.767482 
L 225.785596 95.76784 
L 226.599266 96.101293 
L 227.412937 96.879349 
L 228.226608 97.49068 
L 229.040278 97.935283 
L 231.48129 100.325028 
L 233.108631 101.325387 
L 234.735972 102.770349 
L 236.363313 104.159735 
L 237.176984 105.493547 
L 238.804325 106.605056 
L 239.617995 107.216386 
L 240.431666 108.216744 
L 242.059007 109.328254 
L 242.872677 110.328612 
L 245.313689 112.384904 
L 246.127359 112.996234 
L 246.94103 113.885442 
L 247.754701 114.330045 
L 248.568371 115.274828 
L 251.009383 116.886517 
L 251.823053 117.720149 
L 252.636724 118.331479 
L 253.450394 119.276262 
L 255.077735 120.443347 
L 255.891406 120.943526 
L 256.705076 121.276979 
L 258.332418 122.721941 
L 259.959759 123.499997 
L 260.773429 124.111327 
L 261.5871 124.500356 
L 264.841782 127.056827 
L 265.655452 127.557006 
L 266.469123 128.390638 
L 267.282793 128.890817 
L 268.096464 129.168695 
L 268.910135 130.113478 
L 272.164817 132.16977 
L 275.419499 134.503939 
L 277.860511 135.615449 
L 279.487852 136.893684 
L 280.301522 137.060411 
L 281.115193 137.616165 
L 281.928863 138.005194 
L 282.742534 138.672099 
L 284.369875 139.339005 
L 285.183545 139.672458 
L 287.624557 141.172995 
L 288.438228 141.450873 
L 290.879239 142.840259 
L 292.50658 144.285221 
L 293.320251 144.674249 
L 294.133921 145.230004 
L 294.947592 145.619032 
L 295.761262 146.174787 
L 297.388603 147.008419 
L 299.015945 148.064353 
L 299.829615 148.397806 
L 301.456956 149.676041 
L 302.270627 149.953919 
L 307.15265 152.899418 
L 308.779991 153.677475 
L 309.593662 154.34438 
L 310.407332 154.733409 
L 311.221003 155.733767 
L 312.848344 156.734125 
L 313.662014 157.28988 
L 314.475685 158.067937 
L 316.916696 159.679625 
L 317.730367 160.290955 
L 318.544038 160.568833 
L 320.171379 161.735917 
L 320.985049 162.06937 
L 321.79872 162.6807 
L 322.61239 163.014153 
L 323.426061 163.514332 
L 325.053402 164.181238 
L 328.308084 165.792926 
L 329.121755 166.404256 
L 331.562766 167.293464 
L 333.190107 168.015945 
L 336.444789 169.016303 
L 337.25846 169.405331 
L 338.885801 169.905511 
L 339.699472 170.294539 
L 340.513142 170.850294 
L 342.140483 171.517199 
L 344.581495 172.072954 
L 347.836177 173.684642 
L 349.463518 174.629425 
L 351.090859 175.407482 
L 352.7182 176.241114 
L 355.159212 177.185897 
L 356.786553 177.574925 
L 357.600223 178.297406 
L 358.413894 178.408557 
L 360.854906 179.35334 
L 362.482247 179.797943 
L 364.923258 181.242906 
L 366.550599 181.520783 
L 367.36427 181.854236 
L 369.805282 182.298839 
L 370.618952 182.687868 
L 371.432623 183.243622 
L 374.687305 184.466283 
L 375.500975 184.688584 
L 376.314646 184.688584 
L 379.569328 185.96682 
L 381.196669 186.355848 
L 382.82401 187.18948 
L 387.706033 188.801169 
L 388.519704 188.91232 
L 389.333374 189.245773 
L 390.147045 189.745952 
L 390.960716 189.912678 
L 391.774386 190.468433 
L 392.588057 190.579584 
L 393.401727 191.190914 
L 394.215398 191.413216 
L 394.215398 191.413216 
" style="fill:none;stroke:#29ffce;stroke-linecap:round;stroke-width:1.5;"/>
   </g>
   <g id="line2d_20">
    <path clip-path="url(#p788011b299)" d="M 69.560852 261.049274 
L 70.374523 260.048915 
L 71.188193 258.048198 
L 72.001864 254.991548 
L 72.815534 251.379143 
L 77.697558 221.868571 
L 80.95224 199.860686 
L 81.76591 194.636593 
L 83.393251 182.020962 
L 84.206922 177.852802 
L 87.461604 157.845635 
L 88.275275 153.621899 
L 92.343627 128.168336 
L 95.59831 111.106669 
L 96.41198 107.549839 
L 100.480333 85.375228 
L 102.107674 78.872899 
L 102.921344 74.982616 
L 104.548685 68.758164 
L 105.362356 65.757089 
L 106.176027 62.089108 
L 106.989697 59.921665 
L 107.803368 57.031741 
L 109.430709 50.195959 
L 111.05805 45.861072 
L 112.685391 40.85928 
L 113.499061 38.969715 
L 114.312732 36.246517 
L 115.126403 34.412527 
L 116.753744 31.689329 
L 117.567414 29.744187 
L 118.381085 28.966131 
L 119.194755 27.076565 
L 120.008426 25.853905 
L 120.822096 25.242575 
L 121.635767 24.019915 
L 122.449437 23.853188 
L 123.263108 23.186283 
L 124.076778 22.352651 
L 124.890449 21.018839 
L 125.70412 20.907688 
L 126.51779 19.90733 
L 127.331461 19.851755 
L 128.145131 20.074057 
L 128.958802 19.90733 
L 129.772472 19.518302 
L 130.586143 19.796179 
L 131.399813 19.351575 
L 132.213484 19.296 
L 133.027154 19.685028 
L 133.840825 19.462726 
L 134.654495 19.573877 
L 135.468166 19.296 
L 137.095507 20.296358 
L 137.909178 20.852113 
L 138.722848 21.852471 
L 140.350189 22.297075 
L 141.97753 23.130707 
L 143.604871 23.019556 
L 144.418542 23.519735 
L 146.859554 23.797613 
L 147.673224 24.631245 
L 148.486895 24.742396 
L 149.300565 25.464877 
L 150.114236 25.631603 
L 150.927906 26.631961 
L 151.741577 27.187716 
L 152.555247 27.965773 
L 153.368918 28.188074 
L 154.182588 28.688254 
L 154.996259 29.577461 
L 155.80993 30.299942 
L 156.6236 31.244725 
L 157.437271 31.689329 
L 158.250941 32.356234 
L 159.064612 33.63447 
L 159.878282 34.690404 
L 160.691953 36.190941 
L 162.319294 37.969356 
L 163.132964 38.580686 
L 164.760305 40.24795 
L 167.201317 42.804422 
L 168.014988 44.082657 
L 168.828658 45.138591 
L 169.642329 45.749921 
L 170.455999 46.639129 
L 172.08334 48.917723 
L 172.897011 49.695779 
L 175.338022 52.75243 
L 176.151693 53.419336 
L 177.779034 55.308901 
L 179.406375 57.031741 
L 180.220046 58.476703 
L 182.661057 61.255476 
L 186.72941 64.701155 
L 187.543081 65.479212 
L 188.356751 66.924174 
L 189.170422 67.424353 
L 191.611433 70.0364 
L 192.425104 70.592154 
L 193.238774 71.370211 
L 194.052445 72.648447 
L 194.866115 73.593229 
L 196.493457 74.927041 
L 198.120798 76.538729 
L 200.561809 79.206351 
L 201.37548 79.873257 
L 203.002821 80.762465 
L 205.443832 83.041059 
L 206.257503 83.707964 
L 207.071174 84.875049 
L 207.884844 85.708681 
L 208.698515 86.375586 
L 209.512185 87.320369 
L 210.325856 88.04285 
L 211.139526 88.932058 
L 211.953197 89.432237 
L 213.580538 90.210294 
L 214.394208 90.766048 
L 215.207879 91.933133 
L 216.021549 92.71119 
L 218.462561 94.211727 
L 219.276232 94.934208 
L 220.089902 95.378812 
L 220.903573 96.156868 
L 221.717243 96.601472 
L 223.344584 97.935283 
L 224.158255 98.824491 
L 224.971925 99.32467 
L 226.599266 100.54733 
L 227.412937 101.047509 
L 229.040278 102.548047 
L 229.853949 103.381679 
L 230.667619 103.881858 
L 231.48129 104.71549 
L 233.108631 106.716207 
L 233.922301 107.271961 
L 235.549642 108.828074 
L 236.363313 109.272678 
L 237.176984 109.939584 
L 237.990654 110.384187 
L 238.804325 111.106669 
L 242.872677 113.162961 
L 243.686348 113.941017 
L 245.313689 114.496772 
L 246.127359 114.996951 
L 247.754701 116.664215 
L 249.382042 117.608998 
L 250.195712 118.387054 
L 252.636724 120.27662 
L 255.077735 121.38813 
L 256.705076 122.721941 
L 257.518747 123.22212 
L 259.146088 124.611507 
L 259.959759 124.944959 
L 260.773429 125.445139 
L 261.5871 125.778591 
L 262.40077 126.667799 
L 263.214441 126.890101 
L 264.841782 128.057185 
L 265.655452 128.724091 
L 266.469123 129.113119 
L 268.096464 129.557723 
L 269.723805 130.44693 
L 271.351146 131.391713 
L 272.164817 132.058619 
L 274.605828 133.281279 
L 275.419499 133.781458 
L 276.233169 134.114911 
L 277.04684 134.781817 
L 277.860511 135.22642 
L 278.674181 136.060052 
L 281.115193 136.893684 
L 281.928863 137.393864 
L 282.742534 137.616165 
L 284.369875 138.449797 
L 285.997216 139.561307 
L 287.624557 140.561665 
L 288.438228 141.395297 
L 289.251898 141.895476 
L 290.065569 142.228929 
L 290.879239 142.395655 
L 292.50658 143.118136 
L 293.320251 143.840618 
L 296.574933 145.396731 
L 297.388603 146.063636 
L 299.015945 146.841693 
L 299.829615 147.230721 
L 300.643286 147.897626 
L 303.084297 149.342589 
L 303.897968 149.953919 
L 304.711638 150.398522 
L 305.525309 150.565249 
L 307.15265 151.454456 
L 309.593662 152.065786 
L 310.407332 152.677116 
L 311.221003 153.12172 
L 312.848344 153.788626 
L 313.662014 154.177654 
L 315.289355 155.178012 
L 316.103026 155.678192 
L 316.916696 156.011644 
L 317.730367 156.511824 
L 318.544038 157.234305 
L 319.357708 157.678908 
L 320.171379 158.290238 
L 321.79872 158.734842 
L 324.239731 159.179446 
L 325.053402 159.790776 
L 327.494413 161.013436 
L 328.308084 161.346889 
L 329.121755 161.902644 
L 334.817448 164.181238 
L 335.631119 164.347964 
L 336.444789 164.681417 
L 337.25846 165.292747 
L 340.513142 166.626558 
L 341.326813 167.182313 
L 342.954154 167.46019 
L 343.767824 167.904794 
L 344.581495 168.182671 
L 345.395165 168.738426 
L 348.649847 170.294539 
L 349.463518 170.40569 
L 351.090859 171.406048 
L 351.90453 171.517199 
L 353.531871 172.573133 
L 355.159212 172.906586 
L 356.786553 173.517916 
L 357.600223 173.573491 
L 359.227565 174.184822 
L 360.041235 174.240397 
L 360.854906 174.462699 
L 362.482247 175.463057 
L 364.109588 175.907661 
L 366.550599 176.518991 
L 367.36427 177.074746 
L 368.17794 177.185897 
L 368.991611 177.6305 
L 370.618952 178.075104 
L 371.432623 178.686434 
L 372.246293 179.131038 
L 374.687305 179.909094 
L 376.314646 180.131396 
L 377.128316 180.409274 
L 377.941987 180.965028 
L 382.01034 181.854236 
L 382.82401 182.243264 
L 386.892363 183.299198 
L 387.706033 183.799377 
L 388.519704 183.910528 
L 389.333374 184.466283 
L 390.147045 184.633009 
L 393.401727 186.466999 
L 394.215398 186.57815 
L 394.215398 186.57815 
" style="fill:none;stroke:#7dff7a;stroke-linecap:round;stroke-width:1.5;"/>
   </g>
   <g id="line2d_21">
    <path clip-path="url(#p788011b299)" d="M 69.560852 260.993698 
L 70.374523 259.326434 
L 71.188193 257.158991 
L 72.001864 254.491369 
L 74.442876 243.265125 
L 75.256546 238.207757 
L 76.070217 233.928447 
L 77.697558 221.868571 
L 78.511228 216.811203 
L 80.138569 204.584601 
L 84.206922 178.352981 
L 85.834263 168.68285 
L 87.461604 157.512182 
L 89.088945 146.674966 
L 89.902616 142.562382 
L 93.970968 119.442988 
L 94.784639 114.996951 
L 95.59831 111.606848 
L 99.666662 91.432954 
L 100.480333 88.487454 
L 102.107674 81.42937 
L 102.921344 79.373078 
L 103.735015 76.483154 
L 106.176027 66.146117 
L 106.989697 63.478495 
L 109.430709 54.308543 
L 110.244379 52.252251 
L 111.05805 50.529411 
L 111.87172 49.695779 
L 112.685391 47.250459 
L 113.499061 45.583195 
L 115.126403 40.970431 
L 116.753744 37.246875 
L 117.567414 36.024215 
L 118.381085 34.190225 
L 124.076778 25.965056 
L 124.890449 25.798329 
L 125.70412 25.020273 
L 126.51779 24.631245 
L 127.331461 24.408943 
L 128.145131 23.630886 
L 128.958802 23.186283 
L 129.772472 22.019198 
L 130.586143 21.963622 
L 131.399813 21.63017 
L 132.213484 21.63017 
L 133.027154 20.796538 
L 133.840825 20.963264 
L 134.654495 19.796179 
L 135.468166 19.740604 
L 136.281837 20.074057 
L 137.095507 20.018481 
L 137.909178 19.351575 
L 138.722848 19.462726 
L 139.536519 19.740604 
L 141.16386 19.629453 
L 141.97753 19.796179 
L 142.791201 20.296358 
L 143.604871 20.51866 
L 145.232212 20.407509 
L 146.045883 20.852113 
L 146.859554 21.074415 
L 147.673224 21.519019 
L 148.486895 21.519019 
L 149.300565 22.074773 
L 150.114236 21.74132 
L 151.741577 22.519377 
L 152.555247 22.686103 
L 153.368918 22.686103 
L 154.182588 22.797254 
L 154.996259 23.353009 
L 155.80993 23.742037 
L 156.6236 24.297792 
L 157.437271 24.464518 
L 158.250941 25.29815 
L 159.064612 25.853905 
L 159.878282 25.90948 
L 161.505623 27.521169 
L 162.319294 28.24365 
L 163.132964 28.743829 
L 163.946635 29.021706 
L 165.573976 30.188791 
L 166.387647 31.18915 
L 167.201317 31.522602 
L 168.014988 32.189508 
L 169.642329 32.41181 
L 170.455999 33.301017 
L 171.26967 33.856772 
L 172.08334 34.801555 
L 173.710681 35.746338 
L 174.524352 35.857489 
L 176.151693 36.468819 
L 176.965364 36.691121 
L 177.779034 37.1913 
L 179.406375 37.524753 
L 180.220046 37.358026 
L 181.033716 37.969356 
L 181.847387 38.302809 
L 182.661057 39.02529 
L 183.474728 39.581045 
L 184.288398 39.747771 
L 185.102069 40.359101 
L 187.543081 41.637337 
L 188.356751 42.248667 
L 189.170422 42.637695 
L 190.797763 42.971148 
L 191.611433 43.860356 
L 192.425104 44.471686 
L 194.866115 45.249742 
L 195.679786 46.083374 
L 197.307127 46.472402 
L 198.120798 47.194884 
L 201.37548 49.251176 
L 202.18915 49.473478 
L 203.002821 49.918081 
L 203.816491 50.584987 
L 205.443832 51.585345 
L 206.257503 52.474553 
L 207.071174 53.197034 
L 207.884844 53.419336 
L 211.139526 55.420052 
L 211.953197 56.420411 
L 212.766867 56.92059 
L 214.394208 58.365552 
L 215.207879 58.75458 
L 216.021549 59.86609 
L 216.83522 60.421844 
L 217.648891 60.699722 
L 218.462561 61.199901 
L 219.276232 61.422203 
L 220.089902 62.089108 
L 220.903573 62.92274 
L 224.158255 63.645221 
L 224.971925 64.089825 
L 225.785596 64.701155 
L 227.412937 65.479212 
L 228.226608 65.923815 
L 229.040278 66.701872 
L 229.853949 66.924174 
L 231.48129 68.369136 
L 232.29496 68.869315 
L 233.108631 69.202768 
L 233.922301 69.313919 
L 236.363313 70.758881 
L 237.176984 71.147909 
L 238.804325 71.703664 
L 240.431666 73.148626 
L 242.872677 73.593229 
L 243.686348 73.982258 
L 246.127359 75.705097 
L 247.754701 76.03855 
L 248.568371 75.982975 
L 249.382042 76.372003 
L 251.009383 77.594663 
L 252.636724 78.317144 
L 253.450394 78.928474 
L 255.891406 79.762106 
L 258.332418 79.984408 
L 259.146088 80.262285 
L 260.773429 81.484946 
L 261.5871 81.707247 
L 262.40077 81.762823 
L 263.214441 81.985125 
L 264.028111 81.985125 
L 264.841782 82.207427 
L 265.655452 82.874332 
L 266.469123 82.985483 
L 268.096464 84.041417 
L 268.910135 83.819115 
L 269.723805 84.152568 
L 270.537476 84.319294 
L 271.351146 85.208502 
L 272.164817 85.708681 
L 272.978487 85.875407 
L 273.792158 86.709039 
L 277.04684 88.820907 
L 279.487852 90.766048 
L 280.301522 91.210652 
L 281.115193 91.377378 
L 282.742534 92.377737 
L 283.556204 92.600039 
L 284.369875 93.044642 
L 285.997216 94.267303 
L 286.810886 94.600755 
L 287.624557 94.656331 
L 289.251898 95.212085 
L 290.065569 95.489963 
L 290.879239 95.990142 
L 291.69291 96.156868 
L 292.50658 96.768198 
L 293.320251 97.157227 
L 294.947592 98.602189 
L 295.761262 98.991217 
L 296.574933 99.658123 
L 298.202274 100.102726 
L 299.829615 101.325387 
L 300.643286 101.380962 
L 302.270627 102.047868 
L 303.897968 102.38132 
L 304.711638 102.436896 
L 305.525309 103.103802 
L 306.338979 103.49283 
L 307.15265 104.10416 
L 307.96632 104.548764 
L 309.593662 104.882216 
L 310.407332 105.437971 
L 311.221003 105.715848 
L 312.034673 106.493905 
L 314.475685 107.271961 
L 315.289355 107.827716 
L 316.103026 108.550197 
L 316.916696 109.105952 
L 317.730367 109.328254 
L 319.357708 110.550914 
L 320.985049 111.051093 
L 321.79872 111.162244 
L 322.61239 111.662423 
L 323.426061 111.9403 
L 324.239731 112.44048 
L 325.053402 113.107385 
L 327.494413 114.552347 
L 328.308084 114.830225 
L 329.935425 115.886159 
L 331.562766 116.830941 
L 332.376437 116.942092 
L 333.190107 117.442272 
L 334.817448 117.886875 
L 335.631119 118.109177 
L 338.07213 119.498564 
L 340.513142 120.498922 
L 342.140483 121.610431 
L 343.767824 122.166186 
L 344.581495 122.833092 
L 346.208836 123.333271 
L 347.836177 124.055752 
L 349.463518 125.222837 
L 350.277189 125.500714 
L 351.090859 126.16762 
L 351.90453 126.612223 
L 352.7182 126.890101 
L 353.531871 127.946034 
L 355.972882 129.22427 
L 356.786553 130.002327 
L 357.600223 131.002685 
L 360.041235 132.447647 
L 360.854906 133.336855 
L 361.668576 133.781458 
L 364.923258 136.115628 
L 366.550599 136.838109 
L 367.36427 137.727316 
L 368.17794 138.060769 
L 369.805282 139.172278 
L 370.618952 139.894759 
L 371.432623 140.839542 
L 373.873634 142.117778 
L 375.500975 143.173712 
L 376.314646 143.340438 
L 377.941987 144.563099 
L 380.382999 145.507881 
L 381.196669 145.674608 
L 382.01034 146.341513 
L 382.82401 146.452664 
L 385.265022 147.953202 
L 387.706033 149.842768 
L 392.588057 151.954635 
L 394.215398 152.954994 
L 394.215398 152.954994 
" style="fill:none;stroke:#ceff29;stroke-linecap:round;stroke-width:1.5;"/>
   </g>
   <g id="line2d_22">
    <path clip-path="url(#p788011b299)" d="M 69.560852 261.104849 
L 70.374523 260.271217 
L 72.001864 255.991906 
L 72.815534 252.712954 
L 74.442876 244.54336 
L 78.511228 218.867496 
L 80.95224 203.306365 
L 81.76591 198.860328 
L 84.206922 182.91017 
L 85.020593 176.908019 
L 87.461604 162.236096 
L 88.275275 156.67855 
L 89.088945 152.065786 
L 89.902616 146.563815 
L 91.529957 137.227137 
L 92.343627 131.836317 
L 93.970968 123.889025 
L 94.784639 119.05396 
L 95.59831 115.49713 
L 96.41198 111.384546 
L 98.039321 104.382037 
L 98.852992 100.269453 
L 99.666662 97.323953 
L 102.921344 82.985483 
L 105.362356 74.260135 
L 106.176027 71.203484 
L 106.989697 69.202768 
L 107.803368 65.645938 
L 111.05805 56.865014 
L 111.87172 54.086241 
L 113.499061 50.140383 
L 115.126403 47.306034 
L 115.940073 46.694704 
L 116.753744 45.360893 
L 117.567414 44.360535 
L 118.381085 42.859997 
L 119.194755 41.026007 
L 121.635767 36.691121 
L 122.449437 36.024215 
L 123.263108 35.079432 
L 125.70412 34.912706 
L 126.51779 34.523677 
L 128.145131 33.189866 
L 128.958802 32.911989 
L 130.586143 31.856055 
L 131.399813 31.411451 
L 133.840825 31.689329 
L 134.654495 31.689329 
L 136.281837 32.911989 
L 137.909178 32.578536 
L 138.722848 32.967564 
L 141.16386 33.245442 
L 142.791201 33.578895 
L 143.604871 34.079074 
L 144.418542 34.745979 
L 145.232212 35.023857 
L 146.045883 36.07979 
L 146.859554 36.857847 
L 147.673224 37.302451 
L 148.486895 38.136083 
L 149.300565 38.691837 
L 150.114236 39.858922 
L 150.927906 40.803705 
L 151.741577 41.470611 
L 152.555247 42.526544 
L 155.80993 45.472044 
L 156.6236 46.361252 
L 158.250941 47.695063 
L 159.064612 48.361968 
L 160.691953 49.918081 
L 161.505623 51.140742 
L 162.319294 52.1411 
L 163.132964 52.75243 
L 163.946635 53.641637 
L 164.760305 54.252968 
L 165.573976 55.031024 
L 166.387647 56.031382 
L 168.014988 57.587496 
L 168.828658 58.643429 
L 169.642329 59.921665 
L 170.455999 60.866448 
L 171.26967 61.311052 
L 172.897011 62.756014 
L 174.524352 65.034608 
L 175.338022 65.86824 
L 176.151693 66.868598 
L 176.965364 67.591079 
L 177.779034 68.647013 
L 180.220046 70.592154 
L 181.033716 71.536937 
L 182.661057 72.815173 
L 185.915739 76.316427 
L 187.543081 77.539088 
L 188.356751 78.428295 
L 189.170422 78.98405 
L 192.425104 81.873974 
L 193.238774 82.763181 
L 194.052445 83.430087 
L 194.866115 84.319294 
L 195.679786 84.930624 
L 196.493457 85.319653 
L 197.307127 86.097709 
L 198.934468 87.098068 
L 201.37548 89.265511 
L 202.18915 89.598963 
L 203.002821 90.821624 
L 203.816491 91.432954 
L 204.630162 92.21101 
L 205.443832 92.766765 
L 206.257503 93.93385 
L 207.071174 94.322878 
L 207.884844 95.323236 
L 208.698515 95.934567 
L 210.325856 97.49068 
L 211.139526 98.046434 
L 211.953197 98.880066 
L 213.580538 100.102726 
L 214.394208 100.880783 
L 215.207879 101.269811 
L 216.021549 102.714773 
L 217.648891 103.826283 
L 219.276232 105.437971 
L 222.530914 107.66099 
L 223.344584 108.494622 
L 224.158255 108.88365 
L 224.971925 109.439405 
L 225.785596 110.384187 
L 227.412937 111.440121 
L 228.226608 111.717999 
L 230.667619 113.329687 
L 232.29496 114.218895 
L 234.735972 116.942092 
L 235.549642 117.553422 
L 236.363313 117.886875 
L 237.176984 118.664932 
L 238.804325 119.720866 
L 239.617995 120.554498 
L 240.431666 121.110252 
L 241.245336 121.49928 
L 242.059007 122.221762 
L 243.686348 122.944243 
L 245.313689 124.611507 
L 248.568371 126.945676 
L 249.382042 127.39028 
L 250.195712 128.057185 
L 254.264065 130.335779 
L 255.891406 131.614015 
L 256.705076 131.836317 
L 257.518747 132.447647 
L 258.332418 132.669949 
L 259.959759 133.670307 
L 260.773429 134.503939 
L 264.028111 136.282354 
L 265.655452 137.56059 
L 266.469123 137.949618 
L 267.282793 138.672099 
L 270.537476 140.172637 
L 272.164817 141.395297 
L 273.792158 142.34008 
L 274.605828 142.729108 
L 275.419499 143.396014 
L 277.860511 144.618674 
L 278.674181 144.896551 
L 279.487852 145.619032 
L 280.301522 145.785759 
L 281.928863 146.786117 
L 283.556204 147.397447 
L 284.369875 147.564174 
L 285.183545 148.008777 
L 286.810886 149.175862 
L 287.624557 149.620466 
L 288.438228 149.787192 
L 289.251898 150.176221 
L 292.50658 152.454815 
L 293.320251 152.788267 
L 296.574933 154.955711 
L 298.202274 155.789343 
L 299.829615 156.67855 
L 300.643286 157.012003 
L 301.456956 157.123154 
L 303.084297 157.956786 
L 304.711638 158.401389 
L 305.525309 158.901569 
L 306.338979 159.12387 
L 307.15265 159.679625 
L 307.96632 159.957502 
L 308.779991 160.513257 
L 310.407332 161.291314 
L 312.034673 162.06937 
L 312.848344 162.236096 
L 314.475685 163.014153 
L 315.289355 163.736634 
L 316.916696 164.347964 
L 317.730367 164.792568 
L 318.544038 165.070445 
L 324.239731 168.07152 
L 326.680743 169.016303 
L 329.121755 170.072237 
L 330.749096 170.40569 
L 332.376437 171.072595 
L 333.190107 171.239322 
L 338.07213 173.128888 
L 338.885801 173.295614 
L 339.699472 173.795793 
L 340.513142 173.851369 
L 344.581495 174.962878 
L 345.395165 175.407482 
L 346.208836 176.074387 
L 348.649847 176.852444 
L 350.277189 177.686076 
L 351.90453 178.297406 
L 353.531871 178.519708 
L 354.345541 178.853161 
L 356.786553 179.408915 
L 357.600223 179.686793 
L 358.413894 180.186972 
L 360.041235 180.409274 
L 361.668576 180.853877 
L 363.295917 181.409632 
L 364.109588 182.020962 
L 364.923258 182.298839 
L 365.736929 182.743443 
L 366.550599 182.91017 
L 367.36427 183.410349 
L 368.17794 183.743802 
L 368.991611 183.799377 
L 370.618952 184.688584 
L 372.246293 185.022037 
L 373.059964 185.188764 
L 375.500975 186.355848 
L 376.314646 186.911603 
L 378.755657 188.023112 
L 380.382999 188.523292 
L 390.960716 192.747027 
L 392.588057 193.302782 
L 394.215398 193.802961 
L 394.215398 193.802961 
" style="fill:none;stroke:#ffc400;stroke-linecap:round;stroke-width:1.5;"/>
   </g>
   <g id="line2d_23">
    <path clip-path="url(#p788011b299)" d="M 69.560852 261.049274 
L 70.374523 259.771038 
L 71.188193 257.436868 
L 72.815534 251.379143 
L 74.442876 243.098398 
L 76.883887 228.926655 
L 79.324899 211.920562 
L 80.138569 206.863195 
L 82.579581 190.246131 
L 85.834263 169.18303 
L 87.461604 159.457323 
L 89.902616 144.229646 
L 90.716286 138.505373 
L 92.343627 130.169053 
L 93.157298 126.723374 
L 95.59831 114.441196 
L 96.41198 110.662065 
L 98.039321 101.492113 
L 98.852992 98.213161 
L 99.666662 93.044642 
L 101.294003 84.37487 
L 102.107674 81.818398 
L 102.921344 78.48387 
L 103.735015 76.094125 
L 106.989697 64.034249 
L 107.803368 59.921665 
L 109.430709 54.975449 
L 112.685391 48.195242 
L 113.499061 45.916648 
L 115.940073 40.359101 
L 116.753744 39.414318 
L 117.567414 37.024573 
L 118.381085 35.801913 
L 119.194755 35.412885 
L 120.822096 32.856414 
L 122.449437 31.633753 
L 123.263108 30.07764 
L 124.890449 28.521527 
L 125.70412 28.799405 
L 126.51779 28.132499 
L 127.331461 27.63232 
L 128.145131 26.854263 
L 128.958802 26.465235 
L 129.772472 26.298509 
L 130.586143 26.465235 
L 131.399813 26.909839 
L 132.213484 26.798688 
L 134.654495 27.521169 
L 135.468166 27.410018 
L 136.281837 28.188074 
L 137.095507 28.188074 
L 140.350189 29.410735 
L 141.16386 30.244367 
L 142.791201 31.18915 
L 143.604871 32.078357 
L 144.418542 32.578536 
L 145.232212 32.856414 
L 146.859554 34.079074 
L 147.673224 34.023498 
L 148.486895 34.523677 
L 149.300565 34.745979 
L 151.741577 36.357668 
L 154.182588 36.746696 
L 154.996259 37.246875 
L 155.80993 36.746696 
L 156.6236 37.1913 
L 157.437271 37.80263 
L 159.064612 38.636262 
L 159.878282 39.303167 
L 160.691953 39.525469 
L 162.319294 40.24795 
L 163.132964 40.525828 
L 164.760305 41.637337 
L 165.573976 41.915214 
L 166.387647 42.470969 
L 167.201317 42.526544 
L 168.014988 42.748846 
L 169.642329 42.748846 
L 170.455999 42.971148 
L 171.26967 43.360176 
L 172.08334 44.027082 
L 172.897011 43.749205 
L 174.524352 44.582837 
L 175.338022 44.749563 
L 176.151693 44.471686 
L 178.592705 44.749563 
L 181.033716 45.861072 
L 182.661057 46.027799 
L 183.474728 46.472402 
L 185.915739 48.417544 
L 187.543081 48.806572 
L 189.170422 50.140383 
L 189.984092 51.196317 
L 190.797763 51.307468 
L 191.611433 51.640921 
L 192.425104 52.474553 
L 194.866115 54.197392 
L 196.493457 56.142533 
L 197.307127 56.809439 
L 198.120798 57.865373 
L 200.561809 60.310693 
L 206.257503 65.368061 
L 207.071174 66.701872 
L 209.512185 69.313919 
L 210.325856 70.0364 
L 211.139526 70.481003 
L 214.394208 74.20456 
L 215.207879 74.538012 
L 216.83522 76.372003 
L 218.462561 77.705814 
L 220.089902 79.428653 
L 220.903573 80.540163 
L 224.158255 84.096992 
L 225.785596 85.264077 
L 229.853949 89.321086 
L 230.667619 89.932416 
L 231.48129 90.766048 
L 235.549642 94.211727 
L 240.431666 98.435462 
L 241.245336 98.71334 
L 242.872677 100.269453 
L 243.686348 101.325387 
L 246.127359 102.937075 
L 246.94103 103.603981 
L 247.754701 104.10416 
L 249.382042 105.660273 
L 250.195712 106.216028 
L 251.009383 107.105235 
L 251.823053 107.66099 
L 253.450394 108.994801 
L 260.773429 113.996593 
L 261.5871 114.719074 
L 264.028111 116.330762 
L 264.841782 116.497489 
L 265.655452 117.108819 
L 267.282793 118.053602 
L 268.096464 118.887234 
L 268.910135 119.442988 
L 270.537476 120.999101 
L 272.978487 122.444063 
L 274.605828 124.055752 
L 276.233169 125.000535 
L 277.04684 125.611865 
L 277.860511 126.445497 
L 279.487852 127.501431 
L 280.301522 127.723733 
L 281.115193 128.335063 
L 281.928863 129.22427 
L 282.742534 129.780025 
L 283.556204 130.502506 
L 284.369875 131.058261 
L 285.183545 131.280562 
L 287.624557 132.558798 
L 288.438228 133.336855 
L 289.251898 133.837034 
L 290.065569 134.00376 
L 290.879239 134.670666 
L 292.50658 135.448722 
L 296.574933 138.060769 
L 297.388603 139.061127 
L 299.015945 140.50609 
L 299.829615 140.895118 
L 300.643286 141.617599 
L 302.270627 142.506806 
L 303.084297 143.284863 
L 305.525309 144.062919 
L 306.338979 144.340797 
L 307.15265 144.840976 
L 307.96632 145.174429 
L 315.289355 150.176221 
L 317.730367 151.28773 
L 318.544038 151.732334 
L 320.171379 153.177296 
L 322.61239 154.399956 
L 324.239731 155.400314 
L 325.867072 156.178371 
L 329.121755 158.179088 
L 329.935425 158.290238 
L 330.749096 158.568116 
L 331.562766 159.457323 
L 334.817448 160.624408 
L 336.444789 161.513615 
L 337.25846 162.013795 
L 338.07213 162.180521 
L 340.513142 163.236455 
L 341.326813 163.403181 
L 342.140483 163.847785 
L 342.954154 163.958936 
L 343.767824 164.681417 
L 345.395165 165.292747 
L 346.208836 165.681775 
L 347.022506 165.904077 
L 347.836177 166.459832 
L 349.463518 167.237888 
L 351.90453 169.016303 
L 352.7182 169.405331 
L 353.531871 170.127813 
L 355.159212 170.683567 
L 355.972882 170.905869 
L 358.413894 172.350831 
L 360.854906 173.517916 
L 361.668576 173.740218 
L 363.295917 174.851727 
L 364.109588 175.351906 
L 366.550599 176.129963 
L 369.805282 177.352623 
L 370.618952 177.963953 
L 371.432623 178.24183 
L 372.246293 178.74201 
L 373.059964 178.908736 
L 373.873634 179.35334 
L 376.314646 180.298123 
L 379.569328 181.576358 
L 380.382999 181.79866 
L 381.196669 182.521141 
L 382.82401 183.410349 
L 385.265022 184.188405 
L 386.892363 184.688584 
L 387.706033 184.855311 
L 388.519704 185.35549 
L 389.333374 185.633367 
L 390.960716 186.689301 
L 392.588057 186.911603 
L 393.401727 187.411782 
L 394.215398 188.078688 
L 394.215398 188.078688 
" style="fill:none;stroke:#ff6800;stroke-linecap:round;stroke-width:1.5;"/>
   </g>
   <g id="line2d_24">
    <path clip-path="url(#p788011b299)" d="M 69.560852 261.049274 
L 70.374523 260.215642 
L 71.188193 258.048198 
L 72.001864 255.158274 
L 72.815534 250.267633 
L 73.629205 246.099473 
L 76.883887 225.814429 
L 79.324899 209.919846 
L 80.138569 205.362657 
L 81.76591 193.191631 
L 84.206922 178.019529 
L 87.461604 158.234663 
L 89.088945 149.009136 
L 90.716286 137.505014 
L 91.529957 132.947826 
L 92.343627 127.445855 
L 93.157298 124.889384 
L 95.59831 110.995518 
L 97.225651 103.103802 
L 99.666662 93.489246 
L 100.480333 88.876482 
L 102.921344 79.428653 
L 104.548685 72.537296 
L 106.176027 67.313202 
L 106.989697 64.590004 
L 107.803368 62.31141 
L 108.617038 59.199184 
L 109.430709 57.142892 
L 110.244379 55.475628 
L 111.87172 50.029232 
L 112.685391 46.75028 
L 114.312732 41.081582 
L 115.126403 39.692196 
L 115.940073 38.525111 
L 118.381085 31.967206 
L 119.194755 31.244725 
L 120.008426 30.744546 
L 120.822096 30.07764 
L 121.635767 29.744187 
L 123.263108 27.854622 
L 124.076778 27.63232 
L 124.890449 27.687895 
L 125.70412 28.021348 
L 126.51779 27.243292 
L 127.331461 27.02099 
L 128.958802 27.187716 
L 129.772472 26.743112 
L 132.213484 28.188074 
L 133.027154 29.077282 
L 133.840825 29.188433 
L 134.654495 29.966489 
L 135.468166 30.188791 
L 137.095507 31.18915 
L 138.722848 32.911989 
L 139.536519 33.245442 
L 140.350189 33.356593 
L 141.97753 35.690762 
L 144.418542 36.857847 
L 146.045883 37.913781 
L 146.859554 37.913781 
L 149.300565 38.469535 
L 150.114236 39.080866 
L 151.741577 39.970073 
L 152.555247 40.525828 
L 153.368918 40.359101 
L 154.996259 40.803705 
L 155.80993 40.85928 
L 156.6236 40.24795 
L 157.437271 40.303526 
L 158.250941 40.636979 
L 159.064612 40.636979 
L 160.691953 41.526186 
L 161.505623 40.85928 
L 163.132964 41.415035 
L 163.946635 42.026365 
L 168.014988 42.193092 
L 168.828658 42.637695 
L 169.642329 42.58212 
L 170.455999 43.082299 
L 171.26967 42.971148 
L 172.08334 43.304601 
L 172.897011 44.249384 
L 173.710681 43.860356 
L 176.965364 46.13895 
L 177.779034 47.250459 
L 180.220046 48.306393 
L 181.033716 48.973298 
L 181.847387 50.140383 
L 182.661057 50.584987 
L 184.288398 51.918798 
L 185.915739 53.97509 
L 189.170422 57.865373 
L 189.984092 58.309977 
L 191.611433 59.643788 
L 192.425104 60.644146 
L 194.866115 62.92274 
L 195.679786 63.589646 
L 196.493457 64.923457 
L 197.307127 65.590363 
L 198.120798 66.034966 
L 200.561809 68.146834 
L 202.18915 69.925249 
L 203.002821 70.258702 
L 207.071174 73.593229 
L 208.698515 75.316069 
L 210.325856 76.816606 
L 214.394208 79.984408 
L 215.207879 80.651314 
L 216.021549 81.484946 
L 217.648891 82.707606 
L 220.903573 85.708681 
L 224.971925 88.376303 
L 225.785596 88.709756 
L 226.599266 89.543388 
L 228.226608 90.654897 
L 229.040278 91.821982 
L 230.667619 93.433671 
L 231.48129 94.434029 
L 233.922301 95.712265 
L 234.735972 96.212444 
L 235.549642 97.101651 
L 236.363313 98.157585 
L 237.176984 98.71334 
L 237.990654 99.658123 
L 239.617995 100.880783 
L 240.431666 101.714415 
L 246.127359 106.271603 
L 247.754701 107.605414 
L 249.382042 109.217103 
L 251.009383 110.217461 
L 252.636724 111.884725 
L 253.450394 112.218178 
L 254.264065 112.773932 
L 255.077735 113.774291 
L 255.891406 114.27447 
L 256.705076 114.441196 
L 258.332418 115.441555 
L 259.146088 115.663857 
L 259.959759 116.164036 
L 260.773429 116.997668 
L 261.5871 117.608998 
L 262.40077 117.998026 
L 263.214441 118.664932 
L 264.028111 119.109535 
L 264.841782 119.776441 
L 265.655452 120.221045 
L 267.282793 121.777158 
L 268.910135 122.999818 
L 269.723805 123.777875 
L 270.537476 124.389205 
L 271.351146 125.445139 
L 272.978487 126.16762 
L 273.792158 126.667799 
L 274.605828 126.834525 
L 276.233169 128.057185 
L 277.04684 128.557365 
L 277.860511 128.779666 
L 279.487852 129.8356 
L 280.301522 130.224629 
L 286.810886 135.059694 
L 287.624557 135.504298 
L 288.438228 136.115628 
L 289.251898 136.560232 
L 290.065569 137.282713 
L 291.69291 137.727316 
L 294.947592 139.894759 
L 295.761262 140.339363 
L 296.574933 140.950693 
L 300.643286 142.840259 
L 301.456956 143.451589 
L 302.270627 143.785042 
L 307.15265 147.063994 
L 307.96632 147.230721 
L 308.779991 147.786476 
L 309.593662 148.175504 
L 310.407332 148.397806 
L 311.221003 149.342589 
L 312.848344 150.509673 
L 313.662014 150.731975 
L 316.103026 152.343664 
L 317.730367 152.843843 
L 318.544038 153.399598 
L 320.171379 154.288805 
L 321.79872 155.622616 
L 325.053402 156.845276 
L 326.680743 157.28988 
L 328.308084 158.179088 
L 330.749096 159.346172 
L 331.562766 159.568474 
L 332.376437 160.068653 
L 334.003778 160.735559 
L 334.817448 161.346889 
L 335.631119 161.569191 
L 336.444789 162.180521 
L 338.885801 163.458757 
L 339.699472 163.79221 
L 342.954154 165.904077 
L 343.767824 166.181955 
L 344.581495 166.682134 
L 346.208836 167.237888 
L 347.022506 167.793643 
L 347.836177 167.960369 
L 350.277189 169.405331 
L 351.090859 169.516482 
L 352.7182 170.183388 
L 353.531871 170.461265 
L 354.345541 171.01702 
L 355.159212 171.294897 
L 355.972882 171.906227 
L 361.668576 173.851369 
L 362.482247 174.407123 
L 364.109588 174.685001 
L 365.736929 175.518633 
L 367.36427 175.907661 
L 368.17794 176.463416 
L 369.805282 177.130321 
L 372.246293 178.075104 
L 373.873634 179.242189 
L 375.500975 179.686793 
L 376.314646 180.298123 
L 378.755657 181.409632 
L 379.569328 181.631934 
L 382.01034 183.076896 
L 382.82401 183.243622 
L 383.637681 183.577075 
L 385.265022 184.021679 
L 391.774386 185.688943 
L 392.588057 185.855669 
L 393.401727 186.244697 
L 394.215398 186.300273 
L 394.215398 186.300273 
" style="fill:none;stroke:#f10800;stroke-linecap:round;stroke-width:1.5;"/>
   </g>
   <g id="patch_3">
    <path d="M 53.328125 273.312 
L 53.328125 7.2 
" style="fill:none;stroke:#cccccc;stroke-linecap:square;stroke-linejoin:miter;stroke-width:0.8;"/>
   </g>
   <g id="patch_4">
    <path d="M 410.448125 273.312 
L 410.448125 7.2 
" style="fill:none;stroke:#cccccc;stroke-linecap:square;stroke-linejoin:miter;stroke-width:0.8;"/>
   </g>
   <g id="patch_5">
    <path d="M 53.328125 273.312 
L 410.448125 273.312 
" style="fill:none;stroke:#cccccc;stroke-linecap:square;stroke-linejoin:miter;stroke-width:0.8;"/>
   </g>
   <g id="patch_6">
    <path d="M 53.328125 7.2 
L 410.448125 7.2 
" style="fill:none;stroke:#cccccc;stroke-linecap:square;stroke-linejoin:miter;stroke-width:0.8;"/>
   </g>
  </g>
 </g>
 <defs>
  <clipPath id="p788011b299">
   <rect height="266.112" width="357.12" x="53.328125" y="7.2"/>
  </clipPath>
 </defs>
</svg>
