<?xml version="1.0" encoding="utf-8" standalone="no"?>
<!DOCTYPE svg PUBLIC "-//W3C//DTD SVG 1.1//EN"
  "http://www.w3.org/Graphics/SVG/1.1/DTD/svg11.dtd">
<!-- Created with matplotlib (https://matplotlib.org/) -->
<svg height="310.86825pt" version="1.1" viewBox="0 0 430.373125 310.86825" width="430.373125pt" xmlns="http://www.w3.org/2000/svg" xmlns:xlink="http://www.w3.org/1999/xlink">
 <defs>
  <style type="text/css">
*{stroke-linecap:butt;stroke-linejoin:round;white-space:pre;}
  </style>
 </defs>
 <g id="figure_1">
  <g id="patch_1">
   <path d="M 0 310.86825 
L 430.373125 310.86825 
L 430.373125 0 
L 0 0 
z
" style="fill:#ffffff;"/>
  </g>
  <g id="axes_1">
   <g id="patch_2">
    <path d="M 66.053125 273.312 
L 423.173125 273.312 
L 423.173125 7.2 
L 66.053125 7.2 
z
" style="fill:#ffffff;"/>
   </g>
   <g id="matplotlib.axis_1">
    <g id="xtick_1">
     <g id="line2d_1">
      <path clip-path="url(#p9064c632f4)" d="M 82.285852 273.312 
L 82.285852 7.2 
" style="fill:none;stroke:#cccccc;stroke-linecap:round;stroke-width:0.8;"/>
     </g>
     <g id="text_1">
      <!-- 0 -->
      <defs>
       <path d="M 31.78125 66.40625 
Q 24.171875 66.40625 20.328125 58.90625 
Q 16.5 51.421875 16.5 36.375 
Q 16.5 21.390625 20.328125 13.890625 
Q 24.171875 6.390625 31.78125 6.390625 
Q 39.453125 6.390625 43.28125 13.890625 
Q 47.125 21.390625 47.125 36.375 
Q 47.125 51.421875 43.28125 58.90625 
Q 39.453125 66.40625 31.78125 66.40625 
z
M 31.78125 74.21875 
Q 44.046875 74.21875 50.515625 64.515625 
Q 56.984375 54.828125 56.984375 36.375 
Q 56.984375 17.96875 50.515625 8.265625 
Q 44.046875 -1.421875 31.78125 -1.421875 
Q 19.53125 -1.421875 13.0625 8.265625 
Q 6.59375 17.96875 6.59375 36.375 
Q 6.59375 54.828125 13.0625 64.515625 
Q 19.53125 74.21875 31.78125 74.21875 
z
" id="DejaVuSans-48"/>
      </defs>
      <g style="fill:#262626;" transform="translate(79.104602 287.910437)scale(0.1 -0.1)">
       <use xlink:href="#DejaVuSans-48"/>
      </g>
     </g>
    </g>
    <g id="xtick_2">
     <g id="line2d_2">
      <path clip-path="url(#p9064c632f4)" d="M 122.969379 273.312 
L 122.969379 7.2 
" style="fill:none;stroke:#cccccc;stroke-linecap:round;stroke-width:0.8;"/>
     </g>
     <g id="text_2">
      <!-- 5 -->
      <defs>
       <path d="M 10.796875 72.90625 
L 49.515625 72.90625 
L 49.515625 64.59375 
L 19.828125 64.59375 
L 19.828125 46.734375 
Q 21.96875 47.46875 24.109375 47.828125 
Q 26.265625 48.1875 28.421875 48.1875 
Q 40.625 48.1875 47.75 41.5 
Q 54.890625 34.8125 54.890625 23.390625 
Q 54.890625 11.625 47.5625 5.09375 
Q 40.234375 -1.421875 26.90625 -1.421875 
Q 22.3125 -1.421875 17.546875 -0.640625 
Q 12.796875 0.140625 7.71875 1.703125 
L 7.71875 11.625 
Q 12.109375 9.234375 16.796875 8.0625 
Q 21.484375 6.890625 26.703125 6.890625 
Q 35.15625 6.890625 40.078125 11.328125 
Q 45.015625 15.765625 45.015625 23.390625 
Q 45.015625 31 40.078125 35.4375 
Q 35.15625 39.890625 26.703125 39.890625 
Q 22.75 39.890625 18.8125 39.015625 
Q 14.890625 38.140625 10.796875 36.28125 
z
" id="DejaVuSans-53"/>
      </defs>
      <g style="fill:#262626;" transform="translate(119.788129 287.910437)scale(0.1 -0.1)">
       <use xlink:href="#DejaVuSans-53"/>
      </g>
     </g>
    </g>
    <g id="xtick_3">
     <g id="line2d_3">
      <path clip-path="url(#p9064c632f4)" d="M 163.652906 273.312 
L 163.652906 7.2 
" style="fill:none;stroke:#cccccc;stroke-linecap:round;stroke-width:0.8;"/>
     </g>
     <g id="text_3">
      <!-- 10 -->
      <defs>
       <path d="M 12.40625 8.296875 
L 28.515625 8.296875 
L 28.515625 63.921875 
L 10.984375 60.40625 
L 10.984375 69.390625 
L 28.421875 72.90625 
L 38.28125 72.90625 
L 38.28125 8.296875 
L 54.390625 8.296875 
L 54.390625 0 
L 12.40625 0 
z
" id="DejaVuSans-49"/>
      </defs>
      <g style="fill:#262626;" transform="translate(157.290406 287.910437)scale(0.1 -0.1)">
       <use xlink:href="#DejaVuSans-49"/>
       <use x="63.623047" xlink:href="#DejaVuSans-48"/>
      </g>
     </g>
    </g>
    <g id="xtick_4">
     <g id="line2d_4">
      <path clip-path="url(#p9064c632f4)" d="M 204.336433 273.312 
L 204.336433 7.2 
" style="fill:none;stroke:#cccccc;stroke-linecap:round;stroke-width:0.8;"/>
     </g>
     <g id="text_4">
      <!-- 15 -->
      <g style="fill:#262626;" transform="translate(197.973933 287.910437)scale(0.1 -0.1)">
       <use xlink:href="#DejaVuSans-49"/>
       <use x="63.623047" xlink:href="#DejaVuSans-53"/>
      </g>
     </g>
    </g>
    <g id="xtick_5">
     <g id="line2d_5">
      <path clip-path="url(#p9064c632f4)" d="M 245.01996 273.312 
L 245.01996 7.2 
" style="fill:none;stroke:#cccccc;stroke-linecap:round;stroke-width:0.8;"/>
     </g>
     <g id="text_5">
      <!-- 20 -->
      <defs>
       <path d="M 19.1875 8.296875 
L 53.609375 8.296875 
L 53.609375 0 
L 7.328125 0 
L 7.328125 8.296875 
Q 12.9375 14.109375 22.625 23.890625 
Q 32.328125 33.6875 34.8125 36.53125 
Q 39.546875 41.84375 41.421875 45.53125 
Q 43.3125 49.21875 43.3125 52.78125 
Q 43.3125 58.59375 39.234375 62.25 
Q 35.15625 65.921875 28.609375 65.921875 
Q 23.96875 65.921875 18.8125 64.3125 
Q 13.671875 62.703125 7.8125 59.421875 
L 7.8125 69.390625 
Q 13.765625 71.78125 18.9375 73 
Q 24.125 74.21875 28.421875 74.21875 
Q 39.75 74.21875 46.484375 68.546875 
Q 53.21875 62.890625 53.21875 53.421875 
Q 53.21875 48.921875 51.53125 44.890625 
Q 49.859375 40.875 45.40625 35.40625 
Q 44.1875 33.984375 37.640625 27.21875 
Q 31.109375 20.453125 19.1875 8.296875 
z
" id="DejaVuSans-50"/>
      </defs>
      <g style="fill:#262626;" transform="translate(238.65746 287.910437)scale(0.1 -0.1)">
       <use xlink:href="#DejaVuSans-50"/>
       <use x="63.623047" xlink:href="#DejaVuSans-48"/>
      </g>
     </g>
    </g>
    <g id="xtick_6">
     <g id="line2d_6">
      <path clip-path="url(#p9064c632f4)" d="M 285.703487 273.312 
L 285.703487 7.2 
" style="fill:none;stroke:#cccccc;stroke-linecap:round;stroke-width:0.8;"/>
     </g>
     <g id="text_6">
      <!-- 25 -->
      <g style="fill:#262626;" transform="translate(279.340987 287.910437)scale(0.1 -0.1)">
       <use xlink:href="#DejaVuSans-50"/>
       <use x="63.623047" xlink:href="#DejaVuSans-53"/>
      </g>
     </g>
    </g>
    <g id="xtick_7">
     <g id="line2d_7">
      <path clip-path="url(#p9064c632f4)" d="M 326.387014 273.312 
L 326.387014 7.2 
" style="fill:none;stroke:#cccccc;stroke-linecap:round;stroke-width:0.8;"/>
     </g>
     <g id="text_7">
      <!-- 30 -->
      <defs>
       <path d="M 40.578125 39.3125 
Q 47.65625 37.796875 51.625 33 
Q 55.609375 28.21875 55.609375 21.1875 
Q 55.609375 10.40625 48.1875 4.484375 
Q 40.765625 -1.421875 27.09375 -1.421875 
Q 22.515625 -1.421875 17.65625 -0.515625 
Q 12.796875 0.390625 7.625 2.203125 
L 7.625 11.71875 
Q 11.71875 9.328125 16.59375 8.109375 
Q 21.484375 6.890625 26.8125 6.890625 
Q 36.078125 6.890625 40.9375 10.546875 
Q 45.796875 14.203125 45.796875 21.1875 
Q 45.796875 27.640625 41.28125 31.265625 
Q 36.765625 34.90625 28.71875 34.90625 
L 20.21875 34.90625 
L 20.21875 43.015625 
L 29.109375 43.015625 
Q 36.375 43.015625 40.234375 45.921875 
Q 44.09375 48.828125 44.09375 54.296875 
Q 44.09375 59.90625 40.109375 62.90625 
Q 36.140625 65.921875 28.71875 65.921875 
Q 24.65625 65.921875 20.015625 65.03125 
Q 15.375 64.15625 9.8125 62.3125 
L 9.8125 71.09375 
Q 15.4375 72.65625 20.34375 73.4375 
Q 25.25 74.21875 29.59375 74.21875 
Q 40.828125 74.21875 47.359375 69.109375 
Q 53.90625 64.015625 53.90625 55.328125 
Q 53.90625 49.265625 50.4375 45.09375 
Q 46.96875 40.921875 40.578125 39.3125 
z
" id="DejaVuSans-51"/>
      </defs>
      <g style="fill:#262626;" transform="translate(320.024514 287.910437)scale(0.1 -0.1)">
       <use xlink:href="#DejaVuSans-51"/>
       <use x="63.623047" xlink:href="#DejaVuSans-48"/>
      </g>
     </g>
    </g>
    <g id="xtick_8">
     <g id="line2d_8">
      <path clip-path="url(#p9064c632f4)" d="M 367.070541 273.312 
L 367.070541 7.2 
" style="fill:none;stroke:#cccccc;stroke-linecap:round;stroke-width:0.8;"/>
     </g>
     <g id="text_8">
      <!-- 35 -->
      <g style="fill:#262626;" transform="translate(360.708041 287.910437)scale(0.1 -0.1)">
       <use xlink:href="#DejaVuSans-51"/>
       <use x="63.623047" xlink:href="#DejaVuSans-53"/>
      </g>
     </g>
    </g>
    <g id="xtick_9">
     <g id="line2d_9">
      <path clip-path="url(#p9064c632f4)" d="M 407.754068 273.312 
L 407.754068 7.2 
" style="fill:none;stroke:#cccccc;stroke-linecap:round;stroke-width:0.8;"/>
     </g>
     <g id="text_9">
      <!-- 40 -->
      <defs>
       <path d="M 37.796875 64.3125 
L 12.890625 25.390625 
L 37.796875 25.390625 
z
M 35.203125 72.90625 
L 47.609375 72.90625 
L 47.609375 25.390625 
L 58.015625 25.390625 
L 58.015625 17.1875 
L 47.609375 17.1875 
L 47.609375 0 
L 37.796875 0 
L 37.796875 17.1875 
L 4.890625 17.1875 
L 4.890625 26.703125 
z
" id="DejaVuSans-52"/>
      </defs>
      <g style="fill:#262626;" transform="translate(401.391568 287.910437)scale(0.1 -0.1)">
       <use xlink:href="#DejaVuSans-52"/>
       <use x="63.623047" xlink:href="#DejaVuSans-48"/>
      </g>
     </g>
    </g>
    <g id="text_10">
     <!-- time (days) -->
     <defs>
      <path d="M 18.3125 70.21875 
L 18.3125 54.6875 
L 36.8125 54.6875 
L 36.8125 47.703125 
L 18.3125 47.703125 
L 18.3125 18.015625 
Q 18.3125 11.328125 20.140625 9.421875 
Q 21.96875 7.515625 27.59375 7.515625 
L 36.8125 7.515625 
L 36.8125 0 
L 27.59375 0 
Q 17.1875 0 13.234375 3.875 
Q 9.28125 7.765625 9.28125 18.015625 
L 9.28125 47.703125 
L 2.6875 47.703125 
L 2.6875 54.6875 
L 9.28125 54.6875 
L 9.28125 70.21875 
z
" id="DejaVuSans-116"/>
      <path d="M 9.421875 54.6875 
L 18.40625 54.6875 
L 18.40625 0 
L 9.421875 0 
z
M 9.421875 75.984375 
L 18.40625 75.984375 
L 18.40625 64.59375 
L 9.421875 64.59375 
z
" id="DejaVuSans-105"/>
      <path d="M 52 44.1875 
Q 55.375 50.25 60.0625 53.125 
Q 64.75 56 71.09375 56 
Q 79.640625 56 84.28125 50.015625 
Q 88.921875 44.046875 88.921875 33.015625 
L 88.921875 0 
L 79.890625 0 
L 79.890625 32.71875 
Q 79.890625 40.578125 77.09375 44.375 
Q 74.3125 48.1875 68.609375 48.1875 
Q 61.625 48.1875 57.5625 43.546875 
Q 53.515625 38.921875 53.515625 30.90625 
L 53.515625 0 
L 44.484375 0 
L 44.484375 32.71875 
Q 44.484375 40.625 41.703125 44.40625 
Q 38.921875 48.1875 33.109375 48.1875 
Q 26.21875 48.1875 22.15625 43.53125 
Q 18.109375 38.875 18.109375 30.90625 
L 18.109375 0 
L 9.078125 0 
L 9.078125 54.6875 
L 18.109375 54.6875 
L 18.109375 46.1875 
Q 21.1875 51.21875 25.484375 53.609375 
Q 29.78125 56 35.6875 56 
Q 41.65625 56 45.828125 52.96875 
Q 50 49.953125 52 44.1875 
z
" id="DejaVuSans-109"/>
      <path d="M 56.203125 29.59375 
L 56.203125 25.203125 
L 14.890625 25.203125 
Q 15.484375 15.921875 20.484375 11.0625 
Q 25.484375 6.203125 34.421875 6.203125 
Q 39.59375 6.203125 44.453125 7.46875 
Q 49.3125 8.734375 54.109375 11.28125 
L 54.109375 2.78125 
Q 49.265625 0.734375 44.1875 -0.34375 
Q 39.109375 -1.421875 33.890625 -1.421875 
Q 20.796875 -1.421875 13.15625 6.1875 
Q 5.515625 13.8125 5.515625 26.8125 
Q 5.515625 40.234375 12.765625 48.109375 
Q 20.015625 56 32.328125 56 
Q 43.359375 56 49.78125 48.890625 
Q 56.203125 41.796875 56.203125 29.59375 
z
M 47.21875 32.234375 
Q 47.125 39.59375 43.09375 43.984375 
Q 39.0625 48.390625 32.421875 48.390625 
Q 24.90625 48.390625 20.390625 44.140625 
Q 15.875 39.890625 15.1875 32.171875 
z
" id="DejaVuSans-101"/>
      <path id="DejaVuSans-32"/>
      <path d="M 31 75.875 
Q 24.46875 64.65625 21.28125 53.65625 
Q 18.109375 42.671875 18.109375 31.390625 
Q 18.109375 20.125 21.3125 9.0625 
Q 24.515625 -2 31 -13.1875 
L 23.1875 -13.1875 
Q 15.875 -1.703125 12.234375 9.375 
Q 8.59375 20.453125 8.59375 31.390625 
Q 8.59375 42.28125 12.203125 53.3125 
Q 15.828125 64.359375 23.1875 75.875 
z
" id="DejaVuSans-40"/>
      <path d="M 45.40625 46.390625 
L 45.40625 75.984375 
L 54.390625 75.984375 
L 54.390625 0 
L 45.40625 0 
L 45.40625 8.203125 
Q 42.578125 3.328125 38.25 0.953125 
Q 33.9375 -1.421875 27.875 -1.421875 
Q 17.96875 -1.421875 11.734375 6.484375 
Q 5.515625 14.40625 5.515625 27.296875 
Q 5.515625 40.1875 11.734375 48.09375 
Q 17.96875 56 27.875 56 
Q 33.9375 56 38.25 53.625 
Q 42.578125 51.265625 45.40625 46.390625 
z
M 14.796875 27.296875 
Q 14.796875 17.390625 18.875 11.75 
Q 22.953125 6.109375 30.078125 6.109375 
Q 37.203125 6.109375 41.296875 11.75 
Q 45.40625 17.390625 45.40625 27.296875 
Q 45.40625 37.203125 41.296875 42.84375 
Q 37.203125 48.484375 30.078125 48.484375 
Q 22.953125 48.484375 18.875 42.84375 
Q 14.796875 37.203125 14.796875 27.296875 
z
" id="DejaVuSans-100"/>
      <path d="M 34.28125 27.484375 
Q 23.390625 27.484375 19.1875 25 
Q 14.984375 22.515625 14.984375 16.5 
Q 14.984375 11.71875 18.140625 8.90625 
Q 21.296875 6.109375 26.703125 6.109375 
Q 34.1875 6.109375 38.703125 11.40625 
Q 43.21875 16.703125 43.21875 25.484375 
L 43.21875 27.484375 
z
M 52.203125 31.203125 
L 52.203125 0 
L 43.21875 0 
L 43.21875 8.296875 
Q 40.140625 3.328125 35.546875 0.953125 
Q 30.953125 -1.421875 24.3125 -1.421875 
Q 15.921875 -1.421875 10.953125 3.296875 
Q 6 8.015625 6 15.921875 
Q 6 25.140625 12.171875 29.828125 
Q 18.359375 34.515625 30.609375 34.515625 
L 43.21875 34.515625 
L 43.21875 35.40625 
Q 43.21875 41.609375 39.140625 45 
Q 35.0625 48.390625 27.6875 48.390625 
Q 23 48.390625 18.546875 47.265625 
Q 14.109375 46.140625 10.015625 43.890625 
L 10.015625 52.203125 
Q 14.9375 54.109375 19.578125 55.046875 
Q 24.21875 56 28.609375 56 
Q 40.484375 56 46.34375 49.84375 
Q 52.203125 43.703125 52.203125 31.203125 
z
" id="DejaVuSans-97"/>
      <path d="M 32.171875 -5.078125 
Q 28.375 -14.84375 24.75 -17.8125 
Q 21.140625 -20.796875 15.09375 -20.796875 
L 7.90625 -20.796875 
L 7.90625 -13.28125 
L 13.1875 -13.28125 
Q 16.890625 -13.28125 18.9375 -11.515625 
Q 21 -9.765625 23.484375 -3.21875 
L 25.09375 0.875 
L 2.984375 54.6875 
L 12.5 54.6875 
L 29.59375 11.921875 
L 46.6875 54.6875 
L 56.203125 54.6875 
z
" id="DejaVuSans-121"/>
      <path d="M 44.28125 53.078125 
L 44.28125 44.578125 
Q 40.484375 46.53125 36.375 47.5 
Q 32.28125 48.484375 27.875 48.484375 
Q 21.1875 48.484375 17.84375 46.4375 
Q 14.5 44.390625 14.5 40.28125 
Q 14.5 37.15625 16.890625 35.375 
Q 19.28125 33.59375 26.515625 31.984375 
L 29.59375 31.296875 
Q 39.15625 29.25 43.1875 25.515625 
Q 47.21875 21.78125 47.21875 15.09375 
Q 47.21875 7.46875 41.1875 3.015625 
Q 35.15625 -1.421875 24.609375 -1.421875 
Q 20.21875 -1.421875 15.453125 -0.5625 
Q 10.6875 0.296875 5.421875 2 
L 5.421875 11.28125 
Q 10.40625 8.6875 15.234375 7.390625 
Q 20.0625 6.109375 24.8125 6.109375 
Q 31.15625 6.109375 34.5625 8.28125 
Q 37.984375 10.453125 37.984375 14.40625 
Q 37.984375 18.0625 35.515625 20.015625 
Q 33.0625 21.96875 24.703125 23.78125 
L 21.578125 24.515625 
Q 13.234375 26.265625 9.515625 29.90625 
Q 5.8125 33.546875 5.8125 39.890625 
Q 5.8125 47.609375 11.28125 51.796875 
Q 16.75 56 26.8125 56 
Q 31.78125 56 36.171875 55.265625 
Q 40.578125 54.546875 44.28125 53.078125 
z
" id="DejaVuSans-115"/>
      <path d="M 8.015625 75.875 
L 15.828125 75.875 
Q 23.140625 64.359375 26.78125 53.3125 
Q 30.421875 42.28125 30.421875 31.390625 
Q 30.421875 20.453125 26.78125 9.375 
Q 23.140625 -1.703125 15.828125 -13.1875 
L 8.015625 -13.1875 
Q 14.5 -2 17.703125 9.0625 
Q 20.90625 20.125 20.90625 31.390625 
Q 20.90625 42.671875 17.703125 53.65625 
Q 14.5 64.65625 8.015625 75.875 
z
" id="DejaVuSans-41"/>
     </defs>
     <g style="fill:#262626;" transform="translate(216.024063 301.588562)scale(0.1 -0.1)">
      <use xlink:href="#DejaVuSans-116"/>
      <use x="39.208984" xlink:href="#DejaVuSans-105"/>
      <use x="66.992188" xlink:href="#DejaVuSans-109"/>
      <use x="164.404297" xlink:href="#DejaVuSans-101"/>
      <use x="225.927734" xlink:href="#DejaVuSans-32"/>
      <use x="257.714844" xlink:href="#DejaVuSans-40"/>
      <use x="296.728516" xlink:href="#DejaVuSans-100"/>
      <use x="360.205078" xlink:href="#DejaVuSans-97"/>
      <use x="421.484375" xlink:href="#DejaVuSans-121"/>
      <use x="480.664062" xlink:href="#DejaVuSans-115"/>
      <use x="532.763672" xlink:href="#DejaVuSans-41"/>
     </g>
    </g>
   </g>
   <g id="matplotlib.axis_2">
    <g id="ytick_1">
     <g id="line2d_10">
      <path clip-path="url(#p9064c632f4)" d="M 66.053125 263.29487 
L 423.173125 263.29487 
" style="fill:none;stroke:#cccccc;stroke-linecap:round;stroke-width:0.8;"/>
     </g>
     <g id="text_11">
      <!-- 50000 -->
      <g style="fill:#262626;" transform="translate(27.240625 267.094089)scale(0.1 -0.1)">
       <use xlink:href="#DejaVuSans-53"/>
       <use x="63.623047" xlink:href="#DejaVuSans-48"/>
       <use x="127.246094" xlink:href="#DejaVuSans-48"/>
       <use x="190.869141" xlink:href="#DejaVuSans-48"/>
       <use x="254.492188" xlink:href="#DejaVuSans-48"/>
      </g>
     </g>
    </g>
    <g id="ytick_2">
     <g id="line2d_11">
      <path clip-path="url(#p9064c632f4)" d="M 66.053125 232.795012 
L 423.173125 232.795012 
" style="fill:none;stroke:#cccccc;stroke-linecap:round;stroke-width:0.8;"/>
     </g>
     <g id="text_12">
      <!-- 75000 -->
      <defs>
       <path d="M 8.203125 72.90625 
L 55.078125 72.90625 
L 55.078125 68.703125 
L 28.609375 0 
L 18.3125 0 
L 43.21875 64.59375 
L 8.203125 64.59375 
z
" id="DejaVuSans-55"/>
      </defs>
      <g style="fill:#262626;" transform="translate(27.240625 236.59423)scale(0.1 -0.1)">
       <use xlink:href="#DejaVuSans-55"/>
       <use x="63.623047" xlink:href="#DejaVuSans-53"/>
       <use x="127.246094" xlink:href="#DejaVuSans-48"/>
       <use x="190.869141" xlink:href="#DejaVuSans-48"/>
       <use x="254.492188" xlink:href="#DejaVuSans-48"/>
      </g>
     </g>
    </g>
    <g id="ytick_3">
     <g id="line2d_12">
      <path clip-path="url(#p9064c632f4)" d="M 66.053125 202.295153 
L 423.173125 202.295153 
" style="fill:none;stroke:#cccccc;stroke-linecap:round;stroke-width:0.8;"/>
     </g>
     <g id="text_13">
      <!-- 100000 -->
      <g style="fill:#262626;" transform="translate(20.878125 206.094372)scale(0.1 -0.1)">
       <use xlink:href="#DejaVuSans-49"/>
       <use x="63.623047" xlink:href="#DejaVuSans-48"/>
       <use x="127.246094" xlink:href="#DejaVuSans-48"/>
       <use x="190.869141" xlink:href="#DejaVuSans-48"/>
       <use x="254.492188" xlink:href="#DejaVuSans-48"/>
       <use x="318.115234" xlink:href="#DejaVuSans-48"/>
      </g>
     </g>
    </g>
    <g id="ytick_4">
     <g id="line2d_13">
      <path clip-path="url(#p9064c632f4)" d="M 66.053125 171.795294 
L 423.173125 171.795294 
" style="fill:none;stroke:#cccccc;stroke-linecap:round;stroke-width:0.8;"/>
     </g>
     <g id="text_14">
      <!-- 125000 -->
      <g style="fill:#262626;" transform="translate(20.878125 175.594513)scale(0.1 -0.1)">
       <use xlink:href="#DejaVuSans-49"/>
       <use x="63.623047" xlink:href="#DejaVuSans-50"/>
       <use x="127.246094" xlink:href="#DejaVuSans-53"/>
       <use x="190.869141" xlink:href="#DejaVuSans-48"/>
       <use x="254.492188" xlink:href="#DejaVuSans-48"/>
       <use x="318.115234" xlink:href="#DejaVuSans-48"/>
      </g>
     </g>
    </g>
    <g id="ytick_5">
     <g id="line2d_14">
      <path clip-path="url(#p9064c632f4)" d="M 66.053125 141.295435 
L 423.173125 141.295435 
" style="fill:none;stroke:#cccccc;stroke-linecap:round;stroke-width:0.8;"/>
     </g>
     <g id="text_15">
      <!-- 150000 -->
      <g style="fill:#262626;" transform="translate(20.878125 145.094654)scale(0.1 -0.1)">
       <use xlink:href="#DejaVuSans-49"/>
       <use x="63.623047" xlink:href="#DejaVuSans-53"/>
       <use x="127.246094" xlink:href="#DejaVuSans-48"/>
       <use x="190.869141" xlink:href="#DejaVuSans-48"/>
       <use x="254.492188" xlink:href="#DejaVuSans-48"/>
       <use x="318.115234" xlink:href="#DejaVuSans-48"/>
      </g>
     </g>
    </g>
    <g id="ytick_6">
     <g id="line2d_15">
      <path clip-path="url(#p9064c632f4)" d="M 66.053125 110.795576 
L 423.173125 110.795576 
" style="fill:none;stroke:#cccccc;stroke-linecap:round;stroke-width:0.8;"/>
     </g>
     <g id="text_16">
      <!-- 175000 -->
      <g style="fill:#262626;" transform="translate(20.878125 114.594795)scale(0.1 -0.1)">
       <use xlink:href="#DejaVuSans-49"/>
       <use x="63.623047" xlink:href="#DejaVuSans-55"/>
       <use x="127.246094" xlink:href="#DejaVuSans-53"/>
       <use x="190.869141" xlink:href="#DejaVuSans-48"/>
       <use x="254.492188" xlink:href="#DejaVuSans-48"/>
       <use x="318.115234" xlink:href="#DejaVuSans-48"/>
      </g>
     </g>
    </g>
    <g id="ytick_7">
     <g id="line2d_16">
      <path clip-path="url(#p9064c632f4)" d="M 66.053125 80.295718 
L 423.173125 80.295718 
" style="fill:none;stroke:#cccccc;stroke-linecap:round;stroke-width:0.8;"/>
     </g>
     <g id="text_17">
      <!-- 200000 -->
      <g style="fill:#262626;" transform="translate(20.878125 84.094936)scale(0.1 -0.1)">
       <use xlink:href="#DejaVuSans-50"/>
       <use x="63.623047" xlink:href="#DejaVuSans-48"/>
       <use x="127.246094" xlink:href="#DejaVuSans-48"/>
       <use x="190.869141" xlink:href="#DejaVuSans-48"/>
       <use x="254.492188" xlink:href="#DejaVuSans-48"/>
       <use x="318.115234" xlink:href="#DejaVuSans-48"/>
      </g>
     </g>
    </g>
    <g id="ytick_8">
     <g id="line2d_17">
      <path clip-path="url(#p9064c632f4)" d="M 66.053125 49.795859 
L 423.173125 49.795859 
" style="fill:none;stroke:#cccccc;stroke-linecap:round;stroke-width:0.8;"/>
     </g>
     <g id="text_18">
      <!-- 225000 -->
      <g style="fill:#262626;" transform="translate(20.878125 53.595078)scale(0.1 -0.1)">
       <use xlink:href="#DejaVuSans-50"/>
       <use x="63.623047" xlink:href="#DejaVuSans-50"/>
       <use x="127.246094" xlink:href="#DejaVuSans-53"/>
       <use x="190.869141" xlink:href="#DejaVuSans-48"/>
       <use x="254.492188" xlink:href="#DejaVuSans-48"/>
       <use x="318.115234" xlink:href="#DejaVuSans-48"/>
      </g>
     </g>
    </g>
    <g id="ytick_9">
     <g id="line2d_18">
      <path clip-path="url(#p9064c632f4)" d="M 66.053125 19.296 
L 423.173125 19.296 
" style="fill:none;stroke:#cccccc;stroke-linecap:round;stroke-width:0.8;"/>
     </g>
     <g id="text_19">
      <!-- 250000 -->
      <g style="fill:#262626;" transform="translate(20.878125 23.095219)scale(0.1 -0.1)">
       <use xlink:href="#DejaVuSans-50"/>
       <use x="63.623047" xlink:href="#DejaVuSans-53"/>
       <use x="127.246094" xlink:href="#DejaVuSans-48"/>
       <use x="190.869141" xlink:href="#DejaVuSans-48"/>
       <use x="254.492188" xlink:href="#DejaVuSans-48"/>
       <use x="318.115234" xlink:href="#DejaVuSans-48"/>
      </g>
     </g>
    </g>
    <g id="text_20">
     <!-- cells number -->
     <defs>
      <path d="M 48.78125 52.59375 
L 48.78125 44.1875 
Q 44.96875 46.296875 41.140625 47.34375 
Q 37.3125 48.390625 33.40625 48.390625 
Q 24.65625 48.390625 19.8125 42.84375 
Q 14.984375 37.3125 14.984375 27.296875 
Q 14.984375 17.28125 19.8125 11.734375 
Q 24.65625 6.203125 33.40625 6.203125 
Q 37.3125 6.203125 41.140625 7.25 
Q 44.96875 8.296875 48.78125 10.40625 
L 48.78125 2.09375 
Q 45.015625 0.34375 40.984375 -0.53125 
Q 36.96875 -1.421875 32.421875 -1.421875 
Q 20.0625 -1.421875 12.78125 6.34375 
Q 5.515625 14.109375 5.515625 27.296875 
Q 5.515625 40.671875 12.859375 48.328125 
Q 20.21875 56 33.015625 56 
Q 37.15625 56 41.109375 55.140625 
Q 45.0625 54.296875 48.78125 52.59375 
z
" id="DejaVuSans-99"/>
      <path d="M 9.421875 75.984375 
L 18.40625 75.984375 
L 18.40625 0 
L 9.421875 0 
z
" id="DejaVuSans-108"/>
      <path d="M 54.890625 33.015625 
L 54.890625 0 
L 45.90625 0 
L 45.90625 32.71875 
Q 45.90625 40.484375 42.875 44.328125 
Q 39.84375 48.1875 33.796875 48.1875 
Q 26.515625 48.1875 22.3125 43.546875 
Q 18.109375 38.921875 18.109375 30.90625 
L 18.109375 0 
L 9.078125 0 
L 9.078125 54.6875 
L 18.109375 54.6875 
L 18.109375 46.1875 
Q 21.34375 51.125 25.703125 53.5625 
Q 30.078125 56 35.796875 56 
Q 45.21875 56 50.046875 50.171875 
Q 54.890625 44.34375 54.890625 33.015625 
z
" id="DejaVuSans-110"/>
      <path d="M 8.5 21.578125 
L 8.5 54.6875 
L 17.484375 54.6875 
L 17.484375 21.921875 
Q 17.484375 14.15625 20.5 10.265625 
Q 23.53125 6.390625 29.59375 6.390625 
Q 36.859375 6.390625 41.078125 11.03125 
Q 45.3125 15.671875 45.3125 23.6875 
L 45.3125 54.6875 
L 54.296875 54.6875 
L 54.296875 0 
L 45.3125 0 
L 45.3125 8.40625 
Q 42.046875 3.421875 37.71875 1 
Q 33.40625 -1.421875 27.6875 -1.421875 
Q 18.265625 -1.421875 13.375 4.4375 
Q 8.5 10.296875 8.5 21.578125 
z
M 31.109375 56 
z
" id="DejaVuSans-117"/>
      <path d="M 48.6875 27.296875 
Q 48.6875 37.203125 44.609375 42.84375 
Q 40.53125 48.484375 33.40625 48.484375 
Q 26.265625 48.484375 22.1875 42.84375 
Q 18.109375 37.203125 18.109375 27.296875 
Q 18.109375 17.390625 22.1875 11.75 
Q 26.265625 6.109375 33.40625 6.109375 
Q 40.53125 6.109375 44.609375 11.75 
Q 48.6875 17.390625 48.6875 27.296875 
z
M 18.109375 46.390625 
Q 20.953125 51.265625 25.265625 53.625 
Q 29.59375 56 35.59375 56 
Q 45.5625 56 51.78125 48.09375 
Q 58.015625 40.1875 58.015625 27.296875 
Q 58.015625 14.40625 51.78125 6.484375 
Q 45.5625 -1.421875 35.59375 -1.421875 
Q 29.59375 -1.421875 25.265625 0.953125 
Q 20.953125 3.328125 18.109375 8.203125 
L 18.109375 0 
L 9.078125 0 
L 9.078125 75.984375 
L 18.109375 75.984375 
z
" id="DejaVuSans-98"/>
      <path d="M 41.109375 46.296875 
Q 39.59375 47.171875 37.8125 47.578125 
Q 36.03125 48 33.890625 48 
Q 26.265625 48 22.1875 43.046875 
Q 18.109375 38.09375 18.109375 28.8125 
L 18.109375 0 
L 9.078125 0 
L 9.078125 54.6875 
L 18.109375 54.6875 
L 18.109375 46.1875 
Q 20.953125 51.171875 25.484375 53.578125 
Q 30.03125 56 36.53125 56 
Q 37.453125 56 38.578125 55.875 
Q 39.703125 55.765625 41.0625 55.515625 
z
" id="DejaVuSans-114"/>
     </defs>
     <g style="fill:#262626;" transform="translate(14.798438 172.567719)rotate(-90)scale(0.1 -0.1)">
      <use xlink:href="#DejaVuSans-99"/>
      <use x="54.980469" xlink:href="#DejaVuSans-101"/>
      <use x="116.503906" xlink:href="#DejaVuSans-108"/>
      <use x="144.287109" xlink:href="#DejaVuSans-108"/>
      <use x="172.070312" xlink:href="#DejaVuSans-115"/>
      <use x="224.169922" xlink:href="#DejaVuSans-32"/>
      <use x="255.957031" xlink:href="#DejaVuSans-110"/>
      <use x="319.335938" xlink:href="#DejaVuSans-117"/>
      <use x="382.714844" xlink:href="#DejaVuSans-109"/>
      <use x="480.126953" xlink:href="#DejaVuSans-98"/>
      <use x="543.603516" xlink:href="#DejaVuSans-101"/>
      <use x="605.126953" xlink:href="#DejaVuSans-114"/>
     </g>
    </g>
   </g>
   <g id="line2d_19">
    <path clip-path="url(#p9064c632f4)" d="M 82.285852 242.970984 
L 83.099523 254.216892 
L 83.913193 260.642603 
L 84.726864 260.198525 
L 85.540534 259.423828 
L 86.354205 258.474673 
L 89.608887 250.144551 
L 91.236228 244.907116 
L 92.863569 240.518796 
L 93.67724 237.998287 
L 94.49091 236.184156 
L 96.931922 226.64014 
L 98.559263 221.838242 
L 100.186604 216.178689 
L 101.000275 212.383286 
L 102.627616 206.732272 
L 103.441286 204.149544 
L 104.254957 200.947059 
L 105.068627 198.48267 
L 106.695968 190.301388 
L 107.509639 187.74062 
L 109.13698 180.623173 
L 110.764321 173.769245 
L 111.577992 171.600095 
L 112.391662 168.137751 
L 114.019003 162.040219 
L 114.832674 156.919903 
L 115.646344 152.893921 
L 117.273685 145.933854 
L 118.087356 142.032312 
L 121.342038 129.219931 
L 122.155709 126.511544 
L 122.969379 123.351758 
L 124.59672 115.648714 
L 125.410391 110.746777 
L 127.037732 104.079507 
L 127.851403 101.670019 
L 129.478744 93.349657 
L 131.106085 88.067082 
L 131.919755 84.664517 
L 132.733426 82.445348 
L 135.174437 72.765912 
L 135.988108 70.219784 
L 138.42912 59.653413 
L 139.24279 54.928375 
L 140.056461 51.61365 
L 141.683802 48.697864 
L 142.497472 46.634853 
L 143.311143 45.15866 
L 144.124813 43.914266 
L 144.938484 43.425048 
L 146.565825 44.346144 
L 147.379495 43.622687 
L 148.193166 43.270109 
L 149.820507 44.779242 
L 150.634178 45.952877 
L 151.447848 47.637689 
L 152.261519 48.274526 
L 153.88886 46.888612 
L 154.70253 46.810533 
L 155.516201 45.773537 
L 156.329871 45.396559 
L 157.143542 45.680818 
L 157.957212 45.661298 
L 158.770883 45.366059 
L 159.584554 45.19038 
L 160.398224 45.26724 
L 161.211895 44.254644 
L 162.839236 38.540191 
L 163.652906 36.745579 
L 164.466577 36.208782 
L 165.280247 35.486545 
L 166.093918 34.37025 
L 168.53493 30.15395 
L 169.3486 29.423173 
L 170.162271 28.431318 
L 170.975941 27.252803 
L 171.789612 26.351227 
L 172.603282 26.254848 
L 174.230623 26.687946 
L 175.044294 26.500067 
L 175.857964 25.954729 
L 176.671635 25.67901 
L 177.485305 25.548471 
L 178.298976 25.549691 
L 179.112647 24.505376 
L 179.926317 23.158502 
L 180.739988 22.227646 
L 181.553658 21.794548 
L 182.367329 22.159327 
L 183.180999 21.764049 
L 184.80834 20.308595 
L 185.622011 19.912097 
L 187.249352 19.497299 
L 190.504034 19.31308 
L 211.659468 19.296 
L 406.940398 19.296 
L 406.940398 19.296 
" style="fill:none;stroke:#000080;stroke-linecap:round;stroke-width:1.5;"/>
   </g>
   <g id="line2d_20">
    <path clip-path="url(#p9064c632f4)" d="M 82.285852 242.548866 
L 83.099523 252.907838 
L 83.913193 260.057005 
L 84.726864 260.954921 
L 85.540534 259.872786 
L 87.167876 256.91552 
L 87.981546 254.075373 
L 90.422558 248.437779 
L 92.049899 243.622461 
L 94.49091 235.832798 
L 95.304581 232.430233 
L 96.118251 230.165924 
L 97.745593 224.56005 
L 100.186604 215.82123 
L 103.441286 203.966545 
L 104.254957 200.157723 
L 105.882298 194.804387 
L 106.695968 191.198084 
L 107.509639 186.277847 
L 111.577992 170.694859 
L 114.019003 160.931244 
L 115.646344 153.353859 
L 116.460015 150.784551 
L 117.273685 147.633306 
L 118.087356 142.903388 
L 119.714697 135.8872 
L 120.528368 133.633871 
L 121.342038 130.810804 
L 122.969379 123.361518 
L 125.410391 113.247765 
L 126.224061 109.236424 
L 127.037732 105.960739 
L 127.851403 101.086861 
L 129.478744 95.748166 
L 133.547096 80.355497 
L 135.988108 69.387748 
L 137.615449 59.167855 
L 138.42912 53.643721 
L 139.24279 50.503456 
L 140.056461 49.418881 
L 140.870131 49.080942 
L 141.683802 48.606364 
L 142.497472 48.805223 
L 143.311143 49.46768 
L 144.124813 48.757644 
L 144.938484 46.882512 
L 146.565825 43.738587 
L 147.379495 42.95657 
L 148.193166 43.06027 
L 149.006837 42.762591 
L 149.820507 42.754051 
L 151.447848 40.076164 
L 152.261519 37.883834 
L 153.88886 32.436559 
L 157.143542 25.048273 
L 157.957212 23.917339 
L 158.770883 23.012103 
L 159.584554 22.364286 
L 162.025565 21.727449 
L 163.652906 20.426935 
L 164.466577 19.938937 
L 166.093918 19.497299 
L 168.53493 19.3265 
L 175.857964 19.296 
L 406.940398 19.296 
L 406.940398 19.296 
" style="fill:none;stroke:#0000f1;stroke-linecap:round;stroke-width:1.5;"/>
   </g>
   <g id="line2d_21">
    <path clip-path="url(#p9064c632f4)" d="M 82.285852 242.939265 
L 83.099523 254.384032 
L 83.913193 260.131425 
L 84.726864 261.085461 
L 85.540534 260.282704 
L 86.354205 257.909815 
L 87.167876 256.81548 
L 88.795217 252.61626 
L 89.608887 249.911532 
L 90.422558 247.846082 
L 92.049899 242.558626 
L 93.67724 238.544845 
L 95.304581 232.418033 
L 96.118251 229.971945 
L 98.559263 221.616203 
L 100.186604 216.473927 
L 101.000275 212.861524 
L 103.441286 203.723766 
L 104.254957 200.357802 
L 105.068627 198.049572 
L 105.882298 194.35665 
L 106.695968 191.658022 
L 107.509639 188.037079 
L 108.32331 185.54341 
L 109.13698 181.452769 
L 112.391662 167.860812 
L 113.205333 164.248409 
L 114.019003 159.896689 
L 117.273685 146.883009 
L 118.087356 144.5943 
L 122.155709 127.31796 
L 122.969379 125.11831 
L 123.78305 122.390403 
L 124.59672 118.813379 
L 125.410391 115.870753 
L 127.037732 108.554447 
L 128.665073 100.202365 
L 129.478744 96.890081 
L 132.733426 81.035034 
L 133.547096 77.852069 
L 135.988108 66.519541 
L 136.801778 63.325596 
L 137.615449 62.115362 
L 139.24279 60.43787 
L 140.056461 59.180055 
L 140.870131 57.511103 
L 142.497472 53.249663 
L 143.311143 50.688895 
L 144.124813 48.894283 
L 144.938484 48.196446 
L 145.752154 47.188731 
L 146.565825 45.15134 
L 147.379495 43.542168 
L 148.193166 43.494588 
L 149.006837 44.316864 
L 149.820507 43.647087 
L 150.634178 42.739411 
L 151.447848 41.204659 
L 152.261519 40.338463 
L 153.88886 38.055853 
L 154.70253 37.200637 
L 155.516201 36.54306 
L 156.329871 36.405201 
L 157.143542 37.038378 
L 157.957212 36.329561 
L 160.398224 32.29382 
L 161.211895 31.372724 
L 162.025565 31.053086 
L 162.839236 32.2133 
L 163.652906 33.008737 
L 164.466577 33.594334 
L 165.280247 32.944077 
L 166.093918 31.918062 
L 167.721259 28.603337 
L 168.53493 28.641157 
L 169.3486 29.703772 
L 170.162271 31.156785 
L 170.975941 31.909522 
L 171.789612 31.913182 
L 172.603282 32.052261 
L 173.416953 32.783038 
L 174.230623 34.32145 
L 175.857964 38.257152 
L 176.671635 39.340507 
L 177.485305 40.109104 
L 178.298976 39.812645 
L 179.112647 38.579231 
L 179.926317 37.595915 
L 180.739988 36.307601 
L 181.553658 35.854983 
L 182.367329 35.958683 
L 183.180999 36.181942 
L 183.99467 37.227477 
L 184.80834 39.323427 
L 185.622011 40.731301 
L 186.435681 41.166839 
L 187.249352 41.353498 
L 188.876693 43.182269 
L 189.690364 43.394548 
L 190.504034 42.638152 
L 191.317705 41.326658 
L 192.131375 40.587341 
L 192.945046 40.339683 
L 193.758716 38.73661 
L 196.199728 30.567528 
L 197.013398 28.353238 
L 197.827069 26.514707 
L 198.640739 25.80711 
L 199.45441 25.87543 
L 200.268081 26.175548 
L 201.081751 26.729426 
L 201.895422 26.913645 
L 202.709092 27.280863 
L 203.522763 27.89208 
L 204.336433 27.85914 
L 205.150104 27.622461 
L 205.963774 27.667601 
L 206.777445 28.092159 
L 207.591115 27.726161 
L 209.218457 26.193848 
L 210.032127 26.296328 
L 211.659468 27.191803 
L 212.473139 27.097864 
L 213.286809 27.510222 
L 214.10048 27.511442 
L 214.91415 27.97748 
L 216.541491 28.567957 
L 217.355162 28.143399 
L 218.982503 26.686726 
L 219.796174 25.71683 
L 222.237185 22.116627 
L 223.050856 21.799428 
L 223.864526 21.950708 
L 224.678197 21.692069 
L 227.119208 19.969437 
L 228.746549 19.527799 
L 230.373891 19.36188 
L 234.442243 19.29966 
L 310.927274 19.296 
L 406.940398 19.296 
L 406.940398 19.296 
" style="fill:none;stroke:#004cff;stroke-linecap:round;stroke-width:1.5;"/>
   </g>
   <g id="line2d_22">
    <path clip-path="url(#p9064c632f4)" d="M 82.285852 242.864845 
L 83.099523 254.201032 
L 83.913193 260.176565 
L 84.726864 260.641383 
L 85.540534 259.813006 
L 86.354205 257.259558 
L 87.167876 256.97774 
L 87.981546 255.029409 
L 88.795217 252.389341 
L 90.422558 248.19744 
L 93.67724 238.871803 
L 94.49091 236.012137 
L 95.304581 232.191114 
L 96.118251 230.745421 
L 96.931922 227.791815 
L 97.745593 224.237971 
L 98.559263 222.26524 
L 100.186604 216.283608 
L 101.000275 212.624845 
L 101.813945 210.265376 
L 102.627616 207.15561 
L 103.441286 204.671702 
L 104.254957 200.272402 
L 106.695968 190.256249 
L 107.509639 188.188358 
L 109.13698 180.840332 
L 109.950651 176.821671 
L 112.391662 168.179231 
L 113.205333 164.04223 
L 114.832674 157.371301 
L 115.646344 152.873182 
L 116.460015 150.557632 
L 117.273685 147.338067 
L 118.087356 143.653684 
L 119.714697 138.593148 
L 120.528368 134.285348 
L 122.969379 123.860496 
L 123.78305 121.339988 
L 124.59672 117.289606 
L 126.224061 111.113995 
L 127.037732 108.415367 
L 128.665073 101.576079 
L 129.478744 97.11944 
L 130.292414 95.088149 
L 131.106085 90.820609 
L 134.360767 78.009448 
L 135.174437 75.959858 
L 135.988108 73.421049 
L 136.801778 70.363744 
L 137.615449 67.745636 
L 138.42912 65.993724 
L 139.24279 65.214147 
L 140.056461 64.024653 
L 140.870131 61.368725 
L 142.497472 57.058485 
L 143.311143 55.372453 
L 144.124813 53.374102 
L 144.938484 52.134588 
L 145.752154 51.73321 
L 146.565825 50.436356 
L 147.379495 48.333086 
L 148.193166 47.637689 
L 149.006837 47.42053 
L 149.820507 46.736113 
L 150.634178 46.528714 
L 152.261519 44.291244 
L 153.075189 42.599112 
L 154.70253 41.996435 
L 156.329871 39.405167 
L 157.143542 39.186788 
L 157.957212 39.615006 
L 158.770883 39.051369 
L 159.584554 39.486907 
L 162.839236 42.389273 
L 163.652906 43.388448 
L 164.466577 42.851651 
L 165.280247 41.915915 
L 166.907588 43.15909 
L 167.721259 43.403088 
L 168.53493 42.430753 
L 169.3486 41.148539 
L 170.162271 40.82402 
L 170.975941 40.271363 
L 171.789612 39.070888 
L 172.603282 38.510911 
L 173.416953 38.75979 
L 174.230623 38.517011 
L 177.485305 35.507285 
L 178.298976 34.43979 
L 179.112647 33.666313 
L 179.926317 33.106336 
L 180.739988 32.900157 
L 182.367329 33.844433 
L 183.180999 34.868008 
L 183.99467 35.135187 
L 184.80834 34.43369 
L 185.622011 33.173436 
L 187.249352 29.676932 
L 188.063022 27.788381 
L 188.876693 26.365867 
L 189.690364 25.546031 
L 191.317705 22.666844 
L 192.131375 21.44197 
L 192.945046 20.683134 
L 193.758716 20.159756 
L 194.572387 19.791318 
L 196.199728 19.443619 
L 198.640739 19.32772 
L 205.963774 19.296 
L 406.940398 19.296 
L 406.940398 19.296 
" style="fill:none;stroke:#00b0ff;stroke-linecap:round;stroke-width:1.5;"/>
   </g>
   <g id="line2d_23">
    <path clip-path="url(#p9064c632f4)" d="M 82.285852 242.960005 
L 83.099523 253.872854 
L 83.913193 259.958186 
L 84.726864 260.497423 
L 85.540534 259.880106 
L 86.354205 258.264834 
L 87.981546 254.246172 
L 88.795217 252.65652 
L 89.608887 250.48981 
L 90.422558 247.819242 
L 91.236228 246.372329 
L 92.049899 243.631001 
L 93.67724 237.50419 
L 94.49091 234.823862 
L 96.118251 230.325743 
L 96.931922 227.812555 
L 97.745593 224.308731 
L 99.372934 219.913091 
L 100.186604 216.060349 
L 102.627616 206.332114 
L 103.441286 202.375672 
L 105.068627 196.220801 
L 105.882298 194.482309 
L 106.695968 190.370928 
L 107.509639 186.914684 
L 109.950651 179.20676 
L 110.764321 175.611436 
L 111.577992 170.831498 
L 113.205333 163.471273 
L 114.019003 160.809245 
L 115.646344 154.221275 
L 117.273685 147.413707 
L 118.901027 139.264145 
L 120.528368 133.172713 
L 123.78305 119.203777 
L 124.59672 114.999677 
L 125.410391 109.96842 
L 127.851403 96.942541 
L 128.665073 94.081654 
L 130.292414 87.725483 
L 131.919755 79.616181 
L 133.547096 72.473114 
L 134.360767 70.175864 
L 135.174437 68.854611 
L 135.988108 68.511792 
L 136.801778 68.630132 
L 137.615449 68.261693 
L 138.42912 66.131583 
L 139.24279 62.787579 
L 140.056461 59.946212 
L 140.870131 55.90925 
L 141.683802 53.070324 
L 142.497472 52.816565 
L 143.311143 54.081699 
L 144.124813 55.047934 
L 144.938484 54.353758 
L 145.752154 52.925144 
L 147.379495 48.206206 
L 148.193166 46.747093 
L 149.006837 45.750358 
L 149.820507 44.566963 
L 150.634178 43.03587 
L 151.447848 42.008635 
L 152.261519 41.996435 
L 153.075189 42.241654 
L 153.88886 41.900055 
L 154.70253 40.530002 
L 155.516201 38.68415 
L 156.329871 37.597135 
L 157.957212 36.707759 
L 159.584554 36.713859 
L 160.398224 36.845619 
L 161.211895 37.558095 
L 162.025565 37.419016 
L 163.652906 36.300281 
L 164.466577 35.326726 
L 165.280247 34.697209 
L 166.093918 35.293786 
L 166.907588 37.156717 
L 167.721259 38.69147 
L 168.53493 40.464122 
L 169.3486 41.163179 
L 170.975941 40.239643 
L 171.789612 39.242908 
L 175.044294 28.450838 
L 175.857964 27.022224 
L 176.671635 26.135288 
L 177.485305 24.927494 
L 179.926317 22.204467 
L 180.739988 21.701829 
L 182.367329 20.384235 
L 183.180999 19.920637 
L 184.80834 19.469239 
L 187.249352 19.33138 
L 195.386057 19.29722 
L 406.940398 19.296 
L 406.940398 19.296 
" style="fill:none;stroke:#29ffce;stroke-linecap:round;stroke-width:1.5;"/>
   </g>
   <g id="line2d_24">
    <path clip-path="url(#p9064c632f4)" d="M 82.285852 242.601326 
L 83.099523 253.941174 
L 83.913193 260.731662 
L 84.726864 260.593803 
L 85.540534 260.248544 
L 87.167876 256.587341 
L 87.981546 254.004613 
L 88.795217 252.149002 
L 89.608887 249.816373 
L 90.422558 248.1523 
L 92.049899 243.244263 
L 92.863569 241.386212 
L 93.67724 237.839688 
L 94.49091 235.33992 
L 96.118251 229.564467 
L 97.745593 224.725969 
L 98.559263 221.594243 
L 99.372934 219.033475 
L 100.186604 215.554051 
L 101.000275 212.887144 
L 101.813945 209.706618 
L 102.627616 207.331289 
L 103.441286 204.375243 
L 104.254957 200.468821 
L 105.882298 194.749488 
L 106.695968 192.510798 
L 108.32331 184.884613 
L 109.13698 181.34419 
L 109.950651 178.715102 
L 110.764321 174.468302 
L 111.577992 171.949013 
L 112.391662 168.922207 
L 113.205333 165.448883 
L 114.019003 160.604286 
L 114.832674 159.001213 
L 115.646344 155.191171 
L 117.273685 150.107454 
L 118.901027 141.650454 
L 119.714697 137.548833 
L 120.528368 134.883145 
L 121.342038 131.53426 
L 122.155709 127.27526 
L 127.037732 106.953814 
L 127.851403 104.517485 
L 130.292414 95.393148 
L 131.106085 90.926748 
L 132.733426 83.695842 
L 134.360767 77.737389 
L 135.988108 73.31857 
L 137.615449 68.078694 
L 138.42912 66.231623 
L 140.056461 62.032402 
L 140.870131 60.39151 
L 141.683802 59.674153 
L 142.497472 58.715238 
L 143.311143 57.978361 
L 144.124813 56.849866 
L 145.752154 52.543286 
L 146.565825 50.858474 
L 147.379495 50.103297 
L 152.261519 39.331967 
L 153.075189 38.442591 
L 154.70253 40.145703 
L 155.516201 39.749205 
L 156.329871 39.972464 
L 157.143542 40.398242 
L 158.770883 37.655695 
L 159.584554 35.449945 
L 160.398224 32.619558 
L 161.211895 31.183625 
L 162.025565 30.11369 
L 163.652906 29.579332 
L 164.466577 28.877836 
L 165.280247 27.810341 
L 166.093918 27.173504 
L 166.907588 26.944145 
L 170.162271 22.904743 
L 170.975941 22.230086 
L 172.603282 22.297186 
L 173.416953 22.001947 
L 175.857964 20.547714 
L 176.671635 20.048737 
L 178.298976 19.564399 
L 180.739988 19.35456 
L 186.435681 19.29722 
L 261.293371 19.296 
L 406.940398 19.296 
L 406.940398 19.296 
" style="fill:none;stroke:#7dff7a;stroke-linecap:round;stroke-width:1.5;"/>
   </g>
   <g id="line2d_25">
    <path clip-path="url(#p9064c632f4)" d="M 82.285852 243.217423 
L 83.099523 254.606071 
L 83.913193 260.612103 
L 84.726864 260.754842 
L 85.540534 260.176565 
L 86.354205 258.654012 
L 88.795217 252.694339 
L 90.422558 247.571583 
L 91.236228 246.13199 
L 92.049899 243.666381 
L 93.67724 237.629849 
L 96.118251 229.979265 
L 96.931922 227.631995 
L 98.559263 222.087121 
L 100.186604 215.730951 
L 101.000275 212.728544 
L 101.813945 209.27596 
L 105.068627 197.626234 
L 105.882298 194.084591 
L 106.695968 191.540903 
L 110.764321 173.805845 
L 111.577992 169.992142 
L 113.205333 164.09591 
L 114.019003 161.241123 
L 114.832674 158.964613 
L 116.460015 151.364049 
L 119.714697 138.624868 
L 120.528368 135.706641 
L 122.969379 124.615672 
L 123.78305 121.751126 
L 125.410391 114.077361 
L 126.224061 111.709352 
L 127.037732 107.562591 
L 127.851403 105.401981 
L 128.665073 101.638299 
L 129.478744 99.32031 
L 130.292414 96.059265 
L 131.106085 92.100383 
L 131.919755 89.196796 
L 132.733426 87.145986 
L 133.547096 86.387149 
L 134.360767 84.458338 
L 135.988108 79.336802 
L 136.801778 77.747149 
L 138.42912 74.044467 
L 140.056461 68.691131 
L 141.683802 64.813989 
L 142.497472 63.846534 
L 143.311143 62.5753 
L 145.752154 52.848285 
L 147.379495 48.519745 
L 149.820507 46.091956 
L 150.634178 45.624698 
L 152.261519 45.002501 
L 153.075189 44.993961 
L 153.88886 45.528319 
L 154.70253 45.11596 
L 155.516201 44.052125 
L 156.329871 43.772747 
L 157.143542 42.944371 
L 157.957212 42.564952 
L 158.770883 42.736971 
L 159.584554 43.839846 
L 160.398224 44.421784 
L 161.211895 45.14646 
L 162.025565 45.327019 
L 162.839236 44.365664 
L 163.652906 42.762591 
L 164.466577 40.223783 
L 166.093918 36.5028 
L 166.907588 35.682964 
L 168.53493 33.306415 
L 169.3486 32.772058 
L 170.162271 32.529279 
L 170.975941 32.792798 
L 171.789612 32.20598 
L 172.603282 31.461784 
L 173.416953 31.735062 
L 174.230623 32.1889 
L 176.671635 34.067692 
L 177.485305 34.544709 
L 178.298976 35.240106 
L 179.112647 35.453605 
L 179.926317 34.841168 
L 181.553658 35.077847 
L 182.367329 35.210826 
L 183.180999 35.214486 
L 184.80834 34.608149 
L 186.435681 35.114447 
L 187.249352 35.155927 
L 188.063022 34.980247 
L 189.690364 34.930228 
L 191.317705 35.507285 
L 192.131375 35.097367 
L 193.758716 35.756164 
L 194.572387 36.60162 
L 195.386057 37.234797 
L 196.199728 36.974938 
L 197.013398 35.751284 
L 197.827069 35.266946 
L 198.640739 35.729324 
L 199.45441 35.995283 
L 200.268081 34.863128 
L 202.709092 33.247855 
L 203.522763 33.095356 
L 204.336433 33.478434 
L 205.150104 34.214091 
L 207.591115 34.200671 
L 208.404786 34.016452 
L 209.218457 33.556514 
L 210.845798 32.1523 
L 213.286809 31.398344 
L 214.91415 32.471939 
L 215.727821 32.418259 
L 216.541491 32.15718 
L 217.355162 31.775322 
L 218.982503 30.595588 
L 219.796174 29.703772 
L 220.609844 28.466698 
L 221.423515 27.589522 
L 223.050856 27.607822 
L 223.864526 27.050284 
L 224.678197 27.351623 
L 225.491867 27.823761 
L 226.305538 27.87134 
L 227.119208 27.236943 
L 227.932879 27.022224 
L 228.746549 27.291843 
L 229.56022 28.151939 
L 230.373891 28.797316 
L 231.187561 29.179174 
L 232.001232 29.224314 
L 232.814902 29.590312 
L 233.628573 29.791611 
L 234.442243 28.861976 
L 235.255914 28.339818 
L 236.069584 28.148279 
L 239.324266 26.857525 
L 240.137937 26.619626 
L 240.951608 27.235723 
L 241.765278 27.501682 
L 244.20629 29.706212 
L 245.01996 30.06855 
L 245.833631 30.804207 
L 246.647301 31.299524 
L 247.460972 31.524003 
L 250.715654 31.853402 
L 251.529325 31.566703 
L 253.156666 31.386144 
L 253.970336 32.112041 
L 254.784007 32.482919 
L 256.411348 32.567099 
L 258.038689 32.141321 
L 258.852359 31.438604 
L 259.66603 31.649663 
L 261.293371 30.574848 
L 262.107042 30.09783 
L 262.920712 30.12833 
L 263.734383 30.676107 
L 264.548053 30.644387 
L 265.361724 30.216169 
L 266.175394 30.18567 
L 266.989065 30.739547 
L 268.616406 30.978666 
L 269.430076 31.680163 
L 270.243747 32.055921 
L 271.871088 31.336124 
L 273.498429 31.159225 
L 274.3121 30.723687 
L 275.12577 30.788347 
L 275.939441 31.039666 
L 277.566782 30.569968 
L 278.380452 30.622428 
L 280.007793 29.977051 
L 280.821464 29.390233 
L 281.635135 29.053515 
L 282.448805 28.879056 
L 283.262476 29.249934 
L 284.076146 29.369493 
L 285.703487 28.068979 
L 287.330828 26.794085 
L 288.958169 25.148313 
L 289.77184 24.756695 
L 290.585511 25.120253 
L 291.399181 25.70463 
L 292.212852 26.443947 
L 293.840193 27.333323 
L 294.653863 27.310143 
L 295.467534 27.634661 
L 296.281204 27.367483 
L 297.094875 27.418722 
L 297.908545 27.256463 
L 299.535886 26.640366 
L 301.163228 26.397587 
L 301.976898 26.481767 
L 302.790569 27.044184 
L 303.604239 27.300383 
L 304.41791 27.267443 
L 306.045251 28.406918 
L 306.858921 28.610657 
L 307.672592 28.570397 
L 310.113603 27.610262 
L 310.927274 27.577322 
L 312.554615 27.085664 
L 313.368286 27.111284 
L 314.181956 26.920965 
L 315.809297 27.511442 
L 317.436638 28.644817 
L 318.250309 28.896136 
L 319.87765 28.704596 
L 320.69132 28.383738 
L 323.132332 27.88598 
L 323.946003 27.417502 
L 324.759673 27.089324 
L 325.573344 26.519587 
L 327.200685 25.038513 
L 328.014355 24.726195 
L 328.828026 24.937254 
L 329.641696 24.972634 
L 331.269038 25.84371 
L 332.082708 25.83029 
L 332.896379 25.642411 
L 333.710049 25.635091 
L 334.52372 25.288612 
L 335.33739 25.178813 
L 336.964731 25.321552 
L 337.778402 25.184913 
L 339.405743 25.200773 
L 340.219413 25.309352 
L 341.033084 25.550911 
L 341.846755 26.145048 
L 342.660425 26.370747 
L 345.101437 25.83883 
L 345.915107 25.67657 
L 348.356119 25.72049 
L 349.169789 25.894949 
L 349.98346 25.81321 
L 351.610801 25.277632 
L 352.424472 25.411832 
L 354.051813 24.818914 
L 354.865483 24.810374 
L 356.492824 23.964918 
L 357.306495 23.859999 
L 358.120165 23.945398 
L 358.933836 23.875859 
L 359.747506 23.55134 
L 362.188518 22.077587 
L 363.815859 21.629849 
L 365.4432 21.340711 
L 367.884212 19.935277 
L 369.511553 19.508279 
L 371.952565 19.32528 
L 380.08927 19.296 
L 406.940398 19.296 
L 406.940398 19.296 
" style="fill:none;stroke:#ceff29;stroke-linecap:round;stroke-width:1.5;"/>
   </g>
   <g id="line2d_26">
    <path clip-path="url(#p9064c632f4)" d="M 82.285852 242.524467 
L 83.099523 254.058293 
L 83.913193 259.503128 
L 84.726864 260.729222 
L 85.540534 260.233905 
L 86.354205 259.16153 
L 87.167876 256.322603 
L 88.795217 252.264901 
L 90.422558 248.492679 
L 91.236228 245.031555 
L 92.049899 242.940485 
L 92.863569 240.347997 
L 94.49091 236.129256 
L 96.931922 227.459976 
L 98.559263 220.976926 
L 101.000275 212.824924 
L 103.441286 204.319123 
L 105.068627 197.592075 
L 105.882298 193.002456 
L 107.509639 186.710945 
L 109.950651 178.025805 
L 110.764321 175.809075 
L 111.577992 172.079553 
L 112.391662 167.625353 
L 114.019003 160.987364 
L 115.646344 154.030956 
L 116.460015 150.483213 
L 118.087356 142.39709 
L 118.901027 138.910346 
L 119.714697 136.327618 
L 121.342038 129.825048 
L 122.155709 125.425749 
L 123.78305 117.995983 
L 125.410391 110.319779 
L 126.224061 106.673215 
L 127.851403 98.397994 
L 128.665073 94.87831 
L 129.478744 92.986099 
L 130.292414 90.081292 
L 131.106085 87.741343 
L 131.919755 84.808477 
L 134.360767 74.016407 
L 135.174437 70.267364 
L 136.801778 65.475226 
L 138.42912 64.057593 
L 139.24279 63.012058 
L 140.056461 60.770928 
L 142.497472 53.209403 
L 144.124813 48.383105 
L 144.938484 48.377005 
L 145.752154 48.627104 
L 146.565825 47.41565 
L 147.379495 45.2038 
L 148.193166 43.910606 
L 149.006837 43.545828 
L 150.634178 45.2953 
L 152.261519 43.01513 
L 153.88886 41.460857 
L 155.516201 37.587375 
L 156.329871 35.244986 
L 157.143542 34.081112 
L 158.770883 31.123845 
L 159.584554 29.418293 
L 161.211895 24.713995 
L 162.025565 22.827884 
L 162.839236 21.37975 
L 163.652906 20.520874 
L 164.466577 19.959677 
L 166.093918 19.504619 
L 168.53493 19.34358 
L 175.857964 19.296 
L 406.940398 19.296 
L 406.940398 19.296 
" style="fill:none;stroke:#ffc400;stroke-linecap:round;stroke-width:1.5;"/>
   </g>
   <g id="line2d_27">
    <path clip-path="url(#p9064c632f4)" d="M 82.285852 242.352447 
L 83.099523 254.408432 
L 83.913193 260.403484 
L 84.726864 261.216 
L 85.540534 260.074085 
L 86.354205 258.457593 
L 87.981546 254.141253 
L 89.608887 249.386935 
L 90.422558 247.526443 
L 91.236228 246.06611 
L 92.863569 240.822574 
L 94.49091 235.904777 
L 95.304581 233.07927 
L 96.118251 230.694181 
L 96.931922 226.527901 
L 97.745593 224.628369 
L 98.559263 222.27866 
L 99.372934 219.523913 
L 101.000275 211.384111 
L 101.813945 208.506144 
L 102.627616 206.317474 
L 103.441286 202.96127 
L 105.882298 194.029691 
L 106.695968 191.954481 
L 109.13698 180.782992 
L 110.764321 173.764365 
L 111.577992 171.718434 
L 113.205333 163.488352 
L 114.019003 160.511566 
L 117.273685 146.559711 
L 118.087356 143.796424 
L 118.901027 140.35482 
L 120.528368 132.504156 
L 122.969379 124.594933 
L 123.78305 122.397723 
L 126.224061 111.262834 
L 127.037732 106.725675 
L 128.665073 99.419129 
L 130.292414 93.359417 
L 131.106085 91.009708 
L 133.547096 80.856915 
L 134.360767 78.252227 
L 135.174437 75.132701 
L 136.801778 70.848081 
L 137.615449 67.998175 
L 139.24279 60.44275 
L 140.056461 55.727471 
L 140.870131 51.855209 
L 144.124813 39.667466 
L 145.752154 35.380406 
L 147.379495 33.339355 
L 148.193166 32.916017 
L 149.820507 32.869657 
L 150.634178 32.371899 
L 151.447848 31.591103 
L 152.261519 31.054306 
L 153.075189 30.935966 
L 153.88886 31.636243 
L 154.70253 31.608183 
L 156.329871 33.268595 
L 157.143542 34.881428 
L 157.957212 37.050578 
L 159.584554 39.629646 
L 160.398224 41.523077 
L 161.211895 42.192854 
L 162.025565 43.03221 
L 162.839236 43.677587 
L 163.652906 44.010646 
L 164.466577 44.593803 
L 165.280247 44.174125 
L 166.093918 44.174125 
L 166.907588 44.703602 
L 167.721259 44.842682 
L 168.53493 45.14158 
L 170.162271 43.487268 
L 171.789612 43.366489 
L 173.416953 41.767076 
L 174.230623 42.732091 
L 175.044294 44.039925 
L 175.857964 44.148505 
L 177.485305 42.530792 
L 178.298976 43.00171 
L 179.112647 42.756491 
L 179.926317 42.844331 
L 181.553658 40.97408 
L 182.367329 40.260383 
L 183.180999 40.96066 
L 183.99467 41.876875 
L 184.80834 41.782936 
L 185.622011 41.423038 
L 186.435681 41.370578 
L 187.249352 41.175379 
L 188.063022 41.967155 
L 188.876693 43.13103 
L 189.690364 43.471408 
L 190.504034 42.815051 
L 191.317705 41.759756 
L 194.572387 33.791973 
L 195.386057 32.30358 
L 197.013398 31.355644 
L 197.827069 30.944506 
L 199.45441 29.456113 
L 200.268081 29.530533 
L 201.081751 28.333718 
L 202.709092 24.310177 
L 203.522763 22.899863 
L 204.336433 22.056847 
L 205.963774 20.839293 
L 207.591115 19.875497 
L 208.404786 19.619299 
L 210.032127 19.410679 
L 212.473139 19.31674 
L 219.796174 19.296 
L 406.940398 19.296 
L 406.940398 19.296 
" style="fill:none;stroke:#ff6800;stroke-linecap:round;stroke-width:1.5;"/>
   </g>
   <g id="line2d_28">
    <path clip-path="url(#p9064c632f4)" d="M 82.285852 242.725766 
L 83.099523 254.69635 
L 83.913193 259.450668 
L 84.726864 260.286364 
L 86.354205 258.452713 
L 88.795217 251.970883 
L 90.422558 248.36214 
L 91.236228 245.695232 
L 92.049899 243.563902 
L 93.67724 237.690849 
L 94.49091 235.424099 
L 95.304581 232.579073 
L 96.118251 230.453842 
L 98.559263 222.30062 
L 99.372934 218.07334 
L 100.186604 214.835475 
L 101.000275 212.247867 
L 101.813945 208.928262 
L 102.627616 206.563913 
L 105.068627 196.706359 
L 105.882298 194.493289 
L 108.32331 183.5292 
L 110.764321 173.911984 
L 112.391662 167.165415 
L 114.019003 161.039824 
L 114.832674 157.339581 
L 115.646344 153.030561 
L 118.901027 140.959937 
L 119.714697 136.980315 
L 121.342038 130.361846 
L 127.037732 102.687494 
L 128.665073 95.301648 
L 129.478744 92.879959 
L 131.106085 87.084986 
L 132.733426 79.294102 
L 133.547096 77.62881 
L 134.360767 74.641044 
L 135.174437 71.18846 
L 135.988108 67.024619 
L 137.615449 57.210984 
L 139.24279 50.698655 
L 140.056461 46.327415 
L 140.870131 43.185929 
L 141.683802 41.302258 
L 142.497472 39.829725 
L 144.124813 35.584145 
L 144.938484 34.045732 
L 145.752154 33.794413 
L 146.565825 33.661433 
L 147.379495 33.253955 
L 149.006837 34.836288 
L 149.820507 35.043687 
L 151.447848 33.441835 
L 152.261519 32.975797 
L 153.075189 32.990437 
L 153.88886 33.499174 
L 154.70253 34.31169 
L 155.516201 35.613424 
L 156.329871 37.692295 
L 157.143542 40.506822 
L 157.957212 42.399033 
L 158.770883 43.800807 
L 159.584554 44.972001 
L 160.398224 45.589318 
L 161.211895 45.610058 
L 162.025565 43.932566 
L 162.839236 41.797576 
L 163.652906 40.726421 
L 164.466577 41.669476 
L 166.093918 44.817062 
L 166.907588 46.664133 
L 167.721259 47.47665 
L 169.3486 48.344066 
L 170.162271 48.852803 
L 170.975941 48.901603 
L 171.789612 48.453865 
L 172.603282 47.43761 
L 174.230623 46.412814 
L 175.044294 45.27944 
L 175.857964 42.715012 
L 176.671635 41.00336 
L 177.485305 40.98994 
L 178.298976 41.516977 
L 179.112647 41.602377 
L 179.926317 42.400253 
L 180.739988 42.246534 
L 182.367329 42.151374 
L 183.180999 41.282738 
L 188.063022 33.890792 
L 189.690364 31.443484 
L 190.504034 30.14053 
L 192.945046 22.522885 
L 193.758716 21.155271 
L 194.572387 20.353735 
L 195.386057 19.903557 
L 196.199728 19.622958 
L 197.827069 19.39726 
L 201.081751 19.30088 
L 239.324266 19.296 
L 406.940398 19.296 
L 406.940398 19.296 
" style="fill:none;stroke:#f10800;stroke-linecap:round;stroke-width:1.5;"/>
   </g>
   <g id="patch_3">
    <path d="M 66.053125 273.312 
L 66.053125 7.2 
" style="fill:none;stroke:#cccccc;stroke-linecap:square;stroke-linejoin:miter;stroke-width:0.8;"/>
   </g>
   <g id="patch_4">
    <path d="M 423.173125 273.312 
L 423.173125 7.2 
" style="fill:none;stroke:#cccccc;stroke-linecap:square;stroke-linejoin:miter;stroke-width:0.8;"/>
   </g>
   <g id="patch_5">
    <path d="M 66.053125 273.312 
L 423.173125 273.312 
" style="fill:none;stroke:#cccccc;stroke-linecap:square;stroke-linejoin:miter;stroke-width:0.8;"/>
   </g>
   <g id="patch_6">
    <path d="M 66.053125 7.2 
L 423.173125 7.2 
" style="fill:none;stroke:#cccccc;stroke-linecap:square;stroke-linejoin:miter;stroke-width:0.8;"/>
   </g>
  </g>
 </g>
 <defs>
  <clipPath id="p9064c632f4">
   <rect height="266.112" width="357.12" x="66.053125" y="7.2"/>
  </clipPath>
 </defs>
</svg>
